G04*
G04 #@! TF.GenerationSoftware,Altium Limited,Altium Designer,20.1.8 (145)*
G04*
G04 Layer_Color=16711935*
%FSTAX43Y43*%
%MOMM*%
G71*
G04*
G04 #@! TF.SameCoordinates,F520C443-D289-43A5-AF8C-D66C243BB58F*
G04*
G04*
G04 #@! TF.FilePolarity,Negative*
G04*
G01*
G75*
%ADD18R,1.000X1.050*%
G04:AMPARAMS|DCode=19|XSize=0.95mm|YSize=0.8mm|CornerRadius=0.25mm|HoleSize=0mm|Usage=FLASHONLY|Rotation=180.000|XOffset=0mm|YOffset=0mm|HoleType=Round|Shape=RoundedRectangle|*
%AMROUNDEDRECTD19*
21,1,0.950,0.300,0,0,180.0*
21,1,0.450,0.800,0,0,180.0*
1,1,0.500,-0.225,0.150*
1,1,0.500,0.225,0.150*
1,1,0.500,0.225,-0.150*
1,1,0.500,-0.225,-0.150*
%
%ADD19ROUNDEDRECTD19*%
G04:AMPARAMS|DCode=23|XSize=0.6mm|YSize=0.95mm|CornerRadius=0.2mm|HoleSize=0mm|Usage=FLASHONLY|Rotation=0.000|XOffset=0mm|YOffset=0mm|HoleType=Round|Shape=RoundedRectangle|*
%AMROUNDEDRECTD23*
21,1,0.600,0.550,0,0,0.0*
21,1,0.200,0.950,0,0,0.0*
1,1,0.400,0.100,-0.275*
1,1,0.400,-0.100,-0.275*
1,1,0.400,-0.100,0.275*
1,1,0.400,0.100,0.275*
%
%ADD23ROUNDEDRECTD23*%
%ADD27C,1.200*%
%ADD28C,1.700*%
%ADD29O,8.200X6.700*%
%ADD30C,7.200*%
%ADD64R,1.200X0.550*%
%ADD65R,1.050X1.000*%
G04:AMPARAMS|DCode=66|XSize=0.85mm|YSize=0.5mm|CornerRadius=0.145mm|HoleSize=0mm|Usage=FLASHONLY|Rotation=180.000|XOffset=0mm|YOffset=0mm|HoleType=Round|Shape=RoundedRectangle|*
%AMROUNDEDRECTD66*
21,1,0.850,0.210,0,0,180.0*
21,1,0.560,0.500,0,0,180.0*
1,1,0.290,-0.280,0.105*
1,1,0.290,0.280,0.105*
1,1,0.290,0.280,-0.105*
1,1,0.290,-0.280,-0.105*
%
%ADD66ROUNDEDRECTD66*%
G04:AMPARAMS|DCode=67|XSize=3.1mm|YSize=0.9mm|CornerRadius=0.205mm|HoleSize=0mm|Usage=FLASHONLY|Rotation=90.000|XOffset=0mm|YOffset=0mm|HoleType=Round|Shape=RoundedRectangle|*
%AMROUNDEDRECTD67*
21,1,3.100,0.490,0,0,90.0*
21,1,2.690,0.900,0,0,90.0*
1,1,0.410,0.245,1.345*
1,1,0.410,0.245,-1.345*
1,1,0.410,-0.245,-1.345*
1,1,0.410,-0.245,1.345*
%
%ADD67ROUNDEDRECTD67*%
G04:AMPARAMS|DCode=68|XSize=0.6mm|YSize=0.95mm|CornerRadius=0.2mm|HoleSize=0mm|Usage=FLASHONLY|Rotation=270.000|XOffset=0mm|YOffset=0mm|HoleType=Round|Shape=RoundedRectangle|*
%AMROUNDEDRECTD68*
21,1,0.600,0.550,0,0,270.0*
21,1,0.200,0.950,0,0,270.0*
1,1,0.400,-0.275,-0.100*
1,1,0.400,-0.275,0.100*
1,1,0.400,0.275,0.100*
1,1,0.400,0.275,-0.100*
%
%ADD68ROUNDEDRECTD68*%
G04:AMPARAMS|DCode=69|XSize=3.5mm|YSize=1.3mm|CornerRadius=0.375mm|HoleSize=0mm|Usage=FLASHONLY|Rotation=270.000|XOffset=0mm|YOffset=0mm|HoleType=Round|Shape=RoundedRectangle|*
%AMROUNDEDRECTD69*
21,1,3.500,0.550,0,0,270.0*
21,1,2.750,1.300,0,0,270.0*
1,1,0.750,-0.275,-1.375*
1,1,0.750,-0.275,1.375*
1,1,0.750,0.275,1.375*
1,1,0.750,0.275,-1.375*
%
%ADD69ROUNDEDRECTD69*%
%ADD70R,0.550X1.200*%
%ADD71R,0.600X0.700*%
G04:AMPARAMS|DCode=72|XSize=2.2mm|YSize=1.2mm|CornerRadius=0.35mm|HoleSize=0mm|Usage=FLASHONLY|Rotation=180.000|XOffset=0mm|YOffset=0mm|HoleType=Round|Shape=RoundedRectangle|*
%AMROUNDEDRECTD72*
21,1,2.200,0.500,0,0,180.0*
21,1,1.500,1.200,0,0,180.0*
1,1,0.700,-0.750,0.250*
1,1,0.700,0.750,0.250*
1,1,0.700,0.750,-0.250*
1,1,0.700,-0.750,-0.250*
%
%ADD72ROUNDEDRECTD72*%
G04:AMPARAMS|DCode=73|XSize=2.7mm|YSize=1.15mm|CornerRadius=0.338mm|HoleSize=0mm|Usage=FLASHONLY|Rotation=0.000|XOffset=0mm|YOffset=0mm|HoleType=Round|Shape=RoundedRectangle|*
%AMROUNDEDRECTD73*
21,1,2.700,0.475,0,0,0.0*
21,1,2.025,1.150,0,0,0.0*
1,1,0.675,1.013,-0.238*
1,1,0.675,-1.013,-0.238*
1,1,0.675,-1.013,0.238*
1,1,0.675,1.013,0.238*
%
%ADD73ROUNDEDRECTD73*%
G04:AMPARAMS|DCode=74|XSize=2.45mm|YSize=1.9mm|CornerRadius=0.525mm|HoleSize=0mm|Usage=FLASHONLY|Rotation=180.000|XOffset=0mm|YOffset=0mm|HoleType=Round|Shape=RoundedRectangle|*
%AMROUNDEDRECTD74*
21,1,2.450,0.850,0,0,180.0*
21,1,1.400,1.900,0,0,180.0*
1,1,1.050,-0.700,0.425*
1,1,1.050,0.700,0.425*
1,1,1.050,0.700,-0.425*
1,1,1.050,-0.700,-0.425*
%
%ADD74ROUNDEDRECTD74*%
%ADD75C,0.903*%
D18*
X0093349Y0102629D02*
D03*
Y0104079D02*
D03*
X0105449Y0104779D02*
D03*
Y0103329D02*
D03*
X0096224Y0086079D02*
D03*
Y0084629D02*
D03*
X0097449Y0108529D02*
D03*
Y0107079D02*
D03*
X0108199Y0107279D02*
D03*
Y0105829D02*
D03*
X0102699Y0106529D02*
D03*
Y0105079D02*
D03*
X0116674Y0104279D02*
D03*
Y0102829D02*
D03*
X0098699Y0104579D02*
D03*
Y0106029D02*
D03*
D19*
Y0103554D02*
D03*
Y0102054D02*
D03*
X0115174Y0104304D02*
D03*
Y0102804D02*
D03*
D23*
X0101099Y0103754D02*
D03*
X0100449D02*
D03*
X0099799D02*
D03*
Y0101854D02*
D03*
X0100449D02*
D03*
X0101099D02*
D03*
D27*
X0120149Y0087974D02*
D03*
X0121419D02*
D03*
X0120149Y0086704D02*
D03*
X0121419D02*
D03*
X0120149Y0085434D02*
D03*
X0121419D02*
D03*
X0090749Y0107129D02*
D03*
X0089479D02*
D03*
X0090749Y0108399D02*
D03*
X0089479D02*
D03*
X0090749Y0109669D02*
D03*
X0089479D02*
D03*
Y0087979D02*
D03*
Y0086709D02*
D03*
X0090749D02*
D03*
X0089479Y0085439D02*
D03*
X0090749D02*
D03*
Y0087979D02*
D03*
X0121419Y0105809D02*
D03*
X0120149D02*
D03*
X0121419Y0107079D02*
D03*
X0120149D02*
D03*
X0121419Y0108349D02*
D03*
X0120149D02*
D03*
D28*
X0088149Y0103554D02*
D03*
X0091049D02*
D03*
X0123449D02*
D03*
D29*
X0105449Y0097554D02*
D03*
D30*
X0121949D02*
D03*
X0088949D02*
D03*
D64*
X0094349Y0092054D02*
D03*
X0096149Y0091404D02*
D03*
Y0092704D02*
D03*
X0094349D02*
D03*
Y0091404D02*
D03*
D65*
X0092674Y0092054D02*
D03*
X0106274Y0113379D02*
D03*
X0104824D02*
D03*
X0091224Y0092054D02*
D03*
X0115199Y0101554D02*
D03*
X0116649D02*
D03*
D66*
X0106999Y0080729D02*
D03*
Y0081329D02*
D03*
Y0081929D02*
D03*
Y0080129D02*
D03*
Y0079529D02*
D03*
X0103949D02*
D03*
Y0080129D02*
D03*
Y0081929D02*
D03*
Y0081329D02*
D03*
Y0080729D02*
D03*
D67*
X0105299Y0080729D02*
D03*
D68*
X0104599Y0106804D02*
D03*
Y0107454D02*
D03*
Y0108104D02*
D03*
X0106499D02*
D03*
Y0107454D02*
D03*
Y0106804D02*
D03*
X0100624Y0091404D02*
D03*
Y0092054D02*
D03*
Y0092704D02*
D03*
X0098724D02*
D03*
Y0092054D02*
D03*
Y0091404D02*
D03*
X0111999Y0102204D02*
D03*
Y0101554D02*
D03*
Y0100904D02*
D03*
X0113899D02*
D03*
Y0101554D02*
D03*
Y0102204D02*
D03*
D69*
X0119049Y0091254D02*
D03*
X0115049D02*
D03*
D70*
X0097499Y0089829D02*
D03*
X0096199D02*
D03*
Y0088029D02*
D03*
X0096849D02*
D03*
X0097499D02*
D03*
D71*
X0109449Y0105804D02*
D03*
Y0107104D02*
D03*
X0101449Y0105304D02*
D03*
Y0106604D02*
D03*
D72*
X0098449Y0098554D02*
D03*
Y0096554D02*
D03*
X0095449Y0097554D02*
D03*
D73*
X0101324Y0079354D02*
D03*
Y0082104D02*
D03*
D74*
X0109874Y0082604D02*
D03*
Y0079654D02*
D03*
D75*
X0105299Y0079699D02*
D03*
Y0081759D02*
D03*
Y0080729D02*
D03*
M02*
