M48
;Layer_Color=9474304
;FILE_FORMAT=4:3
METRIC,LZ
;TYPE=PLATED
T1F00S00C0.300
T2F00S00C0.650
T3F00S00C1.000
%
T01
X0090299Y0091554
X0091624Y0091629
Y0096754
X0089574Y0098254
X0089799Y0103454
X0091349Y0103504
X0097024Y0103004
X0098649Y0104829
X0100624Y0106304
X0103199Y0107279
X0107574Y0107329
X0110299Y0106229
X0112549Y0104529
X0114224Y0102354
X0115099Y0100304
X0113499Y0096179
X0112024Y0096204
X0114149Y0092579
X0112474Y0090329
X0110424Y0088854
X0108099Y0087904
X0108133Y0090744
X0105474Y0091004
X0102424Y0088004
X0100174Y0088979
X0098424Y0090404
X0096874Y0092329
X0095849Y0094729
X0095874Y0100404
T02
X0089703Y0088804
Y0090074
X0090973
Y0088804
X0092243
Y0090074
X0091973Y0105034
X0093243
Y0106304
X0091973
X0090703
Y0105034
X0118655
Y0106304
Y0090074
Y0088804
X0119925
Y0090074
X0121195
Y0088804
Y0105034
Y0106304
X0119925
Y0105034
T03
X0094949Y0097554
X0115949
M30
