G04*
G04 #@! TF.GenerationSoftware,Altium Limited,Altium Designer,20.1.8 (145)*
G04*
G04 Layer_Color=8388736*
%FSTAX43Y43*%
%MOMM*%
G71*
G04*
G04 #@! TF.SameCoordinates,E683AD83-98AB-4380-AA0D-37E4A2E561CE*
G04*
G04*
G04 #@! TF.FilePolarity,Negative*
G04*
G01*
G75*
G04:AMPARAMS|DCode=14|XSize=0.8mm|YSize=1.2mm|CornerRadius=0.25mm|HoleSize=0mm|Usage=FLASHONLY|Rotation=0.000|XOffset=0mm|YOffset=0mm|HoleType=Round|Shape=RoundedRectangle|*
%AMROUNDEDRECTD14*
21,1,0.800,0.700,0,0,0.0*
21,1,0.300,1.200,0,0,0.0*
1,1,0.500,0.150,-0.350*
1,1,0.500,-0.150,-0.350*
1,1,0.500,-0.150,0.350*
1,1,0.500,0.150,0.350*
%
%ADD14ROUNDEDRECTD14*%
G04:AMPARAMS|DCode=15|XSize=0.6mm|YSize=0.68mm|CornerRadius=0.2mm|HoleSize=0mm|Usage=FLASHONLY|Rotation=105.000|XOffset=0mm|YOffset=0mm|HoleType=Round|Shape=RoundedRectangle|*
%AMROUNDEDRECTD15*
21,1,0.600,0.280,0,0,105.0*
21,1,0.200,0.680,0,0,105.0*
1,1,0.400,0.109,0.133*
1,1,0.400,0.161,-0.060*
1,1,0.400,-0.109,-0.133*
1,1,0.400,-0.161,0.060*
%
%ADD15ROUNDEDRECTD15*%
G04:AMPARAMS|DCode=16|XSize=0.6mm|YSize=0.68mm|CornerRadius=0.2mm|HoleSize=0mm|Usage=FLASHONLY|Rotation=300.000|XOffset=0mm|YOffset=0mm|HoleType=Round|Shape=RoundedRectangle|*
%AMROUNDEDRECTD16*
21,1,0.600,0.280,0,0,300.0*
21,1,0.200,0.680,0,0,300.0*
1,1,0.400,-0.071,-0.157*
1,1,0.400,-0.171,0.017*
1,1,0.400,0.071,0.157*
1,1,0.400,0.171,-0.017*
%
%ADD16ROUNDEDRECTD16*%
%ADD17R,1.050X1.000*%
G04:AMPARAMS|DCode=18|XSize=1mm|YSize=1.05mm|CornerRadius=0mm|HoleSize=0mm|Usage=FLASHONLY|Rotation=60.000|XOffset=0mm|YOffset=0mm|HoleType=Round|Shape=Rectangle|*
%AMROTATEDRECTD18*
4,1,4,0.205,-0.696,-0.705,-0.171,-0.205,0.696,0.705,0.171,0.205,-0.696,0.0*
%
%ADD18ROTATEDRECTD18*%

G04:AMPARAMS|DCode=19|XSize=1mm|YSize=1.05mm|CornerRadius=0mm|HoleSize=0mm|Usage=FLASHONLY|Rotation=135.000|XOffset=0mm|YOffset=0mm|HoleType=Round|Shape=Rectangle|*
%AMROTATEDRECTD19*
4,1,4,0.725,0.018,-0.018,-0.725,-0.725,-0.018,0.018,0.725,0.725,0.018,0.0*
%
%ADD19ROTATEDRECTD19*%

G04:AMPARAMS|DCode=20|XSize=0.95mm|YSize=0.8mm|CornerRadius=0.25mm|HoleSize=0mm|Usage=FLASHONLY|Rotation=120.000|XOffset=0mm|YOffset=0mm|HoleType=Round|Shape=RoundedRectangle|*
%AMROUNDEDRECTD20*
21,1,0.950,0.300,0,0,120.0*
21,1,0.450,0.800,0,0,120.0*
1,1,0.500,0.017,0.270*
1,1,0.500,0.242,-0.120*
1,1,0.500,-0.017,-0.270*
1,1,0.500,-0.242,0.120*
%
%ADD20ROUNDEDRECTD20*%
G04:AMPARAMS|DCode=21|XSize=0.95mm|YSize=0.8mm|CornerRadius=0.25mm|HoleSize=0mm|Usage=FLASHONLY|Rotation=150.000|XOffset=0mm|YOffset=0mm|HoleType=Round|Shape=RoundedRectangle|*
%AMROUNDEDRECTD21*
21,1,0.950,0.300,0,0,150.0*
21,1,0.450,0.800,0,0,150.0*
1,1,0.500,-0.120,0.242*
1,1,0.500,0.270,0.017*
1,1,0.500,0.120,-0.242*
1,1,0.500,-0.270,-0.017*
%
%ADD21ROUNDEDRECTD21*%
G04:AMPARAMS|DCode=22|XSize=0.95mm|YSize=0.8mm|CornerRadius=0.25mm|HoleSize=0mm|Usage=FLASHONLY|Rotation=45.000|XOffset=0mm|YOffset=0mm|HoleType=Round|Shape=RoundedRectangle|*
%AMROUNDEDRECTD22*
21,1,0.950,0.300,0,0,45.0*
21,1,0.450,0.800,0,0,45.0*
1,1,0.500,0.265,0.053*
1,1,0.500,-0.053,-0.265*
1,1,0.500,-0.265,-0.053*
1,1,0.500,0.053,0.265*
%
%ADD22ROUNDEDRECTD22*%
G04:AMPARAMS|DCode=23|XSize=0.95mm|YSize=0.8mm|CornerRadius=0.25mm|HoleSize=0mm|Usage=FLASHONLY|Rotation=90.000|XOffset=0mm|YOffset=0mm|HoleType=Round|Shape=RoundedRectangle|*
%AMROUNDEDRECTD23*
21,1,0.950,0.300,0,0,90.0*
21,1,0.450,0.800,0,0,90.0*
1,1,0.500,0.150,0.225*
1,1,0.500,0.150,-0.225*
1,1,0.500,-0.150,-0.225*
1,1,0.500,-0.150,0.225*
%
%ADD23ROUNDEDRECTD23*%
G04:AMPARAMS|DCode=24|XSize=4.2mm|YSize=3.2mm|CornerRadius=0.85mm|HoleSize=0mm|Usage=FLASHONLY|Rotation=45.000|XOffset=0mm|YOffset=0mm|HoleType=Round|Shape=RoundedRectangle|*
%AMROUNDEDRECTD24*
21,1,4.200,1.500,0,0,45.0*
21,1,2.500,3.200,0,0,45.0*
1,1,1.700,1.414,0.354*
1,1,1.700,-0.354,-1.414*
1,1,1.700,-1.414,-0.354*
1,1,1.700,0.354,1.414*
%
%ADD24ROUNDEDRECTD24*%
%ADD25C,1.200*%
%ADD26C,1.700*%
D14*
X0106399Y0091804D02*
D03*
X0105449D02*
D03*
X0104499D02*
D03*
X0104499Y0089204D02*
D03*
X0105449Y0089204D02*
D03*
X0106399D02*
D03*
D15*
X0099087Y0096D02*
D03*
X0097811Y0095658D02*
D03*
D16*
X0098602Y0093799D02*
D03*
X0099746Y0094459D02*
D03*
D17*
X0113499Y0097454D02*
D03*
X0112049D02*
D03*
X0097424Y0097554D02*
D03*
X0098874D02*
D03*
D18*
X0111296Y0094492D02*
D03*
X0112552Y0093767D02*
D03*
D19*
X0099761Y0091891D02*
D03*
X0100787Y0092917D02*
D03*
D20*
X0108599Y0089954D02*
D03*
X0109899Y0090704D02*
D03*
D21*
X0101574Y0090454D02*
D03*
X0102324Y0091754D02*
D03*
D22*
X0110194Y0092984D02*
D03*
X0111254Y0091924D02*
D03*
D23*
X0105624Y0104629D02*
D03*
X0107124D02*
D03*
D24*
X0100449Y0102529D02*
D03*
D25*
X0089703Y0088804D02*
D03*
Y0090074D02*
D03*
X0090973Y0088804D02*
D03*
Y0090074D02*
D03*
X0092243Y0088804D02*
D03*
Y0090074D02*
D03*
X0093243Y0106304D02*
D03*
Y0105034D02*
D03*
X0091973Y0106304D02*
D03*
Y0105034D02*
D03*
X0090703Y0106304D02*
D03*
Y0105034D02*
D03*
X0118655Y0088804D02*
D03*
Y0090074D02*
D03*
X0119925Y0088804D02*
D03*
Y0090074D02*
D03*
X0121195Y0088804D02*
D03*
Y0090074D02*
D03*
Y0106304D02*
D03*
Y0105034D02*
D03*
X0119925Y0106304D02*
D03*
Y0105034D02*
D03*
X0118655Y0106304D02*
D03*
Y0105034D02*
D03*
D26*
X0115949Y0097554D02*
D03*
X0094949D02*
D03*
M02*
