G04*
G04 #@! TF.GenerationSoftware,Altium Limited,Altium Designer,20.1.8 (145)*
G04*
G04 Layer_Physical_Order=1*
G04 Layer_Color=255*
%FSTAX43Y43*%
%MOMM*%
G71*
G04*
G04 #@! TF.SameCoordinates,F7034590-6C5F-481A-A840-7F1FF93F9C38*
G04*
G04*
G04 #@! TF.FilePolarity,Positive*
G04*
G01*
G75*
%ADD17R,0.760X2.000*%
%ADD18C,0.300*%
%ADD19C,0.500*%
%ADD20C,1.000*%
%ADD21C,2.250*%
%ADD22C,2.000*%
G36*
X0107365Y0117965D02*
X0108642Y0117805D01*
X0109905Y0117565D01*
X0111151Y0117246D01*
X0112375Y011685D01*
X0113572Y0116377D01*
X0114736Y0115831D01*
X0115072Y0115647D01*
X011504Y0115524D01*
X0103807D01*
X0103649Y0115493D01*
X0103516Y0115403D01*
X0101816Y0113704D01*
X0101666Y0113733D01*
X0101644Y0113786D01*
X0101443Y0114048D01*
X0101181Y0114249D01*
X0100876Y0114376D01*
X0100549Y0114419D01*
X0100222Y0114376D01*
X0099917Y0114249D01*
X0099655Y0114048D01*
X0099454Y0113786D01*
X0099327Y0113481D01*
X0099284Y0113154D01*
X0099327Y0112827D01*
X0099454Y0112522D01*
X0099655Y011226D01*
X0099917Y0112059D01*
X0100222Y0111932D01*
X0100549Y0111889D01*
X0100876Y0111932D01*
X0101181Y0112059D01*
X0101443Y011226D01*
X0101644Y0112522D01*
X0101711Y0112682D01*
X0101722Y0112698D01*
X0101732Y0112719D01*
X0101733Y0112722D01*
X0101734Y0112723D01*
X0101736Y0112724D01*
X0101739Y0112727D01*
X0101748Y0112731D01*
X0101763Y0112736D01*
X0101784Y011274D01*
X01018Y0112742D01*
X0101849D01*
X0102007Y0112773D01*
X010214Y0112863D01*
X010269Y0113413D01*
X010281Y0113353D01*
X0102784Y0113154D01*
X0102827Y0112827D01*
X0102954Y0112522D01*
X0103155Y011226D01*
X0103417Y0112059D01*
X0103722Y0111932D01*
X0104049Y0111889D01*
X0104376Y0111932D01*
X0104681Y0112059D01*
X0104943Y011226D01*
X0105144Y0112522D01*
X0105262Y0112805D01*
X0105357Y0112823D01*
X010549Y0112913D01*
X0106282Y0113705D01*
X010639Y0113633D01*
X0106327Y0113481D01*
X0106284Y0113154D01*
X0106327Y0112827D01*
X0106454Y0112522D01*
X0106655Y011226D01*
X0106917Y0112059D01*
X0107222Y0111932D01*
X0107549Y0111889D01*
X0107592Y0111895D01*
X0107699Y0111894D01*
X0107948Y0111879D01*
X0108048Y0111865D01*
X0108138Y0111848D01*
X0108214Y0111828D01*
X0108277Y0111805D01*
X0108325Y0111782D01*
X010836Y0111761D01*
X0108362Y0111758D01*
X0114608Y0105513D01*
X0114741Y0105423D01*
X0114899Y0105392D01*
X0117846D01*
X0117859Y0105265D01*
X0117858Y0105265D01*
X0117835Y0105255D01*
X011781Y010525D01*
X0117629Y0105175D01*
X0117607Y0105161D01*
X0117584Y0105151D01*
X0117421Y0105042D01*
X0117403Y0105024D01*
X0117381Y010501D01*
X0117243Y0104872D01*
X0117229Y010485D01*
X0117211Y0104832D01*
X0117102Y0104669D01*
X0117092Y0104646D01*
X0117078Y0104624D01*
X0117003Y0104443D01*
X0116998Y0104418D01*
X0116988Y0104395D01*
X011695Y0104203D01*
Y0104183D01*
X0116945Y0104165D01*
X011694Y0104067D01*
X0116941Y010406D01*
X011694Y0104054D01*
Y0093554D01*
X0116941Y0093548D01*
X011694Y0093541D01*
X0116945Y0093443D01*
X011695Y0093425D01*
Y0093405D01*
X0116988Y0093213D01*
X0116998Y009319D01*
X0117003Y0093165D01*
X0117078Y0092983D01*
X0117092Y0092962D01*
X0117102Y0092939D01*
X0117211Y0092776D01*
X0117229Y0092758D01*
X0117243Y0092736D01*
X0117381Y0092598D01*
X0117403Y0092584D01*
X0117421Y0092566D01*
X0117584Y0092457D01*
X0117607Y0092447D01*
X0117629Y0092433D01*
X011781Y0092358D01*
X0117835Y0092353D01*
X0117858Y0092343D01*
X011805Y0092305D01*
X011807D01*
X0118088Y00923D01*
X0118186Y0092295D01*
X0118193Y0092296D01*
X0118199Y0092295D01*
X012269D01*
Y0091986D01*
X0122573Y0091937D01*
X0122565Y0091945D01*
X0122431Y0092035D01*
X0122273Y0092066D01*
X0114949D01*
X0114791Y0092035D01*
X0114658Y0091945D01*
X01068Y0084087D01*
X0099565D01*
X0099562Y0084088D01*
X0099561Y0084091D01*
Y00853D01*
X0099783D01*
Y0087808D01*
X0098515D01*
Y00853D01*
X0098737D01*
Y0083675D01*
Y0081808D01*
X0098515D01*
Y00793D01*
X0099783D01*
Y0081808D01*
X0099561D01*
Y0083259D01*
X0099562Y0083263D01*
X0099565Y0083264D01*
X010697D01*
X0107128Y0083295D01*
X0107262Y0083384D01*
X0107952Y0084074D01*
X0108067Y008401D01*
X0108042Y0083754D01*
X0108071Y008346D01*
X0108156Y0083177D01*
X0108296Y0082917D01*
X0108483Y0082688D01*
X0108712Y0082501D01*
X0108972Y0082361D01*
X0109255Y0082276D01*
X0109549Y0082247D01*
X0109843Y0082276D01*
X0110126Y0082361D01*
X0110386Y0082501D01*
X0110615Y0082688D01*
X0110802Y0082917D01*
X0110942Y0083177D01*
X0111027Y008346D01*
X0111055Y0083738D01*
X0111059Y0083757D01*
X011106Y0083866D01*
X0111066Y0083954D01*
X0111076Y0084032D01*
X0111089Y00841D01*
X0111104Y0084158D01*
X0111122Y0084207D01*
X011114Y0084246D01*
X0111158Y0084278D01*
X0111177Y0084304D01*
X0111214Y0084346D01*
X0111219Y0084355D01*
X0116756Y0089891D01*
X0119432D01*
X0119496Y0089766D01*
X011949Y0089758D01*
X0119414Y0089575D01*
X0119388Y0089378D01*
X0119414Y0089181D01*
X011949Y0088997D01*
X0119496Y0088989D01*
X0119432Y0088864D01*
X0117403D01*
X0117403Y0088864D01*
X0117207Y0088838D01*
X0117024Y0088763D01*
X0116868Y0088643D01*
X0116868Y0088643D01*
X011365Y0085424D01*
X0113641Y0085419D01*
X0113599Y0085382D01*
X0113573Y0085363D01*
X0113541Y0085345D01*
X0113502Y0085327D01*
X0113453Y0085309D01*
X0113395Y0085294D01*
X0113334Y0085282D01*
X0113154Y0085265D01*
X0113052Y0085264D01*
X0113033Y008526D01*
X0112755Y0085232D01*
X0112472Y0085147D01*
X0112212Y0085007D01*
X0111983Y008482D01*
X0111796Y0084591D01*
X0111656Y0084331D01*
X0111571Y0084048D01*
X0111542Y0083754D01*
X0111571Y008346D01*
X0111656Y0083177D01*
X0111796Y0082917D01*
X0111983Y0082688D01*
X0112212Y0082501D01*
X0112472Y0082361D01*
X0112755Y0082276D01*
X0113049Y0082247D01*
X0113343Y0082276D01*
X0113626Y0082361D01*
X0113886Y0082501D01*
X0114115Y0082688D01*
X0114302Y0082917D01*
X0114442Y0083177D01*
X0114527Y008346D01*
X0114555Y0083738D01*
X0114559Y0083757D01*
X011456Y0083866D01*
X0114566Y0083954D01*
X0114576Y0084032D01*
X0114589Y00841D01*
X0114604Y0084158D01*
X0114622Y0084207D01*
X011464Y0084246D01*
X0114658Y0084278D01*
X0114677Y0084304D01*
X0114714Y0084346D01*
X0114719Y0084355D01*
X0116776Y0086411D01*
X0116862Y0086377D01*
X0116894Y008635D01*
X011689Y0086267D01*
X0116891Y008626D01*
X011689Y0086254D01*
Y0080551D01*
X011649Y0080281D01*
X0115435Y0079651D01*
X0114345Y0079085D01*
X0113223Y0078585D01*
X0112073Y0078153D01*
X0110899Y0077792D01*
X0109706Y0077501D01*
X0108497Y0077282D01*
X0107278Y0077135D01*
X0106052Y0077063D01*
X0104823Y0077063D01*
X0103597Y0077138D01*
X0102378Y0077285D01*
X0101169Y0077505D01*
X0099976Y0077798D01*
X0098803Y0078161D01*
X0097653Y0078594D01*
X0096532Y0079095D01*
X0096375Y0079177D01*
X0096405Y00793D01*
X0097283D01*
Y0081808D01*
X0096015D01*
Y0079486D01*
X0095906Y007942D01*
X0095442Y0079662D01*
X0094389Y0080293D01*
X0093995Y0080563D01*
X0093997Y0086262D01*
X0093995Y0086268D01*
X0093996Y0086275D01*
X0093991Y0086373D01*
X0093987Y0086391D01*
Y008641D01*
X0093948Y0086603D01*
X0093939Y0086626D01*
X0093934Y0086651D01*
X0093859Y0086832D01*
X0093845Y0086854D01*
X0093835Y0086877D01*
X0093726Y008704D01*
X0093708Y0087058D01*
X0093694Y0087079D01*
X0093555Y0087218D01*
X0093534Y0087232D01*
X0093516Y008725D01*
X0093353Y0087359D01*
X0093329Y0087369D01*
X0093308Y0087383D01*
X0093127Y0087458D01*
X0093102Y0087463D01*
X0093078Y0087473D01*
X0092886Y0087511D01*
X0092867D01*
X0092848Y0087516D01*
X009275Y0087521D01*
X0092744Y008752D01*
X0092738Y0087521D01*
X0091409D01*
X0091346Y0087648D01*
X0091407Y0087727D01*
X0091483Y0087911D01*
X0091509Y0088108D01*
X0091483Y0088305D01*
X0091407Y0088488D01*
X0091286Y0088645D01*
X0091242Y0088679D01*
Y0088806D01*
X0091286Y008884D01*
X0091407Y0088997D01*
X0091483Y0089181D01*
X0091489Y0089226D01*
X0091481Y0089226D01*
X0091437Y008922D01*
X0091394Y008921D01*
X0091351Y0089196D01*
X0091309Y0089178D01*
X0091267Y0089156D01*
X0091226Y008913D01*
X0091185Y00891D01*
X0091145Y0089066D01*
X0091106Y0089028D01*
Y0089555D01*
X0090839Y0089288D01*
X0090659Y0089468D01*
X0091242Y0090051D01*
Y0090076D01*
X0091286Y009011D01*
X0091407Y0090267D01*
X0091483Y0090451D01*
X0091509Y0090648D01*
X0091483Y0090845D01*
X0091407Y0091028D01*
X0091286Y0091185D01*
X0091129Y0091306D01*
X0090946Y0091382D01*
X0090749Y0091408D01*
X0090552Y0091382D01*
X0090368Y0091306D01*
X0090211Y0091185D01*
X0090177Y0091142D01*
X009005D01*
X0090016Y0091185D01*
X0089859Y0091306D01*
X0089676Y0091382D01*
X0089479Y0091408D01*
X0089282Y0091382D01*
X0089098Y0091306D01*
X0088941Y0091185D01*
X008882Y0091028D01*
X0088744Y0090845D01*
X0088718Y0090648D01*
X0088744Y0090451D01*
X008882Y0090267D01*
X0088941Y009011D01*
X0088985Y0090076D01*
Y0089949D01*
X0088941Y0089915D01*
X008882Y0089758D01*
X0088744Y0089575D01*
X0088718Y0089378D01*
X0088744Y0089181D01*
X008882Y0088997D01*
X0088941Y008884D01*
X0088985Y0088806D01*
Y0088679D01*
X0088941Y0088645D01*
X008882Y0088488D01*
X0088744Y0088305D01*
X0088718Y0088108D01*
X0088744Y0087911D01*
X008882Y0087727D01*
X0088881Y0087648D01*
X0088819Y0087521D01*
X0088197D01*
Y0092295D01*
X0092699D01*
X0092705Y0092296D01*
X0092712Y0092295D01*
X009281Y00923D01*
X0092828Y0092305D01*
X0092848D01*
X009304Y0092343D01*
X0093063Y0092353D01*
X0093088Y0092358D01*
X009327Y0092433D01*
X0093291Y0092447D01*
X0093314Y0092457D01*
X0093477Y0092566D01*
X0093495Y0092584D01*
X0093517Y0092598D01*
X0093655Y0092736D01*
X0093669Y0092758D01*
X0093687Y0092776D01*
X0093796Y0092939D01*
X0093806Y0092962D01*
X009382Y0092983D01*
X0093895Y0093165D01*
X00939Y009319D01*
X009391Y0093213D01*
X0093948Y0093405D01*
Y0093425D01*
X0093953Y0093443D01*
X0093958Y0093541D01*
X0093957Y0093548D01*
X0093958Y0093554D01*
Y0104054D01*
X0093957Y010406D01*
X0093958Y0104067D01*
X0093953Y0104165D01*
X0093948Y0104183D01*
Y0104203D01*
X009391Y0104395D01*
X00939Y0104418D01*
X0093895Y0104443D01*
X009382Y0104624D01*
X0093806Y0104646D01*
X0093796Y0104669D01*
X0093687Y0104832D01*
X0093669Y010485D01*
X0093655Y0104872D01*
X0093517Y010501D01*
X0093495Y0105024D01*
X0093477Y0105042D01*
X0093314Y0105151D01*
X0093291Y0105161D01*
X0093269Y0105175D01*
X0093088Y010525D01*
X0093063Y0105255D01*
X009304Y0105265D01*
X0092848Y0105303D01*
X0092828D01*
X009281Y0105308D01*
X0092712Y0105313D01*
X0092705Y0105312D01*
X0092699Y0105313D01*
X0088197D01*
Y0108611D01*
X0088501Y010909D01*
X0088675Y0109328D01*
X0088801Y0109313D01*
X008882Y0109267D01*
X0088941Y010911D01*
X0088985Y0109076D01*
Y0108949D01*
X0088941Y0108915D01*
X008882Y0108758D01*
X0088744Y0108575D01*
X0088718Y0108378D01*
X0088744Y0108181D01*
X008882Y0107997D01*
X0088941Y010784D01*
X0088985Y0107806D01*
Y0107679D01*
X0088941Y0107645D01*
X008882Y0107488D01*
X0088744Y0107305D01*
X0088718Y0107108D01*
X0088744Y0106911D01*
X008882Y0106727D01*
X0088941Y010657D01*
X0089098Y0106449D01*
X0089282Y0106373D01*
X0089479Y0106347D01*
X0089676Y0106373D01*
X0089859Y0106449D01*
X0090016Y010657D01*
X009005Y0106614D01*
X0090177D01*
X0090211Y010657D01*
X0090368Y0106449D01*
X0090552Y0106373D01*
X0090749Y0106347D01*
X0090946Y0106373D01*
X0091129Y0106449D01*
X0091286Y010657D01*
X0091407Y0106727D01*
X0091483Y0106911D01*
X0091509Y0107108D01*
X0091483Y0107305D01*
X0091407Y0107488D01*
X0091286Y0107645D01*
X0091242Y0107679D01*
Y0107806D01*
X0091286Y010784D01*
X0091407Y0107997D01*
X0091483Y0108181D01*
X0091509Y0108378D01*
X0091483Y0108575D01*
X0091407Y0108758D01*
X0091286Y0108915D01*
X0091242Y0108949D01*
Y0109047D01*
X0091224Y0109064D01*
X0091188Y0109091D01*
X009115Y0109113D01*
X009111Y0109131D01*
X0091068Y0109146D01*
X0091025Y0109156D01*
X0090979Y0109161D01*
X0090931Y0109163D01*
X0090881Y0109161D01*
X0090829Y0109154D01*
X0091244Y0109718D01*
X0091253Y0109662D01*
X0091278Y0109558D01*
X0091294Y010951D01*
X0091312Y0109465D01*
X0091332Y0109422D01*
X0091355Y0109382D01*
X009138Y0109345D01*
X0091407Y0109311D01*
X009142Y0109297D01*
X0091483Y0109451D01*
X0091509Y0109648D01*
X0091483Y0109845D01*
X0091407Y0110028D01*
X0091364Y0110084D01*
X0090839Y0109558D01*
X0090659Y0109738D01*
X0091185Y0110263D01*
X0091129Y0110306D01*
X0090946Y0110382D01*
X0090749Y0110408D01*
X0090552Y0110382D01*
X0090368Y0110306D01*
X0090211Y0110185D01*
X0090177Y0110142D01*
X009005D01*
X0090016Y0110185D01*
X0089859Y0110306D01*
X0089676Y0110382D01*
X0089618Y011039D01*
X0089571Y0110508D01*
X0090079Y0111121D01*
X009096Y0112058D01*
X0091898Y0112938D01*
X0092889Y0113757D01*
X009393Y0114513D01*
X0095016Y0115202D01*
X0096143Y0115822D01*
X0097307Y0116369D01*
X0098503Y0116843D01*
X0099726Y011724D01*
X0100972Y011756D01*
X0102236Y0117802D01*
X0103512Y0117963D01*
X0104795Y0118045D01*
X0106082Y0118045D01*
X0107365Y0117965D01*
D02*
G37*
G36*
X0105026Y0113375D02*
X0105032Y011337D01*
X0105042Y0113366D01*
X0105054Y0113363D01*
X010507Y011336D01*
X0105089Y0113358D01*
X0105138Y0113355D01*
X0105199Y0113354D01*
Y0113054D01*
X010517Y0113054D01*
X0105082Y0113047D01*
X0105068Y0113044D01*
X0105057Y0113041D01*
X0105048Y0113037D01*
X0105043Y0113032D01*
X0105041Y0113027D01*
X0105023Y0113379D01*
X0105026Y0113375D01*
D02*
G37*
G36*
X0101503Y0113466D02*
X0101524Y0113432D01*
X010155Y0113402D01*
X010158Y0113376D01*
X0101614Y0113354D01*
X0101652Y0113336D01*
X0101695Y0113322D01*
X0101742Y0113312D01*
X0101793Y0113306D01*
X0101849Y0113304D01*
Y0113004D01*
X0101793Y0113002D01*
X0101742Y0112996D01*
X0101695Y0112986D01*
X0101652Y0112972D01*
X0101614Y0112954D01*
X010158Y0112932D01*
X010155Y0112906D01*
X0101524Y0112876D01*
X0101503Y0112842D01*
X0101486Y0112804D01*
Y0113504D01*
X0101503Y0113466D01*
D02*
G37*
G36*
X0111869Y0113749D02*
X0112068Y0113574D01*
X0112162Y0113502D01*
X0112251Y0113441D01*
X0112337Y0113392D01*
X0112418Y0113354D01*
X0112495Y0113326D01*
X0112569Y011331D01*
X0112638Y0113304D01*
Y0113004D01*
X0112569Y0112998D01*
X0112495Y0112982D01*
X0112418Y0112954D01*
X0112337Y0112916D01*
X0112251Y0112867D01*
X0112162Y0112806D01*
X0112068Y0112734D01*
X0111869Y0112559D01*
X0111763Y0112454D01*
Y0113854D01*
X0111869Y0113749D01*
D02*
G37*
G36*
X010855Y0112995D02*
X0108566Y011273D01*
X0108582Y0112613D01*
X0108602Y0112507D01*
X0108628Y0112412D01*
X0108658Y0112327D01*
X0108693Y0112253D01*
X0108733Y0112189D01*
X0108778Y0112137D01*
X0108566Y0111925D01*
X0108514Y011197D01*
X010845Y011201D01*
X0108376Y0112045D01*
X0108291Y0112075D01*
X0108196Y0112101D01*
X010809Y0112121D01*
X0107973Y0112137D01*
X0107708Y0112153D01*
X0107559Y0112154D01*
X0108549Y0113144D01*
X010855Y0112995D01*
D02*
G37*
G36*
X0116951Y0114525D02*
X0117992Y011377D01*
X0118985Y0112952D01*
X0119924Y0112072D01*
X0120805Y0111136D01*
X0121191Y0110671D01*
X0121136Y0110539D01*
X012112Y0110537D01*
X0120814Y0110843D01*
X0120681Y0110932D01*
X0120523Y0110964D01*
X0120199D01*
X0116505Y0114658D01*
X0116584Y0114757D01*
X0116951Y0114525D01*
D02*
G37*
G36*
X0121014Y0110276D02*
X0121049Y0110249D01*
X0121087Y0110226D01*
X0121127Y0110205D01*
X012117Y0110188D01*
X0121215Y0110173D01*
X0121262Y0110162D01*
X0121312Y0110154D01*
X0121365Y0110149D01*
X012142Y0110148D01*
X0120919Y0109659D01*
X0120918Y0109713D01*
X0120915Y0109766D01*
X0120908Y0109815D01*
X0120897Y0109863D01*
X0120884Y0109908D01*
X0120867Y010995D01*
X0120847Y0109991D01*
X0120823Y0110028D01*
X0120796Y0110064D01*
X0120766Y0110097D01*
X0120981Y0110306D01*
X0121014Y0110276D01*
D02*
G37*
G36*
X0119409Y0109805D02*
X0119388Y0109648D01*
X0119414Y0109451D01*
X011949Y0109267D01*
X0119611Y010911D01*
X0119655Y0109076D01*
Y0108949D01*
X0119611Y0108915D01*
X011949Y0108758D01*
X011942Y010859D01*
X0119306Y0108538D01*
X0119296Y0108534D01*
X0114385Y0113445D01*
X0114252Y0113535D01*
X0114094Y0113566D01*
X0112611D01*
X0112607Y0113566D01*
X0112568Y0113575D01*
X0112517Y0113593D01*
X0112457Y0113621D01*
X0112389Y0113661D01*
X0112313Y0113712D01*
X0112233Y0113774D01*
X0112046Y0113939D01*
X011197Y0114014D01*
X0111966Y0114019D01*
X0112009Y0114146D01*
X0115068D01*
X0119409Y0109805D01*
D02*
G37*
G36*
X0119733Y010773D02*
X0119768Y0107703D01*
X0119806Y010768D01*
X0119846Y010766D01*
X0119889Y0107643D01*
X0119934Y0107629D01*
X0119981Y0107619D01*
X0120031Y0107612D01*
X0120083Y0107608D01*
X0120138Y0107608D01*
X0119649Y0107107D01*
X0119647Y0107162D01*
X0119642Y0107214D01*
X0119634Y0107264D01*
X0119623Y0107312D01*
X0119609Y0107357D01*
X0119591Y01074D01*
X0119571Y010744D01*
X0119547Y0107477D01*
X011952Y0107513D01*
X011949Y0107545D01*
X01197Y010776D01*
X0119733Y010773D01*
D02*
G37*
G36*
X0121731Y0106711D02*
X0121697Y0106671D01*
X0121667Y0106631D01*
X0121641Y0106589D01*
X0121619Y0106548D01*
X0121601Y0106505D01*
X0121587Y0106463D01*
X0121577Y0106419D01*
X0121571Y0106375D01*
X0121569Y0106331D01*
X0121269D01*
X0121267Y0106375D01*
X0121261Y0106419D01*
X0121251Y0106463D01*
X0121237Y0106505D01*
X0121219Y0106548D01*
X0121197Y0106589D01*
X0121171Y0106631D01*
X0121141Y0106671D01*
X0121107Y0106711D01*
X0121069Y0106751D01*
X0121769D01*
X0121731Y0106711D01*
D02*
G37*
G36*
X0110132Y0114019D02*
X0109954Y0113786D01*
X0109827Y0113481D01*
X0109784Y0113154D01*
X0109827Y0112827D01*
X0109954Y0112522D01*
X0110155Y011226D01*
X0110417Y0112059D01*
X0110722Y0111932D01*
X0111049Y0111889D01*
X0111376Y0111932D01*
X0111681Y0112059D01*
X0111943Y011226D01*
X011197Y0112294D01*
X0112046Y0112369D01*
X0112233Y0112534D01*
X0112313Y0112596D01*
X0112389Y0112647D01*
X0112457Y0112687D01*
X0112517Y0112715D01*
X0112568Y0112733D01*
X0112607Y0112742D01*
X0112611Y0112742D01*
X0113923D01*
X0119329Y0107336D01*
X0119334Y010733D01*
X0119346Y0107312D01*
X0119356Y0107291D01*
X0119365Y0107269D01*
X0119373Y0107243D01*
X011938Y0107214D01*
X0119385Y0107182D01*
X0119388Y0107146D01*
X0119389Y0107116D01*
X0119388Y0107108D01*
X0119414Y0106911D01*
X011949Y0106727D01*
X0119611Y010657D01*
X0119768Y0106449D01*
X0119952Y0106373D01*
X0120149Y0106347D01*
X0120346Y0106373D01*
X0120529Y0106449D01*
X0120686Y010657D01*
X012072Y0106614D01*
X0120847D01*
X0120881Y010657D01*
X0120889Y0106563D01*
X0120915Y0106537D01*
X0120938Y010651D01*
X0120957Y0106484D01*
X0120972Y010646D01*
X0120985Y0106436D01*
X0120994Y0106414D01*
X0121001Y0106393D01*
X0121006Y0106372D01*
X0121007Y0106365D01*
Y0106216D01*
X011507D01*
X0108945Y0112341D01*
X0108942Y0112343D01*
X0108921Y0112378D01*
X0108898Y0112426D01*
X0108875Y0112489D01*
X0108855Y0112565D01*
X0108838Y0112655D01*
X0108824Y0112755D01*
X0108809Y0113004D01*
X0108808Y0113111D01*
X0108814Y0113154D01*
X0108771Y0113481D01*
X0108644Y0113786D01*
X0108466Y0114019D01*
X0108509Y0114146D01*
X0110089D01*
X0110132Y0114019D01*
D02*
G37*
G36*
X0122385Y0109107D02*
X012269Y0108628D01*
X012269Y0105403D01*
X01226Y0105313D01*
X0121447D01*
X0121425Y010544D01*
X0121534Y0105513D01*
X012171Y0105688D01*
X0121799Y0105822D01*
X0121831Y010598D01*
Y0106365D01*
X0121832Y0106372D01*
X0121836Y0106393D01*
X0121843Y0106414D01*
X0121853Y0106436D01*
X0121865Y010646D01*
X0121881Y0106484D01*
X01219Y010651D01*
X0121923Y0106537D01*
X0121948Y0106563D01*
X0121956Y010657D01*
X0122077Y0106727D01*
X0122153Y0106911D01*
X0122179Y0107108D01*
X0122153Y0107305D01*
X0122077Y0107488D01*
X0121956Y0107645D01*
X0121912Y0107679D01*
Y0107806D01*
X0121956Y010784D01*
X0122077Y0107997D01*
X0122153Y0108181D01*
X0122179Y0108378D01*
X0122153Y0108575D01*
X0122077Y0108758D01*
X0121956Y0108915D01*
X0121912Y0108949D01*
Y0109076D01*
X0121956Y010911D01*
X0122077Y0109267D01*
X0122097Y0109314D01*
X0122223Y0109329D01*
X0122385Y0109107D01*
D02*
G37*
G36*
X0121062Y0090298D02*
X012104Y0090317D01*
X0121015Y0090334D01*
X0120987Y0090349D01*
X0120954Y0090362D01*
X0120919Y0090373D01*
X0120879Y0090382D01*
X0120836Y0090389D01*
X012079Y0090394D01*
X0120686Y0090398D01*
Y0090898D01*
X0120739Y0090899D01*
X0120836Y0090907D01*
X0120879Y0090914D01*
X0120919Y0090923D01*
X0120954Y0090934D01*
X0120987Y0090947D01*
X0121015Y0090962D01*
X012104Y0090979D01*
X0121062Y0090998D01*
Y0090298D01*
D02*
G37*
G36*
X0121815Y008969D02*
X0121855Y0089656D01*
X0121896Y0089626D01*
X0121937Y00896D01*
X0121979Y0089578D01*
X0122021Y008956D01*
X0122064Y0089546D01*
X0122107Y0089536D01*
X0122151Y008953D01*
X0122196Y0089528D01*
Y0089228D01*
X0122151Y0089226D01*
X0122107Y008922D01*
X0122064Y008921D01*
X0122021Y0089196D01*
X0121979Y0089178D01*
X0121937Y0089156D01*
X0121896Y008913D01*
X0121855Y00891D01*
X0121815Y0089066D01*
X0121776Y0089028D01*
Y0089728D01*
X0121815Y008969D01*
D02*
G37*
G36*
X0121062Y0087758D02*
X012104Y0087777D01*
X0121015Y0087794D01*
X0120987Y0087809D01*
X0120954Y0087822D01*
X0120919Y0087833D01*
X0120879Y0087842D01*
X0120836Y0087849D01*
X012079Y0087854D01*
X0120686Y0087858D01*
Y0088358D01*
X0120739Y0088359D01*
X0120836Y0088367D01*
X0120879Y0088374D01*
X0120919Y0088383D01*
X0120954Y0088394D01*
X0120987Y0088407D01*
X0121015Y0088422D01*
X012104Y0088439D01*
X0121062Y0088458D01*
Y0087758D01*
D02*
G37*
G36*
X0099421Y0085557D02*
X0099395Y0085548D01*
X0099372Y0085533D01*
X0099353Y0085512D01*
X0099337Y0085484D01*
X0099323Y0085451D01*
X0099312Y0085412D01*
X0099305Y0085366D01*
X00993Y0085315D01*
X0099299Y0085257D01*
X0098999D01*
X0098997Y0085315D01*
X0098993Y0085366D01*
X0098985Y0085412D01*
X0098975Y0085451D01*
X0098962Y0085484D01*
X0098945Y0085512D01*
X0098925Y0085533D01*
X0098903Y0085548D01*
X0098878Y0085557D01*
X0098849Y008556D01*
X0099449D01*
X0099421Y0085557D01*
D02*
G37*
G36*
X011584Y0091115D02*
X011015Y0085424D01*
X0110141Y0085419D01*
X0110099Y0085382D01*
X0110073Y0085363D01*
X0110041Y0085345D01*
X0110002Y0085327D01*
X0109953Y0085309D01*
X0109895Y0085294D01*
X0109834Y0085282D01*
X0109654Y0085265D01*
X0109552Y0085264D01*
X0109533Y008526D01*
X0109293Y0085236D01*
X0109229Y0085351D01*
X011512Y0091242D01*
X0115788D01*
X011584Y0091115D01*
D02*
G37*
G36*
X0114335Y0084686D02*
X0114279Y0084624D01*
X011423Y0084556D01*
X0114186Y008448D01*
X0114149Y0084398D01*
X0114117Y008431D01*
X0114092Y0084214D01*
X0114072Y0084112D01*
X0114058Y0084003D01*
X0114051Y0083887D01*
X0114049Y0083764D01*
X0113059Y0084754D01*
X0113182Y0084756D01*
X0113407Y0084777D01*
X0113509Y0084797D01*
X0113605Y0084822D01*
X0113693Y0084854D01*
X0113775Y0084891D01*
X0113851Y0084935D01*
X0113919Y0084984D01*
X0113981Y008504D01*
X0114335Y0084686D01*
D02*
G37*
G36*
X0110835D02*
X0110779Y0084624D01*
X011073Y0084556D01*
X0110686Y008448D01*
X0110649Y0084398D01*
X0110617Y008431D01*
X0110592Y0084214D01*
X0110572Y0084112D01*
X0110558Y0084003D01*
X0110551Y0083887D01*
X0110549Y0083764D01*
X0109559Y0084754D01*
X0109682Y0084756D01*
X0109907Y0084777D01*
X0110009Y0084797D01*
X0110105Y0084822D01*
X0110193Y0084854D01*
X0110275Y0084891D01*
X0110351Y0084935D01*
X0110419Y0084984D01*
X0110481Y008504D01*
X0110835Y0084686D01*
D02*
G37*
G36*
X0099302Y0084068D02*
X0099311Y0084017D01*
X0099326Y0083972D01*
X0099347Y0083933D01*
X0099374Y00839D01*
X0099407Y0083873D01*
X0099446Y0083852D01*
X0099491Y0083837D01*
X0099542Y0083828D01*
X0099599Y0083825D01*
Y0083525D01*
X0099542Y0083522D01*
X0099491Y0083513D01*
X0099446Y0083498D01*
X0099407Y0083477D01*
X0099374Y008345D01*
X0099347Y0083417D01*
X0099326Y0083378D01*
X0099311Y0083333D01*
X0099302Y0083282D01*
X0099299Y0083225D01*
X0098999Y0083675D01*
X0099299Y0084125D01*
X0099302Y0084068D01*
D02*
G37*
G36*
X00993Y0081793D02*
X0099305Y0081742D01*
X0099312Y0081696D01*
X0099323Y0081657D01*
X0099337Y0081624D01*
X0099353Y0081596D01*
X0099372Y0081575D01*
X0099395Y008156D01*
X0099421Y0081551D01*
X0099449Y0081548D01*
X0098849D01*
X0098878Y0081551D01*
X0098903Y008156D01*
X0098925Y0081575D01*
X0098945Y0081596D01*
X0098962Y0081624D01*
X0098975Y0081657D01*
X0098985Y0081696D01*
X0098993Y0081742D01*
X0098997Y0081793D01*
X0098999Y0081851D01*
X0099299D01*
X00993Y0081793D01*
D02*
G37*
%LPC*%
G36*
X0091364Y0089814D02*
X0091197Y0089647D01*
X0091226Y0089626D01*
X0091267Y00896D01*
X0091309Y0089578D01*
X0091351Y008956D01*
X0091394Y0089546D01*
X0091437Y0089536D01*
X0091481Y008953D01*
X0091489Y0089529D01*
X0091483Y0089575D01*
X0091407Y0089758D01*
X0091364Y0089814D01*
D02*
G37*
G36*
X0102103Y0087808D02*
X0101195D01*
X0101649Y0087354D01*
X0102103Y0087808D01*
D02*
G37*
G36*
X0102283Y0087628D02*
X0101739Y0087084D01*
X0101649Y0087174D01*
X0101559Y0087084D01*
X0101015Y0087628D01*
Y008548D01*
X0101559Y0086024D01*
X0101649Y0085934D01*
X0101739Y0086024D01*
X0102283Y008548D01*
Y0087628D01*
D02*
G37*
G36*
X0101649Y0085754D02*
X0101195Y00853D01*
X0102103D01*
X0101649Y0085754D01*
D02*
G37*
G36*
X0097283Y0087808D02*
X0096015D01*
Y00853D01*
X0097283D01*
Y0087808D01*
D02*
G37*
G36*
X0102103Y0081808D02*
X0101195D01*
X0101649Y0081354D01*
X0102103Y0081808D01*
D02*
G37*
G36*
X0102283Y0081628D02*
X0101739Y0081084D01*
X0101649Y0081174D01*
X0101559Y0081084D01*
X0101015Y0081628D01*
Y007948D01*
X0101559Y0080024D01*
X0101649Y0079934D01*
X0101739Y0080024D01*
X0102283Y007948D01*
Y0081628D01*
D02*
G37*
G36*
X0105649Y0082945D02*
X0105289Y0082898D01*
X0104954Y0082759D01*
X0104665Y0082538D01*
X0104444Y0082249D01*
X0104305Y0081914D01*
X0104258Y0081554D01*
X0104305Y0081194D01*
X0104444Y0080859D01*
X0104665Y008057D01*
X0104954Y0080349D01*
X0105289Y008021D01*
X0105649Y0080163D01*
X0106009Y008021D01*
X0106344Y0080349D01*
X0106633Y008057D01*
X0106854Y0080859D01*
X0106993Y0081194D01*
X010704Y0081554D01*
X0106993Y0081914D01*
X0106854Y0082249D01*
X0106633Y0082538D01*
X0106344Y0082759D01*
X0106009Y0082898D01*
X0105649Y0082945D01*
D02*
G37*
G36*
X0101649Y0079754D02*
X0101195Y00793D01*
X0102103D01*
X0101649Y0079754D01*
D02*
G37*
%LPD*%
D17*
X0096649Y0080554D02*
D03*
X0099149D02*
D03*
X0101649D02*
D03*
Y0086554D02*
D03*
X0099149D02*
D03*
X0096649D02*
D03*
D18*
X0106553Y0114558D02*
X0115238D01*
X0104049Y0113154D02*
X0104099Y0113204D01*
X0105199D01*
X0106553Y0114558D01*
X0101849Y0113154D02*
X0103807Y0115112D01*
X0100549Y0113154D02*
X0101849D01*
X0103807Y0115112D02*
X0115468D01*
X0120523Y0110552D02*
X0121419Y0109656D01*
Y0109648D02*
Y0109656D01*
X0115468Y0115112D02*
X0120028Y0110552D01*
X0120523D01*
X0115238Y0114558D02*
X0120149Y0109648D01*
X0111049Y0113154D02*
X0114094D01*
X012014Y0107108D01*
X0120149D01*
X0091875Y0089378D02*
X0092199Y0089054D01*
X0090749Y0089378D02*
X0091875D01*
X0120142Y0089385D02*
X0120149Y0089378D01*
X0119118Y0089385D02*
X0120142D01*
X0090855Y0109648D02*
X0091449Y0109054D01*
X0090749Y0109648D02*
X0090855D01*
X0121419Y010598D02*
Y0107108D01*
X0114899Y0105804D02*
X0121243D01*
X0121419Y010598D01*
X0107549Y0113154D02*
X0114899Y0105804D01*
X0099149Y0083675D02*
Y0086554D01*
Y0080554D02*
Y0083675D01*
X0122449Y0089553D02*
Y0091478D01*
X0121419Y0089378D02*
X0122273D01*
X0122449Y0089553D01*
X0114949Y0091654D02*
X0122273D01*
X0122449Y0091478D01*
X010697Y0083675D02*
X0114949Y0091654D01*
X0099149Y0083675D02*
X010697D01*
D19*
X0116443Y0090648D02*
X0120149D01*
X0109549Y0083754D02*
X0116443Y0090648D01*
X0117403Y0088108D02*
X0120149D01*
Y0090648D02*
X0121419D01*
X0120149Y0088108D02*
X0121419D01*
X0113049Y0083754D02*
X0117403Y0088108D01*
D20*
X0089479Y0109648D02*
D03*
X0090749D02*
D03*
X0089479Y0108378D02*
D03*
X0090749D02*
D03*
X0089479Y0107108D02*
D03*
X0090749D02*
D03*
X0120149Y0090648D02*
D03*
X0121419D02*
D03*
X0120149Y0089378D02*
D03*
X0121419D02*
D03*
X0120149Y0088108D02*
D03*
X0121419D02*
D03*
Y0107108D02*
D03*
X0120149D02*
D03*
X0121419Y0108378D02*
D03*
X0120149D02*
D03*
X0121419Y0109648D02*
D03*
X0120149D02*
D03*
X0090749Y0088108D02*
D03*
X0089479D02*
D03*
X0090749Y0089378D02*
D03*
X0089479D02*
D03*
X0090749Y0090648D02*
D03*
X0089479D02*
D03*
D21*
X0105649Y0081554D02*
D03*
D22*
X0100549Y0113154D02*
D03*
X0104049D02*
D03*
X0107549D02*
D03*
X0111049D02*
D03*
X0109549Y0083754D02*
D03*
X0113049D02*
D03*
M02*
