M48
;Layer_Color=9474304
;FILE_FORMAT=4:3
METRIC,TZ
;TYPE=PLATED
T1F00S00C0.300
T2F00S00C0.650
T3F00S00C1.000
T4F00S00C4.000
T5F00S00C4.500
%
T01
X99074Y78879
X103974Y78654
X105474Y78579
X106999Y78654
X108049Y79229
X112449Y79354
X112474Y80929
X108124Y80579
X105299Y80729
Y79699
Y81759
X104924Y84629
X107224Y83204
X101924Y83304
X99049Y82079
X99999Y80929
X99099Y79779
X95374Y83554
X93949Y85329
X94849Y87604
X100458Y86354
X105974Y88629
X108524Y93804
X108549Y96654
X108649Y97529
X108449Y98479
X102324Y98329
X102224Y97429
X102349Y96529
X102199Y93804
X98449
X99224Y100279
X94949Y100054
X93449Y106054
X95474Y108579
X95124Y112029
X96324Y112054
X99624Y115579
X103360Y114504
X104849Y117154
X105574Y111954
X109949Y112654
X110649Y115129
X113449Y108654
X110949Y104554
X118824Y103554
X115199Y96939
X112449Y94054
X111449
X86449Y101554
T02
X89479Y85439
Y86709
Y87979
X90749
Y86709
Y85439
Y107129
X89479
Y108399
X90749
Y109669
X89479
X120149Y108349
Y107079
Y105809
X121419
Y107079
Y108349
Y87974
X120149
Y86704
X121419
Y85434
X120149
T03
X88149Y103554
X91049
X123449
T04
X88949Y97554
X121949
T05
X105449Y97554
M30
