G04*
G04 #@! TF.GenerationSoftware,Altium Limited,Altium Designer,20.1.8 (145)*
G04*
G04 Layer_Color=8388736*
%FSTAX43Y43*%
%MOMM*%
G71*
G04*
G04 #@! TF.SameCoordinates,4F0FCE7A-41FC-4E90-8E0B-8DC11F55BA44*
G04*
G04*
G04 #@! TF.FilePolarity,Negative*
G04*
G01*
G75*
%ADD14R,1.330X2.640*%
%ADD15C,2.200*%
%ADD16C,1.200*%
%ADD17C,2.450*%
D14*
X0106834Y0114754D02*
D03*
X0109374D02*
D03*
X0111914D02*
D03*
Y0106154D02*
D03*
X0109374D02*
D03*
X0106834D02*
D03*
D15*
X0098599Y0111279D02*
D03*
X0102099D02*
D03*
X0103774Y0081604D02*
D03*
X0100274D02*
D03*
X0107274D02*
D03*
X0110774D02*
D03*
D16*
X0089479Y0090648D02*
D03*
X0090749D02*
D03*
X0089479Y0089378D02*
D03*
X0090749D02*
D03*
X0089479Y0088108D02*
D03*
X0090749D02*
D03*
X0089479Y0109648D02*
D03*
X0090749D02*
D03*
X0089479Y0108378D02*
D03*
X0090749D02*
D03*
X0089479Y0107108D02*
D03*
X0090749D02*
D03*
X0120149Y0090648D02*
D03*
X0121419D02*
D03*
X0120149Y0089378D02*
D03*
X0121419D02*
D03*
X0120149Y0088108D02*
D03*
X0121419D02*
D03*
X0120149Y0109648D02*
D03*
X0121419D02*
D03*
X0120149Y0108378D02*
D03*
X0121419D02*
D03*
X0120149Y0107108D02*
D03*
X0121419D02*
D03*
D17*
X0097661Y0088016D02*
D03*
M02*
