G04*
G04 #@! TF.GenerationSoftware,Altium Limited,Altium Designer,20.1.8 (145)*
G04*
G04 Layer_Color=16777215*
%FSTAX43Y43*%
%MOMM*%
G71*
G04*
G04 #@! TF.SameCoordinates,1A71404B-DE1A-40CA-A37D-A03955D0C46C*
G04*
G04*
G04 #@! TF.FilePolarity,Positive*
G04*
G01*
G75*
%ADD10C,0.250*%
%ADD11C,0.150*%
%ADD12C,0.200*%
%ADD13C,0.100*%
G36*
X0087633Y0094167D02*
Y0093496D01*
X0087604D01*
X0086932Y0094169D01*
X0087632D01*
X0087633Y0094167D01*
D02*
G37*
G36*
X0086912Y0108969D02*
X0086212D01*
X008621Y010897D01*
Y0109641D01*
X0086239D01*
X0086912Y0108969D01*
D02*
G37*
G36*
X0102508Y0097261D02*
X0101958D01*
Y0097811D01*
X0102508Y0097261D01*
D02*
G37*
G36*
X0107968Y0094167D02*
Y0093496D01*
X0107939D01*
X0107267Y0094169D01*
X0107967D01*
X0107968Y0094167D01*
D02*
G37*
G36*
X0105912Y0108969D02*
X0105212D01*
X010521Y010897D01*
Y0109641D01*
X0105239D01*
X0105912Y0108969D01*
D02*
G37*
G36*
X0097462Y0091069D02*
X0095712D01*
Y0092594D01*
X0097462D01*
Y0091069D01*
D02*
G37*
G36*
X0100053Y0110604D02*
X0093012D01*
Y0112234D01*
X0100053D01*
Y0110604D01*
D02*
G37*
%LPC*%
G36*
X0096568Y0092311D02*
X0096185D01*
Y0091351D01*
X0096549D01*
X0096586Y0091353D01*
X0096621Y0091354D01*
X009665Y0091357D01*
X0096673Y0091361D01*
X0096693Y0091365D01*
X0096708Y0091368D01*
X0096712Y0091369D01*
X0096716D01*
X0096718Y0091371D01*
X0096719D01*
X009675Y0091382D01*
X0096777Y0091394D01*
X00968Y0091407D01*
X0096819Y0091419D01*
X0096834Y0091431D01*
X0096845Y0091439D01*
X0096852Y0091444D01*
X0096855Y0091447D01*
X0096879Y0091474D01*
X00969Y0091501D01*
X0096918Y009153D01*
X0096931Y0091557D01*
X0096943Y0091582D01*
X0096948Y0091591D01*
X0096951Y00916D01*
X0096954Y0091608D01*
X0096956Y0091614D01*
X0096958Y0091616D01*
Y0091618D01*
X0096967Y0091651D01*
X0096976Y0091686D01*
X0096981Y0091719D01*
X0096984Y0091751D01*
X0096986Y0091766D01*
X0096987Y009178D01*
Y0091791D01*
X0096988Y0091802D01*
Y0091822D01*
X0096987Y009187D01*
X0096983Y0091913D01*
X0096981Y0091934D01*
X0096979Y0091952D01*
X0096976Y009197D01*
X0096973Y0091985D01*
X0096969Y0091999D01*
X0096966Y0092012D01*
X0096963Y0092023D01*
X0096962Y0092031D01*
X0096959Y0092038D01*
X0096958Y0092043D01*
X0096956Y0092046D01*
Y0092048D01*
X0096944Y0092081D01*
X0096929Y0092111D01*
X0096913Y0092138D01*
X0096898Y009216D01*
X0096886Y0092178D01*
X0096875Y0092192D01*
X0096868Y00922D01*
X0096866Y0092203D01*
X0096865D01*
X0096841Y0092225D01*
X0096818Y0092243D01*
X0096793Y0092258D01*
X0096771Y0092271D01*
X0096751Y0092281D01*
X0096734Y0092288D01*
X0096729Y0092289D01*
X0096725Y009229D01*
X0096722Y0092292D01*
X0096721D01*
X0096694Y0092299D01*
X0096665Y0092303D01*
X0096635Y0092307D01*
X0096606Y0092308D01*
X0096579Y009231D01*
X0096568Y0092311D01*
D02*
G37*
%LPD*%
G36*
X0096524Y0092147D02*
X009654D01*
X0096554Y0092146D01*
X0096567D01*
X0096579Y0092145D01*
X0096589D01*
X0096604Y0092142D01*
X0096615Y0092141D01*
X0096622Y0092139D01*
X0096624D01*
X0096643Y0092134D01*
X009666Y0092127D01*
X0096675Y009212D01*
X0096689Y0092111D01*
X0096698Y0092105D01*
X0096707Y0092099D01*
X0096711Y0092095D01*
X0096712Y0092093D01*
X0096725Y009208D01*
X0096736Y0092064D01*
X0096746Y0092049D01*
X0096754Y0092035D01*
X0096759Y0092021D01*
X0096764Y009201D01*
X0096766Y0092003D01*
X0096768Y0092002D01*
Y0092001D01*
X0096775Y0091976D01*
X009678Y0091949D01*
X0096783Y009192D01*
X0096786Y0091892D01*
X0096787Y0091869D01*
X0096789Y0091858D01*
Y0091848D01*
Y0091841D01*
Y0091835D01*
Y0091831D01*
Y009183D01*
X0096787Y0091791D01*
X0096786Y0091755D01*
X0096782Y0091726D01*
X0096779Y0091701D01*
X0096775Y009168D01*
X0096773Y0091672D01*
X0096771Y0091666D01*
X0096769Y0091661D01*
Y0091657D01*
X0096768Y0091655D01*
Y0091654D01*
X0096759Y0091632D01*
X0096753Y0091612D01*
X0096743Y0091597D01*
X0096736Y0091584D01*
X0096729Y0091575D01*
X0096723Y0091568D01*
X0096719Y0091564D01*
X0096718Y0091562D01*
X0096705Y0091553D01*
X0096693Y0091544D01*
X009668Y0091537D01*
X0096668Y0091532D01*
X0096657Y0091528D01*
X0096649Y0091525D01*
X0096643Y0091522D01*
X009664D01*
X0096625Y0091519D01*
X0096607Y0091518D01*
X0096587Y0091515D01*
X0096568D01*
X009655Y0091514D01*
X0096379D01*
Y0092149D01*
X0096506D01*
X0096524Y0092147D01*
D02*
G37*
%LPC*%
G36*
X0097733Y0112029D02*
X0097547D01*
X0097468Y0111668D01*
X0097454Y0111687D01*
X0097439Y0111705D01*
X0097422Y0111721D01*
X0097404Y0111733D01*
X0097388Y0111744D01*
X009737Y0111753D01*
X0097352Y0111761D01*
X0097335Y0111766D01*
X0097318Y0111771D01*
X0097303Y0111775D01*
X0097289Y0111777D01*
X0097278Y0111779D01*
X0097268D01*
X0097261Y011178D01*
X0097254D01*
X0097225Y0111779D01*
X0097199Y0111775D01*
X0097173Y0111768D01*
X0097149Y0111759D01*
X0097127Y0111748D01*
X0097106Y0111737D01*
X0097087Y0111725D01*
X009707Y0111712D01*
X0097055Y01117D01*
X0097041Y0111687D01*
X0097028Y0111676D01*
X009702Y0111665D01*
X0097012Y0111657D01*
X0097006Y011165D01*
X0097003Y0111646D01*
X0097002Y0111644D01*
X0096985Y0111619D01*
X009697Y0111593D01*
X0096958Y0111567D01*
X0096947Y011154D01*
X0096937Y0111514D01*
X009693Y0111489D01*
X0096923Y0111465D01*
X0096919Y0111443D01*
X0096915Y0111421D01*
X0096912Y0111402D01*
X0096909Y0111385D01*
X0096908Y011137D01*
X0096906Y0111359D01*
D01*
Y0111342D01*
X0096908Y0111316D01*
X0096909Y0111291D01*
X0096912Y0111269D01*
X0096917Y0111248D01*
X0096922Y0111228D01*
X0096927Y011121D01*
X0096934Y0111194D01*
X009694Y011118D01*
X0096947Y0111166D01*
X0096952Y0111155D01*
X0096958Y0111145D01*
X0096963Y0111138D01*
X0096967Y0111133D01*
X009697Y0111128D01*
X0096972Y0111126D01*
X0096973Y0111124D01*
X0096985Y0111112D01*
X0096999Y0111101D01*
X0097013Y011109D01*
X0097028Y0111081D01*
X0097058Y0111069D01*
X0097085Y011106D01*
X009711Y0111055D01*
X009712Y0111054D01*
X009713Y0111052D01*
X0097138Y0111051D01*
X0096906D01*
D01*
X0097541D01*
X0097148D01*
X009717Y0111052D01*
X0097192Y0111054D01*
X009721Y0111058D01*
X0097227Y0111062D01*
X0097241Y0111065D01*
X0097252Y0111069D01*
X0097257Y011107D01*
X009726Y0111072D01*
X0097279Y0111081D01*
X0097297Y0111091D01*
X0097314Y0111103D01*
X0097329Y0111115D01*
X0097342Y0111126D01*
X0097353Y0111134D01*
X0097358Y011114D01*
X0097361Y0111142D01*
X0097346Y0111069D01*
X0097522D01*
X0097733Y0112029D01*
D02*
G37*
G36*
X0096571Y011178D02*
X0096558D01*
X0096517Y0111777D01*
X0096478Y0111771D01*
X0096443Y0111762D01*
X0096413Y0111751D01*
X0096399Y0111746D01*
X0096386Y011174D01*
X0096377Y0111736D01*
X0096367Y0111732D01*
X009636Y0111728D01*
X0096354Y0111725D01*
X0096352Y0111723D01*
X009635Y0111722D01*
X0096317Y0111698D01*
X0096288Y0111672D01*
X0096264Y0111646D01*
X0096245Y0111621D01*
X0096228Y0111597D01*
X0096223Y0111587D01*
X0096217Y0111579D01*
X0096214Y0111572D01*
X0096212Y0111567D01*
X0096209Y0111564D01*
Y0111563D01*
X0096194Y0111524D01*
X0096181Y0111486D01*
X0096173Y011145D01*
X0096167Y0111417D01*
X0096166Y0111402D01*
X0096164Y0111389D01*
X0096163Y0111377D01*
Y0111367D01*
X0096162Y0111359D01*
D01*
D01*
Y0111051D01*
Y0111348D01*
X0096163Y0111323D01*
X0096164Y0111299D01*
X0096169Y0111275D01*
X0096174Y0111255D01*
X009618Y0111235D01*
X0096187Y0111217D01*
X0096194Y0111202D01*
X00962Y0111187D01*
X0096207Y0111174D01*
X0096214Y0111162D01*
X0096221Y0111152D01*
X0096227Y0111145D01*
X0096232Y0111138D01*
X0096237Y0111134D01*
X0096238Y0111131D01*
X0096239Y011113D01*
X0096255Y0111116D01*
X0096271Y0111103D01*
X0096288Y0111094D01*
X0096304Y0111084D01*
X0096322Y0111077D01*
X0096341Y011107D01*
X0096374Y011106D01*
X0096389Y0111058D01*
X0096404Y0111055D01*
X0096417Y0111054D01*
X0096428Y0111052D01*
X0096438Y0111051D01*
X0096162D01*
X009645D01*
X0096472Y0111052D01*
X0096493Y0111054D01*
X0096532Y011106D01*
X0096567Y011107D01*
X0096597Y0111083D01*
X009661Y0111088D01*
X0096621Y0111094D01*
X0096632Y0111099D01*
X009664Y0111103D01*
X0096647Y0111108D01*
X0096651Y011111D01*
X0096654Y0111113D01*
X0096655D01*
X0096687Y011114D01*
X0096714Y0111169D01*
X0096737Y0111199D01*
X0096757Y011123D01*
X009677Y0111256D01*
X0096776Y0111267D01*
X0096782Y0111278D01*
X0096786Y0111287D01*
X0096787Y0111292D01*
X009679Y0111296D01*
Y0111298D01*
X0096607Y0111328D01*
X0096597Y0111305D01*
X0096586Y0111285D01*
X0096575Y0111269D01*
X0096565Y0111255D01*
X0096555Y0111244D01*
X0096547Y0111237D01*
X0096542Y0111231D01*
X009654Y011123D01*
X0096525Y0111219D01*
X009651Y0111212D01*
X0096494Y0111206D01*
X0096482Y0111202D01*
X0096471Y0111199D01*
X0096463Y0111198D01*
X0096454D01*
X0096438Y0111199D01*
X0096424Y0111203D01*
X009641Y0111209D01*
X0096399Y0111214D01*
X009639Y011122D01*
X0096383Y0111226D01*
X0096379Y011123D01*
X0096378Y0111231D01*
X0096368Y0111245D01*
X0096361Y011126D01*
X0096356Y0111275D01*
X0096353Y0111291D01*
X009635Y0111305D01*
X0096349Y0111316D01*
Y0111323D01*
Y0111325D01*
X009635Y0111353D01*
X0096353Y0111379D01*
X0096357Y0111406D01*
X0096361Y0111429D01*
X0096365Y0111449D01*
X009637Y0111464D01*
X0096371Y011147D01*
X0096372Y0111474D01*
X0096374Y0111477D01*
Y0111478D01*
X0096383Y0111507D01*
X0096396Y0111532D01*
X0096407Y0111553D01*
X009642Y0111569D01*
X0096429Y0111583D01*
X0096438Y0111593D01*
X0096445Y0111599D01*
X0096446Y01116D01*
X0096464Y0111614D01*
X0096482Y0111624D01*
X0096499Y0111632D01*
X0096514Y0111636D01*
X0096528Y0111639D01*
X0096537Y0111642D01*
X0096547D01*
X0096564Y011164D01*
X0096579Y0111637D01*
X0096592Y0111632D01*
X0096603Y0111628D01*
X0096612Y0111622D01*
X0096618Y0111617D01*
X0096622Y0111614D01*
X0096623Y0111612D01*
X0096633Y0111601D01*
X0096641Y0111587D01*
X0096647Y0111574D01*
X0096653Y011156D01*
X0096655Y0111546D01*
X0096658Y0111536D01*
X0096659Y0111529D01*
Y0111526D01*
X0096838Y0111544D01*
X0096836Y0111564D01*
X0096831Y0111582D01*
X0096822Y0111615D01*
X0096808Y0111644D01*
X0096793Y0111669D01*
X0096779Y0111689D01*
X0096766Y0111704D01*
X0096762Y0111708D01*
X0096758Y0111712D01*
X0096757Y0111714D01*
X0096755Y0111715D01*
X0096741Y0111726D01*
X0096726Y0111737D01*
X0096693Y0111753D01*
X0096661Y0111765D01*
X0096629Y0111772D01*
X0096601Y0111777D01*
X0096589Y0111779D01*
X0096579D01*
X0096571Y011178D01*
D02*
G37*
G36*
X0096089Y0111506D02*
X0095725D01*
X0095689Y0111324D01*
D01*
X0096089D01*
D01*
X0096053D01*
X0096089Y0111506D01*
D02*
G37*
G36*
X0098887Y0112034D02*
X0098461D01*
X0098874D01*
X0098851Y0112033D01*
X0098828Y011203D01*
X0098806Y0112026D01*
X0098786Y011202D01*
X0098748Y0112006D01*
X0098733Y0111999D01*
X0098718Y0111991D01*
X0098704Y0111983D01*
X0098691Y0111976D01*
X0098682Y0111967D01*
X0098672Y0111962D01*
X0098666Y0111956D01*
X0098661Y0111952D01*
X0098658Y0111949D01*
X0098657Y0111948D01*
X0098636Y0111924D01*
X0098618Y0111898D01*
X0098602Y0111872D01*
X009859Y0111845D01*
X009858Y0111822D01*
X0098576Y0111812D01*
X0098572Y0111804D01*
X0098569Y0111796D01*
X0098568Y011179D01*
X0098566Y0111787D01*
Y0111786D01*
X0098738Y0111753D01*
X0098745Y0111777D01*
X0098754Y0111798D01*
X0098762Y0111816D01*
X009877Y011183D01*
X0098777Y011184D01*
X0098783Y0111848D01*
X0098787Y0111852D01*
X0098788Y0111854D01*
X0098801Y0111863D01*
X0098813Y0111872D01*
X0098826Y0111877D01*
X0098837Y011188D01*
X0098847Y0111883D01*
X0098853Y0111884D01*
X009886D01*
X0098876Y0111883D01*
X009889Y011188D01*
X0098901Y0111876D01*
X0098912Y011187D01*
X0098919Y0111865D01*
X0098926Y0111861D01*
X0098928Y0111858D01*
X009893Y0111857D01*
X0098939Y0111845D01*
X0098946Y0111833D01*
X0098951Y011182D01*
X0098955Y0111809D01*
X0098956Y0111798D01*
X0098957Y011179D01*
Y0111784D01*
Y0111782D01*
X0098956Y0111758D01*
X0098952Y0111737D01*
X0098945Y0111719D01*
X0098938Y0111704D01*
X009893Y0111691D01*
X0098924Y0111683D01*
X0098919Y0111678D01*
X0098917Y0111676D01*
X0098901Y0111664D01*
X0098883Y0111654D01*
X0098865Y0111648D01*
X0098847Y0111643D01*
X009883Y011164D01*
X0098816Y0111639D01*
X0098784D01*
X0098752Y0111483D01*
X0098763Y0111485D01*
X0098773Y0111486D01*
X0098781D01*
X0098802Y0111485D01*
X009882Y0111481D01*
X0098837Y0111475D01*
X0098849Y011147D01*
X009886Y0111463D01*
X0098867Y0111457D01*
X0098873Y0111453D01*
X0098874Y0111452D01*
X0098885Y0111438D01*
X0098894Y0111422D01*
X0098901Y0111407D01*
X0098905Y0111392D01*
X0098908Y0111378D01*
X0098909Y0111367D01*
Y011136D01*
Y0111359D01*
Y0111357D01*
X0098908Y0111334D01*
X0098902Y0111312D01*
X0098895Y0111292D01*
X0098888Y0111277D01*
X009888Y0111263D01*
X0098873Y0111255D01*
X0098867Y0111248D01*
X0098866Y0111246D01*
X0098849Y0111232D01*
X0098831Y0111221D01*
X0098813Y0111214D01*
X0098797Y0111209D01*
X0098781Y0111206D01*
X009877Y0111205D01*
X0098762Y0111203D01*
X0098759D01*
X0098743Y0111205D01*
X0098727Y0111207D01*
X0098713Y0111213D01*
X0098702Y0111219D01*
X0098694Y0111223D01*
X0098687Y0111228D01*
X0098683Y0111231D01*
X0098682Y0111232D01*
X0098672Y0111245D01*
X0098663Y0111262D01*
X0098657Y011128D01*
X0098651Y0111296D01*
X0098647Y0111313D01*
X0098644Y0111327D01*
X0098643Y0111332D01*
X0098641Y0111336D01*
Y0111338D01*
Y0111339D01*
X0098461Y0111317D01*
X0098465Y0111293D01*
X0098469Y0111273D01*
X0098476Y0111252D01*
X0098483Y0111232D01*
X009849Y0111214D01*
X0098498Y0111199D01*
X0098507Y0111184D01*
X0098515Y0111171D01*
X0098523Y0111159D01*
X009853Y0111149D01*
X0098537Y011114D01*
X0098544Y0111133D01*
X009855Y0111127D01*
X0098554Y0111123D01*
X0098555Y0111121D01*
X0098557Y011112D01*
X0098572Y0111108D01*
X0098589Y0111098D01*
X0098605Y0111088D01*
X0098622Y011108D01*
X0098655Y0111067D01*
X0098687Y0111059D01*
X0098701Y0111056D01*
X0098715Y0111055D01*
X0098727Y0111054D01*
X0098737Y0111052D01*
X0098747Y0111051D01*
X0098461D01*
D01*
X0099145D01*
D01*
X0098758D01*
X0098787Y0111052D01*
X0098816Y0111056D01*
X0098842Y0111062D01*
X0098867Y011107D01*
X0098891Y0111079D01*
X0098913Y011109D01*
X0098933Y0111101D01*
X0098951Y0111112D01*
X0098967Y0111123D01*
X0098981Y0111134D01*
X0098994Y0111145D01*
X0099005Y0111153D01*
X0099012Y0111162D01*
X0099019Y0111167D01*
X0099021Y0111171D01*
X0099023Y0111173D01*
X0099037Y0111189D01*
X0099048Y0111206D01*
X0099059Y0111224D01*
X0099067Y0111241D01*
X0099081Y0111274D01*
X0099089Y0111305D01*
X0099092Y0111317D01*
X0099095Y011133D01*
X0099096Y0111341D01*
X0099098Y011135D01*
X0099099Y0111359D01*
Y0111364D01*
Y0111367D01*
Y0111368D01*
X0099098Y0111389D01*
X0099095Y0111409D01*
X0099089Y0111427D01*
X0099085Y0111443D01*
X009908Y0111456D01*
X0099074Y0111467D01*
X0099071Y0111472D01*
X009907Y0111475D01*
X0099057Y0111493D01*
X0099043Y011151D01*
X0099028Y0111524D01*
X0099014Y0111536D01*
X0099Y0111546D01*
X0098989Y0111553D01*
X0098982Y0111557D01*
X0098981Y0111558D01*
X009898D01*
X0099007Y0111571D01*
X0099031Y0111583D01*
X0099052Y0111599D01*
X0099068Y0111614D01*
X0099082Y0111626D01*
X0099092Y0111637D01*
X0099099Y0111644D01*
X00991Y0111647D01*
X0099116Y0111671D01*
X0099127Y0111694D01*
X0099134Y0111716D01*
X0099139Y0111739D01*
X0099142Y0111757D01*
X0099145Y0111771D01*
Y0111783D01*
X0099143Y0111802D01*
X0099142Y011182D01*
X0099134Y0111854D01*
X0099123Y0111884D01*
X009911Y0111909D01*
X0099098Y011193D01*
X0099092Y0111938D01*
X0099086Y0111947D01*
X0099082Y0111952D01*
X0099078Y0111956D01*
X0099077Y0111958D01*
X0099075Y0111959D01*
X0099061Y0111973D01*
X0099046Y0111984D01*
X0099031Y0111994D01*
X0099014Y0112002D01*
X0098981Y0112016D01*
X0098949Y0112024D01*
X009892Y011203D01*
X0098908Y0112031D01*
X0098896Y0112033D01*
X0098887Y0112034D01*
D02*
G37*
G36*
X0095644Y0111765D02*
X0095012D01*
X0094866Y0111069D01*
D01*
X0095291D01*
X0095052D01*
X0095167Y0111618D01*
X0095425D01*
X0095311Y0111069D01*
X0095497D01*
X0095644Y0111765D01*
D02*
G37*
G36*
X0094829D02*
X0094234D01*
X0094152Y0111377D01*
X0094148Y0111359D01*
X0094144Y0111343D01*
X0094141Y0111328D01*
X0094137Y0111316D01*
X009413Y0111293D01*
X0094124Y0111275D01*
X0094119Y0111263D01*
X0094115Y0111255D01*
X0094113Y0111249D01*
X0094112Y0111248D01*
X0094104Y0111238D01*
X0094092Y011123D01*
X0094081Y0111224D01*
X009407Y0111221D01*
X0094061Y0111219D01*
X0094052Y0111217D01*
X0094044D01*
X009402Y0111219D01*
X0094009Y011122D01*
X0093998Y0111221D01*
X009399Y0111223D01*
X0093983Y0111224D01*
D01*
X0093977Y0111226D01*
X0093976D01*
X0093952Y0111098D01*
X0093947Y0111069D01*
X0093973Y0111063D01*
X0093995Y011106D01*
X0094016Y0111058D01*
X0094034Y0111055D01*
X0094048D01*
X0094058Y0111054D01*
X0093947D01*
D01*
X0094829D01*
D01*
X0094066D01*
X0094101Y0111055D01*
X0094131Y011106D01*
X0094158Y0111067D01*
X009418Y0111077D01*
X0094196Y0111085D01*
X0094209Y0111092D01*
X0094216Y0111098D01*
X0094219Y0111099D01*
X0094228Y0111109D01*
X0094238Y0111119D01*
X0094255Y0111142D01*
X0094267Y0111167D01*
X0094278Y0111192D01*
X0094287Y0111214D01*
X0094289Y0111224D01*
X0094292Y0111234D01*
X0094294Y0111241D01*
X0094295Y0111246D01*
X0094296Y0111249D01*
Y011125D01*
X0094374Y0111618D01*
X009461D01*
X0094496Y0111069D01*
X0094682D01*
X0094829Y0111765D01*
D02*
G37*
G36*
X009399D02*
X0093212D01*
X0093357D01*
X0093212Y0111069D01*
X0093498D01*
X0093398D01*
X0093513Y0111618D01*
X0093771D01*
X0093657Y0111069D01*
X0093843D01*
X009399Y0111765D01*
D02*
G37*
G36*
X0099602Y011178D02*
X009959D01*
X0099544Y0111777D01*
X0099503Y0111772D01*
X0099484Y0111768D01*
X0099468Y0111764D01*
X0099451Y0111759D01*
X0099437Y0111754D01*
X0099425Y0111748D01*
X0099414Y0111744D01*
X0099404Y011174D01*
X0099396Y0111736D01*
X009939Y0111733D01*
X0099386Y011173D01*
X0099383Y0111728D01*
X0099382D01*
X0099355Y0111707D01*
X0099332Y0111683D01*
X0099314Y0111658D01*
X0099299Y0111636D01*
X0099288Y0111615D01*
X0099279Y0111599D01*
X0099276Y0111592D01*
X0099275Y0111587D01*
X0099274Y0111585D01*
Y0111583D01*
X0099457Y0111568D01*
X0099461Y0111581D01*
X0099466Y0111592D01*
X0099473Y0111601D01*
X009948Y011161D01*
X0099486Y0111617D01*
X0099491Y0111621D01*
X0099494Y0111624D01*
X0099496Y0111625D01*
X0099508Y0111632D01*
X0099521Y0111637D01*
X0099534Y011164D01*
X0099547Y0111643D01*
X0099558Y0111644D01*
X0099568Y0111646D01*
X0099576D01*
X0099593Y0111644D01*
X0099608Y0111643D01*
X0099619Y0111639D01*
X009963Y0111636D01*
X0099638Y0111632D01*
X0099644Y0111628D01*
X0099647Y0111626D01*
X0099648Y0111625D01*
X0099656Y0111617D01*
X0099662Y0111608D01*
X0099668Y01116D01*
X009967Y0111592D01*
X0099672Y0111585D01*
X0099673Y0111581D01*
Y0111576D01*
Y0111575D01*
Y0111565D01*
X0099672Y0111556D01*
X0099668Y0111535D01*
X0099665Y0111526D01*
X0099662Y011152D01*
X0099661Y0111514D01*
Y0111513D01*
X0099651Y011151D01*
X009964Y0111507D01*
X0099627Y0111504D01*
X0099613Y0111502D01*
X0099584Y0111496D01*
X0099554Y0111493D01*
X0099526Y0111489D01*
X0099514Y0111488D01*
X0099504Y0111486D01*
X0099494D01*
X0099487Y0111485D01*
X0099482D01*
X0099453Y0111482D01*
X0099426Y0111478D01*
X0099403Y0111474D01*
X009938Y0111468D01*
X009936Y0111463D01*
X0099342Y0111457D01*
X0099325Y011145D01*
X0099311Y0111445D01*
X0099299Y0111438D01*
X0099288Y0111432D01*
X0099279Y0111427D01*
X0099272Y0111422D01*
X0099267Y0111418D01*
X0099263Y0111416D01*
X0099261Y0111414D01*
X009926Y0111413D01*
X0099249Y0111402D01*
X009924Y0111389D01*
X0099225Y0111363D01*
X0099214Y0111336D01*
X0099207Y011131D01*
X0099202Y0111288D01*
X00992Y0111278D01*
Y011127D01*
X0099199Y0111263D01*
Y0111253D01*
X0099202Y0111221D01*
X0099207Y0111192D01*
X0099217Y0111167D01*
X0099227Y0111146D01*
X0099236Y0111128D01*
X0099246Y0111116D01*
X0099251Y0111109D01*
X0099254Y0111106D01*
X0099276Y0111088D01*
X00993Y0111074D01*
X0099325Y0111065D01*
X0099347Y0111058D01*
X0099367Y0111054D01*
X0099383Y0111052D01*
X0099389Y0111051D01*
X0099199D01*
D01*
X0099853D01*
Y0111608D01*
X0099851Y0111622D01*
X0099844Y0111647D01*
X0099833Y0111669D01*
X0099821Y0111689D01*
X0099809Y0111705D01*
X0099798Y0111716D01*
X0099791Y0111723D01*
X009979Y0111726D01*
X0099788D01*
X0099776Y0111736D01*
X0099762Y0111744D01*
X009973Y0111758D01*
X0099698Y0111768D01*
X0099665Y0111773D01*
X0099636Y0111777D01*
X0099623Y0111779D01*
X0099612D01*
X0099602Y011178D01*
D02*
G37*
G36*
X00984Y0111069D02*
Y0110923D01*
X0097634D01*
Y0111051D01*
Y0110804D01*
X00984D01*
Y0111069D01*
D02*
G37*
%LPD*%
G36*
X0097299Y011164D02*
X0097317Y0111635D01*
X0097333Y0111626D01*
X0097347Y0111618D01*
X0097358Y011161D01*
X0097367Y0111601D01*
X0097372Y0111596D01*
X0097374Y0111594D01*
X0097388Y0111575D01*
X0097397Y0111556D01*
X0097406Y0111535D01*
X009741Y0111515D01*
X0097413Y0111499D01*
X0097415Y0111485D01*
Y0111479D01*
Y0111475D01*
Y0111474D01*
Y0111472D01*
X0097414Y0111447D01*
X0097411Y0111422D01*
X0097407Y0111399D01*
X0097403Y0111378D01*
X0097397Y011136D01*
X0097393Y0111346D01*
X0097392Y0111341D01*
X009739Y0111336D01*
X0097389Y0111335D01*
Y0111334D01*
X0097378Y0111309D01*
X0097367Y0111287D01*
X0097354Y0111269D01*
X0097343Y0111253D01*
X0097332Y0111242D01*
X0097324Y0111234D01*
X0097318Y0111228D01*
X0097317Y0111227D01*
X00973Y0111216D01*
X0097284Y0111207D01*
X0097267Y0111201D01*
X0097253Y0111196D01*
X0097239Y0111194D01*
X0097229Y0111192D01*
X0097221D01*
X0097202Y0111194D01*
X0097184Y0111199D01*
X0097167Y0111206D01*
X0097153Y0111213D01*
X0097142Y0111221D01*
X0097134Y0111227D01*
X0097128Y0111232D01*
X0097127Y0111234D01*
X0097114Y011125D01*
X0097105Y011127D01*
X0097099Y0111289D01*
X0097094Y0111307D01*
X0097091Y0111324D01*
X0097089Y0111338D01*
Y0111343D01*
Y0111348D01*
Y0111349D01*
Y011135D01*
X0097092Y0111389D01*
X0097098Y0111427D01*
X0097106Y011146D01*
X0097116Y0111489D01*
X0097121Y0111503D01*
X0097125Y0111514D01*
X009713Y0111524D01*
X0097134Y0111533D01*
X0097138Y0111539D01*
X0097139Y0111544D01*
X0097142Y0111547D01*
Y0111549D01*
X0097153Y0111565D01*
X0097163Y0111579D01*
X0097175Y0111592D01*
X0097186Y0111603D01*
X0097198Y0111611D01*
X0097209Y0111619D01*
X0097231Y011163D01*
X009725Y0111636D01*
X0097266Y011164D01*
X0097271Y0111642D01*
X0097279D01*
X0097299Y011164D01*
D02*
G37*
G36*
X009963Y0111367D02*
X0099625Y0111343D01*
X0099619Y0111323D01*
X0099613Y0111305D01*
X0099608Y0111291D01*
X0099604Y011128D01*
X00996Y0111273D01*
X0099598Y0111267D01*
X0099597Y0111266D01*
X009959Y0111253D01*
X009958Y0111244D01*
X009957Y0111234D01*
X0099562Y0111227D01*
X0099554Y011122D01*
X0099547Y0111216D01*
X0099541Y0111213D01*
X009954Y0111212D01*
X0099526Y0111205D01*
X0099512Y0111201D01*
X0099498Y0111196D01*
X0099486Y0111195D01*
X0099476Y0111194D01*
X0099468Y0111192D01*
X0099461D01*
X0099447Y0111194D01*
X0099435Y0111196D01*
X0099423Y0111199D01*
X0099415Y0111203D01*
X0099408Y0111207D01*
X0099403Y0111212D01*
X00994Y0111213D01*
X0099398Y0111214D01*
X009939Y0111223D01*
X0099385Y0111232D01*
X009938Y0111242D01*
X0099378Y011125D01*
X0099376Y0111259D01*
X0099375Y0111264D01*
Y0111269D01*
Y011127D01*
X0099376Y0111284D01*
X0099379Y0111296D01*
X0099385Y0111307D01*
X009939Y0111317D01*
X0099396Y0111324D01*
X0099401Y011133D01*
X0099404Y0111332D01*
X0099405Y0111334D01*
X0099415Y0111339D01*
X0099426Y0111345D01*
X0099439Y011135D01*
X0099453Y0111356D01*
X0099483Y0111364D01*
X0099514Y0111371D01*
X0099543Y0111377D01*
X0099555Y0111379D01*
X0099568Y0111381D01*
X0099576Y0111382D01*
X0099584D01*
X0099588Y0111384D01*
X009959D01*
X0099609Y0111386D01*
X0099623Y0111391D01*
X0099629Y0111392D01*
X0099633D01*
X0099634Y0111393D01*
X0099636D01*
X009963Y0111367D01*
D02*
G37*
G36*
X0099853Y0111051D02*
X0099397D01*
X0099418Y0111052D01*
X0099437Y0111055D01*
X0099455Y0111059D01*
X0099472Y0111063D01*
X0099486Y0111067D01*
X0099496Y0111072D01*
X0099503Y0111074D01*
X0099505Y0111076D01*
X0099525Y0111085D01*
X0099543Y0111098D01*
X0099559Y0111109D01*
X0099573Y011112D01*
X0099584Y0111131D01*
X0099594Y011114D01*
X00996Y0111145D01*
X0099601Y0111146D01*
X0099604Y0111117D01*
X0099607Y0111105D01*
X0099608Y0111092D01*
X0099611Y0111083D01*
X0099613Y0111076D01*
X0099615Y011107D01*
Y0111069D01*
X0099797D01*
X0099791Y0111088D01*
X0099788Y0111108D01*
X0099785Y0111124D01*
X0099783Y0111138D01*
Y0111151D01*
X0099781Y0111159D01*
Y0111166D01*
Y0111167D01*
Y0111177D01*
X0099783Y0111189D01*
X0099785Y0111216D01*
X009979Y0111244D01*
X0099795Y0111273D01*
X0099799Y0111299D01*
X0099802Y011131D01*
X0099803Y0111321D01*
X0099805Y011133D01*
X0099806Y0111335D01*
X0099808Y0111339D01*
Y0111341D01*
X0099813Y0111367D01*
X0099819Y0111392D01*
X0099824Y0111414D01*
X0099828Y0111434D01*
X0099831Y011145D01*
X0099834Y0111465D01*
X0099837Y0111479D01*
X009984Y011149D01*
X0099841Y01115D01*
X0099844Y0111507D01*
Y0111514D01*
X0099845Y0111518D01*
X0099846Y0111525D01*
Y0111526D01*
X0099851Y0111553D01*
X0099852Y0111564D01*
Y0111574D01*
X0099853Y0111582D01*
Y0111051D01*
D02*
G37*
D10*
X0099037Y0096519D02*
G03*
X0099037Y0096519I-0000125J0D01*
G01*
D11*
X0109112Y0099369D02*
X0109712D01*
X0109112Y0098969D02*
X0109712D01*
X0102312Y0106269D02*
Y0106869D01*
X0102712Y0106269D02*
Y0106869D01*
X0102312Y0104769D02*
Y0105369D01*
X0102712Y0104769D02*
Y0105369D01*
X0102312Y0093969D02*
Y0094569D01*
X0102712Y0093969D02*
Y0094569D01*
X0102312Y0095569D02*
Y0096169D01*
X0102712Y0095569D02*
Y0096169D01*
X0085112Y0110669D02*
X0085712D01*
X0085112Y0110269D02*
X0085712D01*
X0100912Y0098144D02*
X0101362D01*
Y0097644D02*
Y0098144D01*
X0099262D02*
X0099712D01*
X0099262Y0097644D02*
Y0098144D01*
X0100012Y0100269D02*
X0100612D01*
X0100012Y0099869D02*
X0100612D01*
X0105312Y0094869D02*
Y0095469D01*
X0104912Y0094869D02*
Y0095469D01*
X0101958Y0097261D02*
X0102508D01*
X0101958Y0102911D02*
Y0103461D01*
X0102508D01*
X0107608D02*
X0108158D01*
Y0102911D02*
Y0103461D01*
Y0097261D02*
Y0097811D01*
X0107608Y0097261D02*
X0108158D01*
X0101958D02*
Y0097811D01*
X0093362Y0103869D02*
Y0108269D01*
X0089562Y0108619D02*
X0090262D01*
X0089562Y0103519D02*
X0090262D01*
X0093362Y0094669D02*
Y0099069D01*
X0089562Y0099419D02*
X0090262D01*
X0089562Y0094319D02*
X0090262D01*
X0093712Y0103769D02*
X0094312D01*
X0093712Y0104169D02*
X0094312D01*
X0093712Y0099069D02*
X0094312D01*
X0093712Y0098669D02*
X0094312D01*
X0104112Y0104669D02*
Y0104069D01*
X0104412D01*
X0104512Y0104169D01*
Y0104569D01*
X0104412Y0104669D01*
X0104112D01*
X0104712D02*
Y0104069D01*
X0105012D01*
X0105111Y0104169D01*
Y0104569D01*
X0105012Y0104669D01*
X0104712D01*
X0105311Y0104069D02*
X0105511D01*
X0105411D01*
Y0104669D01*
X0105311Y0104569D01*
X0111912Y0096269D02*
Y0096869D01*
X0112212D01*
X0112312Y0096769D01*
Y0096569D01*
X0112212Y0096469D01*
X0111912D01*
X0112112D02*
X0112312Y0096269D01*
X0112512Y0096369D02*
X0112612Y0096269D01*
X0112812D01*
X0112911Y0096369D01*
Y0096769D01*
X0112812Y0096869D01*
X0112612D01*
X0112512Y0096769D01*
Y0096669D01*
X0112612Y0096569D01*
X0112911D01*
X0105112Y0096269D02*
X0105012Y0096369D01*
X0104812D01*
X0104712Y0096269D01*
Y0095869D01*
X0104812Y0095769D01*
X0105012D01*
X0105112Y0095869D01*
X0105312Y0095769D02*
X0105512D01*
X0105412D01*
Y0096369D01*
X0105312Y0096269D01*
X0109312Y0097769D02*
X0109212Y0097869D01*
X0109012D01*
X0108912Y0097769D01*
Y0097369D01*
X0109012Y0097269D01*
X0109212D01*
X0109312Y0097369D01*
X0109911Y0097269D02*
X0109512D01*
X0109911Y0097669D01*
Y0097769D01*
X0109812Y0097869D01*
X0109612D01*
X0109512Y0097769D01*
X0100512Y0095869D02*
X0100412Y0095969D01*
X0100212D01*
X0100112Y0095869D01*
Y0095469D01*
X0100212Y0095369D01*
X0100412D01*
X0100512Y0095469D01*
X0100712Y0095869D02*
X0100812Y0095969D01*
X0101012D01*
X0101111Y0095869D01*
Y0095769D01*
X0101012Y0095669D01*
X0100912D01*
X0101012D01*
X0101111Y0095569D01*
Y0095469D01*
X0101012Y0095369D01*
X0100812D01*
X0100712Y0095469D01*
X0100612Y0105269D02*
X0100512Y0105369D01*
X0100312D01*
X0100212Y0105269D01*
Y0104869D01*
X0100312Y0104769D01*
X0100512D01*
X0100612Y0104869D01*
X0101112Y0104769D02*
Y0105369D01*
X0100812Y0105069D01*
X0101211D01*
X0099012Y0100269D02*
X0098912Y0100369D01*
X0098712D01*
X0098612Y0100269D01*
Y0099869D01*
X0098712Y0099769D01*
X0098912D01*
X0099012Y0099869D01*
X0099611Y0100369D02*
X0099212D01*
Y0100069D01*
X0099412Y0100169D01*
X0099512D01*
X0099611Y0100069D01*
Y0099869D01*
X0099512Y0099769D01*
X0099312D01*
X0099212Y0099869D01*
X0100512Y0094469D02*
X0100412Y0094569D01*
X0100212D01*
X0100112Y0094469D01*
Y0094069D01*
X0100212Y0093969D01*
X0100412D01*
X0100512Y0094069D01*
X0101111Y0094569D02*
X0100912Y0094469D01*
X0100712Y0094269D01*
Y0094069D01*
X0100812Y0093969D01*
X0101012D01*
X0101111Y0094069D01*
Y0094169D01*
X0101012Y0094269D01*
X0100712D01*
X0100612Y0106769D02*
X0100512Y0106869D01*
X0100312D01*
X0100212Y0106769D01*
Y0106369D01*
X0100312Y0106269D01*
X0100512D01*
X0100612Y0106369D01*
X0100812Y0106869D02*
X0101211D01*
Y0106769D01*
X0100812Y0106369D01*
Y0106269D01*
X0095012Y0099069D02*
X0094912Y0099169D01*
X0094712D01*
X0094612Y0099069D01*
Y0098669D01*
X0094712Y0098569D01*
X0094912D01*
X0095012Y0098669D01*
X0095212Y0099069D02*
X0095312Y0099169D01*
X0095512D01*
X0095611Y0099069D01*
Y0098969D01*
X0095512Y0098869D01*
X0095611Y0098769D01*
Y0098669D01*
X0095512Y0098569D01*
X0095312D01*
X0095212Y0098669D01*
Y0098769D01*
X0095312Y0098869D01*
X0095212Y0098969D01*
Y0099069D01*
X0095312Y0098869D02*
X0095512D01*
X0095112Y0104169D02*
X0095012Y0104269D01*
X0094812D01*
X0094712Y0104169D01*
Y0103769D01*
X0094812Y0103669D01*
X0095012D01*
X0095112Y0103769D01*
X0095312D02*
X0095412Y0103669D01*
X0095612D01*
X0095711Y0103769D01*
Y0104169D01*
X0095612Y0104269D01*
X0095412D01*
X0095312Y0104169D01*
Y0104069D01*
X0095412Y0103969D01*
X0095711D01*
X0083512Y0110669D02*
X0083412Y0110769D01*
X0083212D01*
X0083112Y0110669D01*
Y0110269D01*
X0083212Y0110169D01*
X0083412D01*
X0083512Y0110269D01*
X0083712Y0110169D02*
X0083912D01*
X0083812D01*
Y0110769D01*
X0083712Y0110669D01*
X0084211D02*
X0084311Y0110769D01*
X0084511D01*
X0084611Y0110669D01*
Y0110269D01*
X0084511Y0110169D01*
X0084311D01*
X0084211Y0110269D01*
Y0110669D01*
X0085612Y0097269D02*
Y0096669D01*
X0086012D01*
X0086212D02*
X0086412D01*
X0086312D01*
Y0097269D01*
X0086212Y0097169D01*
X0085412Y0106469D02*
Y0105869D01*
X0085812D01*
X0086411D02*
X0086012D01*
X0086411Y0106269D01*
Y0106369D01*
X0086312Y0106469D01*
X0086112D01*
X0086012Y0106369D01*
X0097412Y0097769D02*
Y0097369D01*
X0097612Y0097169D01*
X0097812Y0097369D01*
Y0097769D01*
X0098012D02*
Y0097169D01*
X0098312D01*
X0098411Y0097269D01*
Y0097669D01*
X0098312Y0097769D01*
X0098012D01*
X0098611Y0097169D02*
X0098811D01*
X0098711D01*
Y0097769D01*
X0098611Y0097669D01*
X0080612Y0101169D02*
Y0100769D01*
X0080812Y0100569D01*
X0081012Y0100769D01*
Y0101169D01*
X0081212D02*
Y0100569D01*
X0081512D01*
X0081611Y0100669D01*
Y0101069D01*
X0081512Y0101169D01*
X0081212D01*
X0082211Y0100569D02*
X0081811D01*
X0082211Y0100969D01*
Y0101069D01*
X0082111Y0101169D01*
X0081911D01*
X0081811Y0101069D01*
X0110612Y0096269D02*
Y0096869D01*
X0110912D01*
X0111012Y0096769D01*
Y0096569D01*
X0110912Y0096469D01*
X0110612D01*
X0110812D02*
X0111012Y0096269D01*
X0111212D02*
X0111412D01*
X0111312D01*
Y0096869D01*
X0111212Y0096769D01*
X0108812Y0095369D02*
Y0095969D01*
X0109112D01*
X0109212Y0095869D01*
Y0095669D01*
X0109112Y0095569D01*
X0108812D01*
X0109012D02*
X0109212Y0095369D01*
X0109811D02*
X0109412D01*
X0109811Y0095769D01*
Y0095869D01*
X0109712Y0095969D01*
X0109512D01*
X0109412Y0095869D01*
X0086812Y0101869D02*
Y0102469D01*
X0087112D01*
X0087212Y0102369D01*
Y0102169D01*
X0087112Y0102069D01*
X0086812D01*
X0087012D02*
X0087212Y0101869D01*
X0087412Y0102369D02*
X0087512Y0102469D01*
X0087712D01*
X0087811Y0102369D01*
Y0102269D01*
X0087712Y0102169D01*
X0087612D01*
X0087712D01*
X0087811Y0102069D01*
Y0101969D01*
X0087712Y0101869D01*
X0087512D01*
X0087412Y0101969D01*
X0098637Y0102869D02*
Y0103469D01*
X0098937D01*
X0099037Y0103369D01*
Y0103169D01*
X0098937Y0103069D01*
X0098637D01*
X0098837D02*
X0099037Y0102869D01*
X0099537D02*
Y0103469D01*
X0099237Y0103169D01*
X0099636D01*
X0086812Y0100369D02*
Y0100969D01*
X0087112D01*
X0087212Y0100869D01*
Y0100669D01*
X0087112Y0100569D01*
X0086812D01*
X0087012D02*
X0087212Y0100369D01*
X0087811Y0100969D02*
X0087412D01*
Y0100669D01*
X0087612Y0100769D01*
X0087712D01*
X0087811Y0100669D01*
Y0100469D01*
X0087712Y0100369D01*
X0087512D01*
X0087412Y0100469D01*
X0108912Y0101069D02*
Y0101669D01*
X0109212D01*
X0109312Y0101569D01*
Y0101369D01*
X0109212Y0101269D01*
X0108912D01*
X0109112D02*
X0109312Y0101069D01*
X0109911Y0101669D02*
X0109712Y0101569D01*
X0109512Y0101369D01*
Y0101169D01*
X0109612Y0101069D01*
X0109812D01*
X0109911Y0101169D01*
Y0101269D01*
X0109812Y0101369D01*
X0109512D01*
X0108912Y0102269D02*
Y0102869D01*
X0109212D01*
X0109312Y0102769D01*
Y0102569D01*
X0109212Y0102469D01*
X0108912D01*
X0109112D02*
X0109312Y0102269D01*
X0109512Y0102869D02*
X0109911D01*
Y0102769D01*
X0109512Y0102369D01*
Y0102269D01*
X0108912Y0103369D02*
Y0103969D01*
X0109212D01*
X0109312Y0103869D01*
Y0103669D01*
X0109212Y0103569D01*
X0108912D01*
X0109112D02*
X0109312Y0103369D01*
X0109512Y0103869D02*
X0109612Y0103969D01*
X0109812D01*
X0109911Y0103869D01*
Y0103769D01*
X0109812Y0103669D01*
X0109911Y0103569D01*
Y0103469D01*
X0109812Y0103369D01*
X0109612D01*
X0109512Y0103469D01*
Y0103569D01*
X0109612Y0103669D01*
X0109512Y0103769D01*
Y0103869D01*
X0109612Y0103669D02*
X0109812D01*
D12*
X0089112Y0100969D02*
X0089312D01*
X0089112Y0100369D02*
X0089312D01*
X0089112Y0102469D02*
X0089312D01*
X0089112Y0101869D02*
X0089312D01*
X0111312Y0098269D02*
Y0098469D01*
X0110712Y0098269D02*
Y0098469D01*
X0111512Y0103969D02*
X0111712D01*
X0111512Y0103369D02*
X0111712D01*
X0111512Y0101569D02*
X0111712D01*
X0111512Y0100969D02*
X0111712D01*
X0099012Y0101869D02*
X0099212D01*
X0099012Y0102469D02*
X0099212D01*
X0112012Y0098269D02*
Y0098469D01*
X0112612Y0098269D02*
Y0098469D01*
X0108212Y0095469D02*
Y0095669D01*
X0107612Y0095469D02*
Y0095669D01*
X0082612Y0098519D02*
Y0103219D01*
X0086412Y0098519D02*
Y0103219D01*
X0082612Y0098519D02*
X0082862D01*
X0082612Y0103219D02*
X0082862D01*
X0086162Y0098519D02*
X0086412D01*
X0086162Y0103219D02*
X0086412D01*
X0111512Y0102169D02*
X0111712D01*
X0111512Y0102769D02*
X0111712D01*
D13*
X0105212Y0108944D02*
X0109166D01*
Y0112269D01*
X0105212Y0108944D02*
Y0112269D01*
X0109166Y0112269D01*
X0104013Y0094194D02*
X0107967D01*
X0104013Y0090869D02*
Y0094194D01*
X0107967Y0090868D02*
Y0094194D01*
X0104013Y0090869D02*
X0107967Y0090868D01*
X0086212Y0108944D02*
X0090166D01*
Y0112269D01*
X0086212Y0108944D02*
Y0112269D01*
X0090166Y0112269D01*
X0083678Y0094194D02*
X0087632D01*
X0083678Y0090869D02*
Y0094194D01*
X0087632Y0090868D02*
Y0094194D01*
X0083678Y0090869D02*
X0087632Y0090868D01*
M02*
