G04*
G04 #@! TF.GenerationSoftware,Altium Limited,Altium Designer,20.1.8 (145)*
G04*
G04 Layer_Physical_Order=4*
G04 Layer_Color=16711680*
%FSLAX43Y43*%
%MOMM*%
G71*
G04*
G04 #@! TF.SameCoordinates,5712E5C3-EFE7-4622-A9FF-169796C5DE8E*
G04*
G04*
G04 #@! TF.FilePolarity,Positive*
G04*
G01*
G75*
%ADD14C,0.300*%
%ADD16C,0.200*%
%ADD40C,1.600*%
%ADD46R,1.100X0.600*%
G04:AMPARAMS|DCode=48|XSize=0.9mm|YSize=0.8mm|CornerRadius=0.2mm|HoleSize=0mm|Usage=FLASHONLY|Rotation=180.000|XOffset=0mm|YOffset=0mm|HoleType=Round|Shape=RoundedRectangle|*
%AMROUNDEDRECTD48*
21,1,0.900,0.400,0,0,180.0*
21,1,0.500,0.800,0,0,180.0*
1,1,0.400,-0.250,0.200*
1,1,0.400,0.250,0.200*
1,1,0.400,0.250,-0.200*
1,1,0.400,-0.250,-0.200*
%
%ADD48ROUNDEDRECTD48*%
%ADD57R,0.600X0.900*%
%ADD58R,0.900X0.800*%
%ADD62R,0.800X0.900*%
%ADD67C,0.800*%
%ADD68C,0.600*%
%ADD69C,1.200*%
%ADD70C,0.400*%
%ADD72C,3.500*%
%ADD73C,2.200*%
%ADD74C,1.500*%
%ADD75C,1.000*%
%ADD76C,1.300*%
%ADD77C,0.700*%
%ADD78R,0.600X0.650*%
%ADD79R,0.400X0.650*%
%ADD80R,3.500X2.280*%
%ADD81R,0.520X0.800*%
%ADD82R,1.790X0.800*%
%ADD83R,10.900X10.100*%
%ADD84R,1.000X2.500*%
G04:AMPARAMS|DCode=85|XSize=1.35mm|YSize=0.9mm|CornerRadius=0.225mm|HoleSize=0mm|Usage=FLASHONLY|Rotation=0.000|XOffset=0mm|YOffset=0mm|HoleType=Round|Shape=RoundedRectangle|*
%AMROUNDEDRECTD85*
21,1,1.350,0.450,0,0,0.0*
21,1,0.900,0.900,0,0,0.0*
1,1,0.450,0.450,-0.225*
1,1,0.450,-0.450,-0.225*
1,1,0.450,-0.450,0.225*
1,1,0.450,0.450,0.225*
%
%ADD85ROUNDEDRECTD85*%
G04:AMPARAMS|DCode=86|XSize=1.35mm|YSize=0.9mm|CornerRadius=0.225mm|HoleSize=0mm|Usage=FLASHONLY|Rotation=90.000|XOffset=0mm|YOffset=0mm|HoleType=Round|Shape=RoundedRectangle|*
%AMROUNDEDRECTD86*
21,1,1.350,0.450,0,0,90.0*
21,1,0.900,0.900,0,0,90.0*
1,1,0.450,0.225,0.450*
1,1,0.450,0.225,-0.450*
1,1,0.450,-0.225,-0.450*
1,1,0.450,-0.225,0.450*
%
%ADD86ROUNDEDRECTD86*%
%ADD87R,1.000X3.300*%
%ADD88C,1.000*%
%ADD89C,0.900*%
G36*
X319470Y28280D02*
X35280D01*
Y95720D01*
X58158D01*
X58163Y95715D01*
X58261Y95530D01*
X58260Y95520D01*
X58246Y95450D01*
Y82000D01*
X58262Y81922D01*
X58306Y81856D01*
X58372Y81812D01*
X58450Y81796D01*
X64296D01*
Y80450D01*
X63510D01*
Y80662D01*
X63510Y80662D01*
X63510Y80662D01*
X63491Y80757D01*
X63471Y80857D01*
X63471Y80857D01*
X63471Y80857D01*
X63415Y80940D01*
X63360Y81022D01*
X63360Y81023D01*
X63360Y81023D01*
X63270Y81112D01*
X63270Y81113D01*
X63270Y81113D01*
X63189Y81167D01*
X63105Y81223D01*
X63105Y81223D01*
X63105Y81223D01*
X63007Y81242D01*
X62910Y81261D01*
X62910Y81261D01*
X62909Y81261D01*
X60753Y81258D01*
X60656Y81239D01*
X60558Y81220D01*
X60558Y81219D01*
X60557Y81219D01*
X60475Y81164D01*
X60393Y81109D01*
X60393Y81109D01*
X60392Y81109D01*
X60337Y81026D01*
X60282Y80944D01*
X60282Y80943D01*
X60282Y80943D01*
X60263Y80846D01*
X60243Y80749D01*
Y80260D01*
X58883D01*
Y80525D01*
X58850Y80691D01*
X58756Y80831D01*
X58616Y80925D01*
X58450Y80958D01*
X58100D01*
Y80300D01*
X57900D01*
Y80958D01*
X57550D01*
X57384Y80925D01*
X57244Y80831D01*
X57150Y80691D01*
X57117Y80525D01*
Y80260D01*
X55010D01*
Y87500D01*
X54971Y87695D01*
X54860Y87860D01*
X54695Y87971D01*
X54500Y88010D01*
X52000Y88010D01*
X51805Y87971D01*
X51640Y87860D01*
X51529Y87695D01*
X51490Y87500D01*
X51490Y77498D01*
X51529Y77303D01*
X51640Y77138D01*
X51805Y77027D01*
X52000Y76989D01*
X58476D01*
X58486Y76984D01*
X58490Y76974D01*
X58490Y74000D01*
X58529Y73805D01*
X58640Y73640D01*
X58805Y73529D01*
X59000Y73490D01*
X61250D01*
X61445Y73529D01*
X61610Y73640D01*
X61721Y73805D01*
X61760Y74000D01*
X61760Y74617D01*
X62025D01*
X62191Y74650D01*
X62331Y74744D01*
X62425Y74884D01*
X62426Y74888D01*
X63331D01*
X63358Y74894D01*
X63550Y74728D01*
Y72195D01*
X63838D01*
X64030Y72175D01*
X64030Y71995D01*
Y70975D01*
X65755D01*
Y71575D01*
X65855D01*
Y71675D01*
X66950D01*
X66950Y72175D01*
X67142Y72195D01*
X67450D01*
Y74566D01*
X67650Y74649D01*
X67755Y74579D01*
X67950Y74540D01*
X68250D01*
Y74350D01*
X68340D01*
Y73650D01*
X68250D01*
Y72350D01*
X68340D01*
Y71337D01*
X68279Y71245D01*
X68240Y71050D01*
Y69325D01*
X66750D01*
Y68275D01*
X69250D01*
Y68751D01*
X69260Y68800D01*
Y70863D01*
X69321Y70955D01*
X69360Y71150D01*
Y71867D01*
X69560Y71887D01*
X69576Y71805D01*
X69687Y71640D01*
X69852Y71529D01*
X70047Y71490D01*
X71000D01*
X71195Y71529D01*
X71360Y71640D01*
X71471Y71805D01*
X71508Y71990D01*
X80000Y71990D01*
X80195Y72029D01*
X80360Y72140D01*
X80471Y72305D01*
X80510Y72500D01*
X80510Y77490D01*
X82563D01*
X82617Y77425D01*
Y77300D01*
X84392D01*
X84556Y77490D01*
X86063D01*
X86117Y77425D01*
Y77300D01*
X87892D01*
X88056Y77490D01*
X89563D01*
X89617Y77425D01*
Y77300D01*
X91392D01*
X91540Y77472D01*
X91740Y77458D01*
Y77250D01*
X91779Y77055D01*
X91890Y76890D01*
X92055Y76779D01*
X92250Y76740D01*
X98500D01*
X98695Y76779D01*
X98860Y76890D01*
X98971Y77055D01*
X99010Y77250D01*
X99010Y86250D01*
Y86302D01*
X99195Y86379D01*
X110537Y75037D01*
X110746Y74876D01*
X110989Y74776D01*
X111250Y74741D01*
X117864D01*
X117871Y74693D01*
X117950Y74501D01*
Y73900D01*
X118809D01*
X118850Y73895D01*
X119364D01*
X119643Y73616D01*
Y72700D01*
X119671Y72491D01*
X119700Y72420D01*
Y71850D01*
X120450D01*
X121200D01*
Y72420D01*
X121229Y72491D01*
X121257Y72700D01*
Y73950D01*
X121229Y74159D01*
X121149Y74353D01*
X121021Y74521D01*
X120269Y75272D01*
X120102Y75400D01*
X119907Y75481D01*
X119699Y75508D01*
X119636Y75579D01*
X119659Y75750D01*
X119624Y76011D01*
X119523Y76254D01*
X119363Y76463D01*
X119350Y76473D01*
Y77600D01*
X117950D01*
Y76759D01*
X111668D01*
X99135Y89291D01*
X99218Y89491D01*
X107082D01*
X112863Y83711D01*
X113072Y83550D01*
X113315Y83449D01*
X113576Y83415D01*
X117950D01*
Y82649D01*
X118809D01*
X118850Y82643D01*
X119364D01*
X119643Y82364D01*
Y81449D01*
X119671Y81240D01*
X119700Y81169D01*
Y80599D01*
X120450D01*
X121200D01*
Y81169D01*
X121229Y81240D01*
X121257Y81449D01*
Y82699D01*
X121229Y82908D01*
X121149Y83102D01*
X121021Y83269D01*
X120269Y84021D01*
X120102Y84149D01*
X119907Y84230D01*
X119711Y84255D01*
X119734Y84424D01*
X119699Y84685D01*
X119599Y84928D01*
X119438Y85137D01*
X119350Y85205D01*
Y86349D01*
X117950D01*
Y85432D01*
X113994D01*
X108213Y91213D01*
X108004Y91373D01*
X107761Y91474D01*
X107500Y91509D01*
X99218D01*
X99135Y91709D01*
X99493Y92066D01*
X117950D01*
Y91225D01*
X118809D01*
X118850Y91220D01*
X119364D01*
X119643Y90941D01*
Y90025D01*
X119671Y89816D01*
X119700Y89745D01*
Y89175D01*
X120450D01*
X121200D01*
Y89745D01*
X121229Y89816D01*
X121257Y90025D01*
Y91275D01*
X121229Y91484D01*
X121149Y91678D01*
X121021Y91846D01*
X120269Y92597D01*
X120102Y92725D01*
X119907Y92806D01*
X119699Y92833D01*
X119636Y92904D01*
X119659Y93075D01*
X119624Y93336D01*
X119524Y93579D01*
X119363Y93788D01*
X119350Y93798D01*
Y94925D01*
X117950D01*
Y94084D01*
X99210D01*
X99010Y94257D01*
Y95500D01*
X99006Y95520D01*
X99170Y95720D01*
X319470D01*
X319470Y28280D01*
D02*
G37*
G36*
X72500Y86000D02*
X78500D01*
Y77500D01*
X71000D01*
Y82000D01*
X66500D01*
Y77000D01*
X64500D01*
Y77550D01*
X64500D01*
Y80450D01*
X64500D01*
Y82000D01*
X58450D01*
Y95450D01*
X58500Y95500D01*
X72500D01*
Y86000D01*
D02*
G37*
G36*
X98500Y86250D02*
X98500Y77250D01*
X92250D01*
Y78000D01*
X80000Y78000D01*
X80000Y72500D01*
X71000Y72500D01*
Y72000D01*
X70047D01*
Y72350D01*
X70050D01*
Y73000D01*
Y73650D01*
X70047D01*
Y74000D01*
X71000D01*
Y73500D01*
X79000Y73500D01*
X79000Y78000D01*
X79000Y86500D01*
X72834D01*
X72834Y95500D01*
X98500D01*
X98500Y86250D01*
D02*
G37*
G36*
X54500Y79750D02*
X57271D01*
X57384Y79675D01*
X57550Y79642D01*
X58450D01*
X58616Y79675D01*
X58729Y79750D01*
X60753D01*
Y80749D01*
X62910Y80752D01*
X63000Y80662D01*
X63000Y76590D01*
X62910Y76500D01*
X61250Y76500D01*
Y76229D01*
X61175Y76116D01*
X61142Y75950D01*
Y75050D01*
X61175Y74884D01*
X61250Y74771D01*
X61250Y74000D01*
X59000D01*
X59000Y77000D01*
X58991Y77097D01*
X58917Y77277D01*
X58779Y77415D01*
X58618Y77481D01*
X58599Y77489D01*
X58502Y77498D01*
X58502Y77498D01*
X58502Y77498D01*
X58502Y77498D01*
X52000D01*
X52000Y87500D01*
X54500Y87500D01*
Y79750D01*
D02*
G37*
G36*
X70796Y77500D02*
X70812Y77422D01*
X70856Y77356D01*
X70922Y77312D01*
X71000Y77296D01*
X78490D01*
X78490Y74010D01*
X71508Y74010D01*
X71471Y74195D01*
X71360Y74360D01*
X71195Y74471D01*
X71000Y74510D01*
X70750D01*
Y74900D01*
X70150D01*
Y75000D01*
X70050D01*
Y75650D01*
X69550D01*
Y75650D01*
X69450D01*
Y75650D01*
X68250D01*
Y75650D01*
X68056Y75665D01*
X67710Y76011D01*
Y77550D01*
X67900D01*
Y80450D01*
X66704D01*
Y81796D01*
X70796D01*
Y77500D01*
D02*
G37*
%LPC*%
G36*
X262160Y93548D02*
Y92350D01*
X263358D01*
X263327Y92589D01*
X263196Y92906D01*
X262987Y93177D01*
X262716Y93386D01*
X262399Y93517D01*
X262160Y93548D01*
D02*
G37*
G36*
X261960D02*
X261721Y93517D01*
X261404Y93386D01*
X261133Y93177D01*
X260924Y92906D01*
X260793Y92589D01*
X260762Y92350D01*
X261960D01*
Y93548D01*
D02*
G37*
G36*
X297230Y93548D02*
Y92350D01*
X298428D01*
X298396Y92589D01*
X298266Y92906D01*
X298057Y93177D01*
X297786Y93386D01*
X297469Y93517D01*
X297230Y93548D01*
D02*
G37*
G36*
X297030Y93548D02*
X296791Y93517D01*
X296474Y93386D01*
X296203Y93177D01*
X295994Y92906D01*
X295863Y92589D01*
X295832Y92350D01*
X297030D01*
Y93548D01*
D02*
G37*
G36*
X227030Y93498D02*
Y92300D01*
X228228D01*
X228197Y92539D01*
X228066Y92856D01*
X227857Y93127D01*
X227586Y93336D01*
X227269Y93467D01*
X227030Y93498D01*
D02*
G37*
G36*
X277300Y93858D02*
X276986Y93827D01*
X276685Y93735D01*
X276407Y93587D01*
X276163Y93387D01*
X275963Y93143D01*
X275815Y92865D01*
X275723Y92564D01*
X275692Y92250D01*
X275723Y91936D01*
X275815Y91635D01*
X275963Y91357D01*
X276163Y91113D01*
X276407Y90913D01*
X276685Y90765D01*
X276986Y90673D01*
X277300Y90642D01*
X277614Y90673D01*
X277915Y90765D01*
X278193Y90913D01*
X278437Y91113D01*
X278637Y91357D01*
X278785Y91635D01*
X278877Y91936D01*
X278908Y92250D01*
X278877Y92564D01*
X278785Y92865D01*
X278637Y93143D01*
X278437Y93387D01*
X278193Y93587D01*
X277915Y93735D01*
X277614Y93827D01*
X277300Y93858D01*
D02*
G37*
G36*
X273490D02*
X273176Y93827D01*
X272875Y93735D01*
X272597Y93587D01*
X272353Y93387D01*
X272153Y93143D01*
X272005Y92865D01*
X271913Y92564D01*
X271882Y92250D01*
X271913Y91936D01*
X272005Y91635D01*
X272153Y91357D01*
X272353Y91113D01*
X272597Y90913D01*
X272875Y90765D01*
X273176Y90673D01*
X273490Y90642D01*
X273804Y90673D01*
X274105Y90765D01*
X274383Y90913D01*
X274627Y91113D01*
X274827Y91357D01*
X274975Y91635D01*
X275067Y91936D01*
X275098Y92250D01*
X275067Y92564D01*
X274975Y92865D01*
X274827Y93143D01*
X274627Y93387D01*
X274383Y93587D01*
X274105Y93735D01*
X273804Y93827D01*
X273490Y93858D01*
D02*
G37*
G36*
X269680D02*
X269366Y93827D01*
X269065Y93735D01*
X268787Y93587D01*
X268543Y93387D01*
X268343Y93143D01*
X268195Y92865D01*
X268103Y92564D01*
X268072Y92250D01*
X268103Y91936D01*
X268195Y91635D01*
X268343Y91357D01*
X268543Y91113D01*
X268787Y90913D01*
X269065Y90765D01*
X269366Y90673D01*
X269680Y90642D01*
X269994Y90673D01*
X270295Y90765D01*
X270573Y90913D01*
X270817Y91113D01*
X271017Y91357D01*
X271165Y91635D01*
X271257Y91936D01*
X271288Y92250D01*
X271257Y92564D01*
X271165Y92865D01*
X271017Y93143D01*
X270817Y93387D01*
X270573Y93587D01*
X270295Y93735D01*
X269994Y93827D01*
X269680Y93858D01*
D02*
G37*
G36*
X265870D02*
X265556Y93827D01*
X265255Y93735D01*
X264977Y93587D01*
X264733Y93387D01*
X264533Y93143D01*
X264385Y92865D01*
X264293Y92564D01*
X264262Y92250D01*
X264293Y91936D01*
X264385Y91635D01*
X264533Y91357D01*
X264733Y91113D01*
X264977Y90913D01*
X265255Y90765D01*
X265556Y90673D01*
X265870Y90642D01*
X266184Y90673D01*
X266485Y90765D01*
X266763Y90913D01*
X267007Y91113D01*
X267207Y91357D01*
X267355Y91635D01*
X267447Y91936D01*
X267478Y92250D01*
X267447Y92564D01*
X267355Y92865D01*
X267207Y93143D01*
X267007Y93387D01*
X266763Y93587D01*
X266485Y93735D01*
X266184Y93827D01*
X265870Y93858D01*
D02*
G37*
G36*
X312370Y93858D02*
X312056Y93827D01*
X311755Y93735D01*
X311477Y93587D01*
X311233Y93387D01*
X311033Y93143D01*
X310885Y92865D01*
X310793Y92564D01*
X310762Y92250D01*
X310793Y91936D01*
X310885Y91635D01*
X311033Y91357D01*
X311233Y91113D01*
X311477Y90913D01*
X311755Y90765D01*
X312056Y90673D01*
X312370Y90642D01*
X312684Y90673D01*
X312985Y90765D01*
X313263Y90913D01*
X313507Y91113D01*
X313707Y91357D01*
X313855Y91635D01*
X313947Y91936D01*
X313978Y92250D01*
X313947Y92564D01*
X313855Y92865D01*
X313707Y93143D01*
X313507Y93387D01*
X313263Y93587D01*
X312985Y93735D01*
X312684Y93827D01*
X312370Y93858D01*
D02*
G37*
G36*
X308560D02*
X308246Y93827D01*
X307945Y93735D01*
X307667Y93587D01*
X307423Y93387D01*
X307223Y93143D01*
X307075Y92865D01*
X306983Y92564D01*
X306952Y92250D01*
X306983Y91936D01*
X307075Y91635D01*
X307223Y91357D01*
X307423Y91113D01*
X307667Y90913D01*
X307945Y90765D01*
X308246Y90673D01*
X308560Y90642D01*
X308874Y90673D01*
X309175Y90765D01*
X309453Y90913D01*
X309697Y91113D01*
X309897Y91357D01*
X310045Y91635D01*
X310137Y91936D01*
X310168Y92250D01*
X310137Y92564D01*
X310045Y92865D01*
X309897Y93143D01*
X309697Y93387D01*
X309453Y93587D01*
X309175Y93735D01*
X308874Y93827D01*
X308560Y93858D01*
D02*
G37*
G36*
X304750D02*
X304436Y93827D01*
X304135Y93735D01*
X303857Y93587D01*
X303613Y93387D01*
X303413Y93143D01*
X303265Y92865D01*
X303173Y92564D01*
X303142Y92250D01*
X303173Y91936D01*
X303265Y91635D01*
X303413Y91357D01*
X303613Y91113D01*
X303857Y90913D01*
X304135Y90765D01*
X304436Y90673D01*
X304750Y90642D01*
X305064Y90673D01*
X305365Y90765D01*
X305643Y90913D01*
X305887Y91113D01*
X306087Y91357D01*
X306235Y91635D01*
X306327Y91936D01*
X306358Y92250D01*
X306327Y92564D01*
X306235Y92865D01*
X306087Y93143D01*
X305887Y93387D01*
X305643Y93587D01*
X305365Y93735D01*
X305064Y93827D01*
X304750Y93858D01*
D02*
G37*
G36*
X300940D02*
X300626Y93827D01*
X300325Y93735D01*
X300047Y93587D01*
X299803Y93387D01*
X299603Y93143D01*
X299455Y92865D01*
X299363Y92564D01*
X299332Y92250D01*
X299363Y91936D01*
X299455Y91635D01*
X299603Y91357D01*
X299803Y91113D01*
X300047Y90913D01*
X300325Y90765D01*
X300626Y90673D01*
X300940Y90642D01*
X301254Y90673D01*
X301555Y90765D01*
X301833Y90913D01*
X302077Y91113D01*
X302277Y91357D01*
X302425Y91635D01*
X302517Y91936D01*
X302548Y92250D01*
X302517Y92564D01*
X302425Y92865D01*
X302277Y93143D01*
X302077Y93387D01*
X301833Y93587D01*
X301555Y93735D01*
X301254Y93827D01*
X300940Y93858D01*
D02*
G37*
G36*
X242170Y93808D02*
X241856Y93777D01*
X241555Y93685D01*
X241277Y93537D01*
X241033Y93337D01*
X240833Y93093D01*
X240685Y92815D01*
X240593Y92514D01*
X240562Y92200D01*
X240593Y91886D01*
X240685Y91585D01*
X240833Y91307D01*
X241033Y91063D01*
X241277Y90863D01*
X241555Y90715D01*
X241856Y90623D01*
X242170Y90592D01*
X242484Y90623D01*
X242785Y90715D01*
X243063Y90863D01*
X243307Y91063D01*
X243507Y91307D01*
X243655Y91585D01*
X243747Y91886D01*
X243778Y92200D01*
X243747Y92514D01*
X243655Y92815D01*
X243507Y93093D01*
X243307Y93337D01*
X243063Y93537D01*
X242785Y93685D01*
X242484Y93777D01*
X242170Y93808D01*
D02*
G37*
G36*
X238360D02*
X238046Y93777D01*
X237745Y93685D01*
X237467Y93537D01*
X237223Y93337D01*
X237023Y93093D01*
X236875Y92815D01*
X236783Y92514D01*
X236752Y92200D01*
X236783Y91886D01*
X236875Y91585D01*
X237023Y91307D01*
X237223Y91063D01*
X237467Y90863D01*
X237745Y90715D01*
X238046Y90623D01*
X238360Y90592D01*
X238674Y90623D01*
X238975Y90715D01*
X239253Y90863D01*
X239497Y91063D01*
X239697Y91307D01*
X239845Y91585D01*
X239937Y91886D01*
X239968Y92200D01*
X239937Y92514D01*
X239845Y92815D01*
X239697Y93093D01*
X239497Y93337D01*
X239253Y93537D01*
X238975Y93685D01*
X238674Y93777D01*
X238360Y93808D01*
D02*
G37*
G36*
X234550D02*
X234236Y93777D01*
X233935Y93685D01*
X233657Y93537D01*
X233413Y93337D01*
X233213Y93093D01*
X233065Y92815D01*
X232973Y92514D01*
X232942Y92200D01*
X232973Y91886D01*
X233065Y91585D01*
X233213Y91307D01*
X233413Y91063D01*
X233657Y90863D01*
X233935Y90715D01*
X234236Y90623D01*
X234550Y90592D01*
X234864Y90623D01*
X235165Y90715D01*
X235443Y90863D01*
X235687Y91063D01*
X235887Y91307D01*
X236035Y91585D01*
X236127Y91886D01*
X236158Y92200D01*
X236127Y92514D01*
X236035Y92815D01*
X235887Y93093D01*
X235687Y93337D01*
X235443Y93537D01*
X235165Y93685D01*
X234864Y93777D01*
X234550Y93808D01*
D02*
G37*
G36*
X230740D02*
X230426Y93777D01*
X230125Y93685D01*
X229847Y93537D01*
X229603Y93337D01*
X229403Y93093D01*
X229255Y92815D01*
X229163Y92514D01*
X229132Y92200D01*
X229163Y91886D01*
X229255Y91585D01*
X229403Y91307D01*
X229603Y91063D01*
X229847Y90863D01*
X230125Y90715D01*
X230426Y90623D01*
X230740Y90592D01*
X231054Y90623D01*
X231355Y90715D01*
X231633Y90863D01*
X231877Y91063D01*
X232077Y91307D01*
X232225Y91585D01*
X232317Y91886D01*
X232348Y92200D01*
X232317Y92514D01*
X232225Y92815D01*
X232077Y93093D01*
X231877Y93337D01*
X231633Y93537D01*
X231355Y93685D01*
X231054Y93777D01*
X230740Y93808D01*
D02*
G37*
G36*
X125250Y90008D02*
X125100D01*
Y89500D01*
X125658D01*
Y89600D01*
X125627Y89756D01*
X125538Y89888D01*
X125406Y89977D01*
X125250Y90008D01*
D02*
G37*
G36*
X124900D02*
X124750D01*
X124594Y89977D01*
X124462Y89888D01*
X124373Y89756D01*
X124342Y89600D01*
Y89500D01*
X124900D01*
Y90008D01*
D02*
G37*
G36*
X145150Y89645D02*
Y88800D01*
X145995D01*
X145976Y88948D01*
X145880Y89179D01*
X145728Y89378D01*
X145529Y89530D01*
X145298Y89626D01*
X145150Y89645D01*
D02*
G37*
G36*
X144950D02*
X144802Y89626D01*
X144571Y89530D01*
X144372Y89378D01*
X144220Y89179D01*
X144124Y88948D01*
X144105Y88800D01*
X144950D01*
Y89645D01*
D02*
G37*
G36*
X121200Y88975D02*
X120450D01*
X119700D01*
Y88469D01*
X117515D01*
X117497Y88497D01*
X117315Y88618D01*
X117100Y88661D01*
X116885Y88618D01*
X116703Y88497D01*
X116582Y88315D01*
X116539Y88100D01*
X116582Y87885D01*
X116703Y87703D01*
X116885Y87582D01*
X117100Y87539D01*
X117315Y87582D01*
X117497Y87703D01*
X117531Y87756D01*
X119700D01*
Y87625D01*
X121200D01*
Y88575D01*
Y88975D01*
D02*
G37*
G36*
X203050Y89961D02*
X202724Y89918D01*
X202420Y89792D01*
X202158Y89592D01*
X201958Y89330D01*
X201832Y89026D01*
X201789Y88700D01*
X201832Y88374D01*
X201958Y88070D01*
X202158Y87809D01*
X202420Y87608D01*
X202724Y87482D01*
X203050Y87439D01*
X203376Y87482D01*
X203680Y87608D01*
X203942Y87809D01*
X204142Y88070D01*
X204268Y88374D01*
X204311Y88700D01*
X204268Y89026D01*
X204142Y89330D01*
X203942Y89592D01*
X203680Y89792D01*
X203376Y89918D01*
X203050Y89961D01*
D02*
G37*
G36*
X125658Y89300D02*
X125000D01*
X124342D01*
Y89200D01*
X124373Y89044D01*
X124462Y88912D01*
X124420Y88699D01*
X124358Y88635D01*
X123050D01*
X123001Y88625D01*
X122300D01*
Y87625D01*
X123001D01*
X123050Y87615D01*
X124459D01*
X124462Y87612D01*
X124594Y87523D01*
X124750Y87492D01*
X125250D01*
X125406Y87523D01*
X125506Y87590D01*
X126623D01*
X126785Y87482D01*
X127000Y87439D01*
X127215Y87482D01*
X127397Y87603D01*
X127518Y87785D01*
X127561Y88000D01*
X127518Y88215D01*
X127397Y88397D01*
X127215Y88518D01*
X127157Y88530D01*
X127095Y88571D01*
X126900Y88610D01*
X125506D01*
X125463Y88639D01*
X125455Y88666D01*
Y88834D01*
X125463Y88861D01*
X125538Y88912D01*
X125627Y89044D01*
X125658Y89200D01*
Y89300D01*
D02*
G37*
G36*
X301540Y85548D02*
Y84350D01*
X302738D01*
X302706Y84589D01*
X302576Y84906D01*
X302367Y85177D01*
X302096Y85386D01*
X301779Y85517D01*
X301540Y85548D01*
D02*
G37*
G36*
X266160D02*
Y84350D01*
X267358D01*
X267327Y84589D01*
X267196Y84906D01*
X266987Y85177D01*
X266716Y85386D01*
X266399Y85517D01*
X266160Y85548D01*
D02*
G37*
G36*
X231340Y85498D02*
Y84300D01*
X232538D01*
X232507Y84539D01*
X232376Y84856D01*
X232167Y85127D01*
X231896Y85336D01*
X231579Y85467D01*
X231340Y85498D01*
D02*
G37*
G36*
X309060Y85858D02*
X308746Y85827D01*
X308445Y85735D01*
X308167Y85587D01*
X307923Y85387D01*
X307723Y85143D01*
X307575Y84865D01*
X307483Y84564D01*
X307452Y84250D01*
X307483Y83936D01*
X307575Y83635D01*
X307723Y83357D01*
X307923Y83113D01*
X308167Y82913D01*
X308445Y82765D01*
X308746Y82673D01*
X309060Y82642D01*
X309374Y82673D01*
X309675Y82765D01*
X309953Y82913D01*
X310197Y83113D01*
X310397Y83357D01*
X310545Y83635D01*
X310637Y83936D01*
X310668Y84250D01*
X310637Y84564D01*
X310545Y84865D01*
X310397Y85143D01*
X310197Y85387D01*
X309953Y85587D01*
X309675Y85735D01*
X309374Y85827D01*
X309060Y85858D01*
D02*
G37*
G36*
X305250D02*
X304936Y85827D01*
X304635Y85735D01*
X304357Y85587D01*
X304113Y85387D01*
X303913Y85143D01*
X303765Y84865D01*
X303673Y84564D01*
X303642Y84250D01*
X303673Y83936D01*
X303765Y83635D01*
X303913Y83357D01*
X304113Y83113D01*
X304357Y82913D01*
X304635Y82765D01*
X304936Y82673D01*
X305250Y82642D01*
X305564Y82673D01*
X305865Y82765D01*
X306143Y82913D01*
X306387Y83113D01*
X306587Y83357D01*
X306735Y83635D01*
X306827Y83936D01*
X306858Y84250D01*
X306827Y84564D01*
X306735Y84865D01*
X306587Y85143D01*
X306387Y85387D01*
X306143Y85587D01*
X305865Y85735D01*
X305564Y85827D01*
X305250Y85858D01*
D02*
G37*
G36*
X273680D02*
X273366Y85827D01*
X273065Y85735D01*
X272787Y85587D01*
X272543Y85387D01*
X272343Y85143D01*
X272195Y84865D01*
X272103Y84564D01*
X272072Y84250D01*
X272103Y83936D01*
X272195Y83635D01*
X272343Y83357D01*
X272543Y83113D01*
X272787Y82913D01*
X273065Y82765D01*
X273366Y82673D01*
X273680Y82642D01*
X273994Y82673D01*
X274295Y82765D01*
X274573Y82913D01*
X274817Y83113D01*
X275017Y83357D01*
X275165Y83635D01*
X275257Y83936D01*
X275288Y84250D01*
X275257Y84564D01*
X275165Y84865D01*
X275017Y85143D01*
X274817Y85387D01*
X274573Y85587D01*
X274295Y85735D01*
X273994Y85827D01*
X273680Y85858D01*
D02*
G37*
G36*
X269870D02*
X269556Y85827D01*
X269255Y85735D01*
X268977Y85587D01*
X268733Y85387D01*
X268533Y85143D01*
X268385Y84865D01*
X268293Y84564D01*
X268262Y84250D01*
X268293Y83936D01*
X268385Y83635D01*
X268533Y83357D01*
X268733Y83113D01*
X268977Y82913D01*
X269255Y82765D01*
X269556Y82673D01*
X269870Y82642D01*
X270184Y82673D01*
X270485Y82765D01*
X270763Y82913D01*
X271007Y83113D01*
X271207Y83357D01*
X271355Y83635D01*
X271447Y83936D01*
X271478Y84250D01*
X271447Y84564D01*
X271355Y84865D01*
X271207Y85143D01*
X271007Y85387D01*
X270763Y85587D01*
X270485Y85735D01*
X270184Y85827D01*
X269870Y85858D01*
D02*
G37*
G36*
X238860Y85808D02*
X238546Y85777D01*
X238245Y85685D01*
X237967Y85537D01*
X237723Y85337D01*
X237523Y85093D01*
X237375Y84815D01*
X237283Y84514D01*
X237252Y84200D01*
X237283Y83886D01*
X237375Y83585D01*
X237523Y83307D01*
X237723Y83063D01*
X237967Y82863D01*
X238245Y82715D01*
X238546Y82623D01*
X238860Y82592D01*
X239174Y82623D01*
X239475Y82715D01*
X239753Y82863D01*
X239997Y83063D01*
X240197Y83307D01*
X240345Y83585D01*
X240437Y83886D01*
X240468Y84200D01*
X240437Y84514D01*
X240345Y84815D01*
X240197Y85093D01*
X239997Y85337D01*
X239753Y85537D01*
X239475Y85685D01*
X239174Y85777D01*
X238860Y85808D01*
D02*
G37*
G36*
X235050D02*
X234736Y85777D01*
X234435Y85685D01*
X234157Y85537D01*
X233913Y85337D01*
X233713Y85093D01*
X233565Y84815D01*
X233473Y84514D01*
X233442Y84200D01*
X233473Y83886D01*
X233565Y83585D01*
X233713Y83307D01*
X233913Y83063D01*
X234157Y82863D01*
X234435Y82715D01*
X234736Y82623D01*
X235050Y82592D01*
X235364Y82623D01*
X235665Y82715D01*
X235943Y82863D01*
X236187Y83063D01*
X236387Y83307D01*
X236535Y83585D01*
X236627Y83886D01*
X236658Y84200D01*
X236627Y84514D01*
X236535Y84815D01*
X236387Y85093D01*
X236187Y85337D01*
X235943Y85537D01*
X235665Y85685D01*
X235364Y85777D01*
X235050Y85808D01*
D02*
G37*
G36*
X125250Y81508D02*
X125100D01*
Y81000D01*
X125658D01*
Y81100D01*
X125627Y81256D01*
X125538Y81388D01*
X125406Y81477D01*
X125250Y81508D01*
D02*
G37*
G36*
X124900D02*
X124750D01*
X124594Y81477D01*
X124462Y81388D01*
X124373Y81256D01*
X124342Y81100D01*
Y81000D01*
X124900D01*
Y81508D01*
D02*
G37*
G36*
X121200Y80399D02*
X120450D01*
X119700D01*
Y79893D01*
X117515D01*
X117497Y79920D01*
X117315Y80042D01*
X117100Y80084D01*
X116885Y80042D01*
X116704Y79920D01*
X116582Y79738D01*
X116539Y79524D01*
X116582Y79309D01*
X116704Y79127D01*
X116885Y79006D01*
X117100Y78963D01*
X117315Y79006D01*
X117497Y79127D01*
X117531Y79179D01*
X119700D01*
Y79049D01*
X121200D01*
Y79999D01*
Y80399D01*
D02*
G37*
G36*
X125658Y80800D02*
X125000D01*
X124342D01*
Y80700D01*
X124373Y80544D01*
X124462Y80412D01*
X124490Y80393D01*
X124509Y80178D01*
X124390Y80058D01*
X123050D01*
X123001Y80049D01*
X122300D01*
Y79049D01*
X123001D01*
X123050Y79039D01*
X124571D01*
X124594Y79023D01*
X124750Y78992D01*
X125250D01*
X125406Y79023D01*
X125506Y79090D01*
X126623D01*
X126785Y78982D01*
X127000Y78939D01*
X127215Y78982D01*
X127397Y79103D01*
X127518Y79285D01*
X127561Y79500D01*
X127518Y79715D01*
X127397Y79897D01*
X127215Y80018D01*
X127157Y80030D01*
X127095Y80071D01*
X126900Y80110D01*
X125506D01*
X125463Y80139D01*
X125455Y80166D01*
Y80334D01*
X125463Y80361D01*
X125538Y80412D01*
X125627Y80544D01*
X125658Y80700D01*
Y80800D01*
D02*
G37*
G36*
X40250Y82108D02*
X39936Y82077D01*
X39635Y81985D01*
X39357Y81837D01*
X39113Y81637D01*
X38913Y81393D01*
X38765Y81115D01*
X38673Y80814D01*
X38642Y80500D01*
X38673Y80186D01*
X38765Y79885D01*
X38913Y79607D01*
X39113Y79363D01*
X39357Y79163D01*
X39635Y79015D01*
X39936Y78923D01*
X40250Y78892D01*
X40564Y78923D01*
X40865Y79015D01*
X41143Y79163D01*
X41387Y79363D01*
X41587Y79607D01*
X41735Y79885D01*
X41827Y80186D01*
X41858Y80500D01*
X41827Y80814D01*
X41735Y81115D01*
X41587Y81393D01*
X41387Y81637D01*
X41143Y81837D01*
X40865Y81985D01*
X40564Y82077D01*
X40250Y82108D01*
D02*
G37*
G36*
X145150Y78645D02*
Y77800D01*
X145995D01*
X145976Y77948D01*
X145880Y78179D01*
X145728Y78378D01*
X145529Y78530D01*
X145298Y78626D01*
X145150Y78645D01*
D02*
G37*
G36*
X144950D02*
X144802Y78626D01*
X144571Y78530D01*
X144372Y78378D01*
X144220Y78179D01*
X144124Y77948D01*
X144105Y77800D01*
X144950D01*
Y78645D01*
D02*
G37*
G36*
X40350Y77988D02*
Y76790D01*
X41548D01*
X41517Y77029D01*
X41386Y77346D01*
X41177Y77617D01*
X40906Y77826D01*
X40589Y77957D01*
X40350Y77988D01*
D02*
G37*
G36*
X40150D02*
X39911Y77957D01*
X39594Y77826D01*
X39323Y77617D01*
X39114Y77346D01*
X38983Y77029D01*
X38952Y76790D01*
X40150D01*
Y77988D01*
D02*
G37*
G36*
X144950Y77600D02*
X144105D01*
X144124Y77452D01*
X144220Y77221D01*
X144372Y77022D01*
X144571Y76870D01*
X144802Y76774D01*
X144950Y76755D01*
Y77600D01*
D02*
G37*
G36*
X145995D02*
X145150D01*
Y76755D01*
X145298Y76774D01*
X145529Y76870D01*
X145728Y77022D01*
X145880Y77221D01*
X145976Y77452D01*
X145995Y77600D01*
D02*
G37*
G36*
X91383Y77100D02*
X90600D01*
Y76542D01*
X90950D01*
X91116Y76575D01*
X91256Y76669D01*
X91350Y76809D01*
X91383Y76975D01*
Y77100D01*
D02*
G37*
G36*
X90400D02*
X89617D01*
Y76975D01*
X89650Y76809D01*
X89744Y76669D01*
X89884Y76575D01*
X90050Y76542D01*
X90400D01*
Y77100D01*
D02*
G37*
G36*
X87883D02*
X87100D01*
Y76542D01*
X87450D01*
X87616Y76575D01*
X87756Y76669D01*
X87850Y76809D01*
X87883Y76975D01*
Y77100D01*
D02*
G37*
G36*
X86900D02*
X86117D01*
Y76975D01*
X86150Y76809D01*
X86244Y76669D01*
X86384Y76575D01*
X86550Y76542D01*
X86900D01*
Y77100D01*
D02*
G37*
G36*
X84383D02*
X83600D01*
Y76542D01*
X83950D01*
X84116Y76575D01*
X84256Y76669D01*
X84350Y76809D01*
X84383Y76975D01*
Y77100D01*
D02*
G37*
G36*
X83400D02*
X82617D01*
Y76975D01*
X82650Y76809D01*
X82744Y76669D01*
X82884Y76575D01*
X83050Y76542D01*
X83400D01*
Y77100D01*
D02*
G37*
G36*
X203050Y78961D02*
X202724Y78918D01*
X202420Y78792D01*
X202158Y78592D01*
X201958Y78330D01*
X201832Y78026D01*
X201789Y77700D01*
X201832Y77374D01*
X201958Y77070D01*
X202158Y76809D01*
X202420Y76608D01*
X202724Y76482D01*
X203050Y76439D01*
X203376Y76482D01*
X203680Y76608D01*
X203942Y76809D01*
X204142Y77070D01*
X204268Y77374D01*
X204311Y77700D01*
X204268Y78026D01*
X204142Y78330D01*
X203942Y78592D01*
X203680Y78792D01*
X203376Y78918D01*
X203050Y78961D01*
D02*
G37*
G36*
X270160Y77548D02*
Y76350D01*
X271358D01*
X271327Y76589D01*
X271196Y76906D01*
X270987Y77177D01*
X270716Y77386D01*
X270399Y77517D01*
X270160Y77548D01*
D02*
G37*
G36*
X305350Y77548D02*
Y76350D01*
X306548D01*
X306517Y76589D01*
X306386Y76906D01*
X306177Y77177D01*
X305906Y77386D01*
X305589Y77517D01*
X305350Y77548D01*
D02*
G37*
G36*
X235150Y77498D02*
Y76300D01*
X236348D01*
X236317Y76539D01*
X236186Y76856D01*
X235977Y77127D01*
X235706Y77336D01*
X235389Y77467D01*
X235150Y77498D01*
D02*
G37*
G36*
X41548Y76590D02*
X40350D01*
Y75392D01*
X40589Y75423D01*
X40906Y75554D01*
X41177Y75763D01*
X41386Y76034D01*
X41517Y76351D01*
X41548Y76590D01*
D02*
G37*
G36*
X40150D02*
X38952D01*
X38983Y76351D01*
X39114Y76034D01*
X39323Y75763D01*
X39594Y75554D01*
X39911Y75423D01*
X40150Y75392D01*
Y76590D01*
D02*
G37*
G36*
X271358Y76150D02*
X270160D01*
Y74952D01*
X270399Y74983D01*
X270716Y75114D01*
X270987Y75323D01*
X271196Y75594D01*
X271327Y75911D01*
X271358Y76150D01*
D02*
G37*
G36*
X306548Y76150D02*
X305350D01*
Y74952D01*
X305589Y74983D01*
X305906Y75114D01*
X306177Y75323D01*
X306386Y75594D01*
X306517Y75911D01*
X306548Y76150D01*
D02*
G37*
G36*
X236348Y76100D02*
X235150D01*
Y74902D01*
X235389Y74933D01*
X235706Y75064D01*
X235977Y75273D01*
X236186Y75544D01*
X236317Y75861D01*
X236348Y76100D01*
D02*
G37*
G36*
X258468Y95060D02*
X257172D01*
X257123Y95050D01*
X257073D01*
X256783Y94992D01*
X256737Y94973D01*
X256687Y94963D01*
X256414Y94850D01*
X256373Y94822D01*
X256326Y94803D01*
X256081Y94639D01*
X256045Y94603D01*
X256003Y94576D01*
X255794Y94367D01*
X255766Y94325D01*
X255731Y94289D01*
X255567Y94044D01*
X255548Y93997D01*
X255520Y93956D01*
X255407Y93683D01*
X255397Y93633D01*
X255378Y93587D01*
X255320Y93297D01*
Y93247D01*
X255310Y93198D01*
Y91402D01*
X255320Y91353D01*
Y91303D01*
X255378Y91013D01*
X255397Y90967D01*
X255407Y90917D01*
X255520Y90644D01*
X255548Y90603D01*
X255567Y90556D01*
X255731Y90311D01*
X255766Y90275D01*
X255794Y90233D01*
X256003Y90024D01*
X256045Y89996D01*
X256081Y89961D01*
X256326Y89797D01*
X256373Y89778D01*
X256414Y89750D01*
X256687Y89637D01*
X256737Y89627D01*
X256783Y89608D01*
X257073Y89550D01*
X257123D01*
X257172Y89540D01*
X258807Y89540D01*
X258855Y89538D01*
X258962Y89517D01*
X259050Y89480D01*
X259129Y89427D01*
X259197Y89359D01*
X259250Y89280D01*
X259287Y89192D01*
X259298Y89134D01*
X259298Y89134D01*
X259308Y89085D01*
X259310Y89037D01*
Y83550D01*
Y83402D01*
X259320Y83353D01*
Y83303D01*
X259378Y83013D01*
X259397Y82967D01*
X259407Y82917D01*
X259520Y82644D01*
X259548Y82603D01*
X259567Y82556D01*
X259731Y82311D01*
X259766Y82275D01*
X259794Y82233D01*
X260003Y82024D01*
X260045Y81996D01*
X260081Y81961D01*
X260326Y81797D01*
X260373Y81778D01*
X260414Y81750D01*
X260687Y81637D01*
X260737Y81627D01*
X260783Y81608D01*
X261073Y81550D01*
X261123D01*
X261172Y81540D01*
X262807Y81540D01*
X262855Y81538D01*
X262962Y81517D01*
X263050Y81480D01*
X263129Y81427D01*
X263197Y81359D01*
X263250Y81280D01*
X263287Y81192D01*
X263298Y81134D01*
X263298Y81134D01*
X263308Y81085D01*
X263310Y81037D01*
Y75550D01*
Y75451D01*
X263320Y75402D01*
Y75352D01*
X263358Y75159D01*
X263378Y75112D01*
X263387Y75063D01*
X263463Y74881D01*
X263491Y74839D01*
X263510Y74793D01*
X263619Y74629D01*
X263655Y74594D01*
X263683Y74552D01*
X263822Y74413D01*
X263864Y74385D01*
X263899Y74349D01*
X264063Y74240D01*
X264109Y74221D01*
X264151Y74193D01*
X264333Y74117D01*
X264382Y74108D01*
X264429Y74088D01*
X264622Y74050D01*
X264672D01*
X264721Y74040D01*
X265141D01*
Y70210D01*
X263540Y68609D01*
X229961D01*
X229879Y68809D01*
X232025Y70956D01*
X232201Y71185D01*
X232312Y71453D01*
X232350Y71740D01*
Y73871D01*
X232550Y73990D01*
X232598D01*
X232648Y74000D01*
X232698D01*
X232891Y74038D01*
X232938Y74058D01*
X232987Y74067D01*
X233169Y74143D01*
X233211Y74171D01*
X233257Y74190D01*
X233421Y74299D01*
X233456Y74335D01*
X233498Y74363D01*
X233637Y74502D01*
X233665Y74544D01*
X233701Y74579D01*
X233810Y74743D01*
X233829Y74789D01*
X233857Y74831D01*
X233933Y75013D01*
X233942Y75062D01*
X233962Y75109D01*
X233969Y75148D01*
X233997Y75170D01*
X234188Y75223D01*
X234394Y75064D01*
X234711Y74933D01*
X234950Y74902D01*
Y76200D01*
Y77498D01*
X234711Y77467D01*
X234394Y77336D01*
X234210Y77194D01*
X234010Y77292D01*
X234010Y79490D01*
X234010Y79687D01*
X234004Y79720D01*
X234006Y79753D01*
X233956Y80144D01*
X233945Y80176D01*
X233943Y80210D01*
X233842Y80590D01*
X233827Y80621D01*
X233821Y80654D01*
X233671Y81018D01*
X233652Y81046D01*
X233641Y81078D01*
X233445Y81420D01*
X233423Y81445D01*
X233408Y81475D01*
X233169Y81788D01*
X233143Y81811D01*
X233125Y81839D01*
X232846Y82118D01*
X232818Y82136D01*
X232796Y82162D01*
X232484Y82402D01*
X232454Y82417D01*
X232428Y82439D01*
X232087Y82636D01*
X232055Y82647D01*
X232027Y82666D01*
X231742Y82784D01*
X231742Y83001D01*
X231896Y83064D01*
X232167Y83273D01*
X232376Y83544D01*
X232507Y83861D01*
X232538Y84100D01*
X231240D01*
Y84200D01*
X231140D01*
Y85498D01*
X230901Y85467D01*
X230584Y85336D01*
X230313Y85127D01*
X230210Y84993D01*
X230010Y85061D01*
X230010Y87000D01*
X230010Y87229D01*
X230003Y87262D01*
X230005Y87296D01*
X229946Y87751D01*
X229935Y87783D01*
X229933Y87816D01*
X229814Y88259D01*
X229799Y88290D01*
X229792Y88323D01*
X229617Y88746D01*
X229598Y88774D01*
X229587Y88806D01*
X229358Y89204D01*
X229336Y89229D01*
X229321Y89259D01*
X229042Y89623D01*
X229016Y89645D01*
X228998Y89673D01*
X228673Y89998D01*
X228645Y90016D01*
X228623Y90042D01*
X228259Y90321D01*
X228229Y90336D01*
X228204Y90358D01*
X227806Y90587D01*
X227774Y90598D01*
X227746Y90617D01*
X227387Y90766D01*
X227375Y90971D01*
X227376Y90975D01*
X227378Y90978D01*
X227586Y91064D01*
X227857Y91273D01*
X228066Y91544D01*
X228197Y91861D01*
X228228Y92100D01*
X226930D01*
Y92200D01*
X226830D01*
Y93498D01*
X226591Y93467D01*
X226274Y93336D01*
X226003Y93127D01*
X225794Y92856D01*
X225710Y92651D01*
X225510Y92691D01*
Y93148D01*
X225500Y93197D01*
Y93247D01*
X225442Y93537D01*
X225423Y93583D01*
X225413Y93633D01*
X225300Y93906D01*
X225272Y93947D01*
X225253Y93994D01*
X225089Y94239D01*
X225053Y94275D01*
X225026Y94317D01*
X224817Y94526D01*
X224775Y94553D01*
X224739Y94589D01*
X224494Y94753D01*
X224447Y94772D01*
X224406Y94800D01*
X224133Y94913D01*
X224083Y94923D01*
X224037Y94942D01*
X223747Y95000D01*
X223697D01*
X223648Y95010D01*
X222352D01*
X222303Y95000D01*
X222253D01*
X221963Y94942D01*
X221917Y94923D01*
X221867Y94913D01*
X221594Y94800D01*
X221553Y94772D01*
X221506Y94753D01*
X221261Y94589D01*
X221225Y94553D01*
X221183Y94526D01*
X220974Y94317D01*
X220947Y94275D01*
X220911Y94239D01*
X220747Y93994D01*
X220728Y93947D01*
X220700Y93906D01*
X220587Y93633D01*
X220577Y93583D01*
X220558Y93537D01*
X220500Y93247D01*
Y93197D01*
X220490Y93148D01*
Y91352D01*
X220500Y91303D01*
Y91253D01*
X220558Y90963D01*
X220577Y90917D01*
X220587Y90867D01*
X220700Y90594D01*
X220728Y90553D01*
X220747Y90506D01*
X220911Y90261D01*
X220947Y90225D01*
X220974Y90183D01*
X221183Y89974D01*
X221225Y89947D01*
X221261Y89911D01*
X221506Y89747D01*
X221553Y89728D01*
X221594Y89700D01*
X221867Y89587D01*
X221917Y89577D01*
X221963Y89558D01*
X222253Y89500D01*
X222303D01*
X222352Y89490D01*
X223988Y89490D01*
X224035Y89488D01*
X224142Y89467D01*
X224230Y89430D01*
X224309Y89377D01*
X224377Y89309D01*
X224430Y89230D01*
X224467Y89142D01*
X224478Y89084D01*
X224478Y89084D01*
Y89084D01*
X224488Y89035D01*
X224490Y88987D01*
Y83500D01*
Y83352D01*
X224500Y83303D01*
Y83253D01*
X224558Y82963D01*
X224577Y82917D01*
X224587Y82867D01*
X224700Y82594D01*
X224728Y82553D01*
X224747Y82506D01*
X224911Y82261D01*
X224947Y82225D01*
X224974Y82183D01*
X225183Y81974D01*
X225225Y81947D01*
X225261Y81911D01*
X225506Y81747D01*
X225553Y81728D01*
X225594Y81700D01*
X225867Y81587D01*
X225917Y81577D01*
X225963Y81558D01*
X226253Y81500D01*
X226303D01*
X226352Y81490D01*
X227988Y81490D01*
X228035Y81488D01*
X228142Y81467D01*
X228230Y81430D01*
X228309Y81377D01*
X228377Y81309D01*
X228430Y81230D01*
X228467Y81142D01*
X228478Y81084D01*
X228478Y81084D01*
Y81084D01*
X228488Y81035D01*
X228490Y80987D01*
Y75500D01*
Y75402D01*
X228500Y75352D01*
Y75302D01*
X228538Y75109D01*
X228558Y75062D01*
X228567Y75013D01*
X228643Y74831D01*
X228671Y74789D01*
X228690Y74743D01*
X228799Y74579D01*
X228835Y74544D01*
X228863Y74502D01*
X229002Y74363D01*
X229044Y74335D01*
X229079Y74299D01*
X229243Y74190D01*
X229289Y74171D01*
X229331Y74143D01*
X229513Y74067D01*
X229562Y74058D01*
X229609Y74038D01*
X229802Y74000D01*
X229852D01*
X229902Y73990D01*
X230131D01*
Y72200D01*
X228540Y70609D01*
X219470D01*
X214295Y75785D01*
X214065Y75961D01*
X213798Y76072D01*
X213510Y76109D01*
X177470D01*
X166295Y87285D01*
X166065Y87461D01*
X165798Y87572D01*
X165510Y87609D01*
X145422D01*
X145383Y87809D01*
X145529Y87870D01*
X145728Y88022D01*
X145880Y88221D01*
X145976Y88452D01*
X145995Y88600D01*
X145050D01*
X144105D01*
X144124Y88452D01*
X144220Y88221D01*
X144372Y88022D01*
X144571Y87870D01*
X144717Y87809D01*
X144678Y87609D01*
X137710D01*
X131535Y93785D01*
X131305Y93961D01*
X131037Y94072D01*
X130750Y94109D01*
X125550D01*
Y94925D01*
X124150D01*
Y93924D01*
X124065Y93859D01*
X123889Y93630D01*
X123778Y93362D01*
X123741Y93075D01*
Y93000D01*
X123763Y92828D01*
X123593Y92806D01*
X123398Y92725D01*
X123231Y92597D01*
X122479Y91846D01*
X122351Y91678D01*
X122271Y91484D01*
X122243Y91275D01*
Y90025D01*
X122271Y89816D01*
X122300Y89745D01*
Y89525D01*
X122425D01*
X122479Y89454D01*
X122647Y89326D01*
X122841Y89246D01*
X123050Y89218D01*
X123259Y89246D01*
X123453Y89326D01*
X123621Y89454D01*
X123675Y89525D01*
X123800D01*
Y89745D01*
X123829Y89816D01*
X123857Y90025D01*
Y90941D01*
X124136Y91220D01*
X124650D01*
X124691Y91225D01*
X125550D01*
Y91891D01*
X130290D01*
X136371Y85809D01*
X136289Y85609D01*
X125550D01*
Y86349D01*
X124150D01*
Y85349D01*
X124066Y85285D01*
X123889Y85055D01*
X123778Y84787D01*
X123741Y84500D01*
Y84499D01*
X123773Y84253D01*
X123593Y84230D01*
X123398Y84149D01*
X123231Y84021D01*
X122479Y83269D01*
X122351Y83102D01*
X122271Y82908D01*
X122243Y82699D01*
Y81449D01*
X122271Y81240D01*
X122300Y81169D01*
Y80949D01*
X122425D01*
X122479Y80878D01*
X122647Y80750D01*
X122841Y80669D01*
X123050Y80642D01*
X123259Y80669D01*
X123454Y80750D01*
X123621Y80878D01*
X123675Y80949D01*
X123800D01*
Y81169D01*
X123829Y81240D01*
X123857Y81449D01*
Y82364D01*
X124136Y82643D01*
X124650D01*
X124691Y82649D01*
X125550D01*
Y83391D01*
X136614D01*
X136661Y83287D01*
X136669Y83191D01*
X136465Y83034D01*
X130290Y76859D01*
X125550D01*
Y77600D01*
X124150D01*
Y76599D01*
X124065Y76534D01*
X123889Y76305D01*
X123778Y76037D01*
X123740Y75750D01*
Y75675D01*
X123763Y75503D01*
X123593Y75481D01*
X123398Y75400D01*
X123231Y75272D01*
X122479Y74521D01*
X122351Y74353D01*
X122271Y74159D01*
X122243Y73950D01*
Y72700D01*
X122271Y72491D01*
X122300Y72420D01*
Y72200D01*
X122425D01*
X122479Y72129D01*
X122647Y72001D01*
X122841Y71921D01*
X123050Y71893D01*
X123259Y71921D01*
X123453Y72001D01*
X123621Y72129D01*
X123675Y72200D01*
X123800D01*
Y72420D01*
X123829Y72491D01*
X123857Y72700D01*
Y73616D01*
X124136Y73895D01*
X124650D01*
X124691Y73900D01*
X125550D01*
Y74640D01*
X130750D01*
X131037Y74678D01*
X131305Y74789D01*
X131534Y74965D01*
X137710Y81140D01*
X163290D01*
X174466Y69965D01*
X174695Y69789D01*
X174963Y69678D01*
X175250Y69640D01*
X177887D01*
X177954Y69440D01*
X177872Y69378D01*
X177720Y69179D01*
X177624Y68948D01*
X177592Y68700D01*
X177624Y68452D01*
X177720Y68221D01*
X177872Y68022D01*
X178071Y67870D01*
X178302Y67774D01*
X178550Y67742D01*
X178798Y67774D01*
X179029Y67870D01*
X179228Y68022D01*
X179380Y68221D01*
X179476Y68452D01*
X179508Y68700D01*
X179476Y68948D01*
X179380Y69179D01*
X179228Y69378D01*
X179146Y69440D01*
X179214Y69640D01*
X180887D01*
X180954Y69440D01*
X180872Y69378D01*
X180720Y69179D01*
X180624Y68948D01*
X180592Y68700D01*
X180624Y68452D01*
X180720Y68221D01*
X180872Y68022D01*
X181071Y67870D01*
X181302Y67774D01*
X181550Y67742D01*
X181798Y67774D01*
X182029Y67870D01*
X182228Y68022D01*
X182380Y68221D01*
X182476Y68452D01*
X182508Y68700D01*
X182476Y68948D01*
X182380Y69179D01*
X182228Y69378D01*
X182146Y69440D01*
X182213Y69640D01*
X201444D01*
X201543Y69440D01*
X201458Y69330D01*
X201332Y69026D01*
X201289Y68700D01*
X201332Y68374D01*
X201458Y68070D01*
X201580Y67911D01*
X201604Y67868D01*
X201663Y67800D01*
X201758Y67676D01*
X201786Y67632D01*
X201810Y67591D01*
X201826Y67558D01*
X201835Y67535D01*
X201839Y67521D01*
X201840Y67519D01*
X201841Y67494D01*
X201844Y67482D01*
Y64522D01*
X200178Y62856D01*
X192950D01*
X192907Y62850D01*
X192300Y62850D01*
X192150Y62850D01*
X191050D01*
Y62607D01*
X189750D01*
X189613Y62580D01*
X189498Y62502D01*
X188548Y61552D01*
X188470Y61437D01*
X188443Y61300D01*
Y61050D01*
X188300D01*
Y60757D01*
X186423D01*
X186397Y60797D01*
X186215Y60918D01*
X186000Y60961D01*
X185785Y60918D01*
X185603Y60797D01*
X185482Y60615D01*
X185439Y60400D01*
X185482Y60185D01*
X185603Y60003D01*
X185785Y59882D01*
X186000Y59839D01*
X186215Y59882D01*
X186397Y60003D01*
X186423Y60043D01*
X188300D01*
Y59750D01*
X189300D01*
Y61050D01*
X189300D01*
X189255Y61250D01*
X189898Y61893D01*
X191050D01*
Y61550D01*
X192150D01*
X192300Y61550D01*
X192450Y61550D01*
X192907D01*
X192950Y61544D01*
X200450D01*
X200620Y61567D01*
X200778Y61632D01*
X200914Y61736D01*
X202964Y63786D01*
X203068Y63922D01*
X203133Y64080D01*
X203156Y64250D01*
Y67461D01*
X203159Y67472D01*
X203159Y67473D01*
X203159Y67473D01*
X203160Y67498D01*
X203162Y67503D01*
X203168Y67517D01*
X203181Y67539D01*
X203201Y67569D01*
X203225Y67599D01*
X203319Y67698D01*
X203378Y67751D01*
X203395Y67772D01*
X203442Y67808D01*
X203642Y68070D01*
X203768Y68374D01*
X203811Y68700D01*
X203768Y69026D01*
X203642Y69330D01*
X203557Y69440D01*
X203656Y69640D01*
X211290D01*
X216466Y64465D01*
X216695Y64289D01*
X216963Y64178D01*
X217250Y64140D01*
X299250D01*
X299537Y64178D01*
X299805Y64289D01*
X300034Y64465D01*
X302225Y66655D01*
X302401Y66885D01*
X302512Y67153D01*
X302549Y67440D01*
Y73895D01*
X302708Y74050D01*
X302901Y74088D01*
X302947Y74108D01*
X302997Y74117D01*
X303179Y74193D01*
X303220Y74221D01*
X303267Y74240D01*
X303431Y74349D01*
X303466Y74385D01*
X303508Y74413D01*
X303647Y74552D01*
X303675Y74594D01*
X303711Y74629D01*
X303820Y74793D01*
X303839Y74839D01*
X303867Y74881D01*
X303942Y75063D01*
X303952Y75112D01*
X303971Y75159D01*
X304010Y75352D01*
Y75402D01*
X304141Y75455D01*
X304220Y75457D01*
X304323Y75323D01*
X304594Y75114D01*
X304911Y74983D01*
X305150Y74952D01*
Y76250D01*
Y77548D01*
X304911Y77517D01*
X304594Y77386D01*
X304323Y77177D01*
X304220Y77043D01*
X304020Y77111D01*
X304020Y79050D01*
X304020Y79279D01*
X304013Y79312D01*
X304015Y79346D01*
X303955Y79801D01*
X303945Y79833D01*
X303942Y79866D01*
X303824Y80309D01*
X303809Y80340D01*
X303802Y80372D01*
X303627Y80796D01*
X303608Y80824D01*
X303597Y80856D01*
X303368Y81254D01*
X303346Y81279D01*
X303331Y81309D01*
X303051Y81673D01*
X303026Y81695D01*
X303007Y81723D01*
X302683Y82048D01*
X302655Y82066D01*
X302633Y82091D01*
X302269Y82371D01*
X302239Y82386D01*
X302213Y82408D01*
X301816Y82637D01*
X301784Y82648D01*
X301756Y82667D01*
X301551Y82752D01*
X301578Y82957D01*
X301779Y82983D01*
X302096Y83114D01*
X302367Y83323D01*
X302576Y83594D01*
X302706Y83911D01*
X302738Y84150D01*
X301440D01*
Y84250D01*
X301340D01*
Y85548D01*
X301101Y85517D01*
X300784Y85386D01*
X300513Y85177D01*
X300304Y84906D01*
X300220Y84701D01*
X300020Y84741D01*
X300020Y87050D01*
X300020Y87279D01*
X300013Y87312D01*
X300015Y87346D01*
X299955Y87801D01*
X299945Y87833D01*
X299942Y87866D01*
X299824Y88309D01*
X299809Y88340D01*
X299802Y88372D01*
X299627Y88796D01*
X299608Y88824D01*
X299597Y88856D01*
X299368Y89254D01*
X299346Y89279D01*
X299331Y89309D01*
X299051Y89673D01*
X299026Y89695D01*
X299007Y89723D01*
X298683Y90048D01*
X298655Y90066D01*
X298633Y90091D01*
X298269Y90371D01*
X298239Y90386D01*
X298213Y90408D01*
X297816Y90637D01*
X297784Y90648D01*
X297756Y90667D01*
X297476Y90783D01*
X297472Y90920D01*
X297492Y90993D01*
X297786Y91114D01*
X298057Y91323D01*
X298266Y91594D01*
X298396Y91911D01*
X298428Y92150D01*
X297130D01*
X295832D01*
X295863Y91911D01*
X295994Y91594D01*
X296203Y91323D01*
X296291Y91255D01*
X296290Y91237D01*
X296252Y91106D01*
X296217Y91060D01*
X296022Y91060D01*
X295974Y91062D01*
X295868Y91083D01*
X295780Y91120D01*
X295701Y91173D01*
X295633Y91241D01*
X295580Y91320D01*
X295543Y91408D01*
X295522Y91514D01*
X295520Y91562D01*
Y93198D01*
X295510Y93247D01*
Y93297D01*
X295452Y93587D01*
X295433Y93633D01*
X295423Y93683D01*
X295310Y93956D01*
X295282Y93997D01*
X295263Y94044D01*
X295099Y94289D01*
X295063Y94325D01*
X295036Y94367D01*
X294827Y94576D01*
X294785Y94603D01*
X294749Y94639D01*
X294504Y94803D01*
X294457Y94822D01*
X294416Y94850D01*
X294143Y94963D01*
X294093Y94973D01*
X294047Y94992D01*
X293757Y95050D01*
X293707D01*
X293658Y95060D01*
X292362D01*
X292313Y95050D01*
X292263D01*
X291973Y94992D01*
X291927Y94973D01*
X291877Y94963D01*
X291604Y94850D01*
X291563Y94822D01*
X291516Y94803D01*
X291270Y94639D01*
X291235Y94603D01*
X291193Y94576D01*
X290984Y94367D01*
X290956Y94325D01*
X290921Y94289D01*
X290757Y94044D01*
X290738Y93997D01*
X290710Y93956D01*
X290597Y93683D01*
X290587Y93633D01*
X290568Y93587D01*
X290510Y93297D01*
Y93247D01*
X290500Y93198D01*
Y91402D01*
X290510Y91353D01*
Y91303D01*
X290568Y91013D01*
X290587Y90967D01*
X290597Y90917D01*
X290710Y90644D01*
X290738Y90603D01*
X290757Y90556D01*
X290921Y90311D01*
X290956Y90275D01*
X290984Y90233D01*
X291193Y90024D01*
X291235Y89996D01*
X291270Y89961D01*
X291516Y89797D01*
X291563Y89778D01*
X291604Y89750D01*
X291877Y89637D01*
X291927Y89627D01*
X291973Y89608D01*
X292263Y89550D01*
X292313D01*
X292362Y89540D01*
X293997Y89540D01*
X294045Y89538D01*
X294151Y89517D01*
X294240Y89480D01*
X294319Y89427D01*
X294387Y89359D01*
X294440Y89280D01*
X294477Y89192D01*
X294488Y89134D01*
X294488Y89134D01*
X294498Y89085D01*
X294500Y89037D01*
Y83550D01*
Y83402D01*
X294510Y83353D01*
Y83303D01*
X294568Y83013D01*
X294587Y82967D01*
X294597Y82917D01*
X294710Y82644D01*
X294738Y82603D01*
X294757Y82556D01*
X294921Y82311D01*
X294956Y82275D01*
X294984Y82233D01*
X295193Y82024D01*
X295235Y81996D01*
X295270Y81961D01*
X295516Y81797D01*
X295563Y81778D01*
X295604Y81750D01*
X295877Y81637D01*
X295927Y81627D01*
X295973Y81608D01*
X296263Y81550D01*
X296313D01*
X296362Y81540D01*
X297997Y81540D01*
X298045Y81538D01*
X298151Y81517D01*
X298240Y81480D01*
X298319Y81427D01*
X298387Y81359D01*
X298440Y81280D01*
X298477Y81192D01*
X298488Y81134D01*
X298488Y81134D01*
X298498Y81085D01*
X298500Y81037D01*
Y75550D01*
Y75451D01*
X298510Y75402D01*
Y75352D01*
X298548Y75159D01*
X298568Y75112D01*
X298577Y75063D01*
X298653Y74881D01*
X298681Y74839D01*
X298700Y74793D01*
X298809Y74629D01*
X298845Y74594D01*
X298873Y74552D01*
X299012Y74413D01*
X299054Y74385D01*
X299089Y74349D01*
X299253Y74240D01*
X299299Y74221D01*
X299341Y74193D01*
X299523Y74117D01*
X299572Y74108D01*
X299619Y74088D01*
X299812Y74050D01*
X299862D01*
X299911Y74040D01*
X300331D01*
Y67900D01*
X298790Y66359D01*
X264636D01*
X264589Y66463D01*
X264581Y66559D01*
X264785Y66715D01*
X267035Y68965D01*
X267211Y69195D01*
X267322Y69463D01*
X267359Y69750D01*
Y73895D01*
X267518Y74050D01*
X267711Y74088D01*
X267757Y74108D01*
X267807Y74117D01*
X267989Y74193D01*
X268030Y74221D01*
X268077Y74240D01*
X268241Y74349D01*
X268276Y74385D01*
X268318Y74413D01*
X268457Y74552D01*
X268485Y74594D01*
X268521Y74629D01*
X268630Y74793D01*
X268649Y74839D01*
X268677Y74881D01*
X268753Y75063D01*
X268762Y75112D01*
X268782Y75159D01*
X268820Y75352D01*
Y75402D01*
X268951Y75455D01*
X269030Y75457D01*
X269133Y75323D01*
X269404Y75114D01*
X269721Y74983D01*
X269960Y74952D01*
Y76250D01*
Y77548D01*
X269721Y77517D01*
X269404Y77386D01*
X269133Y77177D01*
X269030Y77043D01*
X268830Y77111D01*
X268830Y79180D01*
X268830Y79401D01*
X268823Y79434D01*
X268825Y79467D01*
X268768Y79905D01*
X268757Y79937D01*
X268755Y79971D01*
X268640Y80398D01*
X268625Y80428D01*
X268619Y80461D01*
X268450Y80869D01*
X268431Y80897D01*
X268420Y80929D01*
X268200Y81311D01*
X268177Y81336D01*
X268162Y81367D01*
X267894Y81717D01*
X267868Y81739D01*
X267850Y81767D01*
X267537Y82080D01*
X267509Y82098D01*
X267487Y82124D01*
X267137Y82393D01*
X267106Y82407D01*
X267081Y82430D01*
X266699Y82650D01*
X266667Y82661D01*
X266639Y82680D01*
X266395Y82781D01*
X266398Y82941D01*
X266414Y82990D01*
X266716Y83114D01*
X266987Y83323D01*
X267196Y83594D01*
X267327Y83911D01*
X267358Y84150D01*
X266060D01*
Y84250D01*
X265960D01*
Y85548D01*
X265721Y85517D01*
X265404Y85386D01*
X265133Y85177D01*
X265030Y85043D01*
X264830Y85111D01*
X264830Y87180D01*
X264830Y87401D01*
X264823Y87434D01*
X264825Y87467D01*
X264768Y87905D01*
X264757Y87937D01*
X264755Y87971D01*
X264640Y88398D01*
X264625Y88428D01*
X264619Y88461D01*
X264450Y88869D01*
X264431Y88897D01*
X264420Y88929D01*
X264200Y89311D01*
X264177Y89336D01*
X264162Y89367D01*
X263894Y89717D01*
X263868Y89739D01*
X263850Y89767D01*
X263537Y90080D01*
X263509Y90098D01*
X263487Y90124D01*
X263137Y90393D01*
X263106Y90407D01*
X263081Y90430D01*
X262699Y90650D01*
X262667Y90661D01*
X262639Y90680D01*
X262395Y90781D01*
X262398Y90941D01*
X262414Y90990D01*
X262716Y91114D01*
X262987Y91323D01*
X263196Y91594D01*
X263327Y91911D01*
X263358Y92150D01*
X262060D01*
X260762D01*
X260793Y91911D01*
X260924Y91594D01*
X261133Y91323D01*
X261221Y91255D01*
X261220Y91241D01*
X261185Y91110D01*
X261147Y91060D01*
X260950Y91060D01*
X260950Y91060D01*
X260950Y91060D01*
X260832Y91060D01*
X260784Y91062D01*
X260678Y91083D01*
X260590Y91120D01*
X260511Y91173D01*
X260443Y91241D01*
X260390Y91320D01*
X260353Y91408D01*
X260332Y91515D01*
X260330Y91562D01*
Y93198D01*
X260320Y93247D01*
Y93297D01*
X260262Y93587D01*
X260243Y93633D01*
X260233Y93683D01*
X260120Y93956D01*
X260092Y93997D01*
X260073Y94044D01*
X259909Y94289D01*
X259873Y94325D01*
X259846Y94367D01*
X259637Y94576D01*
X259595Y94603D01*
X259559Y94639D01*
X259314Y94803D01*
X259267Y94822D01*
X259226Y94850D01*
X258953Y94963D01*
X258903Y94973D01*
X258857Y94992D01*
X258567Y95050D01*
X258517D01*
X258468Y95060D01*
D02*
G37*
G36*
X125500Y72758D02*
X125350D01*
Y72250D01*
X125908D01*
Y72350D01*
X125877Y72506D01*
X125788Y72638D01*
X125656Y72727D01*
X125500Y72758D01*
D02*
G37*
G36*
X125150D02*
X125000D01*
X124844Y72727D01*
X124712Y72638D01*
X124623Y72506D01*
X124592Y72350D01*
Y72250D01*
X125150D01*
Y72758D01*
D02*
G37*
G36*
X121200Y71650D02*
X120450D01*
X119700D01*
Y71144D01*
X117515D01*
X117496Y71171D01*
X117315Y71293D01*
X117100Y71336D01*
X116885Y71293D01*
X116703Y71171D01*
X116582Y70990D01*
X116539Y70775D01*
X116582Y70560D01*
X116703Y70378D01*
X116885Y70257D01*
X117100Y70214D01*
X117315Y70257D01*
X117496Y70378D01*
X117531Y70431D01*
X119700D01*
Y70300D01*
X121200D01*
Y71250D01*
Y71650D01*
D02*
G37*
G36*
X66950Y71475D02*
X65955D01*
Y70975D01*
X66950D01*
Y71475D01*
D02*
G37*
G36*
X125908Y72050D02*
X125250D01*
X124592D01*
Y71950D01*
X124623Y71794D01*
X124712Y71662D01*
X124739Y71644D01*
X124757Y71429D01*
X124639Y71310D01*
X123050D01*
X123001Y71300D01*
X122300D01*
Y70300D01*
X123001D01*
X123050Y70290D01*
X124819D01*
X124844Y70273D01*
X125000Y70242D01*
X125500D01*
X125656Y70273D01*
X125756Y70340D01*
X126623D01*
X126785Y70232D01*
X127000Y70189D01*
X127215Y70232D01*
X127397Y70353D01*
X127518Y70535D01*
X127561Y70750D01*
X127518Y70965D01*
X127397Y71147D01*
X127215Y71268D01*
X127157Y71280D01*
X127095Y71321D01*
X126900Y71360D01*
X125756D01*
X125713Y71389D01*
X125705Y71416D01*
Y71584D01*
X125713Y71611D01*
X125788Y71662D01*
X125877Y71794D01*
X125908Y71950D01*
Y72050D01*
D02*
G37*
G36*
X157650Y69645D02*
Y68800D01*
X158495D01*
X158476Y68948D01*
X158380Y69179D01*
X158228Y69378D01*
X158029Y69530D01*
X157798Y69626D01*
X157650Y69645D01*
D02*
G37*
G36*
X157450D02*
X157302Y69626D01*
X157071Y69530D01*
X156872Y69378D01*
X156720Y69179D01*
X156624Y68948D01*
X156605Y68800D01*
X157450D01*
Y69645D01*
D02*
G37*
G36*
X158495Y68600D02*
X157650D01*
Y67755D01*
X157798Y67774D01*
X158029Y67870D01*
X158228Y68022D01*
X158380Y68221D01*
X158476Y68452D01*
X158495Y68600D01*
D02*
G37*
G36*
X157450D02*
X156605D01*
X156624Y68452D01*
X156720Y68221D01*
X156872Y68022D01*
X157071Y67870D01*
X157302Y67774D01*
X157450Y67755D01*
Y68600D01*
D02*
G37*
G36*
X69250Y67225D02*
X66750D01*
Y66175D01*
X67592D01*
Y65669D01*
X67212Y65288D01*
X67123Y65156D01*
X67092Y65000D01*
X67092Y65000D01*
Y64090D01*
X66950Y63950D01*
X65450D01*
Y63833D01*
X64150D01*
Y64000D01*
X62850D01*
Y63808D01*
X61900D01*
Y64000D01*
X60600D01*
Y62900D01*
X60600Y62750D01*
X60600Y62600D01*
Y61500D01*
X60944D01*
Y50231D01*
X60880Y50180D01*
X60744Y50134D01*
X60720Y50150D01*
X60720Y50150D01*
X60720Y50150D01*
X60628Y50188D01*
X60628Y50188D01*
X60628Y50188D01*
X60593Y50195D01*
X60550Y50204D01*
X60550Y50204D01*
X60550Y50204D01*
X59362Y50204D01*
X59260Y50224D01*
X59157Y50204D01*
X58750Y50204D01*
X58750Y50204D01*
X58700D01*
X58622Y50188D01*
X58530Y50150D01*
X58464Y50106D01*
X58464Y50106D01*
X58394Y50036D01*
X58350Y49970D01*
X58312Y49878D01*
X58312Y49878D01*
X58296Y49800D01*
X58296Y44131D01*
X58119Y43954D01*
X54500Y43954D01*
X54500Y43954D01*
X54430Y43954D01*
X54352Y43938D01*
X54222Y43885D01*
X54156Y43840D01*
X54156Y43840D01*
X54056Y43741D01*
X54012Y43675D01*
X53958Y43545D01*
X53943Y43467D01*
X53943Y43397D01*
X53943Y42353D01*
X53943Y42283D01*
X53958Y42205D01*
X54012Y42075D01*
X54056Y42009D01*
X54056Y42009D01*
X54156Y41910D01*
X54156Y41910D01*
X54189Y41888D01*
X54222Y41865D01*
X54222Y41865D01*
X54352Y41812D01*
X54430Y41796D01*
X54500Y41796D01*
X60373Y41796D01*
X60500Y41796D01*
X60523Y41801D01*
X60547Y41802D01*
X60617Y41818D01*
X60617Y41818D01*
X60617D01*
X60662Y41829D01*
X60678Y41836D01*
X60694Y41839D01*
X60720Y41850D01*
X60721Y41850D01*
X60721Y41850D01*
X60754Y41872D01*
X60786Y41894D01*
X60787Y41894D01*
X60787Y41895D01*
X60857Y41965D01*
X60857Y41966D01*
X60857Y41966D01*
X60879Y41999D01*
X60901Y42032D01*
X60901Y42032D01*
X60901Y42032D01*
X60939Y42125D01*
X60939Y42125D01*
X60939Y42125D01*
X60947Y42164D01*
X60954Y42203D01*
X60954Y42203D01*
X60954Y42203D01*
X60954Y42252D01*
X60954Y44331D01*
X61154Y44414D01*
X62534Y43034D01*
X62534Y43034D01*
X62633Y42967D01*
X62750Y42944D01*
X62750Y42944D01*
X69293D01*
X69353Y42853D01*
X69535Y42732D01*
X69750Y42689D01*
X69965Y42732D01*
X70147Y42853D01*
X70268Y43035D01*
X70311Y43250D01*
X70268Y43465D01*
X70147Y43647D01*
X69965Y43768D01*
X69750Y43811D01*
X69535Y43768D01*
X69353Y43647D01*
X69293Y43556D01*
X62877D01*
X61556Y44877D01*
Y47649D01*
X61581Y47683D01*
X61750Y47796D01*
X63392D01*
Y46700D01*
X63392Y46700D01*
X63423Y46544D01*
X63512Y46412D01*
X64112Y45812D01*
X64112Y45812D01*
X64244Y45723D01*
X64400Y45692D01*
X70658D01*
X70712Y45612D01*
X70844Y45523D01*
X71000Y45492D01*
X71500D01*
X71656Y45523D01*
X71788Y45612D01*
X71842Y45692D01*
X72408D01*
X72462Y45612D01*
X72594Y45523D01*
X72750Y45492D01*
X73250D01*
X73406Y45523D01*
X73538Y45612D01*
X73592Y45692D01*
X74158D01*
X74212Y45612D01*
X74328Y45534D01*
X74282Y45465D01*
X74239Y45250D01*
X74282Y45035D01*
X74403Y44853D01*
X74585Y44732D01*
X74800Y44689D01*
X75015Y44732D01*
X75197Y44853D01*
X75318Y45035D01*
X75361Y45250D01*
X75318Y45465D01*
X75241Y45580D01*
X75288Y45612D01*
X75377Y45744D01*
X75408Y45900D01*
Y46300D01*
X75377Y46456D01*
X75288Y46588D01*
X75213Y46639D01*
X75204Y46666D01*
Y46834D01*
X75213Y46861D01*
X75288Y46912D01*
X75377Y47044D01*
X75408Y47200D01*
Y47300D01*
X74750D01*
X74092D01*
Y47200D01*
X74123Y47044D01*
X74212Y46912D01*
X74287Y46861D01*
X74296Y46834D01*
Y46666D01*
X74287Y46639D01*
X74212Y46588D01*
X74158Y46508D01*
X73592D01*
X73538Y46588D01*
X73463Y46639D01*
X73454Y46666D01*
Y46834D01*
X73463Y46861D01*
X73538Y46912D01*
X73627Y47044D01*
X73658Y47200D01*
Y47300D01*
X73000D01*
X72342D01*
Y47200D01*
X72373Y47044D01*
X72462Y46912D01*
X72537Y46861D01*
X72546Y46834D01*
Y46666D01*
X72537Y46639D01*
X72462Y46588D01*
X72408Y46508D01*
X71842D01*
X71788Y46588D01*
X71713Y46639D01*
X71704Y46666D01*
Y46834D01*
X71713Y46861D01*
X71788Y46912D01*
X71877Y47044D01*
X71908Y47200D01*
Y47300D01*
X71250D01*
X70592D01*
Y47200D01*
X70623Y47044D01*
X70712Y46912D01*
X70787Y46861D01*
X70796Y46834D01*
Y46666D01*
X70787Y46639D01*
X70712Y46588D01*
X70658Y46508D01*
X64569D01*
X64208Y46869D01*
Y47812D01*
X64208Y47812D01*
X64208Y47812D01*
X64263Y47834D01*
X64263Y47834D01*
X64298Y47858D01*
X64329Y47879D01*
X64329Y47879D01*
X64348Y47897D01*
X64369Y47930D01*
X64391Y47962D01*
X64438Y48070D01*
X64438Y48071D01*
X64438Y48072D01*
X64443Y48097D01*
X64452Y48121D01*
X64451Y48135D01*
X64454Y48148D01*
X64454Y48149D01*
X64454Y48150D01*
X64454Y49750D01*
X64454Y49800D01*
X64438Y49878D01*
X64438Y49878D01*
X64400Y49970D01*
X64356Y50036D01*
X64286Y50106D01*
X64220Y50150D01*
X64192Y50162D01*
X64176Y50165D01*
X64161Y50172D01*
X64047Y50199D01*
X64023Y50199D01*
X64000Y50204D01*
X61750Y50204D01*
X61581Y50317D01*
X61556Y50351D01*
Y61500D01*
X61900D01*
Y62600D01*
X61900Y62700D01*
X61900Y62851D01*
X62041Y62992D01*
X62709D01*
X62850Y62851D01*
X62850Y62750D01*
X62850Y62600D01*
Y62200D01*
X63500D01*
X64150D01*
Y62876D01*
X64291Y63017D01*
X65450D01*
Y62600D01*
X66200D01*
Y62400D01*
X65450D01*
Y62000D01*
Y61050D01*
X66950D01*
Y61142D01*
X67250D01*
X67250Y61142D01*
X67406Y61173D01*
X67538Y61262D01*
X67788Y61512D01*
X67788Y61512D01*
X67850Y61604D01*
X68050Y61568D01*
Y61050D01*
X68290D01*
Y58302D01*
X68232Y58215D01*
X68189Y58000D01*
X68232Y57785D01*
X68353Y57603D01*
X68535Y57482D01*
X68750Y57439D01*
X68965Y57482D01*
X69147Y57603D01*
X69268Y57785D01*
X69311Y58000D01*
X69305Y58027D01*
X69310Y58050D01*
Y61050D01*
X69550D01*
Y62050D01*
X68849D01*
X68800Y62060D01*
X68751Y62050D01*
X68108D01*
X68050Y62050D01*
X67908Y62190D01*
Y62810D01*
X68050Y62950D01*
X69550D01*
Y63017D01*
X70709D01*
X70850Y62876D01*
X70850Y62750D01*
X70850Y62600D01*
Y62200D01*
X71500D01*
X72150D01*
Y62600D01*
X72150Y62750D01*
X72150Y62900D01*
Y64000D01*
X70850D01*
Y63833D01*
X69550D01*
Y63950D01*
X69183D01*
Y66175D01*
X69250D01*
Y67225D01*
D02*
G37*
G36*
X187036Y62970D02*
X186953Y62953D01*
X186869Y62942D01*
X186856Y62934D01*
X186841Y62931D01*
X186809Y62910D01*
X186801Y62910D01*
X186782Y62906D01*
X185000D01*
X184830Y62883D01*
X184750Y62850D01*
X184300Y62850D01*
X184150Y62850D01*
X183050D01*
Y62607D01*
X181750D01*
X181613Y62580D01*
X181498Y62502D01*
X180548Y61552D01*
X180470Y61437D01*
X180443Y61300D01*
Y61050D01*
X180300D01*
Y60757D01*
X178423D01*
X178397Y60797D01*
X178215Y60918D01*
X178000Y60961D01*
X177785Y60918D01*
X177603Y60797D01*
X177482Y60615D01*
X177439Y60400D01*
X177482Y60185D01*
X177603Y60003D01*
X177785Y59882D01*
X178000Y59839D01*
X178215Y59882D01*
X178397Y60003D01*
X178423Y60043D01*
X180300D01*
Y59750D01*
X181300D01*
Y61050D01*
X181300D01*
X181255Y61250D01*
X181898Y61893D01*
X183050D01*
Y61550D01*
X184150D01*
X184300Y61550D01*
X184450Y61550D01*
X184907D01*
X184950Y61544D01*
X184993Y61550D01*
X185550D01*
Y61594D01*
X186775D01*
X186791Y61591D01*
X186809Y61590D01*
X186841Y61569D01*
X186856Y61566D01*
X186869Y61558D01*
X186953Y61547D01*
X187036Y61530D01*
X187051Y61533D01*
X187066Y61531D01*
X187148Y61553D01*
X187231Y61569D01*
X187244Y61578D01*
X187258Y61581D01*
X187281Y61598D01*
X187420Y61617D01*
X187578Y61682D01*
X187714Y61786D01*
X187818Y61922D01*
X187883Y62080D01*
X187906Y62250D01*
X187883Y62420D01*
X187818Y62578D01*
X187714Y62714D01*
X187578Y62818D01*
X187420Y62883D01*
X187281Y62902D01*
X187258Y62919D01*
X187244Y62922D01*
X187231Y62931D01*
X187148Y62947D01*
X187066Y62969D01*
X187051Y62967D01*
X187036Y62970D01*
D02*
G37*
G36*
X72150Y62000D02*
X71600D01*
Y61500D01*
X72150D01*
Y62000D01*
D02*
G37*
G36*
X71400D02*
X70850D01*
Y61500D01*
X71400D01*
Y62000D01*
D02*
G37*
G36*
X64150D02*
X63600D01*
Y61500D01*
X64150D01*
Y62000D01*
D02*
G37*
G36*
X63400D02*
X62850D01*
Y61500D01*
X63400D01*
Y62000D01*
D02*
G37*
G36*
X55750Y63704D02*
X47750D01*
X47672Y63688D01*
X47606Y63644D01*
X47562Y63578D01*
X47546Y63500D01*
Y60500D01*
X47562Y60422D01*
X47606Y60356D01*
X47672Y60312D01*
X47750Y60296D01*
X55750D01*
X55828Y60312D01*
X55894Y60356D01*
X55939Y60422D01*
X55954Y60500D01*
Y63500D01*
X55939Y63578D01*
X55894Y63644D01*
X55828Y63688D01*
X55750Y63704D01*
D02*
G37*
G36*
X182250Y58650D02*
X181850D01*
Y58100D01*
X182250D01*
Y58650D01*
D02*
G37*
G36*
X181650D02*
X181250D01*
Y58100D01*
X181650D01*
Y58650D01*
D02*
G37*
G36*
X190250Y58650D02*
X189850D01*
Y58100D01*
X190250D01*
Y58650D01*
D02*
G37*
G36*
X189650D02*
X189250D01*
Y58100D01*
X189650D01*
Y58650D01*
D02*
G37*
G36*
X182250Y57900D02*
X181850D01*
Y57350D01*
X182250D01*
Y57900D01*
D02*
G37*
G36*
X181650D02*
X181250D01*
Y57350D01*
X181650D01*
Y57900D01*
D02*
G37*
G36*
X180350Y58650D02*
X179350D01*
Y57350D01*
X180350D01*
Y58650D01*
D02*
G37*
G36*
X190250Y57900D02*
X189850D01*
Y57350D01*
X190250D01*
Y57900D01*
D02*
G37*
G36*
X189650D02*
X189250D01*
Y57350D01*
X189650D01*
Y57900D01*
D02*
G37*
G36*
X188350Y58650D02*
X187350D01*
Y57350D01*
X188350D01*
Y58650D01*
D02*
G37*
G36*
X145100Y56945D02*
Y56100D01*
X145945D01*
X145926Y56248D01*
X145830Y56479D01*
X145678Y56678D01*
X145479Y56830D01*
X145248Y56926D01*
X145100Y56945D01*
D02*
G37*
G36*
X144900D02*
X144752Y56926D01*
X144521Y56830D01*
X144322Y56678D01*
X144170Y56479D01*
X144074Y56248D01*
X144055Y56100D01*
X144900D01*
Y56945D01*
D02*
G37*
G36*
X203000Y57261D02*
X202674Y57218D01*
X202370Y57092D01*
X202109Y56891D01*
X201908Y56630D01*
X201782Y56326D01*
X201739Y56000D01*
X201740Y55994D01*
X201735Y55830D01*
X201729Y55774D01*
X201721Y55722D01*
X201712Y55681D01*
X201702Y55652D01*
X201695Y55633D01*
X201690Y55624D01*
X201690Y55624D01*
X201673Y55604D01*
X201667Y55594D01*
X201478Y55406D01*
X193400D01*
X193357Y55400D01*
X192750Y55400D01*
X192600Y55400D01*
X191500D01*
Y55157D01*
X189700D01*
X189563Y55130D01*
X189448Y55052D01*
X188498Y54102D01*
X188420Y53987D01*
X188393Y53850D01*
Y53600D01*
X188250D01*
Y53307D01*
X186373D01*
X186346Y53347D01*
X186165Y53468D01*
X185950Y53511D01*
X185806Y53629D01*
Y54750D01*
X185783Y54920D01*
X185750Y55000D01*
Y55400D01*
X185193D01*
X185150Y55406D01*
X185107Y55400D01*
X184500Y55400D01*
X184350Y55400D01*
X183250D01*
Y55157D01*
X181950D01*
X181813Y55130D01*
X181698Y55052D01*
X180748Y54102D01*
X180670Y53987D01*
X180643Y53850D01*
Y53600D01*
X180500D01*
Y53307D01*
X178623D01*
X178596Y53347D01*
X178415Y53468D01*
X178200Y53511D01*
X177985Y53468D01*
X177803Y53347D01*
X177682Y53165D01*
X177639Y52950D01*
X177682Y52735D01*
X177803Y52553D01*
X177985Y52432D01*
X178200Y52389D01*
X178415Y52432D01*
X178596Y52553D01*
X178623Y52593D01*
X180500D01*
Y52300D01*
X181500D01*
Y53600D01*
X181500D01*
X181455Y53800D01*
X182098Y54443D01*
X183250D01*
Y54100D01*
X184450Y54100D01*
X184494Y53918D01*
Y38850D01*
X184517Y38680D01*
X184582Y38522D01*
X184686Y38386D01*
X187536Y35536D01*
X187672Y35432D01*
X187830Y35367D01*
X188000Y35344D01*
X200770D01*
X200782Y35341D01*
X200808Y35340D01*
X200808Y35340D01*
X200817Y35337D01*
X200836Y35329D01*
X200864Y35314D01*
X200899Y35292D01*
X200936Y35265D01*
X201047Y35170D01*
X201104Y35115D01*
X201108Y35109D01*
X201370Y34908D01*
X201674Y34782D01*
X202000Y34739D01*
X202326Y34782D01*
X202630Y34908D01*
X202891Y35109D01*
X203092Y35370D01*
X203218Y35674D01*
X203261Y36000D01*
X203218Y36326D01*
X203092Y36630D01*
X202891Y36892D01*
X202630Y37092D01*
X202326Y37218D01*
X202000Y37261D01*
X201674Y37218D01*
X201370Y37092D01*
X201108Y36892D01*
X201105Y36887D01*
X200985Y36774D01*
X200941Y36739D01*
X200899Y36708D01*
X200864Y36686D01*
X200836Y36671D01*
X200817Y36663D01*
X200808Y36660D01*
X200808Y36660D01*
X200782Y36659D01*
X200770Y36656D01*
X188272D01*
X185806Y39122D01*
Y52271D01*
X185950Y52389D01*
X186165Y52432D01*
X186346Y52553D01*
X186373Y52593D01*
X188250D01*
Y52300D01*
X189250D01*
Y53600D01*
X189250D01*
X189205Y53800D01*
X189848Y54443D01*
X191500D01*
Y54100D01*
X192600D01*
X192750Y54100D01*
X192900Y54100D01*
X193357D01*
X193400Y54094D01*
X201750D01*
X201920Y54117D01*
X202078Y54182D01*
X202214Y54286D01*
X202594Y54667D01*
X202604Y54673D01*
X202624Y54690D01*
X202624Y54690D01*
X202633Y54695D01*
X202652Y54702D01*
X202682Y54712D01*
X202722Y54721D01*
X202767Y54728D01*
X202913Y54739D01*
X202992Y54740D01*
X203000Y54739D01*
X203326Y54782D01*
X203630Y54908D01*
X203892Y55108D01*
X204092Y55370D01*
X204218Y55674D01*
X204261Y56000D01*
X204218Y56326D01*
X204092Y56630D01*
X203892Y56891D01*
X203630Y57092D01*
X203326Y57218D01*
X203000Y57261D01*
D02*
G37*
G36*
X222100Y55945D02*
Y55100D01*
X222945D01*
X222925Y55248D01*
X222830Y55479D01*
X222677Y55678D01*
X222479Y55830D01*
X222248Y55926D01*
X222100Y55945D01*
D02*
G37*
G36*
X221900D02*
X221752Y55926D01*
X221521Y55830D01*
X221322Y55678D01*
X221170Y55479D01*
X221074Y55248D01*
X221055Y55100D01*
X221900D01*
Y55945D01*
D02*
G37*
G36*
X144900Y55900D02*
X144055D01*
X144074Y55752D01*
X144170Y55521D01*
X144322Y55322D01*
X144521Y55170D01*
X144752Y55074D01*
X144900Y55055D01*
Y55900D01*
D02*
G37*
G36*
X145945D02*
X145100D01*
Y55055D01*
X145248Y55074D01*
X145479Y55170D01*
X145678Y55322D01*
X145830Y55521D01*
X145926Y55752D01*
X145945Y55900D01*
D02*
G37*
G36*
X221900Y54900D02*
X221055D01*
X221074Y54752D01*
X221170Y54521D01*
X221322Y54322D01*
X221521Y54170D01*
X221752Y54074D01*
X221900Y54055D01*
Y54900D01*
D02*
G37*
G36*
X222945D02*
X222100D01*
Y54055D01*
X222248Y54074D01*
X222479Y54170D01*
X222677Y54322D01*
X222830Y54521D01*
X222925Y54752D01*
X222945Y54900D01*
D02*
G37*
G36*
X280000Y56261D02*
X279674Y56218D01*
X279370Y56092D01*
X279108Y55892D01*
X278908Y55630D01*
X278782Y55326D01*
X278739Y55000D01*
X278782Y54674D01*
X278908Y54370D01*
X279108Y54109D01*
X279370Y53908D01*
X279674Y53782D01*
X280000Y53739D01*
X280326Y53782D01*
X280630Y53908D01*
X280891Y54109D01*
X281092Y54370D01*
X281218Y54674D01*
X281261Y55000D01*
X281218Y55326D01*
X281092Y55630D01*
X280891Y55892D01*
X280630Y56092D01*
X280326Y56218D01*
X280000Y56261D01*
D02*
G37*
G36*
X92000Y53761D02*
X91785Y53718D01*
X91603Y53597D01*
X91543Y53506D01*
X84100D01*
X84100Y53506D01*
X83983Y53483D01*
X83884Y53416D01*
X83884Y53416D01*
X78784Y48316D01*
X78717Y48217D01*
X78694Y48100D01*
X78694Y48100D01*
Y42561D01*
X78507Y42426D01*
X78404Y42458D01*
X78315Y42518D01*
X78100Y42561D01*
X77885Y42518D01*
X77703Y42397D01*
X77582Y42215D01*
X77539Y42000D01*
X77582Y41785D01*
X77703Y41603D01*
X77794Y41543D01*
Y41300D01*
X77794Y41300D01*
X77809Y41227D01*
X77785Y41018D01*
X77603Y40897D01*
X77482Y40715D01*
X77439Y40500D01*
X77482Y40285D01*
X77603Y40103D01*
Y39997D01*
X77482Y39815D01*
X77439Y39600D01*
X77482Y39385D01*
X77603Y39203D01*
Y39097D01*
X77482Y38915D01*
X77439Y38700D01*
X77482Y38485D01*
X77603Y38303D01*
X77785Y38182D01*
X78000Y38139D01*
X78215Y38182D01*
X78397Y38303D01*
X78518Y38485D01*
X78561Y38700D01*
X78518Y38915D01*
X78397Y39097D01*
Y39203D01*
X78518Y39385D01*
X78561Y39600D01*
X78518Y39815D01*
X78397Y39997D01*
Y40103D01*
X78518Y40285D01*
X78561Y40500D01*
X78545Y40577D01*
X78699Y40777D01*
X80283D01*
X80283Y40777D01*
X80400Y40800D01*
X80499Y40867D01*
X89915Y50282D01*
X91555D01*
X91615Y50192D01*
X91797Y50070D01*
X92012Y50027D01*
X92226Y50070D01*
X92408Y50192D01*
X92530Y50374D01*
X92573Y50588D01*
X92530Y50803D01*
X92408Y50985D01*
X92226Y51106D01*
X92012Y51149D01*
X91797Y51106D01*
X91615Y50985D01*
X91555Y50894D01*
X89788D01*
X89788Y50894D01*
X89671Y50871D01*
X89572Y50805D01*
X89572Y50805D01*
X80156Y41389D01*
X79435D01*
X79374Y41589D01*
X79397Y41603D01*
X79518Y41785D01*
X79561Y42000D01*
X79518Y42215D01*
X79397Y42397D01*
X79306Y42457D01*
Y47973D01*
X84227Y52894D01*
X91543D01*
X91603Y52803D01*
X91785Y52682D01*
X92000Y52639D01*
X92215Y52682D01*
X92397Y52803D01*
X92518Y52985D01*
X92561Y53200D01*
X92518Y53415D01*
X92397Y53597D01*
X92215Y53718D01*
X92000Y53761D01*
D02*
G37*
G36*
X81500Y52811D02*
X81285Y52768D01*
X81103Y52647D01*
X80982Y52465D01*
X80939Y52250D01*
X80982Y52035D01*
X81103Y51853D01*
X81285Y51732D01*
X81500Y51689D01*
X81715Y51732D01*
X81897Y51853D01*
X82018Y52035D01*
X82061Y52250D01*
X82018Y52465D01*
X81897Y52647D01*
X81715Y52768D01*
X81500Y52811D01*
D02*
G37*
G36*
X190200Y51200D02*
X189800D01*
Y50650D01*
X190200D01*
Y51200D01*
D02*
G37*
G36*
X189600D02*
X189200D01*
Y50650D01*
X189600D01*
Y51200D01*
D02*
G37*
G36*
X182450Y51200D02*
X182050D01*
Y50650D01*
X182450D01*
Y51200D01*
D02*
G37*
G36*
X181850D02*
X181450D01*
Y50650D01*
X181850D01*
Y51200D01*
D02*
G37*
G36*
X190200Y50450D02*
X189800D01*
Y49900D01*
X190200D01*
Y50450D01*
D02*
G37*
G36*
X189600D02*
X189200D01*
Y49900D01*
X189600D01*
Y50450D01*
D02*
G37*
G36*
X188300Y51200D02*
X187300D01*
Y49900D01*
X188300D01*
Y51200D01*
D02*
G37*
G36*
X182450Y50450D02*
X182050D01*
Y49900D01*
X182450D01*
Y50450D01*
D02*
G37*
G36*
X181850D02*
X181450D01*
Y49900D01*
X181850D01*
Y50450D01*
D02*
G37*
G36*
X180550Y51200D02*
X179550D01*
Y49900D01*
X180550D01*
Y51200D01*
D02*
G37*
G36*
X75000Y48008D02*
X74850D01*
Y47500D01*
X75408D01*
Y47600D01*
X75377Y47756D01*
X75288Y47888D01*
X75156Y47977D01*
X75000Y48008D01*
D02*
G37*
G36*
X73250D02*
X73100D01*
Y47500D01*
X73658D01*
Y47600D01*
X73627Y47756D01*
X73538Y47888D01*
X73406Y47977D01*
X73250Y48008D01*
D02*
G37*
G36*
X71500D02*
X71350D01*
Y47500D01*
X71908D01*
Y47600D01*
X71877Y47756D01*
X71788Y47888D01*
X71656Y47977D01*
X71500Y48008D01*
D02*
G37*
G36*
X74650D02*
X74500D01*
X74344Y47977D01*
X74212Y47888D01*
X74123Y47756D01*
X74092Y47600D01*
Y47500D01*
X74650D01*
Y48008D01*
D02*
G37*
G36*
X72900D02*
X72750D01*
X72594Y47977D01*
X72462Y47888D01*
X72373Y47756D01*
X72342Y47600D01*
Y47500D01*
X72900D01*
Y48008D01*
D02*
G37*
G36*
X71150D02*
X71000D01*
X70844Y47977D01*
X70712Y47888D01*
X70623Y47756D01*
X70592Y47600D01*
Y47500D01*
X71150D01*
Y48008D01*
D02*
G37*
G36*
X84600Y48261D02*
X84385Y48218D01*
X84203Y48097D01*
X84082Y47915D01*
X84039Y47700D01*
X84082Y47485D01*
X84203Y47303D01*
X84385Y47182D01*
X84600Y47139D01*
X84815Y47182D01*
X84997Y47303D01*
X85118Y47485D01*
X85161Y47700D01*
X85118Y47915D01*
X84997Y48097D01*
X84815Y48218D01*
X84600Y48261D01*
D02*
G37*
G36*
X81500Y46561D02*
X81285Y46518D01*
X81103Y46397D01*
X80982Y46215D01*
X80939Y46000D01*
X80982Y45785D01*
X81103Y45603D01*
X81285Y45482D01*
X81500Y45439D01*
X81715Y45482D01*
X81897Y45603D01*
X82018Y45785D01*
X82061Y46000D01*
X82018Y46215D01*
X81897Y46397D01*
X81715Y46518D01*
X81500Y46561D01*
D02*
G37*
G36*
X145100Y45945D02*
Y45100D01*
X145945D01*
X145926Y45248D01*
X145830Y45479D01*
X145678Y45678D01*
X145479Y45830D01*
X145248Y45926D01*
X145100Y45945D01*
D02*
G37*
G36*
X144900D02*
X144752Y45926D01*
X144521Y45830D01*
X144322Y45678D01*
X144170Y45479D01*
X144074Y45248D01*
X144055Y45100D01*
X144900D01*
Y45945D01*
D02*
G37*
G36*
X280000Y45261D02*
X279674Y45218D01*
X279370Y45092D01*
X279108Y44891D01*
X279105Y44887D01*
X278985Y44774D01*
X278941Y44739D01*
X278899Y44708D01*
X278864Y44686D01*
X278836Y44671D01*
X278817Y44663D01*
X278808Y44660D01*
X278807Y44660D01*
X278782Y44659D01*
X278770Y44656D01*
X270150D01*
X270107Y44650D01*
X269500Y44650D01*
X269350Y44650D01*
X268250D01*
Y44407D01*
X266950D01*
X266813Y44380D01*
X266698Y44302D01*
X265748Y43352D01*
X265670Y43237D01*
X265643Y43100D01*
Y42850D01*
X265500D01*
Y42557D01*
X263623D01*
X263596Y42597D01*
X263414Y42718D01*
X263200Y42761D01*
X262985Y42718D01*
X262803Y42597D01*
X262682Y42415D01*
X262639Y42200D01*
X262682Y41985D01*
X262803Y41803D01*
X262985Y41682D01*
X263200Y41639D01*
X263414Y41682D01*
X263596Y41803D01*
X263623Y41843D01*
X265500D01*
Y41550D01*
X266500D01*
Y42850D01*
X266500D01*
X266455Y43050D01*
X267098Y43693D01*
X268250D01*
Y43350D01*
X269350D01*
X269500Y43350D01*
X269650Y43350D01*
X270107D01*
X270150Y43344D01*
X270150Y43344D01*
X278770D01*
X278782Y43341D01*
X278807Y43340D01*
X278808Y43340D01*
X278817Y43337D01*
X278836Y43329D01*
X278864Y43314D01*
X278899Y43292D01*
X278936Y43265D01*
X279047Y43170D01*
X279104Y43115D01*
X279108Y43108D01*
X279370Y42908D01*
X279674Y42782D01*
X280000Y42739D01*
X280326Y42782D01*
X280630Y42908D01*
X280891Y43108D01*
X281092Y43370D01*
X281218Y43674D01*
X281261Y44000D01*
X281218Y44326D01*
X281092Y44630D01*
X280891Y44891D01*
X280630Y45092D01*
X280326Y45218D01*
X280000Y45261D01*
D02*
G37*
G36*
X222100Y44945D02*
Y44100D01*
X222945D01*
X222925Y44248D01*
X222830Y44479D01*
X222677Y44678D01*
X222479Y44830D01*
X222248Y44926D01*
X222100Y44945D01*
D02*
G37*
G36*
X221900D02*
X221752Y44926D01*
X221521Y44830D01*
X221322Y44678D01*
X221170Y44479D01*
X221074Y44248D01*
X221055Y44100D01*
X221900D01*
Y44945D01*
D02*
G37*
G36*
X144900Y44900D02*
X144055D01*
X144074Y44752D01*
X144170Y44521D01*
X144322Y44322D01*
X144521Y44170D01*
X144752Y44074D01*
X144900Y44055D01*
Y44900D01*
D02*
G37*
G36*
X145945D02*
X145100D01*
Y44055D01*
X145248Y44074D01*
X145479Y44170D01*
X145678Y44322D01*
X145830Y44521D01*
X145926Y44752D01*
X145945Y44900D01*
D02*
G37*
G36*
X203000Y46261D02*
X202674Y46218D01*
X202370Y46092D01*
X202109Y45892D01*
X201908Y45630D01*
X201782Y45326D01*
X201739Y45000D01*
X201782Y44674D01*
X201908Y44370D01*
X202109Y44109D01*
X202370Y43908D01*
X202674Y43782D01*
X203000Y43739D01*
X203326Y43782D01*
X203630Y43908D01*
X203892Y44109D01*
X204092Y44370D01*
X204218Y44674D01*
X204261Y45000D01*
X204218Y45326D01*
X204092Y45630D01*
X203892Y45892D01*
X203630Y46092D01*
X203326Y46218D01*
X203000Y46261D01*
D02*
G37*
G36*
X221900Y43900D02*
X221055D01*
X221074Y43752D01*
X221170Y43521D01*
X221322Y43322D01*
X221521Y43170D01*
X221752Y43074D01*
X221900Y43055D01*
Y43900D01*
D02*
G37*
G36*
X222945D02*
X222100D01*
Y43055D01*
X222248Y43074D01*
X222479Y43170D01*
X222677Y43322D01*
X222830Y43521D01*
X222925Y43752D01*
X222945Y43900D01*
D02*
G37*
G36*
X91664Y42551D02*
X91450Y42509D01*
X91268Y42387D01*
X91146Y42205D01*
X91104Y41991D01*
X91146Y41776D01*
X91268Y41594D01*
X91450Y41473D01*
X91664Y41430D01*
X91879Y41473D01*
X92061Y41594D01*
X92182Y41776D01*
X92225Y41991D01*
X92182Y42205D01*
X92061Y42387D01*
X91879Y42509D01*
X91664Y42551D01*
D02*
G37*
G36*
X69700Y41061D02*
X69485Y41018D01*
X69303Y40897D01*
X69182Y40715D01*
X69139Y40500D01*
X69182Y40285D01*
X69303Y40103D01*
X69485Y39982D01*
X69700Y39939D01*
X69915Y39982D01*
X70097Y40103D01*
X70218Y40285D01*
X70261Y40500D01*
X70218Y40715D01*
X70097Y40897D01*
X69915Y41018D01*
X69700Y41061D01*
D02*
G37*
G36*
X267450Y40450D02*
X267050D01*
Y39900D01*
X267450D01*
Y40450D01*
D02*
G37*
G36*
X266850D02*
X266450D01*
Y39900D01*
X266850D01*
Y40450D01*
D02*
G37*
G36*
X267450Y39700D02*
X267050D01*
Y39150D01*
X267450D01*
Y39700D01*
D02*
G37*
G36*
X266850D02*
X266450D01*
Y39150D01*
X266850D01*
Y39700D01*
D02*
G37*
G36*
X265550Y40450D02*
X264550D01*
Y39150D01*
X265550D01*
Y40450D01*
D02*
G37*
G36*
X139000Y39009D02*
X138739Y38974D01*
X138496Y38874D01*
X138287Y38713D01*
X138127Y38504D01*
X138026Y38261D01*
X137991Y38000D01*
X138026Y37739D01*
X138127Y37496D01*
X138287Y37287D01*
X138496Y37127D01*
X138739Y37026D01*
X139000Y36991D01*
X139261Y37026D01*
X139504Y37127D01*
X139713Y37287D01*
X139874Y37496D01*
X139974Y37739D01*
X140009Y38000D01*
X139974Y38261D01*
X139874Y38504D01*
X139713Y38713D01*
X139504Y38874D01*
X139261Y38974D01*
X139000Y39009D01*
D02*
G37*
G36*
X134000D02*
X133739Y38974D01*
X133496Y38874D01*
X133287Y38713D01*
X133126Y38504D01*
X133026Y38261D01*
X132991Y38000D01*
X133026Y37739D01*
X133126Y37496D01*
X133287Y37287D01*
X133496Y37127D01*
X133739Y37026D01*
X134000Y36991D01*
X134261Y37026D01*
X134504Y37127D01*
X134713Y37287D01*
X134873Y37496D01*
X134974Y37739D01*
X135009Y38000D01*
X134974Y38261D01*
X134873Y38504D01*
X134713Y38713D01*
X134504Y38874D01*
X134261Y38974D01*
X134000Y39009D01*
D02*
G37*
G36*
X116000Y38408D02*
X115752Y38376D01*
X115521Y38280D01*
X115322Y38128D01*
X115170Y37929D01*
X115074Y37698D01*
X115042Y37450D01*
X115074Y37202D01*
X115170Y36971D01*
X115322Y36772D01*
X115521Y36620D01*
X115752Y36524D01*
X116000Y36492D01*
X116248Y36524D01*
X116479Y36620D01*
X116678Y36772D01*
X116830Y36971D01*
X116926Y37202D01*
X116958Y37450D01*
X116926Y37698D01*
X116830Y37929D01*
X116678Y38128D01*
X116479Y38280D01*
X116248Y38376D01*
X116000Y38408D01*
D02*
G37*
G36*
X113500D02*
X113252Y38376D01*
X113021Y38280D01*
X112822Y38128D01*
X112670Y37929D01*
X112574Y37698D01*
X112542Y37450D01*
X112574Y37202D01*
X112670Y36971D01*
X112822Y36772D01*
X113021Y36620D01*
X113252Y36524D01*
X113500Y36492D01*
X113748Y36524D01*
X113979Y36620D01*
X114178Y36772D01*
X114330Y36971D01*
X114426Y37202D01*
X114458Y37450D01*
X114426Y37698D01*
X114330Y37929D01*
X114178Y38128D01*
X113979Y38280D01*
X113748Y38376D01*
X113500Y38408D01*
D02*
G37*
G36*
X157100Y36945D02*
Y36100D01*
X157945D01*
X157926Y36248D01*
X157830Y36479D01*
X157678Y36678D01*
X157479Y36830D01*
X157248Y36926D01*
X157100Y36945D01*
D02*
G37*
G36*
X156900D02*
X156752Y36926D01*
X156521Y36830D01*
X156322Y36678D01*
X156170Y36479D01*
X156074Y36248D01*
X156055Y36100D01*
X156900D01*
Y36945D01*
D02*
G37*
G36*
X51520Y36226D02*
X51337Y36202D01*
X51167Y36131D01*
X51021Y36019D01*
X51011Y36007D01*
X50759D01*
X50749Y36019D01*
X50603Y36131D01*
X50433Y36202D01*
X50250Y36226D01*
X50067Y36202D01*
X49897Y36131D01*
X49751Y36019D01*
X49741Y36007D01*
X49489D01*
X49479Y36019D01*
X49333Y36131D01*
X49163Y36202D01*
X48980Y36226D01*
X48797Y36202D01*
X48627Y36131D01*
X48481Y36019D01*
X48369Y35873D01*
X48298Y35703D01*
X48274Y35520D01*
X48298Y35337D01*
X48369Y35167D01*
X48481Y35021D01*
X48493Y35011D01*
Y34759D01*
X48481Y34749D01*
X48369Y34603D01*
X48298Y34433D01*
X48287Y34350D01*
X48980D01*
Y34250D01*
X49080D01*
Y33557D01*
X49163Y33568D01*
X49333Y33639D01*
X49479Y33751D01*
X49489Y33763D01*
X49741D01*
X49751Y33751D01*
X49897Y33639D01*
X50067Y33568D01*
X50250Y33544D01*
X50433Y33568D01*
X50603Y33639D01*
X50749Y33751D01*
X50759Y33763D01*
X51011D01*
X51021Y33751D01*
X51167Y33639D01*
X51337Y33568D01*
X51520Y33544D01*
X51703Y33568D01*
X51873Y33639D01*
X52019Y33751D01*
X52131Y33897D01*
X52202Y34067D01*
X52226Y34250D01*
X52202Y34433D01*
X52131Y34603D01*
X52019Y34749D01*
X52007Y34759D01*
Y35011D01*
X52019Y35021D01*
X52131Y35167D01*
X52202Y35337D01*
X52226Y35520D01*
X52202Y35703D01*
X52131Y35873D01*
X52019Y36019D01*
X51873Y36131D01*
X51703Y36202D01*
X51520Y36226D01*
D02*
G37*
G36*
X279500Y36261D02*
X279174Y36218D01*
X278870Y36092D01*
X278608Y35891D01*
X278605Y35886D01*
X278485Y35774D01*
X278441Y35738D01*
X278399Y35708D01*
X278364Y35686D01*
X278336Y35671D01*
X278317Y35663D01*
X278308Y35660D01*
X278307Y35660D01*
X278282Y35659D01*
X278270Y35656D01*
X270151D01*
X270150Y35656D01*
X270107Y35650D01*
X269500Y35650D01*
X269350Y35650D01*
X268250D01*
Y35407D01*
X266950D01*
X266813Y35380D01*
X266698Y35302D01*
X265748Y34352D01*
X265670Y34237D01*
X265643Y34100D01*
Y33850D01*
X265500D01*
Y33557D01*
X263623D01*
X263596Y33597D01*
X263415Y33718D01*
X263200Y33761D01*
X262985Y33718D01*
X262803Y33597D01*
X262682Y33415D01*
X262639Y33200D01*
X262682Y32985D01*
X262803Y32803D01*
X262985Y32682D01*
X263200Y32639D01*
X263415Y32682D01*
X263596Y32803D01*
X263623Y32843D01*
X265500D01*
Y32550D01*
X266500D01*
Y33850D01*
X266500D01*
X266455Y34050D01*
X267098Y34693D01*
X268250D01*
Y34350D01*
X269350D01*
X269500Y34350D01*
X269650Y34350D01*
X270107D01*
X270150Y34344D01*
X278270D01*
X278282Y34341D01*
X278307Y34340D01*
X278308Y34340D01*
X278317Y34337D01*
X278336Y34329D01*
X278364Y34314D01*
X278399Y34292D01*
X278436Y34265D01*
X278547Y34170D01*
X278604Y34115D01*
X278608Y34108D01*
X278870Y33908D01*
X279174Y33782D01*
X279500Y33739D01*
X279826Y33782D01*
X280130Y33908D01*
X280391Y34108D01*
X280592Y34370D01*
X280718Y34674D01*
X280761Y35000D01*
X280718Y35326D01*
X280592Y35630D01*
X280391Y35891D01*
X280130Y36092D01*
X279826Y36218D01*
X279500Y36261D01*
D02*
G37*
G36*
X234600Y35945D02*
Y35100D01*
X235445D01*
X235425Y35248D01*
X235330Y35479D01*
X235177Y35678D01*
X234979Y35830D01*
X234748Y35926D01*
X234600Y35945D01*
D02*
G37*
G36*
X234400D02*
X234252Y35926D01*
X234021Y35830D01*
X233822Y35678D01*
X233670Y35479D01*
X233574Y35248D01*
X233555Y35100D01*
X234400D01*
Y35945D01*
D02*
G37*
G36*
X157945Y35900D02*
X157100D01*
Y35055D01*
X157248Y35074D01*
X157479Y35170D01*
X157678Y35322D01*
X157830Y35521D01*
X157926Y35752D01*
X157945Y35900D01*
D02*
G37*
G36*
X156900D02*
X156055D01*
X156074Y35752D01*
X156170Y35521D01*
X156322Y35322D01*
X156521Y35170D01*
X156752Y35074D01*
X156900Y35055D01*
Y35900D01*
D02*
G37*
G36*
X181000Y36958D02*
X180752Y36926D01*
X180521Y36830D01*
X180322Y36678D01*
X180170Y36479D01*
X180074Y36248D01*
X180042Y36000D01*
X180074Y35752D01*
X180170Y35521D01*
X180322Y35322D01*
X180521Y35170D01*
X180752Y35074D01*
X181000Y35042D01*
X181248Y35074D01*
X181479Y35170D01*
X181678Y35322D01*
X181830Y35521D01*
X181926Y35752D01*
X181958Y36000D01*
X181926Y36248D01*
X181830Y36479D01*
X181678Y36678D01*
X181479Y36830D01*
X181248Y36926D01*
X181000Y36958D01*
D02*
G37*
G36*
X178000Y36958D02*
X177752Y36926D01*
X177521Y36830D01*
X177322Y36678D01*
X177170Y36479D01*
X177074Y36248D01*
X177042Y36000D01*
X177074Y35752D01*
X177170Y35521D01*
X177322Y35322D01*
X177521Y35170D01*
X177752Y35074D01*
X178000Y35042D01*
X178248Y35074D01*
X178479Y35170D01*
X178678Y35322D01*
X178830Y35521D01*
X178926Y35752D01*
X178958Y36000D01*
X178926Y36248D01*
X178830Y36479D01*
X178678Y36678D01*
X178479Y36830D01*
X178248Y36926D01*
X178000Y36958D01*
D02*
G37*
G36*
X88700Y38620D02*
X88485Y38577D01*
X88303Y38456D01*
X88182Y38274D01*
X88139Y38059D01*
X88182Y37845D01*
X88303Y37663D01*
X88394Y37602D01*
Y36800D01*
X88394Y36800D01*
X88417Y36683D01*
X88484Y36584D01*
X90184Y34884D01*
X90184Y34884D01*
X90283Y34817D01*
X90400Y34794D01*
X91643D01*
X91703Y34703D01*
X91885Y34582D01*
X92100Y34539D01*
X92315Y34582D01*
X92497Y34703D01*
X92618Y34885D01*
X92661Y35100D01*
X92618Y35315D01*
X92497Y35497D01*
X92315Y35618D01*
X92100Y35661D01*
X91885Y35618D01*
X91703Y35497D01*
X91647Y35411D01*
X91457Y35418D01*
X91397Y35603D01*
X91518Y35785D01*
X91561Y36000D01*
X91518Y36215D01*
X91397Y36397D01*
X91215Y36518D01*
X91000Y36561D01*
X90785Y36518D01*
X90603Y36397D01*
X90482Y36215D01*
X90439Y36000D01*
X90482Y35785D01*
X90586Y35629D01*
X90431Y35502D01*
X89006Y36927D01*
Y37602D01*
X89097Y37663D01*
X89218Y37845D01*
X89261Y38059D01*
X89218Y38274D01*
X89097Y38456D01*
X88915Y38577D01*
X88700Y38620D01*
D02*
G37*
G36*
X116100Y35195D02*
Y34350D01*
X116945D01*
X116926Y34498D01*
X116830Y34729D01*
X116678Y34928D01*
X116479Y35080D01*
X116248Y35176D01*
X116100Y35195D01*
D02*
G37*
G36*
X115900D02*
X115752Y35176D01*
X115521Y35080D01*
X115322Y34928D01*
X115170Y34729D01*
X115074Y34498D01*
X115055Y34350D01*
X115900D01*
Y35195D01*
D02*
G37*
G36*
X234400Y34900D02*
X233555D01*
X233574Y34752D01*
X233670Y34521D01*
X233822Y34322D01*
X234021Y34170D01*
X234252Y34074D01*
X234400Y34055D01*
Y34900D01*
D02*
G37*
G36*
X235445D02*
X234600D01*
Y34055D01*
X234748Y34074D01*
X234979Y34170D01*
X235177Y34322D01*
X235330Y34521D01*
X235425Y34752D01*
X235445Y34900D01*
D02*
G37*
G36*
X255500Y35958D02*
X255252Y35926D01*
X255021Y35830D01*
X254822Y35678D01*
X254670Y35479D01*
X254574Y35248D01*
X254542Y35000D01*
X254574Y34752D01*
X254670Y34521D01*
X254822Y34322D01*
X255021Y34170D01*
X255252Y34074D01*
X255500Y34042D01*
X255748Y34074D01*
X255979Y34170D01*
X256177Y34322D01*
X256330Y34521D01*
X256425Y34752D01*
X256458Y35000D01*
X256425Y35248D01*
X256330Y35479D01*
X256177Y35678D01*
X255979Y35830D01*
X255748Y35926D01*
X255500Y35958D01*
D02*
G37*
G36*
X258500Y35958D02*
X258252Y35925D01*
X258021Y35830D01*
X257822Y35678D01*
X257670Y35479D01*
X257574Y35248D01*
X257542Y35000D01*
X257574Y34752D01*
X257670Y34521D01*
X257822Y34322D01*
X258021Y34170D01*
X258252Y34074D01*
X258500Y34042D01*
X258748Y34074D01*
X258979Y34170D01*
X259177Y34322D01*
X259330Y34521D01*
X259425Y34752D01*
X259458Y35000D01*
X259425Y35248D01*
X259330Y35479D01*
X259177Y35678D01*
X258979Y35830D01*
X258748Y35925D01*
X258500Y35958D01*
D02*
G37*
G36*
X48880Y34150D02*
X48287D01*
X48298Y34067D01*
X48369Y33897D01*
X48481Y33751D01*
X48627Y33639D01*
X48797Y33568D01*
X48880Y33557D01*
Y34150D01*
D02*
G37*
G36*
X116945D02*
X116100D01*
Y33305D01*
X116248Y33324D01*
X116479Y33420D01*
X116678Y33572D01*
X116830Y33771D01*
X116926Y34002D01*
X116945Y34150D01*
D02*
G37*
G36*
X115900D02*
X115055D01*
X115074Y34002D01*
X115170Y33771D01*
X115322Y33572D01*
X115521Y33420D01*
X115752Y33324D01*
X115900Y33305D01*
Y34150D01*
D02*
G37*
G36*
X113500Y35208D02*
X113252Y35176D01*
X113021Y35080D01*
X112822Y34928D01*
X112670Y34729D01*
X112574Y34498D01*
X112542Y34250D01*
X112574Y34002D01*
X112670Y33771D01*
X112822Y33572D01*
X113021Y33420D01*
X113252Y33324D01*
X113500Y33292D01*
X113748Y33324D01*
X113979Y33420D01*
X114178Y33572D01*
X114330Y33771D01*
X114426Y34002D01*
X114458Y34250D01*
X114426Y34498D01*
X114330Y34729D01*
X114178Y34928D01*
X113979Y35080D01*
X113748Y35176D01*
X113500Y35208D01*
D02*
G37*
G36*
X120770Y36709D02*
X120388Y36672D01*
X120020Y36560D01*
X119681Y36379D01*
X119384Y36136D01*
X119141Y35839D01*
X118960Y35500D01*
X118848Y35132D01*
X118811Y34750D01*
X118848Y34368D01*
X118960Y34000D01*
X119141Y33661D01*
X119384Y33364D01*
X119681Y33121D01*
X120020Y32940D01*
X120388Y32828D01*
X120770Y32791D01*
X121152Y32828D01*
X121520Y32940D01*
X121859Y33121D01*
X122156Y33364D01*
X122399Y33661D01*
X122580Y34000D01*
X122692Y34368D01*
X122729Y34750D01*
X122692Y35132D01*
X122580Y35500D01*
X122399Y35839D01*
X122156Y36136D01*
X121859Y36379D01*
X121520Y36560D01*
X121152Y36672D01*
X120770Y36709D01*
D02*
G37*
G36*
X108730D02*
X108348Y36672D01*
X107980Y36560D01*
X107641Y36379D01*
X107344Y36136D01*
X107101Y35839D01*
X106920Y35500D01*
X106808Y35132D01*
X106771Y34750D01*
X106808Y34368D01*
X106920Y34000D01*
X107101Y33661D01*
X107344Y33364D01*
X107641Y33121D01*
X107980Y32940D01*
X108348Y32828D01*
X108730Y32791D01*
X109112Y32828D01*
X109480Y32940D01*
X109819Y33121D01*
X110116Y33364D01*
X110359Y33661D01*
X110540Y34000D01*
X110652Y34368D01*
X110689Y34750D01*
X110652Y35132D01*
X110540Y35500D01*
X110359Y35839D01*
X110116Y36136D01*
X109819Y36379D01*
X109480Y36560D01*
X109112Y36672D01*
X108730Y36709D01*
D02*
G37*
G36*
X79600Y33344D02*
Y32600D01*
X80344D01*
X80328Y32722D01*
X80242Y32929D01*
X80106Y33106D01*
X79929Y33242D01*
X79722Y33328D01*
X79600Y33344D01*
D02*
G37*
G36*
X77600D02*
Y32600D01*
X78344D01*
X78328Y32722D01*
X78243Y32929D01*
X78106Y33106D01*
X77929Y33242D01*
X77722Y33328D01*
X77600Y33344D01*
D02*
G37*
G36*
X79400D02*
X79278Y33328D01*
X79071Y33242D01*
X78894Y33106D01*
X78758Y32929D01*
X78672Y32722D01*
X78656Y32600D01*
X79400D01*
Y33344D01*
D02*
G37*
G36*
X77400D02*
X77278Y33328D01*
X77071Y33242D01*
X76894Y33106D01*
X76758Y32929D01*
X76672Y32722D01*
X76656Y32600D01*
X77400D01*
Y33344D01*
D02*
G37*
G36*
X80344Y32400D02*
X79600D01*
Y31656D01*
X79722Y31672D01*
X79929Y31758D01*
X80106Y31894D01*
X80242Y32071D01*
X80328Y32278D01*
X80344Y32400D01*
D02*
G37*
G36*
X78344D02*
X77600D01*
Y31656D01*
X77722Y31672D01*
X77929Y31758D01*
X78106Y31894D01*
X78243Y32071D01*
X78328Y32278D01*
X78344Y32400D01*
D02*
G37*
G36*
X79400D02*
X78656D01*
X78672Y32278D01*
X78758Y32071D01*
X78894Y31894D01*
X79071Y31758D01*
X79278Y31672D01*
X79400Y31656D01*
Y32400D01*
D02*
G37*
G36*
X77400D02*
X76656D01*
X76672Y32278D01*
X76758Y32071D01*
X76894Y31894D01*
X77071Y31758D01*
X77278Y31672D01*
X77400Y31656D01*
Y32400D01*
D02*
G37*
G36*
X75500Y33357D02*
X75278Y33328D01*
X75071Y33242D01*
X74894Y33106D01*
X74758Y32929D01*
X74672Y32722D01*
X74643Y32500D01*
X74672Y32278D01*
X74758Y32071D01*
X74894Y31894D01*
X75071Y31758D01*
X75278Y31672D01*
X75500Y31643D01*
X75722Y31672D01*
X75929Y31758D01*
X76106Y31894D01*
X76243Y32071D01*
X76328Y32278D01*
X76357Y32500D01*
X76328Y32722D01*
X76243Y32929D01*
X76106Y33106D01*
X75929Y33242D01*
X75722Y33328D01*
X75500Y33357D01*
D02*
G37*
G36*
X73500D02*
X73278Y33328D01*
X73071Y33242D01*
X72894Y33106D01*
X72758Y32929D01*
X72672Y32722D01*
X72643Y32500D01*
X72672Y32278D01*
X72758Y32071D01*
X72894Y31894D01*
X73071Y31758D01*
X73278Y31672D01*
X73500Y31643D01*
X73722Y31672D01*
X73929Y31758D01*
X74106Y31894D01*
X74242Y32071D01*
X74328Y32278D01*
X74357Y32500D01*
X74328Y32722D01*
X74242Y32929D01*
X74106Y33106D01*
X73929Y33242D01*
X73722Y33328D01*
X73500Y33357D01*
D02*
G37*
G36*
X71500D02*
X71278Y33328D01*
X71071Y33242D01*
X70894Y33106D01*
X70758Y32929D01*
X70672Y32722D01*
X70643Y32500D01*
X70672Y32278D01*
X70758Y32071D01*
X70894Y31894D01*
X71071Y31758D01*
X71278Y31672D01*
X71500Y31643D01*
X71722Y31672D01*
X71929Y31758D01*
X72106Y31894D01*
X72242Y32071D01*
X72328Y32278D01*
X72357Y32500D01*
X72328Y32722D01*
X72242Y32929D01*
X72106Y33106D01*
X71929Y33242D01*
X71722Y33328D01*
X71500Y33357D01*
D02*
G37*
G36*
X69500D02*
X69278Y33328D01*
X69071Y33242D01*
X68894Y33106D01*
X68758Y32929D01*
X68672Y32722D01*
X68643Y32500D01*
X68672Y32278D01*
X68758Y32071D01*
X68894Y31894D01*
X69071Y31758D01*
X69278Y31672D01*
X69500Y31643D01*
X69722Y31672D01*
X69929Y31758D01*
X70106Y31894D01*
X70242Y32071D01*
X70328Y32278D01*
X70357Y32500D01*
X70328Y32722D01*
X70242Y32929D01*
X70106Y33106D01*
X69929Y33242D01*
X69722Y33328D01*
X69500Y33357D01*
D02*
G37*
G36*
X67500D02*
X67278Y33328D01*
X67071Y33242D01*
X66894Y33106D01*
X66758Y32929D01*
X66672Y32722D01*
X66643Y32500D01*
X66672Y32278D01*
X66758Y32071D01*
X66894Y31894D01*
X67071Y31758D01*
X67278Y31672D01*
X67500Y31643D01*
X67722Y31672D01*
X67929Y31758D01*
X68106Y31894D01*
X68242Y32071D01*
X68328Y32278D01*
X68357Y32500D01*
X68328Y32722D01*
X68242Y32929D01*
X68106Y33106D01*
X67929Y33242D01*
X67722Y33328D01*
X67500Y33357D01*
D02*
G37*
G36*
X267450Y31450D02*
X267050D01*
Y30900D01*
X267450D01*
Y31450D01*
D02*
G37*
G36*
X266850D02*
X266450D01*
Y30900D01*
X266850D01*
Y31450D01*
D02*
G37*
G36*
X79600Y31344D02*
Y30600D01*
X80344D01*
X80328Y30722D01*
X80242Y30929D01*
X80106Y31106D01*
X79929Y31242D01*
X79722Y31328D01*
X79600Y31344D01*
D02*
G37*
G36*
X77600D02*
Y30600D01*
X78344D01*
X78328Y30722D01*
X78243Y30929D01*
X78106Y31106D01*
X77929Y31242D01*
X77722Y31328D01*
X77600Y31344D01*
D02*
G37*
G36*
X75600D02*
Y30600D01*
X76344D01*
X76328Y30722D01*
X76243Y30929D01*
X76106Y31106D01*
X75929Y31242D01*
X75722Y31328D01*
X75600Y31344D01*
D02*
G37*
G36*
X79400D02*
X79278Y31328D01*
X79071Y31242D01*
X78894Y31106D01*
X78758Y30929D01*
X78672Y30722D01*
X78656Y30600D01*
X79400D01*
Y31344D01*
D02*
G37*
G36*
X77400D02*
X77278Y31328D01*
X77071Y31242D01*
X76894Y31106D01*
X76758Y30929D01*
X76672Y30722D01*
X76656Y30600D01*
X77400D01*
Y31344D01*
D02*
G37*
G36*
X75400D02*
X75278Y31328D01*
X75071Y31242D01*
X74894Y31106D01*
X74758Y30929D01*
X74672Y30722D01*
X74656Y30600D01*
X75400D01*
Y31344D01*
D02*
G37*
G36*
X267450Y30700D02*
X267050D01*
Y30150D01*
X267450D01*
Y30700D01*
D02*
G37*
G36*
X266850D02*
X266450D01*
Y30150D01*
X266850D01*
Y30700D01*
D02*
G37*
G36*
X265550Y31450D02*
X264550D01*
Y30150D01*
X265550D01*
Y31450D01*
D02*
G37*
G36*
X80344Y30400D02*
X79600D01*
Y29656D01*
X79722Y29672D01*
X79929Y29758D01*
X80106Y29894D01*
X80242Y30071D01*
X80328Y30278D01*
X80344Y30400D01*
D02*
G37*
G36*
X78344D02*
X77600D01*
Y29656D01*
X77722Y29672D01*
X77929Y29758D01*
X78106Y29894D01*
X78243Y30071D01*
X78328Y30278D01*
X78344Y30400D01*
D02*
G37*
G36*
X76344D02*
X75600D01*
Y29656D01*
X75722Y29672D01*
X75929Y29758D01*
X76106Y29894D01*
X76243Y30071D01*
X76328Y30278D01*
X76344Y30400D01*
D02*
G37*
G36*
X79400D02*
X78656D01*
X78672Y30278D01*
X78758Y30071D01*
X78894Y29894D01*
X79071Y29758D01*
X79278Y29672D01*
X79400Y29656D01*
Y30400D01*
D02*
G37*
G36*
X77400D02*
X76656D01*
X76672Y30278D01*
X76758Y30071D01*
X76894Y29894D01*
X77071Y29758D01*
X77278Y29672D01*
X77400Y29656D01*
Y30400D01*
D02*
G37*
G36*
X75400D02*
X74656D01*
X74672Y30278D01*
X74758Y30071D01*
X74894Y29894D01*
X75071Y29758D01*
X75278Y29672D01*
X75400Y29656D01*
Y30400D01*
D02*
G37*
G36*
X73500Y31357D02*
X73278Y31328D01*
X73071Y31242D01*
X72894Y31106D01*
X72758Y30929D01*
X72672Y30722D01*
X72643Y30500D01*
X72672Y30278D01*
X72758Y30071D01*
X72894Y29894D01*
X73071Y29758D01*
X73278Y29672D01*
X73500Y29643D01*
X73722Y29672D01*
X73929Y29758D01*
X74106Y29894D01*
X74242Y30071D01*
X74328Y30278D01*
X74357Y30500D01*
X74328Y30722D01*
X74242Y30929D01*
X74106Y31106D01*
X73929Y31242D01*
X73722Y31328D01*
X73500Y31357D01*
D02*
G37*
G36*
X71500D02*
X71278Y31328D01*
X71071Y31242D01*
X70894Y31106D01*
X70758Y30929D01*
X70672Y30722D01*
X70643Y30500D01*
X70672Y30278D01*
X70758Y30071D01*
X70894Y29894D01*
X71071Y29758D01*
X71278Y29672D01*
X71500Y29643D01*
X71722Y29672D01*
X71929Y29758D01*
X72106Y29894D01*
X72242Y30071D01*
X72328Y30278D01*
X72357Y30500D01*
X72328Y30722D01*
X72242Y30929D01*
X72106Y31106D01*
X71929Y31242D01*
X71722Y31328D01*
X71500Y31357D01*
D02*
G37*
G36*
X69500D02*
X69278Y31328D01*
X69071Y31242D01*
X68894Y31106D01*
X68758Y30929D01*
X68672Y30722D01*
X68643Y30500D01*
X68672Y30278D01*
X68758Y30071D01*
X68894Y29894D01*
X69071Y29758D01*
X69278Y29672D01*
X69500Y29643D01*
X69722Y29672D01*
X69929Y29758D01*
X70106Y29894D01*
X70242Y30071D01*
X70328Y30278D01*
X70357Y30500D01*
X70328Y30722D01*
X70242Y30929D01*
X70106Y31106D01*
X69929Y31242D01*
X69722Y31328D01*
X69500Y31357D01*
D02*
G37*
G36*
X67500D02*
X67278Y31328D01*
X67071Y31242D01*
X66894Y31106D01*
X66758Y30929D01*
X66672Y30722D01*
X66643Y30500D01*
X66672Y30278D01*
X66758Y30071D01*
X66894Y29894D01*
X67071Y29758D01*
X67278Y29672D01*
X67500Y29643D01*
X67722Y29672D01*
X67929Y29758D01*
X68106Y29894D01*
X68242Y30071D01*
X68328Y30278D01*
X68357Y30500D01*
X68328Y30722D01*
X68242Y30929D01*
X68106Y31106D01*
X67929Y31242D01*
X67722Y31328D01*
X67500Y31357D01*
D02*
G37*
%LPD*%
G36*
X117318Y88308D02*
X117334Y88298D01*
X117351Y88290D01*
X117370Y88283D01*
X117392Y88277D01*
X117416Y88271D01*
X117442Y88268D01*
X117500Y88263D01*
X117532Y88262D01*
X117547Y87962D01*
X117514Y87962D01*
X117456Y87957D01*
X117431Y87952D01*
X117407Y87947D01*
X117386Y87940D01*
X117367Y87931D01*
X117350Y87922D01*
X117335Y87911D01*
X117323Y87899D01*
X117305Y88319D01*
X117318Y88308D01*
D02*
G37*
G36*
X117318Y79732D02*
X117334Y79722D01*
X117351Y79714D01*
X117370Y79706D01*
X117392Y79700D01*
X117416Y79695D01*
X117442Y79691D01*
X117500Y79687D01*
X117532Y79686D01*
X117547Y79386D01*
X117514Y79386D01*
X117457Y79380D01*
X117431Y79376D01*
X117407Y79370D01*
X117386Y79363D01*
X117367Y79355D01*
X117350Y79346D01*
X117335Y79335D01*
X117323Y79323D01*
X117305Y79742D01*
X117318Y79732D01*
D02*
G37*
G36*
X258757Y94492D02*
X259030Y94379D01*
X259276Y94215D01*
X259485Y94006D01*
X259649Y93761D01*
X259762Y93488D01*
X259820Y93198D01*
Y91550D01*
X259825Y91452D01*
X259863Y91260D01*
X259938Y91079D01*
X260047Y90916D01*
X260186Y90777D01*
X260349Y90668D01*
X260530Y90593D01*
X260722Y90555D01*
X260820Y90550D01*
X260950Y90550D01*
X260950Y90550D01*
X260950Y90550D01*
X260950Y90550D01*
X261171Y90550D01*
X261609Y90492D01*
X262036Y90378D01*
X262444Y90209D01*
X262826Y89988D01*
X263177Y89719D01*
X263489Y89407D01*
X263758Y89056D01*
X263979Y88674D01*
X264148Y88266D01*
X264262Y87839D01*
X264320Y87401D01*
X264320Y87180D01*
X264320Y83050D01*
X264330Y82952D01*
X264404Y82772D01*
X264542Y82634D01*
X264722Y82560D01*
X264820Y82550D01*
X264950Y82550D01*
X264950Y82550D01*
X264950Y82550D01*
X265171Y82550D01*
X265609Y82492D01*
X266036Y82378D01*
X266444Y82209D01*
X266826Y81988D01*
X267177Y81719D01*
X267489Y81407D01*
X267758Y81056D01*
X267979Y80674D01*
X268148Y80266D01*
X268262Y79839D01*
X268320Y79401D01*
X268320Y79180D01*
X268320Y75451D01*
X268282Y75258D01*
X268206Y75076D01*
X268097Y74913D01*
X267957Y74773D01*
X267794Y74664D01*
X267612Y74588D01*
X267418Y74550D01*
X264721D01*
X264528Y74588D01*
X264346Y74664D01*
X264182Y74773D01*
X264043Y74913D01*
X263934Y75076D01*
X263858Y75258D01*
X263820Y75451D01*
Y75550D01*
Y81050D01*
X263820Y81050D01*
X263820Y81050D01*
X263820Y81050D01*
X263815Y81148D01*
X263798Y81234D01*
X263777Y81340D01*
X263702Y81521D01*
X263593Y81684D01*
X263454Y81823D01*
X263291Y81932D01*
X263110Y82007D01*
X262918Y82045D01*
X262820Y82050D01*
X261172Y82050D01*
X260882Y82108D01*
X260609Y82221D01*
X260364Y82385D01*
X260155Y82594D01*
X259991Y82839D01*
X259878Y83112D01*
X259820Y83402D01*
Y83550D01*
Y89050D01*
X259820Y89050D01*
X259820Y89050D01*
X259820Y89050D01*
X259815Y89148D01*
X259798Y89234D01*
X259777Y89340D01*
X259702Y89521D01*
X259593Y89684D01*
X259454Y89823D01*
X259291Y89932D01*
X259110Y90007D01*
X258918Y90045D01*
X258820Y90050D01*
X257172Y90050D01*
X256882Y90108D01*
X256609Y90221D01*
X256364Y90385D01*
X256155Y90594D01*
X255991Y90839D01*
X255878Y91112D01*
X255820Y91402D01*
Y93198D01*
X255878Y93488D01*
X255991Y93761D01*
X256155Y94006D01*
X256364Y94215D01*
X256609Y94379D01*
X256882Y94492D01*
X257172Y94550D01*
X258468D01*
X258757Y94492D01*
D02*
G37*
G36*
X293947Y94492D02*
X294220Y94379D01*
X294466Y94215D01*
X294675Y94006D01*
X294839Y93760D01*
X294952Y93487D01*
X295010Y93198D01*
Y91550D01*
X295015Y91452D01*
X295053Y91260D01*
X295128Y91079D01*
X295237Y90916D01*
X295376Y90777D01*
X295539Y90668D01*
X295720Y90593D01*
X295912Y90555D01*
X296010Y90550D01*
Y90550D01*
X296239Y90550D01*
X296694Y90490D01*
X297137Y90371D01*
X297561Y90196D01*
X297959Y89966D01*
X298323Y89687D01*
X298647Y89363D01*
X298926Y88999D01*
X299156Y88601D01*
X299331Y88177D01*
X299450Y87734D01*
X299510Y87279D01*
X299510Y87050D01*
X299510Y83050D01*
X299520Y82952D01*
X299594Y82772D01*
X299732Y82634D01*
X299912Y82560D01*
X300010Y82550D01*
X300010Y82550D01*
X300010Y82550D01*
X300010Y82550D01*
X300239Y82550D01*
X300694Y82490D01*
X301137Y82371D01*
X301561Y82196D01*
X301959Y81966D01*
X302323Y81687D01*
X302647Y81363D01*
X302926Y80999D01*
X303156Y80601D01*
X303331Y80177D01*
X303450Y79734D01*
X303510Y79279D01*
X303510Y79050D01*
X303510Y75451D01*
X303471Y75258D01*
X303396Y75076D01*
X303287Y74912D01*
X303147Y74773D01*
X302984Y74664D01*
X302802Y74588D01*
X302608Y74550D01*
X299911D01*
X299718Y74588D01*
X299536Y74664D01*
X299372Y74773D01*
X299233Y74912D01*
X299124Y75076D01*
X299048Y75258D01*
X299010Y75451D01*
Y75550D01*
Y81050D01*
X299010Y81050D01*
X299010Y81050D01*
X299010Y81050D01*
X299005Y81148D01*
X298988Y81233D01*
X298967Y81340D01*
X298892Y81521D01*
X298783Y81684D01*
X298644Y81823D01*
X298481Y81932D01*
X298300Y82007D01*
X298108Y82045D01*
X298010Y82050D01*
X296362Y82050D01*
X296072Y82108D01*
X295799Y82221D01*
X295554Y82385D01*
X295345Y82594D01*
X295181Y82839D01*
X295068Y83112D01*
X295010Y83402D01*
Y83550D01*
Y89050D01*
X295010Y89050D01*
X295010Y89050D01*
X295010Y89050D01*
X295005Y89148D01*
X294988Y89233D01*
X294967Y89340D01*
X294892Y89521D01*
X294783Y89684D01*
X294644Y89823D01*
X294481Y89932D01*
X294300Y90007D01*
X294108Y90045D01*
X294010Y90050D01*
X292362Y90050D01*
X292072Y90108D01*
X291799Y90221D01*
X291554Y90385D01*
X291345Y90594D01*
X291181Y90839D01*
X291068Y91112D01*
X291010Y91402D01*
Y93198D01*
X291068Y93487D01*
X291181Y93760D01*
X291345Y94006D01*
X291554Y94215D01*
X291799Y94379D01*
X292072Y94492D01*
X292362Y94550D01*
X293658D01*
X293947Y94492D01*
D02*
G37*
G36*
X223938Y94442D02*
X224211Y94329D01*
X224456Y94165D01*
X224665Y93956D01*
X224829Y93711D01*
X224942Y93438D01*
X225000Y93148D01*
Y91500D01*
X225005Y91402D01*
X225043Y91210D01*
X225118Y91029D01*
X225227Y90866D01*
X225366Y90727D01*
X225529Y90618D01*
X225710Y90543D01*
X225902Y90505D01*
X226000Y90500D01*
Y90500D01*
X226229Y90500D01*
X226684Y90440D01*
X227127Y90321D01*
X227551Y90146D01*
X227949Y89916D01*
X228313Y89637D01*
X228637Y89313D01*
X228916Y88949D01*
X229146Y88551D01*
X229321Y88127D01*
X229440Y87684D01*
X229500Y87229D01*
X229500Y87000D01*
X229500Y83000D01*
X229510Y82902D01*
X229584Y82722D01*
X229722Y82584D01*
X229902Y82510D01*
X230000Y82500D01*
X230500Y82500D01*
X230500Y82500D01*
X230500Y82500D01*
X230697Y82500D01*
X231088Y82448D01*
X231468Y82346D01*
X231832Y82195D01*
X232173Y81998D01*
X232485Y81758D01*
X232764Y81479D01*
X233003Y81166D01*
X233199Y80824D01*
X233349Y80460D01*
X233450Y80079D01*
X233501Y79688D01*
X233500Y79491D01*
X233500Y76602D01*
X233473Y76514D01*
X233442Y76200D01*
X233473Y75886D01*
X233500Y75798D01*
Y75500D01*
X233500Y75500D01*
Y75401D01*
X233462Y75208D01*
X233386Y75026D01*
X233277Y74863D01*
X233137Y74723D01*
X232974Y74614D01*
X232792Y74538D01*
X232598Y74500D01*
X232500Y74500D01*
X229902D01*
X229708Y74538D01*
X229526Y74614D01*
X229363Y74723D01*
X229223Y74863D01*
X229114Y75026D01*
X229038Y75208D01*
X229000Y75402D01*
Y75500D01*
Y81000D01*
X229000Y81000D01*
X229000Y81000D01*
X229000Y81000D01*
X228995Y81098D01*
X228978Y81184D01*
X228957Y81290D01*
X228882Y81471D01*
X228773Y81634D01*
X228634Y81773D01*
X228471Y81882D01*
X228290Y81957D01*
X228098Y81995D01*
X228000Y82000D01*
X226352Y82000D01*
X226062Y82058D01*
X225789Y82171D01*
X225544Y82335D01*
X225335Y82544D01*
X225171Y82789D01*
X225058Y83062D01*
X225000Y83352D01*
Y83500D01*
Y89000D01*
X225000Y89000D01*
X225000Y89000D01*
X225000Y89000D01*
X224995Y89098D01*
X224978Y89184D01*
X224957Y89290D01*
X224882Y89471D01*
X224773Y89634D01*
X224634Y89773D01*
X224471Y89882D01*
X224290Y89957D01*
X224098Y89995D01*
X224000Y90000D01*
X222352Y90000D01*
X222062Y90058D01*
X221789Y90171D01*
X221544Y90335D01*
X221335Y90544D01*
X221171Y90789D01*
X221058Y91062D01*
X221000Y91352D01*
Y93148D01*
X221058Y93438D01*
X221171Y93711D01*
X221335Y93956D01*
X221544Y94165D01*
X221789Y94329D01*
X222062Y94442D01*
X222352Y94500D01*
X223648D01*
X223938Y94442D01*
D02*
G37*
G36*
X203038Y68131D02*
X202964Y68064D01*
X202840Y67935D01*
X202790Y67871D01*
X202747Y67808D01*
X202712Y67746D01*
X202685Y67685D01*
X202666Y67625D01*
X202654Y67565D01*
X202650Y67507D01*
X202350Y67527D01*
X202346Y67583D01*
X202336Y67641D01*
X202318Y67701D01*
X202292Y67765D01*
X202260Y67831D01*
X202221Y67899D01*
X202174Y67971D01*
X202059Y68121D01*
X201990Y68201D01*
X203038Y68131D01*
D02*
G37*
G36*
X186227Y60599D02*
X186242Y60588D01*
X186259Y60579D01*
X186279Y60572D01*
X186300Y60565D01*
X186324Y60560D01*
X186349Y60555D01*
X186377Y60552D01*
X186440Y60550D01*
Y60250D01*
X186408Y60249D01*
X186349Y60245D01*
X186324Y60240D01*
X186300Y60235D01*
X186279Y60228D01*
X186259Y60221D01*
X186242Y60212D01*
X186227Y60201D01*
X186214Y60190D01*
Y60610D01*
X186227Y60599D01*
D02*
G37*
%LPC*%
G36*
X258350Y93548D02*
Y92350D01*
X259548D01*
X259517Y92589D01*
X259386Y92906D01*
X259177Y93177D01*
X258906Y93386D01*
X258589Y93517D01*
X258350Y93548D01*
D02*
G37*
G36*
X258150D02*
X257911Y93517D01*
X257594Y93386D01*
X257323Y93177D01*
X257114Y92906D01*
X256983Y92589D01*
X256952Y92350D01*
X258150D01*
Y93548D01*
D02*
G37*
G36*
X259548Y92150D02*
X258350D01*
Y90952D01*
X258589Y90983D01*
X258906Y91114D01*
X259177Y91323D01*
X259386Y91594D01*
X259517Y91911D01*
X259548Y92150D01*
D02*
G37*
G36*
X258150D02*
X256952D01*
X256983Y91911D01*
X257114Y91594D01*
X257323Y91323D01*
X257594Y91114D01*
X257911Y90983D01*
X258150Y90952D01*
Y92150D01*
D02*
G37*
G36*
X262350Y85548D02*
Y84350D01*
X263548D01*
X263517Y84589D01*
X263386Y84906D01*
X263177Y85177D01*
X262906Y85386D01*
X262589Y85517D01*
X262350Y85548D01*
D02*
G37*
G36*
X262150Y85548D02*
X261911Y85517D01*
X261594Y85386D01*
X261323Y85177D01*
X261114Y84906D01*
X260983Y84589D01*
X260952Y84350D01*
X262150D01*
Y85548D01*
D02*
G37*
G36*
Y84150D02*
X260952D01*
X260983Y83911D01*
X261114Y83594D01*
X261323Y83323D01*
X261594Y83114D01*
X261911Y82983D01*
X262150Y82952D01*
Y84150D01*
D02*
G37*
G36*
X263548D02*
X262350D01*
Y82952D01*
X262589Y82983D01*
X262906Y83114D01*
X263177Y83323D01*
X263386Y83594D01*
X263517Y83911D01*
X263548Y84150D01*
D02*
G37*
G36*
X266350Y77548D02*
Y76350D01*
X267548D01*
X267517Y76589D01*
X267386Y76906D01*
X267177Y77177D01*
X266906Y77386D01*
X266589Y77517D01*
X266350Y77548D01*
D02*
G37*
G36*
X266150Y77548D02*
X265911Y77517D01*
X265594Y77386D01*
X265323Y77177D01*
X265114Y76906D01*
X264983Y76589D01*
X264952Y76350D01*
X266150D01*
Y77548D01*
D02*
G37*
G36*
X267548Y76150D02*
X266350D01*
Y75464D01*
X267020D01*
X266988Y75426D01*
X266959Y75379D01*
X266933Y75323D01*
X266911Y75257D01*
X266893Y75182D01*
X266878Y75103D01*
X266906Y75114D01*
X267177Y75323D01*
X267386Y75594D01*
X267517Y75911D01*
X267548Y76150D01*
D02*
G37*
G36*
X266150D02*
X264952D01*
X264983Y75911D01*
X265114Y75594D01*
X265323Y75323D01*
X265594Y75114D01*
X265622Y75103D01*
X265608Y75182D01*
X265589Y75257D01*
X265567Y75323D01*
X265541Y75379D01*
X265512Y75426D01*
X265480Y75464D01*
X266150D01*
Y76150D01*
D02*
G37*
G36*
X293420Y93548D02*
Y92350D01*
X294618D01*
X294586Y92589D01*
X294455Y92906D01*
X294247Y93177D01*
X293976Y93386D01*
X293659Y93517D01*
X293420Y93548D01*
D02*
G37*
G36*
X293220Y93548D02*
X292981Y93517D01*
X292664Y93386D01*
X292393Y93177D01*
X292184Y92906D01*
X292053Y92589D01*
X292022Y92350D01*
X293220D01*
Y93548D01*
D02*
G37*
G36*
X294618Y92150D02*
X293420D01*
Y90952D01*
X293659Y90983D01*
X293976Y91114D01*
X294247Y91323D01*
X294455Y91594D01*
X294586Y91911D01*
X294618Y92150D01*
D02*
G37*
G36*
X293220D02*
X292022D01*
X292053Y91911D01*
X292184Y91594D01*
X292393Y91323D01*
X292664Y91114D01*
X292981Y90983D01*
X293220Y90952D01*
Y92150D01*
D02*
G37*
G36*
X297730Y85548D02*
Y84350D01*
X298928D01*
X298896Y84589D01*
X298766Y84906D01*
X298557Y85177D01*
X298286Y85386D01*
X297969Y85517D01*
X297730Y85548D01*
D02*
G37*
G36*
X297530D02*
X297291Y85517D01*
X296974Y85386D01*
X296703Y85177D01*
X296494Y84906D01*
X296363Y84589D01*
X296332Y84350D01*
X297530D01*
Y85548D01*
D02*
G37*
G36*
Y84150D02*
X296332D01*
X296363Y83911D01*
X296494Y83594D01*
X296703Y83323D01*
X296974Y83114D01*
X297291Y82983D01*
X297530Y82952D01*
Y84150D01*
D02*
G37*
G36*
X298928D02*
X297730D01*
Y82952D01*
X297969Y82983D01*
X298286Y83114D01*
X298557Y83323D01*
X298766Y83594D01*
X298896Y83911D01*
X298928Y84150D01*
D02*
G37*
G36*
X301540Y77548D02*
Y76350D01*
X302738D01*
X302707Y76589D01*
X302576Y76906D01*
X302367Y77177D01*
X302096Y77386D01*
X301779Y77517D01*
X301540Y77548D01*
D02*
G37*
G36*
X301340Y77548D02*
X301101Y77517D01*
X300784Y77386D01*
X300513Y77177D01*
X300304Y76906D01*
X300173Y76589D01*
X300142Y76350D01*
X301340D01*
Y77548D01*
D02*
G37*
G36*
X302738Y76150D02*
X301540D01*
Y75464D01*
X302210D01*
X302178Y75426D01*
X302149Y75379D01*
X302123Y75323D01*
X302101Y75257D01*
X302082Y75182D01*
X302068Y75103D01*
X302096Y75114D01*
X302367Y75323D01*
X302576Y75594D01*
X302707Y75911D01*
X302738Y76150D01*
D02*
G37*
G36*
X301340D02*
X300142D01*
X300173Y75911D01*
X300304Y75594D01*
X300513Y75323D01*
X300784Y75114D01*
X300812Y75103D01*
X300797Y75182D01*
X300779Y75257D01*
X300757Y75323D01*
X300731Y75379D01*
X300702Y75426D01*
X300670Y75464D01*
X301340D01*
Y76150D01*
D02*
G37*
G36*
X223220Y93498D02*
Y92300D01*
X224418D01*
X224387Y92539D01*
X224256Y92856D01*
X224047Y93127D01*
X223776Y93336D01*
X223459Y93467D01*
X223220Y93498D01*
D02*
G37*
G36*
X223020Y93498D02*
X222781Y93467D01*
X222464Y93336D01*
X222193Y93127D01*
X221984Y92856D01*
X221854Y92539D01*
X221822Y92300D01*
X223020D01*
Y93498D01*
D02*
G37*
G36*
Y92100D02*
X221822D01*
X221854Y91861D01*
X221984Y91544D01*
X222193Y91273D01*
X222464Y91064D01*
X222781Y90933D01*
X223020Y90902D01*
Y92100D01*
D02*
G37*
G36*
X224418D02*
X223220D01*
Y90902D01*
X223459Y90933D01*
X223776Y91064D01*
X224047Y91273D01*
X224256Y91544D01*
X224387Y91861D01*
X224418Y92100D01*
D02*
G37*
G36*
X227530Y85498D02*
Y84300D01*
X228728D01*
X228697Y84539D01*
X228566Y84856D01*
X228357Y85127D01*
X228086Y85336D01*
X227769Y85467D01*
X227530Y85498D01*
D02*
G37*
G36*
X227330Y85498D02*
X227091Y85467D01*
X226774Y85336D01*
X226503Y85127D01*
X226294Y84856D01*
X226164Y84539D01*
X226132Y84300D01*
X227330D01*
Y85498D01*
D02*
G37*
G36*
X228728Y84100D02*
X227530D01*
Y82902D01*
X227769Y82933D01*
X228086Y83064D01*
X228357Y83273D01*
X228566Y83544D01*
X228697Y83861D01*
X228728Y84100D01*
D02*
G37*
G36*
X227330D02*
X226132D01*
X226164Y83861D01*
X226294Y83544D01*
X226503Y83273D01*
X226774Y83064D01*
X227091Y82933D01*
X227330Y82902D01*
Y84100D01*
D02*
G37*
G36*
X231340Y77498D02*
Y76300D01*
X232538D01*
X232507Y76539D01*
X232376Y76856D01*
X232167Y77127D01*
X231896Y77336D01*
X231579Y77467D01*
X231340Y77498D01*
D02*
G37*
G36*
X231140Y77498D02*
X230901Y77467D01*
X230584Y77336D01*
X230313Y77127D01*
X230105Y76856D01*
X229974Y76539D01*
X229942Y76300D01*
X231140D01*
Y77498D01*
D02*
G37*
G36*
X232538Y76100D02*
X231340D01*
Y75414D01*
X232010D01*
X231978Y75376D01*
X231949Y75329D01*
X231923Y75273D01*
X231901Y75207D01*
X231883Y75132D01*
X231868Y75053D01*
X231896Y75064D01*
X232167Y75273D01*
X232376Y75544D01*
X232507Y75861D01*
X232538Y76100D01*
D02*
G37*
G36*
X231140D02*
X229942D01*
X229974Y75861D01*
X230105Y75544D01*
X230313Y75273D01*
X230584Y75064D01*
X230612Y75053D01*
X230598Y75132D01*
X230579Y75207D01*
X230557Y75273D01*
X230531Y75329D01*
X230502Y75376D01*
X230470Y75414D01*
X231140D01*
Y76100D01*
D02*
G37*
%LPD*%
G36*
X117318Y70983D02*
X117334Y70973D01*
X117351Y70965D01*
X117370Y70958D01*
X117392Y70951D01*
X117416Y70946D01*
X117442Y70942D01*
X117500Y70938D01*
X117532Y70937D01*
X117547Y70637D01*
X117514Y70637D01*
X117456Y70632D01*
X117431Y70627D01*
X117407Y70622D01*
X117386Y70615D01*
X117367Y70606D01*
X117350Y70597D01*
X117335Y70586D01*
X117323Y70574D01*
X117305Y70994D01*
X117318Y70983D01*
D02*
G37*
G36*
X64000Y50000D02*
X64000Y50000D01*
X64000Y50000D01*
X64000D01*
X64114Y49973D01*
X64142Y49962D01*
X64212Y49892D01*
X64250Y49800D01*
X64250Y49750D01*
X64250Y48150D01*
X64250Y48150D01*
X64204Y48042D01*
X64185Y48023D01*
X64130Y48000D01*
X64100Y48000D01*
X61750D01*
Y50000D01*
X64000Y50000D01*
D02*
G37*
G36*
X60642Y49962D02*
X60712Y49892D01*
X60723Y49864D01*
X60750Y49750D01*
Y49750D01*
X60750Y49750D01*
X60750Y49750D01*
X60750Y42252D01*
X60750Y42202D01*
X60713Y42109D01*
X60642Y42038D01*
X60616Y42027D01*
X60570Y42017D01*
X60500Y42000D01*
X60373Y42000D01*
X54500Y42000D01*
X54430Y42000D01*
X54300Y42054D01*
X54201Y42153D01*
X54147Y42283D01*
X54147Y42353D01*
X54147Y43397D01*
X54147Y43467D01*
X54201Y43597D01*
X54300Y43696D01*
X54430Y43750D01*
X54500Y43750D01*
X54500Y43750D01*
X58250Y43750D01*
X58299Y43755D01*
X58389Y43792D01*
X58458Y43861D01*
X58495Y43951D01*
X58500Y44000D01*
X58500Y44000D01*
X58500Y49800D01*
X58538Y49892D01*
X58608Y49962D01*
X58700Y50000D01*
X58750D01*
X58750Y50000D01*
X60550Y50000D01*
X60642Y49962D01*
D02*
G37*
G36*
X187036Y62040D02*
X187023Y62051D01*
X187008Y62062D01*
X186991Y62071D01*
X186971Y62078D01*
X186950Y62085D01*
X186926Y62090D01*
X186901Y62095D01*
X186873Y62098D01*
X186810Y62100D01*
Y62400D01*
X186842Y62401D01*
X186901Y62405D01*
X186926Y62410D01*
X186950Y62415D01*
X186971Y62422D01*
X186991Y62429D01*
X187008Y62438D01*
X187023Y62449D01*
X187036Y62460D01*
Y62040D01*
D02*
G37*
G36*
X178227Y60599D02*
X178242Y60588D01*
X178259Y60579D01*
X178279Y60572D01*
X178300Y60565D01*
X178324Y60560D01*
X178349Y60555D01*
X178377Y60552D01*
X178440Y60550D01*
Y60250D01*
X178408Y60249D01*
X178349Y60245D01*
X178324Y60240D01*
X178300Y60235D01*
X178279Y60228D01*
X178259Y60221D01*
X178242Y60212D01*
X178227Y60201D01*
X178214Y60190D01*
Y60610D01*
X178227Y60599D01*
D02*
G37*
G36*
X202993Y55250D02*
X202891Y55249D01*
X202707Y55235D01*
X202625Y55222D01*
X202549Y55204D01*
X202480Y55183D01*
X202417Y55157D01*
X202361Y55128D01*
X202311Y55094D01*
X202268Y55056D01*
X202056Y55268D01*
X202094Y55311D01*
X202128Y55361D01*
X202157Y55417D01*
X202183Y55480D01*
X202204Y55549D01*
X202222Y55625D01*
X202235Y55707D01*
X202244Y55795D01*
X202250Y55992D01*
X202993Y55250D01*
D02*
G37*
G36*
X186177Y53149D02*
X186192Y53138D01*
X186209Y53129D01*
X186229Y53122D01*
X186250Y53115D01*
X186274Y53110D01*
X186299Y53105D01*
X186327Y53102D01*
X186390Y53100D01*
Y52800D01*
X186358Y52799D01*
X186299Y52795D01*
X186274Y52790D01*
X186250Y52785D01*
X186229Y52778D01*
X186209Y52771D01*
X186192Y52762D01*
X186177Y52751D01*
X186164Y52740D01*
Y53160D01*
X186177Y53149D01*
D02*
G37*
G36*
X178427Y53149D02*
X178442Y53138D01*
X178459Y53129D01*
X178479Y53122D01*
X178500Y53115D01*
X178524Y53110D01*
X178549Y53105D01*
X178577Y53102D01*
X178640Y53100D01*
Y52800D01*
X178607Y52799D01*
X178549Y52795D01*
X178524Y52790D01*
X178500Y52785D01*
X178479Y52778D01*
X178459Y52771D01*
X178442Y52762D01*
X178427Y52751D01*
X178414Y52740D01*
Y53160D01*
X178427Y53149D01*
D02*
G37*
G36*
X201464Y35475D02*
X201392Y35546D01*
X201252Y35666D01*
X201184Y35715D01*
X201118Y35756D01*
X201054Y35790D01*
X200992Y35816D01*
X200931Y35835D01*
X200872Y35846D01*
X200815Y35850D01*
Y36150D01*
X200872Y36154D01*
X200931Y36165D01*
X200992Y36184D01*
X201054Y36210D01*
X201118Y36244D01*
X201184Y36285D01*
X201252Y36334D01*
X201321Y36390D01*
X201464Y36525D01*
Y35475D01*
D02*
G37*
G36*
X91786Y52990D02*
X91764Y53011D01*
X91741Y53030D01*
X91718Y53046D01*
X91694Y53060D01*
X91670Y53072D01*
X91645Y53082D01*
X91619Y53090D01*
X91592Y53096D01*
X91565Y53099D01*
X91537Y53100D01*
Y53300D01*
X91565Y53301D01*
X91592Y53304D01*
X91619Y53310D01*
X91645Y53318D01*
X91670Y53327D01*
X91694Y53340D01*
X91718Y53354D01*
X91741Y53370D01*
X91764Y53389D01*
X91786Y53410D01*
Y52990D01*
D02*
G37*
G36*
X91798Y50378D02*
X91776Y50399D01*
X91753Y50418D01*
X91730Y50434D01*
X91706Y50449D01*
X91681Y50461D01*
X91656Y50471D01*
X91630Y50478D01*
X91604Y50484D01*
X91577Y50487D01*
X91549Y50488D01*
Y50688D01*
X91577Y50689D01*
X91604Y50693D01*
X91630Y50698D01*
X91656Y50706D01*
X91681Y50716D01*
X91706Y50728D01*
X91730Y50742D01*
X91753Y50759D01*
X91776Y50777D01*
X91798Y50798D01*
Y50378D01*
D02*
G37*
G36*
X79101Y42435D02*
X79104Y42408D01*
X79110Y42381D01*
X79118Y42355D01*
X79128Y42330D01*
X79140Y42306D01*
X79154Y42282D01*
X79170Y42259D01*
X79189Y42236D01*
X79210Y42214D01*
X78790D01*
X78811Y42236D01*
X78830Y42259D01*
X78846Y42282D01*
X78860Y42306D01*
X78872Y42330D01*
X78882Y42355D01*
X78890Y42381D01*
X78896Y42408D01*
X78899Y42435D01*
X78900Y42463D01*
X79100D01*
X79101Y42435D01*
D02*
G37*
G36*
X78289Y41764D02*
X78270Y41741D01*
X78254Y41718D01*
X78240Y41694D01*
X78228Y41670D01*
X78218Y41645D01*
X78210Y41619D01*
X78204Y41592D01*
X78201Y41565D01*
X78200Y41537D01*
X78000D01*
X77999Y41565D01*
X77996Y41592D01*
X77990Y41619D01*
X77982Y41645D01*
X77973Y41670D01*
X77960Y41694D01*
X77946Y41718D01*
X77930Y41741D01*
X77911Y41764D01*
X77890Y41786D01*
X78310D01*
X78289Y41764D01*
D02*
G37*
G36*
X279464Y43475D02*
X279392Y43546D01*
X279251Y43666D01*
X279184Y43715D01*
X279118Y43756D01*
X279054Y43790D01*
X278992Y43816D01*
X278931Y43835D01*
X278872Y43846D01*
X278815Y43850D01*
Y44150D01*
X278872Y44154D01*
X278931Y44165D01*
X278992Y44184D01*
X279054Y44210D01*
X279118Y44244D01*
X279184Y44285D01*
X279251Y44334D01*
X279321Y44390D01*
X279464Y44525D01*
Y43475D01*
D02*
G37*
G36*
X263427Y42399D02*
X263442Y42388D01*
X263459Y42379D01*
X263478Y42372D01*
X263500Y42365D01*
X263524Y42360D01*
X263549Y42355D01*
X263577Y42352D01*
X263640Y42350D01*
Y42050D01*
X263607Y42049D01*
X263549Y42045D01*
X263524Y42040D01*
X263500Y42035D01*
X263478Y42028D01*
X263459Y42021D01*
X263442Y42012D01*
X263427Y42001D01*
X263414Y41990D01*
Y42410D01*
X263427Y42399D01*
D02*
G37*
G36*
X278964Y34475D02*
X278892Y34546D01*
X278751Y34666D01*
X278684Y34715D01*
X278618Y34756D01*
X278554Y34790D01*
X278492Y34816D01*
X278431Y34835D01*
X278372Y34846D01*
X278315Y34850D01*
Y35150D01*
X278372Y35154D01*
X278431Y35165D01*
X278492Y35184D01*
X278554Y35210D01*
X278618Y35244D01*
X278684Y35285D01*
X278751Y35334D01*
X278821Y35390D01*
X278964Y35525D01*
Y34475D01*
D02*
G37*
G36*
X263427Y33399D02*
X263442Y33388D01*
X263459Y33379D01*
X263479Y33372D01*
X263500Y33365D01*
X263524Y33360D01*
X263549Y33355D01*
X263577Y33352D01*
X263640Y33350D01*
Y33050D01*
X263607Y33049D01*
X263549Y33045D01*
X263524Y33040D01*
X263500Y33035D01*
X263479Y33028D01*
X263459Y33021D01*
X263442Y33012D01*
X263427Y33001D01*
X263414Y32990D01*
Y33410D01*
X263427Y33399D01*
D02*
G37*
%LPC*%
G36*
X71204Y94204D02*
X65900D01*
Y89300D01*
X71204D01*
Y94204D01*
D02*
G37*
G36*
X65100D02*
X59796D01*
Y89300D01*
X65100D01*
Y94204D01*
D02*
G37*
G36*
X71204Y88500D02*
X65900D01*
Y83596D01*
X71204D01*
Y88500D01*
D02*
G37*
G36*
X65100D02*
X59796D01*
Y83596D01*
X65100D01*
Y88500D01*
D02*
G37*
G36*
X76400Y81973D02*
Y80400D01*
X77973D01*
X77860Y80771D01*
X77674Y81119D01*
X77424Y81424D01*
X77119Y81674D01*
X76771Y81860D01*
X76400Y81973D01*
D02*
G37*
G36*
X75600D02*
X75229Y81860D01*
X74881Y81674D01*
X74576Y81424D01*
X74326Y81119D01*
X74140Y80771D01*
X74027Y80400D01*
X75600D01*
Y81973D01*
D02*
G37*
G36*
X66254Y80504D02*
X65900D01*
Y79400D01*
X66254D01*
Y80504D01*
D02*
G37*
G36*
X65100D02*
X64746D01*
Y79400D01*
X65100D01*
Y80504D01*
D02*
G37*
G36*
X77973Y79600D02*
X76400D01*
Y78027D01*
X76771Y78140D01*
X77119Y78326D01*
X77424Y78576D01*
X77674Y78881D01*
X77860Y79229D01*
X77973Y79600D01*
D02*
G37*
G36*
X75600D02*
X74027D01*
X74140Y79229D01*
X74326Y78881D01*
X74576Y78576D01*
X74881Y78326D01*
X75229Y78140D01*
X75600Y78027D01*
Y79600D01*
D02*
G37*
G36*
X66254Y78600D02*
X65900D01*
Y77496D01*
X66254D01*
Y78600D01*
D02*
G37*
G36*
X65100D02*
X64746D01*
Y77496D01*
X65100D01*
Y78600D01*
D02*
G37*
G36*
X76100Y94450D02*
Y92600D01*
X77950D01*
X77922Y92882D01*
X77810Y93250D01*
X77629Y93589D01*
X77386Y93886D01*
X77089Y94129D01*
X76750Y94310D01*
X76382Y94422D01*
X76100Y94450D01*
D02*
G37*
G36*
X75900D02*
X75618Y94422D01*
X75250Y94310D01*
X74911Y94129D01*
X74614Y93886D01*
X74371Y93589D01*
X74190Y93250D01*
X74078Y92882D01*
X74050Y92600D01*
X75900D01*
Y94450D01*
D02*
G37*
G36*
X77950Y92400D02*
X76100D01*
Y90550D01*
X76382Y90578D01*
X76750Y90690D01*
X77089Y90871D01*
X77386Y91114D01*
X77629Y91411D01*
X77810Y91750D01*
X77922Y92118D01*
X77950Y92400D01*
D02*
G37*
G36*
X75900D02*
X74050D01*
X74078Y92118D01*
X74190Y91750D01*
X74371Y91411D01*
X74614Y91114D01*
X74911Y90871D01*
X75250Y90690D01*
X75618Y90578D01*
X75900Y90550D01*
Y92400D01*
D02*
G37*
G36*
X90950Y79458D02*
X90600D01*
Y78900D01*
X91383D01*
Y79025D01*
X91350Y79191D01*
X91256Y79331D01*
X91116Y79425D01*
X90950Y79458D01*
D02*
G37*
G36*
X90400D02*
X90050D01*
X89884Y79425D01*
X89744Y79331D01*
X89650Y79191D01*
X89617Y79025D01*
Y78900D01*
X90400D01*
Y79458D01*
D02*
G37*
G36*
X87450D02*
X87100D01*
Y78900D01*
X87883D01*
Y79025D01*
X87850Y79191D01*
X87756Y79331D01*
X87616Y79425D01*
X87450Y79458D01*
D02*
G37*
G36*
X86900D02*
X86550D01*
X86384Y79425D01*
X86244Y79331D01*
X86150Y79191D01*
X86117Y79025D01*
Y78900D01*
X86900D01*
Y79458D01*
D02*
G37*
G36*
X83950D02*
X83600D01*
Y78900D01*
X84383D01*
Y79025D01*
X84350Y79191D01*
X84256Y79331D01*
X84116Y79425D01*
X83950Y79458D01*
D02*
G37*
G36*
X83400D02*
X83050D01*
X82884Y79425D01*
X82744Y79331D01*
X82650Y79191D01*
X82617Y79025D01*
Y78900D01*
X83400D01*
Y79458D01*
D02*
G37*
G36*
X91383Y78700D02*
X90600D01*
Y78142D01*
X90950D01*
X91116Y78175D01*
X91256Y78269D01*
X91350Y78409D01*
X91383Y78575D01*
Y78700D01*
D02*
G37*
G36*
X90400D02*
X89617D01*
Y78575D01*
X89650Y78409D01*
X89744Y78269D01*
X89884Y78175D01*
X90050Y78142D01*
X90400D01*
Y78700D01*
D02*
G37*
G36*
X87883D02*
X87100D01*
Y78142D01*
X87450D01*
X87616Y78175D01*
X87756Y78269D01*
X87850Y78409D01*
X87883Y78575D01*
Y78700D01*
D02*
G37*
G36*
X86900D02*
X86117D01*
Y78575D01*
X86150Y78409D01*
X86244Y78269D01*
X86384Y78175D01*
X86550Y78142D01*
X86900D01*
Y78700D01*
D02*
G37*
G36*
X84383D02*
X83600D01*
Y78142D01*
X83950D01*
X84116Y78175D01*
X84256Y78269D01*
X84350Y78409D01*
X84383Y78575D01*
Y78700D01*
D02*
G37*
G36*
X83400D02*
X82617D01*
Y78575D01*
X82650Y78409D01*
X82744Y78269D01*
X82884Y78175D01*
X83050Y78142D01*
X83400D01*
Y78700D01*
D02*
G37*
G36*
X70750Y73650D02*
X70250D01*
Y73100D01*
X70750D01*
Y73650D01*
D02*
G37*
G36*
Y72900D02*
X70250D01*
Y72350D01*
X70750D01*
Y72900D01*
D02*
G37*
G36*
X62571Y80504D02*
X61629D01*
X62100Y80033D01*
X62571Y80504D01*
D02*
G37*
G36*
X57096Y79096D02*
X57062Y78925D01*
Y78475D01*
X57096Y78304D01*
X57492Y78700D01*
X57096Y79096D01*
D02*
G37*
G36*
X58904Y79096D02*
X58508Y78700D01*
X58904Y78304D01*
X58938Y78475D01*
Y78925D01*
X58904Y79096D01*
D02*
G37*
G36*
X58450Y79413D02*
X57550D01*
X57379Y79379D01*
X57916Y78841D01*
X57775Y78700D01*
X57916Y78559D01*
X57379Y78021D01*
X57550Y77987D01*
X58450D01*
X58621Y78021D01*
X58084Y78559D01*
X58225Y78700D01*
X58084Y78841D01*
X58621Y79379D01*
X58450Y79413D01*
D02*
G37*
G36*
X61346Y80221D02*
Y77779D01*
X61959Y78391D01*
X62100Y78250D01*
X62241Y78391D01*
X62854Y77779D01*
Y80221D01*
X62241Y79609D01*
X62100Y79750D01*
X61959Y79609D01*
X61346Y80221D01*
D02*
G37*
G36*
X62100Y77967D02*
X61629Y77496D01*
X62571D01*
X62100Y77967D01*
D02*
G37*
G36*
X60425Y76438D02*
X59975D01*
X59804Y76404D01*
X60200Y76008D01*
X60596Y76404D01*
X60425Y76438D01*
D02*
G37*
G36*
X60879Y76121D02*
X60341Y75584D01*
X60200Y75725D01*
X60059Y75584D01*
X59521Y76121D01*
X59487Y75950D01*
Y75050D01*
X59521Y74879D01*
X60059Y75416D01*
X60200Y75275D01*
X60341Y75416D01*
X60879Y74879D01*
X60913Y75050D01*
Y75950D01*
X60879Y76121D01*
D02*
G37*
G36*
X60200Y74992D02*
X59804Y74596D01*
X59975Y74562D01*
X60425D01*
X60596Y74596D01*
X60200Y74992D01*
D02*
G37*
G36*
X69600Y80450D02*
X69000D01*
Y79100D01*
X69600D01*
Y80450D01*
D02*
G37*
G36*
X68800D02*
X68200D01*
Y79100D01*
X68800D01*
Y80450D01*
D02*
G37*
G36*
X69600Y78900D02*
X69000D01*
Y77550D01*
X69600D01*
Y78900D01*
D02*
G37*
G36*
X68800D02*
X68200D01*
Y77550D01*
X68800D01*
Y78900D01*
D02*
G37*
G36*
X70750Y75650D02*
X70250D01*
Y75100D01*
X70750D01*
Y75650D01*
D02*
G37*
%LPD*%
D14*
X191600Y62250D02*
X191650Y62200D01*
X188800Y61300D02*
X189750Y62250D01*
X191600D01*
X188800Y60400D02*
Y61300D01*
X186000Y60400D02*
X188800D01*
X183600Y62250D02*
X183650Y62200D01*
X181750Y62250D02*
X183600D01*
X180800Y61300D02*
X181750Y62250D01*
X178000Y60400D02*
X180800D01*
X180800Y60400D02*
Y61300D01*
X180800Y60400D02*
X180800Y60400D01*
X183800Y54800D02*
X183850Y54750D01*
X181950Y54800D02*
X183800D01*
X181000Y53850D02*
X181950Y54800D01*
X178200Y52950D02*
X181000D01*
X181000Y52950D02*
Y53850D01*
X192050Y54800D02*
X192100Y54750D01*
X189700Y54800D02*
X192050D01*
X188750Y53850D02*
X189700Y54800D01*
X185950Y52950D02*
X188750D01*
X188750Y52950D02*
Y53850D01*
X268800Y35050D02*
X268850Y35000D01*
X266000Y34100D02*
X266950Y35050D01*
X268800D01*
X266000Y33200D02*
Y34100D01*
X263200Y33200D02*
X266000D01*
X268800Y44050D02*
X268850Y44000D01*
X266000Y43100D02*
X266950Y44050D01*
X268800D01*
X266000Y42200D02*
Y43100D01*
X263200Y42200D02*
X266000D01*
X120438Y88112D02*
X120450Y88125D01*
X117112Y88112D02*
X120438D01*
X117100Y88100D02*
X117112Y88112D01*
X117113Y79536D02*
X120438D01*
X117112Y70787D02*
X120437D01*
X270150Y35000D02*
X270150Y35000D01*
X279500D01*
X270150Y44000D02*
X270150Y44000D01*
X280000D01*
X184950Y62200D02*
X185000Y62250D01*
X187250D01*
X185150Y38850D02*
Y54750D01*
Y38850D02*
X188000Y36000D01*
X202000D01*
X193400Y54750D02*
X201750D01*
X203000Y56000D01*
X202500Y68650D02*
X202550Y68700D01*
X202500Y64250D02*
Y68650D01*
X192950Y62200D02*
X200450D01*
X202500Y64250D01*
D16*
X88700Y36800D02*
Y38059D01*
X90400Y35100D02*
X92100D01*
X88700Y36800D02*
X90400Y35100D01*
X62750Y43250D02*
X69750D01*
X80283Y41083D02*
X89788Y50588D01*
X92012D01*
X78100Y41300D02*
X78317Y41083D01*
X80283D01*
X78100Y41300D02*
Y42000D01*
X84100Y53200D02*
X92000D01*
X79000Y42000D02*
Y48100D01*
X84100Y53200D01*
X61250Y44750D02*
Y62100D01*
Y44750D02*
X62750Y43250D01*
D40*
X139000Y38000D02*
D03*
X134000D02*
D03*
D46*
X68800Y63450D02*
D03*
X66200D02*
D03*
Y61550D02*
D03*
Y62500D02*
D03*
X68800Y61550D02*
D03*
X120450Y70800D02*
D03*
Y72700D02*
D03*
X123050D02*
D03*
X120450Y71750D02*
D03*
X123050Y70800D02*
D03*
X120450Y79549D02*
D03*
Y81449D02*
D03*
X123050D02*
D03*
X120450Y80499D02*
D03*
X123050Y79549D02*
D03*
X120450Y90025D02*
D03*
X123050D02*
D03*
Y88125D02*
D03*
X120450Y89075D02*
D03*
Y88125D02*
D03*
D48*
X125250Y72150D02*
D03*
Y70850D02*
D03*
X125000Y80900D02*
D03*
Y79600D02*
D03*
Y89400D02*
D03*
Y88100D02*
D03*
X73000Y46100D02*
D03*
Y47400D02*
D03*
X74750Y46100D02*
D03*
Y47400D02*
D03*
X71250Y46100D02*
D03*
Y47400D02*
D03*
D57*
X265050Y30800D02*
D03*
X266000Y33200D02*
D03*
X266950Y30800D02*
D03*
X265050Y39800D02*
D03*
X266000Y42200D02*
D03*
X266950Y39800D02*
D03*
X180050Y50550D02*
D03*
X181000Y52950D02*
D03*
X181950Y50550D02*
D03*
X187800Y50550D02*
D03*
X188750Y52950D02*
D03*
X189700Y50550D02*
D03*
X188800Y60400D02*
D03*
X187850Y58000D02*
D03*
X189750D02*
D03*
X180800Y60400D02*
D03*
X179850Y58000D02*
D03*
X181750D02*
D03*
D58*
X71500Y63400D02*
D03*
Y62100D02*
D03*
X63500Y63400D02*
D03*
Y62100D02*
D03*
X61250Y63400D02*
D03*
Y62100D02*
D03*
D62*
X68850Y75000D02*
D03*
X70150D02*
D03*
Y73000D02*
D03*
X68850D02*
D03*
X270150Y35000D02*
D03*
X268850D02*
D03*
X270150Y44000D02*
D03*
X268850D02*
D03*
X185150Y54750D02*
D03*
X183850D02*
D03*
X193400Y54750D02*
D03*
X192100D02*
D03*
X191650Y62200D02*
D03*
X192950D02*
D03*
X183650Y62200D02*
D03*
X184950D02*
D03*
D67*
X63800Y75969D02*
Y79000D01*
X61800Y75500D02*
X63331D01*
X63800Y75969D01*
D68*
X126900Y88100D02*
X127000Y88000D01*
X125000Y88100D02*
X126900D01*
X68800Y58050D02*
Y61550D01*
X68750Y58000D02*
X68800Y58050D01*
X125250Y70850D02*
X126900D01*
X127000Y70750D01*
X123050Y70800D02*
X125200D01*
X125250Y70850D01*
X125000Y79600D02*
X126900D01*
X127000Y79500D01*
X123050Y79549D02*
X124949D01*
X125000Y79600D01*
X123050Y88125D02*
X124975D01*
X125000Y88100D01*
X118850Y92026D02*
X119699D01*
X120450Y91275D01*
Y90025D02*
Y91275D01*
X123801Y92026D02*
X124650D01*
X123050Y91275D02*
X123801Y92026D01*
X123050Y90025D02*
Y91275D01*
X118850Y83450D02*
X119699D01*
X120450Y82699D01*
Y81449D02*
Y82699D01*
X123802Y83450D02*
X124650D01*
X123050Y82699D02*
X123802Y83450D01*
X123050Y81449D02*
Y82699D01*
X123801Y74701D02*
X124650D01*
X123050Y73950D02*
X123801Y74701D01*
X123050Y72700D02*
Y73950D01*
X120450Y72700D02*
Y73950D01*
X119699Y74701D02*
X120450Y73950D01*
X118850Y74701D02*
X119699D01*
X118650Y74901D02*
Y75750D01*
Y74901D02*
X118850Y74701D01*
X118650Y93075D02*
X118725Y93000D01*
X68850Y75000D02*
Y75050D01*
Y73000D02*
Y75000D01*
X68750Y68800D02*
Y71050D01*
X68850Y71150D02*
Y73000D01*
X68750Y71050D02*
X68850Y71150D01*
X67950Y75050D02*
X68850D01*
X67200Y75800D02*
Y79000D01*
Y75800D02*
X67950Y75050D01*
D69*
X124850Y93000D02*
X130750D01*
X231240Y71740D02*
Y76200D01*
X229000Y69500D02*
X231240Y71740D01*
X264000Y67500D02*
X266250Y69750D01*
Y76250D01*
X124850Y84500D02*
X164682D01*
X299250Y65250D02*
X301440Y67440D01*
Y76250D01*
X217250Y65250D02*
X299250D01*
X212682Y73000D02*
X218182Y67500D01*
X124850Y84499D02*
Y84500D01*
X164682D02*
X176182Y73000D01*
X212682D01*
X175250Y70750D02*
X211750D01*
X217250Y65250D01*
X137250Y82250D02*
X163750D01*
X130750Y75750D02*
X137250Y82250D01*
X124850Y75750D02*
X130750D01*
X124850Y75675D02*
Y75750D01*
X163750Y82250D02*
X175250Y70750D01*
X218182Y67500D02*
X264000D01*
X137250Y86500D02*
X165510D01*
X124850Y93000D02*
Y93075D01*
X130750Y93000D02*
X137250Y86500D01*
X219010Y69500D02*
X229000D01*
X213510Y75000D02*
X219010Y69500D01*
X177010Y75000D02*
X213510D01*
X165510Y86500D02*
X177010Y75000D01*
D70*
X74775Y45275D02*
X74800Y45250D01*
X74775Y45275D02*
Y46075D01*
X74750Y46100D02*
X74775Y46075D01*
X68800Y63450D02*
X68825Y63425D01*
X71475D01*
X71500Y63400D01*
X68750Y66700D02*
X68775Y66675D01*
Y63475D02*
Y66675D01*
Y63475D02*
X68800Y63450D01*
X68000Y65500D02*
Y66700D01*
X67500Y65000D02*
X68000Y65500D01*
X67500Y61800D02*
Y65000D01*
X66200Y61550D02*
X67250D01*
X67500Y61800D01*
X63500Y63400D02*
X63525Y63425D01*
X66175D01*
X66200Y63450D01*
X61250Y63400D02*
X63500D01*
X63800Y46700D02*
Y48500D01*
X64400Y46100D02*
X71250D01*
X63800Y46700D02*
X64400Y46100D01*
X73000D02*
X74750D01*
X71250D02*
X73000D01*
D72*
X76000Y92500D02*
D03*
Y80000D02*
D03*
X108730Y34750D02*
D03*
X120770D02*
D03*
D73*
X40250Y80500D02*
D03*
Y76690D02*
D03*
X262060Y92250D02*
D03*
X258250D02*
D03*
X265870D02*
D03*
X269680D02*
D03*
X273490D02*
D03*
X277300D02*
D03*
X312370Y92250D02*
D03*
X308560D02*
D03*
X304750D02*
D03*
X300940D02*
D03*
X293320D02*
D03*
X297130D02*
D03*
X297630Y84250D02*
D03*
X305250D02*
D03*
X309060D02*
D03*
X301440D02*
D03*
X301440Y76250D02*
D03*
X305250D02*
D03*
X262250Y84250D02*
D03*
X269870D02*
D03*
X273680D02*
D03*
X266060D02*
D03*
X266250Y76250D02*
D03*
X270060D02*
D03*
X231240Y76200D02*
D03*
X235050D02*
D03*
X238860Y84200D02*
D03*
X235050D02*
D03*
X231240D02*
D03*
X227430D02*
D03*
X223120Y92200D02*
D03*
X226930D02*
D03*
X230740D02*
D03*
X234550D02*
D03*
X238360D02*
D03*
X242170D02*
D03*
D74*
X145050Y88700D02*
D03*
X203050D02*
D03*
X255500Y35000D02*
D03*
X234500D02*
D03*
X279500Y35000D02*
D03*
X258500D02*
D03*
X280000Y55000D02*
D03*
X222000D02*
D03*
X280000Y44000D02*
D03*
X222000D02*
D03*
X178000Y36000D02*
D03*
X157000D02*
D03*
X202000Y36000D02*
D03*
X181000D02*
D03*
X203000Y56000D02*
D03*
X145000D02*
D03*
X203000Y45000D02*
D03*
X145000D02*
D03*
X181550Y68700D02*
D03*
X202550D02*
D03*
X157550D02*
D03*
X178550D02*
D03*
X203050Y77700D02*
D03*
X145050D02*
D03*
X116000Y37450D02*
D03*
Y34250D02*
D03*
X113500D02*
D03*
Y37450D02*
D03*
D75*
X48980Y35520D02*
D03*
Y34250D02*
D03*
X51520D02*
D03*
X50250D02*
D03*
X51520Y35520D02*
D03*
X50250D02*
D03*
X152000Y41000D02*
D03*
Y52000D02*
D03*
Y56000D02*
D03*
Y60000D02*
D03*
Y74000D02*
D03*
Y78000D02*
D03*
Y88000D02*
D03*
Y92000D02*
D03*
X156000Y41000D02*
D03*
Y52000D02*
D03*
Y56000D02*
D03*
Y60000D02*
D03*
Y74000D02*
D03*
Y78000D02*
D03*
Y88000D02*
D03*
Y92000D02*
D03*
X160000Y41000D02*
D03*
Y52000D02*
D03*
Y56000D02*
D03*
Y60000D02*
D03*
Y74000D02*
D03*
Y78000D02*
D03*
Y88000D02*
D03*
Y92000D02*
D03*
X164000Y56000D02*
D03*
Y60000D02*
D03*
Y74000D02*
D03*
Y78000D02*
D03*
Y88000D02*
D03*
Y92000D02*
D03*
X168000Y41000D02*
D03*
Y52000D02*
D03*
Y56000D02*
D03*
Y60000D02*
D03*
Y88000D02*
D03*
Y92000D02*
D03*
X172000Y41000D02*
D03*
Y52000D02*
D03*
X172000Y56000D02*
D03*
X172000Y84000D02*
D03*
X172000Y88000D02*
D03*
Y92000D02*
D03*
X176000Y41000D02*
D03*
Y52000D02*
D03*
Y56000D02*
D03*
Y82000D02*
D03*
Y84000D02*
D03*
Y88000D02*
D03*
Y92000D02*
D03*
X180000Y41000D02*
D03*
Y78000D02*
D03*
Y82000D02*
D03*
Y84000D02*
D03*
Y88000D02*
D03*
Y92000D02*
D03*
X184000Y41000D02*
D03*
X184000Y78000D02*
D03*
Y82000D02*
D03*
X184000Y84000D02*
D03*
X184000Y88000D02*
D03*
Y92000D02*
D03*
X188000Y41000D02*
D03*
Y78000D02*
D03*
Y82000D02*
D03*
Y84000D02*
D03*
Y88000D02*
D03*
Y92000D02*
D03*
X192000Y41000D02*
D03*
Y82000D02*
D03*
Y84000D02*
D03*
Y88000D02*
D03*
Y92000D02*
D03*
X196000Y41000D02*
D03*
X196000Y82000D02*
D03*
X196000Y84000D02*
D03*
X196000Y88000D02*
D03*
Y92000D02*
D03*
X152000Y49000D02*
D03*
Y45000D02*
D03*
X156000Y49000D02*
D03*
Y45000D02*
D03*
X160000Y49000D02*
D03*
Y45000D02*
D03*
X168000D02*
D03*
Y49000D02*
D03*
X172000Y45000D02*
D03*
Y49000D02*
D03*
X176000Y45000D02*
D03*
Y49000D02*
D03*
X180000Y45000D02*
D03*
Y49000D02*
D03*
X184000Y45000D02*
D03*
Y49000D02*
D03*
X188000Y45000D02*
D03*
Y49000D02*
D03*
X192000Y45000D02*
D03*
Y49000D02*
D03*
X196000Y45000D02*
D03*
Y49000D02*
D03*
X169000Y74000D02*
D03*
X227000Y40000D02*
D03*
X235000D02*
D03*
X239000D02*
D03*
X243000D02*
D03*
X227000Y48000D02*
D03*
Y44000D02*
D03*
X231000Y48000D02*
D03*
Y44000D02*
D03*
X235000Y48000D02*
D03*
X247000Y44000D02*
D03*
X243000D02*
D03*
X239000D02*
D03*
X259000D02*
D03*
X255000D02*
D03*
X251000D02*
D03*
X271000Y48000D02*
D03*
X267000D02*
D03*
X247000Y40000D02*
D03*
X251000D02*
D03*
X255000D02*
D03*
X259000D02*
D03*
X227000Y51000D02*
D03*
X231000D02*
D03*
X235000D02*
D03*
X239000D02*
D03*
X243000D02*
D03*
X227000Y59000D02*
D03*
Y55000D02*
D03*
X231000Y59000D02*
D03*
Y55000D02*
D03*
X235000Y59000D02*
D03*
Y55000D02*
D03*
X247000D02*
D03*
Y59000D02*
D03*
X243000Y55000D02*
D03*
Y59000D02*
D03*
X239000Y55000D02*
D03*
Y59000D02*
D03*
X259000Y55000D02*
D03*
Y59000D02*
D03*
X255000Y55000D02*
D03*
Y59000D02*
D03*
X251000Y55000D02*
D03*
Y59000D02*
D03*
X267000D02*
D03*
X263000Y55000D02*
D03*
Y59000D02*
D03*
X247000Y51000D02*
D03*
X251000D02*
D03*
X255000D02*
D03*
X259000D02*
D03*
X263000D02*
D03*
X267000D02*
D03*
X271000D02*
D03*
D76*
X75500Y30500D02*
D03*
X77500Y32500D02*
D03*
Y30500D02*
D03*
X79500Y32500D02*
D03*
Y30500D02*
D03*
X67500Y32500D02*
D03*
Y30500D02*
D03*
X69500Y32500D02*
D03*
Y30500D02*
D03*
X71500Y32500D02*
D03*
Y30500D02*
D03*
X73500Y32500D02*
D03*
Y30500D02*
D03*
X75500Y32500D02*
D03*
D77*
X91664Y41991D02*
D03*
X91000Y36000D02*
D03*
X92100Y35100D02*
D03*
X69750Y43250D02*
D03*
X74800Y45250D02*
D03*
X88700Y38059D02*
D03*
X150000Y62000D02*
D03*
Y68000D02*
D03*
X155000Y62000D02*
D03*
Y68000D02*
D03*
X167000Y62000D02*
D03*
Y68000D02*
D03*
X178000Y60400D02*
D03*
X180000Y56000D02*
D03*
X184000Y52000D02*
D03*
Y56000D02*
D03*
Y60000D02*
D03*
X186000Y60400D02*
D03*
X188000Y56000D02*
D03*
X187250Y62250D02*
D03*
X192000Y52000D02*
D03*
Y56000D02*
D03*
Y60000D02*
D03*
X196000Y52000D02*
D03*
Y56000D02*
D03*
Y60000D02*
D03*
X178200Y52950D02*
D03*
X185950Y52950D02*
D03*
X186000Y69000D02*
D03*
X199000Y60000D02*
D03*
X189000Y63000D02*
D03*
Y69000D02*
D03*
X199000Y63000D02*
D03*
X254000Y31000D02*
D03*
X256000D02*
D03*
X263000Y29000D02*
D03*
Y31000D02*
D03*
X290000Y32000D02*
D03*
Y38000D02*
D03*
X300000D02*
D03*
Y32000D02*
D03*
X307000Y46000D02*
D03*
X313000D02*
D03*
Y51000D02*
D03*
X307000D02*
D03*
X313000Y56000D02*
D03*
X307000D02*
D03*
X299000Y62000D02*
D03*
X293000D02*
D03*
X299000Y71000D02*
D03*
X293000D02*
D03*
Y68000D02*
D03*
X299000D02*
D03*
X307000Y74000D02*
D03*
Y68000D02*
D03*
X313000D02*
D03*
Y73000D02*
D03*
Y81000D02*
D03*
Y86000D02*
D03*
X284000Y94000D02*
D03*
X243000D02*
D03*
X254000Y93000D02*
D03*
X284000Y86000D02*
D03*
X277000D02*
D03*
X284000Y81000D02*
D03*
X277000D02*
D03*
Y73000D02*
D03*
X284000D02*
D03*
Y68000D02*
D03*
X277000D02*
D03*
X254000Y73000D02*
D03*
Y77000D02*
D03*
Y82000D02*
D03*
Y86000D02*
D03*
X243000D02*
D03*
Y83000D02*
D03*
Y77000D02*
D03*
Y73000D02*
D03*
X213000Y92000D02*
D03*
X221000Y60000D02*
D03*
Y72000D02*
D03*
X216000Y78000D02*
D03*
Y60000D02*
D03*
X211000D02*
D03*
Y78000D02*
D03*
X207000D02*
D03*
X173000Y32000D02*
D03*
X167000D02*
D03*
X160000D02*
D03*
X206000Y33000D02*
D03*
X212000D02*
D03*
X218000D02*
D03*
Y38000D02*
D03*
X212000D02*
D03*
X206000D02*
D03*
X196000Y34000D02*
D03*
X192000D02*
D03*
X206000Y49000D02*
D03*
Y53000D02*
D03*
X207000Y92000D02*
D03*
Y88000D02*
D03*
X206000Y60000D02*
D03*
X203000Y63000D02*
D03*
X141000Y89000D02*
D03*
Y79000D02*
D03*
X145000Y62000D02*
D03*
Y68000D02*
D03*
X139000Y62000D02*
D03*
Y68000D02*
D03*
X133000Y62000D02*
D03*
Y68000D02*
D03*
X101000Y95000D02*
D03*
Y89000D02*
D03*
Y83000D02*
D03*
X118000Y61000D02*
D03*
Y68000D02*
D03*
X105000Y60000D02*
D03*
Y68000D02*
D03*
X100000Y60000D02*
D03*
Y68000D02*
D03*
X96000D02*
D03*
Y60000D02*
D03*
Y57000D02*
D03*
X99000Y47000D02*
D03*
X95000Y36000D02*
D03*
Y39000D02*
D03*
X47000Y71000D02*
D03*
X50000Y73000D02*
D03*
X51000Y71000D02*
D03*
X56000D02*
D03*
Y73000D02*
D03*
X47000D02*
D03*
X87000Y54000D02*
D03*
Y51000D02*
D03*
X83000Y49000D02*
D03*
Y53000D02*
D03*
X79000Y50000D02*
D03*
Y53000D02*
D03*
X62000Y46000D02*
D03*
X65000Y45000D02*
D03*
X59000Y38000D02*
D03*
X60000Y40000D02*
D03*
X71000Y39000D02*
D03*
X64000Y40000D02*
D03*
Y37000D02*
D03*
X72000D02*
D03*
X77000D02*
D03*
X90000Y31000D02*
D03*
X105000Y32000D02*
D03*
X99000D02*
D03*
X95000D02*
D03*
X93000Y34000D02*
D03*
X99000Y36000D02*
D03*
Y39000D02*
D03*
Y43000D02*
D03*
X105000Y36000D02*
D03*
Y39000D02*
D03*
X111000Y43000D02*
D03*
Y47000D02*
D03*
X105000Y43000D02*
D03*
Y47000D02*
D03*
X138000Y54000D02*
D03*
X139000Y50000D02*
D03*
X133000D02*
D03*
Y54000D02*
D03*
X129000Y50000D02*
D03*
Y54000D02*
D03*
X118000Y50000D02*
D03*
Y54000D02*
D03*
X111000Y50000D02*
D03*
Y54000D02*
D03*
X105000Y50000D02*
D03*
Y54000D02*
D03*
X103000Y56000D02*
D03*
X108000D02*
D03*
X112000Y60000D02*
D03*
X107000D02*
D03*
X114000Y74000D02*
D03*
X113000Y87000D02*
D03*
Y83000D02*
D03*
X116000D02*
D03*
Y86000D02*
D03*
Y91000D02*
D03*
Y95000D02*
D03*
X129000D02*
D03*
Y91000D02*
D03*
X133000Y93000D02*
D03*
Y88000D02*
D03*
Y76000D02*
D03*
Y80000D02*
D03*
Y83000D02*
D03*
Y86000D02*
D03*
X129000D02*
D03*
Y83000D02*
D03*
Y78000D02*
D03*
Y73000D02*
D03*
X110000Y74000D02*
D03*
Y95000D02*
D03*
Y91000D02*
D03*
Y84000D02*
D03*
X114000Y79000D02*
D03*
X110000D02*
D03*
X114000Y70000D02*
D03*
Y63000D02*
D03*
X110000D02*
D03*
Y69750D02*
D03*
X125250Y73250D02*
D03*
X126000Y80750D02*
D03*
X125000Y82000D02*
D03*
Y90750D02*
D03*
X126500Y89500D02*
D03*
X52000Y38250D02*
D03*
X55000D02*
D03*
X53500Y37000D02*
D03*
X71500Y75000D02*
D03*
X70250Y76250D02*
D03*
X263000Y44000D02*
D03*
X271000Y40000D02*
D03*
X81500Y46000D02*
D03*
Y52250D02*
D03*
X263200Y33200D02*
D03*
X263200Y42200D02*
D03*
X117100Y88100D02*
D03*
X117100Y79524D02*
D03*
X117100Y70775D02*
D03*
X78000Y38700D02*
D03*
Y39600D02*
D03*
Y40500D02*
D03*
X68750Y58000D02*
D03*
X127000Y70750D02*
D03*
Y79500D02*
D03*
Y88000D02*
D03*
X63800Y49600D02*
D03*
X54000Y86500D02*
D03*
Y85526D02*
D03*
Y84526D02*
D03*
Y83526D02*
D03*
Y82526D02*
D03*
X84600Y47700D02*
D03*
X69700Y40500D02*
D03*
X92012Y50588D02*
D03*
X92000Y53200D02*
D03*
X79000Y42000D02*
D03*
X78100D02*
D03*
X62500Y49600D02*
D03*
Y48500D02*
D03*
X63800D02*
D03*
X55610Y43393D02*
D03*
X54506Y43366D02*
D03*
X59260Y49663D02*
D03*
X60326Y48647D02*
D03*
X93250Y78000D02*
D03*
X95500D02*
D03*
X97750D02*
D03*
X93250Y88750D02*
D03*
X95500D02*
D03*
X97750D02*
D03*
Y81000D02*
D03*
X95500D02*
D03*
X93250D02*
D03*
X97750Y91750D02*
D03*
X95500D02*
D03*
X93250D02*
D03*
X53000Y82000D02*
D03*
Y83000D02*
D03*
Y84000D02*
D03*
Y85000D02*
D03*
Y86000D02*
D03*
Y86974D02*
D03*
X74000Y42250D02*
D03*
D78*
X67250Y68800D02*
D03*
X68750D02*
D03*
X67250Y66700D02*
D03*
X68750D02*
D03*
D79*
X68000Y68800D02*
D03*
Y66700D02*
D03*
D80*
X65500Y73535D02*
D03*
D81*
X64490Y71575D02*
D03*
D82*
X65855D02*
D03*
D83*
X65500Y88900D02*
D03*
D84*
X62100Y79000D02*
D03*
X63800D02*
D03*
X65500D02*
D03*
X67200D02*
D03*
X68900D02*
D03*
D85*
X83500Y78800D02*
D03*
Y77200D02*
D03*
X87000Y78800D02*
D03*
Y77200D02*
D03*
X90500Y78800D02*
D03*
Y77200D02*
D03*
X58000Y78700D02*
D03*
Y80300D02*
D03*
D86*
X60200Y75500D02*
D03*
X61800D02*
D03*
D87*
X124850Y75750D02*
D03*
X118650D02*
D03*
X124850Y84499D02*
D03*
X118650D02*
D03*
X118650Y93075D02*
D03*
X124850D02*
D03*
D88*
X98250Y88750D02*
X111250Y75750D01*
X97750Y88750D02*
X98250D01*
X111250Y75750D02*
X118650D01*
X113576Y84424D02*
X118725D01*
X107500Y90500D02*
X113576Y84424D01*
X97882Y90500D02*
X107500D01*
X99075Y93075D02*
X118650D01*
X97750Y91750D02*
X99075Y93075D01*
D89*
X65500Y73535D02*
Y79000D01*
M02*
