G04*
G04 #@! TF.GenerationSoftware,Altium Limited,Altium Designer,20.1.8 (145)*
G04*
G04 Layer_Color=8388736*
%FSLAX43Y43*%
%MOMM*%
G71*
G04*
G04 #@! TF.SameCoordinates,5712E5C3-EFE7-4622-A9FF-169796C5DE8E*
G04*
G04*
G04 #@! TF.FilePolarity,Negative*
G04*
G01*
G75*
%ADD18R,1.200X0.700*%
%ADD19R,1.500X5.800*%
G04:AMPARAMS|DCode=20|XSize=1mm|YSize=0.9mm|CornerRadius=0.25mm|HoleSize=0mm|Usage=FLASHONLY|Rotation=180.000|XOffset=0mm|YOffset=0mm|HoleType=Round|Shape=RoundedRectangle|*
%AMROUNDEDRECTD20*
21,1,1.000,0.400,0,0,180.0*
21,1,0.500,0.900,0,0,180.0*
1,1,0.500,-0.250,0.200*
1,1,0.500,0.250,0.200*
1,1,0.500,0.250,-0.200*
1,1,0.500,-0.250,-0.200*
%
%ADD20ROUNDEDRECTD20*%
%ADD21R,4.100X1.100*%
G04:AMPARAMS|DCode=22|XSize=1mm|YSize=0.9mm|CornerRadius=0.25mm|HoleSize=0mm|Usage=FLASHONLY|Rotation=90.000|XOffset=0mm|YOffset=0mm|HoleType=Round|Shape=RoundedRectangle|*
%AMROUNDEDRECTD22*
21,1,1.000,0.400,0,0,90.0*
21,1,0.500,0.900,0,0,90.0*
1,1,0.500,0.200,0.250*
1,1,0.500,0.200,-0.250*
1,1,0.500,-0.200,-0.250*
1,1,0.500,-0.200,0.250*
%
%ADD22ROUNDEDRECTD22*%
%ADD23R,1.100X4.100*%
%ADD24O,0.800X0.300*%
%ADD25R,0.350X0.800*%
%ADD26R,2.480X1.750*%
%ADD27R,1.190X1.190*%
%ADD28R,1.550X0.550*%
%ADD29R,0.700X1.000*%
%ADD30R,1.000X0.900*%
%ADD31R,2.400X2.200*%
%ADD32R,0.450X0.600*%
%ADD33R,0.950X0.950*%
%ADD34R,0.900X1.000*%
%ADD35O,0.300X0.800*%
%ADD36R,0.600X0.500*%
%ADD37R,3.000X3.000*%
%ADD38C,3.600*%
%ADD39C,2.300*%
%ADD40C,1.600*%
%ADD41C,1.700*%
%ADD42C,1.100*%
%ADD43C,1.400*%
%ADD44C,0.800*%
%ADD45C,0.903*%
D18*
X57300Y46800D02*
D03*
X54700D02*
D03*
Y48700D02*
D03*
Y47750D02*
D03*
X57300Y48700D02*
D03*
D19*
X48750Y66750D02*
D03*
X54750D02*
D03*
X48750Y57250D02*
D03*
X52750D02*
D03*
X50750D02*
D03*
Y66750D02*
D03*
D20*
X59250Y47350D02*
D03*
Y48650D02*
D03*
X53500Y39650D02*
D03*
Y38350D02*
D03*
X97750Y45400D02*
D03*
Y44100D02*
D03*
X100750Y45400D02*
D03*
Y44100D02*
D03*
X90500Y43350D02*
D03*
Y44650D02*
D03*
D21*
X95500Y79600D02*
D03*
X104100D02*
D03*
X95500Y90300D02*
D03*
X104100D02*
D03*
D22*
X52900Y51750D02*
D03*
X51600D02*
D03*
X96850Y55000D02*
D03*
X98150D02*
D03*
X81550Y41100D02*
D03*
X80250D02*
D03*
X93350Y43250D02*
D03*
X94650D02*
D03*
X76100Y47250D02*
D03*
X77400D02*
D03*
D23*
X51500Y84300D02*
D03*
Y75700D02*
D03*
D24*
X72025Y42450D02*
D03*
Y41250D02*
D03*
Y41650D02*
D03*
Y42050D02*
D03*
Y42850D02*
D03*
Y40850D02*
D03*
Y43650D02*
D03*
Y43250D02*
D03*
X75975Y40850D02*
D03*
Y41250D02*
D03*
Y41650D02*
D03*
Y42050D02*
D03*
Y42450D02*
D03*
Y42850D02*
D03*
Y43250D02*
D03*
Y43650D02*
D03*
D25*
X92100Y37450D02*
D03*
X90750D02*
D03*
X93000D02*
D03*
X92550D02*
D03*
X91650D02*
D03*
X91200D02*
D03*
X91650Y40250D02*
D03*
X91200D02*
D03*
X90750D02*
D03*
X93000D02*
D03*
X92550D02*
D03*
X92100D02*
D03*
D26*
X91850Y38850D02*
D03*
D27*
X121100Y50500D02*
D03*
X123200D02*
D03*
X121100Y53500D02*
D03*
X123200D02*
D03*
D28*
X93800Y53225D02*
D03*
Y52575D02*
D03*
Y51925D02*
D03*
Y51275D02*
D03*
X98200D02*
D03*
Y51925D02*
D03*
Y52575D02*
D03*
Y53225D02*
D03*
D29*
X108000Y51100D02*
D03*
X107050Y53500D02*
D03*
X108950D02*
D03*
X84550Y45300D02*
D03*
X86450D02*
D03*
X85500Y47700D02*
D03*
D30*
X103000Y51550D02*
D03*
Y52850D02*
D03*
X55000Y41100D02*
D03*
Y42400D02*
D03*
X53500D02*
D03*
Y41100D02*
D03*
D31*
X114000Y54300D02*
D03*
Y49700D02*
D03*
D32*
X79950Y43600D02*
D03*
X78750D02*
D03*
Y42850D02*
D03*
X79950D02*
D03*
D33*
X81500Y42900D02*
D03*
Y44300D02*
D03*
D34*
X72650Y49250D02*
D03*
X71350D02*
D03*
X71375Y47250D02*
D03*
X72675D02*
D03*
X94650Y47750D02*
D03*
X93350D02*
D03*
X94650Y45500D02*
D03*
X93350D02*
D03*
X102100Y40050D02*
D03*
X100800D02*
D03*
X102100Y37500D02*
D03*
X100800D02*
D03*
D35*
X75400Y40275D02*
D03*
X75000D02*
D03*
X74600Y44225D02*
D03*
X75000D02*
D03*
X75400D02*
D03*
X74200D02*
D03*
X73800D02*
D03*
X73400D02*
D03*
X73000D02*
D03*
X72600D02*
D03*
Y40275D02*
D03*
X73000D02*
D03*
X73400D02*
D03*
X73800D02*
D03*
X74200D02*
D03*
X74600D02*
D03*
D36*
X56550Y35500D02*
D03*
X55250D02*
D03*
D37*
X74000Y42250D02*
D03*
D38*
X76000Y92500D02*
D03*
Y80000D02*
D03*
X108730Y34750D02*
D03*
X120770D02*
D03*
D39*
X40250Y80500D02*
D03*
Y76690D02*
D03*
X262060Y92250D02*
D03*
X258250D02*
D03*
X265870D02*
D03*
X269680D02*
D03*
X273490D02*
D03*
X277300D02*
D03*
X312370Y92250D02*
D03*
X308560D02*
D03*
X304750D02*
D03*
X300940D02*
D03*
X293320D02*
D03*
X297130D02*
D03*
X297630Y84250D02*
D03*
X305250D02*
D03*
X309060D02*
D03*
X301440D02*
D03*
X301440Y76250D02*
D03*
X305250D02*
D03*
X262250Y84250D02*
D03*
X269870D02*
D03*
X273680D02*
D03*
X266060D02*
D03*
X266250Y76250D02*
D03*
X270060D02*
D03*
X231240Y76200D02*
D03*
X235050D02*
D03*
X238860Y84200D02*
D03*
X235050D02*
D03*
X231240D02*
D03*
X227430D02*
D03*
X223120Y92200D02*
D03*
X226930D02*
D03*
X230740D02*
D03*
X234550D02*
D03*
X238360D02*
D03*
X242170D02*
D03*
D40*
X145050Y88700D02*
D03*
X203050D02*
D03*
X255500Y35000D02*
D03*
X234500D02*
D03*
X279500Y35000D02*
D03*
X258500D02*
D03*
X280000Y55000D02*
D03*
X222000D02*
D03*
X280000Y44000D02*
D03*
X222000D02*
D03*
X178000Y36000D02*
D03*
X157000D02*
D03*
X202000Y36000D02*
D03*
X181000D02*
D03*
X203000Y56000D02*
D03*
X145000D02*
D03*
X203000Y45000D02*
D03*
X145000D02*
D03*
X181550Y68700D02*
D03*
X202550D02*
D03*
X157550D02*
D03*
X178550D02*
D03*
X203050Y77700D02*
D03*
X145050D02*
D03*
X116000Y37450D02*
D03*
Y34250D02*
D03*
X113500D02*
D03*
Y37450D02*
D03*
D41*
X139000Y38000D02*
D03*
X134000D02*
D03*
D42*
X48980Y35520D02*
D03*
Y34250D02*
D03*
X51520D02*
D03*
X50250D02*
D03*
X51520Y35520D02*
D03*
X50250D02*
D03*
X152000Y41000D02*
D03*
Y52000D02*
D03*
Y56000D02*
D03*
Y60000D02*
D03*
Y74000D02*
D03*
Y78000D02*
D03*
Y88000D02*
D03*
Y92000D02*
D03*
X156000Y41000D02*
D03*
Y52000D02*
D03*
Y56000D02*
D03*
Y60000D02*
D03*
Y74000D02*
D03*
Y78000D02*
D03*
Y88000D02*
D03*
Y92000D02*
D03*
X160000Y41000D02*
D03*
Y52000D02*
D03*
Y56000D02*
D03*
Y60000D02*
D03*
Y74000D02*
D03*
Y78000D02*
D03*
Y88000D02*
D03*
Y92000D02*
D03*
X164000Y56000D02*
D03*
Y60000D02*
D03*
Y74000D02*
D03*
Y78000D02*
D03*
Y88000D02*
D03*
Y92000D02*
D03*
X168000Y41000D02*
D03*
Y52000D02*
D03*
Y56000D02*
D03*
Y60000D02*
D03*
Y88000D02*
D03*
Y92000D02*
D03*
X172000Y41000D02*
D03*
Y52000D02*
D03*
X172000Y56000D02*
D03*
X172000Y84000D02*
D03*
X172000Y88000D02*
D03*
Y92000D02*
D03*
X176000Y41000D02*
D03*
Y52000D02*
D03*
Y56000D02*
D03*
Y82000D02*
D03*
Y84000D02*
D03*
Y88000D02*
D03*
Y92000D02*
D03*
X180000Y41000D02*
D03*
Y78000D02*
D03*
Y82000D02*
D03*
Y84000D02*
D03*
Y88000D02*
D03*
Y92000D02*
D03*
X184000Y41000D02*
D03*
X184000Y78000D02*
D03*
Y82000D02*
D03*
X184000Y84000D02*
D03*
X184000Y88000D02*
D03*
Y92000D02*
D03*
X188000Y41000D02*
D03*
Y78000D02*
D03*
Y82000D02*
D03*
Y84000D02*
D03*
Y88000D02*
D03*
Y92000D02*
D03*
X192000Y41000D02*
D03*
Y82000D02*
D03*
Y84000D02*
D03*
Y88000D02*
D03*
Y92000D02*
D03*
X196000Y41000D02*
D03*
X196000Y82000D02*
D03*
X196000Y84000D02*
D03*
X196000Y88000D02*
D03*
Y92000D02*
D03*
X152000Y49000D02*
D03*
Y45000D02*
D03*
X156000Y49000D02*
D03*
Y45000D02*
D03*
X160000Y49000D02*
D03*
Y45000D02*
D03*
X168000D02*
D03*
Y49000D02*
D03*
X172000Y45000D02*
D03*
Y49000D02*
D03*
X176000Y45000D02*
D03*
Y49000D02*
D03*
X180000Y45000D02*
D03*
Y49000D02*
D03*
X184000Y45000D02*
D03*
Y49000D02*
D03*
X188000Y45000D02*
D03*
Y49000D02*
D03*
X192000Y45000D02*
D03*
Y49000D02*
D03*
X196000Y45000D02*
D03*
Y49000D02*
D03*
X169000Y74000D02*
D03*
X227000Y40000D02*
D03*
X235000D02*
D03*
X239000D02*
D03*
X243000D02*
D03*
X227000Y48000D02*
D03*
Y44000D02*
D03*
X231000Y48000D02*
D03*
Y44000D02*
D03*
X235000Y48000D02*
D03*
X247000Y44000D02*
D03*
X243000D02*
D03*
X239000D02*
D03*
X259000D02*
D03*
X255000D02*
D03*
X251000D02*
D03*
X271000Y48000D02*
D03*
X267000D02*
D03*
X247000Y40000D02*
D03*
X251000D02*
D03*
X255000D02*
D03*
X259000D02*
D03*
X227000Y51000D02*
D03*
X231000D02*
D03*
X235000D02*
D03*
X239000D02*
D03*
X243000D02*
D03*
X227000Y59000D02*
D03*
Y55000D02*
D03*
X231000Y59000D02*
D03*
Y55000D02*
D03*
X235000Y59000D02*
D03*
Y55000D02*
D03*
X247000D02*
D03*
Y59000D02*
D03*
X243000Y55000D02*
D03*
Y59000D02*
D03*
X239000Y55000D02*
D03*
Y59000D02*
D03*
X259000Y55000D02*
D03*
Y59000D02*
D03*
X255000Y55000D02*
D03*
Y59000D02*
D03*
X251000Y55000D02*
D03*
Y59000D02*
D03*
X267000D02*
D03*
X263000Y55000D02*
D03*
Y59000D02*
D03*
X247000Y51000D02*
D03*
X251000D02*
D03*
X255000D02*
D03*
X259000D02*
D03*
X263000D02*
D03*
X267000D02*
D03*
X271000D02*
D03*
D43*
X75500Y30500D02*
D03*
X77500Y32500D02*
D03*
Y30500D02*
D03*
X79500Y32500D02*
D03*
Y30500D02*
D03*
X67500Y32500D02*
D03*
Y30500D02*
D03*
X69500Y32500D02*
D03*
Y30500D02*
D03*
X71500Y32500D02*
D03*
Y30500D02*
D03*
X73500Y32500D02*
D03*
Y30500D02*
D03*
X75500Y32500D02*
D03*
D44*
X180000Y56000D02*
D03*
X184000Y52000D02*
D03*
Y56000D02*
D03*
Y60000D02*
D03*
X188000Y56000D02*
D03*
X192000Y52000D02*
D03*
Y56000D02*
D03*
Y60000D02*
D03*
X196000Y52000D02*
D03*
Y56000D02*
D03*
Y60000D02*
D03*
X263000Y44000D02*
D03*
X271000Y40000D02*
D03*
D45*
X74000Y42250D02*
D03*
M02*
