G04*
G04 #@! TF.GenerationSoftware,Altium Limited,Altium Designer,20.1.8 (145)*
G04*
G04 Layer_Color=32896*
%FSTAX43Y43*%
%MOMM*%
G71*
G04*
G04 #@! TF.SameCoordinates,2A16773C-52DC-48A9-8AED-0FD1CCCC5E16*
G04*
G04*
G04 #@! TF.FilePolarity,Positive*
G04*
G01*
G75*
%ADD10C,0.250*%
%ADD14C,0.150*%
%ADD15C,0.200*%
%ADD76C,0.500*%
D10*
X0104724Y0106054D02*
G03*
X0104724Y0106054I-0000125J0D01*
G01*
X0098849Y0090654D02*
G03*
X0098849Y0090654I-0000125J0D01*
G01*
X0101974Y0101854D02*
G03*
X0101974Y0101854I-0000125J0D01*
G01*
X0114024Y0102954D02*
G03*
X0114024Y0102954I-0000125J0D01*
G01*
X0108349Y0083579D02*
G03*
X0108349Y0083579I-0000125J0D01*
G01*
D14*
X0103399Y0079129D02*
X0104149D01*
X0103399D02*
Y0079379D01*
X0106799Y0079129D02*
X0107549D01*
Y0079379D01*
X0103399Y0082329D02*
X0104149D01*
X0103399Y0082079D02*
Y0082329D01*
X0107549Y0082079D02*
Y0082329D01*
X0106799D02*
X0107549D01*
X0103399Y0079379D02*
X0103624Y0079154D01*
X0105349Y0106404D02*
X0105749D01*
X0105349Y0108504D02*
X0105749D01*
X0105349Y0106404D02*
Y0108504D01*
X0105749Y0106404D02*
Y0108504D01*
X0115999Y0092804D02*
X0118099D01*
X0115999Y0089704D02*
X0118099D01*
X0099874Y0091004D02*
Y0093104D01*
X0099474Y0091004D02*
Y0093104D01*
X0099874D01*
X0099474Y0091004D02*
X0099874D01*
X0098399Y0103004D02*
X0098999D01*
X0098399Y0102604D02*
X0098999D01*
X0099399Y0103004D02*
X0101499D01*
X0099399Y0102604D02*
X0101499D01*
X0099399D02*
Y0103004D01*
X0101499Y0102604D02*
Y0103004D01*
X0114874Y0103754D02*
X0115474D01*
X0114874Y0103354D02*
X0115474D01*
X0112749Y0100504D02*
Y0102604D01*
X0113149Y0100504D02*
Y0102604D01*
X0112749Y0100504D02*
X0113149D01*
X0112749Y0102604D02*
X0113149D01*
X0100124Y0080129D02*
X0102524D01*
X0100124Y0081329D02*
X0102524D01*
X0108374Y0079329D02*
Y0082929D01*
X0111374Y0079329D02*
Y0082929D01*
X0093224Y0093904D02*
X0100524D01*
Y0101254D01*
X0093224D02*
X0100524D01*
X0093224Y0093904D02*
Y0101254D01*
X0094149Y0102604D02*
X0094749D01*
Y0102904D01*
X0094649Y0103004D01*
X0094449D01*
X0094349Y0102904D01*
Y0102604D01*
Y0102804D02*
X0094149Y0103004D01*
Y0103204D02*
Y0103404D01*
Y0103304D01*
X0094749D01*
X0094649Y0103204D01*
Y0103704D02*
X0094749Y0103804D01*
Y0104004D01*
X0094649Y0104104D01*
X0094249D01*
X0094149Y0104004D01*
Y0103804D01*
X0094249Y0103704D01*
X0094649D01*
X0106149Y0083604D02*
Y0083004D01*
X0105849D01*
X0105749Y0083104D01*
Y0083504D01*
X0105849Y0083604D01*
X0106149D01*
X0105549Y0083004D02*
Y0083404D01*
X0105349Y0083604D01*
X0105149Y0083404D01*
Y0083004D01*
Y0083304D01*
X0105549D01*
X0104949Y0083004D02*
X0104749D01*
X0104849D01*
Y0083604D01*
X0104949Y0083504D01*
X0117049Y0093754D02*
X0117149Y0093854D01*
X0117349D01*
X0117449Y0093754D01*
Y0093354D01*
X0117349Y0093254D01*
X0117149D01*
X0117049Y0093354D01*
X0116849D02*
X0116749Y0093254D01*
X0116549D01*
X0116449Y0093354D01*
Y0093754D01*
X0116549Y0093854D01*
X0116749D01*
X0116849Y0093754D01*
Y0093654D01*
X0116749Y0093554D01*
X0116449D01*
X0099499Y0088304D02*
X0098899D01*
Y0088604D01*
X0098999Y0088704D01*
X0099399D01*
X0099499Y0088604D01*
Y0088304D01*
X0098899Y0089304D02*
Y0088904D01*
X0099299Y0089304D01*
X0099399D01*
X0099499Y0089204D01*
Y0089004D01*
X0099399Y0088904D01*
X0095599Y0090604D02*
Y0090004D01*
X0095299D01*
X0095199Y0090104D01*
Y0090504D01*
X0095299Y0090604D01*
X0095599D01*
X0094999Y0090004D02*
X0094799D01*
X0094899D01*
Y0090604D01*
X0094999Y0090504D01*
X0106199Y0114254D02*
Y0114854D01*
X0105899D01*
X0105799Y0114754D01*
Y0114554D01*
X0105899Y0114454D01*
X0106199D01*
X0105999D02*
X0105799Y0114254D01*
X0105599D02*
X0105399D01*
X0105499D01*
Y0114854D01*
X0105599Y0114754D01*
X0104799Y0114254D02*
Y0114854D01*
X0105099Y0114554D01*
X0104699D01*
X0095974Y0082804D02*
X0096574D01*
Y0083104D01*
X0096474Y0083204D01*
X0096274D01*
X0096174Y0083104D01*
Y0082804D01*
Y0083004D02*
X0095974Y0083204D01*
X0096074Y0083404D02*
X0095974Y0083504D01*
Y0083704D01*
X0096074Y0083804D01*
X0096474D01*
X0096574Y0083704D01*
Y0083504D01*
X0096474Y0083404D01*
X0096374D01*
X0096274Y0083504D01*
Y0083804D01*
X0092449Y0093054D02*
Y0093654D01*
X0092149D01*
X0092049Y0093554D01*
Y0093354D01*
X0092149Y0093254D01*
X0092449D01*
X0092249D02*
X0092049Y0093054D01*
X0091849Y0093554D02*
X0091749Y0093654D01*
X0091549D01*
X0091449Y0093554D01*
Y0093454D01*
X0091549Y0093354D01*
X0091449Y0093254D01*
Y0093154D01*
X0091549Y0093054D01*
X0091749D01*
X0091849Y0093154D01*
Y0093254D01*
X0091749Y0093354D01*
X0091849Y0093454D01*
Y0093554D01*
X0091749Y0093354D02*
X0091549D01*
X0110049Y0084304D02*
X0110149Y0084404D01*
X0110349D01*
X0110449Y0084304D01*
Y0083904D01*
X0110349Y0083804D01*
X0110149D01*
X0110049Y0083904D01*
X0109549Y0083804D02*
Y0084404D01*
X0109849Y0084104D01*
X0109449D01*
X0101549Y0083554D02*
X0101649Y0083654D01*
X0101849D01*
X0101949Y0083554D01*
Y0083154D01*
X0101849Y0083054D01*
X0101649D01*
X0101549Y0083154D01*
X0101349Y0083554D02*
X0101249Y0083654D01*
X0101049D01*
X0100949Y0083554D01*
Y0083454D01*
X0101049Y0083354D01*
X0101149D01*
X0101049D01*
X0100949Y0083254D01*
Y0083154D01*
X0101049Y0083054D01*
X0101249D01*
X0101349Y0083154D01*
X0111049Y0105554D02*
X0110649D01*
X0110449Y0105754D01*
X0110649Y0105954D01*
X0111049D01*
Y0106154D02*
X0110449D01*
Y0106454D01*
X0110549Y0106554D01*
X0110949D01*
X0111049Y0106454D01*
Y0106154D01*
X0110449Y0107054D02*
X0111049D01*
X0110749Y0106754D01*
Y0107153D01*
X0106449Y0109904D02*
Y0109504D01*
X0106249Y0109304D01*
X0106049Y0109504D01*
Y0109904D01*
X0105849D02*
X0105449D01*
X0105649D01*
Y0109304D01*
X0105249Y0109804D02*
X0105149Y0109904D01*
X0104949D01*
X010485Y0109804D01*
Y0109704D01*
X0104949Y0109604D01*
X0105049D01*
X0104949D01*
X010485Y0109504D01*
Y0109404D01*
X0104949Y0109304D01*
X0105149D01*
X0105249Y0109404D01*
X0103174Y0102254D02*
X0102774D01*
X0102574Y0102454D01*
X0102774Y0102654D01*
X0103174D01*
Y0102854D02*
Y0103254D01*
Y0103054D01*
X0102574D01*
Y0103853D02*
Y0103454D01*
X0102974Y0103853D01*
X0103074D01*
X0103174Y0103754D01*
Y0103554D01*
X0103074Y0103454D01*
X0113699Y0099904D02*
Y0099504D01*
X0113499Y0099304D01*
X0113299Y0099504D01*
Y0099904D01*
X0113099D02*
X0112699D01*
X0112899D01*
Y0099304D01*
X0112499D02*
X0112299D01*
X0112399D01*
Y0099904D01*
X0112499Y0099804D01*
X0101749Y0107404D02*
X0101349D01*
X0101149Y0107604D01*
X0101349Y0107804D01*
X0101749D01*
Y0108004D02*
X0101149D01*
Y0108304D01*
X0101249Y0108404D01*
X0101649D01*
X0101749Y0108304D01*
Y0108004D01*
X0101649Y0108604D02*
X0101749Y0108704D01*
Y0108904D01*
X0101649Y0109003D01*
X0101549D01*
X0101449Y0108904D01*
Y0108804D01*
Y0108904D01*
X0101349Y0109003D01*
X0101249D01*
X0101149Y0108904D01*
Y0108704D01*
X0101249Y0108604D01*
X0105149Y0101579D02*
X0105749D01*
Y0101879D01*
X0105649Y0101979D01*
X0105449D01*
X0105349Y0101879D01*
Y0101579D01*
Y0101779D02*
X0105149Y0101979D01*
X0105749Y0102179D02*
Y0102579D01*
X0105649D01*
X0105249Y0102179D01*
X0105149D01*
X0107924Y0104079D02*
X0108524D01*
Y0104379D01*
X0108424Y0104479D01*
X0108224D01*
X0108124Y0104379D01*
Y0104079D01*
Y0104279D02*
X0107924Y0104479D01*
X0108524Y0105079D02*
X0108424Y0104879D01*
X0108224Y0104679D01*
X0108024D01*
X0107924Y0104779D01*
Y0104979D01*
X0108024Y0105079D01*
X0108124D01*
X0108224Y0104979D01*
Y0104679D01*
X0102424Y0107479D02*
X0103024D01*
Y0107779D01*
X0102924Y0107879D01*
X0102724D01*
X0102624Y0107779D01*
Y0107479D01*
Y0107679D02*
X0102424Y0107879D01*
X0103024Y0108479D02*
Y0108079D01*
X0102724D01*
X0102824Y0108279D01*
Y0108379D01*
X0102724Y0108479D01*
X0102524D01*
X0102424Y0108379D01*
Y0108179D01*
X0102524Y0108079D01*
X0098449Y0106729D02*
X0099049D01*
Y0107029D01*
X0098949Y0107129D01*
X0098749D01*
X0098649Y0107029D01*
Y0106729D01*
Y0106929D02*
X0098449Y0107129D01*
Y0107629D02*
X0099049D01*
X0098749Y0107329D01*
Y0107729D01*
X0116449Y0100054D02*
Y0100654D01*
X0116149D01*
X0116049Y0100554D01*
Y0100354D01*
X0116149Y0100254D01*
X0116449D01*
X0116249D02*
X0116049Y0100054D01*
X0115849Y0100554D02*
X0115749Y0100654D01*
X0115549D01*
X0115449Y0100554D01*
Y0100454D01*
X0115549Y0100354D01*
X0115649D01*
X0115549D01*
X0115449Y0100254D01*
Y0100154D01*
X0115549Y0100054D01*
X0115749D01*
X0115849Y0100154D01*
X0097249Y0109204D02*
X0097849D01*
Y0109504D01*
X0097749Y0109604D01*
X0097549D01*
X0097449Y0109504D01*
Y0109204D01*
Y0109404D02*
X0097249Y0109604D01*
Y0110204D02*
Y0109804D01*
X0097649Y0110204D01*
X0097749D01*
X0097849Y0110104D01*
Y0109904D01*
X0097749Y0109804D01*
X0116474Y0105304D02*
X0117074D01*
Y0105604D01*
X0116974Y0105704D01*
X0116774D01*
X0116674Y0105604D01*
Y0105304D01*
Y0105504D02*
X0116474Y0105704D01*
Y0105904D02*
Y0106104D01*
Y0106004D01*
X0117074D01*
X0116974Y0105904D01*
X0098649Y0095254D02*
Y0094854D01*
X0098849Y0095054D02*
X0098449D01*
X0098949Y0094654D02*
X0098449D01*
X0098349Y0094554D01*
Y0094354D01*
X0098449Y0094254D01*
X0098949D01*
X0099049Y0099554D02*
Y0099954D01*
Y0099754D01*
X0098449D01*
X0099049Y0100154D02*
X0098449D01*
Y0100454D01*
X0098549Y0100554D01*
X0098949D01*
X0099049Y0100454D01*
Y0100154D01*
X0102124Y0091304D02*
X0101524D01*
Y0091604D01*
X0101624Y0091704D01*
X0102024D01*
X0102124Y0091604D01*
Y0091304D01*
Y0091904D02*
X0101524D01*
Y0092204D01*
X0101624Y0092304D01*
X0102024D01*
X0102124Y0092204D01*
Y0091904D01*
X0101524Y0092504D02*
Y0092704D01*
Y0092604D01*
X0102124D01*
X0102024Y0092504D01*
X0097924Y0102604D02*
X0098024Y0102504D01*
Y0102304D01*
X0097924Y0102204D01*
X0097524D01*
X0097424Y0102304D01*
Y0102504D01*
X0097524Y0102604D01*
X0097424Y0102804D02*
Y0103004D01*
Y0102904D01*
X0098024D01*
X0097924Y0102804D01*
X0097424Y0103304D02*
Y0103504D01*
Y0103404D01*
X0098024D01*
X0097924Y0103304D01*
X0115349Y0105354D02*
X0115449Y0105254D01*
Y0105054D01*
X0115349Y0104954D01*
X0114949D01*
X0114849Y0105054D01*
Y0105254D01*
X0114949Y0105354D01*
X0114849Y0105554D02*
Y0105754D01*
Y0105654D01*
X0115449D01*
X0115349Y0105554D01*
Y0106054D02*
X0115449Y0106154D01*
Y0106354D01*
X0115349Y0106454D01*
X0114949D01*
X0114849Y0106354D01*
Y0106154D01*
X0114949Y0106054D01*
X0115349D01*
D15*
X0093649Y0103254D02*
Y0103454D01*
X0093049Y0103254D02*
Y0103454D01*
X0105449Y0113679D02*
X0105649D01*
X0105449Y0113079D02*
X0105649D01*
X0105149Y0103954D02*
Y0104154D01*
X0105749Y0103954D02*
Y0104154D01*
X0091849Y0091754D02*
X0092049D01*
X0091849Y0092354D02*
X0092049D01*
X0095949Y0088929D02*
X0097749D01*
X0095249Y0091154D02*
Y0092954D01*
X0095924Y0085254D02*
Y0085454D01*
X0096524Y0085254D02*
Y0085454D01*
X0097149Y0107704D02*
Y0107904D01*
X0097749Y0107704D02*
Y0107904D01*
X0107899Y0106454D02*
Y0106654D01*
X0108499Y0106454D02*
Y0106654D01*
X0109049Y0106604D02*
X0109949D01*
X0108949Y0105354D02*
X0109949D01*
Y0107554D01*
X0108949D02*
X0109949D01*
X0108949Y0105354D02*
Y0107554D01*
X0115824Y0101254D02*
X0116024D01*
X0115824Y0101854D02*
X0116024D01*
X0101049Y0106104D02*
X0101949D01*
X0100949Y0104854D02*
X0101949D01*
Y0107054D01*
X0100949D02*
X0101949D01*
X0100949Y0104854D02*
Y0107054D01*
X0102399Y0105704D02*
Y0105904D01*
X0102999Y0105704D02*
Y0105904D01*
X0116374Y0103454D02*
Y0103654D01*
X0116974Y0103454D02*
Y0103654D01*
X0098999Y0105204D02*
Y0105404D01*
X0098399Y0105204D02*
Y0105404D01*
D76*
X0098149Y0088029D02*
D03*
X0094349Y0090754D02*
D03*
M02*
