G04*
G04 #@! TF.GenerationSoftware,Altium Limited,Altium Designer,20.1.8 (145)*
G04*
G04 Layer_Physical_Order=2*
G04 Layer_Color=16711680*
%FSTAX43Y43*%
%MOMM*%
G71*
G04*
G04 #@! TF.SameCoordinates,F5FA2015-3190-45B9-AB56-6F14DCCDFD5E*
G04*
G04*
G04 #@! TF.FilePolarity,Positive*
G04*
G01*
G75*
%ADD12C,0.200*%
%ADD36C,1.700*%
%ADD41C,0.600*%
%ADD63C,1.600*%
%ADD64C,2.000*%
%ADD65R,2.000X2.000*%
%ADD66R,2.000X2.000*%
%ADD67C,0.500*%
G36*
X0116694Y005799D02*
X01143D01*
Y005559D01*
X0116694D01*
Y0054835D01*
X0116567Y005481D01*
X0116548Y0054855D01*
X0116356Y0055106D01*
X0116105Y0055298D01*
X0115813Y0055419D01*
X01155Y005546D01*
X0115187Y0055419D01*
X0114895Y0055298D01*
X0114644Y0055106D01*
X0114452Y0054855D01*
X0114331Y0054563D01*
X011429Y005425D01*
X0114331Y0053937D01*
X0114452Y0053645D01*
X0114644Y0053394D01*
X0114895Y0053202D01*
X0115187Y0053081D01*
X0115467Y0053044D01*
Y0052916D01*
X0115187Y0052879D01*
X0114895Y0052758D01*
X0114644Y0052566D01*
X0114452Y0052315D01*
X0114331Y0052023D01*
X011429Y005171D01*
X0114331Y0051397D01*
X0114452Y0051105D01*
X0114644Y0050854D01*
X0114895Y0050662D01*
X0115187Y0050541D01*
X0115467Y0050504D01*
Y0050376D01*
X0115187Y0050339D01*
X0114895Y0050218D01*
X0114644Y0050026D01*
X0114452Y0049775D01*
X0114331Y0049483D01*
X011429Y004917D01*
X0114331Y0048857D01*
X0114452Y0048565D01*
X0114644Y0048314D01*
X0114895Y0048122D01*
X0115187Y0048001D01*
X01155Y004796D01*
X0115813Y0048001D01*
X0116105Y0048122D01*
X0116356Y0048314D01*
X0116548Y0048565D01*
X0116567Y0048611D01*
X0116694Y0048585D01*
Y0026306D01*
X0031306D01*
Y0079694D01*
X0116694D01*
Y005799D01*
D02*
G37*
%LPC*%
G36*
X0114Y0079261D02*
X0113559Y0079217D01*
X0113135Y0079089D01*
X0112744Y007888D01*
X0112401Y0078599D01*
X011212Y0078256D01*
X0111911Y0077865D01*
X0111783Y0077441D01*
X0111739Y0077D01*
X0111783Y0076559D01*
X0111911Y0076135D01*
X011212Y0075744D01*
X0112401Y0075401D01*
X0112744Y007512D01*
X0113135Y0074911D01*
X0113559Y0074783D01*
X0114Y0074739D01*
X0114441Y0074783D01*
X0114865Y0074911D01*
X0115256Y007512D01*
X0115599Y0075401D01*
X011588Y0075744D01*
X0116089Y0076135D01*
X0116217Y0076559D01*
X0116261Y0077D01*
X0116217Y0077441D01*
X0116089Y0077865D01*
X011588Y0078256D01*
X0115599Y0078599D01*
X0115256Y007888D01*
X0114865Y0079089D01*
X0114441Y0079217D01*
X0114Y0079261D01*
D02*
G37*
G36*
X0034D02*
X0033559Y0079217D01*
X0033135Y0079089D01*
X0032744Y007888D01*
X0032401Y0078599D01*
X003212Y0078256D01*
X0031911Y0077865D01*
X0031783Y0077441D01*
X0031739Y0077D01*
X0031783Y0076559D01*
X0031911Y0076135D01*
X003212Y0075744D01*
X0032401Y0075401D01*
X0032744Y007512D01*
X0033135Y0074911D01*
X0033559Y0074783D01*
X0034Y0074739D01*
X0034441Y0074783D01*
X0034865Y0074911D01*
X0035256Y007512D01*
X0035599Y0075401D01*
X003588Y0075744D01*
X0036089Y0076135D01*
X0036217Y0076559D01*
X0036261Y0077D01*
X0036217Y0077441D01*
X0036089Y0077865D01*
X003588Y0078256D01*
X0035599Y0078599D01*
X0035256Y007888D01*
X0034865Y0079089D01*
X0034441Y0079217D01*
X0034Y0079261D01*
D02*
G37*
G36*
X00592Y0071856D02*
X00592Y0071856D01*
X005651D01*
X0056393Y0071833D01*
X0056294Y0071766D01*
X0056114Y0071587D01*
X0056103Y0071577D01*
X0056068Y0071557D01*
X0056016Y0071536D01*
X0055948Y0071515D01*
X0055864Y0071496D01*
X0055768Y0071481D01*
X0055375Y0071454D01*
X0055258Y0071454D01*
X005521Y007146D01*
X0054897Y0071419D01*
X0054605Y0071298D01*
X0054354Y0071106D01*
X0054162Y0070855D01*
X0054041Y0070563D01*
X0054Y007025D01*
X0054041Y0069937D01*
X0054162Y0069645D01*
X0054354Y0069394D01*
X0054605Y0069202D01*
X0054897Y0069081D01*
X005521Y006904D01*
X0055523Y0069081D01*
X0055815Y0069202D01*
X0056066Y0069394D01*
X0056258Y0069645D01*
X0056379Y0069937D01*
X005642Y007025D01*
X0056414Y0070298D01*
X0056414Y0070418D01*
X0056416Y007048D01*
X0056423Y0070488D01*
X005655Y0070438D01*
Y006905D01*
X005862D01*
X005865Y0069044D01*
X005865Y0069044D01*
X0059523D01*
X0060534Y0068034D01*
X0060534Y0068034D01*
X0060633Y0067967D01*
X006075Y0067944D01*
X0082368D01*
X0085753Y0064559D01*
X008574Y0064495D01*
X0085779Y0064299D01*
X008589Y0064134D01*
X0086055Y0064024D01*
X008625Y0063985D01*
X0086445Y0064024D01*
X008661Y0064134D01*
X0086721Y0064299D01*
X008676Y0064495D01*
X0086721Y006469D01*
X008661Y0064855D01*
X0086445Y0064966D01*
X008625Y0065004D01*
X0086186Y0064992D01*
X0082711Y0068466D01*
X0082612Y0068533D01*
X0082495Y0068556D01*
X0082495Y0068556D01*
X0060877D01*
X0059866Y0069566D01*
X0059767Y0069633D01*
X005965Y0069656D01*
X005965Y0069656D01*
X005895D01*
Y0071235D01*
X0059077Y007124D01*
X0061034Y0069284D01*
X0061133Y0069217D01*
X006125Y0069194D01*
X006125Y0069194D01*
X0083123D01*
X0084284Y0068034D01*
X0084284Y0068034D01*
X0084383Y0067967D01*
X00845Y0067944D01*
X0085853D01*
X008589Y006789D01*
X0086055Y0067779D01*
X008625Y006774D01*
X0086445Y0067779D01*
X008661Y006789D01*
X0086721Y0068055D01*
X008676Y006825D01*
X0086721Y0068445D01*
X008661Y006861D01*
X0086445Y0068721D01*
X008625Y006876D01*
X0086055Y0068721D01*
X008589Y006861D01*
X0085853Y0068556D01*
X0084627D01*
X0083466Y0069716D01*
X0083367Y0069783D01*
X008325Y0069806D01*
X008325Y0069806D01*
X0061377D01*
X0059416Y0071766D01*
X0059317Y0071833D01*
X00592Y0071856D01*
D02*
G37*
G36*
X01034Y006801D02*
X0103205Y0067971D01*
X010304Y006786D01*
X0102929Y0067695D01*
X010289Y00675D01*
X0102929Y0067305D01*
X010304Y006714D01*
X0103094Y0067103D01*
Y0065897D01*
X010304Y006586D01*
X0102929Y0065695D01*
X010289Y00655D01*
X0102929Y0065305D01*
X010304Y006514D01*
X0103205Y0065029D01*
X01034Y006499D01*
X0103595Y0065029D01*
X010376Y006514D01*
X0103871Y0065305D01*
X010391Y00655D01*
X0103871Y0065695D01*
X010376Y006586D01*
X0103706Y0065897D01*
Y0067103D01*
X010376Y006714D01*
X0103871Y0067305D01*
X010391Y00675D01*
X0103871Y0067695D01*
X010376Y006786D01*
X0103595Y0067971D01*
X01034Y006801D01*
D02*
G37*
G36*
X01015D02*
X0101305Y0067971D01*
X010114Y006786D01*
X0101029Y0067695D01*
X010099Y00675D01*
X0101029Y0067305D01*
X010114Y006714D01*
X0101194Y0067103D01*
Y0065897D01*
X010114Y006586D01*
X0101029Y0065695D01*
X010099Y00655D01*
X0101029Y0065305D01*
X010114Y006514D01*
X0101305Y0065029D01*
X01015Y006499D01*
X0101695Y0065029D01*
X010186Y006514D01*
X0101971Y0065305D01*
X010201Y00655D01*
X0101971Y0065695D01*
X010186Y006586D01*
X0101806Y0065897D01*
Y0067103D01*
X010186Y006714D01*
X0101971Y0067305D01*
X010201Y00675D01*
X0101971Y0067695D01*
X010186Y006786D01*
X0101695Y0067971D01*
X01015Y006801D01*
D02*
G37*
G36*
X005523Y006721D02*
X0054917Y0067169D01*
X0054625Y0067048D01*
X0054374Y0066856D01*
X0054182Y0066605D01*
X0054061Y0066313D01*
X005402Y0066D01*
X0054061Y0065687D01*
X0054182Y0065395D01*
X0054374Y0065144D01*
X0054625Y0064952D01*
X0054917Y0064831D01*
X005523Y006479D01*
X0055543Y0064831D01*
X0055835Y0064952D01*
X0056086Y0065144D01*
X0056278Y0065395D01*
X0056399Y0065687D01*
X005644Y0066D01*
X0056399Y0066313D01*
X0056278Y0066605D01*
X0056086Y0066856D01*
X0055835Y0067048D01*
X0055543Y0067169D01*
X005523Y006721D01*
D02*
G37*
G36*
X00685Y006376D02*
X0068305Y0063721D01*
X006814Y006361D01*
X0068103Y0063556D01*
X00665D01*
X0066383Y0063533D01*
X0066284Y0063466D01*
X0066284Y0063466D01*
X0064784Y0061966D01*
X0064717Y0061867D01*
X0064694Y006175D01*
X0064694Y006175D01*
Y0061147D01*
X006464Y006111D01*
X0064529Y0060945D01*
X006449Y006075D01*
X0064529Y0060555D01*
X006464Y006039D01*
X0064805Y0060279D01*
X0065Y006024D01*
X0065195Y0060279D01*
X006536Y006039D01*
X0065471Y0060555D01*
X006551Y006075D01*
X0065471Y0060945D01*
X006536Y006111D01*
X0065306Y0061147D01*
Y0061623D01*
X0066627Y0062944D01*
X0068103D01*
X006814Y006289D01*
X0068305Y0062779D01*
X00685Y006274D01*
X0068695Y0062779D01*
X006886Y006289D01*
X0068971Y0063055D01*
X006901Y006325D01*
X0068971Y0063445D01*
X006886Y006361D01*
X0068695Y0063721D01*
X00685Y006376D01*
D02*
G37*
G36*
X0058538Y0062606D02*
X0058538Y0062606D01*
X0057462D01*
X0057344Y0062583D01*
X0057245Y0062516D01*
X0057245Y0062516D01*
X0056935Y0062206D01*
X005636D01*
X005636Y0062206D01*
X005633Y00622D01*
X005426D01*
Y00598D01*
X005666D01*
Y0061594D01*
X0056833D01*
X0056903Y0061489D01*
X0056831Y0061313D01*
X005679Y0061D01*
X0056831Y0060687D01*
X0056952Y0060395D01*
X0057144Y0060144D01*
X0057183Y0060114D01*
X0057267Y006003D01*
X0057363Y0059927D01*
X0057523Y0059737D01*
X0057581Y0059657D01*
X0057628Y0059584D01*
X0057661Y0059521D01*
X0057682Y0059469D01*
X0057693Y005943D01*
X0057694Y0059415D01*
Y005525D01*
X0057694Y005525D01*
X0057717Y0055133D01*
X0057784Y0055034D01*
X0063284Y0049534D01*
X0063284Y0049534D01*
X0063383Y0049467D01*
X00635Y0049444D01*
X0068525D01*
X0068538Y0049439D01*
X0068547Y0049435D01*
X0068557Y0049428D01*
X0068567Y0049418D01*
X0068578Y0049404D01*
X006859Y0049378D01*
X0068606Y0049317D01*
X0068604Y0049313D01*
X0068589Y0049292D01*
X0068581Y0049273D01*
X0068529Y0049195D01*
X006849Y0049D01*
X0068529Y0048805D01*
X006864Y004864D01*
X0068805Y0048529D01*
X0069Y004849D01*
X0069195Y0048529D01*
X006936Y004864D01*
X0069471Y0048805D01*
X006948Y004885D01*
X0069615Y0048877D01*
X006964Y004884D01*
X0069805Y0048729D01*
X007Y004869D01*
X0070195Y0048729D01*
X007036Y004884D01*
X0070471Y0049005D01*
X007051Y00492D01*
X0070471Y0049395D01*
X007036Y004956D01*
X0070195Y0049671D01*
X007Y004971D01*
X0069936Y0049697D01*
X0069166Y0050466D01*
X0069067Y0050533D01*
X006895Y0050556D01*
X006895Y0050556D01*
X0064127D01*
X0059306Y0055377D01*
Y0059873D01*
X0059516Y0060084D01*
X0059516Y0060084D01*
X0059583Y0060183D01*
X0059606Y00603D01*
X0059606Y00603D01*
Y0061538D01*
X0059583Y0061656D01*
X0059516Y0061755D01*
X0059516Y0061755D01*
X0058755Y0062516D01*
X0058656Y0062583D01*
X0058538Y0062606D01*
D02*
G37*
G36*
X00652Y005941D02*
X0065005Y0059371D01*
X006484Y005926D01*
X0064729Y0059095D01*
X006472Y005905D01*
X006465Y0058956D01*
X0064533Y0058933D01*
X0064434Y0058866D01*
X0064434Y0058866D01*
X0064284Y0058716D01*
X0064217Y0058617D01*
X0064194Y00585D01*
X0064194Y00585D01*
Y00579D01*
X0064194Y00579D01*
X0064217Y0057783D01*
X0064284Y0057684D01*
X0066294Y0055673D01*
Y00522D01*
X0066294Y00522D01*
X0066317Y0052083D01*
X0066384Y0051984D01*
X0066584Y0051784D01*
X0066584Y0051784D01*
X0066683Y0051717D01*
X00668Y0051694D01*
X00668Y0051694D01*
X0068703D01*
X006874Y005164D01*
X0068905Y0051529D01*
X00691Y005149D01*
X0069295Y0051529D01*
X006946Y005164D01*
X0069571Y0051805D01*
X006961Y0052D01*
X0069571Y0052195D01*
X006946Y005236D01*
X0069295Y0052471D01*
X00691Y005251D01*
X0068905Y0052471D01*
X006874Y005236D01*
X0068703Y0052306D01*
X0066927D01*
X0066906Y0052327D01*
Y0053209D01*
X0067033Y0053277D01*
X0067105Y0053229D01*
X00673Y005319D01*
X0067495Y0053229D01*
X006766Y005334D01*
X0067771Y0053505D01*
X006781Y00537D01*
X0067771Y0053895D01*
X006766Y005406D01*
X0067606Y0054097D01*
Y00558D01*
X0067606Y00558D01*
X0067583Y0055917D01*
X0067516Y0056016D01*
X0065814Y0057719D01*
X0065871Y0057805D01*
X006591Y0058D01*
X0065871Y0058195D01*
X006576Y005836D01*
X0065637Y0058443D01*
X0065596Y0058495D01*
X00656Y0058599D01*
X0065671Y0058705D01*
X006571Y00589D01*
X0065671Y0059095D01*
X006556Y005926D01*
X0065395Y0059371D01*
X00652Y005941D01*
D02*
G37*
G36*
X0039425Y0050887D02*
Y0049925D01*
X0040387D01*
X004037Y005005D01*
X0040255Y005033D01*
X004007Y005057D01*
X003983Y0050755D01*
X003955Y005087D01*
X0039425Y0050887D01*
D02*
G37*
G36*
X0039075D02*
X003895Y005087D01*
X003867Y0050755D01*
X003843Y005057D01*
X0038245Y005033D01*
X003813Y005005D01*
X0038113Y0049925D01*
X0039075D01*
Y0050887D01*
D02*
G37*
G36*
X0040387Y0049575D02*
X0039425D01*
Y0048613D01*
X003955Y004863D01*
X003983Y0048745D01*
X004007Y004893D01*
X0040255Y004917D01*
X004037Y004945D01*
X0040387Y0049575D01*
D02*
G37*
G36*
X0039075D02*
X0038113D01*
X003813Y004945D01*
X0038245Y004917D01*
X003843Y004893D01*
X003867Y0048745D01*
X003895Y004863D01*
X0039075Y0048613D01*
Y0049575D01*
D02*
G37*
G36*
X003925Y0045759D02*
X0038989Y0045724D01*
X0038746Y0045624D01*
X0038537Y0045463D01*
X0038376Y0045254D01*
X0038276Y0045011D01*
X0038241Y004475D01*
X0038276Y0044489D01*
X0038376Y0044246D01*
X0038537Y0044037D01*
X0038746Y0043877D01*
X0038989Y0043776D01*
X003925Y0043741D01*
X0039511Y0043776D01*
X0039754Y0043877D01*
X0039963Y0044037D01*
X0040124Y0044246D01*
X0040224Y0044489D01*
X0040259Y004475D01*
X0040224Y0045011D01*
X0040124Y0045254D01*
X0039963Y0045463D01*
X0039754Y0045624D01*
X0039511Y0045724D01*
X003925Y0045759D01*
D02*
G37*
G36*
X01015Y004121D02*
X0101305Y0041171D01*
X010114Y004106D01*
X0101029Y0040895D01*
X010099Y00407D01*
X0101029Y0040505D01*
X010114Y004034D01*
X0101194Y0040303D01*
Y0039097D01*
X010114Y003906D01*
X0101029Y0038895D01*
X010099Y00387D01*
X0101029Y0038505D01*
X010114Y003834D01*
X0101305Y0038229D01*
X01015Y003819D01*
X0101695Y0038229D01*
X010186Y003834D01*
X0101971Y0038505D01*
X010201Y00387D01*
X0101971Y0038895D01*
X010186Y003906D01*
X0101806Y0039097D01*
Y0040303D01*
X010186Y004034D01*
X0101971Y0040505D01*
X010201Y00407D01*
X0101971Y0040895D01*
X010186Y004106D01*
X0101695Y0041171D01*
X01015Y004121D01*
D02*
G37*
G36*
X00995D02*
X0099305Y0041171D01*
X009914Y004106D01*
X0099029Y0040895D01*
X009899Y00407D01*
X0099029Y0040505D01*
X009914Y004034D01*
X0099194Y0040303D01*
Y0039097D01*
X009914Y003906D01*
X0099029Y0038895D01*
X009899Y00387D01*
X0099029Y0038505D01*
X009914Y003834D01*
X0099305Y0038229D01*
X00995Y003819D01*
X0099695Y0038229D01*
X009986Y003834D01*
X0099971Y0038505D01*
X010001Y00387D01*
X0099971Y0038895D01*
X009986Y003906D01*
X0099806Y0039097D01*
Y0040303D01*
X009986Y004034D01*
X0099971Y0040505D01*
X010001Y00407D01*
X0099971Y0040895D01*
X009986Y004106D01*
X0099695Y0041171D01*
X00995Y004121D01*
D02*
G37*
G36*
X005897Y00672D02*
X005657D01*
Y00648D01*
X005897D01*
Y0065694D01*
X0067123D01*
X0081694Y0051123D01*
Y0039117D01*
X0081694Y0039117D01*
X0081717Y0039D01*
X0081784Y0038901D01*
X0082564Y0038121D01*
X0082564Y0038121D01*
X0082663Y0038055D01*
X008278Y0038031D01*
X0085286D01*
X0085753Y0037564D01*
X008574Y00375D01*
X0085779Y0037305D01*
X008589Y003714D01*
X0086055Y0037029D01*
X008625Y003699D01*
X0086445Y0037029D01*
X008661Y003714D01*
X0086721Y0037305D01*
X008676Y00375D01*
X0086721Y0037695D01*
X008661Y003786D01*
X0086445Y0037971D01*
X008625Y003801D01*
X0086186Y0037997D01*
X0085629Y0038554D01*
X008553Y003862D01*
X0085413Y0038643D01*
X0085413Y0038643D01*
X0082907D01*
X0082306Y0039244D01*
Y005125D01*
X0082306Y005125D01*
X0082283Y0051367D01*
X0082216Y0051466D01*
X0082216Y0051466D01*
X0067466Y0066216D01*
X0067367Y0066283D01*
X006725Y0066306D01*
X006725Y0066306D01*
X005897D01*
Y00672D01*
D02*
G37*
G36*
X0114Y0031261D02*
X0113559Y0031217D01*
X0113135Y0031089D01*
X0112744Y003088D01*
X0112401Y0030599D01*
X011212Y0030256D01*
X0111911Y0029865D01*
X0111783Y0029441D01*
X0111739Y0029D01*
X0111783Y0028559D01*
X0111911Y0028135D01*
X011212Y0027744D01*
X0112401Y0027401D01*
X0112744Y002712D01*
X0113135Y0026911D01*
X0113559Y0026783D01*
X0114Y0026739D01*
X0114441Y0026783D01*
X0114865Y0026911D01*
X0115256Y002712D01*
X0115599Y0027401D01*
X011588Y0027744D01*
X0116089Y0028135D01*
X0116217Y0028559D01*
X0116261Y0029D01*
X0116217Y0029441D01*
X0116089Y0029865D01*
X011588Y0030256D01*
X0115599Y0030599D01*
X0115256Y003088D01*
X0114865Y0031089D01*
X0114441Y0031217D01*
X0114Y0031261D01*
D02*
G37*
G36*
X0034D02*
X0033559Y0031217D01*
X0033135Y0031089D01*
X0032744Y003088D01*
X0032401Y0030599D01*
X003212Y0030256D01*
X0031911Y0029865D01*
X0031783Y0029441D01*
X0031739Y0029D01*
X0031783Y0028559D01*
X0031911Y0028135D01*
X003212Y0027744D01*
X0032401Y0027401D01*
X0032744Y002712D01*
X0033135Y0026911D01*
X0033559Y0026783D01*
X0034Y0026739D01*
X0034441Y0026783D01*
X0034865Y0026911D01*
X0035256Y002712D01*
X0035599Y0027401D01*
X003588Y0027744D01*
X0036089Y0028135D01*
X0036217Y0028559D01*
X0036261Y0029D01*
X0036217Y0029441D01*
X0036089Y0029865D01*
X003588Y0030256D01*
X0035599Y0030599D01*
X0035256Y003088D01*
X0034865Y0031089D01*
X0034441Y0031217D01*
X0034Y0031261D01*
D02*
G37*
%LPD*%
G36*
X0056409Y0071307D02*
X0056369Y0071259D01*
X0056334Y0071199D01*
X0056304Y0071126D01*
X0056277Y007104D01*
X0056255Y0070942D01*
X0056238Y0070831D01*
X0056215Y0070571D01*
X005621Y0070422D01*
X005621Y007026D01*
X005522Y007125D01*
X0055382Y007125D01*
X0055791Y0071278D01*
X0055902Y0071295D01*
X0056Y0071317D01*
X0056086Y0071344D01*
X0056159Y0071374D01*
X0056219Y0071409D01*
X0056267Y0071449D01*
X0056409Y0071307D01*
D02*
G37*
G36*
X0058746Y0069531D02*
X0058752Y0069514D01*
X0058763Y0069499D01*
X0058777Y0069486D01*
X0058795Y0069475D01*
X0058817Y0069466D01*
X0058844Y0069459D01*
X0058874Y0069454D01*
X0058909Y0069451D01*
X0058947Y006945D01*
Y006925D01*
X0058747Y0069253D01*
X0058744Y006955D01*
X0058746Y0069531D01*
D02*
G37*
G36*
X0056657Y00618D02*
X0056619Y0061799D01*
X0056584Y0061796D01*
X0056554Y0061791D01*
X0056527Y0061784D01*
X0056505Y0061775D01*
X0056487Y0061764D01*
X0056473Y0061751D01*
X0056462Y0061736D01*
X0056456Y0061719D01*
X0056454Y00617D01*
X0056457Y0061997D01*
X0056657Y0062D01*
Y00618D01*
D02*
G37*
G36*
X0058586Y0060171D02*
X0058316Y0059863D01*
X005825Y0059772D01*
X0058196Y0059686D01*
X0058154Y0059607D01*
X0058124Y0059534D01*
X0058106Y0059467D01*
X00581Y0059405D01*
X00579D01*
X0057894Y0059467D01*
X0057876Y0059534D01*
X0057846Y0059607D01*
X0057804Y0059686D01*
X005775Y0059772D01*
X0057684Y0059863D01*
X0057516Y0060062D01*
X0057414Y0060171D01*
X00573Y0060286D01*
X00587D01*
X0058586Y0060171D01*
D02*
G37*
G36*
X0058694Y0059805D02*
Y005525D01*
X0058694Y005525D01*
X005859Y0055124D01*
X0058563Y005512D01*
X0058306Y0055377D01*
Y0059415D01*
X0058307Y005943D01*
X0058318Y0059469D01*
X0058339Y0059521D01*
X0058372Y0059584D01*
X0058419Y0059657D01*
X0058476Y0059735D01*
X0058575Y0059849D01*
X0058694Y0059805D01*
D02*
G37*
G36*
X0069051Y0049447D02*
X0069055Y004942D01*
X0069061Y0049394D01*
X0069069Y0049369D01*
X006908Y0049346D01*
X0069094Y0049324D01*
X0069109Y0049302D01*
X0069128Y0049282D01*
X0069148Y0049264D01*
X0069171Y0049246D01*
X0068757Y0049176D01*
X0068775Y0049202D01*
X0068791Y0049228D01*
X0068805Y0049254D01*
X0068817Y004928D01*
X0068827Y0049306D01*
X0068835Y0049332D01*
X0068842Y0049359D01*
X0068846Y0049386D01*
X0068849Y0049413D01*
X006885Y004944D01*
X006905Y0049476D01*
X0069051Y0049447D01*
D02*
G37*
G36*
X0065596Y005777D02*
X0065586Y0057754D01*
X006558Y0057737D01*
X0065578Y0057719D01*
X006558Y00577D01*
X0065585Y0057681D01*
X0065594Y0057661D01*
X0065607Y005764D01*
X0065624Y0057619D01*
X0065645Y0057597D01*
X0065457Y0057502D01*
X0065223Y0057758D01*
X006561Y0057786D01*
X0065596Y005777D01*
D02*
G37*
G36*
X0058766Y0066181D02*
X0058772Y0066164D01*
X0058782Y0066149D01*
X0058796Y0066136D01*
X0058815Y0066125D01*
X0058837Y0066116D01*
X0058863Y0066109D01*
X0058894Y0066104D01*
X0058928Y0066101D01*
X0058967Y00661D01*
Y00659D01*
X0058928Y0065899D01*
X0058894Y0065896D01*
X0058863Y0065891D01*
X0058837Y0065884D01*
X0058815Y0065875D01*
X0058796Y0065864D01*
X0058782Y0065851D01*
X0058772Y0065836D01*
X0058766Y0065819D01*
X0058764Y00658D01*
Y00662D01*
X0058766Y0066181D01*
D02*
G37*
D12*
X0064Y005025D02*
X006895D01*
X007Y00492D01*
X00654Y00577D02*
Y0058D01*
Y00577D02*
X00673Y00558D01*
X006495Y005865D02*
X00652Y00589D01*
X006465Y005865D02*
X006495D01*
X00645Y00585D02*
X006465Y005865D01*
X00645Y00579D02*
X00666Y00558D01*
Y00522D02*
Y00558D01*
X00645Y00579D02*
Y00585D01*
X0065Y006075D02*
Y006175D01*
X01015Y00387D02*
Y00407D01*
X01034Y00655D02*
Y00675D01*
X006725Y0066D02*
X0082Y005125D01*
X0085413Y0038337D02*
X008625Y00375D01*
X0082Y0039117D02*
Y005125D01*
X008278Y0038337D02*
X0085413D01*
X0082Y0039117D02*
X008278Y0038337D01*
X005777Y0066D02*
X006725D01*
X01015Y00655D02*
Y00675D01*
X00995Y00387D02*
Y00407D01*
X00592Y007155D02*
X006125Y00695D01*
X008325D02*
X00845Y006825D01*
X006125Y00695D02*
X008325D01*
X005521Y007025D02*
X005651Y007155D01*
X00592D01*
X006075Y006825D02*
X0082495D01*
X005965Y006935D02*
X006075Y006825D01*
X005865Y006935D02*
X005965D01*
X00845Y006825D02*
X008625D01*
X0082495D02*
X008625Y0064495D01*
X005775Y007025D02*
X005865Y006935D01*
X00665Y006325D02*
X00685D01*
X0065Y006175D02*
X00665Y006325D01*
X0059Y005525D02*
Y006D01*
X0058Y005525D02*
X00635Y004975D01*
X006875D01*
X0058Y005525D02*
Y0061D01*
X0059Y006D02*
X00593Y00603D01*
Y0061538D01*
X005636Y00619D02*
X0057062D01*
X0058538Y00623D02*
X00593Y0061538D01*
X005546Y0061D02*
X005636Y00619D01*
X0057062D02*
X0057462Y00623D01*
X0058538D01*
X0059Y005525D02*
X0064Y005025D01*
X006895Y004905D02*
X0069Y0049D01*
X006895Y004905D02*
Y004955D01*
X006875Y004975D02*
X006895Y004955D01*
X00673Y00537D02*
Y00558D01*
X00666Y00522D02*
X00668Y0052D01*
X00691D01*
D36*
X0034Y0077D02*
D03*
X0114D02*
D03*
Y0029D02*
D03*
X0034D02*
D03*
D41*
X011Y007D02*
D03*
X0115Y006D02*
D03*
X011Y005D02*
D03*
X0115Y004D02*
D03*
X011Y003D02*
D03*
X01Y007D02*
D03*
X0105Y006D02*
D03*
X01Y003D02*
D03*
X009Y007D02*
D03*
X0095Y006D02*
D03*
X009Y005D02*
D03*
Y003D02*
D03*
X0085Y004D02*
D03*
X008Y003D02*
D03*
X007D02*
D03*
X006D02*
D03*
X005Y007D02*
D03*
Y005D02*
D03*
Y003D02*
D03*
X004Y007D02*
D03*
X0045Y006D02*
D03*
Y004D02*
D03*
X004Y003D02*
D03*
X00633Y004175D02*
D03*
X007Y00492D02*
D03*
X00654Y0058D02*
D03*
X00652Y00589D02*
D03*
X008625Y006825D02*
D03*
X0065Y006075D02*
D03*
X01015Y00407D02*
D03*
Y00387D02*
D03*
X01034Y00655D02*
D03*
Y00675D02*
D03*
X01015D02*
D03*
Y00655D02*
D03*
X00995Y00387D02*
D03*
Y00407D02*
D03*
X008625Y0064495D02*
D03*
X00685Y006325D02*
D03*
X008625Y00375D02*
D03*
X0069Y0049D02*
D03*
X00673Y00537D02*
D03*
X00691Y0052D02*
D03*
D63*
X003925Y004975D02*
D03*
Y004475D02*
D03*
D64*
X005521Y007025D02*
D03*
X01155Y004917D02*
D03*
Y005425D02*
D03*
Y005171D02*
D03*
X005523Y0066D02*
D03*
X0058Y0061D02*
D03*
D65*
X005775Y007025D02*
D03*
X005777Y0066D02*
D03*
X005546Y0061D02*
D03*
D66*
X01155Y005679D02*
D03*
D67*
X006875Y00444D02*
D03*
X006765Y00466D02*
D03*
X006985Y005815D02*
D03*
Y006035D02*
D03*
Y00466D02*
D03*
X006875Y00455D02*
D03*
Y005925D02*
D03*
X006765Y00444D02*
D03*
Y006035D02*
D03*
Y005815D02*
D03*
X006985Y00444D02*
D03*
Y005925D02*
D03*
X006875Y006035D02*
D03*
Y00466D02*
D03*
X006765Y00455D02*
D03*
X006875Y005815D02*
D03*
X006765Y005925D02*
D03*
X006985Y00455D02*
D03*
M02*
