G04*
G04 #@! TF.GenerationSoftware,Altium Limited,Altium Designer,20.1.8 (145)*
G04*
G04 Layer_Color=8388736*
%FSTAX43Y43*%
%MOMM*%
G71*
G04*
G04 #@! TF.SameCoordinates,F5FA2015-3190-45B9-AB56-6F14DCCDFD5E*
G04*
G04*
G04 #@! TF.FilePolarity,Negative*
G04*
G01*
G75*
%ADD17R,0.950X0.950*%
%ADD18R,0.950X0.950*%
%ADD19R,1.230X2.540*%
%ADD20R,0.700X1.200*%
%ADD21R,1.100X1.000*%
%ADD22R,2.600X2.400*%
G04:AMPARAMS|DCode=23|XSize=1.65mm|YSize=0.7mm|CornerRadius=0.35mm|HoleSize=0mm|Usage=FLASHONLY|Rotation=0.000|XOffset=0mm|YOffset=0mm|HoleType=Round|Shape=RoundedRectangle|*
%AMROUNDEDRECTD23*
21,1,1.650,0.000,0,0,0.0*
21,1,0.950,0.700,0,0,0.0*
1,1,0.700,0.475,0.000*
1,1,0.700,-0.475,0.000*
1,1,0.700,-0.475,0.000*
1,1,0.700,0.475,0.000*
%
%ADD23ROUNDEDRECTD23*%
%ADD24R,3.600X1.880*%
%ADD25R,2.400X2.600*%
%ADD26R,0.900X0.600*%
%ADD27R,0.860X2.150*%
%ADD28R,3.000X3.000*%
%ADD29O,0.800X0.300*%
%ADD30O,0.300X0.800*%
%ADD31R,0.600X0.450*%
%ADD32R,2.150X0.860*%
%ADD33R,3.000X3.000*%
%ADD34R,2.540X1.230*%
%ADD35C,1.800*%
%ADD36C,1.700*%
%ADD37C,2.100*%
%ADD38R,2.100X2.100*%
%ADD39R,2.100X2.100*%
%ADD40C,0.700*%
%ADD41C,0.600*%
D17*
X008195Y006175D02*
D03*
X008055D02*
D03*
X009255Y0043D02*
D03*
X009395D02*
D03*
X009255Y007D02*
D03*
X009395D02*
D03*
X007755Y006175D02*
D03*
X007895D02*
D03*
X007455D02*
D03*
X007595D02*
D03*
X00761Y00553D02*
D03*
X00775D02*
D03*
X005995Y00505D02*
D03*
X005855D02*
D03*
Y0046D02*
D03*
X005995D02*
D03*
X005855Y00395D02*
D03*
X005995D02*
D03*
X00759Y00462D02*
D03*
X00745D02*
D03*
X00759Y00477D02*
D03*
X00745D02*
D03*
X00788Y00477D02*
D03*
X00774D02*
D03*
X00724Y00537D02*
D03*
X00738D02*
D03*
X00724Y00553D02*
D03*
X00738D02*
D03*
X00674Y00552D02*
D03*
X00688D02*
D03*
X00689Y00537D02*
D03*
X00703D02*
D03*
X0065575Y005205D02*
D03*
X0064175D02*
D03*
X0065575Y0053625D02*
D03*
X0064175D02*
D03*
X0065575Y00552D02*
D03*
X0064175D02*
D03*
D18*
X009625Y004195D02*
D03*
Y004055D02*
D03*
X01015Y00635D02*
D03*
Y00621D02*
D03*
Y00439D02*
D03*
Y00425D02*
D03*
X009625Y006895D02*
D03*
Y006755D02*
D03*
Y00373D02*
D03*
Y00387D02*
D03*
Y00643D02*
D03*
Y00657D02*
D03*
X006Y00475D02*
D03*
Y00489D02*
D03*
X0062Y004595D02*
D03*
Y004455D02*
D03*
X00585Y004755D02*
D03*
Y004895D02*
D03*
X00618Y00394D02*
D03*
Y00408D02*
D03*
X00646Y004745D02*
D03*
Y004885D02*
D03*
X00631Y004745D02*
D03*
Y004885D02*
D03*
X00616Y004745D02*
D03*
Y004885D02*
D03*
X00633Y00364D02*
D03*
Y00378D02*
D03*
X00633Y00394D02*
D03*
Y00408D02*
D03*
X0071Y00406D02*
D03*
Y00392D02*
D03*
X0064025Y0044375D02*
D03*
Y0042975D02*
D03*
X0065525Y0044375D02*
D03*
Y0042975D02*
D03*
X006775Y00502D02*
D03*
Y00488D02*
D03*
D19*
X008079Y0064D02*
D03*
X007825D02*
D03*
X007571D02*
D03*
Y00726D02*
D03*
X007825D02*
D03*
X008079D02*
D03*
D20*
X01005Y00713D02*
D03*
X010145Y00689D02*
D03*
X009955D02*
D03*
X01005Y00347D02*
D03*
X009955Y00371D02*
D03*
X010145D02*
D03*
X005845Y004145D02*
D03*
X00594D02*
D03*
X006035D02*
D03*
Y004405D02*
D03*
X005845D02*
D03*
D21*
X011275Y004565D02*
D03*
Y004735D02*
D03*
X011025Y004565D02*
D03*
Y004735D02*
D03*
X011275Y005865D02*
D03*
Y006035D02*
D03*
X011025Y005865D02*
D03*
Y006035D02*
D03*
D22*
X011215Y00645D02*
D03*
X010785D02*
D03*
Y00415D02*
D03*
X011215D02*
D03*
D23*
X00883Y0041405D02*
D03*
Y0040135D02*
D03*
Y0038865D02*
D03*
Y0037595D02*
D03*
X00937D02*
D03*
Y0038865D02*
D03*
Y0040135D02*
D03*
Y0041405D02*
D03*
X00883Y0068405D02*
D03*
Y0067135D02*
D03*
Y0065865D02*
D03*
Y0064595D02*
D03*
X00937D02*
D03*
Y0065865D02*
D03*
Y0067135D02*
D03*
Y0068405D02*
D03*
D24*
X005075Y004435D02*
D03*
Y003915D02*
D03*
D25*
X005525Y004755D02*
D03*
Y004325D02*
D03*
D26*
X00559Y00396D02*
D03*
X005375Y003895D02*
D03*
Y004025D02*
D03*
D27*
X007867Y00533D02*
D03*
X00774D02*
D03*
X007613D02*
D03*
X007867Y00497D02*
D03*
X00774D02*
D03*
X007613D02*
D03*
D28*
X006875Y005925D02*
D03*
D29*
X0066775Y005785D02*
D03*
Y005825D02*
D03*
Y005865D02*
D03*
Y005905D02*
D03*
Y005945D02*
D03*
Y005985D02*
D03*
Y006025D02*
D03*
Y006065D02*
D03*
X0070725D02*
D03*
Y006025D02*
D03*
Y005985D02*
D03*
Y005945D02*
D03*
Y005905D02*
D03*
Y005865D02*
D03*
Y005825D02*
D03*
Y005785D02*
D03*
X0066775Y00469D02*
D03*
Y00465D02*
D03*
Y00461D02*
D03*
Y00457D02*
D03*
Y00453D02*
D03*
Y00449D02*
D03*
Y00445D02*
D03*
Y00441D02*
D03*
X0070725D02*
D03*
Y00445D02*
D03*
Y00449D02*
D03*
Y00453D02*
D03*
Y00457D02*
D03*
Y00461D02*
D03*
Y00465D02*
D03*
Y00469D02*
D03*
D30*
X006735Y0061225D02*
D03*
X006775D02*
D03*
X006815D02*
D03*
X006855D02*
D03*
X006895D02*
D03*
X006935D02*
D03*
X006975D02*
D03*
X007015D02*
D03*
Y0057275D02*
D03*
X006975D02*
D03*
X006935D02*
D03*
X006895D02*
D03*
X006855D02*
D03*
X006815D02*
D03*
X006775D02*
D03*
X006735D02*
D03*
Y0043525D02*
D03*
X006775D02*
D03*
X006815D02*
D03*
X006855D02*
D03*
X006895D02*
D03*
X006935D02*
D03*
X006975D02*
D03*
X007015D02*
D03*
Y0047475D02*
D03*
X006975D02*
D03*
X006935D02*
D03*
X006895D02*
D03*
X006855D02*
D03*
X006815D02*
D03*
X006775D02*
D03*
X006735D02*
D03*
D31*
X006725Y00526D02*
D03*
Y00514D02*
D03*
X0068D02*
D03*
Y00526D02*
D03*
D32*
X0069Y003803D02*
D03*
Y00393D02*
D03*
Y004057D02*
D03*
X00654Y003803D02*
D03*
Y00393D02*
D03*
Y004057D02*
D03*
D33*
X006875Y00455D02*
D03*
D34*
X0098Y005554D02*
D03*
Y0053D02*
D03*
Y005046D02*
D03*
X01066D02*
D03*
Y0053D02*
D03*
Y005554D02*
D03*
D35*
X0034Y0077D02*
D03*
X0114D02*
D03*
Y0029D02*
D03*
X0034D02*
D03*
D36*
X003925Y004975D02*
D03*
Y004475D02*
D03*
D37*
X005521Y007025D02*
D03*
X01155Y004917D02*
D03*
Y005425D02*
D03*
Y005171D02*
D03*
X005523Y0066D02*
D03*
X0058Y0061D02*
D03*
D38*
X005775Y007025D02*
D03*
X005777Y0066D02*
D03*
X005546Y0061D02*
D03*
D39*
X01155Y005679D02*
D03*
D40*
X011Y007D02*
D03*
X0115Y006D02*
D03*
X011Y005D02*
D03*
X0115Y004D02*
D03*
X011Y003D02*
D03*
X01Y007D02*
D03*
X0105Y006D02*
D03*
X01Y003D02*
D03*
X009Y007D02*
D03*
X0095Y006D02*
D03*
X009Y005D02*
D03*
Y003D02*
D03*
X0085Y004D02*
D03*
X008Y003D02*
D03*
X007D02*
D03*
X006D02*
D03*
X005Y007D02*
D03*
Y005D02*
D03*
Y003D02*
D03*
X004Y007D02*
D03*
X0045Y006D02*
D03*
Y004D02*
D03*
X004Y003D02*
D03*
X00633Y004175D02*
D03*
X007Y00492D02*
D03*
X00654Y0058D02*
D03*
X00652Y00589D02*
D03*
X008625Y006825D02*
D03*
X0065Y006075D02*
D03*
X01015Y00407D02*
D03*
Y00387D02*
D03*
X01034Y00655D02*
D03*
Y00675D02*
D03*
X01015D02*
D03*
Y00655D02*
D03*
X00995Y00387D02*
D03*
Y00407D02*
D03*
X008625Y0064495D02*
D03*
X00685Y006325D02*
D03*
X008625Y00375D02*
D03*
X0069Y0049D02*
D03*
X00673Y00537D02*
D03*
X00691Y0052D02*
D03*
D41*
X006875Y00444D02*
D03*
X006765Y00466D02*
D03*
X006985Y005815D02*
D03*
Y006035D02*
D03*
Y00466D02*
D03*
X006875Y00455D02*
D03*
Y005925D02*
D03*
X006765Y00444D02*
D03*
Y006035D02*
D03*
Y005815D02*
D03*
X006985Y00444D02*
D03*
Y005925D02*
D03*
X006875Y006035D02*
D03*
Y00466D02*
D03*
X006765Y00455D02*
D03*
X006875Y005815D02*
D03*
X006765Y005925D02*
D03*
X006985Y00455D02*
D03*
M02*
