G04*
G04 #@! TF.GenerationSoftware,Altium Limited,Altium Designer,20.1.8 (145)*
G04*
G04 Layer_Physical_Order=1*
G04 Layer_Color=255*
%FSTAX43Y43*%
%MOMM*%
G71*
G04*
G04 #@! TF.SameCoordinates,F5FA2015-3190-45B9-AB56-6F14DCCDFD5E*
G04*
G04*
G04 #@! TF.FilePolarity,Positive*
G04*
G01*
G75*
%ADD12C,0.200*%
%ADD13C,0.400*%
%ADD36C,1.700*%
%ADD41C,0.600*%
%ADD42R,0.850X0.850*%
%ADD43R,0.850X0.850*%
%ADD44R,1.130X2.440*%
%ADD45R,0.600X1.100*%
%ADD46R,1.000X0.900*%
%ADD47R,2.500X2.300*%
G04:AMPARAMS|DCode=48|XSize=1.55mm|YSize=0.6mm|CornerRadius=0.3mm|HoleSize=0mm|Usage=FLASHONLY|Rotation=0.000|XOffset=0mm|YOffset=0mm|HoleType=Round|Shape=RoundedRectangle|*
%AMROUNDEDRECTD48*
21,1,1.550,0.000,0,0,0.0*
21,1,0.950,0.600,0,0,0.0*
1,1,0.600,0.475,0.000*
1,1,0.600,-0.475,0.000*
1,1,0.600,-0.475,0.000*
1,1,0.600,0.475,0.000*
%
%ADD48ROUNDEDRECTD48*%
%ADD49R,3.500X1.780*%
%ADD50R,2.300X2.500*%
%ADD51R,0.800X0.500*%
%ADD52R,0.760X2.050*%
%ADD53R,2.900X2.900*%
%ADD54O,0.700X0.200*%
%ADD55O,0.200X0.700*%
%ADD56R,0.500X0.350*%
%ADD57R,2.050X0.760*%
%ADD58R,2.900X2.900*%
%ADD59R,2.440X1.130*%
%ADD60C,0.500*%
%ADD61C,0.350*%
%ADD62C,1.200*%
%ADD63C,1.600*%
%ADD64C,2.000*%
%ADD65R,2.000X2.000*%
%ADD66R,2.000X2.000*%
%ADD67C,0.500*%
G36*
X0081043Y0074222D02*
X008105Y0074137D01*
X0081062Y0074062D01*
X008108Y0073997D01*
X0081103Y0073942D01*
X008113Y0073897D01*
X0081162Y0073862D01*
X00812Y0073837D01*
X0081243Y0073822D01*
X008129Y0073817D01*
X008029D01*
X0080338Y0073822D01*
X008038Y0073837D01*
X0080418Y0073862D01*
X008045Y0073897D01*
X0080478Y0073942D01*
X00805Y0073997D01*
X0080518Y0074062D01*
X008053Y0074137D01*
X0080537Y0074222D01*
X008054Y0074317D01*
X008104D01*
X0081043Y0074222D01*
D02*
G37*
G36*
X0078503D02*
X007851Y0074137D01*
X0078522Y0074062D01*
X007854Y0073997D01*
X0078562Y0073942D01*
X007859Y0073897D01*
X0078622Y0073862D01*
X007866Y0073837D01*
X0078702Y0073822D01*
X007875Y0073817D01*
X007775D01*
X0077798Y0073822D01*
X007784Y0073837D01*
X0077878Y0073862D01*
X007791Y0073897D01*
X0077938Y0073942D01*
X007796Y0073997D01*
X0077978Y0074062D01*
X007799Y0074137D01*
X0077997Y0074222D01*
X0078Y0074317D01*
X00785D01*
X0078503Y0074222D01*
D02*
G37*
G36*
X0076626Y0073817D02*
X0076527Y0073714D01*
X0076371Y0073531D01*
X0076314Y0073449D01*
X0076272Y0073375D01*
X0076244Y0073308D01*
X007623Y0073248D01*
Y0073195D01*
X0076244Y0073149D01*
X0076272Y007311D01*
X0075565Y0073817D01*
X0075604Y0073789D01*
X007565Y0073775D01*
X0075703D01*
X0075763Y0073789D01*
X007583Y0073817D01*
X0075904Y0073859D01*
X0075986Y0073916D01*
X0076074Y0073987D01*
X0076272Y0074171D01*
X0076626Y0073817D01*
D02*
G37*
G36*
X0075151Y00721D02*
X0075146Y0072148D01*
X0075131Y007219D01*
X0075106Y0072228D01*
X0075071Y007226D01*
X0075025Y0072288D01*
X007497Y007231D01*
X0074905Y0072328D01*
X0074829Y007234D01*
X0074744Y0072348D01*
X0074648Y007235D01*
Y007285D01*
X0074744Y0072853D01*
X0074829Y007286D01*
X0074905Y0072873D01*
X007497Y007289D01*
X0075025Y0072913D01*
X0075071Y007294D01*
X0075106Y0072973D01*
X0075131Y007301D01*
X0075146Y0073053D01*
X0075151Y00731D01*
Y00721D01*
D02*
G37*
G36*
X0094202Y0070827D02*
X0094215Y0070667D01*
X0094228Y0070602D01*
X0094243Y0070547D01*
X0094262Y0070502D01*
X0094284Y0070467D01*
X009431Y0070442D01*
X0094339Y0070427D01*
X0094372Y0070422D01*
X0093528D01*
X0093561Y0070427D01*
X009359Y0070442D01*
X0093616Y0070467D01*
X0093638Y0070502D01*
X0093657Y0070547D01*
X0093672Y0070602D01*
X0093685Y0070667D01*
X0093693Y0070742D01*
X0093698Y0070827D01*
X00937Y0070922D01*
X00942D01*
X0094202Y0070827D01*
D02*
G37*
G36*
X0058748Y0069251D02*
X0058748Y0069245D01*
X0058749Y0069203D01*
X005875Y0069053D01*
X005855D01*
X0058549Y0069091D01*
X0058546Y0069125D01*
X0058541Y0069155D01*
X0058534Y0069181D01*
X0058525Y0069203D01*
X0058514Y0069221D01*
X0058501Y0069235D01*
X0058486Y0069245D01*
X0058469Y0069251D01*
X005845Y0069253D01*
X0058747D01*
X0058748Y0069251D01*
D02*
G37*
G36*
X0055832Y0069454D02*
X0055689Y0069278D01*
X0055631Y0069191D01*
X0055582Y0069105D01*
X0055542Y0069019D01*
X005551Y0068934D01*
X0055488Y006885D01*
X0055474Y0068767D01*
X005547Y0068684D01*
X005497Y0068679D01*
X0054965Y0068762D01*
X0054952Y0068846D01*
X0054929Y006893D01*
X0054898Y0069014D01*
X0054857Y0069099D01*
X0054807Y0069184D01*
X0054748Y006927D01*
X005468Y0069356D01*
X0054603Y0069442D01*
X0054517Y0069529D01*
X0055917Y0069543D01*
X0055832Y0069454D01*
D02*
G37*
G36*
X0094277Y0069576D02*
X0094235Y0069561D01*
X0094198Y0069535D01*
X0094165Y00695D01*
X0094137Y0069455D01*
X0094115Y00694D01*
X0094098Y0069334D01*
X0094085Y0069259D01*
X0094077Y0069173D01*
X0094077Y0069139D01*
X0094077Y0069103D01*
X0094085Y0069012D01*
X0094097Y0068932D01*
X0094115Y0068862D01*
X0094137Y0068803D01*
X0094164Y0068753D01*
X0094196Y0068715D01*
X0094234Y0068687D01*
X0094276Y0068669D01*
X0094323Y0068662D01*
X0093325Y0068701D01*
X0093372Y0068705D01*
X0093415Y0068718D01*
X0093452Y0068743D01*
X0093485Y0068777D01*
X0093512Y0068822D01*
X0093535Y0068878D01*
X0093552Y0068944D01*
X0093565Y006902D01*
X0093573Y0069107D01*
X0093574Y0069177D01*
X0093552Y0069533D01*
X0093545Y0069558D01*
X0093537Y0069573D01*
X0093528Y0069578D01*
X0094325Y0069581D01*
X0094277Y0069576D01*
D02*
G37*
G36*
X0101681Y0068354D02*
X0101664Y0068348D01*
X0101649Y0068338D01*
X0101636Y0068324D01*
X0101625Y0068305D01*
X0101616Y0068283D01*
X0101609Y0068257D01*
X0101604Y0068226D01*
X0101601Y0068192D01*
X01016Y0068153D01*
X01014D01*
X0101399Y0068192D01*
X0101396Y0068226D01*
X0101391Y0068257D01*
X0101384Y0068283D01*
X0101375Y0068305D01*
X0101364Y0068324D01*
X0101351Y0068338D01*
X0101336Y0068348D01*
X0101319Y0068354D01*
X01013Y0068356D01*
X01017D01*
X0101681Y0068354D01*
D02*
G37*
G36*
X0099681D02*
X0099664Y0068348D01*
X0099649Y0068338D01*
X0099636Y0068324D01*
X0099625Y0068305D01*
X0099616Y0068283D01*
X0099609Y0068257D01*
X0099604Y0068226D01*
X0099601Y0068192D01*
X00996Y0068153D01*
X00994D01*
X0099399Y0068192D01*
X0099396Y0068226D01*
X0099391Y0068257D01*
X0099384Y0068283D01*
X0099375Y0068305D01*
X0099364Y0068324D01*
X0099351Y0068338D01*
X0099336Y0068348D01*
X0099319Y0068354D01*
X00993Y0068356D01*
X00997D01*
X0099681Y0068354D01*
D02*
G37*
G36*
X0093147Y0068116D02*
X0093125Y0068123D01*
X0093094Y006813D01*
X0093055Y0068136D01*
X0092954Y0068145D01*
X0092743Y0068153D01*
X0092563Y0068155D01*
Y0068655D01*
X0092657Y0068655D01*
X0093094Y006868D01*
X0093125Y0068687D01*
X0093147Y0068694D01*
Y0068116D01*
D02*
G37*
G36*
X0096633Y0067126D02*
X0096623Y0067122D01*
X0096614Y0067114D01*
X0096606Y0067103D01*
X00966Y0067088D01*
X0096594Y0067071D01*
X009659Y006705D01*
X0096587Y0067026D01*
X0096585Y0066999D01*
X0096585Y0066969D01*
X0096385D01*
X0096384Y0066999D01*
X009638Y006705D01*
X0096375Y0067071D01*
X009637Y0067088D01*
X0096364Y0067103D01*
X0096356Y0067114D01*
X0096347Y0067122D01*
X0096337Y0067126D01*
X0096326Y0067128D01*
X0096644D01*
X0096633Y0067126D01*
D02*
G37*
G36*
X0096148D02*
X0096138Y0067122D01*
X0096129Y0067114D01*
X0096121Y0067103D01*
X0096115Y0067088D01*
X0096109Y0067071D01*
X0096105Y006705D01*
X0096102Y0067026D01*
X0096101Y0066999D01*
X00961Y0066969D01*
X00959D01*
X0095899Y0066999D01*
X0095895Y006705D01*
X0095891Y0067071D01*
X0095885Y0067088D01*
X0095879Y0067103D01*
X0095871Y0067114D01*
X0095862Y0067122D01*
X0095852Y0067126D01*
X0095841Y0067128D01*
X0096159D01*
X0096148Y0067126D01*
D02*
G37*
G36*
X0087607Y0066937D02*
X0087604Y0066955D01*
X0087596Y0066972D01*
X0087583Y0066987D01*
X0087565Y0067D01*
X0087541Y006701D01*
X0087512Y0067019D01*
X0087478Y0067026D01*
X0087439Y0067031D01*
X0087395Y0067034D01*
X0087345Y0067035D01*
Y0067235D01*
X0087395Y0067236D01*
X0087478Y0067244D01*
X0087512Y0067251D01*
X0087541Y006726D01*
X0087565Y006727D01*
X0087583Y0067283D01*
X0087596Y0067298D01*
X0087604Y0067314D01*
X0087607Y0067333D01*
Y0066937D01*
D02*
G37*
G36*
X0103589Y0067264D02*
X010357Y0067241D01*
X0103554Y0067218D01*
X010354Y0067194D01*
X0103527Y006717D01*
X0103518Y0067145D01*
X010351Y0067119D01*
X0103505Y0067096D01*
X0103508Y006708D01*
X0103518Y006705D01*
X0103532Y0067024D01*
X010355Y0067002D01*
X0103572Y0066984D01*
X0103598Y006697D01*
X0103628Y006696D01*
X0103662Y0066954D01*
X01037Y0066952D01*
X01034Y0066752D01*
X01031Y0066952D01*
X0103138Y0066954D01*
X0103172Y006696D01*
X0103202Y006697D01*
X0103228Y0066984D01*
X010325Y0067002D01*
X0103268Y0067024D01*
X0103282Y006705D01*
X0103292Y006708D01*
X0103295Y0067096D01*
X010329Y0067119D01*
X0103282Y0067145D01*
X0103272Y006717D01*
X010326Y0067194D01*
X0103246Y0067218D01*
X010323Y0067241D01*
X0103211Y0067264D01*
X010319Y0067286D01*
X010361D01*
X0103589Y0067264D01*
D02*
G37*
G36*
X0099602Y0067114D02*
X0099608Y006708D01*
X0099618Y006705D01*
X0099632Y0067024D01*
X009965Y0067002D01*
X0099672Y0066984D01*
X0099698Y006697D01*
X0099728Y006696D01*
X0099762Y0066954D01*
X00998Y0066952D01*
X00995Y0066752D01*
X00992Y0066952D01*
X0099238Y0066954D01*
X0099272Y006696D01*
X0099302Y006697D01*
X0099328Y0066984D01*
X009935Y0067002D01*
X0099368Y0067024D01*
X0099382Y006705D01*
X0099392Y006708D01*
X0099398Y0067114D01*
X00994Y0067152D01*
X00996D01*
X0099602Y0067114D01*
D02*
G37*
G36*
X0055475Y0067488D02*
X0055488Y0067404D01*
X0055511Y006732D01*
X0055542Y0067236D01*
X0055583Y0067151D01*
X0055633Y0067066D01*
X0055692Y006698D01*
X005576Y0066894D01*
X0055837Y0066808D01*
X0055923Y0066721D01*
X0054523Y0066707D01*
X0054608Y0066796D01*
X0054751Y0066972D01*
X0054809Y0067059D01*
X0054858Y0067145D01*
X0054898Y0067231D01*
X005493Y0067316D01*
X0054952Y00674D01*
X0054966Y0067483D01*
X005497Y0067566D01*
X005547Y0067571D01*
X0055475Y0067488D01*
D02*
G37*
G36*
X0096585Y006625D02*
X009659Y0066198D01*
X0096594Y0066177D01*
X00966Y0066159D01*
X0096606Y0066145D01*
X0096614Y0066133D01*
X0096623Y0066125D01*
X0096633Y0066121D01*
X0096644Y0066119D01*
X0096326D01*
X0096337Y0066121D01*
X0096347Y0066125D01*
X0096356Y0066133D01*
X0096364Y0066145D01*
X009637Y0066159D01*
X0096375Y0066177D01*
X009638Y0066198D01*
X0096382Y0066223D01*
X0096384Y006625D01*
X0096385Y0066281D01*
X0096585D01*
X0096585Y006625D01*
D02*
G37*
G36*
X0096101D02*
X0096105Y0066198D01*
X0096109Y0066177D01*
X0096115Y0066159D01*
X0096121Y0066145D01*
X0096129Y0066133D01*
X0096138Y0066125D01*
X0096148Y0066121D01*
X0096159Y0066119D01*
X0095841D01*
X0095852Y0066121D01*
X0095862Y0066125D01*
X0095871Y0066133D01*
X0095879Y0066145D01*
X0095885Y0066159D01*
X0095891Y0066177D01*
X0095895Y0066198D01*
X0095898Y0066223D01*
X0095899Y006625D01*
X00959Y0066281D01*
X00961D01*
X0096101Y006625D01*
D02*
G37*
G36*
X01018Y0066298D02*
X0101762Y0066296D01*
X0101728Y006629D01*
X0101698Y006628D01*
X0101672Y0066266D01*
X010165Y0066248D01*
X0101632Y0066226D01*
X0101618Y00662D01*
X0101608Y006617D01*
X0101602Y0066136D01*
X01016Y0066098D01*
X01014D01*
X0101398Y0066136D01*
X0101392Y006617D01*
X0101382Y00662D01*
X0101368Y0066226D01*
X010135Y0066248D01*
X0101328Y0066266D01*
X0101302Y006628D01*
X0101272Y006629D01*
X0101238Y0066296D01*
X01012Y0066298D01*
X01015Y0066498D01*
X01018Y0066298D01*
D02*
G37*
G36*
X0087607Y0065667D02*
X0087604Y0065686D01*
X0087596Y0065702D01*
X0087583Y0065717D01*
X0087565Y006573D01*
X0087541Y006574D01*
X0087512Y0065749D01*
X0087478Y0065756D01*
X0087439Y0065761D01*
X0087395Y0065764D01*
X0087345Y0065765D01*
Y0065965D01*
X0087395Y0065966D01*
X0087478Y0065974D01*
X0087512Y0065981D01*
X0087541Y006599D01*
X0087565Y0066D01*
X0087583Y0066013D01*
X0087596Y0066028D01*
X0087604Y0066045D01*
X0087607Y0066063D01*
Y0065667D01*
D02*
G37*
G36*
X0110903Y0065647D02*
X0110906Y006535D01*
X0110904Y0065369D01*
X0110898Y0065386D01*
X0110887Y0065401D01*
X0110873Y0065414D01*
X0110855Y0065425D01*
X0110833Y0065434D01*
X0110806Y0065441D01*
X0110776Y0065446D01*
X0110741Y0065449D01*
X0110703Y006545D01*
Y006565D01*
X0110903Y0065647D01*
D02*
G37*
G36*
X0109297Y006545D02*
X0109259Y0065449D01*
X0109224Y0065446D01*
X0109194Y0065441D01*
X0109167Y0065434D01*
X0109145Y0065425D01*
X0109127Y0065414D01*
X0109113Y0065401D01*
X0109102Y0065386D01*
X0109096Y0065369D01*
X0109094Y006535D01*
X0109097Y0065647D01*
X0109099Y0065648D01*
X0109105Y0065648D01*
X0109147Y0065649D01*
X0109297Y006565D01*
Y006545D01*
D02*
G37*
G36*
X0058756Y006527D02*
X005875Y0065252D01*
Y0065231D01*
X0058756Y0065207D01*
X0058767Y006518D01*
X0058784Y006515D01*
X0058807Y0065118D01*
X0058835Y0065082D01*
X0058908Y0065003D01*
X0058767Y0064862D01*
X0058726Y0064901D01*
X0058652Y0064963D01*
X005862Y0064986D01*
X005859Y0065003D01*
X0058563Y0065014D01*
X0058539Y006502D01*
X0058518D01*
X00585Y0065014D01*
X0058484Y0065003D01*
X0058767Y0065286D01*
X0058756Y006527D01*
D02*
G37*
G36*
X0055483Y0065976D02*
X0055493Y0065948D01*
X005551Y0065914D01*
X0055534Y0065877D01*
X0055564Y0065835D01*
X0055645Y0065736D01*
X0055752Y006562D01*
X0055806Y0065566D01*
X005623Y006599D01*
X005623Y0065828D01*
X0056258Y0065419D01*
X0056275Y0065308D01*
X0056297Y006521D01*
X0056324Y0065124D01*
X0056354Y0065051D01*
X0056389Y0064991D01*
X0056429Y0064943D01*
X0056287Y0064801D01*
X0056239Y0064841D01*
X0056179Y0064876D01*
X0056106Y0064906D01*
X005602Y0064933D01*
X0055922Y0064955D01*
X0055811Y0064972D01*
X0055551Y0064995D01*
X0055402Y0065D01*
X005524Y0065D01*
X0055664Y0065424D01*
X005561Y0065478D01*
X0055396Y0065666D01*
X0055353Y0065696D01*
X0055316Y006572D01*
X0055282Y0065737D01*
X0055254Y0065747D01*
X005523Y006575D01*
X005548Y0066D01*
X0055483Y0065976D01*
D02*
G37*
G36*
X0110906Y00643D02*
X0110904Y0064319D01*
X0110898Y0064336D01*
X0110888Y0064351D01*
X0110874Y0064364D01*
X0110855Y0064375D01*
X0110833Y0064384D01*
X0110807Y0064391D01*
X0110776Y0064396D01*
X0110742Y0064399D01*
X0110703Y00644D01*
Y00646D01*
X0110742Y0064601D01*
X0110776Y0064604D01*
X0110807Y0064609D01*
X0110833Y0064616D01*
X0110855Y0064625D01*
X0110874Y0064636D01*
X0110888Y0064649D01*
X0110898Y0064664D01*
X0110904Y0064681D01*
X0110906Y00647D01*
Y00643D01*
D02*
G37*
G36*
X0109096Y0064681D02*
X0109102Y0064664D01*
X0109112Y0064649D01*
X0109126Y0064636D01*
X0109145Y0064625D01*
X0109167Y0064616D01*
X0109193Y0064609D01*
X0109224Y0064604D01*
X0109258Y0064601D01*
X0109297Y00646D01*
Y00644D01*
X0109258Y0064399D01*
X0109224Y0064396D01*
X0109193Y0064391D01*
X0109167Y0064384D01*
X0109145Y0064375D01*
X0109126Y0064364D01*
X0109112Y0064351D01*
X0109102Y0064336D01*
X0109096Y0064319D01*
X0109094Y00643D01*
Y00647D01*
X0109096Y0064681D01*
D02*
G37*
G36*
X0101601Y0064083D02*
X0101604Y0064049D01*
X0101609Y0064018D01*
X0101616Y0063992D01*
X0101625Y006397D01*
X0101636Y0063951D01*
X0101649Y0063937D01*
X0101664Y0063927D01*
X0101681Y0063921D01*
X01017Y0063919D01*
X01013D01*
X0101319Y0063921D01*
X0101336Y0063927D01*
X0101351Y0063937D01*
X0101364Y0063951D01*
X0101375Y006397D01*
X0101384Y0063992D01*
X0101391Y0064018D01*
X0101396Y0064049D01*
X0101399Y0064083D01*
X01014Y0064122D01*
X01016D01*
X0101601Y0064083D01*
D02*
G37*
G36*
X0096639Y0063873D02*
X009661Y0063858D01*
X0096584Y0063833D01*
X0096562Y0063798D01*
X0096543Y0063753D01*
X0096528Y0063698D01*
X0096515Y0063633D01*
X0096507Y0063558D01*
X0096502Y0063473D01*
X00965Y0063378D01*
X0096D01*
X0095998Y0063473D01*
X0095985Y0063633D01*
X0095972Y0063698D01*
X0095957Y0063753D01*
X0095938Y0063798D01*
X0095916Y0063833D01*
X009589Y0063858D01*
X0095861Y0063873D01*
X0095828Y0063878D01*
X0096672D01*
X0096639Y0063873D01*
D02*
G37*
G36*
X0080971Y0062784D02*
X0080954Y0062778D01*
X0080939Y0062768D01*
X0080926Y0062754D01*
X0080915Y0062735D01*
X0080906Y0062713D01*
X0080899Y0062687D01*
X0080894Y0062656D01*
X0080891Y0062622D01*
X008089Y0062583D01*
X008069D01*
X0080689Y0062622D01*
X0080686Y0062656D01*
X0080681Y0062687D01*
X0080674Y0062713D01*
X0080665Y0062735D01*
X0080654Y0062754D01*
X0080641Y0062768D01*
X0080626Y0062778D01*
X0080609Y0062784D01*
X008059Y0062786D01*
X008099D01*
X0080971Y0062784D01*
D02*
G37*
G36*
X0078431D02*
X0078414Y0062778D01*
X0078399Y0062768D01*
X0078386Y0062754D01*
X0078375Y0062735D01*
X0078366Y0062713D01*
X0078359Y0062687D01*
X0078354Y0062656D01*
X0078351Y0062622D01*
X007835Y0062583D01*
X007815D01*
X0078149Y0062622D01*
X0078146Y0062656D01*
X0078141Y0062687D01*
X0078134Y0062713D01*
X0078125Y0062735D01*
X0078114Y0062754D01*
X0078101Y0062768D01*
X0078086Y0062778D01*
X0078069Y0062784D01*
X007805Y0062786D01*
X007845D01*
X0078431Y0062784D01*
D02*
G37*
G36*
X0075426Y0062784D02*
X0075409Y0062778D01*
X0075394Y0062767D01*
X0075381Y0062753D01*
X007537Y0062735D01*
X0075361Y0062713D01*
X0075354Y0062686D01*
X0075349Y0062656D01*
X0075346Y0062621D01*
X0075345Y0062583D01*
X0075145D01*
X0075148Y0062783D01*
X0075445Y0062786D01*
X0075426Y0062784D01*
D02*
G37*
G36*
X0080891Y0062334D02*
X0080897Y006227D01*
X0080903Y0062244D01*
X008091Y0062222D01*
X008092Y0062204D01*
X008093Y006219D01*
X0080942Y006218D01*
X0080956Y0062174D01*
X0080972Y0062172D01*
X008059Y0062169D01*
X0080609Y0062171D01*
X0080626Y0062177D01*
X0080641Y0062188D01*
X0080654Y0062202D01*
X0080665Y006222D01*
X0080674Y0062242D01*
X0080681Y0062269D01*
X0080686Y0062299D01*
X0080689Y0062334D01*
X008069Y0062372D01*
X008089D01*
X0080891Y0062334D01*
D02*
G37*
G36*
X0078113Y0062172D02*
X0078073Y0062131D01*
X0078011Y0062057D01*
X0077988Y0062024D01*
X007797Y0061994D01*
X0077959Y0061968D01*
X0077953Y0061944D01*
X0077953Y0061923D01*
X0077958Y0061904D01*
X0077969Y0061889D01*
X0077689Y0062169D01*
X0077704Y0062158D01*
X0077723Y0062153D01*
X0077744Y0062153D01*
X0077768Y0062159D01*
X0077794Y006217D01*
X0077824Y0062188D01*
X0077857Y0062211D01*
X0077892Y0062239D01*
X0077972Y0062313D01*
X0078113Y0062172D01*
D02*
G37*
G36*
X0075113D02*
X0075073Y0062131D01*
X0075011Y0062057D01*
X0074988Y0062024D01*
X007497Y0061994D01*
X0074959Y0061968D01*
X0074953Y0061944D01*
X0074953Y0061923D01*
X0074958Y0061904D01*
X0074969Y0061889D01*
X0074689Y0062169D01*
X0074704Y0062158D01*
X0074723Y0062153D01*
X0074744Y0062153D01*
X0074768Y0062159D01*
X0074794Y006217D01*
X0074824Y0062188D01*
X0074857Y0062211D01*
X0074892Y0062239D01*
X0074972Y0062313D01*
X0075113Y0062172D01*
D02*
G37*
G36*
X0074945Y0064846D02*
Y0063565D01*
X0074939Y0063535D01*
X0074939Y0063535D01*
Y0062572D01*
X007479Y0062423D01*
X0074759Y0062393D01*
X0074736Y0062375D01*
X0073925D01*
Y0061615D01*
X0073924Y0061611D01*
X0073925Y0061607D01*
Y006158D01*
X007386Y0061527D01*
X0073771Y0061566D01*
X0073741Y006159D01*
Y0063808D01*
X0074828Y0064894D01*
X0074945Y0064846D01*
D02*
G37*
G36*
X0077485Y006258D02*
X0077768D01*
X0077813Y006247D01*
X0077732Y0062375D01*
X0076925D01*
Y0061615D01*
X0076924Y0061611D01*
X0076925Y0061607D01*
Y0061565D01*
X0076883Y0061516D01*
X0076842Y0061475D01*
X0076725Y0061524D01*
Y0061575D01*
X0076125D01*
Y0060975D01*
X0076176D01*
X0076225Y0060858D01*
X0074723Y0059356D01*
X0072754D01*
X0072706Y0059473D01*
X0074308Y0061076D01*
X007434Y0061106D01*
X0074365Y0061125D01*
X0074365Y0061125D01*
X0074407D01*
X0074411Y0061124D01*
X0074415Y0061125D01*
X0075175D01*
X0075175Y0060975D01*
X0075775D01*
Y006175D01*
X007595D01*
Y0061925D01*
X0076725D01*
Y0062525D01*
X0076579D01*
X0076475Y006258D01*
Y0065214D01*
X0077485D01*
Y006258D01*
D02*
G37*
G36*
X0080025D02*
X0080484D01*
Y0062375D01*
X0079925D01*
Y0061615D01*
X0079924Y0061611D01*
X0079925Y0061607D01*
Y0061565D01*
X0079883Y0061516D01*
X0079842Y0061475D01*
X0079725Y0061524D01*
Y0061575D01*
X0079125D01*
Y0060975D01*
X0079176D01*
X0079225Y0060858D01*
X0077323Y0058956D01*
X0075354D01*
X0075306Y0059073D01*
X0077308Y0061076D01*
X007734Y0061106D01*
X0077365Y0061125D01*
X0077365Y0061125D01*
X0077407D01*
X0077411Y0061124D01*
X0077415Y0061125D01*
X0078175D01*
X0078175Y0060975D01*
X0078775D01*
Y006175D01*
X007895D01*
Y0061925D01*
X0079725D01*
Y0062525D01*
X0079119D01*
X0079015Y006258D01*
Y0065214D01*
X0080025D01*
Y006258D01*
D02*
G37*
G36*
X0080411Y0061328D02*
X0080395Y0061339D01*
X0080377Y0061345D01*
X0080356D01*
X0080332Y0061339D01*
X0080305Y0061328D01*
X0080275Y0061311D01*
X0080243Y0061288D01*
X0080207Y006126D01*
X0080128Y0061187D01*
X0079987Y0061328D01*
X0080026Y0061369D01*
X0080088Y0061443D01*
X0080111Y0061475D01*
X0080128Y0061505D01*
X0080139Y0061532D01*
X0080145Y0061556D01*
Y0061577D01*
X0080139Y0061595D01*
X0080128Y0061611D01*
X0080411Y0061328D01*
D02*
G37*
G36*
X0077411D02*
X0077395Y0061339D01*
X0077377Y0061345D01*
X0077356D01*
X0077332Y0061339D01*
X0077305Y0061328D01*
X0077275Y0061311D01*
X0077243Y0061288D01*
X0077207Y006126D01*
X0077128Y0061187D01*
X0076987Y0061328D01*
X0077026Y0061369D01*
X0077088Y0061443D01*
X0077111Y0061475D01*
X0077128Y0061505D01*
X0077139Y0061532D01*
X0077145Y0061556D01*
Y0061577D01*
X0077139Y0061595D01*
X0077128Y0061611D01*
X0077411Y0061328D01*
D02*
G37*
G36*
X0074411D02*
X0074395Y0061339D01*
X0074377Y0061345D01*
X0074356D01*
X0074332Y0061339D01*
X0074305Y0061328D01*
X0074275Y0061311D01*
X0074243Y0061288D01*
X0074207Y006126D01*
X0074128Y0061187D01*
X0073987Y0061328D01*
X0074026Y0061369D01*
X0074088Y0061443D01*
X0074111Y0061475D01*
X0074128Y0061505D01*
X0074139Y0061532D01*
X0074145Y0061556D01*
Y0061577D01*
X0074139Y0061595D01*
X0074128Y0061611D01*
X0074411Y0061328D01*
D02*
G37*
G36*
X0067254Y0061324D02*
X0067253Y0061326D01*
X006725Y0061327D01*
X0067245Y0061328D01*
X0067237Y006133D01*
X0067214Y0061331D01*
X0067164Y0061333D01*
X0067142Y0061333D01*
Y0061533D01*
X0067281Y006154D01*
X0067254Y0061324D01*
D02*
G37*
G36*
X0072329Y0063927D02*
Y0062037D01*
X0071248Y0060956D01*
X007055D01*
Y006105D01*
X0070456D01*
Y006222D01*
X0072212Y0063976D01*
X0072329Y0063927D01*
D02*
G37*
G36*
X0065236Y0060939D02*
X0065259Y006092D01*
X0065282Y0060904D01*
X0065306Y006089D01*
X006533Y0060877D01*
X0065355Y0060868D01*
X0065381Y006086D01*
X0065408Y0060854D01*
X0065435Y0060851D01*
X0065463Y006085D01*
Y006065D01*
X0065435Y0060649D01*
X0065408Y0060646D01*
X0065381Y006064D01*
X0065355Y0060632D01*
X006533Y0060623D01*
X0065306Y006061D01*
X0065282Y0060596D01*
X0065259Y006058D01*
X0065236Y0060561D01*
X0065214Y006054D01*
Y006096D01*
X0065236Y0060939D01*
D02*
G37*
G36*
X0112253Y0060797D02*
X0112256Y00605D01*
X0112254Y0060519D01*
X0112248Y0060536D01*
X0112237Y0060551D01*
X0112223Y0060564D01*
X0112205Y0060575D01*
X0112183Y0060584D01*
X0112156Y0060591D01*
X0112126Y0060596D01*
X0112091Y0060599D01*
X0112053Y00606D01*
Y00608D01*
X0112253Y0060797D01*
D02*
G37*
G36*
X0110947Y00606D02*
X0110909Y0060599D01*
X0110874Y0060596D01*
X0110844Y0060591D01*
X0110817Y0060584D01*
X0110795Y0060575D01*
X0110777Y0060564D01*
X0110763Y0060551D01*
X0110752Y0060536D01*
X0110746Y0060519D01*
X0110744Y00605D01*
X0110747Y0060797D01*
X0110947Y00608D01*
Y00606D01*
D02*
G37*
G36*
X0091355Y0061355D02*
X009137Y006127D01*
X0091395Y0061195D01*
X009143Y006113D01*
X0091475Y0061075D01*
X009153Y006103D01*
X0091595Y0060995D01*
X009167Y006097D01*
X0091755Y0060955D01*
X009185Y006095D01*
Y006045D01*
X0091755Y0060445D01*
X009167Y006043D01*
X0091595Y0060405D01*
X009153Y006037D01*
X0091475Y0060325D01*
X009143Y006027D01*
X0091395Y0060205D01*
X009137Y006013D01*
X0091355Y0060045D01*
X009135Y005995D01*
X009085Y00607D01*
X009135Y006145D01*
X0091355Y0061355D01*
D02*
G37*
G36*
X0056446Y006027D02*
X005644Y0060252D01*
Y0060231D01*
X0056446Y0060207D01*
X0056457Y006018D01*
X0056474Y006015D01*
X0056497Y0060118D01*
X0056525Y0060082D01*
X0056598Y0060003D01*
X0056457Y0059862D01*
X0056416Y0059901D01*
X0056342Y0059963D01*
X005631Y0059986D01*
X005628Y0060003D01*
X0056253Y0060014D01*
X0056229Y006002D01*
X0056208D01*
X005619Y0060014D01*
X0056174Y0060003D01*
X0056457Y0060286D01*
X0056446Y006027D01*
D02*
G37*
G36*
X0112256Y005845D02*
X0112254Y0058469D01*
X0112248Y0058486D01*
X0112238Y0058501D01*
X0112224Y0058514D01*
X0112205Y0058525D01*
X0112183Y0058534D01*
X0112157Y0058541D01*
X0112126Y0058546D01*
X0112092Y0058549D01*
X0112053Y005855D01*
Y005875D01*
X0112092Y0058751D01*
X0112126Y0058754D01*
X0112157Y0058759D01*
X0112183Y0058766D01*
X0112205Y0058775D01*
X0112224Y0058786D01*
X0112238Y0058799D01*
X0112248Y0058814D01*
X0112254Y0058831D01*
X0112256Y005885D01*
Y005845D01*
D02*
G37*
G36*
X0110746Y0058831D02*
X0110752Y0058814D01*
X0110762Y0058799D01*
X0110776Y0058786D01*
X0110795Y0058775D01*
X0110817Y0058766D01*
X0110843Y0058759D01*
X0110874Y0058754D01*
X0110908Y0058751D01*
X0110947Y005875D01*
Y005855D01*
X0110908Y0058549D01*
X0110874Y0058546D01*
X0110843Y0058541D01*
X0110817Y0058534D01*
X0110795Y0058525D01*
X0110776Y0058514D01*
X0110762Y0058501D01*
X0110752Y0058486D01*
X0110746Y0058469D01*
X0110744Y005845D01*
Y005885D01*
X0110746Y0058831D01*
D02*
G37*
G36*
X0116694Y005799D02*
X01143D01*
Y0056852D01*
X011308D01*
X011206Y0057873D01*
X0112065Y0058D01*
X011345D01*
Y00591D01*
X011345Y00591D01*
Y00599D01*
X011345Y00599D01*
Y0061D01*
X011243D01*
X01124Y0061006D01*
X01124Y0061006D01*
X0112033D01*
Y0062077D01*
X011201Y0062194D01*
X0111943Y0062293D01*
X0111943Y0062293D01*
X0111204Y0063033D01*
X0111253Y006315D01*
X01136D01*
Y006585D01*
X011113D01*
X01111Y0065856D01*
X01111Y0065856D01*
X0110533D01*
Y0066021D01*
X0110533Y0066021D01*
X011051Y0066138D01*
X0110443Y0066237D01*
X0110443Y0066237D01*
X0109612Y0067068D01*
X0109513Y0067135D01*
X0109396Y0067158D01*
X0109396Y0067158D01*
X0103907D01*
X0103848Y006727D01*
X0103871Y0067305D01*
X010391Y00675D01*
X0103871Y0067695D01*
X010376Y006786D01*
X0103595Y0067971D01*
X01034Y006801D01*
X0103205Y0067971D01*
X010304Y006786D01*
X0102929Y0067695D01*
X010289Y00675D01*
X0102929Y0067305D01*
X0102952Y006727D01*
X0102893Y0067158D01*
X0102007D01*
X0101948Y006727D01*
X0101971Y0067305D01*
X010201Y00675D01*
X0101971Y0067695D01*
X010186Y006786D01*
X0101806Y0067897D01*
Y006815D01*
X010195D01*
Y006965D01*
X010095D01*
Y006815D01*
X0101194D01*
Y0067897D01*
X010114Y006786D01*
X0101029Y0067695D01*
X010099Y00675D01*
X0101029Y0067305D01*
X0101052Y006727D01*
X0100993Y0067158D01*
X0099806D01*
Y006815D01*
X010005D01*
Y006965D01*
X009905D01*
Y006815D01*
X0099194D01*
Y0067158D01*
X0096875D01*
X0096875Y0068175D01*
X0097025Y0068175D01*
Y0068775D01*
X0095475D01*
Y0068175D01*
X0095625Y0068175D01*
X0095625Y0068048D01*
Y0067158D01*
X0094741D01*
X0094671Y0067204D01*
X0094646Y006733D01*
X0094535Y0067495D01*
X009437Y0067606D01*
X0094175Y0067645D01*
X0093225D01*
X009303Y0067606D01*
X0092865Y0067495D01*
X0092754Y006733D01*
X0092715Y0067135D01*
X0092754Y006694D01*
X0092865Y0066775D01*
X009303Y0066664D01*
X0093225Y0066625D01*
X0094119D01*
X0094158Y0066587D01*
X0094159Y0066585D01*
Y0066485D01*
X0094049Y0066375D01*
X0093225D01*
X009303Y0066336D01*
X0092865Y0066225D01*
X0092754Y006606D01*
X0092715Y0065865D01*
X0092754Y006567D01*
X0092865Y0065505D01*
X009303Y0065394D01*
X0093145Y0065371D01*
Y0065242D01*
X0092971Y0065207D01*
X0092756Y0065064D01*
X0092613Y0064849D01*
X0092597Y006477D01*
X0094803D01*
X0094787Y0064849D01*
X0094644Y0065064D01*
X0094429Y0065207D01*
X0094255Y0065242D01*
Y0065371D01*
X009437Y0065394D01*
X0094535Y0065505D01*
X0094646Y006567D01*
X0094685Y0065865D01*
X0094684Y0065869D01*
X0094765Y0065967D01*
X0094804D01*
X0094804Y0065967D01*
X0094921Y006599D01*
X009502Y0066057D01*
X0095055Y0066092D01*
X0095625D01*
Y0065075D01*
X0096875D01*
Y0066092D01*
X0101194D01*
Y0065897D01*
X010114Y006586D01*
X0101029Y0065695D01*
X010099Y00655D01*
X0101029Y0065305D01*
X010114Y006514D01*
X0101194Y0065103D01*
Y0064125D01*
X0100875D01*
Y0062875D01*
X0102125D01*
Y0064125D01*
X0101806D01*
Y0065103D01*
X010186Y006514D01*
X0101971Y0065305D01*
X010201Y00655D01*
X0101971Y0065695D01*
X010186Y006586D01*
X0101806Y0065897D01*
Y0066092D01*
X0103122D01*
X0103197Y0065974D01*
X0103196Y0065965D01*
X010304Y006586D01*
X0102929Y0065695D01*
X010289Y00655D01*
X0102929Y0065305D01*
X010304Y006514D01*
X0103094Y0065103D01*
Y005722D01*
X0103094Y005722D01*
X0103117Y0057103D01*
X0103184Y0057004D01*
X0104864Y0055324D01*
X0104864Y0055324D01*
X0104963Y0055257D01*
X010508Y0055234D01*
X010518D01*
Y0054775D01*
X010802D01*
Y0056305D01*
X010518D01*
Y0056039D01*
X0105063Y005599D01*
X0103706Y0057347D01*
Y0065103D01*
X010376Y006514D01*
X0103871Y0065305D01*
X010391Y00655D01*
X0103871Y0065695D01*
X010376Y006586D01*
X0103604Y0065965D01*
X0103603Y0065974D01*
X0103678Y0066092D01*
X0109081D01*
X01092Y0065973D01*
X0109151Y0065856D01*
X01089D01*
X010887Y006585D01*
X01064D01*
Y006315D01*
X01093D01*
Y0064194D01*
X0109467D01*
Y0063389D01*
X0109467Y0063389D01*
X010949Y0063272D01*
X0109557Y0063173D01*
X0110967Y0061762D01*
Y0061006D01*
X01106D01*
X01106Y0061006D01*
X011057Y0061D01*
X010955D01*
Y00599D01*
X010955Y00599D01*
Y00591D01*
X010955Y00591D01*
Y0058D01*
X0110944D01*
Y0057543D01*
X0110944Y0057543D01*
X0110967Y0057426D01*
X0111034Y0057327D01*
X011243Y005593D01*
X0112529Y0055864D01*
X0112646Y0055841D01*
X0113477D01*
X0114163Y0055154D01*
X0114173Y0055143D01*
X0114193Y0055108D01*
X0114214Y0055056D01*
X0114235Y0054988D01*
X0114254Y0054904D01*
X0114269Y0054808D01*
X0114296Y0054415D01*
X0114296Y0054298D01*
X011429Y005425D01*
X0114331Y0053937D01*
X0114452Y0053645D01*
X0114644Y0053394D01*
X0114895Y0053202D01*
X0115187Y0053081D01*
X0115467Y0053044D01*
Y0052916D01*
X0115187Y0052879D01*
X0114895Y0052758D01*
X0114644Y0052566D01*
X0114452Y0052315D01*
X0114331Y0052023D01*
X011429Y005171D01*
X0114312Y0051544D01*
X011431Y0051527D01*
X0114345Y0051246D01*
X0114351Y0051131D01*
X0114351Y0051027D01*
X0114345Y0050936D01*
X0114333Y0050859D01*
X0114317Y0050796D01*
X0114298Y0050748D01*
X0114278Y0050714D01*
X0114266Y0050699D01*
X0113373Y0049806D01*
X0112293D01*
X0112293Y0049806D01*
X0112176Y0049783D01*
X0112077Y0049716D01*
X0112077Y0049716D01*
X0111034Y0048673D01*
X0110967Y0048574D01*
X0110944Y0048457D01*
X0110944Y0048457D01*
Y0048D01*
X010955D01*
Y00469D01*
X010955Y00469D01*
Y00461D01*
X010955Y00461D01*
Y0045D01*
X011057D01*
X01106Y0044994D01*
X01106Y0044994D01*
X0110967D01*
Y0044504D01*
X0109557Y0043093D01*
X010949Y0042994D01*
X0109467Y0042877D01*
X0109467Y0042877D01*
Y0041806D01*
X01093D01*
Y004285D01*
X01064D01*
Y0040158D01*
X0101817D01*
X0101779Y0040285D01*
X010186Y004034D01*
X0101971Y0040505D01*
X010201Y00407D01*
X0101997Y0040764D01*
X0103535Y0042302D01*
X0103535Y0042302D01*
X0103601Y0042402D01*
X0103625Y0042519D01*
Y0048572D01*
X0105063Y005001D01*
X010518Y0049961D01*
Y0049695D01*
X010802D01*
Y0051225D01*
X010518D01*
Y0050766D01*
X010508D01*
X0104963Y0050743D01*
X0104864Y0050676D01*
X0104864Y0050676D01*
X0103102Y0048915D01*
X0103036Y0048816D01*
X0103013Y0048699D01*
X0103013Y0048699D01*
Y0042645D01*
X0102252Y0041885D01*
X0102125Y0041937D01*
Y0043125D01*
X0100875D01*
Y0042205D01*
X0100869Y0042175D01*
X0100869Y0042175D01*
Y0042002D01*
X0099973Y0041106D01*
X009986Y004106D01*
X0099695Y0041171D01*
X00995Y004121D01*
X0099305Y0041171D01*
X009914Y004106D01*
X0099029Y0040895D01*
X009899Y00407D01*
X0099029Y0040505D01*
X009914Y004034D01*
X0099194Y0040303D01*
Y0040158D01*
X0096875D01*
X0096875Y0041175D01*
X0097025Y0041175D01*
Y0041775D01*
X0095475D01*
Y0041175D01*
X0095625Y0041175D01*
X0095625Y0041048D01*
Y0040158D01*
X0094741D01*
X0094671Y0040204D01*
X0094646Y004033D01*
X0094535Y0040495D01*
X009437Y0040606D01*
X0094175Y0040645D01*
X0093225D01*
X009303Y0040606D01*
X0092865Y0040495D01*
X0092754Y004033D01*
X0092715Y0040135D01*
X0092754Y003994D01*
X0092865Y0039775D01*
X009303Y0039664D01*
X0093225Y0039625D01*
X0094119D01*
X0094158Y0039587D01*
X0094159Y0039585D01*
Y0039485D01*
X0094049Y0039375D01*
X0093225D01*
X009303Y0039336D01*
X0092865Y0039225D01*
X0092754Y003906D01*
X0092715Y0038865D01*
X0092754Y003867D01*
X0092807Y0038591D01*
X0092783Y0038534D01*
X0092737Y0038468D01*
X00926Y003844D01*
X0092468Y0038352D01*
X0092468Y0038352D01*
X0092341Y003839D01*
Y0040922D01*
X0092365Y0040946D01*
X0092824D01*
X009294Y0040942D01*
X009303Y0040933D01*
X0093045Y0040931D01*
X0093073Y0040925D01*
X0093084Y0040922D01*
X0093102Y004092D01*
X0093225Y0040895D01*
X0094175D01*
X009437Y0040934D01*
X0094535Y0041045D01*
X0094646Y004121D01*
X0094685Y0041405D01*
X0094646Y00416D01*
X0094535Y0041765D01*
X009437Y0041876D01*
X0094199Y004191D01*
X0094195Y0041916D01*
X0094184Y0041945D01*
X0094172Y0041989D01*
X0094162Y0042048D01*
X0094159Y004209D01*
Y0042192D01*
X0094162Y0042233D01*
X0094172Y0042291D01*
X0094184Y0042334D01*
X0094195Y0042363D01*
X0094203Y0042375D01*
X0094575D01*
Y0043418D01*
X0094576Y0043422D01*
X0094575Y0043426D01*
Y0043625D01*
X0094433D01*
X0094426Y0043648D01*
X0094418Y0043694D01*
X0094409Y0043799D01*
Y0050513D01*
X0094374Y0050688D01*
X0094274Y0050837D01*
X0091559Y0053553D01*
Y0060027D01*
X0091568Y006008D01*
X0091583Y0060124D01*
X00916Y0060156D01*
X009162Y006018D01*
X0091644Y00602D01*
X0091676Y0060217D01*
X009172Y0060232D01*
X0091773Y0060241D01*
X0093825D01*
X0094001Y0060276D01*
X0094149Y0060376D01*
X0096574Y0062801D01*
X0096674Y0062949D01*
X0096709Y0063125D01*
Y0063519D01*
X009671Y006354D01*
X0096717Y0063603D01*
X0096726Y0063652D01*
X0096733Y0063675D01*
X0096875D01*
Y0063874D01*
X0096876Y0063878D01*
X0096875Y0063882D01*
Y0064925D01*
X0095625D01*
Y0063882D01*
X0095624Y0063878D01*
X0095625Y0063874D01*
Y0063675D01*
X0095767D01*
X0095774Y0063652D01*
X0095782Y0063606D01*
X0095791Y0063501D01*
Y0063315D01*
X0093635Y0061159D01*
X0091773D01*
X009172Y0061168D01*
X0091676Y0061183D01*
X0091644Y00612D01*
X009162Y006122D01*
X00916Y0061244D01*
X0091583Y0061276D01*
X0091568Y006132D01*
X0091559Y0061373D01*
Y006714D01*
X0092365Y0067946D01*
X0092824D01*
X009294Y0067942D01*
X009303Y0067933D01*
X0093045Y0067931D01*
X0093073Y0067925D01*
X0093084Y0067922D01*
X0093102Y006792D01*
X0093225Y0067895D01*
X0094175D01*
X009437Y0067934D01*
X0094535Y0068045D01*
X0094646Y006821D01*
X0094685Y0068405D01*
X0094646Y00686D01*
X0094535Y0068765D01*
X009437Y0068876D01*
X0094324Y0068885D01*
X0094323Y0068888D01*
X009431Y0068923D01*
X0094297Y0068972D01*
X0094288Y0069036D01*
X0094284Y0069082D01*
Y0069192D01*
X0094287Y0069233D01*
X0094297Y0069291D01*
X0094309Y0069334D01*
X009432Y0069363D01*
X0094328Y0069375D01*
X0094575D01*
Y0070418D01*
X0094576Y0070422D01*
X0094575Y0070426D01*
Y0070625D01*
X0094433D01*
X0094426Y0070648D01*
X0094418Y0070694D01*
X0094409Y0070799D01*
Y0071175D01*
X0094374Y0071351D01*
X0094274Y0071499D01*
X0090949Y0074824D01*
X0090801Y0074924D01*
X0090625Y0074959D01*
X0076955D01*
X0076779Y0074924D01*
X0076631Y0074824D01*
X0076033Y0074227D01*
X0075941Y0074141D01*
X0075864Y0074079D01*
X0075795Y0074032D01*
X0075774Y007402D01*
X0075569D01*
X0075565Y0074021D01*
X007556Y007402D01*
X0074945D01*
Y0073102D01*
X0074933Y0073095D01*
X0074905Y0073084D01*
X0074861Y0073072D01*
X0074804Y0073062D01*
X0074762Y0073059D01*
X00538D01*
X0053624Y0073024D01*
X0053476Y0072924D01*
X0052476Y0071924D01*
X0052376Y0071776D01*
X0052341Y00716D01*
Y00599D01*
X0052376Y0059724D01*
X0052476Y0059576D01*
X0053476Y0058576D01*
X0053624Y0058476D01*
X00538Y0058441D01*
X006231D01*
X0064659Y0056092D01*
X006461Y0055975D01*
X006435D01*
Y00552D01*
X0064175D01*
Y0055025D01*
X00634D01*
Y0054425D01*
X00634D01*
Y00544D01*
X00634D01*
Y00538D01*
X0064175D01*
Y005345D01*
X00634D01*
Y005285D01*
X00634D01*
Y0052825D01*
X00634D01*
Y0052225D01*
X0064175D01*
Y005205D01*
X006435D01*
Y0051275D01*
X006495D01*
X0065041Y0051189D01*
Y00505D01*
X0065076Y0050324D01*
X0065176Y0050176D01*
X0065516Y0049835D01*
Y0046759D01*
X0065325D01*
X0065225Y0046825D01*
Y0047024D01*
X0065226Y0047028D01*
X0065225Y0047032D01*
Y0048075D01*
X0065375Y0048075D01*
Y0048675D01*
X00646D01*
Y004885D01*
X0064425D01*
Y0049625D01*
X0063275D01*
Y004885D01*
X0062925D01*
Y0049625D01*
X0061775D01*
Y004885D01*
X00616D01*
Y0048675D01*
X0060825D01*
Y0048075D01*
X0060825D01*
X0060844Y0047948D01*
X0060832Y0047935D01*
X0060812Y0047934D01*
X0060792D01*
X0060762Y0047936D01*
X0060701Y0047944D01*
X0060655Y0047954D01*
X0060625Y0047963D01*
Y0048125D01*
X0060426D01*
X0060422Y0048126D01*
X0060418Y0048125D01*
X0059582D01*
X0059578Y0048126D01*
X0059574Y0048125D01*
X0059468D01*
X0059403Y0048208D01*
X0059438Y0048275D01*
X0060625D01*
Y0049318D01*
X0060626Y0049322D01*
X0060625Y0049326D01*
Y0049525D01*
X0060463D01*
X0060454Y0049555D01*
X0060445Y0049598D01*
X0060434Y0049707D01*
Y0049725D01*
X0060434Y0049745D01*
X0060441Y0049807D01*
X0060449Y0049858D01*
X0060453Y0049875D01*
X0060575D01*
Y0050074D01*
X0060576Y0050078D01*
X0060575Y0050082D01*
Y0051125D01*
X0059325D01*
X0059325Y0051275D01*
X0058725D01*
Y00505D01*
X005855D01*
Y0050325D01*
X0057775D01*
Y0049725D01*
X0057725D01*
Y0049125D01*
X00585D01*
Y0048775D01*
X0057725D01*
Y0048175D01*
X0057875Y0048175D01*
Y0047132D01*
X0057874Y0047128D01*
X0057875Y0047124D01*
Y0046925D01*
X0058037D01*
X0058046Y0046895D01*
X0058055Y0046852D01*
X0058065Y0046752D01*
X0058059Y0046693D01*
X0058051Y0046642D01*
X0058047Y0046625D01*
X0057925D01*
Y0046426D01*
X0057924Y0046422D01*
X0057925Y0046418D01*
Y0045582D01*
X0057924Y0045578D01*
X0057925Y0045574D01*
Y0045375D01*
X0058027D01*
X0058028Y004537D01*
X0058041Y004521D01*
Y0044926D01*
X0058038Y0044857D01*
X0058032Y0044804D01*
X0058032Y00448D01*
X005795D01*
Y0044601D01*
X0057949Y0044597D01*
X005795Y0044593D01*
Y00433D01*
X005895D01*
Y0044056D01*
X0058959Y00441D01*
Y0045199D01*
X0058962Y0045235D01*
X005897Y0045294D01*
X0058981Y0045339D01*
X0058992Y0045369D01*
X0058995Y0045375D01*
X0059175D01*
Y0045574D01*
X0059176Y0045578D01*
X0059175Y0045582D01*
Y0046418D01*
X0059176Y0046422D01*
X0059175Y0046426D01*
Y0046625D01*
X0059013D01*
X0059004Y0046655D01*
X0058995Y0046698D01*
X0058985Y0046798D01*
X0058991Y0046857D01*
X0058999Y0046908D01*
X0059003Y0046925D01*
X0059125D01*
Y0047047D01*
X0059142Y0047051D01*
X005919Y0047059D01*
X0059246Y0047063D01*
X0059299Y0047056D01*
X0059345Y0047046D01*
X0059375Y0047037D01*
Y0046875D01*
X0059574D01*
X0059578Y0046874D01*
X0059582Y0046875D01*
X0060418D01*
X0060422Y0046874D01*
X0060426Y0046875D01*
X0060625D01*
Y0046997D01*
X0060642Y0047001D01*
X006069Y0047009D01*
X0060788Y0047016D01*
X0060808D01*
X0060838Y0047014D01*
X0060899Y0047006D01*
X0060945Y0046996D01*
X0060975Y0046987D01*
Y0046825D01*
X0061174D01*
X0061178Y0046824D01*
X0061182Y0046825D01*
X0062018D01*
X0062022Y0046824D01*
X0062026Y0046825D01*
X0062225D01*
Y0046967D01*
X0062248Y0046974D01*
X0062294Y0046982D01*
X0062356Y0046988D01*
X0062475Y0046966D01*
Y0046825D01*
X0062641D01*
Y0046695D01*
X0062625Y0046575D01*
X0062514Y0046575D01*
X0061375D01*
Y0046459D01*
X0060575D01*
Y0046625D01*
X0059325D01*
Y0045375D01*
X006006D01*
X0060109Y0045258D01*
X0060076Y0045224D01*
X0059976Y0045076D01*
X0059941Y00449D01*
Y00448D01*
X005985D01*
Y00433D01*
X006085D01*
Y0044056D01*
X0060859Y00441D01*
Y004471D01*
X0061074Y0044926D01*
X0061098Y0044961D01*
X0061225Y0044922D01*
Y0044725D01*
X0062D01*
Y004455D01*
X0062175D01*
Y0043775D01*
X0062641D01*
Y0043465D01*
X0061476Y0042299D01*
X0061376Y0042151D01*
X0061341Y0041975D01*
Y0041425D01*
X0061175D01*
Y0040175D01*
X0062425D01*
Y0040025D01*
X0061175D01*
Y0038775D01*
X0062425D01*
Y0038973D01*
X0062429Y0038974D01*
X0062459Y0038982D01*
X0062502Y003899D01*
X0062532Y0038992D01*
X0062568D01*
X0062598Y003899D01*
X0062641Y0038982D01*
X0062671Y0038974D01*
X0062675Y0038973D01*
Y0038775D01*
X0062872D01*
X0062874Y0038769D01*
X0062882Y0038739D01*
X006289Y0038696D01*
X0062892Y0038667D01*
Y0038532D01*
X006289Y0038502D01*
X0062882Y0038459D01*
X0062874Y0038429D01*
X0062873Y0038425D01*
X0062675D01*
Y0037175D01*
X0063925D01*
Y0038425D01*
X0063727D01*
X0063726Y0038429D01*
X0063718Y0038459D01*
X006371Y0038502D01*
X0063708Y0038532D01*
Y0038667D01*
X006371Y0038696D01*
X0063718Y0038739D01*
X0063726Y0038769D01*
X0063728Y0038775D01*
X0063925D01*
Y0038927D01*
X0063955Y0038934D01*
X0064Y003894D01*
X0064025Y0038942D01*
X0064067D01*
X0064096Y003894D01*
X0064139Y0038932D01*
X0064169Y0038924D01*
X0064175Y0038922D01*
Y003872D01*
X0064175D01*
Y003861D01*
X0064175D01*
Y003745D01*
X0064607D01*
X0064656Y0037333D01*
X0064131Y0036808D01*
X0064032D01*
X0064002Y003681D01*
X0063959Y0036818D01*
X0063929Y0036826D01*
X0063925Y0036827D01*
Y0037025D01*
X0062675D01*
Y0035775D01*
X0063004D01*
X0063023Y0035678D01*
X0063112Y0035546D01*
X0063346Y0035312D01*
X0063346Y0035312D01*
X0063478Y0035223D01*
X0063634Y0035192D01*
X00649D01*
X00649Y0035192D01*
X0065056Y0035223D01*
X0065188Y0035312D01*
X0067188Y0037312D01*
X0067188Y0037312D01*
X0067277Y0037444D01*
X0067308Y00376D01*
X0067308Y00376D01*
Y0041041D01*
X0067297Y0041094D01*
X0067378Y0041192D01*
X0067665D01*
X0067775Y004115D01*
Y0040007D01*
X0067775Y003999D01*
Y003988D01*
X0067775Y0039863D01*
Y003876D01*
X0067625D01*
Y0038205D01*
X0070375D01*
Y0038575D01*
X0071625D01*
Y0039825D01*
X0070582D01*
X0070577Y0039826D01*
X0070573Y0039825D01*
X0070375D01*
Y0039825D01*
X0070302Y00398D01*
X0070225Y0039843D01*
X0070225Y003988D01*
Y0039984D01*
X0070257Y0040013D01*
X0070279Y0040028D01*
X0070293Y0040034D01*
X0070375Y0039986D01*
Y0039975D01*
X0071625D01*
Y0041225D01*
X0071183D01*
X0071152Y0041381D01*
X0071063Y0041513D01*
X0071063Y0041513D01*
X0070688Y0041888D01*
X0070556Y0041977D01*
X00704Y0042008D01*
X00704Y0042008D01*
X0067358D01*
X0067128Y0042238D01*
X0066995Y0042327D01*
X0066839Y0042358D01*
X0066839Y0042358D01*
X006615D01*
Y0042546D01*
X0066151Y004255D01*
X0066151Y0042551D01*
X0066151Y0042552D01*
X006615Y0042556D01*
Y00436D01*
X00649D01*
Y004235D01*
X0065284D01*
X0065286Y0042344D01*
X0065291Y0042306D01*
X0065292Y0042291D01*
Y00422D01*
X0065292Y00422D01*
X0065323Y0042044D01*
X0065412Y0041912D01*
X0065448Y0041875D01*
X0065399Y0041758D01*
X0064869D01*
X0064433Y0042194D01*
Y0042243D01*
X0064435Y0042273D01*
X0064443Y0042316D01*
X0064451Y0042346D01*
X0064452Y004235D01*
X006465D01*
Y00436D01*
X0063559D01*
Y004375D01*
X006465D01*
Y0045D01*
X0064406D01*
Y0045373D01*
X0064427Y0045394D01*
X0065164D01*
X0065236Y0045267D01*
X0065219Y0045183D01*
X0065219Y0045183D01*
Y0045D01*
X00649D01*
Y004375D01*
X006615D01*
Y0043893D01*
X0066277Y0043931D01*
X0066309Y0043884D01*
X0066408Y0043817D01*
X0066525Y0043794D01*
X006695D01*
Y00437D01*
X0067044D01*
Y0043275D01*
X0067067Y0043158D01*
X0067134Y0043059D01*
X0067233Y0042992D01*
X006735Y0042969D01*
X0067467Y0042992D01*
X006755Y0043048D01*
X0067633Y0042992D01*
X006775Y0042969D01*
X0067867Y0042992D01*
X006795Y0043048D01*
X0068033Y0042992D01*
X006815Y0042969D01*
X0068267Y0042992D01*
X006835Y0043048D01*
X0068433Y0042992D01*
X006855Y0042969D01*
X0068667Y0042992D01*
X006875Y0043048D01*
X0068833Y0042992D01*
X006895Y0042969D01*
X0069067Y0042992D01*
X006915Y0043048D01*
X0069233Y0042992D01*
X006935Y0042969D01*
X0069467Y0042992D01*
X006955Y0043048D01*
X0069633Y0042992D01*
X006975Y0042969D01*
X0069867Y0042992D01*
X006995Y0043048D01*
X0070033Y0042992D01*
X007015Y0042969D01*
X0070267Y0042992D01*
X0070366Y0043059D01*
X0070433Y0043158D01*
X0070456Y0043275D01*
Y00437D01*
X007055D01*
Y0043794D01*
X0070975D01*
X0071092Y0043817D01*
X0071191Y0043884D01*
X0071258Y0043983D01*
X0071281Y00441D01*
X0071258Y0044217D01*
X0071202Y00443D01*
X0071258Y0044383D01*
X0071281Y00445D01*
X0071258Y0044617D01*
X0071202Y00447D01*
X0071258Y0044783D01*
X0071281Y00449D01*
X0071258Y0045017D01*
X0071202Y00451D01*
X0071258Y0045183D01*
X0071281Y00453D01*
X0071258Y0045417D01*
X0071202Y00455D01*
X0071258Y0045583D01*
X0071281Y00457D01*
X0071258Y0045817D01*
X0071202Y00459D01*
X0071258Y0045983D01*
X0071281Y00461D01*
X0071258Y0046217D01*
X0071202Y00463D01*
X0071258Y0046383D01*
X0071281Y00465D01*
X0071258Y0046617D01*
X0071202Y00467D01*
X0071258Y0046783D01*
X0071281Y00469D01*
X0071258Y0047017D01*
X0071191Y0047116D01*
X0071092Y0047183D01*
X0070975Y0047206D01*
X007055D01*
Y00473D01*
X0070456D01*
Y0047725D01*
X0070433Y0047842D01*
X0070366Y0047941D01*
X0070267Y0048008D01*
X007015Y0048031D01*
X0070033Y0048008D01*
X006995Y0047952D01*
X0069867Y0048008D01*
X006975Y0048031D01*
X0069633Y0048008D01*
X0069581Y0047973D01*
X0069461Y004803D01*
X0069426Y0048145D01*
X0069976Y0048695D01*
X007Y004869D01*
X0070195Y0048729D01*
X007036Y004884D01*
X0070471Y0049005D01*
X007051Y00492D01*
X0070471Y0049395D01*
X007036Y004956D01*
X0070195Y0049671D01*
X007Y004971D01*
X0069805Y0049671D01*
X006964Y004956D01*
X0069529Y0049395D01*
X006952Y004935D01*
X0069385Y0049323D01*
X006936Y004936D01*
X0069195Y0049471D01*
X0069Y004951D01*
X0068805Y0049471D01*
X006864Y004936D01*
X0068529Y0049195D01*
X0068502Y0049059D01*
X0068375Y0049072D01*
Y0049425D01*
X0067125D01*
Y0048175D01*
X0067408D01*
X0067408Y0048175D01*
X0067421Y0048146D01*
X0067363Y0048052D01*
X0067335Y0048028D01*
X0067233Y0048008D01*
X0067134Y0047941D01*
X0067067Y0047842D01*
X0067044Y0047725D01*
Y00473D01*
X006695D01*
Y0047206D01*
X0066525D01*
X0066434Y0047281D01*
Y0050025D01*
X0066399Y0050201D01*
X0066299Y0050349D01*
X0065959Y005069D01*
Y0051242D01*
X0065962Y0051283D01*
X0065972Y005134D01*
X0065983Y0051383D01*
X0065995Y0051412D01*
X0066002Y0051424D01*
X0066016Y0051425D01*
X00662D01*
Y0051624D01*
X0066201Y0051628D01*
X00662Y0051632D01*
Y0052468D01*
X0066201Y0052472D01*
X00662Y0052476D01*
Y0052675D01*
X0066058D01*
X0066051Y0052698D01*
X0066043Y0052744D01*
X0066034Y0052847D01*
X0066035Y0052865D01*
X0066042Y0052928D01*
X0066051Y0052977D01*
X0066058Y0053D01*
X00662D01*
Y0053199D01*
X0066201Y0053203D01*
X00662Y0053207D01*
Y0054043D01*
X0066201Y0054047D01*
X00662Y0054051D01*
Y005425D01*
X0066058D01*
X0066051Y0054273D01*
X0066043Y0054319D01*
X0066034Y0054422D01*
X0066035Y005444D01*
X0066042Y0054503D01*
X0066051Y0054552D01*
X0066058Y0054575D01*
X00662D01*
Y0054717D01*
X0066223Y0054724D01*
X0066269Y0054732D01*
X0066374Y0054741D01*
X0066619D01*
X006664Y005474D01*
X0066703Y0054733D01*
X0066752Y0054724D01*
X0066775Y0054717D01*
Y0054575D01*
X0066974D01*
X0066978Y0054574D01*
X0066982Y0054575D01*
X0067675D01*
X0067715Y0054448D01*
X0067647Y0054346D01*
X0067625Y0054237D01*
X0067513Y0054169D01*
X0067491Y0054172D01*
X00673Y005421D01*
X0067105Y0054171D01*
X006694Y005406D01*
X0066829Y0053895D01*
X006679Y00537D01*
X0066829Y0053505D01*
X006694Y005334D01*
X0066969Y005332D01*
Y0052975D01*
X00668D01*
Y0052225D01*
X0067963D01*
X0068Y0052218D01*
X0068037Y0052225D01*
X006845D01*
Y0052768D01*
X0068451Y0052772D01*
X006845Y0052776D01*
Y0052975D01*
X0068515Y0053075D01*
X0069525D01*
X0069525Y0052925D01*
X0070125D01*
Y00537D01*
X0070475D01*
Y0052925D01*
X0071075D01*
Y0053727D01*
X0071192Y0053775D01*
X0071384Y0053584D01*
X0071483Y0053517D01*
X00716Y0053494D01*
X00716Y0053494D01*
X0071775D01*
Y0053075D01*
X0073025D01*
Y0054325D01*
X0071775D01*
Y0054237D01*
X0071648Y0054185D01*
X0070965Y0054867D01*
X0071018Y0054994D01*
X0071775D01*
Y0054675D01*
X0073025D01*
Y0055925D01*
X0071775D01*
Y0055606D01*
X0070406D01*
Y00561D01*
X0070406Y00561D01*
X0070383Y0056217D01*
X0070316Y0056316D01*
X0070316Y0056316D01*
X0070016Y0056616D01*
X0070079Y0056733D01*
X007015Y0056719D01*
X0070267Y0056742D01*
X0070366Y0056809D01*
X0070433Y0056908D01*
X0070456Y0057025D01*
Y005745D01*
X007055D01*
Y0057544D01*
X0070975D01*
X0071092Y0057567D01*
X0071191Y0057634D01*
X0071258Y0057733D01*
X0071281Y005785D01*
X0071258Y0057967D01*
X0071202Y005805D01*
X0071258Y0058133D01*
X0071281Y005825D01*
X0071358Y0058344D01*
X007745D01*
X007745Y0058344D01*
X0077567Y0058367D01*
X0077666Y0058434D01*
X0080308Y0061076D01*
X008034Y0061106D01*
X0080365Y0061125D01*
X0080365Y0061125D01*
X0080407D01*
X0080411Y0061124D01*
X0080415Y0061125D01*
X0081175D01*
X0081175Y0060975D01*
X0081775D01*
Y006175D01*
Y0062525D01*
X0081659D01*
X0081555Y006258D01*
Y0064846D01*
X0081672Y0064894D01*
X0084281Y0062286D01*
Y0042103D01*
X0084281Y0042103D01*
X0084304Y0041986D01*
X0084371Y0041887D01*
X008731Y0038947D01*
X0087321Y0038934D01*
X0087327Y0038927D01*
X0087315Y0038865D01*
X0087354Y003867D01*
X0087465Y0038505D01*
X008763Y0038394D01*
X0087825Y0038355D01*
X0088775D01*
X008897Y0038394D01*
X0089135Y0038505D01*
X0089246Y003867D01*
X0089285Y0038865D01*
X0089246Y003906D01*
X0089135Y0039225D01*
X008897Y0039336D01*
X0088775Y0039375D01*
X0087825D01*
X0087764Y0039363D01*
X0087738Y0039385D01*
X0087603Y003952D01*
X0087633Y0039656D01*
X008764Y0039662D01*
X0087825Y0039625D01*
X0088775D01*
X008897Y0039664D01*
X0089135Y0039775D01*
X0089246Y003994D01*
X0089285Y0040135D01*
X0089246Y004033D01*
X0089135Y0040495D01*
X008897Y0040606D01*
X0088775Y0040645D01*
X0087825D01*
X0087764Y0040633D01*
X0087738Y0040655D01*
X0087603Y004079D01*
X0087633Y0040926D01*
X008764Y0040932D01*
X0087825Y0040895D01*
X0088775D01*
X008897Y0040934D01*
X0089135Y0041045D01*
X0089246Y004121D01*
X0089285Y0041405D01*
X0089246Y00416D01*
X0089135Y0041765D01*
X008897Y0041876D01*
X0088775Y0041915D01*
X0087825D01*
X008763Y0041876D01*
X0087465Y0041765D01*
X0087354Y00416D01*
X0087315Y0041405D01*
X0087352Y004122D01*
X0087346Y0041213D01*
X008721Y0041183D01*
X0085293Y00431D01*
Y0062578D01*
X0085269Y0062695D01*
X0085203Y0062794D01*
X0085203Y0062794D01*
X0082556Y0065442D01*
X0082604Y0065559D01*
X0087403D01*
X008742Y0065558D01*
X008743Y0065557D01*
X0087465Y0065505D01*
X008763Y0065394D01*
X0087825Y0065355D01*
X0088775D01*
X008897Y0065394D01*
X0089135Y0065505D01*
X0089246Y006567D01*
X0089285Y0065865D01*
X0089246Y006606D01*
X0089135Y0066225D01*
X008897Y0066336D01*
X0088775Y0066375D01*
X0087825D01*
X008763Y0066336D01*
X0087465Y0066225D01*
X008743Y0066174D01*
X0087396Y0066171D01*
X0082392D01*
X0082027Y0066536D01*
X0081928Y0066603D01*
X0081811Y0066626D01*
X0081811Y0066626D01*
X0075028D01*
X0074979Y0066743D01*
X0075065Y0066829D01*
X0087403D01*
X008742Y0066828D01*
X008743Y0066827D01*
X0087465Y0066775D01*
X008763Y0066664D01*
X0087825Y0066625D01*
X0088775D01*
X008897Y0066664D01*
X0089135Y0066775D01*
X0089246Y006694D01*
X0089285Y0067135D01*
X0089246Y006733D01*
X0089135Y0067495D01*
X008897Y0067606D01*
X0088775Y0067645D01*
X0087825D01*
X008763Y0067606D01*
X0087465Y0067495D01*
X008743Y0067444D01*
X0087396Y0067441D01*
X0074939D01*
X0074822Y0067418D01*
X0074722Y0067351D01*
X0069934Y0062563D01*
X0069867Y0062463D01*
X0069844Y0062346D01*
X0069844Y0062346D01*
Y0061858D01*
X006975Y0061781D01*
X0069633Y0061758D01*
X006955Y0061702D01*
X0069467Y0061758D01*
X006935Y0061781D01*
X0069233Y0061758D01*
X006915Y0061702D01*
X0069067Y0061758D01*
X006895Y0061781D01*
X0068856Y0061858D01*
Y0062886D01*
X006886Y006289D01*
X0068971Y0063055D01*
X006901Y006325D01*
X0068971Y0063445D01*
X006886Y006361D01*
X0068695Y0063721D01*
X00685Y006376D01*
X0068305Y0063721D01*
X006814Y006361D01*
X0068029Y0063445D01*
X006799Y006325D01*
X0068029Y0063055D01*
X006814Y006289D01*
X0068244Y006282D01*
Y0062145D01*
X0068127Y0062096D01*
X0067357Y0062866D01*
X0067258Y0062933D01*
X0067141Y0062956D01*
X0067141Y0062956D01*
X0062542D01*
X0059556Y0065942D01*
Y006775D01*
X0059556Y006775D01*
X0059533Y0067867D01*
X0059466Y0067966D01*
X0059466Y0067966D01*
X0058956Y0068477D01*
Y006935D01*
X0058956Y006935D01*
X005895Y006938D01*
Y007145D01*
X005655D01*
Y006905D01*
X0058344D01*
Y006835D01*
X0058344Y006835D01*
X0058367Y0068233D01*
X0058434Y0068134D01*
X0058944Y0067623D01*
Y00672D01*
X005657D01*
Y0065709D01*
X0056443Y0065705D01*
X0056434Y0065835D01*
X0056434Y0065952D01*
X005644Y0066D01*
X0056399Y0066313D01*
X0056278Y0066605D01*
X0056086Y0066856D01*
X0056046Y0066886D01*
X0055985Y0066948D01*
X0055916Y0067025D01*
X0055856Y0067101D01*
X0055805Y0067175D01*
X0055763Y0067247D01*
X005573Y0067316D01*
X0055705Y0067383D01*
X0055688Y0067447D01*
X0055679Y0067502D01*
Y0068753D01*
X0055688Y0068808D01*
X0055705Y0068873D01*
X005573Y006894D01*
X0055763Y0069011D01*
X0055805Y0069084D01*
X0055853Y0069157D01*
X0055985Y0069319D01*
X0056033Y0069369D01*
X0056066Y0069394D01*
X0056258Y0069645D01*
X0056379Y0069937D01*
X005642Y007025D01*
X0056379Y0070563D01*
X0056258Y0070855D01*
X0056066Y0071106D01*
X0055815Y0071298D01*
X0055523Y0071419D01*
X005521Y007146D01*
X0054897Y0071419D01*
X0054605Y0071298D01*
X0054354Y0071106D01*
X0054162Y0070855D01*
X0054041Y0070563D01*
X0054Y007025D01*
X0054041Y0069937D01*
X0054162Y0069645D01*
X0054354Y0069394D01*
X0054394Y0069364D01*
X0054455Y0069302D01*
X0054524Y0069225D01*
X0054584Y0069149D01*
X0054635Y0069075D01*
X0054677Y0069003D01*
X005471Y0068934D01*
X0054735Y0068867D01*
X0054752Y0068803D01*
X0054761Y0068748D01*
Y0067497D01*
X0054752Y0067442D01*
X0054735Y0067377D01*
X005471Y006731D01*
X0054677Y0067239D01*
X0054636Y0067166D01*
X0054587Y0067093D01*
X0054455Y0066931D01*
X0054407Y0066881D01*
X0054374Y0066856D01*
X0054182Y0066605D01*
X0054061Y0066313D01*
X005402Y0066D01*
X0054061Y0065687D01*
X0054182Y0065395D01*
X0054374Y0065144D01*
X0054625Y0064952D01*
X0054917Y0064831D01*
X005523Y006479D01*
X0055278Y0064796D01*
X0055398Y0064796D01*
X0055539Y0064791D01*
X0055786Y006477D01*
X0055884Y0064754D01*
X0055968Y0064735D01*
X0056036Y0064714D01*
X0056088Y0064693D01*
X0056123Y0064673D01*
X0056134Y0064663D01*
X0057264Y0063534D01*
X0057264Y0063534D01*
X0057363Y0063467D01*
X005748Y0063444D01*
X005748Y0063444D01*
X0059916D01*
X0061827Y0061534D01*
X0061926Y0061467D01*
X0062043Y0061444D01*
X0064843D01*
X0064916Y0061356D01*
X0064876Y0061235D01*
X0064805Y0061221D01*
X006464Y006111D01*
X0064529Y0060945D01*
X006449Y006075D01*
X0064529Y0060555D01*
X0064611Y0060433D01*
X0064554Y0060306D01*
X0059135D01*
X0059048Y0060395D01*
X0059169Y0060687D01*
X005921Y0061D01*
X0059169Y0061313D01*
X0059048Y0061605D01*
X0058856Y0061856D01*
X0058605Y0062048D01*
X0058313Y0062169D01*
X0058Y006221D01*
X0057687Y0062169D01*
X0057395Y0062048D01*
X0057144Y0061856D01*
X0056952Y0061605D01*
X0056831Y0061313D01*
X005679Y0061D01*
X0056831Y0060687D01*
X0056952Y0060395D01*
X0057144Y0060144D01*
X0057322Y0060008D01*
X0057279Y0059881D01*
X0057012D01*
X0056709Y0060183D01*
X0056679Y0060215D01*
X005666Y006024D01*
X005666Y006024D01*
Y0060282D01*
X0056661Y0060286D01*
X005666Y006029D01*
Y00622D01*
X005426D01*
Y00598D01*
X005617D01*
X0056174Y0059799D01*
X0056178Y00598D01*
X005622D01*
X0056269Y0059758D01*
X0056551Y0059476D01*
X0056503Y0059359D01*
X005399D01*
X0053259Y006009D01*
Y007141D01*
X005399Y0072141D01*
X0074762D01*
X0074804Y0072138D01*
X0074861Y0072128D01*
X0074905Y0072116D01*
X0074933Y0072105D01*
X0074945Y0072098D01*
Y007118D01*
X0076475D01*
Y0073105D01*
X0076476Y007311D01*
X0076475Y0073114D01*
Y0073319D01*
X0076487Y007334D01*
X0076533Y0073406D01*
X0076658Y0073554D01*
X0077145Y0074041D01*
X0077367D01*
X0077485Y007402D01*
Y007118D01*
X0079015D01*
Y007402D01*
X0079133Y0074041D01*
X0079907D01*
X0080025Y007402D01*
Y007118D01*
X0081555D01*
Y007402D01*
X0081673Y0074041D01*
X0090435D01*
X0093491Y0070985D01*
Y0070781D01*
X009349Y007076D01*
X0093483Y0070697D01*
X0093474Y0070648D01*
X0093467Y0070625D01*
X0093325D01*
X0093325Y0070775D01*
X0092725D01*
Y007D01*
Y0069225D01*
X0093325D01*
X0093366Y0069115D01*
Y0069088D01*
X0093363Y0069046D01*
X0093353Y0068986D01*
X0093341Y0068942D01*
X009333Y0068915D01*
X0093225D01*
X0093102Y006889D01*
X0093084Y0068888D01*
X0093073Y0068885D01*
X0093064Y0068883D01*
X0092731Y0068864D01*
X0092175D01*
X0091999Y0068829D01*
X0091851Y0068729D01*
X0090776Y0067654D01*
X0090676Y0067506D01*
X0090641Y006733D01*
Y00607D01*
Y0053362D01*
X0090676Y0053187D01*
X0090776Y0053038D01*
X0093491Y0050322D01*
Y0043781D01*
X009349Y004376D01*
X0093483Y0043697D01*
X0093474Y0043648D01*
X0093467Y0043625D01*
X0093325D01*
X0093325Y0043775D01*
X0092725D01*
Y0043D01*
Y0042225D01*
X0093241D01*
Y004209D01*
X0093238Y0042048D01*
X0093228Y0041989D01*
X0093216Y0041945D01*
X0093205Y0041916D01*
X0093201Y004191D01*
X0093102Y004189D01*
X0093084Y0041888D01*
X0093073Y0041885D01*
X0093064Y0041883D01*
X0092731Y0041864D01*
X0092175D01*
X0091999Y0041829D01*
X0091851Y0041729D01*
X0091558Y0041437D01*
X0091458Y0041288D01*
X0091423Y0041112D01*
Y0037877D01*
X0091458Y0037702D01*
X0091558Y0037553D01*
X0092702Y0036408D01*
X0092654Y0036291D01*
X0079858D01*
X0074959Y004119D01*
Y0045419D01*
X007496Y004544D01*
X0074967Y0045503D01*
X0074976Y0045552D01*
X0074983Y0045575D01*
X0075125D01*
Y0045774D01*
X0075126Y0045778D01*
X0075125Y0045782D01*
Y0046798D01*
X0075125Y0046825D01*
X0075275D01*
X0075275Y0046798D01*
Y0045575D01*
X0076525D01*
Y0046825D01*
X0076327D01*
X0076326Y0046829D01*
X0076318Y0046859D01*
X007631Y0046902D01*
X0076308Y0046932D01*
Y0046968D01*
X007631Y0046998D01*
X0076318Y0047041D01*
X0076326Y0047071D01*
X0076327Y0047075D01*
X0076525D01*
Y0047272D01*
X0076531Y0047274D01*
X0076561Y0047282D01*
X0076604Y004729D01*
X0076633Y0047292D01*
X0076668D01*
X0076698Y004729D01*
X0076741Y0047282D01*
X0076771Y0047274D01*
X0076775Y0047273D01*
Y0047075D01*
X0078025D01*
Y0048325D01*
X0077994D01*
X0077956Y0048392D01*
X0077966Y0048426D01*
X0078005Y0048475D01*
X007809D01*
X0078158Y0048455D01*
X007819Y0048396D01*
X0078175Y0048325D01*
X0078175D01*
Y0048127D01*
X0078174Y0048123D01*
X0078175Y0048118D01*
Y0047075D01*
X0079425D01*
Y0047403D01*
X0079466Y0047517D01*
X0079622Y0047548D01*
X0079754Y0047637D01*
X0079988Y0047871D01*
X0079988Y0047871D01*
X0080077Y0048003D01*
X0080108Y0048159D01*
Y00507D01*
X0080108Y00507D01*
X0080077Y0050856D01*
X0079988Y0050988D01*
X0079988Y0050988D01*
X0079388Y0051588D01*
X0079256Y0051677D01*
X00791Y0051708D01*
X00791Y0051708D01*
X0075569D01*
X0075408Y0051869D01*
Y0053D01*
X0075377Y0053156D01*
X0075288Y0053288D01*
X0075288Y0053288D01*
X0074788Y0053788D01*
X0074656Y0053877D01*
X00745Y0053908D01*
X0074425Y0053999D01*
Y0054325D01*
X0073175D01*
Y0053075D01*
X0074219D01*
X0074223Y0053074D01*
X0074227Y0053075D01*
X0074348D01*
X0074592Y0052831D01*
Y00517D01*
X0074592Y00517D01*
X0074623Y0051544D01*
X0074712Y0051412D01*
X0075112Y0051012D01*
X0075112Y0051012D01*
X0075244Y0050923D01*
X00754Y0050892D01*
X007555D01*
Y0048475D01*
X007671D01*
Y0048475D01*
X0076795D01*
X0076834Y0048426D01*
X0076844Y0048392D01*
X0076806Y0048325D01*
X0076775D01*
Y0048127D01*
X0076771Y0048126D01*
X0076741Y0048118D01*
X0076698Y004811D01*
X0076668Y0048108D01*
X0076633D01*
X0076604Y004811D01*
X0076561Y0048118D01*
X0076531Y0048126D01*
X0076525Y0048128D01*
Y0048325D01*
X0075275Y0048325D01*
X0075275Y0048475D01*
X0074675D01*
Y00477D01*
X00745D01*
Y0047525D01*
X0073725D01*
Y0046925D01*
X007381D01*
X0073875Y0046825D01*
X0073875Y0046798D01*
Y0045782D01*
X0073874Y0045778D01*
X0073875Y0045774D01*
Y0045575D01*
X0074017D01*
X0074024Y0045552D01*
X0074032Y0045506D01*
X0074041Y0045401D01*
Y0041D01*
X0074076Y0040824D01*
X0074176Y0040676D01*
X0079343Y0035508D01*
X0079492Y0035408D01*
X0079668Y0035373D01*
X0095957D01*
X0096133Y0035408D01*
X0096282Y0035508D01*
X0096574Y0035801D01*
X0096674Y0035949D01*
X0096709Y0036125D01*
Y0036519D01*
X009671Y003654D01*
X0096717Y0036603D01*
X0096726Y0036652D01*
X0096733Y0036675D01*
X0096875D01*
Y0036874D01*
X0096876Y0036878D01*
X0096875Y0036882D01*
Y0037925D01*
X0095625D01*
Y0036882D01*
X0095624Y0036878D01*
X0095625Y0036874D01*
Y0036675D01*
X0095767D01*
X0095774Y0036652D01*
X0095782Y0036606D01*
X0095791Y0036501D01*
Y0036315D01*
X0095767Y0036291D01*
X0094431D01*
X0094367Y0036298D01*
X009429Y0036313D01*
X0094217Y0036333D01*
X0094146Y0036359D01*
X0094077Y0036391D01*
X009401Y0036429D01*
X0093946Y0036473D01*
X0093895Y0036513D01*
X0093593Y0036815D01*
X0093642Y0036932D01*
X0094175D01*
X0094429Y0036983D01*
X0094644Y0037126D01*
X0094787Y0037341D01*
X0094803Y003742D01*
X00937D01*
Y003777D01*
X0094803D01*
X0094787Y0037849D01*
X0094644Y0038064D01*
X0094429Y0038207D01*
X0094255Y0038242D01*
Y0038371D01*
X009437Y0038394D01*
X0094535Y0038505D01*
X0094646Y003867D01*
X0094685Y0038865D01*
X0094684Y0038869D01*
X0094765Y0038967D01*
X0094804D01*
X0094804Y0038967D01*
X0094921Y003899D01*
X009502Y0039057D01*
X0095055Y0039092D01*
X0095625D01*
Y0038075D01*
X0096875D01*
Y0039092D01*
X0099008D01*
X0099076Y0038965D01*
X0099029Y0038895D01*
X009899Y00387D01*
X0099029Y0038505D01*
X009914Y003834D01*
X0099194Y0038303D01*
Y003785D01*
X009905D01*
Y003635D01*
X010005D01*
Y003785D01*
X0099806D01*
Y0038303D01*
X009986Y003834D01*
X0099971Y0038505D01*
X010001Y00387D01*
X0099971Y0038895D01*
X0099924Y0038965D01*
X0099992Y0039092D01*
X0101008D01*
X0101076Y0038965D01*
X0101029Y0038895D01*
X010099Y00387D01*
X0101029Y0038505D01*
X010114Y003834D01*
X0101194Y0038303D01*
Y003785D01*
X010095D01*
Y003635D01*
X010195D01*
Y003785D01*
X0101806D01*
Y0038303D01*
X010186Y003834D01*
X0101971Y0038505D01*
X010201Y00387D01*
X0101971Y0038895D01*
X0101924Y0038965D01*
X0101992Y0039092D01*
X0109646D01*
X0109646Y0039092D01*
X0109763Y0039115D01*
X0109862Y0039182D01*
X0110443Y0039763D01*
X0110443Y0039763D01*
X011051Y0039862D01*
X0110533Y0039979D01*
X0110533Y0039979D01*
Y0040144D01*
X01111D01*
X01111Y0040144D01*
X011113Y004015D01*
X01136D01*
Y004285D01*
X0110987D01*
X0110938Y0042967D01*
X0111943Y0043973D01*
X0111943Y0043973D01*
X011201Y0044072D01*
X0112033Y0044189D01*
Y0044994D01*
X01124D01*
X01124Y0044994D01*
X011243Y0045D01*
X011345D01*
Y00461D01*
X011345Y00461D01*
Y00469D01*
X011345Y00469D01*
Y0048D01*
X0112065D01*
X011206Y0048127D01*
X0112502Y0048569D01*
X0113967D01*
X0114761Y00482D01*
X0114866Y0048144D01*
X0114895Y0048122D01*
X0115187Y0048001D01*
X01155Y004796D01*
X0115813Y0048001D01*
X0116105Y0048122D01*
X0116356Y0048314D01*
X0116548Y0048565D01*
X0116567Y0048611D01*
X0116694Y0048585D01*
Y0026306D01*
X0031306D01*
Y0079694D01*
X0116694D01*
Y005799D01*
D02*
G37*
G36*
X0114506Y0056346D02*
X0114504Y0056365D01*
X0114498Y0056382D01*
X0114488Y0056397D01*
X0114474Y005641D01*
X0114455Y0056421D01*
X0114433Y005643D01*
X0114407Y0056437D01*
X0114376Y0056442D01*
X0114342Y0056445D01*
X0114303Y0056446D01*
Y0056646D01*
X0114342Y0056647D01*
X0114376Y005665D01*
X0114407Y0056655D01*
X0114433Y0056662D01*
X0114455Y0056671D01*
X0114474Y0056682D01*
X0114488Y0056695D01*
X0114498Y005671D01*
X0114504Y0056727D01*
X0114506Y0056746D01*
Y0056346D01*
D02*
G37*
G36*
X006476Y0059142D02*
X0064729Y0059095D01*
X006469Y00589D01*
X0064729Y0058705D01*
X006484Y005854D01*
X0064963Y0058457D01*
X0065004Y0058405D01*
X0065Y0058301D01*
X0064929Y0058195D01*
X006489Y0058D01*
X0064929Y0057805D01*
X006504Y005764D01*
X0065205Y0057529D01*
X00654Y005749D01*
X0065595Y0057529D01*
X006576Y005764D01*
X0065871Y0057805D01*
X0065899Y0057944D01*
X0066142D01*
X0066219Y005785D01*
X0066242Y0057733D01*
X0066309Y0057634D01*
X0066408Y0057567D01*
X0066525Y0057544D01*
X006695D01*
Y005745D01*
X0067044D01*
Y0057025D01*
X0066969Y0056934D01*
X006685D01*
X0066674Y0056899D01*
X0066526Y0056799D01*
X0065937Y005621D01*
X0065783Y0056237D01*
X0065724Y0056324D01*
X0062907Y0059142D01*
X0062959Y0059269D01*
X0064693D01*
X006476Y0059142D01*
D02*
G37*
G36*
X0105383Y005534D02*
X0105381Y0055359D01*
X0105375Y0055376D01*
X0105365Y0055391D01*
X0105351Y0055404D01*
X0105333Y0055415D01*
X0105311Y0055424D01*
X0105285Y0055431D01*
X0105255Y0055436D01*
X0105221Y0055439D01*
X0105183Y005544D01*
Y005564D01*
X0105221Y0055641D01*
X0105255Y0055644D01*
X0105285Y0055649D01*
X0105311Y0055656D01*
X0105333Y0055665D01*
X0105351Y0055676D01*
X0105365Y0055689D01*
X0105375Y0055704D01*
X0105381Y0055721D01*
X0105383Y005574D01*
Y005534D01*
D02*
G37*
G36*
X0071978Y00551D02*
X0071976Y0055119D01*
X007197Y0055136D01*
X007196Y0055151D01*
X0071946Y0055164D01*
X0071928Y0055175D01*
X0071906Y0055184D01*
X007188Y0055191D01*
X007185Y0055196D01*
X0071816Y0055199D01*
X0071778Y00552D01*
Y00554D01*
X0071816Y0055401D01*
X007185Y0055404D01*
X007188Y0055409D01*
X0071906Y0055416D01*
X0071928Y0055425D01*
X0071946Y0055436D01*
X007196Y0055449D01*
X007197Y0055464D01*
X0071976Y0055481D01*
X0071978Y00555D01*
Y00551D01*
D02*
G37*
G36*
X0065651Y0055928D02*
X0065662Y0055806D01*
X006567Y0055756D01*
X0065682Y0055714D01*
X0065686Y0055704D01*
X0065711Y0055721D01*
X0065799Y0055792D01*
X0065997Y0055976D01*
X0066351Y0055622D01*
X0066252Y0055519D01*
X0066211Y0055471D01*
X0066242Y0055465D01*
X0066317Y0055457D01*
X0066402Y0055452D01*
X0066487Y005545D01*
X0066573Y0055452D01*
X0066733Y0055465D01*
X0066798Y0055477D01*
X0066853Y0055493D01*
X0066898Y0055512D01*
X0066933Y0055534D01*
X0066958Y005556D01*
X0066973Y0055589D01*
X0066978Y0055622D01*
Y0054778D01*
X0066973Y0054811D01*
X0066958Y005484D01*
X0066933Y0054866D01*
X0066898Y0054888D01*
X0066853Y0054907D01*
X0066798Y0054922D01*
X0066733Y0054934D01*
X0066658Y0054943D01*
X0066573Y0054948D01*
X0066487Y005495D01*
X0066402Y0054948D01*
X0066242Y0054934D01*
X0066177Y0054922D01*
X0066122Y0054907D01*
X0066077Y0054888D01*
X0066042Y0054866D01*
X0066017Y005484D01*
X0066002Y0054811D01*
X0065997Y0054778D01*
X0065964Y0054773D01*
X0065935Y0054758D01*
X0065909Y0054733D01*
X0065887Y0054698D01*
X0065868Y0054653D01*
X0065853Y0054598D01*
X006584Y0054533D01*
X0065832Y0054458D01*
X006583Y0054419D01*
X006584Y0054292D01*
X0065853Y0054227D01*
X0065868Y0054172D01*
X0065887Y0054127D01*
X0065909Y0054092D01*
X0065935Y0054067D01*
X0065964Y0054052D01*
X0065997Y0054047D01*
X0065153D01*
X0065186Y0054052D01*
X0065215Y0054067D01*
X0065241Y0054092D01*
X0065263Y0054127D01*
X0065282Y0054172D01*
X0065297Y0054227D01*
X006531Y0054292D01*
X0065318Y0054367D01*
X006532Y0054406D01*
X006531Y0054533D01*
X0065297Y0054598D01*
X0065282Y0054653D01*
X0065263Y0054698D01*
X0065241Y0054733D01*
X0065215Y0054758D01*
X0065186Y0054773D01*
X0065153Y0054778D01*
X0065997D01*
Y005518D01*
X0065969Y0055113D01*
X0065955Y0055053D01*
Y0055D01*
X0065969Y0054954D01*
X0065997Y0054915D01*
X0065291Y0055621D01*
X0065153Y0055622D01*
X0065152Y0055626D01*
X0065152Y0055637D01*
X006515Y0056D01*
X006565D01*
X0065651Y0055928D01*
D02*
G37*
G36*
X0114491Y0055409D02*
X0114551Y0055374D01*
X0114624Y0055344D01*
X011471Y0055317D01*
X0114808Y0055295D01*
X0114919Y0055278D01*
X0115179Y0055255D01*
X0115328Y005525D01*
X011549Y005525D01*
X01145Y005426D01*
X01145Y0054422D01*
X0114472Y0054831D01*
X0114455Y0054942D01*
X0114433Y005504D01*
X0114406Y0055126D01*
X0114376Y0055199D01*
X0114341Y0055259D01*
X0114301Y0055307D01*
X0114443Y0055449D01*
X0114491Y0055409D01*
D02*
G37*
G36*
X0068804Y0054781D02*
X0069178D01*
X0069149Y0054778D01*
X0069123Y0054768D01*
X00691Y0054751D01*
X006908Y0054728D01*
X0069063Y0054698D01*
X0069049Y0054662D01*
X0069039Y0054619D01*
X0069031Y0054569D01*
X0069026Y0054513D01*
X0069025Y005445D01*
X0069026Y0054387D01*
X0069031Y0054331D01*
X0069039Y0054281D01*
X0069049Y0054238D01*
X0069063Y0054202D01*
X006908Y0054172D01*
X00691Y0054149D01*
X0069123Y0054132D01*
X0069149Y0054122D01*
X0069178Y0054119D01*
X0068804D01*
X0068675Y0053925D01*
X0068671Y0053991D01*
X0068661Y0054051D01*
X0068643Y0054103D01*
X0068635Y0054119D01*
X0068522D01*
X0068551Y0054122D01*
X0068577Y0054132D01*
X00686Y0054149D01*
X006861Y005416D01*
X0068587Y0054187D01*
X0068549Y0054219D01*
X0068503Y0054243D01*
X0068451Y0054261D01*
X0068391Y0054271D01*
X0068325Y0054275D01*
Y0054625D01*
X0068391Y0054628D01*
X0068451Y0054639D01*
X0068503Y0054656D01*
X0068549Y0054681D01*
X0068587Y0054712D01*
X006861Y005474D01*
X00686Y0054751D01*
X0068577Y0054768D01*
X0068551Y0054778D01*
X0068522Y0054781D01*
X0068635D01*
X0068643Y0054796D01*
X0068661Y0054849D01*
X0068671Y0054908D01*
X0068675Y0054975D01*
X0068804Y0054781D01*
D02*
G37*
G36*
X0071978Y00536D02*
X0071976Y0053619D01*
X007197Y0053636D01*
X007196Y0053651D01*
X0071946Y0053664D01*
X0071928Y0053675D01*
X0071906Y0053684D01*
X007188Y0053691D01*
X007185Y0053696D01*
X0071816Y0053699D01*
X0071778Y00537D01*
Y00539D01*
X0071816Y0053901D01*
X007185Y0053904D01*
X007188Y0053909D01*
X0071906Y0053916D01*
X0071928Y0053925D01*
X0071946Y0053936D01*
X007196Y0053949D01*
X007197Y0053964D01*
X0071976Y0053981D01*
X0071978Y0054D01*
Y00536D01*
D02*
G37*
G36*
X0074222Y0053763D02*
X007423Y005375D01*
X0074244Y0053738D01*
X0074264Y0053728D01*
X0074289Y005372D01*
X007432Y0053712D01*
X0074357Y0053707D01*
X0074399Y0053703D01*
X00745Y00537D01*
Y00533D01*
X0074447Y00533D01*
X0074233Y0053286D01*
X0074225Y0053282D01*
X0074222Y0053278D01*
X0074219Y0053778D01*
X0074222Y0053763D01*
D02*
G37*
G36*
X0068176Y0053055D02*
X0068187Y0052898D01*
X0068193Y0052859D01*
X0068201Y0052828D01*
X006821Y0052803D01*
X0068221Y0052786D01*
X0068233Y0052775D01*
X0068247Y0052772D01*
X0067753D01*
X0067767Y0052775D01*
X0067779Y0052786D01*
X006779Y0052803D01*
X0067799Y0052828D01*
X0067807Y0052859D01*
X0067813Y0052898D01*
X0067819Y0052943D01*
X0067824Y0053055D01*
X0067825Y0053122D01*
X0068175D01*
X0068176Y0053055D01*
D02*
G37*
G36*
X0067376Y0052933D02*
X0067379Y0052899D01*
X0067384Y0052868D01*
X0067391Y0052842D01*
X00674Y005282D01*
X0067411Y0052801D01*
X0067424Y0052787D01*
X0067439Y0052777D01*
X0067456Y0052771D01*
X0067475Y0052769D01*
X0067075D01*
X0067094Y0052771D01*
X0067111Y0052777D01*
X0067126Y0052787D01*
X0067139Y0052801D01*
X006715Y005282D01*
X0067159Y0052842D01*
X0067166Y0052868D01*
X0067171Y0052899D01*
X0067174Y0052933D01*
X0067175Y0052972D01*
X0067375D01*
X0067376Y0052933D01*
D02*
G37*
G36*
X0065964Y0053198D02*
X0065935Y0053183D01*
X0065909Y0053158D01*
X0065887Y0053123D01*
X0065868Y0053078D01*
X0065853Y0053023D01*
X006584Y0052958D01*
X0065832Y0052883D01*
X006583Y0052844D01*
X006584Y0052717D01*
X0065853Y0052652D01*
X0065868Y0052597D01*
X0065887Y0052552D01*
X0065909Y0052517D01*
X0065935Y0052492D01*
X0065964Y0052477D01*
X0065997Y0052472D01*
X0065153D01*
X0065186Y0052477D01*
X0065215Y0052492D01*
X0065241Y0052517D01*
X0065263Y0052552D01*
X0065282Y0052597D01*
X0065297Y0052652D01*
X006531Y0052717D01*
X0065318Y0052792D01*
X006532Y0052831D01*
X006531Y0052958D01*
X0065297Y0053023D01*
X0065282Y0053078D01*
X0065263Y0053123D01*
X0065241Y0053158D01*
X0065215Y0053183D01*
X0065186Y0053198D01*
X0065153Y0053203D01*
X0065997D01*
X0065964Y0053198D01*
D02*
G37*
G36*
X006595Y0051623D02*
X0065908Y0051608D01*
X0065871Y0051583D01*
X0065839Y0051548D01*
X0065812Y0051503D01*
X006579Y0051448D01*
X0065772Y0051383D01*
X006576Y0051308D01*
X0065752Y0051223D01*
X006575Y0051128D01*
X006525D01*
X0065249Y0051223D01*
X0065234Y0051448D01*
X0065226Y0051503D01*
X0065215Y0051548D01*
X0065202Y0051583D01*
X0065188Y0051608D01*
X0065171Y0051623D01*
X0065153Y0051628D01*
X0065997D01*
X006595Y0051623D01*
D02*
G37*
G36*
X0115639Y005072D02*
X0115465Y0050694D01*
X0114919Y0050583D01*
X0114819Y0050553D01*
X0114734Y0050522D01*
X0114663Y0050491D01*
X0114607Y0050458D01*
X0114567Y0050425D01*
X0114404Y0050545D01*
X0114447Y0050597D01*
X0114483Y005066D01*
X0114511Y0050734D01*
X0114533Y0050818D01*
X0114547Y0050913D01*
X0114555Y0051019D01*
X0114555Y0051136D01*
X0114548Y0051264D01*
X0114513Y0051552D01*
X0115639Y005072D01*
D02*
G37*
G36*
X0105383Y005026D02*
X0105381Y0050279D01*
X0105375Y0050296D01*
X0105365Y0050311D01*
X0105351Y0050324D01*
X0105333Y0050335D01*
X0105311Y0050344D01*
X0105285Y0050351D01*
X0105255Y0050356D01*
X0105221Y0050359D01*
X0105183Y005036D01*
Y005056D01*
X0105221Y0050561D01*
X0105255Y0050564D01*
X0105285Y0050569D01*
X0105311Y0050576D01*
X0105333Y0050585D01*
X0105351Y0050596D01*
X0105365Y0050609D01*
X0105375Y0050624D01*
X0105381Y0050641D01*
X0105383Y005066D01*
Y005026D01*
D02*
G37*
G36*
X0060344Y0050073D02*
X0060319Y0050058D01*
X0060297Y0050033D01*
X0060278Y0049998D01*
X0060262Y0049953D01*
X0060249Y0049898D01*
X0060238Y0049833D01*
X0060231Y0049758D01*
X0060229Y0049705D01*
X0060243Y0049567D01*
X0060257Y0049502D01*
X0060274Y0049447D01*
X0060296Y0049402D01*
X0060322Y0049367D01*
X0060351Y0049342D01*
X0060385Y0049327D01*
X0060422Y0049322D01*
X0059578D01*
X0059606Y0049327D01*
X0059631Y0049342D01*
X0059653Y0049367D01*
X0059672Y0049402D01*
X0059688Y0049447D01*
X0059701Y0049502D01*
X0059712Y0049567D01*
X0059719Y0049642D01*
X0059721Y0049695D01*
X0059707Y0049833D01*
X0059693Y0049898D01*
X0059676Y0049953D01*
X0059654Y0049998D01*
X0059629Y0050033D01*
X0059599Y0050058D01*
X0059565Y0050073D01*
X0059528Y0050078D01*
X0060372D01*
X0060344Y0050073D01*
D02*
G37*
G36*
X0068997Y00487D02*
X0068967Y0048699D01*
X0068938Y0048697D01*
X0068909Y0048692D01*
X0068882Y0048685D01*
X0068857Y0048676D01*
X0068832Y0048665D01*
X0068808Y0048653D01*
X0068785Y0048638D01*
X0068764Y0048621D01*
X0068743Y0048602D01*
X0068602Y0048743D01*
X0068621Y0048764D01*
X0068638Y0048785D01*
X0068653Y0048808D01*
X0068665Y0048832D01*
X0068676Y0048857D01*
X0068685Y0048882D01*
X0068692Y0048909D01*
X0068697Y0048938D01*
X0068699Y0048967D01*
X00687Y0048997D01*
X0068997Y00487D01*
D02*
G37*
G36*
X0115024Y004829D02*
X0114853Y0048383D01*
X0114018Y004877D01*
X0113981Y0048775D01*
X0113919Y0048975D01*
X011399Y0048982D01*
X0114061Y0049001D01*
X0114131Y0049034D01*
X01142Y004908D01*
X011427Y0049138D01*
X0114339Y004921D01*
X0114407Y0049295D01*
X0114476Y0049393D01*
X0114544Y0049504D01*
X0114611Y0049628D01*
X0115024Y004829D01*
D02*
G37*
G36*
X0067913Y004838D02*
X0067909Y0048376D01*
X0067904Y0048369D01*
X0067901Y004836D01*
X0067898Y0048348D01*
X0067895Y0048334D01*
X0067893Y0048317D01*
X0067891Y0048275D01*
X0067891Y004825D01*
X0067691D01*
X006769Y0048275D01*
X0067686Y0048334D01*
X0067684Y0048348D01*
X0067681Y004836D01*
X0067677Y0048369D01*
X0067673Y0048376D01*
X0067668Y004838D01*
X0067663Y0048381D01*
X0067919D01*
X0067913Y004838D01*
D02*
G37*
G36*
X0079026Y0048674D02*
X0079007Y0048662D01*
X007899Y0048642D01*
X0078975Y0048614D01*
X0078963Y0048578D01*
X0078953Y0048534D01*
X0078945Y0048482D01*
X0078939Y0048422D01*
X0078939Y0048419D01*
X0078943Y0048377D01*
X0078953Y0048317D01*
X0078967Y0048264D01*
X0078985Y004822D01*
X0079007Y0048184D01*
X0079033Y0048156D01*
X0079063Y0048135D01*
X0079097Y0048123D01*
X0079135Y0048119D01*
X0078378Y0048122D01*
X0078408Y0048126D01*
X0078435Y0048138D01*
X0078458Y0048158D01*
X0078479Y0048186D01*
X0078496Y0048222D01*
X007851Y0048266D01*
X0078521Y0048318D01*
X0078529Y0048378D01*
X007853Y0048392D01*
X0078527Y0048422D01*
X0078517Y0048482D01*
X0078503Y0048534D01*
X0078485Y0048578D01*
X0078463Y0048614D01*
X0078437Y0048642D01*
X0078407Y0048662D01*
X0078373Y0048674D01*
X0078335Y0048678D01*
X0079047D01*
X0079026Y0048674D01*
D02*
G37*
G36*
X0077743D02*
X0077713Y0048662D01*
X0077687Y0048642D01*
X0077664Y0048614D01*
X0077644Y0048578D01*
X0077628Y0048534D01*
X0077616Y0048482D01*
X0077607Y0048422D01*
X0077606Y0048404D01*
X0077608Y0048377D01*
X0077618Y0048316D01*
X0077632Y0048264D01*
X007765Y004822D01*
X0077672Y0048183D01*
X0077698Y0048155D01*
X0077728Y0048135D01*
X0077762Y0048123D01*
X00778Y0048119D01*
X0077D01*
X0077038Y0048123D01*
X0077072Y0048135D01*
X0077102Y0048155D01*
X0077128Y0048183D01*
X007715Y004822D01*
X0077168Y0048264D01*
X0077182Y0048316D01*
X0077192Y0048377D01*
X0077194Y0048404D01*
X0077193Y0048422D01*
X0077184Y0048482D01*
X0077172Y0048534D01*
X0077156Y0048578D01*
X0077136Y0048614D01*
X0077113Y0048642D01*
X0077087Y0048662D01*
X0077057Y0048674D01*
X0077023Y0048678D01*
X0077777D01*
X0077743Y0048674D01*
D02*
G37*
G36*
X0076981Y00473D02*
X0076977Y0047338D01*
X0076965Y0047372D01*
X0076945Y0047402D01*
X0076917Y0047428D01*
X007688Y004745D01*
X0076836Y0047468D01*
X0076784Y0047482D01*
X0076723Y0047492D01*
X0076655Y0047498D01*
X007665Y0047498D01*
X0076646Y0047498D01*
X0076578Y0047492D01*
X0076518Y0047482D01*
X0076466Y0047468D01*
X0076422Y004745D01*
X0076386Y0047428D01*
X0076358Y0047402D01*
X0076338Y0047372D01*
X0076326Y0047338D01*
X0076322Y00473D01*
Y00481D01*
X0076326Y0048062D01*
X0076338Y0048028D01*
X0076358Y0047998D01*
X0076386Y0047972D01*
X0076422Y004795D01*
X0076466Y0047932D01*
X0076518Y0047918D01*
X0076578Y0047908D01*
X0076646Y0047902D01*
X007665Y0047902D01*
X0076655Y0047902D01*
X0076723Y0047908D01*
X0076784Y0047918D01*
X0076836Y0047932D01*
X007688Y004795D01*
X0076917Y0047972D01*
X0076945Y0047998D01*
X0076965Y0048028D01*
X0076977Y0048062D01*
X0076981Y00481D01*
Y00473D01*
D02*
G37*
G36*
X0064178Y0047028D02*
X0065022D01*
X0064989Y0047024D01*
X006496Y0047011D01*
X0064934Y004699D01*
X0064912Y004696D01*
X0064893Y0046921D01*
X0064878Y0046874D01*
X0064865Y0046818D01*
X0064857Y0046754D01*
X0064852Y0046681D01*
X006485Y00466D01*
X006435D01*
X0064348Y0046681D01*
X0064335Y0046818D01*
X0064322Y0046874D01*
X0064307Y0046921D01*
X0064288Y004696D01*
X0064266Y004699D01*
X006424Y0047011D01*
X0064211Y0047024D01*
X0064178Y0047028D01*
X0064173Y0047061D01*
X0064158Y004709D01*
X0064133Y0047116D01*
X0064098Y0047138D01*
X0064053Y0047157D01*
X0063998Y0047172D01*
X0063933Y0047185D01*
X0063862Y0047193D01*
X0063767Y0047185D01*
X0063702Y0047172D01*
X0063647Y0047157D01*
X0063602Y0047138D01*
X0063567Y0047116D01*
X0063542Y004709D01*
X0063527Y0047061D01*
X0063522Y0047028D01*
Y0047872D01*
X0063527Y0047839D01*
X0063542Y004781D01*
X0063567Y0047784D01*
X0063602Y0047762D01*
X0063647Y0047743D01*
X0063702Y0047728D01*
X0063767Y0047715D01*
X0063838Y0047707D01*
X0063933Y0047715D01*
X0063998Y0047728D01*
X0064053Y0047743D01*
X0064098Y0047762D01*
X0064133Y0047784D01*
X0064158Y004781D01*
X0064173Y0047839D01*
X0064178Y0047872D01*
Y0047028D01*
D02*
G37*
G36*
X0062678D02*
X0062673Y0047061D01*
X0062658Y004709D01*
X0062633Y0047116D01*
X0062598Y0047138D01*
X0062553Y0047157D01*
X0062498Y0047172D01*
X0062433Y0047185D01*
X0062362Y0047193D01*
X0062267Y0047185D01*
X0062202Y0047172D01*
X0062147Y0047157D01*
X0062102Y0047138D01*
X0062067Y0047116D01*
X0062042Y004709D01*
X0062027Y0047061D01*
X0062022Y0047028D01*
Y0047872D01*
X0062027Y0047839D01*
X0062042Y004781D01*
X0062067Y0047784D01*
X0062102Y0047762D01*
X0062147Y0047743D01*
X0062202Y0047728D01*
X0062267Y0047715D01*
X0062338Y0047707D01*
X0062433Y0047715D01*
X0062498Y0047728D01*
X0062553Y0047743D01*
X0062598Y0047762D01*
X0062633Y0047784D01*
X0062658Y004781D01*
X0062673Y0047839D01*
X0062678Y0047872D01*
Y0047028D01*
D02*
G37*
G36*
X0079466Y0047725D02*
X0079419Y0047725D01*
X0079283Y0047714D01*
X0079261Y0047709D01*
X0079244Y0047704D01*
X0079232Y0047697D01*
X0079224Y004769D01*
X0079222Y0047681D01*
Y0048122D01*
X0079224Y0048123D01*
X0079232Y0048123D01*
X0079341Y0048125D01*
X0079466Y0048125D01*
Y0047725D01*
D02*
G37*
G36*
X0112256Y004715D02*
X0112254Y0047169D01*
X0112248Y0047186D01*
X0112238Y0047201D01*
X0112224Y0047214D01*
X0112205Y0047225D01*
X0112183Y0047234D01*
X0112157Y0047241D01*
X0112126Y0047246D01*
X0112092Y0047249D01*
X0112053Y004725D01*
Y004745D01*
X0112092Y0047451D01*
X0112126Y0047454D01*
X0112157Y0047459D01*
X0112183Y0047466D01*
X0112205Y0047475D01*
X0112224Y0047486D01*
X0112238Y0047499D01*
X0112248Y0047514D01*
X0112254Y0047531D01*
X0112256Y004755D01*
Y004715D01*
D02*
G37*
G36*
X0110746Y0047531D02*
X0110752Y0047514D01*
X0110762Y0047499D01*
X0110776Y0047486D01*
X0110795Y0047475D01*
X0110817Y0047466D01*
X0110843Y0047459D01*
X0110874Y0047454D01*
X0110908Y0047451D01*
X0110947Y004745D01*
Y004725D01*
X0110908Y0047249D01*
X0110874Y0047246D01*
X0110843Y0047241D01*
X0110817Y0047234D01*
X0110795Y0047225D01*
X0110776Y0047214D01*
X0110762Y0047201D01*
X0110752Y0047186D01*
X0110746Y0047169D01*
X0110744Y004715D01*
Y004755D01*
X0110746Y0047531D01*
D02*
G37*
G36*
X0058927Y0047935D02*
X0058942Y0047901D01*
X0058967Y0047872D01*
X0059002Y0047846D01*
X0059047Y0047824D01*
X0059102Y0047807D01*
X0059167Y0047793D01*
X0059242Y0047783D01*
X0059251Y0047782D01*
X0059333Y0047788D01*
X0059398Y0047799D01*
X0059453Y0047812D01*
X0059498Y0047828D01*
X0059533Y0047847D01*
X0059558Y0047869D01*
X0059573Y0047894D01*
X0059578Y0047922D01*
Y0047078D01*
X0059573Y0047115D01*
X0059558Y0047149D01*
X0059533Y0047179D01*
X0059498Y0047204D01*
X0059453Y0047226D01*
X0059398Y0047243D01*
X0059333Y0047257D01*
X0059258Y0047267D01*
X0059249Y0047268D01*
X0059167Y0047262D01*
X0059102Y0047251D01*
X0059047Y0047238D01*
X0059002Y0047222D01*
X0058967Y0047203D01*
X0058942Y0047181D01*
X0058927Y0047156D01*
X0058922Y0047128D01*
X0058894Y0047123D01*
X0058869Y0047108D01*
X0058847Y0047083D01*
X0058828Y0047048D01*
X0058812Y0047003D01*
X0058799Y0046948D01*
X0058788Y0046883D01*
X0058781Y0046808D01*
X005878Y0046792D01*
X0058793Y0046667D01*
X0058807Y0046602D01*
X0058824Y0046547D01*
X0058846Y0046502D01*
X0058872Y0046467D01*
X0058901Y0046442D01*
X0058935Y0046427D01*
X0058972Y0046422D01*
X0058128D01*
X0058156Y0046427D01*
X0058181Y0046442D01*
X0058203Y0046467D01*
X0058222Y0046502D01*
X0058238Y0046547D01*
X0058251Y0046602D01*
X0058262Y0046667D01*
X0058269Y0046742D01*
X005827Y0046758D01*
X0058257Y0046883D01*
X0058243Y0046948D01*
X0058226Y0047003D01*
X0058204Y0047048D01*
X0058178Y0047083D01*
X0058149Y0047108D01*
X0058115Y0047123D01*
X0058078Y0047128D01*
X0058922D01*
Y0047972D01*
X0058927Y0047935D01*
D02*
G37*
G36*
X0060427Y0047885D02*
X0060442Y0047851D01*
X0060467Y0047822D01*
X0060502Y0047796D01*
X0060547Y0047774D01*
X0060602Y0047757D01*
X0060667Y0047743D01*
X0060742Y0047733D01*
X0060803Y0047729D01*
X0060933Y0047738D01*
X0060998Y0047749D01*
X0061053Y0047762D01*
X0061098Y0047778D01*
X0061133Y0047797D01*
X0061158Y0047819D01*
X0061173Y0047844D01*
X0061178Y0047872D01*
Y0047028D01*
X0061173Y0047065D01*
X0061158Y0047099D01*
X0061133Y0047129D01*
X0061098Y0047154D01*
X0061053Y0047176D01*
X0060998Y0047193D01*
X0060933Y0047207D01*
X0060858Y0047217D01*
X0060797Y0047221D01*
X0060667Y0047212D01*
X0060602Y0047201D01*
X0060547Y0047188D01*
X0060502Y0047172D01*
X0060467Y0047153D01*
X0060442Y0047131D01*
X0060427Y0047106D01*
X0060422Y0047078D01*
Y0047922D01*
X0060427Y0047885D01*
D02*
G37*
G36*
X0076262Y0047277D02*
X0076228Y0047265D01*
X0076198Y0047245D01*
X0076172Y0047217D01*
X007615Y004718D01*
X0076132Y0047136D01*
X0076118Y0047084D01*
X0076108Y0047023D01*
X0076102Y0046955D01*
X0076102Y004695D01*
X0076102Y0046945D01*
X0076108Y0046877D01*
X0076118Y0046816D01*
X0076132Y0046764D01*
X007615Y004672D01*
X0076172Y0046683D01*
X0076198Y0046655D01*
X0076228Y0046635D01*
X0076262Y0046623D01*
X00763Y0046619D01*
X00755D01*
X0075538Y0046623D01*
X0075572Y0046635D01*
X0075602Y0046655D01*
X0075628Y0046683D01*
X007565Y004672D01*
X0075668Y0046764D01*
X0075682Y0046816D01*
X0075692Y0046877D01*
X0075698Y0046945D01*
X0075698Y004695D01*
X0075698Y0046955D01*
X0075692Y0047023D01*
X0075682Y0047084D01*
X0075668Y0047136D01*
X007565Y004718D01*
X0075628Y0047217D01*
X0075602Y0047245D01*
X0075572Y0047265D01*
X0075538Y0047277D01*
X00755Y0047281D01*
X00763D01*
X0076262Y0047277D01*
D02*
G37*
G36*
X0074889Y0045773D02*
X007486Y0045758D01*
X0074834Y0045733D01*
X0074812Y0045698D01*
X0074793Y0045653D01*
X0074778Y0045598D01*
X0074765Y0045533D01*
X0074757Y0045458D01*
X0074752Y0045373D01*
X007475Y0045278D01*
X007425D01*
X0074248Y0045373D01*
X0074235Y0045533D01*
X0074222Y0045598D01*
X0074207Y0045653D01*
X0074188Y0045698D01*
X0074166Y0045733D01*
X007414Y0045758D01*
X0074111Y0045773D01*
X0074078Y0045778D01*
X0074922D01*
X0074889Y0045773D01*
D02*
G37*
G36*
X00615Y004575D02*
X0061495Y004575D01*
X0061405Y0045745D01*
X006132Y004573D01*
X0061245Y0045705D01*
X006118Y004567D01*
X0061125Y0045625D01*
X006108Y004557D01*
X0061045Y0045505D01*
X006102Y004543D01*
X0061005Y0045345D01*
X0061Y004525D01*
X00605D01*
X0060495Y0045345D01*
X006048Y004543D01*
X0060455Y0045505D01*
X006042Y004557D01*
X0060375Y0045625D01*
X006032Y004567D01*
X0060255Y0045705D01*
X006018Y004573D01*
X0060095Y0045745D01*
X006Y004575D01*
X006Y004575D01*
X006075Y004625D01*
X00615Y004575D01*
D02*
G37*
G36*
X0112253Y0045203D02*
X0112251Y0045202D01*
X0112245Y0045202D01*
X0112203Y0045201D01*
X0112053Y00452D01*
Y00454D01*
X0112092Y0045401D01*
X0112126Y0045404D01*
X0112156Y0045409D01*
X0112183Y0045416D01*
X0112205Y0045425D01*
X0112223Y0045436D01*
X0112238Y0045449D01*
X0112248Y0045464D01*
X0112254Y0045481D01*
X0112256Y00455D01*
X0112253Y0045203D01*
D02*
G37*
G36*
X0110746Y0045481D02*
X0110752Y0045464D01*
X0110763Y0045449D01*
X0110777Y0045436D01*
X0110795Y0045425D01*
X0110817Y0045416D01*
X0110844Y0045409D01*
X0110874Y0045404D01*
X0110909Y0045401D01*
X0110947Y00454D01*
Y00452D01*
X0110747Y0045203D01*
X0110744Y00455D01*
X0110746Y0045481D01*
D02*
G37*
G36*
X0065626Y0044959D02*
X0065629Y0044925D01*
X0065634Y0044895D01*
X0065641Y0044869D01*
X006565Y0044847D01*
X0065661Y0044829D01*
X0065674Y0044815D01*
X0065689Y0044805D01*
X0065706Y0044799D01*
X0065725Y0044797D01*
X0065325D01*
X0065344Y0044799D01*
X0065361Y0044805D01*
X0065376Y0044815D01*
X0065389Y0044829D01*
X00654Y0044847D01*
X0065409Y0044869D01*
X0065416Y0044895D01*
X0065421Y0044925D01*
X0065424Y0044959D01*
X0065425Y0044997D01*
X0065625D01*
X0065626Y0044959D01*
D02*
G37*
G36*
X0064201D02*
X0064204Y0044925D01*
X0064209Y0044895D01*
X0064216Y0044869D01*
X0064225Y0044847D01*
X0064236Y0044829D01*
X0064249Y0044815D01*
X0064264Y0044805D01*
X0064281Y0044799D01*
X00643Y0044797D01*
X00639D01*
X0063919Y0044799D01*
X0063936Y0044805D01*
X0063951Y0044815D01*
X0063964Y0044829D01*
X0063975Y0044847D01*
X0063984Y0044869D01*
X0063991Y0044895D01*
X0063996Y0044925D01*
X0063999Y0044959D01*
X0064Y0044997D01*
X00642D01*
X0064201Y0044959D01*
D02*
G37*
G36*
X0060647Y0044597D02*
X0060097D01*
X0060107Y00446D01*
X0060116Y0044609D01*
X0060124Y0044624D01*
X0060131Y0044645D01*
X0060137Y0044673D01*
X0060142Y0044706D01*
X0060148Y0044791D01*
X006015Y00449D01*
X006065D01*
X0060647Y0044597D01*
D02*
G37*
G36*
X005893Y0045573D02*
X0058892Y0045558D01*
X0058859Y0045533D01*
X005883Y0045498D01*
X0058805Y0045453D01*
X0058786Y0045398D01*
X005877Y0045333D01*
X0058759Y0045258D01*
X0058752Y0045173D01*
X005875Y0045078D01*
X005875D01*
X0058747Y0044597D01*
X0058153D01*
X0058171Y0044602D01*
X0058188Y0044617D01*
X0058202Y0044642D01*
X0058215Y0044677D01*
X0058226Y0044722D01*
X0058234Y0044777D01*
X0058241Y0044842D01*
X0058249Y0045002D01*
X005825Y0045086D01*
X0058249Y0045173D01*
X005823Y0045398D01*
X005822Y0045453D01*
X0058206Y0045498D01*
X005819Y0045533D01*
X0058172Y0045558D01*
X0058151Y0045573D01*
X0058128Y0045578D01*
X0058972D01*
X005893Y0045573D01*
D02*
G37*
G36*
X0094202Y0043827D02*
X0094215Y0043667D01*
X0094228Y0043602D01*
X0094243Y0043547D01*
X0094262Y0043502D01*
X0094284Y0043467D01*
X009431Y0043442D01*
X0094339Y0043427D01*
X0094372Y0043422D01*
X0093528D01*
X0093561Y0043427D01*
X009359Y0043442D01*
X0093616Y0043467D01*
X0093638Y0043502D01*
X0093657Y0043547D01*
X0093672Y0043602D01*
X0093685Y0043667D01*
X0093693Y0043742D01*
X0093698Y0043827D01*
X00937Y0043922D01*
X00942D01*
X0094202Y0043827D01*
D02*
G37*
G36*
X0065947Y0042553D02*
X0065938Y004255D01*
X006593Y0042539D01*
X0065923Y0042521D01*
X0065917Y0042497D01*
X0065912Y0042465D01*
X0065908Y0042426D01*
X00659Y0042267D01*
X00659Y00422D01*
X00655D01*
X0065498Y0042268D01*
X0065494Y0042328D01*
X0065486Y0042381D01*
X0065476Y0042428D01*
X0065462Y0042467D01*
X0065445Y0042499D01*
X0065425Y0042524D01*
X0065402Y0042542D01*
X0065376Y0042552D01*
X0065347Y0042556D01*
X0065947Y0042553D01*
D02*
G37*
G36*
X0064387Y0042552D02*
X0064353Y004254D01*
X0064323Y004252D01*
X0064297Y0042492D01*
X0064275Y0042455D01*
X0064257Y0042411D01*
X0064243Y0042359D01*
X0064233Y0042298D01*
X0064227Y004223D01*
X0064225Y0042153D01*
X0063825D01*
X0063823Y004223D01*
X0063817Y0042298D01*
X0063807Y0042359D01*
X0063793Y0042411D01*
X0063775Y0042455D01*
X0063753Y0042492D01*
X0063727Y004252D01*
X0063697Y004254D01*
X0063663Y0042552D01*
X0063625Y0042556D01*
X0064425D01*
X0064387Y0042552D01*
D02*
G37*
G36*
X0101356Y0042076D02*
X0101339Y004207D01*
X0101324Y004206D01*
X0101311Y0042046D01*
X01013Y0042028D01*
X0101291Y0042006D01*
X0101284Y004198D01*
X0101279Y004195D01*
X0101276Y0041916D01*
X0101275Y0041878D01*
X0101075D01*
X0101078Y0042078D01*
X0101375D01*
X0101356Y0042076D01*
D02*
G37*
G36*
X0094152Y0042576D02*
X009411Y0042561D01*
X0094073Y0042535D01*
X009404Y00425D01*
X0094012Y0042455D01*
X009399Y0042399D01*
X0093973Y0042334D01*
X009396Y0042259D01*
X0093952Y0042173D01*
X0093952Y0042141D01*
X0093952Y0042108D01*
X009396Y0042022D01*
X0093972Y0041946D01*
X009399Y004188D01*
X0094012Y0041825D01*
X009404Y0041779D01*
X0094072Y0041744D01*
X009411Y0041718D01*
X0094152Y0041703D01*
X00942Y0041698D01*
X00932D01*
X0093248Y0041703D01*
X009329Y0041718D01*
X0093328Y0041744D01*
X009336Y0041779D01*
X0093388Y0041825D01*
X009341Y004188D01*
X0093428Y0041946D01*
X009344Y0042022D01*
X0093448Y0042108D01*
X009345Y0042205D01*
X009347D01*
X0093528Y0042578D01*
X00942Y0042581D01*
X0094152Y0042576D01*
D02*
G37*
G36*
X0110906Y00413D02*
X0110904Y0041319D01*
X0110898Y0041336D01*
X0110888Y0041351D01*
X0110874Y0041364D01*
X0110855Y0041375D01*
X0110833Y0041384D01*
X0110807Y0041391D01*
X0110776Y0041396D01*
X0110742Y0041399D01*
X0110703Y00414D01*
Y00416D01*
X0110742Y0041601D01*
X0110776Y0041604D01*
X0110807Y0041609D01*
X0110833Y0041616D01*
X0110855Y0041625D01*
X0110874Y0041636D01*
X0110888Y0041649D01*
X0110898Y0041664D01*
X0110904Y0041681D01*
X0110906Y00417D01*
Y00413D01*
D02*
G37*
G36*
X0109096Y0041681D02*
X0109102Y0041664D01*
X0109112Y0041649D01*
X0109126Y0041636D01*
X0109145Y0041625D01*
X0109167Y0041616D01*
X0109193Y0041609D01*
X0109224Y0041604D01*
X0109258Y0041601D01*
X0109297Y00416D01*
Y00414D01*
X0109258Y0041399D01*
X0109224Y0041396D01*
X0109193Y0041391D01*
X0109167Y0041384D01*
X0109145Y0041375D01*
X0109126Y0041364D01*
X0109112Y0041351D01*
X0109102Y0041336D01*
X0109096Y0041319D01*
X0109094Y00413D01*
Y00417D01*
X0109096Y0041681D01*
D02*
G37*
G36*
X0063502Y0041545D02*
X0063503Y0041536D01*
X006351D01*
X0063508Y0041532D01*
X0063506Y0041525D01*
X0063505Y0041515D01*
X0063505Y0041513D01*
X0063508Y0041477D01*
X0063518Y0041416D01*
X0063532Y0041364D01*
X006355Y004132D01*
X0063572Y0041283D01*
X0063598Y0041255D01*
X0063628Y0041235D01*
X0063662Y0041223D01*
X00637Y0041219D01*
X00629D01*
X0062938Y0041223D01*
X0062972Y0041235D01*
X0063002Y0041255D01*
X0063028Y0041283D01*
X006305Y004132D01*
X0063068Y0041364D01*
X0063082Y0041416D01*
X0063092Y0041477D01*
X0063093Y0041485D01*
X006309Y0041536D01*
X0063097D01*
X0063098Y0041545D01*
X00631Y0041622D01*
X00635D01*
X0063502Y0041545D01*
D02*
G37*
G36*
X0093147Y0041116D02*
X0093125Y0041123D01*
X0093094Y004113D01*
X0093055Y0041136D01*
X0092954Y0041145D01*
X0092743Y0041153D01*
X0092563Y0041155D01*
Y0041655D01*
X0092657Y0041655D01*
X0093094Y004168D01*
X0093125Y0041687D01*
X0093147Y0041694D01*
Y0041116D01*
D02*
G37*
G36*
X0070581Y0040185D02*
X0070577Y0040223D01*
X0070565Y0040257D01*
X0070545Y0040287D01*
X0070517Y0040313D01*
X007048Y0040335D01*
X0070436Y0040353D01*
X0070384Y0040367D01*
X0070323Y0040377D01*
X0070299Y0040379D01*
X0070278Y0040377D01*
X0070218Y0040368D01*
X0070166Y0040354D01*
X0070122Y0040337D01*
X0070086Y0040316D01*
X0070058Y0040291D01*
X0070038Y0040262D01*
X0070026Y004023D01*
X0070022Y0040193D01*
Y0040947D01*
X0070026Y0040916D01*
X0070038Y0040889D01*
X0070058Y0040864D01*
X0070086Y0040843D01*
X0070122Y0040825D01*
X0070166Y0040811D01*
X0070218Y00408D01*
X0070278Y0040791D01*
X0070293Y004079D01*
X0070323Y0040793D01*
X0070384Y0040803D01*
X0070436Y0040817D01*
X007048Y0040835D01*
X0070517Y0040857D01*
X0070545Y0040883D01*
X0070565Y0040913D01*
X0070577Y0040947D01*
X0070581Y0040985D01*
Y0040185D01*
D02*
G37*
G36*
X0110903Y0040353D02*
X0110703Y004035D01*
Y004055D01*
X0110741Y0040551D01*
X0110776Y0040554D01*
X0110806Y0040559D01*
X0110833Y0040566D01*
X0110855Y0040575D01*
X0110873Y0040586D01*
X0110887Y0040599D01*
X0110898Y0040614D01*
X0110904Y0040631D01*
X0110906Y004065D01*
X0110903Y0040353D01*
D02*
G37*
G36*
X0109096Y0040631D02*
X0109102Y0040614D01*
X0109113Y0040599D01*
X0109127Y0040586D01*
X0109145Y0040575D01*
X0109167Y0040566D01*
X0109194Y0040559D01*
X0109224Y0040554D01*
X0109259Y0040551D01*
X0109297Y004055D01*
Y004035D01*
X0109097Y0040353D01*
X0109094Y004065D01*
X0109096Y0040631D01*
D02*
G37*
G36*
X0087592Y0040511D02*
X0087657Y0040457D01*
X0087686Y0040438D01*
X0087712Y0040424D01*
X0087737Y0040415D01*
X0087759Y0040411D01*
X0087778Y0040412D01*
X0087796Y0040418D01*
X0087811Y004043D01*
X008753Y0040149D01*
X0087542Y0040164D01*
X0087548Y0040182D01*
X0087549Y0040201D01*
X0087545Y0040223D01*
X0087536Y0040248D01*
X0087522Y0040274D01*
X0087503Y0040303D01*
X0087479Y0040334D01*
X0087449Y0040368D01*
X0087415Y0040404D01*
X0087556Y0040545D01*
X0087592Y0040511D01*
D02*
G37*
G36*
X0096633Y0040126D02*
X0096623Y0040122D01*
X0096614Y0040114D01*
X0096606Y0040103D01*
X00966Y0040088D01*
X0096594Y0040071D01*
X009659Y004005D01*
X0096587Y0040026D01*
X0096585Y0039999D01*
X0096585Y0039969D01*
X0096385D01*
X0096384Y0039999D01*
X009638Y004005D01*
X0096375Y0040071D01*
X009637Y0040088D01*
X0096364Y0040103D01*
X0096356Y0040114D01*
X0096347Y0040122D01*
X0096337Y0040126D01*
X0096326Y0040128D01*
X0096644D01*
X0096633Y0040126D01*
D02*
G37*
G36*
X0096148D02*
X0096138Y0040122D01*
X0096129Y0040114D01*
X0096121Y0040103D01*
X0096115Y0040088D01*
X0096109Y0040071D01*
X0096105Y004005D01*
X0096102Y0040026D01*
X0096101Y0039999D01*
X00961Y0039969D01*
X00959D01*
X0095899Y0039999D01*
X0095895Y004005D01*
X0095891Y0040071D01*
X0095885Y0040088D01*
X0095879Y0040103D01*
X0095871Y0040114D01*
X0095862Y0040122D01*
X0095852Y0040126D01*
X0095841Y0040128D01*
X0096159D01*
X0096148Y0040126D01*
D02*
G37*
G36*
X0099602Y0040114D02*
X0099608Y004008D01*
X0099618Y004005D01*
X0099632Y0040024D01*
X009965Y0040002D01*
X0099672Y0039984D01*
X0099698Y003997D01*
X0099728Y003996D01*
X0099762Y0039954D01*
X00998Y0039952D01*
X00995Y0039752D01*
X00992Y0039952D01*
X0099238Y0039954D01*
X0099272Y003996D01*
X0099302Y003997D01*
X0099328Y0039984D01*
X009935Y0040002D01*
X0099368Y0040024D01*
X0099382Y004005D01*
X0099392Y004008D01*
X0099398Y0040114D01*
X00994Y0040152D01*
X00996D01*
X0099602Y0040114D01*
D02*
G37*
G36*
X0062881Y0039D02*
X0062877Y0039038D01*
X0062865Y0039072D01*
X0062845Y0039102D01*
X0062817Y0039128D01*
X006278Y003915D01*
X0062736Y0039168D01*
X0062684Y0039182D01*
X0062623Y0039192D01*
X0062555Y0039198D01*
X006255Y0039198D01*
X0062545Y0039198D01*
X0062477Y0039192D01*
X0062416Y0039182D01*
X0062364Y0039168D01*
X006232Y003915D01*
X0062283Y0039128D01*
X0062255Y0039102D01*
X0062235Y0039072D01*
X0062223Y0039038D01*
X0062219Y0039D01*
Y00398D01*
X0062223Y0039762D01*
X0062235Y0039728D01*
X0062255Y0039698D01*
X0062283Y0039672D01*
X006232Y003965D01*
X0062364Y0039632D01*
X0062416Y0039618D01*
X0062477Y0039608D01*
X0062545Y0039602D01*
X006255Y0039602D01*
X0062555Y0039602D01*
X0062623Y0039608D01*
X0062684Y0039618D01*
X0062736Y0039632D01*
X006278Y003965D01*
X0062817Y0039672D01*
X0062845Y0039698D01*
X0062865Y0039728D01*
X0062877Y0039762D01*
X0062881Y00398D01*
Y0039D01*
D02*
G37*
G36*
X0096585Y003925D02*
X009659Y0039198D01*
X0096594Y0039177D01*
X00966Y0039159D01*
X0096606Y0039145D01*
X0096614Y0039133D01*
X0096623Y0039125D01*
X0096633Y0039121D01*
X0096644Y0039119D01*
X0096326D01*
X0096337Y0039121D01*
X0096347Y0039125D01*
X0096356Y0039133D01*
X0096364Y0039145D01*
X009637Y0039159D01*
X0096375Y0039177D01*
X009638Y0039198D01*
X0096382Y0039223D01*
X0096384Y003925D01*
X0096385Y0039281D01*
X0096585D01*
X0096585Y003925D01*
D02*
G37*
G36*
X0096101D02*
X0096105Y0039198D01*
X0096109Y0039177D01*
X0096115Y0039159D01*
X0096121Y0039145D01*
X0096129Y0039133D01*
X0096138Y0039125D01*
X0096148Y0039121D01*
X0096159Y0039119D01*
X0095841D01*
X0095852Y0039121D01*
X0095862Y0039125D01*
X0095871Y0039133D01*
X0095879Y0039145D01*
X0095885Y0039159D01*
X0095891Y0039177D01*
X0095895Y0039198D01*
X0095898Y0039223D01*
X0095899Y003925D01*
X00959Y0039281D01*
X00961D01*
X0096101Y003925D01*
D02*
G37*
G36*
X0063723Y0039712D02*
X0063735Y0039678D01*
X0063756Y0039648D01*
X0063784Y0039622D01*
X006382Y00396D01*
X0063864Y0039582D01*
X0063917Y0039568D01*
X0063977Y0039558D01*
X0064046Y0039552D01*
X0064059Y0039552D01*
X0064182Y0039561D01*
X0064234Y003957D01*
X0064278Y0039582D01*
X0064314Y0039596D01*
X0064342Y0039612D01*
X0064362Y0039631D01*
X0064374Y0039653D01*
X0064378Y0039677D01*
Y003895D01*
X0064374Y0038988D01*
X0064362Y0039022D01*
X0064342Y0039052D01*
X0064314Y0039078D01*
X0064278Y00391D01*
X0064234Y0039118D01*
X0064182Y0039132D01*
X0064122Y0039142D01*
X0064054Y0039148D01*
X0064045Y0039148D01*
X0063978Y0039143D01*
X0063918Y0039135D01*
X0063866Y0039122D01*
X0063822Y0039107D01*
X0063786Y0039088D01*
X0063758Y0039066D01*
X0063738Y003904D01*
X0063726Y0039011D01*
X0063722Y0038978D01*
X0063719Y003975D01*
X0063723Y0039712D01*
D02*
G37*
G36*
X01018Y0039298D02*
X0101762Y0039296D01*
X0101728Y003929D01*
X0101698Y003928D01*
X0101672Y0039266D01*
X010165Y0039248D01*
X0101632Y0039226D01*
X0101618Y00392D01*
X0101608Y003917D01*
X0101602Y0039136D01*
X0101602Y003913D01*
X0101604Y0039108D01*
X010161Y0039081D01*
X0101618Y0039055D01*
X0101628Y003903D01*
X010164Y0039006D01*
X0101654Y0038982D01*
X010167Y0038959D01*
X0101689Y0038936D01*
X010171Y0038914D01*
X010129D01*
X0101311Y0038936D01*
X010133Y0038959D01*
X0101346Y0038982D01*
X010136Y0039006D01*
X0101372Y003903D01*
X0101382Y0039055D01*
X010139Y0039081D01*
X0101396Y0039108D01*
X0101398Y003913D01*
X0101398Y0039136D01*
X0101392Y003917D01*
X0101382Y00392D01*
X0101368Y0039226D01*
X010135Y0039248D01*
X0101328Y0039266D01*
X0101302Y003928D01*
X0101272Y003929D01*
X0101238Y0039296D01*
X01012Y0039298D01*
X01015Y0039498D01*
X01018Y0039298D01*
D02*
G37*
G36*
X0087592Y0039241D02*
X0087657Y0039187D01*
X0087686Y0039168D01*
X0087712Y0039154D01*
X0087737Y0039145D01*
X0087759Y0039141D01*
X0087778Y0039142D01*
X0087796Y0039148D01*
X0087811Y003916D01*
X008753Y0038879D01*
X0087542Y0038894D01*
X0087548Y0038912D01*
X0087549Y0038931D01*
X0087545Y0038953D01*
X0087536Y0038978D01*
X0087522Y0039004D01*
X0087503Y0039033D01*
X0087479Y0039064D01*
X0087449Y0039098D01*
X0087415Y0039134D01*
X0087556Y0039275D01*
X0087592Y0039241D01*
D02*
G37*
G36*
X0070023Y0039612D02*
X0070035Y0039578D01*
X0070056Y0039548D01*
X0070084Y0039522D01*
X007012Y00395D01*
X0070164Y0039482D01*
X0070217Y0039468D01*
X0070277Y0039458D01*
X0070305Y0039456D01*
X0070322Y0039457D01*
X0070382Y0039465D01*
X0070434Y0039478D01*
X0070478Y0039493D01*
X0070514Y0039512D01*
X0070542Y0039534D01*
X0070562Y003956D01*
X0070574Y0039589D01*
X0070578Y0039622D01*
X0070581Y003885D01*
X0070577Y0038888D01*
X0070565Y0038922D01*
X0070544Y0038952D01*
X0070516Y0038978D01*
X007048Y0039D01*
X0070436Y0039018D01*
X0070383Y0039032D01*
X0070323Y0039042D01*
X0070294Y0039045D01*
X0070218Y0039039D01*
X0070166Y003903D01*
X0070122Y0039018D01*
X0070086Y0039004D01*
X0070058Y0038988D01*
X0070038Y0038969D01*
X0070026Y0038947D01*
X0070022Y0038923D01*
X0070019Y003965D01*
X0070023Y0039612D01*
D02*
G37*
G36*
X0063662Y0038974D02*
X0063628Y0038962D01*
X0063598Y0038942D01*
X0063572Y0038914D01*
X006355Y0038878D01*
X0063532Y0038834D01*
X0063518Y0038782D01*
X0063508Y0038722D01*
X0063502Y0038654D01*
X0063501Y00386D01*
X0063502Y0038545D01*
X0063508Y0038477D01*
X0063518Y0038416D01*
X0063532Y0038364D01*
X006355Y003832D01*
X0063572Y0038283D01*
X0063598Y0038255D01*
X0063628Y0038235D01*
X0063662Y0038223D01*
X00637Y0038219D01*
X00629D01*
X0062938Y0038223D01*
X0062972Y0038235D01*
X0063002Y0038255D01*
X0063028Y0038283D01*
X006305Y003832D01*
X0063068Y0038364D01*
X0063082Y0038416D01*
X0063092Y0038477D01*
X0063098Y0038545D01*
X0063099Y00386D01*
X0063098Y0038654D01*
X0063092Y0038722D01*
X0063082Y0038782D01*
X0063068Y0038834D01*
X006305Y0038878D01*
X0063028Y0038914D01*
X0063002Y0038942D01*
X0062972Y0038962D01*
X0062938Y0038974D01*
X00629Y0038978D01*
X00637D01*
X0063662Y0038974D01*
D02*
G37*
G36*
X0101601Y0037808D02*
X0101604Y0037774D01*
X0101609Y0037743D01*
X0101616Y0037717D01*
X0101625Y0037695D01*
X0101636Y0037676D01*
X0101649Y0037662D01*
X0101664Y0037652D01*
X0101681Y0037646D01*
X01017Y0037644D01*
X01013D01*
X0101319Y0037646D01*
X0101336Y0037652D01*
X0101351Y0037662D01*
X0101364Y0037676D01*
X0101375Y0037695D01*
X0101384Y0037717D01*
X0101391Y0037743D01*
X0101396Y0037774D01*
X0101399Y0037808D01*
X01014Y0037847D01*
X01016D01*
X0101601Y0037808D01*
D02*
G37*
G36*
X0099601D02*
X0099604Y0037774D01*
X0099609Y0037743D01*
X0099616Y0037717D01*
X0099625Y0037695D01*
X0099636Y0037676D01*
X0099649Y0037662D01*
X0099664Y0037652D01*
X0099681Y0037646D01*
X00997Y0037644D01*
X00993D01*
X0099319Y0037646D01*
X0099336Y0037652D01*
X0099351Y0037662D01*
X0099364Y0037676D01*
X0099375Y0037695D01*
X0099384Y0037717D01*
X0099391Y0037743D01*
X0099396Y0037774D01*
X0099399Y0037808D01*
X00994Y0037847D01*
X00996D01*
X0099601Y0037808D01*
D02*
G37*
G36*
X0093001Y0038104D02*
X0093134Y003799D01*
X0093192Y0037947D01*
X0093246Y0037914D01*
X0093295Y003789D01*
X0093338Y0037876D01*
X0093377Y0037872D01*
X0093411Y0037877D01*
X0093439Y0037891D01*
X0092936Y0037517D01*
X009293Y0037539D01*
X009292Y0037563D01*
X0092904Y0037592D01*
X0092883Y0037624D01*
X0092857Y003766D01*
X0092788Y0037742D01*
X0092698Y0037839D01*
X0092645Y0037893D01*
X0092927Y0038175D01*
X0093001Y0038104D01*
D02*
G37*
G36*
X0096639Y0036873D02*
X009661Y0036858D01*
X0096584Y0036833D01*
X0096562Y0036798D01*
X0096543Y0036753D01*
X0096528Y0036698D01*
X0096515Y0036633D01*
X0096507Y0036558D01*
X0096502Y0036473D01*
X00965Y0036378D01*
X0096D01*
X0095998Y0036473D01*
X0095985Y0036633D01*
X0095972Y0036698D01*
X0095957Y0036753D01*
X0095938Y0036798D01*
X0095916Y0036833D01*
X009589Y0036858D01*
X0095861Y0036873D01*
X0095828Y0036878D01*
X0096672D01*
X0096639Y0036873D01*
D02*
G37*
G36*
X0063723Y0036762D02*
X0063735Y0036728D01*
X0063755Y0036698D01*
X0063783Y0036672D01*
X006382Y003665D01*
X0063864Y0036632D01*
X0063916Y0036618D01*
X0063977Y0036608D01*
X0064045Y0036602D01*
X0064122Y00366D01*
Y00362D01*
X0064045Y0036198D01*
X0063977Y0036192D01*
X0063916Y0036182D01*
X0063864Y0036168D01*
X006382Y003615D01*
X0063783Y0036128D01*
X0063755Y0036102D01*
X0063735Y0036072D01*
X0063723Y0036038D01*
X0063719Y0036D01*
Y00368D01*
X0063723Y0036762D01*
D02*
G37*
G36*
X0093749Y0036368D02*
X0093825Y0036308D01*
X0093903Y0036255D01*
X0093984Y0036209D01*
X0094067Y003617D01*
X0094154Y0036139D01*
X0094244Y0036114D01*
X0094337Y0036096D01*
X0094432Y0036086D01*
X0094531Y0036082D01*
X0093927Y0035582D01*
X0092824Y0036082D01*
X0092915Y0036086D01*
X009299Y0036096D01*
X0093047Y0036114D01*
X0093087Y0036139D01*
X009311Y003617D01*
X0093116Y0036209D01*
X0093105Y0036255D01*
X0093077Y0036308D01*
X0093032Y0036368D01*
X009297Y0036436D01*
X0093677D01*
X0093749Y0036368D01*
D02*
G37*
%LPC*%
G36*
X0114Y0079261D02*
X0113559Y0079217D01*
X0113135Y0079089D01*
X0112744Y007888D01*
X0112401Y0078599D01*
X011212Y0078256D01*
X0111911Y0077865D01*
X0111783Y0077441D01*
X0111739Y0077D01*
X0111783Y0076559D01*
X0111911Y0076135D01*
X011212Y0075744D01*
X0112401Y0075401D01*
X0112744Y007512D01*
X0113135Y0074911D01*
X0113559Y0074783D01*
X0114Y0074739D01*
X0114441Y0074783D01*
X0114865Y0074911D01*
X0115256Y007512D01*
X0115599Y0075401D01*
X011588Y0075744D01*
X0116089Y0076135D01*
X0116217Y0076559D01*
X0116261Y0077D01*
X0116217Y0077441D01*
X0116089Y0077865D01*
X011588Y0078256D01*
X0115599Y0078599D01*
X0115256Y007888D01*
X0114865Y0079089D01*
X0114441Y0079217D01*
X0114Y0079261D01*
D02*
G37*
G36*
X0034D02*
X0033559Y0079217D01*
X0033135Y0079089D01*
X0032744Y007888D01*
X0032401Y0078599D01*
X003212Y0078256D01*
X0031911Y0077865D01*
X0031783Y0077441D01*
X0031739Y0077D01*
X0031783Y0076559D01*
X0031911Y0076135D01*
X003212Y0075744D01*
X0032401Y0075401D01*
X0032744Y007512D01*
X0033135Y0074911D01*
X0033559Y0074783D01*
X0034Y0074739D01*
X0034441Y0074783D01*
X0034865Y0074911D01*
X0035256Y007512D01*
X0035599Y0075401D01*
X003588Y0075744D01*
X0036089Y0076135D01*
X0036217Y0076559D01*
X0036261Y0077D01*
X0036217Y0077441D01*
X0036089Y0077865D01*
X003588Y0078256D01*
X0035599Y0078599D01*
X0035256Y007888D01*
X0034865Y0079089D01*
X0034441Y0079217D01*
X0034Y0079261D01*
D02*
G37*
G36*
X010115Y00722D02*
X0100675D01*
Y0071475D01*
X010115D01*
Y00722D01*
D02*
G37*
G36*
X0100325D02*
X009985D01*
Y0071475D01*
X0100325D01*
Y00722D01*
D02*
G37*
G36*
X010115Y0071125D02*
X0100675D01*
Y00704D01*
X010115D01*
Y0071125D01*
D02*
G37*
G36*
X0100325D02*
X009985D01*
Y00704D01*
X0100325D01*
Y0071125D01*
D02*
G37*
G36*
X0092375Y0070775D02*
X0091775D01*
Y0070175D01*
X0092375D01*
Y0070775D01*
D02*
G37*
G36*
Y0069825D02*
X0091775D01*
Y0069225D01*
X0092375D01*
Y0069825D01*
D02*
G37*
G36*
X0097025Y0069725D02*
X0096425D01*
Y0069125D01*
X0097025D01*
Y0069725D01*
D02*
G37*
G36*
X0096075D02*
X0095475D01*
Y0069125D01*
X0096075D01*
Y0069725D01*
D02*
G37*
G36*
X0088775Y0068915D02*
X0087825D01*
X008763Y0068876D01*
X0087465Y0068765D01*
X008743Y0068714D01*
X0087396Y0068711D01*
X0086486D01*
X0086486Y0068711D01*
X0086466Y0068707D01*
X0086445Y0068721D01*
X008625Y006876D01*
X0086055Y0068721D01*
X008589Y006861D01*
X0085779Y0068445D01*
X008574Y006825D01*
X0085779Y0068055D01*
X008589Y006789D01*
X0086055Y0067779D01*
X008625Y006774D01*
X0086445Y0067779D01*
X008661Y006789D01*
X0086721Y0068055D01*
X008673Y0068099D01*
X0087403D01*
X008742Y0068098D01*
X008743Y0068097D01*
X0087465Y0068045D01*
X008763Y0067934D01*
X0087825Y0067895D01*
X0088775D01*
X008897Y0067934D01*
X0089135Y0068045D01*
X0089246Y006821D01*
X0089285Y0068405D01*
X0089246Y00686D01*
X0089135Y0068765D01*
X008897Y0068876D01*
X0088775Y0068915D01*
D02*
G37*
G36*
Y0065105D02*
X0087825D01*
X008763Y0065066D01*
X0087465Y0064955D01*
X008743Y0064904D01*
X0087396Y0064901D01*
X0086542D01*
X0086445Y0064966D01*
X008625Y0065004D01*
X0086055Y0064966D01*
X008589Y0064855D01*
X0085779Y006469D01*
X008574Y0064495D01*
X0085779Y0064299D01*
X008589Y0064134D01*
X0086055Y0064024D01*
X008625Y0063985D01*
X0086445Y0064024D01*
X008661Y0064134D01*
X0086714Y0064289D01*
X0087403D01*
X008742Y0064288D01*
X008743Y0064287D01*
X0087465Y0064235D01*
X008763Y0064124D01*
X0087825Y0064085D01*
X0088775D01*
X008897Y0064124D01*
X0089135Y0064235D01*
X0089246Y00644D01*
X0089285Y0064595D01*
X0089246Y006479D01*
X0089135Y0064955D01*
X008897Y0065066D01*
X0088775Y0065105D01*
D02*
G37*
G36*
X0094803Y006442D02*
X0093875D01*
Y0063932D01*
X0094175D01*
X0094429Y0063983D01*
X0094644Y0064126D01*
X0094787Y0064341D01*
X0094803Y006442D01*
D02*
G37*
G36*
X0093525D02*
X0092597D01*
X0092613Y0064341D01*
X0092756Y0064126D01*
X0092971Y0063983D01*
X0093225Y0063932D01*
X0093525D01*
Y006442D01*
D02*
G37*
G36*
X0082725Y0062525D02*
X0082125D01*
Y0061925D01*
X0082725D01*
Y0062525D01*
D02*
G37*
G36*
Y0061575D02*
X0082125D01*
Y0060975D01*
X0082725D01*
Y0061575D01*
D02*
G37*
G36*
X0102125Y0062725D02*
X0100875D01*
Y0061475D01*
X0101194D01*
Y0057647D01*
X0099537Y005599D01*
X009942Y0056039D01*
Y0056305D01*
X009658D01*
Y0054775D01*
X009942D01*
Y005516D01*
X009952Y0055234D01*
X0099637Y0055257D01*
X0099736Y0055324D01*
X0101716Y0057304D01*
X0101783Y0057403D01*
X0101806Y005752D01*
Y0061475D01*
X0102125D01*
Y0062725D01*
D02*
G37*
G36*
X0064Y0055975D02*
X00634D01*
Y0055375D01*
X0064D01*
Y0055975D01*
D02*
G37*
G36*
X00794Y0054675D02*
X0078845D01*
Y0053475D01*
X00794D01*
Y0054675D01*
D02*
G37*
G36*
X010802Y0053765D02*
X010518D01*
Y0052235D01*
X010802D01*
Y0053765D01*
D02*
G37*
G36*
X009942D02*
X009658D01*
Y0052235D01*
X009942D01*
Y0053765D01*
D02*
G37*
G36*
X00794Y0053125D02*
X0078845D01*
Y0051925D01*
X00794D01*
Y0053125D01*
D02*
G37*
G36*
X0074425Y0055925D02*
X0073175D01*
Y0054675D01*
X0074425D01*
Y0054873D01*
X0074429Y0054874D01*
X0074459Y0054882D01*
X0074502Y005489D01*
X0074532Y0054892D01*
X0075367D01*
X0075396Y005489D01*
X0075439Y0054882D01*
X0075469Y0054874D01*
X0075475Y0054872D01*
Y0054675D01*
X0075524D01*
X0075568Y0054596D01*
X007555Y0054525D01*
X007555D01*
Y0054326D01*
X0075549Y0054322D01*
X007555Y0054318D01*
Y0052075D01*
X0076693D01*
X007671Y0052075D01*
X007682D01*
X0076837Y0052075D01*
X007794D01*
Y0051925D01*
X0078495D01*
Y00533D01*
Y0054675D01*
X0078125D01*
Y0055925D01*
X0076875D01*
Y0054882D01*
X0076874Y0054877D01*
X0076875Y0054873D01*
Y0054675D01*
X0076875D01*
X00769Y0054602D01*
X0076857Y0054525D01*
X007682Y0054525D01*
X0076716D01*
X0076687Y0054557D01*
X0076672Y0054579D01*
X0076666Y0054593D01*
X0076714Y0054675D01*
X0076725D01*
Y0055925D01*
X0075475D01*
Y0055728D01*
X0075469Y0055726D01*
X0075439Y0055718D01*
X0075396Y005571D01*
X0075367Y0055708D01*
X0074532D01*
X0074502Y005571D01*
X0074459Y0055718D01*
X0074429Y0055726D01*
X0074425Y0055727D01*
Y0055925D01*
D02*
G37*
G36*
X00691Y005251D02*
X0068905Y0052471D01*
X006874Y005236D01*
X0068629Y0052195D01*
X006859Y0052D01*
X0068603Y0051936D01*
X0068442Y0051775D01*
X0068251D01*
X0068247Y0051776D01*
X0068243Y0051775D01*
X0068037D01*
X0068Y0051782D01*
X0067925D01*
X006785Y0051891D01*
Y0051925D01*
X0067425D01*
Y00514D01*
X006725D01*
Y0051225D01*
X006665D01*
Y0050875D01*
X0067019D01*
X0067125Y0050825D01*
Y0049575D01*
X0068375D01*
Y0050618D01*
X0068376Y0050622D01*
X0068375Y0050626D01*
Y0050825D01*
X0068311D01*
X0068307Y0050873D01*
Y0050963D01*
X0068309Y0050982D01*
X0068314Y005102D01*
X0068315Y0051025D01*
X006845D01*
X0068545Y0051103D01*
X0068617Y0051117D01*
X0068716Y0051184D01*
X0069036Y0051503D01*
X00691Y005149D01*
X0069295Y0051529D01*
X006946Y005164D01*
X0069571Y0051805D01*
X006961Y0052D01*
X0069571Y0052195D01*
X006946Y005236D01*
X0069295Y0052471D01*
X00691Y005251D01*
D02*
G37*
G36*
X0067075Y0051925D02*
X006665D01*
Y0051575D01*
X0067075D01*
Y0051925D01*
D02*
G37*
G36*
X0064Y0051875D02*
X00634D01*
Y0051275D01*
X0064D01*
Y0051875D01*
D02*
G37*
G36*
X0058375Y0051275D02*
X0057775D01*
Y0050675D01*
X0058375D01*
Y0051275D01*
D02*
G37*
G36*
X0039425Y0050887D02*
Y0049925D01*
X0040387D01*
X004037Y005005D01*
X0040255Y005033D01*
X004007Y005057D01*
X003983Y0050755D01*
X003955Y005087D01*
X0039425Y0050887D01*
D02*
G37*
G36*
X0039075D02*
X003895Y005087D01*
X003867Y0050755D01*
X003843Y005057D01*
X0038245Y005033D01*
X003813Y005005D01*
X0038113Y0049925D01*
X0039075D01*
Y0050887D01*
D02*
G37*
G36*
X0065375Y0049625D02*
X0064775D01*
Y0049025D01*
X0065375D01*
Y0049625D01*
D02*
G37*
G36*
X0061425D02*
X0060825D01*
Y0049025D01*
X0061425D01*
Y0049625D01*
D02*
G37*
G36*
X0040387Y0049575D02*
X0039425D01*
Y0048613D01*
X003955Y004863D01*
X003983Y0048745D01*
X004007Y004893D01*
X0040255Y004917D01*
X004037Y004945D01*
X0040387Y0049575D01*
D02*
G37*
G36*
X0039075D02*
X0038113D01*
X003813Y004945D01*
X0038245Y004917D01*
X003843Y004893D01*
X003867Y0048745D01*
X003895Y004863D01*
X0039075Y0048613D01*
Y0049575D01*
D02*
G37*
G36*
X0074325Y0048475D02*
X0073725D01*
Y0047875D01*
X0074325D01*
Y0048475D01*
D02*
G37*
G36*
X005675Y004915D02*
X0055425D01*
Y0047725D01*
X005675D01*
Y004915D01*
D02*
G37*
G36*
X0055075D02*
X005375D01*
Y0047725D01*
X0055075D01*
Y004915D01*
D02*
G37*
G36*
X005525Y004755D02*
D01*
D01*
D01*
D01*
D02*
G37*
G36*
X005675Y0047375D02*
X0055425D01*
Y004595D01*
X005675D01*
Y0047375D01*
D02*
G37*
G36*
X0055075D02*
X005375D01*
Y004595D01*
X0055075D01*
Y0047375D01*
D02*
G37*
G36*
X0061825Y0044375D02*
X0061225D01*
Y0043775D01*
X0061825D01*
Y0044375D01*
D02*
G37*
G36*
X009942Y0051225D02*
X009658D01*
Y0049695D01*
X009942D01*
Y0049961D01*
X0099537Y005001D01*
X0100869Y0048678D01*
Y0044225D01*
X0100869Y0044225D01*
X0100875Y0044195D01*
Y0043275D01*
X0102125D01*
Y0044525D01*
X0101481D01*
Y0048805D01*
X0101458Y0048922D01*
X0101391Y0049021D01*
X0101391Y0049021D01*
X0099736Y0050676D01*
X0099637Y0050743D01*
X009952Y0050766D01*
X009942Y005084D01*
Y0051225D01*
D02*
G37*
G36*
X003925Y0045759D02*
X0038989Y0045724D01*
X0038746Y0045624D01*
X0038537Y0045463D01*
X0038376Y0045254D01*
X0038276Y0045011D01*
X0038241Y004475D01*
X0038276Y0044489D01*
X0038376Y0044246D01*
X0038537Y0044037D01*
X0038746Y0043877D01*
X0038989Y0043776D01*
X003925Y0043741D01*
X0039511Y0043776D01*
X0039754Y0043877D01*
X0039841Y0043943D01*
X0047666D01*
X0047679Y0043929D01*
X0047847Y0043801D01*
X0048041Y0043721D01*
X004825Y0043693D01*
X0048416D01*
X0048618Y0043683D01*
X0048704Y0043673D01*
X0048773Y0043662D01*
X00488Y0043655D01*
Y004326D01*
X00527D01*
Y004544D01*
X0049007D01*
X0049003Y0045441D01*
X0048999Y004544D01*
X00488D01*
Y004534D01*
X0048785Y0045336D01*
X0048571Y004532D01*
X0048571Y0045321D01*
X0048403Y0045449D01*
X0048209Y0045529D01*
X0048Y0045557D01*
X0039841D01*
X0039754Y0045624D01*
X0039511Y0045724D01*
X003925Y0045759D01*
D02*
G37*
G36*
X0092375Y0043775D02*
X0091775D01*
Y0043175D01*
X0092375D01*
Y0043775D01*
D02*
G37*
G36*
Y0042825D02*
X0091775D01*
Y0042225D01*
X0092375D01*
Y0042825D01*
D02*
G37*
G36*
X0097025Y0042725D02*
X0096425D01*
Y0042125D01*
X0097025D01*
Y0042725D01*
D02*
G37*
G36*
X0096075D02*
X0095475D01*
Y0042125D01*
X0096075D01*
Y0042725D01*
D02*
G37*
G36*
X005435Y00407D02*
X005315D01*
Y00398D01*
X005435D01*
Y00407D01*
D02*
G37*
G36*
X0060725Y0039325D02*
X0060125D01*
Y0038725D01*
X0060725D01*
Y0039325D01*
D02*
G37*
G36*
X00566Y00447D02*
X00539D01*
Y00418D01*
X0054998D01*
X0055005Y0041788D01*
X0055016Y004176D01*
X0055028Y0041716D01*
X0055038Y0041659D01*
X0055041Y0041617D01*
Y00415D01*
X0055076Y0041324D01*
X0055176Y0041176D01*
X0055441Y004091D01*
Y00402D01*
X0055441Y004018D01*
X0055434Y0040118D01*
X0055426Y0040067D01*
X0055422Y004005D01*
X00553D01*
Y0039851D01*
X0055299Y0039847D01*
X00553Y0039843D01*
Y003915D01*
X0055856D01*
X00559Y0039141D01*
X0055927Y0039147D01*
X005595Y0039142D01*
X005595Y0039142D01*
X0057817D01*
X0057846Y003914D01*
X0057889Y0039132D01*
X0057919Y0039124D01*
X0057925Y0039122D01*
Y0038875D01*
X0059175D01*
X0059175Y0038725D01*
X0059775D01*
Y00395D01*
X005995D01*
Y0039675D01*
X0060725D01*
Y0040275D01*
X0060383D01*
X0060335Y0040392D01*
X0060538Y0040596D01*
X0060538Y0040596D01*
X0060608Y00407D01*
X006085D01*
Y00422D01*
X006005D01*
Y004235D01*
X0059575D01*
Y004145D01*
X0059225D01*
Y004235D01*
X005875D01*
Y00422D01*
X005795D01*
Y0040907D01*
X0057949Y0040903D01*
X005795Y0040899D01*
Y00407D01*
X005808D01*
X0058085Y0040678D01*
X0058092Y0040596D01*
Y0040225D01*
X005809Y00402D01*
X0058084Y0040155D01*
X0058077Y0040125D01*
X0057925D01*
Y0039973D01*
X0057895Y0039966D01*
X005785Y003996D01*
X0057825Y0039958D01*
X0056578D01*
X0056512Y0039962D01*
X00565Y0039963D01*
Y004005D01*
X0056378D01*
X0056374Y0040067D01*
X0056366Y0040115D01*
X0056359Y0040213D01*
Y00411D01*
X0056324Y0041276D01*
X0056224Y0041424D01*
X0055966Y0041682D01*
X0055972Y0041716D01*
X0055984Y004176D01*
X0055995Y0041788D01*
X0056002Y00418D01*
X00566D01*
Y00447D01*
D02*
G37*
G36*
X00527Y004024D02*
X00488D01*
Y003806D01*
X00527D01*
Y0038557D01*
X005271Y003856D01*
X0052745Y0038566D01*
X005277Y0038568D01*
X0053117D01*
X005315Y0038566D01*
Y00385D01*
X0053349D01*
X0053353Y0038499D01*
X0053357Y00385D01*
X005435D01*
Y00394D01*
X0053357D01*
X0053353Y0039401D01*
X0053349Y00394D01*
X005315D01*
Y0039336D01*
X0053102Y0039332D01*
X005277D01*
X0052745Y0039334D01*
X005271Y003934D01*
X00527Y0039343D01*
Y004024D01*
D02*
G37*
G36*
X0088775Y0038105D02*
X0087825D01*
X008763Y0038066D01*
X0087465Y0037955D01*
X0087397Y0037855D01*
X0087382Y0037853D01*
X0086615D01*
X008661Y003786D01*
X0086445Y0037971D01*
X008625Y003801D01*
X0086055Y0037971D01*
X008589Y003786D01*
X0085779Y0037695D01*
X008574Y00375D01*
X0085779Y0037305D01*
X008589Y003714D01*
X0086055Y0037029D01*
X008625Y003699D01*
X0086445Y0037029D01*
X008661Y003714D01*
X0086679Y0037242D01*
X0087427D01*
X0087446Y003724D01*
X0087462Y0037239D01*
X0087465Y0037235D01*
X008763Y0037124D01*
X0087825Y0037085D01*
X0088775D01*
X008897Y0037124D01*
X0089135Y0037235D01*
X0089246Y00374D01*
X0089285Y0037595D01*
X0089246Y003779D01*
X0089135Y0037955D01*
X008897Y0038066D01*
X0088775Y0038105D01*
D02*
G37*
G36*
X0070375Y0037855D02*
X0069175D01*
Y00373D01*
X0070375D01*
Y0037855D01*
D02*
G37*
G36*
X0068825D02*
X0067625D01*
Y00373D01*
X0068825D01*
Y0037855D01*
D02*
G37*
G36*
X010115Y00356D02*
X0100675D01*
Y0034875D01*
X010115D01*
Y00356D01*
D02*
G37*
G36*
X0100325D02*
X009985D01*
Y0034875D01*
X0100325D01*
Y00356D01*
D02*
G37*
G36*
X010115Y0034525D02*
X0100675D01*
Y00338D01*
X010115D01*
Y0034525D01*
D02*
G37*
G36*
X0100325D02*
X009985D01*
Y00338D01*
X0100325D01*
Y0034525D01*
D02*
G37*
G36*
X0114Y0031261D02*
X0113559Y0031217D01*
X0113135Y0031089D01*
X0112744Y003088D01*
X0112401Y0030599D01*
X011212Y0030256D01*
X0111911Y0029865D01*
X0111783Y0029441D01*
X0111739Y0029D01*
X0111783Y0028559D01*
X0111911Y0028135D01*
X011212Y0027744D01*
X0112401Y0027401D01*
X0112744Y002712D01*
X0113135Y0026911D01*
X0113559Y0026783D01*
X0114Y0026739D01*
X0114441Y0026783D01*
X0114865Y0026911D01*
X0115256Y002712D01*
X0115599Y0027401D01*
X011588Y0027744D01*
X0116089Y0028135D01*
X0116217Y0028559D01*
X0116261Y0029D01*
X0116217Y0029441D01*
X0116089Y0029865D01*
X011588Y0030256D01*
X0115599Y0030599D01*
X0115256Y003088D01*
X0114865Y0031089D01*
X0114441Y0031217D01*
X0114Y0031261D01*
D02*
G37*
G36*
X0034D02*
X0033559Y0031217D01*
X0033135Y0031089D01*
X0032744Y003088D01*
X0032401Y0030599D01*
X003212Y0030256D01*
X0031911Y0029865D01*
X0031783Y0029441D01*
X0031739Y0029D01*
X0031783Y0028559D01*
X0031911Y0028135D01*
X003212Y0027744D01*
X0032401Y0027401D01*
X0032744Y002712D01*
X0033135Y0026911D01*
X0033559Y0026783D01*
X0034Y0026739D01*
X0034441Y0026783D01*
X0034865Y0026911D01*
X0035256Y002712D01*
X0035599Y0027401D01*
X003588Y0027744D01*
X0036089Y0028135D01*
X0036217Y0028559D01*
X0036261Y0029D01*
X0036217Y0029441D01*
X0036089Y0029865D01*
X003588Y0030256D01*
X0035599Y0030599D01*
X0035256Y003088D01*
X0034865Y0031089D01*
X0034441Y0031217D01*
X0034Y0031261D01*
D02*
G37*
%LPD*%
G36*
X0087607Y0068207D02*
X0087604Y0068226D01*
X0087596Y0068242D01*
X0087583Y0068257D01*
X0087565Y006827D01*
X0087541Y006828D01*
X0087512Y0068289D01*
X0087478Y0068296D01*
X0087439Y0068301D01*
X0087395Y0068304D01*
X0087345Y0068305D01*
Y0068505D01*
X0087395Y0068506D01*
X0087478Y0068514D01*
X0087512Y0068521D01*
X0087541Y006853D01*
X0087565Y006854D01*
X0087583Y0068553D01*
X0087596Y0068568D01*
X0087604Y0068585D01*
X0087607Y0068603D01*
Y0068207D01*
D02*
G37*
G36*
Y0064397D02*
X0087604Y0064415D01*
X0087596Y0064432D01*
X0087583Y0064447D01*
X0087565Y006446D01*
X0087541Y006447D01*
X0087512Y0064479D01*
X0087478Y0064486D01*
X0087439Y0064491D01*
X0087395Y0064494D01*
X0087345Y0064495D01*
Y0064695D01*
X0087395Y0064696D01*
X0087478Y0064704D01*
X0087512Y0064711D01*
X0087541Y006472D01*
X0087565Y006473D01*
X0087583Y0064743D01*
X0087596Y0064758D01*
X0087604Y0064774D01*
X0087607Y0064793D01*
Y0064397D01*
D02*
G37*
G36*
X0101681Y0061676D02*
X0101664Y006167D01*
X0101649Y006166D01*
X0101636Y0061646D01*
X0101625Y0061628D01*
X0101616Y0061606D01*
X0101609Y006158D01*
X0101604Y006155D01*
X0101601Y0061516D01*
X01016Y0061478D01*
X01014D01*
X0101399Y0061516D01*
X0101396Y006155D01*
X0101391Y006158D01*
X0101384Y0061606D01*
X0101375Y0061628D01*
X0101364Y0061646D01*
X0101351Y006166D01*
X0101336Y006167D01*
X0101319Y0061676D01*
X01013Y0061678D01*
X01017D01*
X0101681Y0061676D01*
D02*
G37*
G36*
X0099216Y0055721D02*
X0099222Y0055704D01*
X0099232Y0055689D01*
X0099246Y0055676D01*
X0099265Y0055665D01*
X0099287Y0055656D01*
X0099313Y0055649D01*
X0099344Y0055644D01*
X0099378Y0055641D01*
X0099417Y005564D01*
Y005544D01*
X0099378Y0055439D01*
X0099344Y0055436D01*
X0099313Y0055431D01*
X0099287Y0055424D01*
X0099265Y0055415D01*
X0099246Y0055404D01*
X0099232Y0055391D01*
X0099222Y0055376D01*
X0099216Y0055359D01*
X0099214Y005534D01*
Y005574D01*
X0099216Y0055721D01*
D02*
G37*
G36*
X0075678Y00549D02*
X0075674Y0054938D01*
X0075662Y0054972D01*
X0075642Y0055002D01*
X0075614Y0055028D01*
X0075578Y005505D01*
X0075534Y0055068D01*
X0075482Y0055082D01*
X0075422Y0055092D01*
X0075354Y0055098D01*
X0075278Y00551D01*
Y00555D01*
X0075354Y0055502D01*
X0075422Y0055508D01*
X0075482Y0055518D01*
X0075534Y0055532D01*
X0075578Y005555D01*
X0075614Y0055572D01*
X0075642Y0055598D01*
X0075662Y0055628D01*
X0075674Y0055662D01*
X0075678Y00557D01*
Y00549D01*
D02*
G37*
G36*
X0074223Y0055662D02*
X0074235Y0055628D01*
X0074255Y0055598D01*
X0074283Y0055572D01*
X007432Y005555D01*
X0074364Y0055532D01*
X0074416Y0055518D01*
X0074477Y0055508D01*
X0074545Y0055502D01*
X0074622Y00555D01*
Y00551D01*
X0074545Y0055098D01*
X0074477Y0055092D01*
X0074416Y0055082D01*
X0074364Y0055068D01*
X007432Y005505D01*
X0074283Y0055028D01*
X0074255Y0055002D01*
X0074235Y0054972D01*
X0074223Y0054938D01*
X0074219Y00549D01*
Y00557D01*
X0074223Y0055662D01*
D02*
G37*
G36*
X0076477Y0054877D02*
X0076443Y0054865D01*
X0076413Y0054845D01*
X0076387Y0054817D01*
X0076365Y005478D01*
X0076347Y0054736D01*
X0076333Y0054684D01*
X0076323Y0054623D01*
X0076321Y0054599D01*
X0076323Y0054578D01*
X0076332Y0054518D01*
X0076346Y0054466D01*
X0076363Y0054422D01*
X0076384Y0054386D01*
X0076409Y0054358D01*
X0076438Y0054338D01*
X007647Y0054326D01*
X0076507Y0054322D01*
X0075753D01*
X0075784Y0054326D01*
X0075811Y0054338D01*
X0075836Y0054358D01*
X0075857Y0054386D01*
X0075875Y0054422D01*
X0075889Y0054466D01*
X00759Y0054518D01*
X0075909Y0054578D01*
X007591Y0054593D01*
X0075907Y0054623D01*
X0075897Y0054684D01*
X0075883Y0054736D01*
X0075865Y005478D01*
X0075843Y0054817D01*
X0075817Y0054845D01*
X0075787Y0054865D01*
X0075753Y0054877D01*
X0075715Y0054881D01*
X0076515D01*
X0076477Y0054877D01*
D02*
G37*
G36*
X0077812Y0054877D02*
X0077778Y0054865D01*
X0077748Y0054844D01*
X0077722Y0054816D01*
X00777Y005478D01*
X0077682Y0054736D01*
X0077668Y0054683D01*
X0077658Y0054623D01*
X0077655Y0054594D01*
X0077661Y0054518D01*
X007767Y0054466D01*
X0077682Y0054422D01*
X0077696Y0054386D01*
X0077712Y0054358D01*
X0077731Y0054338D01*
X0077753Y0054326D01*
X0077777Y0054322D01*
X007705Y0054319D01*
X0077088Y0054323D01*
X0077122Y0054335D01*
X0077152Y0054356D01*
X0077178Y0054384D01*
X00772Y005442D01*
X0077218Y0054464D01*
X0077232Y0054517D01*
X0077242Y0054577D01*
X0077244Y0054605D01*
X0077243Y0054622D01*
X0077235Y0054682D01*
X0077222Y0054734D01*
X0077207Y0054778D01*
X0077188Y0054814D01*
X0077166Y0054842D01*
X007714Y0054862D01*
X0077111Y0054874D01*
X0077078Y0054878D01*
X007785Y0054881D01*
X0077812Y0054877D01*
D02*
G37*
G36*
X0068249Y0051558D02*
X0068255Y0051546D01*
X0068265Y0051535D01*
X0068279Y0051526D01*
X0068297Y0051518D01*
X0068319Y0051512D01*
X0068345Y0051506D01*
X0068375Y0051503D01*
X0068389Y0051502D01*
X0068494Y00515D01*
Y00513D01*
X0068434Y00513D01*
X0068425Y00513D01*
X0068387Y0051297D01*
X0068345Y0051294D01*
X0068319Y0051288D01*
X0068297Y0051282D01*
X0068279Y0051274D01*
X0068265Y0051265D01*
X0068255Y0051254D01*
X0068249Y0051242D01*
X0068247Y0051228D01*
X0068219Y0051225D01*
X0068194Y0051214D01*
X0068172Y0051197D01*
X0068153Y0051172D01*
X0068137Y0051141D01*
X0068124Y0051102D01*
X0068113Y0051057D01*
X0068106Y0051004D01*
X0068101Y0050945D01*
X0068101Y0050909D01*
X0068101Y0050905D01*
X0068112Y0050748D01*
X0068118Y0050709D01*
X0068126Y0050678D01*
X0068135Y0050653D01*
X0068146Y0050636D01*
X0068158Y0050625D01*
X0068172Y0050622D01*
X0067575D01*
X0067608Y0050625D01*
X0067638Y0050636D01*
X0067664Y0050653D01*
X0067687Y0050678D01*
X0067706Y0050709D01*
X0067722Y0050748D01*
X0067734Y0050793D01*
X0067743Y0050846D01*
X0067748Y0050905D01*
X006775Y0050972D01*
X0067751D01*
X0067753Y0051228D01*
X0068247D01*
Y0051289D01*
X0068145Y0051283D01*
X0068129Y0051278D01*
X0068121Y0051273D01*
Y0051527D01*
X0068129Y0051522D01*
X0068145Y0051517D01*
X0068166Y0051513D01*
X0068194Y005151D01*
X0068247Y0051506D01*
Y0051572D01*
X0068249Y0051558D01*
D02*
G37*
G36*
X0099216Y0050641D02*
X0099222Y0050624D01*
X0099232Y0050609D01*
X0099246Y0050596D01*
X0099265Y0050585D01*
X0099287Y0050576D01*
X0099313Y0050569D01*
X0099344Y0050564D01*
X0099378Y0050561D01*
X0099417Y005056D01*
Y005036D01*
X0099378Y0050359D01*
X0099344Y0050356D01*
X0099313Y0050351D01*
X0099287Y0050344D01*
X0099265Y0050335D01*
X0099246Y0050324D01*
X0099232Y0050311D01*
X0099222Y0050296D01*
X0099216Y0050279D01*
X0099214Y005026D01*
Y005066D01*
X0099216Y0050641D01*
D02*
G37*
G36*
X0101276Y0044484D02*
X0101279Y0044449D01*
X0101284Y0044419D01*
X0101291Y0044393D01*
X01013Y004437D01*
X0101311Y0044352D01*
X0101324Y0044338D01*
X0101339Y0044327D01*
X0101356Y0044321D01*
X0101375Y0044319D01*
X0101078Y0044322D01*
X0101077Y0044324D01*
X0101077Y004433D01*
X0101076Y0044372D01*
X0101075Y0044522D01*
X0101275D01*
X0101276Y0044484D01*
D02*
G37*
G36*
X0049003Y0043747D02*
X0048996Y0043776D01*
X0048973Y0043802D01*
X0048935Y0043825D01*
X0048883Y0043845D01*
X0048815Y0043862D01*
X0048732Y0043876D01*
X0048634Y0043886D01*
X0048393Y0043898D01*
X004825Y00439D01*
Y00451D01*
X0048393Y0045101D01*
X0048815Y0045134D01*
X0048883Y0045149D01*
X0048935Y0045167D01*
X0048973Y0045188D01*
X0048996Y0045211D01*
X0049003Y0045237D01*
Y0043747D01*
D02*
G37*
G36*
X0055952Y0042001D02*
X005591Y0041986D01*
X0055873Y0041961D01*
X005584Y0041926D01*
X0055812Y004188D01*
X005579Y0041825D01*
X0055772Y004176D01*
X005576Y0041684D01*
X0055752Y0041599D01*
X005575Y0041503D01*
X005525D01*
X0055248Y0041599D01*
X005524Y0041684D01*
X0055228Y004176D01*
X005521Y0041825D01*
X0055188Y004188D01*
X005516Y0041926D01*
X0055127Y0041961D01*
X005509Y0041986D01*
X0055048Y0042001D01*
X0055Y0042006D01*
X0056D01*
X0055952Y0042001D01*
D02*
G37*
G36*
X0058738Y0040899D02*
X005873Y0040887D01*
X0058723Y0040867D01*
X0058717Y0040839D01*
X0058712Y0040803D01*
X0058704Y0040707D01*
X00587Y0040503D01*
X00583D01*
X0058299Y0040579D01*
X0058287Y0040707D01*
X0058276Y0040759D01*
X0058263Y0040803D01*
X0058247Y0040839D01*
X0058228Y0040867D01*
X0058206Y0040887D01*
X0058181Y0040899D01*
X0058153Y0040903D01*
X0058747D01*
X0058738Y0040899D01*
D02*
G37*
G36*
X0058702Y0040246D02*
X0058708Y0040177D01*
X0058718Y0040117D01*
X0058732Y0040064D01*
X005875Y004002D01*
X0058772Y0039984D01*
X0058798Y0039956D01*
X0058828Y0039935D01*
X0058862Y0039923D01*
X00589Y0039919D01*
X0058128Y0039922D01*
X0058161Y0039926D01*
X005819Y0039938D01*
X0058216Y0039958D01*
X0058238Y0039986D01*
X0058257Y0040022D01*
X0058272Y0040066D01*
X0058285Y0040118D01*
X0058293Y0040178D01*
X0058298Y0040246D01*
X00583Y0040322D01*
X00587D01*
X0058702Y0040246D01*
D02*
G37*
G36*
X0056151Y0040252D02*
X0056163Y0040092D01*
X0056174Y0040027D01*
X0056187Y0039972D01*
X0056203Y0039927D01*
X0056222Y0039892D01*
X0056244Y0039867D01*
X0056269Y0039852D01*
X0056297Y0039847D01*
X0055503D01*
X0055531Y0039852D01*
X0055556Y0039867D01*
X0055578Y0039892D01*
X0055597Y0039927D01*
X0055613Y0039972D01*
X0055626Y0040027D01*
X0055637Y0040092D01*
X0055644Y0040167D01*
X005565Y0040347D01*
X005615D01*
X0056151Y0040252D01*
D02*
G37*
G36*
X0056301Y0039829D02*
X0056313Y0039812D01*
X0056333Y0039798D01*
X0056361Y0039785D01*
X0056397Y0039774D01*
X0056441Y0039766D01*
X0056493Y0039759D01*
X0056621Y0039751D01*
X0056697Y003975D01*
Y003935D01*
X0056297Y0039353D01*
Y0039847D01*
X0056301Y0039829D01*
D02*
G37*
G36*
X0058128Y003915D02*
X0058124Y0039188D01*
X0058112Y0039222D01*
X0058092Y0039252D01*
X0058064Y0039278D01*
X0058028Y00393D01*
X0057984Y0039318D01*
X0057932Y0039332D01*
X0057872Y0039342D01*
X0057804Y0039348D01*
X0057728Y003935D01*
Y003975D01*
X0057804Y0039752D01*
X0057872Y0039757D01*
X0057932Y0039765D01*
X0057984Y0039778D01*
X0058028Y0039793D01*
X0058064Y0039812D01*
X0058092Y0039834D01*
X0058112Y003986D01*
X0058124Y0039889D01*
X0058128Y0039922D01*
Y003915D01*
D02*
G37*
G36*
X0053353Y0038703D02*
X005335Y0038717D01*
X0053339Y0038729D01*
X0053322Y003874D01*
X0053297Y0038749D01*
X0053266Y0038757D01*
X0053227Y0038763D01*
X0053182Y0038769D01*
X005307Y0038774D01*
X0053003Y0038775D01*
Y0039125D01*
X005307Y0039126D01*
X0053227Y0039137D01*
X0053266Y0039143D01*
X0053297Y0039151D01*
X0053322Y003916D01*
X0053339Y0039171D01*
X005335Y0039183D01*
X0053353Y0039197D01*
Y0038703D01*
D02*
G37*
G36*
X0052497Y0039267D02*
X0052508Y0039237D01*
X0052526Y0039211D01*
X005255Y0039188D01*
X0052582Y0039169D01*
X0052621Y0039153D01*
X0052667Y0039141D01*
X005272Y0039132D01*
X005278Y0039127D01*
X0052847Y0039125D01*
Y0038775D01*
X005278Y0038773D01*
X005272Y0038768D01*
X0052667Y0038759D01*
X0052621Y0038747D01*
X0052582Y0038731D01*
X005255Y0038712D01*
X0052526Y0038689D01*
X0052508Y0038663D01*
X0052497Y0038633D01*
X0052494Y00386D01*
Y00393D01*
X0052497Y0039267D01*
D02*
G37*
G36*
X0087662Y003735D02*
X0087655Y0037368D01*
X0087643Y0037385D01*
X0087625Y00374D01*
X0087603Y0037412D01*
X0087576Y0037423D01*
X0087544Y0037432D01*
X0087507Y0037439D01*
X0087464Y0037444D01*
X0087417Y0037447D01*
X0087365Y0037447D01*
X0087332Y0037647D01*
X0087382Y0037648D01*
X0087463Y0037656D01*
X0087495Y0037663D01*
X0087522Y0037672D01*
X0087543Y0037683D01*
X0087558Y0037696D01*
X0087568Y003771D01*
X0087572Y0037727D01*
X008757Y0037746D01*
X0087662Y003735D01*
D02*
G37*
%LPC*%
G36*
X0065291Y0055621D02*
X0065329Y0055594D01*
X0065375Y005558D01*
X0065428D01*
X0065488Y0055594D01*
X006555Y005562D01*
X0065291Y0055621D01*
D02*
G37*
%LPD*%
D12*
X006775Y005675D02*
Y0057275D01*
X006895Y0048101D02*
X007Y0049151D01*
Y00492D01*
X006895Y0047475D02*
Y0048101D01*
X006565Y005825D02*
X0066775D01*
X00654Y0058D02*
X006565Y005825D01*
X006545Y005865D02*
X0066775D01*
X00652Y00589D02*
X006545Y005865D01*
X0065374Y0059575D02*
X0065899Y005905D01*
X0066775D01*
X0056885Y0059575D02*
X0065374D01*
X0065514Y006D02*
X0066064Y005945D01*
X0059Y006D02*
X0065514D01*
X0066064Y005945D02*
X0066775D01*
X005546Y0061D02*
X0056885Y0059575D01*
X0058Y0061D02*
X0059Y006D01*
X005523Y0066D02*
X005748Y006375D01*
X0060043D01*
X0062043Y006175D01*
X0065D01*
Y006075D02*
X0066D01*
X0103319Y0042519D02*
Y0048699D01*
X01015Y00387D02*
Y0039398D01*
Y003715D02*
Y00387D01*
X0103319Y0048699D02*
X010508Y005046D01*
X01015Y00407D02*
X0103319Y0042519D01*
X010508Y005046D02*
X01066D01*
X0101175Y0042175D02*
X01015Y00425D01*
X0101175Y0041875D02*
Y0042175D01*
X010005Y004075D02*
X0101175Y0041875D01*
X00995Y00407D02*
X009955Y004075D01*
X010005D01*
X0101175Y0044225D02*
Y0048805D01*
Y0044225D02*
X01015Y00439D01*
X009952Y005046D02*
X0101175Y0048805D01*
X0098Y005046D02*
X009952D01*
X01034Y005722D02*
Y00654D01*
Y005722D02*
X010508Y005554D01*
X01066D01*
X0098D02*
X009952D01*
X01015Y005752D01*
Y00621D01*
X01034Y0066852D02*
X0109396D01*
X00995D02*
X01034D01*
Y00675D01*
X005775Y007025D02*
X005865Y006935D01*
X006815Y0061225D02*
Y0061641D01*
X00661Y006065D02*
X0066775D01*
X0066Y006075D02*
X00661Y006065D01*
X0067141Y006265D02*
X006815Y0061641D01*
X006025Y006425D02*
X006225Y006225D01*
X005777Y0066D02*
X005952Y006425D01*
X005865Y006835D02*
X005925Y006775D01*
X006225Y006225D02*
X0066325D01*
X005952Y006425D02*
X006025D01*
X0062416Y006265D02*
X0067141D01*
X0065Y006175D02*
X0066Y006075D01*
X005925Y0065816D02*
Y006775D01*
Y0065816D02*
X0062416Y006265D01*
X0067142Y0061433D02*
X006735D01*
Y0061225D02*
Y0061433D01*
X0066325Y006225D02*
X0067142Y0061433D01*
X005865Y006835D02*
Y006935D01*
X0087825Y0038865D02*
X00883D01*
X0087825Y0040135D02*
X00883D01*
X0073435Y0061579D02*
Y0063935D01*
X007015Y0062346D02*
X0074939Y0067135D01*
X0082266Y0065865D02*
X00883D01*
X0081811Y006632D02*
X0082266Y0065865D01*
X0074689Y006632D02*
X0081811D01*
X0070725Y005985D02*
X0071706D01*
X0073435Y0061579D01*
Y0063935D02*
X0075021Y006552D01*
X0073035Y0061745D02*
Y00641D01*
X0074939Y0067135D02*
X00883D01*
X0084987Y0042973D02*
X0087825Y0040135D01*
X0071541Y006025D02*
X0073035Y0061745D01*
X0070725Y006025D02*
X0071541D01*
X007015Y0061225D02*
Y0062346D01*
X0072635Y0064266D02*
X0074689Y006632D01*
X0072635Y006191D02*
Y0064266D01*
X0084987Y0042973D02*
Y0062578D01*
X0081479Y006552D02*
X0084587Y0062412D01*
Y0042103D02*
Y0062412D01*
Y0042103D02*
X0087825Y0038865D01*
X0074855Y006592D02*
X0081645D01*
X0070725Y006065D02*
X0071375D01*
X0072635Y006191D01*
X0073035Y00641D02*
X0074855Y006592D01*
X0081645D02*
X0084987Y0062578D01*
X0075021Y006552D02*
X0081479D01*
X0109208Y0066398D02*
X0109773Y0065833D01*
X0109396Y0066852D02*
X0110227Y0066021D01*
X0096602Y0066398D02*
X01015D01*
X0109208D01*
X01015Y00675D02*
Y006885D01*
X010145Y00689D02*
X01015Y006885D01*
Y00635D02*
Y00655D01*
X0095883Y0066398D02*
X0096Y0066281D01*
X0094929Y0066398D02*
X0095883D01*
X0094804Y0066273D02*
X0094929Y0066398D01*
X009445Y0066273D02*
X0094804D01*
X0109773Y0065667D02*
Y0065833D01*
X0109656Y006555D02*
X0109773Y0065667D01*
X01089Y006555D02*
X0109656D01*
Y00645D02*
X0109773Y0064383D01*
X010785Y00645D02*
X0109656D01*
X010785D02*
X01089Y006555D01*
X01015Y00655D02*
Y0066398D01*
X0111273Y0060817D02*
Y0061889D01*
X0111156Y00607D02*
X0111273Y0060817D01*
X0109773Y0063389D02*
X0111273Y0061889D01*
X01106Y00607D02*
X0111156D01*
X011025Y006035D02*
X01106Y00607D01*
X0109773Y0063389D02*
Y0064383D01*
X0096485Y0066281D02*
X0096602Y0066398D01*
X0094333Y0066131D02*
Y0066156D01*
X009445Y0066273D01*
X0096485Y0065935D02*
Y0066281D01*
X009625Y00657D02*
X0096485Y0065935D01*
X0096Y006595D02*
Y0066281D01*
X0094067Y0065865D02*
X0094333Y0066131D01*
X0096Y006595D02*
X009625Y00657D01*
X00937Y0065865D02*
X0094067D01*
X01111Y006555D02*
X011215Y00645D01*
X0110227Y0065667D02*
X0110344Y006555D01*
Y00645D02*
X011215D01*
X0110344Y006555D02*
X01111D01*
X0110227Y0065667D02*
Y0066021D01*
Y0063577D02*
Y0064383D01*
X0110344Y00645D01*
X0111727Y0060817D02*
X0111844Y00607D01*
X0111727Y0060817D02*
Y0062077D01*
X01124Y00607D02*
X011275Y006035D01*
X0111844Y00607D02*
X01124D01*
X0110227Y0063577D02*
X0111727Y0062077D01*
X00995Y006885D02*
X009955Y00689D01*
X0096485Y0066969D02*
Y0067315D01*
X009625Y006755D02*
X0096485Y0067315D01*
X0096Y00673D02*
X009625Y006755D01*
X0096Y0066969D02*
Y00673D01*
X0094067Y0067135D02*
X0094333Y0066869D01*
X00937Y0067135D02*
X0094067D01*
X0096485Y0066969D02*
X0096602Y0066852D01*
X00995D02*
Y006885D01*
X0095883Y0066852D02*
X0096Y0066969D01*
X0096602Y0066852D02*
X00995D01*
X0094741D02*
X0095883D01*
X0094616Y0066727D02*
X0094741Y0066852D01*
X0094333Y0066844D02*
Y0066869D01*
X009445Y0066727D02*
X0094616D01*
X0094333Y0066844D02*
X009445Y0066727D01*
X00995Y0039852D02*
X0109458D01*
X0096602D02*
X00995D01*
Y00407D01*
Y003715D02*
X009955Y00371D01*
X00995Y003715D02*
Y00387D01*
X01015Y0039398D02*
X0109646D01*
X0096602D02*
X01015D01*
X010145Y00371D02*
X01015Y003715D01*
X0086486Y0068405D02*
X00883D01*
X0086331Y006825D02*
X0086486Y0068405D01*
X008625Y006825D02*
X0086331D01*
X0086432Y0064595D02*
X00883D01*
X0086331Y0064495D02*
X0086432Y0064595D01*
X008625Y0064495D02*
X0086331D01*
X00685Y006325D02*
X006855Y00632D01*
Y0061225D02*
Y00632D01*
X0088253Y0037548D02*
X00883Y0037595D01*
X0086298Y0037548D02*
X0088253D01*
X008625Y00375D02*
X0086298Y0037548D01*
X01106Y00453D02*
X0111156D01*
X0111273Y0045183D01*
Y0044377D02*
Y0045183D01*
X0109773Y0042877D02*
X0111273Y0044377D01*
X011025Y004565D02*
X01106Y00453D01*
X0109773Y0041617D02*
Y0042877D01*
X0109656Y00415D02*
X0109773Y0041617D01*
X010785Y00415D02*
X0109656D01*
Y004045D02*
X0109773Y0040333D01*
Y0040167D02*
Y0040333D01*
X01089Y004045D02*
X0109656D01*
X0109458Y0039852D02*
X0109773Y0040167D01*
X010785Y00415D02*
X01089Y004045D01*
X009625Y004055D02*
X0096485Y0040315D01*
X0096Y00403D02*
X009625Y004055D01*
X0096485Y0039969D02*
Y0040315D01*
X0096Y0039969D02*
Y00403D01*
X00937Y0040135D02*
X0094067D01*
X0095883Y0039852D02*
X0096Y0039969D01*
X0096485D02*
X0096602Y0039852D01*
X0094616Y0039727D02*
X0094741Y0039852D01*
X0095883D01*
X0094333Y0039844D02*
Y0039869D01*
X0094067Y0040135D02*
X0094333Y0039869D01*
X009445Y0039727D02*
X0094616D01*
X0094333Y0039844D02*
X009445Y0039727D01*
X01124Y00453D02*
X011275Y004565D01*
X0111844Y00453D02*
X01124D01*
X0111727Y0045183D02*
X0111844Y00453D01*
X0110344Y00415D02*
X011215D01*
X0111727Y0044189D02*
Y0045183D01*
X0110227Y0041617D02*
Y0042689D01*
X0111727Y0044189D01*
X01111Y004045D02*
X011215Y00415D01*
X0110227Y0041617D02*
X0110344Y00415D01*
Y004045D02*
X01111D01*
X0110227Y0040333D02*
X0110344Y004045D01*
X0110227Y0039979D02*
Y0040333D01*
X0109646Y0039398D02*
X0110227Y0039979D01*
X0096485Y0039281D02*
X0096602Y0039398D01*
X0095883D02*
X0096Y0039281D01*
Y003895D02*
Y0039281D01*
X0094929Y0039398D02*
X0095883D01*
X0094804Y0039273D02*
X0094929Y0039398D01*
X009445Y0039273D02*
X0094804D01*
X0094333Y0039131D02*
Y0039156D01*
X009445Y0039273D01*
X0096485Y0038935D02*
Y0039281D01*
X009625Y00387D02*
X0096485Y0038935D01*
X0094067Y0038865D02*
X0094333Y0039131D01*
X0096Y003895D02*
X009625Y00387D01*
X00937Y0038865D02*
X0094067D01*
X01155Y00515D02*
Y005171D01*
X01135Y00495D02*
X01155Y00515D01*
X0112293Y00495D02*
X01135D01*
X011125Y0048457D02*
X0112293Y00495D01*
X0115205Y0048875D02*
X01155Y004917D01*
X0112375Y0048875D02*
X0115205D01*
X011175Y004825D02*
X0112375Y0048875D01*
X011125Y00475D02*
Y0048457D01*
X011175Y00475D02*
Y004825D01*
X01119Y004735D02*
X011275D01*
X011175Y00475D02*
X01119Y004735D01*
X011025D02*
X01111D01*
X011125Y00475D01*
X011175Y005775D02*
X0112954Y0056546D01*
X0115256D02*
X01155Y005679D01*
X0112954Y0056546D02*
X0115256D01*
X0113604Y0056146D02*
X01155Y005425D01*
X0112646Y0056146D02*
X0113604D01*
X011125Y0057543D02*
X0112646Y0056146D01*
X011125Y0057543D02*
Y00585D01*
X011175Y005775D02*
Y00585D01*
X01119Y005865D02*
X011275D01*
X011175Y00585D02*
X01119Y005865D01*
X01111D02*
X011125Y00585D01*
X011025Y005865D02*
X01111D01*
X007485Y005905D02*
X007825Y006245D01*
X007745Y005865D02*
X008079Y006199D01*
X0070725Y005865D02*
X007745D01*
X0070725Y005905D02*
X007485D01*
X007225Y005945D02*
X0075245Y0062445D01*
X0070725Y005945D02*
X007225D01*
X008079Y006199D02*
Y0064D01*
X007825Y006245D02*
Y0064D01*
X0075245Y0063535D02*
X007571Y0064D01*
X0075245Y0062445D02*
Y0063535D01*
X006855Y004855D02*
X0069Y0049D01*
X006855Y0047475D02*
Y004855D01*
X0067275Y0053675D02*
X00673Y00537D01*
X0067275Y0052625D02*
Y0053675D01*
X0068Y00514D02*
X00685D01*
X00691Y0052D01*
X006725Y00526D02*
X0067275Y0052625D01*
X00701Y0055417D02*
Y00561D01*
X00696Y00566D02*
X00701Y00561D01*
X0069067Y00566D02*
X00696D01*
X00697Y0055251D02*
Y0055934D01*
X00687Y00562D02*
X0069434D01*
X00697Y0055934D01*
Y0055251D02*
X0070226Y0054726D01*
X0070217Y00553D02*
X00724D01*
X0070226Y0054726D02*
X0070674D01*
X00701Y0055417D02*
X0070217Y00553D01*
X0070674Y0054726D02*
X00716Y00538D01*
X00723D01*
X00724Y00537D01*
X006895Y0056717D02*
X0069067Y00566D01*
X006895Y0056717D02*
Y0057275D01*
X006855Y005635D02*
X00687Y00562D01*
X006855Y005635D02*
Y0057275D01*
X0067867Y0056633D02*
X0068033D01*
X006815Y005675D02*
Y0057275D01*
X0068033Y0056633D02*
X006815Y005675D01*
X006775Y005675D02*
X0067867Y0056633D01*
X006775Y00488D02*
X0067791Y0048759D01*
Y004825D02*
Y0048759D01*
X006815Y0047475D02*
Y0047891D01*
X0067791Y004825D02*
X006815Y0047891D01*
X00662Y0046217D02*
X0066317Y00461D01*
X0066775D01*
X00662Y0046383D02*
X0066317Y00465D01*
X0066775D01*
X00641Y00455D02*
X00643Y00457D01*
X0066775D01*
X00641Y004445D02*
Y00455D01*
X0065642Y00453D02*
X0066775D01*
X0065525Y0044375D02*
Y0045183D01*
X0065642Y00453D01*
X0064025Y0044375D02*
X00641Y004445D01*
D13*
X0092756Y0038064D02*
X0093225Y0037595D01*
X00937D01*
X00633Y00408D02*
Y004175D01*
X00759Y00462D02*
Y00477D01*
X00774D01*
X00774Y00477D01*
X00738Y00537D02*
X0074Y00535D01*
X00745D01*
X0075Y00517D02*
Y0053D01*
X00745Y00535D02*
X0075Y0053D01*
Y00517D02*
X00754Y00513D01*
X00791D01*
X0079025Y0047925D02*
X0079466D01*
X00797Y0048159D01*
Y00507D01*
X00791Y00513D02*
X00797Y00507D01*
X00788Y00477D02*
X0079025Y0047925D01*
X0078735Y0047765D02*
X00788Y00477D01*
X0078735Y0047765D02*
Y0049635D01*
X007867Y00497D02*
X0078735Y0049635D01*
X00774Y00477D02*
Y00497D01*
X00738Y00553D02*
X00761D01*
X00738Y00553D02*
X00738Y00553D01*
X0076115Y0053315D02*
X007613Y00533D01*
X0076115Y0053315D02*
Y0055285D01*
X00761Y00553D02*
X0076115Y0055285D01*
X00774Y00533D02*
X007745Y005335D01*
Y005525D01*
X00775Y00553D01*
X0070775Y0040825D02*
X0071Y00406D01*
X0070775Y0040825D02*
Y0041225D01*
X00704Y00416D02*
X0070775Y0041225D01*
X00657Y00422D02*
X006595Y004195D01*
X0066839D01*
X0067189Y00416D01*
X00704D01*
X00647Y004135D02*
X0066591D01*
X00669Y0041041D01*
Y00376D02*
Y0041041D01*
X00649Y00356D02*
X00669Y00376D01*
X00657Y00422D02*
Y00428D01*
X0065525Y0042975D02*
X00657Y00428D01*
X0069Y00393D02*
X006905Y003925D01*
X007095D01*
X0071Y00392D01*
X0069Y004057D02*
X0069015Y0040585D01*
X0070985D01*
X0071Y00406D01*
X00633Y00394D02*
X006335Y003935D01*
X006535D02*
X00654Y00393D01*
X006335Y003935D02*
X006535D01*
X0064025Y0042025D02*
Y0042975D01*
Y0042025D02*
X00647Y004135D01*
X00634Y0035834D02*
Y00363D01*
Y0035834D02*
X0063634Y00356D01*
X00649D01*
X00633Y00364D02*
X00634Y00363D01*
X00643Y00364D02*
X00654Y00375D01*
Y003803D01*
X00633Y00364D02*
X00643D01*
X00633Y00394D02*
X00633Y00394D01*
Y00378D02*
Y00394D01*
X00618Y00394D02*
X00633D01*
X00585Y003955D02*
X00585Y003955D01*
Y00405D01*
X00559Y00396D02*
X005595Y003955D01*
X00585D01*
X006025Y004135D02*
X006035Y004145D01*
X00585Y00405D02*
Y00414D01*
X006025Y0040884D02*
Y004135D01*
X0059866Y00405D02*
X006025Y0040884D01*
X00585Y00405D02*
X0059866D01*
X005845Y004145D02*
X00585Y00414D01*
D36*
X0034Y0077D02*
D03*
X0114D02*
D03*
Y0029D02*
D03*
X0034D02*
D03*
D41*
X011Y007D02*
D03*
X0115Y006D02*
D03*
X011Y005D02*
D03*
X0115Y004D02*
D03*
X011Y003D02*
D03*
X01Y007D02*
D03*
X0105Y006D02*
D03*
X01Y003D02*
D03*
X009Y007D02*
D03*
X0095Y006D02*
D03*
X009Y005D02*
D03*
Y003D02*
D03*
X0085Y004D02*
D03*
X008Y003D02*
D03*
X007D02*
D03*
X006D02*
D03*
X005Y007D02*
D03*
Y005D02*
D03*
Y003D02*
D03*
X004Y007D02*
D03*
X0045Y006D02*
D03*
Y004D02*
D03*
X004Y003D02*
D03*
X00633Y004175D02*
D03*
X007Y00492D02*
D03*
X00654Y0058D02*
D03*
X00652Y00589D02*
D03*
X008625Y006825D02*
D03*
X0065Y006075D02*
D03*
X01015Y00407D02*
D03*
Y00387D02*
D03*
X01034Y00655D02*
D03*
Y00675D02*
D03*
X01015D02*
D03*
Y00655D02*
D03*
X00995Y00387D02*
D03*
Y00407D02*
D03*
X008625Y0064495D02*
D03*
X00685Y006325D02*
D03*
X008625Y00375D02*
D03*
X0069Y0049D02*
D03*
X00673Y00537D02*
D03*
X00691Y0052D02*
D03*
D42*
X008195Y006175D02*
D03*
X008055D02*
D03*
X009255Y0043D02*
D03*
X009395D02*
D03*
X009255Y007D02*
D03*
X009395D02*
D03*
X007755Y006175D02*
D03*
X007895D02*
D03*
X007455D02*
D03*
X007595D02*
D03*
X00761Y00553D02*
D03*
X00775D02*
D03*
X005995Y00505D02*
D03*
X005855D02*
D03*
Y0046D02*
D03*
X005995D02*
D03*
X005855Y00395D02*
D03*
X005995D02*
D03*
X00759Y00462D02*
D03*
X00745D02*
D03*
X00759Y00477D02*
D03*
X00745D02*
D03*
X00788Y00477D02*
D03*
X00774D02*
D03*
X00724Y00537D02*
D03*
X00738D02*
D03*
X00724Y00553D02*
D03*
X00738D02*
D03*
X00674Y00552D02*
D03*
X00688D02*
D03*
X00689Y00537D02*
D03*
X00703D02*
D03*
X0065575Y005205D02*
D03*
X0064175D02*
D03*
X0065575Y0053625D02*
D03*
X0064175D02*
D03*
X0065575Y00552D02*
D03*
X0064175D02*
D03*
D43*
X009625Y004195D02*
D03*
Y004055D02*
D03*
X01015Y00635D02*
D03*
Y00621D02*
D03*
Y00439D02*
D03*
Y00425D02*
D03*
X009625Y006895D02*
D03*
Y006755D02*
D03*
Y00373D02*
D03*
Y00387D02*
D03*
Y00643D02*
D03*
Y00657D02*
D03*
X006Y00475D02*
D03*
Y00489D02*
D03*
X0062Y004595D02*
D03*
Y004455D02*
D03*
X00585Y004755D02*
D03*
Y004895D02*
D03*
X00618Y00394D02*
D03*
Y00408D02*
D03*
X00646Y004745D02*
D03*
Y004885D02*
D03*
X00631Y004745D02*
D03*
Y004885D02*
D03*
X00616Y004745D02*
D03*
Y004885D02*
D03*
X00633Y00364D02*
D03*
Y00378D02*
D03*
X00633Y00394D02*
D03*
Y00408D02*
D03*
X0071Y00406D02*
D03*
Y00392D02*
D03*
X0064025Y0044375D02*
D03*
Y0042975D02*
D03*
X0065525Y0044375D02*
D03*
Y0042975D02*
D03*
X006775Y00502D02*
D03*
Y00488D02*
D03*
D44*
X008079Y0064D02*
D03*
X007825D02*
D03*
X007571D02*
D03*
Y00726D02*
D03*
X007825D02*
D03*
X008079D02*
D03*
D45*
X01005Y00713D02*
D03*
X010145Y00689D02*
D03*
X009955D02*
D03*
X01005Y00347D02*
D03*
X009955Y00371D02*
D03*
X010145D02*
D03*
X005845Y004145D02*
D03*
X00594D02*
D03*
X006035D02*
D03*
Y004405D02*
D03*
X005845D02*
D03*
D46*
X011275Y004565D02*
D03*
Y004735D02*
D03*
X011025Y004565D02*
D03*
Y004735D02*
D03*
X011275Y005865D02*
D03*
Y006035D02*
D03*
X011025Y005865D02*
D03*
Y006035D02*
D03*
D47*
X011215Y00645D02*
D03*
X010785D02*
D03*
Y00415D02*
D03*
X011215D02*
D03*
D48*
X00883Y0041405D02*
D03*
Y0040135D02*
D03*
Y0038865D02*
D03*
Y0037595D02*
D03*
X00937D02*
D03*
Y0038865D02*
D03*
Y0040135D02*
D03*
Y0041405D02*
D03*
X00883Y0068405D02*
D03*
Y0067135D02*
D03*
Y0065865D02*
D03*
Y0064595D02*
D03*
X00937D02*
D03*
Y0065865D02*
D03*
Y0067135D02*
D03*
Y0068405D02*
D03*
D49*
X005075Y004435D02*
D03*
Y003915D02*
D03*
D50*
X005525Y004755D02*
D03*
Y004325D02*
D03*
D51*
X00559Y00396D02*
D03*
X005375Y003895D02*
D03*
Y004025D02*
D03*
D52*
X007867Y00533D02*
D03*
X00774D02*
D03*
X007613D02*
D03*
X007867Y00497D02*
D03*
X00774D02*
D03*
X007613D02*
D03*
D53*
X006875Y005925D02*
D03*
D54*
X0066775Y005785D02*
D03*
Y005825D02*
D03*
Y005865D02*
D03*
Y005905D02*
D03*
Y005945D02*
D03*
Y005985D02*
D03*
Y006025D02*
D03*
Y006065D02*
D03*
X0070725D02*
D03*
Y006025D02*
D03*
Y005985D02*
D03*
Y005945D02*
D03*
Y005905D02*
D03*
Y005865D02*
D03*
Y005825D02*
D03*
Y005785D02*
D03*
X0066775Y00469D02*
D03*
Y00465D02*
D03*
Y00461D02*
D03*
Y00457D02*
D03*
Y00453D02*
D03*
Y00449D02*
D03*
Y00445D02*
D03*
Y00441D02*
D03*
X0070725D02*
D03*
Y00445D02*
D03*
Y00449D02*
D03*
Y00453D02*
D03*
Y00457D02*
D03*
Y00461D02*
D03*
Y00465D02*
D03*
Y00469D02*
D03*
D55*
X006735Y0061225D02*
D03*
X006775D02*
D03*
X006815D02*
D03*
X006855D02*
D03*
X006895D02*
D03*
X006935D02*
D03*
X006975D02*
D03*
X007015D02*
D03*
Y0057275D02*
D03*
X006975D02*
D03*
X006935D02*
D03*
X006895D02*
D03*
X006855D02*
D03*
X006815D02*
D03*
X006775D02*
D03*
X006735D02*
D03*
Y0043525D02*
D03*
X006775D02*
D03*
X006815D02*
D03*
X006855D02*
D03*
X006895D02*
D03*
X006935D02*
D03*
X006975D02*
D03*
X007015D02*
D03*
Y0047475D02*
D03*
X006975D02*
D03*
X006935D02*
D03*
X006895D02*
D03*
X006855D02*
D03*
X006815D02*
D03*
X006775D02*
D03*
X006735D02*
D03*
D56*
X006725Y00526D02*
D03*
Y00514D02*
D03*
X0068D02*
D03*
Y00526D02*
D03*
D57*
X0069Y003803D02*
D03*
Y00393D02*
D03*
Y004057D02*
D03*
X00654Y003803D02*
D03*
Y00393D02*
D03*
Y004057D02*
D03*
D58*
X006875Y00455D02*
D03*
D59*
X0098Y005554D02*
D03*
Y0053D02*
D03*
Y005046D02*
D03*
X01066D02*
D03*
Y0053D02*
D03*
Y005554D02*
D03*
D60*
X00618Y00408D02*
Y0041975D01*
X00631Y0043275D02*
Y004745D01*
X00618Y0041975D02*
X00631Y0043275D01*
X006075Y0046D02*
X0062D01*
X00528Y00599D02*
Y00716D01*
Y00599D02*
X00538Y00589D01*
X00528Y00716D02*
X00538Y00726D01*
X007571D01*
X00538Y00589D02*
X00625D01*
X00654Y0056D01*
Y0055375D02*
Y0056D01*
Y0055375D02*
X0065575Y00552D01*
X005995Y00505D02*
X0059975Y0050475D01*
Y0048925D02*
Y0050475D01*
Y0048925D02*
X006Y00489D01*
X00745Y0041D02*
X0079668Y0035832D01*
X0093927D01*
X00745Y0041D02*
Y00462D01*
X007825Y00726D02*
Y007445D01*
X00782Y00745D02*
X007825Y007445D01*
X008079Y00726D02*
Y007449D01*
X00808Y00745D01*
X00937Y0041405D02*
Y004275D01*
X009395Y0043D01*
X00911Y00607D02*
X0093825D01*
X009625Y0063125D01*
X00911Y0053362D02*
Y00607D01*
X0092175Y0041405D02*
X00937D01*
X009625Y0036125D02*
Y00373D01*
X0095957Y0035832D02*
X009625Y0036125D01*
X0093927Y0035832D02*
X0095957D01*
X009625Y0063125D02*
Y00643D01*
X00911Y00607D02*
Y006733D01*
X0091882Y0037877D02*
Y0041112D01*
X0090625Y00745D02*
X009395Y0071175D01*
X00808Y00745D02*
X0090625D01*
X0092175Y0068405D02*
X0093779D01*
X0093825Y0068451D01*
X009395Y0043D02*
Y0050513D01*
X0091882Y0041112D02*
X0092175Y0041405D01*
X007571Y00726D02*
Y0073255D01*
X0076955Y00745D01*
X009395Y007D02*
Y0071175D01*
X0093825Y0069875D02*
X009395Y007D01*
X0093825Y0068451D02*
Y0069875D01*
X00911Y006733D02*
X0092175Y0068405D01*
X00911Y0053362D02*
X009395Y0050513D01*
X0091882Y0037877D02*
X0093927Y0035832D01*
X0076955Y00745D02*
X00782D01*
X00808D01*
X005521Y007025D02*
X005522Y007024D01*
Y006601D02*
Y007024D01*
Y006601D02*
X005523Y0066D01*
X00674Y00552D02*
X00674Y00552D01*
X0065575Y00552D02*
X00674D01*
X0065575Y00552D02*
X0065575Y00552D01*
X0067709Y0056475D02*
X0067867Y0056633D01*
X006685Y0056475D02*
X0067709D01*
X0065575Y00552D02*
X006685Y0056475D01*
X0065575Y0053625D02*
Y00552D01*
Y005205D02*
Y0053625D01*
X00655Y0051975D02*
X0065575Y005205D01*
X00655Y00505D02*
Y0051975D01*
X0066Y00463D02*
Y0046647D01*
X0065975Y0046672D02*
X0066Y0046647D01*
X0065975Y0046672D02*
Y0050025D01*
X00655Y00505D02*
X0065975Y0050025D01*
X00649Y00463D02*
X0066D01*
X005845Y004405D02*
X00585Y00441D01*
Y004595D02*
X005855Y0046D01*
X00585Y00441D02*
Y004595D01*
X0058525Y0046025D02*
Y0047525D01*
Y0046025D02*
X005855Y0046D01*
X00646Y00466D02*
X00649Y00463D01*
X00646Y00466D02*
Y004745D01*
X0058525Y0047525D02*
X0059975D01*
X00585Y004755D02*
X0058525Y0047525D01*
X0059975D02*
X006Y00475D01*
X0060025Y0047475D01*
X0061575D02*
X00616Y004745D01*
X0060025Y0047475D02*
X0061575D01*
X00616Y004745D02*
X00631D01*
X00646D01*
X00604Y00449D02*
X006075Y004525D01*
Y0046D01*
X005995Y0046D02*
X006075D01*
X006075Y0046D02*
X006075Y0046D01*
X006035Y004405D02*
X00604Y00441D01*
Y00449D01*
X005525Y004325D02*
X00555Y0043D01*
Y00415D02*
Y0043D01*
X00559Y00396D02*
Y00411D01*
X00555Y00415D02*
X00559Y00411D01*
D61*
X0067925Y0050375D02*
Y00514D01*
X0068D01*
X006775Y00502D02*
X0067925Y0050375D01*
X006885Y005445D02*
Y005515D01*
Y005375D02*
Y005445D01*
X0068Y00542D02*
X006825Y005445D01*
X006885D01*
X0068Y00526D02*
Y00542D01*
X006885Y005375D02*
X00689Y00537D01*
X00688Y00552D02*
X006885Y005515D01*
X005095Y003895D02*
X005375D01*
X005075Y003915D02*
X005095Y003895D01*
D62*
X00506Y00445D02*
X005075Y004435D01*
X004825Y00445D02*
X00506D01*
X003925Y004475D02*
X0048D01*
X004825Y00445D01*
D63*
X003925Y004975D02*
D03*
Y004475D02*
D03*
D64*
X005521Y007025D02*
D03*
X01155Y004917D02*
D03*
Y005425D02*
D03*
Y005171D02*
D03*
X005523Y0066D02*
D03*
X0058Y0061D02*
D03*
D65*
X005775Y007025D02*
D03*
X005777Y0066D02*
D03*
X005546Y0061D02*
D03*
D66*
X01155Y005679D02*
D03*
D67*
X006875Y00444D02*
D03*
X006765Y00466D02*
D03*
X006985Y005815D02*
D03*
Y006035D02*
D03*
Y00466D02*
D03*
X006875Y00455D02*
D03*
Y005925D02*
D03*
X006765Y00444D02*
D03*
Y006035D02*
D03*
Y005815D02*
D03*
X006985Y00444D02*
D03*
Y005925D02*
D03*
X006875Y006035D02*
D03*
Y00466D02*
D03*
X006765Y00455D02*
D03*
X006875Y005815D02*
D03*
X006765Y005925D02*
D03*
X006985Y00455D02*
D03*
M02*
