G04*
G04 #@! TF.GenerationSoftware,Altium Limited,Altium Designer,20.1.8 (145)*
G04*
G04 Layer_Color=8388736*
%FSTAX43Y43*%
%MOMM*%
G71*
G04*
G04 #@! TF.SameCoordinates,6FD7267E-AB92-4DD8-86E6-B6500F98B660*
G04*
G04*
G04 #@! TF.FilePolarity,Negative*
G04*
G01*
G75*
%ADD10C,2.400*%
%ADD11C,1.900*%
%ADD12P,2.057X8X22.5*%
%ADD13C,5.100*%
G36*
X005898Y0069094D02*
X0059008Y0069091D01*
X0059039Y0069088D01*
X0059069Y0069085D01*
X0059139Y0069074D01*
X0059211Y006906D01*
X005928Y0069038D01*
X0059311Y0069024D01*
X0059341Y0069007D01*
X0059344Y0069005D01*
X005935Y0069002D01*
X0059361Y0068994D01*
X0059372Y0068982D01*
X0059391Y0068955D01*
X0059397Y0068935D01*
X00594Y0068916D01*
Y0068913D01*
Y006891D01*
X0059397Y0068891D01*
X0059386Y0068869D01*
X005938Y0068855D01*
X0059369Y0068844D01*
X0059363Y0068838D01*
X005935Y006883D01*
X0059327Y0068819D01*
X0059313Y0068816D01*
X0059297Y0068813D01*
X0059294D01*
X0059286Y0068816D01*
X0059272Y0068819D01*
X0059255Y0068824D01*
X0059252D01*
X0059247Y0068827D01*
X0059238Y006883D01*
X0059225Y0068835D01*
X0059211Y0068841D01*
X0059191Y0068846D01*
X0059147Y006886D01*
X0059094Y0068871D01*
X0059036Y0068883D01*
X0058975Y0068891D01*
X0058911Y0068894D01*
X0058897D01*
X005888Y0068891D01*
X0058861Y0068885D01*
X0058836Y006888D01*
X0058814Y0068869D01*
X0058789Y0068852D01*
X0058764Y0068833D01*
X0058761Y006883D01*
X0058755Y0068821D01*
X0058744Y0068808D01*
X0058736Y0068791D01*
X0058725Y0068769D01*
X0058714Y0068744D01*
X0058708Y0068716D01*
X0058705Y0068685D01*
Y0068683D01*
Y006868D01*
X0058708Y0068663D01*
X0058711Y0068641D01*
X0058719Y0068613D01*
X0058733Y0068583D01*
X0058753Y0068552D01*
X005878Y0068524D01*
X0058816Y0068499D01*
X0059252Y0068275D01*
X0059255D01*
X0059263Y0068269D01*
X0059275Y0068263D01*
X0059288Y0068252D01*
X0059305Y0068241D01*
X0059325Y0068225D01*
X0059344Y0068205D01*
X0059366Y0068186D01*
X0059388Y0068161D01*
X0059408Y0068136D01*
X0059427Y0068105D01*
X0059444Y0068072D01*
X0059458Y0068036D01*
X0059472Y0067997D01*
X0059477Y0067955D01*
X005948Y0067911D01*
Y0067908D01*
Y0067903D01*
Y0067894D01*
X0059477Y0067883D01*
X0059474Y006785D01*
X0059466Y0067811D01*
X0059449Y0067767D01*
X0059427Y0067717D01*
X00594Y0067667D01*
X005938Y0067642D01*
X0059358Y0067619D01*
X0059352Y0067614D01*
X0059336Y00676D01*
X0059311Y0067581D01*
X0059275Y0067561D01*
X0059233Y0067539D01*
X0059183Y0067519D01*
X0059127Y0067506D01*
X0059097Y0067503D01*
X0059066Y00675D01*
X0059039D01*
X0059016Y0067503D01*
X0058991Y0067506D01*
X0058961Y0067508D01*
X0058928Y0067514D01*
X0058891Y0067522D01*
X0058808Y0067542D01*
X0058767Y0067556D01*
X0058722Y0067572D01*
X0058675Y0067592D01*
X005863Y0067617D01*
X0058586Y0067642D01*
X0058542Y0067672D01*
X0058539Y0067675D01*
X0058536Y0067678D01*
X0058522Y0067694D01*
X0058506Y0067722D01*
X0058503Y0067739D01*
X00585Y0067755D01*
Y0067758D01*
Y0067764D01*
X0058503Y006778D01*
X0058511Y0067803D01*
X0058528Y0067825D01*
X0058531Y0067828D01*
X0058533Y006783D01*
X0058547Y0067841D01*
X0058572Y006785D01*
X0058586Y0067855D01*
X0058605D01*
X0058617Y0067853D01*
X0058633Y006785D01*
X0058653Y0067841D01*
X0058655Y0067839D01*
X0058667Y0067833D01*
X0058683Y0067825D01*
X0058708Y0067811D01*
X0058739Y0067794D01*
X0058775Y0067775D01*
X0058819Y0067755D01*
X0058869Y006773D01*
X0058872D01*
X0058886Y0067725D01*
X0058903Y0067722D01*
X0058928Y0067717D01*
X0058955Y0067711D01*
X0058989Y0067708D01*
X0059027Y0067703D01*
X005908D01*
X0059097Y0067705D01*
X0059116Y0067711D01*
X0059139Y0067717D01*
X0059164Y0067728D01*
X0059186Y0067744D01*
X0059211Y0067764D01*
X0059213Y0067767D01*
X0059222Y0067775D01*
X005923Y0067789D01*
X0059244Y0067805D01*
X0059255Y0067828D01*
X0059263Y0067853D01*
X0059272Y006788D01*
X0059275Y0067911D01*
Y0067914D01*
Y0067916D01*
Y006793D01*
X0059269Y0067953D01*
X0059263Y006798D01*
X0059252Y0068011D01*
X0059238Y0068041D01*
X0059216Y0068069D01*
X0059186Y0068094D01*
X0058722Y0068319D01*
X0058719Y0068322D01*
X0058714Y0068325D01*
X0058703Y006833D01*
X0058689Y0068341D01*
X0058669Y0068352D01*
X0058653Y0068369D01*
X005863Y0068386D01*
X0058611Y0068408D01*
X0058592Y0068433D01*
X0058569Y0068458D01*
X0058553Y0068488D01*
X0058536Y0068522D01*
X0058519Y0068558D01*
X0058508Y0068597D01*
X0058503Y0068641D01*
X00585Y0068685D01*
Y0068688D01*
Y0068694D01*
Y0068702D01*
X0058503Y0068713D01*
X0058506Y0068747D01*
X0058514Y0068785D01*
X0058531Y006883D01*
X005855Y006888D01*
X0058581Y0068927D01*
X0058597Y0068952D01*
X0058619Y0068974D01*
X0058622Y0068977D01*
X0058625Y006898D01*
X0058642Y0068994D01*
X0058667Y0069013D01*
X00587Y0069035D01*
X0058744Y0069057D01*
X0058792Y0069077D01*
X005885Y0069091D01*
X005888Y0069096D01*
X0058958D01*
X005898Y0069094D01*
D02*
G37*
G36*
X0061623D02*
X006164Y0069088D01*
X0061657Y0069077D01*
X0061673Y0069063D01*
X0061687Y0069044D01*
X0061698Y0069019D01*
X0062159Y0067633D01*
Y006763D01*
X0062162Y0067622D01*
X0062165Y0067611D01*
Y00676D01*
Y0067594D01*
X0062162Y0067583D01*
X0062159Y0067569D01*
X0062151Y006755D01*
X006214Y0067531D01*
X006212Y0067517D01*
X0062095Y0067506D01*
X0062062Y00675D01*
X0062051D01*
X0062037Y0067503D01*
X0062023Y0067508D01*
X0062006Y0067517D01*
X006199Y0067531D01*
X0061976Y0067547D01*
X0061965Y0067569D01*
X0061859Y0067886D01*
X0061335D01*
X0061229Y0067569D01*
Y0067567D01*
X0061223Y0067558D01*
X0061218Y0067547D01*
X006121Y0067536D01*
X0061196Y0067522D01*
X0061179Y0067511D01*
X0061157Y0067503D01*
X0061132Y00675D01*
X0061126D01*
X0061115Y0067503D01*
X0061101Y0067506D01*
X0061082Y0067514D01*
X0061062Y0067525D01*
X0061049Y0067542D01*
X0061037Y0067567D01*
X0061032Y00676D01*
Y0067603D01*
Y0067611D01*
X0061035Y0067633D01*
X0061496Y0069016D01*
X0061498Y0069019D01*
X0061501Y006903D01*
X0061509Y0069041D01*
X0061518Y0069057D01*
X0061532Y0069071D01*
X0061551Y0069085D01*
X0061573Y0069094D01*
X0061598Y0069096D01*
X0061609D01*
X0061623Y0069094D01*
D02*
G37*
G36*
X0060363D02*
X0060393Y0069091D01*
X0060435Y0069082D01*
X0060482Y0069069D01*
X0060529Y0069046D01*
X0060579Y0069016D01*
X0060604Y0068999D01*
X0060627Y0068977D01*
X0060629D01*
X0060632Y0068971D01*
X0060646Y0068955D01*
X0060665Y006893D01*
X0060688Y0068896D01*
X0060707Y0068855D01*
X0060727Y0068805D01*
X006074Y0068747D01*
X0060746Y0068716D01*
Y0068685D01*
Y0067911D01*
Y0067908D01*
Y0067903D01*
Y0067894D01*
X0060743Y0067883D01*
X006074Y006785D01*
X0060732Y0067811D01*
X0060715Y0067764D01*
X0060693Y0067717D01*
X0060665Y0067667D01*
X0060646Y0067642D01*
X0060624Y0067619D01*
X0060618Y0067614D01*
X0060602Y00676D01*
X0060577Y0067581D01*
X0060543Y0067561D01*
X0060502Y0067539D01*
X0060452Y0067519D01*
X0060393Y0067506D01*
X0060363Y0067503D01*
X0060332Y00675D01*
X005986D01*
X0059849Y0067503D01*
X0059835Y0067506D01*
X0059816Y0067514D01*
X0059797Y0067525D01*
X0059783Y0067542D01*
X0059772Y0067567D01*
X0059766Y00676D01*
Y0068996D01*
Y0069002D01*
X0059769Y0069013D01*
X0059772Y0069027D01*
X005978Y0069046D01*
X0059791Y0069066D01*
X0059808Y006908D01*
X0059833Y0069091D01*
X0059866Y0069096D01*
X0060349D01*
X0060363Y0069094D01*
D02*
G37*
G36*
X0058238Y0070586D02*
X0058255Y0070583D01*
X0058275Y0070577D01*
X0058291Y0070564D01*
X0058308Y0070547D01*
X0058319Y0070522D01*
X0058325Y0070489D01*
Y0070483D01*
X0058322Y0070472D01*
X0058319Y0070455D01*
X0058311Y0070439D01*
X00583Y0070419D01*
X005828Y0070403D01*
X0058255Y0070391D01*
X0058222Y0070386D01*
X0057594D01*
X0057583Y0070389D01*
X0057569Y0070391D01*
X005755Y00704D01*
X0057531Y0070411D01*
X0057517Y007043D01*
X0057506Y0070455D01*
X00575Y0070489D01*
Y0070494D01*
X0057503Y0070505D01*
X0057506Y0070519D01*
X0057514Y0070539D01*
X0057525Y0070558D01*
X0057542Y0070572D01*
X0057567Y0070583D01*
X00576Y0070589D01*
X0058227D01*
X0058238Y0070586D01*
D02*
G37*
G36*
X0062189Y0071594D02*
X0062206Y0071591D01*
X0062225Y0071585D01*
X0062242Y0071571D01*
X0062258Y0071555D01*
X006227Y007153D01*
X0062275Y0071496D01*
Y0071491D01*
X0062272Y007148D01*
X006227Y0071463D01*
X0062261Y0071446D01*
X006225Y0071427D01*
X0062231Y007141D01*
X0062206Y0071399D01*
X0062172Y0071394D01*
X0061889D01*
Y00701D01*
Y0070094D01*
X0061886Y0070083D01*
X0061884Y0070069D01*
X0061875Y007005D01*
X0061864Y0070031D01*
X0061845Y0070017D01*
X006182Y0070006D01*
X0061786Y007D01*
X0061781D01*
X006177Y0070003D01*
X0061753Y0070006D01*
X0061737Y0070014D01*
X0061717Y0070025D01*
X00617Y0070042D01*
X0061689Y0070067D01*
X0061684Y00701D01*
Y0071394D01*
X0061392D01*
X0061381Y0071396D01*
X0061367Y0071399D01*
X0061348Y0071408D01*
X0061328Y0071419D01*
X0061315Y0071438D01*
X0061303Y0071463D01*
X0061298Y0071496D01*
Y0071502D01*
X0061301Y0071513D01*
X0061303Y0071527D01*
X0061312Y0071546D01*
X0061323Y0071566D01*
X006134Y007158D01*
X0061364Y0071591D01*
X0061398Y0071596D01*
X0062178D01*
X0062189Y0071594D01*
D02*
G37*
G36*
X0060465D02*
X0060482Y0071588D01*
X0060498Y0071577D01*
X0060515Y0071563D01*
X0060529Y0071544D01*
X006054Y0071519D01*
X0061001Y0070133D01*
Y007013D01*
X0061004Y0070122D01*
X0061006Y0070111D01*
Y00701D01*
Y0070094D01*
X0061004Y0070083D01*
X0061001Y0070069D01*
X0060992Y007005D01*
X0060981Y0070031D01*
X0060962Y0070017D01*
X0060937Y0070006D01*
X0060904Y007D01*
X0060893D01*
X0060879Y0070003D01*
X0060865Y0070008D01*
X0060848Y0070017D01*
X0060831Y0070031D01*
X0060818Y0070047D01*
X0060806Y0070069D01*
X0060701Y0070386D01*
X0060176D01*
X0060071Y0070069D01*
Y0070067D01*
X0060065Y0070058D01*
X006006Y0070047D01*
X0060051Y0070036D01*
X0060037Y0070022D01*
X0060021Y0070011D01*
X0059999Y0070003D01*
X0059974Y007D01*
X0059968D01*
X0059957Y0070003D01*
X0059943Y0070006D01*
X0059924Y0070014D01*
X0059904Y0070025D01*
X005989Y0070042D01*
X0059879Y0070067D01*
X0059874Y00701D01*
Y0070103D01*
Y0070111D01*
X0059876Y0070133D01*
X0060337Y0071516D01*
X006034Y0071519D01*
X0060343Y007153D01*
X0060351Y0071541D01*
X006036Y0071557D01*
X0060373Y0071571D01*
X0060393Y0071585D01*
X0060415Y0071594D01*
X006044Y0071596D01*
X0060451D01*
X0060465Y0071594D01*
D02*
G37*
G36*
X0059127D02*
X0059157Y0071591D01*
X0059199Y0071582D01*
X0059246Y0071569D01*
X0059293Y0071546D01*
X0059343Y0071516D01*
X0059368Y0071499D01*
X0059391Y0071477D01*
X0059393D01*
X0059396Y0071471D01*
X005941Y0071455D01*
X0059429Y007143D01*
X0059452Y0071396D01*
X0059471Y0071355D01*
X0059491Y0071305D01*
X0059504Y0071247D01*
X005951Y0071216D01*
Y0071185D01*
Y0071183D01*
Y0071177D01*
Y0071166D01*
X0059507Y0071152D01*
X0059504Y0071135D01*
X0059502Y0071119D01*
X0059493Y0071074D01*
X0059474Y0071024D01*
X0059449Y0070977D01*
X0059432Y0070952D01*
X0059413Y0070927D01*
X0059391Y0070905D01*
X0059366Y0070886D01*
X0059368D01*
X0059374Y007088D01*
X0059385Y0070872D01*
X0059402Y0070863D01*
X0059418Y007085D01*
X0059435Y0070833D01*
X0059457Y0070813D01*
X0059477Y0070791D01*
X0059496Y0070763D01*
X0059518Y0070736D01*
X0059535Y0070702D01*
X0059554Y0070666D01*
X0059568Y0070627D01*
X0059579Y0070586D01*
X0059585Y0070539D01*
X0059588Y0070489D01*
Y0070486D01*
Y007048D01*
Y0070469D01*
X0059585Y0070455D01*
X0059582Y0070439D01*
X0059579Y0070416D01*
X0059571Y0070369D01*
X0059552Y0070314D01*
X0059527Y0070258D01*
X005951Y0070228D01*
X0059491Y0070197D01*
X0059468Y0070169D01*
X0059443Y0070142D01*
X0059441Y0070139D01*
X0059438Y0070136D01*
X0059429Y0070128D01*
X0059418Y0070119D01*
X0059404Y0070108D01*
X0059388Y0070097D01*
X0059346Y0070072D01*
X0059296Y0070044D01*
X0059235Y0070022D01*
X0059169Y0070006D01*
X0059132Y0070003D01*
X0059096Y007D01*
X0058702D01*
X0058691Y0070003D01*
X0058677Y0070006D01*
X0058658Y0070014D01*
X0058638Y0070025D01*
X0058624Y0070042D01*
X0058613Y0070067D01*
X0058608Y00701D01*
Y0071496D01*
Y0071502D01*
X005861Y0071513D01*
X0058613Y0071527D01*
X0058622Y0071546D01*
X0058633Y0071566D01*
X0058649Y007158D01*
X0058674Y0071591D01*
X0058708Y0071596D01*
X0059113D01*
X0059127Y0071594D01*
D02*
G37*
G36*
X008648D02*
X0086508Y0071591D01*
X0086539Y0071588D01*
X0086569Y0071585D01*
X0086639Y0071574D01*
X0086711Y007156D01*
X008678Y0071538D01*
X0086811Y0071524D01*
X0086841Y0071507D01*
X0086844Y0071505D01*
X008685Y0071502D01*
X0086861Y0071494D01*
X0086872Y0071482D01*
X0086891Y0071455D01*
X0086897Y0071435D01*
X0086899Y0071416D01*
Y0071413D01*
Y007141D01*
X0086897Y0071391D01*
X0086886Y0071369D01*
X008688Y0071355D01*
X0086869Y0071344D01*
X0086863Y0071338D01*
X008685Y007133D01*
X0086827Y0071319D01*
X0086813Y0071316D01*
X0086797Y0071313D01*
X0086794D01*
X0086786Y0071316D01*
X0086772Y0071319D01*
X0086755Y0071324D01*
X0086752D01*
X0086747Y0071327D01*
X0086738Y007133D01*
X0086725Y0071335D01*
X0086711Y0071341D01*
X0086691Y0071346D01*
X0086647Y007136D01*
X0086594Y0071371D01*
X0086536Y0071383D01*
X0086475Y0071391D01*
X0086411Y0071394D01*
X0086397D01*
X008638Y0071391D01*
X0086361Y0071385D01*
X0086336Y007138D01*
X0086314Y0071369D01*
X0086289Y0071352D01*
X0086264Y0071333D01*
X0086261Y007133D01*
X0086255Y0071321D01*
X0086244Y0071308D01*
X0086236Y0071291D01*
X0086225Y0071269D01*
X0086214Y0071244D01*
X0086208Y0071216D01*
X0086205Y0071185D01*
Y0071183D01*
Y007118D01*
X0086208Y0071163D01*
X0086211Y0071141D01*
X0086219Y0071113D01*
X0086233Y0071083D01*
X0086253Y0071052D01*
X008628Y0071024D01*
X0086316Y0070999D01*
X0086752Y0070775D01*
X0086755D01*
X0086763Y0070769D01*
X0086775Y0070763D01*
X0086788Y0070752D01*
X0086805Y0070741D01*
X0086825Y0070725D01*
X0086844Y0070705D01*
X0086866Y0070686D01*
X0086888Y0070661D01*
X0086908Y0070636D01*
X0086927Y0070605D01*
X0086944Y0070572D01*
X0086958Y0070536D01*
X0086972Y0070497D01*
X0086977Y0070455D01*
X008698Y0070411D01*
Y0070408D01*
Y0070403D01*
Y0070394D01*
X0086977Y0070383D01*
X0086974Y007035D01*
X0086966Y0070311D01*
X0086949Y0070267D01*
X0086927Y0070217D01*
X0086899Y0070167D01*
X008688Y0070142D01*
X0086858Y0070119D01*
X0086852Y0070114D01*
X0086836Y00701D01*
X0086811Y0070081D01*
X0086775Y0070061D01*
X0086733Y0070039D01*
X0086683Y0070019D01*
X0086627Y0070006D01*
X0086597Y0070003D01*
X0086566Y007D01*
X0086539D01*
X0086516Y0070003D01*
X0086491Y0070006D01*
X0086461Y0070008D01*
X0086428Y0070014D01*
X0086391Y0070022D01*
X0086308Y0070042D01*
X0086267Y0070056D01*
X0086222Y0070072D01*
X0086175Y0070092D01*
X008613Y0070117D01*
X0086086Y0070142D01*
X0086042Y0070172D01*
X0086039Y0070175D01*
X0086036Y0070178D01*
X0086022Y0070194D01*
X0086006Y0070222D01*
X0086003Y0070239D01*
X0086Y0070255D01*
Y0070258D01*
Y0070264D01*
X0086003Y007028D01*
X0086011Y0070303D01*
X0086028Y0070325D01*
X0086031Y0070328D01*
X0086033Y007033D01*
X0086047Y0070341D01*
X0086072Y007035D01*
X0086086Y0070355D01*
X0086105D01*
X0086117Y0070353D01*
X0086133Y007035D01*
X0086153Y0070341D01*
X0086155Y0070339D01*
X0086167Y0070333D01*
X0086183Y0070325D01*
X0086208Y0070311D01*
X0086239Y0070294D01*
X0086275Y0070275D01*
X0086319Y0070255D01*
X0086369Y007023D01*
X0086372D01*
X0086386Y0070225D01*
X0086403Y0070222D01*
X0086428Y0070217D01*
X0086455Y0070211D01*
X0086489Y0070208D01*
X0086527Y0070203D01*
X008658D01*
X0086597Y0070205D01*
X0086616Y0070211D01*
X0086639Y0070217D01*
X0086664Y0070228D01*
X0086686Y0070244D01*
X0086711Y0070264D01*
X0086713Y0070267D01*
X0086722Y0070275D01*
X008673Y0070289D01*
X0086744Y0070305D01*
X0086755Y0070328D01*
X0086763Y0070353D01*
X0086772Y007038D01*
X0086775Y0070411D01*
Y0070414D01*
Y0070416D01*
Y007043D01*
X0086769Y0070453D01*
X0086763Y007048D01*
X0086752Y0070511D01*
X0086738Y0070541D01*
X0086716Y0070569D01*
X0086686Y0070594D01*
X0086222Y0070819D01*
X0086219Y0070822D01*
X0086214Y0070825D01*
X0086203Y007083D01*
X0086189Y0070841D01*
X0086169Y0070852D01*
X0086153Y0070869D01*
X008613Y0070886D01*
X0086111Y0070908D01*
X0086092Y0070933D01*
X0086069Y0070958D01*
X0086053Y0070988D01*
X0086036Y0071022D01*
X0086019Y0071058D01*
X0086008Y0071097D01*
X0086003Y0071141D01*
X0086Y0071185D01*
Y0071188D01*
Y0071194D01*
Y0071202D01*
X0086003Y0071213D01*
X0086006Y0071247D01*
X0086014Y0071285D01*
X0086031Y007133D01*
X008605Y007138D01*
X0086081Y0071427D01*
X0086097Y0071452D01*
X0086119Y0071474D01*
X0086122Y0071477D01*
X0086125Y007148D01*
X0086142Y0071494D01*
X0086167Y0071513D01*
X00862Y0071535D01*
X0086244Y0071557D01*
X0086291Y0071577D01*
X008635Y0071591D01*
X008638Y0071596D01*
X0086458D01*
X008648Y0071594D01*
D02*
G37*
G36*
X0088493D02*
X008851Y0071591D01*
X0088529Y0071585D01*
X0088546Y0071571D01*
X0088562Y0071555D01*
X0088574Y007153D01*
X0088579Y0071496D01*
Y0070203D01*
X0089101D01*
X0089112Y00702D01*
X0089129Y0070197D01*
X0089148Y0070192D01*
X0089165Y0070178D01*
X0089182Y0070161D01*
X0089193Y0070136D01*
X0089198Y0070103D01*
Y0070097D01*
X0089195Y0070086D01*
X0089193Y0070069D01*
X0089184Y0070053D01*
X0089173Y0070033D01*
X0089154Y0070017D01*
X0089129Y0070006D01*
X0089095Y007D01*
X0088468D01*
X0088457Y0070003D01*
X0088443Y0070006D01*
X0088424Y0070014D01*
X0088404Y0070025D01*
X008839Y0070042D01*
X0088379Y0070067D01*
X0088374Y00701D01*
Y0071496D01*
Y0071502D01*
X0088376Y0071513D01*
X0088379Y0071527D01*
X0088388Y0071546D01*
X0088399Y0071566D01*
X0088418Y007158D01*
X0088443Y0071591D01*
X0088476Y0071596D01*
X0088482D01*
X0088493Y0071594D01*
D02*
G37*
G36*
X0088002D02*
X0088018Y0071591D01*
X0088038Y0071585D01*
X0088054Y0071571D01*
X0088071Y0071555D01*
X0088082Y007153D01*
X0088088Y0071496D01*
Y0071491D01*
X0088085Y007148D01*
X0088082Y0071463D01*
X0088074Y0071446D01*
X0088063Y0071427D01*
X0088043Y007141D01*
X0088018Y0071399D01*
X0087985Y0071394D01*
X0087663D01*
X0087646Y0071391D01*
X0087627Y0071385D01*
X0087602Y007138D01*
X008758Y0071369D01*
X0087555Y0071352D01*
X008753Y0071333D01*
X0087527Y007133D01*
X0087521Y0071321D01*
X008751Y0071308D01*
X0087502Y0071291D01*
X0087491Y0071269D01*
X008748Y0071244D01*
X0087474Y0071216D01*
X0087471Y0071185D01*
Y0070411D01*
Y0070408D01*
Y0070397D01*
X0087474Y007038D01*
X008748Y0070358D01*
X0087485Y0070336D01*
X0087496Y0070311D01*
X008751Y0070286D01*
X008753Y0070261D01*
X0087532Y0070258D01*
X0087541Y0070253D01*
X0087555Y0070242D01*
X0087571Y0070233D01*
X0087594Y0070222D01*
X0087619Y0070211D01*
X0087646Y0070205D01*
X0087677Y0070203D01*
X0087991D01*
X0088002Y00702D01*
X0088018Y0070197D01*
X0088038Y0070192D01*
X0088054Y0070178D01*
X0088071Y0070161D01*
X0088082Y0070136D01*
X0088088Y0070103D01*
Y0070097D01*
X0088085Y0070086D01*
X0088082Y0070069D01*
X0088074Y0070053D01*
X0088063Y0070033D01*
X0088043Y0070017D01*
X0088018Y0070006D01*
X0087985Y007D01*
X008766D01*
X0087649Y0070003D01*
X0087616Y0070006D01*
X0087577Y0070014D01*
X008753Y0070031D01*
X0087482Y007005D01*
X0087433Y0070081D01*
X0087408Y0070097D01*
X0087385Y0070119D01*
Y0070122D01*
X008738Y0070125D01*
X0087366Y0070142D01*
X0087346Y0070167D01*
X0087327Y00702D01*
X0087305Y0070244D01*
X0087285Y0070291D01*
X0087272Y007035D01*
X0087269Y007038D01*
X0087266Y0070411D01*
Y0071185D01*
Y0071188D01*
Y0071194D01*
Y0071202D01*
X0087269Y0071213D01*
X0087272Y0071247D01*
X008728Y0071285D01*
X0087297Y007133D01*
X0087316Y007138D01*
X0087346Y0071427D01*
X0087363Y0071452D01*
X0087385Y0071474D01*
X0087388Y0071477D01*
X0087391Y007148D01*
X0087408Y0071494D01*
X0087433Y0071513D01*
X0087466Y0071535D01*
X008751Y0071557D01*
X0087557Y0071577D01*
X0087616Y0071591D01*
X0087646Y0071596D01*
X0087991D01*
X0088002Y0071594D01*
D02*
G37*
G36*
X008643Y0068474D02*
X0086447Y0068472D01*
X0086466Y0068466D01*
X0086483Y0068452D01*
X00865Y0068436D01*
X0086511Y0068411D01*
X0086516Y0068377D01*
Y0068166D01*
X008673D01*
X0086741Y0068164D01*
X0086758Y0068161D01*
X0086777Y0068155D01*
X0086794Y0068141D01*
X0086811Y0068125D01*
X0086822Y00681D01*
X0086827Y0068066D01*
Y0068061D01*
X0086825Y006805D01*
X0086822Y0068033D01*
X0086813Y0068016D01*
X0086802Y0067997D01*
X0086783Y006798D01*
X0086758Y0067969D01*
X0086725Y0067964D01*
X0086516D01*
Y0067755D01*
Y006775D01*
X0086514Y0067739D01*
X0086511Y0067725D01*
X0086503Y0067705D01*
X0086491Y0067686D01*
X0086472Y0067672D01*
X0086447Y0067661D01*
X0086414Y0067655D01*
X0086408D01*
X0086397Y0067658D01*
X008638Y0067661D01*
X0086364Y0067669D01*
X0086344Y006768D01*
X0086328Y0067697D01*
X0086316Y0067722D01*
X0086311Y0067755D01*
Y0067964D01*
X0086097D01*
X0086086Y0067966D01*
X0086069Y0067969D01*
X0086053Y0067978D01*
X0086033Y0067989D01*
X0086017Y0068008D01*
X0086006Y0068033D01*
X0086Y0068066D01*
Y0068072D01*
X0086003Y0068083D01*
X0086006Y0068097D01*
X0086014Y0068116D01*
X0086025Y0068136D01*
X0086044Y006815D01*
X0086069Y0068161D01*
X0086103Y0068166D01*
X0086311D01*
Y0068377D01*
Y0068383D01*
X0086314Y0068394D01*
X0086316Y0068408D01*
X0086325Y0068427D01*
X0086336Y0068447D01*
X0086355Y0068461D01*
X008638Y0068472D01*
X0086414Y0068477D01*
X0086419D01*
X008643Y0068474D01*
D02*
G37*
G36*
X0090689Y0069094D02*
X0090706Y0069091D01*
X0090725Y0069085D01*
X0090742Y0069071D01*
X0090758Y0069055D01*
X009077Y006903D01*
X0090775Y0068996D01*
Y0068991D01*
X0090772Y006898D01*
X009077Y0068963D01*
X0090761Y0068946D01*
X009075Y0068927D01*
X0090731Y006891D01*
X0090706Y0068899D01*
X0090672Y0068894D01*
X0090389D01*
Y00676D01*
Y0067594D01*
X0090386Y0067583D01*
X0090384Y0067569D01*
X0090375Y006755D01*
X0090364Y0067531D01*
X0090345Y0067517D01*
X009032Y0067506D01*
X0090286Y00675D01*
X0090281D01*
X009027Y0067503D01*
X0090253Y0067506D01*
X0090237Y0067514D01*
X0090217Y0067525D01*
X00902Y0067542D01*
X0090189Y0067567D01*
X0090184Y00676D01*
Y0068894D01*
X0089892D01*
X0089881Y0068896D01*
X0089867Y0068899D01*
X0089848Y0068908D01*
X0089828Y0068919D01*
X0089815Y0068938D01*
X0089803Y0068963D01*
X0089798Y0068996D01*
Y0069002D01*
X0089801Y0069013D01*
X0089803Y0069027D01*
X0089812Y0069046D01*
X0089823Y0069066D01*
X008984Y006908D01*
X0089865Y0069091D01*
X0089898Y0069096D01*
X0090678D01*
X0090689Y0069094D01*
D02*
G37*
G36*
X0088965D02*
X0088982Y0069088D01*
X0088998Y0069077D01*
X0089015Y0069063D01*
X0089029Y0069044D01*
X008904Y0069019D01*
X0089501Y0067633D01*
Y006763D01*
X0089504Y0067622D01*
X0089506Y0067611D01*
Y00676D01*
Y0067594D01*
X0089504Y0067583D01*
X0089501Y0067569D01*
X0089492Y006755D01*
X0089481Y0067531D01*
X0089462Y0067517D01*
X0089437Y0067506D01*
X0089404Y00675D01*
X0089393D01*
X0089379Y0067503D01*
X0089365Y0067508D01*
X0089348Y0067517D01*
X0089331Y0067531D01*
X0089318Y0067547D01*
X0089306Y0067569D01*
X0089201Y0067886D01*
X0088676D01*
X0088571Y0067569D01*
Y0067567D01*
X0088565Y0067558D01*
X008856Y0067547D01*
X0088551Y0067536D01*
X0088537Y0067522D01*
X0088521Y0067511D01*
X0088499Y0067503D01*
X0088474Y00675D01*
X0088468D01*
X0088457Y0067503D01*
X0088443Y0067506D01*
X0088424Y0067514D01*
X0088404Y0067525D01*
X008839Y0067542D01*
X0088379Y0067567D01*
X0088374Y00676D01*
Y0067603D01*
Y0067611D01*
X0088376Y0067633D01*
X0088837Y0069016D01*
X008884Y0069019D01*
X0088843Y006903D01*
X0088851Y0069041D01*
X008886Y0069057D01*
X0088873Y0069071D01*
X0088893Y0069085D01*
X0088915Y0069094D01*
X008894Y0069096D01*
X0088951D01*
X0088965Y0069094D01*
D02*
G37*
G36*
X0087627D02*
X0087657Y0069091D01*
X0087699Y0069082D01*
X0087746Y0069069D01*
X0087793Y0069046D01*
X0087843Y0069016D01*
X0087868Y0068999D01*
X0087891Y0068977D01*
X0087893D01*
X0087896Y0068971D01*
X008791Y0068955D01*
X0087929Y006893D01*
X0087952Y0068896D01*
X0087971Y0068855D01*
X0087991Y0068805D01*
X0088004Y0068747D01*
X008801Y0068716D01*
Y0068685D01*
Y0068683D01*
Y0068677D01*
Y0068666D01*
X0088007Y0068652D01*
X0088004Y0068635D01*
X0088002Y0068619D01*
X0087993Y0068574D01*
X0087974Y0068524D01*
X0087949Y0068477D01*
X0087932Y0068452D01*
X0087913Y0068427D01*
X0087891Y0068405D01*
X0087866Y0068386D01*
X0087868D01*
X0087874Y006838D01*
X0087885Y0068372D01*
X0087902Y0068363D01*
X0087918Y006835D01*
X0087935Y0068333D01*
X0087957Y0068313D01*
X0087977Y0068291D01*
X0087996Y0068263D01*
X0088018Y0068236D01*
X0088035Y0068202D01*
X0088054Y0068166D01*
X0088068Y0068127D01*
X0088079Y0068086D01*
X0088085Y0068039D01*
X0088088Y0067989D01*
Y0067986D01*
Y006798D01*
Y0067969D01*
X0088085Y0067955D01*
X0088082Y0067939D01*
X0088079Y0067916D01*
X0088071Y0067869D01*
X0088052Y0067814D01*
X0088027Y0067758D01*
X008801Y0067728D01*
X0087991Y0067697D01*
X0087968Y0067669D01*
X0087943Y0067642D01*
X0087941Y0067639D01*
X0087938Y0067636D01*
X0087929Y0067628D01*
X0087918Y0067619D01*
X0087904Y0067608D01*
X0087888Y0067597D01*
X0087846Y0067572D01*
X0087796Y0067544D01*
X0087735Y0067522D01*
X0087669Y0067506D01*
X0087632Y0067503D01*
X0087596Y00675D01*
X0087202D01*
X0087191Y0067503D01*
X0087177Y0067506D01*
X0087158Y0067514D01*
X0087138Y0067525D01*
X0087124Y0067542D01*
X0087113Y0067567D01*
X0087108Y00676D01*
Y0068996D01*
Y0069002D01*
X008711Y0069013D01*
X0087113Y0069027D01*
X0087122Y0069046D01*
X0087133Y0069066D01*
X0087149Y006908D01*
X0087174Y0069091D01*
X0087208Y0069096D01*
X0087613D01*
X0087627Y0069094D01*
D02*
G37*
%LPC*%
G36*
X0061598Y0068724D02*
X0061396Y0068089D01*
X0061801D01*
X0061598Y0068724D01*
D02*
G37*
G36*
X0060332Y0068894D02*
X0059971D01*
Y0067703D01*
X0060346D01*
X0060363Y0067705D01*
X0060382Y0067711D01*
X0060404Y0067717D01*
X0060429Y0067728D01*
X0060452Y0067744D01*
X0060477Y0067764D01*
X0060479Y0067767D01*
X0060488Y0067775D01*
X0060496Y0067789D01*
X006051Y0067805D01*
X0060521Y0067828D01*
X0060529Y0067853D01*
X0060538Y006788D01*
X0060541Y0067911D01*
Y0068685D01*
Y0068688D01*
Y0068699D01*
X0060538Y0068716D01*
X0060532Y0068735D01*
X0060527Y006876D01*
X0060516Y0068783D01*
X0060499Y0068808D01*
X0060479Y0068833D01*
X0060477Y0068835D01*
X0060468Y0068841D01*
X0060454Y0068852D01*
X0060438Y0068863D01*
X0060416Y0068874D01*
X0060391Y0068885D01*
X0060363Y0068891D01*
X0060332Y0068894D01*
D02*
G37*
G36*
X006044Y0071224D02*
X0060237Y0070589D01*
X0060643D01*
X006044Y0071224D01*
D02*
G37*
G36*
X0059096Y0071394D02*
X0058813D01*
Y0070977D01*
X005911D01*
X0059127Y007098D01*
X0059146Y0070986D01*
X0059169Y0070991D01*
X0059194Y0071002D01*
X0059216Y0071019D01*
X0059241Y0071038D01*
X0059243Y0071041D01*
X0059252Y0071049D01*
X005926Y0071063D01*
X0059274Y007108D01*
X0059285Y0071102D01*
X0059293Y0071127D01*
X0059302Y0071155D01*
X0059305Y0071185D01*
Y0071188D01*
Y0071199D01*
X0059302Y0071216D01*
X0059296Y0071235D01*
X0059291Y007126D01*
X005928Y0071283D01*
X0059263Y0071308D01*
X0059243Y0071333D01*
X0059241Y0071335D01*
X0059232Y0071341D01*
X0059218Y0071352D01*
X0059202Y0071363D01*
X005918Y0071374D01*
X0059155Y0071385D01*
X0059127Y0071391D01*
X0059096Y0071394D01*
D02*
G37*
G36*
Y0070775D02*
X0058813D01*
Y0070203D01*
X0059116D01*
X0059138Y0070208D01*
X0059166Y0070214D01*
X0059199Y0070222D01*
X0059232Y0070236D01*
X0059266Y0070255D01*
X0059299Y0070283D01*
X0059302Y0070286D01*
X0059313Y0070297D01*
X0059327Y0070316D01*
X0059341Y0070341D01*
X0059357Y0070369D01*
X0059368Y0070405D01*
X005938Y0070444D01*
X0059382Y0070489D01*
Y0070491D01*
Y0070494D01*
Y0070508D01*
X0059377Y007053D01*
X0059371Y0070558D01*
X0059363Y0070591D01*
X0059346Y0070625D01*
X0059327Y0070658D01*
X0059299Y0070691D01*
X0059296Y0070694D01*
X0059285Y0070705D01*
X0059266Y0070719D01*
X0059243Y0070733D01*
X0059213Y007075D01*
X005918Y0070761D01*
X0059141Y0070772D01*
X0059096Y0070775D01*
D02*
G37*
G36*
X008894Y0068724D02*
X0088737Y0068089D01*
X0089143D01*
X008894Y0068724D01*
D02*
G37*
G36*
X0087596Y0068894D02*
X0087313D01*
Y0068477D01*
X008761D01*
X0087627Y006848D01*
X0087646Y0068486D01*
X0087669Y0068491D01*
X0087693Y0068502D01*
X0087716Y0068519D01*
X0087741Y0068538D01*
X0087743Y0068541D01*
X0087752Y0068549D01*
X008776Y0068563D01*
X0087774Y006858D01*
X0087785Y0068602D01*
X0087793Y0068627D01*
X0087802Y0068655D01*
X0087805Y0068685D01*
Y0068688D01*
Y0068699D01*
X0087802Y0068716D01*
X0087796Y0068735D01*
X0087791Y006876D01*
X008778Y0068783D01*
X0087763Y0068808D01*
X0087743Y0068833D01*
X0087741Y0068835D01*
X0087732Y0068841D01*
X0087718Y0068852D01*
X0087702Y0068863D01*
X008768Y0068874D01*
X0087655Y0068885D01*
X0087627Y0068891D01*
X0087596Y0068894D01*
D02*
G37*
G36*
Y0068275D02*
X0087313D01*
Y0067703D01*
X0087616D01*
X0087638Y0067708D01*
X0087666Y0067714D01*
X0087699Y0067722D01*
X0087732Y0067736D01*
X0087766Y0067755D01*
X0087799Y0067783D01*
X0087802Y0067786D01*
X0087813Y0067797D01*
X0087827Y0067816D01*
X0087841Y0067841D01*
X0087857Y0067869D01*
X0087868Y0067905D01*
X008788Y0067944D01*
X0087882Y0067989D01*
Y0067991D01*
Y0067994D01*
Y0068008D01*
X0087877Y006803D01*
X0087871Y0068058D01*
X0087863Y0068091D01*
X0087846Y0068125D01*
X0087827Y0068158D01*
X0087799Y0068191D01*
X0087796Y0068194D01*
X0087785Y0068205D01*
X0087766Y0068219D01*
X0087743Y0068233D01*
X0087713Y006825D01*
X008768Y0068261D01*
X0087641Y0068272D01*
X0087596Y0068275D01*
D02*
G37*
%LPD*%
D10*
X0084Y0071D02*
D03*
Y0068D02*
D03*
X0064D02*
D03*
Y0071D02*
D03*
D11*
X007146Y007327D02*
D03*
X007654D02*
D03*
X0074D02*
D03*
Y007073D02*
D03*
X007654D02*
D03*
D12*
X007146D02*
D03*
D13*
X0055Y0053D02*
D03*
X0093D02*
D03*
M02*
