G04*
G04 #@! TF.GenerationSoftware,Altium Limited,Altium Designer,20.1.8 (145)*
G04*
G04 Layer_Physical_Order=2*
G04 Layer_Color=16711680*
%FSTAX43Y43*%
%MOMM*%
G71*
G04*
G04 #@! TF.SameCoordinates,6FD7267E-AB92-4DD8-86E6-B6500F98B660*
G04*
G04*
G04 #@! TF.FilePolarity,Positive*
G04*
G01*
G75*
%ADD14C,0.600*%
%ADD15C,2.300*%
%ADD16C,1.800*%
%ADD17P,1.948X8X22.5*%
%ADD18C,5.000*%
G36*
X0074303Y0074575D02*
X0074313Y0074494D01*
X007433Y0074414D01*
X0074353Y0074336D01*
X0074382Y0074261D01*
X0074419Y0074187D01*
X0074462Y0074116D01*
X0074511Y0074046D01*
X0074567Y0073978D01*
X007463Y0073913D01*
X007337D01*
X0073433Y0073978D01*
X0073489Y0074046D01*
X0073538Y0074116D01*
X0073581Y0074187D01*
X0073618Y0074261D01*
X0073647Y0074336D01*
X007367Y0074414D01*
X0073687Y0074494D01*
X0073697Y0074575D01*
X00737Y0074659D01*
X00743D01*
X0074303Y0074575D01*
D02*
G37*
G36*
X0083011Y007242D02*
X0083091Y0072362D01*
X0083177Y0072311D01*
X0083271Y0072267D01*
X0083373Y007223D01*
X0083481Y00722D01*
X0083597Y0072177D01*
X008372Y0072161D01*
X0083851Y0072152D01*
X0083989Y007215D01*
X008285Y0071011D01*
X0082848Y0071149D01*
X0082839Y007128D01*
X0082823Y0071403D01*
X00828Y0071519D01*
X008277Y0071627D01*
X0082733Y0071729D01*
X0082689Y0071823D01*
X0082638Y0071909D01*
X008258Y0071989D01*
X0082515Y0072061D01*
X0082939Y0072485D01*
X0083011Y007242D01*
D02*
G37*
G36*
X006492Y0071709D02*
X0065019Y0071623D01*
X0065117Y0071547D01*
X0065215Y0071482D01*
X0065313Y0071426D01*
X0065411Y0071381D01*
X0065509Y0071345D01*
X0065606Y007132D01*
X0065703Y0071305D01*
X00658Y00713D01*
Y00707D01*
X0065703Y0070695D01*
X0065606Y007068D01*
X0065509Y0070655D01*
X0065411Y0070619D01*
X0065313Y0070574D01*
X0065215Y0070518D01*
X0065117Y0070453D01*
X0065019Y0070377D01*
X006492Y0070291D01*
X0064821Y0070195D01*
Y0071805D01*
X006492Y0071709D01*
D02*
G37*
G36*
X0074567Y0070022D02*
X0074511Y0069954D01*
X0074462Y0069884D01*
X0074419Y0069813D01*
X0074382Y0069739D01*
X0074353Y0069664D01*
X007433Y0069586D01*
X0074313Y0069506D01*
X0074303Y0069425D01*
X00743Y0069341D01*
X00737D01*
X0073697Y0069425D01*
X0073687Y0069506D01*
X007367Y0069586D01*
X0073647Y0069664D01*
X0073618Y0069739D01*
X0073581Y0069813D01*
X0073538Y0069884D01*
X0073489Y0069954D01*
X0073433Y0070022D01*
X007337Y0070087D01*
X007463D01*
X0074567Y0070022D01*
D02*
G37*
G36*
X0077018Y0074942D02*
X0077291Y0074829D01*
X0077536Y0074665D01*
X0077745Y0074456D01*
X0077909Y0074211D01*
X0078022Y0073938D01*
X007808Y0073648D01*
Y00735D01*
Y00705D01*
Y0070352D01*
X0078022Y0070062D01*
X0077909Y0069789D01*
X0077745Y0069544D01*
X0077536Y0069335D01*
X0077291Y0069171D01*
X0077018Y0069058D01*
X0076728Y0069D01*
X0076432D01*
X0076142Y0069058D01*
X0075869Y0069171D01*
X0075624Y0069335D01*
X0075415Y0069544D01*
X0075251Y0069789D01*
X0075138Y0070062D01*
X007508Y0070352D01*
Y00705D01*
Y0070506D01*
X0075109Y007073D01*
X007508Y0070954D01*
Y0073046D01*
X0075109Y007327D01*
X007508Y0073494D01*
Y00735D01*
Y0073648D01*
X0075138Y0073938D01*
X0075251Y0074211D01*
X0075415Y0074456D01*
X0075624Y0074665D01*
X0075869Y0074829D01*
X0076142Y0074942D01*
X0076432Y0075D01*
X0076728D01*
X0077018Y0074942D01*
D02*
G37*
G36*
X0071838Y0074842D02*
X0072111Y0074729D01*
X0072356Y0074565D01*
X0072565Y0074356D01*
X0072729Y0074111D01*
X0072842Y0073838D01*
X00729Y0073548D01*
Y00734D01*
Y0073342D01*
X0072891Y007327D01*
X00729Y0073198D01*
Y0070802D01*
X0072891Y007073D01*
X00729Y0070658D01*
Y00704D01*
Y0070252D01*
X0072842Y0069962D01*
X0072729Y0069689D01*
X0072565Y0069444D01*
X0072356Y0069235D01*
X0072111Y0069071D01*
X0071838Y0068958D01*
X0071548Y00689D01*
X0071252D01*
X0070962Y0068958D01*
X0070689Y0069071D01*
X0070444Y0069235D01*
X0070235Y0069444D01*
X0070071Y0069689D01*
X0069958Y0069962D01*
X00699Y0070252D01*
Y00704D01*
Y00734D01*
Y0073548D01*
X0069958Y0073838D01*
X0070071Y0074111D01*
X0070235Y0074356D01*
X0070444Y0074565D01*
X0070689Y0074729D01*
X0070962Y0074842D01*
X0071252Y00749D01*
X0071548D01*
X0071838Y0074842D01*
D02*
G37*
G36*
X0083179Y0067195D02*
X008308Y0067291D01*
X0082981Y0067377D01*
X0082883Y0067453D01*
X0082785Y0067518D01*
X0082687Y0067574D01*
X0082589Y0067619D01*
X0082491Y0067655D01*
X0082394Y006768D01*
X0082297Y0067695D01*
X00822Y00677D01*
Y00683D01*
X0082297Y0068305D01*
X0082394Y006832D01*
X0082491Y0068345D01*
X0082589Y0068381D01*
X0082687Y0068426D01*
X0082785Y0068482D01*
X0082883Y0068547D01*
X0082981Y0068623D01*
X008308Y0068709D01*
X0083179Y0068805D01*
Y0067195D01*
D02*
G37*
G36*
X006492Y0068709D02*
X0065019Y0068623D01*
X0065117Y0068547D01*
X0065215Y0068482D01*
X0065313Y0068426D01*
X0065411Y0068381D01*
X0065509Y0068345D01*
X0065606Y006832D01*
X0065703Y0068305D01*
X00658Y00683D01*
Y00677D01*
X0065703Y0067695D01*
X0065606Y006768D01*
X0065509Y0067655D01*
X0065411Y0067619D01*
X0065313Y0067574D01*
X0065215Y0067518D01*
X0065117Y0067453D01*
X0065019Y0067377D01*
X006492Y0067291D01*
X0064821Y0067195D01*
Y0068805D01*
X006492Y0068709D01*
D02*
G37*
%LPC*%
G36*
X007679Y0074347D02*
Y007352D01*
X0077617D01*
X0077612Y0073557D01*
X0077501Y0073825D01*
X0077325Y0074055D01*
X0077095Y0074231D01*
X0076827Y0074342D01*
X007679Y0074347D01*
D02*
G37*
G36*
X007629D02*
X0076253Y0074342D01*
X0075985Y0074231D01*
X0075755Y0074055D01*
X0075579Y0073825D01*
X0075468Y0073557D01*
X0075463Y007352D01*
X007629D01*
Y0074347D01*
D02*
G37*
G36*
X0077617Y007302D02*
X007679D01*
Y0072193D01*
X0076827Y0072198D01*
X0077095Y0072309D01*
X0077325Y0072485D01*
X0077501Y0072715D01*
X0077612Y0072983D01*
X0077617Y007302D01*
D02*
G37*
G36*
X007629D02*
X0075463D01*
X0075468Y0072983D01*
X0075579Y0072715D01*
X0075755Y0072485D01*
X0075985Y0072309D01*
X0076253Y0072198D01*
X007629Y0072193D01*
Y007302D01*
D02*
G37*
G36*
X007679Y0071807D02*
Y007098D01*
X0077617D01*
X0077612Y0071017D01*
X0077501Y0071285D01*
X0077325Y0071515D01*
X0077095Y0071691D01*
X0076827Y0071802D01*
X007679Y0071807D01*
D02*
G37*
G36*
X007629D02*
X0076253Y0071802D01*
X0075985Y0071691D01*
X0075755Y0071515D01*
X0075579Y0071285D01*
X0075468Y0071017D01*
X0075463Y007098D01*
X007629D01*
Y0071807D01*
D02*
G37*
G36*
X0077617Y007048D02*
X007679D01*
Y0070087D01*
X007717D01*
X0077107Y0070022D01*
X0077051Y0069954D01*
X0077002Y0069884D01*
X0076959Y0069813D01*
X0076923Y0069739D01*
X0076903Y006969D01*
X0077095Y0069769D01*
X0077325Y0069945D01*
X0077501Y0070175D01*
X0077612Y0070443D01*
X0077617Y007048D01*
D02*
G37*
G36*
X007629D02*
X0075463D01*
X0075468Y0070443D01*
X0075579Y0070175D01*
X0075755Y0069945D01*
X0075985Y0069769D01*
X0076177Y006969D01*
X0076158Y0069739D01*
X0076121Y0069813D01*
X0076078Y0069884D01*
X0076029Y0069954D01*
X0075973Y0070022D01*
X007591Y0070087D01*
X007629D01*
Y007048D01*
D02*
G37*
G36*
X007171Y0074347D02*
Y007352D01*
X0072537D01*
X0072532Y0073557D01*
X0072421Y0073825D01*
X0072245Y0074055D01*
X0072015Y0074231D01*
X0071747Y0074342D01*
X007171Y0074347D01*
D02*
G37*
G36*
X007121D02*
X0071173Y0074342D01*
X0070905Y0074231D01*
X0070675Y0074055D01*
X0070499Y0073825D01*
X0070388Y0073557D01*
X0070383Y007352D01*
X007121D01*
Y0074347D01*
D02*
G37*
G36*
X0072537Y007302D02*
X007171D01*
Y0072193D01*
X0071747Y0072198D01*
X0072015Y0072309D01*
X0072245Y0072485D01*
X0072421Y0072715D01*
X0072532Y0072983D01*
X0072537Y007302D01*
D02*
G37*
G36*
X007121D02*
X0070383D01*
X0070388Y0072983D01*
X0070499Y0072715D01*
X0070675Y0072485D01*
X0070905Y0072309D01*
X0071173Y0072198D01*
X007121Y0072193D01*
Y007302D01*
D02*
G37*
G36*
X007201Y007183D02*
X007171D01*
Y007098D01*
X007256D01*
Y007128D01*
X007201Y007183D01*
D02*
G37*
G36*
X007121D02*
X007091D01*
X007036Y007128D01*
Y0071059D01*
X0070445Y0071078D01*
X0070528Y0071104D01*
X0070596Y0071137D01*
X0070649Y0071176D01*
X0070687Y0071221D01*
X0070709Y0071271D01*
X0070717Y0071328D01*
Y007098D01*
X007121D01*
Y007183D01*
D02*
G37*
G36*
Y007048D02*
X0070717D01*
Y0070132D01*
X0070709Y0070189D01*
X0070687Y0070239D01*
X0070649Y0070284D01*
X0070596Y0070323D01*
X0070528Y0070356D01*
X0070445Y0070382D01*
X007036Y0070401D01*
Y007018D01*
X007091Y006963D01*
X007121D01*
Y007048D01*
D02*
G37*
G36*
X007256D02*
X007171D01*
Y006963D01*
X007201D01*
X007256Y007018D01*
Y007048D01*
D02*
G37*
%LPD*%
D14*
X00795Y00755D02*
X0084Y0071D01*
X00745Y00755D02*
X00795D01*
X0074Y0075D02*
X00745Y00755D01*
X0074Y007327D02*
Y0075D01*
X0064Y0071D02*
X00675D01*
X006777Y007073D02*
X007146D01*
X00675Y0071D02*
X006777Y007073D01*
X0077Y0068D02*
X0084D01*
X007654Y006846D02*
Y007073D01*
Y006846D02*
X0077Y0068D01*
X0074Y00685D02*
Y007073D01*
X0064Y0068D02*
X00735D01*
X0074Y00685D01*
D15*
X0084Y0071D02*
D03*
Y0068D02*
D03*
X0064D02*
D03*
Y0071D02*
D03*
D16*
X007146Y007327D02*
D03*
X007654D02*
D03*
X0074D02*
D03*
Y007073D02*
D03*
X007654D02*
D03*
D17*
X007146D02*
D03*
D18*
X0055Y0053D02*
D03*
X0093D02*
D03*
M02*
