G04*
G04 #@! TF.GenerationSoftware,Altium Limited,Altium Designer,20.1.8 (145)*
G04*
G04 Layer_Physical_Order=1*
G04 Layer_Color=255*
%FSTAX43Y43*%
%MOMM*%
G71*
G04*
G04 #@! TF.SameCoordinates,B34475FB-C3A6-4C53-AFA9-1BD6AB5E634D*
G04*
G04*
G04 #@! TF.FilePolarity,Positive*
G04*
G01*
G75*
%ADD12C,0.200*%
%ADD33R,0.850X0.800*%
G04:AMPARAMS|DCode=34|XSize=0.75mm|YSize=0.6mm|CornerRadius=0.15mm|HoleSize=0mm|Usage=FLASHONLY|Rotation=0.000|XOffset=0mm|YOffset=0mm|HoleType=Round|Shape=RoundedRectangle|*
%AMROUNDEDRECTD34*
21,1,0.750,0.300,0,0,0.0*
21,1,0.450,0.600,0,0,0.0*
1,1,0.300,0.225,-0.150*
1,1,0.300,-0.225,-0.150*
1,1,0.300,-0.225,0.150*
1,1,0.300,0.225,0.150*
%
%ADD34ROUNDEDRECTD34*%
%ADD35R,0.800X0.850*%
G04:AMPARAMS|DCode=36|XSize=0.75mm|YSize=0.6mm|CornerRadius=0.15mm|HoleSize=0mm|Usage=FLASHONLY|Rotation=90.000|XOffset=0mm|YOffset=0mm|HoleType=Round|Shape=RoundedRectangle|*
%AMROUNDEDRECTD36*
21,1,0.750,0.300,0,0,90.0*
21,1,0.450,0.600,0,0,90.0*
1,1,0.300,0.150,0.225*
1,1,0.300,0.150,-0.225*
1,1,0.300,-0.150,-0.225*
1,1,0.300,-0.150,0.225*
%
%ADD36ROUNDEDRECTD36*%
G04:AMPARAMS|DCode=37|XSize=0.4mm|YSize=1mm|CornerRadius=0.1mm|HoleSize=0mm|Usage=FLASHONLY|Rotation=180.000|XOffset=0mm|YOffset=0mm|HoleType=Round|Shape=RoundedRectangle|*
%AMROUNDEDRECTD37*
21,1,0.400,0.800,0,0,180.0*
21,1,0.200,1.000,0,0,180.0*
1,1,0.200,-0.100,0.400*
1,1,0.200,0.100,0.400*
1,1,0.200,0.100,-0.400*
1,1,0.200,-0.100,-0.400*
%
%ADD37ROUNDEDRECTD37*%
G04:AMPARAMS|DCode=38|XSize=0.6mm|YSize=1mm|CornerRadius=0.15mm|HoleSize=0mm|Usage=FLASHONLY|Rotation=180.000|XOffset=0mm|YOffset=0mm|HoleType=Round|Shape=RoundedRectangle|*
%AMROUNDEDRECTD38*
21,1,0.600,0.700,0,0,180.0*
21,1,0.300,1.000,0,0,180.0*
1,1,0.300,-0.150,0.350*
1,1,0.300,0.150,0.350*
1,1,0.300,0.150,-0.350*
1,1,0.300,-0.150,-0.350*
%
%ADD38ROUNDEDRECTD38*%
G04:AMPARAMS|DCode=39|XSize=0.6mm|YSize=1mm|CornerRadius=0.15mm|HoleSize=0mm|Usage=FLASHONLY|Rotation=90.000|XOffset=0mm|YOffset=0mm|HoleType=Round|Shape=RoundedRectangle|*
%AMROUNDEDRECTD39*
21,1,0.600,0.700,0,0,90.0*
21,1,0.300,1.000,0,0,90.0*
1,1,0.300,0.350,0.150*
1,1,0.300,0.350,-0.150*
1,1,0.300,-0.350,-0.150*
1,1,0.300,-0.350,0.150*
%
%ADD39ROUNDEDRECTD39*%
%ADD40R,0.500X0.350*%
%ADD41R,1.000X0.900*%
%ADD42R,2.500X2.300*%
G04:AMPARAMS|DCode=43|XSize=0.4mm|YSize=0.48mm|CornerRadius=0.1mm|HoleSize=0mm|Usage=FLASHONLY|Rotation=180.000|XOffset=0mm|YOffset=0mm|HoleType=Round|Shape=RoundedRectangle|*
%AMROUNDEDRECTD43*
21,1,0.400,0.280,0,0,180.0*
21,1,0.200,0.480,0,0,180.0*
1,1,0.200,-0.100,0.140*
1,1,0.200,0.100,0.140*
1,1,0.200,0.100,-0.140*
1,1,0.200,-0.100,-0.140*
%
%ADD43ROUNDEDRECTD43*%
G04:AMPARAMS|DCode=44|XSize=0.4mm|YSize=0.75mm|CornerRadius=0.1mm|HoleSize=0mm|Usage=FLASHONLY|Rotation=0.000|XOffset=0mm|YOffset=0mm|HoleType=Round|Shape=RoundedRectangle|*
%AMROUNDEDRECTD44*
21,1,0.400,0.550,0,0,0.0*
21,1,0.200,0.750,0,0,0.0*
1,1,0.200,0.100,-0.275*
1,1,0.200,-0.100,-0.275*
1,1,0.200,-0.100,0.275*
1,1,0.200,0.100,0.275*
%
%ADD44ROUNDEDRECTD44*%
G04:AMPARAMS|DCode=45|XSize=0.3mm|YSize=0.75mm|CornerRadius=0.075mm|HoleSize=0mm|Usage=FLASHONLY|Rotation=90.000|XOffset=0mm|YOffset=0mm|HoleType=Round|Shape=RoundedRectangle|*
%AMROUNDEDRECTD45*
21,1,0.300,0.600,0,0,90.0*
21,1,0.150,0.750,0,0,90.0*
1,1,0.150,0.300,0.075*
1,1,0.150,0.300,-0.075*
1,1,0.150,-0.300,-0.075*
1,1,0.150,-0.300,0.075*
%
%ADD45ROUNDEDRECTD45*%
G04:AMPARAMS|DCode=46|XSize=0.3mm|YSize=0.75mm|CornerRadius=0.075mm|HoleSize=0mm|Usage=FLASHONLY|Rotation=0.000|XOffset=0mm|YOffset=0mm|HoleType=Round|Shape=RoundedRectangle|*
%AMROUNDEDRECTD46*
21,1,0.300,0.600,0,0,0.0*
21,1,0.150,0.750,0,0,0.0*
1,1,0.150,0.075,-0.300*
1,1,0.150,-0.075,-0.300*
1,1,0.150,-0.075,0.300*
1,1,0.150,0.075,0.300*
%
%ADD46ROUNDEDRECTD46*%
%ADD47R,3.400X3.400*%
%ADD48R,0.850X0.850*%
%ADD49C,0.300*%
%ADD50C,1.500*%
%ADD51C,1.000*%
%ADD52C,0.600*%
G36*
X0106177Y0111819D02*
X0106182Y011176D01*
X0106184Y011175D01*
X0106186Y0111743D01*
X0106189Y0111737D01*
X0106192Y0111733D01*
X0106196Y0111732D01*
X010596Y0111715D01*
X0105963Y0111717D01*
X0105966Y0111722D01*
X0105969Y0111729D01*
X0105971Y0111738D01*
X0105973Y0111749D01*
X0105975Y0111778D01*
X0105977Y0111816D01*
X0105977Y0111839D01*
X0106177D01*
X0106177Y0111819D01*
D02*
G37*
G36*
X0099648Y0111463D02*
X009967Y0111444D01*
X0099694Y0111428D01*
X0099718Y0111413D01*
X0099742Y0111401D01*
X0099767Y0111391D01*
X0099793Y0111384D01*
X009982Y0111378D01*
X0099847Y0111375D01*
X0099875Y0111374D01*
Y0111174D01*
X0099847Y0111173D01*
X009982Y0111169D01*
X0099793Y0111164D01*
X0099767Y0111156D01*
X0099742Y0111146D01*
X0099718Y0111134D01*
X0099694Y011112D01*
X009967Y0111103D01*
X0099648Y0111085D01*
X0099626Y0111064D01*
Y0111484D01*
X0099648Y0111463D01*
D02*
G37*
G36*
X0109943Y0110286D02*
X0109947Y0110251D01*
X0109954Y0110219D01*
X0109964Y0110189D01*
X0109976Y0110162D01*
X0109991Y0110137D01*
X0110009Y0110114D01*
X011003Y0110093D01*
X0110053Y0110075D01*
X0110079Y0110059D01*
X0109604D01*
X010963Y0110075D01*
X0109654Y0110093D01*
X0109674Y0110114D01*
X0109692Y0110137D01*
X0109707Y0110162D01*
X010972Y0110189D01*
X0109729Y0110219D01*
X0109736Y0110251D01*
X010974Y0110286D01*
X0109742Y0110322D01*
X0109942D01*
X0109943Y0110286D01*
D02*
G37*
G36*
X0087741Y0110457D02*
X0087716Y0110428D01*
X0087693Y0110395D01*
X0087674Y0110357D01*
X0087657Y0110316D01*
X0087642Y011027D01*
X0087631Y0110219D01*
X0087622Y0110164D01*
X0087616Y0110105D01*
X0087612Y0109974D01*
X0087117Y0110469D01*
X0087185Y0110469D01*
X0087307Y0110479D01*
X0087362Y0110488D01*
X0087413Y0110499D01*
X0087459Y0110514D01*
X00875Y0110531D01*
X0087538Y011055D01*
X0087571Y0110573D01*
X00876Y0110598D01*
X0087741Y0110457D01*
D02*
G37*
G36*
X0084113Y0110573D02*
X0084146Y011055D01*
X0084183Y0110531D01*
X0084225Y0110514D01*
X0084271Y0110499D01*
X0084322Y0110488D01*
X0084376Y0110479D01*
X0084435Y0110473D01*
X0084567Y0110469D01*
X0084072Y0109974D01*
X0084071Y0110042D01*
X0084062Y0110164D01*
X0084053Y0110219D01*
X0084041Y011027D01*
X0084027Y0110316D01*
X008401Y0110357D01*
X008399Y0110395D01*
X0083968Y0110428D01*
X0083943Y0110457D01*
X0084084Y0110598D01*
X0084113Y0110573D01*
D02*
G37*
G36*
X0088812Y0110469D02*
X0088812Y0110469D01*
Y0109669D01*
X0088812Y0109669D01*
Y0108569D01*
X0089206D01*
Y0107819D01*
X0088712D01*
Y0107068D01*
X0088585Y0106964D01*
X0088512Y0106979D01*
X0088317Y010694D01*
X0088151Y0106829D01*
X0088106Y0106762D01*
X0087953D01*
X0087915Y0106819D01*
X008775Y0106929D01*
X0087555Y0106968D01*
X0087439Y0106945D01*
X0087312Y0107038D01*
Y0107819D01*
X0086128D01*
X0086124Y0107836D01*
X0086058Y0107935D01*
X0086058Y0107935D01*
X0084908Y0109085D01*
X0084809Y0109151D01*
X0084787Y0109156D01*
X0084758Y0109278D01*
X0084762Y010929D01*
X0084925Y0109357D01*
X0085071Y010947D01*
X0085128Y0109544D01*
X0085285D01*
X0085343Y010947D01*
X0085489Y0109357D01*
X0085659Y0109287D01*
X0085842Y0109263D01*
X0086025Y0109287D01*
X0086195Y0109357D01*
X0086341Y010947D01*
X0086398Y0109544D01*
X0086555D01*
X0086613Y010947D01*
X0086759Y0109357D01*
X0086929Y0109287D01*
X0087112Y0109263D01*
X0087295Y0109287D01*
X0087465Y0109357D01*
X0087611Y010947D01*
X0087723Y0109616D01*
X0087794Y0109786D01*
X0087818Y0109969D01*
X0087816Y0109982D01*
X0087819Y0110091D01*
X0087824Y0110138D01*
X0087831Y011018D01*
X0087839Y0110217D01*
X0087849Y0110247D01*
X0087859Y0110271D01*
X0087868Y011029D01*
X0087875Y01103D01*
X0088188Y0110613D01*
X0088812D01*
Y0110469D01*
D02*
G37*
G36*
X0101918Y0112183D02*
X0101721Y0111985D01*
X0101654Y0111886D01*
X0101651Y0111869D01*
X0101312D01*
Y0110669D01*
X0101312D01*
Y0110569D01*
X0101312D01*
Y0109369D01*
X0102104D01*
X0102506Y0108967D01*
X0102464Y0108829D01*
X0102417Y010882D01*
X0102281Y0108729D01*
X0102189Y0108821D01*
X0102073Y0108898D01*
X0101937Y0108926D01*
X0101862D01*
Y0109169D01*
X0100818D01*
Y0109369D01*
X0101112D01*
Y0110569D01*
X0101112D01*
Y0110669D01*
X0101112D01*
Y0111869D01*
X0099862D01*
Y0111716D01*
X0099854Y0111708D01*
X0099735Y0111659D01*
X0099607Y0111745D01*
X0099412Y0111784D01*
X0099217Y0111745D01*
X0099051Y0111634D01*
X0098941Y0111469D01*
X0098902Y0111274D01*
X0098941Y0111079D01*
X0099051Y0110913D01*
X0099217Y0110803D01*
X0099412Y0110764D01*
X0099607Y0110803D01*
X0099735Y0110888D01*
X0099854Y0110839D01*
X0099862Y0110832D01*
Y0110669D01*
X0099862D01*
Y0110569D01*
X0099862D01*
Y0109369D01*
X0100206D01*
Y0109169D01*
X0099162D01*
Y0108875D01*
X0095812D01*
X0095695Y0108851D01*
X0095596Y0108785D01*
X0095596Y0108785D01*
X0092085Y0105275D01*
X0091612D01*
Y0107819D01*
X0089818D01*
Y0108569D01*
X0090212D01*
Y0109669D01*
X0090212Y0109669D01*
Y0110469D01*
X0090212Y0110469D01*
Y0111569D01*
X0088812D01*
Y0111225D01*
X0088062D01*
X0087945Y0111201D01*
X0087941Y0111199D01*
X0087869Y0111222D01*
X0087844Y0111236D01*
X0087814Y0111267D01*
X0087794Y0111422D01*
X0087723Y0111592D01*
X0087611Y0111738D01*
X0087465Y011185D01*
X0087295Y0111921D01*
X0087112Y0111945D01*
X0086929Y0111921D01*
X0086759Y011185D01*
X0086613Y0111738D01*
X0086555Y0111664D01*
X0086398D01*
X0086341Y0111738D01*
X0086195Y011185D01*
X0086025Y0111921D01*
X0085842Y0111945D01*
X0085659Y0111921D01*
X0085489Y011185D01*
X0085343Y0111738D01*
X0085321Y011171D01*
X0085161D01*
X0085141Y0111736D01*
X0085139Y0111735D01*
X0085113Y0111699D01*
X008509Y0111661D01*
X0085073Y0111621D01*
X008506Y011158D01*
X0085051Y0111537D01*
X0085047Y0111492D01*
X0085047Y0111445D01*
X0085051Y0111396D01*
X008506Y0111345D01*
X0084475Y0111729D01*
X0084531Y0111742D01*
X0084635Y0111772D01*
X0084683Y0111789D01*
X0084728Y0111809D01*
X0084771Y011183D01*
X008481Y0111854D01*
X0084847Y0111879D01*
X008488Y0111906D01*
X0084896Y011192D01*
X0084769Y0111973D01*
X0084572Y0111999D01*
X0084375Y0111973D01*
X0084192Y0111897D01*
X0084136Y0111855D01*
X0084662Y0111329D01*
X0084482Y0111149D01*
X0083956Y0111675D01*
X0083913Y0111619D01*
X0083837Y0111436D01*
X0083819Y01113D01*
X0083802Y0111279D01*
X0083708Y0111216D01*
X0083687Y0111212D01*
X0083622Y0111225D01*
X0083622Y0111225D01*
X0083112D01*
Y0111569D01*
X0081712D01*
Y0110469D01*
X0081712Y0110469D01*
Y0109669D01*
X0081712Y0109669D01*
Y0108569D01*
X0082732D01*
X0082762Y0108563D01*
X0082762Y0108563D01*
X0084565D01*
X0085192Y0107936D01*
X0085143Y0107819D01*
X0084412D01*
Y0105119D01*
X0087312D01*
Y0105878D01*
X0087439Y0105972D01*
X0087555Y0105949D01*
X008775Y0105987D01*
X0087915Y0106098D01*
X0087961Y0106165D01*
X0088113D01*
X0088151Y0106108D01*
X0088317Y0105998D01*
X0088512Y0105959D01*
X0088585Y0105974D01*
X0088712Y0105869D01*
Y0105275D01*
X0088412D01*
X0088295Y0105251D01*
X0088196Y0105185D01*
X0088196Y0105185D01*
X0088007Y0104997D01*
X0087999Y0104991D01*
X0087991Y0104987D01*
X0087982Y0104983D01*
X0087972Y0104979D01*
X008796Y0104977D01*
X0087948Y0104975D01*
X0087937Y0104974D01*
X0087912Y0104979D01*
X0087717Y010494D01*
X0087551Y0104829D01*
X0087441Y0104664D01*
X0087402Y0104469D01*
X0087441Y0104274D01*
X0087489Y0104202D01*
X0087421Y0104075D01*
X0083112D01*
X0083112Y0104075D01*
X0082995Y0104051D01*
X0082896Y0103985D01*
X0082896Y0103985D01*
X0082196Y0103285D01*
X0082129Y0103186D01*
X0082106Y0103069D01*
X0082106Y0103069D01*
Y0097155D01*
X0081979Y0097093D01*
X0081894Y0097149D01*
X0081737Y0097181D01*
X0081287D01*
X0081129Y0097149D01*
X0081103Y0097132D01*
X0081527Y0096709D01*
X0081437Y0096619D01*
X0081512Y0096544D01*
X0081677Y0096709D01*
X0082102Y0096283D01*
X0082209Y0096305D01*
X0082245Y0096303D01*
X0082796Y0095753D01*
X0082813Y0095741D01*
X0082845Y009561D01*
X0082831Y0095588D01*
X0082779Y0095511D01*
X0082762Y0095425D01*
X0082054D01*
X0081989Y0095521D01*
X0081873Y0095599D01*
X0081737Y0095626D01*
X0081287D01*
X008115Y0095599D01*
X0081034Y0095521D01*
X0080957Y0095405D01*
X008093Y0095269D01*
Y0094969D01*
X0080957Y0094832D01*
X0081034Y0094716D01*
X008115Y0094639D01*
X0081206Y0094628D01*
Y0094219D01*
X0080912D01*
Y0092969D01*
X0082112D01*
Y0093288D01*
X0082246D01*
X0082256Y0093286D01*
X0082265Y0093283D01*
X0082274Y009328D01*
X0082283Y0093275D01*
X0082293Y0093269D01*
X0082304Y0093262D01*
X0082312Y0093255D01*
X0082326Y0093233D01*
X0082492Y0093123D01*
X0082687Y0093084D01*
X0082882Y0093123D01*
X0083047Y0093233D01*
X0083158Y0093399D01*
X0083197Y0093594D01*
X0083158Y0093789D01*
X0083047Y0093954D01*
X0082882Y0094065D01*
X0082687Y0094104D01*
X0082492Y0094065D01*
X0082326Y0093954D01*
X0082312Y0093933D01*
X0082304Y0093926D01*
X0082293Y0093919D01*
X0082283Y0093913D01*
X0082274Y0093908D01*
X0082265Y0093904D01*
X0082256Y0093902D01*
X0082246Y00939D01*
X0082112D01*
Y0094219D01*
X0081818D01*
Y0094628D01*
X0081873Y0094639D01*
X0081989Y0094716D01*
X0082054Y0094813D01*
X0082762D01*
X0082779Y0094727D01*
X0082846Y0094628D01*
X0082945Y0094561D01*
X0083062Y0094538D01*
X0083262D01*
X0083379Y0094561D01*
X0083478Y0094628D01*
X0083544Y0094727D01*
X0083568Y0094844D01*
Y0095394D01*
X0083544Y0095511D01*
X0083528Y0095536D01*
X0083596Y0095663D01*
X0084028D01*
X0084096Y0095536D01*
X0084079Y0095511D01*
X0084056Y0095394D01*
Y0094844D01*
X0084079Y0094727D01*
X0084146Y0094628D01*
X0084245Y0094561D01*
X0084362Y0094538D01*
X0084562D01*
X0084679Y0094561D01*
X0084778Y0094628D01*
X0084844Y0094727D01*
X0084862Y0094813D01*
X008537D01*
X0085434Y0094716D01*
X008555Y0094639D01*
X0085606Y0094628D01*
Y0094445D01*
X0085606Y0094445D01*
X0085629Y0094327D01*
X0085696Y0094228D01*
X0085871Y0094053D01*
X0085871Y0094053D01*
X008597Y0093986D01*
X0086088Y0093963D01*
X0086088Y0093963D01*
X00865D01*
X0086501Y0093963D01*
X0086507Y009396D01*
X008653Y0093943D01*
X0086554Y0093911D01*
X0086578Y0093836D01*
X0086573Y0093827D01*
X0086549Y0093794D01*
X0086479Y0093712D01*
X0086445Y0093678D01*
X0086433Y0093668D01*
X0086375Y0093594D01*
X0086218D01*
X0086161Y0093668D01*
X0086015Y009378D01*
X0085845Y0093851D01*
X0085662Y0093875D01*
X0085479Y0093851D01*
X0085309Y009378D01*
X0085163Y0093668D01*
X0085105Y0093594D01*
X0084948D01*
X0084891Y0093668D01*
X0084745Y009378D01*
X0084575Y0093851D01*
X0084392Y0093875D01*
X0084209Y0093851D01*
X0084039Y009378D01*
X0083893Y0093668D01*
X008378Y0093522D01*
X008371Y0093352D01*
X0083686Y0093169D01*
X008371Y0092986D01*
X008378Y0092816D01*
X0083893Y009267D01*
X0083967Y0092612D01*
Y0092455D01*
X0083893Y0092398D01*
X0083884Y0092387D01*
X0083805Y0092312D01*
X0083769Y0092283D01*
X0083734Y0092258D01*
X0083702Y0092238D01*
X0083674Y0092223D01*
X008365Y0092213D01*
X008363Y0092207D01*
X0083618Y0092205D01*
X0083084D01*
X0082928Y009236D01*
X0082829Y0092426D01*
X0082712Y009245D01*
X0082712Y009245D01*
X0082112D01*
Y0092769D01*
X0080912D01*
Y0091519D01*
X0082112D01*
Y0091838D01*
X0082585D01*
X0082741Y0091683D01*
X0082741Y0091683D01*
X008284Y0091616D01*
X0082957Y0091593D01*
X0082957Y0091593D01*
X0083618D01*
X008363Y0091591D01*
X008365Y0091584D01*
X0083674Y0091574D01*
X0083702Y0091559D01*
X0083734Y009154D01*
X0083767Y0091516D01*
X0083848Y0091446D01*
X0083883Y0091412D01*
X0083893Y00914D01*
X0084039Y0091287D01*
X0084209Y0091217D01*
X0084392Y0091193D01*
X0084575Y0091217D01*
X0084745Y0091287D01*
X0084891Y00914D01*
X0084948Y0091474D01*
X0085105D01*
X0085163Y00914D01*
X0085309Y0091287D01*
X0085479Y0091217D01*
X0085567Y0091205D01*
X0085586Y0091199D01*
X0085653Y0091191D01*
X008571Y0091182D01*
X0085813Y009116D01*
X0085851Y0091149D01*
X0085885Y0091136D01*
X0085912Y0091124D01*
X0085932Y0091113D01*
X0085942Y0091106D01*
X0086093Y0090955D01*
X0086041Y0090828D01*
X0079771D01*
Y0092569D01*
Y011231D01*
X0101866D01*
X0101918Y0112183D01*
D02*
G37*
G36*
X0102839Y0108547D02*
X0102854Y0108537D01*
X0102871Y0108528D01*
X010289Y010852D01*
X0102912Y0108514D01*
X0102935Y0108508D01*
X0102961Y0108504D01*
X0102989Y0108501D01*
X0103052Y0108499D01*
Y0108199D01*
X0103019Y0108198D01*
X0102961Y0108193D01*
X0102935Y0108189D01*
X0102912Y0108184D01*
X010289Y0108177D01*
X0102871Y0108169D01*
X0102854Y010816D01*
X0102839Y010815D01*
X0102826Y0108139D01*
X0102582Y0108349D01*
X0102372Y0108168D01*
X0102366Y0108174D01*
X0102357Y0108179D01*
X0102345Y0108184D01*
X0102329Y0108188D01*
X0102311Y0108191D01*
X0102206Y0108199D01*
X0102172Y0108199D01*
Y0108499D01*
X0102237Y01085D01*
X0102289Y0108504D01*
X0102311Y0108507D01*
X0102329Y010851D01*
X0102345Y0108514D01*
X0102357Y0108519D01*
X0102366Y0108524D01*
X0102372Y010853D01*
X0102582Y0108349D01*
X0102826Y0108559D01*
X0102839Y0108547D01*
D02*
G37*
G36*
X0111517Y0108651D02*
X0111611Y0108571D01*
X0111656Y0108539D01*
X01117Y0108511D01*
X0111742Y0108489D01*
X0111784Y0108471D01*
X0111824Y0108459D01*
X0111864Y0108451D01*
X0111902Y0108449D01*
Y0108249D01*
X0111864Y0108246D01*
X0111824Y0108239D01*
X0111784Y0108226D01*
X0111742Y0108209D01*
X01117Y0108186D01*
X0111656Y0108159D01*
X0111611Y0108126D01*
X0111565Y0108089D01*
X0111469Y0107999D01*
Y0108699D01*
X0111517Y0108651D01*
D02*
G37*
G36*
X0107887Y0109461D02*
X010789Y0109436D01*
X010796Y0109266D01*
X0108073Y010912D01*
X0108147Y0109062D01*
Y0108905D01*
X0108073Y0108848D01*
X010796Y0108702D01*
X010789Y0108532D01*
X0107866Y0108349D01*
X010789Y0108166D01*
X010796Y0107996D01*
X0108073Y010785D01*
X0108139Y0107799D01*
X0108095Y0107672D01*
X0108077D01*
X0108077Y0107672D01*
X010796Y0107649D01*
X0107861Y0107582D01*
X0107627Y0107349D01*
X010751Y0107412D01*
X0107522Y0107469D01*
X0107483Y0107664D01*
X0107372Y0107829D01*
X0107207Y010794D01*
X0107012Y0107979D01*
X0106817Y010794D01*
X0106763Y0107904D01*
X0106636Y0107972D01*
Y010839D01*
X0107752Y0109506D01*
X0107887Y0109461D01*
D02*
G37*
G36*
X0099162Y0107969D02*
X0100206D01*
Y0107125D01*
X0100079D01*
X0100014Y0107221D01*
X0099898Y0107299D01*
X0099762Y0107326D01*
X0099062D01*
X0098925Y0107299D01*
X0098809Y0107221D01*
X0098732Y0107105D01*
X0098705Y0106969D01*
Y0106669D01*
X0098732Y0106532D01*
X0098809Y0106416D01*
X0098761Y0106296D01*
X0098681Y0106176D01*
X009865Y0106019D01*
Y0105719D01*
X0098681Y0105561D01*
X0098761Y0105442D01*
X0098809Y0105321D01*
X0098732Y0105205D01*
X0098705Y0105069D01*
Y0104769D01*
X0098732Y0104632D01*
X0098809Y0104516D01*
X0098925Y0104439D01*
X0099062Y0104412D01*
X0099762D01*
X0099879Y0104435D01*
X0100006Y0104378D01*
Y0103958D01*
X0099687D01*
Y0102758D01*
X0100624D01*
X0100706Y0102669D01*
X0100729Y0102552D01*
X0100796Y0102453D01*
X0100996Y0102253D01*
X0101034Y0102226D01*
X0101076Y0102079D01*
X0101073Y0102061D01*
X0101049Y0102025D01*
X0100188D01*
X0100188Y0102025D01*
X010007Y0102001D01*
X0099971Y0101935D01*
X0099971Y0101935D01*
X0099796Y0101759D01*
X0099729Y010166D01*
X0099706Y0101543D01*
X0099706Y0101543D01*
Y0101019D01*
X0099412D01*
Y009999D01*
X0099153D01*
X0099119Y010004D01*
X009902Y0100106D01*
X0098903Y010013D01*
X0098703D01*
X0098586Y0100106D01*
X0098487Y010004D01*
X0098453Y009999D01*
X0097758D01*
X0097641Y0099966D01*
X0097542Y00999D01*
X0097542Y00999D01*
X0097396Y0099754D01*
X0097329Y0099654D01*
X0097306Y0099537D01*
X00973Y0099419D01*
X0097012D01*
Y0099075D01*
X0094212D01*
Y0099857D01*
X0094339Y0099909D01*
X0094745Y0099503D01*
X0094746Y0099503D01*
X0094845Y0099436D01*
X0094962Y0099413D01*
X0095126D01*
X0095135Y0099411D01*
X0095144Y0099408D01*
X0095154Y0099405D01*
X0095163Y00994D01*
X0095173Y0099394D01*
X0095183Y0099387D01*
X0095192Y009938D01*
X0095206Y0099358D01*
X0095371Y0099248D01*
X0095566Y0099209D01*
X0095762Y0099248D01*
X0095927Y0099358D01*
X0096037Y0099524D01*
X0096076Y0099719D01*
X0096037Y0099914D01*
X0095972Y0100012D01*
X0095937Y0100107D01*
X0095972Y0100202D01*
X0096037Y01003D01*
X0096076Y0100495D01*
X0096037Y010069D01*
X0095927Y0100855D01*
Y0100958D01*
X0095984Y0100996D01*
X0096095Y0101162D01*
X0096134Y0101357D01*
X0096095Y0101552D01*
X0095984Y0101717D01*
X0095819Y0101828D01*
X0095624Y0101867D01*
X0095429Y0101828D01*
X0095263Y0101717D01*
X0095254Y0101704D01*
X0095253Y0101703D01*
X0095241Y0101695D01*
X009523Y0101688D01*
X0095219Y0101683D01*
X0095209Y010168D01*
X0095199Y0101677D01*
X0095189Y0101675D01*
X0093852D01*
X0093852Y0101675D01*
X0093824Y0101669D01*
X0093762Y0101786D01*
X0094317Y0102341D01*
X0094325Y0102346D01*
X0094333Y0102351D01*
X0094342Y0102355D01*
X0094352Y0102358D01*
X0094363Y0102361D01*
X0094376Y0102363D01*
X0094386Y0102364D01*
X0094412Y0102359D01*
X0094607Y0102398D01*
X0094772Y0102508D01*
X0094883Y0102674D01*
X0094922Y0102869D01*
X0094883Y0103064D01*
X00948Y0103188D01*
X0094808Y0103339D01*
X0094816Y0103353D01*
X0094925Y0103516D01*
X0094964Y0103711D01*
X0094925Y0103906D01*
X0094814Y0104071D01*
X0094649Y0104182D01*
X0094454Y0104221D01*
X0094259Y0104182D01*
X0094093Y0104071D01*
X0093983Y0103906D01*
X0093944Y0103711D01*
X0093949Y0103685D01*
X0093948Y0103675D01*
X0093946Y0103662D01*
X0093943Y0103651D01*
X009394Y0103641D01*
X0093936Y0103632D01*
X0093931Y0103623D01*
X0093926Y0103616D01*
X0092885Y0102575D01*
X0092336D01*
X0092294Y0102603D01*
X0092187Y0102624D01*
X0091587D01*
X0091466Y0102723D01*
X0091441Y0102754D01*
X0091468Y0102921D01*
X0091478Y0102928D01*
X0092103Y0103553D01*
X0092103Y0103553D01*
X0092169Y0103652D01*
X0092193Y0103769D01*
X0092193Y0103769D01*
Y0103819D01*
X0092195Y0103829D01*
X0092197Y0103838D01*
X0092201Y0103847D01*
X0092206Y0103856D01*
X0092212Y0103866D01*
X0092219Y0103877D01*
X0092226Y0103885D01*
X0092247Y0103899D01*
X0092358Y0104065D01*
X0092397Y010426D01*
X0092358Y0104455D01*
X0092294Y010455D01*
X0092323Y0104663D01*
X0092344Y0104697D01*
X0092428Y0104753D01*
X0095938Y0108263D01*
X0099162D01*
Y0107969D01*
D02*
G37*
G36*
X010202Y0108019D02*
X0102157Y0107992D01*
X0102236D01*
X010225Y0107991D01*
X0102251Y0107988D01*
X0102417Y0107878D01*
X0102612Y0107839D01*
X0102807Y0107878D01*
X0102972Y0107988D01*
X0102972Y0107988D01*
X0102975Y0107989D01*
X0102986Y0107991D01*
X0102999Y0107992D01*
X0103244D01*
X0103266Y010797D01*
X0103382Y0107893D01*
X0103518Y0107865D01*
X0103936D01*
Y0107635D01*
X0103936Y0107622D01*
X0103936Y0107622D01*
X0103961Y0107519D01*
X0103961Y0107519D01*
Y0107126D01*
X0103834Y0107087D01*
X0103772Y0107179D01*
X0103607Y010729D01*
X0103412Y0107329D01*
X0103217Y010729D01*
X0103051Y0107179D01*
X0103037Y0107158D01*
X0103029Y0107151D01*
X0103018Y0107144D01*
X0103008Y0107138D01*
X0102999Y0107133D01*
X010299Y0107129D01*
X0102981Y0107127D01*
X0102971Y0107125D01*
X0102679D01*
X0102614Y0107221D01*
X0102498Y0107299D01*
X0102362Y0107326D01*
X0101662D01*
X0101525Y0107299D01*
X0101409Y0107221D01*
X0101332Y0107105D01*
X0101305Y0106969D01*
Y0106669D01*
X0101332Y0106532D01*
X0101409Y0106416D01*
X0101423Y0106407D01*
Y010628D01*
X0101409Y0106271D01*
X0101332Y0106155D01*
X0101305Y0106019D01*
Y0105719D01*
X0101332Y0105582D01*
X0101406Y0105472D01*
X0101421Y0105443D01*
X0101382Y0105319D01*
X0101289Y0105297D01*
X0101207Y0105352D01*
X0101012Y0105391D01*
X0100817Y0105352D01*
X0100651Y0105242D01*
X0100573Y0105124D01*
X0100424Y0105092D01*
X0100382Y0105135D01*
X0100282Y0105201D01*
X0100165Y0105225D01*
X0100165Y0105225D01*
X0100084D01*
X0100016Y0105326D01*
X0100062Y0105442D01*
X0100142Y0105561D01*
X0100174Y0105719D01*
Y0106019D01*
X0100142Y0106176D01*
X0100062Y0106296D01*
X0100016Y0106412D01*
X0100084Y0106513D01*
X0100365D01*
X0100365Y0106513D01*
X0100482Y0106536D01*
X0100582Y0106603D01*
X0100728Y0106749D01*
X0100728Y0106749D01*
X0100794Y0106848D01*
X0100818Y0106965D01*
Y0107969D01*
X0101862D01*
Y0107972D01*
X0101989Y010804D01*
X010202Y0108019D01*
D02*
G37*
G36*
X0111089Y0107217D02*
X0111092Y0107187D01*
X0111097Y010716D01*
X0111103Y0107135D01*
X0111112Y0107113D01*
X0111123Y0107094D01*
X0111135Y0107077D01*
X0111149Y0107063D01*
X0111166Y0107051D01*
X0111184Y0107041D01*
X0110792D01*
X0110811Y0107051D01*
X0110827Y0107063D01*
X0110841Y0107077D01*
X0110854Y0107094D01*
X0110864Y0107113D01*
X0110873Y0107135D01*
X0110879Y010716D01*
X0110884Y0107187D01*
X0110887Y0107217D01*
X0110888Y0107249D01*
X0111088D01*
X0111089Y0107217D01*
D02*
G37*
G36*
X0107192Y0107226D02*
X0107175Y0107207D01*
X010716Y0107186D01*
X0107147Y0107164D01*
X0107136Y0107141D01*
X0107128Y0107116D01*
X0107121Y0107091D01*
X0107116Y0107064D01*
X0107113Y0107035D01*
X0107112Y0107006D01*
X0106912D01*
X0106911Y0107035D01*
X0106908Y0107064D01*
X0106903Y0107091D01*
X0106896Y0107116D01*
X0106887Y0107141D01*
X0106876Y0107164D01*
X0106863Y0107186D01*
X0106849Y0107207D01*
X0106832Y0107226D01*
X0106813Y0107244D01*
X0107211D01*
X0107192Y0107226D01*
D02*
G37*
G36*
X0112361Y0107333D02*
X0112368Y0107294D01*
X0112381Y0107253D01*
X0112398Y0107212D01*
X0112421Y0107169D01*
X0112448Y0107125D01*
X0112481Y010708D01*
X0112518Y0107034D01*
X0112608Y0106938D01*
X0111908D01*
X0111956Y0106987D01*
X0112036Y010708D01*
X0112068Y0107125D01*
X0112096Y0107169D01*
X0112118Y0107212D01*
X0112136Y0107253D01*
X0112148Y0107294D01*
X0112156Y0107333D01*
X0112158Y0107371D01*
X0112358D01*
X0112361Y0107333D01*
D02*
G37*
G36*
X0113253Y0106924D02*
X0113135Y0106853D01*
X0113126Y0106853D01*
X0113016Y0106875D01*
X0113016Y0106875D01*
X0112991D01*
X0112978Y0106877D01*
X0112961Y0106881D01*
X0112944Y0106888D01*
X0112927Y0106896D01*
X011291Y0106908D01*
X0112891Y0106922D01*
X0112872Y0106941D01*
X0112852Y0106964D01*
X0112827Y0106996D01*
X0112818Y0107003D01*
X0112813Y0107012D01*
X0112806Y0107017D01*
X0112757Y010708D01*
X0112746Y0107089D01*
X0112672Y0107168D01*
X0112642Y0107204D01*
X0112617Y0107239D01*
X0112597Y0107271D01*
X0112583Y0107299D01*
X0112572Y0107323D01*
X0112566Y0107343D01*
X0112564Y0107355D01*
Y0108232D01*
X0112564Y0108232D01*
X0112541Y0108349D01*
X0112474Y0108448D01*
X0112474Y0108448D01*
X0112357Y0108565D01*
X0112258Y0108631D01*
X0112141Y0108655D01*
X0112141Y0108655D01*
X0111886D01*
X0111874Y0108657D01*
X0111854Y0108663D01*
X011183Y0108673D01*
X0111801Y0108688D01*
X011177Y0108708D01*
X0111737Y0108732D01*
X0111655Y0108802D01*
X0111621Y0108836D01*
X0111611Y0108848D01*
X0111583Y010887D01*
Y0108968D01*
X0111022Y0109529D01*
X0110461Y011009D01*
X0110363D01*
X0110341Y0110118D01*
X0110195Y011023D01*
X0110179Y0110237D01*
X011017Y0110243D01*
X0110165Y0110246D01*
X0110162Y0110249D01*
X011016Y0110252D01*
X0110157Y0110256D01*
X0110154Y0110263D01*
X0110151Y0110272D01*
X0110149Y0110285D01*
X0110148Y0110293D01*
Y0110322D01*
X0110124Y0110439D01*
X0110058Y0110539D01*
X0110058Y0110539D01*
X0109912Y0110685D01*
X0109812Y0110751D01*
X0109695Y0110775D01*
X0109695Y0110775D01*
X0108282D01*
X0108282Y0110775D01*
X0108165Y0110751D01*
X0108066Y0110685D01*
X0108066Y0110685D01*
X0106203Y0108822D01*
X0105698D01*
X0105605Y0108893D01*
X0105581Y010901D01*
X0105515Y0109109D01*
X0105515Y0109109D01*
X0105339Y0109285D01*
X0105323Y0109296D01*
X0105318Y010945D01*
X0105325Y0109457D01*
X0105341Y010947D01*
X0105364Y0109499D01*
X0105405Y0109544D01*
X0105555D01*
X0105613Y010947D01*
X0105759Y0109357D01*
X0105929Y0109287D01*
X0106112Y0109263D01*
X0106295Y0109287D01*
X0106465Y0109357D01*
X0106611Y010947D01*
X0106723Y0109616D01*
X0106794Y0109786D01*
X0106818Y0109969D01*
X0106794Y0110152D01*
X0106723Y0110322D01*
X0106611Y0110468D01*
X0106537Y0110525D01*
Y0110682D01*
X0106611Y011074D01*
X0106723Y0110886D01*
X0106794Y0111056D01*
X0106818Y0111239D01*
X0106794Y0111422D01*
X0106723Y0111592D01*
X0106611Y0111738D01*
X0106465Y011185D01*
X0106373Y0111888D01*
X0106359Y0111956D01*
X0106293Y0112055D01*
X0106165Y0112183D01*
X0106218Y011231D01*
X0113253D01*
Y0106924D01*
D02*
G37*
G36*
X0103198Y0106609D02*
X0103176Y010663D01*
X0103153Y0106648D01*
X010313Y0106665D01*
X0103106Y0106679D01*
X0103081Y0106691D01*
X0103056Y0106701D01*
X010303Y0106709D01*
X0103004Y0106714D01*
X0102977Y0106718D01*
X0102949Y0106719D01*
Y0106919D01*
X0102977Y010692D01*
X0103004Y0106923D01*
X010303Y0106929D01*
X0103056Y0106936D01*
X0103081Y0106946D01*
X0103106Y0106958D01*
X010313Y0106973D01*
X0103153Y0106989D01*
X0103176Y0107008D01*
X0103198Y0107029D01*
Y0106609D01*
D02*
G37*
G36*
X0103601Y0106583D02*
X0103582Y010656D01*
X0103566Y0106537D01*
X0103551Y0106513D01*
X0103539Y0106489D01*
X0103529Y0106463D01*
X0103522Y0106437D01*
X0103516Y0106411D01*
X0103513Y0106384D01*
X0103512Y0106356D01*
X0103312D01*
X0103311Y0106384D01*
X0103307Y0106411D01*
X0103302Y0106437D01*
X0103294Y0106463D01*
X0103284Y0106489D01*
X0103272Y0106513D01*
X0103258Y0106537D01*
X0103241Y010656D01*
X0103223Y0106583D01*
X0103202Y0106605D01*
X0103622D01*
X0103601Y0106583D01*
D02*
G37*
G36*
X0112694Y0106833D02*
X0112725Y0106799D01*
X0112757Y0106768D01*
X0112791Y0106742D01*
X0112825Y010672D01*
X0112861Y0106701D01*
X0112898Y0106687D01*
X0112936Y0106677D01*
X0112975Y0106671D01*
X0113016Y0106669D01*
Y0106469D01*
X0112974Y0106467D01*
X0112934Y0106461D01*
X0112895Y0106451D01*
X0112857Y0106437D01*
X011282Y0106419D01*
X0112784Y0106397D01*
X0112749Y0106372D01*
X0112715Y0106342D01*
X0112682Y0106308D01*
X011265Y0106271D01*
X0112665Y0106872D01*
X0112694Y0106833D01*
D02*
G37*
G36*
X0105534Y0106479D02*
X010565Y0106402D01*
X0105787Y0106374D01*
X0106237D01*
X0106373Y0106402D01*
X0106489Y0106479D01*
X0106554Y0106575D01*
X0106791D01*
X0106901Y0106504D01*
X0106906Y0106454D01*
Y0104948D01*
X0106906Y0104948D01*
X0106929Y0104831D01*
X0106996Y0104732D01*
X0107171Y0104556D01*
X0107171Y0104556D01*
X010727Y010449D01*
X0107351Y0104474D01*
X0107398Y0104444D01*
X0107439Y0104352D01*
X0107409Y0104267D01*
X0107276Y010424D01*
X0107257Y0104268D01*
X0107257Y0104268D01*
X010714Y0104385D01*
X0107041Y0104451D01*
X0106924Y0104475D01*
X0106924Y0104475D01*
X0102739D01*
X0102671Y0104602D01*
X0102691Y0104632D01*
X0102719Y0104769D01*
Y0105069D01*
X0102691Y0105205D01*
X0102618Y0105316D01*
X01026Y010535D01*
Y0105438D01*
X0102618Y0105472D01*
X0102691Y0105582D01*
X0102719Y0105719D01*
Y0106019D01*
X0102691Y0106155D01*
X0102614Y0106271D01*
X01026Y010628D01*
Y0106407D01*
X0102614Y0106416D01*
X0102679Y0106513D01*
X0102971D01*
X0102981Y0106511D01*
X010299Y0106508D01*
X0102999Y0106505D01*
X0103008Y01065D01*
X0103018Y0106494D01*
X0103029Y0106487D01*
X0103037Y010648D01*
X0103051Y0106458D01*
X0103073Y0106444D01*
X010308Y0106436D01*
X0103087Y0106425D01*
X0103093Y0106415D01*
X0103098Y0106406D01*
X0103101Y0106397D01*
X0103104Y0106388D01*
X0103106Y0106378D01*
Y0105867D01*
X0103106Y0105867D01*
X0103129Y010575D01*
X0103196Y0105651D01*
X0103644Y0105203D01*
X0103644Y0105203D01*
X0103743Y0105136D01*
X010386Y0105113D01*
X0103961D01*
Y0104819D01*
X0105161D01*
Y0106069D01*
X0103961D01*
Y0105917D01*
X0103843Y0105868D01*
X0103718Y0105994D01*
Y0106378D01*
X010372Y0106388D01*
X0103722Y0106397D01*
X0103726Y0106406D01*
X0103731Y0106415D01*
X0103737Y0106425D01*
X0103744Y0106436D01*
X0103751Y0106444D01*
X0103772Y0106458D01*
X0103834Y010655D01*
X0103961Y0106512D01*
Y0106269D01*
X0105161D01*
Y0106588D01*
X0105462D01*
X0105534Y0106479D01*
D02*
G37*
G36*
X0088748Y0106658D02*
X008877Y0106639D01*
X0088794Y0106623D01*
X0088818Y0106608D01*
X0088842Y0106596D01*
X0088867Y0106586D01*
X0088893Y0106579D01*
X008892Y0106573D01*
X0088947Y010657D01*
X0088975Y0106569D01*
Y0106369D01*
X0088947Y0106368D01*
X008892Y0106364D01*
X0088893Y0106359D01*
X0088867Y0106351D01*
X0088842Y0106341D01*
X0088818Y0106329D01*
X0088794Y0106315D01*
X008877Y0106298D01*
X0088748Y010628D01*
X0088726Y0106259D01*
Y0106679D01*
X0088748Y0106658D01*
D02*
G37*
G36*
X0087341Y0106248D02*
X0087319Y0106269D01*
X0087296Y0106288D01*
X0087273Y0106304D01*
X0087249Y0106319D01*
X0087225Y0106331D01*
X0087199Y0106341D01*
X0087174Y0106348D01*
X0087147Y0106354D01*
X008712Y0106357D01*
X0087092Y0106358D01*
Y0106558D01*
X008712Y0106559D01*
X0087147Y0106563D01*
X0087174Y0106568D01*
X0087199Y0106576D01*
X0087225Y0106586D01*
X0087249Y0106598D01*
X0087273Y0106612D01*
X0087296Y0106629D01*
X0087319Y0106647D01*
X0087341Y0106668D01*
Y0106248D01*
D02*
G37*
G36*
X0109361Y0106231D02*
X0109313Y0106279D01*
X0109219Y0106359D01*
X0109174Y0106391D01*
X010913Y0106419D01*
X0109088Y0106441D01*
X0109046Y0106459D01*
X0109006Y0106471D01*
X0108966Y0106479D01*
X0108928Y0106481D01*
Y0106681D01*
X0108966Y0106684D01*
X0109006Y0106691D01*
X0109046Y0106704D01*
X0109088Y0106721D01*
X010913Y0106744D01*
X0109174Y0106771D01*
X0109219Y0106804D01*
X0109265Y0106841D01*
X0109361Y0106931D01*
Y0106231D01*
D02*
G37*
G36*
X0101248Y010507D02*
X010127Y0105051D01*
X0101294Y0105035D01*
X0101318Y0105021D01*
X0101342Y0105009D01*
X0101367Y0104999D01*
X0101393Y0104991D01*
X010142Y0104985D01*
X0101447Y0104982D01*
X0101475Y0104981D01*
Y0104781D01*
X0101447Y010478D01*
X010142Y0104777D01*
X0101393Y0104771D01*
X0101367Y0104763D01*
X0101342Y0104754D01*
X0101318Y0104742D01*
X0101294Y0104727D01*
X010127Y0104711D01*
X0101248Y0104692D01*
X0101226Y0104671D01*
Y0105091D01*
X0101248Y010507D01*
D02*
G37*
G36*
X0111639Y010484D02*
X0111737D01*
X0111759Y0104812D01*
X0111905Y01047D01*
X0112075Y0104629D01*
X0112258Y0104605D01*
X0112441Y0104629D01*
X0112611Y01047D01*
X01127Y0104768D01*
X0112827Y0104705D01*
Y0104119D01*
X0111812D01*
Y0102869D01*
X0113012D01*
Y0103208D01*
X0113029Y0103211D01*
X0113128Y0103278D01*
X0113135Y0103285D01*
X0113253Y0103236D01*
Y0090828D01*
X0091272D01*
X0091162Y0090869D01*
X0091162Y0090955D01*
Y0092069D01*
X0090823D01*
X0090755Y0092196D01*
X0090807Y0092274D01*
X0090846Y0092469D01*
X0090807Y0092664D01*
X0090772Y0092717D01*
X009084Y0092844D01*
X0091137D01*
Y0094094D01*
X0090893D01*
X0090818Y0094193D01*
X0090794Y009431D01*
X0090728Y0094409D01*
X0090728Y0094409D01*
X0090552Y0094585D01*
X0090453Y0094651D01*
X0090336Y0094675D01*
X0090336Y0094675D01*
X0089938D01*
X0089685Y0094928D01*
X0089712Y0094994D01*
X0089712D01*
Y0095744D01*
X0088062D01*
Y0095675D01*
X008792D01*
X0087889Y0095721D01*
X0087773Y0095799D01*
X0087637Y0095826D01*
X0087187D01*
X008705Y0095799D01*
X0086934Y0095721D01*
X0086857Y0095605D01*
X008683Y0095469D01*
Y0095169D01*
X0086857Y0095032D01*
X0086934Y0094916D01*
X008705Y0094839D01*
X0087106Y0094828D01*
Y0094569D01*
X0087106Y0094569D01*
X0087115Y0094522D01*
X0086998Y0094459D01*
X0086972Y0094485D01*
X0086873Y0094551D01*
X0086756Y0094575D01*
X0086756Y0094575D01*
X0086406D01*
X0086367Y0094702D01*
X0086389Y0094716D01*
X0086466Y0094832D01*
X0086494Y0094969D01*
Y0095269D01*
X0086466Y0095405D01*
X0086389Y0095521D01*
X0086273Y0095599D01*
X0086218Y009561D01*
Y0095793D01*
X0086218Y0095793D01*
X0086194Y009591D01*
X0086177Y0095935D01*
X0086236Y0096077D01*
X0086294Y0096088D01*
X008632Y0096106D01*
X0085897Y0096529D01*
X0085987Y0096619D01*
X0085912Y0096694D01*
X0085747Y0096529D01*
X0085324Y0096952D01*
X0085306Y0096926D01*
X0085275Y0096769D01*
Y0096469D01*
X0085288Y0096402D01*
X008519Y0096275D01*
X0084019D01*
X0084006Y0096402D01*
X008405Y009641D01*
X0084167Y0096489D01*
X0084178Y0096506D01*
X0084245Y0096461D01*
X0084362Y0096438D01*
X0084562D01*
X0084679Y0096461D01*
X0084778Y0096528D01*
X0084844Y0096627D01*
X0084868Y0096744D01*
Y0097294D01*
X0084844Y0097411D01*
X0084778Y009751D01*
X0084679Y0097576D01*
X0084562Y00976D01*
X0084362D01*
X0084245Y0097576D01*
X0084178Y0097532D01*
X0084167Y0097549D01*
X008405Y0097627D01*
X0083912Y0097655D01*
X0083712D01*
X0083574Y0097627D01*
X0083457Y0097549D01*
X0083445Y0097532D01*
X0083379Y0097576D01*
X0083262Y00976D01*
X0083062D01*
X0082945Y0097576D01*
X0082846Y009751D01*
X0082845Y0097509D01*
X0082718Y0097547D01*
Y0099923D01*
X0082845Y0099992D01*
X0083002Y0099961D01*
X008302Y0099953D01*
X0083121Y0099851D01*
Y0099611D01*
X0083148Y0099474D01*
X0083226Y0099359D01*
X0083341Y0099281D01*
X0083478Y0099254D01*
X0083809D01*
X0083851Y0099129D01*
X0083741Y0098964D01*
X0083702Y0098769D01*
X0083741Y0098574D01*
X0083851Y0098408D01*
X0084017Y0098298D01*
X0084212Y0098259D01*
X0084407Y0098298D01*
X0084572Y0098408D01*
X0084587Y009843D01*
X0084595Y0098437D01*
X0084605Y0098444D01*
X0084615Y009845D01*
X0084625Y0098455D01*
X0084634Y0098458D01*
X0084643Y0098461D01*
X0084652Y0098463D01*
X0086156D01*
X0086156Y0098463D01*
X0086273Y0098486D01*
X0086372Y0098553D01*
X008675Y0098931D01*
X0086837Y0098913D01*
X0087437D01*
X0087558Y0098815D01*
X0087656Y0098694D01*
Y0098094D01*
X0087678Y0097987D01*
X0087681Y0097981D01*
X0087676Y0097973D01*
X0087669Y0097964D01*
X008766Y0097954D01*
X0087654Y0097948D01*
X0087626Y0097929D01*
X0087516Y0097764D01*
X0087477Y0097569D01*
X0087495Y0097479D01*
X0087414Y0097381D01*
X0087187D01*
X0087029Y0097349D01*
X0087003Y0097332D01*
X0087427Y0096909D01*
X0087337Y0096819D01*
X0087427Y0096729D01*
X0087003Y0096306D01*
X0087029Y0096288D01*
X0087187Y0096257D01*
X0087637D01*
X0087794Y0096288D01*
X0087928Y0096378D01*
X0087935Y0096388D01*
X0088062Y0096349D01*
Y0096194D01*
X0088758D01*
Y009614D01*
X0089586D01*
X0089247Y0096479D01*
X0089427Y0096659D01*
X0089766Y0096319D01*
Y0096963D01*
X0095162D01*
X0095162Y0096963D01*
X0095279Y0096986D01*
X0095378Y0097053D01*
X0096038Y0097713D01*
X0097012D01*
Y0096719D01*
X0098212D01*
Y0097038D01*
X0098401D01*
X0098463Y0096911D01*
X0098406Y0096826D01*
X0098375Y0096669D01*
Y0096369D01*
X0098406Y0096211D01*
X0098424Y0096185D01*
X0098847Y0096609D01*
X0099012Y0096444D01*
X0099177Y0096609D01*
X00996Y0096185D01*
X0099617Y0096211D01*
X0099622Y0096237D01*
X009976Y0096278D01*
X0100436Y0095603D01*
X0100436Y0095603D01*
X0100535Y0095536D01*
X0100652Y0095513D01*
X0101726D01*
X0101726Y0095513D01*
X0101843Y0095536D01*
X0101942Y0095603D01*
X0103978Y0097638D01*
X0104044Y0097738D01*
X0104068Y0097855D01*
X0104068Y0097855D01*
Y0098297D01*
X0104169Y0098365D01*
X0104285Y0098318D01*
X0104404Y0098238D01*
X0104562Y0098207D01*
X0104862D01*
X0105019Y0098238D01*
X0105139Y0098318D01*
X0105259Y0098366D01*
X0105375Y0098289D01*
X0105512Y0098262D01*
X0105812D01*
X0105948Y0098289D01*
X0106064Y0098366D01*
X0106141Y0098482D01*
X0106169Y0098619D01*
Y0098663D01*
X0107231D01*
Y0098569D01*
X0107254Y0098452D01*
X0107321Y0098353D01*
X010742Y0098286D01*
X0107537Y0098263D01*
X0107737D01*
X0107854Y0098286D01*
X0107854Y0098286D01*
X0107981Y0098218D01*
Y0097625D01*
X0107975Y0097623D01*
X0107859Y0097546D01*
X0107782Y009743D01*
X0107771Y0097375D01*
X0107253D01*
X0107241Y009743D01*
X0107164Y0097546D01*
X0107048Y0097623D01*
X0106912Y0097651D01*
X0106612D01*
X0106475Y0097623D01*
X0106359Y0097546D01*
X0106282Y009743D01*
X0106255Y0097294D01*
Y0096844D01*
X0106282Y0096707D01*
X0106359Y0096591D01*
X0106475Y0096514D01*
X0106612Y0096487D01*
X0106912D01*
X0107048Y0096514D01*
X0107079Y0096535D01*
X0107206Y0096467D01*
Y0094885D01*
X0107204Y0094876D01*
X0107201Y0094867D01*
X0107198Y0094857D01*
X0107193Y0094848D01*
X0107187Y0094838D01*
X010718Y0094828D01*
X0107173Y0094819D01*
X0107151Y0094805D01*
X0107041Y009464D01*
X0107002Y0094445D01*
X0107041Y0094249D01*
X0107151Y0094084D01*
X0107287Y0093993D01*
X0107271Y0093864D01*
X0107271Y0093863D01*
X0107179Y0093851D01*
X0107009Y009378D01*
X0106863Y0093668D01*
X0106805Y0093594D01*
X0106648D01*
X0106591Y0093668D01*
X0106445Y009378D01*
X0106275Y0093851D01*
X0106092Y0093875D01*
X0105909Y0093851D01*
X0105739Y009378D01*
X0105593Y0093668D01*
X010548Y0093522D01*
X010541Y0093352D01*
X0105386Y0093169D01*
X010541Y0092986D01*
X010548Y0092816D01*
X0105593Y009267D01*
X0105667Y0092612D01*
Y0092455D01*
X0105593Y0092398D01*
X010548Y0092252D01*
X010541Y0092082D01*
X0105386Y0091899D01*
X010541Y0091716D01*
X010548Y0091546D01*
X0105593Y00914D01*
X0105739Y0091287D01*
X0105909Y0091217D01*
X0106092Y0091193D01*
X0106275Y0091217D01*
X0106445Y0091287D01*
X0106591Y00914D01*
X0106648Y0091474D01*
X0106805D01*
X0106863Y00914D01*
X0107009Y0091287D01*
X0107179Y0091217D01*
X0107362Y0091193D01*
X0107545Y0091217D01*
X0107715Y0091287D01*
X0107861Y00914D01*
X0107883Y0091428D01*
X0108006D01*
X0107973Y0091461D01*
X0108003Y0091494D01*
X010803Y0091529D01*
X0108054Y0091567D01*
X0108075Y0091607D01*
X0108092Y009165D01*
X0108106Y0091695D01*
X0108117Y0091742D01*
X0108125Y0091792D01*
X010813Y0091845D01*
X0108132Y00919D01*
X0108621Y0091399D01*
X0108566Y0091399D01*
X0108514Y0091395D01*
X0108464Y0091388D01*
X0108417Y0091377D01*
X0108372Y0091364D01*
X0108329Y0091347D01*
X0108289Y0091327D01*
X0108251Y0091303D01*
X0108216Y0091276D01*
X0108211Y0091272D01*
X0108252Y009124D01*
X0108435Y0091164D01*
X0108632Y0091138D01*
X0108829Y0091164D01*
X0109012Y009124D01*
X0109068Y0091283D01*
X0108542Y0091809D01*
X0108722Y0091989D01*
X0109248Y0091463D01*
X010929Y0091519D01*
X0109366Y0091702D01*
X0109392Y0091899D01*
X0109366Y0092096D01*
X010929Y0092279D01*
X010917Y0092437D01*
X0109103Y0092488D01*
Y0092648D01*
X0109131Y009267D01*
X0109243Y0092816D01*
X0109314Y0092986D01*
X0109338Y0093169D01*
X0109314Y0093352D01*
X0109243Y0093522D01*
X0109131Y0093668D01*
X0108985Y009378D01*
X0108815Y0093851D01*
X0108632Y0093875D01*
X0108449Y0093851D01*
X0108279Y009378D01*
X0108133Y0093668D01*
X0108075Y0093594D01*
X0107918D01*
X0107861Y0093668D01*
X0107715Y009378D01*
X0107608Y0093824D01*
X0107621Y0093956D01*
X0107707Y0093974D01*
X0107872Y0094084D01*
X0107983Y0094249D01*
X0108022Y0094445D01*
X0107983Y009464D01*
X0107872Y0094805D01*
X0107851Y0094819D01*
X0107844Y0094828D01*
X0107837Y0094838D01*
X0107831Y0094848D01*
X0107826Y0094857D01*
X0107822Y0094867D01*
X010782Y0094876D01*
X0107818Y0094885D01*
Y0096467D01*
X0107945Y0096535D01*
X0107975Y0096514D01*
X0108112Y0096487D01*
X0108412D01*
X0108548Y0096514D01*
X0108664Y0096591D01*
X0108741Y0096707D01*
X0108769Y0096844D01*
Y0097294D01*
X0108741Y009743D01*
X0108664Y0097546D01*
X0108593Y0097594D01*
Y0098167D01*
X010872Y0098231D01*
X0108837Y0098208D01*
X0109026D01*
X0109062Y009817D01*
X0109112Y0098093D01*
X0109077Y0097919D01*
X0109116Y0097724D01*
X0109226Y0097558D01*
X0109279Y0097523D01*
X0109231Y0097451D01*
X01092Y0097294D01*
Y0096844D01*
X0109231Y0096686D01*
X0109249Y009666D01*
X0109672Y0097084D01*
X0109762Y0096994D01*
X0109837Y0097069D01*
X0109672Y0097234D01*
X0110106Y0097668D01*
X0110058Y0097724D01*
X0110097Y0097919D01*
X0110058Y0098114D01*
X010997Y0098245D01*
X0109903Y0098353D01*
X0109969Y0098452D01*
X0109993Y0098569D01*
Y0099369D01*
X0109969Y0099486D01*
X0109903Y0099585D01*
X0109804Y0099651D01*
X0109687Y0099675D01*
X0109487D01*
X010937Y0099651D01*
X0109303Y0099607D01*
X0109292Y0099624D01*
X0109175Y0099702D01*
X0109037Y009973D01*
X0108837D01*
X0108699Y0099702D01*
X0108582Y0099624D01*
X010857Y0099607D01*
X0108504Y0099651D01*
X0108387Y0099675D01*
X0108187D01*
X010807Y0099651D01*
X0107971Y0099585D01*
X0107953D01*
X0107854Y0099651D01*
X0107737Y0099675D01*
X0107537D01*
X010742Y0099651D01*
X0107321Y0099585D01*
X0107254Y0099486D01*
X0107231Y0099369D01*
Y0099275D01*
X0106169D01*
Y0099319D01*
X0106141Y0099455D01*
X0106064Y0099571D01*
X0105948Y0099648D01*
X0105812Y0099676D01*
X0105657D01*
X0105604Y0099803D01*
X0105878Y0100077D01*
X0105878Y0100077D01*
X0105944Y0100176D01*
X0105968Y0100293D01*
Y0100902D01*
X0106064Y0100966D01*
X0106141Y0101082D01*
X0106169Y0101219D01*
Y0101919D01*
X0106141Y0102055D01*
X0106064Y0102171D01*
X0105962Y0102239D01*
Y0102758D01*
X0106281D01*
Y0103863D01*
X0106735D01*
Y0100736D01*
X0106735Y0100736D01*
X0106758Y0100619D01*
X0106825Y010052D01*
X0106942Y0100403D01*
X0106942Y0100403D01*
X0107041Y0100336D01*
X0107158Y0100313D01*
X0107158Y0100313D01*
X010817D01*
X010817Y0100313D01*
X0108287Y0100336D01*
X0108386Y0100403D01*
X0108503Y010052D01*
X0108503Y010052D01*
X0108569Y0100619D01*
X0108593Y0100736D01*
X0108593Y0100736D01*
Y0100818D01*
X010872Y0100886D01*
X010872Y0100886D01*
X0108837Y0100863D01*
X0109037D01*
X0109154Y0100886D01*
X0109253Y0100953D01*
X0109271D01*
X010937Y0100886D01*
X0109487Y0100863D01*
X0109687D01*
X0109804Y0100886D01*
X0109903Y0100953D01*
X0109969Y0101052D01*
X0109993Y0101169D01*
Y0101542D01*
X0110228Y0101778D01*
X0110228Y0101778D01*
X0110294Y0101877D01*
X0110318Y0101994D01*
Y0102128D01*
X011032Y0102138D01*
X0110322Y0102147D01*
X0110326Y0102156D01*
X0110331Y0102165D01*
X0110337Y0102175D01*
X0110344Y0102186D01*
X0110351Y0102194D01*
X0110372Y0102208D01*
X0110483Y0102374D01*
X0110522Y0102569D01*
X0110483Y0102764D01*
X0110372Y0102929D01*
X0110207Y010304D01*
X0110012Y0103079D01*
X0110008Y0103078D01*
X0109931Y0103192D01*
X0109941Y0103207D01*
X0109969Y0103344D01*
Y0103794D01*
X0109941Y010393D01*
X0109864Y0104046D01*
X0109768Y0104111D01*
Y0104319D01*
X0109768Y0104319D01*
X0109744Y0104436D01*
X0109713Y0104482D01*
X0109714Y010449D01*
X0109774Y0104612D01*
X0109901Y0104629D01*
X0110071Y01047D01*
X0110217Y0104812D01*
X0110239Y010484D01*
X0110391D01*
X0110397Y0104846D01*
X0110423Y0104882D01*
X0110446Y010492D01*
X0110465Y010496D01*
X0110479Y0105002D01*
X011049Y0105046D01*
X0110497Y0105092D01*
X0110499Y010514D01*
X0110498Y0105191D01*
X0110493Y0105243D01*
X0111046Y0104814D01*
X011099Y0104807D01*
X0110886Y0104784D01*
X0110838Y0104769D01*
X0110793Y0104751D01*
X011075Y0104731D01*
X011071Y0104709D01*
X0110673Y0104685D01*
X0110638Y0104658D01*
X0110625Y0104645D01*
X0110791Y0104576D01*
X0110988Y0104551D01*
X0111185Y0104576D01*
X0111368Y0104652D01*
X0111424Y0104695D01*
X0110898Y0105221D01*
X0111078Y0105401D01*
X0111639Y010484D01*
D02*
G37*
G36*
X008831Y0104725D02*
X0088291Y0104705D01*
X0088274Y0104683D01*
X0088259Y0104661D01*
X0088246Y0104637D01*
X0088236Y0104612D01*
X0088227Y0104586D01*
X008822Y0104559D01*
X0088215Y0104531D01*
X0088212Y0104502D01*
X0088212Y0104472D01*
X0087915Y0104769D01*
X0087945Y0104769D01*
X0087974Y0104772D01*
X0088002Y0104777D01*
X0088029Y0104784D01*
X0088055Y0104793D01*
X008808Y0104803D01*
X0088104Y0104816D01*
X0088126Y0104831D01*
X0088148Y0104848D01*
X0088168Y0104867D01*
X008831Y0104725D01*
D02*
G37*
G36*
X00903Y0104121D02*
X0090279Y0104122D01*
X0090257Y0104121D01*
X0090235Y0104118D01*
X0090214Y0104112D01*
X0090192Y0104103D01*
X009017Y0104092D01*
X0090148Y0104079D01*
X0090126Y0104063D01*
X0090105Y0104045D01*
X0090083Y0104024D01*
X0089941Y0104165D01*
X0089962Y0104187D01*
X008998Y0104209D01*
X0089996Y0104231D01*
X009001Y0104253D01*
X0090021Y0104275D01*
X0090029Y0104296D01*
X0090035Y0104318D01*
X0090039Y010434D01*
X009004Y0104361D01*
X0090038Y0104383D01*
X00903Y0104121D01*
D02*
G37*
G36*
X0088212Y0104436D02*
X0088215Y0104406D01*
X008822Y0104378D01*
X0088227Y0104351D01*
X0088236Y0104325D01*
X0088246Y0104301D01*
X0088259Y0104277D01*
X0088274Y0104254D01*
X0088291Y0104233D01*
X008831Y0104212D01*
X0088168Y0104071D01*
X0088148Y010409D01*
X0088126Y0104107D01*
X0088104Y0104121D01*
X008808Y0104134D01*
X0088055Y0104145D01*
X0088029Y0104154D01*
X0088002Y0104161D01*
X0087974Y0104165D01*
X0087945Y0104168D01*
X0087915Y0104169D01*
X0088212Y0104466D01*
X0088212Y0104436D01*
D02*
G37*
G36*
X0089011Y0104288D02*
X0089012Y0104283D01*
X0089015Y0104276D01*
X0089019Y0104269D01*
X0089025Y010426D01*
X0089033Y0104249D01*
X0089054Y0104225D01*
X0089083Y0104196D01*
X0088941Y0104055D01*
X0088924Y0104071D01*
X0088862Y0104125D01*
X0088854Y0104131D01*
X0088847Y0104134D01*
X0088842Y0104136D01*
X0088838Y0104135D01*
X0089012Y0104292D01*
X0089011Y0104288D01*
D02*
G37*
G36*
X0089701Y0104183D02*
X0089682Y010416D01*
X0089666Y0104137D01*
X0089651Y0104113D01*
X0089639Y0104089D01*
X0089629Y0104063D01*
X0089622Y0104037D01*
X0089616Y0104011D01*
X0089613Y0103984D01*
X0089612Y0103956D01*
X0089412D01*
X0089411Y0103984D01*
X0089407Y0104011D01*
X0089402Y0104037D01*
X0089394Y0104063D01*
X0089384Y0104089D01*
X0089372Y0104113D01*
X0089358Y0104137D01*
X0089341Y010416D01*
X0089323Y0104183D01*
X0089302Y0104205D01*
X0089722D01*
X0089701Y0104183D01*
D02*
G37*
G36*
X0091109Y0104041D02*
X0091079Y010404D01*
X0091049Y0104038D01*
X0091021Y0104033D01*
X0090994Y0104026D01*
X0090968Y0104017D01*
X0090944Y0104006D01*
X009092Y0103994D01*
X0090897Y0103979D01*
X0090876Y0103962D01*
X0090855Y0103943D01*
X0090714Y0104084D01*
X0090733Y0104105D01*
X009075Y0104126D01*
X0090764Y0104149D01*
X0090777Y0104173D01*
X0090788Y0104198D01*
X0090797Y0104223D01*
X0090804Y010425D01*
X0090808Y0104279D01*
X0090811Y0104308D01*
X0090812Y0104338D01*
X0091109Y0104041D01*
D02*
G37*
G36*
X0092076Y0104024D02*
X0092057Y0104001D01*
X0092041Y0103978D01*
X0092026Y0103954D01*
X0092014Y010393D01*
X0092004Y0103904D01*
X0091997Y0103879D01*
X0091991Y0103852D01*
X0091988Y0103825D01*
X0091987Y0103797D01*
X0091787D01*
X0091786Y0103825D01*
X0091782Y0103852D01*
X0091777Y0103879D01*
X0091769Y0103904D01*
X0091759Y010393D01*
X0091747Y0103954D01*
X0091733Y0103978D01*
X0091716Y0104001D01*
X0091698Y0104024D01*
X0091677Y0104046D01*
X0092097D01*
X0092076Y0104024D01*
D02*
G37*
G36*
X0094451Y0103411D02*
X009442Y010341D01*
X0094391Y0103407D01*
X0094363Y0103403D01*
X0094336Y0103396D01*
X009431Y0103387D01*
X0094286Y0103376D01*
X0094262Y0103363D01*
X0094239Y0103349D01*
X0094218Y0103332D01*
X0094197Y0103313D01*
X0094056Y0103454D01*
X0094075Y0103475D01*
X0094092Y0103496D01*
X0094106Y0103519D01*
X0094119Y0103543D01*
X009413Y0103567D01*
X0094139Y0103593D01*
X0094146Y010362D01*
X009415Y0103648D01*
X0094153Y0103677D01*
X0094154Y0103708D01*
X0094451Y0103411D01*
D02*
G37*
G36*
X0102901Y0103216D02*
X0102908Y0103209D01*
X0102918Y0103204D01*
X0102929Y0103199D01*
X0102943Y0103195D01*
X0102959Y0103192D01*
X0102978Y0103189D01*
X0103021Y0103186D01*
X0103047Y0103186D01*
Y0102986D01*
X0103021Y0102985D01*
X0102978Y0102982D01*
X0102959Y010298D01*
X0102943Y0102977D01*
X0102929Y0102972D01*
X0102918Y0102968D01*
X0102908Y0102962D01*
X0102901Y0102956D01*
X0102896Y0102949D01*
Y0103223D01*
X0102901Y0103216D01*
D02*
G37*
G36*
X0087012Y0103036D02*
X0087015Y0103006D01*
X008702Y0102978D01*
X0087027Y0102951D01*
X0087036Y0102925D01*
X0087046Y0102901D01*
X0087059Y0102877D01*
X0087074Y0102854D01*
X0087091Y0102833D01*
X008711Y0102812D01*
X0086968Y0102671D01*
X0086948Y010269D01*
X0086926Y0102707D01*
X0086904Y0102721D01*
X008688Y0102734D01*
X0086855Y0102745D01*
X0086829Y0102754D01*
X0086802Y0102761D01*
X0086774Y0102765D01*
X0086745Y0102768D01*
X0086715Y0102769D01*
X0087012Y0103066D01*
X0087012Y0103036D01*
D02*
G37*
G36*
X0094409Y0102569D02*
X0094379Y0102568D01*
X0094349Y0102565D01*
X0094321Y0102561D01*
X0094294Y0102554D01*
X0094268Y0102545D01*
X0094244Y0102534D01*
X009422Y0102521D01*
X0094197Y0102507D01*
X0094176Y010249D01*
X0094155Y0102471D01*
X0094014Y0102612D01*
X0094033Y0102633D01*
X009405Y0102654D01*
X0094064Y0102677D01*
X0094077Y0102701D01*
X0094088Y0102725D01*
X0094097Y0102751D01*
X0094104Y0102778D01*
X0094108Y0102806D01*
X0094111Y0102836D01*
X0094112Y0102866D01*
X0094409Y0102569D01*
D02*
G37*
G36*
X0110201Y0102333D02*
X0110182Y010231D01*
X0110166Y0102287D01*
X0110151Y0102263D01*
X0110139Y0102239D01*
X0110129Y0102213D01*
X0110122Y0102187D01*
X0110116Y0102161D01*
X0110113Y0102134D01*
X0110112Y0102106D01*
X0109912D01*
X0109911Y0102134D01*
X0109907Y0102161D01*
X0109902Y0102187D01*
X0109894Y0102213D01*
X0109884Y0102239D01*
X0109872Y0102263D01*
X0109858Y0102287D01*
X0109841Y010231D01*
X0109823Y0102333D01*
X0109802Y0102355D01*
X0110222D01*
X0110201Y0102333D01*
D02*
G37*
G36*
X0109126Y0102233D02*
X0109107Y010221D01*
X0109091Y0102187D01*
X0109076Y0102163D01*
X0109064Y0102138D01*
X0109054Y0102113D01*
X0109047Y0102087D01*
X0109041Y0102061D01*
X0109038Y0102034D01*
X0109037Y0102006D01*
X0108837D01*
X0108836Y0102034D01*
X0108832Y0102061D01*
X0108827Y0102087D01*
X0108819Y0102113D01*
X0108809Y0102138D01*
X0108797Y0102163D01*
X0108783Y0102187D01*
X0108766Y010221D01*
X0108748Y0102233D01*
X0108727Y0102255D01*
X0109147D01*
X0109126Y0102233D01*
D02*
G37*
G36*
X0102269Y0102725D02*
X0102434Y0102615D01*
X0102629Y0102576D01*
X0102824Y0102615D01*
X0102981Y0102719D01*
X0103369Y010233D01*
X0103359Y0102171D01*
X0103282Y0102055D01*
X0103255Y0101919D01*
Y0101219D01*
X0103266Y0101165D01*
X0103183Y0101019D01*
X0103132Y0101009D01*
X0102966Y0100898D01*
X0102856Y0100733D01*
X0102839Y0100646D01*
X0102712Y0100659D01*
Y0100719D01*
X0101512D01*
Y0099469D01*
X0102712D01*
Y0099788D01*
X0102902D01*
X0102937Y0099753D01*
X0102937Y0099753D01*
X0103036Y0099686D01*
X0103153Y0099663D01*
X010328D01*
X0103291Y009965D01*
X0103336Y0099536D01*
X0103282Y0099455D01*
X0103255Y0099319D01*
Y0099282D01*
X0103137Y0099275D01*
X010302Y0099251D01*
X0102921Y0099185D01*
X0102829Y0099094D01*
X0102712Y0099142D01*
Y0099269D01*
X0101512D01*
Y0098514D01*
X0101394Y0098465D01*
X0101218Y0098642D01*
Y0099484D01*
X0101194Y0099601D01*
X0101128Y00997D01*
X0100928Y00999D01*
X0100829Y0099966D01*
X0100712Y009999D01*
X0100612Y0100064D01*
Y0101019D01*
X0100318D01*
Y0101413D01*
X010117D01*
X0101234Y0101316D01*
X010135Y0101239D01*
X0101487Y0101212D01*
X0101937D01*
X0102073Y0101239D01*
X0102189Y0101316D01*
X0102266Y0101432D01*
X0102294Y0101569D01*
Y0101869D01*
X0102266Y0102005D01*
X0102189Y0102121D01*
X0102073Y0102199D01*
X0102018Y010221D01*
Y0102322D01*
X0101994Y0102439D01*
X0101928Y0102539D01*
X0101928Y0102539D01*
X0101882Y0102585D01*
X0101934Y0102712D01*
X0101937D01*
X0102073Y0102739D01*
X0102189Y0102816D01*
X0102208D01*
X0102269Y0102725D01*
D02*
G37*
G36*
X0095401Y0101156D02*
X009538Y0101177D01*
X0095359Y0101196D01*
X0095336Y0101213D01*
X0095313Y0101228D01*
X0095289Y010124D01*
X0095264Y0101251D01*
X0095239Y0101259D01*
X0095212Y0101264D01*
X0095185Y0101268D01*
X0095157Y0101269D01*
X0095165Y0101469D01*
X0095193Y010147D01*
X009522Y0101473D01*
X0095247Y0101478D01*
X0095273Y0101486D01*
X0095298Y0101495D01*
X0095323Y0101507D01*
X0095348Y0101521D01*
X0095372Y0101537D01*
X0095395Y0101555D01*
X0095418Y0101575D01*
X0095401Y0101156D01*
D02*
G37*
G36*
X0095331Y0100309D02*
X0095312Y0100332D01*
X0095292Y0100352D01*
X0095271Y0100369D01*
X0095248Y0100385D01*
X0095225Y0100398D01*
X0095201Y0100408D01*
X0095176Y0100417D01*
X009515Y0100422D01*
X0095122Y0100426D01*
X0095094Y0100427D01*
X0095117Y0100627D01*
X0095145Y0100628D01*
X0095172Y0100631D01*
X0095198Y0100636D01*
X0095225Y0100643D01*
X0095251Y0100652D01*
X0095276Y0100663D01*
X0095302Y0100676D01*
X0095327Y0100691D01*
X0095352Y0100708D01*
X0095376Y0100727D01*
X0095331Y0100309D01*
D02*
G37*
G36*
X0083248Y0100658D02*
X008327Y0100639D01*
X0083294Y0100623D01*
X0083318Y0100608D01*
X0083342Y0100596D01*
X0083367Y0100586D01*
X0083393Y0100579D01*
X008342Y0100573D01*
X0083447Y010057D01*
X0083475Y0100569D01*
Y0100369D01*
X0083447Y0100368D01*
X008342Y0100364D01*
X0083393Y0100359D01*
X0083367Y0100351D01*
X0083342Y0100341D01*
X0083318Y0100329D01*
X0083294Y0100315D01*
X008327Y0100298D01*
X0083248Y010028D01*
X0083226Y0100259D01*
Y0100679D01*
X0083248Y0100658D01*
D02*
G37*
G36*
X0085406Y0101945D02*
X0085406Y0101945D01*
X0085301Y0101823D01*
X0085013D01*
X0084855Y0101791D01*
X0084829Y0101774D01*
X0085252Y0101351D01*
X0085163Y0101261D01*
X0085238Y0101186D01*
X0085402Y0101351D01*
X0085826Y0100927D01*
X0085843Y0100953D01*
X0085875Y0101111D01*
Y0101341D01*
X0085882Y0101414D01*
X0085994Y0101463D01*
X0086451D01*
X0086556Y0101344D01*
Y0101194D01*
X0086578Y0101087D01*
X0086623Y0101019D01*
X0086578Y0100951D01*
X0086556Y0100844D01*
Y0100694D01*
X0086578Y0100587D01*
X0086591Y0100567D01*
X0086527Y0100472D01*
X0086501Y0100344D01*
Y0100194D01*
X0086506Y0100173D01*
X0086425Y0100075D01*
X0085774D01*
X0085715Y0100163D01*
X0085599Y0100241D01*
X0085463Y0100268D01*
X0085013D01*
X0084876Y0100241D01*
X008476Y0100163D01*
X0084696Y0100067D01*
X0084245D01*
X008418Y0100163D01*
X0084064Y0100241D01*
X0084009Y0100293D01*
X0083986Y010041D01*
X0083919Y0100509D01*
X0083919Y0100509D01*
X0083857Y0100572D01*
X0083909Y0100699D01*
X0083928D01*
X0084086Y010073D01*
X0084112Y0100748D01*
X0083688Y0101171D01*
X0083778Y0101261D01*
X0083703Y0101336D01*
X0083538Y0101171D01*
X0083115Y0101594D01*
X0083097Y0101568D01*
X0083066Y0101411D01*
Y0101111D01*
X0083071Y0101086D01*
X0082965Y0100969D01*
X0082845Y0100945D01*
X0082718Y0101015D01*
Y0102942D01*
X0083239Y0103463D01*
X0085406D01*
Y0101945D01*
D02*
G37*
G36*
X0095352Y0099509D02*
X009533Y009953D01*
X0095308Y0099548D01*
X0095285Y0099565D01*
X0095261Y0099579D01*
X0095236Y0099591D01*
X0095211Y0099601D01*
X0095185Y0099609D01*
X0095159Y0099614D01*
X0095131Y0099618D01*
X0095104Y0099619D01*
Y0099819D01*
X0095131Y009982D01*
X0095159Y0099823D01*
X0095185Y0099829D01*
X0095211Y0099836D01*
X0095236Y0099846D01*
X0095261Y0099858D01*
X0095285Y0099873D01*
X0095308Y0099889D01*
X009533Y0099908D01*
X0095352Y0099929D01*
Y0099509D01*
D02*
G37*
G36*
X0084448Y0098958D02*
X008447Y0098939D01*
X0084494Y0098923D01*
X0084518Y0098908D01*
X0084542Y0098896D01*
X0084567Y0098886D01*
X0084593Y0098879D01*
X008462Y0098873D01*
X0084647Y009887D01*
X0084675Y0098869D01*
Y0098669D01*
X0084647Y0098668D01*
X008462Y0098664D01*
X0084593Y0098659D01*
X0084567Y0098651D01*
X0084542Y0098641D01*
X0084518Y0098629D01*
X0084494Y0098615D01*
X008447Y0098598D01*
X0084448Y009858D01*
X0084426Y0098559D01*
Y0098979D01*
X0084448Y0098958D01*
D02*
G37*
G36*
X0109688Y0098354D02*
X0109691Y0098327D01*
X0109697Y00983D01*
X0109704Y0098274D01*
X0109714Y0098249D01*
X0109726Y0098225D01*
X0109741Y0098201D01*
X0109757Y0098177D01*
X0109776Y0098155D01*
X0109797Y0098133D01*
X0109377D01*
X0109398Y0098155D01*
X0109416Y0098177D01*
X0109433Y0098201D01*
X0109447Y0098225D01*
X0109459Y0098249D01*
X0109469Y0098274D01*
X0109477Y00983D01*
X0109482Y0098327D01*
X0109486Y0098354D01*
X0109487Y0098382D01*
X0109687D01*
X0109688Y0098354D01*
D02*
G37*
G36*
X0088099Y0098027D02*
X00881Y0097999D01*
X0088104Y0097972D01*
X0088109Y0097946D01*
X0088116Y0097919D01*
X0088126Y0097894D01*
X0088138Y0097869D01*
X0088151Y0097844D01*
X0088167Y009782D01*
X0088185Y0097797D01*
X0088206Y0097774D01*
X0087786Y0097792D01*
X0087807Y0097812D01*
X0087827Y0097834D01*
X0087844Y0097857D01*
X0087858Y009788D01*
X0087871Y0097904D01*
X0087881Y0097929D01*
X0087889Y0097954D01*
X0087895Y0097981D01*
X0087898Y0098008D01*
X0087899Y0098036D01*
X0088099Y0098027D01*
D02*
G37*
G36*
X0092495Y0098953D02*
X0092495Y0098953D01*
X0092896Y0098553D01*
X0092896Y0098553D01*
X0092958Y0098511D01*
Y0097575D01*
X0091385D01*
X0091305Y0097702D01*
X0091318Y0097768D01*
X0091318Y0097768D01*
Y0097944D01*
X0091346Y0097987D01*
X0091367Y0098094D01*
Y0098694D01*
X0091466Y0098815D01*
X0091587Y0098913D01*
X0092187D01*
X0092294Y0098935D01*
X0092336Y0098963D01*
X0092485D01*
X0092495Y0098953D01*
D02*
G37*
G36*
X0101416Y0097962D02*
X0101429Y0097909D01*
X010145Y0097852D01*
X010148Y0097791D01*
X0101518Y0097727D01*
X0101565Y009766D01*
X010162Y0097589D01*
X0101756Y0097436D01*
X0101837Y0097354D01*
X0100787D01*
X0100868Y0097436D01*
X0101004Y0097589D01*
X0101059Y009766D01*
X0101106Y0097727D01*
X0101144Y0097791D01*
X0101174Y0097852D01*
X0101195Y0097909D01*
X0101208Y0097962D01*
X0101212Y0098012D01*
X0101412D01*
X0101416Y0097962D01*
D02*
G37*
G36*
X0107613Y009488D02*
X0107616Y0094852D01*
X0107622Y0094826D01*
X0107629Y00948D01*
X0107639Y0094775D01*
X0107651Y009475D01*
X0107666Y0094726D01*
X0107682Y0094703D01*
X0107701Y0094681D01*
X0107722Y0094659D01*
X0107302D01*
X0107323Y0094681D01*
X0107341Y0094703D01*
X0107358Y0094726D01*
X0107372Y009475D01*
X0107384Y0094775D01*
X0107394Y00948D01*
X0107402Y0094826D01*
X0107407Y0094852D01*
X0107411Y009488D01*
X0107412Y0094907D01*
X0107612D01*
X0107613Y009488D01*
D02*
G37*
G36*
X0087034Y0093921D02*
X0087042Y0093881D01*
X0087054Y0093841D01*
X0087072Y0093799D01*
X0087094Y0093757D01*
X0087122Y0093713D01*
X0087154Y0093668D01*
X0087192Y0093622D01*
X0087282Y0093526D01*
X0086582D01*
X0086629Y0093574D01*
X0086709Y0093668D01*
X0086742Y0093713D01*
X0086769Y0093757D01*
X0086792Y0093799D01*
X0086809Y0093841D01*
X0086822Y0093881D01*
X0086829Y0093921D01*
X0086832Y0093959D01*
X0087032D01*
X0087034Y0093921D01*
D02*
G37*
G36*
X0082473Y0093384D02*
X0082451Y0093405D01*
X0082428Y0093423D01*
X0082405Y009344D01*
X0082381Y0093454D01*
X0082356Y0093466D01*
X0082331Y0093476D01*
X0082305Y0093484D01*
X0082279Y0093489D01*
X0082252Y0093493D01*
X0082224Y0093494D01*
Y0093694D01*
X0082252Y0093695D01*
X0082279Y0093698D01*
X0082305Y0093704D01*
X0082331Y0093711D01*
X0082356Y0093721D01*
X0082381Y0093733D01*
X0082405Y0093748D01*
X0082428Y0093764D01*
X0082451Y0093783D01*
X0082473Y0093804D01*
Y0093384D01*
D02*
G37*
G36*
X0090437Y0092904D02*
X0090441Y0092877D01*
X0090446Y009285D01*
X0090454Y0092824D01*
X0090464Y0092799D01*
X0090476Y0092775D01*
X009049Y0092751D01*
X0090507Y0092727D01*
X0090525Y0092705D01*
X0090546Y0092683D01*
X0090126D01*
X0090147Y0092705D01*
X0090166Y0092727D01*
X0090182Y0092751D01*
X0090197Y0092775D01*
X0090209Y0092799D01*
X0090219Y0092824D01*
X0090226Y009285D01*
X0090232Y0092877D01*
X0090235Y0092904D01*
X0090236Y0092932D01*
X0090436D01*
X0090437Y0092904D01*
D02*
G37*
G36*
X0090525Y0092233D02*
X0090507Y009221D01*
X009049Y0092187D01*
X0090476Y0092163D01*
X0090464Y0092138D01*
X0090454Y0092113D01*
X0090446Y0092087D01*
X0090441Y0092061D01*
X0090437Y0092034D01*
X0090436Y0092006D01*
X0090236D01*
X0090235Y0092034D01*
X0090232Y0092061D01*
X0090226Y0092087D01*
X0090219Y0092113D01*
X0090209Y0092138D01*
X0090197Y0092163D01*
X0090182Y0092187D01*
X0090166Y009221D01*
X0090147Y0092233D01*
X0090126Y0092255D01*
X0090546D01*
X0090525Y0092233D01*
D02*
G37*
G36*
X0084035Y0091549D02*
X0083986Y0091596D01*
X0083893Y0091676D01*
X0083848Y0091709D01*
X0083804Y0091736D01*
X0083761Y0091759D01*
X008372Y0091776D01*
X0083679Y0091789D01*
X008364Y0091796D01*
X0083602Y0091799D01*
Y0091999D01*
X008364Y0092001D01*
X0083679Y0092009D01*
X008372Y0092021D01*
X0083761Y0092039D01*
X0083804Y0092061D01*
X0083848Y0092089D01*
X0083893Y0092121D01*
X0083939Y0092159D01*
X0084035Y0092249D01*
Y0091549D01*
D02*
G37*
G36*
X0086152Y0091773D02*
X0086149Y0091712D01*
X008615Y0091655D01*
X0086154Y0091602D01*
X0086162Y0091553D01*
X0086174Y0091508D01*
X0086189Y0091466D01*
X0086208Y0091429D01*
X0086231Y0091395D01*
X0086257Y0091365D01*
X0086099Y009124D01*
X0086072Y0091264D01*
X008604Y0091286D01*
X0086003Y0091307D01*
X0085962Y0091325D01*
X0085915Y0091342D01*
X0085864Y0091357D01*
X0085747Y0091383D01*
X0085681Y0091393D01*
X008561Y0091401D01*
X0086158Y0091837D01*
X0086152Y0091773D01*
D02*
G37*
G36*
X0087396Y0094153D02*
X0087495Y0094086D01*
X0087612Y0094063D01*
X0088487D01*
Y0092844D01*
X0089737D01*
Y0093891D01*
X0089864Y0093971D01*
X0089887Y009396D01*
Y0092844D01*
X0089887Y0092844D01*
X0089887D01*
X0089901Y0092717D01*
X0089865Y0092664D01*
X0089826Y0092469D01*
X0089865Y0092274D01*
X0089917Y0092196D01*
X0089912Y0092069D01*
X0089912Y0092069D01*
X0089912Y0090907D01*
X0089812Y009085D01*
X0089712Y0090907D01*
Y0092069D01*
X0088462D01*
Y0091775D01*
X0088212D01*
X0088212Y0091775D01*
X0088095Y0091751D01*
X0087996Y0091685D01*
X0087996Y0091685D01*
X0087783Y0091472D01*
X0087698Y0091483D01*
X0087628Y0091609D01*
X0087666Y0091702D01*
X0087692Y0091899D01*
X0087666Y0092096D01*
X008759Y0092279D01*
X008747Y0092437D01*
X0087403Y0092488D01*
Y0092648D01*
X0087431Y009267D01*
X0087543Y0092816D01*
X0087614Y0092986D01*
X0087638Y0093169D01*
X0087614Y0093352D01*
X0087543Y0093522D01*
X0087431Y0093668D01*
X008742Y0093676D01*
X0087345Y0093756D01*
X0087316Y0093792D01*
X0087291Y0093827D01*
X0087271Y0093858D01*
X0087256Y0093887D01*
X0087246Y0093911D01*
X008724Y0093931D01*
X0087238Y0093943D01*
Y0094093D01*
X0087238Y0094093D01*
X0087228Y009414D01*
X0087345Y0094203D01*
X0087396Y0094153D01*
D02*
G37*
%LPC*%
G36*
X0083306Y0107287D02*
X0083123Y0107263D01*
X0082953Y0107193D01*
X0082807Y010708D01*
X008275Y0107006D01*
X0082592D01*
X0082535Y010708D01*
X0082389Y0107193D01*
X0082219Y0107263D01*
X0082036Y0107287D01*
X0081853Y0107263D01*
X0081683Y0107193D01*
X0081537Y010708D01*
X008148Y0107006D01*
X0081322D01*
X0081265Y010708D01*
X0081119Y0107193D01*
X0080949Y0107263D01*
X0080766Y0107287D01*
X0080583Y0107263D01*
X0080413Y0107193D01*
X0080267Y010708D01*
X0080155Y0106934D01*
X0080084Y0106764D01*
X008006Y0106581D01*
X0080084Y0106398D01*
X0080155Y0106228D01*
X0080267Y0106082D01*
X0080341Y0106025D01*
Y0105867D01*
X0080267Y010581D01*
X0080155Y0105664D01*
X0080084Y0105494D01*
X008006Y0105311D01*
X0080084Y0105128D01*
X0080155Y0104958D01*
X0080267Y0104812D01*
X0080413Y01047D01*
X0080583Y0104629D01*
X0080766Y0104605D01*
X0080949Y0104629D01*
X0081119Y01047D01*
X0081265Y0104812D01*
X0081322Y0104886D01*
X008148D01*
X0081537Y0104812D01*
X0081683Y01047D01*
X0081853Y0104629D01*
X0082036Y0104605D01*
X0082219Y0104629D01*
X0082389Y01047D01*
X0082535Y0104812D01*
X0082592Y0104886D01*
X008275D01*
X0082807Y0104812D01*
X0082953Y01047D01*
X0083123Y0104629D01*
X0083306Y0104605D01*
X0083489Y0104629D01*
X0083659Y01047D01*
X0083805Y0104812D01*
X0083918Y0104958D01*
X0083988Y0105128D01*
X0084012Y0105311D01*
X0083988Y0105494D01*
X0083918Y0105664D01*
X0083805Y010581D01*
X0083731Y0105867D01*
Y0106025D01*
X0083805Y0106082D01*
X0083918Y0106228D01*
X0083988Y0106398D01*
X0084012Y0106581D01*
X0083988Y0106764D01*
X0083918Y0106934D01*
X0083805Y010708D01*
X0083659Y0107193D01*
X0083489Y0107263D01*
X0083306Y0107287D01*
D02*
G37*
G36*
X0080924Y0096952D02*
X0080906Y0096926D01*
X0080875Y0096769D01*
Y0096469D01*
X0080906Y0096311D01*
X0080924Y0096285D01*
X0081257Y0096619D01*
X0080924Y0096952D01*
D02*
G37*
G36*
X0081512Y0096514D02*
X0081103Y0096106D01*
X0081129Y0096088D01*
X0081287Y0096057D01*
X0081737D01*
X0081894Y0096088D01*
X008192Y0096106D01*
X0081512Y0096514D01*
D02*
G37*
G36*
X0096512Y0106079D02*
X0096317Y010604D01*
X0096151Y0105929D01*
X0096041Y0105764D01*
X0096002Y0105569D01*
X0096041Y0105374D01*
X0096151Y0105208D01*
X0096317Y0105098D01*
X0096512Y0105059D01*
X0096707Y0105098D01*
X0096872Y0105208D01*
X0096983Y0105374D01*
X0097022Y0105569D01*
X0096983Y0105764D01*
X0096872Y0105929D01*
X0096707Y010604D01*
X0096512Y0106079D01*
D02*
G37*
G36*
X0099361Y0104012D02*
X0098362D01*
X0098862Y0103513D01*
X0099361Y0104012D01*
D02*
G37*
G36*
X0098862Y0103383D02*
X0098837Y0103358D01*
X0098862Y0103333D01*
X0098887Y0103358D01*
X0098862Y0103383D01*
D02*
G37*
G36*
X0098183Y0103833D02*
Y0102884D01*
X0098657Y0103358D01*
X0098183Y0103833D01*
D02*
G37*
G36*
X0099541Y0103833D02*
X0099066Y0103358D01*
X0099541Y0102884D01*
Y0103833D01*
D02*
G37*
G36*
X0098862Y0103204D02*
X0098362Y0102704D01*
X0099361D01*
X0098862Y0103204D01*
D02*
G37*
G36*
X0098003Y0101948D02*
X0097808Y0101909D01*
X0097642Y0101798D01*
X0097532Y0101633D01*
X0097493Y0101438D01*
X0097532Y0101243D01*
X0097642Y0101077D01*
X0097808Y0100967D01*
X0098003Y0100928D01*
X0098198Y0100967D01*
X009827Y0101015D01*
X0098397Y0100947D01*
Y0100864D01*
X009842Y0100747D01*
X0098487Y0100648D01*
X0098586Y0100581D01*
X0098703Y0100558D01*
X0098903D01*
X009902Y0100581D01*
X0099119Y0100648D01*
X0099185Y0100747D01*
X0099209Y0100864D01*
Y0101144D01*
X0099185Y0101261D01*
X0099119Y010136D01*
X009902Y0101426D01*
X0098903Y010145D01*
X009883D01*
X0098625Y0101654D01*
X0098526Y010172D01*
X0098409Y0101744D01*
X0098409Y0101744D01*
X00984D01*
X0098363Y0101798D01*
X0098198Y0101909D01*
X0098003Y0101948D01*
D02*
G37*
%LPD*%
G36*
X0098279Y0101557D02*
X0098285Y0101553D01*
X0098293Y0101549D01*
X0098303Y0101546D01*
X0098315Y0101544D01*
X0098329Y0101542D01*
X0098365Y0101539D01*
X0098409Y0101538D01*
Y0101338D01*
X0098386Y0101337D01*
X0098329Y0101334D01*
X0098315Y0101332D01*
X0098303Y0101329D01*
X0098293Y0101326D01*
X0098285Y0101322D01*
X0098279Y0101318D01*
X0098276Y0101314D01*
Y0101561D01*
X0098279Y0101557D01*
D02*
G37*
%LPC*%
G36*
X0111112Y0110379D02*
X0110915Y0110353D01*
X0110732Y0110277D01*
X0110676Y0110235D01*
X0111202Y0109709D01*
X0111728Y0109183D01*
X011177Y0109239D01*
X0111846Y0109422D01*
X0111872Y0109619D01*
X0111846Y0109816D01*
X011177Y0109999D01*
X011165Y0110157D01*
X0111492Y0110277D01*
X0111309Y0110353D01*
X0111112Y0110379D01*
D02*
G37*
G36*
X0106237Y0105943D02*
X0105787D01*
X0105629Y0105912D01*
X0105603Y0105895D01*
X0106012Y0105486D01*
X010642Y0105895D01*
X0106394Y0105912D01*
X0106237Y0105943D01*
D02*
G37*
G36*
X0106012Y0105456D02*
X0105937Y0105381D01*
X0106012Y0105306D01*
X0106087Y0105381D01*
X0106012Y0105456D01*
D02*
G37*
G36*
X01066Y0105715D02*
X0106266Y0105381D01*
X01066Y0105048D01*
X0106617Y0105074D01*
X0106649Y0105231D01*
Y0105531D01*
X0106617Y0105689D01*
X01066Y0105715D01*
D02*
G37*
G36*
X0105424Y0105715D02*
X0105406Y0105689D01*
X0105375Y0105531D01*
Y0105231D01*
X0105406Y0105074D01*
X0105424Y0105048D01*
X0105757Y0105381D01*
X0105424Y0105715D01*
D02*
G37*
G36*
X0106012Y0105277D02*
X0105603Y0104868D01*
X0105629Y0104851D01*
X0105787Y0104819D01*
X0106237D01*
X0106394Y0104851D01*
X010642Y0104868D01*
X0106012Y0105277D01*
D02*
G37*
G36*
X0111112Y0104206D02*
X0110812D01*
X0110654Y0104174D01*
X0110628Y0104157D01*
X0110962Y0103823D01*
X0111295Y0104157D01*
X0111269Y0104174D01*
X0111112Y0104206D01*
D02*
G37*
G36*
X0110962Y0103644D02*
X0110887Y0103569D01*
X0110962Y0103494D01*
X0111037Y0103569D01*
X0110962Y0103644D01*
D02*
G37*
G36*
X0110449Y0103977D02*
X0110431Y0103951D01*
X01104Y0103794D01*
Y0103344D01*
X0110431Y0103186D01*
X0110449Y010316D01*
X0110857Y0103569D01*
X0110449Y0103977D01*
D02*
G37*
G36*
X0111475Y0103977D02*
X0111066Y0103569D01*
X0111475Y010316D01*
X0111492Y0103186D01*
X0111524Y0103344D01*
Y0103794D01*
X0111492Y0103951D01*
X0111475Y0103977D01*
D02*
G37*
G36*
X0110962Y0103314D02*
X0110628Y0102981D01*
X0110654Y0102963D01*
X0110812Y0102932D01*
X0111112D01*
X0111269Y0102963D01*
X0111295Y0102981D01*
X0110962Y0103314D01*
D02*
G37*
G36*
X0113012Y0102669D02*
X0111812D01*
Y0102375D01*
X0111312D01*
X0111195Y0102351D01*
X0111096Y0102285D01*
X0111096Y0102285D01*
X0111007Y0102197D01*
X0110999Y0102191D01*
X0110991Y0102187D01*
X0110982Y0102183D01*
X0110972Y0102179D01*
X011096Y0102177D01*
X0110948Y0102175D01*
X0110937Y0102174D01*
X0110912Y0102179D01*
X0110717Y010214D01*
X0110551Y0102029D01*
X0110441Y0101864D01*
X0110402Y0101669D01*
X0110441Y0101474D01*
X0110551Y0101308D01*
X0110717Y0101198D01*
X0110912Y0101159D01*
X0111107Y0101198D01*
X0111272Y0101308D01*
X0111383Y0101474D01*
X0111422Y0101669D01*
X0111512Y0101763D01*
X0111812D01*
Y0101419D01*
X0113012D01*
Y0102669D01*
D02*
G37*
G36*
X0105412Y0097706D02*
X0105112D01*
X0104954Y0097674D01*
X0104928Y0097657D01*
X0105262Y0097323D01*
X0105595Y0097657D01*
X0105569Y0097674D01*
X0105412Y0097706D01*
D02*
G37*
G36*
X0105262Y0097144D02*
X0105187Y0097069D01*
X0105262Y0096994D01*
X0105337Y0097069D01*
X0105262Y0097144D01*
D02*
G37*
G36*
X0086137Y0097181D02*
X0085687D01*
X0085529Y0097149D01*
X0085503Y0097132D01*
X0085912Y0096723D01*
X008632Y0097132D01*
X0086294Y0097149D01*
X0086137Y0097181D01*
D02*
G37*
G36*
X0105775Y0097477D02*
X0105366Y0097069D01*
X0105775Y009666D01*
X0105792Y0096686D01*
X0105824Y0096844D01*
Y0097294D01*
X0105792Y0097451D01*
X0105775Y0097477D01*
D02*
G37*
G36*
X0110275D02*
X0109866Y0097069D01*
X0110275Y009666D01*
X0110292Y0096686D01*
X0110324Y0096844D01*
Y0097294D01*
X0110292Y0097451D01*
X0110275Y0097477D01*
D02*
G37*
G36*
X0104749Y0097477D02*
X0104731Y0097451D01*
X01047Y0097294D01*
Y0096844D01*
X0104731Y0096686D01*
X0104749Y009666D01*
X0105157Y0097069D01*
X0104749Y0097477D01*
D02*
G37*
G36*
X0086824Y0097152D02*
X0086806Y0097126D01*
X0086775Y0096969D01*
Y0096669D01*
X0086806Y0096511D01*
X0086824Y0096485D01*
X0087157Y0096819D01*
X0086824Y0097152D01*
D02*
G37*
G36*
X0109762Y0096814D02*
X0109428Y0096481D01*
X0109454Y0096463D01*
X0109612Y0096432D01*
X0109912D01*
X0110069Y0096463D01*
X0110095Y0096481D01*
X0109762Y0096814D01*
D02*
G37*
G36*
X0105262Y0096814D02*
X0104928Y0096481D01*
X0104954Y0096463D01*
X0105112Y0096432D01*
X0105412D01*
X0105569Y0096463D01*
X0105595Y0096481D01*
X0105262Y0096814D01*
D02*
G37*
G36*
X00865Y0096952D02*
X0086166Y0096619D01*
X00865Y0096285D01*
X0086517Y0096311D01*
X0086549Y0096469D01*
Y0096769D01*
X0086517Y0096926D01*
X00865Y0096952D01*
D02*
G37*
G36*
X0099012Y0096414D02*
X0098603Y0096006D01*
X0098629Y0095988D01*
X0098787Y0095957D01*
X0099237D01*
X0099394Y0095988D01*
X009942Y0096006D01*
X0099012Y0096414D01*
D02*
G37*
G36*
X0108837Y0096231D02*
X0108642Y0096192D01*
X0108476Y0096082D01*
X0108366Y0095916D01*
X0108327Y0095721D01*
X0108366Y0095526D01*
X0108476Y0095361D01*
X0108642Y009525D01*
X0108837Y0095211D01*
X0109032Y009525D01*
X0109197Y0095361D01*
X0109308Y0095526D01*
X0109347Y0095721D01*
X0109308Y0095916D01*
X0109197Y0096082D01*
X0109032Y0096192D01*
X0108837Y0096231D01*
D02*
G37*
G36*
X0094812Y0096179D02*
X0094617Y009614D01*
X0094451Y0096029D01*
X0094341Y0095864D01*
X0094302Y0095669D01*
X0094341Y0095474D01*
X0094451Y0095308D01*
X0094617Y0095198D01*
X0094812Y0095159D01*
X0095007Y0095198D01*
X0095172Y0095308D01*
X0095283Y0095474D01*
X0095322Y0095669D01*
X0095283Y0095864D01*
X0095172Y0096029D01*
X0095007Y009614D01*
X0094812Y0096179D01*
D02*
G37*
%LPD*%
G36*
X011131Y0101925D02*
X0111291Y0101905D01*
X0111274Y0101883D01*
X0111259Y0101861D01*
X0111246Y0101837D01*
X0111236Y0101812D01*
X0111227Y0101786D01*
X011122Y0101759D01*
X0111215Y0101731D01*
X0111212Y0101702D01*
X0111212Y0101672D01*
X0110915Y0101969D01*
X0110945Y0101969D01*
X0110974Y0101972D01*
X0111002Y0101977D01*
X0111029Y0101984D01*
X0111055Y0101993D01*
X011108Y0102003D01*
X0111104Y0102016D01*
X0111126Y0102031D01*
X0111148Y0102048D01*
X0111168Y0102067D01*
X011131Y0101925D01*
D02*
G37*
%LPC*%
G36*
X0083928Y0101823D02*
X0083478D01*
X008332Y0101791D01*
X0083294Y0101774D01*
X0083703Y0101365D01*
X0084112Y0101774D01*
X0084086Y0101791D01*
X0083928Y0101823D01*
D02*
G37*
G36*
X0084649Y0101594D02*
X0084632Y0101568D01*
X0084601Y0101411D01*
Y0101111D01*
X0084632Y0100953D01*
X0084649Y0100927D01*
X0084983Y0101261D01*
X0084649Y0101594D01*
D02*
G37*
G36*
X0084291Y0101594D02*
X0083958Y0101261D01*
X0084291Y0100927D01*
X0084308Y0100953D01*
X008434Y0101111D01*
Y0101411D01*
X0084308Y0101568D01*
X0084291Y0101594D01*
D02*
G37*
G36*
X0085238Y0101156D02*
X0084829Y0100748D01*
X0084855Y010073D01*
X0085013Y0100699D01*
X0085463D01*
X008562Y010073D01*
X0085646Y0100748D01*
X0085238Y0101156D01*
D02*
G37*
%LPD*%
D12*
X0091012Y0097768D02*
Y0098394D01*
X0090895Y0097651D02*
X0091012Y0097768D01*
X0089512D02*
Y0098394D01*
X0089629Y0097651D02*
X0090895D01*
X0089512Y0097768D02*
X0089629Y0097651D01*
X0089345Y0097269D02*
X0095162D01*
X0089012Y0097602D02*
Y0098394D01*
Y0097602D02*
X0089345Y0097269D01*
X0094962Y0099719D02*
X0095566D01*
X0094412Y0100269D02*
X0094962Y0099719D01*
X0085872Y0106458D02*
X0087555D01*
X0085862Y0106469D02*
X0085872Y0106458D01*
X0087999Y0097581D02*
Y0098381D01*
X0087987Y0097569D02*
X0087999Y0097581D01*
X0088512Y0096569D02*
Y0098394D01*
X0108287Y0101569D02*
Y0102793D01*
Y0100736D02*
Y0101569D01*
X0110871Y0107366D02*
X0110988Y0107249D01*
X0108077Y0107366D02*
X0110871D01*
X0110988Y0106581D02*
Y0107249D01*
X0112258Y0106581D02*
X011227Y0106569D01*
X0113133Y0103715D02*
Y0106452D01*
X011227Y0106569D02*
X0113016D01*
X0113133Y0106452D01*
X0095534Y0100527D02*
X0095566Y0100495D01*
X0094763Y0100527D02*
X0095534D01*
X0102629Y0103086D02*
X0103047D01*
X0101712Y0103219D02*
Y0103739D01*
X0101796Y0103823D01*
X0103741D01*
X0104181Y0103358D02*
X0104206D01*
X0103881Y0103658D02*
X0104181Y0103358D01*
X0103881Y0103658D02*
Y0103683D01*
X0103741Y0103823D02*
X0103881Y0103683D01*
X0103047Y0103086D02*
X0103762Y0102371D01*
Y0101569D02*
Y0102371D01*
X010817Y0100619D02*
X0108287Y0100736D01*
X0107041D02*
Y0104052D01*
X0107158Y0100619D02*
X010817D01*
X0107041Y0100736D02*
X0107158Y0100619D01*
X0106924Y0104169D02*
X0107041Y0104052D01*
X0101158Y0104169D02*
X0106924D01*
X0091887Y0100269D02*
X0094412D01*
X0091887Y0100769D02*
X0094522D01*
X0094763Y0100527D01*
X0086712Y0103069D02*
X0086712D01*
X0087112Y0102669D01*
X0107012Y0106998D02*
Y0107469D01*
X0104661Y0106894D02*
X0105299D01*
X0106895Y0106881D02*
X0107012Y0106998D01*
X0104586Y0106894D02*
X0104661D01*
X0106012Y0106881D02*
X0106895D01*
X0105299Y0106894D02*
X0106012D01*
X0101983Y0109922D02*
X0102837Y0109069D01*
X0105299Y0106894D02*
Y0108893D01*
X0105123Y0109069D02*
X0105299Y0108893D01*
X0102837Y0109069D02*
X0105123D01*
X0104356Y0105624D02*
X0104561Y0105419D01*
X010386D02*
X0104561D01*
X0103412Y0105867D02*
X010386Y0105419D01*
X0103412Y0105867D02*
Y0106819D01*
X0104561Y0106869D02*
X0104586Y0106894D01*
X0112141Y0108349D02*
X0112258Y0108232D01*
X0111112Y0108349D02*
X0112141D01*
X0112258Y0106581D02*
Y0108232D01*
X0108282Y0110469D02*
X0109695D01*
X0106036Y0108222D02*
X0108282Y0110469D01*
X0106011Y0108222D02*
X0106036D01*
X0107212Y0104948D02*
Y0106501D01*
X0108077Y0107366D01*
X0109842Y0109619D02*
Y0110322D01*
X0109695Y0110469D02*
X0109842Y0110322D01*
X0102012Y0106819D02*
X0103412D01*
X0101937Y0109969D02*
X0101983Y0109922D01*
X0100512Y0106965D02*
Y0111244D01*
X0104482Y010534D02*
X0104561Y0105419D01*
X0095162Y0097269D02*
X0095912Y0098019D01*
X0095812Y0108569D02*
X0099787D01*
X0092212Y0104969D02*
X0095812Y0108569D01*
X0102112Y0100094D02*
X0103028D01*
X0103153Y0099969D01*
X0105338D01*
X0102812Y0098644D02*
X0103137Y0098969D01*
X0103762D01*
X0102112Y0098644D02*
X0102812D01*
X0083622Y0110919D02*
X0084572Y0109969D01*
X0082412Y0110919D02*
X0083622D01*
X0085842Y0106489D02*
X0085862Y0106469D01*
X0085842Y0106489D02*
Y0107719D01*
X0082412Y0109219D02*
X0082762Y0108869D01*
X0084692D02*
X0085842Y0107719D01*
X0082762Y0108869D02*
X0084692D01*
X0089512Y0107119D02*
X0090162Y0106469D01*
X0089512Y0107119D02*
Y0109219D01*
X0088062Y0110919D02*
X0089512D01*
X0087112Y0109969D02*
X0088062Y0110919D01*
X0081512Y0093594D02*
X0082687D01*
X0093312Y0101769D02*
X0094412Y0102869D01*
X0091887Y0101769D02*
X0093312D01*
X0091887Y0103769D02*
Y010426D01*
X0091262Y0103144D02*
X0091887Y0103769D01*
X0090512Y0103741D02*
X0091112Y0104341D01*
X0110012Y0101994D02*
Y0102569D01*
X0109587Y0101569D02*
X0110012Y0101994D01*
X0090012Y0104094D02*
X0090336Y0104419D01*
X0090012Y0103144D02*
Y0104094D01*
X0090512Y0103144D02*
Y0103741D01*
X0088412Y0104969D02*
X0092212D01*
X0087912Y0104469D02*
X0088412Y0104969D01*
X008874Y0104397D02*
Y0104419D01*
Y0104397D02*
X0089012Y0104125D01*
Y0103144D02*
Y0104125D01*
X0089512Y0103144D02*
Y0104419D01*
X0103762Y0101569D02*
X0104712D01*
X0101012Y0102669D02*
Y0104022D01*
X0101158Y0104169D01*
X0101212Y0102469D02*
X0101565D01*
X0101012Y0102669D02*
X0101212Y0102469D01*
X0101712Y0101719D02*
Y0102322D01*
X0101565Y0102469D02*
X0101712Y0102322D01*
X0109462Y0103569D02*
Y0104319D01*
X0105662Y0098969D02*
X0107637D01*
X0098803Y0101004D02*
Y0101044D01*
X0098409Y0101438D02*
X0098803Y0101044D01*
X0098003Y0101438D02*
X0098409D01*
X0103762Y0097855D02*
Y0098969D01*
X0097612Y0097344D02*
X0099127D01*
X0100652Y0095819D02*
X0101726D01*
X0103762Y0097855D01*
X0102312Y0099994D02*
X0102337Y0099969D01*
X0099127Y0097344D02*
X0100652Y0095819D01*
X0101312Y0096819D02*
Y0098115D01*
X0100912Y0098515D02*
X0101312Y0098115D01*
X0100912Y0098515D02*
Y0099484D01*
X0093112Y0098769D02*
X0097612D01*
X0097758Y0099684D02*
X0098803D01*
X0097612Y0098794D02*
Y0099537D01*
X0097758Y0099684D01*
X0098803D02*
X0100712D01*
X0100912Y0099484D01*
X0100012Y0100394D02*
Y0101543D01*
X0100188Y0101719D01*
X0101712D01*
X0095912Y0098019D02*
X0099012D01*
Y0098822D01*
X0099158Y0098969D01*
X0099987D02*
X0100012Y0098944D01*
X0099158Y0098969D02*
X0099987D01*
X0105338Y0099969D02*
X0105662Y0100293D01*
Y0101569D01*
X0105656Y0101574D02*
X0105662Y0101569D01*
X0105656Y0101574D02*
Y0103358D01*
X0092612Y0099269D02*
X0092711Y0099169D01*
X0093112Y0098769D01*
X0091887Y0099269D02*
X0092612D01*
X0109587Y0097919D02*
Y0098969D01*
X0107512Y0097069D02*
X0108262D01*
X0106762D02*
X0107512D01*
Y0094445D02*
Y0097069D01*
X0108262D02*
X0108287Y0097094D01*
Y0098969D01*
X0108937Y0101569D02*
Y0102469D01*
X0109286Y0103044D02*
X0109462Y010322D01*
X0108287Y0102793D02*
X0108538Y0103044D01*
X0109286D01*
X0109462Y010322D02*
Y0103569D01*
X0107212Y0104948D02*
X0107388Y0104772D01*
X0109008D02*
X0109462Y0104319D01*
X0107388Y0104772D02*
X0109008D01*
X0108012Y0103495D02*
Y0104119D01*
X0107637Y010312D02*
X0108012Y0103495D01*
X0107637Y0101569D02*
Y010312D01*
X0108188Y0106581D02*
X0109718D01*
X0108012Y0105619D02*
Y0106405D01*
X0108188Y0106581D01*
X0100482Y0111274D02*
X0100487Y0111269D01*
X0099412Y0111274D02*
X0100482D01*
X0101974Y0104881D02*
X0102012Y0104919D01*
X0101012Y0104881D02*
X0101974D01*
X0112912Y0103494D02*
X0113133Y0103715D01*
X0112412Y0103494D02*
X0112912D01*
X0087999Y0098381D02*
X0088012Y0098394D01*
X0099412Y0104919D02*
X0100165D01*
X0100312Y0104772D01*
Y0103358D02*
Y0104772D01*
X0101237Y0108369D02*
X0101257Y0108349D01*
X0095612Y0101369D02*
X0095624Y0101357D01*
X0093752Y0101269D02*
X0093852Y0101369D01*
X0095612D01*
X0093012Y0102269D02*
X0094454Y0103711D01*
X0090336Y0093293D02*
X0090512Y0093469D01*
X0090336Y0091669D02*
X0090537Y0091469D01*
X0090336Y0092469D02*
Y0093293D01*
Y0091669D02*
Y0092469D01*
X0091887Y0102269D02*
X0093012D01*
X0091887Y0101269D02*
X0093752D01*
X0093337Y0099769D02*
X0093612Y0099494D01*
X0091887Y0099769D02*
X0093337D01*
X0084212Y0098769D02*
X0086156D01*
X0086656Y0099269D01*
X0083012Y0100469D02*
X0083527D01*
X0083703Y0099761D02*
Y0100293D01*
X0083527Y0100469D02*
X0083703Y0100293D01*
X0100487Y0111269D02*
X0100512Y0111244D01*
X0099412Y0106819D02*
X0100365D01*
X0100512Y0106965D01*
X0112387Y0102069D02*
X0112412Y0102044D01*
X0111312Y0102069D02*
X0112387D01*
X0110912Y0101669D02*
X0111312Y0102069D01*
X0087112Y0102294D02*
X0087137Y0102269D01*
X0087112Y0102294D02*
Y0102669D01*
X0085712Y0101945D02*
Y0103769D01*
Y0101945D02*
X0085888Y0101769D01*
X0088512Y0106469D02*
X0090162D01*
X0101937Y0111269D02*
Y0111769D01*
X0102237Y0112069D01*
X0106077Y0111274D02*
X0106112Y0111239D01*
X0102237Y0112069D02*
X0105847D01*
X0106077Y0111839D01*
Y0111274D02*
Y0111839D01*
X0082412Y0096569D02*
Y0103069D01*
X0083112Y0103769D02*
X0085712D01*
X0082412Y0103069D02*
X0083112Y0103769D01*
X0085912Y0095119D02*
Y0095793D01*
X0085736Y0095969D02*
X0085912Y0095793D01*
X0083012Y0095969D02*
X0085736D01*
X0082412Y0096569D02*
X0083012Y0095969D01*
X0085712Y0103769D02*
X0087862D01*
X0085888Y0101769D02*
X0087137D01*
X0089812Y0094369D02*
X0090336D01*
X0089262Y0094919D02*
Y0095369D01*
Y0094919D02*
X0089812Y0094369D01*
X0088936D02*
X0089112Y0094193D01*
X0087612Y0094369D02*
X0088936D01*
X0089112Y0093469D02*
Y0094193D01*
X0090512Y0093469D02*
Y0094193D01*
X0090336Y0094369D02*
X0090512Y0094193D01*
X0087862Y0103769D02*
X0088012Y0103619D01*
Y0103144D02*
Y0103619D01*
X0087867Y0091124D02*
X0088212Y0091469D01*
X0089087D01*
X0086357Y0091124D02*
X0087867D01*
X0086656Y0099269D02*
X0087137D01*
X0088512Y0103144D02*
Y0103869D01*
X0087912Y0104469D02*
X0088512Y0103869D01*
X0085662Y0091819D02*
Y0091899D01*
Y0091819D02*
X0086357Y0091124D01*
X0091012Y0103144D02*
X0091262D01*
X0083703Y0099761D02*
X0085238D01*
X0085246Y0099769D01*
X0087137D01*
X0087412Y0095319D02*
X0087462Y0095369D01*
X0088512D01*
X0087412Y0094569D02*
Y0095319D01*
Y0094569D02*
X0087612Y0094369D01*
X0086932Y0093169D02*
Y0094093D01*
X0086756Y0094269D02*
X0086932Y0094093D01*
X0086088Y0094269D02*
X0086756D01*
X0085912Y0094445D02*
Y0095119D01*
Y0094445D02*
X0086088Y0094269D01*
X0084462Y0095119D02*
X0085912D01*
X0081512D02*
X0083162D01*
X0081512Y0093594D02*
Y0095119D01*
Y0092144D02*
X0082712D01*
X0082957Y0091899D02*
X0084392D01*
X0082712Y0092144D02*
X0082957Y0091899D01*
X0090012Y0098394D02*
X0090512D01*
D33*
X0106011Y0108222D02*
D03*
X0104561D02*
D03*
X0101937Y0109969D02*
D03*
X0100487D02*
D03*
X0098862Y0103358D02*
D03*
X0100312D02*
D03*
X0105656D02*
D03*
X0104206D02*
D03*
X0090537Y0091469D02*
D03*
X0089087D02*
D03*
X0099787Y0108569D02*
D03*
X0101237D02*
D03*
X0101937Y0111269D02*
D03*
X0100487D02*
D03*
D34*
X0106012Y0106881D02*
D03*
Y0105381D02*
D03*
X0099012Y0098019D02*
D03*
Y0096519D02*
D03*
X0101712Y0101719D02*
D03*
Y0103219D02*
D03*
X0108012Y0105619D02*
D03*
Y0104119D02*
D03*
X0087412Y0095319D02*
D03*
Y0096819D02*
D03*
X0081512Y0095119D02*
D03*
Y0096619D02*
D03*
X0085912D02*
D03*
Y0095119D02*
D03*
X0083703Y0101261D02*
D03*
Y0099761D02*
D03*
X0085238Y0101261D02*
D03*
Y0099761D02*
D03*
D35*
X0104561Y0106894D02*
D03*
Y0105444D02*
D03*
X0102112Y0100094D02*
D03*
Y0098644D02*
D03*
X0097612Y0097344D02*
D03*
Y0098794D02*
D03*
X0093612Y0098044D02*
D03*
Y0099494D02*
D03*
X0100012Y0100394D02*
D03*
Y0098944D02*
D03*
X0112412Y0103494D02*
D03*
Y0102044D02*
D03*
X0081512Y0093594D02*
D03*
Y0092144D02*
D03*
D36*
X0109462Y0103569D02*
D03*
X0110962D02*
D03*
X0105262Y0097069D02*
D03*
X0106762D02*
D03*
X0109762D02*
D03*
X0108262D02*
D03*
D37*
X0108287Y0101569D02*
D03*
X0109587Y0098969D02*
D03*
X0108937Y0101569D02*
D03*
X0109587D02*
D03*
X0107637D02*
D03*
X0108937Y0098969D02*
D03*
X0108287D02*
D03*
X0107637D02*
D03*
D38*
X0103762Y0101569D02*
D03*
X0104712D02*
D03*
X0105662D02*
D03*
Y0098969D02*
D03*
X0104712D02*
D03*
X0103762D02*
D03*
D39*
X0099412Y0106819D02*
D03*
Y0105869D02*
D03*
Y0104919D02*
D03*
X0102012D02*
D03*
Y0105869D02*
D03*
Y0106819D02*
D03*
D40*
X0088512Y0095369D02*
D03*
Y0096569D02*
D03*
X0089262D02*
D03*
Y0095369D02*
D03*
D41*
X0082412Y0109219D02*
D03*
Y0110919D02*
D03*
X0089512Y0109219D02*
D03*
Y0110919D02*
D03*
D42*
X0090162Y0106469D02*
D03*
X0085862D02*
D03*
D43*
X0098803Y0099684D02*
D03*
Y0101004D02*
D03*
D44*
X0084462Y0095119D02*
D03*
X0083162D02*
D03*
Y0097019D02*
D03*
X0083812D02*
D03*
X0084462D02*
D03*
D45*
X0087137Y0102269D02*
D03*
Y0101769D02*
D03*
Y0101269D02*
D03*
Y0100769D02*
D03*
Y0100269D02*
D03*
Y0099769D02*
D03*
X0091887Y0099269D02*
D03*
Y0099769D02*
D03*
Y0100269D02*
D03*
Y0100769D02*
D03*
Y0101269D02*
D03*
Y0101769D02*
D03*
Y0102269D02*
D03*
X0087137Y0099269D02*
D03*
D46*
X0088012Y0098394D02*
D03*
X0088512D02*
D03*
X0089012D02*
D03*
X0089512D02*
D03*
X0090012D02*
D03*
X0090512D02*
D03*
X0091012D02*
D03*
Y0103144D02*
D03*
X0090512D02*
D03*
X0090012D02*
D03*
X0089512D02*
D03*
X0089012D02*
D03*
X0088512D02*
D03*
X0088012D02*
D03*
D47*
X0089512Y0100769D02*
D03*
D48*
X0089112Y0093469D02*
D03*
X0090512D02*
D03*
D49*
X0108937Y0098194D02*
Y0098969D01*
X0108837Y0098094D02*
X0108937Y0098194D01*
X0103518Y0108222D02*
X0104561D01*
X0103392Y0108349D02*
X0103518Y0108222D01*
X0102157Y0108349D02*
X0103392D01*
X0101237Y0108569D02*
X0101937D01*
X0102157Y0108349D01*
X0110461Y0104695D02*
X0110988Y0105222D01*
Y0105311D01*
X0084572Y0111383D02*
X0085163Y0111973D01*
X0084572Y0111239D02*
Y0111383D01*
X0108623Y0091899D02*
X0108632D01*
X0108012Y0091287D02*
X0108623Y0091899D01*
X0092637Y0098044D02*
X0093612D01*
X0092612Y0098019D02*
X0092637Y0098044D01*
X008632Y0100269D02*
X0087137D01*
X0089012D02*
X0089512Y0100769D01*
X0087137Y0100269D02*
X0089012D01*
X0098271Y0105869D02*
X0099412D01*
X009827Y0105867D02*
X0098271Y0105869D01*
X0104712Y0097944D02*
Y0098969D01*
X0108937D02*
Y0100064D01*
X0083812Y0097019D02*
Y0097847D01*
X0083819Y0097855D01*
D50*
X0101312Y0096819D02*
D03*
D51*
X0087112Y0111239D02*
D03*
Y0109969D02*
D03*
X0085842Y0111239D02*
D03*
Y0109969D02*
D03*
X0084572Y0111239D02*
D03*
Y0109969D02*
D03*
X0111112Y0108349D02*
D03*
Y0109619D02*
D03*
X0108572D02*
D03*
X0109842D02*
D03*
X0108572Y0108349D02*
D03*
X0109842D02*
D03*
X0084392Y0091899D02*
D03*
Y0093169D02*
D03*
X0085662Y0091899D02*
D03*
Y0093169D02*
D03*
X0086932Y0091899D02*
D03*
Y0093169D02*
D03*
X0106112Y0111239D02*
D03*
Y0109969D02*
D03*
X0104842Y0111239D02*
D03*
Y0109969D02*
D03*
X0103572Y0111239D02*
D03*
Y0109969D02*
D03*
X0109718Y0106581D02*
D03*
Y0105311D02*
D03*
X0110988Y0106581D02*
D03*
Y0105311D02*
D03*
X0112258Y0106581D02*
D03*
Y0105311D02*
D03*
X0106092Y0091899D02*
D03*
Y0093169D02*
D03*
X0107362Y0091899D02*
D03*
Y0093169D02*
D03*
X0108632Y0091899D02*
D03*
Y0093169D02*
D03*
X0080766Y0106581D02*
D03*
Y0105311D02*
D03*
X0082036Y0106581D02*
D03*
Y0105311D02*
D03*
X0083306Y0106581D02*
D03*
Y0105311D02*
D03*
D52*
X0095566Y0099719D02*
D03*
X008781Y0109173D02*
D03*
X0087555Y0106458D02*
D03*
X0096412Y0109816D02*
D03*
X0102023Y0094998D02*
D03*
X0112379Y0111333D02*
D03*
X0112357Y009124D02*
D03*
X0103012Y0091287D02*
D03*
X0108837Y0095721D02*
D03*
X0087987Y0097569D02*
D03*
X0095566Y0100495D02*
D03*
X0102629Y0103086D02*
D03*
X0103083Y0105271D02*
D03*
X0106359Y0100694D02*
D03*
X0090062Y0094994D02*
D03*
X0086252Y0097472D02*
D03*
X0084392Y010211D02*
D03*
X0097912Y0091283D02*
D03*
Y0094869D02*
D03*
X0086712Y0103069D02*
D03*
X0107012Y0107469D02*
D03*
X0102612Y0108349D02*
D03*
X0103412Y0106819D02*
D03*
X0103327Y0100538D02*
D03*
X0094812Y0095669D02*
D03*
X0092612Y0103641D02*
D03*
X0083851Y0094369D02*
D03*
X0092212Y0109816D02*
D03*
X0080766Y0109786D02*
D03*
Y0091217D02*
D03*
Y0098289D02*
D03*
Y010363D02*
D03*
X0092933Y0091283D02*
D03*
X0098003Y0105869D02*
D03*
X0112362Y0093844D02*
D03*
X0092085Y0097919D02*
D03*
X009016Y0101308D02*
D03*
X0108812Y0104221D02*
D03*
X0107608Y0111329D02*
D03*
X0110012D02*
D03*
X0090336Y0092469D02*
D03*
X0082687Y0093594D02*
D03*
X0091887Y010426D02*
D03*
X0091112Y0104341D02*
D03*
X0096512Y0105569D02*
D03*
X0110012Y0102569D02*
D03*
X0090336Y0104419D02*
D03*
X0089512D02*
D03*
X008874D02*
D03*
X0109587Y0097919D02*
D03*
X0107512Y0094445D02*
D03*
X0108937Y0102469D02*
D03*
X0099412Y0111274D02*
D03*
X0101012Y0104881D02*
D03*
X0098003Y0101438D02*
D03*
X0095624Y0101357D02*
D03*
X0094412Y0102869D02*
D03*
X0094454Y0103711D02*
D03*
X0084212Y0098769D02*
D03*
X0083012Y0100469D02*
D03*
X0110912Y0101669D02*
D03*
X0088512Y0106469D02*
D03*
X0087912Y0104469D02*
D03*
M02*
