G04*
G04 #@! TF.GenerationSoftware,Altium Limited,Altium Designer,20.1.8 (145)*
G04*
G04 Layer_Color=8388736*
%FSLAX43Y43*%
%MOMM*%
G71*
G04*
G04 #@! TF.SameCoordinates,C5C313FD-7657-4A41-8647-220B39F72BCF*
G04*
G04*
G04 #@! TF.FilePolarity,Negative*
G04*
G01*
G75*
%ADD10C,3.600*%
%ADD11P,0.990X4X314.9*%
%ADD12P,0.990X4X315.0*%
%ADD13R,0.800X0.800*%
%ADD14R,0.350X0.800*%
%ADD15R,0.800X0.350*%
G04:AMPARAMS|DCode=16|XSize=4.1mm|YSize=3.1mm|CornerRadius=0.8mm|HoleSize=0mm|Usage=FLASHONLY|Rotation=180.000|XOffset=0mm|YOffset=0mm|HoleType=Round|Shape=RoundedRectangle|*
%AMROUNDEDRECTD16*
21,1,4.100,1.500,0,0,180.0*
21,1,2.500,3.100,0,0,180.0*
1,1,1.600,-1.250,0.750*
1,1,1.600,1.250,0.750*
1,1,1.600,1.250,-0.750*
1,1,1.600,-1.250,-0.750*
%
%ADD16ROUNDEDRECTD16*%
G04:AMPARAMS|DCode=17|XSize=3.6mm|YSize=1.35mm|CornerRadius=0.363mm|HoleSize=0mm|Usage=FLASHONLY|Rotation=90.000|XOffset=0mm|YOffset=0mm|HoleType=Round|Shape=RoundedRectangle|*
%AMROUNDEDRECTD17*
21,1,3.600,0.625,0,0,90.0*
21,1,2.875,1.350,0,0,90.0*
1,1,0.725,0.313,1.438*
1,1,0.725,0.313,-1.438*
1,1,0.725,-0.313,-1.438*
1,1,0.725,-0.313,1.438*
%
%ADD17ROUNDEDRECTD17*%
G04:AMPARAMS|DCode=18|XSize=3.6mm|YSize=3.1mm|CornerRadius=0.8mm|HoleSize=0mm|Usage=FLASHONLY|Rotation=90.000|XOffset=0mm|YOffset=0mm|HoleType=Round|Shape=RoundedRectangle|*
%AMROUNDEDRECTD18*
21,1,3.600,1.500,0,0,90.0*
21,1,2.000,3.100,0,0,90.0*
1,1,1.600,0.750,1.000*
1,1,1.600,0.750,-1.000*
1,1,1.600,-0.750,-1.000*
1,1,1.600,-0.750,1.000*
%
%ADD18ROUNDEDRECTD18*%
%ADD19R,1.000X0.900*%
G04:AMPARAMS|DCode=20|XSize=1.7mm|YSize=1.1mm|CornerRadius=0mm|HoleSize=0mm|Usage=FLASHONLY|Rotation=140.000|XOffset=0mm|YOffset=0mm|HoleType=Round|Shape=Rectangle|*
%AMROTATEDRECTD20*
4,1,4,1.005,-0.125,0.298,-0.968,-1.005,0.125,-0.298,0.968,1.005,-0.125,0.0*
%
%ADD20ROTATEDRECTD20*%

G04:AMPARAMS|DCode=21|XSize=3.4mm|YSize=1.1mm|CornerRadius=0mm|HoleSize=0mm|Usage=FLASHONLY|Rotation=25.000|XOffset=0mm|YOffset=0mm|HoleType=Round|Shape=Rectangle|*
%AMROTATEDRECTD21*
4,1,4,-1.308,-1.217,-1.773,-0.220,1.308,1.217,1.773,0.220,-1.308,-1.217,0.0*
%
%ADD21ROTATEDRECTD21*%

G04:AMPARAMS|DCode=22|XSize=3.4mm|YSize=1.1mm|CornerRadius=0mm|HoleSize=0mm|Usage=FLASHONLY|Rotation=119.568|XOffset=0mm|YOffset=0mm|HoleType=Round|Shape=Rectangle|*
%AMROTATEDRECTD22*
4,1,4,1.317,-1.207,0.360,-1.750,-1.317,1.207,-0.360,1.750,1.317,-1.207,0.0*
%
%ADD22ROTATEDRECTD22*%

G04:AMPARAMS|DCode=23|XSize=3.4mm|YSize=1.1mm|CornerRadius=0mm|HoleSize=0mm|Usage=FLASHONLY|Rotation=340.000|XOffset=0mm|YOffset=0mm|HoleType=Round|Shape=Rectangle|*
%AMROTATEDRECTD23*
4,1,4,-1.786,0.065,-1.409,1.098,1.786,-0.065,1.409,-1.098,-1.786,0.065,0.0*
%
%ADD23ROTATEDRECTD23*%

G04:AMPARAMS|DCode=24|XSize=3.4mm|YSize=1.1mm|CornerRadius=0mm|HoleSize=0mm|Usage=FLASHONLY|Rotation=75.000|XOffset=0mm|YOffset=0mm|HoleType=Round|Shape=Rectangle|*
%AMROTATEDRECTD24*
4,1,4,0.091,-1.784,-0.971,-1.500,-0.091,1.784,0.971,1.500,0.091,-1.784,0.0*
%
%ADD24ROTATEDRECTD24*%

G04:AMPARAMS|DCode=25|XSize=4.1mm|YSize=5.1mm|CornerRadius=1.05mm|HoleSize=0mm|Usage=FLASHONLY|Rotation=180.000|XOffset=0mm|YOffset=0mm|HoleType=Round|Shape=RoundedRectangle|*
%AMROUNDEDRECTD25*
21,1,4.100,3.000,0,0,180.0*
21,1,2.000,5.100,0,0,180.0*
1,1,2.100,-1.000,1.500*
1,1,2.100,1.000,1.500*
1,1,2.100,1.000,-1.500*
1,1,2.100,-1.000,-1.500*
%
%ADD25ROUNDEDRECTD25*%
D10*
X63650Y62900D02*
D03*
X84350Y43100D02*
D03*
D11*
X68250Y47499D02*
D03*
X67250Y47501D02*
D03*
D12*
X67250Y49500D02*
D03*
X68250Y49501D02*
D03*
D13*
X64750Y47850D02*
D03*
D14*
X64000Y46950D02*
D03*
X64500D02*
D03*
X65000D02*
D03*
X65500D02*
D03*
Y48750D02*
D03*
X65000D02*
D03*
X64500D02*
D03*
X64000D02*
D03*
D15*
X63850Y48100D02*
D03*
Y47600D02*
D03*
X65650D02*
D03*
Y48100D02*
D03*
D16*
X59750Y53000D02*
D03*
D17*
X75375Y65500D02*
D03*
X72625D02*
D03*
D18*
X69000D02*
D03*
X79000D02*
D03*
D19*
X67250Y59400D02*
D03*
Y58100D02*
D03*
X65250Y59400D02*
D03*
Y58100D02*
D03*
D20*
X65577Y42962D02*
D03*
X67505Y45260D02*
D03*
D21*
X76950Y46674D02*
D03*
X79570Y41055D02*
D03*
D22*
X85531Y59542D02*
D03*
X80138Y56483D02*
D03*
D23*
X71613Y46441D02*
D03*
X69492Y40615D02*
D03*
D24*
X80742Y51193D02*
D03*
X86731Y49589D02*
D03*
D25*
X66000Y52999D02*
D03*
M02*
