G04*
G04 #@! TF.GenerationSoftware,Altium Limited,Altium Designer,20.1.8 (145)*
G04*
G04 Layer_Physical_Order=1*
G04 Layer_Color=255*
%FSLAX44Y44*%
%MOMM*%
G71*
G04*
G04 #@! TF.SameCoordinates,AACEBB51-4B8A-4FFF-B30A-F4DB7F9A4190*
G04*
G04*
G04 #@! TF.FilePolarity,Positive*
G04*
G01*
G75*
%ADD12C,0.2000*%
%ADD13C,0.4000*%
%ADD36C,1.7000*%
%ADD41C,0.6000*%
%ADD42R,0.8500X0.8500*%
%ADD43R,0.8500X0.8500*%
%ADD44R,1.1300X2.4400*%
%ADD45R,0.6000X1.1000*%
%ADD46R,1.0000X0.9000*%
%ADD47R,2.5000X2.3000*%
G04:AMPARAMS|DCode=48|XSize=1.55mm|YSize=0.6mm|CornerRadius=0.3mm|HoleSize=0mm|Usage=FLASHONLY|Rotation=0.000|XOffset=0mm|YOffset=0mm|HoleType=Round|Shape=RoundedRectangle|*
%AMROUNDEDRECTD48*
21,1,1.5500,0.0000,0,0,0.0*
21,1,0.9500,0.6000,0,0,0.0*
1,1,0.6000,0.4750,0.0000*
1,1,0.6000,-0.4750,0.0000*
1,1,0.6000,-0.4750,0.0000*
1,1,0.6000,0.4750,0.0000*
%
%ADD48ROUNDEDRECTD48*%
%ADD49R,3.5000X1.7800*%
%ADD50R,2.3000X2.5000*%
%ADD51R,0.8000X0.5000*%
%ADD52R,0.7600X2.0500*%
%ADD53R,2.9000X2.9000*%
%ADD54O,0.7000X0.2000*%
%ADD55O,0.2000X0.7000*%
%ADD56R,0.5000X0.3500*%
%ADD57R,2.0500X0.7600*%
%ADD58R,2.9000X2.9000*%
%ADD59R,2.4400X1.1300*%
%ADD60C,0.5000*%
%ADD61C,0.3500*%
%ADD62C,1.2000*%
%ADD63C,1.6000*%
%ADD64C,2.0000*%
%ADD65R,2.0000X2.0000*%
%ADD66R,2.0000X2.0000*%
%ADD67C,0.5000*%
G36*
X500425Y482220D02*
X500500Y481370D01*
X500625Y480620D01*
X500800Y479970D01*
X501025Y479420D01*
X501300Y478970D01*
X501625Y478620D01*
X502000Y478370D01*
X502425Y478220D01*
X502900Y478170D01*
X492900D01*
X493375Y478220D01*
X493800Y478370D01*
X494175Y478620D01*
X494500Y478970D01*
X494775Y479420D01*
X495000Y479970D01*
X495175Y480620D01*
X495300Y481370D01*
X495375Y482220D01*
X495400Y483170D01*
X500400D01*
X500425Y482220D01*
D02*
G37*
G36*
X475025D02*
X475100Y481370D01*
X475225Y480620D01*
X475400Y479970D01*
X475625Y479420D01*
X475900Y478970D01*
X476225Y478620D01*
X476600Y478370D01*
X477025Y478220D01*
X477500Y478170D01*
X467500D01*
X467975Y478220D01*
X468400Y478370D01*
X468775Y478620D01*
X469100Y478970D01*
X469375Y479420D01*
X469600Y479970D01*
X469775Y480620D01*
X469900Y481370D01*
X469975Y482220D01*
X470000Y483170D01*
X475000D01*
X475025Y482220D01*
D02*
G37*
G36*
X456255Y478170D02*
X455265Y477144D01*
X453709Y475306D01*
X453144Y474493D01*
X452719Y473750D01*
X452437Y473078D01*
X452295Y472477D01*
Y471947D01*
X452437Y471487D01*
X452719Y471099D01*
X445648Y478170D01*
X446037Y477887D01*
X446497Y477745D01*
X447027D01*
X447628Y477887D01*
X448300Y478170D01*
X449043Y478594D01*
X449856Y479160D01*
X450740Y479867D01*
X452719Y481705D01*
X456255Y478170D01*
D02*
G37*
G36*
X441511Y461000D02*
X441461Y461475D01*
X441310Y461900D01*
X441058Y462275D01*
X440706Y462600D01*
X440253Y462875D01*
X439700Y463100D01*
X439046Y463275D01*
X438292Y463400D01*
X437436Y463475D01*
X436480Y463500D01*
Y468500D01*
X437436Y468525D01*
X438292Y468600D01*
X439046Y468725D01*
X439700Y468900D01*
X440253Y469125D01*
X440706Y469400D01*
X441058Y469725D01*
X441310Y470100D01*
X441461Y470525D01*
X441511Y471000D01*
Y461000D01*
D02*
G37*
G36*
X632017Y448270D02*
X632155Y446670D01*
X632275Y446020D01*
X632430Y445470D01*
X632619Y445019D01*
X632843Y444669D01*
X633101Y444420D01*
X633393Y444269D01*
X633719Y444220D01*
X625280D01*
X625607Y444269D01*
X625900Y444420D01*
X626157Y444669D01*
X626381Y445019D01*
X626570Y445470D01*
X626725Y446020D01*
X626845Y446670D01*
X626931Y447420D01*
X626983Y448270D01*
X627000Y449220D01*
X632000D01*
X632017Y448270D01*
D02*
G37*
G36*
X277475Y432510D02*
X277481Y432450D01*
X277492Y432030D01*
X277500Y430531D01*
X275500D01*
X275490Y430910D01*
X275460Y431250D01*
X275410Y431550D01*
X275340Y431810D01*
X275250Y432030D01*
X275140Y432211D01*
X275010Y432350D01*
X274860Y432450D01*
X274690Y432510D01*
X274500Y432531D01*
X277470D01*
X277475Y432510D01*
D02*
G37*
G36*
X248322Y434538D02*
X246891Y432778D01*
X246310Y431909D01*
X245818Y431047D01*
X245415Y430192D01*
X245102Y429344D01*
X244879Y428504D01*
X244745Y427670D01*
X244700Y426844D01*
X239700Y426792D01*
X239655Y427623D01*
X239519Y428459D01*
X239293Y429298D01*
X238976Y430142D01*
X238568Y430989D01*
X238070Y431841D01*
X237481Y432697D01*
X236802Y433557D01*
X236032Y434421D01*
X235172Y435289D01*
X249171Y435429D01*
X248322Y434538D01*
D02*
G37*
G36*
X632775Y435759D02*
X632350Y435607D01*
X631975Y435354D01*
X631650Y435001D01*
X631375Y434549D01*
X631150Y433995D01*
X630975Y433342D01*
X630850Y432588D01*
X630775Y431735D01*
X630766Y431391D01*
X630775Y431032D01*
X630849Y430123D01*
X630973Y429319D01*
X631147Y428620D01*
X631370Y428025D01*
X631642Y427535D01*
X631965Y427149D01*
X632337Y426868D01*
X632758Y426692D01*
X633229Y426620D01*
X623250Y427015D01*
X623725Y427047D01*
X624150Y427184D01*
X624525Y427426D01*
X624850Y427772D01*
X625125Y428223D01*
X625350Y428778D01*
X625525Y429438D01*
X625650Y430202D01*
X625725Y431072D01*
X625743Y431769D01*
X625520Y435331D01*
X625449Y435580D01*
X625370Y435731D01*
X625280Y435780D01*
X633250Y435811D01*
X632775Y435759D01*
D02*
G37*
G36*
X706810Y423541D02*
X706640Y423480D01*
X706490Y423378D01*
X706360Y423236D01*
X706250Y423053D01*
X706160Y422830D01*
X706090Y422566D01*
X706040Y422262D01*
X706010Y421916D01*
X706000Y421530D01*
X704000D01*
X703990Y421916D01*
X703960Y422262D01*
X703910Y422566D01*
X703840Y422830D01*
X703750Y423053D01*
X703640Y423236D01*
X703510Y423378D01*
X703360Y423480D01*
X703190Y423541D01*
X703000Y423561D01*
X707000D01*
X706810Y423541D01*
D02*
G37*
G36*
X686810D02*
X686640Y423480D01*
X686490Y423378D01*
X686360Y423236D01*
X686250Y423053D01*
X686160Y422830D01*
X686090Y422566D01*
X686040Y422262D01*
X686010Y421916D01*
X686000Y421530D01*
X684000D01*
X683990Y421916D01*
X683960Y422262D01*
X683910Y422566D01*
X683840Y422830D01*
X683750Y423053D01*
X683640Y423236D01*
X683510Y423378D01*
X683360Y423480D01*
X683190Y423541D01*
X683000Y423561D01*
X687000D01*
X686810Y423541D01*
D02*
G37*
G36*
X621475Y421157D02*
X621245Y421232D01*
X620937Y421298D01*
X620550Y421357D01*
X619539Y421452D01*
X617430Y421534D01*
X615630Y421550D01*
Y426550D01*
X616570Y426554D01*
X620937Y426802D01*
X621245Y426868D01*
X621475Y426943D01*
Y421157D01*
D02*
G37*
G36*
X656325Y411265D02*
X656225Y411217D01*
X656137Y411138D01*
X656060Y411026D01*
X655996Y410883D01*
X655943Y410708D01*
X655901Y410502D01*
X655872Y410264D01*
X655854Y409993D01*
X655848Y409692D01*
X653848D01*
X653842Y409993D01*
X653795Y410502D01*
X653754Y410708D01*
X653701Y410883D01*
X653636Y411026D01*
X653560Y411138D01*
X653472Y411217D01*
X653371Y411265D01*
X653260Y411281D01*
X656437D01*
X656325Y411265D01*
D02*
G37*
G36*
X651477D02*
X651377Y411217D01*
X651289Y411138D01*
X651212Y411026D01*
X651147Y410883D01*
X651094Y410708D01*
X651053Y410502D01*
X651023Y410264D01*
X651006Y409993D01*
X651000Y409692D01*
X649000D01*
X648994Y409993D01*
X648947Y410502D01*
X648906Y410708D01*
X648853Y410883D01*
X648788Y411026D01*
X648711Y411138D01*
X648623Y411217D01*
X648523Y411265D01*
X648411Y411281D01*
X651589D01*
X651477Y411265D01*
D02*
G37*
G36*
X566066Y409369D02*
X566040Y409555D01*
X565961Y409722D01*
X565830Y409869D01*
X565647Y409997D01*
X565412Y410105D01*
X565124Y410193D01*
X564784Y410262D01*
X564392Y410311D01*
X563947Y410340D01*
X563450Y410350D01*
Y412350D01*
X563947Y412360D01*
X564784Y412438D01*
X565124Y412507D01*
X565412Y412595D01*
X565647Y412703D01*
X565830Y412831D01*
X565961Y412978D01*
X566040Y413145D01*
X566066Y413331D01*
Y409369D01*
D02*
G37*
G36*
X725891Y412639D02*
X725704Y412413D01*
X725539Y412181D01*
X725396Y411942D01*
X725275Y411697D01*
X725176Y411445D01*
X725099Y411187D01*
X725052Y410959D01*
X725080Y410800D01*
X725180Y410500D01*
X725320Y410240D01*
X725500Y410020D01*
X725720Y409840D01*
X725980Y409700D01*
X726280Y409600D01*
X726620Y409540D01*
X727000Y409520D01*
X724000Y407520D01*
X721000Y409520D01*
X721380Y409540D01*
X721720Y409600D01*
X722020Y409700D01*
X722280Y409840D01*
X722500Y410020D01*
X722680Y410240D01*
X722820Y410500D01*
X722920Y410800D01*
X722948Y410959D01*
X722901Y411187D01*
X722824Y411445D01*
X722725Y411697D01*
X722604Y411942D01*
X722461Y412181D01*
X722296Y412413D01*
X722109Y412639D01*
X721900Y412858D01*
X726100D01*
X725891Y412639D01*
D02*
G37*
G36*
X686020Y411140D02*
X686080Y410800D01*
X686180Y410500D01*
X686320Y410240D01*
X686500Y410020D01*
X686720Y409840D01*
X686980Y409700D01*
X687280Y409600D01*
X687620Y409540D01*
X688000Y409520D01*
X685000Y407520D01*
X682000Y409520D01*
X682380Y409540D01*
X682720Y409600D01*
X683020Y409700D01*
X683280Y409840D01*
X683500Y410020D01*
X683680Y410240D01*
X683820Y410500D01*
X683920Y410800D01*
X683980Y411140D01*
X684000Y411520D01*
X686000D01*
X686020Y411140D01*
D02*
G37*
G36*
X244745Y414877D02*
X244881Y414041D01*
X245107Y413202D01*
X245424Y412358D01*
X245832Y411511D01*
X246330Y410659D01*
X246919Y409803D01*
X247598Y408943D01*
X248368Y408079D01*
X249228Y407211D01*
X235229Y407071D01*
X236078Y407962D01*
X237509Y409722D01*
X238090Y410591D01*
X238582Y411453D01*
X238985Y412308D01*
X239298Y413156D01*
X239521Y413996D01*
X239655Y414830D01*
X239700Y415656D01*
X244700Y415708D01*
X244745Y414877D01*
D02*
G37*
G36*
X655854Y402501D02*
X655901Y401982D01*
X655943Y401772D01*
X655996Y401594D01*
X656060Y401448D01*
X656137Y401335D01*
X656225Y401254D01*
X656325Y401205D01*
X656437Y401189D01*
X653260D01*
X653372Y401205D01*
X653472Y401254D01*
X653560Y401335D01*
X653636Y401448D01*
X653701Y401594D01*
X653754Y401772D01*
X653795Y401982D01*
X653825Y402225D01*
X653843Y402501D01*
X653848Y402808D01*
X655848D01*
X655854Y402501D01*
D02*
G37*
G36*
X651006D02*
X651053Y401982D01*
X651094Y401772D01*
X651147Y401594D01*
X651212Y401448D01*
X651289Y401335D01*
X651377Y401254D01*
X651477Y401205D01*
X651589Y401189D01*
X648411D01*
X648523Y401205D01*
X648623Y401254D01*
X648711Y401335D01*
X648788Y401448D01*
X648853Y401594D01*
X648906Y401772D01*
X648947Y401982D01*
X648977Y402225D01*
X648994Y402501D01*
X649000Y402808D01*
X651000D01*
X651006Y402501D01*
D02*
G37*
G36*
X708000Y402980D02*
X707620Y402960D01*
X707280Y402900D01*
X706980Y402800D01*
X706720Y402660D01*
X706500Y402480D01*
X706320Y402260D01*
X706180Y402000D01*
X706080Y401700D01*
X706020Y401360D01*
X706000Y400980D01*
X704000D01*
X703980Y401360D01*
X703920Y401700D01*
X703820Y402000D01*
X703680Y402260D01*
X703500Y402480D01*
X703280Y402660D01*
X703020Y402800D01*
X702720Y402900D01*
X702380Y402960D01*
X702000Y402980D01*
X705000Y404980D01*
X708000Y402980D01*
D02*
G37*
G36*
X566066Y396669D02*
X566040Y396855D01*
X565961Y397022D01*
X565830Y397169D01*
X565647Y397297D01*
X565412Y397405D01*
X565124Y397493D01*
X564784Y397562D01*
X564392Y397611D01*
X563947Y397640D01*
X563450Y397650D01*
Y399650D01*
X563947Y399660D01*
X564784Y399738D01*
X565124Y399807D01*
X565412Y399895D01*
X565647Y400003D01*
X565830Y400131D01*
X565961Y400278D01*
X566040Y400445D01*
X566066Y400631D01*
Y396669D01*
D02*
G37*
G36*
X799031Y396469D02*
X799061Y393500D01*
X799039Y393690D01*
X798977Y393860D01*
X798874Y394010D01*
X798731Y394140D01*
X798548Y394250D01*
X798325Y394340D01*
X798062Y394410D01*
X797758Y394460D01*
X797414Y394490D01*
X797030Y394500D01*
Y396500D01*
X799031Y396469D01*
D02*
G37*
G36*
X782970Y394500D02*
X782586Y394490D01*
X782242Y394460D01*
X781938Y394410D01*
X781675Y394340D01*
X781452Y394250D01*
X781269Y394140D01*
X781126Y394010D01*
X781023Y393860D01*
X780961Y393690D01*
X780939Y393500D01*
X780969Y396469D01*
X780990Y396475D01*
X781049Y396480D01*
X781469Y396492D01*
X782970Y396500D01*
Y394500D01*
D02*
G37*
G36*
X277556Y392703D02*
X277500Y392519D01*
Y392307D01*
X277556Y392067D01*
X277670Y391798D01*
X277839Y391501D01*
X278065Y391176D01*
X278348Y390822D01*
X279084Y390031D01*
X277670Y388616D01*
X277259Y389012D01*
X276524Y389635D01*
X276199Y389861D01*
X275902Y390031D01*
X275633Y390144D01*
X275393Y390200D01*
X275180D01*
X274997Y390144D01*
X274841Y390031D01*
X277670Y392859D01*
X277556Y392703D01*
D02*
G37*
G36*
X244834Y399761D02*
X244935Y399475D01*
X245103Y399144D01*
X245338Y398767D01*
X245641Y398345D01*
X246448Y397364D01*
X247524Y396201D01*
X248058Y395658D01*
X252299Y399900D01*
X252304Y398283D01*
X252577Y394192D01*
X252754Y393082D01*
X252974Y392098D01*
X253237Y391241D01*
X253544Y390510D01*
X253893Y389906D01*
X254285Y389429D01*
X252871Y388015D01*
X252394Y388407D01*
X251790Y388756D01*
X251059Y389063D01*
X250202Y389326D01*
X249218Y389546D01*
X248108Y389723D01*
X245507Y389948D01*
X244017Y389996D01*
X242400Y390000D01*
X246642Y394242D01*
X246099Y394776D01*
X243955Y396659D01*
X243533Y396962D01*
X243156Y397197D01*
X242825Y397365D01*
X242539Y397466D01*
X242298Y397500D01*
X244800Y400001D01*
X244834Y399761D01*
D02*
G37*
G36*
X799061Y383000D02*
X799041Y383190D01*
X798980Y383360D01*
X798878Y383510D01*
X798736Y383640D01*
X798553Y383750D01*
X798330Y383840D01*
X798066Y383910D01*
X797761Y383960D01*
X797416Y383990D01*
X797030Y384000D01*
Y386000D01*
X797416Y386010D01*
X797761Y386040D01*
X798066Y386090D01*
X798330Y386160D01*
X798553Y386250D01*
X798736Y386360D01*
X798878Y386490D01*
X798980Y386640D01*
X799041Y386810D01*
X799061Y387000D01*
Y383000D01*
D02*
G37*
G36*
X780959Y386810D02*
X781020Y386640D01*
X781122Y386490D01*
X781264Y386360D01*
X781447Y386250D01*
X781670Y386160D01*
X781934Y386090D01*
X782238Y386040D01*
X782584Y386010D01*
X782970Y386000D01*
Y384000D01*
X782584Y383990D01*
X782238Y383960D01*
X781934Y383910D01*
X781670Y383840D01*
X781447Y383750D01*
X781264Y383640D01*
X781122Y383510D01*
X781020Y383360D01*
X780959Y383190D01*
X780939Y383000D01*
Y387000D01*
X780959Y386810D01*
D02*
G37*
G36*
X706010Y380834D02*
X706040Y380489D01*
X706090Y380184D01*
X706160Y379920D01*
X706250Y379697D01*
X706360Y379514D01*
X706490Y379372D01*
X706640Y379270D01*
X706810Y379209D01*
X707000Y379189D01*
X703000D01*
X703190Y379209D01*
X703360Y379270D01*
X703510Y379372D01*
X703640Y379514D01*
X703750Y379697D01*
X703840Y379920D01*
X703910Y380184D01*
X703960Y380489D01*
X703990Y380834D01*
X704000Y381219D01*
X706000D01*
X706010Y380834D01*
D02*
G37*
G36*
X656393Y378731D02*
X656100Y378581D01*
X655843Y378330D01*
X655619Y377980D01*
X655430Y377531D01*
X655275Y376981D01*
X655155Y376330D01*
X655069Y375580D01*
X655017Y374730D01*
X655000Y373781D01*
X650000D01*
X649983Y374730D01*
X649845Y376330D01*
X649725Y376981D01*
X649570Y377531D01*
X649381Y377980D01*
X649157Y378330D01*
X648900Y378581D01*
X648607Y378731D01*
X648280Y378781D01*
X656720D01*
X656393Y378731D01*
D02*
G37*
G36*
X499710Y367841D02*
X499540Y367780D01*
X499390Y367678D01*
X499260Y367536D01*
X499150Y367353D01*
X499060Y367130D01*
X498990Y366866D01*
X498940Y366562D01*
X498910Y366216D01*
X498900Y365830D01*
X496900D01*
X496890Y366216D01*
X496860Y366562D01*
X496810Y366866D01*
X496740Y367130D01*
X496650Y367353D01*
X496540Y367536D01*
X496410Y367678D01*
X496260Y367780D01*
X496090Y367841D01*
X495900Y367861D01*
X499900D01*
X499710Y367841D01*
D02*
G37*
G36*
X474310D02*
X474140Y367780D01*
X473990Y367678D01*
X473860Y367536D01*
X473750Y367353D01*
X473660Y367130D01*
X473590Y366866D01*
X473540Y366562D01*
X473510Y366216D01*
X473500Y365830D01*
X471500D01*
X471490Y366216D01*
X471460Y366562D01*
X471410Y366866D01*
X471340Y367130D01*
X471250Y367353D01*
X471140Y367536D01*
X471010Y367678D01*
X470860Y367780D01*
X470690Y367841D01*
X470500Y367861D01*
X474500D01*
X474310Y367841D01*
D02*
G37*
G36*
X444260Y367839D02*
X444090Y367776D01*
X443940Y367674D01*
X443810Y367531D01*
X443700Y367348D01*
X443610Y367125D01*
X443540Y366862D01*
X443490Y366558D01*
X443460Y366214D01*
X443450Y365830D01*
X441450D01*
X441480Y367831D01*
X444450Y367861D01*
X444260Y367839D01*
D02*
G37*
G36*
X498908Y363340D02*
X498974Y362700D01*
X499031Y362439D01*
X499105Y362220D01*
X499195Y362039D01*
X499302Y361899D01*
X499425Y361800D01*
X499564Y361740D01*
X499720Y361720D01*
X495900Y361689D01*
X496090Y361711D01*
X496260Y361773D01*
X496410Y361875D01*
X496540Y362018D01*
X496650Y362201D01*
X496740Y362424D01*
X496810Y362687D01*
X496860Y362991D01*
X496890Y363335D01*
X496900Y363719D01*
X498900D01*
X498908Y363340D01*
D02*
G37*
G36*
X471134Y361720D02*
X470735Y361307D01*
X470106Y360568D01*
X469877Y360241D01*
X469704Y359944D01*
X469588Y359676D01*
X469529Y359436D01*
X469525Y359226D01*
X469579Y359044D01*
X469689Y358891D01*
X466891Y361689D01*
X467044Y361579D01*
X467226Y361525D01*
X467436Y361529D01*
X467676Y361588D01*
X467944Y361704D01*
X468241Y361877D01*
X468568Y362106D01*
X468923Y362392D01*
X469720Y363134D01*
X471134Y361720D01*
D02*
G37*
G36*
X441134D02*
X440735Y361307D01*
X440106Y360568D01*
X439877Y360241D01*
X439704Y359944D01*
X439588Y359676D01*
X439529Y359436D01*
X439525Y359226D01*
X439579Y359044D01*
X439689Y358891D01*
X436891Y361689D01*
X437044Y361579D01*
X437226Y361525D01*
X437436Y361529D01*
X437676Y361588D01*
X437944Y361704D01*
X438241Y361877D01*
X438568Y362106D01*
X438923Y362392D01*
X439720Y363134D01*
X441134Y361720D01*
D02*
G37*
G36*
X439450Y388458D02*
Y375646D01*
X439391Y375350D01*
X439391Y375350D01*
Y365717D01*
X437905Y364231D01*
X437587Y363935D01*
X437357Y363750D01*
X429250D01*
Y356153D01*
X429241Y356109D01*
X429250Y356065D01*
Y355805D01*
X428605Y355274D01*
X427705Y355663D01*
X427412Y355900D01*
Y378079D01*
X438277Y388944D01*
X439450Y388458D01*
D02*
G37*
G36*
X464850Y365800D02*
X467678D01*
X468135Y364698D01*
X467325Y363750D01*
X459250D01*
Y356153D01*
X459241Y356109D01*
X459250Y356065D01*
Y355651D01*
X458835Y355161D01*
X458423Y354749D01*
X457250Y355235D01*
Y355750D01*
X451250D01*
Y349750D01*
X451765D01*
X452251Y348577D01*
X437233Y333559D01*
X417544D01*
X417058Y334732D01*
X433083Y350758D01*
X433405Y351056D01*
X433647Y351249D01*
X433647Y351250D01*
X434065D01*
X434109Y351241D01*
X434153Y351250D01*
X441750D01*
X441750Y349750D01*
X447750D01*
Y357500D01*
X449500D01*
Y359250D01*
X457250D01*
Y365250D01*
X455792D01*
X454750Y365800D01*
Y392141D01*
X464850D01*
Y365800D01*
D02*
G37*
G36*
X490250D02*
X494841D01*
Y363750D01*
X489250D01*
Y356153D01*
X489241Y356109D01*
X489250Y356065D01*
Y355651D01*
X488835Y355161D01*
X488423Y354749D01*
X487250Y355235D01*
Y355750D01*
X481250D01*
Y349750D01*
X481765D01*
X482251Y348577D01*
X463233Y329559D01*
X443544D01*
X443058Y330732D01*
X463083Y350758D01*
X463405Y351056D01*
X463647Y351249D01*
X463647Y351250D01*
X464065D01*
X464109Y351241D01*
X464153Y351250D01*
X471750D01*
X471750Y349750D01*
X477750D01*
Y357500D01*
X479500D01*
Y359250D01*
X487250D01*
Y365250D01*
X481192D01*
X480150Y365800D01*
Y392141D01*
X490250D01*
Y365800D01*
D02*
G37*
G36*
X494109Y353280D02*
X493953Y353394D01*
X493769Y353450D01*
X493557D01*
X493317Y353394D01*
X493048Y353280D01*
X492751Y353111D01*
X492426Y352884D01*
X492072Y352602D01*
X491281Y351866D01*
X489866Y353280D01*
X490262Y353691D01*
X490885Y354426D01*
X491111Y354751D01*
X491281Y355048D01*
X491394Y355317D01*
X491450Y355557D01*
Y355770D01*
X491394Y355953D01*
X491281Y356109D01*
X494109Y353280D01*
D02*
G37*
G36*
X464109D02*
X463953Y353394D01*
X463769Y353450D01*
X463557D01*
X463317Y353394D01*
X463048Y353280D01*
X462751Y353111D01*
X462426Y352884D01*
X462072Y352602D01*
X461281Y351866D01*
X459866Y353280D01*
X460262Y353691D01*
X460885Y354426D01*
X461111Y354751D01*
X461281Y355048D01*
X461394Y355317D01*
X461450Y355557D01*
Y355770D01*
X461394Y355953D01*
X461281Y356109D01*
X464109Y353280D01*
D02*
G37*
G36*
X434109D02*
X433953Y353394D01*
X433769Y353450D01*
X433557D01*
X433317Y353394D01*
X433048Y353280D01*
X432751Y353111D01*
X432426Y352884D01*
X432072Y352602D01*
X431281Y351866D01*
X429866Y353280D01*
X430262Y353691D01*
X430885Y354426D01*
X431111Y354751D01*
X431281Y355048D01*
X431394Y355317D01*
X431450Y355557D01*
Y355770D01*
X431394Y355953D01*
X431281Y356109D01*
X434109Y353280D01*
D02*
G37*
G36*
X362542Y353238D02*
X362533Y353256D01*
X362501Y353271D01*
X362446Y353284D01*
X362368Y353296D01*
X362144Y353314D01*
X361636Y353327D01*
X361422Y353328D01*
Y355328D01*
X362806Y355401D01*
X362542Y353238D01*
D02*
G37*
G36*
X413295Y379273D02*
Y360371D01*
X402483Y349559D01*
X395500D01*
Y350500D01*
X394559D01*
Y362196D01*
X412122Y379759D01*
X413295Y379273D01*
D02*
G37*
G36*
X342361Y349391D02*
X342587Y349204D01*
X342819Y349039D01*
X343058Y348896D01*
X343303Y348775D01*
X343555Y348676D01*
X343813Y348599D01*
X344078Y348544D01*
X344350Y348511D01*
X344628Y348500D01*
Y346500D01*
X344350Y346489D01*
X344078Y346456D01*
X343813Y346401D01*
X343555Y346324D01*
X343303Y346225D01*
X343058Y346104D01*
X342819Y345961D01*
X342587Y345796D01*
X342361Y345609D01*
X342142Y345400D01*
Y349600D01*
X342361Y349391D01*
D02*
G37*
G36*
X812531Y347970D02*
X812561Y345000D01*
X812539Y345190D01*
X812477Y345360D01*
X812374Y345510D01*
X812231Y345640D01*
X812048Y345750D01*
X811825Y345840D01*
X811562Y345910D01*
X811258Y345960D01*
X810914Y345990D01*
X810530Y346000D01*
Y348000D01*
X812531Y347970D01*
D02*
G37*
G36*
X799470Y346000D02*
X799085Y345990D01*
X798742Y345960D01*
X798438Y345910D01*
X798175Y345840D01*
X797952Y345750D01*
X797769Y345640D01*
X797626Y345510D01*
X797523Y345360D01*
X797461Y345190D01*
X797439Y345000D01*
X797469Y347970D01*
X799470Y348000D01*
Y346000D01*
D02*
G37*
G36*
X603550Y353550D02*
X603700Y352700D01*
X603950Y351950D01*
X604300Y351300D01*
X604750Y350750D01*
X605300Y350300D01*
X605950Y349950D01*
X606700Y349700D01*
X607550Y349550D01*
X608500Y349500D01*
Y344500D01*
X607550Y344450D01*
X606700Y344300D01*
X605950Y344050D01*
X605300Y343700D01*
X604750Y343250D01*
X604300Y342700D01*
X603950Y342050D01*
X603700Y341300D01*
X603550Y340450D01*
X603500Y339500D01*
X598500Y347000D01*
X603500Y354500D01*
X603550Y353550D01*
D02*
G37*
G36*
X254456Y342703D02*
X254400Y342519D01*
Y342307D01*
X254456Y342067D01*
X254569Y341798D01*
X254739Y341501D01*
X254965Y341176D01*
X255248Y340822D01*
X255984Y340031D01*
X254569Y338616D01*
X254159Y339012D01*
X253424Y339635D01*
X253099Y339861D01*
X252802Y340031D01*
X252533Y340144D01*
X252293Y340200D01*
X252080D01*
X251897Y340144D01*
X251741Y340031D01*
X254569Y342859D01*
X254456Y342703D01*
D02*
G37*
G36*
X812561Y324500D02*
X812541Y324690D01*
X812480Y324860D01*
X812378Y325010D01*
X812236Y325140D01*
X812053Y325250D01*
X811830Y325340D01*
X811566Y325410D01*
X811261Y325460D01*
X810916Y325490D01*
X810530Y325500D01*
Y327500D01*
X810916Y327510D01*
X811261Y327540D01*
X811566Y327590D01*
X811830Y327660D01*
X812053Y327750D01*
X812236Y327860D01*
X812378Y327990D01*
X812480Y328140D01*
X812541Y328310D01*
X812561Y328500D01*
Y324500D01*
D02*
G37*
G36*
X797459Y328310D02*
X797520Y328140D01*
X797622Y327990D01*
X797764Y327860D01*
X797947Y327750D01*
X798170Y327660D01*
X798434Y327590D01*
X798738Y327540D01*
X799084Y327510D01*
X799470Y327500D01*
Y325500D01*
X799084Y325490D01*
X798738Y325460D01*
X798434Y325410D01*
X798170Y325340D01*
X797947Y325250D01*
X797764Y325140D01*
X797622Y325010D01*
X797520Y324860D01*
X797459Y324690D01*
X797439Y324500D01*
Y328500D01*
X797459Y328310D01*
D02*
G37*
G36*
X856941Y319900D02*
X833000D01*
Y308523D01*
X820803D01*
X810596Y318730D01*
X810648Y320000D01*
X824500D01*
Y331000D01*
X824500Y331000D01*
Y339000D01*
X824500Y339000D01*
Y350000D01*
X814296D01*
X814000Y350059D01*
X814000Y350059D01*
X810329D01*
Y360770D01*
X810096Y361941D01*
X809433Y362933D01*
X809433Y362933D01*
X802039Y370327D01*
X802525Y371500D01*
X826000D01*
Y398500D01*
X801296D01*
X801000Y398559D01*
X801000Y398559D01*
X795329D01*
Y400209D01*
X795329Y400209D01*
X795096Y401380D01*
X794433Y402372D01*
X794433Y402372D01*
X786122Y410683D01*
X785129Y411346D01*
X783959Y411579D01*
X783959Y411579D01*
X729074D01*
X728476Y412699D01*
X728710Y413049D01*
X729098Y415000D01*
X728710Y416951D01*
X727605Y418605D01*
X725951Y419710D01*
X724000Y420098D01*
X722049Y419710D01*
X720395Y418605D01*
X719290Y416951D01*
X718902Y415000D01*
X719290Y413049D01*
X719524Y412699D01*
X718925Y411579D01*
X710074D01*
X709476Y412699D01*
X709710Y413049D01*
X710098Y415000D01*
X709710Y416951D01*
X708605Y418605D01*
X708059Y418970D01*
Y421500D01*
X709500D01*
Y436500D01*
X699500D01*
Y421500D01*
X701941D01*
Y418970D01*
X701395Y418605D01*
X700290Y416951D01*
X699902Y415000D01*
X700290Y413049D01*
X700524Y412699D01*
X699926Y411579D01*
X688059D01*
Y421500D01*
X690500D01*
Y436500D01*
X680500D01*
Y421500D01*
X681941D01*
Y411579D01*
X658750D01*
X658750Y421750D01*
X660250Y421750D01*
Y427750D01*
X644750D01*
Y421750D01*
X646250Y421750D01*
X646250Y420480D01*
Y411579D01*
X637405D01*
X636710Y412043D01*
X636460Y413301D01*
X635355Y414955D01*
X633701Y416060D01*
X631750Y416448D01*
X622250D01*
X620299Y416060D01*
X618645Y414955D01*
X617540Y413301D01*
X617152Y411350D01*
X617540Y409399D01*
X618645Y407745D01*
X620299Y406640D01*
X622250Y406252D01*
X631191D01*
X631575Y405867D01*
X631589Y405850D01*
Y404853D01*
X630486Y403748D01*
X622250D01*
X620299Y403360D01*
X618645Y402255D01*
X617540Y400601D01*
X617152Y398650D01*
X617540Y396699D01*
X618645Y395045D01*
X620299Y393940D01*
X621445Y393712D01*
Y392417D01*
X619714Y392073D01*
X617564Y390636D01*
X616127Y388486D01*
X615971Y387700D01*
X638029D01*
X637873Y388486D01*
X636436Y390636D01*
X634286Y392073D01*
X632555Y392417D01*
Y393712D01*
X633701Y393940D01*
X635355Y395045D01*
X636460Y396699D01*
X636848Y398650D01*
X636840Y398689D01*
X637646Y399671D01*
X638036D01*
X638036Y399671D01*
X639206Y399904D01*
X640199Y400567D01*
X640553Y400921D01*
X646250D01*
Y390750D01*
X658750D01*
Y400921D01*
X701941D01*
Y398970D01*
X701395Y398605D01*
X700290Y396951D01*
X699902Y395000D01*
X700290Y393049D01*
X701395Y391395D01*
X701941Y391030D01*
Y381250D01*
X698750D01*
Y368750D01*
X711250D01*
Y381250D01*
X708059D01*
Y391030D01*
X708605Y391395D01*
X709710Y393049D01*
X710098Y395000D01*
X709710Y396951D01*
X708605Y398605D01*
X708059Y398970D01*
Y400921D01*
X721216D01*
X721973Y399744D01*
X721961Y399651D01*
X720395Y398605D01*
X719290Y396951D01*
X718902Y395000D01*
X719290Y393049D01*
X720395Y391395D01*
X720941Y391030D01*
Y312200D01*
X720941Y312200D01*
X721174Y311029D01*
X721837Y310037D01*
X738637Y293237D01*
X738637Y293237D01*
X739630Y292574D01*
X740800Y292341D01*
X741800D01*
Y287750D01*
X770200D01*
Y303050D01*
X741800D01*
Y300385D01*
X740627Y299899D01*
X727059Y313467D01*
Y391030D01*
X727605Y391395D01*
X728710Y393049D01*
X729098Y395000D01*
X728710Y396951D01*
X727605Y398605D01*
X726039Y399651D01*
X726027Y399744D01*
X726784Y400921D01*
X780811D01*
X782001Y399732D01*
X781515Y398559D01*
X779000D01*
X778705Y398500D01*
X754000D01*
Y371500D01*
X783000D01*
Y381941D01*
X784671D01*
Y373890D01*
X784671Y373890D01*
X784904Y372719D01*
X785567Y371727D01*
X799671Y357622D01*
Y350059D01*
X796000D01*
X796000Y350059D01*
X795704Y350000D01*
X785500D01*
Y339000D01*
X785500Y339000D01*
Y331000D01*
X785500Y331000D01*
Y320000D01*
X799441D01*
Y315429D01*
X799441Y315429D01*
X799674Y314258D01*
X800337Y313266D01*
X814302Y299302D01*
X815294Y298638D01*
X816464Y298406D01*
X824769D01*
X831631Y291543D01*
X831726Y291428D01*
X831926Y291082D01*
X832143Y290564D01*
X832353Y289880D01*
X832542Y289035D01*
X832695Y288079D01*
X832957Y284146D01*
X832960Y282984D01*
X832896Y282500D01*
X833309Y279367D01*
X834518Y276448D01*
X836441Y273941D01*
X838948Y272018D01*
X841867Y270809D01*
X844666Y270441D01*
Y269160D01*
X841867Y268791D01*
X838948Y267582D01*
X836441Y265658D01*
X834518Y263152D01*
X833309Y260233D01*
X832896Y257100D01*
X833115Y255440D01*
X833102Y255268D01*
X833447Y252458D01*
X833510Y251308D01*
X833509Y250265D01*
X833446Y249356D01*
X833329Y248587D01*
X833169Y247962D01*
X832981Y247481D01*
X832784Y247136D01*
X832660Y246986D01*
X823733Y238059D01*
X812929D01*
X812929Y238059D01*
X811758Y237826D01*
X810766Y237163D01*
X810766Y237163D01*
X800337Y226734D01*
X799674Y225742D01*
X799441Y224571D01*
X799441Y224571D01*
Y220000D01*
X785500D01*
Y209000D01*
X785500Y209000D01*
Y201000D01*
X785500Y201000D01*
Y190000D01*
X795704D01*
X796000Y189941D01*
X796000Y189941D01*
X799672D01*
Y185037D01*
X785567Y170933D01*
X784904Y169940D01*
X784671Y168770D01*
X784671Y168769D01*
Y158059D01*
X783000D01*
Y168500D01*
X754000D01*
Y141579D01*
X708172D01*
X707787Y142849D01*
X708605Y143395D01*
X709710Y145049D01*
X710098Y147000D01*
X709970Y147644D01*
X725350Y163024D01*
X725350Y163024D01*
X726013Y164016D01*
X726246Y165187D01*
Y225720D01*
X740627Y240101D01*
X741800Y239615D01*
Y236950D01*
X770200D01*
Y252250D01*
X741800D01*
Y247659D01*
X740800D01*
X739630Y247426D01*
X738637Y246763D01*
X738637Y246763D01*
X721024Y229150D01*
X720361Y228158D01*
X720128Y226987D01*
X720128Y226987D01*
Y166454D01*
X712520Y158846D01*
X711250Y159372D01*
Y171250D01*
X698750D01*
Y162046D01*
X698691Y161750D01*
X698691Y161750D01*
Y160017D01*
X689733Y151058D01*
X688605Y150605D01*
X686951Y151710D01*
X685000Y152098D01*
X683049Y151710D01*
X681395Y150605D01*
X680290Y148951D01*
X679902Y147000D01*
X680290Y145049D01*
X681395Y143395D01*
X681941Y143030D01*
Y141579D01*
X658750D01*
X658750Y151750D01*
X660250Y151750D01*
Y157750D01*
X644750D01*
Y151750D01*
X646250Y151750D01*
X646250Y150480D01*
Y141579D01*
X637405D01*
X636710Y142043D01*
X636460Y143301D01*
X635355Y144955D01*
X633701Y146060D01*
X631750Y146448D01*
X622250D01*
X620299Y146060D01*
X618645Y144955D01*
X617540Y143301D01*
X617152Y141350D01*
X617540Y139399D01*
X618645Y137745D01*
X620299Y136640D01*
X622250Y136252D01*
X631191D01*
X631575Y135867D01*
X631589Y135850D01*
Y134853D01*
X630486Y133748D01*
X622250D01*
X620299Y133360D01*
X618645Y132255D01*
X617540Y130601D01*
X617152Y128650D01*
X617540Y126699D01*
X618645Y125045D01*
X620299Y123940D01*
X621445Y123712D01*
Y122417D01*
X619714Y122073D01*
X617564Y120636D01*
X616634Y119244D01*
X615041Y119041D01*
X613409Y120673D01*
Y149221D01*
X613651Y149462D01*
X618240D01*
X619404Y149416D01*
X620302Y149333D01*
X620453Y149310D01*
X620734Y149254D01*
X620843Y149218D01*
X621017Y149197D01*
X622250Y148952D01*
X631750D01*
X633701Y149340D01*
X635355Y150445D01*
X636460Y152099D01*
X636848Y154050D01*
X636460Y156001D01*
X635355Y157655D01*
X633701Y158760D01*
X631991Y159100D01*
X631954Y159161D01*
X631838Y159450D01*
X631721Y159891D01*
X631625Y160476D01*
X631588Y160896D01*
Y161918D01*
X631624Y162331D01*
X631720Y162910D01*
X631837Y163344D01*
X631953Y163629D01*
X632026Y163750D01*
X635750D01*
Y174176D01*
X635759Y174219D01*
X635750Y174263D01*
Y176250D01*
X634329D01*
X634263Y176482D01*
X634178Y176943D01*
X634088Y177987D01*
Y245125D01*
X633739Y246881D01*
X632744Y248369D01*
X605588Y275525D01*
Y340266D01*
X605682Y340798D01*
X605829Y341238D01*
X606003Y341561D01*
X606199Y341801D01*
X606440Y341997D01*
X606762Y342171D01*
X607202Y342318D01*
X607734Y342412D01*
X628250D01*
X630006Y342761D01*
X631494Y343756D01*
X655744Y368006D01*
X656739Y369494D01*
X657088Y371250D01*
Y375192D01*
X657101Y375402D01*
X657173Y376028D01*
X657263Y376518D01*
X657329Y376750D01*
X658750D01*
Y378737D01*
X658759Y378781D01*
X658750Y378824D01*
Y389250D01*
X646250D01*
Y378824D01*
X646241Y378781D01*
X646250Y378737D01*
Y376750D01*
X647671D01*
X647737Y376518D01*
X647822Y376057D01*
X647912Y375013D01*
Y373150D01*
X626349Y351588D01*
X607734D01*
X607202Y351682D01*
X606762Y351829D01*
X606439Y352002D01*
X606199Y352199D01*
X606002Y352439D01*
X605829Y352762D01*
X605682Y353202D01*
X605588Y353735D01*
Y411399D01*
X613651Y419462D01*
X618240D01*
X619404Y419416D01*
X620302Y419333D01*
X620453Y419310D01*
X620734Y419254D01*
X620843Y419218D01*
X621017Y419197D01*
X622250Y418952D01*
X631750D01*
X633701Y419340D01*
X635355Y420445D01*
X636460Y422099D01*
X636848Y424050D01*
X636460Y426001D01*
X635355Y427655D01*
X633701Y428760D01*
X633244Y428851D01*
X633226Y428884D01*
X633097Y429226D01*
X632975Y429721D01*
X632876Y430363D01*
X632838Y430820D01*
Y431918D01*
X632874Y432332D01*
X632971Y432910D01*
X633087Y433345D01*
X633203Y433629D01*
X633276Y433750D01*
X635750D01*
Y444176D01*
X635759Y444220D01*
X635750Y444263D01*
Y446250D01*
X634329D01*
X634263Y446482D01*
X634178Y446943D01*
X634088Y447988D01*
Y451750D01*
X633739Y453506D01*
X632744Y454994D01*
X599494Y488244D01*
X598006Y489239D01*
X596250Y489588D01*
X459550D01*
X457794Y489239D01*
X456306Y488244D01*
X450335Y482274D01*
X449407Y481412D01*
X448635Y480795D01*
X447952Y480320D01*
X447743Y480200D01*
X445692D01*
X445648Y480209D01*
X445605Y480200D01*
X439450D01*
Y471023D01*
X439334Y470953D01*
X439050Y470837D01*
X438615Y470721D01*
X438035Y470625D01*
X437620Y470588D01*
X228000D01*
X226244Y470239D01*
X224756Y469244D01*
X214756Y459244D01*
X213761Y457756D01*
X213412Y456000D01*
Y339000D01*
X213761Y337244D01*
X214756Y335756D01*
X224756Y325756D01*
X226244Y324761D01*
X228000Y324412D01*
X313099D01*
X336588Y300923D01*
X336102Y299750D01*
X333500D01*
Y292000D01*
X331750D01*
Y290250D01*
X324000D01*
Y284250D01*
X324000D01*
Y284000D01*
X324000D01*
Y278000D01*
X331750D01*
Y274500D01*
X324000D01*
Y268500D01*
X324000D01*
Y268250D01*
X324000D01*
Y262250D01*
X331750D01*
Y260500D01*
X333500D01*
Y252750D01*
X339500D01*
X340412Y251885D01*
Y245000D01*
X340761Y243244D01*
X341756Y241756D01*
X345162Y238349D01*
Y207588D01*
X343246D01*
X342250Y208250D01*
Y210237D01*
X342259Y210280D01*
X342250Y210324D01*
Y220750D01*
X343750Y220750D01*
Y226750D01*
X336000D01*
Y228500D01*
X334250D01*
Y236250D01*
X322750D01*
Y228500D01*
X319250D01*
Y236250D01*
X307750D01*
Y228500D01*
X306000D01*
Y226750D01*
X298250D01*
Y220750D01*
X298250D01*
X298439Y219480D01*
X298318Y219353D01*
X298122Y219338D01*
X297919D01*
X297623Y219359D01*
X297014Y219439D01*
X296545Y219538D01*
X296250Y219633D01*
Y221250D01*
X294263D01*
X294219Y221259D01*
X294176Y221250D01*
X285824D01*
X285781Y221259D01*
X285737Y221250D01*
X284678D01*
X284031Y222081D01*
X284377Y222750D01*
X296250D01*
Y233176D01*
X296259Y233220D01*
X296250Y233263D01*
Y235250D01*
X294633D01*
X294538Y235545D01*
X294445Y235982D01*
X294338Y237072D01*
Y237247D01*
X294345Y237448D01*
X294406Y238071D01*
X294487Y238582D01*
X294527Y238750D01*
X295750D01*
Y240737D01*
X295759Y240781D01*
X295750Y240824D01*
Y251250D01*
X283250D01*
X283250Y252750D01*
X277250D01*
Y245000D01*
X275500D01*
Y243250D01*
X267750D01*
Y237250D01*
X267250D01*
Y231250D01*
X275000D01*
Y227750D01*
X267250D01*
Y221750D01*
X268750Y221750D01*
Y211324D01*
X268741Y211280D01*
X268750Y211237D01*
Y209250D01*
X270367D01*
X270462Y208955D01*
X270555Y208518D01*
X270652Y207523D01*
X270594Y206929D01*
X270513Y206418D01*
X270473Y206250D01*
X269250D01*
Y204263D01*
X269241Y204219D01*
X269250Y204176D01*
Y195824D01*
X269241Y195781D01*
X269250Y195737D01*
Y193750D01*
X270271D01*
X270282Y193697D01*
X270412Y192100D01*
Y189259D01*
X270379Y188575D01*
X270322Y188036D01*
X270317Y188000D01*
X269500D01*
Y186013D01*
X269491Y185970D01*
X269500Y185926D01*
Y173000D01*
X279500D01*
Y180557D01*
X279588Y181000D01*
Y191993D01*
X279616Y192352D01*
X279704Y192943D01*
X279811Y193393D01*
X279920Y193692D01*
X279951Y193750D01*
X281750D01*
Y195737D01*
X281759Y195781D01*
X281750Y195824D01*
Y204176D01*
X281759Y204219D01*
X281750Y204263D01*
Y206250D01*
X280133D01*
X280038Y206545D01*
X279946Y206982D01*
X279848Y207977D01*
X279906Y208571D01*
X279987Y209082D01*
X280027Y209250D01*
X281250D01*
Y210473D01*
X281418Y210513D01*
X281904Y210590D01*
X282456Y210631D01*
X282986Y210561D01*
X283455Y210462D01*
X283750Y210367D01*
Y208750D01*
X285737D01*
X285781Y208741D01*
X285824Y208750D01*
X294176D01*
X294219Y208741D01*
X294263Y208750D01*
X296250D01*
Y209973D01*
X296418Y210013D01*
X296904Y210090D01*
X297878Y210162D01*
X298081D01*
X298377Y210141D01*
X298986Y210061D01*
X299455Y209962D01*
X299750Y209867D01*
Y208250D01*
X301737D01*
X301780Y208241D01*
X301824Y208250D01*
X310176D01*
X310219Y208241D01*
X310263Y208250D01*
X312250D01*
Y209671D01*
X312482Y209737D01*
X312943Y209822D01*
X313564Y209876D01*
X314750Y209656D01*
Y208250D01*
X316412D01*
Y206953D01*
X316250Y205750D01*
X315142Y205750D01*
X303750D01*
Y204588D01*
X295750D01*
Y206250D01*
X283250D01*
Y193750D01*
X290602D01*
X291088Y192577D01*
X290756Y192244D01*
X289761Y190756D01*
X289412Y189000D01*
Y188000D01*
X288500D01*
Y173000D01*
X298500D01*
Y180557D01*
X298588Y181000D01*
Y187099D01*
X300744Y189256D01*
X300980Y189608D01*
X302250Y189223D01*
Y187250D01*
X310000D01*
Y185500D01*
X311750D01*
Y177750D01*
X316412D01*
Y174650D01*
X304756Y162994D01*
X303761Y161506D01*
X303412Y159750D01*
Y154250D01*
X301750D01*
Y141750D01*
X314250D01*
Y140250D01*
X301750D01*
Y127750D01*
X314250D01*
Y129727D01*
X314289Y129743D01*
X314594Y129824D01*
X315024Y129895D01*
X315324Y129922D01*
X315676D01*
X315976Y129895D01*
X316405Y129824D01*
X316711Y129743D01*
X316750Y129727D01*
Y127750D01*
X318718D01*
X318744Y127687D01*
X318825Y127387D01*
X318896Y126963D01*
X318922Y126668D01*
Y125324D01*
X318895Y125024D01*
X318824Y124595D01*
X318743Y124289D01*
X318727Y124250D01*
X316750D01*
Y111750D01*
X329250D01*
Y124250D01*
X327273D01*
X327257Y124289D01*
X327176Y124595D01*
X327105Y125024D01*
X327078Y125324D01*
Y126668D01*
X327104Y126963D01*
X327175Y127387D01*
X327256Y127687D01*
X327282Y127750D01*
X329250D01*
Y129268D01*
X329555Y129339D01*
X330001Y129403D01*
X330247Y129422D01*
X330668D01*
X330963Y129396D01*
X331387Y129325D01*
X331687Y129244D01*
X331750Y129218D01*
Y127200D01*
X331750D01*
Y126100D01*
X331750D01*
Y114500D01*
X336073D01*
X336559Y113327D01*
X331311Y108078D01*
X330324D01*
X330024Y108105D01*
X329595Y108176D01*
X329289Y108257D01*
X329250Y108273D01*
Y110250D01*
X316750D01*
Y97750D01*
X320040D01*
X320232Y96782D01*
X321116Y95459D01*
X323459Y93116D01*
X323459Y93116D01*
X324782Y92232D01*
X326343Y91922D01*
X339000D01*
X339000Y91922D01*
X340561Y92232D01*
X341884Y93116D01*
X361884Y113116D01*
X361884Y113116D01*
X362768Y114439D01*
X363078Y116000D01*
X363078Y116000D01*
Y150407D01*
X362972Y150940D01*
X363778Y151922D01*
X366655D01*
X367750Y151500D01*
Y140070D01*
X367750Y139900D01*
Y138800D01*
X367750Y138630D01*
Y127600D01*
X366250D01*
Y122050D01*
X393750D01*
Y125750D01*
X406250D01*
Y138250D01*
X395817D01*
X395772Y138259D01*
X395730Y138250D01*
X393750D01*
Y138250D01*
X393018Y137997D01*
X392250Y138430D01*
X392250Y138800D01*
Y139836D01*
X392570Y140126D01*
X392785Y140278D01*
X392935Y140336D01*
X393750Y139864D01*
Y139750D01*
X406250D01*
Y152250D01*
X401828D01*
X401518Y153811D01*
X400634Y155134D01*
X400634Y155134D01*
X396884Y158884D01*
X395561Y159768D01*
X394000Y160078D01*
X394000Y160078D01*
X363581D01*
X361276Y162384D01*
X359953Y163268D01*
X358392Y163578D01*
X358392Y163578D01*
X351500D01*
Y165459D01*
X351508Y165498D01*
X351507Y165509D01*
X351509Y165520D01*
X351500Y165565D01*
Y176000D01*
X339000D01*
Y163500D01*
X342841D01*
X342856Y163437D01*
X342911Y163057D01*
X342922Y162912D01*
Y162000D01*
X342922Y162000D01*
X343232Y160439D01*
X344116Y159116D01*
X344481Y158752D01*
X343995Y157578D01*
X338689D01*
X334328Y161939D01*
Y162426D01*
X334355Y162726D01*
X334426Y163155D01*
X334507Y163461D01*
X334523Y163500D01*
X336500D01*
Y176000D01*
X325588D01*
Y177500D01*
X336500D01*
Y190000D01*
X334059D01*
Y193733D01*
X334267Y193941D01*
X341642D01*
X342359Y192671D01*
X342191Y191828D01*
X342191Y191828D01*
Y190000D01*
X339000D01*
Y177500D01*
X351500D01*
Y178927D01*
X352770Y179312D01*
X353087Y178837D01*
X354080Y178174D01*
X355250Y177941D01*
X359500D01*
Y177000D01*
X360441D01*
Y172750D01*
X360674Y171579D01*
X361337Y170587D01*
X362329Y169924D01*
X363500Y169691D01*
X364670Y169924D01*
X365500Y170478D01*
X366329Y169924D01*
X367500Y169691D01*
X368671Y169924D01*
X369500Y170478D01*
X370330Y169924D01*
X371500Y169691D01*
X372671Y169924D01*
X373500Y170478D01*
X374329Y169924D01*
X375500Y169691D01*
X376670Y169924D01*
X377500Y170478D01*
X378330Y169924D01*
X379500Y169691D01*
X380671Y169924D01*
X381500Y170478D01*
X382329Y169924D01*
X383500Y169691D01*
X384671Y169924D01*
X385500Y170478D01*
X386329Y169924D01*
X387500Y169691D01*
X388671Y169924D01*
X389500Y170478D01*
X390330Y169924D01*
X391500Y169691D01*
X392671Y169924D01*
X393663Y170587D01*
X394326Y171579D01*
X394559Y172750D01*
Y177000D01*
X395500D01*
Y177941D01*
X399750D01*
X400920Y178174D01*
X401913Y178837D01*
X402576Y179830D01*
X402809Y181000D01*
X402576Y182171D01*
X402022Y183000D01*
X402576Y183829D01*
X402809Y185000D01*
X402576Y186171D01*
X402022Y187000D01*
X402576Y187829D01*
X402809Y189000D01*
X402576Y190170D01*
X402022Y191000D01*
X402576Y191829D01*
X402809Y193000D01*
X402576Y194171D01*
X402022Y195000D01*
X402576Y195830D01*
X402809Y197000D01*
X402576Y198171D01*
X402022Y199000D01*
X402576Y199830D01*
X402809Y201000D01*
X402576Y202171D01*
X402022Y203000D01*
X402576Y203829D01*
X402809Y205000D01*
X402576Y206171D01*
X402022Y207000D01*
X402576Y207829D01*
X402809Y209000D01*
X402576Y210170D01*
X401913Y211163D01*
X400920Y211826D01*
X399750Y212059D01*
X395500D01*
Y213000D01*
X394559D01*
Y217250D01*
X394326Y218421D01*
X393663Y219413D01*
X392671Y220076D01*
X391500Y220309D01*
X390330Y220076D01*
X389500Y219522D01*
X388671Y220076D01*
X387500Y220309D01*
X386329Y220076D01*
X385814Y219732D01*
X384606Y220295D01*
X384263Y221452D01*
X389761Y226950D01*
X390000Y226902D01*
X391951Y227290D01*
X393605Y228395D01*
X394710Y230049D01*
X395098Y232000D01*
X394710Y233951D01*
X393605Y235605D01*
X391951Y236710D01*
X390000Y237098D01*
X388049Y236710D01*
X386395Y235605D01*
X385290Y233951D01*
X385201Y233502D01*
X383853Y233234D01*
X383605Y233605D01*
X381951Y234710D01*
X380000Y235098D01*
X378049Y234710D01*
X376395Y233605D01*
X375290Y231951D01*
X375020Y230593D01*
X373750Y230718D01*
Y234250D01*
X361250D01*
Y221750D01*
X364081D01*
X364084Y221748D01*
X364212Y221462D01*
X363628Y220517D01*
X363350Y220279D01*
X362329Y220076D01*
X361337Y219413D01*
X360674Y218421D01*
X360441Y217250D01*
Y213000D01*
X359500D01*
Y212059D01*
X355250D01*
X354338Y212807D01*
Y240250D01*
X353989Y242006D01*
X352994Y243494D01*
X349588Y246901D01*
Y252420D01*
X349623Y252826D01*
X349718Y253402D01*
X349833Y253834D01*
X349947Y254116D01*
X350019Y254235D01*
X350159Y254250D01*
X352000D01*
Y256237D01*
X352009Y256280D01*
X352000Y256324D01*
Y264676D01*
X352009Y264720D01*
X352000Y264763D01*
Y266750D01*
X350579D01*
X350513Y266982D01*
X350428Y267443D01*
X350340Y268469D01*
X350351Y268652D01*
X350423Y269279D01*
X350513Y269768D01*
X350579Y270000D01*
X352000D01*
Y271987D01*
X352009Y272031D01*
X352000Y272074D01*
Y280426D01*
X352009Y280469D01*
X352000Y280513D01*
Y282500D01*
X350579D01*
X350513Y282732D01*
X350428Y283193D01*
X350340Y284219D01*
X350351Y284403D01*
X350423Y285028D01*
X350513Y285518D01*
X350579Y285750D01*
X352000D01*
Y287171D01*
X352232Y287236D01*
X352693Y287322D01*
X353737Y287411D01*
X356191D01*
X356401Y287399D01*
X357028Y287327D01*
X357517Y287236D01*
X357749Y287171D01*
Y285749D01*
X359736D01*
X359780Y285741D01*
X359823Y285749D01*
X366749D01*
X367146Y284479D01*
X366468Y283463D01*
X366250Y282369D01*
X365131Y281691D01*
X364907Y281719D01*
X363000Y282098D01*
X361049Y281710D01*
X359395Y280605D01*
X358290Y278951D01*
X357902Y277000D01*
X358290Y275049D01*
X359395Y273395D01*
X359691Y273197D01*
Y269750D01*
X358000D01*
Y262250D01*
X369631D01*
X370000Y262177D01*
X370369Y262250D01*
X374500D01*
Y267676D01*
X374509Y267719D01*
X374500Y267763D01*
Y269750D01*
X375152Y270750D01*
X385250D01*
X385250Y269250D01*
X391250D01*
Y277000D01*
X394750D01*
Y269250D01*
X400750D01*
Y277265D01*
X401923Y277751D01*
X403838Y275837D01*
X404830Y275174D01*
X406000Y274941D01*
X406001Y274941D01*
X407750D01*
Y270750D01*
X420250D01*
Y283250D01*
X407750D01*
Y282372D01*
X406480Y281846D01*
X399655Y288671D01*
X400181Y289941D01*
X407750D01*
Y286750D01*
X420250D01*
Y299250D01*
X407750D01*
Y296059D01*
X394059D01*
Y301000D01*
X394059Y301000D01*
X393826Y302171D01*
X393163Y303163D01*
X393163Y303163D01*
X390164Y306162D01*
X390789Y307333D01*
X391500Y307191D01*
X392671Y307424D01*
X393663Y308087D01*
X394326Y309079D01*
X394559Y310250D01*
Y314500D01*
X395500D01*
Y315441D01*
X399750D01*
X400920Y315674D01*
X401913Y316337D01*
X402576Y317330D01*
X402809Y318500D01*
X402576Y319671D01*
X402022Y320500D01*
X402576Y321329D01*
X402809Y322500D01*
X403581Y323441D01*
X464500D01*
X464500Y323441D01*
X465671Y323674D01*
X466663Y324337D01*
X493083Y350758D01*
X493405Y351056D01*
X493647Y351249D01*
X493647Y351250D01*
X494065D01*
X494109Y351241D01*
X494153Y351250D01*
X501750D01*
X501750Y349750D01*
X507750D01*
Y357500D01*
Y365250D01*
X506592D01*
X505550Y365800D01*
Y388457D01*
X506723Y388944D01*
X532809Y362858D01*
Y161032D01*
X532809Y161032D01*
X533042Y159861D01*
X533705Y158869D01*
X563101Y129473D01*
X563214Y129344D01*
X563275Y129266D01*
X563152Y128650D01*
X563540Y126699D01*
X564645Y125045D01*
X566299Y123940D01*
X568250Y123552D01*
X577750D01*
X579701Y123940D01*
X581355Y125045D01*
X582460Y126699D01*
X582848Y128650D01*
X582460Y130601D01*
X581355Y132255D01*
X579701Y133360D01*
X577750Y133748D01*
X568250D01*
X567644Y133628D01*
X567376Y133849D01*
X566030Y135195D01*
X566328Y136563D01*
X566402Y136620D01*
X568250Y136252D01*
X577750D01*
X579701Y136640D01*
X581355Y137745D01*
X582460Y139399D01*
X582848Y141350D01*
X582460Y143301D01*
X581355Y144955D01*
X579701Y146060D01*
X577750Y146448D01*
X568250D01*
X567644Y146327D01*
X567376Y146549D01*
X566030Y147895D01*
X566328Y149263D01*
X566402Y149320D01*
X568250Y148952D01*
X577750D01*
X579701Y149340D01*
X581355Y150445D01*
X582460Y152099D01*
X582848Y154050D01*
X582460Y156001D01*
X581355Y157655D01*
X579701Y158760D01*
X577750Y159148D01*
X568250D01*
X566299Y158760D01*
X564645Y157655D01*
X563540Y156001D01*
X563152Y154050D01*
X563520Y152202D01*
X563463Y152128D01*
X562095Y151831D01*
X542927Y170999D01*
Y365782D01*
X542694Y366952D01*
X542031Y367944D01*
X542031Y367944D01*
X515557Y394418D01*
X516043Y395591D01*
X564027D01*
X564198Y395580D01*
X564296Y395568D01*
X564645Y395045D01*
X566299Y393940D01*
X568250Y393552D01*
X577750D01*
X579701Y393940D01*
X581355Y395045D01*
X582460Y396699D01*
X582848Y398650D01*
X582460Y400601D01*
X581355Y402255D01*
X579701Y403360D01*
X577750Y403748D01*
X568250D01*
X566299Y403360D01*
X564645Y402255D01*
X564302Y401741D01*
X563956Y401709D01*
X513923D01*
X510269Y405363D01*
X509277Y406026D01*
X508106Y406259D01*
X508106Y406259D01*
X440281D01*
X439795Y407432D01*
X440654Y408291D01*
X564027D01*
X564198Y408280D01*
X564296Y408268D01*
X564645Y407745D01*
X566299Y406640D01*
X568250Y406252D01*
X577750D01*
X579701Y406640D01*
X581355Y407745D01*
X582460Y409399D01*
X582848Y411350D01*
X582460Y413301D01*
X581355Y414955D01*
X579701Y416060D01*
X577750Y416448D01*
X568250D01*
X566299Y416060D01*
X564645Y414955D01*
X564302Y414441D01*
X563956Y414409D01*
X439387D01*
X438216Y414176D01*
X437224Y413513D01*
X389337Y365626D01*
X388674Y364634D01*
X388441Y363463D01*
X388441Y363463D01*
Y358581D01*
X387500Y357809D01*
X386329Y357576D01*
X385500Y357022D01*
X384671Y357576D01*
X383500Y357809D01*
X382329Y357576D01*
X381500Y357022D01*
X380671Y357576D01*
X379500Y357809D01*
X378559Y358581D01*
Y368864D01*
X378605Y368895D01*
X379710Y370549D01*
X380098Y372500D01*
X379710Y374451D01*
X378605Y376105D01*
X376951Y377210D01*
X375000Y377598D01*
X373049Y377210D01*
X371395Y376105D01*
X370290Y374451D01*
X369902Y372500D01*
X370290Y370549D01*
X371395Y368895D01*
X372441Y368196D01*
Y361451D01*
X371268Y360965D01*
X363570Y368663D01*
X362577Y369326D01*
X361407Y369559D01*
X361407Y369559D01*
X315424D01*
X285559Y399424D01*
Y417500D01*
X285559Y417500D01*
X285326Y418671D01*
X284663Y419663D01*
X284663Y419663D01*
X279559Y424767D01*
Y433500D01*
X279559Y433500D01*
X279500Y433796D01*
Y454500D01*
X255500D01*
Y430500D01*
X273441D01*
Y423500D01*
X273441Y423500D01*
X273674Y422329D01*
X274337Y421337D01*
X279441Y416233D01*
Y412000D01*
X255700D01*
Y397094D01*
X254430Y397052D01*
X254343Y398354D01*
X254340Y399516D01*
X254404Y400000D01*
X253991Y403133D01*
X252782Y406052D01*
X250858Y408559D01*
X250463Y408862D01*
X249854Y409476D01*
X249161Y410254D01*
X248561Y411014D01*
X248053Y411753D01*
X247634Y412469D01*
X247302Y413160D01*
X247051Y413827D01*
X246877Y414472D01*
X246788Y415019D01*
Y427534D01*
X246876Y428079D01*
X247049Y428728D01*
X247298Y429403D01*
X247629Y430106D01*
X248045Y430836D01*
X248533Y431566D01*
X249853Y433189D01*
X250330Y433689D01*
X250658Y433941D01*
X252582Y436448D01*
X253791Y439367D01*
X254204Y442500D01*
X253791Y445633D01*
X252582Y448552D01*
X250658Y451059D01*
X248152Y452982D01*
X245233Y454191D01*
X242100Y454604D01*
X238967Y454191D01*
X236048Y452982D01*
X233542Y451059D01*
X231618Y448552D01*
X230409Y445633D01*
X229996Y442500D01*
X230409Y439367D01*
X231618Y436448D01*
X233542Y433941D01*
X233937Y433638D01*
X234546Y433024D01*
X235239Y432245D01*
X235839Y431486D01*
X236348Y430747D01*
X236766Y430031D01*
X237099Y429340D01*
X237349Y428673D01*
X237523Y428028D01*
X237612Y427481D01*
Y414966D01*
X237524Y414421D01*
X237351Y413772D01*
X237102Y413097D01*
X236771Y412394D01*
X236355Y411664D01*
X235867Y410934D01*
X234547Y409311D01*
X234070Y408811D01*
X233741Y408559D01*
X231818Y406052D01*
X230609Y403133D01*
X230196Y400000D01*
X230609Y396867D01*
X231818Y393948D01*
X233741Y391441D01*
X236248Y389518D01*
X239167Y388309D01*
X242300Y387896D01*
X242784Y387960D01*
X243981Y387957D01*
X245387Y387912D01*
X247859Y387698D01*
X248835Y387542D01*
X249679Y387353D01*
X250364Y387143D01*
X250882Y386926D01*
X251228Y386726D01*
X251343Y386631D01*
X262637Y375337D01*
X262637Y375337D01*
X263629Y374674D01*
X264800Y374441D01*
X264800Y374441D01*
X289162D01*
X308266Y355337D01*
X309258Y354674D01*
X310429Y354441D01*
X338431D01*
X339159Y353557D01*
X338762Y352352D01*
X338049Y352210D01*
X336395Y351105D01*
X335290Y349451D01*
X334902Y347500D01*
X335290Y345549D01*
X336105Y344329D01*
X335535Y343059D01*
X281345D01*
X280482Y343948D01*
X281691Y346867D01*
X282104Y350000D01*
X281691Y353133D01*
X280482Y356052D01*
X278559Y358559D01*
X276052Y360482D01*
X273133Y361691D01*
X270000Y362104D01*
X266867Y361691D01*
X263948Y360482D01*
X261441Y358559D01*
X259518Y356052D01*
X258309Y353133D01*
X257896Y350000D01*
X258309Y346867D01*
X259518Y343948D01*
X261441Y341441D01*
X263217Y340079D01*
X262786Y338809D01*
X260117D01*
X257092Y341833D01*
X256794Y342155D01*
X256601Y342397D01*
X256600Y342397D01*
Y342815D01*
X256609Y342859D01*
X256600Y342903D01*
Y362000D01*
X232600D01*
Y338000D01*
X251697D01*
X251741Y337991D01*
X251785Y338000D01*
X252199D01*
X252689Y337585D01*
X255513Y334762D01*
X255027Y333588D01*
X229900D01*
X222588Y340900D01*
Y454100D01*
X229900Y461412D01*
X437620D01*
X438035Y461376D01*
X438615Y461279D01*
X439050Y461163D01*
X439334Y461048D01*
X439450Y460977D01*
Y451800D01*
X454750D01*
Y471055D01*
X454759Y471099D01*
X454750Y471142D01*
Y473193D01*
X454869Y473402D01*
X455328Y474062D01*
X456581Y475542D01*
X461450Y480412D01*
X463668D01*
X464850Y480200D01*
Y451800D01*
X480150D01*
Y480200D01*
X481332Y480412D01*
X489068D01*
X490250Y480200D01*
Y451800D01*
X505550D01*
Y480200D01*
X506732Y480412D01*
X594350D01*
X624912Y449850D01*
Y447808D01*
X624899Y447598D01*
X624827Y446972D01*
X624737Y446482D01*
X624671Y446250D01*
X623250D01*
X623250Y447750D01*
X617250D01*
Y440000D01*
Y432250D01*
X623250D01*
X623662Y431151D01*
Y430882D01*
X623625Y430455D01*
X623529Y429865D01*
X623412Y429425D01*
X623300Y429148D01*
X622250D01*
X621017Y428903D01*
X620843Y428882D01*
X620734Y428846D01*
X620636Y428827D01*
X617306Y428638D01*
X611750D01*
X609994Y428289D01*
X608506Y427294D01*
X597756Y416544D01*
X596761Y415056D01*
X596412Y413300D01*
Y347000D01*
Y273625D01*
X596761Y271869D01*
X597756Y270381D01*
X624912Y243225D01*
Y177808D01*
X624899Y177598D01*
X624827Y176971D01*
X624737Y176482D01*
X624671Y176250D01*
X623250D01*
X623250Y177750D01*
X617250D01*
Y170000D01*
Y162250D01*
X622412D01*
Y160896D01*
X622375Y160476D01*
X622279Y159891D01*
X622162Y159450D01*
X622046Y159161D01*
X622009Y159100D01*
X621017Y158903D01*
X620843Y158882D01*
X620734Y158846D01*
X620636Y158827D01*
X617306Y158638D01*
X611750D01*
X609994Y158289D01*
X608506Y157294D01*
X605577Y154365D01*
X604582Y152877D01*
X604233Y151121D01*
Y118772D01*
X604582Y117017D01*
X605577Y115528D01*
X617022Y104082D01*
X616536Y102909D01*
X488579D01*
X439588Y151901D01*
Y194192D01*
X439601Y194403D01*
X439673Y195028D01*
X439763Y195518D01*
X439829Y195750D01*
X441250D01*
Y197737D01*
X441259Y197780D01*
X441250Y197824D01*
Y207980D01*
X441250Y208250D01*
X442750D01*
X442750Y207980D01*
Y195750D01*
X455250D01*
Y208250D01*
X453273D01*
X453257Y208289D01*
X453176Y208595D01*
X453105Y209024D01*
X453078Y209324D01*
Y209676D01*
X453105Y209976D01*
X453176Y210405D01*
X453257Y210711D01*
X453273Y210750D01*
X455250D01*
Y212718D01*
X455313Y212744D01*
X455613Y212825D01*
X456037Y212896D01*
X456332Y212922D01*
X456676D01*
X456976Y212895D01*
X457405Y212824D01*
X457711Y212743D01*
X457750Y212727D01*
Y210750D01*
X470250D01*
Y223250D01*
X469943D01*
X469561Y223923D01*
X469659Y224262D01*
X470047Y224750D01*
X470900D01*
X471576Y224551D01*
X471903Y223957D01*
X471750Y223250D01*
X471750D01*
Y221271D01*
X471741Y221228D01*
X471750Y221183D01*
Y210750D01*
X484250D01*
Y214032D01*
X484657Y215172D01*
X486218Y215482D01*
X487541Y216366D01*
X489884Y218709D01*
X489884Y218709D01*
X490768Y220032D01*
X491078Y221593D01*
Y247000D01*
X491078Y247000D01*
X490768Y248561D01*
X489884Y249884D01*
X489884Y249884D01*
X483884Y255884D01*
X482561Y256768D01*
X481000Y257078D01*
X481000Y257078D01*
X445689D01*
X444078Y258689D01*
Y270000D01*
X443768Y271561D01*
X442884Y272884D01*
X442884Y272884D01*
X437884Y277884D01*
X436561Y278768D01*
X435000Y279078D01*
X434250Y279988D01*
Y283250D01*
X421750D01*
Y270750D01*
X432187D01*
X432232Y270741D01*
X432274Y270750D01*
X433482D01*
X435922Y268311D01*
Y257000D01*
X435922Y257000D01*
X436232Y255439D01*
X437116Y254116D01*
X441116Y250116D01*
X441116Y250116D01*
X442439Y249232D01*
X444000Y248922D01*
X445500D01*
Y224750D01*
X457100D01*
Y224750D01*
X457953D01*
X458341Y224262D01*
X458439Y223923D01*
X458057Y223250D01*
X457750D01*
Y221273D01*
X457711Y221257D01*
X457405Y221176D01*
X456976Y221105D01*
X456676Y221078D01*
X456332D01*
X456037Y221104D01*
X455613Y221175D01*
X455313Y221256D01*
X455250Y221282D01*
Y223250D01*
X442750Y223250D01*
X442750Y224750D01*
X436750D01*
Y217000D01*
X435000D01*
Y215250D01*
X427250D01*
Y209250D01*
X428098D01*
X428750Y208250D01*
X428750Y207980D01*
Y197824D01*
X428741Y197780D01*
X428750Y197737D01*
Y195750D01*
X430171D01*
X430237Y195518D01*
X430322Y195057D01*
X430412Y194013D01*
Y150000D01*
X430761Y148244D01*
X431756Y146756D01*
X483435Y95077D01*
X484923Y94082D01*
X486679Y93733D01*
X649571D01*
X651327Y94082D01*
X652815Y95077D01*
X655744Y98006D01*
X656739Y99494D01*
X657088Y101250D01*
Y105192D01*
X657101Y105402D01*
X657173Y106028D01*
X657263Y106518D01*
X657329Y106750D01*
X658750D01*
Y108737D01*
X658759Y108780D01*
X658750Y108824D01*
Y119250D01*
X646250D01*
Y108824D01*
X646241Y108780D01*
X646250Y108737D01*
Y106750D01*
X647671D01*
X647737Y106518D01*
X647822Y106057D01*
X647912Y105013D01*
Y103151D01*
X647671Y102909D01*
X634313D01*
X633670Y102980D01*
X632903Y103127D01*
X632165Y103330D01*
X631455Y103590D01*
X630769Y103909D01*
X630104Y104286D01*
X629457Y104726D01*
X628953Y105129D01*
X625933Y108149D01*
X626419Y109323D01*
X631750D01*
X634286Y109827D01*
X636436Y111264D01*
X637873Y113414D01*
X638029Y114200D01*
X627000D01*
Y117700D01*
X638029D01*
X637873Y118486D01*
X636436Y120636D01*
X634286Y122073D01*
X632555Y122417D01*
Y123712D01*
X633701Y123940D01*
X635355Y125045D01*
X636460Y126699D01*
X636848Y128650D01*
X636840Y128689D01*
X637646Y129671D01*
X638036D01*
X638036Y129671D01*
X639206Y129904D01*
X640199Y130567D01*
X640553Y130921D01*
X646250D01*
Y120750D01*
X658750D01*
Y130921D01*
X680079D01*
X680758Y129651D01*
X680290Y128951D01*
X679902Y127000D01*
X680290Y125049D01*
X681395Y123395D01*
X681941Y123030D01*
Y118500D01*
X680500D01*
Y103500D01*
X690500D01*
Y118500D01*
X688059D01*
Y123030D01*
X688605Y123395D01*
X689710Y125049D01*
X690098Y127000D01*
X689710Y128951D01*
X689242Y129651D01*
X689921Y130921D01*
X700079D01*
X700758Y129651D01*
X700290Y128951D01*
X699902Y127000D01*
X700290Y125049D01*
X701395Y123395D01*
X701941Y123030D01*
Y118500D01*
X699500D01*
Y103500D01*
X709500D01*
Y118500D01*
X708059D01*
Y123030D01*
X708605Y123395D01*
X709710Y125049D01*
X710098Y127000D01*
X709710Y128951D01*
X709242Y129651D01*
X709921Y130921D01*
X786459D01*
X786459Y130921D01*
X787629Y131154D01*
X788622Y131817D01*
X794433Y137628D01*
X794433Y137628D01*
X795096Y138621D01*
X795329Y139791D01*
X795329Y139791D01*
Y141441D01*
X801000D01*
X801000Y141441D01*
X801296Y141500D01*
X826000D01*
Y168500D01*
X799866D01*
X799380Y169673D01*
X809434Y179727D01*
X809434Y179727D01*
X810097Y180719D01*
X810330Y181890D01*
Y189941D01*
X814001D01*
X814001Y189941D01*
X814297Y190000D01*
X824501D01*
Y201000D01*
X824501Y201000D01*
Y209000D01*
X824501Y209000D01*
Y220000D01*
X810648D01*
X810596Y221270D01*
X815017Y225691D01*
X829670D01*
X837613Y222001D01*
X838661Y221439D01*
X838948Y221218D01*
X841867Y220009D01*
X845000Y219596D01*
X848133Y220009D01*
X851052Y221218D01*
X853559Y223141D01*
X855482Y225648D01*
X855671Y226105D01*
X856941Y225852D01*
Y3059D01*
X3059D01*
Y536941D01*
X856941D01*
Y319900D01*
D02*
G37*
G36*
X835061Y303464D02*
X835041Y303654D01*
X834980Y303824D01*
X834878Y303974D01*
X834736Y304104D01*
X834553Y304214D01*
X834330Y304304D01*
X834066Y304374D01*
X833762Y304424D01*
X833416Y304454D01*
X833030Y304464D01*
Y306464D01*
X833416Y306474D01*
X833762Y306504D01*
X834066Y306554D01*
X834330Y306624D01*
X834553Y306714D01*
X834736Y306824D01*
X834878Y306954D01*
X834980Y307104D01*
X835041Y307274D01*
X835061Y307464D01*
Y303464D01*
D02*
G37*
G36*
X337604Y331421D02*
X337290Y330951D01*
X336902Y329000D01*
X337290Y327049D01*
X338395Y325395D01*
X339629Y324571D01*
X340039Y324054D01*
X339995Y323006D01*
X339290Y321951D01*
X338902Y320000D01*
X339290Y318049D01*
X340395Y316395D01*
X342049Y315290D01*
X344000Y314902D01*
X345951Y315290D01*
X347605Y316395D01*
X348710Y318049D01*
X348987Y319441D01*
X351419D01*
X352191Y318500D01*
X352424Y317330D01*
X353087Y316337D01*
X354080Y315674D01*
X355250Y315441D01*
X359500D01*
Y314500D01*
X360441D01*
Y310250D01*
X359693Y309338D01*
X358500D01*
X356744Y308989D01*
X355256Y307994D01*
X349366Y302104D01*
X347831Y302366D01*
X347244Y303244D01*
X319067Y331421D01*
X319594Y332691D01*
X336926D01*
X337604Y331421D01*
D02*
G37*
G36*
X743830Y293400D02*
X743811Y293590D01*
X743751Y293760D01*
X743651Y293910D01*
X743511Y294040D01*
X743331Y294150D01*
X743111Y294240D01*
X742850Y294310D01*
X742551Y294360D01*
X742210Y294390D01*
X741831Y294400D01*
Y296400D01*
X742210Y296410D01*
X742551Y296440D01*
X742850Y296490D01*
X743111Y296560D01*
X743331Y296650D01*
X743511Y296760D01*
X743651Y296890D01*
X743751Y297040D01*
X743811Y297210D01*
X743830Y297400D01*
Y293400D01*
D02*
G37*
G36*
X409781Y291000D02*
X409761Y291190D01*
X409701Y291360D01*
X409600Y291510D01*
X409460Y291640D01*
X409281Y291750D01*
X409061Y291840D01*
X408801Y291910D01*
X408501Y291960D01*
X408161Y291990D01*
X407780Y292000D01*
Y294000D01*
X408161Y294010D01*
X408501Y294040D01*
X408801Y294090D01*
X409061Y294160D01*
X409281Y294250D01*
X409460Y294360D01*
X409600Y294490D01*
X409701Y294640D01*
X409761Y294810D01*
X409781Y295000D01*
Y291000D01*
D02*
G37*
G36*
X346513Y299277D02*
X346615Y298059D01*
X346705Y297564D01*
X346820Y297145D01*
X346863Y297041D01*
X347106Y297209D01*
X347990Y297917D01*
X349969Y299755D01*
X353505Y296220D01*
X352515Y295194D01*
X352107Y294712D01*
X352420Y294654D01*
X353170Y294568D01*
X354020Y294517D01*
X354875Y294501D01*
X355730Y294517D01*
X357330Y294654D01*
X357980Y294775D01*
X358530Y294929D01*
X358980Y295119D01*
X359330Y295342D01*
X359580Y295600D01*
X359730Y295892D01*
X359780Y296219D01*
Y287780D01*
X359730Y288106D01*
X359580Y288399D01*
X359330Y288657D01*
X358980Y288880D01*
X358530Y289070D01*
X357980Y289224D01*
X357330Y289345D01*
X356580Y289431D01*
X355730Y289482D01*
X354875Y289498D01*
X354020Y289482D01*
X352420Y289345D01*
X351769Y289224D01*
X351219Y289070D01*
X350770Y288881D01*
X350420Y288657D01*
X350169Y288399D01*
X350019Y288107D01*
X349969Y287780D01*
X349643Y287731D01*
X349351Y287581D01*
X349092Y287330D01*
X348869Y286980D01*
X348680Y286530D01*
X348525Y285980D01*
X348405Y285331D01*
X348319Y284580D01*
X348295Y284193D01*
X348405Y282920D01*
X348525Y282269D01*
X348680Y281720D01*
X348869Y281269D01*
X349092Y280920D01*
X349351Y280669D01*
X349643Y280520D01*
X349969Y280469D01*
X341530D01*
X341857Y280520D01*
X342150Y280669D01*
X342407Y280920D01*
X342631Y281269D01*
X342820Y281720D01*
X342975Y282269D01*
X343095Y282920D01*
X343181Y283669D01*
X343205Y284057D01*
X343095Y285331D01*
X342975Y285980D01*
X342820Y286530D01*
X342631Y286980D01*
X342407Y287330D01*
X342150Y287581D01*
X341857Y287731D01*
X341530Y287780D01*
X349969D01*
Y291800D01*
X349687Y291128D01*
X349545Y290527D01*
Y289997D01*
X349687Y289537D01*
X349969Y289149D01*
X342905Y296213D01*
X341530Y296220D01*
X341525Y296257D01*
X341520Y296371D01*
X341500Y300000D01*
X346500D01*
X346513Y299277D01*
D02*
G37*
G36*
X834906Y294093D02*
X835510Y293744D01*
X836241Y293437D01*
X837098Y293174D01*
X838082Y292954D01*
X839192Y292777D01*
X841793Y292552D01*
X843283Y292504D01*
X844900Y292500D01*
X835001Y282600D01*
X834996Y284217D01*
X834723Y288308D01*
X834546Y289418D01*
X834326Y290402D01*
X834063Y291259D01*
X833756Y291990D01*
X833407Y292594D01*
X833015Y293071D01*
X834429Y294485D01*
X834906Y294093D01*
D02*
G37*
G36*
X378043Y287810D02*
X381780D01*
X381489Y287777D01*
X381229Y287678D01*
X380999Y287512D01*
X380800Y287281D01*
X380632Y286982D01*
X380494Y286618D01*
X380387Y286188D01*
X380311Y285691D01*
X380265Y285129D01*
X380250Y284500D01*
X380265Y283871D01*
X380311Y283308D01*
X380387Y282811D01*
X380494Y282381D01*
X380632Y282017D01*
X380800Y281719D01*
X380999Y281487D01*
X381229Y281322D01*
X381489Y281222D01*
X381780Y281189D01*
X378043D01*
X376750Y279250D01*
X376715Y279915D01*
X376610Y280510D01*
X376435Y281035D01*
X376351Y281189D01*
X375219D01*
X375510Y281222D01*
X375770Y281322D01*
X376000Y281487D01*
X376098Y281601D01*
X375875Y281875D01*
X375490Y282190D01*
X375035Y282435D01*
X374510Y282610D01*
X373915Y282715D01*
X373250Y282750D01*
Y286250D01*
X373915Y286285D01*
X374510Y286390D01*
X375035Y286565D01*
X375490Y286810D01*
X375875Y287125D01*
X376098Y287398D01*
X376000Y287512D01*
X375770Y287678D01*
X375510Y287777D01*
X375219Y287810D01*
X376351D01*
X376435Y287965D01*
X376610Y288490D01*
X376715Y289085D01*
X376750Y289750D01*
X378043Y287810D01*
D02*
G37*
G36*
X409781Y276000D02*
X409761Y276190D01*
X409701Y276360D01*
X409600Y276510D01*
X409460Y276640D01*
X409281Y276750D01*
X409061Y276840D01*
X408801Y276910D01*
X408501Y276960D01*
X408161Y276990D01*
X407780Y277000D01*
Y279000D01*
X408161Y279010D01*
X408501Y279040D01*
X408801Y279090D01*
X409061Y279160D01*
X409281Y279250D01*
X409460Y279360D01*
X409600Y279490D01*
X409701Y279640D01*
X409761Y279810D01*
X409781Y280000D01*
Y276000D01*
D02*
G37*
G36*
X432218Y277632D02*
X432303Y277500D01*
X432444Y277382D01*
X432641Y277281D01*
X432894Y277195D01*
X433203Y277125D01*
X433568Y277070D01*
X433990Y277031D01*
X435000Y277000D01*
Y273000D01*
X434472Y272998D01*
X432331Y272859D01*
X432247Y272822D01*
X432220Y272780D01*
X432189Y277780D01*
X432218Y277632D01*
D02*
G37*
G36*
X371757Y270555D02*
X371865Y268979D01*
X371930Y268594D01*
X372009Y268279D01*
X372103Y268034D01*
X372211Y267859D01*
X372333Y267754D01*
X372469Y267719D01*
X367531D01*
X367667Y267754D01*
X367789Y267859D01*
X367897Y268034D01*
X367991Y268279D01*
X368070Y268594D01*
X368135Y268979D01*
X368185Y269435D01*
X368243Y270555D01*
X368250Y271220D01*
X371750D01*
X371757Y270555D01*
D02*
G37*
G36*
X363760Y269334D02*
X363790Y268988D01*
X363840Y268684D01*
X363910Y268420D01*
X364000Y268197D01*
X364110Y268014D01*
X364240Y267872D01*
X364390Y267770D01*
X364560Y267709D01*
X364750Y267689D01*
X360750D01*
X360940Y267709D01*
X361110Y267770D01*
X361260Y267872D01*
X361390Y268014D01*
X361500Y268197D01*
X361590Y268420D01*
X361660Y268684D01*
X361710Y268988D01*
X361740Y269334D01*
X361750Y269720D01*
X363750D01*
X363760Y269334D01*
D02*
G37*
G36*
X349643Y271980D02*
X349351Y271831D01*
X349092Y271581D01*
X348869Y271231D01*
X348680Y270781D01*
X348525Y270231D01*
X348405Y269580D01*
X348319Y268831D01*
X348295Y268443D01*
X348405Y267169D01*
X348525Y266520D01*
X348680Y265970D01*
X348869Y265520D01*
X349092Y265170D01*
X349351Y264919D01*
X349643Y264769D01*
X349969Y264720D01*
X341530D01*
X341857Y264769D01*
X342150Y264919D01*
X342407Y265170D01*
X342631Y265520D01*
X342820Y265970D01*
X342975Y266520D01*
X343095Y267169D01*
X343181Y267920D01*
X343205Y268307D01*
X343095Y269580D01*
X342975Y270231D01*
X342820Y270781D01*
X342631Y271231D01*
X342407Y271581D01*
X342150Y271831D01*
X341857Y271980D01*
X341530Y272031D01*
X349969D01*
X349643Y271980D01*
D02*
G37*
G36*
X349500Y256231D02*
X349081Y256080D01*
X348710Y255830D01*
X348389Y255480D01*
X348117Y255030D01*
X347895Y254480D01*
X347722Y253831D01*
X347599Y253081D01*
X347525Y252230D01*
X347500Y251280D01*
X342500D01*
X342490Y252230D01*
X342345Y254480D01*
X342258Y255030D01*
X342151Y255480D01*
X342025Y255830D01*
X341880Y256080D01*
X341715Y256231D01*
X341530Y256280D01*
X349969D01*
X349500Y256231D01*
D02*
G37*
G36*
X846386Y247197D02*
X844651Y246939D01*
X839185Y245828D01*
X838187Y245529D01*
X837336Y245222D01*
X836632Y244907D01*
X836075Y244583D01*
X835665Y244251D01*
X834037Y245452D01*
X834468Y245972D01*
X834826Y246600D01*
X835114Y247336D01*
X835330Y248180D01*
X835474Y249132D01*
X835548Y250193D01*
X835549Y251362D01*
X835480Y252638D01*
X835126Y255516D01*
X846386Y247197D01*
D02*
G37*
G36*
X743830Y242600D02*
X743811Y242790D01*
X743751Y242960D01*
X743651Y243110D01*
X743511Y243240D01*
X743331Y243350D01*
X743111Y243440D01*
X742850Y243510D01*
X742551Y243560D01*
X742210Y243590D01*
X741831Y243600D01*
Y245600D01*
X742210Y245610D01*
X742551Y245640D01*
X742850Y245690D01*
X743111Y245760D01*
X743331Y245850D01*
X743511Y245960D01*
X743651Y246090D01*
X743751Y246240D01*
X743811Y246410D01*
X743830Y246600D01*
Y242600D01*
D02*
G37*
G36*
X293440Y240730D02*
X293190Y240581D01*
X292970Y240331D01*
X292779Y239981D01*
X292617Y239531D01*
X292485Y238981D01*
X292382Y238330D01*
X292309Y237581D01*
X292291Y237049D01*
X292427Y235670D01*
X292565Y235020D01*
X292742Y234470D01*
X292959Y234020D01*
X293215Y233670D01*
X293510Y233420D01*
X293845Y233270D01*
X294219Y233220D01*
X285781D01*
X286060Y233270D01*
X286310Y233420D01*
X286530Y233670D01*
X286721Y234020D01*
X286883Y234470D01*
X287015Y235020D01*
X287118Y235670D01*
X287191Y236420D01*
X287209Y236951D01*
X287073Y238330D01*
X286935Y238981D01*
X286758Y239531D01*
X286541Y239981D01*
X286285Y240331D01*
X285989Y240581D01*
X285655Y240730D01*
X285280Y240781D01*
X293720D01*
X293440Y240730D01*
D02*
G37*
G36*
X379970Y227000D02*
X379667Y226993D01*
X379376Y226966D01*
X379095Y226918D01*
X378825Y226851D01*
X378566Y226763D01*
X378318Y226655D01*
X378081Y226526D01*
X377854Y226378D01*
X377639Y226209D01*
X377434Y226020D01*
X376020Y227434D01*
X376209Y227639D01*
X376378Y227854D01*
X376526Y228081D01*
X376655Y228318D01*
X376763Y228566D01*
X376851Y228825D01*
X376918Y229095D01*
X376966Y229376D01*
X376993Y229667D01*
X377000Y229970D01*
X379970Y227000D01*
D02*
G37*
G36*
X840241Y222905D02*
X838525Y223825D01*
X830183Y227702D01*
X829813Y227750D01*
X829192Y229750D01*
X829901Y229815D01*
X830606Y230011D01*
X831307Y230338D01*
X832004Y230795D01*
X832698Y231383D01*
X833388Y232101D01*
X834075Y232951D01*
X834757Y233930D01*
X835436Y235041D01*
X836111Y236282D01*
X840241Y222905D01*
D02*
G37*
G36*
X369134Y223798D02*
X369086Y223759D01*
X369044Y223693D01*
X369008Y223601D01*
X368977Y223483D01*
X368952Y223339D01*
X368932Y223169D01*
X368910Y222749D01*
X368907Y222500D01*
X366907D01*
X366904Y222749D01*
X366862Y223339D01*
X366837Y223483D01*
X366806Y223601D01*
X366769Y223693D01*
X366727Y223759D01*
X366680Y223798D01*
X366626Y223811D01*
X369187D01*
X369134Y223798D01*
D02*
G37*
G36*
X480257Y226740D02*
X480066Y226621D01*
X479898Y226420D01*
X479753Y226140D01*
X479630Y225781D01*
X479529Y225340D01*
X479451Y224820D01*
X479395Y224221D01*
X479394Y224185D01*
X479430Y223771D01*
X479530Y223167D01*
X479670Y222644D01*
X479850Y222201D01*
X480070Y221838D01*
X480330Y221555D01*
X480630Y221353D01*
X480970Y221231D01*
X481350Y221189D01*
X473781Y221220D01*
X474079Y221259D01*
X474346Y221380D01*
X474581Y221579D01*
X474785Y221859D01*
X474958Y222220D01*
X475099Y222659D01*
X475209Y223179D01*
X475287Y223780D01*
X475297Y223917D01*
X475270Y224221D01*
X475170Y224820D01*
X475030Y225340D01*
X474850Y225781D01*
X474630Y226140D01*
X474370Y226420D01*
X474070Y226621D01*
X473730Y226740D01*
X473350Y226780D01*
X480470D01*
X480257Y226740D01*
D02*
G37*
G36*
X467433D02*
X467132Y226621D01*
X466867Y226420D01*
X466637Y226140D01*
X466442Y225781D01*
X466283Y225340D01*
X466159Y224820D01*
X466071Y224221D01*
X466056Y224037D01*
X466080Y223769D01*
X466180Y223164D01*
X466320Y222640D01*
X466500Y222197D01*
X466720Y221834D01*
X466980Y221552D01*
X467280Y221350D01*
X467620Y221229D01*
X468000Y221189D01*
X460000D01*
X460380Y221229D01*
X460720Y221350D01*
X461020Y221552D01*
X461280Y221834D01*
X461500Y222197D01*
X461680Y222640D01*
X461820Y223164D01*
X461920Y223769D01*
X461944Y224037D01*
X461929Y224221D01*
X461841Y224820D01*
X461717Y225340D01*
X461558Y225781D01*
X461363Y226140D01*
X461133Y226420D01*
X460868Y226621D01*
X460567Y226740D01*
X460230Y226780D01*
X467770D01*
X467433Y226740D01*
D02*
G37*
G36*
X459811Y213000D02*
X459771Y213380D01*
X459650Y213720D01*
X459448Y214020D01*
X459166Y214280D01*
X458803Y214500D01*
X458360Y214680D01*
X457836Y214820D01*
X457231Y214920D01*
X456546Y214980D01*
X456503Y214981D01*
X456460Y214980D01*
X455779Y214920D01*
X455179Y214820D01*
X454660Y214680D01*
X454220Y214500D01*
X453859Y214280D01*
X453579Y214020D01*
X453380Y213720D01*
X453260Y213380D01*
X453219Y213000D01*
Y221000D01*
X453260Y220620D01*
X453380Y220280D01*
X453579Y219980D01*
X453859Y219720D01*
X454220Y219500D01*
X454660Y219320D01*
X455179Y219180D01*
X455779Y219080D01*
X456460Y219020D01*
X456503Y219019D01*
X456546Y219020D01*
X457231Y219080D01*
X457836Y219180D01*
X458360Y219320D01*
X458803Y219500D01*
X459166Y219720D01*
X459448Y219980D01*
X459650Y220280D01*
X459771Y220620D01*
X459811Y221000D01*
Y213000D01*
D02*
G37*
G36*
X331781Y210280D02*
X340219D01*
X339893Y210238D01*
X339600Y210109D01*
X339343Y209895D01*
X339119Y209596D01*
X338930Y209210D01*
X338775Y208739D01*
X338655Y208183D01*
X338569Y207541D01*
X338517Y206813D01*
X338500Y206000D01*
X333500D01*
X333483Y206813D01*
X333345Y208183D01*
X333225Y208739D01*
X333070Y209210D01*
X332881Y209596D01*
X332658Y209895D01*
X332399Y210109D01*
X332107Y210238D01*
X331781Y210280D01*
X331730Y210607D01*
X331581Y210900D01*
X331330Y211157D01*
X330980Y211381D01*
X330531Y211570D01*
X329981Y211725D01*
X329330Y211845D01*
X328619Y211927D01*
X327669Y211845D01*
X327020Y211725D01*
X326469Y211570D01*
X326020Y211381D01*
X325670Y211157D01*
X325420Y210900D01*
X325270Y210607D01*
X325219Y210280D01*
Y218720D01*
X325270Y218393D01*
X325420Y218101D01*
X325670Y217843D01*
X326020Y217619D01*
X326469Y217430D01*
X327020Y217275D01*
X327669Y217155D01*
X328381Y217073D01*
X329330Y217155D01*
X329981Y217275D01*
X330531Y217430D01*
X330980Y217619D01*
X331330Y217843D01*
X331581Y218101D01*
X331730Y218393D01*
X331781Y218720D01*
Y210280D01*
D02*
G37*
G36*
X316780D02*
X316730Y210607D01*
X316581Y210900D01*
X316331Y211157D01*
X315980Y211381D01*
X315530Y211570D01*
X314981Y211725D01*
X314331Y211845D01*
X313619Y211927D01*
X312670Y211845D01*
X312020Y211725D01*
X311470Y211570D01*
X311019Y211381D01*
X310670Y211157D01*
X310420Y210900D01*
X310270Y210607D01*
X310219Y210280D01*
Y218720D01*
X310270Y218393D01*
X310420Y218101D01*
X310670Y217843D01*
X311019Y217619D01*
X311470Y217430D01*
X312020Y217275D01*
X312670Y217155D01*
X313381Y217073D01*
X314331Y217155D01*
X314981Y217275D01*
X315530Y217430D01*
X315980Y217619D01*
X316331Y217843D01*
X316581Y218101D01*
X316730Y218393D01*
X316780Y218720D01*
Y210280D01*
D02*
G37*
G36*
X484657Y217250D02*
X484194Y217246D01*
X482829Y217141D01*
X482609Y217093D01*
X482439Y217036D01*
X482317Y216970D01*
X482244Y216896D01*
X482220Y216813D01*
Y221220D01*
X482244Y221225D01*
X482317Y221231D01*
X483414Y221247D01*
X484657Y221250D01*
Y217250D01*
D02*
G37*
G36*
X812562Y211500D02*
X812542Y211690D01*
X812481Y211860D01*
X812380Y212010D01*
X812237Y212140D01*
X812055Y212250D01*
X811831Y212340D01*
X811568Y212410D01*
X811263Y212460D01*
X810918Y212490D01*
X810532Y212500D01*
Y214500D01*
X810918Y214510D01*
X811263Y214540D01*
X811568Y214590D01*
X811831Y214660D01*
X812055Y214750D01*
X812237Y214860D01*
X812380Y214990D01*
X812481Y215140D01*
X812542Y215310D01*
X812562Y215500D01*
Y211500D01*
D02*
G37*
G36*
X797459Y215310D02*
X797520Y215140D01*
X797622Y214990D01*
X797764Y214860D01*
X797947Y214750D01*
X798170Y214660D01*
X798434Y214590D01*
X798738Y214540D01*
X799084Y214510D01*
X799470Y214500D01*
Y212500D01*
X799084Y212490D01*
X798738Y212460D01*
X798434Y212410D01*
X798170Y212340D01*
X797947Y212250D01*
X797764Y212140D01*
X797622Y212010D01*
X797520Y211860D01*
X797459Y211690D01*
X797439Y211500D01*
Y215500D01*
X797459Y215310D01*
D02*
G37*
G36*
X279270Y219345D02*
X279419Y219011D01*
X279669Y218715D01*
X280019Y218459D01*
X280469Y218242D01*
X281019Y218065D01*
X281670Y217927D01*
X282419Y217829D01*
X282514Y217822D01*
X283330Y217882D01*
X283981Y217985D01*
X284531Y218117D01*
X284981Y218279D01*
X285331Y218470D01*
X285581Y218690D01*
X285730Y218940D01*
X285781Y219220D01*
Y210781D01*
X285730Y211155D01*
X285581Y211490D01*
X285331Y211785D01*
X284981Y212041D01*
X284531Y212258D01*
X283981Y212435D01*
X283330Y212573D01*
X282581Y212671D01*
X282486Y212678D01*
X281670Y212618D01*
X281019Y212515D01*
X280469Y212383D01*
X280019Y212221D01*
X279669Y212030D01*
X279419Y211810D01*
X279270Y211560D01*
X279219Y211280D01*
X278940Y211231D01*
X278690Y211080D01*
X278470Y210830D01*
X278279Y210480D01*
X278117Y210030D01*
X277985Y209480D01*
X277882Y208831D01*
X277809Y208081D01*
X277804Y207924D01*
X277927Y206670D01*
X278065Y206019D01*
X278242Y205469D01*
X278459Y205019D01*
X278715Y204669D01*
X279011Y204419D01*
X279345Y204270D01*
X279720Y204219D01*
X271280D01*
X271560Y204270D01*
X271810Y204419D01*
X272030Y204669D01*
X272221Y205019D01*
X272383Y205469D01*
X272515Y206019D01*
X272618Y206670D01*
X272691Y207419D01*
X272696Y207576D01*
X272573Y208831D01*
X272435Y209480D01*
X272258Y210030D01*
X272041Y210480D01*
X271785Y210830D01*
X271490Y211080D01*
X271155Y211231D01*
X270781Y211280D01*
X279219D01*
Y219720D01*
X279270Y219345D01*
D02*
G37*
G36*
X294270Y218845D02*
X294419Y218510D01*
X294669Y218215D01*
X295019Y217959D01*
X295469Y217742D01*
X296019Y217565D01*
X296670Y217427D01*
X297419Y217329D01*
X298027Y217287D01*
X299331Y217382D01*
X299981Y217485D01*
X300530Y217617D01*
X300980Y217779D01*
X301331Y217970D01*
X301581Y218190D01*
X301730Y218440D01*
X301780Y218720D01*
Y210280D01*
X301730Y210655D01*
X301581Y210989D01*
X301331Y211285D01*
X300980Y211541D01*
X300530Y211758D01*
X299981Y211935D01*
X299331Y212073D01*
X298580Y212171D01*
X297973Y212213D01*
X296670Y212118D01*
X296019Y212015D01*
X295469Y211883D01*
X295019Y211721D01*
X294669Y211530D01*
X294419Y211310D01*
X294270Y211060D01*
X294219Y210781D01*
Y219220D01*
X294270Y218845D01*
D02*
G37*
G36*
X452620Y212771D02*
X452280Y212650D01*
X451980Y212448D01*
X451720Y212166D01*
X451500Y211803D01*
X451320Y211360D01*
X451180Y210836D01*
X451080Y210231D01*
X451020Y209546D01*
X451019Y209500D01*
X451020Y209454D01*
X451080Y208769D01*
X451180Y208164D01*
X451320Y207640D01*
X451500Y207197D01*
X451720Y206834D01*
X451980Y206552D01*
X452280Y206350D01*
X452620Y206229D01*
X453000Y206189D01*
X445000D01*
X445380Y206229D01*
X445720Y206350D01*
X446020Y206552D01*
X446280Y206834D01*
X446500Y207197D01*
X446680Y207640D01*
X446820Y208164D01*
X446920Y208769D01*
X446980Y209454D01*
X446981Y209500D01*
X446980Y209546D01*
X446920Y210231D01*
X446820Y210836D01*
X446680Y211360D01*
X446500Y211803D01*
X446280Y212166D01*
X446020Y212448D01*
X445720Y212650D01*
X445380Y212771D01*
X445000Y212811D01*
X453000D01*
X452620Y212771D01*
D02*
G37*
G36*
X438893Y197731D02*
X438601Y197581D01*
X438343Y197330D01*
X438119Y196980D01*
X437930Y196530D01*
X437775Y195980D01*
X437655Y195331D01*
X437569Y194580D01*
X437517Y193731D01*
X437500Y192780D01*
X432500D01*
X432483Y193731D01*
X432345Y195331D01*
X432225Y195980D01*
X432070Y196530D01*
X431881Y196980D01*
X431657Y197330D01*
X431399Y197581D01*
X431107Y197731D01*
X430780Y197780D01*
X439220D01*
X438893Y197731D01*
D02*
G37*
G36*
X305000Y197500D02*
X304950Y197497D01*
X304050Y197450D01*
X303200Y197300D01*
X302450Y197050D01*
X301800Y196700D01*
X301250Y196250D01*
X300800Y195700D01*
X300450Y195050D01*
X300200Y194300D01*
X300050Y193450D01*
X300000Y192500D01*
X295000D01*
X294950Y193450D01*
X294800Y194300D01*
X294550Y195050D01*
X294200Y195700D01*
X293750Y196250D01*
X293200Y196700D01*
X292550Y197050D01*
X291800Y197300D01*
X290950Y197450D01*
X290000Y197500D01*
X290000Y197500D01*
X297500Y202500D01*
X305000Y197500D01*
D02*
G37*
G36*
X812532Y192031D02*
X812512Y192025D01*
X812452Y192020D01*
X812032Y192008D01*
X810532Y192000D01*
Y194000D01*
X810916Y194010D01*
X811260Y194040D01*
X811563Y194090D01*
X811826Y194160D01*
X812050Y194250D01*
X812233Y194360D01*
X812375Y194490D01*
X812478Y194640D01*
X812540Y194810D01*
X812562Y195000D01*
X812532Y192031D01*
D02*
G37*
G36*
X797461Y194810D02*
X797523Y194640D01*
X797626Y194490D01*
X797769Y194360D01*
X797952Y194250D01*
X798175Y194160D01*
X798438Y194090D01*
X798742Y194040D01*
X799085Y194010D01*
X799470Y194000D01*
Y192000D01*
X797469Y192031D01*
X797439Y195000D01*
X797461Y194810D01*
D02*
G37*
G36*
X346260Y189590D02*
X346290Y189249D01*
X346340Y188950D01*
X346410Y188689D01*
X346500Y188470D01*
X346610Y188290D01*
X346740Y188150D01*
X346890Y188050D01*
X347060Y187990D01*
X347250Y187969D01*
X343250D01*
X343440Y187990D01*
X343610Y188050D01*
X343760Y188150D01*
X343890Y188290D01*
X344000Y188470D01*
X344090Y188689D01*
X344160Y188950D01*
X344210Y189249D01*
X344240Y189590D01*
X344250Y189970D01*
X346250D01*
X346260Y189590D01*
D02*
G37*
G36*
X332010D02*
X332040Y189249D01*
X332090Y188950D01*
X332160Y188689D01*
X332250Y188470D01*
X332360Y188290D01*
X332490Y188150D01*
X332640Y188050D01*
X332810Y187990D01*
X333000Y187969D01*
X329000D01*
X329190Y187990D01*
X329360Y188050D01*
X329510Y188150D01*
X329640Y188290D01*
X329750Y188470D01*
X329840Y188689D01*
X329910Y188950D01*
X329960Y189249D01*
X329990Y189590D01*
X330000Y189970D01*
X332000D01*
X332010Y189590D01*
D02*
G37*
G36*
X296469Y185970D02*
X290970D01*
X291070Y186000D01*
X291161Y186091D01*
X291240Y186242D01*
X291309Y186454D01*
X291367Y186727D01*
X291415Y187061D01*
X291479Y187909D01*
X291500Y189000D01*
X296500D01*
X296469Y185970D01*
D02*
G37*
G36*
X279298Y195730D02*
X278920Y195581D01*
X278588Y195331D01*
X278299Y194981D01*
X278055Y194531D01*
X277855Y193981D01*
X277700Y193330D01*
X277589Y192581D01*
X277522Y191730D01*
X277500Y190781D01*
X277499D01*
X277470Y185970D01*
X271530D01*
X271715Y186019D01*
X271880Y186169D01*
X272025Y186420D01*
X272151Y186770D01*
X272258Y187220D01*
X272345Y187770D01*
X272413Y188419D01*
X272490Y190019D01*
X272499Y190864D01*
X272488Y191730D01*
X272305Y193981D01*
X272195Y194531D01*
X272061Y194981D01*
X271902Y195331D01*
X271719Y195581D01*
X271512Y195730D01*
X271280Y195781D01*
X279720D01*
X279298Y195730D01*
D02*
G37*
G36*
X632017Y178270D02*
X632155Y176670D01*
X632275Y176019D01*
X632430Y175469D01*
X632619Y175019D01*
X632843Y174669D01*
X633101Y174419D01*
X633393Y174270D01*
X633719Y174219D01*
X625280D01*
X625607Y174270D01*
X625900Y174419D01*
X626157Y174669D01*
X626381Y175019D01*
X626570Y175469D01*
X626725Y176019D01*
X626845Y176670D01*
X626931Y177419D01*
X626983Y178270D01*
X627000Y179219D01*
X632000D01*
X632017Y178270D01*
D02*
G37*
G36*
X349470Y165530D02*
X349380Y165495D01*
X349300Y165389D01*
X349230Y165213D01*
X349169Y164966D01*
X349117Y164648D01*
X349075Y164259D01*
X349005Y162671D01*
X349000Y162000D01*
X345000D01*
X344985Y162675D01*
X344939Y163279D01*
X344862Y163813D01*
X344755Y164275D01*
X344617Y164667D01*
X344449Y164988D01*
X344250Y165237D01*
X344021Y165416D01*
X343760Y165524D01*
X343470Y165561D01*
X349470Y165530D01*
D02*
G37*
G36*
X333870Y165521D02*
X333530Y165400D01*
X333230Y165198D01*
X332970Y164916D01*
X332750Y164553D01*
X332570Y164110D01*
X332430Y163586D01*
X332330Y162981D01*
X332270Y162296D01*
X332250Y161530D01*
X328250D01*
X328230Y162296D01*
X328170Y162981D01*
X328070Y163586D01*
X327930Y164110D01*
X327750Y164553D01*
X327530Y164916D01*
X327270Y165198D01*
X326970Y165400D01*
X326630Y165521D01*
X326250Y165561D01*
X334250D01*
X333870Y165521D01*
D02*
G37*
G36*
X703560Y160760D02*
X703390Y160700D01*
X703240Y160600D01*
X703110Y160460D01*
X703000Y160280D01*
X702910Y160061D01*
X702840Y159801D01*
X702790Y159501D01*
X702760Y159160D01*
X702750Y158780D01*
X700750D01*
X700780Y160781D01*
X703750D01*
X703560Y160760D01*
D02*
G37*
G36*
X631525Y165759D02*
X631100Y165606D01*
X630725Y165353D01*
X630400Y165001D01*
X630125Y164548D01*
X629900Y163995D01*
X629725Y163341D01*
X629600Y162588D01*
X629525Y161734D01*
X629516Y161410D01*
X629525Y161083D01*
X629600Y160222D01*
X629725Y159463D01*
X629899Y158805D01*
X630124Y158248D01*
X630399Y157792D01*
X630723Y157438D01*
X631097Y157184D01*
X631522Y157033D01*
X631996Y156982D01*
X622004D01*
X622478Y157033D01*
X622902Y157184D01*
X623277Y157438D01*
X623601Y157792D01*
X623876Y158248D01*
X624101Y158805D01*
X624275Y159463D01*
X624400Y160222D01*
X624475Y161083D01*
X624500Y162045D01*
X624697D01*
X625280Y165781D01*
X632000Y165811D01*
X631525Y165759D01*
D02*
G37*
G36*
X799061Y153000D02*
X799041Y153190D01*
X798980Y153360D01*
X798878Y153510D01*
X798736Y153640D01*
X798553Y153750D01*
X798330Y153840D01*
X798066Y153910D01*
X797761Y153960D01*
X797416Y153990D01*
X797030Y154000D01*
Y156000D01*
X797416Y156010D01*
X797761Y156040D01*
X798066Y156090D01*
X798330Y156160D01*
X798553Y156250D01*
X798736Y156360D01*
X798878Y156490D01*
X798980Y156640D01*
X799041Y156810D01*
X799061Y157000D01*
Y153000D01*
D02*
G37*
G36*
X780959Y156810D02*
X781020Y156640D01*
X781122Y156490D01*
X781264Y156360D01*
X781447Y156250D01*
X781670Y156160D01*
X781934Y156090D01*
X782238Y156040D01*
X782584Y156010D01*
X782970Y156000D01*
Y154000D01*
X782584Y153990D01*
X782238Y153960D01*
X781934Y153910D01*
X781670Y153840D01*
X781447Y153750D01*
X781264Y153640D01*
X781122Y153510D01*
X781020Y153360D01*
X780959Y153190D01*
X780939Y153000D01*
Y157000D01*
X780959Y156810D01*
D02*
G37*
G36*
X325020Y155454D02*
X325028Y155358D01*
X325100D01*
X325081Y155321D01*
X325064Y155251D01*
X325049Y155146D01*
X325048Y155133D01*
X325080Y154768D01*
X325180Y154164D01*
X325320Y153640D01*
X325500Y153197D01*
X325720Y152834D01*
X325980Y152552D01*
X326280Y152350D01*
X326620Y152229D01*
X327000Y152189D01*
X319000D01*
X319380Y152229D01*
X319720Y152350D01*
X320020Y152552D01*
X320280Y152834D01*
X320500Y153197D01*
X320680Y153640D01*
X320820Y154164D01*
X320920Y154768D01*
X320927Y154848D01*
X320900Y155358D01*
X320972D01*
X320980Y155454D01*
X321000Y156220D01*
X325000D01*
X325020Y155454D01*
D02*
G37*
G36*
X621475Y151157D02*
X621245Y151232D01*
X620937Y151298D01*
X620550Y151357D01*
X619539Y151452D01*
X617430Y151534D01*
X615630Y151550D01*
Y156550D01*
X616570Y156554D01*
X620937Y156802D01*
X621245Y156868D01*
X621475Y156943D01*
Y151157D01*
D02*
G37*
G36*
X395811Y141850D02*
X395771Y142230D01*
X395650Y142570D01*
X395448Y142870D01*
X395166Y143130D01*
X394803Y143350D01*
X394360Y143530D01*
X393836Y143670D01*
X393231Y143770D01*
X392991Y143791D01*
X392780Y143773D01*
X392179Y143677D01*
X391660Y143543D01*
X391219Y143370D01*
X390859Y143159D01*
X390579Y142909D01*
X390379Y142621D01*
X390260Y142295D01*
X390219Y141931D01*
Y149469D01*
X390260Y149162D01*
X390379Y148886D01*
X390579Y148644D01*
X390859Y148433D01*
X391219Y148255D01*
X391660Y148109D01*
X392179Y147996D01*
X392780Y147915D01*
X392933Y147904D01*
X393231Y147930D01*
X393836Y148030D01*
X394360Y148170D01*
X394803Y148350D01*
X395166Y148570D01*
X395448Y148830D01*
X395650Y149130D01*
X395771Y149470D01*
X395811Y149850D01*
Y141850D01*
D02*
G37*
G36*
X799031Y143531D02*
X797030Y143500D01*
Y145500D01*
X797414Y145510D01*
X797758Y145540D01*
X798062Y145590D01*
X798325Y145660D01*
X798548Y145750D01*
X798731Y145860D01*
X798874Y145990D01*
X798977Y146140D01*
X799039Y146310D01*
X799061Y146500D01*
X799031Y143531D01*
D02*
G37*
G36*
X780961Y146310D02*
X781023Y146140D01*
X781126Y145990D01*
X781269Y145860D01*
X781452Y145750D01*
X781675Y145660D01*
X781938Y145590D01*
X782242Y145540D01*
X782586Y145510D01*
X782970Y145500D01*
Y143500D01*
X780969Y143531D01*
X780939Y146500D01*
X780961Y146310D01*
D02*
G37*
G36*
X565921Y145107D02*
X566569Y144570D01*
X566858Y144378D01*
X567124Y144237D01*
X567367Y144147D01*
X567586Y144108D01*
X567783Y144120D01*
X567956Y144182D01*
X568107Y144296D01*
X565304Y141493D01*
X565418Y141644D01*
X565480Y141817D01*
X565492Y142014D01*
X565453Y142233D01*
X565363Y142476D01*
X565221Y142742D01*
X565030Y143031D01*
X564787Y143343D01*
X564493Y143679D01*
X564149Y144037D01*
X565563Y145451D01*
X565921Y145107D01*
D02*
G37*
G36*
X656325Y141265D02*
X656225Y141217D01*
X656137Y141138D01*
X656060Y141026D01*
X655996Y140883D01*
X655943Y140709D01*
X655901Y140502D01*
X655872Y140264D01*
X655854Y139993D01*
X655848Y139692D01*
X653848D01*
X653842Y139993D01*
X653795Y140502D01*
X653754Y140709D01*
X653701Y140883D01*
X653636Y141026D01*
X653560Y141138D01*
X653472Y141217D01*
X653371Y141265D01*
X653260Y141280D01*
X656437D01*
X656325Y141265D01*
D02*
G37*
G36*
X651477D02*
X651377Y141217D01*
X651289Y141138D01*
X651212Y141026D01*
X651147Y140883D01*
X651094Y140709D01*
X651053Y140502D01*
X651024Y140264D01*
X651006Y139993D01*
X651000Y139692D01*
X649000D01*
X648994Y139993D01*
X648947Y140502D01*
X648906Y140709D01*
X648853Y140883D01*
X648788Y141026D01*
X648711Y141138D01*
X648623Y141217D01*
X648523Y141265D01*
X648411Y141280D01*
X651589D01*
X651477Y141265D01*
D02*
G37*
G36*
X686020Y141140D02*
X686080Y140800D01*
X686180Y140500D01*
X686320Y140240D01*
X686500Y140020D01*
X686720Y139840D01*
X686980Y139700D01*
X687280Y139600D01*
X687620Y139540D01*
X688000Y139520D01*
X685000Y137520D01*
X682000Y139520D01*
X682380Y139540D01*
X682720Y139600D01*
X683020Y139700D01*
X683280Y139840D01*
X683500Y140020D01*
X683680Y140240D01*
X683820Y140500D01*
X683920Y140800D01*
X683980Y141140D01*
X684000Y141520D01*
X686000D01*
X686020Y141140D01*
D02*
G37*
G36*
X318811Y130000D02*
X318771Y130380D01*
X318650Y130720D01*
X318448Y131020D01*
X318166Y131280D01*
X317803Y131500D01*
X317360Y131680D01*
X316836Y131820D01*
X316231Y131920D01*
X315546Y131980D01*
X315500Y131981D01*
X315454Y131980D01*
X314769Y131920D01*
X314164Y131820D01*
X313640Y131680D01*
X313197Y131500D01*
X312834Y131280D01*
X312552Y131020D01*
X312350Y130720D01*
X312229Y130380D01*
X312189Y130000D01*
Y138000D01*
X312229Y137620D01*
X312350Y137280D01*
X312552Y136980D01*
X312834Y136720D01*
X313197Y136500D01*
X313640Y136320D01*
X314164Y136180D01*
X314769Y136080D01*
X315454Y136020D01*
X315500Y136019D01*
X315546Y136020D01*
X316231Y136080D01*
X316836Y136180D01*
X317360Y136320D01*
X317803Y136500D01*
X318166Y136720D01*
X318448Y136980D01*
X318650Y137280D01*
X318771Y137620D01*
X318811Y138000D01*
Y130000D01*
D02*
G37*
G36*
X655854Y132501D02*
X655901Y131982D01*
X655943Y131772D01*
X655996Y131594D01*
X656060Y131448D01*
X656137Y131335D01*
X656225Y131254D01*
X656325Y131205D01*
X656437Y131189D01*
X653260D01*
X653371Y131205D01*
X653472Y131254D01*
X653560Y131335D01*
X653636Y131448D01*
X653701Y131594D01*
X653754Y131772D01*
X653795Y131982D01*
X653825Y132225D01*
X653842Y132501D01*
X653848Y132808D01*
X655848D01*
X655854Y132501D01*
D02*
G37*
G36*
X651006D02*
X651053Y131982D01*
X651094Y131772D01*
X651147Y131594D01*
X651212Y131448D01*
X651289Y131335D01*
X651377Y131254D01*
X651477Y131205D01*
X651589Y131189D01*
X648411D01*
X648523Y131205D01*
X648623Y131254D01*
X648711Y131335D01*
X648788Y131448D01*
X648853Y131594D01*
X648906Y131772D01*
X648947Y131982D01*
X648977Y132225D01*
X648994Y132501D01*
X649000Y132808D01*
X651000D01*
X651006Y132501D01*
D02*
G37*
G36*
X327231Y137120D02*
X327353Y136780D01*
X327555Y136480D01*
X327838Y136220D01*
X328201Y136000D01*
X328644Y135820D01*
X329167Y135680D01*
X329771Y135580D01*
X330455Y135520D01*
X330588Y135517D01*
X331820Y135614D01*
X332341Y135703D01*
X332780Y135817D01*
X333140Y135957D01*
X333420Y136122D01*
X333620Y136313D01*
X333741Y136528D01*
X333781Y136770D01*
Y129500D01*
X333741Y129880D01*
X333620Y130220D01*
X333420Y130520D01*
X333140Y130780D01*
X332780Y131000D01*
X332341Y131180D01*
X331820Y131320D01*
X331221Y131420D01*
X330541Y131480D01*
X330453Y131482D01*
X329780Y131431D01*
X329179Y131345D01*
X328660Y131225D01*
X328219Y131070D01*
X327859Y130881D01*
X327579Y130657D01*
X327379Y130400D01*
X327259Y130107D01*
X327220Y129781D01*
X327189Y137500D01*
X327231Y137120D01*
D02*
G37*
G36*
X708000Y132980D02*
X707620Y132960D01*
X707280Y132900D01*
X706980Y132800D01*
X706720Y132660D01*
X706500Y132480D01*
X706320Y132260D01*
X706180Y132000D01*
X706080Y131700D01*
X706020Y131360D01*
X706017Y131301D01*
X706044Y131079D01*
X706099Y130813D01*
X706176Y130555D01*
X706275Y130303D01*
X706396Y130058D01*
X706539Y129819D01*
X706704Y129587D01*
X706891Y129361D01*
X707100Y129142D01*
X702900D01*
X703109Y129361D01*
X703296Y129587D01*
X703461Y129819D01*
X703604Y130058D01*
X703725Y130303D01*
X703824Y130555D01*
X703901Y130813D01*
X703956Y131079D01*
X703983Y131301D01*
X703980Y131360D01*
X703920Y131700D01*
X703820Y132000D01*
X703680Y132260D01*
X703500Y132480D01*
X703280Y132660D01*
X703020Y132800D01*
X702720Y132900D01*
X702380Y132960D01*
X702000Y132980D01*
X705000Y134980D01*
X708000Y132980D01*
D02*
G37*
G36*
X565921Y132407D02*
X566569Y131870D01*
X566858Y131678D01*
X567124Y131538D01*
X567367Y131447D01*
X567586Y131408D01*
X567783Y131420D01*
X567956Y131482D01*
X568107Y131595D01*
X565304Y128793D01*
X565418Y128944D01*
X565480Y129117D01*
X565492Y129314D01*
X565453Y129533D01*
X565363Y129776D01*
X565221Y130042D01*
X565030Y130331D01*
X564787Y130643D01*
X564493Y130979D01*
X564149Y131337D01*
X565563Y132751D01*
X565921Y132407D01*
D02*
G37*
G36*
X390231Y136120D02*
X390353Y135780D01*
X390555Y135480D01*
X390838Y135220D01*
X391201Y135000D01*
X391644Y134820D01*
X392168Y134680D01*
X392771Y134580D01*
X393048Y134556D01*
X393220Y134569D01*
X393820Y134655D01*
X394341Y134775D01*
X394781Y134930D01*
X395140Y135119D01*
X395420Y135343D01*
X395620Y135601D01*
X395741Y135893D01*
X395780Y136220D01*
X395811Y128500D01*
X395769Y128880D01*
X395647Y129220D01*
X395445Y129520D01*
X395162Y129780D01*
X394799Y130000D01*
X394356Y130180D01*
X393833Y130320D01*
X393229Y130420D01*
X392935Y130446D01*
X392179Y130386D01*
X391660Y130297D01*
X391219Y130183D01*
X390859Y130043D01*
X390579Y129878D01*
X390379Y129688D01*
X390260Y129472D01*
X390219Y129230D01*
X390189Y136500D01*
X390231Y136120D01*
D02*
G37*
G36*
X326620Y129740D02*
X326280Y129621D01*
X325980Y129420D01*
X325720Y129141D01*
X325500Y128780D01*
X325320Y128341D01*
X325180Y127821D01*
X325080Y127220D01*
X325020Y126540D01*
X325006Y125999D01*
X325020Y125454D01*
X325080Y124769D01*
X325180Y124164D01*
X325320Y123640D01*
X325500Y123197D01*
X325720Y122834D01*
X325980Y122552D01*
X326280Y122350D01*
X326620Y122229D01*
X327000Y122189D01*
X319000D01*
X319380Y122229D01*
X319720Y122350D01*
X320020Y122552D01*
X320280Y122834D01*
X320500Y123197D01*
X320680Y123640D01*
X320820Y124164D01*
X320920Y124769D01*
X320980Y125454D01*
X320994Y125999D01*
X320980Y126540D01*
X320920Y127220D01*
X320820Y127821D01*
X320680Y128341D01*
X320500Y128780D01*
X320280Y129141D01*
X320020Y129420D01*
X319720Y129621D01*
X319380Y129740D01*
X319000Y129781D01*
X327000D01*
X326620Y129740D01*
D02*
G37*
G36*
X706010Y118084D02*
X706040Y117739D01*
X706090Y117434D01*
X706160Y117170D01*
X706250Y116947D01*
X706360Y116764D01*
X706490Y116622D01*
X706640Y116520D01*
X706810Y116459D01*
X707000Y116439D01*
X703000D01*
X703190Y116459D01*
X703360Y116520D01*
X703510Y116622D01*
X703640Y116764D01*
X703750Y116947D01*
X703840Y117170D01*
X703910Y117434D01*
X703960Y117739D01*
X703990Y118084D01*
X704000Y118469D01*
X706000D01*
X706010Y118084D01*
D02*
G37*
G36*
X686010D02*
X686040Y117739D01*
X686090Y117434D01*
X686160Y117170D01*
X686250Y116947D01*
X686360Y116764D01*
X686490Y116622D01*
X686640Y116520D01*
X686810Y116459D01*
X687000Y116439D01*
X683000D01*
X683190Y116459D01*
X683360Y116520D01*
X683510Y116622D01*
X683640Y116764D01*
X683750Y116947D01*
X683840Y117170D01*
X683910Y117434D01*
X683960Y117739D01*
X683990Y118084D01*
X684000Y118469D01*
X686000D01*
X686010Y118084D01*
D02*
G37*
G36*
X620011Y121040D02*
X621335Y119898D01*
X621922Y119471D01*
X622459Y119139D01*
X622945Y118903D01*
X623382Y118763D01*
X623769Y118718D01*
X624105Y118768D01*
X624392Y118915D01*
X619357Y115175D01*
X619305Y115386D01*
X619200Y115634D01*
X619041Y115919D01*
X618830Y116239D01*
X618565Y116596D01*
X617877Y117419D01*
X616976Y118387D01*
X616446Y118926D01*
X619274Y121754D01*
X620011Y121040D01*
D02*
G37*
G36*
X656393Y108730D02*
X656100Y108581D01*
X655843Y108330D01*
X655619Y107980D01*
X655430Y107530D01*
X655275Y106980D01*
X655155Y106330D01*
X655069Y105581D01*
X655017Y104731D01*
X655000Y103780D01*
X650000D01*
X649983Y104731D01*
X649845Y106330D01*
X649725Y106980D01*
X649570Y107530D01*
X649381Y107980D01*
X649157Y108330D01*
X648900Y108581D01*
X648607Y108730D01*
X648280Y108780D01*
X656720D01*
X656393Y108730D01*
D02*
G37*
G36*
X327229Y107620D02*
X327350Y107280D01*
X327552Y106980D01*
X327834Y106720D01*
X328197Y106500D01*
X328640Y106320D01*
X329164Y106180D01*
X329769Y106080D01*
X330454Y106020D01*
X331219Y106000D01*
Y102000D01*
X330454Y101980D01*
X329769Y101920D01*
X329164Y101820D01*
X328640Y101680D01*
X328197Y101500D01*
X327834Y101280D01*
X327552Y101020D01*
X327350Y100720D01*
X327229Y100380D01*
X327189Y100000D01*
Y108000D01*
X327229Y107620D01*
D02*
G37*
G36*
X627494Y103685D02*
X628245Y103084D01*
X629025Y102553D01*
X629835Y102094D01*
X630674Y101705D01*
X631542Y101387D01*
X632440Y101139D01*
X633367Y100962D01*
X634323Y100856D01*
X635308Y100821D01*
X629272Y95821D01*
X618237Y100821D01*
X619151Y100856D01*
X619896Y100962D01*
X620469Y101139D01*
X620871Y101387D01*
X621103Y101705D01*
X621164Y102094D01*
X621054Y102553D01*
X620774Y103084D01*
X620323Y103685D01*
X619701Y104357D01*
X626772D01*
X627494Y103685D01*
D02*
G37*
%LPC*%
G36*
X830000Y532609D02*
X825589Y532174D01*
X821348Y530888D01*
X817439Y528799D01*
X814013Y525987D01*
X811201Y522561D01*
X809112Y518652D01*
X807826Y514411D01*
X807391Y510000D01*
X807826Y505589D01*
X809112Y501348D01*
X811201Y497439D01*
X814013Y494013D01*
X817439Y491201D01*
X821348Y489112D01*
X825589Y487826D01*
X830000Y487391D01*
X834411Y487826D01*
X838652Y489112D01*
X842561Y491201D01*
X845987Y494013D01*
X848799Y497439D01*
X850888Y501348D01*
X852174Y505589D01*
X852609Y510000D01*
X852174Y514411D01*
X850888Y518652D01*
X848799Y522561D01*
X845987Y525987D01*
X842561Y528799D01*
X838652Y530888D01*
X834411Y532174D01*
X830000Y532609D01*
D02*
G37*
G36*
X30000D02*
X25589Y532174D01*
X21348Y530888D01*
X17439Y528799D01*
X14013Y525987D01*
X11201Y522561D01*
X9112Y518652D01*
X7826Y514411D01*
X7391Y510000D01*
X7826Y505589D01*
X9112Y501348D01*
X11201Y497439D01*
X14013Y494013D01*
X17439Y491201D01*
X21348Y489112D01*
X25589Y487826D01*
X30000Y487391D01*
X34411Y487826D01*
X38652Y489112D01*
X42561Y491201D01*
X45987Y494013D01*
X48799Y497439D01*
X50888Y501348D01*
X52174Y505589D01*
X52609Y510000D01*
X52174Y514411D01*
X50888Y518652D01*
X48799Y522561D01*
X45987Y525987D01*
X42561Y528799D01*
X38652Y530888D01*
X34411Y532174D01*
X30000Y532609D01*
D02*
G37*
G36*
X701500Y462000D02*
X696750D01*
Y454750D01*
X701500D01*
Y462000D01*
D02*
G37*
G36*
X693250D02*
X688500D01*
Y454750D01*
X693250D01*
Y462000D01*
D02*
G37*
G36*
X701500Y451250D02*
X696750D01*
Y444000D01*
X701500D01*
Y451250D01*
D02*
G37*
G36*
X693250D02*
X688500D01*
Y444000D01*
X693250D01*
Y451250D01*
D02*
G37*
G36*
X613750Y447750D02*
X607750D01*
Y441750D01*
X613750D01*
Y447750D01*
D02*
G37*
G36*
Y438250D02*
X607750D01*
Y432250D01*
X613750D01*
Y438250D01*
D02*
G37*
G36*
X660250Y437250D02*
X654250D01*
Y431250D01*
X660250D01*
Y437250D01*
D02*
G37*
G36*
X650750D02*
X644750D01*
Y431250D01*
X650750D01*
Y437250D01*
D02*
G37*
G36*
X577750Y429148D02*
X568250D01*
X566299Y428760D01*
X564645Y427655D01*
X564302Y427141D01*
X563956Y427109D01*
X554862D01*
X554862Y427109D01*
X554662Y427069D01*
X554451Y427210D01*
X552500Y427598D01*
X550549Y427210D01*
X548895Y426105D01*
X547790Y424451D01*
X547402Y422500D01*
X547790Y420549D01*
X548895Y418895D01*
X550549Y417790D01*
X552500Y417402D01*
X554451Y417790D01*
X556105Y418895D01*
X557210Y420549D01*
X557298Y420991D01*
X564027D01*
X564198Y420980D01*
X564296Y420968D01*
X564645Y420445D01*
X566299Y419340D01*
X568250Y418952D01*
X577750D01*
X579701Y419340D01*
X581355Y420445D01*
X582460Y422099D01*
X582848Y424050D01*
X582460Y426001D01*
X581355Y427655D01*
X579701Y428760D01*
X577750Y429148D01*
D02*
G37*
G36*
Y391048D02*
X568250D01*
X566299Y390660D01*
X564645Y389555D01*
X564302Y389041D01*
X563956Y389009D01*
X555419D01*
X554451Y389656D01*
X552500Y390044D01*
X550549Y389656D01*
X548895Y388551D01*
X547790Y386897D01*
X547402Y384946D01*
X547790Y382995D01*
X548895Y381341D01*
X550549Y380236D01*
X552500Y379848D01*
X554451Y380236D01*
X556105Y381341D01*
X557141Y382891D01*
X564027D01*
X564198Y382880D01*
X564296Y382868D01*
X564645Y382345D01*
X566299Y381240D01*
X568250Y380852D01*
X577750D01*
X579701Y381240D01*
X581355Y382345D01*
X582460Y383999D01*
X582848Y385950D01*
X582460Y387901D01*
X581355Y389555D01*
X579701Y390660D01*
X577750Y391048D01*
D02*
G37*
G36*
X638029Y384200D02*
X628750D01*
Y379323D01*
X631750D01*
X634286Y379827D01*
X636436Y381264D01*
X637873Y383414D01*
X638029Y384200D01*
D02*
G37*
G36*
X625250D02*
X615971D01*
X616127Y383414D01*
X617564Y381264D01*
X619714Y379827D01*
X622250Y379323D01*
X625250D01*
Y384200D01*
D02*
G37*
G36*
X517250Y365250D02*
X511250D01*
Y359250D01*
X517250D01*
Y365250D01*
D02*
G37*
G36*
Y355750D02*
X511250D01*
Y349750D01*
X517250D01*
Y355750D01*
D02*
G37*
G36*
X711250Y367250D02*
X698750D01*
Y354750D01*
X701941D01*
Y316467D01*
X685373Y299899D01*
X684200Y300385D01*
Y303050D01*
X655800D01*
Y287750D01*
X684200D01*
Y291598D01*
X685200Y292341D01*
X686370Y292574D01*
X687363Y293237D01*
X707163Y313037D01*
X707826Y314030D01*
X708059Y315200D01*
Y354750D01*
X711250D01*
Y367250D01*
D02*
G37*
G36*
X330000Y299750D02*
X324000D01*
Y293750D01*
X330000D01*
Y299750D01*
D02*
G37*
G36*
X484000Y286750D02*
X478450D01*
Y274750D01*
X484000D01*
Y286750D01*
D02*
G37*
G36*
X770200Y277650D02*
X741800D01*
Y262350D01*
X770200D01*
Y277650D01*
D02*
G37*
G36*
X684200D02*
X655800D01*
Y262350D01*
X684200D01*
Y277650D01*
D02*
G37*
G36*
X484000Y271250D02*
X478450D01*
Y259250D01*
X484000D01*
Y271250D01*
D02*
G37*
G36*
X434250Y299250D02*
X421750D01*
Y286750D01*
X434250D01*
Y288727D01*
X434289Y288743D01*
X434595Y288824D01*
X435024Y288895D01*
X435324Y288922D01*
X443668D01*
X443963Y288896D01*
X444387Y288825D01*
X444687Y288744D01*
X444750Y288718D01*
Y286750D01*
X445243D01*
X445684Y285965D01*
X445500Y285250D01*
X445500D01*
Y283263D01*
X445491Y283220D01*
X445500Y283176D01*
Y260750D01*
X456930D01*
X457100Y260750D01*
X458200D01*
X458370Y260750D01*
X469400D01*
Y259250D01*
X474950D01*
Y273000D01*
Y286750D01*
X471250D01*
Y299250D01*
X458750D01*
Y288817D01*
X458741Y288772D01*
X458750Y288730D01*
Y286750D01*
X458750D01*
X459003Y286018D01*
X458570Y285250D01*
X458200Y285250D01*
X457164D01*
X456874Y285571D01*
X456722Y285786D01*
X456664Y285935D01*
X457136Y286750D01*
X457250D01*
Y299250D01*
X444750D01*
Y297282D01*
X444687Y297256D01*
X444387Y297175D01*
X443963Y297104D01*
X443668Y297078D01*
X435324D01*
X435024Y297105D01*
X434595Y297176D01*
X434289Y297257D01*
X434250Y297273D01*
Y299250D01*
D02*
G37*
G36*
X381000Y265098D02*
X379049Y264710D01*
X377395Y263605D01*
X376290Y261951D01*
X375902Y260000D01*
X376030Y259356D01*
X374424Y257750D01*
X372513D01*
X372469Y257759D01*
X372426Y257750D01*
X370369D01*
X370000Y257823D01*
X369250D01*
X368500Y258907D01*
Y259250D01*
X364250D01*
Y254000D01*
X362500D01*
Y252250D01*
X356500D01*
Y248750D01*
X360187D01*
X361250Y248250D01*
Y235750D01*
X373750D01*
Y246176D01*
X373759Y246220D01*
X373750Y246263D01*
Y248250D01*
X373106D01*
X373073Y248729D01*
Y249634D01*
X373088Y249823D01*
X373140Y250199D01*
X373152Y250250D01*
X374500D01*
X375447Y251030D01*
X376171Y251174D01*
X377163Y251837D01*
X380356Y255030D01*
X381000Y254902D01*
X382951Y255290D01*
X384605Y256395D01*
X385710Y258049D01*
X386098Y260000D01*
X385710Y261951D01*
X384605Y263605D01*
X382951Y264710D01*
X381000Y265098D01*
D02*
G37*
G36*
X360750Y259250D02*
X356500D01*
Y255750D01*
X360750D01*
Y259250D01*
D02*
G37*
G36*
X330000Y258750D02*
X324000D01*
Y252750D01*
X330000D01*
Y258750D01*
D02*
G37*
G36*
X273750Y252750D02*
X267750D01*
Y246750D01*
X273750D01*
Y252750D01*
D02*
G37*
G36*
X84250Y248869D02*
Y239250D01*
X93869D01*
X93704Y240502D01*
X92545Y243300D01*
X90702Y245702D01*
X88300Y247545D01*
X85502Y248704D01*
X84250Y248869D01*
D02*
G37*
G36*
X80750D02*
X79498Y248704D01*
X76700Y247545D01*
X74298Y245702D01*
X72455Y243300D01*
X71296Y240502D01*
X71131Y239250D01*
X80750D01*
Y248869D01*
D02*
G37*
G36*
X343750Y236250D02*
X337750D01*
Y230250D01*
X343750D01*
Y236250D01*
D02*
G37*
G36*
X304250D02*
X298250D01*
Y230250D01*
X304250D01*
Y236250D01*
D02*
G37*
G36*
X93869Y235750D02*
X84250D01*
Y226131D01*
X85502Y226296D01*
X88300Y227455D01*
X90702Y229298D01*
X92545Y231700D01*
X93704Y234498D01*
X93869Y235750D01*
D02*
G37*
G36*
X80750D02*
X71131D01*
X71296Y234498D01*
X72455Y231700D01*
X74298Y229298D01*
X76700Y227455D01*
X79498Y226296D01*
X80750Y226131D01*
Y235750D01*
D02*
G37*
G36*
X433250Y224750D02*
X427250D01*
Y218750D01*
X433250D01*
Y224750D01*
D02*
G37*
G36*
X257500Y231500D02*
X244250D01*
Y217250D01*
X257500D01*
Y231500D01*
D02*
G37*
G36*
X240750D02*
X227500D01*
Y217250D01*
X240750D01*
Y231500D01*
D02*
G37*
G36*
X242500Y215500D02*
D01*
D01*
D01*
D01*
D02*
G37*
G36*
X257500Y213750D02*
X244250D01*
Y199500D01*
X257500D01*
Y213750D01*
D02*
G37*
G36*
X240750D02*
X227500D01*
Y199500D01*
X240750D01*
Y213750D01*
D02*
G37*
G36*
X308250Y183750D02*
X302250D01*
Y177750D01*
X308250D01*
Y183750D01*
D02*
G37*
G36*
X684200Y252250D02*
X655800D01*
Y236950D01*
X684200D01*
Y239615D01*
X685373Y240101D01*
X698691Y226783D01*
Y182250D01*
X698691Y182250D01*
X698750Y181954D01*
Y172750D01*
X711250D01*
Y185250D01*
X704809D01*
Y228050D01*
X704576Y229221D01*
X703913Y230213D01*
X703913Y230213D01*
X687363Y246763D01*
X686370Y247426D01*
X685200Y247659D01*
X684200Y248402D01*
Y252250D01*
D02*
G37*
G36*
X82500Y197586D02*
X79889Y197243D01*
X77457Y196235D01*
X75368Y194632D01*
X73765Y192543D01*
X72757Y190110D01*
X72414Y187500D01*
X72757Y184890D01*
X73765Y182457D01*
X75368Y180368D01*
X77457Y178765D01*
X79889Y177757D01*
X82500Y177414D01*
X85111Y177757D01*
X87543Y178765D01*
X88411Y179431D01*
X166658D01*
X166794Y179294D01*
X168465Y178012D01*
X170412Y177206D01*
X172500Y176931D01*
X174165D01*
X176178Y176829D01*
X177042Y176734D01*
X177734Y176619D01*
X178000Y176553D01*
Y172600D01*
X217000D01*
Y194400D01*
X180074D01*
X180030Y194409D01*
X179987Y194400D01*
X178000D01*
Y193398D01*
X177846Y193364D01*
X175713Y193198D01*
X175706Y193206D01*
X174035Y194488D01*
X172088Y195294D01*
X170000Y195569D01*
X88411D01*
X87543Y196235D01*
X85111Y197243D01*
X82500Y197586D01*
D02*
G37*
G36*
X613750Y177750D02*
X607750D01*
Y171750D01*
X613750D01*
Y177750D01*
D02*
G37*
G36*
Y168250D02*
X607750D01*
Y162250D01*
X613750D01*
Y168250D01*
D02*
G37*
G36*
X660250Y167250D02*
X654250D01*
Y161250D01*
X660250D01*
Y167250D01*
D02*
G37*
G36*
X650750D02*
X644750D01*
Y161250D01*
X650750D01*
Y167250D01*
D02*
G37*
G36*
X233500Y147000D02*
X221500D01*
Y138000D01*
X233500D01*
Y147000D01*
D02*
G37*
G36*
X297250Y133250D02*
X291250D01*
Y127250D01*
X297250D01*
Y133250D01*
D02*
G37*
G36*
X256000Y187000D02*
X229000D01*
Y158000D01*
X239977D01*
X240047Y157884D01*
X240163Y157600D01*
X240279Y157165D01*
X240375Y156585D01*
X240412Y156170D01*
Y155000D01*
X240761Y153244D01*
X241756Y151756D01*
X244412Y149100D01*
Y142003D01*
X244405Y141802D01*
X244344Y141179D01*
X244263Y140668D01*
X244223Y140500D01*
X243000D01*
Y138513D01*
X242991Y138469D01*
X243000Y138426D01*
Y131500D01*
X248557D01*
X249000Y131412D01*
X249275Y131467D01*
X249500Y131422D01*
X249500Y131422D01*
X268168D01*
X268463Y131396D01*
X268887Y131325D01*
X269187Y131244D01*
X269250Y131218D01*
Y128750D01*
X281750D01*
X281750Y127250D01*
X287750D01*
Y135000D01*
X289500D01*
Y136750D01*
X297250D01*
Y142750D01*
X293834D01*
X293348Y143923D01*
X295384Y145959D01*
X295384Y145959D01*
X296079Y147000D01*
X298500D01*
Y162000D01*
X290500D01*
Y163500D01*
X285750D01*
Y154500D01*
X282250D01*
Y163500D01*
X277500D01*
Y162000D01*
X269500D01*
Y149074D01*
X269491Y149031D01*
X269500Y148987D01*
Y147000D01*
X270803D01*
X270847Y146779D01*
X270922Y145963D01*
Y142247D01*
X270903Y142001D01*
X270839Y141555D01*
X270768Y141250D01*
X269250D01*
Y139732D01*
X268945Y139661D01*
X268498Y139597D01*
X268253Y139578D01*
X255785D01*
X255124Y139618D01*
X255000Y139635D01*
Y140500D01*
X253777D01*
X253737Y140668D01*
X253660Y141154D01*
X253588Y142128D01*
Y151000D01*
X253239Y152756D01*
X252244Y154244D01*
X249664Y156825D01*
X249721Y157165D01*
X249837Y157600D01*
X249953Y157884D01*
X250023Y158000D01*
X256000D01*
Y187000D01*
D02*
G37*
G36*
X217000Y142400D02*
X178000D01*
Y120600D01*
X217000D01*
Y125570D01*
X217099Y125597D01*
X217454Y125655D01*
X217696Y125677D01*
X221170D01*
X221500Y125660D01*
Y125000D01*
X223487D01*
X223531Y124991D01*
X223574Y125000D01*
X233500D01*
Y134000D01*
X223574D01*
X223531Y134009D01*
X223487Y134000D01*
X221500D01*
Y133356D01*
X221021Y133323D01*
X217696D01*
X217454Y133345D01*
X217099Y133403D01*
X217000Y133430D01*
Y142400D01*
D02*
G37*
G36*
X577750Y121048D02*
X568250D01*
X566299Y120660D01*
X564645Y119555D01*
X563973Y118548D01*
X563820Y118534D01*
X556152D01*
X556105Y118605D01*
X554451Y119710D01*
X552500Y120098D01*
X550549Y119710D01*
X548895Y118605D01*
X547790Y116951D01*
X547402Y115000D01*
X547790Y113049D01*
X548895Y111395D01*
X550549Y110290D01*
X552500Y109902D01*
X554451Y110290D01*
X556105Y111395D01*
X556787Y112416D01*
X564266D01*
X564464Y112404D01*
X564618Y112386D01*
X564645Y112345D01*
X566299Y111240D01*
X568250Y110852D01*
X577750D01*
X579701Y111240D01*
X581355Y112345D01*
X582460Y113999D01*
X582848Y115950D01*
X582460Y117901D01*
X581355Y119555D01*
X579701Y120660D01*
X577750Y121048D01*
D02*
G37*
G36*
X393750Y118550D02*
X381750D01*
Y113000D01*
X393750D01*
Y118550D01*
D02*
G37*
G36*
X378250D02*
X366250D01*
Y113000D01*
X378250D01*
Y118550D01*
D02*
G37*
G36*
X701500Y96000D02*
X696750D01*
Y88750D01*
X701500D01*
Y96000D01*
D02*
G37*
G36*
X693250D02*
X688500D01*
Y88750D01*
X693250D01*
Y96000D01*
D02*
G37*
G36*
X701500Y85250D02*
X696750D01*
Y78000D01*
X701500D01*
Y85250D01*
D02*
G37*
G36*
X693250D02*
X688500D01*
Y78000D01*
X693250D01*
Y85250D01*
D02*
G37*
G36*
X830000Y52609D02*
X825589Y52174D01*
X821348Y50888D01*
X817439Y48799D01*
X814013Y45987D01*
X811201Y42561D01*
X809112Y38652D01*
X807826Y34411D01*
X807391Y30000D01*
X807826Y25589D01*
X809112Y21348D01*
X811201Y17439D01*
X814013Y14013D01*
X817439Y11201D01*
X821348Y9112D01*
X825589Y7826D01*
X830000Y7391D01*
X834411Y7826D01*
X838652Y9112D01*
X842561Y11201D01*
X845987Y14013D01*
X848799Y17439D01*
X850888Y21348D01*
X852174Y25589D01*
X852609Y30000D01*
X852174Y34411D01*
X850888Y38652D01*
X848799Y42561D01*
X845987Y45987D01*
X842561Y48799D01*
X838652Y50888D01*
X834411Y52174D01*
X830000Y52609D01*
D02*
G37*
G36*
X30000D02*
X25589Y52174D01*
X21348Y50888D01*
X17439Y48799D01*
X14013Y45987D01*
X11201Y42561D01*
X9112Y38652D01*
X7826Y34411D01*
X7391Y30000D01*
X7826Y25589D01*
X9112Y21348D01*
X11201Y17439D01*
X14013Y14013D01*
X17439Y11201D01*
X21348Y9112D01*
X25589Y7826D01*
X30000Y7391D01*
X34411Y7826D01*
X38652Y9112D01*
X42561Y11201D01*
X45987Y14013D01*
X48799Y17439D01*
X50888Y21348D01*
X52174Y25589D01*
X52609Y30000D01*
X52174Y34411D01*
X50888Y38652D01*
X48799Y42561D01*
X45987Y45987D01*
X42561Y48799D01*
X38652Y50888D01*
X34411Y52174D01*
X30000Y52609D01*
D02*
G37*
%LPD*%
G36*
X566066Y422069D02*
X566040Y422255D01*
X565961Y422422D01*
X565830Y422569D01*
X565647Y422697D01*
X565412Y422805D01*
X565124Y422893D01*
X564784Y422962D01*
X564392Y423011D01*
X563947Y423040D01*
X563450Y423050D01*
Y425050D01*
X563947Y425060D01*
X564784Y425138D01*
X565124Y425207D01*
X565412Y425295D01*
X565647Y425403D01*
X565830Y425531D01*
X565961Y425678D01*
X566040Y425845D01*
X566066Y426031D01*
Y422069D01*
D02*
G37*
G36*
Y383969D02*
X566040Y384155D01*
X565961Y384322D01*
X565830Y384469D01*
X565647Y384597D01*
X565412Y384705D01*
X565124Y384793D01*
X564784Y384862D01*
X564392Y384911D01*
X563947Y384940D01*
X563450Y384950D01*
Y386950D01*
X563947Y386960D01*
X564784Y387038D01*
X565124Y387107D01*
X565412Y387195D01*
X565647Y387303D01*
X565830Y387431D01*
X565961Y387578D01*
X566040Y387745D01*
X566066Y387931D01*
Y383969D01*
D02*
G37*
G36*
X706810Y356760D02*
X706640Y356701D01*
X706490Y356600D01*
X706360Y356460D01*
X706250Y356281D01*
X706160Y356060D01*
X706090Y355801D01*
X706040Y355500D01*
X706010Y355160D01*
X706000Y354781D01*
X704000D01*
X703990Y355160D01*
X703960Y355500D01*
X703910Y355801D01*
X703840Y356060D01*
X703750Y356281D01*
X703640Y356460D01*
X703510Y356600D01*
X703360Y356701D01*
X703190Y356760D01*
X703000Y356781D01*
X707000D01*
X706810Y356760D01*
D02*
G37*
G36*
X682159Y297210D02*
X682220Y297040D01*
X682322Y296890D01*
X682464Y296760D01*
X682647Y296650D01*
X682870Y296560D01*
X683134Y296490D01*
X683439Y296440D01*
X683784Y296410D01*
X684169Y296400D01*
Y294400D01*
X683784Y294390D01*
X683439Y294360D01*
X683134Y294310D01*
X682870Y294240D01*
X682647Y294150D01*
X682464Y294040D01*
X682322Y293910D01*
X682220Y293760D01*
X682159Y293590D01*
X682139Y293400D01*
Y297400D01*
X682159Y297210D01*
D02*
G37*
G36*
X446780Y289000D02*
X446740Y289380D01*
X446620Y289720D01*
X446420Y290020D01*
X446140Y290280D01*
X445780Y290500D01*
X445340Y290680D01*
X444820Y290820D01*
X444220Y290920D01*
X443540Y290980D01*
X442780Y291000D01*
Y295000D01*
X443540Y295020D01*
X444220Y295080D01*
X444820Y295180D01*
X445340Y295320D01*
X445780Y295500D01*
X446140Y295720D01*
X446420Y295980D01*
X446620Y296280D01*
X446740Y296620D01*
X446780Y297000D01*
Y289000D01*
D02*
G37*
G36*
X432229Y296620D02*
X432350Y296280D01*
X432552Y295980D01*
X432834Y295720D01*
X433197Y295500D01*
X433640Y295320D01*
X434164Y295180D01*
X434768Y295080D01*
X435454Y295020D01*
X436219Y295000D01*
Y291000D01*
X435454Y290980D01*
X434768Y290920D01*
X434164Y290820D01*
X433640Y290680D01*
X433197Y290500D01*
X432834Y290280D01*
X432552Y290020D01*
X432350Y289720D01*
X432229Y289380D01*
X432189Y289000D01*
Y297000D01*
X432229Y296620D01*
D02*
G37*
G36*
X454770Y288771D02*
X454430Y288650D01*
X454130Y288448D01*
X453870Y288166D01*
X453650Y287803D01*
X453470Y287360D01*
X453330Y286836D01*
X453230Y286231D01*
X453209Y285991D01*
X453227Y285779D01*
X453323Y285180D01*
X453457Y284660D01*
X453630Y284219D01*
X453841Y283860D01*
X454090Y283580D01*
X454378Y283379D01*
X454705Y283260D01*
X455070Y283220D01*
X447530D01*
X447838Y283260D01*
X448114Y283379D01*
X448356Y283580D01*
X448567Y283860D01*
X448745Y284219D01*
X448891Y284660D01*
X449004Y285180D01*
X449085Y285779D01*
X449096Y285933D01*
X449070Y286231D01*
X448970Y286836D01*
X448830Y287360D01*
X448650Y287803D01*
X448430Y288166D01*
X448170Y288448D01*
X447870Y288650D01*
X447530Y288771D01*
X447150Y288811D01*
X455150D01*
X454770Y288771D01*
D02*
G37*
G36*
X468120Y288769D02*
X467780Y288647D01*
X467480Y288445D01*
X467220Y288162D01*
X467000Y287799D01*
X466820Y287356D01*
X466680Y286833D01*
X466580Y286229D01*
X466554Y285935D01*
X466614Y285180D01*
X466703Y284660D01*
X466817Y284219D01*
X466957Y283860D01*
X467122Y283580D01*
X467313Y283379D01*
X467528Y283260D01*
X467770Y283220D01*
X460500Y283189D01*
X460880Y283231D01*
X461220Y283353D01*
X461520Y283555D01*
X461780Y283838D01*
X462000Y284201D01*
X462180Y284644D01*
X462320Y285168D01*
X462420Y285771D01*
X462444Y286048D01*
X462431Y286220D01*
X462345Y286821D01*
X462225Y287340D01*
X462070Y287780D01*
X461881Y288140D01*
X461657Y288421D01*
X461399Y288620D01*
X461107Y288740D01*
X460780Y288780D01*
X468500Y288811D01*
X468120Y288769D01*
D02*
G37*
G36*
X372490Y255583D02*
X372550Y255460D01*
X372649Y255352D01*
X372789Y255259D01*
X372970Y255180D01*
X373190Y255115D01*
X373450Y255065D01*
X373750Y255029D01*
X373889Y255020D01*
X374936Y255000D01*
Y253000D01*
X374342Y252998D01*
X374255Y252996D01*
X373868Y252973D01*
X373450Y252935D01*
X373190Y252885D01*
X372970Y252820D01*
X372789Y252741D01*
X372649Y252647D01*
X372550Y252540D01*
X372490Y252417D01*
X372469Y252281D01*
X372190Y252246D01*
X371940Y252141D01*
X371720Y251966D01*
X371529Y251721D01*
X371367Y251406D01*
X371235Y251021D01*
X371132Y250565D01*
X371059Y250040D01*
X371015Y249445D01*
X371007Y249090D01*
X371007Y249055D01*
X371115Y247479D01*
X371180Y247095D01*
X371259Y246779D01*
X371353Y246535D01*
X371460Y246360D01*
X371583Y246255D01*
X371720Y246220D01*
X365750D01*
X366082Y246255D01*
X366380Y246360D01*
X366642Y246535D01*
X366870Y246779D01*
X367062Y247095D01*
X367220Y247479D01*
X367342Y247935D01*
X367430Y248459D01*
X367482Y249055D01*
X367500Y249720D01*
X367508D01*
X367531Y252281D01*
X372469D01*
Y252890D01*
X371446Y252829D01*
X371294Y252783D01*
X371206Y252732D01*
Y255268D01*
X371294Y255217D01*
X371446Y255171D01*
X371660Y255131D01*
X371938Y255096D01*
X372469Y255058D01*
Y255720D01*
X372490Y255583D01*
D02*
G37*
G36*
X682159Y246410D02*
X682220Y246240D01*
X682322Y246090D01*
X682464Y245960D01*
X682647Y245850D01*
X682870Y245760D01*
X683134Y245690D01*
X683439Y245640D01*
X683784Y245610D01*
X684169Y245600D01*
Y243600D01*
X683784Y243590D01*
X683439Y243560D01*
X683134Y243510D01*
X682870Y243440D01*
X682647Y243350D01*
X682464Y243240D01*
X682322Y243110D01*
X682220Y242960D01*
X682159Y242790D01*
X682139Y242600D01*
Y246600D01*
X682159Y246410D01*
D02*
G37*
G36*
X702760Y184836D02*
X702790Y184492D01*
X702840Y184188D01*
X702910Y183925D01*
X703000Y183702D01*
X703110Y183519D01*
X703240Y183376D01*
X703390Y183274D01*
X703560Y183211D01*
X703750Y183189D01*
X700780Y183220D01*
X700775Y183239D01*
X700770Y183300D01*
X700758Y183720D01*
X700750Y185219D01*
X702750D01*
X702760Y184836D01*
D02*
G37*
G36*
X180030Y177470D02*
X179955Y177760D01*
X179729Y178020D01*
X179353Y178250D01*
X178826Y178449D01*
X178148Y178617D01*
X177320Y178755D01*
X176341Y178862D01*
X173931Y178985D01*
X172500Y179000D01*
Y191000D01*
X173931Y191014D01*
X178148Y191342D01*
X178826Y191493D01*
X179353Y191671D01*
X179729Y191877D01*
X179955Y192109D01*
X180030Y192369D01*
Y177470D01*
D02*
G37*
G36*
X249525Y160011D02*
X249100Y159860D01*
X248725Y159608D01*
X248400Y159256D01*
X248125Y158803D01*
X247900Y158250D01*
X247725Y157596D01*
X247600Y156841D01*
X247525Y155986D01*
X247500Y155030D01*
X242500D01*
X242475Y155986D01*
X242400Y156841D01*
X242275Y157596D01*
X242100Y158250D01*
X241875Y158803D01*
X241600Y159256D01*
X241275Y159608D01*
X240900Y159860D01*
X240475Y160011D01*
X240000Y160061D01*
X250000D01*
X249525Y160011D01*
D02*
G37*
G36*
X277380Y148990D02*
X277300Y148870D01*
X277230Y148671D01*
X277169Y148391D01*
X277117Y148031D01*
X277042Y147071D01*
X277000Y145030D01*
X273000D01*
X272985Y145791D01*
X272868Y147071D01*
X272765Y147591D01*
X272633Y148031D01*
X272471Y148391D01*
X272280Y148671D01*
X272059Y148870D01*
X271810Y148990D01*
X271530Y149031D01*
X277470D01*
X277380Y148990D01*
D02*
G37*
G36*
X277020Y142455D02*
X277080Y141771D01*
X277180Y141167D01*
X277320Y140644D01*
X277500Y140201D01*
X277720Y139838D01*
X277980Y139555D01*
X278280Y139353D01*
X278620Y139231D01*
X279000Y139189D01*
X271280Y139220D01*
X271607Y139260D01*
X271900Y139380D01*
X272157Y139579D01*
X272381Y139860D01*
X272570Y140219D01*
X272725Y140660D01*
X272845Y141180D01*
X272931Y141779D01*
X272983Y142459D01*
X273000Y143219D01*
X277000D01*
X277020Y142455D01*
D02*
G37*
G36*
X251515Y142520D02*
X251632Y140920D01*
X251735Y140269D01*
X251867Y139719D01*
X252029Y139270D01*
X252220Y138919D01*
X252440Y138670D01*
X252690Y138519D01*
X252969Y138469D01*
X245030D01*
X245310Y138520D01*
X245560Y138670D01*
X245780Y138919D01*
X245971Y139270D01*
X246133Y139719D01*
X246265Y140269D01*
X246368Y140920D01*
X246441Y141670D01*
X246500Y143469D01*
X251500D01*
X251515Y142520D01*
D02*
G37*
G36*
X253009Y138285D02*
X253130Y138120D01*
X253330Y137975D01*
X253610Y137849D01*
X253969Y137742D01*
X254410Y137655D01*
X254930Y137587D01*
X256210Y137510D01*
X256970Y137500D01*
Y133500D01*
X252969Y133531D01*
Y138469D01*
X253009Y138285D01*
D02*
G37*
G36*
X271280Y131500D02*
X271241Y131880D01*
X271120Y132220D01*
X270921Y132520D01*
X270641Y132780D01*
X270280Y133000D01*
X269841Y133180D01*
X269321Y133320D01*
X268720Y133420D01*
X268041Y133480D01*
X267281Y133500D01*
Y137500D01*
X268041Y137517D01*
X268720Y137569D01*
X269321Y137655D01*
X269841Y137775D01*
X270280Y137930D01*
X270641Y138119D01*
X270921Y138343D01*
X271120Y138601D01*
X271241Y138893D01*
X271280Y139220D01*
Y131500D01*
D02*
G37*
G36*
X223531Y127030D02*
X223496Y127167D01*
X223391Y127290D01*
X223216Y127397D01*
X222971Y127491D01*
X222656Y127570D01*
X222271Y127635D01*
X221815Y127685D01*
X220695Y127743D01*
X220030Y127750D01*
Y131250D01*
X220695Y131257D01*
X222271Y131365D01*
X222656Y131430D01*
X222971Y131509D01*
X223216Y131603D01*
X223391Y131711D01*
X223496Y131833D01*
X223531Y131970D01*
Y127030D01*
D02*
G37*
G36*
X214974Y132668D02*
X215080Y132370D01*
X215257Y132107D01*
X215504Y131880D01*
X215822Y131687D01*
X216210Y131530D01*
X216669Y131407D01*
X217199Y131320D01*
X217799Y131267D01*
X218470Y131250D01*
Y127750D01*
X217799Y127733D01*
X217199Y127680D01*
X216669Y127593D01*
X216210Y127470D01*
X215822Y127312D01*
X215504Y127120D01*
X215257Y126893D01*
X215080Y126630D01*
X214974Y126333D01*
X214939Y126000D01*
Y133000D01*
X214974Y132668D01*
D02*
G37*
G36*
X566616Y113499D02*
X566546Y113685D01*
X566425Y113850D01*
X566254Y113997D01*
X566033Y114124D01*
X565761Y114231D01*
X565439Y114319D01*
X565066Y114387D01*
X564644Y114436D01*
X564170Y114465D01*
X563647Y114475D01*
X563324Y116475D01*
X563816Y116485D01*
X564632Y116563D01*
X564954Y116632D01*
X565220Y116720D01*
X565430Y116828D01*
X565583Y116956D01*
X565679Y117103D01*
X565718Y117270D01*
X565701Y117456D01*
X566616Y113499D01*
D02*
G37*
%LPC*%
G36*
X342908Y296213D02*
X343287Y295937D01*
X343747Y295795D01*
X344277D01*
X344878Y295937D01*
X345504Y296200D01*
X342908Y296213D01*
D02*
G37*
%LPD*%
D12*
X367500Y307500D02*
Y312750D01*
X379500Y221015D02*
X390000Y231515D01*
Y232000D01*
X379500Y214750D02*
Y221015D01*
X346500Y322500D02*
X357750D01*
X344000Y320000D02*
X346500Y322500D01*
X344500Y326500D02*
X357750D01*
X342000Y329000D02*
X344500Y326500D01*
X343735Y335750D02*
X348985Y330500D01*
X357750D01*
X258850Y335750D02*
X343735D01*
X345142Y340000D02*
X350642Y334500D01*
X280000Y340000D02*
X345142D01*
X350642Y334500D02*
X357750D01*
X244600Y350000D02*
X258850Y335750D01*
X270000Y350000D02*
X280000Y340000D01*
X242300Y400000D02*
X264800Y377500D01*
X290429D01*
X310429Y357500D01*
X340000D01*
Y347500D02*
X350000D01*
X723187Y165187D02*
Y226987D01*
X705000Y127000D02*
Y133980D01*
Y111500D02*
Y127000D01*
X723187Y226987D02*
X740800Y244600D01*
X705000Y147000D02*
X723187Y165187D01*
X740800Y244600D02*
X756000D01*
X701750Y161750D02*
X705000Y165000D01*
X701750Y158750D02*
Y161750D01*
X690500Y147500D02*
X701750Y158750D01*
X685000Y147000D02*
X685500Y147500D01*
X690500D01*
X701750Y182250D02*
Y228050D01*
Y182250D02*
X705000Y179000D01*
X685200Y244600D02*
X701750Y228050D01*
X670000Y244600D02*
X685200D01*
X724000Y312200D02*
Y394000D01*
Y312200D02*
X740800Y295400D01*
X756000D01*
X670000D02*
X685200D01*
X705000Y315200D01*
Y361000D01*
X724000Y408520D02*
X783959D01*
X685000D02*
X724000D01*
Y415000D01*
X267500Y442500D02*
X276500Y433500D01*
X371500Y352250D02*
Y356407D01*
X351000Y346500D02*
X357750D01*
X350000Y347500D02*
X351000Y346500D01*
X361407Y366500D02*
X371500Y356407D01*
X292500Y382500D02*
X312500Y362500D01*
X267700Y400000D02*
X285200Y382500D01*
X276500Y423500D02*
X282500Y417500D01*
X312500Y362500D02*
X353250D01*
X285200Y382500D02*
X292500D01*
X314157Y366500D02*
X361407D01*
X340000Y357500D02*
X350000Y347500D01*
X282500Y398157D02*
Y417500D01*
Y398157D02*
X314157Y366500D01*
X361422Y354328D02*
X363500D01*
Y352250D02*
Y354328D01*
X353250Y362500D02*
X361422Y354328D01*
X276500Y423500D02*
Y433500D01*
X568250Y128650D02*
X573000D01*
X568250Y141350D02*
X573000D01*
X424354Y355790D02*
Y379346D01*
X391500Y363463D02*
X439387Y411350D01*
X512656Y398650D02*
X573000D01*
X508106Y403200D02*
X512656Y398650D01*
X436894Y403200D02*
X508106D01*
X397250Y338500D02*
X407064D01*
X424354Y355790D01*
Y379346D02*
X440207Y395200D01*
X420354Y357447D02*
Y381003D01*
X439387Y411350D02*
X573000D01*
X539868Y169732D02*
X568250Y141350D01*
X405407Y342500D02*
X420354Y357447D01*
X397250Y342500D02*
X405407D01*
X391500Y352250D02*
Y363463D01*
X416354Y382660D02*
X436894Y403200D01*
X416354Y359104D02*
Y382660D01*
X539868Y169732D02*
Y365782D01*
X504793Y395200D02*
X535868Y364125D01*
Y161032D02*
Y364125D01*
Y161032D02*
X568250Y128650D01*
X438550Y399200D02*
X506450D01*
X397250Y346500D02*
X403750D01*
X416354Y359104D01*
X420354Y381003D02*
X438550Y399200D01*
X506450D02*
X539868Y365782D01*
X440207Y395200D02*
X504793D01*
X782078Y403980D02*
X787730Y398328D01*
X783959Y408520D02*
X792270Y400209D01*
X656020Y403980D02*
X705000D01*
X782078D01*
X705000Y415000D02*
Y428500D01*
X704500Y429000D02*
X705000Y428500D01*
Y375000D02*
Y395000D01*
X648828Y403980D02*
X650000Y402808D01*
X639286Y403980D02*
X648828D01*
X638036Y402730D02*
X639286Y403980D01*
X634498Y402730D02*
X638036D01*
X787730Y396672D02*
Y398328D01*
X786558Y395500D02*
X787730Y396672D01*
X779000Y395500D02*
X786558D01*
Y385000D02*
X787730Y383828D01*
X768500Y385000D02*
X786558D01*
X768500D02*
X779000Y395500D01*
X705000Y395000D02*
Y403980D01*
X802730Y348172D02*
Y358890D01*
X801558Y347000D02*
X802730Y348172D01*
X787730Y373890D02*
X802730Y358890D01*
X796000Y347000D02*
X801558D01*
X792500Y343500D02*
X796000Y347000D01*
X787730Y373890D02*
Y383828D01*
X654848Y402808D02*
X656020Y403980D01*
X633327Y401309D02*
Y401558D01*
X634498Y402730D01*
X654848Y399348D02*
Y402808D01*
X652500Y397000D02*
X654848Y399348D01*
X650000Y399500D02*
Y402808D01*
X630668Y398650D02*
X633327Y401309D01*
X650000Y399500D02*
X652500Y397000D01*
X627000Y398650D02*
X630668D01*
X801000Y395500D02*
X811500Y385000D01*
X792270Y396672D02*
X793442Y395500D01*
Y385000D02*
X811500D01*
X793442Y395500D02*
X801000D01*
X792270Y396672D02*
Y400209D01*
Y375770D02*
Y383828D01*
X793442Y385000D01*
X807270Y348172D02*
X808442Y347000D01*
X807270Y348172D02*
Y360770D01*
X814000Y347000D02*
X817500Y343500D01*
X808442Y347000D02*
X814000D01*
X792270Y375770D02*
X807270Y360770D01*
X685000Y428500D02*
X685500Y429000D01*
X654848Y409692D02*
Y413152D01*
X652500Y415500D02*
X654848Y413152D01*
X650000Y413000D02*
X652500Y415500D01*
X650000Y409692D02*
Y413000D01*
X630668Y411350D02*
X633327Y408691D01*
X627000Y411350D02*
X630668D01*
X654848Y409692D02*
X656020Y408520D01*
X685000D02*
Y428500D01*
X648828Y408520D02*
X650000Y409692D01*
X656020Y408520D02*
X685000D01*
X637405D02*
X648828D01*
X636155Y407270D02*
X637405Y408520D01*
X633327Y408442D02*
Y408691D01*
X634498Y407270D02*
X636155D01*
X633327Y408442D02*
X634498Y407270D01*
X685000Y138520D02*
X784578D01*
X656020D02*
X685000D01*
Y147000D01*
Y111500D02*
X685500Y111000D01*
X685000Y111500D02*
Y127000D01*
X705000Y133980D02*
X786459D01*
X656020D02*
X705000D01*
X704500Y111000D02*
X705000Y111500D01*
X554862Y424050D02*
X573000D01*
X553312Y422500D02*
X554862Y424050D01*
X552500Y422500D02*
X553312D01*
X554316Y385950D02*
X573000D01*
X553312Y384946D02*
X554316Y385950D01*
X552500Y384946D02*
X553312D01*
X375000Y372500D02*
X375500Y372000D01*
Y352250D02*
Y372000D01*
X572525Y115475D02*
X573000Y115950D01*
X552975Y115475D02*
X572525D01*
X552500Y115000D02*
X552975Y115475D01*
X796000Y193000D02*
X801559D01*
X802731Y191828D01*
Y183770D02*
Y191828D01*
X787730Y168770D02*
X802731Y183770D01*
X792500Y196500D02*
X796000Y193000D01*
X787730Y156172D02*
Y168770D01*
X786558Y155000D02*
X787730Y156172D01*
X768500Y155000D02*
X786558D01*
Y144500D02*
X787730Y143328D01*
Y141672D02*
Y143328D01*
X779000Y144500D02*
X786558D01*
X784578Y138520D02*
X787730Y141672D01*
X768500Y155000D02*
X779000Y144500D01*
X652500Y145500D02*
X654848Y143152D01*
X650000Y143000D02*
X652500Y145500D01*
X654848Y139692D02*
Y143152D01*
X650000Y139692D02*
Y143000D01*
X627000Y141350D02*
X630668D01*
X648828Y138520D02*
X650000Y139692D01*
X654848D02*
X656020Y138520D01*
X636155Y137270D02*
X637405Y138520D01*
X648828D01*
X633327Y138442D02*
Y138691D01*
X630668Y141350D02*
X633327Y138691D01*
X634498Y137270D02*
X636155D01*
X633327Y138442D02*
X634498Y137270D01*
X814001Y193000D02*
X817501Y196500D01*
X808442Y193000D02*
X814001D01*
X807271Y191828D02*
X808442Y193000D01*
X793442Y155000D02*
X811500D01*
X807271Y181890D02*
Y191828D01*
X792270Y156172D02*
Y166889D01*
X807271Y181890D01*
X801000Y144500D02*
X811500Y155000D01*
X792270Y156172D02*
X793442Y155000D01*
Y144500D02*
X801000D01*
X792270Y143328D02*
X793442Y144500D01*
X792270Y139791D02*
Y143328D01*
X786459Y133980D02*
X792270Y139791D01*
X654848Y132808D02*
X656020Y133980D01*
X648828D02*
X650000Y132808D01*
Y129500D02*
Y132808D01*
X639286Y133980D02*
X648828D01*
X638036Y132730D02*
X639286Y133980D01*
X634498Y132730D02*
X638036D01*
X633327Y131309D02*
Y131558D01*
X634498Y132730D01*
X654848Y129348D02*
Y132808D01*
X652500Y127000D02*
X654848Y129348D01*
X630668Y128650D02*
X633327Y131309D01*
X650000Y129500D02*
X652500Y127000D01*
X627000Y128650D02*
X630668D01*
X845000Y255000D02*
Y257100D01*
X825000Y235000D02*
X845000Y255000D01*
X812929Y235000D02*
X825000D01*
X802500Y224571D02*
X812929Y235000D01*
X842050Y228750D02*
X845000Y231700D01*
X813750Y228750D02*
X842050D01*
X807500Y222500D02*
X813750Y228750D01*
X802500Y215000D02*
Y224571D01*
X807500Y215000D02*
Y222500D01*
X809000Y213500D02*
X817501D01*
X807500Y215000D02*
X809000Y213500D01*
X792500D02*
X801000D01*
X802500Y215000D01*
X807500Y317500D02*
X819536Y305464D01*
X842564D02*
X845000Y307900D01*
X819536Y305464D02*
X842564D01*
X826036Y301464D02*
X845000Y282500D01*
X816464Y301464D02*
X826036D01*
X802500Y315429D02*
X816464Y301464D01*
X802500Y315429D02*
Y325000D01*
X807500Y317500D02*
Y325000D01*
X809000Y326500D02*
X817500D01*
X807500Y325000D02*
X809000Y326500D01*
X801000D02*
X802500Y325000D01*
X792500Y326500D02*
X801000D01*
X438500Y330500D02*
X472500Y364500D01*
X464500Y326500D02*
X497900Y359900D01*
X397250Y326500D02*
X464500D01*
X397250Y330500D02*
X438500D01*
X412500Y334500D02*
X442450Y364450D01*
X397250Y334500D02*
X412500D01*
X497900Y359900D02*
Y380000D01*
X472500Y364500D02*
Y380000D01*
X442450Y375350D02*
X447100Y380000D01*
X442450Y364450D02*
Y375350D01*
X375500Y225500D02*
X380000Y230000D01*
X375500Y214750D02*
Y225500D01*
X362750Y276750D02*
X363000Y277000D01*
X362750Y266250D02*
Y276750D01*
X370000Y254000D02*
X375000D01*
X381000Y260000D01*
X362500Y266000D02*
X362750Y266250D01*
X391000Y294172D02*
Y301000D01*
X386000Y306000D02*
X391000Y301000D01*
X380672Y306000D02*
X386000D01*
X387000Y292515D02*
Y299343D01*
X377000Y302000D02*
X384343D01*
X387000Y299343D01*
Y292515D02*
X392257Y287258D01*
X392172Y293000D02*
X414000D01*
X392257Y287258D02*
X396743D01*
X391000Y294172D02*
X392172Y293000D01*
X396743Y287258D02*
X406000Y278000D01*
X413000D01*
X414000Y277000D01*
X379500Y307172D02*
X380672Y306000D01*
X379500Y307172D02*
Y312750D01*
X375500Y303500D02*
X377000Y302000D01*
X375500Y303500D02*
Y312750D01*
X368672Y306328D02*
X370328D01*
X371500Y307500D02*
Y312750D01*
X370328Y306328D02*
X371500Y307500D01*
X367500Y307500D02*
X368672Y306328D01*
X367500Y228000D02*
X367907Y227593D01*
Y222500D02*
Y227593D01*
X371500Y214750D02*
Y218907D01*
X367907Y222500D02*
X371500Y218907D01*
X352000Y202172D02*
X353172Y201000D01*
X357750D01*
X352000Y203828D02*
X353172Y205000D01*
X357750D01*
X331000Y195000D02*
X333000Y197000D01*
X357750D01*
X331000Y184500D02*
Y195000D01*
X346422Y193000D02*
X357750D01*
X345250Y183750D02*
Y191828D01*
X346422Y193000D01*
X330250Y183750D02*
X331000Y184500D01*
D13*
X617564Y120636D02*
X622250Y115950D01*
X627000D01*
X323000Y148000D02*
Y157500D01*
X449000Y202000D02*
Y217000D01*
X464000D01*
X464000Y217000D01*
X428000Y277000D02*
X430000Y275000D01*
X435000D01*
X440000Y257000D02*
Y270000D01*
X435000Y275000D02*
X440000Y270000D01*
Y257000D02*
X444000Y253000D01*
X481000D01*
X480250Y219250D02*
X484657D01*
X487000Y221593D01*
Y247000D01*
X481000Y253000D02*
X487000Y247000D01*
X478000Y217000D02*
X480250Y219250D01*
X477350Y217650D02*
X478000Y217000D01*
X477350Y217650D02*
Y236350D01*
X476700Y237000D02*
X477350Y236350D01*
X464000Y217000D02*
Y237000D01*
X428000Y293000D02*
X451000D01*
X428000Y293000D02*
X428000Y293000D01*
X451150Y273150D02*
X451300Y273000D01*
X451150Y273150D02*
Y292850D01*
X451000Y293000D02*
X451150Y292850D01*
X464000Y273000D02*
X464500Y273500D01*
Y292500D01*
X465000Y293000D01*
X397750Y148250D02*
X400000Y146000D01*
X397750Y148250D02*
Y152250D01*
X394000Y156000D02*
X397750Y152250D01*
X347000Y162000D02*
X349500Y159500D01*
X358392D01*
X361892Y156000D01*
X394000D01*
X337000Y153500D02*
X355907D01*
X359000Y150407D01*
Y116000D02*
Y150407D01*
X339000Y96000D02*
X359000Y116000D01*
X347000Y162000D02*
Y168000D01*
X345250Y169750D02*
X347000Y168000D01*
X380000Y133000D02*
X380500Y132500D01*
X399500D01*
X400000Y132000D01*
X380000Y145700D02*
X380150Y145850D01*
X399850D01*
X400000Y146000D01*
X323000Y134000D02*
X323500Y133500D01*
X343500D02*
X344000Y133000D01*
X323500Y133500D02*
X343500D01*
X330250Y160250D02*
Y169750D01*
Y160250D02*
X337000Y153500D01*
X324000Y98343D02*
Y103000D01*
Y98343D02*
X326343Y96000D01*
X339000D01*
X323000Y104000D02*
X324000Y103000D01*
X333000Y104000D02*
X344000Y115000D01*
Y120300D01*
X323000Y104000D02*
X333000D01*
X323000Y134000D02*
X323000Y134000D01*
Y118000D02*
Y134000D01*
X308000Y134000D02*
X323000D01*
X275000Y135500D02*
X275000Y135500D01*
Y145000D01*
X249000Y136000D02*
X249500Y135500D01*
X275000D01*
X292500Y153500D02*
X293500Y154500D01*
X275000Y145000D02*
Y154000D01*
X292500Y148843D02*
Y153500D01*
X288657Y145000D02*
X292500Y148843D01*
X275000Y145000D02*
X288657D01*
X274500Y154500D02*
X275000Y154000D01*
D36*
X30000Y510000D02*
D03*
X830000D02*
D03*
Y30000D02*
D03*
X30000D02*
D03*
D41*
X790000Y440000D02*
D03*
X840000Y340000D02*
D03*
X790000Y240000D02*
D03*
X840000Y140000D02*
D03*
X790000Y40000D02*
D03*
X690000Y440000D02*
D03*
X740000Y340000D02*
D03*
X690000Y40000D02*
D03*
X590000Y440000D02*
D03*
X640000Y340000D02*
D03*
X590000Y240000D02*
D03*
Y40000D02*
D03*
X540000Y140000D02*
D03*
X490000Y40000D02*
D03*
X390000D02*
D03*
X290000D02*
D03*
X190000Y440000D02*
D03*
Y240000D02*
D03*
Y40000D02*
D03*
X90000Y440000D02*
D03*
X140000Y340000D02*
D03*
Y140000D02*
D03*
X90000Y40000D02*
D03*
X323000Y157500D02*
D03*
X390000Y232000D02*
D03*
X344000Y320000D02*
D03*
X342000Y329000D02*
D03*
X552500Y422500D02*
D03*
X340000Y347500D02*
D03*
X705000Y147000D02*
D03*
Y127000D02*
D03*
X724000Y395000D02*
D03*
Y415000D02*
D03*
X705000D02*
D03*
Y395000D02*
D03*
X685000Y127000D02*
D03*
Y147000D02*
D03*
X552500Y384946D02*
D03*
X375000Y372500D02*
D03*
X552500Y115000D02*
D03*
X380000Y230000D02*
D03*
X363000Y277000D02*
D03*
X381000Y260000D02*
D03*
D42*
X509500Y357500D02*
D03*
X495500D02*
D03*
X615500Y170000D02*
D03*
X629500D02*
D03*
X615500Y440000D02*
D03*
X629500D02*
D03*
X465500Y357500D02*
D03*
X479500D02*
D03*
X435500D02*
D03*
X449500D02*
D03*
X451000Y293000D02*
D03*
X465000D02*
D03*
X289500Y245000D02*
D03*
X275500D02*
D03*
Y200000D02*
D03*
X289500D02*
D03*
X275500Y135000D02*
D03*
X289500D02*
D03*
X449000Y202000D02*
D03*
X435000D02*
D03*
X449000Y217000D02*
D03*
X435000D02*
D03*
X478000Y217000D02*
D03*
X464000D02*
D03*
X414000Y277000D02*
D03*
X428000D02*
D03*
X414000Y293000D02*
D03*
X428000D02*
D03*
X363999Y291999D02*
D03*
X377999D02*
D03*
X379000Y277000D02*
D03*
X393000D02*
D03*
X345750Y260500D02*
D03*
X331750D02*
D03*
X345750Y276250D02*
D03*
X331750D02*
D03*
X345750Y292000D02*
D03*
X331750D02*
D03*
D43*
X652500Y159500D02*
D03*
Y145500D02*
D03*
X705000Y375000D02*
D03*
Y361000D02*
D03*
Y179000D02*
D03*
Y165000D02*
D03*
X652500Y429500D02*
D03*
Y415500D02*
D03*
Y113000D02*
D03*
Y127000D02*
D03*
Y383000D02*
D03*
Y397000D02*
D03*
X290000Y215000D02*
D03*
Y229000D02*
D03*
X310000Y199500D02*
D03*
Y185500D02*
D03*
X275000Y215500D02*
D03*
Y229500D02*
D03*
X308000Y134000D02*
D03*
Y148000D02*
D03*
X336000Y214500D02*
D03*
Y228500D02*
D03*
X321000Y214500D02*
D03*
Y228500D02*
D03*
X306000Y214500D02*
D03*
Y228500D02*
D03*
X323000Y104000D02*
D03*
Y118000D02*
D03*
X323000Y134000D02*
D03*
Y148000D02*
D03*
X400000Y146000D02*
D03*
Y132000D02*
D03*
X330250Y183750D02*
D03*
Y169750D02*
D03*
X345250Y183750D02*
D03*
Y169750D02*
D03*
X367500Y242000D02*
D03*
Y228000D02*
D03*
D44*
X497900Y380000D02*
D03*
X472500D02*
D03*
X447100D02*
D03*
Y466000D02*
D03*
X472500D02*
D03*
X497900D02*
D03*
D45*
X695000Y453000D02*
D03*
X704500Y429000D02*
D03*
X685500D02*
D03*
X695000Y87000D02*
D03*
X685500Y111000D02*
D03*
X704500D02*
D03*
X274500Y154500D02*
D03*
X284000D02*
D03*
X293500D02*
D03*
Y180500D02*
D03*
X274500D02*
D03*
D46*
X817501Y196500D02*
D03*
Y213500D02*
D03*
X792500Y196500D02*
D03*
Y213500D02*
D03*
X817500Y326500D02*
D03*
Y343500D02*
D03*
X792500Y326500D02*
D03*
Y343500D02*
D03*
D47*
X811500Y385000D02*
D03*
X768500D02*
D03*
Y155000D02*
D03*
X811500D02*
D03*
D48*
X573000Y154050D02*
D03*
Y141350D02*
D03*
Y128650D02*
D03*
Y115950D02*
D03*
X627000D02*
D03*
Y128650D02*
D03*
Y141350D02*
D03*
Y154050D02*
D03*
X573000Y424050D02*
D03*
Y411350D02*
D03*
Y398650D02*
D03*
Y385950D02*
D03*
X627000D02*
D03*
Y398650D02*
D03*
Y411350D02*
D03*
Y424050D02*
D03*
D49*
X197500Y183500D02*
D03*
Y131500D02*
D03*
D50*
X242500Y215500D02*
D03*
Y172500D02*
D03*
D51*
X249000Y136000D02*
D03*
X227500Y129500D02*
D03*
Y142500D02*
D03*
D52*
X476700Y273000D02*
D03*
X464000D02*
D03*
X451300D02*
D03*
X476700Y237000D02*
D03*
X464000D02*
D03*
X451300D02*
D03*
D53*
X377500Y332500D02*
D03*
D54*
X357750Y318500D02*
D03*
Y322500D02*
D03*
Y326500D02*
D03*
Y330500D02*
D03*
Y334500D02*
D03*
Y338500D02*
D03*
Y342500D02*
D03*
Y346500D02*
D03*
X397250D02*
D03*
Y342500D02*
D03*
Y338500D02*
D03*
Y334500D02*
D03*
Y330500D02*
D03*
Y326500D02*
D03*
Y322500D02*
D03*
Y318500D02*
D03*
X357750Y209000D02*
D03*
Y205000D02*
D03*
Y201000D02*
D03*
Y197000D02*
D03*
Y193000D02*
D03*
Y189000D02*
D03*
Y185000D02*
D03*
Y181000D02*
D03*
X397250D02*
D03*
Y185000D02*
D03*
Y189000D02*
D03*
Y193000D02*
D03*
Y197000D02*
D03*
Y201000D02*
D03*
Y205000D02*
D03*
Y209000D02*
D03*
D55*
X363500Y352250D02*
D03*
X367500D02*
D03*
X371500D02*
D03*
X375500D02*
D03*
X379500D02*
D03*
X383500D02*
D03*
X387500D02*
D03*
X391500D02*
D03*
Y312750D02*
D03*
X387500D02*
D03*
X383500D02*
D03*
X379500D02*
D03*
X375500D02*
D03*
X371500D02*
D03*
X367500D02*
D03*
X363500D02*
D03*
Y175250D02*
D03*
X367500D02*
D03*
X371500D02*
D03*
X375500D02*
D03*
X379500D02*
D03*
X383500D02*
D03*
X387500D02*
D03*
X391500D02*
D03*
Y214750D02*
D03*
X387500D02*
D03*
X383500D02*
D03*
X379500D02*
D03*
X375500D02*
D03*
X371500D02*
D03*
X367500D02*
D03*
X363500D02*
D03*
D56*
X362500Y266000D02*
D03*
Y254000D02*
D03*
X370000D02*
D03*
Y266000D02*
D03*
D57*
X380000Y120300D02*
D03*
Y133000D02*
D03*
Y145700D02*
D03*
X344000Y120300D02*
D03*
Y133000D02*
D03*
Y145700D02*
D03*
D58*
X377500Y195000D02*
D03*
D59*
X670000Y295400D02*
D03*
Y270000D02*
D03*
Y244600D02*
D03*
X756000D02*
D03*
Y270000D02*
D03*
Y295400D02*
D03*
D60*
X308000Y148000D02*
Y159750D01*
X321000Y172750D02*
Y214500D01*
X308000Y159750D02*
X321000Y172750D01*
X297500Y200000D02*
X310000D01*
X218000Y339000D02*
Y456000D01*
Y339000D02*
X228000Y329000D01*
X218000Y456000D02*
X228000Y466000D01*
X447100D01*
X228000Y329000D02*
X315000D01*
X344000Y300000D01*
Y293750D02*
Y300000D01*
Y293750D02*
X345750Y292000D01*
X289500Y245000D02*
X289750Y244750D01*
Y229250D02*
Y244750D01*
Y229250D02*
X290000Y229000D01*
X435000Y150000D02*
X486679Y98321D01*
X629272D01*
X435000Y150000D02*
Y202000D01*
X472500Y466000D02*
Y484500D01*
X472000Y485000D02*
X472500Y484500D01*
X497900Y466000D02*
Y484900D01*
X498000Y485000D01*
X627000Y154050D02*
Y167500D01*
X629500Y170000D01*
X601000Y347000D02*
X628250D01*
X652500Y371250D01*
X601000Y273625D02*
Y347000D01*
X611750Y154050D02*
X627000D01*
X652500Y101250D02*
Y113000D01*
X649571Y98321D02*
X652500Y101250D01*
X629272Y98321D02*
X649571D01*
X652500Y371250D02*
Y383000D01*
X601000Y347000D02*
Y413300D01*
X608821Y118772D02*
Y151121D01*
X596250Y485000D02*
X629500Y451750D01*
X498000Y485000D02*
X596250D01*
X611750Y424050D02*
X627788D01*
X628250Y424512D01*
X629500Y170000D02*
Y245125D01*
X608821Y151121D02*
X611750Y154050D01*
X447100Y466000D02*
Y472550D01*
X459550Y485000D01*
X629500Y440000D02*
Y451750D01*
X628250Y438750D02*
X629500Y440000D01*
X628250Y424512D02*
Y438750D01*
X601000Y413300D02*
X611750Y424050D01*
X601000Y273625D02*
X629500Y245125D01*
X608821Y118772D02*
X629272Y98321D01*
X459550Y485000D02*
X472000D01*
X498000D01*
X242100Y442500D02*
X242200Y442400D01*
Y400100D02*
Y442400D01*
Y400100D02*
X242300Y400000D01*
X363999Y292000D02*
X363999Y291999D01*
X345750Y292000D02*
X363999D01*
X345750Y292000D02*
X345750Y292000D01*
X367093Y304750D02*
X368672Y306328D01*
X358500Y304750D02*
X367093D01*
X345750Y292000D02*
X358500Y304750D01*
X345750Y276250D02*
Y292000D01*
Y260500D02*
Y276250D01*
X345000Y259750D02*
X345750Y260500D01*
X345000Y245000D02*
Y259750D01*
X350000Y203000D02*
Y206472D01*
X349750Y206722D02*
X350000Y206472D01*
X349750Y206722D02*
Y240250D01*
X345000Y245000D02*
X349750Y240250D01*
X339000Y203000D02*
X350000D01*
X274500Y180500D02*
X275000Y181000D01*
Y199500D02*
X275500Y200000D01*
X275000Y181000D02*
Y199500D01*
X275250Y200250D02*
Y215250D01*
Y200250D02*
X275500Y200000D01*
X336000Y206000D02*
X339000Y203000D01*
X336000Y206000D02*
Y214500D01*
X275250Y215250D02*
X289750D01*
X275000Y215500D02*
X275250Y215250D01*
X289750D02*
X290000Y215000D01*
X290250Y214750D01*
X305750D02*
X306000Y214500D01*
X290250Y214750D02*
X305750D01*
X306000Y214500D02*
X321000D01*
X336000D01*
X294000Y189000D02*
X297500Y192500D01*
Y200000D01*
X289500Y200000D02*
X297500D01*
X297500Y200000D02*
X297500Y200000D01*
X293500Y180500D02*
X294000Y181000D01*
Y189000D01*
X242500Y172500D02*
X245000Y170000D01*
Y155000D02*
Y170000D01*
X249000Y136000D02*
Y151000D01*
X245000Y155000D02*
X249000Y151000D01*
D61*
X369250Y243750D02*
Y254000D01*
X370000D01*
X367500Y242000D02*
X369250Y243750D01*
X378500Y284500D02*
Y291499D01*
Y277500D02*
Y284500D01*
X370000Y282000D02*
X372500Y284500D01*
X378500D01*
X370000Y266000D02*
Y282000D01*
X378500Y277500D02*
X379000Y277000D01*
X377999Y291999D02*
X378500Y291499D01*
X199500Y129500D02*
X227500D01*
X197500Y131500D02*
X199500Y129500D01*
D62*
X196000Y185000D02*
X197500Y183500D01*
X172500Y185000D02*
X196000D01*
X82500Y187500D02*
X170000D01*
X172500Y185000D01*
D63*
X82500Y237500D02*
D03*
Y187500D02*
D03*
D64*
X242100Y442500D02*
D03*
X845000Y231700D02*
D03*
Y282500D02*
D03*
Y257100D02*
D03*
X242300Y400000D02*
D03*
X270000Y350000D02*
D03*
D65*
X267500Y442500D02*
D03*
X267700Y400000D02*
D03*
X244600Y350000D02*
D03*
D66*
X845000Y307900D02*
D03*
D67*
X377500Y184000D02*
D03*
X366500Y206000D02*
D03*
X388500Y321500D02*
D03*
Y343500D02*
D03*
Y206000D02*
D03*
X377500Y195000D02*
D03*
Y332500D02*
D03*
X366500Y184000D02*
D03*
Y343500D02*
D03*
Y321500D02*
D03*
X388500Y184000D02*
D03*
Y332500D02*
D03*
X377500Y343500D02*
D03*
Y206000D02*
D03*
X366500Y195000D02*
D03*
X377500Y321500D02*
D03*
X366500Y332500D02*
D03*
X388500Y195000D02*
D03*
M02*
