G04*
G04 #@! TF.GenerationSoftware,Altium Limited,Altium Designer,20.1.8 (145)*
G04*
G04 Layer_Physical_Order=2*
G04 Layer_Color=16711680*
%FSLAX44Y44*%
%MOMM*%
G71*
G04*
G04 #@! TF.SameCoordinates,AACEBB51-4B8A-4FFF-B30A-F4DB7F9A4190*
G04*
G04*
G04 #@! TF.FilePolarity,Positive*
G04*
G01*
G75*
%ADD12C,0.2000*%
%ADD36C,1.7000*%
%ADD41C,0.6000*%
%ADD63C,1.6000*%
%ADD64C,2.0000*%
%ADD65R,2.0000X2.0000*%
%ADD66R,2.0000X2.0000*%
%ADD67C,0.5000*%
G36*
X856941Y319900D02*
X833000D01*
Y295900D01*
X856941D01*
Y288348D01*
X855671Y288095D01*
X855482Y288552D01*
X853559Y291059D01*
X851052Y292982D01*
X848133Y294191D01*
X845000Y294604D01*
X841867Y294191D01*
X838948Y292982D01*
X836441Y291059D01*
X834518Y288552D01*
X833309Y285633D01*
X832896Y282500D01*
X833309Y279367D01*
X834518Y276448D01*
X836441Y273941D01*
X838948Y272018D01*
X841867Y270809D01*
X844666Y270441D01*
Y269160D01*
X841867Y268791D01*
X838948Y267582D01*
X836441Y265658D01*
X834518Y263152D01*
X833309Y260233D01*
X832896Y257100D01*
X833309Y253967D01*
X834518Y251048D01*
X836441Y248542D01*
X838948Y246618D01*
X841867Y245409D01*
X844666Y245040D01*
Y243759D01*
X841867Y243391D01*
X838948Y242182D01*
X836441Y240259D01*
X834518Y237752D01*
X833309Y234833D01*
X832896Y231700D01*
X833309Y228567D01*
X834518Y225648D01*
X836441Y223141D01*
X838948Y221218D01*
X841867Y220009D01*
X845000Y219596D01*
X848133Y220009D01*
X851052Y221218D01*
X853559Y223141D01*
X855482Y225648D01*
X855671Y226105D01*
X856941Y225852D01*
Y3059D01*
X3059D01*
Y536941D01*
X856941D01*
Y319900D01*
D02*
G37*
%LPC*%
G36*
X830000Y532609D02*
X825589Y532174D01*
X821348Y530888D01*
X817439Y528799D01*
X814013Y525987D01*
X811201Y522561D01*
X809112Y518652D01*
X807826Y514411D01*
X807391Y510000D01*
X807826Y505589D01*
X809112Y501348D01*
X811201Y497439D01*
X814013Y494013D01*
X817439Y491201D01*
X821348Y489112D01*
X825589Y487826D01*
X830000Y487391D01*
X834411Y487826D01*
X838652Y489112D01*
X842561Y491201D01*
X845987Y494013D01*
X848799Y497439D01*
X850888Y501348D01*
X852174Y505589D01*
X852609Y510000D01*
X852174Y514411D01*
X850888Y518652D01*
X848799Y522561D01*
X845987Y525987D01*
X842561Y528799D01*
X838652Y530888D01*
X834411Y532174D01*
X830000Y532609D01*
D02*
G37*
G36*
X30000D02*
X25589Y532174D01*
X21348Y530888D01*
X17439Y528799D01*
X14013Y525987D01*
X11201Y522561D01*
X9112Y518652D01*
X7826Y514411D01*
X7391Y510000D01*
X7826Y505589D01*
X9112Y501348D01*
X11201Y497439D01*
X14013Y494013D01*
X17439Y491201D01*
X21348Y489112D01*
X25589Y487826D01*
X30000Y487391D01*
X34411Y487826D01*
X38652Y489112D01*
X42561Y491201D01*
X45987Y494013D01*
X48799Y497439D01*
X50888Y501348D01*
X52174Y505589D01*
X52609Y510000D01*
X52174Y514411D01*
X50888Y518652D01*
X48799Y522561D01*
X45987Y525987D01*
X42561Y528799D01*
X38652Y530888D01*
X34411Y532174D01*
X30000Y532609D01*
D02*
G37*
G36*
X282000Y458559D02*
X282000Y458559D01*
X255100D01*
X253930Y458326D01*
X252937Y457663D01*
X251143Y455869D01*
X251028Y455774D01*
X250682Y455574D01*
X250164Y455357D01*
X249480Y455147D01*
X248635Y454958D01*
X247679Y454805D01*
X243746Y454543D01*
X242584Y454540D01*
X242100Y454604D01*
X238967Y454191D01*
X236048Y452982D01*
X233542Y451059D01*
X231618Y448552D01*
X230409Y445633D01*
X229996Y442500D01*
X230409Y439367D01*
X231618Y436448D01*
X233542Y433941D01*
X236048Y432018D01*
X238967Y430809D01*
X242100Y430396D01*
X245233Y430809D01*
X248152Y432018D01*
X250658Y433941D01*
X252582Y436448D01*
X253791Y439367D01*
X254204Y442500D01*
X254140Y442984D01*
X254143Y444181D01*
X254163Y444804D01*
X254230Y444877D01*
X255500Y444384D01*
Y430500D01*
X276204D01*
X276500Y430441D01*
X276500Y430441D01*
X285233D01*
X295337Y420337D01*
X295337Y420337D01*
X296329Y419674D01*
X297500Y419441D01*
X513679D01*
X547530Y385590D01*
X547402Y384946D01*
X547790Y382995D01*
X548895Y381341D01*
X550549Y380236D01*
X552500Y379848D01*
X554451Y380236D01*
X556105Y381341D01*
X557210Y382995D01*
X557598Y384946D01*
X557210Y386897D01*
X556105Y388551D01*
X554451Y389656D01*
X552500Y390044D01*
X551856Y389916D01*
X517109Y424663D01*
X516116Y425326D01*
X514946Y425559D01*
X514946Y425559D01*
X298767D01*
X288663Y435663D01*
X287670Y436326D01*
X286500Y436559D01*
X286500Y436559D01*
X279500D01*
Y452352D01*
X280770Y452404D01*
X300337Y432837D01*
X301329Y432174D01*
X302500Y431941D01*
X302500Y431941D01*
X521233D01*
X532837Y420337D01*
X532837Y420337D01*
X533829Y419674D01*
X535000Y419441D01*
X548530D01*
X548895Y418895D01*
X550549Y417790D01*
X552500Y417402D01*
X554451Y417790D01*
X556105Y418895D01*
X557210Y420549D01*
X557598Y422500D01*
X557210Y424451D01*
X556105Y426105D01*
X554451Y427210D01*
X552500Y427598D01*
X550549Y427210D01*
X548895Y426105D01*
X548530Y425559D01*
X536267D01*
X524663Y437163D01*
X523671Y437826D01*
X522500Y438059D01*
X522500Y438059D01*
X303767D01*
X284163Y457663D01*
X283171Y458326D01*
X282000Y458559D01*
D02*
G37*
G36*
X724000Y420098D02*
X722049Y419710D01*
X720395Y418605D01*
X719290Y416951D01*
X718902Y415000D01*
X719290Y413049D01*
X720395Y411395D01*
X720941Y411030D01*
Y398970D01*
X720395Y398605D01*
X719290Y396951D01*
X718902Y395000D01*
X719290Y393049D01*
X720395Y391395D01*
X722049Y390290D01*
X724000Y389902D01*
X725951Y390290D01*
X727605Y391395D01*
X728710Y393049D01*
X729098Y395000D01*
X728710Y396951D01*
X727605Y398605D01*
X727059Y398970D01*
Y411030D01*
X727605Y411395D01*
X728710Y413049D01*
X729098Y415000D01*
X728710Y416951D01*
X727605Y418605D01*
X725951Y419710D01*
X724000Y420098D01*
D02*
G37*
G36*
X705000D02*
X703049Y419710D01*
X701395Y418605D01*
X700290Y416951D01*
X699902Y415000D01*
X700290Y413049D01*
X701395Y411395D01*
X701941Y411030D01*
Y398970D01*
X701395Y398605D01*
X700290Y396951D01*
X699902Y395000D01*
X700290Y393049D01*
X701395Y391395D01*
X703049Y390290D01*
X705000Y389902D01*
X706951Y390290D01*
X708605Y391395D01*
X709710Y393049D01*
X710098Y395000D01*
X709710Y396951D01*
X708605Y398605D01*
X708059Y398970D01*
Y411030D01*
X708605Y411395D01*
X709710Y413049D01*
X710098Y415000D01*
X709710Y416951D01*
X708605Y418605D01*
X706951Y419710D01*
X705000Y420098D01*
D02*
G37*
G36*
X242300Y412104D02*
X239167Y411691D01*
X236248Y410482D01*
X233741Y408559D01*
X231818Y406052D01*
X230609Y403133D01*
X230196Y400000D01*
X230609Y396867D01*
X231818Y393948D01*
X233741Y391441D01*
X236248Y389518D01*
X239167Y388309D01*
X242300Y387896D01*
X245433Y388309D01*
X248352Y389518D01*
X250858Y391441D01*
X252782Y393948D01*
X253991Y396867D01*
X254404Y400000D01*
X253991Y403133D01*
X252782Y406052D01*
X250858Y408559D01*
X248352Y410482D01*
X245433Y411691D01*
X242300Y412104D01*
D02*
G37*
G36*
X375000Y377598D02*
X373049Y377210D01*
X371395Y376105D01*
X371030Y375559D01*
X355000D01*
X353829Y375326D01*
X352837Y374663D01*
X352837Y374663D01*
X337837Y359663D01*
X337174Y358671D01*
X336941Y357500D01*
X336941Y357500D01*
Y351470D01*
X336395Y351105D01*
X335290Y349451D01*
X334902Y347500D01*
X335290Y345549D01*
X336395Y343895D01*
X338049Y342790D01*
X340000Y342402D01*
X341951Y342790D01*
X343605Y343895D01*
X344710Y345549D01*
X345098Y347500D01*
X344710Y349451D01*
X343605Y351105D01*
X343059Y351470D01*
Y356233D01*
X356267Y369441D01*
X371030D01*
X371395Y368895D01*
X373049Y367790D01*
X375000Y367402D01*
X376951Y367790D01*
X378605Y368895D01*
X379710Y370549D01*
X380098Y372500D01*
X379710Y374451D01*
X378605Y376105D01*
X376951Y377210D01*
X375000Y377598D01*
D02*
G37*
G36*
X275385Y366059D02*
X275385Y366059D01*
X264615D01*
X263445Y365826D01*
X262452Y365163D01*
X262452Y365163D01*
X259348Y362059D01*
X253600D01*
X253600Y362059D01*
X253304Y362000D01*
X232600D01*
Y338000D01*
X256600D01*
Y355941D01*
X258329D01*
X259035Y354885D01*
X258309Y353133D01*
X257896Y350000D01*
X258309Y346867D01*
X259518Y343948D01*
X261441Y341441D01*
X261829Y341144D01*
X262673Y340295D01*
X263635Y339270D01*
X265232Y337370D01*
X265812Y336570D01*
X266276Y335839D01*
X266611Y335206D01*
X266823Y334688D01*
X266927Y334301D01*
X266941Y334152D01*
Y292500D01*
X266941Y292500D01*
X267174Y291329D01*
X267837Y290337D01*
X322837Y235337D01*
X322837Y235337D01*
X323829Y234674D01*
X325000Y234441D01*
X375247D01*
X375376Y234394D01*
X375466Y234347D01*
X375567Y234277D01*
X375674Y234176D01*
X375776Y234039D01*
X375899Y233784D01*
X376063Y233171D01*
X376037Y233129D01*
X375892Y232918D01*
X375812Y232733D01*
X375290Y231951D01*
X374902Y230000D01*
X375290Y228049D01*
X376395Y226395D01*
X378049Y225290D01*
X380000Y224902D01*
X381951Y225290D01*
X383605Y226395D01*
X384710Y228049D01*
X384799Y228498D01*
X386147Y228766D01*
X386395Y228395D01*
X388049Y227290D01*
X390000Y226902D01*
X391951Y227290D01*
X393605Y228395D01*
X394710Y230049D01*
X395098Y232000D01*
X394710Y233951D01*
X393605Y235605D01*
X391951Y236710D01*
X390000Y237098D01*
X389356Y236970D01*
X381663Y244663D01*
X380671Y245326D01*
X379500Y245559D01*
X379500Y245559D01*
X331267D01*
X283059Y293767D01*
Y338733D01*
X285163Y340837D01*
X285163Y340837D01*
X285826Y341829D01*
X286059Y343000D01*
X286059Y343000D01*
Y355385D01*
X285826Y356555D01*
X285163Y357548D01*
X285163Y357548D01*
X277548Y365163D01*
X276555Y365826D01*
X275385Y366059D01*
D02*
G37*
G36*
X342000Y334098D02*
X340049Y333710D01*
X338395Y332605D01*
X337290Y330951D01*
X337201Y330502D01*
X336500Y329559D01*
X335330Y329326D01*
X334337Y328663D01*
X334337Y328663D01*
X332837Y327163D01*
X332174Y326171D01*
X331941Y325000D01*
X331941Y325000D01*
Y319000D01*
X331941Y319000D01*
X332174Y317829D01*
X332837Y316837D01*
X352941Y296733D01*
Y262000D01*
X352941Y262000D01*
X353174Y260830D01*
X353837Y259837D01*
X355837Y257837D01*
X355837Y257837D01*
X356829Y257174D01*
X358000Y256941D01*
X358000Y256941D01*
X377030D01*
X377395Y256395D01*
X379049Y255290D01*
X381000Y254902D01*
X382951Y255290D01*
X384605Y256395D01*
X385710Y258049D01*
X386098Y260000D01*
X385710Y261951D01*
X384605Y263605D01*
X382951Y264710D01*
X381000Y265098D01*
X379049Y264710D01*
X377395Y263605D01*
X377030Y263059D01*
X359267D01*
X359059Y263267D01*
Y272093D01*
X360329Y272771D01*
X361049Y272290D01*
X363000Y271902D01*
X364951Y272290D01*
X366605Y273395D01*
X367710Y275049D01*
X368098Y277000D01*
X367710Y278951D01*
X366605Y280605D01*
X366059Y280970D01*
Y298000D01*
X366059Y298000D01*
X365826Y299170D01*
X365163Y300163D01*
X348136Y317190D01*
X348710Y318049D01*
X349098Y320000D01*
X348710Y321951D01*
X347605Y323605D01*
X346371Y324429D01*
X345961Y324946D01*
X346005Y325994D01*
X346710Y327049D01*
X347098Y329000D01*
X346710Y330951D01*
X345605Y332605D01*
X343951Y333710D01*
X342000Y334098D01*
D02*
G37*
G36*
X84250Y248869D02*
Y239250D01*
X93869D01*
X93704Y240502D01*
X92545Y243300D01*
X90702Y245702D01*
X88300Y247545D01*
X85502Y248704D01*
X84250Y248869D01*
D02*
G37*
G36*
X80750D02*
X79498Y248704D01*
X76700Y247545D01*
X74298Y245702D01*
X72455Y243300D01*
X71296Y240502D01*
X71131Y239250D01*
X80750D01*
Y248869D01*
D02*
G37*
G36*
X93869Y235750D02*
X84250D01*
Y226131D01*
X85502Y226296D01*
X88300Y227455D01*
X90702Y229298D01*
X92545Y231700D01*
X93704Y234498D01*
X93869Y235750D01*
D02*
G37*
G36*
X80750D02*
X71131D01*
X71296Y234498D01*
X72455Y231700D01*
X74298Y229298D01*
X76700Y227455D01*
X79498Y226296D01*
X80750Y226131D01*
Y235750D01*
D02*
G37*
G36*
X82500Y197586D02*
X79889Y197243D01*
X77457Y196235D01*
X75368Y194632D01*
X73765Y192543D01*
X72757Y190110D01*
X72414Y187500D01*
X72757Y184890D01*
X73765Y182457D01*
X75368Y180368D01*
X77457Y178765D01*
X79889Y177757D01*
X82500Y177414D01*
X85111Y177757D01*
X87543Y178765D01*
X89632Y180368D01*
X91235Y182457D01*
X92243Y184890D01*
X92586Y187500D01*
X92243Y190110D01*
X91235Y192543D01*
X89632Y194632D01*
X87543Y196235D01*
X85111Y197243D01*
X82500Y197586D01*
D02*
G37*
G36*
X705000Y152098D02*
X703049Y151710D01*
X701395Y150605D01*
X700290Y148951D01*
X699902Y147000D01*
X700290Y145049D01*
X701395Y143395D01*
X701941Y143030D01*
Y130970D01*
X701395Y130605D01*
X700290Y128951D01*
X699902Y127000D01*
X700290Y125049D01*
X701395Y123395D01*
X703049Y122290D01*
X705000Y121902D01*
X706951Y122290D01*
X708605Y123395D01*
X709710Y125049D01*
X710098Y127000D01*
X709710Y128951D01*
X708605Y130605D01*
X708059Y130970D01*
Y143030D01*
X708605Y143395D01*
X709710Y145049D01*
X710098Y147000D01*
X709710Y148951D01*
X708605Y150605D01*
X706951Y151710D01*
X705000Y152098D01*
D02*
G37*
G36*
X685000D02*
X683049Y151710D01*
X681395Y150605D01*
X680290Y148951D01*
X679902Y147000D01*
X680290Y145049D01*
X681395Y143395D01*
X681941Y143030D01*
Y130970D01*
X681395Y130605D01*
X680290Y128951D01*
X679902Y127000D01*
X680290Y125049D01*
X681395Y123395D01*
X683049Y122290D01*
X685000Y121902D01*
X686951Y122290D01*
X688605Y123395D01*
X689710Y125049D01*
X690098Y127000D01*
X689710Y128951D01*
X688605Y130605D01*
X688059Y130970D01*
Y143030D01*
X688605Y143395D01*
X689710Y145049D01*
X690098Y147000D01*
X689710Y148951D01*
X688605Y150605D01*
X686951Y151710D01*
X685000Y152098D01*
D02*
G37*
G36*
X279700Y412000D02*
X255700D01*
Y388000D01*
X279700D01*
Y396941D01*
X361233D01*
X506941Y251233D01*
Y131172D01*
X506941Y131172D01*
X507174Y130001D01*
X507837Y129009D01*
X515636Y121210D01*
X515636Y121210D01*
X516628Y120547D01*
X517799Y120314D01*
X542860D01*
X547530Y115644D01*
X547402Y115000D01*
X547790Y113049D01*
X548895Y111395D01*
X550549Y110290D01*
X552500Y109902D01*
X554451Y110290D01*
X556105Y111395D01*
X557210Y113049D01*
X557598Y115000D01*
X557210Y116951D01*
X556105Y118605D01*
X554451Y119710D01*
X552500Y120098D01*
X551856Y119970D01*
X546290Y125536D01*
X545298Y126199D01*
X544127Y126432D01*
X544127Y126432D01*
X519066D01*
X513059Y132439D01*
Y252500D01*
X513059Y252500D01*
X512826Y253671D01*
X512163Y254663D01*
X512163Y254663D01*
X364663Y402163D01*
X363671Y402826D01*
X362500Y403059D01*
X362500Y403059D01*
X279700D01*
Y412000D01*
D02*
G37*
G36*
X830000Y52609D02*
X825589Y52174D01*
X821348Y50888D01*
X817439Y48799D01*
X814013Y45987D01*
X811201Y42561D01*
X809112Y38652D01*
X807826Y34411D01*
X807391Y30000D01*
X807826Y25589D01*
X809112Y21348D01*
X811201Y17439D01*
X814013Y14013D01*
X817439Y11201D01*
X821348Y9112D01*
X825589Y7826D01*
X830000Y7391D01*
X834411Y7826D01*
X838652Y9112D01*
X842561Y11201D01*
X845987Y14013D01*
X848799Y17439D01*
X850888Y21348D01*
X852174Y25589D01*
X852609Y30000D01*
X852174Y34411D01*
X850888Y38652D01*
X848799Y42561D01*
X845987Y45987D01*
X842561Y48799D01*
X838652Y50888D01*
X834411Y52174D01*
X830000Y52609D01*
D02*
G37*
G36*
X30000D02*
X25589Y52174D01*
X21348Y50888D01*
X17439Y48799D01*
X14013Y45987D01*
X11201Y42561D01*
X9112Y38652D01*
X7826Y34411D01*
X7391Y30000D01*
X7826Y25589D01*
X9112Y21348D01*
X11201Y17439D01*
X14013Y14013D01*
X17439Y11201D01*
X21348Y9112D01*
X25589Y7826D01*
X30000Y7391D01*
X34411Y7826D01*
X38652Y9112D01*
X42561Y11201D01*
X45987Y14013D01*
X48799Y17439D01*
X50888Y21348D01*
X52174Y25589D01*
X52609Y30000D01*
X52174Y34411D01*
X50888Y38652D01*
X48799Y42561D01*
X45987Y45987D01*
X42561Y48799D01*
X38652Y50888D01*
X34411Y52174D01*
X30000Y52609D01*
D02*
G37*
%LPD*%
G36*
X254085Y453071D02*
X253693Y452594D01*
X253344Y451990D01*
X253037Y451259D01*
X252774Y450402D01*
X252554Y449418D01*
X252377Y448308D01*
X252152Y445707D01*
X252104Y444217D01*
X252099Y442600D01*
X242200Y452500D01*
X243817Y452504D01*
X247908Y452777D01*
X249018Y452954D01*
X250002Y453174D01*
X250859Y453437D01*
X251590Y453744D01*
X252194Y454093D01*
X252671Y454485D01*
X254085Y453071D01*
D02*
G37*
G36*
X277461Y435310D02*
X277523Y435140D01*
X277626Y434990D01*
X277769Y434860D01*
X277952Y434750D01*
X278175Y434660D01*
X278438Y434590D01*
X278742Y434540D01*
X279086Y434510D01*
X279470Y434500D01*
Y432500D01*
X277470Y432531D01*
X277439Y435500D01*
X277461Y435310D01*
D02*
G37*
G36*
X256569Y358000D02*
X256186Y357990D01*
X255842Y357960D01*
X255538Y357910D01*
X255275Y357840D01*
X255052Y357750D01*
X254869Y357640D01*
X254726Y357510D01*
X254624Y357360D01*
X254561Y357190D01*
X254539Y357000D01*
X254569Y359969D01*
X256569Y360000D01*
Y358000D01*
D02*
G37*
G36*
X275860Y341712D02*
X273160Y338626D01*
X272500Y337716D01*
X271960Y336865D01*
X271540Y336072D01*
X271240Y335339D01*
X271060Y334665D01*
X271000Y334050D01*
X269000D01*
X268940Y334665D01*
X268760Y335339D01*
X268460Y336072D01*
X268040Y336865D01*
X267500Y337716D01*
X266840Y338626D01*
X265160Y340624D01*
X264140Y341712D01*
X263000Y342859D01*
X277000D01*
X275860Y341712D01*
D02*
G37*
G36*
X276941Y338046D02*
Y292500D01*
X276941Y292500D01*
X275898Y291236D01*
X275629Y291196D01*
X273059Y293767D01*
Y334152D01*
X273073Y334301D01*
X273177Y334687D01*
X273389Y335206D01*
X273725Y335840D01*
X274188Y336570D01*
X274756Y337354D01*
X275752Y338492D01*
X276941Y338046D01*
D02*
G37*
G36*
X380512Y234474D02*
X380549Y234202D01*
X380609Y233942D01*
X380694Y233694D01*
X380803Y233459D01*
X380937Y233235D01*
X381095Y233024D01*
X381277Y232824D01*
X381483Y232637D01*
X381714Y232463D01*
X377572Y231763D01*
X377749Y232019D01*
X377906Y232277D01*
X378045Y232536D01*
X378166Y232798D01*
X378268Y233060D01*
X378352Y233325D01*
X378416Y233591D01*
X378463Y233858D01*
X378491Y234127D01*
X378500Y234398D01*
X380500Y234758D01*
X380512Y234474D01*
D02*
G37*
G36*
X345963Y317701D02*
X345864Y317537D01*
X345804Y317367D01*
X345782Y317188D01*
X345797Y317003D01*
X345851Y316810D01*
X345943Y316610D01*
X346073Y316403D01*
X346241Y316189D01*
X346447Y315967D01*
X344566Y315020D01*
X342226Y317581D01*
X346100Y317858D01*
X345963Y317701D01*
D02*
G37*
G36*
X277659Y401810D02*
X277720Y401640D01*
X277822Y401490D01*
X277964Y401360D01*
X278147Y401250D01*
X278370Y401160D01*
X278634Y401090D01*
X278939Y401040D01*
X279284Y401010D01*
X279669Y401000D01*
Y399000D01*
X279284Y398990D01*
X278939Y398960D01*
X278634Y398910D01*
X278370Y398840D01*
X278147Y398750D01*
X277964Y398640D01*
X277822Y398510D01*
X277720Y398360D01*
X277659Y398190D01*
X277639Y398000D01*
Y402000D01*
X277659Y401810D01*
D02*
G37*
D12*
X330000Y242500D02*
X379500D01*
X390000Y232000D01*
X344000Y317000D02*
Y320000D01*
Y317000D02*
X363000Y298000D01*
X339500Y326500D02*
X342000Y329000D01*
X336500Y326500D02*
X339500D01*
X335000Y325000D02*
X336500Y326500D01*
X335000Y319000D02*
X356000Y298000D01*
Y262000D02*
Y298000D01*
X335000Y319000D02*
Y325000D01*
X340000Y347500D02*
Y357500D01*
X705000Y127000D02*
Y147000D01*
X724000Y395000D02*
Y415000D01*
X362500Y400000D02*
X510000Y252500D01*
X544127Y123373D02*
X552500Y115000D01*
X510000Y131172D02*
Y252500D01*
X517799Y123373D02*
X544127D01*
X510000Y131172D02*
X517799Y123373D01*
X267700Y400000D02*
X362500D01*
X705000Y395000D02*
Y415000D01*
X685000Y127000D02*
Y147000D01*
X282000Y455500D02*
X302500Y435000D01*
X522500D02*
X535000Y422500D01*
X302500Y435000D02*
X522500D01*
X242100Y442500D02*
X255100Y455500D01*
X282000D01*
X297500Y422500D02*
X514946D01*
X286500Y433500D02*
X297500Y422500D01*
X276500Y433500D02*
X286500D01*
X535000Y422500D02*
X552500D01*
X514946D02*
X552500Y384946D01*
X267500Y442500D02*
X276500Y433500D01*
X355000Y372500D02*
X375000D01*
X340000Y357500D02*
X355000Y372500D01*
X280000Y292500D02*
Y340000D01*
X270000Y292500D02*
X325000Y237500D01*
X377500D01*
X270000Y292500D02*
Y350000D01*
X280000Y340000D02*
X283000Y343000D01*
Y355385D01*
X253600Y359000D02*
X260615D01*
X275385Y363000D02*
X283000Y355385D01*
X244600Y350000D02*
X253600Y359000D01*
X260615D02*
X264615Y363000D01*
X275385D01*
X280000Y292500D02*
X330000Y242500D01*
X379500Y230500D02*
X380000Y230000D01*
X379500Y230500D02*
Y235500D01*
X377500Y237500D02*
X379500Y235500D01*
X363000Y277000D02*
Y298000D01*
X356000Y262000D02*
X358000Y260000D01*
X381000D01*
D36*
X30000Y510000D02*
D03*
X830000D02*
D03*
Y30000D02*
D03*
X30000D02*
D03*
D41*
X790000Y440000D02*
D03*
X840000Y340000D02*
D03*
X790000Y240000D02*
D03*
X840000Y140000D02*
D03*
X790000Y40000D02*
D03*
X690000Y440000D02*
D03*
X740000Y340000D02*
D03*
X690000Y40000D02*
D03*
X590000Y440000D02*
D03*
X640000Y340000D02*
D03*
X590000Y240000D02*
D03*
Y40000D02*
D03*
X540000Y140000D02*
D03*
X490000Y40000D02*
D03*
X390000D02*
D03*
X290000D02*
D03*
X190000Y440000D02*
D03*
Y240000D02*
D03*
Y40000D02*
D03*
X90000Y440000D02*
D03*
X140000Y340000D02*
D03*
Y140000D02*
D03*
X90000Y40000D02*
D03*
X323000Y157500D02*
D03*
X390000Y232000D02*
D03*
X344000Y320000D02*
D03*
X342000Y329000D02*
D03*
X552500Y422500D02*
D03*
X340000Y347500D02*
D03*
X705000Y147000D02*
D03*
Y127000D02*
D03*
X724000Y395000D02*
D03*
Y415000D02*
D03*
X705000D02*
D03*
Y395000D02*
D03*
X685000Y127000D02*
D03*
Y147000D02*
D03*
X552500Y384946D02*
D03*
X375000Y372500D02*
D03*
X552500Y115000D02*
D03*
X380000Y230000D02*
D03*
X363000Y277000D02*
D03*
X381000Y260000D02*
D03*
D63*
X82500Y237500D02*
D03*
Y187500D02*
D03*
D64*
X242100Y442500D02*
D03*
X845000Y231700D02*
D03*
Y282500D02*
D03*
Y257100D02*
D03*
X242300Y400000D02*
D03*
X270000Y350000D02*
D03*
D65*
X267500Y442500D02*
D03*
X267700Y400000D02*
D03*
X244600Y350000D02*
D03*
D66*
X845000Y307900D02*
D03*
D67*
X377500Y184000D02*
D03*
X366500Y206000D02*
D03*
X388500Y321500D02*
D03*
Y343500D02*
D03*
Y206000D02*
D03*
X377500Y195000D02*
D03*
Y332500D02*
D03*
X366500Y184000D02*
D03*
Y343500D02*
D03*
Y321500D02*
D03*
X388500Y184000D02*
D03*
Y332500D02*
D03*
X377500Y343500D02*
D03*
Y206000D02*
D03*
X366500Y195000D02*
D03*
X377500Y321500D02*
D03*
X366500Y332500D02*
D03*
X388500Y195000D02*
D03*
M02*
