G04*
G04 #@! TF.GenerationSoftware,Altium Limited,Altium Designer,20.1.8 (145)*
G04*
G04 Layer_Color=8388736*
%FSLAX44Y44*%
%MOMM*%
G71*
G04*
G04 #@! TF.SameCoordinates,AACEBB51-4B8A-4FFF-B30A-F4DB7F9A4190*
G04*
G04*
G04 #@! TF.FilePolarity,Negative*
G04*
G01*
G75*
%ADD17R,0.9500X0.9500*%
%ADD18R,0.9500X0.9500*%
%ADD19R,1.2300X2.5400*%
%ADD20R,0.7000X1.2000*%
%ADD21R,1.1000X1.0000*%
%ADD22R,2.6000X2.4000*%
G04:AMPARAMS|DCode=23|XSize=1.65mm|YSize=0.7mm|CornerRadius=0.35mm|HoleSize=0mm|Usage=FLASHONLY|Rotation=0.000|XOffset=0mm|YOffset=0mm|HoleType=Round|Shape=RoundedRectangle|*
%AMROUNDEDRECTD23*
21,1,1.6500,0.0000,0,0,0.0*
21,1,0.9500,0.7000,0,0,0.0*
1,1,0.7000,0.4750,0.0000*
1,1,0.7000,-0.4750,0.0000*
1,1,0.7000,-0.4750,0.0000*
1,1,0.7000,0.4750,0.0000*
%
%ADD23ROUNDEDRECTD23*%
%ADD24R,3.6000X1.8800*%
%ADD25R,2.4000X2.6000*%
%ADD26R,0.9000X0.6000*%
%ADD27R,0.8600X2.1500*%
%ADD28R,3.0000X3.0000*%
%ADD29O,0.8000X0.3000*%
%ADD30O,0.3000X0.8000*%
%ADD31R,0.6000X0.4500*%
%ADD32R,2.1500X0.8600*%
%ADD33R,3.0000X3.0000*%
%ADD34R,2.5400X1.2300*%
%ADD35C,1.8000*%
%ADD36C,1.7000*%
%ADD37C,2.1000*%
%ADD38R,2.1000X2.1000*%
%ADD39R,2.1000X2.1000*%
%ADD40C,0.7000*%
%ADD41C,0.6000*%
D17*
X509500Y357500D02*
D03*
X495500D02*
D03*
X615500Y170000D02*
D03*
X629500D02*
D03*
X615500Y440000D02*
D03*
X629500D02*
D03*
X465500Y357500D02*
D03*
X479500D02*
D03*
X435500D02*
D03*
X449500D02*
D03*
X451000Y293000D02*
D03*
X465000D02*
D03*
X289500Y245000D02*
D03*
X275500D02*
D03*
Y200000D02*
D03*
X289500D02*
D03*
X275500Y135000D02*
D03*
X289500D02*
D03*
X449000Y202000D02*
D03*
X435000D02*
D03*
X449000Y217000D02*
D03*
X435000D02*
D03*
X478000Y217000D02*
D03*
X464000D02*
D03*
X414000Y277000D02*
D03*
X428000D02*
D03*
X414000Y293000D02*
D03*
X428000D02*
D03*
X363999Y291999D02*
D03*
X377999D02*
D03*
X379000Y277000D02*
D03*
X393000D02*
D03*
X345750Y260500D02*
D03*
X331750D02*
D03*
X345750Y276250D02*
D03*
X331750D02*
D03*
X345750Y292000D02*
D03*
X331750D02*
D03*
D18*
X652500Y159500D02*
D03*
Y145500D02*
D03*
X705000Y375000D02*
D03*
Y361000D02*
D03*
Y179000D02*
D03*
Y165000D02*
D03*
X652500Y429500D02*
D03*
Y415500D02*
D03*
Y113000D02*
D03*
Y127000D02*
D03*
Y383000D02*
D03*
Y397000D02*
D03*
X290000Y215000D02*
D03*
Y229000D02*
D03*
X310000Y199500D02*
D03*
Y185500D02*
D03*
X275000Y215500D02*
D03*
Y229500D02*
D03*
X308000Y134000D02*
D03*
Y148000D02*
D03*
X336000Y214500D02*
D03*
Y228500D02*
D03*
X321000Y214500D02*
D03*
Y228500D02*
D03*
X306000Y214500D02*
D03*
Y228500D02*
D03*
X323000Y104000D02*
D03*
Y118000D02*
D03*
X323000Y134000D02*
D03*
Y148000D02*
D03*
X400000Y146000D02*
D03*
Y132000D02*
D03*
X330250Y183750D02*
D03*
Y169750D02*
D03*
X345250Y183750D02*
D03*
Y169750D02*
D03*
X367500Y242000D02*
D03*
Y228000D02*
D03*
D19*
X497900Y380000D02*
D03*
X472500D02*
D03*
X447100D02*
D03*
Y466000D02*
D03*
X472500D02*
D03*
X497900D02*
D03*
D20*
X695000Y453000D02*
D03*
X704500Y429000D02*
D03*
X685500D02*
D03*
X695000Y87000D02*
D03*
X685500Y111000D02*
D03*
X704500D02*
D03*
X274500Y154500D02*
D03*
X284000D02*
D03*
X293500D02*
D03*
Y180500D02*
D03*
X274500D02*
D03*
D21*
X817501Y196500D02*
D03*
Y213500D02*
D03*
X792500Y196500D02*
D03*
Y213500D02*
D03*
X817500Y326500D02*
D03*
Y343500D02*
D03*
X792500Y326500D02*
D03*
Y343500D02*
D03*
D22*
X811500Y385000D02*
D03*
X768500D02*
D03*
Y155000D02*
D03*
X811500D02*
D03*
D23*
X573000Y154050D02*
D03*
Y141350D02*
D03*
Y128650D02*
D03*
Y115950D02*
D03*
X627000D02*
D03*
Y128650D02*
D03*
Y141350D02*
D03*
Y154050D02*
D03*
X573000Y424050D02*
D03*
Y411350D02*
D03*
Y398650D02*
D03*
Y385950D02*
D03*
X627000D02*
D03*
Y398650D02*
D03*
Y411350D02*
D03*
Y424050D02*
D03*
D24*
X197500Y183500D02*
D03*
Y131500D02*
D03*
D25*
X242500Y215500D02*
D03*
Y172500D02*
D03*
D26*
X249000Y136000D02*
D03*
X227500Y129500D02*
D03*
Y142500D02*
D03*
D27*
X476700Y273000D02*
D03*
X464000D02*
D03*
X451300D02*
D03*
X476700Y237000D02*
D03*
X464000D02*
D03*
X451300D02*
D03*
D28*
X377500Y332500D02*
D03*
D29*
X357750Y318500D02*
D03*
Y322500D02*
D03*
Y326500D02*
D03*
Y330500D02*
D03*
Y334500D02*
D03*
Y338500D02*
D03*
Y342500D02*
D03*
Y346500D02*
D03*
X397250D02*
D03*
Y342500D02*
D03*
Y338500D02*
D03*
Y334500D02*
D03*
Y330500D02*
D03*
Y326500D02*
D03*
Y322500D02*
D03*
Y318500D02*
D03*
X357750Y209000D02*
D03*
Y205000D02*
D03*
Y201000D02*
D03*
Y197000D02*
D03*
Y193000D02*
D03*
Y189000D02*
D03*
Y185000D02*
D03*
Y181000D02*
D03*
X397250D02*
D03*
Y185000D02*
D03*
Y189000D02*
D03*
Y193000D02*
D03*
Y197000D02*
D03*
Y201000D02*
D03*
Y205000D02*
D03*
Y209000D02*
D03*
D30*
X363500Y352250D02*
D03*
X367500D02*
D03*
X371500D02*
D03*
X375500D02*
D03*
X379500D02*
D03*
X383500D02*
D03*
X387500D02*
D03*
X391500D02*
D03*
Y312750D02*
D03*
X387500D02*
D03*
X383500D02*
D03*
X379500D02*
D03*
X375500D02*
D03*
X371500D02*
D03*
X367500D02*
D03*
X363500D02*
D03*
Y175250D02*
D03*
X367500D02*
D03*
X371500D02*
D03*
X375500D02*
D03*
X379500D02*
D03*
X383500D02*
D03*
X387500D02*
D03*
X391500D02*
D03*
Y214750D02*
D03*
X387500D02*
D03*
X383500D02*
D03*
X379500D02*
D03*
X375500D02*
D03*
X371500D02*
D03*
X367500D02*
D03*
X363500D02*
D03*
D31*
X362500Y266000D02*
D03*
Y254000D02*
D03*
X370000D02*
D03*
Y266000D02*
D03*
D32*
X380000Y120300D02*
D03*
Y133000D02*
D03*
Y145700D02*
D03*
X344000Y120300D02*
D03*
Y133000D02*
D03*
Y145700D02*
D03*
D33*
X377500Y195000D02*
D03*
D34*
X670000Y295400D02*
D03*
Y270000D02*
D03*
Y244600D02*
D03*
X756000D02*
D03*
Y270000D02*
D03*
Y295400D02*
D03*
D35*
X30000Y510000D02*
D03*
X830000D02*
D03*
Y30000D02*
D03*
X30000D02*
D03*
D36*
X82500Y237500D02*
D03*
Y187500D02*
D03*
D37*
X242100Y442500D02*
D03*
X845000Y231700D02*
D03*
Y282500D02*
D03*
Y257100D02*
D03*
X242300Y400000D02*
D03*
X270000Y350000D02*
D03*
D38*
X267500Y442500D02*
D03*
X267700Y400000D02*
D03*
X244600Y350000D02*
D03*
D39*
X845000Y307900D02*
D03*
D40*
X790000Y440000D02*
D03*
X840000Y340000D02*
D03*
X790000Y240000D02*
D03*
X840000Y140000D02*
D03*
X790000Y40000D02*
D03*
X690000Y440000D02*
D03*
X740000Y340000D02*
D03*
X690000Y40000D02*
D03*
X590000Y440000D02*
D03*
X640000Y340000D02*
D03*
X590000Y240000D02*
D03*
Y40000D02*
D03*
X540000Y140000D02*
D03*
X490000Y40000D02*
D03*
X390000D02*
D03*
X290000D02*
D03*
X190000Y440000D02*
D03*
Y240000D02*
D03*
Y40000D02*
D03*
X90000Y440000D02*
D03*
X140000Y340000D02*
D03*
Y140000D02*
D03*
X90000Y40000D02*
D03*
X323000Y157500D02*
D03*
X390000Y232000D02*
D03*
X344000Y320000D02*
D03*
X342000Y329000D02*
D03*
X552500Y422500D02*
D03*
X340000Y347500D02*
D03*
X705000Y147000D02*
D03*
Y127000D02*
D03*
X724000Y395000D02*
D03*
Y415000D02*
D03*
X705000D02*
D03*
Y395000D02*
D03*
X685000Y127000D02*
D03*
Y147000D02*
D03*
X552500Y384946D02*
D03*
X375000Y372500D02*
D03*
X552500Y115000D02*
D03*
X380000Y230000D02*
D03*
X363000Y277000D02*
D03*
X381000Y260000D02*
D03*
D41*
X377500Y184000D02*
D03*
X366500Y206000D02*
D03*
X388500Y321500D02*
D03*
Y343500D02*
D03*
Y206000D02*
D03*
X377500Y195000D02*
D03*
Y332500D02*
D03*
X366500Y184000D02*
D03*
Y343500D02*
D03*
Y321500D02*
D03*
X388500Y184000D02*
D03*
Y332500D02*
D03*
X377500Y343500D02*
D03*
Y206000D02*
D03*
X366500Y195000D02*
D03*
X377500Y321500D02*
D03*
X366500Y332500D02*
D03*
X388500Y195000D02*
D03*
M02*
