G04*
G04 #@! TF.GenerationSoftware,Altium Limited,Altium Designer,20.1.8 (145)*
G04*
G04 Layer_Color=16777215*
%FSTAX43Y43*%
%MOMM*%
G71*
G04*
G04 #@! TF.SameCoordinates,F520C443-D289-43A5-AF8C-D66C243BB58F*
G04*
G04*
G04 #@! TF.FilePolarity,Positive*
G04*
G01*
G75*
%ADD10C,0.250*%
%ADD11C,0.500*%
%ADD12C,0.254*%
%ADD13C,0.100*%
%ADD14C,0.150*%
%ADD15C,0.200*%
G36*
X0091749Y0106429D02*
X0091747Y0106427D01*
X0091076D01*
Y0106456D01*
X0091749Y0107129D01*
Y0106429D01*
D02*
G37*
G36*
X0122419Y0105109D02*
X0122417Y0105107D01*
X0121746D01*
Y0105137D01*
X0122419Y0105809D01*
Y0105109D01*
D02*
G37*
G36*
X0099793Y0086506D02*
X0098995Y0085709D01*
X0098995Y0086509D01*
X0099793Y0086506D01*
D02*
G37*
G36*
X0091749Y0084739D02*
X0091747Y0084737D01*
X0091076D01*
Y0084766D01*
X0091749Y0085439D01*
Y0084739D01*
D02*
G37*
G36*
X0122419Y0084734D02*
X0122417Y0084732D01*
X0121746D01*
Y0084761D01*
X0122419Y0085434D01*
Y0084734D01*
D02*
G37*
G36*
X0099795Y0079709D02*
X0098995Y0079709D01*
X0098997Y0080506D01*
X0099795Y0079709D01*
D02*
G37*
G36*
X0119199Y0093805D02*
X0117449D01*
Y0095054D01*
X0119199D01*
Y0093805D01*
D02*
G37*
G36*
Y0100305D02*
X0117449D01*
Y0101554D01*
X0119199D01*
Y0100305D01*
D02*
G37*
G36*
X0093199Y0100404D02*
X0091449D01*
Y0101653D01*
X0093199D01*
Y0100404D01*
D02*
G37*
G36*
X0093224Y0093379D02*
X0091474D01*
Y0094628D01*
X0093224D01*
Y0093379D01*
D02*
G37*
G36*
X0109557Y0077289D02*
X0101249D01*
Y0078919D01*
X0109557D01*
Y0077289D01*
D02*
G37*
%LPC*%
G36*
X0118804Y0094831D02*
X0117844D01*
Y0094468D01*
X0117846Y009443D01*
X0117847Y0094396D01*
X011785Y0094367D01*
X0117854Y0094343D01*
X0117858Y0094324D01*
X0117861Y0094308D01*
X0117862Y0094304D01*
Y00943D01*
X0117864Y0094299D01*
Y0094297D01*
X0117875Y0094267D01*
X0117887Y0094239D01*
X01179Y0094217D01*
X0117912Y0094197D01*
X0117923Y0094182D01*
X0117932Y0094171D01*
X0117937Y0094164D01*
X011794Y0094161D01*
X0117966Y0094138D01*
X0117994Y0094117D01*
X0118023Y0094099D01*
X0118049Y0094085D01*
X0118074Y0094074D01*
X0118084Y0094068D01*
X0118092Y0094066D01*
X0118101Y0094063D01*
X0118106Y009406D01*
X0118109Y0094059D01*
X011811D01*
X0118144Y0094049D01*
X0118178Y0094041D01*
X0118212Y0094035D01*
X0118244Y0094032D01*
X0118259Y0094031D01*
X0118273Y009403D01*
X0118284D01*
X0118295Y0094028D01*
X0118314D01*
X0118363Y009403D01*
X0118406Y0094034D01*
X0118427Y0094035D01*
X0118445Y0094038D01*
X0118463Y0094041D01*
X0118478Y0094043D01*
X0118492Y0094048D01*
X0118504Y009405D01*
X0118515Y0094053D01*
X0118524Y0094055D01*
X0118531Y0094057D01*
X0118536Y0094059D01*
X0118539Y009406D01*
X011854D01*
X0118574Y0094073D01*
X0118604Y0094088D01*
X011863Y0094103D01*
X0118653Y0094118D01*
X0118671Y0094131D01*
X0118685Y0094142D01*
X0118693Y0094149D01*
X0118696Y009415D01*
Y0094152D01*
X0118718Y0094175D01*
X0118736Y0094199D01*
X0118751Y0094224D01*
X0118764Y0094246D01*
X0118773Y0094265D01*
X011878Y0094282D01*
X0118782Y0094288D01*
X0118783Y0094292D01*
X0118784Y0094294D01*
Y0094296D01*
X0118791Y0094322D01*
X0118796Y0094351D01*
X01188Y0094382D01*
X0118801Y0094411D01*
X0118802Y0094437D01*
X0118804Y0094448D01*
Y0094028D01*
D01*
Y0094831D01*
D02*
G37*
%LPD*%
G36*
X0118642Y0094511D02*
X011864Y0094493D01*
Y0094476D01*
X0118639Y0094462D01*
Y009445D01*
X0118637Y0094437D01*
Y0094428D01*
X0118635Y0094412D01*
X0118633Y0094401D01*
X0118632Y0094394D01*
Y0094393D01*
X0118626Y0094374D01*
X0118619Y0094357D01*
X0118612Y0094342D01*
X0118604Y0094328D01*
X0118597Y0094318D01*
X0118592Y009431D01*
X0118588Y0094306D01*
X0118586Y0094304D01*
X0118572Y0094292D01*
X0118557Y0094281D01*
X0118542Y0094271D01*
X0118528Y0094263D01*
X0118514Y0094257D01*
X0118503Y0094253D01*
X0118496Y009425D01*
X0118495Y0094249D01*
X0118493D01*
X0118468Y0094242D01*
X0118442Y0094236D01*
X0118413Y0094233D01*
X0118385Y0094231D01*
X0118361Y0094229D01*
X011835Y0094228D01*
X0118341D01*
X0118334D01*
X0118328D01*
X0118324D01*
X0118323D01*
X0118284Y0094229D01*
X0118248Y0094231D01*
X0118219Y0094235D01*
X0118194Y0094238D01*
X0118173Y0094242D01*
X0118165Y0094243D01*
X0118159Y0094246D01*
X0118153Y0094247D01*
X0118149D01*
X0118148Y0094249D01*
X0118146D01*
X0118124Y0094257D01*
X0118105Y0094264D01*
X011809Y0094274D01*
X0118077Y0094281D01*
X0118067Y0094288D01*
X0118061Y0094293D01*
X0118056Y0094297D01*
X0118055Y0094299D01*
X0118045Y0094311D01*
X0118037Y0094324D01*
X011803Y0094336D01*
X0118024Y0094349D01*
X011802Y009436D01*
X0118018Y0094368D01*
X0118015Y0094374D01*
Y0094376D01*
X0118012Y0094392D01*
X0118011Y009441D01*
X0118008Y0094429D01*
Y0094448D01*
X0118006Y0094466D01*
Y0094637D01*
X0118642D01*
Y0094511D01*
D02*
G37*
%LPC*%
G36*
X0118804Y0101331D02*
X0117844D01*
Y0100968D01*
X0117846Y010093D01*
X0117847Y0100896D01*
X011785Y0100867D01*
X0117854Y0100843D01*
X0117858Y0100824D01*
X0117861Y0100808D01*
X0117862Y0100804D01*
Y01008D01*
X0117864Y0100799D01*
Y0100797D01*
X0117875Y0100767D01*
X0117887Y0100739D01*
X01179Y0100717D01*
X0117912Y0100697D01*
X0117923Y0100682D01*
X0117932Y0100671D01*
X0117937Y0100664D01*
X011794Y0100661D01*
X0117966Y0100638D01*
X0117994Y0100617D01*
X0118023Y0100599D01*
X0118049Y0100585D01*
X0118074Y0100574D01*
X0118084Y0100568D01*
X0118092Y0100566D01*
X0118101Y0100563D01*
X0118106Y010056D01*
X0118109Y0100559D01*
X011811D01*
X0118144Y0100549D01*
X0118178Y0100541D01*
X0118212Y0100535D01*
X0118244Y0100532D01*
X0118259Y0100531D01*
X0118273Y010053D01*
X0118284D01*
X0118295Y0100528D01*
X0117844D01*
X0118804D01*
Y0101331D01*
D02*
G37*
%LPD*%
G36*
X0118642Y0101011D02*
X011864Y0100993D01*
Y0100976D01*
X0118639Y0100962D01*
Y010095D01*
X0118637Y0100937D01*
Y0100928D01*
X0118635Y0100912D01*
X0118633Y0100901D01*
X0118632Y0100894D01*
Y0100893D01*
X0118626Y0100874D01*
X0118619Y0100857D01*
X0118612Y0100842D01*
X0118604Y0100828D01*
X0118597Y0100818D01*
X0118592Y010081D01*
X0118588Y0100806D01*
X0118586Y0100804D01*
X0118572Y0100792D01*
X0118557Y0100781D01*
X0118542Y0100771D01*
X0118528Y0100763D01*
X0118514Y0100757D01*
X0118503Y0100753D01*
X0118496Y010075D01*
X0118495Y0100749D01*
X0118493D01*
X0118468Y0100742D01*
X0118442Y0100736D01*
X0118413Y0100733D01*
X0118385Y0100731D01*
X0118361Y0100729D01*
X011835Y0100728D01*
X0118341D01*
X0118334D01*
X0118328D01*
X0118324D01*
X0118323D01*
X0118284Y0100729D01*
X0118248Y0100731D01*
X0118219Y0100735D01*
X0118194Y0100738D01*
X0118173Y0100742D01*
X0118165Y0100743D01*
X0118159Y0100746D01*
X0118153Y0100747D01*
X0118149D01*
X0118148Y0100749D01*
X0118146D01*
X0118124Y0100757D01*
X0118105Y0100764D01*
X011809Y0100774D01*
X0118077Y0100781D01*
X0118067Y0100788D01*
X0118061Y0100793D01*
X0118056Y0100797D01*
X0118055Y0100799D01*
X0118045Y0100811D01*
X0118037Y0100824D01*
X011803Y0100836D01*
X0118024Y0100849D01*
X011802Y010086D01*
X0118018Y0100868D01*
X0118015Y0100874D01*
Y0100876D01*
X0118012Y0100892D01*
X0118011Y010091D01*
X0118008Y0100929D01*
Y0100948D01*
X0118006Y0100966D01*
Y0101137D01*
X0118642D01*
Y0101011D01*
D02*
G37*
G36*
X0118804Y0100528D02*
X0118314D01*
X0118363Y010053D01*
X0118406Y0100534D01*
X0118427Y0100535D01*
X0118445Y0100538D01*
X0118463Y0100541D01*
X0118478Y0100543D01*
X0118492Y0100548D01*
X0118504Y010055D01*
X0118515Y0100553D01*
X0118524Y0100555D01*
X0118531Y0100557D01*
X0118536Y0100559D01*
X0118539Y010056D01*
X011854D01*
X0118574Y0100573D01*
X0118604Y0100588D01*
X011863Y0100603D01*
X0118653Y0100618D01*
X0118671Y0100631D01*
X0118685Y0100642D01*
X0118693Y0100649D01*
X0118696Y010065D01*
Y0100652D01*
X0118718Y0100675D01*
X0118736Y0100699D01*
X0118751Y0100724D01*
X0118764Y0100746D01*
X0118773Y0100765D01*
X011878Y0100782D01*
X0118782Y0100788D01*
X0118783Y0100792D01*
X0118784Y0100794D01*
Y0100796D01*
X0118791Y0100822D01*
X0118796Y0100851D01*
X01188Y0100882D01*
X0118801Y0100911D01*
X0118802Y0100937D01*
X0118804Y0100948D01*
Y0100528D01*
D02*
G37*
%LPC*%
G36*
X0092804Y010149D02*
X0091844D01*
Y0101199D01*
X00925Y0101028D01*
X0091844Y0100856D01*
Y0100566D01*
X0092804D01*
Y010149D01*
D02*
G37*
%LPD*%
G36*
Y0101121D02*
X0092049Y010131D01*
X0092804Y0101311D01*
Y0101121D01*
D02*
G37*
G36*
Y0100745D02*
X0092049D01*
X0092804Y0100934D01*
Y0100745D01*
D02*
G37*
%LPC*%
G36*
X0092829Y0094465D02*
X0091869D01*
Y0094174D01*
X0092525Y0094003D01*
X0091869Y0093831D01*
Y0093541D01*
X0092829D01*
Y0094465D01*
D02*
G37*
%LPD*%
G36*
Y0094096D02*
X0092074Y0094285D01*
X0092829Y0094286D01*
Y0094096D01*
D02*
G37*
G36*
Y009372D02*
X0092074D01*
X0092829Y0093909D01*
Y009372D01*
D02*
G37*
%LPC*%
G36*
X0105076Y0078465D02*
X0104399D01*
X0104795D01*
X0104754Y0078463D01*
X0104715Y0078456D01*
X010468Y0078447D01*
X010465Y0078436D01*
X0104636Y0078431D01*
X0104623Y0078425D01*
X0104614Y0078421D01*
X0104604Y0078417D01*
X0104597Y0078413D01*
X0104592Y007841D01*
X0104589Y0078409D01*
X0104587Y0078407D01*
X0104554Y0078384D01*
X0104525Y0078357D01*
X0104501Y0078331D01*
X0104482Y0078306D01*
X0104465Y0078282D01*
X010446Y0078273D01*
X0104454Y0078264D01*
X0104452Y0078257D01*
X0104449Y0078252D01*
X0104446Y0078249D01*
Y0078248D01*
X0104431Y0078209D01*
X0104418Y0078171D01*
X010441Y0078135D01*
X0104404Y0078102D01*
X0104403Y0078087D01*
X0104402Y0078074D01*
X01044Y0078062D01*
Y0078052D01*
X0104399Y0078044D01*
Y0077736D01*
Y0078033D01*
X01044Y0078008D01*
X0104402Y0077984D01*
X0104406Y0077961D01*
X0104411Y007794D01*
X0104417Y007792D01*
X0104424Y0077902D01*
X0104431Y0077887D01*
X0104438Y0077872D01*
X0104445Y0077859D01*
X0104452Y0077847D01*
X0104458Y0077837D01*
X0104464Y007783D01*
X010447Y0077823D01*
X0104474Y0077819D01*
X0104475Y0077816D01*
X0104476Y0077815D01*
X0104492Y0077801D01*
X0104508Y0077789D01*
X0104525Y0077779D01*
X0104542Y0077769D01*
X010456Y0077762D01*
X0104578Y0077755D01*
X0104611Y0077746D01*
X0104626Y0077743D01*
X0104642Y007774D01*
X0104654Y0077739D01*
X0104665Y0077737D01*
X0104675Y0077736D01*
X0104687D01*
X0104709Y0077737D01*
X010473Y0077739D01*
X0104769Y0077746D01*
X0104804Y0077755D01*
X0104834Y0077768D01*
X0104847Y0077773D01*
X0104858Y0077779D01*
X0104869Y0077785D01*
X0104877Y0077789D01*
X0104884Y0077793D01*
X0104888Y0077796D01*
X0104891Y0077798D01*
X0104893D01*
X0104924Y0077825D01*
X0104951Y0077854D01*
X0104974Y0077884D01*
X0104994Y0077915D01*
X0105008Y0077941D01*
X0105013Y0077952D01*
X0105019Y0077963D01*
X0105023Y0077972D01*
X0105024Y0077977D01*
X0105027Y0077981D01*
Y0077983D01*
X0104844Y0078013D01*
X0104834Y007799D01*
X0104823Y007797D01*
X0104812Y0077954D01*
X0104802Y007794D01*
X0104793Y0077929D01*
X0104784Y0077922D01*
X0104779Y0077916D01*
X0104777Y0077915D01*
X0104762Y0077904D01*
X0104747Y0077897D01*
X0104732Y0077891D01*
X0104719Y0077887D01*
X0104708Y0077884D01*
X01047Y0077883D01*
X0104691D01*
X0104675Y0077884D01*
X0104661Y0077889D01*
X0104647Y0077894D01*
X0104636Y00779D01*
X0104628Y0077905D01*
X0104621Y0077911D01*
X0104617Y0077915D01*
X0104615Y0077916D01*
X0104605Y007793D01*
X0104599Y0077945D01*
X0104593Y0077961D01*
X010459Y0077976D01*
X0104587Y007799D01*
X0104586Y0078001D01*
Y0078008D01*
Y0078011D01*
X0104587Y0078038D01*
X010459Y0078065D01*
X0104594Y0078091D01*
X0104599Y0078115D01*
X0104603Y0078134D01*
X0104607Y0078149D01*
X0104608Y0078155D01*
X010461Y0078159D01*
X0104611Y0078162D01*
Y0078163D01*
X0104621Y0078192D01*
X0104633Y0078217D01*
X0104644Y0078238D01*
X0104657Y0078255D01*
X0104666Y0078269D01*
X0104675Y0078278D01*
X0104682Y0078284D01*
X0104683Y0078285D01*
X0104701Y0078299D01*
X0104719Y0078309D01*
X0104736Y0078317D01*
X0104751Y0078321D01*
X0104765Y0078324D01*
X0104775Y0078327D01*
X0104784D01*
X0104801Y0078325D01*
X0104816Y0078323D01*
X0104829Y0078317D01*
X010484Y0078313D01*
X010485Y0078307D01*
X0104855Y0078302D01*
X0104859Y0078299D01*
X0104861Y0078298D01*
X010487Y0078287D01*
X0104879Y0078273D01*
X0104884Y0078259D01*
X010489Y0078245D01*
X0104893Y0078231D01*
X0104895Y0078221D01*
X0104897Y0078214D01*
Y0078212D01*
X0105076Y007823D01*
X0105073Y0078249D01*
X0105069Y0078267D01*
X0105059Y00783D01*
X0105045Y007833D01*
X010503Y0078354D01*
X0105016Y0078374D01*
X0105003Y0078389D01*
X0104999Y0078393D01*
X0104995Y0078397D01*
X0104994Y0078399D01*
X0104992Y00784D01*
X0104979Y0078411D01*
X0104963Y0078422D01*
X010493Y0078438D01*
X0104898Y007845D01*
X0104866Y0078457D01*
X0104838Y0078463D01*
X0104826Y0078464D01*
X0104816D01*
X0104808Y0078465D01*
X0105076D01*
D02*
G37*
G36*
X0104327Y0078191D02*
X0103926D01*
D01*
X0103962D01*
X0103926Y0078009D01*
X0104291D01*
X0104327Y0078191D01*
D02*
G37*
G36*
X0109357Y0078465D02*
X0108702Y0078465D01*
X0109093Y0078465D01*
X0109048Y0078463D01*
X0109006Y0078457D01*
X0108988Y0078453D01*
X0108971Y0078449D01*
X0108955Y0078445D01*
X0108941Y0078439D01*
X0108928Y0078434D01*
X0108917Y0078429D01*
X0108907Y0078425D01*
X0108899Y0078421D01*
X0108894Y0078418D01*
X0108889Y0078416D01*
X0108887Y0078413D01*
X0108885D01*
X0108859Y0078392D01*
X0108835Y0078368D01*
X0108817Y0078343D01*
X0108802Y0078321D01*
X0108791Y00783D01*
X0108783Y0078284D01*
X010878Y0078277D01*
X0108778Y0078273D01*
X0108777Y007827D01*
Y0078269D01*
X010896Y0078253D01*
X0108964Y0078266D01*
X010897Y0078277D01*
X0108977Y0078287D01*
X0108984Y0078295D01*
X0108989Y0078302D01*
X0108995Y0078306D01*
X0108998Y0078309D01*
X0108999Y007831D01*
X0109011Y0078317D01*
X0109024Y0078323D01*
X0109038Y0078325D01*
X010905Y0078328D01*
X0109061Y007833D01*
X0109071Y0078331D01*
X0109079D01*
X0109096Y007833D01*
X0109111Y0078328D01*
X0109122Y0078324D01*
X0109133Y0078321D01*
X0109142Y0078317D01*
X0109147Y0078313D01*
X010915Y0078312D01*
X0109152Y007831D01*
X010916Y0078302D01*
X0109165Y0078293D01*
X0109171Y0078285D01*
X0109174Y0078277D01*
X0109175Y007827D01*
X0109176Y0078266D01*
Y0078262D01*
Y007826D01*
Y007825D01*
X0109175Y0078241D01*
X0109171Y007822D01*
X0109168Y0078212D01*
X0109165Y0078205D01*
X0109164Y0078199D01*
Y0078198D01*
X0109154Y0078195D01*
X0109143Y0078192D01*
X0109131Y0078189D01*
X0109117Y0078187D01*
X0109088Y0078181D01*
X0109057Y0078178D01*
X0109029Y0078174D01*
X0109017Y0078173D01*
X0109007Y0078171D01*
X0108998D01*
X0108991Y007817D01*
X0108985D01*
X0108956Y0078167D01*
X010893Y0078163D01*
X0108906Y0078159D01*
X0108884Y0078153D01*
X0108863Y0078148D01*
X0108845Y0078142D01*
X0108828Y0078135D01*
X0108815Y007813D01*
X0108802Y0078123D01*
X0108791Y0078117D01*
X0108783Y0078112D01*
X0108776Y0078108D01*
X010877Y0078103D01*
X0108766Y0078101D01*
X0108765Y0078099D01*
X0108763Y0078098D01*
X0108752Y0078087D01*
X0108744Y0078074D01*
X0108729Y0078048D01*
X0108717Y0078022D01*
X010871Y0077995D01*
X0108705Y0077973D01*
X0108704Y0077963D01*
Y0077955D01*
X0108702Y0077948D01*
Y0077938D01*
X0108705Y0077907D01*
X010871Y0077877D01*
X010872Y0077852D01*
X010873Y0077832D01*
X010874Y0077814D01*
X0108749Y0077801D01*
X0108755Y0077794D01*
X0108758Y0077791D01*
X010878Y0077773D01*
X0108803Y007776D01*
X0108828Y007775D01*
X0108851Y0077743D01*
X010887Y0077739D01*
X0108887Y0077737D01*
X0108892Y0077736D01*
X01089D01*
X0108921Y0077737D01*
X0108941Y007774D01*
X0108959Y0077744D01*
X0108975Y0077748D01*
X0108989Y0077753D01*
X0108999Y0077757D01*
X0109006Y007776D01*
X0109009Y0077761D01*
X0109028Y0077771D01*
X0109046Y0077783D01*
X0109063Y0077794D01*
X0109077Y0077805D01*
X0109088Y0077816D01*
X0109097Y0077825D01*
X0109103Y007783D01*
X0109104Y0077832D01*
X0109107Y0077803D01*
X010911Y007779D01*
X0109111Y0077778D01*
X0109114Y0077768D01*
X0109117Y0077761D01*
X0109118Y0077755D01*
Y0077754D01*
X01093D01*
X0109294Y0077773D01*
X0109292Y0077793D01*
X0109289Y0077809D01*
X0109286Y0077823D01*
Y0077836D01*
X0109285Y0077844D01*
Y0077851D01*
Y0077852D01*
Y0077862D01*
X0109286Y0077875D01*
X0109289Y0077901D01*
X0109293Y0077929D01*
X0109299Y0077958D01*
X0109303Y0077984D01*
X0109305Y0077995D01*
X0109307Y0078006D01*
X0109308Y0078015D01*
X010931Y007802D01*
X0109311Y0078024D01*
Y0078026D01*
X0109317Y0078052D01*
X0109322Y0078077D01*
X0109328Y0078099D01*
X0109332Y0078119D01*
X0109335Y0078135D01*
X0109337Y0078151D01*
X010934Y0078165D01*
X0109343Y0078176D01*
X0109344Y0078185D01*
X0109347Y0078192D01*
Y0078199D01*
X0109348Y0078203D01*
X010935Y007821D01*
Y0078212D01*
X0109354Y0078238D01*
X0109355Y0078249D01*
Y0078259D01*
X0109357Y0078267D01*
Y0077775D01*
Y0078293D01*
X0109354Y0078307D01*
X0109347Y0078332D01*
X0109336Y0078354D01*
X0109325Y0078374D01*
X0109312Y0078391D01*
X0109301Y0078402D01*
X0109294Y0078409D01*
X0109293Y0078411D01*
X0109292D01*
X0109279Y0078421D01*
X0109265Y0078429D01*
X0109233Y0078443D01*
X0109201Y0078453D01*
X0109168Y0078459D01*
X0109139Y0078463D01*
X0109127Y0078464D01*
X0109115D01*
X0109106Y0078465D01*
X0109357D01*
D01*
D02*
G37*
G36*
X0108662Y0078719D02*
X0108373D01*
X0108351Y0078718D01*
X0108329Y0078716D01*
X010829Y0078708D01*
X0108256Y0078697D01*
X010824Y007869D01*
X0108226Y0078683D01*
X0108213Y0078676D01*
X0108202Y0078669D01*
X0108192Y0078664D01*
X0108185Y0078658D01*
X0108178Y0078654D01*
X0108174Y007865D01*
X0108171Y0078649D01*
X010817Y0078647D01*
X0108156Y0078633D01*
X0108142Y0078618D01*
X010812Y0078586D01*
X0108102Y0078551D01*
X0108088Y0078518D01*
X0108082Y0078503D01*
X0108078Y0078489D01*
X0108075Y0078477D01*
X0108071Y0078465D01*
X010807Y0078456D01*
X0108068Y0078449D01*
X0108067Y0078445D01*
Y0078443D01*
X010825Y0078417D01*
X0108257Y0078447D01*
X0108265Y0078472D01*
X0108274Y0078493D01*
X0108282Y007851D01*
X0108289Y0078522D01*
X0108294Y0078531D01*
X0108299Y0078536D01*
X01083Y0078538D01*
X0108312Y0078549D01*
X0108326Y0078557D01*
X0108339Y0078564D01*
X0108351Y0078568D01*
X0108362Y0078571D01*
X0108371Y0078572D01*
X0108378D01*
X0108393Y0078571D01*
X0108407Y0078568D01*
X0108419Y0078563D01*
X010843Y0078557D01*
X0108439Y0078551D01*
X0108444Y0078546D01*
X0108448Y0078543D01*
X010845Y0078542D01*
X0108459Y0078529D01*
X0108466Y0078517D01*
X0108472Y0078503D01*
X0108475Y007849D01*
X0108478Y0078479D01*
X0108479Y0078471D01*
Y0078465D01*
Y0078463D01*
X0108478Y0078452D01*
X0108476Y0078439D01*
X0108473Y0078428D01*
X0108471Y0078417D01*
X0108466Y0078409D01*
X0108464Y0078402D01*
X0108462Y0078396D01*
X0108461Y0078395D01*
X0108454Y0078381D01*
X0108444Y0078366D01*
X0108435Y007835D01*
X0108423Y0078336D01*
X0108414Y0078324D01*
X0108405Y0078314D01*
X01084Y0078309D01*
X0108398Y0078306D01*
X0108393Y00783D01*
X0108386Y0078293D01*
X0108369Y0078275D01*
X0108349Y0078256D01*
X0108328Y0078235D01*
X0108308Y0078216D01*
X0108292Y0078201D01*
X0108286Y0078194D01*
X0108281Y0078189D01*
X0108278Y0078187D01*
X0108276Y0078185D01*
X0108253Y0078163D01*
X0108232Y0078142D01*
X0108213Y0078123D01*
X0108195Y0078105D01*
X0108178Y007809D01*
X0108164Y0078074D01*
X010815Y0078062D01*
X0108139Y0078049D01*
X0108129Y007804D01*
X0108121Y007803D01*
X0108114Y0078023D01*
X0108109Y0078018D01*
X0108102Y0078009D01*
X0108099Y0078006D01*
X0108082Y0077986D01*
X0108067Y0077965D01*
X0108053Y0077945D01*
X0108041Y0077927D01*
X0108031Y0077912D01*
X0108024Y00779D01*
X010802Y0077891D01*
X0108018Y007789D01*
Y0077889D01*
X0108007Y0077865D01*
X0107999Y007784D01*
X0107992Y0077818D01*
X0107987Y0077797D01*
X0107982Y007778D01*
X010798Y0077766D01*
Y0077761D01*
X0107978Y0077757D01*
Y0077754D01*
X0108662D01*
X0108561D01*
X0108597Y0077926D01*
X0108264D01*
X0108283Y007795D01*
X0108292Y0077961D01*
X01083Y007797D01*
X0108307Y0077977D01*
X0108312Y0077983D01*
X0108315Y0077987D01*
X0108317Y0077988D01*
X010833Y0078002D01*
X0108347Y0078019D01*
X0108367Y0078037D01*
X0108386Y0078055D01*
X0108404Y0078073D01*
X0108419Y0078087D01*
X0108425Y0078092D01*
X0108429Y0078095D01*
X0108432Y0078098D01*
X0108433Y0078099D01*
X0108464Y0078128D01*
X010849Y0078153D01*
X0108512Y0078176D01*
X010853Y0078194D01*
X0108544Y0078207D01*
X0108554Y0078217D01*
X0108559Y0078224D01*
X0108561Y0078226D01*
X010858Y0078249D01*
X0108595Y0078271D01*
X0108609Y0078292D01*
X010862Y007831D01*
X0108629Y0078325D01*
X0108634Y0078336D01*
X0108637Y0078343D01*
X0108638Y0078346D01*
X0108647Y0078368D01*
X0108652Y0078389D01*
X0108656Y0078409D01*
X0108659Y0078425D01*
X0108661Y007844D01*
X0108662Y0078452D01*
Y0078461D01*
X0108661Y0078482D01*
X0108659Y0078502D01*
X0108649Y0078538D01*
X0108637Y0078569D01*
X0108623Y0078596D01*
X0108616Y0078607D01*
X0108609Y0078617D01*
X0108602Y0078625D01*
X0108597Y0078633D01*
X0108591Y0078639D01*
X0108587Y0078643D01*
X0108586Y0078644D01*
X0108584Y0078646D01*
X0108569Y0078658D01*
X0108554Y0078671D01*
X0108537Y007868D01*
X0108519Y0078689D01*
X0108484Y0078701D01*
X010845Y007871D01*
X0108435Y0078714D01*
X0108421Y0078715D01*
X0108407Y0078716D01*
X0108396Y0078718D01*
X0108386Y0078719D01*
X0108662D01*
D02*
G37*
G36*
X0103882Y007845D02*
X0103249D01*
X0103104Y0077754D01*
X0103289D01*
X0103404Y0078303D01*
X0103662D01*
X0103549Y0077754D01*
X0103882D01*
X0103735D01*
X0103882Y007845D01*
D02*
G37*
G36*
X0103066D02*
X0101595D01*
X0101449Y0077754D01*
X0101635D01*
X010175Y0078303D01*
X0102008D01*
X0101894Y0077754D01*
X010208D01*
X0102227Y007845D01*
X0102471D01*
X0102389Y0078062D01*
X0102385Y0078044D01*
X0102381Y0078029D01*
X0102378Y0078013D01*
X0102374Y0078001D01*
X0102367Y0077979D01*
X0102362Y0077961D01*
X0102356Y0077948D01*
X0102352Y007794D01*
X010235Y0077934D01*
X0102349Y0077933D01*
X0102341Y0077923D01*
X010233Y0077915D01*
X0102319Y0077909D01*
X0102307Y0077907D01*
X0102298Y0077904D01*
X0102289Y0077902D01*
X0102281D01*
X0102258Y0077904D01*
X0102246Y0077905D01*
X0102235Y0077907D01*
X0102227Y0077908D01*
X010222Y0077909D01*
X0102215Y0077911D01*
X0102213D01*
X0102184Y0077754D01*
X010221Y0077748D01*
X0102233Y0077746D01*
X0102253Y0077743D01*
X0102271Y007774D01*
X0102285D01*
X0102295Y0077739D01*
X0102303D01*
X0102338Y007774D01*
X0102368Y0077746D01*
X0102395Y0077753D01*
X0102417Y0077762D01*
X0102434Y0077771D01*
X0102446Y0077778D01*
X0102453Y0077783D01*
X0102456Y0077785D01*
X0102466Y0077794D01*
X0102475Y0077804D01*
X0102492Y0077827D01*
X0102504Y0077852D01*
X0102515Y0077877D01*
X0102524Y00779D01*
X0102527Y0077909D01*
X0102529Y0077919D01*
X0102531Y0077926D01*
X0102532Y0077932D01*
X0102534Y0077934D01*
Y0077936D01*
X0102611Y0078303D01*
X0102847D01*
X0102733Y0077754D01*
X0102919D01*
X0103066Y007845D01*
D01*
D02*
G37*
G36*
X0107228Y007869D02*
X0106805D01*
D01*
X0107161D01*
X0106948Y0078561D01*
X0106926Y007845D01*
X0106834D01*
X0106805Y007831D01*
X0106898D01*
X0106838Y007803D01*
X0106834Y0078009D01*
X010683Y007799D01*
X0106827Y0077973D01*
X0106824Y0077958D01*
X0106822Y0077944D01*
X0106819Y0077932D01*
X0106817Y0077922D01*
X0106816Y0077912D01*
X0106815Y0077898D01*
X0106813Y0077889D01*
Y0077883D01*
Y0077882D01*
X0106815Y0077857D01*
X010682Y0077836D01*
X0106827Y0077816D01*
X0106835Y0077801D01*
X0106844Y007779D01*
X0106851Y007778D01*
X0106856Y0077775D01*
X0106858Y0077773D01*
X0106877Y0077761D01*
X0106899Y0077751D01*
X0106924Y0077746D01*
X0106948Y007774D01*
X010697Y0077737D01*
X0106978D01*
X0106987Y0077736D01*
X0107003D01*
X0107041Y0077737D01*
X0107057Y007774D01*
X0107073Y0077742D01*
X0107085Y0077744D01*
X0107095Y0077746D01*
X01071Y0077747D01*
X0107103D01*
X0107132Y0077886D01*
X0107116Y0077884D01*
X0107102Y0077883D01*
X0107091Y0077882D01*
X0107082D01*
X0107077Y007788D01*
X0107057D01*
X0107046Y0077882D01*
X0107037Y0077884D01*
X010703Y0077887D01*
X0107025Y0077889D01*
X0107021Y0077891D01*
X010702Y0077893D01*
X0107019D01*
X0107012Y0077904D01*
X0107007Y0077913D01*
X0107006Y0077923D01*
Y0077925D01*
Y0077926D01*
Y0077929D01*
X0107007Y0077933D01*
X0107009Y0077945D01*
X0107012Y0077959D01*
X0107014Y0077976D01*
X0107017Y0077991D01*
X010702Y0078004D01*
X0107021Y0078009D01*
X0107023Y0078013D01*
Y0078015D01*
Y0078016D01*
X0107084Y007831D01*
X0107199D01*
X0107228Y007845D01*
X0107113D01*
X0107161Y007869D01*
X0107228D01*
D01*
D02*
G37*
G36*
X0106376Y0078465D02*
X0106361D01*
X0106329Y0078464D01*
X0106297Y007846D01*
X0106268Y0078454D01*
X0106242Y0078447D01*
X0106216Y0078439D01*
X0106192Y0078428D01*
X0106171Y0078418D01*
X0106152Y0078407D01*
X0106134Y0078396D01*
X0106118Y0078386D01*
X0106105Y0078377D01*
X0106094Y0078367D01*
X0106085Y007836D01*
X010608Y0078354D01*
X0106076Y007835D01*
X0106074Y0078349D01*
X0106055Y0078327D01*
X0106038Y0078303D01*
X0106024Y0078278D01*
X0106012Y0078252D01*
X0106001Y0078227D01*
X0105992Y0078201D01*
X0105985Y0078176D01*
X010598Y0078152D01*
X0105976Y007813D01*
X0105971Y0078108D01*
X0105969Y007809D01*
X0105967Y0078073D01*
Y0078059D01*
X0105966Y0078049D01*
Y0077736D01*
Y0078041D01*
X0105967Y0078011D01*
X0105971Y0077981D01*
X0105977Y0077955D01*
X0105984Y0077933D01*
X0105991Y0077913D01*
X0105996Y0077898D01*
X0105999Y0077893D01*
X0106001Y0077889D01*
X0106002Y0077887D01*
Y0077886D01*
X0106017Y0077861D01*
X0106035Y0077839D01*
X0106055Y0077819D01*
X0106073Y0077804D01*
X0106089Y0077791D01*
X0106103Y0077782D01*
X0106109Y0077779D01*
X0106113Y0077776D01*
X0106114Y0077775D01*
X0106116D01*
X0106145Y0077762D01*
X0106175Y0077753D01*
X0106204Y0077746D01*
X0106232Y0077742D01*
X0106256Y0077739D01*
X0106265Y0077737D01*
X0106274Y0077736D01*
X0106688D01*
Y0078151D01*
X0106687Y0078177D01*
X0106684Y0078202D01*
X010668Y0078226D01*
X0106675Y0078248D01*
X0106668Y0078267D01*
X0106661Y0078287D01*
X0106652Y0078303D01*
X0106645Y007832D01*
X0106637Y0078334D01*
X0106629Y0078345D01*
X0106622Y0078356D01*
X0106615Y0078364D01*
X0106609Y0078371D01*
X0106605Y0078375D01*
X0106603Y0078378D01*
X0106601Y0078379D01*
X0106584Y0078395D01*
X0106566Y0078407D01*
X0106547Y007842D01*
X0106528Y0078429D01*
X0106507Y0078438D01*
X0106487Y0078445D01*
X0106449Y0078454D01*
X0106431Y0078459D01*
X0106414Y0078461D01*
X01064Y0078463D01*
X0106386Y0078464D01*
X0106376Y0078465D01*
D02*
G37*
G36*
X01055Y0078714D02*
X0105314D01*
X0105113Y0077754D01*
X0105282D01*
X0105306Y0077866D01*
X010532Y0077843D01*
X0105336Y0077823D01*
X0105353Y0077805D01*
X010537Y0077791D01*
X0105389Y0077779D01*
X0105407Y0077768D01*
X0105425Y007776D01*
X0105443Y0077753D01*
X010546Y0077747D01*
X0105475Y0077743D01*
X0105489Y007774D01*
X0105501Y0077739D01*
X0105512Y0077737D01*
X0105519Y0077736D01*
X0105113D01*
X0105872D01*
X0105526D01*
X010555Y0077737D01*
X0105571Y007774D01*
X0105591Y0077744D01*
X010561Y007775D01*
X0105625Y0077754D01*
X0105636Y0077758D01*
X0105643Y0077761D01*
X0105646Y0077762D01*
X0105668Y0077773D01*
X0105687Y0077787D01*
X0105707Y0077801D01*
X0105723Y0077815D01*
X0105737Y0077826D01*
X0105747Y0077836D01*
X0105754Y0077843D01*
X0105757Y0077846D01*
X0105776Y0077868D01*
X0105791Y0077893D01*
X0105806Y0077916D01*
X0105818Y007794D01*
X0105827Y0077961D01*
X0105834Y0077976D01*
X0105837Y0077983D01*
X0105838Y0077987D01*
X010584Y007799D01*
Y0077991D01*
X0105851Y0078024D01*
X0105858Y0078058D01*
X0105863Y007809D01*
X0105867Y0078117D01*
X010587Y0078141D01*
Y0078151D01*
X0105872Y0078159D01*
Y0078176D01*
X010587Y0078202D01*
X0105869Y0078226D01*
X0105866Y0078248D01*
X0105862Y0078269D01*
X0105856Y0078288D01*
X0105851Y0078306D01*
X0105845Y0078321D01*
X0105838Y0078336D01*
X0105833Y0078349D01*
X0105826Y007836D01*
X010582Y007837D01*
X0105816Y0078377D01*
X0105811Y0078382D01*
X0105808Y0078388D01*
X0105806Y0078389D01*
X0105805Y0078391D01*
X0105793Y0078404D01*
X0105779Y0078416D01*
X0105763Y0078425D01*
X010575Y0078434D01*
X0105719Y0078447D01*
X0105691Y0078456D01*
X0105666Y0078461D01*
X0105655Y0078463D01*
X0105646Y0078464D01*
X0105639Y0078465D01*
X0105628D01*
X0105608Y0078464D01*
X0105589Y0078463D01*
X0105572Y007846D01*
X0105557Y0078457D01*
X0105546Y0078453D01*
X0105536Y007845D01*
X010553Y0078449D01*
X0105528Y0078447D01*
X0105511Y007844D01*
X0105494Y0078432D01*
X0105478Y0078422D01*
X0105464Y0078414D01*
X010545Y0078406D01*
X010544Y0078399D01*
X0105435Y0078393D01*
X0105432Y0078392D01*
X01055Y0078714D01*
D02*
G37*
G36*
X0107903Y0077754D02*
Y0077608D01*
X0107138D01*
Y0077736D01*
Y0077489D01*
X0107903D01*
Y0077754D01*
D02*
G37*
%LPD*%
G36*
X0109133Y0078052D02*
X0109128Y0078029D01*
X0109122Y0078008D01*
X0109117Y007799D01*
X0109111Y0077976D01*
X0109107Y0077965D01*
X0109103Y0077958D01*
X0109102Y0077952D01*
X01091Y0077951D01*
X0109093Y0077938D01*
X0109084Y0077929D01*
X0109074Y0077919D01*
X0109066Y0077912D01*
X0109057Y0077905D01*
X010905Y0077901D01*
X0109045Y0077898D01*
X0109043Y0077897D01*
X0109029Y007789D01*
X0109016Y0077886D01*
X0109002Y0077882D01*
X0108989Y007788D01*
X010898Y0077879D01*
X0108971Y0077877D01*
X0108964D01*
X010895Y0077879D01*
X0108938Y0077882D01*
X0108927Y0077884D01*
X0108919Y0077889D01*
X0108912Y0077893D01*
X0108906Y0077897D01*
X0108903Y0077898D01*
X0108902Y00779D01*
X0108894Y0077908D01*
X0108888Y0077918D01*
X0108884Y0077927D01*
X0108881Y0077936D01*
X010888Y0077944D01*
X0108878Y007795D01*
Y0077954D01*
Y0077955D01*
X010888Y0077969D01*
X0108882Y0077981D01*
X0108888Y0077993D01*
X0108894Y0078002D01*
X0108899Y0078009D01*
X0108905Y0078015D01*
X0108907Y0078018D01*
X0108909Y0078019D01*
X0108919Y0078024D01*
X010893Y007803D01*
X0108942Y0078036D01*
X0108956Y0078041D01*
X0108986Y0078049D01*
X0109017Y0078056D01*
X0109046Y0078062D01*
X0109059Y0078065D01*
X0109071Y0078066D01*
X0109079Y0078067D01*
X0109088D01*
X0109092Y0078069D01*
X0109093D01*
X0109113Y0078072D01*
X0109127Y0078076D01*
X0109132Y0078077D01*
X0109136D01*
X0109138Y0078079D01*
X0109139D01*
X0109133Y0078052D01*
D02*
G37*
G36*
X0106383Y0078323D02*
X0106403Y0078317D01*
X0106419Y0078312D01*
X0106435Y0078303D01*
X0106446Y0078296D01*
X0106454Y0078289D01*
X010646Y0078284D01*
X0106461Y0078282D01*
X0106475Y0078266D01*
X0106485Y0078249D01*
X0106492Y0078231D01*
X0106496Y0078214D01*
X01065Y0078199D01*
X0106501Y0078187D01*
Y0078178D01*
Y0078177D01*
Y0078176D01*
X01065Y0078151D01*
X0106498Y0078127D01*
X010649Y0078083D01*
X0106485Y0078063D01*
X0106478Y0078044D01*
X0106471Y0078027D01*
X0106464Y0078011D01*
X0106457Y0077997D01*
X010645Y0077984D01*
X0106444Y0077973D01*
X0106437Y0077963D01*
X0106433Y0077956D01*
X0106429Y0077951D01*
X0106428Y0077948D01*
X0106426Y0077947D01*
X0106417Y0077936D01*
X0106406Y0077926D01*
X0106383Y0077909D01*
X0106363Y0077898D01*
X0106342Y007789D01*
X0106324Y0077886D01*
X0106308Y0077883D01*
X0106303Y0077882D01*
X0106296D01*
X0106274Y0077883D01*
X0106254Y0077889D01*
X0106238Y0077895D01*
X0106223Y0077904D01*
X0106211Y0077911D01*
X0106202Y0077918D01*
X0106196Y0077923D01*
X0106195Y0077925D01*
X0106181Y0077943D01*
X0106171Y0077962D01*
X0106164Y0077981D01*
X010616Y0078001D01*
X0106157Y0078018D01*
X0106155Y0078031D01*
Y0078037D01*
Y0078041D01*
Y0078042D01*
Y0078044D01*
X0106156Y0078066D01*
X0106159Y007809D01*
X0106163Y0078112D01*
X0106167Y0078133D01*
X0106171Y0078149D01*
X0106175Y0078163D01*
X0106177Y0078169D01*
X0106178Y0078173D01*
X010618Y0078174D01*
Y0078176D01*
X0106191Y0078201D01*
X0106202Y0078223D01*
X0106214Y0078242D01*
X0106227Y0078257D01*
X0106236Y007827D01*
X0106245Y0078278D01*
X0106252Y0078284D01*
X0106253Y0078285D01*
X0106271Y0078298D01*
X010629Y0078307D01*
X0106308Y0078314D01*
X0106325Y007832D01*
X0106339Y0078323D01*
X0106351Y0078324D01*
X0106361D01*
X0106383Y0078323D01*
D02*
G37*
G36*
X0106688Y0077736D02*
X010629D01*
X0106324Y0077737D01*
X0106356Y0077742D01*
X0106385Y0077747D01*
X0106412Y0077755D01*
X0106439Y0077764D01*
X0106462Y0077775D01*
X0106483Y0077786D01*
X0106504Y0077797D01*
X0106521Y0077808D01*
X0106536Y0077819D01*
X010655Y007783D01*
X0106561Y0077839D01*
X0106569Y0077847D01*
X0106575Y0077852D01*
X0106579Y0077857D01*
X010658Y0077858D01*
X01066Y0077882D01*
X0106616Y0077907D01*
X010663Y0077932D01*
X0106643Y0077956D01*
X0106654Y007798D01*
X0106662Y0078005D01*
X0106669Y0078029D01*
X0106675Y0078051D01*
X0106679Y0078072D01*
X0106683Y0078091D01*
X0106686Y0078108D01*
X0106687Y0078123D01*
X0106688Y0078134D01*
Y0077736D01*
D02*
G37*
G36*
X0105578Y007833D02*
X0105596Y0078324D01*
X0105611Y0078317D01*
X0105625Y007831D01*
X0105636Y0078302D01*
X0105644Y0078295D01*
X010565Y0078289D01*
X0105651Y0078288D01*
X0105664Y0078271D01*
X0105673Y0078252D01*
X010568Y0078232D01*
X0105686Y0078213D01*
X0105689Y0078196D01*
X010569Y0078184D01*
Y0078178D01*
Y0078174D01*
Y0078173D01*
Y0078171D01*
X0105689Y0078144D01*
X0105686Y0078116D01*
X010568Y007809D01*
X0105676Y0078067D01*
X0105671Y0078048D01*
X0105665Y0078033D01*
X0105664Y0078027D01*
X0105662Y0078023D01*
X0105661Y0078022D01*
Y007802D01*
X010565Y0077994D01*
X0105637Y0077972D01*
X0105625Y0077952D01*
X0105614Y0077937D01*
X0105604Y0077926D01*
X0105596Y0077918D01*
X010559Y0077912D01*
X0105589Y0077911D01*
X0105572Y00779D01*
X0105557Y0077891D01*
X0105542Y0077886D01*
X0105528Y0077882D01*
X0105515Y0077879D01*
X0105507Y0077877D01*
X0105499D01*
X0105479Y0077879D01*
X0105461Y0077884D01*
X0105444Y0077891D01*
X0105431Y00779D01*
X010542Y0077907D01*
X0105411Y0077913D01*
X0105406Y0077919D01*
X0105404Y007792D01*
X0105392Y0077938D01*
X0105382Y0077958D01*
X0105375Y0077976D01*
X0105371Y0077995D01*
X0105368Y0078011D01*
X0105365Y0078024D01*
Y0078033D01*
Y0078034D01*
Y0078036D01*
X0105367Y007806D01*
X0105368Y0078085D01*
X0105377Y007813D01*
X0105382Y0078151D01*
X0105388Y0078169D01*
X0105393Y0078187D01*
X01054Y0078202D01*
X0105407Y0078216D01*
X0105413Y0078228D01*
X0105418Y0078239D01*
X0105424Y0078248D01*
X0105428Y0078255D01*
X0105432Y007826D01*
X0105433Y0078263D01*
X0105435Y0078264D01*
X0105444Y0078275D01*
X0105454Y0078287D01*
X0105476Y0078303D01*
X0105496Y0078314D01*
X0105515Y0078323D01*
X0105533Y0078328D01*
X0105546Y007833D01*
X0105551Y0078331D01*
X0105558D01*
X0105578Y007833D01*
D02*
G37*
D10*
X0100724Y0112404D02*
G03*
X0100724Y0112404I-0000125J0D01*
G01*
X0114274Y0099354D02*
G03*
X0114274Y0099354I-0000125J0D01*
G01*
X0110374Y0114804D02*
G03*
X0110374Y0114804I-0000125J0D01*
G01*
X0100924Y0112604D02*
G03*
X0100924Y0112604I-0000125J0D01*
G01*
X0108749Y0091304D02*
G03*
X0108749Y0091304I-0000125J0D01*
G01*
X0112249Y0085229D02*
G03*
X0112249Y0085229I-0000125J0D01*
G01*
D11*
X0097599Y0102954D02*
G03*
X0097599Y0102954I-000025J0D01*
G01*
X0106099D02*
G03*
X0106099Y0102954I-000025J0D01*
G01*
D12*
X0089349Y0103554D02*
G03*
X0089349Y0103554I-00012J0D01*
G01*
X0092249D02*
G03*
X0092249Y0103554I-00012J0D01*
G01*
X0124649D02*
G03*
X0124649Y0103554I-00012J0D01*
G01*
D13*
X0117099Y0080554D02*
Y0114554D01*
X0093799Y0080554D02*
Y0114554D01*
X0094799D01*
X0093799Y0080554D02*
X0094799D01*
X0116074Y0114554D02*
X0117074D01*
X0116074Y0080554D02*
X0117074D01*
X0119118Y0084734D02*
X0119119Y0088687D01*
X0119118Y0084734D02*
X0122444D01*
X0119119Y0088687D02*
X0122444D01*
Y0084734D02*
Y0088687D01*
X0091774Y0106429D02*
Y0110382D01*
X0088449D02*
X0091774D01*
X0088448Y0106429D02*
X0091774D01*
X0088448D02*
X0088449Y0110382D01*
X0088448Y0084739D02*
X0088449Y0088692D01*
X0088448Y0084739D02*
X0091774D01*
X0088449Y0088692D02*
X0091774D01*
Y0084739D02*
Y0088692D01*
X0116074Y0080554D02*
Y0114554D01*
X0094799Y0080554D02*
Y0114554D01*
X0122444Y0105109D02*
Y0109063D01*
X0119119D02*
X0122444D01*
X0119118Y0105109D02*
X0122444D01*
X0119118D02*
X0119119Y0109063D01*
X0097332Y0104039D02*
Y0109289D01*
X0105332D01*
Y0104039D02*
Y0109289D01*
X0097332Y0104039D02*
X0105332D01*
X0105832D02*
Y0109289D01*
X0113832D01*
Y0104039D02*
Y0109289D01*
X0105832Y0104039D02*
X0113832D01*
D14*
X0099099Y0087004D02*
X0099799D01*
X0099099Y0092104D02*
X0099799D01*
X0102899Y0087354D02*
Y0091754D01*
X0098995Y0081909D02*
X0098995Y0079709D01*
X0098995Y0084309D02*
X0098995Y0086509D01*
X0098595Y0079009D02*
Y0079609D01*
X0098295Y0079309D02*
X0098895D01*
X0098995Y0086509D02*
X0105795D01*
X0098995Y0079709D02*
X0105795D01*
Y0081934D01*
Y0084284D02*
Y0086509D01*
X0098995Y0085709D02*
X0099793Y0086506D01*
X0098997Y0080506D02*
X0099795Y0079709D01*
X0106149Y0114254D02*
X0106749D01*
X0106149Y0113854D02*
X0106749D01*
X0096349Y0115554D02*
X0099949D01*
X0096349Y0112554D02*
X0099949D01*
X0109899Y0113179D02*
Y0113679D01*
X0109449Y0113179D02*
X0109899D01*
X0107799D02*
Y0113679D01*
Y0113179D02*
X0108249D01*
X0111749Y0094754D02*
Y0095354D01*
X0112149Y0094754D02*
Y0095354D01*
X0102799Y0114229D02*
X0103249D01*
Y0113729D02*
Y0114229D01*
X0101149D02*
X0101599D01*
X0101149Y0113729D02*
Y0114229D01*
X0110749Y0088454D02*
Y0089854D01*
Y0088454D02*
X0111549D01*
X0111149Y0087954D02*
Y0090354D01*
X0109574Y0088054D02*
Y0090254D01*
X0112724Y0088054D02*
Y0090254D01*
X0111549Y0088454D02*
Y0089854D01*
X0110749D02*
X0111549D01*
X0104224Y0089479D02*
X0104824D01*
X0104224Y0089879D02*
X0104824D01*
X0110849Y0113654D02*
X0111449D01*
X0110849Y0113254D02*
X0111449D01*
X0106174Y0089679D02*
X0106624D01*
X0106174D02*
Y0090179D01*
X0107824Y0089679D02*
X0108274D01*
Y0090179D01*
X0096049Y0107104D02*
X0096449D01*
X0096249D01*
Y0106504D01*
X0097049D02*
X0096649D01*
X0097049Y0106904D01*
Y0107004D01*
X0096949Y0107104D01*
X0096749D01*
X0096649Y0107004D01*
X0114124Y0107179D02*
X0114524D01*
X0114324D01*
Y0106579D01*
X0114724D02*
X0114924D01*
X0114824D01*
Y0107179D01*
X0114724Y0107079D01*
X0087349Y0105154D02*
Y0105754D01*
X0087649D01*
X0087749Y0105654D01*
Y0105454D01*
X0087649Y0105354D01*
X0087349D01*
X0088249Y0105754D02*
X0088049D01*
X0087949Y0105654D01*
Y0105254D01*
X0088049Y0105154D01*
X0088249D01*
X0088349Y0105254D01*
Y0105654D01*
X0088249Y0105754D01*
X0088949Y0105654D02*
X0088849Y0105754D01*
X0088649D01*
X0088549Y0105654D01*
Y0105554D01*
X0088649Y0105454D01*
X0088849D01*
X0088949Y0105354D01*
Y0105254D01*
X0088849Y0105154D01*
X0088649D01*
X0088549Y0105254D01*
X0090249Y0105154D02*
Y0105754D01*
X0090649Y0105154D01*
Y0105754D01*
X0091249D02*
X0090849D01*
Y0105154D01*
X0091249D01*
X0090849Y0105454D02*
X0091049D01*
X0091849Y0105654D02*
X0091749Y0105754D01*
X0091549D01*
X0091449Y0105654D01*
Y0105254D01*
X0091549Y0105154D01*
X0091749D01*
X0091849Y0105254D01*
Y0105454D01*
X0091649D01*
X0124824Y0101354D02*
X0124724Y0101254D01*
Y0101054D01*
X0124824Y0100954D01*
X0125224D01*
X0125324Y0101054D01*
Y0101254D01*
X0125224Y0101354D01*
X0125024D01*
Y0101154D01*
X0125324Y0101554D02*
X0124724D01*
X0125324Y0101954D01*
X0124724D01*
Y0102154D02*
X0125324D01*
Y0102454D01*
X0125224Y0102554D01*
X0124824D01*
X0124724Y0102454D01*
Y0102154D01*
X0113749Y0095254D02*
X0113649Y0095354D01*
X0113449D01*
X0113349Y0095254D01*
Y0094854D01*
X0113449Y0094754D01*
X0113649D01*
X0113749Y0094854D01*
X0113949Y0095254D02*
X0114049Y0095354D01*
X0114249D01*
X0114349Y0095254D01*
Y0095154D01*
X0114249Y0095054D01*
X0114349Y0094954D01*
Y0094854D01*
X0114249Y0094754D01*
X0114049D01*
X0113949Y0094854D01*
Y0094954D01*
X0114049Y0095054D01*
X0113949Y0095154D01*
Y0095254D01*
X0114049Y0095054D02*
X0114249D01*
X0113099Y0114829D02*
X0112499D01*
Y0115129D01*
X0112599Y0115229D01*
X0112799D01*
X0112899Y0115129D01*
Y0114829D01*
Y0115029D02*
X0113099Y0115229D01*
Y0115429D02*
Y0115629D01*
Y0115529D01*
X0112499D01*
X0112599Y0115429D01*
Y0115929D02*
X0112499Y0116029D01*
Y0116229D01*
X0112599Y0116329D01*
X0112699D01*
X0112799Y0116229D01*
Y0116129D01*
Y0116229D01*
X0112899Y0116329D01*
X0112999D01*
X0113099Y0116229D01*
Y0116029D01*
X0112999Y0115929D01*
X0105149Y0115504D02*
X0104549D01*
Y0115804D01*
X0104649Y0115904D01*
X0104849D01*
X0104949Y0115804D01*
Y0115504D01*
Y0115704D02*
X0105149Y0115904D01*
Y0116104D02*
Y0116304D01*
Y0116204D01*
X0104549D01*
X0104649Y0116104D01*
X0105149Y0117004D02*
Y0116604D01*
X0104749Y0117004D01*
X0104649D01*
X0104549Y0116904D01*
Y0116704D01*
X0104649Y0116604D01*
X0098349Y0116504D02*
X0098249Y0116604D01*
X0098049D01*
X0097949Y0116504D01*
Y0116104D01*
X0098049Y0116004D01*
X0098249D01*
X0098349Y0116104D01*
X0098549Y0116604D02*
X0098949D01*
Y0116504D01*
X0098549Y0116104D01*
Y0116004D01*
X0101649Y0116354D02*
Y0115954D01*
X0101849Y0115754D01*
X0102049Y0115954D01*
Y0116354D01*
X0102249D02*
Y0115754D01*
X0102549D01*
X0102649Y0115854D01*
Y0116254D01*
X0102549Y0116354D01*
X0102249D01*
X0103249D02*
X0103049Y0116254D01*
X0102849Y0116054D01*
Y0115854D01*
X0102949Y0115754D01*
X0103149D01*
X0103249Y0115854D01*
Y0115954D01*
X0103149Y0116054D01*
X0102849D01*
X0108149Y0116354D02*
Y0115954D01*
X0108349Y0115754D01*
X0108549Y0115954D01*
Y0116354D01*
X0108749D02*
Y0115754D01*
X0109049D01*
X0109149Y0115854D01*
Y0116254D01*
X0109049Y0116354D01*
X0108749D01*
X0109749D02*
X0109349D01*
Y0116054D01*
X0109549Y0116154D01*
X0109649D01*
X0109749Y0116054D01*
Y0115854D01*
X0109649Y0115754D01*
X0109449D01*
X0109349Y0115854D01*
X0112849Y0081554D02*
X0113249D01*
X0113449Y0081754D01*
X0113249Y0081954D01*
X0112849D01*
Y0082154D02*
X0113449D01*
Y0082454D01*
X0113349Y0082554D01*
X0112949D01*
X0112849Y0082454D01*
Y0082154D01*
X0113449Y0083153D02*
Y0082754D01*
X0113049Y0083153D01*
X0112949D01*
X0112849Y0083054D01*
Y0082854D01*
X0112949Y0082754D01*
X0099199Y0093404D02*
Y0092804D01*
X0099599D01*
X0099799D02*
X0099999D01*
X0099899D01*
Y0093404D01*
X0099799Y0093304D01*
X0106699Y0092904D02*
Y0092504D01*
X0106899Y0092304D01*
X0107099Y0092504D01*
Y0092904D01*
X0107299D02*
Y0092304D01*
X0107599D01*
X0107699Y0092404D01*
Y0092804D01*
X0107599Y0092904D01*
X0107299D01*
X0107899Y0092304D02*
X0108099D01*
X0107999D01*
Y0092904D01*
X0107899Y0092804D01*
X0113449Y0088979D02*
Y0088579D01*
X0113749D01*
Y0088779D01*
Y0088579D01*
X0114049D01*
X0113449Y0089179D02*
X0113949D01*
X0114049Y0089279D01*
Y0089479D01*
X0113949Y0089579D01*
X0113449D01*
X0114049Y0089779D02*
Y0089979D01*
Y0089879D01*
X0113449D01*
X0113549Y0089779D01*
X0111118Y0115527D02*
X0111018Y0115427D01*
Y0115227D01*
X0111118Y0115127D01*
X0111518D01*
X0111618Y0115227D01*
Y0115427D01*
X0111518Y0115527D01*
X0111018Y0116126D02*
X0111118Y0115926D01*
X0111318Y0115726D01*
X0111518D01*
X0111618Y0115826D01*
Y0116026D01*
X0111518Y0116126D01*
X0111418D01*
X0111318Y0116026D01*
Y0115726D01*
X0106306Y0115919D02*
X0106206Y0115819D01*
Y0115619D01*
X0106306Y0115519D01*
X0106706D01*
X0106806Y0115619D01*
Y0115819D01*
X0106706Y0115919D01*
X0106206Y0116519D02*
Y0116119D01*
X0106506D01*
X0106406Y0116319D01*
Y0116419D01*
X0106506Y0116519D01*
X0106706D01*
X0106806Y0116419D01*
Y0116219D01*
X0106706Y0116119D01*
X0097599Y0081804D02*
X0097499Y0081904D01*
X0097299D01*
X0097199Y0081804D01*
Y0081404D01*
X0097299Y0081304D01*
X0097499D01*
X0097599Y0081404D01*
X0098199Y0081304D02*
X0097799D01*
X0098199Y0081704D01*
Y0081804D01*
X0098099Y0081904D01*
X0097899D01*
X0097799Y0081804D01*
X0104349Y0091654D02*
X0104249Y0091554D01*
Y0091354D01*
X0104349Y0091254D01*
X0104749D01*
X0104849Y0091354D01*
Y0091554D01*
X0104749Y0091654D01*
X0104849Y0091854D02*
Y0092054D01*
Y0091954D01*
X0104249D01*
X0104349Y0091854D01*
X0114199Y0098404D02*
Y0097904D01*
X0114299Y0097804D01*
X0114499D01*
X0114599Y0097904D01*
Y0098404D01*
X0114799Y0097804D02*
X0114999D01*
X0114899D01*
Y0098404D01*
X0114799Y0098304D01*
D15*
X0113049Y0113254D02*
Y0113454D01*
X0112449Y0113254D02*
Y0113454D01*
X0104549Y0113954D02*
Y0114154D01*
X0105149Y0113954D02*
Y0114154D01*
X0111149Y0097804D02*
X0113749D01*
X0111149Y0098304D02*
X0113749D01*
X0111149Y0097804D02*
Y0098304D01*
X0113749Y0097804D02*
Y0098304D01*
X0108424Y0079879D02*
X0108674D01*
X0108424Y0084579D02*
X0108674D01*
X0111974Y0079879D02*
X0112224D01*
X0111974Y0084579D02*
X0112224D01*
X0108424Y0079879D02*
Y0084579D01*
X0112224Y0079879D02*
Y0084579D01*
M02*
