M48
;Layer_Color=9474304
;FILE_FORMAT=4:3
METRIC,LZ
;TYPE=PLATED
T1F00S00C0.300
T2F00S00C0.650
T3F00S00C1.000
T4F00S00C4.000
T5F00S00C4.500
%
T01
X0099074Y0078879
X0103974Y0078654
X0105474Y0078579
X0106999Y0078654
X0108049Y0079229
X0112449Y0079354
X0112474Y0080929
X0108124Y0080579
X0105299Y0080729
Y0079699
Y0081759
X0104924Y0084629
X0107224Y0083204
X0101924Y0083304
X0099049Y0082079
X0099999Y0080929
X0099099Y0079779
X0095374Y0083554
X0093949Y0085329
X0094849Y0087604
X0100458Y0086354
X0105974Y0088629
X0108524Y0093804
X0108549Y0096654
X0108649Y0097529
X0108449Y0098479
X0102324Y0098329
X0102224Y0097429
X0102349Y0096529
X0102199Y0093804
X0098449
X0099224Y0100279
X0094949Y0100054
X0093449Y0106054
X0095474Y0108579
X0095124Y0112029
X0096324Y0112054
X0099624Y0115579
X0104849Y0117154
X0105574Y0111954
X0109949Y0112654
X0110649Y0115129
X0113449Y0108654
X0110949Y0104554
X0118824Y0103554
X0115199Y0096939
X0112449Y0094054
X0111449
X0086449Y0101554
T02
X0089479Y0085439
Y0086709
Y0087979
X0090749
Y0086709
Y0085439
Y0107129
X0089479
Y0108399
X0090749
Y0109669
X0089479
X0120149Y0108349
Y0107079
Y0105809
X0121419
Y0107079
Y0108349
Y0087974
X0120149
Y0086704
X0121419
Y0085434
X0120149
T03
X0088149Y0103554
X0091049
X0123449
T04
X0088949Y0097554
X0121949
T05
X0105449Y0097554
M30
