G04*
G04 #@! TF.GenerationSoftware,Altium Limited,Altium Designer,20.1.8 (145)*
G04*
G04 Layer_Physical_Order=1*
G04 Layer_Color=255*
%FSTAX43Y43*%
%MOMM*%
G71*
G04*
G04 #@! TF.SameCoordinates,F520C443-D289-43A5-AF8C-D66C243BB58F*
G04*
G04*
G04 #@! TF.FilePolarity,Positive*
G04*
G01*
G75*
%ADD11C,0.500*%
%ADD15C,0.200*%
G04:AMPARAMS|DCode=31|XSize=4.6mm|YSize=2.4mm|CornerRadius=0.6mm|HoleSize=0mm|Usage=FLASHONLY|Rotation=270.000|XOffset=0mm|YOffset=0mm|HoleType=Round|Shape=RoundedRectangle|*
%AMROUNDEDRECTD31*
21,1,4.600,1.200,0,0,270.0*
21,1,3.400,2.400,0,0,270.0*
1,1,1.200,-0.600,-1.700*
1,1,1.200,-0.600,1.700*
1,1,1.200,0.600,1.700*
1,1,1.200,0.600,-1.700*
%
%ADD31ROUNDEDRECTD31*%
G04:AMPARAMS|DCode=32|XSize=1.6mm|YSize=3.2mm|CornerRadius=0.4mm|HoleSize=0mm|Usage=FLASHONLY|Rotation=90.000|XOffset=0mm|YOffset=0mm|HoleType=Round|Shape=RoundedRectangle|*
%AMROUNDEDRECTD32*
21,1,1.600,2.400,0,0,90.0*
21,1,0.800,3.200,0,0,90.0*
1,1,0.800,1.200,0.400*
1,1,0.800,1.200,-0.400*
1,1,0.800,-1.200,-0.400*
1,1,0.800,-1.200,0.400*
%
%ADD32ROUNDEDRECTD32*%
%ADD33R,0.800X0.850*%
G04:AMPARAMS|DCode=34|XSize=0.75mm|YSize=0.6mm|CornerRadius=0.15mm|HoleSize=0mm|Usage=FLASHONLY|Rotation=180.000|XOffset=0mm|YOffset=0mm|HoleType=Round|Shape=RoundedRectangle|*
%AMROUNDEDRECTD34*
21,1,0.750,0.300,0,0,180.0*
21,1,0.450,0.600,0,0,180.0*
1,1,0.300,-0.225,0.150*
1,1,0.300,0.225,0.150*
1,1,0.300,0.225,-0.150*
1,1,0.300,-0.225,-0.150*
%
%ADD34ROUNDEDRECTD34*%
G04:AMPARAMS|DCode=35|XSize=2.25mm|YSize=1.7mm|CornerRadius=0.425mm|HoleSize=0mm|Usage=FLASHONLY|Rotation=270.000|XOffset=0mm|YOffset=0mm|HoleType=Round|Shape=RoundedRectangle|*
%AMROUNDEDRECTD35*
21,1,2.250,0.850,0,0,270.0*
21,1,1.400,1.700,0,0,270.0*
1,1,0.850,-0.425,-0.700*
1,1,0.850,-0.425,0.700*
1,1,0.850,0.425,0.700*
1,1,0.850,0.425,-0.700*
%
%ADD35ROUNDEDRECTD35*%
%ADD36R,1.500X1.800*%
%ADD37R,0.600X1.100*%
G04:AMPARAMS|DCode=38|XSize=0.4mm|YSize=0.75mm|CornerRadius=0.1mm|HoleSize=0mm|Usage=FLASHONLY|Rotation=0.000|XOffset=0mm|YOffset=0mm|HoleType=Round|Shape=RoundedRectangle|*
%AMROUNDEDRECTD38*
21,1,0.400,0.550,0,0,0.0*
21,1,0.200,0.750,0,0,0.0*
1,1,0.200,0.100,-0.275*
1,1,0.200,-0.100,-0.275*
1,1,0.200,-0.100,0.275*
1,1,0.200,0.100,0.275*
%
%ADD38ROUNDEDRECTD38*%
G04:AMPARAMS|DCode=39|XSize=0.75mm|YSize=0.6mm|CornerRadius=0.15mm|HoleSize=0mm|Usage=FLASHONLY|Rotation=90.000|XOffset=0mm|YOffset=0mm|HoleType=Round|Shape=RoundedRectangle|*
%AMROUNDEDRECTD39*
21,1,0.750,0.300,0,0,90.0*
21,1,0.450,0.600,0,0,90.0*
1,1,0.300,0.150,0.225*
1,1,0.300,0.150,-0.225*
1,1,0.300,-0.150,-0.225*
1,1,0.300,-0.150,0.225*
%
%ADD39ROUNDEDRECTD39*%
G04:AMPARAMS|DCode=40|XSize=3.35mm|YSize=1.25mm|CornerRadius=0.313mm|HoleSize=0mm|Usage=FLASHONLY|Rotation=180.000|XOffset=0mm|YOffset=0mm|HoleType=Round|Shape=RoundedRectangle|*
%AMROUNDEDRECTD40*
21,1,3.350,0.625,0,0,180.0*
21,1,2.725,1.250,0,0,180.0*
1,1,0.625,-1.363,0.313*
1,1,0.625,1.363,0.313*
1,1,0.625,1.363,-0.313*
1,1,0.625,-1.363,-0.313*
%
%ADD40ROUNDEDRECTD40*%
G04:AMPARAMS|DCode=41|XSize=2.4mm|YSize=2mm|CornerRadius=0.5mm|HoleSize=0mm|Usage=FLASHONLY|Rotation=0.000|XOffset=0mm|YOffset=0mm|HoleType=Round|Shape=RoundedRectangle|*
%AMROUNDEDRECTD41*
21,1,2.400,1.000,0,0,0.0*
21,1,1.400,2.000,0,0,0.0*
1,1,1.000,0.700,-0.500*
1,1,1.000,-0.700,-0.500*
1,1,1.000,-0.700,0.500*
1,1,1.000,0.700,0.500*
%
%ADD41ROUNDEDRECTD41*%
%ADD42C,0.300*%
%ADD43C,0.350*%
%ADD44C,0.400*%
%ADD45C,0.600*%
%ADD46C,1.000*%
%ADD47C,1.500*%
%ADD48O,8.000X6.500*%
%ADD49C,7.000*%
%ADD50C,0.700*%
%ADD51C,0.600*%
G36*
X0091134Y0109993D02*
X0091171Y0109964D01*
X009121Y0109938D01*
X0091249Y0109916D01*
X009129Y0109897D01*
X0091332Y0109882D01*
X0091375Y0109869D01*
X009142Y0109861D01*
X0091466Y0109856D01*
X0091513Y0109854D01*
X0091521Y0109504D01*
X0091473Y0109502D01*
X0091427Y0109497D01*
X0091383Y0109488D01*
X009134Y0109476D01*
X0091299Y010946D01*
X0091258Y010944D01*
X009122Y0109417D01*
X0091183Y010939D01*
X0091147Y010936D01*
X0091113Y0109326D01*
X0091099Y0110026D01*
X0091134Y0109993D01*
D02*
G37*
G36*
X0119792Y0107999D02*
X0119761Y0108027D01*
X0119729Y0108053D01*
X0119694Y0108076D01*
X0119657Y0108095D01*
X0119618Y0108112D01*
X0119577Y0108125D01*
X0119533Y0108135D01*
X0119488Y0108143D01*
X011944Y0108147D01*
X011939Y0108149D01*
Y0108549D01*
X011944Y010855D01*
X0119488Y0108555D01*
X0119533Y0108562D01*
X0119577Y0108573D01*
X0119618Y0108587D01*
X0119657Y0108603D01*
X0119694Y0108622D01*
X0119729Y0108645D01*
X0119761Y0108671D01*
X0119792Y0108699D01*
Y0107999D01*
D02*
G37*
G36*
X0121811Y0107396D02*
X0121847Y0107366D01*
X0121885Y010734D01*
X0121924Y0107317D01*
X0121964Y0107298D01*
X0122006Y0107282D01*
X0122049Y010727D01*
X0122094Y0107261D01*
X012214Y0107256D01*
X0122187Y0107254D01*
Y0106904D01*
X012214Y0106902D01*
X0122094Y0106897D01*
X0122049Y0106888D01*
X0122006Y0106876D01*
X0121964Y010686D01*
X0121924Y0106841D01*
X0121885Y0106818D01*
X0121847Y0106792D01*
X0121811Y0106762D01*
X0121776Y0106729D01*
Y0107429D01*
X0121811Y0107396D01*
D02*
G37*
G36*
X0120087Y0106583D02*
X0120035Y0106587D01*
X0119984Y0106588D01*
X0119935Y0106585D01*
X0119889Y0106578D01*
X0119845Y0106567D01*
X0119803Y0106552D01*
X0119763Y0106533D01*
X0119725Y0106511D01*
X0119689Y0106484D01*
X0119655Y0106453D01*
X0119469Y0106691D01*
X0119498Y0106723D01*
X0119525Y0106757D01*
X0119549Y0106795D01*
X0119571Y0106835D01*
X0119591Y0106877D01*
X0119608Y0106923D01*
X0119622Y010697D01*
X0119635Y0107021D01*
X0119644Y0107074D01*
X0119651Y010713D01*
X0120087Y0106583D01*
D02*
G37*
G36*
X0089791Y0106732D02*
X0089757Y0106692D01*
X0089727Y0106652D01*
X0089701Y010661D01*
X0089679Y0106569D01*
X0089661Y0106526D01*
X0089647Y0106484D01*
X0089637Y010644D01*
X0089631Y0106396D01*
X0089629Y0106352D01*
X0089329D01*
X0089327Y0106396D01*
X0089321Y010644D01*
X0089311Y0106484D01*
X0089297Y0106526D01*
X0089279Y0106569D01*
X0089257Y010661D01*
X0089231Y0106652D01*
X0089201Y0106692D01*
X0089167Y0106732D01*
X0089129Y0106772D01*
X0089829D01*
X0089791Y0106732D01*
D02*
G37*
G36*
X0119792Y0105459D02*
X0119761Y0105488D01*
X0119729Y0105513D01*
X0119694Y0105535D01*
X0119657Y0105555D01*
X0119618Y0105572D01*
X0119577Y0105585D01*
X0119533Y0105595D01*
X0119488Y0105603D01*
X011944Y0105607D01*
X011939Y0105609D01*
Y0106009D01*
X011944Y010601D01*
X0119488Y0106015D01*
X0119533Y0106022D01*
X0119577Y0106033D01*
X0119618Y0106047D01*
X0119657Y0106063D01*
X0119694Y0106082D01*
X0119729Y0106105D01*
X0119761Y0106131D01*
X0119792Y0106159D01*
Y0105459D01*
D02*
G37*
G36*
X0107458Y0118208D02*
X0108788Y0118035D01*
X0110104Y0117777D01*
X0111401Y0117434D01*
X0112673Y0117008D01*
X0113914Y0116501D01*
X0115121Y0115914D01*
X0116287Y0115251D01*
X0117407Y0114514D01*
X0117738Y0114264D01*
X0117599Y0114028D01*
X0117591Y0114004D01*
X0117578Y0113982D01*
X0117467Y0113665D01*
X0117463Y011364D01*
X0117455Y0113616D01*
X0117408Y0113283D01*
X0117409Y0113258D01*
X0117406Y0113233D01*
X0117424Y0112897D01*
X011743Y0112873D01*
X0117432Y0112847D01*
X0117515Y0112522D01*
X0117526Y0112499D01*
X0117532Y0112474D01*
X0117677Y0112171D01*
X0117693Y0112151D01*
X0117704Y0112128D01*
X0117905Y0111859D01*
X0117924Y0111842D01*
X0117939Y0111822D01*
X0118189Y0111597D01*
X0118211Y0111584D01*
X011823Y0111567D01*
X0118518Y0111395D01*
X0118542Y0111387D01*
X0118564Y0111374D01*
X0118881Y0111261D01*
X0118906Y0111257D01*
X011893Y0111249D01*
X0119262Y01112D01*
X0119288Y0111202D01*
X0119313Y0111198D01*
X0119648Y0111215D01*
X0119673Y0111221D01*
X0119698Y0111222D01*
X0120024Y0111304D01*
X0120047Y0111315D01*
X0120072Y0111321D01*
X0120375Y0111465D01*
X0120396Y011148D01*
X0120419Y0111491D01*
X0120653Y0111665D01*
X0120919Y0111384D01*
X0121745Y0110401D01*
X0122509Y0109368D01*
X0123207Y010829D01*
X0123837Y0107171D01*
X0124397Y0106015D01*
X0124884Y0104827D01*
X0125296Y010361D01*
X0125633Y0102371D01*
X0125892Y0101113D01*
X0126073Y0099842D01*
X0126176Y0098561D01*
X0126198Y0097277D01*
X0126141Y0095994D01*
X0126005Y0094717D01*
X012579Y0093451D01*
X0125706Y0093091D01*
X0125262Y0093157D01*
X0125237Y0093155D01*
X0125211Y0093159D01*
X0124754Y0093137D01*
X0124729Y0093131D01*
X0124704Y0093129D01*
X012426Y0093018D01*
X0124237Y0093007D01*
X0124212Y0093001D01*
X0123798Y0092805D01*
X0123777Y009279D01*
X0123754Y0092779D01*
X0123387Y0092506D01*
X012337Y0092488D01*
X0123349Y0092472D01*
X0123042Y0092133D01*
X0123029Y0092111D01*
X0123011Y0092092D01*
X0122776Y0091699D01*
X0122768Y0091675D01*
X0122755Y0091653D01*
X0122601Y0091222D01*
X0122597Y0091197D01*
X0122588Y0091173D01*
X0122522Y009072D01*
X0122523Y0090695D01*
X0122519Y0090669D01*
X0122542Y0090212D01*
X0122548Y0090187D01*
X012255Y0090162D01*
X0122661Y0089718D01*
X0122672Y0089695D01*
X0122678Y008967D01*
X0122875Y0089257D01*
X012289Y0089236D01*
X0122901Y0089213D01*
X0123174Y0088846D01*
X0123193Y0088829D01*
X0123208Y0088808D01*
X0123548Y0088501D01*
X012357Y0088488D01*
X0123589Y0088471D01*
X0123981Y0088237D01*
X0123819Y0087902D01*
X0123184Y008678D01*
X0122481Y00857D01*
X0122246Y0085384D01*
X0122125Y0085434D01*
X0122125Y0085434D01*
X0122101Y0085616D01*
X012203Y0085787D01*
X0121918Y0085933D01*
X0121844Y008599D01*
Y0086147D01*
X0121918Y0086204D01*
X012203Y0086351D01*
X0122101Y0086521D01*
X0122125Y0086704D01*
X0122101Y0086886D01*
X012203Y0087057D01*
X0121918Y0087203D01*
X0121844Y008726D01*
Y0087417D01*
X0121918Y0087474D01*
X012203Y0087621D01*
X0122101Y0087791D01*
X0122125Y0087974D01*
X0122101Y0088156D01*
X012203Y0088327D01*
X0121918Y0088473D01*
X0121772Y0088585D01*
X0121601Y0088656D01*
X0121419Y008868D01*
X0121236Y0088656D01*
X0121066Y0088585D01*
X0120919Y0088473D01*
X0120914Y0088465D01*
X012091Y0088463D01*
X0120901Y0088458D01*
X0120886Y0088452D01*
X0120866Y0088446D01*
X012084Y008844D01*
X0120812Y0088436D01*
X0120779Y0088433D01*
X0120758Y0088435D01*
X0120727Y008844D01*
X0120701Y0088446D01*
X0120681Y0088452D01*
X0120666Y0088458D01*
X0120657Y0088463D01*
X0120654Y0088465D01*
X0120648Y0088473D01*
X0120502Y0088585D01*
X0120331Y0088656D01*
X0120149Y008868D01*
X0119966Y0088656D01*
X0119796Y0088585D01*
X0119649Y0088473D01*
X0119644Y0088465D01*
X011964Y0088463D01*
X0119631Y0088458D01*
X0119616Y0088452D01*
X0119596Y0088446D01*
X011957Y008844D01*
X0119542Y0088436D01*
X0119508Y0088433D01*
X0117089D01*
Y0092854D01*
X0117074Y0092932D01*
X0117029Y0092998D01*
X0116963Y0093042D01*
X0116885Y0093058D01*
X0116468D01*
X011639Y0093042D01*
X0116324Y0092998D01*
X011628Y0092932D01*
X011627Y0092883D01*
X0095324D01*
X0095246Y0092867D01*
X009518Y0092823D01*
X0095136Y0092757D01*
X009512Y0092679D01*
Y0092479D01*
X0095136Y0092401D01*
X009518Y0092335D01*
X009522Y0092308D01*
Y0079631D01*
X0095111Y0079566D01*
X0094995Y0079628D01*
X0093903Y0080312D01*
X0092855Y0081062D01*
X0091855Y0081875D01*
X0090908Y0082749D01*
X0090017Y0083681D01*
X0089186Y0084665D01*
X0089267Y0084769D01*
X0089296Y0084757D01*
X0089479Y0084733D01*
X0089661Y0084757D01*
X0089832Y0084827D01*
X0089978Y0084939D01*
X0089987Y0084952D01*
X0090114D01*
X0090178Y0084868D01*
X0090345Y008474D01*
X009054Y0084659D01*
X0090749Y0084632D01*
X0090958Y0084659D01*
X0091152Y008474D01*
X0091199Y0084776D01*
X0090643Y0085333D01*
X0090855Y0085545D01*
X0091411Y0084988D01*
X0091448Y0085035D01*
X0091528Y008523D01*
X0091556Y0085439D01*
X0091528Y0085648D01*
X0091448Y0085842D01*
X0091319Y0086009D01*
X0091236Y0086073D01*
Y00862D01*
X0091248Y0086209D01*
X0091256Y008622D01*
X0091336Y0086295D01*
X0091372Y0086324D01*
X0091407Y008635D01*
X0091438Y0086369D01*
X0091466Y0086384D01*
X0091491Y0086394D01*
X0091511Y0086401D01*
X0091523Y0086403D01*
X0093573D01*
X0093573Y0086403D01*
X0093592Y0086387D01*
Y0085806D01*
X009359Y008579D01*
X0093586Y0085774D01*
X0093582Y0085761D01*
X0093578Y008575D01*
X0093574Y0085742D01*
X0093572Y0085738D01*
X0093552Y0085726D01*
X0093431Y0085544D01*
X0093388Y0085329D01*
X0093431Y0085114D01*
X0093552Y0084932D01*
X0093734Y0084811D01*
X0093949Y0084768D01*
X0094164Y0084811D01*
X0094346Y0084932D01*
X0094467Y0085114D01*
X009451Y0085329D01*
X0094467Y0085544D01*
X0094346Y0085726D01*
X0094326Y0085738D01*
X0094324Y0085742D01*
X009432Y008575D01*
X0094316Y0085761D01*
X0094312Y0085774D01*
X0094308Y008579D01*
X0094306Y0085806D01*
Y00863D01*
X0094451Y0086446D01*
X0094529Y0086562D01*
X0094556Y0086698D01*
Y009081D01*
X0094851Y0091105D01*
X0094929Y0091221D01*
X0094956Y0091358D01*
Y009145D01*
Y0099353D01*
X0094929Y0099489D01*
X0094851Y0099605D01*
X0094556Y00999D01*
Y0104104D01*
X0094529Y0104241D01*
X0094451Y0104356D01*
X0092801Y0106006D01*
X0092686Y0106084D01*
X0092549Y0106111D01*
X0089836D01*
Y0106389D01*
X0089837Y0106403D01*
X0089843Y0106429D01*
X0089852Y0106455D01*
X0089863Y0106481D01*
X0089877Y0106508D01*
X0089895Y0106536D01*
X0089917Y0106565D01*
X0089942Y0106595D01*
X0089966Y0106621D01*
X0089978Y0106629D01*
X0089987Y0106642D01*
X0090114D01*
X0090178Y0106558D01*
X0090345Y010643D01*
X009054Y0106349D01*
X0090749Y0106322D01*
X0090958Y0106349D01*
X0091152Y010643D01*
X0091199Y0106466D01*
X0090643Y0107023D01*
X0090855Y0107235D01*
X0091106Y0106984D01*
Y0107479D01*
X0091145Y0107441D01*
X0091185Y0107407D01*
X0091226Y0107377D01*
X0091267Y0107351D01*
X0091309Y0107329D01*
X0091351Y0107311D01*
X0091394Y0107297D01*
X0091437Y0107287D01*
X0091481Y0107281D01*
X0091526Y0107279D01*
Y0106979D01*
X0091481Y0106977D01*
X0091437Y0106971D01*
X0091394Y0106961D01*
X0091351Y0106947D01*
X0091309Y0106929D01*
X0091267Y0106907D01*
X0091226Y0106881D01*
X0091216Y0106873D01*
X0091411Y0106678D01*
X0091448Y0106725D01*
X0091528Y010692D01*
X0091556Y0107129D01*
X0091528Y0107338D01*
X0091448Y0107532D01*
X0091319Y0107699D01*
X0091236Y0107763D01*
Y010789D01*
X0091248Y0107899D01*
X009136Y0108046D01*
X0091431Y0108216D01*
X0091455Y0108399D01*
X0091431Y0108581D01*
X009136Y0108752D01*
X0091248Y0108898D01*
X0091174Y0108955D01*
Y0109112D01*
X0091248Y0109169D01*
X0091259Y0109184D01*
X0091285Y0109209D01*
X0091308Y0109229D01*
X0091332Y0109246D01*
X0091356Y0109261D01*
X009138Y0109272D01*
X0091405Y0109282D01*
X0091432Y010929D01*
X0091459Y0109295D01*
X0091471Y0109297D01*
X0096317D01*
Y0108279D01*
X0096346Y0108133D01*
X0096429Y0108009D01*
X0096979Y0107459D01*
X0097103Y0107376D01*
X0097249Y0107347D01*
X0114291D01*
X0117329Y0104309D01*
X0117453Y0104226D01*
X0117599Y0104197D01*
X0121574D01*
X012172Y0104226D01*
X0121844Y0104309D01*
X0122969Y0105434D01*
X0123052Y0105558D01*
X0123081Y0105704D01*
Y0106874D01*
X0123052Y010702D01*
X0122969Y0107144D01*
X0122764Y0107349D01*
X012264Y0107432D01*
X0122494Y0107461D01*
X0122137D01*
X0122125Y0107463D01*
X0122097Y0107468D01*
X012207Y0107476D01*
X0122044Y0107486D01*
X0122019Y0107497D01*
X0121995Y0107512D01*
X012197Y0107529D01*
X0121946Y0107549D01*
X0121927Y0107567D01*
X0121918Y0107578D01*
X0121844Y0107635D01*
Y0107793D01*
X0121918Y010785D01*
X012203Y0107996D01*
X0122101Y0108166D01*
X0122125Y0108349D01*
X0122101Y0108532D01*
X012203Y0108702D01*
X0121918Y0108848D01*
X0121772Y010896D01*
X0121601Y0109031D01*
X0121419Y0109055D01*
X0121236Y0109031D01*
X0121066Y010896D01*
X0120919Y0108848D01*
X0120862Y0108774D01*
X0120705D01*
X0120648Y0108848D01*
X0120502Y010896D01*
X0120331Y0109031D01*
X0120149Y0109055D01*
X0119966Y0109031D01*
X0119796Y010896D01*
X0119649Y0108848D01*
X0119641Y0108838D01*
X0119628Y0108826D01*
X011961Y0108811D01*
X0119591Y0108799D01*
X0119569Y0108787D01*
X0119546Y0108778D01*
X0119521Y0108769D01*
X0119493Y0108762D01*
X0119462Y0108757D01*
X0119456Y0108757D01*
X0118598D01*
X0116182Y0111173D01*
Y0113729D01*
X0116182Y0113729D01*
X0116151Y0113885D01*
X0116062Y0114017D01*
X0116062Y0114017D01*
X0114412Y0115667D01*
X011428Y0115756D01*
X0114124Y0115787D01*
X0114124Y0115787D01*
X0112768D01*
X0112212Y0116342D01*
X011208Y0116431D01*
X0111924Y0116462D01*
X0111924Y0116462D01*
X0106683D01*
X0106527Y0116431D01*
X0106395Y0116342D01*
X0106395Y0116342D01*
X0106161Y0116108D01*
X0106072Y0115976D01*
X0106041Y011582D01*
X0106041Y011582D01*
Y0115253D01*
X010598Y0115212D01*
X0105449D01*
Y0115404D01*
X0104249D01*
Y0114181D01*
X0104249Y0114154D01*
X0104184Y0114054D01*
X0104149D01*
Y0112726D01*
X0104149Y0112638D01*
X0104035Y0112573D01*
X0103751Y0112856D01*
X0103636Y0112934D01*
X0103499Y0112961D01*
X0103239D01*
X0103232Y0112996D01*
X0103165Y0113095D01*
X0103066Y0113162D01*
X0102949Y0113185D01*
X0102749D01*
X0102632Y0113162D01*
X0102533Y0113095D01*
X0102466Y0112996D01*
X0102443Y0112879D01*
Y0112329D01*
X0102466Y0112212D01*
X0102533Y0112113D01*
X0102632Y0112046D01*
X0102749Y0112023D01*
X0102949D01*
X0103066Y0112046D01*
X0103165Y0112113D01*
X0103232Y0112212D01*
X0103234Y0112224D01*
X010336Y0112238D01*
X0103556Y0112043D01*
Y0111689D01*
X0102962D01*
Y010949D01*
X0103493D01*
Y0109251D01*
X0103528Y0109075D01*
X0103628Y0108926D01*
X0104038Y0108516D01*
X0104187Y0108417D01*
X0104362Y0108382D01*
X0112006D01*
X0112181Y0108417D01*
X011233Y0108516D01*
X011274Y0108926D01*
X011284Y0109075D01*
X0112874Y0109251D01*
Y010949D01*
X0113362D01*
Y0111689D01*
X0111462D01*
Y010949D01*
X0111766D01*
X0111824Y0109363D01*
X0111776Y0109299D01*
X0104592D01*
X0104544Y0109363D01*
X0104602Y010949D01*
X0104862D01*
Y0111689D01*
X0104269D01*
Y0112191D01*
X0104242Y0112327D01*
X0104165Y0112443D01*
X0104118Y011249D01*
X0104183Y0112604D01*
X0104262Y0112604D01*
X0105337D01*
X0104743Y0113198D01*
X0104955Y011341D01*
X0105549Y0112816D01*
Y0114054D01*
X0105514D01*
X0105449Y0114154D01*
X0105449Y0114181D01*
Y0114396D01*
X010598D01*
X0106087Y0114324D01*
X0106224Y0114297D01*
X0106674D01*
X0106811Y0114324D01*
X0106918Y0114396D01*
X0107827D01*
X0107883Y0114313D01*
X0107982Y0114246D01*
X0108099Y0114223D01*
X0108299D01*
X0108416Y0114246D01*
X0108515Y0114313D01*
X0108582Y0114412D01*
X0108605Y0114529D01*
Y0114794D01*
X0108607Y0114804D01*
X0108605Y0114814D01*
Y0115079D01*
X0108582Y0115196D01*
X0108515Y0115295D01*
X0108416Y0115362D01*
X0108299Y0115385D01*
X0108099D01*
X0107982Y0115362D01*
X0107883Y0115295D01*
X0107827Y0115212D01*
X0106918D01*
X0106857Y0115253D01*
Y0115646D01*
X0111755D01*
X0112311Y0115091D01*
X0112311Y0115091D01*
X0112443Y0115002D01*
X0112599Y0114971D01*
X0113955D01*
X0115366Y011356D01*
Y0111004D01*
X0115366Y0111004D01*
X0115397Y0110848D01*
X0115486Y0110716D01*
X0118141Y0108061D01*
X0118273Y0107972D01*
X0118429Y0107941D01*
X0118429Y0107941D01*
X0119456D01*
X0119462Y0107941D01*
X0119493Y0107936D01*
X0119521Y0107929D01*
X0119546Y010792D01*
X0119569Y0107911D01*
X0119591Y0107899D01*
X011961Y0107887D01*
X0119628Y0107872D01*
X0119641Y010786D01*
X0119649Y010785D01*
X0119661Y0107841D01*
Y0107778D01*
X0120255Y0107185D01*
X0120043Y0106973D01*
X0119486Y010753D01*
X011945Y0107482D01*
X0119369Y0107288D01*
X0119342Y0107079D01*
X0119369Y010687D01*
X011945Y0106676D01*
X0119578Y0106508D01*
X0119661Y0106444D01*
Y0106317D01*
X0119649Y0106308D01*
X0119641Y0106298D01*
X0119628Y0106286D01*
X011961Y0106271D01*
X0119591Y0106259D01*
X0119569Y0106247D01*
X0119546Y0106238D01*
X0119521Y0106229D01*
X0119493Y0106222D01*
X0119462Y0106217D01*
X0119456Y0106217D01*
X0118363D01*
X0114357Y0110223D01*
Y0113754D01*
X0114357Y0113754D01*
X0114326Y011391D01*
X0114237Y0114042D01*
X0114237Y0114042D01*
X0113962Y0114317D01*
X011383Y0114406D01*
X0113674Y0114437D01*
X0113674Y0114437D01*
X0113349D01*
Y0114704D01*
X0112149D01*
Y0114692D01*
X0112051Y0114611D01*
X0112049Y0114612D01*
X0112049Y0114612D01*
X0111618D01*
X0111511Y0114684D01*
X0111374Y0114711D01*
X0110924D01*
X0110787Y0114684D01*
X011068Y0114612D01*
X0109961D01*
X0109907Y0114666D01*
Y0114804D01*
X0109905Y0114814D01*
Y0115079D01*
X0109882Y0115196D01*
X0109815Y0115295D01*
X0109716Y0115362D01*
X0109599Y0115385D01*
X0109399D01*
X0109282Y0115362D01*
X0109183Y0115295D01*
X0109116Y0115196D01*
X0109093Y0115079D01*
Y0114814D01*
X0109091Y0114804D01*
Y0114497D01*
X0109091Y0114497D01*
X0109122Y0114341D01*
X0109211Y0114209D01*
X0109504Y0113916D01*
X0109504Y0113916D01*
X0109636Y0113827D01*
X0109792Y0113796D01*
X011068D01*
X0110787Y0113724D01*
X0110924Y0113697D01*
X0111374D01*
X0111511Y0113724D01*
X0111618Y0113796D01*
X011188D01*
X0111911Y0113766D01*
X0111911Y0113766D01*
X0112043Y0113677D01*
X0112149Y0113656D01*
Y0113481D01*
X0112149Y0113454D01*
X0112084Y0113354D01*
X0112049D01*
Y0112116D01*
X0112643Y011271D01*
X0112855Y0112498D01*
X0112261Y0111904D01*
X0113414D01*
X0113449Y0111904D01*
X0113541Y011182D01*
Y0110054D01*
X0113541Y0110054D01*
X0113572Y0109898D01*
X0113661Y0109766D01*
X0117906Y0105521D01*
X0117906Y0105521D01*
X0118038Y0105432D01*
X0118194Y0105401D01*
X0118194Y0105401D01*
X0119456D01*
X0119462Y0105401D01*
X0119493Y0105396D01*
X0119521Y0105389D01*
X0119546Y010538D01*
X0119569Y0105371D01*
X0119591Y0105359D01*
X011961Y0105347D01*
X0119628Y0105332D01*
X0119641Y010532D01*
X0119649Y010531D01*
X0119796Y0105198D01*
X0119966Y0105127D01*
X0120149Y0105103D01*
X0120331Y0105127D01*
X0120502Y0105198D01*
X0120648Y010531D01*
X0120705Y0105384D01*
X0120862D01*
X0120919Y010531D01*
X0121066Y0105198D01*
X0121236Y0105127D01*
X0121264Y0105123D01*
X0121329Y0104987D01*
X0121313Y0104961D01*
X0117757D01*
X0114719Y0107999D01*
X0114595Y0108082D01*
X0114449Y0108111D01*
X0097407D01*
X0097081Y0108437D01*
Y0109679D01*
Y0110896D01*
X0097755Y011157D01*
X0097882Y0111517D01*
Y010949D01*
X0099782D01*
Y0111689D01*
X0099231D01*
Y0111872D01*
X0099256Y0111897D01*
X0100276D01*
X0100322Y0111789D01*
X0100322Y011177D01*
Y0109602D01*
X0101266Y0110546D01*
X0101372Y0110439D01*
X0101478Y0110546D01*
X0102422Y0109602D01*
Y0111577D01*
X0101478Y0110633D01*
X0101266Y0110846D01*
X010221Y0111789D01*
X0100759D01*
X0100746Y0111916D01*
X0100786Y0111924D01*
X0100901Y0112002D01*
X0101058Y0112158D01*
X0101216Y0112137D01*
X0101233Y0112113D01*
X0101332Y0112046D01*
X0101449Y0112023D01*
X0101649D01*
X0101766Y0112046D01*
X0101865Y0112113D01*
X0101932Y0112212D01*
X0101955Y0112329D01*
Y0112879D01*
X0101932Y0112996D01*
X0101865Y0113095D01*
X0101766Y0113162D01*
X0101649Y0113185D01*
X0101449D01*
X0101332Y0113162D01*
X0101233Y0113095D01*
X0101166Y0112996D01*
X0101159Y0112961D01*
X0100999D01*
X0100862Y0112934D01*
X0100747Y0112856D01*
X0100501Y0112611D01*
X0100168D01*
X0100155Y0112738D01*
X0100293Y0112765D01*
X01005Y0112903D01*
X0100638Y011311D01*
X0100686Y0113354D01*
Y0113679D01*
X0100795Y0113701D01*
X0100919Y0113784D01*
X0101257Y0114122D01*
X0101814D01*
X0101816Y0114112D01*
X0101883Y0114013D01*
X0101982Y0113946D01*
X0102099Y0113923D01*
X0102299D01*
X0102416Y0113946D01*
X0102515Y0114013D01*
X0102582Y0114112D01*
X0102605Y0114229D01*
Y0114779D01*
X0102582Y0114896D01*
X0102515Y0114995D01*
X0102416Y0115062D01*
X0102299Y0115085D01*
X0102099D01*
X0101982Y0115062D01*
X0101883Y0114995D01*
X0101816Y0114896D01*
X0101814Y0114886D01*
X0101099D01*
X0100953Y0114857D01*
X0100829Y0114774D01*
X0100805Y0114751D01*
X0100677Y0114802D01*
X0100638Y0114998D01*
X01005Y0115205D01*
X0100293Y0115343D01*
X0100232Y0115355D01*
X0100161Y011546D01*
X0100185Y0115579D01*
X0100142Y0115794D01*
X0100021Y0115976D01*
X0099839Y0116097D01*
X0099624Y011614D01*
X0099409Y0116097D01*
X0099227Y0115976D01*
X0099106Y0115794D01*
X0099063Y0115579D01*
X0099087Y011546D01*
X0099016Y0115355D01*
X0098955Y0115343D01*
X0098748Y0115205D01*
X009861Y0114998D01*
X0098562Y0114754D01*
Y0114436D01*
X0098492D01*
X0098346Y0114407D01*
X0098222Y0114324D01*
X0097957Y011406D01*
X0097844Y0114096D01*
X009783Y0114107D01*
Y0114754D01*
X0097805Y0114943D01*
X0097732Y011512D01*
X0097708Y0115151D01*
X009678Y0114223D01*
X0096674Y0114329D01*
X0096568Y0114223D01*
X009564Y0115151D01*
X0095616Y011512D01*
X0095543Y0114943D01*
X0095518Y0114754D01*
Y0113354D01*
X0095543Y0113165D01*
X0095616Y0112988D01*
X009564Y0112957D01*
X0096568Y0113885D01*
X0096674Y0113779D01*
X009678Y0113885D01*
X0097754Y0112911D01*
X0097817Y011289D01*
Y0112712D01*
X0096429Y0111324D01*
X0096429Y0111324D01*
X0096346Y01112D01*
X0096317Y0111054D01*
Y0110061D01*
X0091462D01*
X0091451Y0110063D01*
X0091422Y0110068D01*
X0091395Y0110076D01*
X0091368Y0110086D01*
X0091342Y0110097D01*
X0091317Y0110112D01*
X0091292Y0110129D01*
X0091266Y0110149D01*
X0091254Y011016D01*
X0091248Y0110168D01*
X0091102Y011028D01*
X0090931Y0110351D01*
X0090749Y0110375D01*
X0090566Y0110351D01*
X0090396Y011028D01*
X0090249Y0110168D01*
X0090192Y0110094D01*
X0090035D01*
X0089978Y0110168D01*
X0089832Y011028D01*
X0089661Y0110351D01*
X0089479Y0110375D01*
X0089296Y0110351D01*
X0089266Y0110338D01*
X0089189Y0110444D01*
X008998Y0111385D01*
X0090246Y0111665D01*
X0090466Y0111499D01*
X0090489Y0111488D01*
X0090509Y0111473D01*
X0090813Y0111326D01*
X0090837Y011132D01*
X009086Y0111309D01*
X0091186Y0111224D01*
X0091212Y0111223D01*
X0091237Y0111216D01*
X0091573Y0111197D01*
X0091598Y0111201D01*
X0091624Y0111199D01*
X0091957Y0111246D01*
X0091981Y0111254D01*
X0092007Y0111258D01*
X0092325Y0111369D01*
X0092347Y0111382D01*
X0092371Y011139D01*
X0092661Y0111561D01*
X009268Y0111578D01*
X0092702Y0111591D01*
X0092953Y0111815D01*
X0092969Y0111836D01*
X0092988Y0111853D01*
X0093191Y0112121D01*
X0093202Y0112144D01*
X0093217Y0112165D01*
X0093364Y0112468D01*
X009337Y0112493D01*
X0093381Y0112516D01*
X0093466Y0112842D01*
X0093467Y0112867D01*
X0093473Y0112892D01*
X0093493Y0113228D01*
X0093489Y0113254D01*
X0093491Y0113279D01*
X0093444Y0113613D01*
X0093435Y0113637D01*
X0093432Y0113662D01*
X0093321Y011398D01*
X0093308Y0114002D01*
X00933Y0114026D01*
X009316Y0114264D01*
X0093491Y0114514D01*
X0094611Y0115251D01*
X0095777Y0115914D01*
X0096984Y0116501D01*
X0098225Y0117008D01*
X0099497Y0117434D01*
X0100794Y0117777D01*
X010211Y0118035D01*
X010344Y0118208D01*
X0104778Y0118295D01*
X010612Y0118295D01*
X0107458Y0118208D01*
D02*
G37*
G36*
X0091666Y0103998D02*
X0091819Y0103862D01*
X009189Y0103807D01*
X0091957Y010376D01*
X0092021Y0103722D01*
X0092082Y0103692D01*
X0092139Y0103671D01*
X0092192Y0103658D01*
X0092242Y0103654D01*
Y0103454D01*
X0092192Y010345D01*
X0092139Y0103437D01*
X0092082Y0103416D01*
X0092021Y0103386D01*
X0091957Y0103348D01*
X009189Y0103301D01*
X0091819Y0103246D01*
X0091666Y010311D01*
X0091585Y0103029D01*
Y0104079D01*
X0091666Y0103998D01*
D02*
G37*
G36*
X0088773Y0109674D02*
X0088773Y0109669D01*
X0088797Y0109486D01*
X0088867Y0109316D01*
X0088979Y0109169D01*
X0089054Y0109112D01*
Y0108955D01*
X0088979Y0108898D01*
X0088867Y0108752D01*
X0088797Y0108581D01*
X0088773Y0108399D01*
X0088797Y0108216D01*
X0088867Y0108046D01*
X0088979Y0107899D01*
X0089054Y0107842D01*
Y0107685D01*
X0088979Y0107628D01*
X0088867Y0107482D01*
X0088797Y0107311D01*
X0088773Y0107129D01*
X0088797Y0106946D01*
X0088867Y0106776D01*
X0088979Y0106629D01*
X0088991Y0106621D01*
X0089015Y0106595D01*
X0089041Y0106565D01*
X0089062Y0106536D01*
X008908Y0106508D01*
X0089094Y0106481D01*
X0089106Y0106455D01*
X0089114Y0106429D01*
X008912Y0106403D01*
X0089122Y0106389D01*
Y010593D01*
X0089149Y0105793D01*
X0089226Y0105677D01*
X0089402Y0105502D01*
X0089518Y0105424D01*
X0089654Y0105397D01*
X0092401D01*
X0093842Y0103956D01*
Y0102859D01*
X0093725Y0102811D01*
X0092765Y010377D01*
X0092666Y0103837D01*
X0092549Y010386D01*
X0092549Y010386D01*
X0092228D01*
X0092225Y010386D01*
X0092198Y0103866D01*
X0092163Y010388D01*
X0092119Y0103901D01*
X0092068Y0103932D01*
X0092011Y0103971D01*
X0091949Y0104019D01*
X0091806Y0104147D01*
X0091746Y0104206D01*
X0091727Y0104232D01*
X0091528Y0104384D01*
X0091297Y010448D01*
X0091049Y0104512D01*
X0090801Y010448D01*
X009057Y0104384D01*
X0090371Y0104232D01*
X0090219Y0104033D01*
X0090123Y0103802D01*
X0090091Y0103554D01*
X0090123Y0103306D01*
X0090219Y0103075D01*
X0090371Y0102876D01*
X009057Y0102724D01*
X0090801Y0102628D01*
X0091049Y0102596D01*
X0091297Y0102628D01*
X0091528Y0102724D01*
X0091727Y0102876D01*
X0091746Y0102902D01*
X0091806Y0102961D01*
X0091949Y0103089D01*
X0092011Y0103137D01*
X0092068Y0103176D01*
X0092119Y0103207D01*
X0092163Y0103228D01*
X0092198Y0103242D01*
X0092225Y0103248D01*
X0092228Y0103248D01*
X0092422D01*
X0093443Y0102227D01*
Y0101549D01*
X0093326Y01015D01*
X009262Y0102206D01*
X0092504Y0102284D01*
X0092367Y0102311D01*
X0088586D01*
X0088512Y0102436D01*
X0088525Y0102476D01*
X0088544Y0102521D01*
X008857Y010257D01*
X0088603Y0102624D01*
X0088643Y0102679D01*
X0088753Y0102808D01*
X0088802Y0102857D01*
X0088827Y0102876D01*
X0088979Y0103075D01*
X0089075Y0103306D01*
X0089107Y0103554D01*
X0089075Y0103802D01*
X0088979Y0104033D01*
X0088827Y0104232D01*
X0088628Y0104384D01*
X0088397Y010448D01*
X0088149Y0104512D01*
X0087901Y010448D01*
X008767Y0104384D01*
X0087471Y0104232D01*
X0087319Y0104033D01*
X0087223Y0103802D01*
X0087191Y0103554D01*
X0087223Y0103306D01*
X0087319Y0103075D01*
X0087471Y0102876D01*
X0087493Y010286D01*
X0087605Y010274D01*
X0087653Y0102681D01*
X0087695Y0102624D01*
X0087728Y010257D01*
X0087754Y0102521D01*
X0087773Y0102476D01*
X0087786Y0102436D01*
X0087792Y0102403D01*
Y010213D01*
X0087819Y0101993D01*
X0087897Y0101877D01*
X0088072Y0101702D01*
X0088188Y0101624D01*
X0088235Y0101615D01*
X0088238Y0101485D01*
X0087713Y0101359D01*
X0087133Y0101119D01*
X0086598Y0100791D01*
X008612Y0100383D01*
X0085712Y0099906D01*
X0085384Y009937D01*
X0085144Y009879D01*
X0084998Y009818D01*
X0084948Y0097554D01*
X0084998Y0096928D01*
X0085144Y0096318D01*
X0085384Y0095738D01*
X0085712Y0095202D01*
X008612Y0094725D01*
X0086598Y0094317D01*
X0087133Y0093989D01*
X0087713Y0093749D01*
X0088323Y0093603D01*
X0088949Y0093553D01*
X0089575Y0093603D01*
X0090185Y0093749D01*
X0090765Y0093989D01*
X00913Y0094317D01*
X0091778Y0094725D01*
X0092186Y0095202D01*
X0092514Y0095738D01*
X0092754Y0096318D01*
X00929Y0096928D01*
X009295Y0097554D01*
X00929Y009818D01*
X0092754Y009879D01*
X0092514Y009937D01*
X0092186Y0099906D01*
X0091778Y0100383D01*
X00913Y0100791D01*
X0090765Y0101119D01*
X0090185Y0101359D01*
X0089722Y010147D01*
X0089737Y0101597D01*
X0092219D01*
X0092942Y0100874D01*
Y009931D01*
X0092969Y0099174D01*
X0093047Y0099058D01*
X0093342Y0098762D01*
Y0091902D01*
X0092997Y0091557D01*
X0092919Y0091441D01*
X0092892Y0091304D01*
Y0088336D01*
X0091488D01*
X0091474Y0088338D01*
X0091449Y0088343D01*
X0091423Y0088352D01*
X0091396Y0088363D01*
X0091369Y0088377D01*
X0091341Y0088395D01*
X0091312Y0088417D01*
X0091282Y0088442D01*
X0091257Y0088466D01*
X0091248Y0088478D01*
X0091102Y008859D01*
X0090931Y0088661D01*
X0090749Y0088685D01*
X0090566Y0088661D01*
X0090396Y008859D01*
X0090249Y0088478D01*
X0090192Y0088404D01*
X0090035D01*
X0089978Y0088478D01*
X0089832Y008859D01*
X0089661Y0088661D01*
X0089479Y0088685D01*
X0089296Y0088661D01*
X0089126Y008859D01*
X0088979Y0088478D01*
X0088867Y0088332D01*
X0088797Y0088161D01*
X0088773Y0087979D01*
X0088797Y0087796D01*
X0088867Y0087626D01*
X0088979Y0087479D01*
X0089054Y0087422D01*
Y0087265D01*
X0088979Y0087208D01*
X0088867Y0087062D01*
X0088797Y0086891D01*
X0088773Y0086709D01*
X0088797Y0086526D01*
X0088867Y0086356D01*
X0088979Y0086209D01*
X0089054Y0086152D01*
Y0085995D01*
X0088979Y0085938D01*
X0088867Y0085792D01*
X0088797Y0085621D01*
X0088773Y0085439D01*
X0088773Y0085433D01*
X0088652Y0085384D01*
X0088417Y00857D01*
X0087714Y008678D01*
X008708Y0087901D01*
X0086919Y0088231D01*
X0086923Y0088239D01*
X0087315Y0088475D01*
X0087334Y0088492D01*
X0087356Y0088505D01*
X0087694Y0088813D01*
X0087709Y0088833D01*
X0087728Y008885D01*
X0088Y0089218D01*
X0088011Y0089241D01*
X0088027Y0089261D01*
X0088222Y0089675D01*
X0088228Y00897D01*
X0088239Y0089723D01*
X008835Y0090167D01*
X0088351Y0090192D01*
X0088357Y0090217D01*
X0088379Y0090674D01*
X0088375Y0090699D01*
X0088377Y0090725D01*
X0088309Y0091177D01*
X00883Y0091201D01*
X0088297Y0091226D01*
X0088142Y0091657D01*
X0088129Y0091679D01*
X0088121Y0091703D01*
X0087885Y0092095D01*
X0087868Y0092114D01*
X0087855Y0092136D01*
X0087547Y0092474D01*
X0087527Y0092489D01*
X008751Y0092508D01*
X0087142Y0092781D01*
X0087119Y0092791D01*
X0087098Y0092807D01*
X0086685Y0093002D01*
X008666Y0093008D01*
X0086637Y0093019D01*
X0086193Y009313D01*
X0086168Y0093131D01*
X0086143Y0093137D01*
X0085686Y0093159D01*
X0085661Y0093155D01*
X0085635Y0093157D01*
X0085192Y009309D01*
X0085108Y0093451D01*
X0084893Y0094717D01*
X0084757Y0095994D01*
X00847Y0097277D01*
X0084722Y0098562D01*
X0084825Y0099842D01*
X0085006Y0101114D01*
X0085265Y0102371D01*
X0085602Y0103611D01*
X0086014Y0104827D01*
X0086502Y0106016D01*
X0087061Y0107172D01*
X0087692Y0108291D01*
X008839Y0109369D01*
X0088652Y0109723D01*
X0088773Y0109674D01*
D02*
G37*
G36*
X0088603Y0102946D02*
X0088483Y0102806D01*
X0088434Y0102738D01*
X0088393Y0102672D01*
X0088359Y0102608D01*
X0088333Y0102546D01*
X0088314Y0102485D01*
X0088303Y0102426D01*
X0088299Y0102369D01*
X0087999D01*
X0087995Y0102426D01*
X0087984Y0102485D01*
X0087965Y0102546D01*
X0087939Y0102608D01*
X0087905Y0102672D01*
X0087864Y0102738D01*
X0087815Y0102806D01*
X0087759Y0102875D01*
X0087624Y0103018D01*
X0088674D01*
X0088603Y0102946D01*
D02*
G37*
G36*
X0121061Y0087624D02*
X012104Y0087643D01*
X0121015Y008766D01*
X0120986Y0087675D01*
X0120954Y0087688D01*
X0120918Y0087699D01*
X0120879Y0087708D01*
X0120836Y0087715D01*
X0120791Y008772D01*
X0120731Y0087715D01*
X0120688Y0087708D01*
X0120649Y0087699D01*
X0120613Y0087688D01*
X0120581Y0087675D01*
X0120552Y008766D01*
X0120527Y0087643D01*
X0120506Y0087624D01*
X0120506Y0088324D01*
X0120527Y0088305D01*
X0120552Y0088288D01*
X0120581Y0088273D01*
X0120613Y008826D01*
X0120649Y0088249D01*
X0120688Y008824D01*
X0120731Y0088233D01*
X0120777Y0088228D01*
X0120836Y0088233D01*
X0120879Y008824D01*
X0120919Y0088249D01*
X0120955Y008826D01*
X0120987Y0088273D01*
X0121015Y0088288D01*
X012104Y0088305D01*
X0121062Y0088324D01*
X0121061Y0087624D01*
D02*
G37*
G36*
X0091145Y0088291D02*
X0091185Y0088257D01*
X0091226Y0088227D01*
X0091267Y0088201D01*
X0091309Y0088179D01*
X0091351Y0088161D01*
X0091394Y0088147D01*
X0091437Y0088137D01*
X0091481Y0088131D01*
X0091526Y0088129D01*
Y0087829D01*
X0091481Y0087827D01*
X0091437Y0087821D01*
X0091394Y0087811D01*
X0091351Y0087797D01*
X0091309Y0087779D01*
X0091267Y0087757D01*
X0091226Y0087731D01*
X0091185Y0087701D01*
X0091145Y0087667D01*
X0091106Y0087629D01*
Y0088329D01*
X0091145Y0088291D01*
D02*
G37*
G36*
X0119791Y0087624D02*
X011977Y0087643D01*
X0119745Y008766D01*
X0119716Y0087675D01*
X0119684Y0087688D01*
X0119648Y0087699D01*
X0119609Y0087708D01*
X0119566Y0087715D01*
X011952Y008772D01*
X0119416Y0087724D01*
X0119416Y0088224D01*
X011947Y0088225D01*
X0119566Y0088233D01*
X0119609Y008824D01*
X0119649Y0088249D01*
X0119685Y008826D01*
X0119717Y0088273D01*
X0119745Y0088288D01*
X011977Y0088305D01*
X0119792Y0088324D01*
X0119791Y0087624D01*
D02*
G37*
G36*
X0091154Y0087011D02*
X0091248Y0086931D01*
X0091293Y0086899D01*
X0091337Y0086871D01*
X0091379Y0086849D01*
X0091421Y0086831D01*
X0091461Y0086819D01*
X00915Y0086811D01*
X0091539Y0086809D01*
Y0086609D01*
X00915Y0086606D01*
X0091461Y0086599D01*
X0091421Y0086586D01*
X0091379Y0086569D01*
X0091337Y0086546D01*
X0091293Y0086519D01*
X0091248Y0086486D01*
X0091202Y0086449D01*
X0091106Y0086359D01*
Y0087059D01*
X0091154Y0087011D01*
D02*
G37*
G36*
X0116264Y0088428D02*
X011628Y008835D01*
X0116324Y0088284D01*
X0116324Y0088284D01*
Y0087611D01*
X0116305Y0087598D01*
X0116261Y0087532D01*
X0116245Y0087454D01*
Y0085867D01*
X0116118Y0085855D01*
X011462Y0087353D01*
X0114471Y0087453D01*
X0114295Y0087488D01*
X0113005D01*
X0112994Y0087541D01*
X0112881Y0087711D01*
X0112711Y0087824D01*
X0112511Y0087864D01*
X0109786D01*
X0109587Y0087824D01*
X0109417Y0087711D01*
X0109304Y0087541D01*
X0109264Y0087341D01*
Y0086716D01*
X0109304Y0086517D01*
X0109417Y0086347D01*
X0109587Y0086234D01*
X0109786Y0086194D01*
X0112511D01*
X0112711Y0086234D01*
X0112881Y0086347D01*
X0112994Y0086517D01*
X0113005Y008657D01*
X0114105D01*
X0115561Y0085114D01*
X011571Y0085015D01*
X0115886Y008498D01*
X0116061Y0085015D01*
X0116085Y0085031D01*
X0116182D01*
X0116245Y0084954D01*
Y0080229D01*
X0116261Y0080151D01*
X0116305Y0080085D01*
X0116324Y0080072D01*
Y0079892D01*
X0115903Y0079629D01*
X011477Y0079014D01*
X0113602Y0078472D01*
X0112401Y0078002D01*
X0111174Y0077608D01*
X0109925Y0077291D01*
X0108659Y0077053D01*
X010738Y0076893D01*
X0106094Y0076813D01*
X0104805Y0076813D01*
X0103519Y0076893D01*
X010224Y0077053D01*
X0100974Y0077291D01*
X0099724Y0077608D01*
X0098497Y0078002D01*
X0097297Y0078471D01*
X0096128Y0079014D01*
X0096019Y0079073D01*
X0096012Y0079101D01*
X0096028Y0079179D01*
Y0087535D01*
X0096155Y008756D01*
X00962Y0087451D01*
X0096328Y0087283D01*
X0096496Y0087155D01*
X009669Y0087075D01*
X0096899Y0087047D01*
X0097582D01*
X009954Y0085089D01*
Y0084121D01*
X0098695D01*
X0098461Y0084074D01*
X0098262Y0083941D01*
X009813Y0083743D01*
X0098083Y0083509D01*
Y0082709D01*
X009813Y0082475D01*
X0098262Y0082276D01*
X0098461Y0082144D01*
X0098492Y0082097D01*
X0098488Y0082079D01*
X0098531Y0081864D01*
X0098652Y0081682D01*
X0098834Y0081561D01*
X0099049Y0081518D01*
X0099264Y0081561D01*
X0099413Y0081661D01*
X009954Y0081613D01*
Y0081232D01*
X0099481Y0081144D01*
X0099438Y0080929D01*
X0099481Y0080714D01*
X0099602Y0080532D01*
X0099784Y0080411D01*
X0099999Y0080368D01*
X0100214Y0080411D01*
X0100396Y0080532D01*
X0100517Y0080714D01*
X010056Y0080929D01*
X0100517Y0081144D01*
X0100458Y0081232D01*
Y0082097D01*
X0101095D01*
X0101329Y0082144D01*
X0101528Y0082276D01*
X010166Y0082475D01*
X0101697Y0082659D01*
X0101792Y0082744D01*
X0101834Y0082761D01*
X0101924Y0082743D01*
X0102139Y0082786D01*
X0102321Y0082907D01*
X0102442Y0083089D01*
X0102485Y0083304D01*
X0102442Y0083519D01*
X0102321Y0083701D01*
X0102139Y0083822D01*
X0101924Y0083865D01*
X0101709Y0083822D01*
X0101639Y0083775D01*
X0101528Y0083941D01*
X0101329Y0084074D01*
X0101095Y0084121D01*
X0100458D01*
Y0085279D01*
X0100423Y0085455D01*
X0100323Y0085603D01*
X0098668Y0087259D01*
X009867Y0087283D01*
X0098798Y0087451D01*
X0098878Y0087645D01*
X0098906Y0087854D01*
Y0091254D01*
X0098878Y0091463D01*
X0098798Y0091657D01*
X009867Y0091825D01*
X0098502Y0091953D01*
X0098308Y0092033D01*
X0098099Y0092061D01*
X0096899D01*
X009669Y0092033D01*
X0096496Y0091953D01*
X0096328Y0091825D01*
X00962Y0091657D01*
X0096155Y0091548D01*
X0096028Y0091573D01*
Y0092275D01*
X0116264D01*
Y0088428D01*
D02*
G37*
G36*
X0119539Y0087513D02*
X011957Y0087508D01*
X0119596Y0087502D01*
X0119616Y0087496D01*
X0119631Y008749D01*
X011964Y0087485D01*
X0119643Y0087483D01*
X0119649Y0087474D01*
X0119724Y0087417D01*
Y008726D01*
X0119649Y0087203D01*
X0119537Y0087057D01*
X0119467Y0086886D01*
X0119443Y0086704D01*
X0119467Y0086521D01*
X0119537Y0086351D01*
X0119649Y0086204D01*
X0119724Y0086147D01*
Y008599D01*
X0119649Y0085933D01*
X0119646Y0085929D01*
X0119645Y0085928D01*
X0119635Y0085923D01*
X011962Y0085917D01*
X01196Y0085911D01*
X0119574Y0085905D01*
X0119545Y00859D01*
X0119512Y0085898D01*
X0118903D01*
X0118728Y0085863D01*
X0118704Y0085847D01*
X0117076D01*
X011707Y0085854D01*
Y0087454D01*
X011712Y0087515D01*
X0119517D01*
X0119539Y0087513D01*
D02*
G37*
G36*
X0121061Y0085084D02*
X012104Y0085103D01*
X0121015Y008512D01*
X0120986Y0085135D01*
X0120954Y0085148D01*
X0120918Y0085159D01*
X0120879Y0085168D01*
X0120836Y0085175D01*
X0120791Y008518D01*
X0120731Y0085175D01*
X0120688Y0085168D01*
X0120649Y0085159D01*
X0120613Y0085148D01*
X0120581Y0085135D01*
X0120552Y008512D01*
X0120527Y0085103D01*
X0120506Y0085084D01*
X0120506Y0085784D01*
X0120527Y0085765D01*
X0120552Y0085748D01*
X0120581Y0085733D01*
X0120613Y008572D01*
X0120649Y0085709D01*
X0120688Y00857D01*
X0120731Y0085693D01*
X0120777Y0085688D01*
X0120836Y0085693D01*
X0120879Y00857D01*
X0120919Y0085709D01*
X0120955Y008572D01*
X0120987Y0085733D01*
X0121015Y0085748D01*
X012104Y0085765D01*
X0121062Y0085784D01*
X0121061Y0085084D01*
D02*
G37*
G36*
X00941Y008582D02*
X0094103Y0085786D01*
X0094108Y0085753D01*
X0094114Y0085723D01*
X0094123Y0085695D01*
X0094133Y0085668D01*
X0094146Y0085643D01*
X009416Y008562D01*
X0094176Y0085598D01*
X0094194Y0085579D01*
X0093704D01*
X0093722Y0085598D01*
X0093738Y008562D01*
X0093752Y0085643D01*
X0093765Y0085668D01*
X0093775Y0085695D01*
X0093784Y0085723D01*
X009379Y0085753D01*
X0093795Y0085786D01*
X0093798Y008582D01*
X0093799Y0085855D01*
X0094099D01*
X00941Y008582D01*
D02*
G37*
G36*
X0119788Y0085087D02*
X0119767Y0085107D01*
X0119742Y0085124D01*
X0119713Y0085139D01*
X0119681Y0085152D01*
X0119646Y0085163D01*
X0119606Y0085173D01*
X0119563Y008518D01*
X0119517Y0085185D01*
X0119413Y0085189D01*
X0119419Y0085689D01*
X0119472Y008569D01*
X0119569Y0085698D01*
X0119612Y0085704D01*
X0119652Y0085713D01*
X0119688Y0085724D01*
X011972Y0085737D01*
X0119749Y0085752D01*
X0119774Y0085769D01*
X0119795Y0085787D01*
X0119788Y0085087D01*
D02*
G37*
G36*
X0090744Y0084939D02*
X0090689Y0084938D01*
X0090637Y0084933D01*
X0090587Y0084926D01*
X0090539Y0084915D01*
X0090494Y0084901D01*
X0090451Y0084884D01*
X0090411Y0084864D01*
X0090374Y008484D01*
X0090338Y0084813D01*
X0090305Y0084783D01*
X0090093Y0084995D01*
X0090123Y0085028D01*
X009015Y0085064D01*
X0090174Y0085101D01*
X0090194Y0085142D01*
X0090211Y0085184D01*
X0090225Y0085229D01*
X0090236Y0085277D01*
X0090243Y0085327D01*
X0090248Y0085379D01*
X0090249Y0085434D01*
X0090744Y0084939D01*
D02*
G37*
G36*
X0118723Y008501D02*
X0118899Y0084975D01*
X0118923Y008498D01*
X0119513D01*
X0119536Y0084978D01*
X0119567Y0084972D01*
X0119592Y0084966D01*
X0119612Y008496D01*
X0119627Y0084954D01*
X0119636Y0084949D01*
X011964Y0084947D01*
X0119641Y0084945D01*
X0119649Y0084934D01*
X0119796Y0084822D01*
X0119966Y0084752D01*
X0120149Y0084728D01*
X0120331Y0084752D01*
X0120502Y0084822D01*
X0120648Y0084934D01*
X0120654Y0084943D01*
X0120657Y0084945D01*
X0120667Y008495D01*
X0120681Y0084956D01*
X0120702Y0084962D01*
X0120727Y0084968D01*
X0120756Y0084972D01*
X0120788Y0084975D01*
X0120809Y0084973D01*
X012084Y0084968D01*
X0120866Y0084962D01*
X0120886Y0084956D01*
X0120901Y008495D01*
X012091Y0084945D01*
X0120913Y0084943D01*
X0120919Y0084934D01*
X0121066Y0084822D01*
X0121236Y0084752D01*
X0121419Y0084728D01*
X0121601Y0084752D01*
X0121626Y0084762D01*
X0121713Y0084666D01*
X0120881Y0083681D01*
X011999Y008275D01*
X0119043Y0081876D01*
X0118044Y0081062D01*
X0117166Y0080434D01*
X0117053Y0080492D01*
Y0084954D01*
X0117116Y0085031D01*
X0118692D01*
X0118723Y008501D01*
D02*
G37*
%LPC*%
G36*
X0097099Y0115485D02*
X0096249D01*
X009606Y011546D01*
X0095883Y0115387D01*
X0095852Y0115363D01*
X0096674Y0114541D01*
X0097496Y0115363D01*
X0097465Y0115387D01*
X0097288Y011546D01*
X0097099Y0115485D01*
D02*
G37*
G36*
X0106674Y0113913D02*
X0106224D01*
X0106048Y0113878D01*
X0106027Y0113863D01*
X0106449Y0113441D01*
X0106871Y0113863D01*
X010685Y0113878D01*
X0106674Y0113913D01*
D02*
G37*
G36*
X0106449Y0113379D02*
X0106374Y0113304D01*
X0106449Y0113229D01*
X0106524Y0113304D01*
X0106449Y0113379D01*
D02*
G37*
G36*
X0107083Y0113651D02*
X0106736Y0113304D01*
X0107083Y0112957D01*
X0107098Y0112978D01*
X0107133Y0113154D01*
Y0113454D01*
X0107098Y011363D01*
X0107083Y0113651D01*
D02*
G37*
G36*
X0105815Y0113651D02*
X01058Y011363D01*
X0105765Y0113454D01*
Y0113154D01*
X01058Y0112978D01*
X0105815Y0112957D01*
X0106162Y0113304D01*
X0105815Y0113651D01*
D02*
G37*
G36*
X0111374Y0113313D02*
X0110924D01*
X0110748Y0113278D01*
X0110727Y0113263D01*
X0111149Y0112841D01*
X0111571Y0113263D01*
X011155Y0113278D01*
X0111374Y0113313D01*
D02*
G37*
G36*
X0106449Y0113167D02*
X0106027Y0112745D01*
X0106048Y011273D01*
X0106224Y0112695D01*
X0106674D01*
X010685Y011273D01*
X0106871Y0112745D01*
X0106449Y0113167D01*
D02*
G37*
G36*
X0111149Y0112779D02*
X0111074Y0112704D01*
X0111149Y0112629D01*
X0111224Y0112704D01*
X0111149Y0112779D01*
D02*
G37*
G36*
X0096674Y0113567D02*
X0095852Y0112745D01*
X0095883Y0112721D01*
X009606Y0112648D01*
X0096249Y0112623D01*
X0097099D01*
X0097288Y0112648D01*
X0097465Y0112721D01*
X0097496Y0112745D01*
X0096674Y0113567D01*
D02*
G37*
G36*
X0111783Y0113051D02*
X0111436Y0112704D01*
X0111783Y0112357D01*
X0111798Y0112378D01*
X0111833Y0112554D01*
Y0112854D01*
X0111798Y011303D01*
X0111783Y0113051D01*
D02*
G37*
G36*
X0110515D02*
X01105Y011303D01*
X0110465Y0112854D01*
Y0112554D01*
X01105Y0112378D01*
X0110515Y0112357D01*
X0110862Y0112704D01*
X0110515Y0113051D01*
D02*
G37*
G36*
X0108949Y0113485D02*
X0108749D01*
X0108632Y0113462D01*
X0108533Y0113395D01*
X0108466Y0113296D01*
X0108459Y0113261D01*
X0107899D01*
X0107762Y0113234D01*
X0107647Y0113156D01*
X010708Y011259D01*
X0107003Y0112474D01*
X0106976Y0112337D01*
Y0111689D01*
X0106382D01*
Y010949D01*
X0108282D01*
Y0111689D01*
X0107689D01*
Y011219D01*
X0108047Y0112547D01*
X0108459D01*
X0108466Y0112512D01*
X0108533Y0112413D01*
X0108632Y0112346D01*
X0108749Y0112323D01*
X0108949D01*
X0109066Y0112346D01*
X0109165Y0112413D01*
X0109232Y0112512D01*
X0109255Y0112629D01*
Y0113179D01*
X0109232Y0113296D01*
X0109165Y0113395D01*
X0109066Y0113462D01*
X0108949Y0113485D01*
D02*
G37*
G36*
X0111149Y0112567D02*
X0110727Y0112145D01*
X0110748Y011213D01*
X0110924Y0112095D01*
X0111374D01*
X011155Y011213D01*
X0111571Y0112145D01*
X0111149Y0112567D01*
D02*
G37*
G36*
X0110822Y0111689D02*
X0108922D01*
Y010949D01*
X0110822D01*
Y0111689D01*
D02*
G37*
G36*
X0101372Y0110227D02*
X0100535Y010939D01*
X010221D01*
X0101372Y0110227D01*
D02*
G37*
G36*
X0123449Y0104613D02*
X0123175Y0104577D01*
X0122919Y0104471D01*
X01227Y0104303D01*
X0122532Y0104084D01*
X0122426Y0103828D01*
X012239Y0103554D01*
X0122426Y010328D01*
X0122532Y0103024D01*
X0122608Y0102925D01*
X0123343Y010366D01*
X0124078Y0104395D01*
X0123979Y0104471D01*
X0123723Y0104577D01*
X0123449Y0104613D01*
D02*
G37*
G36*
X012429Y0104183D02*
X0123555Y0103448D01*
X012282Y0102713D01*
X0122919Y0102637D01*
X0123175Y0102531D01*
X0123449Y0102495D01*
X0123723Y0102531D01*
X0123979Y0102637D01*
X0124198Y0102805D01*
X0124366Y0103024D01*
X0124472Y010328D01*
X0124508Y0103554D01*
X0124472Y0103828D01*
X0124366Y0104084D01*
X012429Y0104183D01*
D02*
G37*
G36*
X0111449Y0106513D02*
X0099949D01*
X0099773Y0106478D01*
X0099625Y0106378D01*
X0098572Y0105326D01*
X0098472Y0105177D01*
X0098438Y0105001D01*
Y010389D01*
X0097882D01*
Y010169D01*
X0099782D01*
Y010389D01*
X0099355D01*
Y0104811D01*
X0100139Y0105595D01*
X0111259D01*
X0112018Y0104837D01*
Y010389D01*
X0111462D01*
Y010169D01*
X0111954D01*
Y0101391D01*
X0111988Y0101215D01*
X0112039Y010114D01*
X0111971Y0101013D01*
X0111216D01*
X0110656Y0101572D01*
X0110705Y010169D01*
X0110822D01*
Y010389D01*
X0110331D01*
Y0104461D01*
X0110296Y0104637D01*
X0110197Y0104786D01*
X0109904Y0105078D01*
X0109755Y0105178D01*
X0109579Y0105213D01*
X0101665D01*
X010149Y0105178D01*
X0101341Y0105078D01*
X0101048Y0104786D01*
X0100948Y0104637D01*
X0100914Y0104461D01*
Y010389D01*
X0100422D01*
Y010169D01*
X0102322D01*
Y010389D01*
X0101831D01*
Y0104271D01*
X0101855Y0104295D01*
X0109389D01*
X0109414Y0104271D01*
Y010389D01*
X0108922D01*
Y010169D01*
X0109417D01*
X0109448Y0101532D01*
X0109548Y0101383D01*
X0110701Y010023D01*
X011085Y010013D01*
X0110999Y0100101D01*
Y0099813D01*
X0110589D01*
X0108282Y0102119D01*
Y010389D01*
X0106382D01*
Y0103248D01*
X0104862D01*
Y010389D01*
X0102962D01*
Y010169D01*
X0103781D01*
X0103801Y0101564D01*
X010379Y010156D01*
X0103281Y0101309D01*
X0102809Y0100994D01*
X0102383Y010062D01*
X0102009Y0100194D01*
X0101694Y0099722D01*
X0101443Y0099213D01*
X010126Y0098676D01*
X010115Y009812D01*
X0101113Y0097554D01*
X010115Y0096988D01*
X010126Y0096432D01*
X0101443Y0095895D01*
X0101694Y0095386D01*
X0102009Y0094914D01*
X0102383Y0094488D01*
X0102809Y0094114D01*
X0103281Y0093799D01*
X010379Y0093548D01*
X0104327Y0093365D01*
X0104883Y0093255D01*
X0105449Y0093218D01*
X0106015Y0093255D01*
X0106571Y0093365D01*
X0107108Y0093548D01*
X0107617Y0093799D01*
X0108089Y0094114D01*
X0108515Y0094488D01*
X0108889Y0094914D01*
X0109204Y0095386D01*
X0109455Y0095895D01*
X0109638Y0096432D01*
X0109748Y0096988D01*
X0109785Y0097554D01*
X0109748Y009812D01*
X0109638Y0098676D01*
X0109455Y0099213D01*
X0109204Y0099722D01*
X0109307Y0099797D01*
X0110075Y009903D01*
X0110223Y009893D01*
X0110399Y0098895D01*
X0110999D01*
Y0098604D01*
X011199D01*
Y0097504D01*
X0110999D01*
Y009604D01*
X0110875Y0095916D01*
X0110775Y0095767D01*
X011074Y0095591D01*
Y0095447D01*
X0110719Y0095416D01*
X0110692Y0095279D01*
Y0094829D01*
X0110719Y0094692D01*
X011074Y0094661D01*
Y0094304D01*
X0110775Y0094128D01*
X0110875Y009398D01*
X011091Y0093944D01*
X0110931Y0093839D01*
X011099Y0093751D01*
Y0093608D01*
X0111025Y0093433D01*
X0111125Y0093284D01*
X0111125Y0093284D01*
X0111273Y0093184D01*
X0111449Y0093149D01*
X0111625Y0093184D01*
X0111773Y0093284D01*
X0111873Y0093433D01*
X0111908Y0093608D01*
X0111908Y0093608D01*
Y0093645D01*
X0112035Y0093684D01*
X0112052Y0093657D01*
X0112234Y0093536D01*
X0112449Y0093493D01*
X0112664Y0093536D01*
X0112846Y0093657D01*
X0112967Y0093839D01*
X0112988Y0093944D01*
X0113023Y009398D01*
X0113123Y0094128D01*
X0113158Y0094304D01*
Y0094661D01*
X0113179Y0094692D01*
X0113206Y0094829D01*
Y0095279D01*
X0113179Y0095416D01*
X0113158Y0095447D01*
Y0095804D01*
X0113143Y0095877D01*
X0113248Y0096004D01*
X0113899D01*
Y0097504D01*
X0112908D01*
Y0098604D01*
X0113899D01*
Y0100104D01*
X0113858D01*
Y0100404D01*
X0113823Y010058D01*
X0113723Y0100728D01*
X0112889Y0101563D01*
X0112915Y010169D01*
X0113362D01*
Y010389D01*
X0112935D01*
Y0105027D01*
X01129Y0105202D01*
X0112801Y0105351D01*
X0111773Y0106378D01*
X0111625Y0106478D01*
X0111449Y0106513D01*
D02*
G37*
G36*
X0121949Y0101533D02*
X0121326Y0101484D01*
X0120719Y0101339D01*
X0120142Y01011D01*
X011961Y0100773D01*
X0119135Y0100368D01*
X011873Y0099893D01*
X0118403Y0099361D01*
X0118164Y0098784D01*
X0118019Y0098176D01*
X011797Y0097554D01*
X0118019Y0096932D01*
X0118164Y0096324D01*
X0118403Y0095747D01*
X011873Y0095215D01*
X0119135Y009474D01*
X011961Y0094335D01*
X0120142Y0094008D01*
X0120719Y0093769D01*
X0121326Y0093624D01*
X0121949Y0093575D01*
X0122572Y0093624D01*
X0123179Y0093769D01*
X0123756Y0094008D01*
X0124288Y0094335D01*
X0124763Y009474D01*
X0125168Y0095215D01*
X0125495Y0095747D01*
X0125734Y0096324D01*
X0125879Y0096932D01*
X0125928Y0097554D01*
X0125879Y0098176D01*
X0125734Y0098784D01*
X0125495Y0099361D01*
X0125168Y0099893D01*
X0124763Y0100368D01*
X0124288Y0100773D01*
X0123756Y01011D01*
X0123179Y0101339D01*
X0122572Y0101484D01*
X0121949Y0101533D01*
D02*
G37*
G36*
X0112511Y0092114D02*
X0109786D01*
X0109587Y0092074D01*
X0109417Y0091961D01*
X0109304Y0091791D01*
X0109283Y0091687D01*
X0108258D01*
X0108257Y0091696D01*
X010819Y0091795D01*
X0108091Y0091862D01*
X0107974Y0091885D01*
X0107774D01*
X0107657Y0091862D01*
X0107558Y0091795D01*
X0107502Y0091712D01*
X0106946D01*
X010689Y0091795D01*
X0106791Y0091862D01*
X0106674Y0091885D01*
X0106474D01*
X0106357Y0091862D01*
X0106258Y0091795D01*
X0106191Y0091696D01*
X0106168Y0091579D01*
Y0091314D01*
X0106166Y0091304D01*
X0106168Y0091294D01*
Y0091029D01*
X0106191Y0090912D01*
X0106258Y0090813D01*
X0106357Y0090746D01*
X0106474Y0090723D01*
X0106674D01*
X0106791Y0090746D01*
X010689Y0090813D01*
X0106946Y0090896D01*
X0107502D01*
X0107558Y0090813D01*
X0107657Y0090746D01*
X0107774Y0090723D01*
X0107974D01*
X0108091Y0090746D01*
X010819Y0090813D01*
X0108229Y0090871D01*
X0109283D01*
X0109304Y0090767D01*
X0109417Y0090597D01*
X0109587Y0090484D01*
X0109786Y0090444D01*
X0112511D01*
X0112711Y0090484D01*
X0112881Y0090597D01*
X0112994Y0090767D01*
X0113034Y0090966D01*
Y0091591D01*
X0112994Y0091791D01*
X0112881Y0091961D01*
X0112711Y0092074D01*
X0112511Y0092114D01*
D02*
G37*
G36*
X0104749Y0089538D02*
X0104299D01*
X0104123Y0089503D01*
X0104102Y0089488D01*
X0104524Y0089066D01*
X0104946Y0089488D01*
X0104925Y0089503D01*
X0104749Y0089538D01*
D02*
G37*
G36*
X0104524Y0089004D02*
X0104449Y0088929D01*
X0104524Y0088854D01*
X0104599Y0088929D01*
X0104524Y0089004D01*
D02*
G37*
G36*
X010389Y0089276D02*
X0103875Y0089255D01*
X010384Y0089079D01*
Y0088779D01*
X0103875Y0088603D01*
X010389Y0088582D01*
X0104237Y0088929D01*
X010389Y0089276D01*
D02*
G37*
G36*
X0105158Y0089276D02*
X0104811Y0088929D01*
X0105158Y0088582D01*
X0105173Y0088603D01*
X0105208Y0088779D01*
Y0089079D01*
X0105173Y0089255D01*
X0105158Y0089276D01*
D02*
G37*
G36*
X0104524Y0088792D02*
X0104102Y008837D01*
X0104123Y0088355D01*
X0104299Y008832D01*
X0104749D01*
X0104925Y0088355D01*
X0104946Y008837D01*
X0104524Y0088792D01*
D02*
G37*
G36*
X0101999Y0092061D02*
X0100799D01*
X010059Y0092033D01*
X0100396Y0091953D01*
X0100228Y0091825D01*
X01001Y0091657D01*
X010002Y0091463D01*
X0099992Y0091254D01*
Y0087854D01*
X010002Y0087645D01*
X01001Y0087451D01*
X0100228Y0087283D01*
X0100396Y0087155D01*
X010059Y0087075D01*
X0100799Y0087047D01*
X0101999D01*
X0102208Y0087075D01*
X0102402Y0087155D01*
X010257Y0087283D01*
X0102698Y0087451D01*
X0102778Y0087645D01*
X0102806Y0087854D01*
Y0090021D01*
X0104055D01*
X0104162Y0089949D01*
X0104299Y0089922D01*
X0104749D01*
X0104886Y0089949D01*
X0104993Y0090021D01*
X0105255D01*
X0106161Y0089116D01*
X0106161Y0089116D01*
X0106293Y0089027D01*
X0106449Y0088996D01*
X0106449Y0088996D01*
X0106816D01*
Y0085429D01*
X0106816Y0085429D01*
X0106847Y0085273D01*
X0106936Y0085141D01*
X0108136Y0083941D01*
X0108136Y0083941D01*
X0108268Y0083852D01*
X0108424Y0083821D01*
X0108918D01*
Y0083729D01*
X0108942Y0083546D01*
X0109013Y0083376D01*
X0109125Y008323D01*
X0109271Y0083118D01*
X0109441Y0083047D01*
X0109624Y0083023D01*
X0111024D01*
X0111207Y0083047D01*
X0111377Y0083118D01*
X0111523Y008323D01*
X0111635Y0083376D01*
X0111706Y0083546D01*
X011173Y0083729D01*
Y0084729D01*
X0111706Y0084912D01*
X0111635Y0085082D01*
X0111523Y0085228D01*
X0111377Y008534D01*
X0111207Y0085411D01*
X0111024Y0085435D01*
X0109624D01*
X0109441Y0085411D01*
X0109271Y008534D01*
X0109125Y0085228D01*
X0109013Y0085082D01*
X0108942Y0084912D01*
X0108918Y0084729D01*
Y0084637D01*
X0108593D01*
X0107632Y0085598D01*
Y0089404D01*
X010763Y0089414D01*
Y0089679D01*
X0107607Y0089796D01*
X010754Y0089895D01*
X0107441Y0089962D01*
X0107324Y0089985D01*
X0107124D01*
X0107007Y0089962D01*
X0106908Y0089895D01*
X0106852Y0089812D01*
X0106618D01*
X0105712Y0090717D01*
X010558Y0090806D01*
X0105424Y0090837D01*
X0105424Y0090837D01*
X0104993D01*
X0104886Y0090909D01*
X0104749Y0090936D01*
X0104299D01*
X0104162Y0090909D01*
X0104055Y0090837D01*
X0102806D01*
Y0091254D01*
X0102778Y0091463D01*
X0102698Y0091657D01*
X010257Y0091825D01*
X0102402Y0091953D01*
X0102208Y0092033D01*
X0101999Y0092061D01*
D02*
G37*
G36*
X0103104Y0083888D02*
X0103084Y0083862D01*
X0103013Y0083692D01*
X0102989Y0083509D01*
Y0082709D01*
X0103013Y0082526D01*
X0103084Y0082356D01*
X0103104Y008233D01*
X0103883Y0083109D01*
X0103104Y0083888D01*
D02*
G37*
G36*
X0106686Y0083888D02*
X0105907Y0083109D01*
X0106686Y008233D01*
X0106706Y0082356D01*
X0106777Y0082526D01*
X0106801Y0082709D01*
Y0083509D01*
X0106777Y0083692D01*
X0106706Y0083862D01*
X0106686Y0083888D01*
D02*
G37*
G36*
X0106095Y0084215D02*
X0103695D01*
X0103512Y0084191D01*
X0103342Y008412D01*
X0103316Y00841D01*
X0104201Y0083215D01*
X0104095Y0083109D01*
X0104201Y0083003D01*
X0103316Y0082118D01*
X0103342Y0082097D01*
X0103512Y0082027D01*
X0103695Y0082003D01*
X0106095D01*
X0106278Y0082027D01*
X0106448Y0082097D01*
X0106474Y0082118D01*
X0105589Y0083003D01*
X0105695Y0083109D01*
X0105589Y0083215D01*
X0106474Y00841D01*
X0106448Y008412D01*
X0106278Y0084191D01*
X0106095Y0084215D01*
D02*
G37*
G36*
X0111687Y008118D02*
X0110736Y0080229D01*
X0111687Y0079278D01*
X0111723Y0079326D01*
X0111803Y007952D01*
X0111831Y0079729D01*
Y0080729D01*
X0111803Y0080938D01*
X0111723Y0081132D01*
X0111687Y008118D01*
D02*
G37*
G36*
X0108961D02*
X0108925Y0081132D01*
X0108845Y0080938D01*
X0108817Y0080729D01*
Y0079729D01*
X0108845Y007952D01*
X0108925Y0079326D01*
X0108961Y0079278D01*
X0109912Y0080229D01*
X0108961Y008118D01*
D02*
G37*
G36*
X0111024Y0081536D02*
X0109624D01*
X0109415Y0081508D01*
X0109221Y0081428D01*
X0109173Y0081392D01*
X011023Y0080335D01*
X0110124Y0080229D01*
X011023Y0080123D01*
X0109173Y0079066D01*
X0109221Y007903D01*
X0109415Y007895D01*
X0109624Y0078922D01*
X0111024D01*
X0111233Y007895D01*
X0111427Y007903D01*
X0111475Y0079066D01*
X0110418Y0080123D01*
X0110524Y0080229D01*
X0110418Y0080335D01*
X0111475Y0081392D01*
X0111427Y0081428D01*
X0111233Y0081508D01*
X0111024Y0081536D01*
D02*
G37*
%LPD*%
D11*
X0111449Y0094054D02*
Y0094054D01*
X0111199Y0094304D02*
X0111449Y0094054D01*
X0112449Y0094054D02*
X0112699Y0094304D01*
Y0094929D01*
X0111449Y0093608D02*
Y0094054D01*
Y0093608D02*
X0111449Y0093608D01*
X0115779Y0087974D02*
X0120158D01*
X0115699Y0088054D02*
X0115779Y0087974D01*
X0120158D02*
X0121428D01*
X0118903Y0085439D02*
X0120164D01*
X0120169Y0085434D02*
X0121428D01*
X0120158D02*
X0120169D01*
X0109872Y0101707D02*
X0111026Y0100554D01*
X0112156D01*
X0109872Y0101707D02*
Y0104461D01*
X0112699Y0094929D02*
Y0095054D01*
Y0094929D02*
X0112699Y0094929D01*
X0112699Y0094929D02*
Y0095804D01*
X0099999Y0080929D02*
Y0083229D01*
X0099049D02*
X0099999D01*
X0099049Y0082079D02*
Y0083229D01*
X0099999Y0083304D02*
X0101924D01*
X0098999Y0083229D02*
X0099049D01*
X0118899Y0085434D02*
X0118903Y0085439D01*
X0120164D02*
X0120169Y0085434D01*
X0099624Y0114054D02*
Y0115579D01*
X0112449Y0096754D02*
Y0099354D01*
X0105024Y0098329D02*
X0105624Y0097729D01*
X0104424Y0098329D02*
X0105024D01*
X0105199Y0097554D02*
X0105324Y0097429D01*
X0111149Y0087029D02*
X0114295D01*
X0115886Y0085439D01*
X0107332Y0102421D02*
Y0102789D01*
X0103912D02*
X0107332D01*
Y0102421D02*
X0110399Y0099354D01*
X0112449D02*
Y0100261D01*
X0112156Y0100554D02*
X0112449Y0100261D01*
X0101372Y0104461D02*
X0101665Y0104754D01*
X0101372Y0102789D02*
Y0104461D01*
X0101665Y0104754D02*
X0109579D01*
X0109872Y0104461D01*
X0099949Y0106054D02*
X0111449D01*
X0098896Y0105001D02*
X0099949Y0106054D01*
X0111449D02*
X0112476Y0105027D01*
X0112412Y0101391D02*
Y0102789D01*
Y0101391D02*
X0113399Y0100404D01*
Y0099354D02*
Y0100404D01*
X0112476Y0102854D02*
Y0105027D01*
X0098896Y0102854D02*
Y0105001D01*
X0112412Y011059D02*
X0112416Y0110586D01*
X0103952Y0109251D02*
X0104362Y0108841D01*
X0103952Y0109251D02*
Y011055D01*
X0104362Y0108841D02*
X0112006D01*
X0112416Y0109251D01*
Y0110586D01*
X0103912Y011059D02*
X0103952Y011055D01*
X0098832Y0102789D02*
X0098896Y0102854D01*
X0112412Y0102789D02*
X0112476Y0102854D01*
X0111199Y0095054D02*
Y0095591D01*
Y0094304D02*
Y0095054D01*
X0110399Y0099354D02*
X0111499D01*
Y0095891D02*
Y0096754D01*
X0111199Y0095591D02*
X0111499Y0095891D01*
X0112449Y0096054D02*
X0112699Y0095804D01*
X0112449Y0096054D02*
Y0096754D01*
X0097524Y0087754D02*
Y0090804D01*
Y0087754D02*
X0099999Y0085279D01*
Y0083229D02*
Y0083304D01*
Y0085279D01*
X0102224Y0097429D02*
X0105324D01*
X0102324Y0098329D02*
X0104424D01*
X0103374Y0097554D02*
X0105199D01*
X0105449D01*
X0104424Y0098329D02*
X0105199Y0097554D01*
X0102349Y0096529D02*
X0104424D01*
X0105324Y0097429D01*
X0108449Y0096754D02*
Y0098479D01*
Y0096754D02*
X0108549Y0096654D01*
D15*
X0093749Y0099497D02*
Y0102354D01*
X0093573Y0086709D02*
X0093749Y0086884D01*
Y0091144D02*
X0094149Y0091544D01*
X0092549Y0103554D02*
X0093749Y0102354D01*
Y0099497D02*
X0094149Y0099097D01*
X0093749Y0086884D02*
Y0091144D01*
X0090749Y0086709D02*
X0093573D01*
X0094149Y0091544D02*
Y0099097D01*
X0091049Y0103554D02*
X0092549D01*
D31*
X0101399Y0089554D02*
D03*
X0097499D02*
D03*
D32*
X0104895Y0083109D02*
D03*
X0099895D02*
D03*
D33*
X0112749Y0114079D02*
D03*
Y0112629D02*
D03*
X0104849Y0113329D02*
D03*
Y0114779D02*
D03*
D34*
X0106449Y0114804D02*
D03*
Y0113304D02*
D03*
X0104524Y0088929D02*
D03*
Y0090429D02*
D03*
X0111149Y0114204D02*
D03*
Y0112704D02*
D03*
D35*
X0096674Y0114054D02*
D03*
X0099624D02*
D03*
D36*
X0098832Y011059D02*
D03*
X0101372D02*
D03*
X0103912D02*
D03*
Y0102789D02*
D03*
X0101372D02*
D03*
X0098832D02*
D03*
X0107332Y011059D02*
D03*
X0109872D02*
D03*
X0112412D02*
D03*
Y0102789D02*
D03*
X0109872D02*
D03*
X0107332D02*
D03*
D37*
X0113399Y0096754D02*
D03*
X0112449D02*
D03*
X0111499D02*
D03*
Y0099354D02*
D03*
X0112449D02*
D03*
X0113399D02*
D03*
D38*
X0109499Y0114804D02*
D03*
X0108199D02*
D03*
X0108849Y0112904D02*
D03*
X0102199Y0114504D02*
D03*
X0102849Y0112604D02*
D03*
X0101549D02*
D03*
X0107224Y0089404D02*
D03*
X0106574Y0091304D02*
D03*
X0107874D02*
D03*
D39*
X0111199Y0095054D02*
D03*
X0112699D02*
D03*
D40*
X0111149Y0087029D02*
D03*
Y0091279D02*
D03*
D41*
X0110324Y0080229D02*
D03*
Y0084229D02*
D03*
D42*
X0120149Y0107079D02*
X0120158D01*
X0120069D02*
X0120149D01*
X0119369Y0106554D02*
X0119544D01*
X0093299Y009931D02*
Y0101022D01*
X0092367Y0101954D02*
X0093299Y0101022D01*
Y009931D02*
X0093699Y009891D01*
X0093249Y0091304D02*
X0093699Y0091754D01*
Y009891D01*
X0093073Y0087979D02*
X0093249Y0088154D01*
Y0091304D01*
X0090749Y0087979D02*
X0093073D01*
X0088325Y0101954D02*
X0092367D01*
X0094199Y0086698D02*
Y0090958D01*
X0093949Y0086448D02*
X0094199Y0086698D01*
Y0090958D02*
X0094599Y0091358D01*
X0094199Y0099753D02*
X0094599Y0099353D01*
Y0091358D02*
Y009145D01*
X0094199Y0099753D02*
Y0104104D01*
X0092549Y0105754D02*
X0094199Y0104104D01*
X0094599Y009145D02*
Y0099353D01*
X0093949Y0085329D02*
Y0086448D01*
X0088149Y010213D02*
Y0103554D01*
Y010213D02*
X0088325Y0101954D01*
X0089654Y0105754D02*
X0092549D01*
X0090099Y0084789D02*
X0090749Y0085439D01*
X0090099Y0084029D02*
Y0084789D01*
X0089479Y010593D02*
Y0107129D01*
Y010593D02*
X0089654Y0105754D01*
X0119544Y0106554D02*
X0120069Y0107079D01*
X0102849Y0112604D02*
X0103499D01*
X0103912Y0112191D01*
Y011059D02*
Y0112191D01*
X0098874Y011202D02*
X0099108Y0112254D01*
X0098874Y0110631D02*
Y011202D01*
X0099108Y0112254D02*
X0100649D01*
X0100999Y0112604D01*
X0090749Y0107129D02*
X0092806D01*
X0107332Y011059D02*
Y0112337D01*
X0107899Y0112904D02*
X0108849D01*
X0107332Y0112337D02*
X0107899Y0112904D01*
X0100999Y0112604D02*
X0101549D01*
D43*
X0096699Y0111054D02*
Y0111054D01*
Y0109679D02*
Y0111054D01*
X0090749Y0109669D02*
X0090759Y0109679D01*
X0122699Y0105704D02*
Y0106874D01*
X0121428Y0107079D02*
X0122494D01*
X0122699Y0106874D01*
X0121574Y0104579D02*
X0122699Y0105704D01*
X0114449Y0107729D02*
X0117599Y0104579D01*
X0096699Y0108279D02*
X0097249Y0107729D01*
X0114449D01*
X0090759Y0109679D02*
X0096699D01*
Y0108279D02*
Y0109679D01*
X0117599Y0104579D02*
X0121574D01*
X0096699Y0111054D02*
X0098199Y0112554D01*
Y0113761D01*
X0098492Y0114054D02*
X0099624D01*
X0098199Y0113761D02*
X0098492Y0114054D01*
X0099624D02*
X0100649D01*
X0101099Y0114504D01*
X0102199D01*
D44*
X0106683Y0116054D02*
X0111924D01*
X0112599Y0115379D02*
X0114124D01*
X0111924Y0116054D02*
X0112599Y0115379D01*
X0115774Y0111004D02*
Y0113729D01*
X0114124Y0115379D02*
X0115774Y0113729D01*
Y0111004D02*
X0118429Y0108349D01*
X0118899D01*
X0120158D01*
X0118194Y0105809D02*
X0120158D01*
X0112799Y0114029D02*
X0113674D01*
X0113949Y0110054D02*
Y0113754D01*
X0113674Y0114029D02*
X0113949Y0113754D01*
X0098832Y011059D02*
X0098874Y0110631D01*
X0107224Y0085429D02*
X0108424Y0084229D01*
X0107224Y0085429D02*
Y0089404D01*
X0113949Y0110054D02*
X0118194Y0105809D01*
X0115886Y0085439D02*
X0118874D01*
X0106449Y011582D02*
X0106683Y0116054D01*
X0106449Y0114804D02*
Y011582D01*
X0112749Y0114079D02*
X0112799Y0114029D01*
X0112724Y0114054D02*
X0112749Y0114079D01*
X0112199Y0114054D02*
X0112724D01*
X0111149Y0114204D02*
X0112049D01*
X0112199Y0114054D01*
X0109499Y0114497D02*
Y0114804D01*
X0109792Y0114204D02*
X0111149D01*
X0109499Y0114497D02*
X0109792Y0114204D01*
X0104849Y0114779D02*
X0104874Y0114804D01*
X0106449D01*
X0106449Y0114804D01*
X0108199D01*
X0108424Y0084229D02*
X0110324D01*
X0107899Y0091279D02*
X0111149D01*
X0106574Y0091304D02*
X0107874D01*
X0101424Y0090804D02*
X0101799Y0090429D01*
X0104524D01*
X0105424D01*
X0106449Y0089404D01*
X0107224D01*
D45*
X0107097Y0102554D02*
X0107332Y0102789D01*
D46*
X0120149Y0087974D02*
D03*
X0121419D02*
D03*
X0120149Y0086704D02*
D03*
X0121419D02*
D03*
X0120149Y0085434D02*
D03*
X0121419D02*
D03*
X0090749Y0107129D02*
D03*
X0089479D02*
D03*
X0090749Y0108399D02*
D03*
X0089479D02*
D03*
X0090749Y0109669D02*
D03*
X0089479D02*
D03*
Y0087979D02*
D03*
Y0086709D02*
D03*
X0090749D02*
D03*
X0089479Y0085439D02*
D03*
X0090749D02*
D03*
Y0087979D02*
D03*
X0121419Y0105809D02*
D03*
X0120149D02*
D03*
X0121419Y0107079D02*
D03*
X0120149D02*
D03*
X0121419Y0108349D02*
D03*
X0120149D02*
D03*
D47*
X0088149Y0103554D02*
D03*
X0091049D02*
D03*
X0123449D02*
D03*
D48*
X0105449Y0097554D02*
D03*
D49*
X0121949D02*
D03*
X0088949D02*
D03*
D50*
X0112449Y0094054D02*
D03*
X0111449D02*
D03*
X0094949Y0100054D02*
D03*
X0115199Y0096939D02*
D03*
X0104849Y0117154D02*
D03*
X0113449Y0108654D02*
D03*
X0118824Y0103554D02*
D03*
X0099999Y0080929D02*
D03*
X0101924Y0083304D02*
D03*
X0099049Y0082079D02*
D03*
X0105299Y0079699D02*
D03*
Y0081759D02*
D03*
Y0080729D02*
D03*
X0110649Y0115129D02*
D03*
X0095474Y0108579D02*
D03*
X0093949Y0085329D02*
D03*
X0099224Y0100279D02*
D03*
X0105574Y0111954D02*
D03*
X0095124Y0112029D02*
D03*
X0099624Y0115579D02*
D03*
X0086449Y0101554D02*
D03*
X0109949Y0112654D02*
D03*
X0110949Y0104554D02*
D03*
X0096324Y0112054D02*
D03*
X0093449Y0106054D02*
D03*
X0098449Y0093804D02*
D03*
X0102199D02*
D03*
X0108524D02*
D03*
X0095374Y0083554D02*
D03*
X0104924Y0084629D02*
D03*
X0108549Y0096654D02*
D03*
X0108449Y0098479D02*
D03*
X0108649Y0097529D02*
D03*
X0107224Y0083204D02*
D03*
X0105474Y0078579D02*
D03*
X0103974Y0078654D02*
D03*
X0106999D02*
D03*
X0105974Y0088629D02*
D03*
X0100458Y0086354D02*
D03*
X0112474Y0080929D02*
D03*
X0112449Y0079354D02*
D03*
X0108124Y0080579D02*
D03*
X0108049Y0079229D02*
D03*
X0099099Y0079779D02*
D03*
X0099074Y0078879D02*
D03*
X0102224Y0097429D02*
D03*
X0102324Y0098329D02*
D03*
X0102349Y0096529D02*
D03*
D51*
X0094849Y0087604D02*
D03*
M02*
