G04*
G04 #@! TF.GenerationSoftware,Altium Limited,Altium Designer,20.1.8 (145)*
G04*
G04 Layer_Physical_Order=2*
G04 Layer_Color=16711680*
%FSTAX43Y43*%
%MOMM*%
G71*
G04*
G04 #@! TF.SameCoordinates,F520C443-D289-43A5-AF8C-D66C243BB58F*
G04*
G04*
G04 #@! TF.FilePolarity,Positive*
G04*
G01*
G75*
%ADD10C,0.250*%
%ADD11C,0.500*%
%ADD15C,0.200*%
%ADD33R,0.800X0.850*%
G04:AMPARAMS|DCode=34|XSize=0.75mm|YSize=0.6mm|CornerRadius=0.15mm|HoleSize=0mm|Usage=FLASHONLY|Rotation=180.000|XOffset=0mm|YOffset=0mm|HoleType=Round|Shape=RoundedRectangle|*
%AMROUNDEDRECTD34*
21,1,0.750,0.300,0,0,180.0*
21,1,0.450,0.600,0,0,180.0*
1,1,0.300,-0.225,0.150*
1,1,0.300,0.225,0.150*
1,1,0.300,0.225,-0.150*
1,1,0.300,-0.225,-0.150*
%
%ADD34ROUNDEDRECTD34*%
G04:AMPARAMS|DCode=38|XSize=0.4mm|YSize=0.75mm|CornerRadius=0.1mm|HoleSize=0mm|Usage=FLASHONLY|Rotation=0.000|XOffset=0mm|YOffset=0mm|HoleType=Round|Shape=RoundedRectangle|*
%AMROUNDEDRECTD38*
21,1,0.400,0.550,0,0,0.0*
21,1,0.200,0.750,0,0,0.0*
1,1,0.200,0.100,-0.275*
1,1,0.200,-0.100,-0.275*
1,1,0.200,-0.100,0.275*
1,1,0.200,0.100,0.275*
%
%ADD38ROUNDEDRECTD38*%
%ADD42C,0.300*%
%ADD43C,0.350*%
%ADD44C,0.400*%
%ADD45C,0.600*%
%ADD46C,1.000*%
%ADD47C,1.500*%
%ADD48O,8.000X6.500*%
%ADD49C,7.000*%
%ADD50C,0.700*%
%ADD51C,0.600*%
%ADD52R,1.000X0.350*%
%ADD53R,0.850X0.800*%
G04:AMPARAMS|DCode=54|XSize=0.65mm|YSize=0.3mm|CornerRadius=0.045mm|HoleSize=0mm|Usage=FLASHONLY|Rotation=180.000|XOffset=0mm|YOffset=0mm|HoleType=Round|Shape=RoundedRectangle|*
%AMROUNDEDRECTD54*
21,1,0.650,0.210,0,0,180.0*
21,1,0.560,0.300,0,0,180.0*
1,1,0.090,-0.280,0.105*
1,1,0.090,0.280,0.105*
1,1,0.090,0.280,-0.105*
1,1,0.090,-0.280,-0.105*
%
%ADD54ROUNDEDRECTD54*%
G04:AMPARAMS|DCode=55|XSize=2.9mm|YSize=0.7mm|CornerRadius=0.105mm|HoleSize=0mm|Usage=FLASHONLY|Rotation=90.000|XOffset=0mm|YOffset=0mm|HoleType=Round|Shape=RoundedRectangle|*
%AMROUNDEDRECTD55*
21,1,2.900,0.490,0,0,90.0*
21,1,2.690,0.700,0,0,90.0*
1,1,0.210,0.245,1.345*
1,1,0.210,0.245,-1.345*
1,1,0.210,-0.245,-1.345*
1,1,0.210,-0.245,1.345*
%
%ADD55ROUNDEDRECTD55*%
G04:AMPARAMS|DCode=56|XSize=0.4mm|YSize=0.75mm|CornerRadius=0.1mm|HoleSize=0mm|Usage=FLASHONLY|Rotation=270.000|XOffset=0mm|YOffset=0mm|HoleType=Round|Shape=RoundedRectangle|*
%AMROUNDEDRECTD56*
21,1,0.400,0.550,0,0,270.0*
21,1,0.200,0.750,0,0,270.0*
1,1,0.200,-0.275,-0.100*
1,1,0.200,-0.275,0.100*
1,1,0.200,0.275,0.100*
1,1,0.200,0.275,-0.100*
%
%ADD56ROUNDEDRECTD56*%
G04:AMPARAMS|DCode=57|XSize=3.3mm|YSize=1.1mm|CornerRadius=0.275mm|HoleSize=0mm|Usage=FLASHONLY|Rotation=270.000|XOffset=0mm|YOffset=0mm|HoleType=Round|Shape=RoundedRectangle|*
%AMROUNDEDRECTD57*
21,1,3.300,0.550,0,0,270.0*
21,1,2.750,1.100,0,0,270.0*
1,1,0.550,-0.275,-1.375*
1,1,0.550,-0.275,1.375*
1,1,0.550,0.275,1.375*
1,1,0.550,0.275,-1.375*
%
%ADD57ROUNDEDRECTD57*%
%ADD58R,0.350X1.000*%
%ADD59R,0.400X0.500*%
G04:AMPARAMS|DCode=60|XSize=2mm|YSize=1mm|CornerRadius=0.25mm|HoleSize=0mm|Usage=FLASHONLY|Rotation=180.000|XOffset=0mm|YOffset=0mm|HoleType=Round|Shape=RoundedRectangle|*
%AMROUNDEDRECTD60*
21,1,2.000,0.500,0,0,180.0*
21,1,1.500,1.000,0,0,180.0*
1,1,0.500,-0.750,0.250*
1,1,0.500,0.750,0.250*
1,1,0.500,0.750,-0.250*
1,1,0.500,-0.750,-0.250*
%
%ADD60ROUNDEDRECTD60*%
G04:AMPARAMS|DCode=61|XSize=2.5mm|YSize=0.95mm|CornerRadius=0.238mm|HoleSize=0mm|Usage=FLASHONLY|Rotation=0.000|XOffset=0mm|YOffset=0mm|HoleType=Round|Shape=RoundedRectangle|*
%AMROUNDEDRECTD61*
21,1,2.500,0.475,0,0,0.0*
21,1,2.025,0.950,0,0,0.0*
1,1,0.475,1.013,-0.238*
1,1,0.475,-1.013,-0.238*
1,1,0.475,-1.013,0.238*
1,1,0.475,1.013,0.238*
%
%ADD61ROUNDEDRECTD61*%
G04:AMPARAMS|DCode=62|XSize=2.25mm|YSize=1.7mm|CornerRadius=0.425mm|HoleSize=0mm|Usage=FLASHONLY|Rotation=180.000|XOffset=0mm|YOffset=0mm|HoleType=Round|Shape=RoundedRectangle|*
%AMROUNDEDRECTD62*
21,1,2.250,0.850,0,0,180.0*
21,1,1.400,1.700,0,0,180.0*
1,1,0.850,-0.700,0.425*
1,1,0.850,0.700,0.425*
1,1,0.850,0.700,-0.425*
1,1,0.850,-0.700,-0.425*
%
%ADD62ROUNDEDRECTD62*%
%ADD63C,0.700*%
G36*
X0107458Y0118208D02*
X0108788Y0118035D01*
X0110104Y0117777D01*
X0111401Y0117434D01*
X0112673Y0117008D01*
X0113914Y0116501D01*
X0115121Y0115914D01*
X0116287Y0115251D01*
X0117407Y0114514D01*
X0117738Y0114264D01*
X0117599Y0114028D01*
X0117591Y0114004D01*
X0117578Y0113982D01*
X0117467Y0113665D01*
X0117463Y011364D01*
X0117455Y0113616D01*
X0117408Y0113283D01*
X0117409Y0113258D01*
X0117406Y0113233D01*
X0117424Y0112897D01*
X011743Y0112873D01*
X0117432Y0112847D01*
X0117515Y0112522D01*
X0117526Y0112499D01*
X0117532Y0112474D01*
X0117677Y0112171D01*
X0117693Y0112151D01*
X0117704Y0112128D01*
X0117905Y0111859D01*
X0117924Y0111842D01*
X0117939Y0111822D01*
X0118189Y0111597D01*
X0118211Y0111584D01*
X011823Y0111567D01*
X0118518Y0111395D01*
X0118542Y0111387D01*
X0118564Y0111374D01*
X0118881Y0111261D01*
X0118906Y0111257D01*
X011893Y0111249D01*
X0119262Y01112D01*
X0119288Y0111202D01*
X0119313Y0111198D01*
X0119648Y0111215D01*
X0119673Y0111221D01*
X0119698Y0111222D01*
X0120024Y0111304D01*
X0120047Y0111315D01*
X0120072Y0111321D01*
X0120375Y0111465D01*
X0120396Y011148D01*
X0120419Y0111491D01*
X0120653Y0111665D01*
X0120919Y0111384D01*
X0121745Y0110401D01*
X0122509Y0109368D01*
X0123207Y010829D01*
X0123837Y0107171D01*
X0124397Y0106015D01*
X0124884Y0104827D01*
X0125296Y010361D01*
X0125633Y0102371D01*
X0125892Y0101113D01*
X0126073Y0099842D01*
X0126176Y0098561D01*
X0126198Y0097277D01*
X0126141Y0095994D01*
X0126005Y0094717D01*
X012579Y0093451D01*
X0125706Y0093091D01*
X0125262Y0093157D01*
X0125237Y0093155D01*
X0125211Y0093159D01*
X0124754Y0093137D01*
X0124729Y0093131D01*
X0124704Y0093129D01*
X012426Y0093018D01*
X0124237Y0093007D01*
X0124212Y0093001D01*
X0123798Y0092805D01*
X0123777Y009279D01*
X0123754Y0092779D01*
X0123387Y0092506D01*
X012337Y0092488D01*
X0123349Y0092472D01*
X0123042Y0092133D01*
X0123029Y0092111D01*
X0123011Y0092092D01*
X0122776Y0091699D01*
X0122768Y0091675D01*
X0122755Y0091653D01*
X0122601Y0091222D01*
X0122597Y0091197D01*
X0122588Y0091173D01*
X0122522Y009072D01*
X0122523Y0090695D01*
X0122519Y0090669D01*
X0122542Y0090212D01*
X0122548Y0090187D01*
X012255Y0090162D01*
X0122661Y0089718D01*
X0122672Y0089695D01*
X0122678Y008967D01*
X0122875Y0089257D01*
X012289Y0089236D01*
X0122901Y0089213D01*
X0123174Y0088846D01*
X0123193Y0088829D01*
X0123208Y0088808D01*
X0123548Y0088501D01*
X012357Y0088488D01*
X0123589Y0088471D01*
X0123981Y0088237D01*
X0123819Y0087902D01*
X0123184Y008678D01*
X0122481Y00857D01*
X0122246Y0085384D01*
X0122125Y0085434D01*
X0122125Y0085434D01*
X0122101Y0085616D01*
X012203Y0085787D01*
X0121918Y0085933D01*
X0121844Y008599D01*
Y0086147D01*
X0121918Y0086204D01*
X012203Y0086351D01*
X0122101Y0086521D01*
X0122125Y0086704D01*
X0122101Y0086886D01*
X012203Y0087057D01*
X0121918Y0087203D01*
X0121844Y008726D01*
Y0087417D01*
X0121918Y0087474D01*
X012203Y0087621D01*
X0122101Y0087791D01*
X0122125Y0087974D01*
X0122101Y0088156D01*
X012203Y0088327D01*
X0121918Y0088473D01*
X0121772Y0088585D01*
X0121601Y0088656D01*
X0121419Y008868D01*
X0121236Y0088656D01*
X0121066Y0088585D01*
X0120919Y0088473D01*
X0120889Y0088433D01*
X0120679D01*
X0120648Y0088473D01*
X0120502Y0088585D01*
X0120331Y0088656D01*
X0120149Y008868D01*
X0119966Y0088656D01*
X0119796Y0088585D01*
X0119649Y0088473D01*
X0119619Y0088433D01*
X0116653D01*
Y0089054D01*
X0116637Y0089132D01*
X0116593Y0089198D01*
X0116527Y0089242D01*
X0116449Y0089258D01*
X0115658D01*
X0115625Y0089365D01*
X0115049Y0089942D01*
X0114473Y0089365D01*
X011444Y0089258D01*
X011301D01*
Y0094054D01*
X0112967Y0094269D01*
X0112846Y0094451D01*
X0112664Y0094572D01*
X0112449Y0094615D01*
X0112234Y0094572D01*
X0112052Y0094451D01*
X0112012Y0094391D01*
X0111885D01*
X0111846Y0094451D01*
X0111664Y0094572D01*
X0111449Y0094615D01*
X0111234Y0094572D01*
X0111218Y0094561D01*
X0111106Y0094621D01*
Y0098006D01*
X0112147Y0099047D01*
X0116449D01*
X0116586Y0099074D01*
X0116701Y0099152D01*
X0122951Y0105402D01*
X0123029Y0105517D01*
X0123056Y0105654D01*
Y0106829D01*
X0123029Y0106966D01*
X0122951Y0107081D01*
X0122701Y0107331D01*
X0122586Y0107409D01*
X0122449Y0107436D01*
X0122158D01*
X0122144Y0107438D01*
X0122119Y0107444D01*
X0122093Y0107452D01*
X0122066Y0107463D01*
X0122039Y0107478D01*
X0122011Y0107495D01*
X0121982Y0107517D01*
X0121952Y0107542D01*
X0121927Y0107567D01*
X0121918Y0107578D01*
X0121844Y0107635D01*
Y0107793D01*
X0121918Y010785D01*
X012203Y0107996D01*
X0122101Y0108166D01*
X0122125Y0108349D01*
X0122101Y0108532D01*
X012203Y0108702D01*
X0121918Y0108848D01*
X0121772Y010896D01*
X0121601Y0109031D01*
X0121419Y0109055D01*
X0121236Y0109031D01*
X0121066Y010896D01*
X0120919Y0108848D01*
X0120862Y0108774D01*
X0120705D01*
X0120648Y0108848D01*
X0120502Y010896D01*
X0120331Y0109031D01*
X0120149Y0109055D01*
X0119966Y0109031D01*
X0119796Y010896D01*
X0119649Y0108848D01*
X0119643Y010884D01*
X011964Y0108838D01*
X0119631Y0108833D01*
X0119616Y0108827D01*
X0119596Y0108821D01*
X011957Y0108815D01*
X0119541Y0108811D01*
X0119508Y0108808D01*
X0119089D01*
X0117725Y0110172D01*
X0117576Y0110272D01*
X01174Y0110307D01*
X0097743D01*
X0097567Y0110272D01*
X0097418Y0110172D01*
X0097125Y0109878D01*
X0097025Y010973D01*
X009699Y0109554D01*
Y0109154D01*
X0096849D01*
Y0107904D01*
X0098049D01*
Y0109154D01*
X0097908D01*
Y0109364D01*
X0097933Y0109389D01*
X011721D01*
X0118575Y0108025D01*
X0118723Y0107925D01*
X0118899Y010789D01*
X0119517D01*
X0119539Y0107888D01*
X011957Y0107883D01*
X0119596Y0107877D01*
X0119616Y0107871D01*
X0119631Y0107865D01*
X011964Y010786D01*
X0119643Y0107858D01*
X0119649Y010785D01*
X0119661Y0107841D01*
Y0107778D01*
X0120255Y0107185D01*
X0120043Y0106973D01*
X0119486Y010753D01*
X011945Y0107482D01*
X0119369Y0107288D01*
X0119342Y0107079D01*
X0119369Y010687D01*
X011945Y0106676D01*
X0119578Y0106508D01*
X0119661Y0106444D01*
Y0106317D01*
X0119649Y0106308D01*
X0119643Y01063D01*
X011964Y0106298D01*
X0119631Y0106293D01*
X0119616Y0106287D01*
X0119596Y0106281D01*
X011957Y0106275D01*
X0119541Y0106271D01*
X0119508Y0106268D01*
X0116967D01*
X0116791Y0106233D01*
X0116642Y0106133D01*
X011635Y0105841D01*
X011625Y0105692D01*
X0116215Y0105516D01*
Y0104904D01*
X0116074D01*
Y0103654D01*
X0117274D01*
Y0104904D01*
X0117133D01*
Y0105326D01*
X0117157Y010535D01*
X0119517D01*
X0119539Y0105348D01*
X011957Y0105343D01*
X0119596Y0105337D01*
X0119616Y0105331D01*
X0119631Y0105325D01*
X011964Y010532D01*
X0119643Y0105318D01*
X0119649Y010531D01*
X0119796Y0105198D01*
X0119966Y0105127D01*
X0120149Y0105103D01*
X0120331Y0105127D01*
X0120502Y0105198D01*
X0120648Y010531D01*
X0120705Y0105384D01*
X0120862D01*
X0120919Y010531D01*
X0121066Y0105198D01*
X0121236Y0105127D01*
X0121419Y0105103D01*
X012147Y010511D01*
X012153Y010499D01*
X0116301Y0099761D01*
X0112356D01*
Y0100514D01*
X0112391Y0100521D01*
X011249Y0100588D01*
X0112557Y0100687D01*
X011258Y0100804D01*
Y0101004D01*
X0112557Y0101121D01*
X0112553Y0101127D01*
X0112495Y0101229D01*
X0112553Y0101331D01*
X0112557Y0101337D01*
X011258Y0101454D01*
Y0101654D01*
X0112557Y0101771D01*
X0112553Y0101777D01*
X0112495Y0101879D01*
X0112553Y0101981D01*
X0112557Y0101987D01*
X011258Y0102104D01*
Y0102304D01*
X0112557Y0102421D01*
X011249Y010252D01*
X0112391Y0102587D01*
X0112356Y0102594D01*
Y0107254D01*
X0112329Y0107391D01*
X0112251Y0107506D01*
X0111451Y0108306D01*
X0111336Y0108384D01*
X0111199Y0108411D01*
X0108147D01*
X0107551Y0109006D01*
X0107436Y0109084D01*
X0107299Y0109111D01*
X0104849D01*
X0104712Y0109084D01*
X0104597Y0109006D01*
X0104347Y0108756D01*
X0104269Y0108641D01*
X0104242Y0108504D01*
Y0108494D01*
X0104207Y0108487D01*
X0104108Y010842D01*
X0104041Y0108321D01*
X0104018Y0108204D01*
Y0108004D01*
X0104031Y0107938D01*
X0103951Y0107811D01*
X0103049D01*
X0102912Y0107784D01*
X0102797Y0107706D01*
X0102447Y0107356D01*
X0102369Y0107241D01*
X0102352Y0107154D01*
X0102099D01*
Y0106961D01*
X0101849D01*
Y0107054D01*
X0101049D01*
Y0106154D01*
X0101849D01*
Y0106247D01*
X0102099D01*
Y0105904D01*
X0103299D01*
Y0107097D01*
X0103951D01*
X0104031Y010697D01*
X0104018Y0106904D01*
Y0106704D01*
X0104041Y0106587D01*
X0104108Y0106488D01*
X0104207Y0106421D01*
X0104324Y0106398D01*
X0104589D01*
X0104599Y0106396D01*
X0105041D01*
Y0105404D01*
X0104849D01*
Y0104728D01*
X0104732Y010468D01*
X0104238Y0105174D01*
X0104229Y0105216D01*
X0104152Y0105331D01*
X0104036Y0105409D01*
X01039Y0105436D01*
X0103299D01*
Y0105704D01*
X0102099D01*
Y0104454D01*
X0102342D01*
Y0103161D01*
X0101488D01*
X0101462Y0103198D01*
X0101432Y0103288D01*
X0101482Y0103362D01*
X0101505Y0103479D01*
Y0104029D01*
X0101482Y0104146D01*
X0101415Y0104245D01*
X0101316Y0104312D01*
X0101199Y0104335D01*
X0100999D01*
X0100933Y0104322D01*
X0100806Y0104402D01*
Y0105804D01*
X0100779Y0105941D01*
X0100701Y0106056D01*
X0100476Y0106281D01*
X0100361Y0106359D01*
X0100224Y0106386D01*
X0099299D01*
Y0106654D01*
X0098099D01*
X0098049Y010676D01*
Y0107704D01*
X0096849D01*
Y0106454D01*
X009699D01*
Y0105054D01*
X0097025Y0104878D01*
X0097125Y010473D01*
X00976Y0104255D01*
X0097748Y0104155D01*
X0097924Y010412D01*
X0098099D01*
Y0103954D01*
X0098099D01*
X0098138Y0103843D01*
X0098142Y0103827D01*
X0098117Y0103704D01*
Y0103404D01*
X0098144Y0103267D01*
X0098222Y0103152D01*
X0098337Y0103074D01*
X0098474Y0103047D01*
X0098924D01*
X0099061Y0103074D01*
X0099176Y0103152D01*
X0099254Y0103267D01*
X0099281Y0103404D01*
X0099408Y0103405D01*
X0099416Y0103362D01*
X0099483Y0103263D01*
X0099582Y0103196D01*
X0099676Y0103178D01*
X0099706Y0103107D01*
X0099712Y0103046D01*
X0099547Y0102881D01*
X0099469Y0102765D01*
X0099442Y0102628D01*
Y0102467D01*
X0099381Y0102448D01*
X009888Y0101948D01*
X0098699Y0102129D01*
X0098624Y0102054D01*
X009873Y0101948D01*
X0098277Y0101495D01*
X0098298Y010148D01*
X0098474Y0101445D01*
X0098924D01*
X00991Y010148D01*
X0099248Y010158D01*
X0099266Y0101606D01*
X0099371Y0101584D01*
X0099395Y010157D01*
X0099416Y0101462D01*
X0099483Y0101363D01*
X0099582Y0101296D01*
X0099699Y0101273D01*
X0099899D01*
X009994Y0101281D01*
X0100067Y0101189D01*
Y0093479D01*
X0100096Y0093333D01*
X0100179Y0093209D01*
X0100195Y0093192D01*
X0100186Y0093056D01*
X0100133Y009302D01*
X0100066Y0092921D01*
X0100043Y0092804D01*
Y0092604D01*
X0100058Y0092529D01*
X0100065Y0092486D01*
X0099978Y0092391D01*
X0099942Y0092384D01*
X0099826Y0092306D01*
X0099753Y0092198D01*
X0099665Y0092109D01*
X0099593Y0092002D01*
X0099568Y0091875D01*
Y0089286D01*
X0097874D01*
Y0090397D01*
X009847D01*
X0098606Y0090424D01*
X0098722Y0090502D01*
X0098976Y0090756D01*
X0099054Y0090872D01*
X0099081Y0091008D01*
Y0091014D01*
X0099116Y0091021D01*
X0099215Y0091088D01*
X0099282Y0091187D01*
X0099305Y0091304D01*
Y0091504D01*
X0099282Y0091621D01*
X0099263Y0091649D01*
X0099287Y0091666D01*
X0099376Y0091798D01*
X0099407Y0091954D01*
Y0092154D01*
X0099376Y009231D01*
X0099287Y0092442D01*
X0099263Y0092459D01*
X0099282Y0092487D01*
X0099305Y0092604D01*
Y0092804D01*
X0099282Y0092921D01*
X0099215Y009302D01*
X0099116Y0093087D01*
X0098999Y009311D01*
X0098449D01*
X0098332Y0093087D01*
X0098293Y0093061D01*
X0096849D01*
Y0093079D01*
X0095449D01*
Y0092329D01*
X0096849D01*
Y0092347D01*
X0097956D01*
X0098054Y009222D01*
X0098041Y0092154D01*
Y0091954D01*
X0098072Y0091798D01*
X0098161Y0091666D01*
X0098185Y0091649D01*
X0098166Y0091621D01*
X0098143Y0091504D01*
Y0091304D01*
X0098156Y0091238D01*
X0098076Y0091111D01*
X0096849D01*
Y0091779D01*
X0095449D01*
Y0091413D01*
X0095442Y0091379D01*
Y0091202D01*
X0095272Y0091032D01*
X0095195Y0090916D01*
X0095168Y009078D01*
Y0089105D01*
X0095195Y0088968D01*
X0095272Y0088852D01*
X0095448Y0088677D01*
X0095564Y0088599D01*
X00957Y0088572D01*
X0095724D01*
Y0087229D01*
X0095625Y0087161D01*
X0093699D01*
X0093562Y0087134D01*
X0093461Y0087066D01*
X0091488D01*
X0091474Y0087068D01*
X0091449Y0087073D01*
X0091423Y0087082D01*
X0091396Y0087093D01*
X0091369Y0087107D01*
X0091341Y0087125D01*
X0091312Y0087147D01*
X0091282Y0087172D01*
X0091257Y0087196D01*
X0091248Y0087208D01*
X0091174Y0087265D01*
Y0087422D01*
X0091248Y0087479D01*
X0091257Y0087491D01*
X0091282Y0087515D01*
X0091312Y0087541D01*
X0091341Y0087562D01*
X0091369Y008758D01*
X0091396Y0087594D01*
X0091423Y0087606D01*
X0091449Y0087614D01*
X0091474Y008762D01*
X0091488Y0087622D01*
X0091999D01*
X0092135Y0087649D01*
X0092251Y0087726D01*
X0092901Y0088377D01*
X0092979Y0088492D01*
X0093006Y0088629D01*
Y0091454D01*
X0093299D01*
Y0091697D01*
X0093649D01*
Y0091029D01*
X0095049D01*
Y0092229D01*
X0095149D01*
Y0092967D01*
X009478Y0092598D01*
X0094568Y009281D01*
X0094937Y0093179D01*
X0093761D01*
X009413Y009281D01*
X0093918Y0092598D01*
X0093549Y0092967D01*
Y0092411D01*
X0093299D01*
Y0092654D01*
X0092076D01*
X0092049Y0092654D01*
X0091949Y0092719D01*
Y0092754D01*
X0090711D01*
X0091305Y009216D01*
X0091199Y0092054D01*
X0091305Y0091948D01*
X0090711Y0091354D01*
X0091949D01*
Y0091389D01*
X0092049Y0091454D01*
X0092076Y0091454D01*
X0092292D01*
Y0088777D01*
X0091851Y0088336D01*
X0091488D01*
X0091474Y0088338D01*
X0091449Y0088343D01*
X0091423Y0088352D01*
X0091396Y0088363D01*
X0091369Y0088377D01*
X0091341Y0088395D01*
X0091312Y0088417D01*
X0091282Y0088442D01*
X0091257Y0088466D01*
X0091248Y0088478D01*
X0091102Y008859D01*
X0090931Y0088661D01*
X0090749Y0088685D01*
X0090566Y0088661D01*
X0090396Y008859D01*
X0090249Y0088478D01*
X0090192Y0088404D01*
X0090035D01*
X0089978Y0088478D01*
X0089832Y008859D01*
X0089661Y0088661D01*
X0089479Y0088685D01*
X0089296Y0088661D01*
X0089126Y008859D01*
X0088979Y0088478D01*
X0088867Y0088332D01*
X0088797Y0088161D01*
X0088773Y0087979D01*
X0088797Y0087796D01*
X0088867Y0087626D01*
X0088979Y0087479D01*
X0089054Y0087422D01*
Y0087265D01*
X0088979Y0087208D01*
X0088867Y0087062D01*
X0088797Y0086891D01*
X0088773Y0086709D01*
X0088797Y0086526D01*
X0088867Y0086356D01*
X0088979Y0086209D01*
X0089054Y0086152D01*
Y0085995D01*
X0088979Y0085938D01*
X0088867Y0085792D01*
X0088797Y0085621D01*
X0088773Y0085439D01*
X0088773Y0085433D01*
X0088652Y0085384D01*
X0088417Y00857D01*
X0087714Y008678D01*
X008708Y0087901D01*
X0086919Y0088231D01*
X0086923Y0088239D01*
X0087315Y0088475D01*
X0087334Y0088492D01*
X0087356Y0088505D01*
X0087694Y0088813D01*
X0087709Y0088833D01*
X0087728Y008885D01*
X0088Y0089218D01*
X0088011Y0089241D01*
X0088027Y0089261D01*
X0088222Y0089675D01*
X0088228Y00897D01*
X0088239Y0089723D01*
X008835Y0090167D01*
X0088351Y0090192D01*
X0088357Y0090217D01*
X0088379Y0090674D01*
X0088375Y0090699D01*
X0088377Y0090725D01*
X0088309Y0091177D01*
X00883Y0091201D01*
X0088297Y0091226D01*
X0088142Y0091657D01*
X0088129Y0091679D01*
X0088121Y0091703D01*
X0087885Y0092095D01*
X0087868Y0092114D01*
X0087855Y0092136D01*
X0087547Y0092474D01*
X0087527Y0092489D01*
X008751Y0092508D01*
X0087142Y0092781D01*
X0087119Y0092791D01*
X0087098Y0092807D01*
X0086685Y0093002D01*
X008666Y0093008D01*
X0086637Y0093019D01*
X0086193Y009313D01*
X0086168Y0093131D01*
X0086143Y0093137D01*
X0085686Y0093159D01*
X0085661Y0093155D01*
X0085635Y0093157D01*
X0085192Y009309D01*
X0085108Y0093451D01*
X0084893Y0094717D01*
X0084757Y0095994D01*
X00847Y0097277D01*
X0084722Y0098562D01*
X0084825Y0099842D01*
X0085006Y0101114D01*
X0085265Y0102371D01*
X0085602Y0103611D01*
X0086014Y0104827D01*
X0086502Y0106016D01*
X0087061Y0107172D01*
X0087692Y0108291D01*
X008839Y0109369D01*
X0088652Y0109723D01*
X0088773Y0109674D01*
X0088773Y0109669D01*
X0088797Y0109486D01*
X0088867Y0109316D01*
X0088979Y0109169D01*
X0089054Y0109112D01*
Y0108955D01*
X0088979Y0108898D01*
X0088867Y0108752D01*
X0088797Y0108581D01*
X0088773Y0108399D01*
X0088797Y0108216D01*
X0088867Y0108046D01*
X0088979Y0107899D01*
X0089054Y0107842D01*
Y0107685D01*
X0088979Y0107628D01*
X0088867Y0107482D01*
X0088797Y0107311D01*
X0088773Y0107129D01*
X0088797Y0106946D01*
X0088867Y0106776D01*
X0088979Y0106629D01*
X0088991Y0106621D01*
X0089015Y0106595D01*
X0089041Y0106565D01*
X0089062Y0106536D01*
X008908Y0106508D01*
X0089094Y0106481D01*
X0089106Y0106455D01*
X0089114Y0106429D01*
X008912Y0106403D01*
X0089122Y0106389D01*
Y0106224D01*
X0089149Y0106088D01*
X0089226Y0105972D01*
X0090097Y0105102D01*
X0090212Y0105024D01*
X0090349Y0104997D01*
X0092601D01*
X0092792Y0104807D01*
X0092749Y0104704D01*
X0092749D01*
Y0103454D01*
X0093949D01*
Y0104704D01*
X0093706D01*
Y0104754D01*
X0093679Y0104891D01*
X0093601Y0105006D01*
X0093001Y0105606D01*
X0092886Y0105684D01*
X0092749Y0105711D01*
X0090497D01*
X0089836Y0106372D01*
Y0106389D01*
X0089837Y0106403D01*
X0089843Y0106429D01*
X0089852Y0106455D01*
X0089863Y0106481D01*
X0089877Y0106508D01*
X0089895Y0106536D01*
X0089917Y0106565D01*
X0089942Y0106595D01*
X0089966Y0106621D01*
X0089978Y0106629D01*
X0089987Y0106642D01*
X0090114D01*
X0090178Y0106558D01*
X0090345Y010643D01*
X009054Y0106349D01*
X0090749Y0106322D01*
X0090958Y0106349D01*
X0091152Y010643D01*
X0091199Y0106466D01*
X0090643Y0107023D01*
X0090855Y0107235D01*
X0091106Y0106984D01*
Y0107479D01*
X0091145Y0107441D01*
X0091185Y0107407D01*
X0091226Y0107377D01*
X0091267Y0107351D01*
X0091309Y0107329D01*
X0091351Y0107311D01*
X0091394Y0107297D01*
X0091437Y0107287D01*
X0091481Y0107281D01*
X0091526Y0107279D01*
Y0106979D01*
X0091481Y0106977D01*
X0091437Y0106971D01*
X0091394Y0106961D01*
X0091351Y0106947D01*
X0091309Y0106929D01*
X0091267Y0106907D01*
X0091226Y0106881D01*
X0091216Y0106873D01*
X0091411Y0106678D01*
X0091448Y0106725D01*
X0091528Y010692D01*
X0091556Y0107129D01*
X0091528Y0107338D01*
X0091448Y0107532D01*
X0091319Y0107699D01*
X0091236Y0107763D01*
Y010789D01*
X0091248Y0107899D01*
X0091257Y0107911D01*
X0091282Y0107935D01*
X0091312Y0107961D01*
X0091341Y0107982D01*
X0091369Y0108D01*
X0091396Y0108014D01*
X0091423Y0108026D01*
X0091449Y0108034D01*
X0091474Y010804D01*
X0091488Y0108042D01*
X0091999D01*
X0092025Y0108047D01*
X0093701D01*
X0094592Y0107156D01*
Y0103079D01*
X0094619Y0102942D01*
X0094697Y0102827D01*
X0098092Y0099431D01*
Y0099263D01*
X0097699D01*
X0097523Y0099228D01*
X0097375Y0099128D01*
X0097275Y009898D01*
X009724Y0098804D01*
Y0098304D01*
X0097275Y0098128D01*
X0097375Y009798D01*
X0097523Y009788D01*
X0097699Y0097845D01*
X0099199D01*
X0099375Y009788D01*
X0099523Y009798D01*
X0099623Y0098128D01*
X0099658Y0098304D01*
Y0098804D01*
X0099623Y009898D01*
X0099523Y0099128D01*
X0099375Y0099228D01*
X0099199Y0099263D01*
X0098806D01*
Y0099579D01*
X0098779Y0099716D01*
X0098701Y0099831D01*
X0095306Y0103227D01*
Y0107304D01*
X0095279Y0107441D01*
X0095201Y0107556D01*
X0094101Y0108656D01*
X0093986Y0108734D01*
X0093849Y0108761D01*
X0092004D01*
X0091978Y0108756D01*
X0091488D01*
X0091474Y0108758D01*
X0091449Y0108763D01*
X0091423Y0108772D01*
X0091396Y0108783D01*
X0091369Y0108797D01*
X0091341Y0108815D01*
X0091312Y0108837D01*
X0091282Y0108862D01*
X0091257Y0108886D01*
X0091248Y0108898D01*
X0091174Y0108955D01*
Y0109112D01*
X0091248Y0109169D01*
X009136Y0109316D01*
X0091431Y0109486D01*
X0091455Y0109669D01*
X0091431Y0109851D01*
X009136Y0110022D01*
X0091248Y0110168D01*
X0091102Y011028D01*
X0090931Y0110351D01*
X0090749Y0110375D01*
X0090566Y0110351D01*
X0090396Y011028D01*
X0090249Y0110168D01*
X0090192Y0110094D01*
X0090035D01*
X0089978Y0110168D01*
X0089832Y011028D01*
X0089661Y0110351D01*
X0089479Y0110375D01*
X0089296Y0110351D01*
X0089266Y0110338D01*
X0089189Y0110444D01*
X008998Y0111385D01*
X0090246Y0111665D01*
X0090466Y0111499D01*
X0090489Y0111488D01*
X0090509Y0111473D01*
X0090813Y0111326D01*
X0090837Y011132D01*
X009086Y0111309D01*
X0091186Y0111224D01*
X0091212Y0111223D01*
X0091237Y0111216D01*
X0091573Y0111197D01*
X0091598Y0111201D01*
X0091624Y0111199D01*
X0091957Y0111246D01*
X0091981Y0111254D01*
X0092007Y0111258D01*
X0092325Y0111369D01*
X0092347Y0111382D01*
X0092371Y011139D01*
X0092661Y0111561D01*
X009268Y0111578D01*
X0092702Y0111591D01*
X0092953Y0111815D01*
X0092969Y0111836D01*
X0092988Y0111853D01*
X0093191Y0112121D01*
X0093202Y0112144D01*
X0093217Y0112165D01*
X0093364Y0112468D01*
X009337Y0112493D01*
X0093381Y0112516D01*
X0093466Y0112842D01*
X0093467Y0112867D01*
X0093473Y0112892D01*
X0093493Y0113228D01*
X0093489Y0113254D01*
X0093491Y0113279D01*
X0093444Y0113613D01*
X0093435Y0113637D01*
X0093432Y0113662D01*
X0093321Y011398D01*
X0093308Y0114002D01*
X00933Y0114026D01*
X009316Y0114264D01*
X0093491Y0114514D01*
X0094611Y0115251D01*
X0095777Y0115914D01*
X0096984Y0116501D01*
X0098225Y0117008D01*
X0099497Y0117434D01*
X0100794Y0117777D01*
X010211Y0118035D01*
X010344Y0118208D01*
X0104778Y0118295D01*
X010612Y0118295D01*
X0107458Y0118208D01*
D02*
G37*
G36*
X0091145Y0108711D02*
X0091185Y0108677D01*
X0091226Y0108647D01*
X0091267Y0108621D01*
X0091309Y0108599D01*
X0091351Y0108581D01*
X0091394Y0108567D01*
X0091437Y0108557D01*
X0091481Y0108551D01*
X0091526Y0108549D01*
Y0108249D01*
X0091481Y0108247D01*
X0091437Y0108241D01*
X0091394Y0108231D01*
X0091351Y0108217D01*
X0091309Y0108199D01*
X0091267Y0108177D01*
X0091226Y0108151D01*
X0091185Y0108121D01*
X0091145Y0108087D01*
X0091106Y0108049D01*
Y0108749D01*
X0091145Y0108711D01*
D02*
G37*
G36*
X0119792Y0107999D02*
X011977Y0108018D01*
X0119745Y0108035D01*
X0119717Y010805D01*
X0119684Y0108063D01*
X0119649Y0108074D01*
X0119609Y0108083D01*
X0119566Y010809D01*
X011952Y0108095D01*
X0119416Y0108099D01*
Y0108599D01*
X0119469Y01086D01*
X0119566Y0108608D01*
X0119609Y0108615D01*
X0119649Y0108624D01*
X0119684Y0108635D01*
X0119717Y0108648D01*
X0119745Y0108663D01*
X011977Y010868D01*
X0119792Y0108699D01*
Y0107999D01*
D02*
G37*
G36*
X0111642Y0107106D02*
Y0102594D01*
X0111607Y0102587D01*
X0111508Y010252D01*
X0111441Y0102421D01*
X0111418Y0102304D01*
Y0102104D01*
X0111431Y0102038D01*
X0111351Y0101911D01*
X011127D01*
X0111134Y0101884D01*
X0111018Y0101806D01*
X0109997Y0100785D01*
X0109919Y0100669D01*
X0109892Y0100533D01*
Y0097866D01*
X0109765Y0097861D01*
X0109748Y009812D01*
X0109638Y0098676D01*
X0109455Y0099213D01*
X0109204Y0099722D01*
X0108889Y0100194D01*
X0108515Y010062D01*
X0108089Y0100994D01*
X0107617Y0101309D01*
X0107108Y010156D01*
X0106571Y0101743D01*
X0106015Y0101853D01*
X0105959Y0101857D01*
Y0102704D01*
X0106049D01*
Y0103763D01*
X010609Y0103771D01*
X010619Y0103838D01*
X0106365Y0104013D01*
X0106365Y0104013D01*
X0106414Y0104087D01*
X0106544Y0104216D01*
X0106586Y0104224D01*
X0106701Y0104302D01*
X0106779Y0104417D01*
X0106806Y0104554D01*
Y0106282D01*
X010684Y0106301D01*
X0106967Y0106226D01*
Y0106034D01*
X0106996Y0105888D01*
X0107079Y0105764D01*
X0107284Y0105559D01*
X0107408Y0105476D01*
X0107554Y0105447D01*
X0107599D01*
Y0105204D01*
X0108799D01*
Y0105422D01*
X0109049D01*
Y0105354D01*
X0109849D01*
Y0106254D01*
X0109049D01*
Y0106186D01*
X0108799D01*
Y0106454D01*
X0107731D01*
Y0106654D01*
X0108799D01*
Y0107577D01*
X0108822Y0107592D01*
X0108857Y0107586D01*
X0108949Y0107525D01*
Y0106766D01*
X0109343Y010716D01*
X0109449Y0107054D01*
X0109555Y010716D01*
X0109949Y0106766D01*
X0109949Y0107654D01*
X0110058Y0107697D01*
X0111051D01*
X0111642Y0107106D01*
D02*
G37*
G36*
X0121815Y0107391D02*
X0121855Y0107357D01*
X0121896Y0107327D01*
X0121937Y0107301D01*
X0121979Y0107279D01*
X0122021Y0107261D01*
X0122064Y0107247D01*
X0122107Y0107237D01*
X0122151Y0107231D01*
X0122196Y0107229D01*
Y0106929D01*
X0122151Y0106927D01*
X0122107Y0106921D01*
X0122064Y0106911D01*
X0122021Y0106897D01*
X0121979Y0106879D01*
X0121937Y0106857D01*
X0121896Y0106831D01*
X0121855Y0106801D01*
X0121815Y0106767D01*
X0121776Y0106729D01*
Y0107429D01*
X0121815Y0107391D01*
D02*
G37*
G36*
X012015Y0106579D02*
X0120095Y0106577D01*
X0120043Y0106572D01*
X0119993Y0106564D01*
X0119945Y0106553D01*
X01199Y0106539D01*
X0119857Y0106522D01*
X0119817Y0106501D01*
X0119779Y0106477D01*
X0119744Y010645D01*
X0119711Y010642D01*
X0119496Y010663D01*
X0119526Y0106663D01*
X0119553Y0106698D01*
X0119577Y0106736D01*
X0119597Y0106776D01*
X0119614Y0106819D01*
X0119627Y0106864D01*
X0119638Y0106911D01*
X0119645Y0106961D01*
X0119648Y0107013D01*
X0119649Y0107068D01*
X012015Y0106579D01*
D02*
G37*
G36*
X0089791Y0106732D02*
X0089757Y0106692D01*
X0089727Y0106652D01*
X0089701Y010661D01*
X0089679Y0106569D01*
X0089661Y0106526D01*
X0089647Y0106484D01*
X0089637Y010644D01*
X0089631Y0106396D01*
X0089629Y0106352D01*
X0089329D01*
X0089327Y0106396D01*
X0089321Y010644D01*
X0089311Y0106484D01*
X0089297Y0106526D01*
X0089279Y0106569D01*
X0089257Y010661D01*
X0089231Y0106652D01*
X0089201Y0106692D01*
X0089167Y0106732D01*
X0089129Y0106772D01*
X0089829D01*
X0089791Y0106732D01*
D02*
G37*
G36*
X0119792Y0105459D02*
X011977Y0105478D01*
X0119745Y0105495D01*
X0119717Y010551D01*
X0119684Y0105523D01*
X0119649Y0105534D01*
X0119609Y0105543D01*
X0119566Y010555D01*
X011952Y0105555D01*
X0119416Y0105559D01*
Y0106059D01*
X0119469Y010606D01*
X0119566Y0106068D01*
X0119609Y0106075D01*
X0119649Y0106084D01*
X0119684Y0106095D01*
X0119717Y0106108D01*
X0119745Y0106123D01*
X011977Y010614D01*
X0119792Y0106159D01*
Y0105459D01*
D02*
G37*
G36*
X0104708Y0103838D02*
X0104808Y0103771D01*
X0104849Y0103763D01*
Y0102704D01*
X0104939D01*
Y0101857D01*
X0104883Y0101853D01*
X0104327Y0101743D01*
X010379Y010156D01*
X0103281Y0101309D01*
X0102809Y0100994D01*
X0102383Y010062D01*
X0102009Y0100194D01*
X0101694Y0099722D01*
X0101443Y0099213D01*
X010126Y0098676D01*
X010115Y009812D01*
X0101113Y0097554D01*
X010115Y0096988D01*
X010126Y0096432D01*
X0101443Y0095895D01*
X0101694Y0095386D01*
X0102009Y0094914D01*
X0102383Y0094488D01*
X0102809Y0094114D01*
X0103281Y0093799D01*
X010379Y0093548D01*
X0104327Y0093365D01*
X0104883Y0093255D01*
X0105449Y0093218D01*
X0106015Y0093255D01*
X0106571Y0093365D01*
X0107108Y0093548D01*
X0107617Y0093799D01*
X0108089Y0094114D01*
X0108515Y0094488D01*
X0108889Y0094914D01*
X0109204Y0095386D01*
X0109455Y0095895D01*
X0109638Y0096432D01*
X0109748Y0096988D01*
X0109765Y0097247D01*
X0109892Y0097242D01*
Y0094687D01*
X0108166Y0092961D01*
X0103999D01*
X0103862Y0092934D01*
X0103747Y0092856D01*
X0102651Y0091761D01*
X0101272D01*
X0101192Y0091888D01*
X0101205Y0091954D01*
Y0092154D01*
X0101182Y0092271D01*
X0101178Y0092277D01*
X010112Y0092379D01*
X0101178Y0092481D01*
X0101182Y0092487D01*
X0101205Y0092604D01*
Y0092804D01*
X0101182Y0092921D01*
X0101115Y009302D01*
X0101016Y0093087D01*
X0100981Y0093093D01*
Y0093329D01*
X0100952Y0093475D01*
X0100869Y0093599D01*
X0100831Y0093637D01*
Y0101075D01*
X0100958Y0101179D01*
X0100999Y0101171D01*
X0101199D01*
X0101355Y0101202D01*
X010136Y0101206D01*
X0100993Y0101573D01*
X0101205Y0101785D01*
X0101572Y0101418D01*
X0101576Y0101423D01*
X0101607Y0101579D01*
Y0102129D01*
X0101576Y0102285D01*
X0101552Y010232D01*
X010162Y0102447D01*
X0102523D01*
X010266Y0102474D01*
X0102776Y0102552D01*
X0102951Y0102727D01*
X0103029Y0102843D01*
X0103056Y010298D01*
Y0104454D01*
X0103299D01*
Y0104722D01*
X0103824D01*
X0104708Y0103838D01*
D02*
G37*
G36*
X0105752Y010129D02*
X0105761Y0101188D01*
X0105776Y0101097D01*
X0105797Y0101019D01*
X0105824Y0100953D01*
X0105857Y0100898D01*
X0105896Y0100856D01*
X0105941Y0100826D01*
X0105992Y0100808D01*
X0106049Y0100802D01*
X0104849D01*
X0104906Y0100808D01*
X0104957Y0100826D01*
X0105002Y0100856D01*
X0105041Y0100898D01*
X0105074Y0100953D01*
X0105101Y0101019D01*
X0105122Y0101097D01*
X0105137Y0101188D01*
X0105146Y010129D01*
X0105149Y0101405D01*
X0105749D01*
X0105752Y010129D01*
D02*
G37*
G36*
X0111421Y0101021D02*
X0111418Y0101004D01*
Y0100804D01*
X0111441Y0100687D01*
X0111508Y0100588D01*
X0111607Y0100521D01*
X0111642Y0100514D01*
Y0099552D01*
X0110723Y0098633D01*
X0110606Y0098681D01*
Y0100385D01*
X0111304Y0101083D01*
X0111421Y0101021D01*
D02*
G37*
G36*
X010541Y009212D02*
X0102576Y0089286D01*
X010023D01*
Y0090892D01*
X0100349Y0090998D01*
X0100899D01*
X0101016Y0091021D01*
X0101055Y0091047D01*
X0102799D01*
X0102936Y0091074D01*
X0103051Y0091152D01*
X0104147Y0092247D01*
X0105358D01*
X010541Y009212D01*
D02*
G37*
G36*
X0091145Y0088291D02*
X0091185Y0088257D01*
X0091226Y0088227D01*
X0091267Y0088201D01*
X0091309Y0088179D01*
X0091351Y0088161D01*
X0091394Y0088147D01*
X0091437Y0088137D01*
X0091481Y0088131D01*
X0091526Y0088129D01*
Y0087829D01*
X0091481Y0087827D01*
X0091437Y0087821D01*
X0091394Y0087811D01*
X0091351Y0087797D01*
X0091309Y0087779D01*
X0091267Y0087757D01*
X0091226Y0087731D01*
X0091185Y0087701D01*
X0091145Y0087667D01*
X0091106Y0087629D01*
Y0088329D01*
X0091145Y0088291D01*
D02*
G37*
G36*
X011092Y009385D02*
X0110935Y0093834D01*
X0110939Y0093827D01*
Y0089958D01*
X0104849D01*
X0104771Y0089942D01*
X0104705Y0089898D01*
X0104661Y0089832D01*
X0104645Y0089754D01*
Y0089554D01*
Y0087458D01*
X0097874D01*
Y0088572D01*
X0102724D01*
X0102861Y0088599D01*
X0102976Y0088677D01*
X0105922Y0091622D01*
X0108396D01*
X0108533Y0091649D01*
X0108648Y0091727D01*
X0110799Y0093878D01*
X011092Y009385D01*
D02*
G37*
G36*
X0091145Y0087021D02*
X0091185Y0086987D01*
X0091226Y0086957D01*
X0091267Y0086931D01*
X0091309Y0086909D01*
X0091351Y0086891D01*
X0091394Y0086877D01*
X0091437Y0086867D01*
X0091481Y0086861D01*
X0091526Y0086859D01*
Y0086559D01*
X0091481Y0086557D01*
X0091437Y0086551D01*
X0091394Y0086541D01*
X0091351Y0086527D01*
X0091309Y0086509D01*
X0091267Y0086487D01*
X0091226Y0086461D01*
X0091185Y0086431D01*
X0091145Y0086397D01*
X0091106Y0086359D01*
Y0087059D01*
X0091145Y0087021D01*
D02*
G37*
G36*
X0121061Y0085084D02*
X012104Y0085103D01*
X0121015Y008512D01*
X0120986Y0085135D01*
X0120954Y0085148D01*
X0120918Y0085159D01*
X0120879Y0085168D01*
X0120836Y0085175D01*
X0120791Y008518D01*
X0120731Y0085175D01*
X0120688Y0085168D01*
X0120649Y0085159D01*
X0120613Y0085148D01*
X0120581Y0085135D01*
X0120552Y008512D01*
X0120527Y0085103D01*
X0120506Y0085084D01*
X0120506Y0085784D01*
X0120527Y0085765D01*
X0120552Y0085748D01*
X0120581Y0085733D01*
X0120613Y008572D01*
X0120649Y0085709D01*
X0120688Y00857D01*
X0120731Y0085693D01*
X0120777Y0085688D01*
X0120836Y0085693D01*
X0120879Y00857D01*
X0120919Y0085709D01*
X0120955Y008572D01*
X0120987Y0085733D01*
X0121015Y0085748D01*
X012104Y0085765D01*
X0121062Y0085784D01*
X0121061Y0085084D01*
D02*
G37*
G36*
X009717Y0086519D02*
Y0078648D01*
X0097063Y007858D01*
X0096128Y0079014D01*
X0094995Y0079628D01*
X0093903Y0080312D01*
X0092855Y0081062D01*
X0091855Y0081875D01*
X0090908Y0082749D01*
X0090017Y0083681D01*
X0089186Y0084665D01*
X0089267Y0084769D01*
X0089296Y0084757D01*
X0089479Y0084733D01*
X0089661Y0084757D01*
X0089832Y0084827D01*
X0089978Y0084939D01*
X0089987Y0084952D01*
X0090114D01*
X0090178Y0084868D01*
X0090345Y008474D01*
X009054Y0084659D01*
X0090749Y0084632D01*
X0090958Y0084659D01*
X0091152Y008474D01*
X0091199Y0084776D01*
X0090643Y0085333D01*
X0090855Y0085545D01*
X0091411Y0084988D01*
X0091448Y0085035D01*
X0091528Y008523D01*
X0091556Y0085439D01*
X0091528Y0085648D01*
X0091448Y0085842D01*
X0091319Y0086009D01*
X0091236Y0086073D01*
Y00862D01*
X0091248Y0086209D01*
X0091257Y0086221D01*
X0091282Y0086245D01*
X0091312Y0086271D01*
X0091341Y0086292D01*
X0091369Y008631D01*
X0091396Y0086324D01*
X0091423Y0086336D01*
X0091449Y0086344D01*
X0091474Y008635D01*
X0091488Y0086352D01*
X0093604D01*
X009374Y0086379D01*
X0093842Y0086447D01*
X0095624D01*
Y0085454D01*
X0096824D01*
Y0086458D01*
X0096908Y0086474D01*
X0097023Y0086552D01*
X0097043Y0086571D01*
X009717Y0086519D01*
D02*
G37*
G36*
X0090744Y0084939D02*
X0090689Y0084938D01*
X0090637Y0084933D01*
X0090587Y0084926D01*
X0090539Y0084915D01*
X0090494Y0084901D01*
X0090451Y0084884D01*
X0090411Y0084864D01*
X0090374Y008484D01*
X0090338Y0084813D01*
X0090305Y0084783D01*
X0090093Y0084995D01*
X0090123Y0085028D01*
X009015Y0085064D01*
X0090174Y0085101D01*
X0090194Y0085142D01*
X0090211Y0085184D01*
X0090225Y0085229D01*
X0090236Y0085277D01*
X0090243Y0085327D01*
X0090248Y0085379D01*
X0090249Y0085434D01*
X0090744Y0084939D01*
D02*
G37*
G36*
X0111549Y0081179D02*
X0108099D01*
Y0084304D01*
X0111549D01*
Y0081179D01*
D02*
G37*
G36*
X0119649Y0087474D02*
X0119724Y0087417D01*
Y008726D01*
X0119649Y0087203D01*
X0119537Y0087057D01*
X0119467Y0086886D01*
X0119443Y0086704D01*
X0119467Y0086521D01*
X0119537Y0086351D01*
X0119649Y0086204D01*
X0119724Y0086147D01*
Y008599D01*
X0119649Y0085933D01*
X0119537Y0085787D01*
X0119467Y0085616D01*
X0119443Y0085434D01*
X0119467Y0085251D01*
X0119537Y0085081D01*
X0119649Y0084934D01*
X0119796Y0084822D01*
X0119966Y0084752D01*
X0120149Y0084728D01*
X0120331Y0084752D01*
X0120502Y0084822D01*
X0120648Y0084934D01*
X0120654Y0084943D01*
X0120657Y0084945D01*
X0120667Y008495D01*
X0120681Y0084956D01*
X0120702Y0084962D01*
X0120727Y0084968D01*
X0120756Y0084972D01*
X0120788Y0084975D01*
X0120809Y0084973D01*
X012084Y0084968D01*
X0120866Y0084962D01*
X0120886Y0084956D01*
X0120901Y008495D01*
X012091Y0084945D01*
X0120913Y0084943D01*
X0120919Y0084934D01*
X0121066Y0084822D01*
X0121236Y0084752D01*
X0121419Y0084728D01*
X0121601Y0084752D01*
X0121626Y0084762D01*
X0121713Y0084666D01*
X0120881Y0083681D01*
X011999Y008275D01*
X0119043Y0081876D01*
X0118044Y0081062D01*
X0117166Y0080434D01*
X0117053Y0080492D01*
Y0085854D01*
Y0087488D01*
X0117076Y0087515D01*
X0119618D01*
X0119649Y0087474D01*
D02*
G37*
G36*
X0116449Y0087691D02*
X0116371Y0087676D01*
X0116305Y0087632D01*
X0116261Y0087566D01*
X0116245Y0087488D01*
Y0085878D01*
X011624Y0085854D01*
Y0080229D01*
X0116256Y0080151D01*
X01163Y0080085D01*
X0116345Y0080055D01*
X0116361Y0079966D01*
X0116357Y0079913D01*
X0115903Y0079629D01*
X011477Y0079014D01*
X0113602Y0078472D01*
X0112401Y0078002D01*
X0111174Y0077608D01*
X0109925Y0077291D01*
X0108659Y0077053D01*
X010738Y0076893D01*
X0106094Y0076813D01*
X0104805Y0076813D01*
X0103519Y0076893D01*
X010224Y0077053D01*
X0100974Y0077291D01*
X0099724Y0077608D01*
X0098497Y0078002D01*
X0097949Y0078216D01*
Y0078356D01*
X0097962Y0078376D01*
X0097978Y0078454D01*
Y008675D01*
X0105249D01*
X0105327Y0086766D01*
X0105393Y008681D01*
X0105437Y0086876D01*
X0105453Y0086954D01*
Y0087254D01*
Y0089054D01*
X0111888D01*
Y0088229D01*
X0109477Y0085819D01*
X0109356Y0085637D01*
X0109313Y0085422D01*
Y0084508D01*
X0108099D01*
X0108021Y0084492D01*
X0107955Y0084448D01*
X0107911Y0084382D01*
X0107895Y0084304D01*
Y0082286D01*
X0106999D01*
X0106989Y0082284D01*
X0106719D01*
X0106623Y0082265D01*
X0106542Y0082211D01*
X0106488Y008213D01*
X0106469Y0082034D01*
Y0081824D01*
X0106488Y0081728D01*
X0106489Y0081728D01*
X0106534Y0081629D01*
X0106489Y008153D01*
X0106488Y008153D01*
X0106469Y0081434D01*
Y0081224D01*
X0106488Y0081128D01*
X0106542Y0081047D01*
Y0081011D01*
X0106488Y008093D01*
X0106469Y0080834D01*
Y0080624D01*
X0106488Y0080528D01*
X0106489Y0080528D01*
X0106534Y0080429D01*
X0106489Y008033D01*
X0106488Y008033D01*
X0106469Y0080234D01*
Y0080024D01*
X0106488Y0079928D01*
X0106542Y0079847D01*
Y0079811D01*
X0106488Y007973D01*
X0106469Y0079634D01*
Y0079424D01*
X0106488Y0079328D01*
X0106542Y0079247D01*
X0106623Y0079193D01*
X0106719Y0079174D01*
X0107279D01*
X0107375Y0079193D01*
X0107456Y0079247D01*
X010751Y0079328D01*
X0107529Y0079424D01*
Y0079634D01*
X010751Y007973D01*
X0107456Y0079811D01*
Y0079847D01*
X010751Y0079928D01*
X0107529Y0080024D01*
Y0080234D01*
X010751Y008033D01*
X0107509Y008033D01*
X0107464Y0080429D01*
X0107509Y0080528D01*
X010751Y0080528D01*
X0107529Y0080624D01*
Y0080834D01*
X0107527Y0080845D01*
X0107622Y0080972D01*
X0108599D01*
X0108614Y0080975D01*
X0111549D01*
X0111627Y0080991D01*
X0111693Y0081035D01*
X0111737Y0081101D01*
X0111753Y0081179D01*
Y0084304D01*
X0111737Y0084382D01*
X0111693Y0084448D01*
X0111627Y0084492D01*
X0111549Y0084508D01*
X0110435D01*
Y008519D01*
X0112846Y0087601D01*
X0112967Y0087783D01*
X011301Y0087997D01*
Y0089054D01*
X0116449D01*
Y0087691D01*
D02*
G37*
%LPC*%
G36*
X0106999Y0113867D02*
X0106511Y0113379D01*
X0106999Y0112891D01*
Y0113867D01*
D02*
G37*
G36*
X0099624Y011614D02*
X0099409Y0116097D01*
X0099227Y0115976D01*
X0099106Y0115794D01*
X0099063Y0115579D01*
X0099106Y0115364D01*
X0099227Y0115182D01*
X0099409Y0115061D01*
X0099624Y0115018D01*
X0099647Y0115023D01*
X0099651Y0115022D01*
X009966Y0115019D01*
X009967Y0115014D01*
X0099682Y0115008D01*
X0099696Y0114999D01*
X0099709Y0114989D01*
X0101572Y0113127D01*
X0101687Y0113049D01*
X0101824Y0113022D01*
X0104199D01*
Y0112779D01*
X0105422D01*
X0105449Y0112779D01*
X0105549Y0112714D01*
Y0112679D01*
X0106787D01*
X0106193Y0113273D01*
X0106299Y0113379D01*
X0106193Y0113485D01*
X0106787Y0114079D01*
X0105549D01*
Y0114044D01*
X0105449Y0113979D01*
X0105422Y0113979D01*
X0104199D01*
Y0113736D01*
X0101972D01*
X0100214Y0115494D01*
X0100204Y0115507D01*
X0100195Y0115521D01*
X0100189Y0115533D01*
X0100184Y0115543D01*
X0100181Y0115552D01*
X010018Y0115556D01*
X0100185Y0115579D01*
X0100142Y0115794D01*
X0100021Y0115976D01*
X0099839Y0116097D01*
X0099624Y011614D01*
D02*
G37*
G36*
X0101737Y0105854D02*
X0101161D01*
X0101449Y0105566D01*
X0101737Y0105854D01*
D02*
G37*
G36*
X0101449Y0105354D02*
X0101399Y0105304D01*
X0101449Y0105254D01*
X0101499Y0105304D01*
X0101449Y0105354D01*
D02*
G37*
G36*
X0101949Y0105642D02*
X0101611Y0105304D01*
X0101949Y0104966D01*
Y0105642D01*
D02*
G37*
G36*
X0100949Y0105642D02*
Y0104966D01*
X0101287Y0105304D01*
X0100949Y0105642D01*
D02*
G37*
G36*
X0101449Y0105042D02*
X0101161Y0104754D01*
X0101737D01*
X0101449Y0105042D01*
D02*
G37*
G36*
X0115399Y0104913D02*
X0114949D01*
X0114773Y0104878D01*
X0114752Y0104863D01*
X0115174Y0104441D01*
X0115596Y0104863D01*
X0115575Y0104878D01*
X0115399Y0104913D01*
D02*
G37*
G36*
X0115174Y0104379D02*
X0115099Y0104304D01*
X0115174Y0104229D01*
X0115249Y0104304D01*
X0115174Y0104379D01*
D02*
G37*
G36*
X0115808Y0104651D02*
X0115461Y0104304D01*
X0115808Y0103957D01*
X0115823Y0103978D01*
X0115858Y0104154D01*
Y0104454D01*
X0115823Y010463D01*
X0115808Y0104651D01*
D02*
G37*
G36*
X011454D02*
X0114525Y010463D01*
X011449Y0104454D01*
Y0104154D01*
X0114525Y0103978D01*
X011454Y0103957D01*
X0114887Y0104304D01*
X011454Y0104651D01*
D02*
G37*
G36*
X0115174Y0104167D02*
X0114752Y0103745D01*
X0114773Y010373D01*
X0114949Y0103695D01*
X0115399D01*
X0115575Y010373D01*
X0115596Y0103745D01*
X0115174Y0104167D01*
D02*
G37*
G36*
X0117274Y0103454D02*
X0116074D01*
Y0103161D01*
X0115682D01*
X0115651Y0103206D01*
X0115536Y0103284D01*
X0115399Y0103311D01*
X0114949D01*
X0114812Y0103284D01*
X0114697Y0103206D01*
X0114666Y0103161D01*
X0114075D01*
X0113938Y0103134D01*
X0113822Y0103056D01*
X0113647Y0102881D01*
X0113569Y0102765D01*
X0113542Y0102628D01*
Y0102594D01*
X0113507Y0102587D01*
X0113408Y010252D01*
X0113341Y0102421D01*
X0113318Y0102304D01*
Y0102104D01*
X0113341Y0101987D01*
X0113345Y0101981D01*
X0113403Y0101879D01*
X0113345Y0101777D01*
X0113341Y0101771D01*
X0113318Y0101654D01*
Y0101454D01*
X0113341Y0101337D01*
X0113345Y0101331D01*
X0113403Y0101229D01*
X0113345Y0101127D01*
X0113341Y0101121D01*
X0113318Y0101004D01*
Y0100804D01*
X0113341Y0100687D01*
X0113408Y0100588D01*
X0113507Y0100521D01*
X0113624Y0100498D01*
X0114174D01*
X0114291Y0100521D01*
X011439Y0100588D01*
X0114457Y0100687D01*
X011448Y0100804D01*
Y0100875D01*
X0114574Y0100954D01*
X0115824D01*
Y0102154D01*
X0114574D01*
X011448Y0102233D01*
Y0102304D01*
X0114477Y010232D01*
X0114555Y0102414D01*
X0114691Y0102409D01*
X0114697Y0102402D01*
X0114812Y0102324D01*
X0114949Y0102297D01*
X0115399D01*
X0115536Y0102324D01*
X0115651Y0102402D01*
X0115682Y0102447D01*
X0116074D01*
Y010226D01*
X0116024Y0102154D01*
X0116024D01*
X0116024Y0102154D01*
Y0100954D01*
X0117274D01*
Y0102154D01*
X0117274D01*
Y0102204D01*
X0117274D01*
Y0103454D01*
D02*
G37*
G36*
X0123449Y0104613D02*
X0123175Y0104577D01*
X0122919Y0104471D01*
X01227Y0104303D01*
X0122532Y0104084D01*
X0122426Y0103828D01*
X012239Y0103554D01*
X0122426Y010328D01*
X0122532Y0103024D01*
X0122608Y0102925D01*
X0123343Y010366D01*
X0124078Y0104395D01*
X0123979Y0104471D01*
X0123723Y0104577D01*
X0123449Y0104613D01*
D02*
G37*
G36*
X0091049Y0104512D02*
X0090801Y010448D01*
X009057Y0104384D01*
X0090371Y0104232D01*
X0090219Y0104033D01*
X0090123Y0103802D01*
X0090091Y0103554D01*
X0090123Y0103306D01*
X0090219Y0103075D01*
X0090371Y0102876D01*
X009057Y0102724D01*
X0090801Y0102628D01*
X0091049Y0102596D01*
X0091297Y0102628D01*
X0091528Y0102724D01*
X0091727Y0102876D01*
X0091879Y0103075D01*
X0091975Y0103306D01*
X0092007Y0103554D01*
X0091975Y0103802D01*
X0091879Y0104033D01*
X0091727Y0104232D01*
X0091528Y0104384D01*
X0091297Y010448D01*
X0091049Y0104512D01*
D02*
G37*
G36*
X0088149D02*
X0087901Y010448D01*
X008767Y0104384D01*
X0087471Y0104232D01*
X0087319Y0104033D01*
X0087223Y0103802D01*
X0087191Y0103554D01*
X0087223Y0103306D01*
X0087319Y0103075D01*
X0087471Y0102876D01*
X008767Y0102724D01*
X0087901Y0102628D01*
X0088149Y0102596D01*
X0088397Y0102628D01*
X0088628Y0102724D01*
X0088827Y0102876D01*
X0088979Y0103075D01*
X0089075Y0103306D01*
X0089107Y0103554D01*
X0089075Y0103802D01*
X0088979Y0104033D01*
X0088827Y0104232D01*
X0088628Y0104384D01*
X0088397Y010448D01*
X0088149Y0104512D01*
D02*
G37*
G36*
X012429Y0104183D02*
X0123555Y0103448D01*
X012282Y0102713D01*
X0122919Y0102637D01*
X0123175Y0102531D01*
X0123449Y0102495D01*
X0123723Y0102531D01*
X0123979Y0102637D01*
X0124198Y0102805D01*
X0124366Y0103024D01*
X0124472Y010328D01*
X0124508Y0103554D01*
X0124472Y0103828D01*
X0124366Y0104084D01*
X012429Y0104183D01*
D02*
G37*
G36*
X0098924Y0102663D02*
X0098474D01*
X0098298Y0102628D01*
X0098277Y0102613D01*
X0098699Y0102191D01*
X0099121Y0102613D01*
X00991Y0102628D01*
X0098924Y0102663D01*
D02*
G37*
G36*
X0098065Y0102401D02*
X009805Y010238D01*
X0098015Y0102204D01*
Y0101904D01*
X009805Y0101728D01*
X0098065Y0101707D01*
X0098412Y0102054D01*
X0098065Y0102401D01*
D02*
G37*
G36*
X009668Y0098073D02*
X0096161Y0097554D01*
X009668Y0097035D01*
X0096717Y0097089D01*
X009676Y0097304D01*
Y0097804D01*
X0096717Y0098019D01*
X009668Y0098073D01*
D02*
G37*
G36*
X0096199Y0098365D02*
X0094699D01*
X0094484Y0098322D01*
X009443Y0098285D01*
X0095055Y009766D01*
X0094949Y0097554D01*
X0095055Y0097448D01*
X009443Y0096823D01*
X0094484Y0096786D01*
X0094699Y0096743D01*
X0096199D01*
X0096414Y0096786D01*
X0096468Y0096823D01*
X0095843Y0097448D01*
X0095949Y0097554D01*
X0095843Y009766D01*
X0096468Y0098285D01*
X0096414Y0098322D01*
X0096199Y0098365D01*
D02*
G37*
G36*
X0093949Y0103254D02*
X0092749D01*
Y0102004D01*
X0092992D01*
X0093019Y0101867D01*
X0093097Y0101752D01*
X0093342Y0101506D01*
Y0096783D01*
X0093369Y0096647D01*
X0093447Y0096531D01*
X0094502Y0095476D01*
X0094617Y0095399D01*
X0094754Y0095371D01*
X0098273D01*
X009841Y0095399D01*
X0098526Y0095476D01*
X0098701Y0095652D01*
X0098779Y0095767D01*
X0098794Y0095845D01*
X0099199D01*
X0099375Y009588D01*
X0099523Y009598D01*
X0099623Y0096128D01*
X0099658Y0096304D01*
Y0096804D01*
X0099623Y009698D01*
X0099523Y0097128D01*
X0099375Y0097228D01*
X0099199Y0097263D01*
X0097699D01*
X0097523Y0097228D01*
X0097375Y0097128D01*
X0097275Y009698D01*
X009724Y0096804D01*
Y0096304D01*
X0097258Y0096212D01*
X0097163Y0096085D01*
X0094902D01*
X0094056Y0096931D01*
Y0097067D01*
X0094181Y0097089D01*
X0094217Y0097035D01*
X0094737Y0097554D01*
X0094217Y0098073D01*
X0094181Y0098019D01*
X0094056Y0098041D01*
Y0101654D01*
X0094029Y0101791D01*
X0093966Y0101884D01*
X0093949Y0102004D01*
X0093949Y0102004D01*
X0093949Y0102004D01*
Y0103254D01*
D02*
G37*
G36*
X0121949Y0101533D02*
X0121327Y0101484D01*
X0120719Y0101339D01*
X0120142Y01011D01*
X011961Y0100773D01*
X0119135Y0100368D01*
X011873Y0099893D01*
X0118403Y0099361D01*
X0118164Y0098784D01*
X0118019Y0098176D01*
X011797Y0097554D01*
X0118019Y0096932D01*
X0118164Y0096324D01*
X0118403Y0095747D01*
X011873Y0095215D01*
X011898Y0094922D01*
X0118974Y0094882D01*
X0118941Y0094781D01*
X011889Y009468D01*
X0118819Y0094578D01*
X0118783Y0094537D01*
X0118725Y0094478D01*
X0118625Y009433D01*
X011859Y0094154D01*
Y0093077D01*
X0118589Y0093076D01*
X0118432Y0092971D01*
X0118327Y0092814D01*
X011829Y0092629D01*
Y0089879D01*
X0118327Y0089694D01*
X0118432Y0089537D01*
X0118589Y0089432D01*
X0118774Y0089395D01*
X0119324D01*
X0119509Y0089432D01*
X0119666Y0089537D01*
X0119771Y0089694D01*
X0119808Y0089879D01*
Y0092629D01*
X0119771Y0092814D01*
X0119666Y0092971D01*
X0119509Y0093076D01*
X0119508Y0093077D01*
Y0093953D01*
X0119595Y0094016D01*
X0119711Y0094081D01*
X011983Y0094129D01*
X0119911Y009415D01*
X0120142Y0094008D01*
X0120719Y0093769D01*
X0121327Y0093624D01*
X0121949Y0093575D01*
X0122571Y0093624D01*
X0123179Y0093769D01*
X0123756Y0094008D01*
X0124288Y0094335D01*
X0124763Y009474D01*
X0125168Y0095215D01*
X0125495Y0095747D01*
X0125734Y0096324D01*
X0125879Y0096932D01*
X0125928Y0097554D01*
X0125879Y0098176D01*
X0125734Y0098784D01*
X0125495Y0099361D01*
X0125168Y0099893D01*
X0124763Y0100368D01*
X0124288Y0100773D01*
X0123756Y01011D01*
X0123179Y0101339D01*
X0122571Y0101484D01*
X0121949Y0101533D01*
D02*
G37*
G36*
X0088949Y0101555D02*
X0088323Y0101505D01*
X0087713Y0101359D01*
X0087133Y0101119D01*
X0086598Y0100791D01*
X008612Y0100383D01*
X0085712Y0099906D01*
X0085384Y009937D01*
X0085144Y009879D01*
X0084998Y009818D01*
X0084948Y0097554D01*
X0084998Y0096928D01*
X0085144Y0096318D01*
X0085384Y0095738D01*
X0085712Y0095202D01*
X008612Y0094725D01*
X0086598Y0094317D01*
X0087133Y0093989D01*
X0087713Y0093749D01*
X0088323Y0093603D01*
X0088949Y0093553D01*
X0089575Y0093603D01*
X0090185Y0093749D01*
X0090765Y0093989D01*
X00913Y0094317D01*
X0091778Y0094725D01*
X0092186Y0095202D01*
X0092514Y0095738D01*
X0092754Y0096318D01*
X00929Y0096928D01*
X009295Y0097554D01*
X00929Y009818D01*
X0092754Y009879D01*
X0092514Y009937D01*
X0092186Y0099906D01*
X0091778Y0100383D01*
X00913Y0100791D01*
X0090765Y0101119D01*
X0090185Y0101359D01*
X0089575Y0101505D01*
X0088949Y0101555D01*
D02*
G37*
G36*
X0115324Y0093215D02*
X0114774D01*
X011455Y0093171D01*
X0114487Y0093129D01*
X0115049Y0092566D01*
X0115611Y0093129D01*
X0115548Y0093171D01*
X0115324Y0093215D01*
D02*
G37*
G36*
X0115824Y0092916D02*
X0115155Y0092248D01*
X0115049Y0092354D01*
X0114943Y0092248D01*
X0114274Y0092916D01*
X0114232Y0092853D01*
X0114188Y0092629D01*
Y0089879D01*
X0114232Y0089655D01*
X0114274Y0089592D01*
X0114943Y009026D01*
X0115049Y0090154D01*
X0115155Y009026D01*
X0115824Y0089592D01*
X0115866Y0089655D01*
X011591Y0089879D01*
Y0092629D01*
X0115866Y0092853D01*
X0115824Y0092916D01*
D02*
G37*
G36*
X0090499Y0092542D02*
Y0091566D01*
X0090987Y0092054D01*
X0090499Y0092542D01*
D02*
G37*
%LPD*%
G36*
X0099975Y0115549D02*
X0099979Y0115522D01*
X0099985Y0115496D01*
X0099994Y011547D01*
X0100005Y0115443D01*
X0100019Y0115417D01*
X0100036Y0115391D01*
X0100056Y0115365D01*
X0100078Y0115339D01*
X0100102Y0115313D01*
X009989Y0115101D01*
X0099864Y0115125D01*
X0099838Y0115147D01*
X0099812Y0115167D01*
X0099786Y0115184D01*
X009976Y0115198D01*
X0099733Y0115209D01*
X0099707Y0115218D01*
X0099681Y0115224D01*
X0099654Y0115228D01*
X0099628Y0115229D01*
X0099974Y0115576D01*
X0099975Y0115549D01*
D02*
G37*
G36*
X0120736Y0094271D02*
X0120561Y0094327D01*
X0120391Y0094364D01*
X0120227Y0094382D01*
X0120068Y0094382D01*
X0119914Y0094362D01*
X0119766Y0094323D01*
X0119623Y0094265D01*
X0119485Y0094188D01*
X0119353Y0094092D01*
X0119226Y0093977D01*
X0118872Y0094331D01*
X011898Y0094451D01*
X0119066Y0094575D01*
X011913Y0094703D01*
X0119173Y0094835D01*
X0119194Y009497D01*
X0119194Y009511D01*
X0119172Y0095253D01*
X0119129Y00954D01*
X0119064Y0095551D01*
X0118977Y0095706D01*
X0120736Y0094271D01*
D02*
G37*
%LPC*%
G36*
X0109449Y0106842D02*
X0109161Y0106554D01*
X0109737D01*
X0109449Y0106842D01*
D02*
G37*
G36*
X0093949Y008589D02*
X0093734Y0085847D01*
X0093552Y0085726D01*
X0093431Y0085544D01*
X0093388Y0085329D01*
X0093431Y0085114D01*
X0093552Y0084932D01*
X0093734Y0084811D01*
X0093949Y0084768D01*
X0094164Y0084811D01*
X0094346Y0084932D01*
X0094358Y0084952D01*
X0094362Y0084954D01*
X009437Y0084958D01*
X0094381Y0084962D01*
X0094394Y0084966D01*
X009441Y008497D01*
X0094426Y0084972D01*
X0094726D01*
X0095322Y0084377D01*
X0095437Y0084299D01*
X0095574Y0084272D01*
X0095624D01*
Y0084004D01*
X0096824D01*
Y0085254D01*
X0095624D01*
Y008525D01*
X0095507Y0085201D01*
X0095126Y0085581D01*
X0095011Y0085659D01*
X0094874Y0085686D01*
X0094426D01*
X009441Y0085688D01*
X0094394Y0085692D01*
X0094381Y0085696D01*
X009437Y00857D01*
X0094362Y0085704D01*
X0094358Y0085706D01*
X0094346Y0085726D01*
X0094164Y0085847D01*
X0093949Y008589D01*
D02*
G37*
%LPD*%
G36*
X0094218Y0085556D02*
X009424Y008554D01*
X0094263Y0085526D01*
X0094288Y0085513D01*
X0094315Y0085503D01*
X0094343Y0085494D01*
X0094373Y0085488D01*
X0094406Y0085483D01*
X0094439Y008548D01*
X0094475Y0085479D01*
Y0085179D01*
X0094439Y0085178D01*
X0094406Y0085175D01*
X0094373Y008517D01*
X0094343Y0085164D01*
X0094315Y0085155D01*
X0094288Y0085145D01*
X0094263Y0085132D01*
X009424Y0085118D01*
X0094218Y0085102D01*
X0094199Y0085084D01*
Y0085574D01*
X0094218Y0085556D01*
D02*
G37*
%LPC*%
G36*
X0108565Y0083426D02*
X0108541Y0083395D01*
X0108468Y0083218D01*
X0108443Y0083029D01*
Y0082179D01*
X0108468Y008199D01*
X0108541Y0081813D01*
X0108565Y0081782D01*
X0109387Y0082604D01*
X0108565Y0083426D01*
D02*
G37*
G36*
X0111183Y0083426D02*
X0110361Y0082604D01*
X0111183Y0081782D01*
X0111207Y0081813D01*
X011128Y008199D01*
X0111305Y0082179D01*
Y0083029D01*
X011128Y0083218D01*
X0111207Y0083395D01*
X0111183Y0083426D01*
D02*
G37*
G36*
X0110574Y008376D02*
X0109174D01*
X0108985Y0083735D01*
X0108808Y0083662D01*
X0108777Y0083638D01*
X0109705Y008271D01*
X0109599Y0082604D01*
X0109705Y0082498D01*
X0108777Y008157D01*
X0108808Y0081546D01*
X0108985Y0081473D01*
X0109174Y0081448D01*
X0110574D01*
X0110763Y0081473D01*
X011094Y0081546D01*
X0110971Y008157D01*
X0110043Y0082498D01*
X0110149Y0082604D01*
X0110043Y008271D01*
X0110971Y0083638D01*
X011094Y0083662D01*
X0110763Y0083735D01*
X0110574Y008376D01*
D02*
G37*
G36*
X0105544Y0082487D02*
X0105054D01*
X0104896Y0082455D01*
X0104889Y0082451D01*
X0105299Y0082041D01*
X0105709Y0082451D01*
X0105702Y0082455D01*
X0105544Y0082487D01*
D02*
G37*
G36*
X0103074Y0083908D02*
X0098474Y0083908D01*
X0098396Y0083892D01*
X009833Y0083848D01*
X0098286Y0083782D01*
X009827Y0083704D01*
X009827Y0080579D01*
X0098286Y0080501D01*
X009833Y0080435D01*
X0098396Y0080391D01*
X0098474Y0080375D01*
X0099965D01*
X0099999Y0080368D01*
X0100033Y0080375D01*
X0101584Y0080375D01*
X0101599Y0080372D01*
X0103215D01*
X0103319Y0080245D01*
X0103317Y0080234D01*
Y0080024D01*
X0103344Y0079889D01*
X0103384Y0079829D01*
X0103344Y0079769D01*
X0103317Y0079634D01*
Y0079424D01*
X010334Y0079308D01*
X0103668Y0079635D01*
X010388Y0079423D01*
X0103553Y0079095D01*
X0103669Y0079072D01*
X0104229D01*
X0104345Y0079095D01*
X0104018Y0079423D01*
X010423Y0079635D01*
X0104607Y0079258D01*
X0104648Y0079256D01*
X0104668Y0079249D01*
X0104673Y0079226D01*
X0104677Y0079219D01*
X0105193Y0079735D01*
X0105299Y0079629D01*
X0105405Y0079735D01*
X0105921Y0079219D01*
X0105925Y0079226D01*
X0105957Y0079384D01*
Y0082074D01*
X0105925Y0082232D01*
X0105921Y0082239D01*
X0105405Y0081723D01*
X0105299Y0081829D01*
X0105193Y0081723D01*
X0104677Y0082239D01*
X0104673Y0082232D01*
X0104641Y0082074D01*
Y0080532D01*
X0104514Y0080478D01*
X0104489Y0080501D01*
X0104462Y0080537D01*
X0104479Y0080624D01*
Y0080834D01*
X010446Y008093D01*
X0104406Y0081011D01*
Y0081047D01*
X010446Y0081128D01*
X0104479Y0081224D01*
Y0081434D01*
X010446Y008153D01*
X0104459Y008153D01*
X0104414Y0081629D01*
X0104459Y0081728D01*
X010446Y0081728D01*
X0104479Y0081824D01*
Y0082034D01*
X010446Y008213D01*
X0104406Y0082211D01*
X0104325Y0082265D01*
X0104229Y0082284D01*
X0103669D01*
X0103573Y0082265D01*
X0103492Y0082211D01*
X0103438Y008213D01*
X0103419Y0082034D01*
Y008192D01*
X0103292Y0081829D01*
X0103278Y0081834D01*
X0103278Y0083704D01*
X0103262Y0083782D01*
X0103218Y0083848D01*
X0103152Y0083892D01*
X0103074Y0083908D01*
D02*
G37*
G36*
X0105299Y0079417D02*
X0104889Y0079007D01*
X0104896Y0079003D01*
X0105054Y0078971D01*
X0105544D01*
X0105702Y0079003D01*
X0105709Y0079007D01*
X0105299Y0079417D01*
D02*
G37*
G36*
X0102809Y0079852D02*
X0102311Y0079354D01*
X0102809Y0078856D01*
X0102843Y0078907D01*
X0102885Y0079117D01*
Y0079591D01*
X0102843Y0079801D01*
X0102809Y0079852D01*
D02*
G37*
G36*
X0099839Y0079852D02*
X0099805Y0079801D01*
X0099763Y0079591D01*
Y0079117D01*
X0099805Y0078907D01*
X0099839Y0078856D01*
X0100337Y0079354D01*
X0099839Y0079852D01*
D02*
G37*
G36*
X0108565Y0080476D02*
X0108541Y0080445D01*
X0108468Y0080268D01*
X0108443Y0080079D01*
Y0079229D01*
X0108468Y007904D01*
X0108541Y0078863D01*
X0108565Y0078832D01*
X0109387Y0079654D01*
X0108565Y0080476D01*
D02*
G37*
G36*
X0111183Y0080476D02*
X0110361Y0079654D01*
X0111183Y0078832D01*
X0111207Y0078863D01*
X011128Y007904D01*
X0111305Y0079229D01*
Y0080079D01*
X011128Y0080268D01*
X0111207Y0080445D01*
X0111183Y0080476D01*
D02*
G37*
G36*
X0102337Y008014D02*
X0100312D01*
X0100102Y0080098D01*
X0100051Y0080064D01*
X0100655Y007946D01*
X0100549Y0079354D01*
X0100655Y0079248D01*
X0100051Y0078644D01*
X0100102Y007861D01*
X0100312Y0078568D01*
X0102337D01*
X0102546Y007861D01*
X0102597Y0078644D01*
X0101993Y0079248D01*
X0102099Y0079354D01*
X0101993Y007946D01*
X0102597Y0080064D01*
X0102546Y0080098D01*
X0102337Y008014D01*
D02*
G37*
G36*
X0110574Y008081D02*
X0109174D01*
X0108985Y0080785D01*
X0108808Y0080712D01*
X0108777Y0080688D01*
X0109705Y007976D01*
X0109599Y0079654D01*
X0109705Y0079548D01*
X0108777Y007862D01*
X0108808Y0078596D01*
X0108985Y0078523D01*
X0109174Y0078498D01*
X0110574D01*
X0110763Y0078523D01*
X011094Y0078596D01*
X0110971Y007862D01*
X0110043Y0079548D01*
X0110149Y0079654D01*
X0110043Y007976D01*
X0110971Y0080688D01*
X011094Y0080712D01*
X0110763Y0080785D01*
X0110574Y008081D01*
D02*
G37*
%LPD*%
G36*
X0103074Y0080579D02*
X0098474Y0080579D01*
X0098474Y0083704D01*
X0103074Y0083704D01*
X0103074Y0080579D01*
D02*
G37*
%LPC*%
G36*
X0102809Y0082602D02*
X0102311Y0082104D01*
X0102809Y0081606D01*
X0102843Y0081657D01*
X0102885Y0081867D01*
Y0082341D01*
X0102843Y0082551D01*
X0102809Y0082602D01*
D02*
G37*
G36*
X0099839Y0082602D02*
X0099805Y0082551D01*
X0099763Y0082341D01*
Y0081867D01*
X0099805Y0081657D01*
X0099839Y0081606D01*
X0100337Y0082104D01*
X0099839Y0082602D01*
D02*
G37*
G36*
X0102337Y008289D02*
X0100312D01*
X0100102Y0082848D01*
X0100051Y0082814D01*
X0100655Y008221D01*
X0100549Y0082104D01*
X0100655Y0081998D01*
X0100051Y0081394D01*
X0100102Y008136D01*
X0100312Y0081318D01*
X0102337D01*
X0102546Y008136D01*
X0102597Y0081394D01*
X0101993Y0081998D01*
X0102099Y0082104D01*
X0101993Y008221D01*
X0102597Y0082814D01*
X0102546Y0082848D01*
X0102337Y008289D01*
D02*
G37*
%LPD*%
D10*
X0099899Y0088929D02*
Y0091875D01*
X0100078Y0092054D01*
D11*
X011579Y0087974D02*
X0121428D01*
X0120158Y0085434D02*
X0121428D01*
X0118899Y0108349D02*
X0120158D01*
X0116967Y0105809D02*
X0120158D01*
X01174Y0109848D02*
X0118899Y0108349D01*
X0116674Y0104279D02*
Y0105516D01*
X0116967Y0105809D01*
X0097449Y0109554D02*
X0097743Y0109848D01*
X0097449Y0108529D02*
Y0109554D01*
X0097743Y0109848D02*
X01174D01*
X0097449Y0105054D02*
X0097924Y0104579D01*
X0098699D01*
X0097449Y0105054D02*
Y0107079D01*
X0121949Y0097054D02*
Y0097554D01*
X0119049Y0094154D02*
X0121949Y0097054D01*
X0119049Y0091254D02*
Y0094154D01*
D15*
X01039Y0105079D02*
X0104925Y0104054D01*
X0105973D01*
X0106149Y010423D01*
Y0104254D01*
X0106449Y0104554D01*
D33*
X0093349Y0102629D02*
D03*
Y0104079D02*
D03*
X0105449Y0104779D02*
D03*
Y0103329D02*
D03*
X0096224Y0086079D02*
D03*
Y0084629D02*
D03*
X0097449Y0108529D02*
D03*
Y0107079D02*
D03*
X0108199Y0107279D02*
D03*
Y0105829D02*
D03*
X0102699Y0106529D02*
D03*
Y0105079D02*
D03*
X0116674Y0104279D02*
D03*
Y0102829D02*
D03*
X0098699Y0104579D02*
D03*
Y0106029D02*
D03*
D34*
Y0103554D02*
D03*
Y0102054D02*
D03*
X0115174Y0104304D02*
D03*
Y0102804D02*
D03*
D38*
X0101099Y0103754D02*
D03*
X0100449D02*
D03*
X0099799D02*
D03*
Y0101854D02*
D03*
X0100449D02*
D03*
X0101099D02*
D03*
D42*
X0095824Y0091404D02*
X0096149D01*
X0095525Y009078D02*
X0095799Y0091054D01*
X00957Y0088929D02*
X00975D01*
X0095525Y0089105D02*
X00957Y0088929D01*
X0095799Y0091379D02*
X0095824Y0091404D01*
X0095799Y0091054D02*
Y0091379D01*
X0095525Y0089105D02*
Y009078D01*
X0116449Y0099404D02*
X0122699Y0105654D01*
X0111999Y0099404D02*
X0116449D01*
X0110749Y0098154D02*
X0111999Y0099404D01*
X0121098Y0107079D02*
X0121274Y0106903D01*
X0101824Y0113379D02*
X0104874D01*
X0102799Y0091404D02*
X0103999Y0092604D01*
X0108314D02*
X0110249Y0094539D01*
X0103999Y0092604D02*
X0108314D01*
X0119508Y0106429D02*
X0120158Y0107079D01*
X0098724Y0092054D02*
X0099324D01*
X0097474D02*
X0098724D01*
X0110749Y0094332D02*
Y0098154D01*
X0108396Y0091979D02*
X0110749Y0094332D01*
X0105774Y0091979D02*
X0108396D01*
X011127Y0101554D02*
X0111999D01*
X0110249Y0100533D02*
X011127Y0101554D01*
X0110249Y0094539D02*
Y0100533D01*
X0099899Y0088929D02*
X0102724D01*
X0099324Y0092054D02*
X0099399Y0092129D01*
X0100078Y0092054D02*
X0100624D01*
X00975Y0088929D02*
X0099899D01*
X0093349Y0104079D02*
Y0104754D01*
X0090349Y0105354D02*
X0092749D01*
X0093349Y0104754D01*
X0089479Y0106224D02*
X0090349Y0105354D01*
X0089479Y0106224D02*
Y0107129D01*
X0093349Y0102004D02*
Y0102629D01*
Y0102004D02*
X0093699Y0101654D01*
X0090749Y0107129D02*
X0093468D01*
X0093699Y0096783D02*
X0094754Y0095728D01*
X0093699Y0096783D02*
Y0101654D01*
X0094754Y0095728D02*
X0098273D01*
X0098449Y0095904D01*
Y0096554D01*
X0090149Y0084839D02*
X0090749Y0085439D01*
X0090149Y0084129D02*
Y0084839D01*
X0090749Y0108399D02*
X0091999D01*
X0090749Y0086709D02*
X0093604D01*
X0090749Y0087979D02*
X0091999D01*
X0092649Y0088629D02*
Y0092029D01*
X0091999Y0087979D02*
X0092649Y0088629D01*
X0118824Y0106429D02*
X0119508D01*
X0121428Y0107079D02*
X0122449D01*
X0122699Y0106829D01*
Y0105654D02*
Y0106829D01*
X0092674Y0092054D02*
X0094349D01*
X0092649Y0092029D02*
X0092674Y0092054D01*
X0108199Y0108054D02*
X0111199D01*
X0107999D02*
X0108199D01*
X0093604Y0086709D02*
X0093699Y0086804D01*
X0096274D01*
X0091999Y0108399D02*
X0092004Y0108404D01*
X0093849D02*
X0094949Y0107304D01*
X0092004Y0108404D02*
X0093849D01*
X0095349Y0087979D02*
X0096149D01*
X0096199Y0088029D01*
X0096224Y0086079D02*
X0096274Y0086129D01*
Y0086804D01*
X0096849Y0086882D02*
Y0088029D01*
X0096771Y0086804D02*
X0096849Y0086882D01*
X0096274Y0086804D02*
X0096771D01*
X0093949Y0085329D02*
X0094874D01*
X0095574Y0084629D01*
X0096224D01*
X0097449Y0092079D02*
X0097474Y0092054D01*
X0097499Y008893D02*
X00975Y0088929D01*
X0097499Y008893D02*
Y0089829D01*
X0096375Y0090754D02*
X009847D01*
X0098724Y0091008D02*
Y0091404D01*
X009847Y0090754D02*
X0098724Y0091008D01*
X0096199Y0089829D02*
Y0090578D01*
X0096375Y0090754D01*
X0100624Y0091404D02*
X0102799D01*
X0102724Y0088929D02*
X0105774Y0091979D01*
X0096149Y0092704D02*
X0098724D01*
X0094949Y0103079D02*
Y0107304D01*
X0098449Y0098554D02*
Y0099579D01*
X0094949Y0103079D02*
X0098449Y0099579D01*
X0099624Y0115579D02*
X0101824Y0113379D01*
X0102399Y0101854D02*
X0102449Y0101804D01*
X0101099Y0101854D02*
X0102399D01*
X0099975Y0102804D02*
X0102523D01*
X0102699Y010298D02*
Y0105079D01*
X0099799Y0101854D02*
Y0102628D01*
X0102523Y0102804D02*
X0102699Y010298D01*
X0099799Y0102628D02*
X0099975Y0102804D01*
X0104599Y0108104D02*
Y0108504D01*
X0104849Y0108754D02*
X0107299D01*
X0104599Y0108504D02*
X0104849Y0108754D01*
X0107299D02*
X0107999Y0108054D01*
X0106449Y0106754D02*
X0106499Y0106804D01*
X0106449Y0104554D02*
Y0106754D01*
X0103049Y0107454D02*
X0104599D01*
X0102699Y0106529D02*
Y0107104D01*
X0103049Y0107454D01*
X0111999Y0099404D02*
Y0100904D01*
X0116649Y0102804D02*
X0116674Y0102829D01*
X0116649Y0101554D02*
Y0102804D01*
X0115174D02*
X0116649D01*
X0113899Y0102204D02*
Y0102628D01*
X0114075Y0102804D01*
X0115174D01*
X0115174Y0102804D01*
X0113899Y0101554D02*
X0115199D01*
X0113899Y0100904D02*
Y0101554D01*
X0111999Y0102204D02*
Y0107254D01*
X0111199Y0108054D02*
X0111999Y0107254D01*
X0108199Y0107279D02*
Y0108054D01*
X0100224Y0106029D02*
X0100449Y0105804D01*
X0098699Y0106029D02*
X0100224D01*
X0100449Y0103754D02*
Y0105804D01*
X0098724Y0104554D02*
X0099623D01*
X0099799Y0103754D02*
Y0104378D01*
X0099623Y0104554D02*
X0099799Y0104378D01*
X0100449Y0103754D02*
X0101099D01*
X0098699Y0104579D02*
X0098724Y0104554D01*
X0102624Y0106604D02*
X0102699Y0106529D01*
X0101449Y0106604D02*
X0102624D01*
X0102699Y0105079D02*
X01039D01*
X0102699Y0106529D02*
X0102724Y0106554D01*
X0106999Y0081329D02*
X0108599D01*
X0106999Y0081929D02*
X0109199D01*
X0109874Y0082604D01*
X0101599Y0080729D02*
X0103949D01*
X0101649Y0081329D02*
X0103949D01*
X0102924Y0080129D02*
X0103949D01*
X0102899Y0080104D02*
X0102924Y0080129D01*
D43*
X0106512Y0107467D02*
X0107144D01*
X0107349Y0107262D01*
Y0106034D02*
Y0107262D01*
X0106499Y0107454D02*
X0106512Y0107467D01*
X0100599Y0092729D02*
X0100624Y0092704D01*
X0100599Y0092729D02*
Y0093329D01*
X0100449Y0093479D02*
X0100599Y0093329D01*
X0107554Y0105829D02*
X0108199D01*
X0107349Y0106034D02*
X0107554Y0105829D01*
X0100449Y0093479D02*
Y0101854D01*
X0108199Y0105829D02*
X0108224Y0105804D01*
X0109449D01*
D44*
X0105449Y0104779D02*
Y0107038D01*
Y010787D01*
X0105683Y0108104D02*
X0106499D01*
X0105449Y010787D02*
X0105683Y0108104D01*
X0104599Y0106804D02*
X0105215D01*
X0105449Y0107038D01*
X0098699Y0103554D02*
Y0104579D01*
D45*
X0111449Y0088699D02*
Y0094054D01*
Y0088699D02*
X0111449Y0088699D01*
X0105449Y0097554D02*
Y0103329D01*
D46*
X0120149Y0087974D02*
D03*
X0121419D02*
D03*
X0120149Y0086704D02*
D03*
X0121419D02*
D03*
X0120149Y0085434D02*
D03*
X0121419D02*
D03*
X0090749Y0107129D02*
D03*
X0089479D02*
D03*
X0090749Y0108399D02*
D03*
X0089479D02*
D03*
X0090749Y0109669D02*
D03*
X0089479D02*
D03*
Y0087979D02*
D03*
Y0086709D02*
D03*
X0090749D02*
D03*
X0089479Y0085439D02*
D03*
X0090749D02*
D03*
Y0087979D02*
D03*
X0121419Y0105809D02*
D03*
X0120149D02*
D03*
X0121419Y0107079D02*
D03*
X0120149D02*
D03*
X0121419Y0108349D02*
D03*
X0120149D02*
D03*
D47*
X0088149Y0103554D02*
D03*
X0091049D02*
D03*
X0123449D02*
D03*
D48*
X0105449Y0097554D02*
D03*
D49*
X0121949D02*
D03*
X0088949D02*
D03*
D50*
X0112449Y0094054D02*
D03*
X0111449D02*
D03*
X0094949Y0100054D02*
D03*
X0115199Y0096939D02*
D03*
X0104849Y0117154D02*
D03*
X0113449Y0108654D02*
D03*
X0118824Y0103554D02*
D03*
X0099999Y0080929D02*
D03*
X0101924Y0083304D02*
D03*
X0099049Y0082079D02*
D03*
X0105299Y0079699D02*
D03*
Y0081759D02*
D03*
Y0080729D02*
D03*
X0110649Y0115129D02*
D03*
X0095474Y0108579D02*
D03*
X0093949Y0085329D02*
D03*
X0099224Y0100279D02*
D03*
X0105574Y0111954D02*
D03*
X0095124Y0112029D02*
D03*
X0099624Y0115579D02*
D03*
X0086449Y0101554D02*
D03*
X0109949Y0112654D02*
D03*
X0110949Y0104554D02*
D03*
X0096324Y0112054D02*
D03*
X0093449Y0106054D02*
D03*
X0098449Y0093804D02*
D03*
X0102199D02*
D03*
X0108524D02*
D03*
X0095374Y0083554D02*
D03*
X0104924Y0084629D02*
D03*
X0108549Y0096654D02*
D03*
X0108449Y0098479D02*
D03*
X0108649Y0097529D02*
D03*
X0107224Y0083204D02*
D03*
X0105474Y0078579D02*
D03*
X0103974Y0078654D02*
D03*
X0106999D02*
D03*
X0105974Y0088629D02*
D03*
X0100458Y0086354D02*
D03*
X0112474Y0080929D02*
D03*
X0112449Y0079354D02*
D03*
X0108124Y0080579D02*
D03*
X0108049Y0079229D02*
D03*
X0099099Y0079779D02*
D03*
X0099074Y0078879D02*
D03*
X0102224Y0097429D02*
D03*
X0102324Y0098329D02*
D03*
X0102349Y0096529D02*
D03*
D51*
X0094849Y0087604D02*
D03*
D52*
X0094349Y0092054D02*
D03*
X0096149Y0091404D02*
D03*
Y0092704D02*
D03*
X0094349D02*
D03*
Y0091404D02*
D03*
D53*
X0092674Y0092054D02*
D03*
X0106274Y0113379D02*
D03*
X0104824D02*
D03*
X0091224Y0092054D02*
D03*
X0115199Y0101554D02*
D03*
X0116649D02*
D03*
D54*
X0106999Y0080729D02*
D03*
Y0081329D02*
D03*
Y0081929D02*
D03*
Y0080129D02*
D03*
Y0079529D02*
D03*
X0103949D02*
D03*
Y0080129D02*
D03*
Y0081929D02*
D03*
Y0081329D02*
D03*
Y0080729D02*
D03*
D55*
X0105299Y0080729D02*
D03*
D56*
X0104599Y0106804D02*
D03*
Y0107454D02*
D03*
Y0108104D02*
D03*
X0106499D02*
D03*
Y0107454D02*
D03*
Y0106804D02*
D03*
X0100624Y0091404D02*
D03*
Y0092054D02*
D03*
Y0092704D02*
D03*
X0098724D02*
D03*
Y0092054D02*
D03*
Y0091404D02*
D03*
X0111999Y0102204D02*
D03*
Y0101554D02*
D03*
Y0100904D02*
D03*
X0113899D02*
D03*
Y0101554D02*
D03*
Y0102204D02*
D03*
D57*
X0119049Y0091254D02*
D03*
X0115049D02*
D03*
D58*
X0097499Y0089829D02*
D03*
X0096199D02*
D03*
Y0088029D02*
D03*
X0096849D02*
D03*
X0097499D02*
D03*
D59*
X0109449Y0105804D02*
D03*
Y0107104D02*
D03*
X0101449Y0105304D02*
D03*
Y0106604D02*
D03*
D60*
X0098449Y0098554D02*
D03*
Y0096554D02*
D03*
X0095449Y0097554D02*
D03*
D61*
X0101324Y0079354D02*
D03*
Y0082104D02*
D03*
D62*
X0109874Y0082604D02*
D03*
Y0079654D02*
D03*
D63*
X0112449Y0087997D02*
Y0094054D01*
X0109874Y0085422D02*
X0112449Y0087997D01*
X0109874Y0082604D02*
Y0085422D01*
M02*
