M48
;Layer_Color=9474304
;FILE_FORMAT=4:3
METRIC,LZ
;TYPE=PLATED
T1F00S00C0.300
T2F00S00C0.650
%
T01
X0083212Y0095869
X0085662
X0089912
X0095212Y0096372
Y0097969
X0095173Y0101419
X0097249Y0102186
X0098012Y0101005
X0098387Y0104719
Y0107144
Y0109151
X0095212
Y0107144
Y0104769
X0089812
X0089877Y0108569
X0085412Y0108576
X0083306Y0108569
X0085845Y0104769
X0084512Y0100969
X0091181Y0101423
X0104012Y0101969
Y0100269
Y0098569
X0106512
Y0100269
X0110212Y0099869
X011102Y0099994
X0112112Y0099969
X0109787Y0101269
Y0102469
Y0103569
X0108344Y0103636
X0106712Y0106069
X0107738Y0108369
X0105412Y0108383
X0103269
X0102058Y0104492
X0101432Y0097734
X0099178Y0095269
X0100496Y0093908
X0101803Y009267
X0105074Y0095949
X0106625Y0094419
X0111012Y0095169
Y0096769
T02
X0084392Y0091899
X0085662
X0086932
Y0093169
X0085662
X0084392
X0083306Y0105311
X0082036
X0080766
Y0106581
X0082036
X0083306
X0086912Y0109969
Y0111239
X0088182
Y0109969
X0089452
Y0111239
X0105912
Y0109969
X0107182
Y0111239
X0108452
Y0109969
X0108718Y0106581
Y0105311
X0109988
Y0106581
X0111258
Y0105311
X0107267Y0093169
Y0091899
X0105997
Y0093169
X0104727
Y0091899
M30
