M48
;Layer_Color=9474304
;FILE_FORMAT=4:3
METRIC,LZ
;TYPE=PLATED
T1F00S00C0.300
T2F00S00C0.650
%
T01
X003375Y0027375
X0035Y0032125
X003715Y0030375
X00385Y0033625
X00377Y0037625
X00355
X003375Y0034875
X0032254Y0039125
X00399Y003577
X00431Y0037625
X0047493Y0037432
X00475Y0038625
X0047493Y0036225
X00485Y0034375
X004975Y0035375
X005Y0037925
X0046Y0034375
Y0031625
X00485
Y0027125
X0051Y0027875
X0052715Y0029115
X0053616Y0029131
X00565Y0030375
Y0031875
X006325Y0027125
X0044Y0029725
X00425
X00415Y0031625
X0040379Y0041504
X0043604Y0041025
X00445Y0041675
X004625Y0043125
Y0044875
X0049Y0043125
X005Y0042875
X0052608
X0052993Y0039882
X005
X0049Y0047375
X00435
X00423Y0044025
X005695Y0042825
X0057875Y0042823
X006325Y0047375
X003467
X0037495Y0043875
Y004197
T02
X003588Y0027455
Y0028725
X003715
Y0027455
X003842
Y0028725
X0056255
Y0027455
X0057525
Y0028725
X0058795
Y0027455
X0060206Y0040867
Y0042137
X0061476
Y0040867
X0062746
Y0042137
X005994Y0045525
X005867
X00574
Y0046795
X005867
X005994
X004094
Y0045525
X003967
Y0046795
X00384
Y0045525
X003594Y0045175
Y0043905
X003467
Y0045175
X00334
Y0043905
X0033524Y0042137
X0032254
Y0040867
X0033524
X0034794
Y0042137
M30
