G04*
G04 #@! TF.GenerationSoftware,Altium Limited,Altium Designer,20.1.8 (145)*
G04*
G04 Layer_Color=32896*
%FSLAX43Y43*%
%MOMM*%
G71*
G04*
G04 #@! TF.SameCoordinates,9309D788-A49E-47DC-A76E-BEEF67F4AFBA*
G04*
G04*
G04 #@! TF.FilePolarity,Positive*
G04*
G01*
G75*
%ADD11C,0.250*%
%ADD12C,0.100*%
%ADD13C,0.200*%
%ADD14C,0.150*%
%ADD53C,0.500*%
G36*
X35496Y39869D02*
X35494Y39867D01*
X34794D01*
X35467Y40540D01*
X35496D01*
Y39869D01*
D02*
G37*
G36*
X63448D02*
X63446Y39867D01*
X62746D01*
X63419Y40540D01*
X63448D01*
Y39869D01*
D02*
G37*
D11*
X62971Y32835D02*
G03*
X62971Y32835I-125J0D01*
G01*
D12*
X61108Y30168D02*
Y31268D01*
X61258Y30168D02*
Y31268D01*
X57950Y34700D02*
X59050D01*
X57950Y34550D02*
X59050D01*
X59493Y43167D02*
X63446Y43168D01*
Y39842D02*
Y43168D01*
X59493Y39842D02*
Y43167D01*
Y39842D02*
X63446D01*
X31541Y43167D02*
X35494Y43168D01*
Y39842D02*
Y43168D01*
X31541Y39842D02*
Y43167D01*
Y39842D02*
X35494D01*
X38200Y37125D02*
X57775D01*
X38200Y37925D02*
X57775D01*
D13*
X53000Y27375D02*
Y28275D01*
X51750Y27375D02*
Y28375D01*
Y27375D02*
X53950D01*
Y28375D01*
X51750D02*
X53950D01*
X59746Y34385D02*
X62546D01*
X59746Y33885D02*
X62546D01*
X59746D02*
Y34385D01*
X62546Y33885D02*
Y34385D01*
X55000Y34475D02*
Y36275D01*
Y38975D02*
Y40775D01*
Y42475D02*
Y44275D01*
D14*
X53050Y35675D02*
Y35075D01*
X52750D01*
X52650Y35175D01*
Y35575D01*
X52750Y35675D01*
X53050D01*
X52450D02*
Y35075D01*
X52150D01*
X52050Y35175D01*
Y35575D01*
X52150Y35675D01*
X52450D01*
X51550Y35075D02*
Y35675D01*
X51850Y35375D01*
X51450D01*
X53050Y40425D02*
Y39825D01*
X52750D01*
X52650Y39925D01*
Y40325D01*
X52750Y40425D01*
X53050D01*
X52450D02*
Y39825D01*
X52150D01*
X52050Y39925D01*
Y40325D01*
X52150Y40425D01*
X52450D01*
X51850Y40325D02*
X51750Y40425D01*
X51550D01*
X51450Y40325D01*
Y40225D01*
X51550Y40125D01*
X51650D01*
X51550D01*
X51450Y40025D01*
Y39925D01*
X51550Y39825D01*
X51750D01*
X51850Y39925D01*
X53050Y43675D02*
Y43075D01*
X52750D01*
X52650Y43175D01*
Y43575D01*
X52750Y43675D01*
X53050D01*
X52450D02*
Y43075D01*
X52150D01*
X52050Y43175D01*
Y43575D01*
X52150Y43675D01*
X52450D01*
X51450Y43075D02*
X51850D01*
X51450Y43475D01*
Y43575D01*
X51550Y43675D01*
X51750D01*
X51850Y43575D01*
X58600Y36825D02*
X58700Y36925D01*
X58900D01*
X59000Y36825D01*
Y36425D01*
X58900Y36325D01*
X58700D01*
X58600Y36425D01*
X58100Y36325D02*
Y36925D01*
X58400Y36625D01*
X58000D01*
X63350Y30825D02*
X63450Y30925D01*
X63650D01*
X63750Y30825D01*
Y30425D01*
X63650Y30325D01*
X63450D01*
X63350Y30425D01*
X63150Y30825D02*
X63050Y30925D01*
X62850D01*
X62750Y30825D01*
Y30725D01*
X62850Y30625D01*
X62950D01*
X62850D01*
X62750Y30525D01*
Y30425D01*
X62850Y30325D01*
X63050D01*
X63150Y30425D01*
X61712Y36925D02*
Y36325D01*
X61412D01*
X61312Y36425D01*
Y36825D01*
X61412Y36925D01*
X61712D01*
X61112Y36325D02*
Y36725D01*
X60912Y36925D01*
X60712Y36725D01*
Y36325D01*
Y36625D01*
X61112D01*
X60512Y36325D02*
X60312D01*
X60412D01*
Y36925D01*
X60512Y36825D01*
X53700Y29325D02*
Y28925D01*
X53500Y28725D01*
X53300Y28925D01*
Y29325D01*
X53100D02*
Y28725D01*
X52800D01*
X52700Y28825D01*
Y29225D01*
X52800Y29325D01*
X53100D01*
X52100D02*
X52500D01*
Y29025D01*
X52300Y29125D01*
X52200D01*
X52100Y29025D01*
Y28825D01*
X52200Y28725D01*
X52400D01*
X52500Y28825D01*
D53*
X54100Y34075D02*
D03*
Y38575D02*
D03*
X55900Y44675D02*
D03*
M02*
