M48
;Layer_Color=9474304
;FILE_FORMAT=4:3
METRIC,LZ
;TYPE=PLATED
T1F00S00C0.300
T2F00S00C0.650
%
T01
X0091181Y0101423
X0093414Y0101411
X0097312Y0101969
X0095412Y0104769
X0100212Y0103969
X0099412Y0098469
X0101312Y0097769
X0099612Y0095269
X0095212Y0097969
X0106712Y0094369
X0111012Y0096769
X011102Y0099994
X0110223Y0099971
X0109787Y0101269
Y0102469
Y0103569
X0106712Y0106069
X0103287Y0107644
X0112112Y0099969
T02
X0084392Y0091899
X0085662
X0086932
Y0093169
X0085662
X0084392
X0083306Y0105311
X0082036
X0080766
Y0106581
X0082036
X0083306
X0086912Y0109969
Y0111239
X0088182
Y0109969
X0089452
Y0111239
X0105912
Y0109969
X0107182
Y0111239
X0108452
Y0109969
X0108718Y0106581
Y0105311
X0109988
Y0106581
X0111258
Y0105311
X0107267Y0093169
Y0091899
X0105997
Y0093169
X0104727
Y0091899
M30
