G04*
G04 #@! TF.GenerationSoftware,Altium Limited,Altium Designer,20.1.8 (145)*
G04*
G04 Layer_Color=8388736*
%FSTAX43Y43*%
%MOMM*%
G71*
G04*
G04 #@! TF.SameCoordinates,BC0BFB7A-5D47-4F10-95C9-8F0A950B5036*
G04*
G04*
G04 #@! TF.FilePolarity,Negative*
G04*
G01*
G75*
%ADD13R,0.960X2.200*%
%ADD14C,1.200*%
%ADD15C,2.450*%
%ADD16C,2.200*%
D13*
X0096649Y0080554D02*
D03*
X0099149D02*
D03*
X0101649D02*
D03*
Y0086554D02*
D03*
X0099149D02*
D03*
X0096649D02*
D03*
D14*
X0089479Y0109648D02*
D03*
X0090749D02*
D03*
X0089479Y0108378D02*
D03*
X0090749D02*
D03*
X0089479Y0107108D02*
D03*
X0090749D02*
D03*
X0120149Y0090648D02*
D03*
X0121419D02*
D03*
X0120149Y0089378D02*
D03*
X0121419D02*
D03*
X0120149Y0088108D02*
D03*
X0121419D02*
D03*
Y0107108D02*
D03*
X0120149D02*
D03*
X0121419Y0108378D02*
D03*
X0120149D02*
D03*
X0121419Y0109648D02*
D03*
X0120149D02*
D03*
X0090749Y0088108D02*
D03*
X0089479D02*
D03*
X0090749Y0089378D02*
D03*
X0089479D02*
D03*
X0090749Y0090648D02*
D03*
X0089479D02*
D03*
D15*
X0105649Y0081554D02*
D03*
D16*
X0100549Y0113154D02*
D03*
X0104049D02*
D03*
X0107549D02*
D03*
X0111049D02*
D03*
X0109549Y0083754D02*
D03*
X0113049D02*
D03*
M02*
