G04*
G04 #@! TF.GenerationSoftware,Altium Limited,Altium Designer,20.1.8 (145)*
G04*
G04 Layer_Physical_Order=2*
G04 Layer_Color=16711680*
%FSTAX43Y43*%
%MOMM*%
G71*
G04*
G04 #@! TF.SameCoordinates,BC0BFB7A-5D47-4F10-95C9-8F0A950B5036*
G04*
G04*
G04 #@! TF.FilePolarity,Positive*
G04*
G01*
G75*
%ADD18C,0.300*%
%ADD20C,1.000*%
%ADD21C,2.250*%
%ADD22C,2.000*%
%ADD23R,1.000X1.500*%
G36*
X0106089Y0118295D02*
X0107365Y0118216D01*
X0108634Y0118059D01*
X0109891Y0117824D01*
X0111131Y0117512D01*
X0112349Y0117124D01*
X0113541Y0116662D01*
X0114703Y0116127D01*
X0115829Y0115522D01*
X0116916Y0114848D01*
X011796Y0114109D01*
X0118956Y0113307D01*
X01199Y0112445D01*
X012079Y0111527D01*
X0121622Y0110556D01*
X0121664Y01105D01*
X0121639Y011044D01*
X0121591Y0110386D01*
X0121419Y0110408D01*
X0121222Y0110382D01*
X0121038Y0110306D01*
X0120881Y0110185D01*
X0120847Y0110142D01*
X012072D01*
X0120686Y0110185D01*
X0120529Y0110306D01*
X0120346Y0110382D01*
X0120149Y0110408D01*
X0119952Y0110382D01*
X0119768Y0110306D01*
X0119611Y0110185D01*
X011949Y0110028D01*
X0119414Y0109845D01*
X0119388Y0109648D01*
X0119414Y0109451D01*
X011949Y0109267D01*
X0119611Y010911D01*
X0119655Y0109076D01*
Y0108949D01*
X0119611Y0108915D01*
X011949Y0108758D01*
X0119414Y0108575D01*
X0119388Y0108378D01*
X0119414Y0108181D01*
X011949Y0107997D01*
X0119611Y010784D01*
X0119655Y0107806D01*
Y0107679D01*
X0119611Y0107645D01*
X011949Y0107488D01*
X0119414Y0107305D01*
X0119388Y0107108D01*
X0119414Y0106911D01*
X011949Y0106727D01*
X0119611Y010657D01*
X0119768Y0106449D01*
X0119952Y0106373D01*
X0120149Y0106347D01*
X0120346Y0106373D01*
X0120529Y0106449D01*
X0120686Y010657D01*
X012072Y0106614D01*
X0120847D01*
X0120881Y010657D01*
X0121038Y0106449D01*
X0121222Y0106373D01*
X0121419Y0106347D01*
X0121616Y0106373D01*
X0121799Y0106449D01*
X0121956Y010657D01*
X0122077Y0106727D01*
X0122153Y0106911D01*
X0122179Y0107108D01*
X0122153Y0107305D01*
X0122077Y0107488D01*
X0121956Y0107645D01*
X0121912Y0107679D01*
Y0107806D01*
X0121956Y010784D01*
X0122077Y0107997D01*
X0122153Y0108181D01*
X0122179Y0108378D01*
X0122153Y0108575D01*
X0122077Y0108758D01*
X0121956Y0108915D01*
X0121912Y0108949D01*
Y0109076D01*
X0121956Y010911D01*
X0122077Y0109267D01*
X0122153Y0109451D01*
X0122175Y0109612D01*
X0122278Y0109652D01*
X0122302Y0109654D01*
X012239Y0109537D01*
X012269Y0109062D01*
Y0105313D01*
X0118199D01*
X0118193Y0105312D01*
X0118186Y0105313D01*
X0118088Y0105308D01*
X011807Y0105303D01*
X011805D01*
X0117858Y0105265D01*
X0117835Y0105255D01*
X011781Y010525D01*
X0117629Y0105175D01*
X0117607Y0105161D01*
X0117584Y0105151D01*
X0117421Y0105042D01*
X0117403Y0105024D01*
X0117381Y010501D01*
X0117243Y0104872D01*
X0117229Y010485D01*
X0117211Y0104832D01*
X0117102Y0104669D01*
X0117092Y0104646D01*
X0117078Y0104624D01*
X0117003Y0104443D01*
X0116998Y0104418D01*
X0116988Y0104395D01*
X011695Y0104203D01*
Y0104183D01*
X0116945Y0104165D01*
X011694Y0104067D01*
X0116941Y010406D01*
X011694Y0104054D01*
Y0093554D01*
X0116941Y0093548D01*
X011694Y0093541D01*
X0116945Y0093443D01*
X011695Y0093425D01*
Y0093405D01*
X0116988Y0093213D01*
X0116998Y009319D01*
X0117003Y0093165D01*
X0117078Y0092983D01*
X0117092Y0092962D01*
X0117102Y0092939D01*
X0117211Y0092776D01*
X0117229Y0092758D01*
X0117243Y0092736D01*
X0117381Y0092598D01*
X0117403Y0092584D01*
X0117421Y0092566D01*
X0117584Y0092457D01*
X0117607Y0092447D01*
X0117629Y0092433D01*
X011781Y0092358D01*
X0117835Y0092353D01*
X0117858Y0092343D01*
X011805Y0092305D01*
X011807D01*
X0118088Y00923D01*
X0118186Y0092295D01*
X0118193Y0092296D01*
X0118199Y0092295D01*
X012269D01*
Y0087513D01*
X0122368D01*
X0122307Y008764D01*
X0122393Y0087847D01*
X0122427Y0088108D01*
X0122393Y0088369D01*
X0122292Y0088612D01*
X0122132Y0088821D01*
X0122012Y0088913D01*
X0122077Y0088997D01*
X0122153Y0089181D01*
X0122179Y0089378D01*
X0122153Y0089575D01*
X0122077Y0089758D01*
X0122012Y0089843D01*
X0122132Y0089935D01*
X0122292Y0090143D01*
X0122393Y0090387D01*
X0122427Y0090648D01*
X0122393Y0090909D01*
X0122292Y0091152D01*
X0122132Y0091361D01*
X0121923Y0091521D01*
X012168Y0091622D01*
X0121419Y0091656D01*
X0121158Y0091622D01*
X0120914Y0091521D01*
X0120784Y0091421D01*
X0120653Y0091521D01*
X012041Y0091622D01*
X0120149Y0091656D01*
X0119888Y0091622D01*
X0119644Y0091521D01*
X0119436Y0091361D01*
X0119275Y0091152D01*
X0119174Y0090909D01*
X011914Y0090648D01*
X0119174Y0090387D01*
X0119275Y0090143D01*
X0119436Y0089935D01*
X0119555Y0089843D01*
X011949Y0089758D01*
X0119414Y0089575D01*
X0119388Y0089378D01*
X0119414Y0089181D01*
X011949Y0088997D01*
X0119555Y0088913D01*
X0119436Y0088821D01*
X0119275Y0088612D01*
X0119174Y0088369D01*
X011914Y0088108D01*
X0119174Y0087847D01*
X011926Y008764D01*
X01192Y0087513D01*
X0118149D01*
X0118143Y0087512D01*
X0118136Y0087513D01*
X0118038Y0087508D01*
X011802Y0087503D01*
X0118D01*
X0117808Y0087465D01*
X0117785Y0087455D01*
X011776Y008745D01*
X0117578Y0087375D01*
X0117557Y0087361D01*
X0117534Y0087351D01*
X0117371Y0087242D01*
X0117353Y0087224D01*
X0117331Y008721D01*
X0117193Y0087072D01*
X0117179Y008705D01*
X0117161Y0087032D01*
X0117052Y0086869D01*
X0117042Y0086846D01*
X0117028Y0086824D01*
X0116953Y0086643D01*
X0116948Y0086618D01*
X0116938Y0086595D01*
X01169Y0086403D01*
Y0086383D01*
X0116895Y0086365D01*
X011689Y0086267D01*
X0116891Y008626D01*
X011689Y0086254D01*
Y0080253D01*
X0116495Y0079989D01*
X0115438Y0079367D01*
X0114346Y0078808D01*
X0113223Y0078315D01*
X0112072Y0077889D01*
X0110899Y0077532D01*
X0109706Y0077245D01*
X0108498Y0077029D01*
X010728Y0076885D01*
X0106056Y0076813D01*
X0104829Y0076813D01*
X0103604Y0076886D01*
X0102386Y0077031D01*
X0101179Y0077248D01*
X0099986Y0077536D01*
X0098813Y0077894D01*
X0097663Y007832D01*
X009654Y0078814D01*
X0095448Y0079373D01*
X0094391Y0079996D01*
X0093997Y0080261D01*
Y0086262D01*
X0093995Y0086268D01*
X0093996Y0086275D01*
X0093991Y0086373D01*
X0093987Y0086391D01*
Y008641D01*
X0093948Y0086603D01*
X0093939Y0086626D01*
X0093934Y0086651D01*
X0093859Y0086832D01*
X0093845Y0086854D01*
X0093835Y0086877D01*
X0093726Y008704D01*
X0093708Y0087058D01*
X0093694Y0087079D01*
X0093555Y0087218D01*
X0093534Y0087232D01*
X0093516Y008725D01*
X0093353Y0087359D01*
X0093329Y0087369D01*
X0093308Y0087383D01*
X0093127Y0087458D01*
X0093102Y0087463D01*
X0093078Y0087473D01*
X0092886Y0087511D01*
X0092867D01*
X0092848Y0087516D01*
X009275Y0087521D01*
X0092744Y008752D01*
X0092738Y0087521D01*
X0091509D01*
X0091462Y0087568D01*
X0091437Y0087648D01*
X0091483Y0087695D01*
X0091484Y0087695D01*
X0091492Y0087696D01*
X0094546D01*
X0103504Y0078738D01*
X0103638Y0078648D01*
X0103795Y0078617D01*
X0104895D01*
Y0078025D01*
X0106403D01*
Y0080033D01*
X0104895D01*
Y0079441D01*
X0103966D01*
X0095008Y0088399D01*
X0094874Y0088488D01*
X0094717Y008852D01*
X0091492D01*
X0091484Y0088521D01*
X0091463Y0088525D01*
X0091442Y0088532D01*
X009142Y0088542D01*
X0091397Y0088554D01*
X0091372Y008857D01*
X0091346Y0088589D01*
X0091319Y0088612D01*
X0091293Y0088637D01*
X0091286Y0088645D01*
X0091242Y0088679D01*
Y0088806D01*
X0091286Y008884D01*
X0091407Y0088997D01*
X0091483Y0089181D01*
X0091489Y0089226D01*
X0091481Y0089226D01*
X0091437Y008922D01*
X0091394Y008921D01*
X0091351Y0089196D01*
X0091309Y0089178D01*
X0091267Y0089156D01*
X0091226Y008913D01*
X0091185Y00891D01*
X0091145Y0089066D01*
X0091106Y0089028D01*
Y0089555D01*
X0090839Y0089288D01*
X0090659Y0089468D01*
X0091242Y0090051D01*
Y0090076D01*
X0091286Y009011D01*
X0091407Y0090267D01*
X0091483Y0090451D01*
X0091509Y0090648D01*
X0091483Y0090845D01*
X0091407Y0091028D01*
X0091286Y0091185D01*
X0091129Y0091306D01*
X0090946Y0091382D01*
X0090749Y0091408D01*
X0090552Y0091382D01*
X0090368Y0091306D01*
X0090211Y0091185D01*
X0090177Y0091142D01*
X009005D01*
X0090016Y0091185D01*
X0089859Y0091306D01*
X0089676Y0091382D01*
X0089479Y0091408D01*
X0089282Y0091382D01*
X0089098Y0091306D01*
X0088941Y0091185D01*
X008882Y0091028D01*
X0088744Y0090845D01*
X0088718Y0090648D01*
X0088744Y0090451D01*
X008882Y0090267D01*
X0088941Y009011D01*
X0088985Y0090076D01*
Y0089949D01*
X0088941Y0089915D01*
X008882Y0089758D01*
X0088744Y0089575D01*
X0088718Y0089378D01*
X0088744Y0089181D01*
X008882Y0088997D01*
X0088941Y008884D01*
X0088985Y0088806D01*
Y0088679D01*
X0088941Y0088645D01*
X008882Y0088488D01*
X0088744Y0088305D01*
X0088718Y0088108D01*
X0088744Y0087911D01*
X008882Y0087727D01*
X0088881Y0087648D01*
X0088819Y0087521D01*
X0088197D01*
Y0092295D01*
X0092699D01*
X0092705Y0092296D01*
X0092712Y0092295D01*
X009281Y00923D01*
X0092828Y0092305D01*
X0092848D01*
X009304Y0092343D01*
X0093063Y0092353D01*
X0093088Y0092358D01*
X009327Y0092433D01*
X0093291Y0092447D01*
X0093314Y0092457D01*
X0093477Y0092566D01*
X0093495Y0092584D01*
X0093517Y0092598D01*
X0093655Y0092736D01*
X0093669Y0092758D01*
X0093687Y0092776D01*
X0093796Y0092939D01*
X0093806Y0092962D01*
X009382Y0092983D01*
X0093895Y0093165D01*
X00939Y009319D01*
X009391Y0093213D01*
X0093948Y0093405D01*
Y0093425D01*
X0093953Y0093443D01*
X0093958Y0093541D01*
X0093957Y0093548D01*
X0093958Y0093554D01*
Y0104054D01*
X0093957Y010406D01*
X0093958Y0104067D01*
X0093953Y0104165D01*
X0093948Y0104183D01*
Y0104203D01*
X009391Y0104395D01*
X00939Y0104418D01*
X0093895Y0104443D01*
X009382Y0104624D01*
X0093806Y0104646D01*
X0093796Y0104669D01*
X0093687Y0104832D01*
X0093669Y010485D01*
X0093655Y0104872D01*
X0093517Y010501D01*
X0093495Y0105024D01*
X0093477Y0105042D01*
X0093314Y0105151D01*
X0093291Y0105161D01*
X0093269Y0105175D01*
X0093088Y010525D01*
X0093063Y0105255D01*
X009304Y0105265D01*
X0092848Y0105303D01*
X0092828D01*
X009281Y0105308D01*
X0092712Y0105313D01*
X0092705Y0105312D01*
X0092699Y0105313D01*
X0088197D01*
X0088197Y0109067D01*
X0088506Y0109535D01*
X0088595Y0109653D01*
X0088617Y0109652D01*
X0088723Y0109611D01*
X0088744Y0109451D01*
X008882Y0109267D01*
X0088941Y010911D01*
X0088985Y0109076D01*
Y0108949D01*
X0088941Y0108915D01*
X008882Y0108758D01*
X0088744Y0108575D01*
X0088718Y0108378D01*
X0088744Y0108181D01*
X008882Y0107997D01*
X0088941Y010784D01*
X0088985Y0107806D01*
Y0107679D01*
X0088941Y0107645D01*
X008882Y0107488D01*
X0088744Y0107305D01*
X0088718Y0107108D01*
X0088744Y0106911D01*
X008882Y0106727D01*
X0088941Y010657D01*
X0089098Y0106449D01*
X0089282Y0106373D01*
X0089479Y0106347D01*
X0089676Y0106373D01*
X0089859Y0106449D01*
X0090016Y010657D01*
X009005Y0106614D01*
X0090177D01*
X0090211Y010657D01*
X0090368Y0106449D01*
X0090552Y0106373D01*
X0090749Y0106347D01*
X0090946Y0106373D01*
X0091129Y0106449D01*
X0091286Y010657D01*
X0091407Y0106727D01*
X0091483Y0106911D01*
X0091509Y0107108D01*
X0091483Y0107305D01*
X0091407Y0107488D01*
X0091286Y0107645D01*
X0091242Y0107679D01*
Y0107806D01*
X0091286Y010784D01*
X0091407Y0107997D01*
X0091483Y0108181D01*
X0091509Y0108378D01*
X0091483Y0108575D01*
X0091407Y0108758D01*
X0091286Y0108915D01*
X0091242Y0108949D01*
Y0109047D01*
X0091224Y0109064D01*
X0091188Y0109091D01*
X009115Y0109113D01*
X009111Y0109131D01*
X0091068Y0109146D01*
X0091025Y0109156D01*
X0090979Y0109161D01*
X0090931Y0109163D01*
X0090881Y0109161D01*
X0090829Y0109154D01*
X0091244Y0109718D01*
X0091253Y0109662D01*
X0091278Y0109558D01*
X0091294Y010951D01*
X0091312Y0109465D01*
X0091332Y0109422D01*
X0091355Y0109382D01*
X009138Y0109345D01*
X0091407Y0109311D01*
X009142Y0109297D01*
X0091483Y0109451D01*
X0091509Y0109648D01*
X0091483Y0109845D01*
X0091407Y0110028D01*
X0091364Y0110084D01*
X0090839Y0109558D01*
X0090659Y0109738D01*
X0091185Y0110263D01*
X0091129Y0110306D01*
X0090946Y0110382D01*
X0090749Y0110408D01*
X0090552Y0110382D01*
X0090368Y0110306D01*
X0090211Y0110185D01*
X0090177Y0110142D01*
X009005D01*
X0090016Y0110185D01*
X0089859Y0110306D01*
X0089676Y0110382D01*
X0089479Y0110408D01*
X0089307Y0110386D01*
X0089258Y0110442D01*
X0089234Y01105D01*
X0089276Y0110556D01*
X0090108Y0111527D01*
X0090998Y0112446D01*
X0091942Y0113308D01*
X0092938Y0114109D01*
X0093982Y0114849D01*
X0095069Y0115522D01*
X0096195Y0116127D01*
X0097357Y0116662D01*
X0098549Y0117124D01*
X0099768Y0117512D01*
X0101008Y0117824D01*
X0102264Y0118059D01*
X0103534Y0118216D01*
X010481Y0118295D01*
X0106089Y0118295D01*
D02*
G37*
G36*
X0091145Y008842D02*
X0091185Y0088386D01*
X0091226Y0088356D01*
X0091267Y008833D01*
X0091309Y0088308D01*
X0091351Y008829D01*
X0091394Y0088276D01*
X0091437Y0088266D01*
X0091481Y008826D01*
X0091526Y0088258D01*
Y0087958D01*
X0091481Y0087956D01*
X0091437Y008795D01*
X0091394Y008794D01*
X0091351Y0087926D01*
X0091309Y0087908D01*
X0091267Y0087886D01*
X0091226Y008786D01*
X0091185Y008783D01*
X0091145Y0087796D01*
X0091106Y0087758D01*
Y0088458D01*
X0091145Y008842D01*
D02*
G37*
%LPC*%
G36*
X0111049Y0114419D02*
X0110722Y0114376D01*
X0110417Y0114249D01*
X0110155Y0114048D01*
X0109954Y0113786D01*
X0109827Y0113481D01*
X0109784Y0113154D01*
X0109827Y0112827D01*
X0109954Y0112522D01*
X0110155Y011226D01*
X0110417Y0112059D01*
X0110722Y0111932D01*
X0111049Y0111889D01*
X0111376Y0111932D01*
X0111681Y0112059D01*
X0111943Y011226D01*
X0112144Y0112522D01*
X0112271Y0112827D01*
X0112314Y0113154D01*
X0112271Y0113481D01*
X0112144Y0113786D01*
X0111943Y0114048D01*
X0111681Y0114249D01*
X0111376Y0114376D01*
X0111049Y0114419D01*
D02*
G37*
G36*
X0107549D02*
X0107222Y0114376D01*
X0106917Y0114249D01*
X0106655Y0114048D01*
X0106454Y0113786D01*
X0106327Y0113481D01*
X0106284Y0113154D01*
X0106327Y0112827D01*
X0106454Y0112522D01*
X0106655Y011226D01*
X0106917Y0112059D01*
X0107222Y0111932D01*
X0107549Y0111889D01*
X0107876Y0111932D01*
X0108181Y0112059D01*
X0108443Y011226D01*
X0108644Y0112522D01*
X0108771Y0112827D01*
X0108814Y0113154D01*
X0108771Y0113481D01*
X0108644Y0113786D01*
X0108443Y0114048D01*
X0108181Y0114249D01*
X0107876Y0114376D01*
X0107549Y0114419D01*
D02*
G37*
G36*
X0104049D02*
X0103722Y0114376D01*
X0103417Y0114249D01*
X0103155Y0114048D01*
X0102954Y0113786D01*
X0102827Y0113481D01*
X0102784Y0113154D01*
X0102827Y0112827D01*
X0102954Y0112522D01*
X0103155Y011226D01*
X0103417Y0112059D01*
X0103722Y0111932D01*
X0104049Y0111889D01*
X0104376Y0111932D01*
X0104681Y0112059D01*
X0104943Y011226D01*
X0105144Y0112522D01*
X0105271Y0112827D01*
X0105314Y0113154D01*
X0105271Y0113481D01*
X0105144Y0113786D01*
X0104943Y0114048D01*
X0104681Y0114249D01*
X0104376Y0114376D01*
X0104049Y0114419D01*
D02*
G37*
G36*
X0100549D02*
X0100222Y0114376D01*
X0099917Y0114249D01*
X0099655Y0114048D01*
X0099454Y0113786D01*
X0099327Y0113481D01*
X0099284Y0113154D01*
X0099327Y0112827D01*
X0099454Y0112522D01*
X0099655Y011226D01*
X0099917Y0112059D01*
X0100222Y0111932D01*
X0100549Y0111889D01*
X0100876Y0111932D01*
X0101181Y0112059D01*
X0101443Y011226D01*
X0101644Y0112522D01*
X0101771Y0112827D01*
X0101814Y0113154D01*
X0101771Y0113481D01*
X0101644Y0113786D01*
X0101443Y0114048D01*
X0101181Y0114249D01*
X0100876Y0114376D01*
X0100549Y0114419D01*
D02*
G37*
G36*
X0091364Y0089814D02*
X0091197Y0089647D01*
X0091226Y0089626D01*
X0091267Y00896D01*
X0091309Y0089578D01*
X0091351Y008956D01*
X0091394Y0089546D01*
X0091437Y0089536D01*
X0091481Y008953D01*
X0091489Y0089529D01*
X0091483Y0089575D01*
X0091407Y0089758D01*
X0091364Y0089814D01*
D02*
G37*
G36*
X0106223Y0085083D02*
X0105075D01*
X0105649Y0084509D01*
X0106223Y0085083D01*
D02*
G37*
G36*
X0106403Y0084903D02*
X0105739Y0084239D01*
X0105649Y0084329D01*
X0105559Y0084239D01*
X0104895Y0084903D01*
Y0083255D01*
X0105559Y0083919D01*
X0105649Y0083829D01*
X0105739Y0083919D01*
X0106403Y0083255D01*
Y0084903D01*
D02*
G37*
G36*
X0105649Y0083649D02*
X0105075Y0083075D01*
X0106223D01*
X0105649Y0083649D01*
D02*
G37*
G36*
X0113049Y0085261D02*
X0112755Y0085232D01*
X0112472Y0085147D01*
X0112212Y0085007D01*
X0111983Y008482D01*
X0111796Y0084591D01*
X0111656Y0084331D01*
X0111571Y0084048D01*
X0111542Y0083754D01*
X0111571Y008346D01*
X0111656Y0083177D01*
X0111796Y0082917D01*
X0111983Y0082688D01*
X0112212Y0082501D01*
X0112472Y0082361D01*
X0112755Y0082276D01*
X0113049Y0082247D01*
X0113343Y0082276D01*
X0113626Y0082361D01*
X0113886Y0082501D01*
X0114115Y0082688D01*
X0114302Y0082917D01*
X0114442Y0083177D01*
X0114527Y008346D01*
X0114556Y0083754D01*
X0114527Y0084048D01*
X0114442Y0084331D01*
X0114302Y0084591D01*
X0114115Y008482D01*
X0113886Y0085007D01*
X0113626Y0085147D01*
X0113343Y0085232D01*
X0113049Y0085261D01*
D02*
G37*
G36*
X0109549D02*
X0109255Y0085232D01*
X0108972Y0085147D01*
X0108712Y0085007D01*
X0108483Y008482D01*
X0108296Y0084591D01*
X0108156Y0084331D01*
X0108071Y0084048D01*
X0108042Y0083754D01*
X0108071Y008346D01*
X0108156Y0083177D01*
X0108296Y0082917D01*
X0108483Y0082688D01*
X0108712Y0082501D01*
X0108972Y0082361D01*
X0109255Y0082276D01*
X0109549Y0082247D01*
X0109843Y0082276D01*
X0110126Y0082361D01*
X0110386Y0082501D01*
X0110615Y0082688D01*
X0110802Y0082917D01*
X0110942Y0083177D01*
X0111027Y008346D01*
X0111056Y0083754D01*
X0111027Y0084048D01*
X0110942Y0084331D01*
X0110802Y0084591D01*
X0110615Y008482D01*
X0110386Y0085007D01*
X0110126Y0085147D01*
X0109843Y0085232D01*
X0109549Y0085261D01*
D02*
G37*
G36*
X0105649Y0082945D02*
X0105289Y0082898D01*
X0104954Y0082759D01*
X0104665Y0082538D01*
X0104444Y0082249D01*
X0104305Y0081914D01*
X0104258Y0081554D01*
X0104305Y0081194D01*
X0104444Y0080859D01*
X0104665Y008057D01*
X0104954Y0080349D01*
X0105289Y008021D01*
X0105649Y0080163D01*
X0106009Y008021D01*
X0106344Y0080349D01*
X0106633Y008057D01*
X0106854Y0080859D01*
X0106993Y0081194D01*
X010704Y0081554D01*
X0106993Y0081914D01*
X0106854Y0082249D01*
X0106633Y0082538D01*
X0106344Y0082759D01*
X0106009Y0082898D01*
X0105649Y0082945D01*
D02*
G37*
%LPD*%
D18*
X0090749Y0089378D02*
X0091774D01*
X0120142Y0089385D02*
X0120149Y0089378D01*
X0119118Y0089385D02*
X0120142D01*
X0090749Y0109648D02*
X0090855D01*
X0091449Y0109054D01*
X0094717Y0088108D02*
X0103795Y0079029D01*
X0105649D01*
X0090749Y0088108D02*
X0094717D01*
D20*
X0089479Y0109648D02*
D03*
X0090749D02*
D03*
X0089479Y0108378D02*
D03*
X0090749D02*
D03*
X0089479Y0107108D02*
D03*
X0090749D02*
D03*
X0120149Y0090648D02*
D03*
X0121419D02*
D03*
X0120149Y0089378D02*
D03*
X0121419D02*
D03*
X0120149Y0088108D02*
D03*
X0121419D02*
D03*
Y0107108D02*
D03*
X0120149D02*
D03*
X0121419Y0108378D02*
D03*
X0120149D02*
D03*
X0121419Y0109648D02*
D03*
X0120149D02*
D03*
X0090749Y0088108D02*
D03*
X0089479D02*
D03*
X0090749Y0089378D02*
D03*
X0089479D02*
D03*
X0090749Y0090648D02*
D03*
X0089479D02*
D03*
D21*
X0105649Y0081554D02*
D03*
D22*
X0100549Y0113154D02*
D03*
X0104049D02*
D03*
X0107549D02*
D03*
X0111049D02*
D03*
X0109549Y0083754D02*
D03*
X0113049D02*
D03*
D23*
X0105649Y0079029D02*
D03*
X0105649Y0084079D02*
D03*
M02*
