M48
;Layer_Color=9474304
;FILE_FORMAT=4:3
METRIC,LZ
;TYPE=PLATED
T1F00S00C0.300
T2F00S00C1.000
%
T01
X0090662Y0054469
X0090562Y0069594
X0089712Y0071569
X0090562Y0072744
X0090662Y0074169
X0090362Y0075594
X0091487Y0079194
X0094462Y0079219
X0099462Y0077119
X0103237Y0074194
X0103437Y0072794
X0104462Y0071369
X0103612Y0069569
X0102062Y0080269
X0102937Y0082819
X0104062Y0087144
X0104137Y0090919
X0101187Y0091769
X0100262Y0091794
X0099462
X0097262Y0092319
X0096987Y0090896
X0095362Y0090894
X0091962Y0091519
X0091212Y0090044
X0091112Y0088619
X0088937Y0085719
Y0084294
X0090487Y0079419
X0094387Y0086644
X0097112Y0086169
X0099537Y0085494
X0100087Y0097994
X0100137Y0101119
X0097987Y0101294
X0098787Y0102794
X0099962Y0103369
X0095887Y0103269
X0095587Y0102369
X0094812Y0102819
X0095437Y0100644
X0094262Y0098619
X0093387Y0097894
X0096512Y0097619
X0101887Y0096594
X0102837Y0096544
X0105212Y0102319
X0103737Y0106469
X0101887Y0107644
X0097262Y0108169
X0097837Y0109444
X0096412Y0109394
X0096362Y0111169
X0097812
X0094987Y0113044
X0094312Y0114444
X0093912Y0115444
X0093712Y0116894
X0093937Y0118169
X0091337Y0117344
X0090412Y0116729
X0092187Y0114794
X0092162Y0112994
X0093512Y0113819
X0093312Y0110219
X0093137Y0106369
X0094087Y0106769
X0090512Y0105544
X0090387Y0108144
X0088637Y0108994
X0087462Y0108944
X0085912Y0109169
X0086262Y0108019
X0086087Y0111394
X0088962Y0112319
X0089037Y0114119
X0084387Y0118169
X0083162Y0106044
X0082762Y0100544
X0085262Y0099544
X0090387Y0101844
X0092362Y0103269
X0088312Y0091444
X0111037Y0102219
X0110337Y0111819
X0111487Y0114319
X0108762Y0115619
X0108587Y0118494
X0112037Y0118394
X0105212Y0118169
X0104362Y0117019
X0103787Y0115294
X0103737Y0114119
X0102837Y0113369
X0101462Y0114769
X0101837Y0115444
X0099562Y0114619
X0097237Y0116269
X0107462Y0110319
X0103137Y0119769
X0101762Y0122169
X0102737Y0124119
X0100812Y0125844
X0099362Y0124544
X0098637Y0123869
X0097487Y0122494
X0096362Y0122319
X0095962Y0123244
X0095062Y0123769
X0093312Y0123894
X0093512Y0125869
X0094237Y0125219
X0094937Y0126694
X0092787Y0127144
X0090412Y0126494
X0088437Y0126219
X0089237Y0125244
X0084437Y0125819
X0085037Y0122344
X0088387Y0119444
X0091462Y0120619
X0094387Y0119369
X0095237
X0095262Y0120219
Y0121569
X0098287Y0120819
X0098612Y0127169
X0096662Y0130044
X0102587Y0129269
X0111412Y0130694
X0110662Y0126044
X0113812Y0125094
X0089437Y0131094
X0085762Y0129769
X0083387Y0130744
X0081637Y0129244
X0083062Y0134419
X0086237Y0134794
X0087437
T02
X0089187Y0058744
X0092037Y0058719
X0101987Y0058744
X0104762Y0058694
X0096962Y0076894
X0078762Y0103594
Y0106544
X0078762Y0109894
X0078687Y0113419
X0078762Y0117419
X0082262Y0096544
X0086312
X0107537Y0096444
X0111662Y0096494
X0115162Y0110119
Y0113644
X0106962Y0136894
X0101962
X0096962
X0091962
X0086962
M30
