G04 Layer_Physical_Order=4*
G04 Layer_Color=16711680*
%FSTAX43Y43*%
%MOMM*%
G71*
G01*
G75*
G04:AMPARAMS|DCode=10|XSize=0.75mm|YSize=0.6mm|CornerRadius=0.15mm|HoleSize=0mm|Usage=FLASHONLY|Rotation=90.000|XOffset=0mm|YOffset=0mm|HoleType=Round|Shape=RoundedRectangle|*
%AMROUNDEDRECTD10*
21,1,0.750,0.300,0,0,90.0*
21,1,0.450,0.600,0,0,90.0*
1,1,0.300,0.150,0.225*
1,1,0.300,0.150,-0.225*
1,1,0.300,-0.150,-0.225*
1,1,0.300,-0.150,0.225*
%
%ADD10ROUNDEDRECTD10*%
%ADD12R,0.800X0.850*%
%ADD13R,0.850X0.800*%
G04:AMPARAMS|DCode=14|XSize=0.4mm|YSize=0.75mm|CornerRadius=0.1mm|HoleSize=0mm|Usage=FLASHONLY|Rotation=270.000|XOffset=0mm|YOffset=0mm|HoleType=Round|Shape=RoundedRectangle|*
%AMROUNDEDRECTD14*
21,1,0.400,0.550,0,0,270.0*
21,1,0.200,0.750,0,0,270.0*
1,1,0.200,-0.275,-0.100*
1,1,0.200,-0.275,0.100*
1,1,0.200,0.275,0.100*
1,1,0.200,0.275,-0.100*
%
%ADD14ROUNDEDRECTD14*%
G04:AMPARAMS|DCode=15|XSize=0.4mm|YSize=0.75mm|CornerRadius=0.1mm|HoleSize=0mm|Usage=FLASHONLY|Rotation=180.000|XOffset=0mm|YOffset=0mm|HoleType=Round|Shape=RoundedRectangle|*
%AMROUNDEDRECTD15*
21,1,0.400,0.550,0,0,180.0*
21,1,0.200,0.750,0,0,180.0*
1,1,0.200,-0.100,0.275*
1,1,0.200,0.100,0.275*
1,1,0.200,0.100,-0.275*
1,1,0.200,-0.100,-0.275*
%
%ADD15ROUNDEDRECTD15*%
G04:AMPARAMS|DCode=16|XSize=0.75mm|YSize=0.6mm|CornerRadius=0.15mm|HoleSize=0mm|Usage=FLASHONLY|Rotation=0.000|XOffset=0mm|YOffset=0mm|HoleType=Round|Shape=RoundedRectangle|*
%AMROUNDEDRECTD16*
21,1,0.750,0.300,0,0,0.0*
21,1,0.450,0.600,0,0,0.0*
1,1,0.300,0.225,-0.150*
1,1,0.300,-0.225,-0.150*
1,1,0.300,-0.225,0.150*
1,1,0.300,0.225,0.150*
%
%ADD16ROUNDEDRECTD16*%
G04:AMPARAMS|DCode=19|XSize=0.6mm|YSize=1mm|CornerRadius=0.15mm|HoleSize=0mm|Usage=FLASHONLY|Rotation=180.000|XOffset=0mm|YOffset=0mm|HoleType=Round|Shape=RoundedRectangle|*
%AMROUNDEDRECTD19*
21,1,0.600,0.700,0,0,180.0*
21,1,0.300,1.000,0,0,180.0*
1,1,0.300,-0.150,0.350*
1,1,0.300,0.150,0.350*
1,1,0.300,0.150,-0.350*
1,1,0.300,-0.150,-0.350*
%
%ADD19ROUNDEDRECTD19*%
%ADD31C,0.200*%
%ADD32C,0.300*%
%ADD34C,1.500*%
%ADD35C,0.600*%
%ADD36R,2.150X0.800*%
G04:AMPARAMS|DCode=37|XSize=0.6mm|YSize=0.45mm|CornerRadius=0.113mm|HoleSize=0mm|Usage=FLASHONLY|Rotation=0.000|XOffset=0mm|YOffset=0mm|HoleType=Round|Shape=RoundedRectangle|*
%AMROUNDEDRECTD37*
21,1,0.600,0.225,0,0,0.0*
21,1,0.375,0.450,0,0,0.0*
1,1,0.225,0.188,-0.113*
1,1,0.225,-0.188,-0.113*
1,1,0.225,-0.188,0.113*
1,1,0.225,0.188,0.113*
%
%ADD37ROUNDEDRECTD37*%
G04:AMPARAMS|DCode=38|XSize=0.45mm|YSize=0.6mm|CornerRadius=0.113mm|HoleSize=0mm|Usage=FLASHONLY|Rotation=270.000|XOffset=0mm|YOffset=0mm|HoleType=Round|Shape=RoundedRectangle|*
%AMROUNDEDRECTD38*
21,1,0.450,0.375,0,0,270.0*
21,1,0.225,0.600,0,0,270.0*
1,1,0.225,-0.188,-0.113*
1,1,0.225,-0.188,0.113*
1,1,0.225,0.188,0.113*
1,1,0.225,0.188,-0.113*
%
%ADD38ROUNDEDRECTD38*%
%ADD39R,0.200X0.650*%
%ADD40R,0.200X0.750*%
%ADD41R,0.650X0.200*%
G04:AMPARAMS|DCode=42|XSize=0.4mm|YSize=1mm|CornerRadius=0.1mm|HoleSize=0mm|Usage=FLASHONLY|Rotation=270.000|XOffset=0mm|YOffset=0mm|HoleType=Round|Shape=RoundedRectangle|*
%AMROUNDEDRECTD42*
21,1,0.400,0.800,0,0,270.0*
21,1,0.200,1.000,0,0,270.0*
1,1,0.200,-0.400,-0.100*
1,1,0.200,-0.400,0.100*
1,1,0.200,0.400,0.100*
1,1,0.200,0.400,-0.100*
%
%ADD42ROUNDEDRECTD42*%
G04:AMPARAMS|DCode=43|XSize=0.6mm|YSize=1mm|CornerRadius=0.15mm|HoleSize=0mm|Usage=FLASHONLY|Rotation=90.000|XOffset=0mm|YOffset=0mm|HoleType=Round|Shape=RoundedRectangle|*
%AMROUNDEDRECTD43*
21,1,0.600,0.700,0,0,90.0*
21,1,0.300,1.000,0,0,90.0*
1,1,0.300,0.350,0.150*
1,1,0.300,0.350,-0.150*
1,1,0.300,-0.350,-0.150*
1,1,0.300,-0.350,0.150*
%
%ADD43ROUNDEDRECTD43*%
%ADD44R,1.050X0.250*%
%ADD45R,1.500X2.600*%
G04:AMPARAMS|DCode=46|XSize=0.45mm|YSize=0.6mm|CornerRadius=0.113mm|HoleSize=0mm|Usage=FLASHONLY|Rotation=180.000|XOffset=0mm|YOffset=0mm|HoleType=Round|Shape=RoundedRectangle|*
%AMROUNDEDRECTD46*
21,1,0.450,0.375,0,0,180.0*
21,1,0.225,0.600,0,0,180.0*
1,1,0.225,-0.113,0.188*
1,1,0.225,0.113,0.188*
1,1,0.225,0.113,-0.188*
1,1,0.225,-0.113,-0.188*
%
%ADD46ROUNDEDRECTD46*%
G36*
X0116707Y0094149D02*
X0101512D01*
X0101499Y0094146D01*
X0101487Y0094147D01*
X010138Y0094137D01*
X0101344Y0094126D01*
X0101307Y0094119D01*
X0101109Y0094037D01*
X0101026Y0093981D01*
X0101026Y0093981D01*
X0100874Y009383D01*
X0100819Y0093747D01*
X0100737Y0093549D01*
X0100717Y0093451D01*
Y0093237D01*
X0100737Y0093139D01*
X0100819Y0092941D01*
X0100874Y0092858D01*
X0100874Y0092858D01*
X0101026Y0092706D01*
X0101109Y0092651D01*
X0101307Y0092569D01*
X0101344Y0092562D01*
X010138Y0092551D01*
X0101487Y009254D01*
X0101499Y0092541D01*
X0101512Y0092539D01*
X0106207D01*
Y0089523D01*
X0102362D01*
Y0090489D01*
X0101852Y0089979D01*
X0101762Y0090069D01*
X0101672Y0089979D01*
X0101162Y0090489D01*
Y0089523D01*
X0100837D01*
Y0090669D01*
X0099637D01*
Y0090401D01*
X0099162D01*
Y0090669D01*
X0098919D01*
Y0091019D01*
X0098891Y0091155D01*
X0098814Y0091271D01*
X0097785Y00923D01*
X0097781Y0092305D01*
X0097773Y0092317D01*
X0097772Y0092319D01*
X0097772Y0092319D01*
X0097733Y0092514D01*
X0097622Y0092679D01*
X0097457Y009279D01*
X0097262Y0092829D01*
X0097067Y009279D01*
X0096901Y0092679D01*
X0096791Y0092514D01*
X0096752Y0092319D01*
X0096791Y0092124D01*
X0096901Y0091958D01*
X0097067Y0091848D01*
X0097262Y0091809D01*
X0097262Y0091809D01*
X0097264Y0091808D01*
X0097273Y0091801D01*
X0097284Y0091792D01*
X0098205Y0090871D01*
Y0090669D01*
X0097962D01*
Y0089498D01*
X0097562D01*
Y0090669D01*
X0097562D01*
X0097477Y0090796D01*
X0097497Y0090896D01*
X0097458Y0091091D01*
X0097347Y0091256D01*
X0097182Y0091367D01*
X0096987Y0091405D01*
X0096792Y0091367D01*
X0096626Y0091256D01*
X0096516Y0091091D01*
X0096477Y0090896D01*
X0096497Y0090796D01*
X0096396Y0090669D01*
X0096362D01*
Y0090401D01*
X0095962D01*
Y0090669D01*
X0095954D01*
X0095852Y0090796D01*
X0095872Y0090894D01*
X0095833Y0091089D01*
X0095722Y0091254D01*
X0095557Y0091365D01*
X0095362Y0091404D01*
X0095167Y0091365D01*
X0095001Y0091254D01*
X0094891Y0091089D01*
X0094852Y0090894D01*
X0094871Y0090796D01*
X009477Y0090669D01*
X0094762D01*
Y0089498D01*
X0094337D01*
Y0090489D01*
X0093827Y0089979D01*
X0093737Y0090069D01*
X0093647Y0089979D01*
X0093137Y0090489D01*
Y0089498D01*
X0091523D01*
X0091485Y0089625D01*
X0091572Y0089683D01*
X0091683Y0089849D01*
X0091722Y0090044D01*
X0091683Y0090239D01*
X0091572Y0090404D01*
X0091407Y0090515D01*
X0091212Y0090554D01*
X009116Y0090543D01*
X0091062Y0090624D01*
Y0090644D01*
X0089812D01*
Y0089498D01*
X0089612D01*
Y0090644D01*
X0088362D01*
Y0089498D01*
X0087717D01*
Y0093894D01*
X0087697Y0093991D01*
X0087642Y0094074D01*
X0087559Y0094129D01*
X0087462Y0094149D01*
X0077217D01*
Y0141639D01*
X0116707D01*
Y0094149D01*
D02*
G37*
G36*
X0097563Y0092299D02*
X0097566Y0092281D01*
X0097572Y0092262D01*
X009758Y0092243D01*
X0097591Y0092223D01*
X0097604Y0092203D01*
X0097619Y0092182D01*
X0097636Y009216D01*
X0097679Y0092114D01*
X0097467Y0091902D01*
X0097443Y0091924D01*
X0097399Y0091962D01*
X0097378Y0091977D01*
X0097357Y009199D01*
X0097337Y0092D01*
X0097318Y0092009D01*
X00973Y0092014D01*
X0097282Y0092018D01*
X0097265Y0092019D01*
X0097562Y0092316D01*
X0097563Y0092299D01*
D02*
G37*
G36*
X009556Y0090667D02*
X009555Y0090652D01*
X0095541Y0090635D01*
X0095533Y0090615D01*
X0095527Y0090594D01*
X0095521Y009057D01*
X0095517Y0090544D01*
X0095514Y0090516D01*
X0095512Y0090454D01*
X0095212D01*
X0095211Y0090486D01*
X0095206Y0090544D01*
X0095202Y009057D01*
X0095197Y0090594D01*
X009519Y0090615D01*
X0095182Y0090635D01*
X0095173Y0090652D01*
X0095163Y0090667D01*
X0095152Y009068D01*
X0095572D01*
X009556Y0090667D01*
D02*
G37*
G36*
X0090998Y0089834D02*
X0090985Y0089845D01*
X009097Y0089855D01*
X0090953Y0089864D01*
X0090933Y0089872D01*
X0090912Y0089879D01*
X0090888Y0089884D01*
X0090862Y0089888D01*
X0090834Y0089891D01*
X0090772Y0089894D01*
Y0090194D01*
X0090804Y0090194D01*
X0090862Y0090199D01*
X0090888Y0090203D01*
X0090912Y0090209D01*
X0090933Y0090215D01*
X0090953Y0090223D01*
X009097Y0090232D01*
X0090985Y0090242D01*
X0090998Y0090254D01*
Y0089834D01*
D02*
G37*
G36*
X0099162Y0089219D02*
X0097962D01*
Y0088951D01*
X0097562D01*
Y0089219D01*
X0096362D01*
Y0087969D01*
X0097455D01*
Y0087552D01*
X0097409Y0087521D01*
X0097332Y0087405D01*
X0097305Y0087269D01*
Y0086819D01*
X0097332Y0086682D01*
X0097404Y0086575D01*
X0097307Y008664D01*
X0097112Y0086679D01*
X0096917Y008664D01*
X0096751Y0086529D01*
X0096641Y0086364D01*
X0096602Y0086169D01*
X0096641Y0085974D01*
X0096663Y008594D01*
X0096634Y0085921D01*
X0096557Y0085805D01*
X009653Y0085669D01*
Y0085369D01*
X0096557Y0085232D01*
X0096634Y0085116D01*
X009675Y0085039D01*
X0096887Y0085012D01*
X0097337D01*
X0097473Y0085039D01*
X0097589Y0085116D01*
X0097666Y0085232D01*
X0097694Y0085369D01*
Y0085669D01*
X0097666Y0085805D01*
X0097589Y0085921D01*
X009756Y008594D01*
X0097583Y0085974D01*
X0097622Y0086169D01*
X0097583Y0086364D01*
X0097478Y0086521D01*
X0097525Y0086489D01*
X0097662Y0086462D01*
X0097889D01*
X009793Y0086421D01*
Y0083642D01*
X0097689Y0083401D01*
X0096087D01*
Y0083662D01*
X0096604D01*
X0096634Y0083616D01*
X009675Y0083539D01*
X0096887Y0083512D01*
X0097337D01*
X0097473Y0083539D01*
X0097589Y0083616D01*
X0097666Y0083732D01*
X0097694Y0083869D01*
Y0084169D01*
X0097666Y0084305D01*
X0097589Y0084421D01*
X0097473Y0084498D01*
X0097337Y0084526D01*
X0096887D01*
X009675Y0084498D01*
X0096634Y0084421D01*
X0096604Y0084376D01*
X0096087D01*
Y0084644D01*
X0094887D01*
Y0084401D01*
X0093742D01*
X0093716Y008453D01*
X0093639Y0084646D01*
X0093523Y0084724D01*
X0093387Y0084751D01*
X0093087D01*
X009295Y0084724D01*
X0092834Y0084646D01*
X0092762Y0084537D01*
X0092689Y0084646D01*
X0092573Y0084724D01*
X0092437Y0084751D01*
X0092137D01*
X0092Y0084724D01*
X0091884Y0084646D01*
X0091812Y0084537D01*
X0091739Y0084646D01*
X0091623Y0084724D01*
X0091487Y0084751D01*
X0091187D01*
X009105Y0084724D01*
X0090934Y0084646D01*
X0090857Y008453D01*
X009083Y0084394D01*
Y0083694D01*
X0090857Y0083557D01*
X0090934Y0083441D01*
X009105Y0083364D01*
X0091187Y0083337D01*
X0091487D01*
X0091623Y0083364D01*
X0091739Y0083441D01*
X0091812Y008355D01*
X0091884Y0083441D01*
X009193Y0083411D01*
Y0082776D01*
X0091854Y0082826D01*
X0091737Y008285D01*
X0091537D01*
X009142Y0082826D01*
X0091321Y008276D01*
X0091254Y0082661D01*
X0091247Y0082626D01*
X0091037D01*
X00909Y0082598D01*
X0090784Y0082521D01*
X0090439Y0082176D01*
X0090362D01*
Y0082444D01*
X0090119D01*
Y0083669D01*
X0090362D01*
Y0084919D01*
X0089162D01*
Y0084745D01*
X0089132Y0084765D01*
X0088937Y0084804D01*
X0088742Y0084765D01*
X0088576Y0084654D01*
X0088466Y0084489D01*
X0088427Y0084294D01*
X0088466Y0084099D01*
X0088576Y0083933D01*
X0088742Y0083823D01*
X0088937Y0083784D01*
X0089132Y0083823D01*
X0089162Y0083843D01*
Y0083669D01*
X0089405D01*
Y0082444D01*
X0089162D01*
Y0081194D01*
X0090362D01*
Y0081462D01*
X0090587D01*
X0090723Y0081489D01*
X0090839Y0081566D01*
X0091185Y0081912D01*
X0091247D01*
X0091254Y0081877D01*
X0091321Y0081778D01*
X009142Y0081711D01*
X0091537Y0081688D01*
X0091737D01*
X0091854Y0081711D01*
X0091953Y0081778D01*
X0091962Y0081791D01*
X0091971Y0081778D01*
X009207Y0081711D01*
X0092187Y0081688D01*
X0092387D01*
X0092504Y0081711D01*
X0092603Y0081778D01*
X0092612Y0081791D01*
X0092621Y0081778D01*
X009272Y0081711D01*
X0092837Y0081688D01*
X0093037D01*
X0093154Y0081711D01*
X0093253Y0081778D01*
X0093319Y0081877D01*
X0093326Y0081912D01*
X0094229D01*
X0094259Y0081866D01*
X0094375Y0081789D01*
X0094512Y0081762D01*
X0094962D01*
X0095098Y0081789D01*
X0095214Y0081866D01*
X0095291Y0081982D01*
X0095319Y0082119D01*
Y0082346D01*
X009566Y0082687D01*
X0097837D01*
X0097973Y0082714D01*
X0098089Y0082791D01*
X0098539Y0083241D01*
X0098616Y0083357D01*
X0098644Y0083494D01*
Y0086569D01*
X0098616Y0086705D01*
X0098539Y0086821D01*
X0098319Y0087042D01*
Y0087269D01*
X0098291Y0087405D01*
X0098214Y0087521D01*
X0098169Y0087552D01*
Y0087969D01*
X0099162D01*
Y0085833D01*
X0099066Y0085689D01*
X0099027Y0085494D01*
X0099066Y0085299D01*
X0099162Y0085155D01*
Y0083673D01*
X0098259Y0082771D01*
X0098182Y0082655D01*
X0098175Y0082619D01*
X0098155Y0082623D01*
X0096162D01*
X0096084Y0082607D01*
X0096064Y0082594D01*
X0095937D01*
Y0079319D01*
X0095812Y0079319D01*
X0094937Y0078444D01*
Y0076119D01*
X0087717D01*
Y0089294D01*
X008858D01*
Y0089127D01*
X0088534Y0089096D01*
X0088457Y008898D01*
X008843Y0088844D01*
Y0088394D01*
X0088457Y0088257D01*
X0088534Y0088141D01*
X008858Y0088111D01*
Y0087469D01*
X0088607Y0087332D01*
X0088684Y0087216D01*
X0089405Y0086496D01*
Y0086369D01*
X0089162D01*
Y008617D01*
X0089132Y008619D01*
X0088937Y0086229D01*
X0088742Y008619D01*
X0088576Y0086079D01*
X0088466Y0085914D01*
X0088427Y0085719D01*
X0088466Y0085524D01*
X0088576Y0085358D01*
X0088742Y0085248D01*
X0088937Y0085209D01*
X0089132Y0085248D01*
X0089162Y0085268D01*
Y0085119D01*
X0090362D01*
Y0086369D01*
X0090119D01*
Y0086644D01*
X0090091Y008678D01*
X0090014Y0086896D01*
X0089294Y0087617D01*
Y0088111D01*
X0089339Y0088141D01*
X0089416Y0088257D01*
X0089444Y0088394D01*
Y0088844D01*
X0089416Y008898D01*
X0089339Y0089096D01*
X0089294Y0089127D01*
Y0089294D01*
X0099162D01*
Y0089219D01*
D02*
G37*
G36*
X009731Y0085942D02*
X00973Y0085927D01*
X0097291Y008591D01*
X0097283Y008589D01*
X0097277Y0085869D01*
X0097271Y0085845D01*
X0097267Y0085819D01*
X0097264Y0085791D01*
X0097262Y0085729D01*
X0096962D01*
X0096961Y0085761D01*
X0096956Y0085819D01*
X0096952Y0085845D01*
X0096947Y0085869D01*
X009694Y008589D01*
X0096932Y008591D01*
X0096923Y0085927D01*
X0096913Y0085942D01*
X0096902Y0085955D01*
X0097322D01*
X009731Y0085942D01*
D02*
G37*
G36*
X0089146Y0085936D02*
X0089161Y0085927D01*
X0089179Y0085919D01*
X0089198Y0085913D01*
X008922Y0085907D01*
X0089244Y0085902D01*
X008927Y0085898D01*
X0089328Y0085894D01*
X008936Y0085894D01*
X008939Y0085594D01*
X0089357Y0085593D01*
X00893Y0085588D01*
X0089274Y0085583D01*
X0089251Y0085577D01*
X008923Y008557D01*
X0089211Y0085561D01*
X0089194Y0085551D01*
X008918Y008554D01*
X0089168Y0085527D01*
X0089133Y0085946D01*
X0089146Y0085936D01*
D02*
G37*
G36*
X0099735Y0085267D02*
X0099725Y0085252D01*
X0099716Y0085235D01*
X0099708Y0085215D01*
X0099702Y0085194D01*
X0099696Y008517D01*
X0099692Y0085144D01*
X0099689Y0085116D01*
X0099687Y0085054D01*
X0099387D01*
X0099386Y0085086D01*
X0099381Y0085144D01*
X0099377Y008517D01*
X0099372Y0085194D01*
X0099365Y0085215D01*
X0099357Y0085235D01*
X0099348Y0085252D01*
X0099338Y0085267D01*
X0099327Y008528D01*
X0099747D01*
X0099735Y0085267D01*
D02*
G37*
G36*
X0089164Y0084492D02*
X0089179Y0084482D01*
X0089196Y0084473D01*
X0089215Y0084465D01*
X0089237Y0084459D01*
X008926Y0084453D01*
X0089286Y0084449D01*
X0089314Y0084446D01*
X0089377Y0084444D01*
Y0084144D01*
X0089344Y0084143D01*
X0089286Y0084138D01*
X008926Y0084134D01*
X0089237Y0084129D01*
X0089215Y0084122D01*
X0089196Y0084114D01*
X0089179Y0084105D01*
X0089164Y0084095D01*
X0089151Y0084084D01*
Y0084504D01*
X0089164Y0084492D01*
D02*
G37*
G36*
X0106207Y0075944D02*
X0098837D01*
Y0078444D01*
X0098762Y0078519D01*
X0097962Y0079319D01*
X0096162D01*
Y0082419D01*
X0098155D01*
Y0082294D01*
X0097912D01*
Y0082026D01*
X009752D01*
X0097489Y0082071D01*
X0097373Y0082148D01*
X0097237Y0082176D01*
X0096787D01*
X009665Y0082148D01*
X0096534Y0082071D01*
X0096457Y0081955D01*
X009643Y0081819D01*
Y0081519D01*
X0096457Y0081382D01*
X0096534Y0081266D01*
X009665Y0081189D01*
X0096787Y0081162D01*
X0097237D01*
X0097373Y0081189D01*
X0097489Y0081266D01*
X009752Y0081312D01*
X0097912D01*
Y0081044D01*
X0099112D01*
Y0082294D01*
X0098869D01*
Y0082371D01*
X0098916Y0082419D01*
X0099437D01*
Y0082939D01*
X0099789Y0083291D01*
X0099866Y0083407D01*
X0099894Y0083544D01*
Y008511D01*
X0099894Y0085117D01*
X0099897Y0085131D01*
X0099897Y0085133D01*
X0099897Y0085133D01*
X0100008Y0085299D01*
X0100047Y0085494D01*
X0100008Y0085689D01*
X0099897Y0085854D01*
X0099732Y0085965D01*
X0099537Y0086004D01*
X0099437Y0085984D01*
Y0089319D01*
X0106207D01*
Y0075944D01*
D02*
G37*
G36*
X0092388Y0075788D02*
X0092233Y0075724D01*
X0092079Y0075606D01*
X0092032Y0075574D01*
X0092Y0075526D01*
X0091882Y0075373D01*
X0091786Y0075142D01*
X0091754Y0074894D01*
X0091786Y0074646D01*
X0091882Y0074415D01*
X0091957Y0074317D01*
Y0067249D01*
X0090312D01*
X0090299Y0067246D01*
X0090287Y0067247D01*
X009018Y0067237D01*
X0090144Y0067226D01*
X0090107Y0067219D01*
X0089909Y0067137D01*
X0089826Y0067081D01*
X0089826Y0067081D01*
X0089674Y006693D01*
X0089619Y0066847D01*
X0089537Y0066649D01*
X008953Y0066612D01*
X0089519Y0066576D01*
X0089508Y0066469D01*
X0089511Y0066444D01*
X0089508Y0066419D01*
X0089519Y0066312D01*
X008953Y0066276D01*
X0089537Y0066239D01*
X0089619Y0066041D01*
X0089674Y0065958D01*
X0089674Y0065958D01*
X0089826Y0065806D01*
X0089909Y0065751D01*
X0090107Y0065669D01*
X0090144Y0065662D01*
X009018Y0065651D01*
X0090287Y006564D01*
X0090299Y0065641D01*
X0090312Y0065639D01*
X0091957D01*
Y0061894D01*
X0091976Y0061796D01*
X0092032Y0061714D01*
X0092114Y0061658D01*
X0092212Y0061639D01*
X0093457D01*
Y0057344D01*
X0087717D01*
Y0075915D01*
X008984D01*
X00899Y0075803D01*
X0089891Y0075789D01*
X0089852Y0075594D01*
X0089891Y0075399D01*
X0090001Y0075233D01*
X0090167Y0075123D01*
X0090362Y0075084D01*
X0090557Y0075123D01*
X0090722Y0075233D01*
X0090833Y0075399D01*
X0090872Y0075594D01*
X0090833Y0075789D01*
X0090823Y0075803D01*
X0090883Y0075915D01*
X0092363D01*
X0092388Y0075788D01*
D02*
G37*
G36*
X0106207Y0057344D02*
X0100492D01*
X0100492Y0061639D01*
X0101712D01*
X0101809Y0061658D01*
X0101892Y0061714D01*
X0101947Y0061796D01*
X0101967Y0061894D01*
Y0065639D01*
X0103612D01*
X0103624Y0065641D01*
X0103637Y006564D01*
X0103744Y0065651D01*
X010378Y0065662D01*
X0103817Y0065669D01*
X0104015Y0065751D01*
X0104098Y0065806D01*
X0104098Y0065806D01*
X0104249Y0065958D01*
X0104305Y0066041D01*
X0104387Y0066239D01*
X0104394Y0066276D01*
X0104405Y0066312D01*
X0104415Y0066419D01*
X0104413Y0066444D01*
X0104415Y0066469D01*
X0104405Y0066576D01*
X0104394Y0066612D01*
X0104387Y0066649D01*
X0104305Y0066847D01*
X0104249Y006693D01*
X0104249Y006693D01*
X0104098Y0067081D01*
X0104015Y0067137D01*
X0103817Y0067219D01*
X010378Y0067226D01*
X0103744Y0067237D01*
X0103637Y0067247D01*
X0103624Y0067246D01*
X0103612Y0067249D01*
X0101967D01*
Y0074317D01*
X0102042Y0074415D01*
X0102137Y0074646D01*
X010217Y0074894D01*
X0102137Y0075142D01*
X0102042Y0075373D01*
X0101924Y0075526D01*
X0101892Y0075574D01*
X0101844Y0075606D01*
X0101835Y0075613D01*
X0101878Y007574D01*
X0106207D01*
Y0057344D01*
D02*
G37*
G36*
X0093437Y0054225D02*
X009321Y0054319D01*
X0092962Y0054352D01*
X0092714Y0054319D01*
X0092483Y0054224D01*
X0092444Y0054194D01*
X0092187D01*
Y0053944D01*
X0092132Y0053873D01*
X0092036Y0053642D01*
X0092004Y0053394D01*
X0092036Y0053146D01*
X0092132Y0052915D01*
X0092187Y0052843D01*
Y0052149D01*
X0089237D01*
Y0052843D01*
X0089292Y0052915D01*
X0089387Y0053146D01*
X008942Y0053394D01*
X0089387Y0053642D01*
X0089292Y0053873D01*
X0089237Y0053944D01*
Y0054094D01*
X0089112D01*
X0089094Y0054106D01*
X0088941Y0054224D01*
X008871Y0054319D01*
X0088462Y0054352D01*
X0088214Y0054319D01*
X0087983Y0054224D01*
X0087885Y0054149D01*
X0087762D01*
Y0055694D01*
X0093437D01*
Y0054225D01*
D02*
G37*
G36*
X0106187Y0054194D02*
X010598D01*
X0105941Y0054224D01*
X010571Y0054319D01*
X0105462Y0054352D01*
X0105214Y0054319D01*
X0104983Y0054224D01*
X0104944Y0054194D01*
X0104637D01*
Y0053879D01*
X0104632Y0053873D01*
X0104536Y0053642D01*
X0104504Y0053394D01*
X0104536Y0053146D01*
X0104632Y0052915D01*
X0104637Y0052908D01*
Y0052149D01*
X0101762D01*
Y0052876D01*
X0101792Y0052915D01*
X0101887Y0053146D01*
X010192Y0053394D01*
X0101887Y0053642D01*
X0101792Y0053873D01*
X0101762Y0053912D01*
Y0054194D01*
X010148D01*
X0101441Y0054224D01*
X010121Y0054319D01*
X0100962Y0054352D01*
X0100714Y0054319D01*
X0100492Y0054227D01*
Y0055694D01*
X0106187D01*
Y0054194D01*
D02*
G37*
%LPC*%
G36*
X0086962Y0137852D02*
X0086714Y0137819D01*
X0086483Y0137724D01*
X0086386Y0137649D01*
X0087052Y0136984D01*
X0087717Y0136318D01*
X0087792Y0136415D01*
X0087887Y0136646D01*
X008792Y0136894D01*
X0087887Y0137142D01*
X0087792Y0137373D01*
X0087639Y0137571D01*
X0087441Y0137724D01*
X008721Y0137819D01*
X0086962Y0137852D01*
D02*
G37*
G36*
X0106962D02*
X0106714Y0137819D01*
X0106483Y0137724D01*
X0106284Y0137571D01*
X0106132Y0137373D01*
X0106036Y0137142D01*
X0106004Y0136894D01*
X0106036Y0136646D01*
X0106132Y0136415D01*
X0106284Y0136216D01*
X0106483Y0136064D01*
X0106714Y0135968D01*
X0106962Y0135936D01*
X010721Y0135968D01*
X0107441Y0136064D01*
X0107639Y0136216D01*
X0107792Y0136415D01*
X0107887Y0136646D01*
X010792Y0136894D01*
X0107887Y0137142D01*
X0107792Y0137373D01*
X0107639Y0137571D01*
X0107441Y0137724D01*
X010721Y0137819D01*
X0106962Y0137852D01*
D02*
G37*
G36*
X0101962D02*
X0101714Y0137819D01*
X0101483Y0137724D01*
X0101284Y0137571D01*
X0101132Y0137373D01*
X0101036Y0137142D01*
X0101004Y0136894D01*
X0101036Y0136646D01*
X0101132Y0136415D01*
X0101284Y0136216D01*
X0101483Y0136064D01*
X0101714Y0135968D01*
X0101962Y0135936D01*
X010221Y0135968D01*
X0102441Y0136064D01*
X0102639Y0136216D01*
X0102792Y0136415D01*
X0102887Y0136646D01*
X010292Y0136894D01*
X0102887Y0137142D01*
X0102792Y0137373D01*
X0102639Y0137571D01*
X0102441Y0137724D01*
X010221Y0137819D01*
X0101962Y0137852D01*
D02*
G37*
G36*
X0096962D02*
X0096714Y0137819D01*
X0096483Y0137724D01*
X0096284Y0137571D01*
X0096132Y0137373D01*
X0096036Y0137142D01*
X0096004Y0136894D01*
X0096036Y0136646D01*
X0096132Y0136415D01*
X0096284Y0136216D01*
X0096483Y0136064D01*
X0096714Y0135968D01*
X0096962Y0135936D01*
X009721Y0135968D01*
X0097441Y0136064D01*
X0097639Y0136216D01*
X0097792Y0136415D01*
X0097887Y0136646D01*
X009792Y0136894D01*
X0097887Y0137142D01*
X0097792Y0137373D01*
X0097639Y0137571D01*
X0097441Y0137724D01*
X009721Y0137819D01*
X0096962Y0137852D01*
D02*
G37*
G36*
X0086206Y013747D02*
X0086132Y0137373D01*
X0086036Y0137142D01*
X0086004Y0136894D01*
X0086036Y0136646D01*
X0086132Y0136415D01*
X0086284Y0136216D01*
X0086483Y0136064D01*
X0086714Y0135968D01*
X0086962Y0135936D01*
X008721Y0135968D01*
X0087441Y0136064D01*
X0087538Y0136138D01*
X0086872Y0136804D01*
X0086206Y013747D01*
D02*
G37*
G36*
X0091962Y0137852D02*
X0091714Y0137819D01*
X0091483Y0137724D01*
X0091284Y0137571D01*
X0091132Y0137373D01*
X0091036Y0137142D01*
X0091004Y0136894D01*
X0091036Y0136646D01*
X0091132Y0136415D01*
X0091284Y0136216D01*
X0091306Y0136199D01*
X0091418Y013608D01*
X0091466Y0136021D01*
X0091508Y0135964D01*
X0091541Y013591D01*
X0091567Y0135861D01*
X0091586Y0135816D01*
X0091599Y0135776D01*
X0091605Y0135743D01*
Y0134767D01*
X0090864Y0134026D01*
X0087926D01*
X0087919Y0134061D01*
X0087853Y013416D01*
X0087754Y0134226D01*
X0087725Y0134232D01*
X0087698Y0134367D01*
X0087797Y0134433D01*
X0087908Y0134599D01*
X0087947Y0134794D01*
X0087908Y0134989D01*
X0087797Y0135154D01*
X0087632Y0135265D01*
X0087437Y0135304D01*
X0087242Y0135265D01*
X0087076Y0135154D01*
X0086966Y0134989D01*
X0086933Y0134823D01*
X0086869Y0134782D01*
X0086853Y0134783D01*
X0086738Y0134839D01*
X0086708Y0134989D01*
X0086597Y0135154D01*
X0086432Y0135265D01*
X0086237Y0135304D01*
X0086042Y0135265D01*
X0085876Y0135154D01*
X0085766Y0134989D01*
X0085727Y0134794D01*
X0085766Y0134599D01*
X0085876Y0134433D01*
X0085898Y0134419D01*
X0085905Y0134411D01*
X0085912Y01344D01*
X0085918Y013439D01*
X0085923Y0134381D01*
X0085926Y0134372D01*
X0085929Y0134363D01*
X0085931Y0134353D01*
Y0134167D01*
X0085921Y013416D01*
X0085854Y0134061D01*
X0085847Y0134026D01*
X0084862D01*
X0084725Y0133999D01*
X0084609Y0133921D01*
X0084509Y0133821D01*
X0084432Y0133705D01*
X0084405Y0133569D01*
Y0133553D01*
X0084355Y0133478D01*
X0084331Y0133356D01*
Y0132981D01*
X0084355Y0132859D01*
X0084424Y0132756D01*
X0084527Y0132687D01*
X0084649Y0132663D01*
X0084874D01*
X0084996Y0132687D01*
X00851Y0132756D01*
X0085169Y0132859D01*
X0085193Y0132981D01*
Y0133312D01*
X0085847D01*
X0085854Y0133277D01*
X0085921Y0133178D01*
X008602Y0133111D01*
X0086122Y0133091D01*
X0086142Y0133052D01*
X0086157Y0132961D01*
X0086134Y0132946D01*
X0085984Y0132796D01*
X0085907Y013268D01*
X008588Y0132544D01*
Y0132199D01*
X0085854Y0132161D01*
X0085831Y0132044D01*
Y0131494D01*
X0085754Y0131401D01*
X0085185D01*
X0085119Y0131467D01*
Y013151D01*
X0085169Y0131584D01*
X0085193Y0131706D01*
Y0132081D01*
X0085169Y0132203D01*
X00851Y0132307D01*
X0084996Y0132376D01*
X0084874Y01324D01*
X0084649D01*
X0084527Y0132376D01*
X0084424Y0132307D01*
X0084387Y0132251D01*
X0084012D01*
Y0132519D01*
X0082812D01*
Y0131269D01*
X008303D01*
Y0131127D01*
X0083029Y0131121D01*
X0083027Y0131107D01*
X0083026Y0131104D01*
X0083026Y0131104D01*
X0082916Y0130939D01*
X0082877Y0130744D01*
X0082916Y0130549D01*
X0083026Y0130383D01*
X0083192Y0130273D01*
X0083387Y0130234D01*
X0083582Y0130273D01*
X0083747Y0130383D01*
X0083858Y0130549D01*
X0083897Y0130744D01*
X0083858Y0130939D01*
X0083747Y0131104D01*
X0083747Y0131104D01*
X0083747Y0131107D01*
X0083745Y0131118D01*
X0083744Y0131131D01*
Y0131269D01*
X0084012D01*
Y0131537D01*
X0084387D01*
X0084405Y013151D01*
Y0131319D01*
X0084432Y0131182D01*
X0084509Y0131066D01*
X0084784Y0130791D01*
X00849Y0130714D01*
X0085037Y0130687D01*
X0086345D01*
X0086423Y013056D01*
X0086405Y0130469D01*
Y0130019D01*
X0086432Y0129882D01*
X0086438Y0129874D01*
X0086822Y0130259D01*
X0086912Y0130169D01*
X0086987Y0130244D01*
X0086822Y0130409D01*
X0087206Y0130793D01*
X0087198Y0130798D01*
X008718Y0130802D01*
X0087138Y013094D01*
X0087139Y0130941D01*
X0087216Y0131057D01*
X0087229Y0131119D01*
X0087306Y0131197D01*
X0087371Y0131201D01*
X0087437Y0131188D01*
X0087637D01*
X0087754Y0131211D01*
X0087853Y0131278D01*
X0087919Y0131377D01*
X0087937Y0131463D01*
X0088131D01*
Y01308D01*
X0088125Y0130798D01*
X0088009Y0130721D01*
X0087932Y0130605D01*
X0087905Y0130469D01*
Y0130019D01*
X0087932Y0129882D01*
X0088009Y0129766D01*
X0088125Y0129689D01*
X0088262Y0129662D01*
X0088562D01*
X0088698Y0129689D01*
X0088814Y0129766D01*
X0088892Y0129882D01*
X0088898Y0129913D01*
X0089381D01*
Y012915D01*
X0089112D01*
Y0129169D01*
X0087762D01*
Y0129344D01*
X0086232D01*
X0086164Y0129471D01*
X0086233Y0129574D01*
X0086272Y0129769D01*
X0086233Y0129964D01*
X0086122Y0130129D01*
X0085957Y013024D01*
X0085762Y0130279D01*
X0085567Y013024D01*
X0085401Y0130129D01*
X0085291Y0129964D01*
X0085252Y0129769D01*
X0085291Y0129574D01*
X0085401Y0129408D01*
X0085567Y0129298D01*
X0085577Y0129296D01*
X0085564Y0129169D01*
X0084512D01*
Y012865D01*
X0083712D01*
X0083664Y0128721D01*
X0083548Y0128798D01*
X0083412Y0128826D01*
X0082962D01*
X0082825Y0128798D01*
X0082709Y0128721D01*
X0082662Y012865D01*
X0082237D01*
Y0128919D01*
X0082156D01*
X0082096Y0129031D01*
X0082108Y0129049D01*
X0082147Y0129244D01*
X0082108Y0129439D01*
X0081997Y0129604D01*
X0081832Y0129715D01*
X0081637Y0129754D01*
X0081442Y0129715D01*
X0081276Y0129604D01*
X0081166Y0129439D01*
X0081127Y0129244D01*
X0081166Y0129049D01*
X0081178Y0129031D01*
X0081118Y0128919D01*
X0081037D01*
Y0127669D01*
X0081855D01*
X0081902Y0127558D01*
X0081829Y0127469D01*
X0081037D01*
Y0126219D01*
X0081331D01*
Y0125619D01*
X0081012D01*
Y0124419D01*
X0082262D01*
Y0125619D01*
X0081943D01*
Y0126219D01*
X0082237D01*
Y0127011D01*
X0082469Y0127243D01*
X0082585Y0127232D01*
X0082642Y012712D01*
X0082632Y0127105D01*
X0082605Y0126969D01*
Y0126669D01*
X0082632Y0126532D01*
X0082638Y0126524D01*
X0083022Y0126909D01*
X0083187Y0126744D01*
X0083352Y0126909D01*
X0083736Y0126524D01*
X0083742Y0126532D01*
X0083769Y0126669D01*
Y0126969D01*
X0083742Y0127105D01*
X0083721Y0127136D01*
X0083789Y0127263D01*
X0084087D01*
X0084087Y0127263D01*
X0084204Y0127286D01*
X0084303Y0127353D01*
X0084385Y0127434D01*
X0084512Y0127382D01*
Y0126519D01*
X0085862D01*
Y0126344D01*
X0087582D01*
X0086722Y0127204D01*
X0086902Y0127384D01*
X0087766Y0126519D01*
X0087895D01*
X0087961Y0126392D01*
X0087927Y0126219D01*
X0087966Y0126024D01*
X0088076Y0125858D01*
X0088242Y0125748D01*
X0088437Y0125709D01*
X0088632Y0125748D01*
X0088797Y0125858D01*
X0088908Y0126024D01*
X0088947Y0126219D01*
X0088912Y0126392D01*
X0088963Y0126488D01*
X0088697Y0126754D01*
X0088877Y0126934D01*
X0089112Y0126698D01*
Y0127538D01*
X0089687D01*
X0089804Y0127561D01*
X0089903Y0127628D01*
X0089969Y0127727D01*
X0089993Y0127844D01*
Y0130044D01*
X0089969Y0130161D01*
X0089903Y013026D01*
X0089903Y013026D01*
X0089728Y0130435D01*
X0089639Y0130495D01*
X0089632Y0130558D01*
X0089641Y0130629D01*
X0089797Y0130733D01*
X0089908Y0130899D01*
X0089947Y0131094D01*
X0089908Y0131289D01*
X0089797Y0131454D01*
X0089632Y0131565D01*
X0089437Y0131604D01*
X0089242Y0131565D01*
X0089076Y0131454D01*
X0089062Y0131433D01*
X0089054Y0131426D01*
X0089043Y0131419D01*
X0089033Y0131413D01*
X0089024Y0131408D01*
X0089015Y0131404D01*
X0089006Y0131402D01*
X0088996Y01314D01*
X0088743D01*
Y0131619D01*
X0088743Y0131619D01*
X0088719Y0131736D01*
X0088653Y0131835D01*
X0088503Y0131985D01*
X0088404Y0132051D01*
X0088287Y0132075D01*
X0088287Y0132075D01*
X0087937D01*
X0087919Y0132161D01*
X0087853Y013226D01*
X0087754Y0132326D01*
X0087728Y0132332D01*
X0087707Y0132367D01*
X0087691Y0132468D01*
X0087789Y0132566D01*
X0087867Y0132682D01*
X0087894Y0132819D01*
Y0133238D01*
X0087919Y0133277D01*
X0087926Y0133312D01*
X0091012D01*
X0091148Y0133339D01*
X0091264Y0133416D01*
X0092214Y0134366D01*
X0092291Y0134482D01*
X0092319Y0134619D01*
Y0135743D01*
X0092325Y0135776D01*
X0092337Y0135816D01*
X0092356Y0135861D01*
X0092382Y013591D01*
X0092416Y0135964D01*
X0092456Y0136019D01*
X0092566Y0136148D01*
X0092615Y0136197D01*
X0092639Y0136216D01*
X0092792Y0136415D01*
X0092887Y0136646D01*
X009292Y0136894D01*
X0092887Y0137142D01*
X0092792Y0137373D01*
X0092639Y0137571D01*
X0092441Y0137724D01*
X009221Y0137819D01*
X0091962Y0137852D01*
D02*
G37*
G36*
X0083832Y0133969D02*
X0082991D01*
X0083412Y0133548D01*
X0083832Y0133969D01*
D02*
G37*
G36*
X0083412Y0133369D02*
X0083387Y0133344D01*
X0083412Y0133319D01*
X0083437Y0133344D01*
X0083412Y0133369D01*
D02*
G37*
G36*
X0084012Y0133789D02*
X0083566Y0133344D01*
X0084012Y0132898D01*
Y0133789D01*
D02*
G37*
G36*
X0082812Y0133789D02*
Y0132898D01*
X0083257Y0133344D01*
X0082812Y0133789D01*
D02*
G37*
G36*
X0083412Y0133139D02*
X0082991Y0132719D01*
X0083832D01*
X0083412Y0133139D01*
D02*
G37*
G36*
X0087386Y0130613D02*
X0087016Y0130244D01*
X0087386Y0129874D01*
X0087392Y0129882D01*
X0087419Y0130019D01*
Y0130469D01*
X0087392Y0130605D01*
X0087386Y0130613D01*
D02*
G37*
G36*
X0112137Y012985D02*
X0111937D01*
X011182Y0129826D01*
X0111721Y012976D01*
X0111703D01*
X0111604Y0129826D01*
X0111487Y012985D01*
X0111287D01*
X011117Y0129826D01*
X0111071Y012976D01*
X0111053D01*
X0110954Y0129826D01*
X0110837Y012985D01*
X0110637D01*
X011052Y0129826D01*
X0110421Y012976D01*
X0110354Y0129661D01*
X0110331Y0129544D01*
Y0128994D01*
X0110354Y0128877D01*
X0110421Y0128778D01*
X011052Y0128711D01*
X0110637Y0128688D01*
X0110837D01*
X0110954Y0128711D01*
X0111053Y0128778D01*
X0111071D01*
X011117Y0128711D01*
X0111287Y0128688D01*
X0111487D01*
X0111604Y0128711D01*
X0111703Y0128778D01*
X0111721D01*
X011182Y0128711D01*
X0111937Y0128688D01*
X0112137D01*
X0112254Y0128711D01*
X0112353Y0128778D01*
X0112419Y0128877D01*
X0112443Y0128994D01*
Y0129544D01*
X0112419Y0129661D01*
X0112353Y012976D01*
X0112254Y0129826D01*
X0112137Y012985D01*
D02*
G37*
G36*
X0086912Y0129989D02*
X0086617Y0129695D01*
X0086625Y0129689D01*
X0086762Y0129662D01*
X0087062D01*
X0087198Y0129689D01*
X0087206Y0129695D01*
X0086912Y0129989D01*
D02*
G37*
G36*
X0095824Y0129975D02*
X0095449D01*
X0095333Y0129952D01*
X0095637Y0129648D01*
X009594Y0129952D01*
X0095824Y0129975D01*
D02*
G37*
G36*
X0095637Y0129619D02*
X0095562Y0129544D01*
X0095637Y0129469D01*
X0095712Y0129544D01*
X0095637Y0129619D01*
D02*
G37*
G36*
X009612Y0129772D02*
X0095891Y0129544D01*
X009612Y0129315D01*
X0096143Y0129431D01*
Y0129656D01*
X009612Y0129772D01*
D02*
G37*
G36*
X0095154Y0129772D02*
X0095131Y0129656D01*
Y0129431D01*
X0095154Y0129315D01*
X0095382Y0129544D01*
X0095154Y0129772D01*
D02*
G37*
G36*
X0101412Y0129651D02*
X0100962D01*
X0100825Y0129623D01*
X0100817Y0129618D01*
X0101187Y0129248D01*
X0101556Y0129618D01*
X0101548Y0129623D01*
X0101412Y0129651D01*
D02*
G37*
G36*
X0101187Y0129219D02*
X0101112Y0129144D01*
X0101187Y0129069D01*
X0101262Y0129144D01*
X0101187Y0129219D01*
D02*
G37*
G36*
X0107207Y0129444D02*
X0106366D01*
X0106787Y0129023D01*
X0107207Y0129444D01*
D02*
G37*
G36*
X0113912Y0129376D02*
X0113462D01*
X0113325Y0129348D01*
X0113317Y0129343D01*
X0113687Y0128973D01*
X0114056Y0129343D01*
X0114048Y0129348D01*
X0113912Y0129376D01*
D02*
G37*
G36*
X0108887D02*
X0108437D01*
X01083Y0129348D01*
X0108292Y0129343D01*
X0108662Y0128973D01*
X0109031Y0129343D01*
X0109023Y0129348D01*
X0108887Y0129376D01*
D02*
G37*
G36*
X0101736Y0129438D02*
X0101441Y0129144D01*
X0101736Y0128849D01*
X0101741Y0128857D01*
X0101769Y0128994D01*
Y0129294D01*
X0101741Y012943D01*
X0101736Y0129438D01*
D02*
G37*
G36*
X0100638Y0129438D02*
X0100632Y012943D01*
X0100605Y0129294D01*
Y0128994D01*
X0100632Y0128857D01*
X0100638Y0128849D01*
X0100932Y0129144D01*
X0100638Y0129438D01*
D02*
G37*
G36*
X0106787Y0128844D02*
X0106762Y0128819D01*
X0106787Y0128794D01*
X0106812Y0128819D01*
X0106787Y0128844D01*
D02*
G37*
G36*
X0113687Y0128944D02*
X0113612Y0128869D01*
X0113687Y0128794D01*
X0113762Y0128869D01*
X0113687Y0128944D01*
D02*
G37*
G36*
X0108662D02*
X0108587Y0128869D01*
X0108662Y0128794D01*
X0108737Y0128869D01*
X0108662Y0128944D01*
D02*
G37*
G36*
X0101187Y0129039D02*
X0100817Y012867D01*
X0100825Y0128664D01*
X0100962Y0128637D01*
X0101412D01*
X0101548Y0128664D01*
X0101556Y012867D01*
X0101187Y0129039D01*
D02*
G37*
G36*
X0114236Y0129163D02*
X0113941Y0128869D01*
X0114236Y0128574D01*
X0114241Y0128582D01*
X0114269Y0128719D01*
Y0129019D01*
X0114241Y0129155D01*
X0114236Y0129163D01*
D02*
G37*
G36*
X0108113D02*
X0108107Y0129155D01*
X010808Y0129019D01*
Y0128719D01*
X0108107Y0128582D01*
X0108113Y0128574D01*
X0108407Y0128869D01*
X0108113Y0129163D01*
D02*
G37*
G36*
X0109211Y0129163D02*
X0108916Y0128869D01*
X0109211Y0128574D01*
X0109216Y0128582D01*
X0109244Y0128719D01*
Y0129019D01*
X0109216Y0129155D01*
X0109211Y0129163D01*
D02*
G37*
G36*
X0113138Y0129163D02*
X0113132Y0129155D01*
X0113105Y0129019D01*
Y0128719D01*
X0113132Y0128582D01*
X0113138Y0128574D01*
X0113432Y0128869D01*
X0113138Y0129163D01*
D02*
G37*
G36*
X0107387Y0129264D02*
X0106941Y0128819D01*
X0107387Y0128373D01*
Y0129264D01*
D02*
G37*
G36*
X0106187Y0129264D02*
Y0128373D01*
X0106632Y0128819D01*
X0106187Y0129264D01*
D02*
G37*
G36*
X0113687Y0128764D02*
X0113317Y0128395D01*
X0113325Y0128389D01*
X0113462Y0128362D01*
X0113912D01*
X0114048Y0128389D01*
X0114056Y0128395D01*
X0113687Y0128764D01*
D02*
G37*
G36*
X0108662D02*
X0108292Y0128395D01*
X01083Y0128389D01*
X0108437Y0128362D01*
X0108887D01*
X0109023Y0128389D01*
X0109031Y0128395D01*
X0108662Y0128764D01*
D02*
G37*
G36*
X0106787Y0128614D02*
X0106366Y0128194D01*
X0107207D01*
X0106787Y0128614D01*
D02*
G37*
G36*
X0101412Y0128151D02*
X0100962D01*
X0100825Y0128124D01*
X0100709Y0128046D01*
X0100679Y0128001D01*
X0099721D01*
X0099646Y0128051D01*
X0099524Y0128075D01*
X0099149D01*
X0099027Y0128051D01*
X0098924Y0127982D01*
X0098855Y0127878D01*
X0098831Y0127756D01*
Y0127531D01*
X0098855Y0127409D01*
X0098924Y0127306D01*
X009898Y0127269D01*
Y0127069D01*
X0098924Y0127032D01*
X0098855Y0126928D01*
X0098831Y0126806D01*
Y0126581D01*
X0098855Y0126459D01*
X0098924Y0126356D01*
X0099027Y0126287D01*
X0099149Y0126263D01*
X0099524D01*
X0099646Y0126287D01*
X009975Y0126356D01*
X0099819Y0126459D01*
X0099843Y0126581D01*
Y0126806D01*
X0099819Y0126928D01*
X009975Y0127032D01*
X0099694Y0127069D01*
Y0127269D01*
X0099721Y0127287D01*
X0100679D01*
X0100709Y0127241D01*
X0100825Y0127164D01*
X0100962Y0127137D01*
X0101189D01*
X0101405Y0126921D01*
Y0126106D01*
X0101287Y0126045D01*
X0101278Y0126046D01*
X0101172Y0126204D01*
X0101007Y0126315D01*
X0100812Y0126354D01*
X0100617Y0126315D01*
X0100451Y0126204D01*
X0100341Y0126039D01*
X0100302Y0125844D01*
X0100341Y0125649D01*
X0100451Y0125483D01*
X0100617Y0125373D01*
X0100812Y0125334D01*
X0101007Y0125373D01*
X0101172Y0125483D01*
X0101278Y0125641D01*
X0101287Y0125643D01*
X0101405Y0125582D01*
Y0122552D01*
X0101404Y0122546D01*
X0101402Y0122532D01*
X0101401Y0122529D01*
X0101401Y0122529D01*
X0101291Y0122364D01*
X0101252Y0122169D01*
X0101291Y0121974D01*
X0101401Y0121808D01*
X0101567Y0121698D01*
X0101762Y0121659D01*
X0101957Y0121698D01*
X0102122Y0121808D01*
X0102233Y0121974D01*
X0102272Y0122169D01*
X0102233Y0122364D01*
X0102122Y0122529D01*
X0102122Y0122529D01*
X0102122Y0122532D01*
X010212Y0122543D01*
X0102119Y0122556D01*
Y0124762D01*
X0109987D01*
Y0124519D01*
X0111237D01*
Y0125719D01*
X0111181D01*
X0111121Y0125831D01*
X0111133Y0125849D01*
X0111172Y0126044D01*
X0111133Y0126239D01*
X0111022Y0126404D01*
X0110857Y0126515D01*
X0110662Y0126554D01*
X0110467Y0126515D01*
X0110301Y0126404D01*
X0110191Y0126239D01*
X0110152Y0126044D01*
X0110191Y0125849D01*
X0110203Y0125831D01*
X0110143Y0125719D01*
X0109987D01*
Y0125476D01*
X0104344D01*
Y0125721D01*
X0104471Y0125801D01*
X0104537Y0125788D01*
X0104737D01*
X0104854Y0125811D01*
X0104953Y0125878D01*
X0105019Y0125977D01*
X0105043Y0126094D01*
Y0126644D01*
X0105019Y0126761D01*
X0104953Y012686D01*
X0104854Y0126926D01*
X0104737Y012695D01*
X0104537D01*
X010442Y0126926D01*
X0104321Y012686D01*
X0104254Y0126761D01*
X0104247Y0126726D01*
X0103726D01*
X0103719Y0126761D01*
X0103653Y012686D01*
X0103554Y0126926D01*
X0103437Y012695D01*
X0103237D01*
X010312Y0126926D01*
X0103021Y012686D01*
X0102954Y0126761D01*
X0102931Y0126644D01*
Y0126094D01*
X0102954Y0125977D01*
X0103021Y0125878D01*
X010312Y0125811D01*
X0103237Y0125788D01*
X0103437D01*
X0103503Y0125801D01*
X010363Y0125721D01*
Y0125476D01*
X0102119D01*
Y0127069D01*
X0102091Y0127205D01*
X0102014Y0127321D01*
X0101769Y0127567D01*
Y0127794D01*
X0101741Y012793D01*
X0101664Y0128046D01*
X0101548Y0128124D01*
X0101412Y0128151D01*
D02*
G37*
G36*
X0102412Y0131551D02*
X0095137D01*
X0095Y0131523D01*
X0094884Y0131446D01*
X0094209Y0130771D01*
X0094132Y0130655D01*
X0094105Y0130519D01*
Y0129169D01*
X0094132Y0129032D01*
X0094209Y0128916D01*
X0094784Y0128341D01*
X00949Y0128264D01*
X0095037Y0128237D01*
X0095253D01*
X0095311Y0128198D01*
X0095319Y0128112D01*
X0095313Y012806D01*
X009524Y0128001D01*
X0093885D01*
X0093789Y0128096D01*
X0093673Y0128173D01*
X0093537Y0128201D01*
X0091762D01*
X0091625Y0128173D01*
X0091509Y0128096D01*
X009043Y0127017D01*
X0090425Y0127013D01*
X0090414Y0127005D01*
X0090412Y0127004D01*
X0090412Y0127004D01*
X0090217Y0126965D01*
X0090051Y0126854D01*
X0089941Y0126689D01*
X0089902Y0126494D01*
X0089941Y0126299D01*
X0090051Y0126133D01*
X0090217Y0126023D01*
X0090412Y0125984D01*
X0090607Y0126023D01*
X0090772Y0126133D01*
X0090883Y0126299D01*
X0090922Y0126494D01*
X0090922Y0126494D01*
X0090923Y0126496D01*
X009093Y0126505D01*
X0090938Y0126516D01*
X009191Y0127487D01*
X009228D01*
X009234Y0127375D01*
X0092316Y0127339D01*
X0092277Y0127144D01*
X0092316Y0126949D01*
X0092426Y0126783D01*
X0092592Y0126673D01*
X0092787Y0126634D01*
X0092982Y0126673D01*
X0093147Y0126783D01*
X0093258Y0126949D01*
X0093297Y0127144D01*
X0093258Y0127336D01*
X0093259Y0127342D01*
X0093321Y0127458D01*
X0093409Y0127466D01*
X0093484Y0127391D01*
X00936Y0127314D01*
X0093737Y0127287D01*
X0094675D01*
X0094736Y0127169D01*
X0094734Y012716D01*
X0094576Y0127054D01*
X0094466Y0126889D01*
X0094427Y0126694D01*
X0094466Y0126499D01*
X0094491Y0126461D01*
X0094448Y0126297D01*
X0094409Y0126271D01*
X0094364Y0126226D01*
X0093895D01*
X0093889Y0126226D01*
X0093875Y0126229D01*
X0093872Y0126229D01*
X0093872Y0126229D01*
X0093707Y012634D01*
X0093512Y0126379D01*
X0093317Y012634D01*
X0093151Y0126229D01*
X0093041Y0126064D01*
X0093002Y0125869D01*
X0093041Y0125674D01*
X0093151Y0125508D01*
X0093317Y0125398D01*
X0093512Y0125359D01*
X009363Y0125383D01*
X0093739Y0125278D01*
X0093727Y0125219D01*
X0093765Y0125028D01*
X0093768Y0125005D01*
X0093698Y0124901D01*
X0090085D01*
X008976Y0125225D01*
X0089756Y012523D01*
X0089748Y0125242D01*
X0089747Y0125244D01*
X0089747Y0125244D01*
X0089708Y0125439D01*
X0089597Y0125604D01*
X0089432Y0125715D01*
X0089237Y0125754D01*
X0089042Y0125715D01*
X0088876Y0125604D01*
X0088766Y0125439D01*
X0088727Y0125244D01*
X0088766Y0125049D01*
X0088876Y0124883D01*
X0089042Y0124773D01*
X0089237Y0124734D01*
X0089237Y0124734D01*
X0089239Y0124733D01*
X0089248Y0124726D01*
X0089259Y0124717D01*
X0089684Y0124291D01*
X00898Y0124214D01*
X0089937Y0124187D01*
X0094587D01*
X0094655Y012406D01*
X0094591Y0123964D01*
X0094552Y0123769D01*
X0094591Y0123574D01*
X0094701Y0123408D01*
X0094867Y0123298D01*
X0095062Y0123259D01*
X0095257Y0123298D01*
X0095345Y0123357D01*
X0095459Y012328D01*
X0095452Y0123244D01*
X0095491Y0123049D01*
X0095601Y0122883D01*
X0095722Y0122803D01*
X0095684Y0122676D01*
X0094862D01*
X0094725Y0122648D01*
X0094609Y0122571D01*
X0092784Y0120746D01*
X0092707Y012063D01*
X009268Y0120494D01*
Y0119192D01*
X0091355Y0117867D01*
X009135Y0117863D01*
X0091339Y0117855D01*
X0091337Y0117854D01*
X0091337Y0117854D01*
X0091142Y0117815D01*
X0090976Y0117704D01*
X0090866Y0117539D01*
X0090827Y0117344D01*
X0090861Y0117171D01*
X0090839Y011715D01*
X0090772Y0117107D01*
X0090756Y01171D01*
X0090607Y01172D01*
X0090412Y0117238D01*
X0090217Y01172D01*
X0090051Y0117089D01*
X0089941Y0116924D01*
X0089902Y0116729D01*
X0089941Y0116534D01*
X0090051Y0116368D01*
X0090217Y0116258D01*
X0090412Y0116219D01*
X0090607Y0116258D01*
X0090772Y0116368D01*
X0090883Y0116534D01*
X0090922Y0116729D01*
X0090887Y0116902D01*
X0090909Y0116922D01*
X0090977Y0116965D01*
X0090993Y0116972D01*
X0091142Y0116873D01*
X0091337Y0116834D01*
X0091532Y0116873D01*
X0091697Y0116983D01*
X0091808Y0117149D01*
X0091847Y0117344D01*
X0091847Y0117344D01*
X0091848Y0117346D01*
X0091855Y0117355D01*
X0091863Y0117366D01*
X0093289Y0118791D01*
X0093366Y0118907D01*
X0093394Y0119044D01*
Y0120346D01*
X0094636Y0121589D01*
X0094759Y0121532D01*
X0094791Y0121374D01*
X0094901Y0121208D01*
X0095067Y0121098D01*
X0095262Y0121059D01*
X0095457Y0121098D01*
X0095622Y0121208D01*
X0095733Y0121374D01*
X0095772Y0121569D01*
X0095733Y0121764D01*
X0095685Y0121835D01*
X0095753Y0121962D01*
X0095978D01*
X0095985Y0121961D01*
X0095999Y0121959D01*
X0096001Y0121958D01*
X0096001Y0121958D01*
X0096167Y0121848D01*
X0096362Y0121809D01*
X0096557Y0121848D01*
X0096722Y0121958D01*
X0096833Y0122124D01*
X0096857Y0122245D01*
X0096992Y0122315D01*
X0097001Y0122312D01*
X009702Y0122293D01*
X0097126Y0122133D01*
X0097292Y0122023D01*
X0097315Y0121966D01*
X0097328Y0121886D01*
X0097305Y0121769D01*
Y0121469D01*
X0097332Y0121332D01*
X0097338Y0121324D01*
X0097722Y0121709D01*
X0097902Y0121529D01*
X0097517Y0121145D01*
X0097525Y0121139D01*
X0097565Y0121131D01*
X0097592Y0121088D01*
X0097615Y0120992D01*
X0097557Y0120905D01*
X009753Y0120769D01*
Y0120599D01*
X0097525Y0120599D01*
X0097409Y0120521D01*
X0097332Y0120405D01*
X0097305Y0120269D01*
Y0119969D01*
X0097332Y0119832D01*
X0097409Y0119716D01*
X0097525Y0119639D01*
X009753Y0119638D01*
Y0119185D01*
X0097434Y0119121D01*
X0097421Y0119101D01*
X0097003D01*
X0096989Y0119121D01*
X0096873Y0119198D01*
X0096737Y0119226D01*
X0096287D01*
X009615Y0119198D01*
X0096034Y0119121D01*
X0095957Y0119005D01*
X009593Y0118869D01*
Y0118569D01*
X0095957Y0118432D01*
X0096034Y0118316D01*
X009615Y0118239D01*
X0096287Y0118212D01*
X0096737D01*
X0096873Y0118239D01*
X0096989Y0118316D01*
X0097036Y0118387D01*
X0097387D01*
X0097434Y0118316D01*
X009755Y0118239D01*
X0097687Y0118212D01*
X0098137D01*
X0098273Y0118239D01*
X0098389Y0118316D01*
X0098466Y0118432D01*
X0098494Y0118569D01*
Y0118869D01*
X0098466Y0119005D01*
X0098389Y0119121D01*
X0098273Y0119198D01*
X0098244Y0119204D01*
Y0119638D01*
X0098248Y0119639D01*
X0098364Y0119716D01*
X0098441Y0119832D01*
X0098469Y0119969D01*
Y0120269D01*
X009846Y0120314D01*
X0098482Y0120348D01*
X0098647Y0120458D01*
X0098758Y0120624D01*
X0098797Y0120819D01*
X0098758Y0121014D01*
X0098647Y0121179D01*
X0098482Y012129D01*
X009846Y0121424D01*
X0098469Y0121469D01*
Y0121769D01*
X0098441Y0121905D01*
X0098372Y012201D01*
X0098385Y0122064D01*
X0098419Y0122137D01*
X0098689D01*
X010078Y0120046D01*
Y0119094D01*
X0100807Y0118957D01*
X0100884Y0118841D01*
X0101109Y0118616D01*
X0101225Y0118539D01*
X0101362Y0118512D01*
X0101687D01*
Y0118269D01*
X0102937D01*
Y0119135D01*
X0103046Y0119212D01*
X0103137Y0119169D01*
Y0118269D01*
X0104387D01*
Y0118512D01*
X0104705D01*
X0104765Y01184D01*
X0104741Y0118364D01*
X0104702Y0118169D01*
X0104741Y0117974D01*
X0104851Y0117808D01*
X0105017Y0117698D01*
X0105212Y0117659D01*
X0105407Y0117698D01*
X0105572Y0117808D01*
X0105683Y0117974D01*
X0105722Y0118169D01*
X0105683Y0118364D01*
X0105659Y01184D01*
X0105719Y0118512D01*
X0106314D01*
X0108109Y0116716D01*
X0108225Y0116639D01*
X0108362Y0116612D01*
X011113D01*
Y0116252D01*
X011109Y0116225D01*
X0111056Y0116207D01*
X0110968D01*
X0110934Y0116225D01*
X0110823Y0116298D01*
X0110687Y0116326D01*
X0110387D01*
X011025Y0116298D01*
X011014Y0116225D01*
X0110106Y0116207D01*
X0110018D01*
X0109984Y0116225D01*
X0109873Y0116298D01*
X0109737Y0116326D01*
X0109437D01*
X01093Y0116298D01*
X0109184Y0116221D01*
X0109124Y0116131D01*
X0108992Y0116066D01*
X0108957Y011609D01*
X0108762Y0116129D01*
X0108567Y011609D01*
X0108401Y0115979D01*
X0108291Y0115814D01*
X0108252Y0115619D01*
X0108291Y0115424D01*
X0108401Y0115258D01*
X0108567Y0115148D01*
X0108762Y0115109D01*
X0108957Y0115148D01*
X0108992Y0115171D01*
X0109124Y0115107D01*
X0109184Y0115016D01*
X01093Y0114939D01*
X0109437Y0114912D01*
X0109737D01*
X0109873Y0114939D01*
X0109984Y0115013D01*
X0110018Y011503D01*
X0110106D01*
X011014Y0115013D01*
X011025Y0114939D01*
X0110387Y0114912D01*
X0110687D01*
X0110823Y0114939D01*
X0110934Y0115013D01*
X0110968Y011503D01*
X0111056D01*
X011109Y0115013D01*
X01112Y0114939D01*
X0111296Y011492D01*
Y0114791D01*
X0111292Y011479D01*
X0111126Y0114679D01*
X0111016Y0114514D01*
X0110977Y0114319D01*
X0111016Y0114124D01*
X0111126Y0113958D01*
X0111126Y0113958D01*
X0111127Y0113956D01*
X0111129Y0113945D01*
X011113Y0113931D01*
Y0113652D01*
X011109Y0113625D01*
X0111056Y0113607D01*
X0110968D01*
X0110934Y0113625D01*
X0110823Y0113698D01*
X0110687Y0113726D01*
X0110387D01*
X011025Y0113698D01*
X011014Y0113625D01*
X0110106Y0113607D01*
X0110018D01*
X0109984Y0113625D01*
X0109873Y0113698D01*
X0109737Y0113726D01*
X0109437D01*
X01093Y0113698D01*
X0109184Y0113621D01*
X0109107Y0113505D01*
X010908Y0113369D01*
Y0112669D01*
X0109107Y0112532D01*
X0109184Y0112416D01*
X010923Y0112386D01*
Y0110994D01*
X0108962D01*
Y0109794D01*
X0110212D01*
Y0110994D01*
X0109944D01*
Y0111327D01*
X0110071Y0111395D01*
X0110142Y0111348D01*
X0110337Y0111309D01*
X0110532Y0111348D01*
X0110697Y0111458D01*
X0110808Y0111624D01*
X0110847Y0111819D01*
X0110808Y0112014D01*
X0110697Y0112179D01*
X0110688Y0112185D01*
X0110688Y0112233D01*
X0110718Y0112318D01*
X0110823Y0112339D01*
X0110934Y0112413D01*
X0110968Y011243D01*
X0111056D01*
X011109Y0112413D01*
X01112Y0112339D01*
X0111337Y0112312D01*
X0111637D01*
X0111773Y0112339D01*
X0111889Y0112416D01*
X0111966Y0112532D01*
X0111994Y0112669D01*
Y0113369D01*
X0111966Y0113505D01*
X0111889Y0113621D01*
X0111844Y0113652D01*
Y0113935D01*
X0111844Y0113942D01*
X0111847Y0113956D01*
X0111847Y0113958D01*
X0111847Y0113958D01*
X0111958Y0114124D01*
X0111997Y0114319D01*
X0111958Y0114514D01*
X0111847Y0114679D01*
X0111682Y011479D01*
X0111678Y0114791D01*
Y011492D01*
X0111773Y0114939D01*
X0111889Y0115016D01*
X0111966Y0115132D01*
X0111994Y0115269D01*
Y0115969D01*
X0111966Y0116105D01*
X0111889Y0116221D01*
X0111844Y0116252D01*
Y0116612D01*
X0113812D01*
X0113948Y0116639D01*
X0114064Y0116716D01*
X0114214Y0116866D01*
X0114291Y0116982D01*
X0114319Y0117119D01*
Y0117924D01*
X0115237D01*
Y0119124D01*
X0115237D01*
Y0119194D01*
X0115237D01*
Y0120337D01*
X0115237Y0120429D01*
X0115237Y0120521D01*
Y0120707D01*
X0115457D01*
X0115593Y0120734D01*
X0115709Y0120811D01*
X0115764Y0120866D01*
X0115841Y0120982D01*
X0115869Y0121119D01*
Y0126794D01*
X0115841Y012693D01*
X0115764Y0127046D01*
X0115189Y0127621D01*
X0115073Y0127698D01*
X0114937Y0127726D01*
X0114195D01*
X0114164Y0127771D01*
X0114048Y0127848D01*
X0113912Y0127876D01*
X0113462D01*
X0113325Y0127848D01*
X0113209Y0127771D01*
X0113179Y0127726D01*
X0112426D01*
X0112419Y0127761D01*
X0112353Y012786D01*
X0112254Y0127926D01*
X0112137Y012795D01*
X0111937D01*
X011182Y0127926D01*
X0111721Y012786D01*
X0111654Y0127761D01*
X0111631Y0127644D01*
Y0127094D01*
X0111654Y0126977D01*
X0111721Y0126878D01*
X011182Y0126811D01*
X0111937Y0126788D01*
X0112137D01*
X0112254Y0126811D01*
X0112353Y0126878D01*
X0112419Y0126977D01*
X0112426Y0127012D01*
X0113179D01*
X0113209Y0126966D01*
X0113325Y0126889D01*
X0113462Y0126862D01*
X0113912D01*
X0114048Y0126889D01*
X0114164Y0126966D01*
X0114195Y0127012D01*
X0114789D01*
X0115155Y0126646D01*
Y0121664D01*
X0112687D01*
Y0120521D01*
X0112687Y0120389D01*
X0112569Y0120341D01*
X0112419Y0120492D01*
Y0122419D01*
Y0122686D01*
X0112464Y0122716D01*
X0112541Y0122832D01*
X0112569Y0122969D01*
Y0123419D01*
X0112541Y0123555D01*
X0112464Y0123671D01*
X0112419Y0123702D01*
Y0124519D01*
X0112687D01*
Y0125719D01*
X0111437D01*
Y0124519D01*
X0111705D01*
Y0123702D01*
X0111659Y0123671D01*
X0111582Y0123555D01*
X0111555Y0123419D01*
Y0122969D01*
X0111573Y0122878D01*
X0111495Y0122751D01*
X0105462D01*
X0105325Y0122724D01*
X0105209Y0122646D01*
X0105132Y012253D01*
X0105105Y0122394D01*
Y0122169D01*
X0104862D01*
Y0121176D01*
X0104437D01*
Y0121419D01*
X0103187D01*
Y0120327D01*
X0103079Y0120273D01*
X0102987Y0120349D01*
Y0121419D01*
X0101737D01*
Y0121176D01*
X010151D01*
X0099239Y0123446D01*
X0099123Y0123523D01*
X0098987Y0123551D01*
X0097237D01*
X00971Y0123523D01*
X0096984Y0123446D01*
X0096547Y0123009D01*
X0096439Y012308D01*
X0096472Y0123244D01*
X0096433Y0123439D01*
X0096322Y0123604D01*
X0096157Y0123715D01*
X0095962Y0123754D01*
X0095767Y0123715D01*
X0095679Y0123656D01*
X0095564Y0123732D01*
X0095572Y0123769D01*
X0095533Y0123964D01*
X0095469Y012406D01*
X0095536Y0124187D01*
X0098978D01*
X0098985Y0124186D01*
X0098999Y0124184D01*
X0099001Y0124183D01*
X0099001Y0124183D01*
X0099167Y0124073D01*
X0099362Y0124034D01*
X0099557Y0124073D01*
X0099722Y0124183D01*
X0099833Y0124349D01*
X0099872Y0124544D01*
X0099833Y0124739D01*
X0099722Y0124904D01*
X0099557Y0125015D01*
X0099362Y0125054D01*
X0099167Y0125015D01*
X0099001Y0124904D01*
X0099001Y0124904D01*
X0098999Y0124904D01*
X0098988Y0124902D01*
X0098974Y0124901D01*
X0098169D01*
Y0128071D01*
X0098385Y0128287D01*
X0098953D01*
X0099027Y0128237D01*
X0099149Y0128213D01*
X0099524D01*
X0099646Y0128237D01*
X009975Y0128306D01*
X0099819Y0128409D01*
X0099843Y0128531D01*
Y0128756D01*
X0099819Y0128878D01*
X009975Y0128982D01*
X0099687Y0129023D01*
X0099685Y012903D01*
Y0129157D01*
X0099687Y0129164D01*
X009975Y0129206D01*
X0099819Y0129309D01*
X0099843Y0129431D01*
Y0129656D01*
X0099819Y0129778D01*
X009975Y0129882D01*
X0099646Y0129951D01*
X0099524Y0129975D01*
X0099149D01*
X0099027Y0129951D01*
X0098953Y0129901D01*
X0097837D01*
X00977Y0129873D01*
X0097584Y0129796D01*
X0096834Y0129046D01*
X0096757Y012893D01*
X009673Y0128794D01*
Y0126792D01*
X0096321Y0126383D01*
X0096194Y0126392D01*
X0096127Y0126503D01*
X0096143Y0126581D01*
Y0126806D01*
X0096119Y0126928D01*
X009605Y0127032D01*
X0095946Y0127101D01*
X0095929Y0127104D01*
Y0127234D01*
X0095946Y0127237D01*
X009605Y0127306D01*
X0096119Y0127409D01*
X0096143Y0127531D01*
Y0127756D01*
X0096119Y0127878D01*
X009605Y0127982D01*
X0095946Y0128051D01*
X0095929Y0128054D01*
Y0128184D01*
X0095946Y0128187D01*
X009605Y0128256D01*
X0096119Y0128359D01*
X0096143Y0128481D01*
Y0128706D01*
X0096119Y0128828D01*
X009605Y0128932D01*
X0095946Y0129001D01*
X0095929Y0129004D01*
Y0129134D01*
X009594Y0129136D01*
X0095637Y0129439D01*
X0095314Y0129116D01*
X0095319Y0129062D01*
X0095313Y012901D01*
X009524Y0128951D01*
X0095185D01*
X0094819Y0129317D01*
Y0130371D01*
X0095285Y0130837D01*
X0099587D01*
X0099625Y013071D01*
X0099593Y0130688D01*
X0099548Y0130622D01*
X0099533Y0130544D01*
Y0130294D01*
X0099548Y0130216D01*
X0099593Y013015D01*
X0099659Y0130105D01*
X0099737Y013009D01*
X0099987D01*
X0100065Y0130105D01*
X0100131Y013015D01*
X0100175Y0130216D01*
X0100191Y0130294D01*
Y0130544D01*
X0100175Y0130622D01*
X0100131Y0130688D01*
X0100098Y013071D01*
X0100137Y0130837D01*
X0102264D01*
X010363Y0129471D01*
Y0128699D01*
X0103604Y0128661D01*
X0103581Y0128544D01*
Y0127994D01*
X0103604Y0127877D01*
X0103671Y0127778D01*
X010377Y0127711D01*
X0103887Y0127688D01*
X0104087D01*
X0104204Y0127711D01*
X0104303Y0127778D01*
X0104369Y0127877D01*
X0104376Y0127912D01*
X0104939D01*
X0105734Y0127116D01*
X010585Y0127039D01*
X0105987Y0127012D01*
X0106187D01*
Y0126744D01*
X0107387D01*
Y0127012D01*
X0108154D01*
X0108184Y0126966D01*
X01083Y0126889D01*
X0108437Y0126862D01*
X0108887D01*
X0109023Y0126889D01*
X0109139Y0126966D01*
X010917Y0127012D01*
X0110347D01*
X0110354Y0126977D01*
X0110421Y0126878D01*
X011052Y0126811D01*
X0110637Y0126788D01*
X0110837D01*
X0110954Y0126811D01*
X0111053Y0126878D01*
X0111119Y0126977D01*
X0111143Y0127094D01*
Y0127644D01*
X0111119Y0127761D01*
X0111053Y012786D01*
X0110954Y0127926D01*
X0110837Y012795D01*
X0110637D01*
X011052Y0127926D01*
X0110421Y012786D01*
X0110354Y0127761D01*
X0110347Y0127726D01*
X010917D01*
X0109139Y0127771D01*
X0109023Y0127848D01*
X0108887Y0127876D01*
X0108437D01*
X01083Y0127848D01*
X0108184Y0127771D01*
X0108154Y0127726D01*
X0107387D01*
Y0127994D01*
X0106187D01*
Y0127853D01*
X010606Y01278D01*
X0105339Y0128521D01*
X0105223Y0128598D01*
X0105087Y0128626D01*
X0104376D01*
X0104369Y0128661D01*
X0104344Y0128699D01*
Y0129619D01*
X0104316Y0129755D01*
X0104239Y0129871D01*
X0102664Y0131446D01*
X0102548Y0131523D01*
X0102412Y0131551D01*
D02*
G37*
G36*
X0083187Y0126714D02*
X0082817Y0126345D01*
X0082825Y0126339D01*
X0082962Y0126312D01*
X0083412D01*
X0083548Y0126339D01*
X0083556Y0126345D01*
X0083187Y0126714D01*
D02*
G37*
G36*
X0083532Y0125619D02*
X0082641D01*
X0083087Y0125173D01*
X0083532Y0125619D01*
D02*
G37*
G36*
X0083087Y0125044D02*
X0083062Y0125019D01*
X0083087Y0124994D01*
X0083112Y0125019D01*
X0083087Y0125044D01*
D02*
G37*
G36*
X0082462Y0125439D02*
Y0124598D01*
X0082882Y0125019D01*
X0082462Y0125439D01*
D02*
G37*
G36*
X0083712Y0125439D02*
X0083291Y0125019D01*
X0083712Y0124598D01*
Y0125439D01*
D02*
G37*
G36*
X0083087Y0124864D02*
X0082641Y0124419D01*
X0083532D01*
X0083087Y0124864D01*
D02*
G37*
G36*
X0113712Y0123776D02*
X0113412D01*
X0113275Y0123748D01*
X0113267Y0123743D01*
X0113562Y0123448D01*
X0113856Y0123743D01*
X0113848Y0123748D01*
X0113712Y0123776D01*
D02*
G37*
G36*
X0113562Y0123269D02*
X0113487Y0123194D01*
X0113562Y0123119D01*
X0113637Y0123194D01*
X0113562Y0123269D01*
D02*
G37*
G36*
X0114036Y0123563D02*
X0113666Y0123194D01*
X0114036Y0122824D01*
X0114041Y0122832D01*
X0114069Y0122969D01*
Y0123419D01*
X0114041Y0123555D01*
X0114036Y0123563D01*
D02*
G37*
G36*
X0113088Y0123563D02*
X0113082Y0123555D01*
X0113055Y0123419D01*
Y0122969D01*
X0113082Y0122832D01*
X0113088Y0122824D01*
X0113457Y0123194D01*
X0113088Y0123563D01*
D02*
G37*
G36*
X0113562Y0122939D02*
X0113267Y0122645D01*
X0113275Y0122639D01*
X0113412Y0122612D01*
X0113712D01*
X0113848Y0122639D01*
X0113856Y0122645D01*
X0113562Y0122939D01*
D02*
G37*
G36*
X0085037Y0122854D02*
X0084842Y0122815D01*
X0084676Y0122704D01*
X0084566Y0122539D01*
X0084527Y0122344D01*
X0084566Y0122149D01*
X0084676Y0121983D01*
X0084842Y0121873D01*
X0085037Y0121834D01*
X0085232Y0121873D01*
X0085397Y0121983D01*
X0085508Y0122149D01*
X0085547Y0122344D01*
X0085508Y0122539D01*
X0085397Y0122704D01*
X0085232Y0122815D01*
X0085037Y0122854D01*
D02*
G37*
G36*
X0091462Y0121129D02*
X0091267Y012109D01*
X0091101Y0120979D01*
X0091101Y0120979D01*
X0091099Y0120979D01*
X0091088Y0120977D01*
X0091074Y0120976D01*
X0088612D01*
X0088475Y0120949D01*
X0088359Y0120871D01*
X0087209Y0119721D01*
X0087132Y0119605D01*
X0087105Y0119469D01*
Y0118994D01*
X0086862D01*
Y0117744D01*
X0088062D01*
Y0118907D01*
X0088189Y0118975D01*
X0088192Y0118973D01*
X0088387Y0118934D01*
X0088582Y0118973D01*
X0088747Y0119083D01*
X0088858Y0119249D01*
X0088897Y0119444D01*
X0088858Y0119639D01*
X0088747Y0119804D01*
X0088588Y0119911D01*
X0088572Y0119926D01*
X0088544Y0120046D01*
X008876Y0120262D01*
X0091078D01*
X0091085Y0120261D01*
X0091099Y0120259D01*
X0091101Y0120258D01*
X0091101Y0120258D01*
X0091267Y0120148D01*
X0091462Y0120109D01*
X0091657Y0120148D01*
X0091822Y0120258D01*
X0091933Y0120424D01*
X0091972Y0120619D01*
X0091933Y0120814D01*
X0091822Y0120979D01*
X0091657Y012109D01*
X0091462Y0121129D01*
D02*
G37*
G36*
X0095262Y0120729D02*
X0095067Y012069D01*
X0094901Y0120579D01*
X0094791Y0120414D01*
X0094752Y0120219D01*
X0094791Y0120024D01*
X0094901Y0119858D01*
Y0119829D01*
X0094856Y0119786D01*
X0094747Y0119729D01*
X0094582Y011984D01*
X0094387Y0119879D01*
X0094192Y011984D01*
X0094026Y0119729D01*
X0093916Y0119564D01*
X0093877Y0119369D01*
X0093916Y0119174D01*
X0094026Y0119008D01*
X0094192Y0118898D01*
X0094387Y0118859D01*
X0094582Y0118898D01*
X0094747Y0119008D01*
X0094847Y0118934D01*
X009488Y0118904D01*
Y0116842D01*
X0094734Y0116696D01*
X0094657Y011658D01*
X009463Y0116444D01*
Y0114982D01*
X0094526Y0114912D01*
X0094503Y0114916D01*
X0094312Y0114954D01*
X0094305Y0114952D01*
X0094255Y0115072D01*
X0094272Y0115083D01*
X0094383Y0115249D01*
X0094422Y0115444D01*
X0094383Y0115639D01*
X0094272Y0115804D01*
X0094107Y0115915D01*
X0093912Y0115954D01*
X0093717Y0115915D01*
X0093551Y0115804D01*
X0093441Y0115639D01*
X0093402Y0115444D01*
X0093441Y0115249D01*
X0093551Y0115083D01*
X0093717Y0114973D01*
X0093912Y0114934D01*
X0093919Y0114935D01*
X0093969Y0114816D01*
X0093951Y0114804D01*
X0093841Y0114639D01*
X0093802Y0114444D01*
X0093817Y0114369D01*
X0093707Y011429D01*
X0093512Y0114329D01*
X0093317Y011429D01*
X0093151Y0114179D01*
X0093041Y0114014D01*
X0093002Y0113819D01*
X0093041Y0113624D01*
X0093151Y0113458D01*
X0093317Y0113348D01*
X0093512Y0113309D01*
X0093707Y0113348D01*
X0093872Y0113458D01*
X0093983Y0113624D01*
X0094022Y0113819D01*
X0094007Y0113894D01*
X0094117Y0113973D01*
X0094312Y0113934D01*
X0094503Y0113972D01*
X0094526Y0113975D01*
X009463Y0113905D01*
Y0113427D01*
X0094629Y0113421D01*
X0094627Y0113407D01*
X0094626Y0113404D01*
X0094626Y0113404D01*
X0094516Y0113239D01*
X0094477Y0113044D01*
X0094516Y0112849D01*
X0094626Y0112683D01*
X0094792Y0112573D01*
X0094987Y0112534D01*
X0095182Y0112573D01*
X0095347Y0112683D01*
X0095458Y0112849D01*
X0095497Y0113044D01*
X0095458Y0113239D01*
X0095347Y0113404D01*
X0095347Y0113404D01*
X0095347Y0113407D01*
X0095345Y0113418D01*
X0095344Y0113431D01*
Y0116296D01*
X0095489Y0116441D01*
X0095566Y0116557D01*
X0095594Y0116694D01*
Y0118985D01*
X0095594Y0118992D01*
X0095597Y0119006D01*
X0095597Y0119008D01*
X0095597Y0119008D01*
X0095708Y0119174D01*
X0095747Y0119369D01*
X0095708Y0119564D01*
X0095597Y0119729D01*
Y0119809D01*
X0095626Y0119863D01*
X0095733Y0120024D01*
X0095772Y0120219D01*
X0095733Y0120414D01*
X0095622Y0120579D01*
X0095457Y012069D01*
X0095262Y0120729D01*
D02*
G37*
G36*
X0085987Y0118926D02*
X0085537D01*
X00854Y0118898D01*
X0085392Y0118893D01*
X0085762Y0118523D01*
X0086131Y0118893D01*
X0086123Y0118898D01*
X0085987Y0118926D01*
D02*
G37*
G36*
X0085762Y0118494D02*
X0085687Y0118419D01*
X0085762Y0118344D01*
X0085837Y0118419D01*
X0085762Y0118494D01*
D02*
G37*
G36*
X0085213Y0118713D02*
X0085207Y0118705D01*
X008518Y0118569D01*
Y0118269D01*
X0085207Y0118132D01*
X0085213Y0118124D01*
X0085507Y0118419D01*
X0085213Y0118713D01*
D02*
G37*
G36*
X0086311Y0118713D02*
X0086016Y0118419D01*
X0086311Y0118124D01*
X0086316Y0118132D01*
X0086344Y0118269D01*
Y0118569D01*
X0086316Y0118705D01*
X0086311Y0118713D01*
D02*
G37*
G36*
X0085762Y0118314D02*
X0085392Y0117945D01*
X00854Y0117939D01*
X0085537Y0117912D01*
X0085987D01*
X0086123Y0117939D01*
X0086131Y0117945D01*
X0085762Y0118314D01*
D02*
G37*
G36*
X0093937Y0118679D02*
X0093742Y011864D01*
X0093576Y0118529D01*
X0093466Y0118364D01*
X0093427Y0118169D01*
X0093466Y0117974D01*
X0093576Y0117808D01*
X0093742Y0117698D01*
X0093937Y0117659D01*
X0094132Y0117698D01*
X0094297Y0117808D01*
X0094408Y0117974D01*
X0094447Y0118169D01*
X0094408Y0118364D01*
X0094297Y0118529D01*
X0094132Y011864D01*
X0093937Y0118679D01*
D02*
G37*
G36*
X0098137Y0117726D02*
X0097687D01*
X009755Y0117698D01*
X0097542Y0117693D01*
X0097912Y0117323D01*
X0098281Y0117693D01*
X0098273Y0117698D01*
X0098137Y0117726D01*
D02*
G37*
G36*
X0096737D02*
X0096287D01*
X009615Y0117698D01*
X0096142Y0117693D01*
X0096512Y0117323D01*
X0096881Y0117693D01*
X0096873Y0117698D01*
X0096737Y0117726D01*
D02*
G37*
G36*
X0088062Y0117544D02*
X0086862D01*
Y0117276D01*
X008627D01*
X0086239Y0117321D01*
X0086123Y0117398D01*
X0085987Y0117426D01*
X0085537D01*
X00854Y0117398D01*
X0085284Y0117321D01*
X0085254Y0117276D01*
X0084587D01*
X008445Y0117248D01*
X0084334Y0117171D01*
X0084109Y0116946D01*
X0084032Y011683D01*
X0084005Y0116694D01*
Y0115674D01*
X0083979Y0115636D01*
X0083956Y0115519D01*
Y0114969D01*
X0083979Y0114852D01*
X0084046Y0114753D01*
X0084145Y0114686D01*
X0084262Y0114663D01*
X0084462D01*
X0084579Y0114686D01*
X0084678Y0114753D01*
X0084744Y0114852D01*
X0084768Y0114969D01*
Y0115519D01*
X0084744Y0115636D01*
X0084719Y0115674D01*
Y0116546D01*
X0084735Y0116562D01*
X0085254D01*
X0085284Y0116516D01*
X00854Y0116439D01*
X0085537Y0116412D01*
X0085987D01*
X0086123Y0116439D01*
X0086239Y0116516D01*
X008627Y0116562D01*
X0086862D01*
Y0116294D01*
X0087105D01*
Y0115763D01*
X0086978Y0115695D01*
X0086973Y0115699D01*
X0086837Y0115726D01*
X0086537D01*
X00864Y0115699D01*
X0086284Y0115621D01*
X0086207Y0115505D01*
X008618Y0115369D01*
Y0114919D01*
X0086207Y0114782D01*
X0086284Y0114666D01*
X0086305Y0114653D01*
Y0114244D01*
X0086332Y0114107D01*
X0086409Y0113991D01*
X0086455Y0113946D01*
Y0113749D01*
X0086429Y0113711D01*
X0086427Y0113701D01*
X0085401D01*
X0085394Y0113736D01*
X0085328Y0113835D01*
X0085229Y0113901D01*
X0085112Y0113925D01*
X0084912D01*
X0084795Y0113901D01*
X0084696Y0113835D01*
X0084629Y0113736D01*
X0084606Y0113619D01*
Y0113069D01*
X0084629Y0112952D01*
X0084696Y0112853D01*
X0084755Y0112813D01*
X008477Y0112689D01*
X0084764Y0112666D01*
X0084734Y0112646D01*
X0084234Y0112146D01*
X0084196Y0112088D01*
X0084069Y0112127D01*
Y0112913D01*
X0084094Y0112952D01*
X0084118Y0113069D01*
Y0113619D01*
X0084094Y0113736D01*
X0084028Y0113835D01*
X0083929Y0113901D01*
X0083812Y0113925D01*
X0083612D01*
X0083495Y0113901D01*
X0083396Y0113835D01*
X0083329Y0113736D01*
X0083306Y0113619D01*
Y0113069D01*
X0083329Y0112952D01*
X0083355Y0112913D01*
Y0111864D01*
X0083282Y0111755D01*
X0083255Y0111619D01*
Y0111169D01*
X0083282Y0111032D01*
X0083355Y0110923D01*
Y0110194D01*
X0083382Y0110057D01*
X0083459Y0109941D01*
X0083655Y0109746D01*
Y0108349D01*
X0083629Y0108311D01*
X0083606Y0108194D01*
Y0107644D01*
X0083629Y0107527D01*
X0083696Y0107428D01*
X0083795Y0107361D01*
X0083912Y0107338D01*
X0084112D01*
X0084178Y0107351D01*
X0084305Y0107271D01*
Y0106667D01*
X0084178Y0106587D01*
X0084112Y01066D01*
X0083912D01*
X0083795Y0106576D01*
X0083696Y010651D01*
X0083644Y0106433D01*
X0083527Y0106415D01*
X0083504Y0106416D01*
X0083357Y0106515D01*
X0083162Y0106554D01*
X0082967Y0106515D01*
X0082801Y0106404D01*
X0082691Y0106239D01*
X0082652Y0106044D01*
X0082691Y0105849D01*
X0082801Y0105683D01*
X0082967Y0105573D01*
X0083162Y0105534D01*
X0083357Y0105573D01*
X0083493Y0105664D01*
X0083615Y0105634D01*
X0083629Y0105627D01*
X0083655Y0105588D01*
Y0104368D01*
X0083584Y0104321D01*
X0083507Y0104205D01*
X008348Y0104069D01*
Y0103619D01*
X0083507Y0103482D01*
X0083584Y0103366D01*
X00837Y0103289D01*
X0083837Y0103262D01*
X0084137D01*
X0084185Y0103272D01*
X0084331Y0103187D01*
X0084332Y0103182D01*
X0084409Y0103066D01*
X008458Y0102896D01*
X0084528Y0102769D01*
X0083437D01*
Y0102689D01*
X0083319Y0102641D01*
X0083264Y0102696D01*
X0083148Y0102773D01*
X0083012Y0102801D01*
X0082651D01*
X0082644Y0102836D01*
X0082578Y0102935D01*
X0082479Y0103001D01*
X0082362Y0103025D01*
X0082162D01*
X0082045Y0103001D01*
X0082039Y0102998D01*
X0081937Y010294D01*
X0081835Y0102998D01*
X0081829Y0103001D01*
X0081712Y0103025D01*
X0081512D01*
X0081395Y0103001D01*
X0081296Y0102935D01*
X0081278D01*
X0081179Y0103001D01*
X0081062Y0103025D01*
X0080862D01*
X0080745Y0103001D01*
X0080646Y0102935D01*
X0080579Y0102836D01*
X0080556Y0102719D01*
Y0102169D01*
X0080579Y0102052D01*
X0080646Y0101953D01*
X0080745Y0101886D01*
X0080862Y0101863D01*
X0081062D01*
X0081179Y0101886D01*
X0081278Y0101953D01*
X0081296D01*
X0081395Y0101886D01*
X0081512Y0101863D01*
X0081712D01*
X0081829Y0101886D01*
X0081835Y010189D01*
X0081937Y0101948D01*
X0082039Y010189D01*
X0082045Y0101886D01*
X0082088Y0101878D01*
X0082075Y0101751D01*
X0081812D01*
X0081675Y0101723D01*
X0081559Y0101646D01*
X0081359Y0101446D01*
X0081282Y010133D01*
X0081255Y0101194D01*
Y0101192D01*
X0081128Y0101112D01*
X0081062Y0101125D01*
X0080862D01*
X0080745Y0101101D01*
X0080646Y0101035D01*
X0080579Y0100936D01*
X0080556Y0100819D01*
Y0100269D01*
X0080579Y0100152D01*
X0080646Y0100053D01*
X0080745Y0099986D01*
X0080862Y0099963D01*
X0081062D01*
X0081128Y0099976D01*
X0081255Y0099896D01*
Y0099519D01*
X0081199Y0099482D01*
X008113Y0099378D01*
X0081106Y0099256D01*
Y0099031D01*
X008113Y0098909D01*
X0081199Y0098806D01*
X0081302Y0098737D01*
X0081424Y0098713D01*
X0081799D01*
X0081921Y0098737D01*
X0082025Y0098806D01*
X0082094Y0098909D01*
X0082118Y0099031D01*
Y0099256D01*
X0082094Y0099378D01*
X0082025Y0099482D01*
X0081969Y0099519D01*
Y0099896D01*
X0082096Y0099976D01*
X0082162Y0099963D01*
X0082362D01*
X0082479Y0099986D01*
X0082578Y0100053D01*
X0082589Y0100068D01*
X0082762Y0100034D01*
X0082957Y0100073D01*
X0083122Y0100183D01*
X0083233Y0100349D01*
X0083272Y0100544D01*
X0083233Y0100739D01*
X0083184Y0100813D01*
X008324Y0100957D01*
X0083263Y0100963D01*
X0083437Y0100789D01*
Y0100069D01*
X0084637D01*
Y0101319D01*
X0083917D01*
X0083844Y0101408D01*
X0083891Y0101519D01*
X0084637D01*
Y0101787D01*
X0085239D01*
X0085319Y010166D01*
X0085306Y0101594D01*
Y0101394D01*
X0085329Y0101277D01*
X0085333Y0101271D01*
X0085391Y0101169D01*
X0085333Y0101067D01*
X0085329Y0101061D01*
X0085306Y0100944D01*
Y0100744D01*
X0085329Y0100627D01*
X0085396Y0100528D01*
X0085495Y0100461D01*
X0085612Y0100438D01*
X0086162D01*
X0086279Y0100461D01*
X0086378Y0100528D01*
X0086444Y0100627D01*
X0086468Y0100744D01*
Y0100944D01*
X0086444Y0101061D01*
X0086441Y0101067D01*
X0086383Y0101169D01*
X0086441Y0101271D01*
X0086444Y0101277D01*
X0086468Y0101394D01*
Y0101594D01*
X0086444Y0101711D01*
X0086441Y0101717D01*
X0086383Y0101819D01*
X0086441Y0101921D01*
X0086444Y0101927D01*
X0086453Y010197D01*
X008658Y0101957D01*
Y0101694D01*
X0086607Y0101557D01*
X0086684Y0101441D01*
X0086884Y0101241D01*
X0087Y0101164D01*
X0087137Y0101137D01*
X0087139D01*
X0087219Y010101D01*
X0087206Y0100944D01*
Y0100744D01*
X0087229Y0100627D01*
X0087296Y0100528D01*
X0087395Y0100461D01*
X0087512Y0100438D01*
X0088062D01*
X0088179Y0100461D01*
X0088278Y0100528D01*
X0088344Y0100627D01*
X0088368Y0100744D01*
Y0100944D01*
X0088344Y0101061D01*
X0088341Y0101067D01*
X0088283Y0101169D01*
X0088341Y0101271D01*
X0088344Y0101277D01*
X0088368Y0101394D01*
Y0101594D01*
X0088344Y0101711D01*
X0088341Y0101717D01*
X0088283Y0101819D01*
X0088341Y0101921D01*
X0088344Y0101927D01*
X0088368Y0102044D01*
Y0102244D01*
X0088344Y0102361D01*
X0088278Y010246D01*
X0088244Y0102483D01*
Y0104087D01*
X0088954D01*
X0088984Y0104041D01*
X00891Y0103964D01*
X0089237Y0103937D01*
X0089687D01*
X0089823Y0103964D01*
X0089939Y0104041D01*
X0090016Y0104157D01*
X0090044Y0104294D01*
Y0104594D01*
X0090016Y010473D01*
X0089939Y0104846D01*
X0089823Y0104924D01*
X0089687Y0104951D01*
X0089237D01*
X00891Y0104924D01*
X0088984Y0104846D01*
X0088954Y0104801D01*
X0088244D01*
Y0105538D01*
X0088269Y0105577D01*
X0088293Y0105694D01*
Y0106244D01*
X0088269Y0106361D01*
X0088253Y0106385D01*
X0088321Y0106512D01*
X0089004D01*
X0089043Y0106385D01*
X0088984Y0106346D01*
X0088907Y010623D01*
X008888Y0106094D01*
Y0105794D01*
X0088907Y0105657D01*
X0088984Y0105541D01*
X00891Y0105464D01*
X0089237Y0105437D01*
X0089687D01*
X0089823Y0105464D01*
X0089881Y0105502D01*
X009002Y0105452D01*
X0090041Y0105349D01*
X0090151Y0105183D01*
X0090317Y0105073D01*
X0090512Y0105034D01*
X0090707Y0105073D01*
X0090785Y0105125D01*
X0090912Y0105057D01*
Y0104919D01*
X0092112D01*
Y0106169D01*
X009211D01*
X0092062Y0106286D01*
X0092989Y0107213D01*
X009364D01*
X0093697Y0107086D01*
X0093616Y0106964D01*
X0093585Y0106811D01*
X0093581Y0106807D01*
X0093472Y0106759D01*
X0093455Y0106757D01*
X0093332Y010684D01*
X0093137Y0106879D01*
X0092942Y010684D01*
X0092776Y0106729D01*
X0092666Y0106564D01*
X0092627Y0106369D01*
X0092642Y0106292D01*
X0092562Y0106194D01*
X0092537D01*
Y0104944D01*
X0093737D01*
Y0105107D01*
X0093864Y0105159D01*
X0094035Y0104988D01*
X0094023Y0104862D01*
X0094021Y010486D01*
X0093854Y0104694D01*
X0093737Y0104742D01*
Y0104744D01*
X0092537D01*
Y0104451D01*
X0092112D01*
Y0104719D01*
X0090912D01*
Y0103469D01*
X0091762D01*
X0091867Y0103342D01*
X0091852Y0103269D01*
X0091891Y0103074D01*
X0092001Y0102908D01*
X0092167Y0102798D01*
X0092362Y0102759D01*
X0092557Y0102798D01*
X0092722Y0102908D01*
X0092833Y0103074D01*
X0092872Y0103269D01*
X0092852Y0103367D01*
X0092954Y0103494D01*
X0093737D01*
Y0103818D01*
X0093829Y0103836D01*
X0093928Y0103903D01*
X009426Y0104234D01*
X0094387Y0104182D01*
Y0103944D01*
X0095187D01*
Y0103544D01*
X0095328D01*
X0095406Y0103417D01*
X0095377Y0103269D01*
X0095416Y0103074D01*
X0095526Y0102908D01*
X0095692Y0102798D01*
X0095887Y0102759D01*
X0096082Y0102798D01*
X0096247Y0102908D01*
X0096358Y0103074D01*
X0096397Y0103269D01*
X0096367Y0103417D01*
X0096446Y0103544D01*
X0096987D01*
Y0103944D01*
X0097787D01*
X0097881Y0103864D01*
Y0103495D01*
X0097366Y0102981D01*
X0096693D01*
X0096693Y0102981D01*
X0096576Y0102957D01*
X0096476Y0102891D01*
X0095971Y0102385D01*
X0095904Y0102286D01*
X0095881Y0102169D01*
X0095881Y0102169D01*
Y010109D01*
X0095754Y0101033D01*
X0095632Y0101115D01*
X0095437Y0101154D01*
X0095361Y0101139D01*
X0095328Y0101154D01*
X0095243Y0101244D01*
Y0101394D01*
X0095219Y0101511D01*
X0095216Y0101517D01*
X0095158Y0101619D01*
X0095216Y0101721D01*
X0095219Y0101727D01*
X0095243Y0101844D01*
Y0102044D01*
X0095219Y0102161D01*
X0095153Y010226D01*
X0095129Y0102276D01*
Y0102429D01*
X0095172Y0102458D01*
X0095283Y0102624D01*
X0095322Y0102819D01*
X0095283Y0103014D01*
X0095172Y0103179D01*
X0095007Y010329D01*
X0094812Y0103329D01*
X0094617Y010329D01*
X0094451Y0103179D01*
X0094341Y0103014D01*
X0094302Y0102819D01*
X0094303Y0102815D01*
X0094284Y0102796D01*
X0094207Y010268D01*
X009418Y0102544D01*
Y010235D01*
X0094137D01*
X009402Y0102326D01*
X0093921Y010226D01*
X0093854Y0102161D01*
X0093831Y0102044D01*
Y0101844D01*
X0093854Y0101727D01*
X0093858Y0101721D01*
X0093916Y0101619D01*
X0093858Y0101517D01*
X0093854Y0101511D01*
X0093831Y0101394D01*
Y0101194D01*
X0093844Y0101128D01*
X0093764Y0101001D01*
X0093292D01*
X0093291Y0101005D01*
X0093214Y0101121D01*
X0093098Y0101199D01*
X0092962Y0101226D01*
X0092662D01*
X0092525Y0101199D01*
X0092409Y0101121D01*
X0092332Y0101005D01*
X0092305Y0100869D01*
Y0100419D01*
X0092332Y0100282D01*
X0092409Y0100166D01*
X0092525Y0100089D01*
X0092662Y0100062D01*
X0092962D01*
X0093098Y0100089D01*
X0093214Y0100166D01*
X0093291Y0100282D01*
X0093292Y0100287D01*
X0093764D01*
X0093844Y010016D01*
X0093831Y0100094D01*
Y0099894D01*
X0093854Y0099777D01*
X0093921Y0099678D01*
X009402Y0099611D01*
X0094137Y0099588D01*
X0094923D01*
X009495Y0099551D01*
X0094977Y0099466D01*
X0094796Y0099285D01*
X0094729Y0099186D01*
X0094706Y0099069D01*
X0094706Y0099069D01*
Y0099065D01*
X0094579Y0099008D01*
X0094457Y009909D01*
X0094262Y0099129D01*
X0094067Y009909D01*
X0093901Y0098979D01*
X0093791Y0098814D01*
X0093752Y0098619D01*
X0093791Y0098424D01*
X0093901Y0098258D01*
X0094067Y0098148D01*
X0094262Y0098109D01*
X0094382Y0098133D01*
X0094462Y009814D01*
X0094525Y0098042D01*
X0094532Y0098007D01*
X0094609Y0097891D01*
X0094725Y0097814D01*
X0094862Y0097787D01*
X0095162D01*
X0095298Y0097814D01*
X0095414Y0097891D01*
X0095491Y0098007D01*
X0095519Y0098144D01*
Y0098594D01*
X0095491Y009873D01*
X0095421Y0098836D01*
X0095433Y0098887D01*
X0095468Y0098963D01*
X0095612D01*
X0095612Y0098963D01*
X0095729Y0098986D01*
X0095828Y0099053D01*
X0096405Y009963D01*
X0096521Y0099678D01*
X009662Y0099611D01*
X0096737Y0099588D01*
X0097537D01*
X0097654Y0099611D01*
X0097692Y0099637D01*
X0108014D01*
X0110595Y0097055D01*
X0110614Y0097028D01*
X0110634Y009699D01*
X0110652Y0096945D01*
X0110669Y0096892D01*
X0110683Y009683D01*
X0110694Y0096763D01*
X0110707Y0096594D01*
X0110708Y0096525D01*
X0110704Y0096494D01*
X0110736Y0096246D01*
X0110832Y0096015D01*
X0110984Y0095816D01*
X0111183Y0095664D01*
X0111414Y0095568D01*
X0111662Y0095536D01*
X011191Y0095568D01*
X0112141Y0095664D01*
X0112339Y0095816D01*
X0112492Y0096015D01*
X0112587Y0096246D01*
X011262Y0096494D01*
X0112587Y0096742D01*
X0112492Y0096973D01*
X0112339Y0097171D01*
X0112141Y0097324D01*
X011191Y0097419D01*
X0111662Y0097452D01*
X0111634Y0097448D01*
X0111471Y0097453D01*
X0111395Y0097461D01*
X0111325Y0097473D01*
X0111264Y0097487D01*
X011121Y0097503D01*
X0111165Y0097522D01*
X0111128Y0097541D01*
X01111Y009756D01*
X0108414Y0100246D01*
X0108298Y0100324D01*
X0108162Y0100351D01*
X0098878D01*
X0098825Y0100478D01*
X0099505Y0101158D01*
X0099576Y0101135D01*
X009963Y0101103D01*
X0099666Y0100924D01*
X0099776Y0100758D01*
X0099942Y0100648D01*
X0100137Y0100609D01*
X0100332Y0100648D01*
X0100497Y0100758D01*
X0100608Y0100924D01*
X0100647Y0101119D01*
X0100608Y0101314D01*
X0100497Y0101479D01*
X0100332Y010159D01*
X0100153Y0101625D01*
X0100121Y0101679D01*
X0100098Y010175D01*
X0100214Y0101866D01*
X0100291Y0101982D01*
X0100319Y0102119D01*
Y0102985D01*
X0100319Y0102992D01*
X0100322Y0103006D01*
X0100322Y0103008D01*
X0100322Y0103008D01*
X0100322Y0103008D01*
X0100325Y0103009D01*
X0100336Y0103011D01*
X0100349Y0103012D01*
X0102062D01*
X0102198Y0103039D01*
X0102314Y0103116D01*
X0102589Y0103391D01*
X0102666Y0103507D01*
X0102694Y0103644D01*
Y0103963D01*
X0102698Y0103964D01*
X0102814Y0104041D01*
X0102891Y0104157D01*
X0102919Y0104294D01*
Y0104594D01*
X0102891Y010473D01*
X0102814Y0104846D01*
X0102698Y0104924D01*
X0102562Y0104951D01*
X0102112D01*
X0101975Y0104924D01*
X0101859Y0104846D01*
X0101782Y010473D01*
X0101755Y0104594D01*
Y0104294D01*
X0101782Y0104157D01*
X0101859Y0104041D01*
X0101975Y0103964D01*
X010198Y0103963D01*
Y0103792D01*
X0101914Y0103726D01*
X0100431D01*
X0100419Y0103742D01*
X0100481Y0103869D01*
X0101337D01*
Y0105119D01*
X0100137D01*
Y0104801D01*
X0099687D01*
Y0105069D01*
X0098914D01*
X0098847Y0105153D01*
X0098898Y0105269D01*
X0099687D01*
Y0106519D01*
X0099393D01*
Y0112267D01*
X0101367Y0114241D01*
X0101375Y0114246D01*
X0101383Y0114251D01*
X0101392Y0114255D01*
X0101402Y0114258D01*
X0101413Y0114261D01*
X0101426Y0114263D01*
X0101436Y0114264D01*
X0101462Y0114259D01*
X0101657Y0114298D01*
X0101822Y0114408D01*
X0101933Y0114574D01*
X0101972Y0114769D01*
X0101935Y0114954D01*
X0102032Y0114973D01*
X0102197Y0115083D01*
X0102308Y0115249D01*
X0102347Y0115444D01*
X0102308Y0115639D01*
X0102197Y0115804D01*
X0102032Y0115915D01*
X0101837Y0115954D01*
X0101642Y0115915D01*
X0101476Y0115804D01*
X0101366Y0115639D01*
X0101327Y0115444D01*
X0101364Y0115259D01*
X0101267Y011524D01*
X0101101Y0115129D01*
X0100991Y0114964D01*
X0100952Y0114769D01*
X0100957Y0114743D01*
X0100956Y0114733D01*
X0100954Y011472D01*
X0100951Y0114709D01*
X0100948Y0114699D01*
X0100944Y011469D01*
X0100939Y0114682D01*
X0100934Y0114674D01*
X0098871Y011261D01*
X0098804Y0112511D01*
X0098781Y0112394D01*
X0098781Y0112394D01*
Y0106519D01*
X0098487D01*
Y01062D01*
X0097642D01*
X0097619Y0106311D01*
X0097553Y010641D01*
X0096228Y0107735D01*
X0096129Y0107801D01*
X0096012Y0107825D01*
X0096012Y0107825D01*
X0095514D01*
X0095446Y0107952D01*
X0095466Y0107982D01*
X0095494Y0108119D01*
Y0108419D01*
X0095466Y0108555D01*
X0095461Y0108563D01*
X0095077Y0108179D01*
X0094912Y0108344D01*
X0094747Y0108179D01*
X0094363Y0108563D01*
X0094357Y0108555D01*
X009433Y0108419D01*
Y0108119D01*
X0094357Y0107982D01*
X0094378Y0107952D01*
X009431Y0107825D01*
X0092862D01*
X0092862Y0107825D01*
X0092745Y0107801D01*
X0092646Y0107735D01*
X0091296Y0106385D01*
X0091229Y0106286D01*
X0091206Y0106169D01*
X0091206Y0106169D01*
X0090912D01*
Y0106031D01*
X0090785Y0105963D01*
X0090707Y0106015D01*
X0090512Y0106054D01*
X0090317Y0106015D01*
X0090171Y0105917D01*
X0090096Y0105939D01*
X0090044Y0105972D01*
Y0106094D01*
X0090016Y010623D01*
X0089939Y0106346D01*
X0089823Y0106424D01*
X0089819Y0106424D01*
Y0107866D01*
X0089946Y0107904D01*
X0090026Y0107783D01*
X0090192Y0107673D01*
X0090387Y0107634D01*
X0090582Y0107673D01*
X0090747Y0107783D01*
X0090858Y0107949D01*
X0090897Y0108144D01*
X0090858Y0108339D01*
X0090747Y0108504D01*
X0090582Y0108615D01*
X0090387Y0108654D01*
X0090192Y0108615D01*
X0090026Y0108504D01*
X0089946Y0108384D01*
X0089819Y0108422D01*
Y0109919D01*
X0089791Y0110055D01*
X0089738Y0110135D01*
X0089785Y0110251D01*
X0089795Y0110262D01*
X0090137D01*
X0090273Y0110289D01*
X0090389Y0110366D01*
X0090466Y0110482D01*
X0090494Y0110619D01*
Y0110621D01*
X0090621Y0110701D01*
X0090687Y0110688D01*
X0090887D01*
X0090992Y0110709D01*
X0090697Y0111004D01*
X0090877Y0111184D01*
X0091172Y0110888D01*
X0091193Y0110994D01*
Y0111544D01*
X0091172Y0111649D01*
X0090877Y0111354D01*
X0090697Y0111534D01*
X0090992Y0111829D01*
X0090887Y011185D01*
X0090687D01*
X0090621Y0111837D01*
X0090494Y0111917D01*
Y0112521D01*
X0090621Y0112601D01*
X0090687Y0112588D01*
X0090887D01*
X0091004Y0112611D01*
X0091103Y0112678D01*
X0091169Y0112777D01*
X0091193Y0112894D01*
Y0113444D01*
X0091169Y0113561D01*
X0091144Y0113599D01*
Y0114294D01*
X0091117Y011443D01*
X0091039Y0114546D01*
X0090189Y0115396D01*
X0090073Y0115474D01*
X0089937Y0115501D01*
X0088667D01*
X0088666Y0115505D01*
X0088589Y0115621D01*
X0088473Y0115699D01*
X0088337Y0115726D01*
X0088037D01*
X0087946Y0115708D01*
X0087819Y0115785D01*
Y0116294D01*
X0088062D01*
Y0117544D01*
D02*
G37*
G36*
X0097912Y0117294D02*
X0097837Y0117219D01*
X0097912Y0117144D01*
X0097987Y0117219D01*
X0097912Y0117294D01*
D02*
G37*
G36*
X0096512D02*
X0096437Y0117219D01*
X0096512Y0117144D01*
X0096587Y0117219D01*
X0096512Y0117294D01*
D02*
G37*
G36*
X0098461Y0117513D02*
X0098166Y0117219D01*
X0098461Y0116924D01*
X0098466Y0116932D01*
X0098494Y0117069D01*
Y0117369D01*
X0098466Y0117505D01*
X0098461Y0117513D01*
D02*
G37*
G36*
X0097061D02*
X0096766Y0117219D01*
X0097061Y0116924D01*
X0097066Y0116932D01*
X0097094Y0117069D01*
Y0117369D01*
X0097066Y0117505D01*
X0097061Y0117513D01*
D02*
G37*
G36*
X0097363Y0117513D02*
X0097357Y0117505D01*
X009733Y0117369D01*
Y0117069D01*
X0097357Y0116932D01*
X0097363Y0116924D01*
X0097657Y0117219D01*
X0097363Y0117513D01*
D02*
G37*
G36*
X0095963D02*
X0095957Y0117505D01*
X009593Y0117369D01*
Y0117069D01*
X0095957Y0116932D01*
X0095963Y0116924D01*
X0096257Y0117219D01*
X0095963Y0117513D01*
D02*
G37*
G36*
X0097912Y0117114D02*
X0097542Y0116745D01*
X009755Y0116739D01*
X0097687Y0116712D01*
X0098137D01*
X0098273Y0116739D01*
X0098281Y0116745D01*
X0097912Y0117114D01*
D02*
G37*
G36*
X0096512D02*
X0096142Y0116745D01*
X009615Y0116739D01*
X0096287Y0116712D01*
X0096737D01*
X0096873Y0116739D01*
X0096881Y0116745D01*
X0096512Y0117114D01*
D02*
G37*
G36*
X0104362Y0117529D02*
X0104167Y011749D01*
X0104001Y0117379D01*
X0103891Y0117214D01*
X0103852Y0117019D01*
X0103891Y0116824D01*
X0104001Y0116658D01*
X0104167Y0116548D01*
X0104362Y0116509D01*
X0104557Y0116548D01*
X0104722Y0116658D01*
X0104833Y0116824D01*
X0104872Y0117019D01*
X0104833Y0117214D01*
X0104722Y0117379D01*
X0104557Y011749D01*
X0104362Y0117529D01*
D02*
G37*
G36*
X0078762Y0118377D02*
X0078514Y0118344D01*
X0078283Y0118249D01*
X0078084Y0118096D01*
X0077932Y0117898D01*
X0077836Y0117667D01*
X0077804Y0117419D01*
X0077836Y0117171D01*
X0077932Y011694D01*
X0078084Y0116741D01*
X0078283Y0116589D01*
X0078514Y0116493D01*
X0078762Y0116461D01*
X007901Y0116493D01*
X0079241Y0116589D01*
X0079439Y0116741D01*
X0079592Y011694D01*
X0079687Y0117171D01*
X007972Y0117419D01*
X0079687Y0117667D01*
X0079592Y0117898D01*
X0079439Y0118096D01*
X0079241Y0118249D01*
X007901Y0118344D01*
X0078762Y0118377D01*
D02*
G37*
G36*
X0093712Y0117404D02*
X0093517Y0117365D01*
X0093351Y0117254D01*
X0093241Y0117089D01*
X0093202Y0116894D01*
X0093241Y0116699D01*
X0093351Y0116533D01*
X0093517Y0116423D01*
X0093712Y0116384D01*
X0093907Y0116423D01*
X0094072Y0116533D01*
X0094183Y0116699D01*
X0094222Y0116894D01*
X0094183Y0117089D01*
X0094072Y0117254D01*
X0093907Y0117365D01*
X0093712Y0117404D01*
D02*
G37*
G36*
X0103787Y0115804D02*
X0103592Y0115765D01*
X0103426Y0115654D01*
X0103316Y0115489D01*
X0103277Y0115294D01*
X0103316Y0115099D01*
X0103426Y0114933D01*
X0103592Y0114823D01*
X0103787Y0114784D01*
X0103982Y0114823D01*
X0104147Y0114933D01*
X0104258Y0115099D01*
X0104297Y0115294D01*
X0104258Y0115489D01*
X0104147Y0115654D01*
X0103982Y0115765D01*
X0103787Y0115804D01*
D02*
G37*
G36*
X0092187Y0115304D02*
X0091992Y0115265D01*
X0091826Y0115154D01*
X0091716Y0114989D01*
X0091677Y0114794D01*
X0091716Y0114599D01*
X0091826Y0114433D01*
X0091992Y0114323D01*
X0092187Y0114284D01*
X0092382Y0114323D01*
X0092547Y0114433D01*
X0092658Y0114599D01*
X0092697Y0114794D01*
X0092658Y0114989D01*
X0092547Y0115154D01*
X0092382Y0115265D01*
X0092187Y0115304D01*
D02*
G37*
G36*
X0099562Y0115129D02*
X0099367Y011509D01*
X0099201Y0114979D01*
X0099091Y0114814D01*
X0099052Y0114619D01*
X0099091Y0114424D01*
X0099201Y0114258D01*
X0099367Y0114148D01*
X0099562Y0114109D01*
X0099757Y0114148D01*
X0099922Y0114258D01*
X0100033Y0114424D01*
X0100072Y0114619D01*
X0100033Y0114814D01*
X0099922Y0114979D01*
X0099757Y011509D01*
X0099562Y0115129D01*
D02*
G37*
G36*
X0103737Y0114629D02*
X0103542Y011459D01*
X0103376Y0114479D01*
X0103266Y0114314D01*
X0103227Y0114119D01*
X0103266Y0113924D01*
X0103376Y0113758D01*
X0103542Y0113648D01*
X0103737Y0113609D01*
X0103932Y0113648D01*
X0104097Y0113758D01*
X0104208Y0113924D01*
X0104247Y0114119D01*
X0104208Y0114314D01*
X0104097Y0114479D01*
X0103932Y011459D01*
X0103737Y0114629D01*
D02*
G37*
G36*
X0102837Y0113879D02*
X0102642Y011384D01*
X0102476Y0113729D01*
X0102366Y0113564D01*
X0102327Y0113369D01*
X0102366Y0113174D01*
X0102476Y0113008D01*
X0102642Y0112898D01*
X0102837Y0112859D01*
X0103032Y0112898D01*
X0103197Y0113008D01*
X0103308Y0113174D01*
X0103347Y0113369D01*
X0103308Y0113564D01*
X0103197Y0113729D01*
X0103032Y011384D01*
X0102837Y0113879D01*
D02*
G37*
G36*
X0115162Y0114602D02*
X0114914Y0114569D01*
X0114683Y0114474D01*
X0114484Y0114321D01*
X0114332Y0114123D01*
X0114236Y0113892D01*
X0114204Y0113644D01*
X0114236Y0113396D01*
X0114332Y0113165D01*
X0114484Y0112966D01*
X0114683Y0112814D01*
X0114914Y0112718D01*
X0115162Y0112686D01*
X011541Y0112718D01*
X0115641Y0112814D01*
X0115839Y0112966D01*
X0115992Y0113165D01*
X0116087Y0113396D01*
X011612Y0113644D01*
X0116087Y0113892D01*
X0115992Y0114123D01*
X0115839Y0114321D01*
X0115641Y0114474D01*
X011541Y0114569D01*
X0115162Y0114602D01*
D02*
G37*
G36*
X0092162Y0113504D02*
X0091967Y0113465D01*
X0091801Y0113354D01*
X0091691Y0113189D01*
X0091652Y0112994D01*
X0091691Y0112799D01*
X0091801Y0112633D01*
X0091967Y0112523D01*
X0092162Y0112484D01*
X0092357Y0112523D01*
X0092522Y0112633D01*
X0092633Y0112799D01*
X0092672Y0112994D01*
X0092633Y0113189D01*
X0092522Y0113354D01*
X0092357Y0113465D01*
X0092162Y0113504D01*
D02*
G37*
G36*
X0078687Y0114377D02*
X0078439Y0114344D01*
X0078208Y0114249D01*
X0078009Y0114096D01*
X0077857Y0113898D01*
X0077761Y0113667D01*
X0077729Y0113419D01*
X0077761Y0113171D01*
X0077857Y011294D01*
X0078009Y0112741D01*
X0078208Y0112589D01*
X0078439Y0112493D01*
X0078687Y0112461D01*
X0078935Y0112493D01*
X0079166Y0112589D01*
X0079364Y0112741D01*
X0079517Y011294D01*
X0079612Y0113171D01*
X0079645Y0113419D01*
X0079612Y0113667D01*
X0079517Y0113898D01*
X0079364Y0114096D01*
X0079166Y0114249D01*
X0078935Y0114344D01*
X0078687Y0114377D01*
D02*
G37*
G36*
X0097812Y0111679D02*
X0097617Y011164D01*
X0097451Y0111529D01*
X0097341Y0111364D01*
X0097302Y0111169D01*
X0097341Y0110974D01*
X0097451Y0110808D01*
X0097617Y0110698D01*
X0097812Y0110659D01*
X0098007Y0110698D01*
X0098172Y0110808D01*
X0098283Y0110974D01*
X0098322Y0111169D01*
X0098283Y0111364D01*
X0098172Y0111529D01*
X0098007Y011164D01*
X0097812Y0111679D01*
D02*
G37*
G36*
X0096362D02*
X0096167Y011164D01*
X0096001Y0111529D01*
X0095891Y0111364D01*
X0095852Y0111169D01*
X0095891Y0110974D01*
X0096001Y0110808D01*
X0096167Y0110698D01*
X0096362Y0110659D01*
X0096557Y0110698D01*
X0096722Y0110808D01*
X0096833Y0110974D01*
X0096872Y0111169D01*
X0096833Y0111364D01*
X0096722Y0111529D01*
X0096557Y011164D01*
X0096362Y0111679D01*
D02*
G37*
G36*
X0111482Y0110994D02*
X0110591D01*
X0111037Y0110548D01*
X0111482Y0110994D01*
D02*
G37*
G36*
X0111037Y0110419D02*
X0111012Y0110394D01*
X0111037Y0110369D01*
X0111062Y0110394D01*
X0111037Y0110419D01*
D02*
G37*
G36*
X0111662Y0110814D02*
X0111241Y0110394D01*
X0111662Y0109973D01*
Y0110814D01*
D02*
G37*
G36*
X0110412Y0110814D02*
Y0109973D01*
X0110832Y0110394D01*
X0110412Y0110814D01*
D02*
G37*
G36*
X0111037Y0110239D02*
X0110591Y0109794D01*
X0111482D01*
X0111037Y0110239D01*
D02*
G37*
G36*
X0115162Y0111077D02*
X0114914Y0111044D01*
X0114683Y0110949D01*
X0114484Y0110796D01*
X0114332Y0110598D01*
X0114236Y0110367D01*
X0114204Y0110119D01*
X0114236Y0109871D01*
X0114332Y010964D01*
X0114484Y0109441D01*
X0114683Y0109289D01*
X0114914Y0109193D01*
X0115162Y0109161D01*
X011541Y0109193D01*
X0115641Y0109289D01*
X0115839Y0109441D01*
X0115992Y010964D01*
X0116087Y0109871D01*
X011612Y0110119D01*
X0116087Y0110367D01*
X0115992Y0110598D01*
X0115839Y0110796D01*
X0115641Y0110949D01*
X011541Y0111044D01*
X0115162Y0111077D01*
D02*
G37*
G36*
X0078762Y0110852D02*
X0078514Y0110819D01*
X0078283Y0110724D01*
X0078084Y0110571D01*
X0077932Y0110373D01*
X0077836Y0110142D01*
X0077804Y0109894D01*
X0077836Y0109646D01*
X0077932Y0109415D01*
X0078084Y0109216D01*
X0078283Y0109064D01*
X0078514Y0108968D01*
X0078762Y0108936D01*
X007901Y0108968D01*
X0079241Y0109064D01*
X0079439Y0109216D01*
X0079592Y0109415D01*
X0079687Y0109646D01*
X007972Y0109894D01*
X0079687Y0110142D01*
X0079592Y0110373D01*
X0079439Y0110571D01*
X0079241Y0110724D01*
X007901Y0110819D01*
X0078762Y0110852D01*
D02*
G37*
G36*
X0097837Y0109954D02*
X0097642Y0109915D01*
X0097476Y0109804D01*
X0097366Y0109639D01*
X0097327Y0109444D01*
X0097366Y0109249D01*
X0097476Y0109083D01*
X0097642Y0108973D01*
X0097837Y0108934D01*
X0098032Y0108973D01*
X0098197Y0109083D01*
X0098308Y0109249D01*
X0098347Y0109444D01*
X0098308Y0109639D01*
X0098197Y0109804D01*
X0098032Y0109915D01*
X0097837Y0109954D01*
D02*
G37*
G36*
X0096412Y0109904D02*
X0096217Y0109865D01*
X0096051Y0109754D01*
X0095941Y0109589D01*
X0095902Y0109394D01*
X0095941Y0109199D01*
X0096051Y0109033D01*
X0096217Y0108923D01*
X0096412Y0108884D01*
X0096607Y0108923D01*
X0096772Y0109033D01*
X0096883Y0109199D01*
X0096922Y0109394D01*
X0096883Y0109589D01*
X0096772Y0109754D01*
X0096607Y0109865D01*
X0096412Y0109904D01*
D02*
G37*
G36*
X0095137Y0108776D02*
X0094687D01*
X009455Y0108748D01*
X0094542Y0108743D01*
X0094912Y0108373D01*
X0095281Y0108743D01*
X0095273Y0108748D01*
X0095137Y0108776D01*
D02*
G37*
G36*
X0097262Y0108679D02*
X0097067Y010864D01*
X0096901Y0108529D01*
X0096791Y0108364D01*
X0096752Y0108169D01*
X0096791Y0107974D01*
X0096901Y0107808D01*
X0097067Y0107698D01*
X0097262Y0107659D01*
X0097457Y0107698D01*
X0097622Y0107808D01*
X0097733Y0107974D01*
X0097772Y0108169D01*
X0097733Y0108364D01*
X0097622Y0108529D01*
X0097457Y010864D01*
X0097262Y0108679D01*
D02*
G37*
G36*
X0101887Y0108154D02*
X0101692Y0108115D01*
X0101526Y0108004D01*
X0101416Y0107839D01*
X0101377Y0107644D01*
X0101416Y0107449D01*
X0101526Y0107283D01*
X0101692Y0107173D01*
X0101887Y0107134D01*
X0102082Y0107173D01*
X0102247Y0107283D01*
X0102358Y0107449D01*
X0102397Y0107644D01*
X0102358Y0107839D01*
X0102247Y0108004D01*
X0102082Y0108115D01*
X0101887Y0108154D01*
D02*
G37*
G36*
X0103737Y0106979D02*
X0103542Y010694D01*
X0103376Y0106829D01*
X0103266Y0106664D01*
X0103227Y0106469D01*
X0103266Y0106274D01*
X0103376Y0106108D01*
X0103542Y0105998D01*
X0103737Y0105959D01*
X0103932Y0105998D01*
X0104097Y0106108D01*
X0104208Y0106274D01*
X0104247Y0106469D01*
X0104208Y0106664D01*
X0104097Y0106829D01*
X0103932Y010694D01*
X0103737Y0106979D01*
D02*
G37*
G36*
X0078762Y0107502D02*
X0078514Y0107469D01*
X0078283Y0107374D01*
X0078084Y0107221D01*
X0077932Y0107023D01*
X0077836Y0106792D01*
X0077804Y0106544D01*
X0077836Y0106296D01*
X0077932Y0106065D01*
X0078084Y0105866D01*
X0078283Y0105714D01*
X0078514Y0105618D01*
X0078762Y0105586D01*
X007901Y0105618D01*
X0079241Y0105714D01*
X0079439Y0105866D01*
X0079592Y0106065D01*
X0079687Y0106296D01*
X007972Y0106544D01*
X0079687Y0106792D01*
X0079592Y0107023D01*
X0079439Y0107221D01*
X0079241Y0107374D01*
X007901Y0107469D01*
X0078762Y0107502D01*
D02*
G37*
G36*
X0101337Y0106569D02*
X0100137D01*
Y0105319D01*
X0101337D01*
Y0105587D01*
X0101829D01*
X0101859Y0105541D01*
X0101975Y0105464D01*
X0102112Y0105437D01*
X0102562D01*
X0102698Y0105464D01*
X0102814Y0105541D01*
X0102891Y0105657D01*
X0102919Y0105794D01*
Y0106094D01*
X0102891Y010623D01*
X0102814Y0106346D01*
X0102698Y0106424D01*
X0102562Y0106451D01*
X0102112D01*
X0101975Y0106424D01*
X0101859Y0106346D01*
X0101829Y0106301D01*
X0101337D01*
Y0106569D01*
D02*
G37*
G36*
X0078762Y0104552D02*
X0078514Y0104519D01*
X0078283Y0104424D01*
X0078084Y0104271D01*
X0077932Y0104073D01*
X0077836Y0103842D01*
X0077804Y0103594D01*
X0077836Y0103346D01*
X0077932Y0103115D01*
X0078084Y0102916D01*
X0078283Y0102764D01*
X0078514Y0102668D01*
X0078762Y0102636D01*
X007901Y0102668D01*
X0079241Y0102764D01*
X0079439Y0102916D01*
X0079592Y0103115D01*
X0079687Y0103346D01*
X007972Y0103594D01*
X0079687Y0103842D01*
X0079592Y0104073D01*
X0079439Y0104271D01*
X0079241Y0104424D01*
X007901Y0104519D01*
X0078762Y0104552D01*
D02*
G37*
G36*
X0105212Y0102829D02*
X0105017Y010279D01*
X0104851Y0102679D01*
X0104741Y0102514D01*
X0104702Y0102319D01*
X0104741Y0102124D01*
X0104851Y0101958D01*
X0105017Y0101848D01*
X0105212Y0101809D01*
X0105407Y0101848D01*
X0105572Y0101958D01*
X0105683Y0102124D01*
X0105722Y0102319D01*
X0105683Y0102514D01*
X0105572Y0102679D01*
X0105407Y010279D01*
X0105212Y0102829D01*
D02*
G37*
G36*
X0090387Y0102354D02*
X0090192Y0102315D01*
X0090026Y0102204D01*
X0089916Y0102039D01*
X0089877Y0101844D01*
X0089916Y0101649D01*
X0090026Y0101483D01*
X0090192Y0101373D01*
X0090387Y0101334D01*
X0090582Y0101373D01*
X0090747Y0101483D01*
X0090858Y0101649D01*
X0090897Y0101844D01*
X0090858Y0102039D01*
X0090747Y0102204D01*
X0090582Y0102315D01*
X0090387Y0102354D01*
D02*
G37*
G36*
X0091462Y0101226D02*
X0091162D01*
X0091025Y0101199D01*
X0091017Y0101193D01*
X0091312Y0100898D01*
X0091606Y0101193D01*
X0091598Y0101199D01*
X0091462Y0101226D01*
D02*
G37*
G36*
X0091312Y0100719D02*
X0091237Y0100644D01*
X0091312Y0100569D01*
X0091387Y0100644D01*
X0091312Y0100719D01*
D02*
G37*
G36*
X0091786Y0101013D02*
X0091416Y0100644D01*
X0091786Y0100274D01*
X0091791Y0100282D01*
X0091819Y0100419D01*
Y0100869D01*
X0091791Y0101005D01*
X0091786Y0101013D01*
D02*
G37*
G36*
X0090838Y0101013D02*
X0090832Y0101005D01*
X0090805Y0100869D01*
Y0100419D01*
X0090832Y0100282D01*
X0090838Y0100274D01*
X0091207Y0100644D01*
X0090838Y0101013D01*
D02*
G37*
G36*
X0091312Y0100389D02*
X0091017Y0100095D01*
X0091025Y0100089D01*
X0091162Y0100062D01*
X0091462D01*
X0091598Y0100089D01*
X0091606Y0100095D01*
X0091312Y0100389D01*
D02*
G37*
G36*
X0083074Y0099575D02*
X0082699D01*
X0082583Y0099552D01*
X0082887Y0099248D01*
X008319Y0099552D01*
X0083074Y0099575D01*
D02*
G37*
G36*
X0082887Y0099219D02*
X0082812Y0099144D01*
X0082887Y0099069D01*
X0082962Y0099144D01*
X0082887Y0099219D01*
D02*
G37*
G36*
X008337Y0099372D02*
X0083141Y0099144D01*
X008337Y0098915D01*
X0083393Y0099031D01*
Y0099256D01*
X008337Y0099372D01*
D02*
G37*
G36*
X0082404Y0099372D02*
X0082381Y0099256D01*
Y0099031D01*
X0082404Y0098915D01*
X0082632Y0099144D01*
X0082404Y0099372D01*
D02*
G37*
G36*
X0082887Y0099039D02*
X0082583Y0098736D01*
X0082699Y0098713D01*
X0083074D01*
X008319Y0098736D01*
X0082887Y0099039D01*
D02*
G37*
G36*
X0100087Y0098504D02*
X0099892Y0098465D01*
X0099726Y0098354D01*
X0099616Y0098189D01*
X0099577Y0097994D01*
X0099616Y0097799D01*
X0099726Y0097633D01*
X0099892Y0097523D01*
X0100087Y0097484D01*
X0100282Y0097523D01*
X0100447Y0097633D01*
X0100558Y0097799D01*
X0100597Y0097994D01*
X0100558Y0098189D01*
X0100447Y0098354D01*
X0100282Y0098465D01*
X0100087Y0098504D01*
D02*
G37*
G36*
X0093387Y0098404D02*
X0093192Y0098365D01*
X0093026Y0098254D01*
X0092916Y0098089D01*
X0092877Y0097894D01*
X0092916Y0097699D01*
X0093026Y0097533D01*
X0093192Y0097423D01*
X0093387Y0097384D01*
X0093582Y0097423D01*
X0093747Y0097533D01*
X0093858Y0097699D01*
X0093897Y0097894D01*
X0093858Y0098089D01*
X0093747Y0098254D01*
X0093582Y0098365D01*
X0093387Y0098404D01*
D02*
G37*
G36*
X0096662Y0098951D02*
X0096362D01*
X0096225Y0098924D01*
X0096109Y0098846D01*
X0096032Y009873D01*
X0096005Y0098594D01*
Y0098144D01*
X0096032Y0098007D01*
X0096101Y0097904D01*
X0096041Y0097814D01*
X0096002Y0097619D01*
X0096041Y0097424D01*
X0096151Y0097258D01*
X0096317Y0097148D01*
X0096512Y0097109D01*
X0096707Y0097148D01*
X0096872Y0097258D01*
X0096983Y0097424D01*
X0097022Y0097619D01*
X0096983Y0097814D01*
X0096923Y0097904D01*
X0096991Y0098007D01*
X0097019Y0098144D01*
Y0098594D01*
X0096991Y009873D01*
X0096914Y0098846D01*
X0096798Y0098924D01*
X0096662Y0098951D01*
D02*
G37*
G36*
X0101887Y0097104D02*
X0101692Y0097065D01*
X0101526Y0096954D01*
X0101416Y0096789D01*
X0101377Y0096594D01*
X0101416Y0096399D01*
X0101526Y0096233D01*
X0101692Y0096123D01*
X0101887Y0096084D01*
X0102082Y0096123D01*
X0102247Y0096233D01*
X0102269Y0096265D01*
X0102421D01*
X0102476Y0096183D01*
X0102642Y0096073D01*
X0102837Y0096034D01*
X0103032Y0096073D01*
X0103197Y0096183D01*
X0103308Y0096349D01*
X0103347Y0096544D01*
X0103308Y0096739D01*
X0103197Y0096904D01*
X0103032Y0097015D01*
X0102837Y0097054D01*
X0102642Y0097015D01*
X0102476Y0096904D01*
X0102455Y0096872D01*
X0102302D01*
X0102247Y0096954D01*
X0102082Y0097065D01*
X0101887Y0097104D01*
D02*
G37*
G36*
X0086312Y0097502D02*
X0086064Y0097469D01*
X0085833Y0097374D01*
X0085634Y0097221D01*
X0085482Y0097023D01*
X0085386Y0096792D01*
X0085354Y0096544D01*
X0085386Y0096296D01*
X0085482Y0096065D01*
X0085634Y0095866D01*
X0085833Y0095714D01*
X0086064Y0095618D01*
X0086312Y0095586D01*
X008656Y0095618D01*
X0086791Y0095714D01*
X0086989Y0095866D01*
X0087142Y0096065D01*
X0087237Y0096296D01*
X008727Y0096544D01*
X0087237Y0096792D01*
X0087142Y0097023D01*
X0086989Y0097221D01*
X0086791Y0097374D01*
X008656Y0097469D01*
X0086312Y0097502D01*
D02*
G37*
G36*
X0082262D02*
X0082014Y0097469D01*
X0081783Y0097374D01*
X0081584Y0097221D01*
X0081432Y0097023D01*
X0081336Y0096792D01*
X0081304Y0096544D01*
X0081336Y0096296D01*
X0081432Y0096065D01*
X0081584Y0095866D01*
X0081783Y0095714D01*
X0082014Y0095618D01*
X0082262Y0095586D01*
X008251Y0095618D01*
X0082741Y0095714D01*
X0082939Y0095866D01*
X0083092Y0096065D01*
X0083187Y0096296D01*
X008322Y0096544D01*
X0083187Y0096792D01*
X0083092Y0097023D01*
X0082939Y0097221D01*
X0082741Y0097374D01*
X008251Y0097469D01*
X0082262Y0097502D01*
D02*
G37*
G36*
X0107537Y0097402D02*
X0107289Y0097369D01*
X0107058Y0097274D01*
X0106859Y0097121D01*
X0106707Y0096923D01*
X0106611Y0096692D01*
X0106579Y0096444D01*
X0106611Y0096196D01*
X0106707Y0095965D01*
X0106859Y0095766D01*
X0107058Y0095614D01*
X0107289Y0095518D01*
X0107537Y0095486D01*
X0107785Y0095518D01*
X0108016Y0095614D01*
X0108214Y0095766D01*
X0108367Y0095965D01*
X0108462Y0096196D01*
X0108495Y0096444D01*
X0108462Y0096692D01*
X0108367Y0096923D01*
X0108214Y0097121D01*
X0108016Y0097274D01*
X0107785Y0097369D01*
X0107537Y0097402D01*
D02*
G37*
G36*
X0100262Y0092304D02*
X0100067Y0092265D01*
X0099952Y0092188D01*
X0099862Y0092165D01*
X0099771Y0092188D01*
X0099657Y0092265D01*
X0099462Y0092304D01*
X0099267Y0092265D01*
X0099101Y0092154D01*
X0098991Y0091989D01*
X0098952Y0091794D01*
X0098991Y0091599D01*
X0099101Y0091433D01*
X0099267Y0091323D01*
X0099462Y0091284D01*
X0099657Y0091323D01*
X0099771Y0091399D01*
X0099862Y0091423D01*
X0099952Y0091399D01*
X0100067Y0091323D01*
X0100262Y0091284D01*
X0100457Y0091323D01*
X0100622Y0091433D01*
X0100652Y0091478D01*
X0100779D01*
X0100826Y0091408D01*
X0100992Y0091298D01*
X0101187Y0091259D01*
X0101382Y0091298D01*
X0101547Y0091408D01*
X0101658Y0091574D01*
X0101697Y0091769D01*
X0101658Y0091964D01*
X0101547Y0092129D01*
X0101382Y009224D01*
X0101187Y0092279D01*
X0100992Y009224D01*
X0100826Y0092129D01*
X0100796Y0092084D01*
X0100669D01*
X0100622Y0092154D01*
X0100457Y0092265D01*
X0100262Y0092304D01*
D02*
G37*
G36*
X0091962Y0092029D02*
X0091767Y009199D01*
X0091601Y0091879D01*
X0091491Y0091714D01*
X0091452Y0091519D01*
X0091491Y0091324D01*
X0091601Y0091158D01*
X0091767Y0091048D01*
X0091962Y0091009D01*
X0092157Y0091048D01*
X0092322Y0091158D01*
X0092433Y0091324D01*
X0092472Y0091519D01*
X0092433Y0091714D01*
X0092322Y0091879D01*
X0092157Y009199D01*
X0091962Y0092029D01*
D02*
G37*
G36*
X0102182Y0090669D02*
X0101341D01*
X0101762Y0090248D01*
X0102182Y0090669D01*
D02*
G37*
G36*
X0094157D02*
X0093316D01*
X0093737Y0090248D01*
X0094157Y0090669D01*
D02*
G37*
%LPD*%
G36*
X0092416Y0136286D02*
X0092296Y0136145D01*
X0092247Y0136078D01*
X0092206Y0136012D01*
X0092172Y0135948D01*
X0092146Y0135886D01*
X0092127Y0135825D01*
X0092116Y0135766D01*
X0092112Y0135709D01*
X0091812D01*
X0091808Y0135766D01*
X0091797Y0135825D01*
X0091778Y0135886D01*
X0091752Y0135948D01*
X0091718Y0136012D01*
X0091677Y0136078D01*
X0091628Y0136145D01*
X0091572Y0136215D01*
X0091437Y0136358D01*
X0092487D01*
X0092416Y0136286D01*
D02*
G37*
G36*
X0087434Y0134494D02*
X0087417Y0134493D01*
X0087399Y0134489D01*
X008738Y0134484D01*
X0087361Y0134475D01*
X0087341Y0134465D01*
X0087321Y0134452D01*
X00873Y0134437D01*
X0087278Y0134419D01*
X0087232Y0134377D01*
X008702Y0134589D01*
X0087042Y0134612D01*
X008708Y0134657D01*
X0087095Y0134678D01*
X0087108Y0134698D01*
X0087118Y0134718D01*
X0087127Y0134737D01*
X0087132Y0134756D01*
X0087136Y0134774D01*
X0087137Y0134791D01*
X0087434Y0134494D01*
D02*
G37*
G36*
X0086426Y0134558D02*
X0086407Y0134535D01*
X0086391Y0134512D01*
X0086376Y0134488D01*
X0086364Y0134464D01*
X0086354Y0134438D01*
X0086347Y0134412D01*
X0086341Y0134386D01*
X0086338Y0134359D01*
X0086337Y0134331D01*
X0086137D01*
X0086136Y0134359D01*
X0086132Y0134386D01*
X0086127Y0134412D01*
X0086119Y0134438D01*
X0086109Y0134464D01*
X0086097Y0134488D01*
X0086083Y0134512D01*
X0086066Y0134535D01*
X0086048Y0134558D01*
X0086027Y013458D01*
X0086447D01*
X0086426Y0134558D01*
D02*
G37*
G36*
X0083537Y0131151D02*
X0083542Y0131093D01*
X0083546Y0131067D01*
X0083552Y0131044D01*
X0083558Y0131022D01*
X0083566Y0131003D01*
X0083575Y0130986D01*
X0083585Y0130971D01*
X0083597Y0130958D01*
X0083177D01*
X0083188Y0130971D01*
X0083198Y0130986D01*
X0083207Y0131003D01*
X0083215Y0131022D01*
X0083222Y0131044D01*
X0083227Y0131067D01*
X0083231Y0131093D01*
X0083234Y0131121D01*
X0083237Y0131184D01*
X0083537D01*
X0083537Y0131151D01*
D02*
G37*
G36*
X0089223Y0130884D02*
X0089201Y0130905D01*
X0089178Y0130923D01*
X0089155Y013094D01*
X0089131Y0130954D01*
X0089106Y0130966D01*
X0089081Y0130976D01*
X0089055Y0130984D01*
X0089029Y0130989D01*
X0089002Y0130993D01*
X0088974Y0130994D01*
Y0131194D01*
X0089002Y0131195D01*
X0089029Y0131198D01*
X0089055Y0131204D01*
X0089081Y0131211D01*
X0089106Y0131221D01*
X0089131Y0131233D01*
X0089155Y0131248D01*
X0089178Y0131264D01*
X0089201Y0131283D01*
X0089223Y0131304D01*
Y0130884D01*
D02*
G37*
G36*
X0081826Y0129008D02*
X0081807Y0128985D01*
X0081791Y0128962D01*
X0081776Y0128938D01*
X0081764Y0128913D01*
X0081754Y0128888D01*
X0081747Y0128862D01*
X0081741Y0128836D01*
X0081738Y0128809D01*
X0081737Y0128781D01*
X0081537Y0128781D01*
X0081536Y0128809D01*
X0081532Y0128836D01*
X0081527Y0128862D01*
X0081519Y0128888D01*
X0081509Y0128913D01*
X0081497Y0128938D01*
X0081483Y0128962D01*
X0081466Y0128985D01*
X0081448Y0129008D01*
X0081427Y012903D01*
X0081847Y012903D01*
X0081826Y0129008D01*
D02*
G37*
G36*
X011086Y0125817D02*
X011085Y0125802D01*
X0110841Y0125785D01*
X0110833Y0125765D01*
X0110827Y0125744D01*
X0110821Y012572D01*
X0110817Y0125694D01*
X0110814Y0125666D01*
X0110812Y0125604D01*
X0110512D01*
X0110511Y0125636D01*
X0110506Y0125694D01*
X0110502Y012572D01*
X0110497Y0125744D01*
X011049Y0125765D01*
X0110482Y0125785D01*
X0110473Y0125802D01*
X0110463Y0125817D01*
X0110452Y012583D01*
X0110872D01*
X011086Y0125817D01*
D02*
G37*
G36*
X0101912Y0122576D02*
X0101917Y0122518D01*
X0101921Y0122492D01*
X0101927Y0122469D01*
X0101933Y0122447D01*
X0101941Y0122428D01*
X010195Y0122411D01*
X010196Y0122396D01*
X0101972Y0122383D01*
X0101552D01*
X0101563Y0122396D01*
X0101573Y0122411D01*
X0101582Y0122428D01*
X010159Y0122447D01*
X0101597Y0122469D01*
X0101602Y0122492D01*
X0101606Y0122518D01*
X0101609Y0122546D01*
X0101612Y0122609D01*
X0101912D01*
X0101912Y0122576D01*
D02*
G37*
G36*
X0099987Y0130294D02*
X0099737D01*
Y0130544D01*
X0099987D01*
Y0130294D01*
D02*
G37*
G36*
X0090829Y0126699D02*
X0090806Y0126675D01*
X0090769Y0126631D01*
X0090754Y012661D01*
X0090741Y0126589D01*
X009073Y0126569D01*
X0090722Y012655D01*
X0090716Y0126532D01*
X0090713Y0126514D01*
X0090712Y0126497D01*
X0090415Y0126794D01*
X0090432Y0126795D01*
X009045Y0126798D01*
X0090468Y0126804D01*
X0090487Y0126812D01*
X0090507Y0126823D01*
X0090528Y0126836D01*
X0090549Y0126851D01*
X0090571Y0126868D01*
X0090617Y0126911D01*
X0090829Y0126699D01*
D02*
G37*
G36*
X0095164Y0126892D02*
X0095179Y0126882D01*
X0095196Y0126873D01*
X0095215Y0126865D01*
X0095237Y0126859D01*
X009526Y0126853D01*
X0095286Y0126849D01*
X0095314Y0126846D01*
X0095377Y0126844D01*
Y0126544D01*
X0095344Y0126543D01*
X0095286Y0126538D01*
X009526Y0126534D01*
X0095237Y0126529D01*
X0095215Y0126522D01*
X0095196Y0126514D01*
X0095179Y0126505D01*
X0095164Y0126495D01*
X0095151Y0126484D01*
Y0126904D01*
X0095164Y0126892D01*
D02*
G37*
G36*
X0093739Y0126067D02*
X0093754Y0126057D01*
X0093771Y0126048D01*
X009379Y012604D01*
X0093812Y0126034D01*
X0093835Y0126028D01*
X0093861Y0126024D01*
X0093889Y0126021D01*
X0093952Y0126019D01*
Y0125719D01*
X0093919Y0125718D01*
X0093861Y0125713D01*
X0093835Y0125709D01*
X0093812Y0125704D01*
X009379Y0125697D01*
X0093771Y0125689D01*
X0093754Y012568D01*
X0093739Y012567D01*
X0093726Y0125659D01*
Y0126079D01*
X0093739Y0126067D01*
D02*
G37*
G36*
X0095587Y0125394D02*
X0095337D01*
Y0125644D01*
X0095587D01*
Y0125394D01*
D02*
G37*
G36*
X0089538Y0125224D02*
X0089541Y0125206D01*
X0089547Y0125187D01*
X0089555Y0125168D01*
X0089566Y0125148D01*
X0089579Y0125128D01*
X0089594Y0125107D01*
X0089611Y0125085D01*
X0089654Y0125039D01*
X0089442Y0124827D01*
X0089418Y0124849D01*
X0089374Y0124887D01*
X0089353Y0124902D01*
X0089332Y0124915D01*
X0089312Y0124925D01*
X0089293Y0124934D01*
X0089275Y0124939D01*
X0089257Y0124943D01*
X008924Y0124944D01*
X0089537Y0125241D01*
X0089538Y0125224D01*
D02*
G37*
G36*
X0099148Y0124334D02*
X0099135Y0124345D01*
X009912Y0124355D01*
X0099103Y0124364D01*
X0099083Y0124372D01*
X0099062Y0124379D01*
X0099038Y0124384D01*
X0099012Y0124388D01*
X0098984Y0124391D01*
X0098922Y0124394D01*
Y0124694D01*
X0098954Y0124694D01*
X0099012Y0124699D01*
X0099038Y0124703D01*
X0099062Y0124709D01*
X0099083Y0124715D01*
X0099103Y0124723D01*
X009912Y0124732D01*
X0099135Y0124742D01*
X0099148Y0124754D01*
Y0124334D01*
D02*
G37*
G36*
X0096779Y0122524D02*
X0096756Y01225D01*
X0096719Y0122456D01*
X0096704Y0122435D01*
X0096691Y0122414D01*
X009668Y0122394D01*
X0096672Y0122375D01*
X0096666Y0122357D01*
X0096663Y0122339D01*
X0096662Y0122322D01*
X0096365Y0122619D01*
X0096382Y012262D01*
X00964Y0122623D01*
X0096418Y0122629D01*
X0096437Y0122637D01*
X0096457Y0122648D01*
X0096478Y0122661D01*
X0096499Y0122676D01*
X0096521Y0122693D01*
X0096567Y0122736D01*
X0096779Y0122524D01*
D02*
G37*
G36*
X0097714Y0122692D02*
X0097729Y0122682D01*
X0097746Y0122673D01*
X0097765Y0122665D01*
X0097787Y0122659D01*
X009781Y0122653D01*
X0097836Y0122649D01*
X0097864Y0122646D01*
X0097927Y0122644D01*
Y0122344D01*
X0097894Y0122343D01*
X0097836Y0122338D01*
X009781Y0122334D01*
X0097787Y0122329D01*
X0097765Y0122322D01*
X0097746Y0122314D01*
X0097729Y0122305D01*
X0097714Y0122295D01*
X0097701Y0122284D01*
Y0122704D01*
X0097714Y0122692D01*
D02*
G37*
G36*
X0096148Y0122109D02*
X0096135Y012212D01*
X009612Y012213D01*
X0096103Y0122139D01*
X0096083Y0122147D01*
X0096062Y0122154D01*
X0096038Y0122159D01*
X0096012Y0122163D01*
X0095984Y0122166D01*
X0095922Y0122169D01*
Y0122469D01*
X0095954Y0122469D01*
X0096012Y0122474D01*
X0096038Y0122478D01*
X0096062Y0122484D01*
X0096083Y012249D01*
X0096103Y0122498D01*
X009612Y0122507D01*
X0096135Y0122517D01*
X0096148Y0122529D01*
Y0122109D01*
D02*
G37*
G36*
X0109037Y0120617D02*
X0109037Y0120429D01*
X0109037Y0120337D01*
Y0120151D01*
X0108462D01*
Y0120244D01*
X0107262D01*
Y0118994D01*
X0108207D01*
X0108245Y0118867D01*
X0108226Y0118854D01*
X0108116Y0118689D01*
X0108077Y0118494D01*
X0108116Y0118299D01*
X0108226Y0118133D01*
X0108392Y0118023D01*
X0108587Y0117984D01*
X0108782Y0118023D01*
X010891Y0118108D01*
X0109003Y011807D01*
X0109547Y0118614D01*
X0109727Y0118434D01*
X0109216Y0117924D01*
X0111407D01*
X0110897Y0118434D01*
X0111077Y0118614D01*
X0111587Y0118103D01*
Y0119067D01*
X0111587Y0119159D01*
X0111587Y0119251D01*
Y0120287D01*
X0111714Y0120299D01*
X0111732Y0120207D01*
X0111809Y0120091D01*
X0112359Y0119541D01*
X0112475Y0119464D01*
X0112612Y0119437D01*
X0112687D01*
Y0119194D01*
X0112687D01*
Y0119124D01*
X0112687D01*
Y0117924D01*
X0113605D01*
Y0117326D01*
X010851D01*
X0106714Y0119121D01*
X0106598Y0119199D01*
X0106462Y0119226D01*
X0105819D01*
Y0119469D01*
X0106062D01*
Y0120462D01*
X0106587D01*
X0106723Y0120489D01*
X0106839Y0120566D01*
X010698Y0120707D01*
X0107262D01*
Y0120444D01*
X0108462D01*
Y0120707D01*
X0108947D01*
X0109037Y0120617D01*
D02*
G37*
G36*
X0091754Y0117549D02*
X0091731Y0117525D01*
X0091694Y0117481D01*
X0091679Y011746D01*
X0091666Y0117439D01*
X0091655Y0117419D01*
X0091647Y01174D01*
X0091641Y0117382D01*
X0091638Y0117364D01*
X0091637Y0117347D01*
X009134Y0117644D01*
X0091357Y0117645D01*
X0091375Y0117648D01*
X0091393Y0117654D01*
X0091412Y0117662D01*
X0091432Y0117673D01*
X0091453Y0117686D01*
X0091474Y0117701D01*
X0091496Y0117718D01*
X0091542Y0117761D01*
X0091754Y0117549D01*
D02*
G37*
G36*
X0108989Y0115817D02*
X0109004Y0115807D01*
X0109021Y0115798D01*
X010904Y011579D01*
X0109062Y0115784D01*
X0109085Y0115778D01*
X0109111Y0115774D01*
X0109139Y0115771D01*
X0109202Y0115769D01*
Y0115469D01*
X0109169Y0115468D01*
X0109111Y0115463D01*
X0109085Y0115459D01*
X0109062Y0115454D01*
X010904Y0115447D01*
X0109021Y0115439D01*
X0109004Y011543D01*
X0108989Y011542D01*
X0108976Y0115409D01*
Y0115829D01*
X0108989Y0115817D01*
D02*
G37*
G36*
X0111685Y0114092D02*
X0111675Y0114077D01*
X0111666Y011406D01*
X0111658Y011404D01*
X0111652Y0114019D01*
X0111646Y0113995D01*
X0111642Y0113969D01*
X0111639Y0113941D01*
X0111637Y0113879D01*
X0111337D01*
X0111336Y0113911D01*
X0111331Y0113969D01*
X0111327Y0113995D01*
X0111322Y0114019D01*
X0111315Y011404D01*
X0111307Y011406D01*
X0111298Y0114077D01*
X0111288Y0114092D01*
X0111277Y0114105D01*
X0111697D01*
X0111685Y0114092D01*
D02*
G37*
G36*
X0091248Y0120409D02*
X0091235Y012042D01*
X009122Y012043D01*
X0091203Y0120439D01*
X0091183Y0120447D01*
X0091162Y0120454D01*
X0091138Y0120459D01*
X0091112Y0120463D01*
X0091084Y0120466D01*
X0091022Y0120469D01*
Y0120769D01*
X0091054Y0120769D01*
X0091112Y0120774D01*
X0091138Y0120778D01*
X0091162Y0120784D01*
X0091183Y012079D01*
X0091203Y0120798D01*
X009122Y0120807D01*
X0091235Y0120817D01*
X0091248Y0120829D01*
Y0120409D01*
D02*
G37*
G36*
X0095435Y0119142D02*
X0095425Y0119127D01*
X0095416Y011911D01*
X0095408Y011909D01*
X0095402Y0119069D01*
X0095396Y0119045D01*
X0095392Y0119019D01*
X0095389Y0118991D01*
X0095387Y0118929D01*
X0095087D01*
X0095086Y0118961D01*
X0095081Y0119019D01*
X0095077Y0119045D01*
X0095072Y0119069D01*
X0095065Y011909D01*
X0095057Y011911D01*
X0095048Y0119127D01*
X0095038Y0119142D01*
X0095027Y0119155D01*
X0095447D01*
X0095435Y0119142D01*
D02*
G37*
G36*
X0095137Y0113451D02*
X0095142Y0113393D01*
X0095146Y0113367D01*
X0095152Y0113344D01*
X0095158Y0113322D01*
X0095166Y0113303D01*
X0095175Y0113286D01*
X0095185Y0113271D01*
X0095197Y0113258D01*
X0094777D01*
X0094788Y0113271D01*
X0094798Y0113286D01*
X0094807Y0113303D01*
X0094815Y0113322D01*
X0094822Y0113344D01*
X0094827Y0113367D01*
X0094831Y0113393D01*
X0094834Y0113421D01*
X0094837Y0113484D01*
X0095137D01*
X0095137Y0113451D01*
D02*
G37*
G36*
X0101459Y0114469D02*
X0101429Y0114468D01*
X0101399Y0114465D01*
X0101371Y0114461D01*
X0101344Y0114454D01*
X0101318Y0114445D01*
X0101294Y0114434D01*
X010127Y0114421D01*
X0101247Y0114407D01*
X0101226Y011439D01*
X0101205Y0114371D01*
X0101064Y0114512D01*
X0101083Y0114533D01*
X01011Y0114554D01*
X0101114Y0114577D01*
X0101127Y0114601D01*
X0101138Y0114625D01*
X0101147Y0114651D01*
X0101154Y0114678D01*
X0101158Y0114706D01*
X0101161Y0114736D01*
X0101162Y0114766D01*
X0101459Y0114469D01*
D02*
G37*
G36*
X009043Y0114146D02*
Y0113817D01*
X0090303Y0113737D01*
X0090237Y011375D01*
X0090037D01*
X008992Y0113726D01*
X0089914Y0113723D01*
X0089812Y0113665D01*
X008971Y0113723D01*
X0089704Y0113726D01*
X0089587Y011375D01*
X0089387D01*
X0089281Y0113729D01*
X0089577Y0113434D01*
X0089397Y0113254D01*
X0089102Y0113549D01*
X0089081Y0113444D01*
Y0112934D01*
X0088983Y0112824D01*
X0088962Y0112829D01*
X0088767Y011279D01*
X0088601Y0112679D01*
X0088491Y0112514D01*
X0088467Y0112394D01*
X0088449Y0112381D01*
X008833Y0112355D01*
X0088074Y0112611D01*
X0088124Y0112738D01*
X0088212D01*
X0088329Y0112761D01*
X0088428Y0112828D01*
X0088494Y0112927D01*
X0088518Y0113044D01*
Y0113594D01*
X0088494Y0113711D01*
X0088469Y0113749D01*
Y0113886D01*
X0088516Y0113957D01*
X0088544Y0114094D01*
Y0114636D01*
X0088589Y0114666D01*
X0088666Y0114782D01*
X0088667Y0114787D01*
X0089789D01*
X009043Y0114146D01*
D02*
G37*
G36*
X0089263Y0112299D02*
X0089266Y0112281D01*
X0089272Y0112262D01*
X008928Y0112243D01*
X0089291Y0112223D01*
X0089304Y0112203D01*
X0089319Y0112182D01*
X0089336Y011216D01*
X0089379Y0112114D01*
X0089167Y0111902D01*
X0089143Y0111924D01*
X0089099Y0111962D01*
X0089078Y0111977D01*
X0089057Y011199D01*
X0089037Y0112D01*
X0089018Y0112009D01*
X0089Y0112014D01*
X0088982Y0112018D01*
X0088965Y0112019D01*
X0089262Y0112316D01*
X0089263Y0112299D01*
D02*
G37*
G36*
X0086314Y0111592D02*
X0086329Y0111582D01*
X0086346Y0111573D01*
X0086365Y0111565D01*
X0086387Y0111559D01*
X008641Y0111553D01*
X0086436Y0111549D01*
X0086464Y0111546D01*
X0086527Y0111544D01*
Y0111244D01*
X0086494Y0111243D01*
X0086436Y0111238D01*
X008641Y0111234D01*
X0086387Y0111229D01*
X0086365Y0111222D01*
X0086346Y0111214D01*
X0086329Y0111205D01*
X0086314Y0111195D01*
X0086301Y0111184D01*
Y0111604D01*
X0086314Y0111592D01*
D02*
G37*
G36*
X0085873Y0111184D02*
X008586Y0111195D01*
X0085845Y0111205D01*
X0085828Y0111214D01*
X0085808Y0111222D01*
X0085787Y0111229D01*
X0085763Y0111234D01*
X0085737Y0111238D01*
X0085709Y0111241D01*
X0085647Y0111244D01*
Y0111544D01*
X0085679Y0111544D01*
X0085737Y0111549D01*
X0085763Y0111553D01*
X0085787Y0111559D01*
X0085808Y0111565D01*
X0085828Y0111573D01*
X0085845Y0111582D01*
X008586Y0111592D01*
X0085873Y0111604D01*
Y0111184D01*
D02*
G37*
G36*
X0085892Y0110923D02*
X0086087Y0110884D01*
X0086282Y0110923D01*
X0086357Y0110973D01*
X0086482Y0110948D01*
X0086496Y0110928D01*
X0086595Y0110861D01*
X0086712Y0110838D01*
X0086912D01*
X0086978Y0110851D01*
X0087105Y0110771D01*
Y0110567D01*
X0086978Y0110487D01*
X0086912Y01105D01*
X0086712D01*
X0086606Y0110479D01*
X0086902Y0110184D01*
X0086722Y0110004D01*
X0086427Y0110299D01*
X0086406Y0110194D01*
Y0109644D01*
X0086427Y0109538D01*
X0086722Y0109834D01*
X0086902Y0109654D01*
X0086606Y0109359D01*
X0086712Y0109338D01*
X0086912D01*
X0086978Y0109351D01*
X0086981Y0109351D01*
X0087058Y010924D01*
X0086991Y0109139D01*
X0086952Y0108944D01*
X0086991Y0108749D01*
X0087018Y0108708D01*
X0086942Y0108594D01*
X0086912Y01086D01*
X0086712D01*
X0086595Y0108576D01*
X0086496Y010851D01*
X0086486Y0108496D01*
X0086457Y010849D01*
X0086262Y0108529D01*
X0086067Y010849D01*
X0085901Y0108379D01*
X0085831Y0108274D01*
X0085696Y0108301D01*
X0085694Y0108311D01*
X0085628Y010841D01*
X0085529Y0108476D01*
X0085412Y01085D01*
X0085212D01*
X0085146Y0108487D01*
X0085019Y0108567D01*
Y0110344D01*
X0084992Y011048D01*
X0084914Y0110596D01*
X0084853Y0110657D01*
X0084864Y0110785D01*
X0084971Y0110842D01*
X0084975Y0110839D01*
X0085112Y0110812D01*
X0085412D01*
X0085548Y0110839D01*
X0085664Y0110916D01*
X0085687Y0110951D01*
X0085812Y0110976D01*
X0085892Y0110923D01*
D02*
G37*
G36*
X0089105Y0107226D02*
X008591D01*
X0085669Y0107467D01*
Y0107488D01*
X0085694Y0107527D01*
X0085718Y0107644D01*
Y0107705D01*
X0085845Y0107743D01*
X0085901Y0107658D01*
X0086067Y0107548D01*
X0086262Y0107509D01*
X0086457Y0107548D01*
X0086486Y0107542D01*
X0086496Y0107528D01*
X0086595Y0107461D01*
X0086712Y0107438D01*
X0086912D01*
X0087029Y0107461D01*
X0087128Y0107528D01*
X0087146D01*
X0087245Y0107461D01*
X0087362Y0107438D01*
X0087562D01*
X0087679Y0107461D01*
X0087778Y0107528D01*
X0087796D01*
X0087895Y0107461D01*
X0088012Y0107438D01*
X0088212D01*
X0088317Y0107459D01*
X0088022Y0107754D01*
X0088202Y0107934D01*
X0088497Y0107638D01*
X0088518Y0107744D01*
Y0108294D01*
X0088497Y0108399D01*
X0088202Y0108104D01*
X0088022Y0108284D01*
X0088317Y0108579D01*
X0088212Y01086D01*
X0088012D01*
X0087982Y0108594D01*
X0087906Y0108708D01*
X0087933Y0108749D01*
X0087972Y0108944D01*
X0087933Y0109139D01*
X0087865Y010924D01*
X0087943Y0109351D01*
X0087946Y0109351D01*
X0088012Y0109338D01*
X0088212D01*
X0088329Y0109361D01*
X0088428Y0109428D01*
X0088494Y0109527D01*
X0088501Y0109562D01*
X0089105D01*
Y0107226D01*
D02*
G37*
G36*
X0087612Y0109351D02*
X0087617Y0109293D01*
X0087621Y0109267D01*
X0087627Y0109244D01*
X0087633Y0109222D01*
X0087641Y0109203D01*
X008765Y0109186D01*
X008766Y0109171D01*
X0087672Y0109158D01*
X0087252D01*
X0087263Y0109171D01*
X0087273Y0109186D01*
X0087282Y0109203D01*
X008729Y0109222D01*
X0087297Y0109244D01*
X0087302Y0109267D01*
X0087306Y0109293D01*
X0087309Y0109321D01*
X0087312Y0109384D01*
X0087612D01*
X0087612Y0109351D01*
D02*
G37*
G36*
X008766Y0108717D02*
X008765Y0108702D01*
X0087641Y0108685D01*
X0087633Y0108665D01*
X0087627Y0108644D01*
X0087621Y010862D01*
X0087617Y0108594D01*
X0087614Y0108566D01*
X0087612Y0108504D01*
X0087312D01*
X0087311Y0108536D01*
X0087306Y0108594D01*
X0087302Y010862D01*
X0087297Y0108644D01*
X008729Y0108665D01*
X0087282Y0108685D01*
X0087273Y0108702D01*
X0087263Y0108717D01*
X0087252Y010873D01*
X0087672D01*
X008766Y0108717D01*
D02*
G37*
G36*
X0086489Y0108217D02*
X0086504Y0108207D01*
X0086521Y0108198D01*
X008654Y010819D01*
X0086562Y0108184D01*
X0086585Y0108178D01*
X0086611Y0108174D01*
X0086639Y0108171D01*
X0086702Y0108169D01*
Y0107869D01*
X0086669Y0107868D01*
X0086611Y0107863D01*
X0086585Y0107859D01*
X0086562Y0107854D01*
X008654Y0107847D01*
X0086521Y0107839D01*
X0086504Y010783D01*
X0086489Y010782D01*
X0086476Y0107809D01*
Y0108229D01*
X0086489Y0108217D01*
D02*
G37*
G36*
X0094314Y0106967D02*
X0094329Y0106957D01*
X0094346Y0106948D01*
X0094365Y010694D01*
X0094387Y0106934D01*
X009441Y0106928D01*
X0094436Y0106924D01*
X0094464Y0106921D01*
X0094527Y0106919D01*
Y0106619D01*
X0094494Y0106618D01*
X0094436Y0106613D01*
X009441Y0106609D01*
X0094387Y0106604D01*
X0094365Y0106597D01*
X0094346Y0106589D01*
X0094329Y010658D01*
X0094314Y010657D01*
X0094301Y0106559D01*
Y0106979D01*
X0094314Y0106967D01*
D02*
G37*
G36*
X0093335Y0106142D02*
X0093325Y0106127D01*
X0093316Y010611D01*
X0093308Y010609D01*
X0093302Y0106069D01*
X0093296Y0106045D01*
X0093292Y0106019D01*
X0093289Y0105991D01*
X0093287Y0105929D01*
X0092987D01*
X0092986Y0105961D01*
X0092981Y0106019D01*
X0092977Y0106045D01*
X0092972Y0106069D01*
X0092965Y010609D01*
X0092957Y010611D01*
X0092948Y0106127D01*
X0092938Y0106142D01*
X0092927Y0106155D01*
X0093347D01*
X0093335Y0106142D01*
D02*
G37*
G36*
X0083389Y0106242D02*
X0083404Y0106232D01*
X0083421Y0106223D01*
X008344Y0106215D01*
X0083462Y0106209D01*
X0083485Y0106203D01*
X0083511Y0106199D01*
X0083539Y0106196D01*
X0083602Y0106194D01*
Y0105894D01*
X0083569Y0105893D01*
X0083511Y0105888D01*
X0083485Y0105884D01*
X0083462Y0105879D01*
X008344Y0105872D01*
X0083421Y0105864D01*
X0083404Y0105855D01*
X0083389Y0105845D01*
X0083376Y0105834D01*
Y0106254D01*
X0083389Y0106242D01*
D02*
G37*
G36*
X0090739Y0105742D02*
X0090754Y0105732D01*
X0090771Y0105723D01*
X009079Y0105715D01*
X0090812Y0105709D01*
X0090835Y0105703D01*
X0090861Y0105699D01*
X0090889Y0105696D01*
X0090952Y0105694D01*
X0090952Y0105394D01*
X0090919Y0105393D01*
X0090861Y0105388D01*
X0090835Y0105384D01*
X0090812Y0105379D01*
X009079Y0105372D01*
X0090771Y0105364D01*
X0090754Y0105355D01*
X0090739Y0105345D01*
X0090726Y0105334D01*
X0090726Y0105754D01*
X0090739Y0105742D01*
D02*
G37*
G36*
X0095988Y0103704D02*
X0095991Y0103677D01*
X0095997Y010365D01*
X0096004Y0103624D01*
X0096014Y0103599D01*
X0096026Y0103575D01*
X0096041Y0103551D01*
X0096057Y0103527D01*
X0096076Y0103505D01*
X0096097Y0103483D01*
X0095677Y0103483D01*
X0095698Y0103505D01*
X0095716Y0103527D01*
X0095733Y0103551D01*
X0095747Y0103575D01*
X0095759Y0103599D01*
X0095769Y0103624D01*
X0095777Y010365D01*
X0095782Y0103677D01*
X0095786Y0103704D01*
X0095787Y0103732D01*
X0095987Y0103732D01*
X0095988Y0103704D01*
D02*
G37*
G36*
X0100189Y0103567D02*
X0100204Y0103557D01*
X0100221Y0103548D01*
X010024Y010354D01*
X0100262Y0103534D01*
X0100285Y0103528D01*
X0100311Y0103524D01*
X0100339Y0103521D01*
X0100402Y0103519D01*
Y0103219D01*
X0100369Y0103218D01*
X0100311Y0103213D01*
X0100285Y0103209D01*
X0100262Y0103204D01*
X010024Y0103197D01*
X0100221Y0103189D01*
X0100204Y010318D01*
X0100189Y010317D01*
X0100176Y0103159D01*
Y0103579D01*
X0100189Y0103567D01*
D02*
G37*
G36*
X010016Y0103142D02*
X010015Y0103127D01*
X0100141Y010311D01*
X0100133Y010309D01*
X0100127Y0103069D01*
X0100121Y0103045D01*
X0100117Y0103019D01*
X0100114Y0102991D01*
X0100112Y0102929D01*
X0099812D01*
X0099811Y0102961D01*
X0099806Y0103019D01*
X0099802Y0103045D01*
X0099797Y0103069D01*
X009979Y010309D01*
X0099782Y010311D01*
X0099773Y0103127D01*
X0099763Y0103142D01*
X0099752Y0103155D01*
X0100172D01*
X010016Y0103142D01*
D02*
G37*
G36*
X0098784Y0102494D02*
X0098767Y0102493D01*
X0098749Y0102489D01*
X009873Y0102484D01*
X0098711Y0102475D01*
X0098691Y0102465D01*
X0098671Y0102452D01*
X009865Y0102437D01*
X0098628Y0102419D01*
X0098582Y0102377D01*
X009837Y0102589D01*
X0098392Y0102612D01*
X009843Y0102657D01*
X0098445Y0102678D01*
X0098458Y0102698D01*
X0098468Y0102718D01*
X0098477Y0102737D01*
X0098482Y0102756D01*
X0098486Y0102774D01*
X0098487Y0102791D01*
X0098784Y0102494D01*
D02*
G37*
G36*
X0097773Y0101084D02*
X009776Y0101095D01*
X0097745Y0101105D01*
X0097728Y0101114D01*
X0097708Y0101122D01*
X0097687Y0101129D01*
X0097663Y0101134D01*
X0097637Y0101138D01*
X0097609Y0101141D01*
X0097547Y0101144D01*
Y0101444D01*
X0097579Y0101444D01*
X0097637Y0101449D01*
X0097663Y0101453D01*
X0097687Y0101459D01*
X0097708Y0101465D01*
X0097728Y0101473D01*
X0097745Y0101482D01*
X009776Y0101492D01*
X0097773Y0101504D01*
Y0101084D01*
D02*
G37*
G36*
X0095223Y0100434D02*
X009521Y0100445D01*
X0095195Y0100455D01*
X0095178Y0100464D01*
X0095158Y0100472D01*
X0095137Y0100479D01*
X0095113Y0100484D01*
X0095087Y0100488D01*
X0095059Y0100491D01*
X0094997Y0100494D01*
Y0100794D01*
X0095029Y0100794D01*
X0095087Y0100799D01*
X0095113Y0100803D01*
X0095137Y0100809D01*
X0095158Y0100815D01*
X0095178Y0100823D01*
X0095195Y0100832D01*
X009521Y0100842D01*
X0095223Y0100854D01*
Y0100434D01*
D02*
G37*
G36*
X0082548Y0100334D02*
X0082535Y0100345D01*
X008252Y0100355D01*
X0082503Y0100364D01*
X0082483Y0100372D01*
X0082462Y0100379D01*
X0082438Y0100384D01*
X0082412Y0100388D01*
X0082384Y0100391D01*
X0082322Y0100394D01*
Y0100694D01*
X0082354Y0100694D01*
X0082412Y0100699D01*
X0082438Y0100703D01*
X0082462Y0100709D01*
X0082483Y0100715D01*
X0082503Y0100723D01*
X008252Y0100732D01*
X0082535Y0100742D01*
X0082548Y0100754D01*
Y0100334D01*
D02*
G37*
G36*
X0110973Y00974D02*
X0111023Y0097366D01*
X0111079Y0097337D01*
X0111142Y0097311D01*
X0111211Y009729D01*
X0111286Y0097272D01*
X0111369Y0097259D01*
X0111457Y009725D01*
X0111654Y0097244D01*
X0110912Y0096501D01*
X0110911Y0096603D01*
X0110897Y0096787D01*
X0110883Y0096869D01*
X0110866Y0096945D01*
X0110845Y0097014D01*
X0110819Y0097077D01*
X0110789Y0097133D01*
X0110756Y0097182D01*
X0110718Y0097226D01*
X011093Y0097438D01*
X0110973Y00974D01*
D02*
G37*
G36*
X0096662Y0098026D02*
X0096667Y0097968D01*
X0096671Y0097942D01*
X0096677Y0097919D01*
X0096683Y0097897D01*
X0096691Y0097878D01*
X00967Y0097861D01*
X009671Y0097846D01*
X0096722Y0097833D01*
X0096302D01*
X0096313Y0097846D01*
X0096323Y0097861D01*
X0096332Y0097878D01*
X009634Y0097897D01*
X0096347Y0097919D01*
X0096352Y0097942D01*
X0096356Y0097968D01*
X0096359Y0097996D01*
X0096362Y0098059D01*
X0096662D01*
X0096662Y0098026D01*
D02*
G37*
%LPC*%
G36*
X0094157Y0089219D02*
X0093316D01*
X0093737Y0088798D01*
X0094157Y0089219D01*
D02*
G37*
G36*
X0095782Y0089219D02*
X0094941D01*
X0095362Y0088798D01*
X0095782Y0089219D01*
D02*
G37*
G36*
X0093737Y0088619D02*
X0093712Y0088594D01*
X0093737Y0088569D01*
X0093762Y0088594D01*
X0093737Y0088619D01*
D02*
G37*
G36*
X0095362Y0088619D02*
X0095337Y0088594D01*
X0095362Y0088569D01*
X0095387Y0088594D01*
X0095362Y0088619D01*
D02*
G37*
G36*
X0094337Y0089039D02*
X0093891Y0088594D01*
X0094337Y0088148D01*
Y0089039D01*
D02*
G37*
G36*
X0093137Y0089039D02*
Y0088148D01*
X0093582Y0088594D01*
X0093137Y0089039D01*
D02*
G37*
G36*
X0094762Y0089039D02*
Y0088148D01*
X0095207Y0088594D01*
X0094762Y0089039D01*
D02*
G37*
G36*
X0095962Y0089039D02*
X0095516Y0088594D01*
X0095962Y0088148D01*
Y0089039D01*
D02*
G37*
G36*
X0090587Y0089201D02*
X0090287D01*
X009015Y0089173D01*
X0090034Y0089096D01*
X0089957Y008898D01*
X008993Y0088844D01*
Y0088394D01*
X0089957Y0088257D01*
X0090034Y0088141D01*
X009008Y0088111D01*
Y0087019D01*
X0090107Y0086882D01*
X0090184Y0086766D01*
X0090559Y0086391D01*
X0090675Y0086314D01*
X0090812Y0086287D01*
X0090831D01*
X0090857Y0086157D01*
X0090934Y0086041D01*
X009098Y0086011D01*
Y0085519D01*
X0091007Y0085382D01*
X0091084Y0085266D01*
X0091134Y0085216D01*
X009125Y0085139D01*
X0091387Y0085112D01*
X0094887D01*
Y0084844D01*
X0096087D01*
Y0086094D01*
X0094887D01*
Y0085826D01*
X0091694D01*
Y0086011D01*
X0091739Y0086041D01*
X0091812Y008615D01*
X0091813Y0086149D01*
X0092197Y0086534D01*
X0092287Y0086444D01*
X0092377Y0086534D01*
X0092761Y0086149D01*
X0092762Y008615D01*
X0092834Y0086041D01*
X009295Y0085964D01*
X0093087Y0085937D01*
X0093387D01*
X0093523Y0085964D01*
X0093639Y0086041D01*
X0093716Y0086157D01*
X0093742Y0086287D01*
X0094003D01*
X009401Y0086286D01*
X0094024Y0086284D01*
X0094026Y0086283D01*
X0094026Y0086283D01*
X0094192Y0086173D01*
X0094387Y0086134D01*
X0094582Y0086173D01*
X0094747Y0086283D01*
X0094858Y0086449D01*
X0094897Y0086644D01*
X0094858Y0086839D01*
X0094747Y0087004D01*
X0094582Y0087115D01*
X0094387Y0087154D01*
X0094192Y0087115D01*
X0094026Y0087004D01*
X0094026Y0087004D01*
X0094024Y0087004D01*
X0094012Y0087002D01*
X0093999Y0087001D01*
X0093742D01*
X0093716Y008713D01*
X0093639Y0087246D01*
X0093523Y0087324D01*
X0093387Y0087351D01*
X0093087D01*
X009295Y0087324D01*
X0092834Y0087246D01*
X0092762Y0087137D01*
X0092761Y0087138D01*
X0092377Y0086754D01*
X0092287Y0086844D01*
X0092197Y0086754D01*
X0091813Y0087138D01*
X0091812Y0087137D01*
X0091739Y0087246D01*
X0091623Y0087324D01*
X0091487Y0087351D01*
X0091187D01*
X009105Y0087324D01*
X0090934Y0087246D01*
X0090857Y008713D01*
X0090853Y0087108D01*
X0090794Y0087167D01*
Y0088111D01*
X0090839Y0088141D01*
X0090866Y0088182D01*
X0090917Y0088148D01*
X0091112Y0088109D01*
X0091307Y0088148D01*
X0091472Y0088258D01*
X0091583Y0088424D01*
X0091622Y0088619D01*
X0091583Y0088814D01*
X0091472Y0088979D01*
X0091307Y008909D01*
X0091112Y0089129D01*
X0090917Y008909D01*
X0090866Y0089056D01*
X0090839Y0089096D01*
X0090723Y0089173D01*
X0090587Y0089201D01*
D02*
G37*
G36*
X0093737Y0088389D02*
X0093316Y0087969D01*
X0094157D01*
X0093737Y0088389D01*
D02*
G37*
G36*
X0095362Y0088389D02*
X0094941Y0087969D01*
X0095782D01*
X0095362Y0088389D01*
D02*
G37*
G36*
X0096462Y0087626D02*
X0096162D01*
X0096025Y0087598D01*
X0096017Y0087593D01*
X0096312Y0087298D01*
X0096606Y0087593D01*
X0096598Y0087598D01*
X0096462Y0087626D01*
D02*
G37*
G36*
X0092437Y0087351D02*
X0092137D01*
X0092Y0087324D01*
X0091992Y0087318D01*
X0092287Y0087023D01*
X0092581Y0087318D01*
X0092573Y0087324D01*
X0092437Y0087351D01*
D02*
G37*
G36*
X0096312Y0087119D02*
X0096237Y0087044D01*
X0096312Y0086969D01*
X0096387Y0087044D01*
X0096312Y0087119D01*
D02*
G37*
G36*
X0095838Y0087413D02*
X0095832Y0087405D01*
X0095805Y0087269D01*
Y0086819D01*
X0095832Y0086682D01*
X0095838Y0086674D01*
X0096207Y0087044D01*
X0095838Y0087413D01*
D02*
G37*
G36*
X0096786Y0087413D02*
X0096416Y0087044D01*
X0096786Y0086674D01*
X0096791Y0086682D01*
X0096819Y0086819D01*
Y0087269D01*
X0096791Y0087405D01*
X0096786Y0087413D01*
D02*
G37*
G36*
X0096312Y0086789D02*
X0096017Y0086495D01*
X0096025Y0086489D01*
X0096162Y0086462D01*
X0096462D01*
X0096598Y0086489D01*
X0096606Y0086495D01*
X0096312Y0086789D01*
D02*
G37*
G36*
X0092287Y0086264D02*
X0091992Y008597D01*
X0092Y0085964D01*
X0092137Y0085937D01*
X0092437D01*
X0092573Y0085964D01*
X0092581Y008597D01*
X0092287Y0086264D01*
D02*
G37*
G36*
X0094962Y0081276D02*
X0094512D01*
X0094375Y0081248D01*
X0094367Y0081243D01*
X0094737Y0080873D01*
X0095106Y0081243D01*
X0095098Y0081248D01*
X0094962Y0081276D01*
D02*
G37*
G36*
X0094737Y0080844D02*
X0094662Y0080769D01*
X0094737Y0080694D01*
X0094812Y0080769D01*
X0094737Y0080844D01*
D02*
G37*
G36*
X0094188Y0081063D02*
X0094182Y0081055D01*
X0094155Y0080919D01*
Y0080619D01*
X0094182Y0080482D01*
X0094188Y0080474D01*
X0094482Y0080769D01*
X0094188Y0081063D01*
D02*
G37*
G36*
X0095286Y0081063D02*
X0094991Y0080769D01*
X0095286Y0080474D01*
X0095291Y0080482D01*
X0095319Y0080619D01*
Y0080919D01*
X0095291Y0081055D01*
X0095286Y0081063D01*
D02*
G37*
G36*
X0094737Y0080664D02*
X0094367Y0080295D01*
X0094375Y0080289D01*
X0094512Y0080262D01*
X0094962D01*
X0095098Y0080289D01*
X0095106Y0080295D01*
X0094737Y0080664D01*
D02*
G37*
G36*
X0090362Y0080994D02*
X0089162D01*
Y0079744D01*
X0089405D01*
Y0079094D01*
X0089162D01*
Y0077844D01*
X0090362D01*
Y0078934D01*
X0090487Y0078909D01*
X0090682Y0078948D01*
X0090847Y0079058D01*
X0090958Y0079224D01*
X0090997Y0079419D01*
X0090958Y0079614D01*
X0090847Y0079779D01*
X0090682Y007989D01*
X0090487Y0079929D01*
X0090362Y0079904D01*
Y0080012D01*
X0091247D01*
X0091254Y0079977D01*
X0091321Y0079878D01*
X009142Y0079811D01*
X0091537Y0079788D01*
X0091737D01*
X0091854Y0079811D01*
X0091953Y0079878D01*
X0091962Y0079891D01*
X0091971Y0079878D01*
X009207Y0079811D01*
X0092187Y0079788D01*
X0092387D01*
X0092504Y0079811D01*
X009258Y0079862D01*
Y0079044D01*
X0092312D01*
Y0077973D01*
X0092112Y0078173D01*
Y0079044D01*
X0091967D01*
X0091997Y0079194D01*
X0091958Y0079389D01*
X0091847Y0079554D01*
X0091682Y0079665D01*
X0091487Y0079704D01*
X0091292Y0079665D01*
X0091126Y0079554D01*
X0091016Y0079389D01*
X0090977Y0079194D01*
X0091007Y0079044D01*
X0090862D01*
Y0077844D01*
X0091432D01*
X0092255Y0077021D01*
Y0076794D01*
X0092282Y0076657D01*
X0092359Y0076541D01*
X0092475Y0076464D01*
X0092612Y0076437D01*
X0092912D01*
X0093048Y0076464D01*
X0093164Y0076541D01*
X0093241Y0076657D01*
X0093269Y0076794D01*
Y0077244D01*
X0093241Y007738D01*
X0093164Y0077496D01*
X0093048Y0077574D01*
X0092912Y0077601D01*
X0092685D01*
X0092441Y0077844D01*
X0093562D01*
Y0078862D01*
X0094078D01*
X0094085Y0078861D01*
X0094099Y0078859D01*
X0094101Y0078858D01*
X0094101Y0078858D01*
X0094267Y0078748D01*
X0094462Y0078709D01*
X0094657Y0078748D01*
X0094822Y0078858D01*
X0094933Y0079024D01*
X0094972Y0079219D01*
X0094933Y0079414D01*
X0094822Y0079579D01*
X0094657Y007969D01*
X0094462Y0079729D01*
X0094267Y007969D01*
X0094101Y0079579D01*
X0094101Y0079579D01*
X0094099Y0079579D01*
X0094088Y0079577D01*
X0094074Y0079576D01*
X0093294D01*
Y0079938D01*
X0093319Y0079977D01*
X0093343Y0080094D01*
Y0080644D01*
X0093319Y0080761D01*
X0093253Y008086D01*
X0093154Y0080926D01*
X0093037Y008095D01*
X0092837D01*
X009272Y0080926D01*
X0092621Y008086D01*
X0092612Y0080847D01*
X0092603Y008086D01*
X0092504Y0080926D01*
X0092387Y008095D01*
X0092187D01*
X009207Y0080926D01*
X0091971Y008086D01*
X0091962Y0080847D01*
X0091953Y008086D01*
X0091854Y0080926D01*
X0091737Y008095D01*
X0091537D01*
X009142Y0080926D01*
X0091321Y008086D01*
X0091254Y0080761D01*
X0091247Y0080726D01*
X0090362D01*
Y0080994D01*
D02*
G37*
G36*
Y0077644D02*
X0089162D01*
Y0076394D01*
X0090362D01*
Y0076662D01*
X0090781D01*
X0090782Y0076657D01*
X0090859Y0076541D01*
X0090975Y0076464D01*
X0091112Y0076437D01*
X0091412D01*
X0091548Y0076464D01*
X0091664Y0076541D01*
X0091741Y0076657D01*
X0091769Y0076794D01*
Y0077244D01*
X0091741Y007738D01*
X0091664Y0077496D01*
X0091548Y0077574D01*
X0091412Y0077601D01*
X0091112D01*
X0090975Y0077574D01*
X0090859Y0077496D01*
X0090782Y007738D01*
X0090781Y0077376D01*
X0090362D01*
Y0077644D01*
D02*
G37*
%LPD*%
G36*
X0090898Y0088409D02*
X0090885Y008842D01*
X009087Y008843D01*
X0090853Y0088439D01*
X0090833Y0088447D01*
X0090812Y0088454D01*
X0090788Y0088459D01*
X0090762Y0088463D01*
X0090734Y0088466D01*
X0090672Y0088469D01*
Y0088769D01*
X0090704Y0088769D01*
X0090762Y0088774D01*
X0090788Y0088778D01*
X0090812Y0088784D01*
X0090833Y008879D01*
X0090853Y0088798D01*
X009087Y0088807D01*
X0090885Y0088817D01*
X0090898Y0088829D01*
Y0088409D01*
D02*
G37*
G36*
X0094173Y0086434D02*
X009416Y0086445D01*
X0094145Y0086455D01*
X0094128Y0086464D01*
X0094108Y0086472D01*
X0094087Y0086479D01*
X0094063Y0086484D01*
X0094037Y0086488D01*
X0094009Y0086491D01*
X0093947Y0086494D01*
Y0086794D01*
X0093979Y0086794D01*
X0094037Y0086799D01*
X0094063Y0086803D01*
X0094087Y0086809D01*
X0094108Y0086815D01*
X0094128Y0086823D01*
X0094145Y0086832D01*
X009416Y0086842D01*
X0094173Y0086854D01*
Y0086434D01*
D02*
G37*
G36*
X0094248Y0079009D02*
X0094235Y007902D01*
X009422Y007903D01*
X0094203Y0079039D01*
X0094183Y0079047D01*
X0094162Y0079054D01*
X0094138Y0079059D01*
X0094112Y0079063D01*
X0094084Y0079066D01*
X0094022Y0079069D01*
Y0079369D01*
X0094054Y0079369D01*
X0094112Y0079374D01*
X0094138Y0079378D01*
X0094162Y0079384D01*
X0094183Y007939D01*
X0094203Y0079398D01*
X009422Y0079407D01*
X0094235Y0079417D01*
X0094248Y0079429D01*
Y0079009D01*
D02*
G37*
G36*
X0091685Y0078967D02*
X0091675Y0078952D01*
X0091666Y0078935D01*
X0091658Y0078915D01*
X0091652Y0078894D01*
X0091646Y007887D01*
X0091642Y0078844D01*
X0091639Y0078816D01*
X0091637Y0078754D01*
X0091337D01*
X0091336Y0078786D01*
X0091331Y0078844D01*
X0091327Y007887D01*
X0091322Y0078894D01*
X0091315Y0078915D01*
X0091307Y0078935D01*
X0091298Y0078952D01*
X0091288Y0078967D01*
X0091277Y007898D01*
X0091697D01*
X0091685Y0078967D01*
D02*
G37*
%LPC*%
G36*
X0103682Y0089219D02*
X0102841D01*
X0103262Y0088798D01*
X0103682Y0089219D01*
D02*
G37*
G36*
X0102182D02*
X0101341D01*
X0101762Y0088798D01*
X0102182Y0089219D01*
D02*
G37*
G36*
X0103262Y0088619D02*
X0103237Y0088594D01*
X0103262Y0088569D01*
X0103287Y0088594D01*
X0103262Y0088619D01*
D02*
G37*
G36*
X0101762D02*
X0101737Y0088594D01*
X0101762Y0088569D01*
X0101787Y0088594D01*
X0101762Y0088619D01*
D02*
G37*
G36*
X0103862Y0089039D02*
X0103416Y0088594D01*
X0103862Y0088148D01*
Y0089039D01*
D02*
G37*
G36*
X0102362D02*
X0101916Y0088594D01*
X0102362Y0088148D01*
Y0089039D01*
D02*
G37*
G36*
X0102662Y0089039D02*
Y0088148D01*
X0103107Y0088594D01*
X0102662Y0089039D01*
D02*
G37*
G36*
X0101162D02*
Y0088148D01*
X0101607Y0088594D01*
X0101162Y0089039D01*
D02*
G37*
G36*
X0103262Y0088389D02*
X0102841Y0087969D01*
X0103682D01*
X0103262Y0088389D01*
D02*
G37*
G36*
X0101762D02*
X0101341Y0087969D01*
X0102182D01*
X0101762Y0088389D01*
D02*
G37*
G36*
X0100837Y0089219D02*
X0099637D01*
Y0087969D01*
X009988D01*
Y0087744D01*
X0099662D01*
Y0086544D01*
X0100382D01*
X0100405Y0086521D01*
Y0086152D01*
X0100359Y0086121D01*
X0100282Y0086005D01*
X0100255Y0085869D01*
Y0085419D01*
X0100282Y0085282D01*
X0100359Y0085166D01*
X0100405Y0085136D01*
Y0084827D01*
X0100359Y0084796D01*
X0100282Y008468D01*
X0100255Y0084544D01*
Y0084094D01*
X0100282Y0083957D01*
X0100359Y0083841D01*
X0100405Y0083811D01*
Y0083792D01*
X0100084Y0083471D01*
X0100007Y0083355D01*
X009998Y0083219D01*
Y0082674D01*
X009985Y0082648D01*
X0099734Y0082571D01*
X0099657Y0082455D01*
X009963Y0082319D01*
Y0082019D01*
X0099657Y0081882D01*
X0099734Y0081766D01*
X0099843Y0081694D01*
X0099734Y0081621D01*
X0099657Y0081505D01*
X009963Y0081369D01*
Y0081069D01*
X0099657Y0080932D01*
X0099734Y0080816D01*
X0099843Y0080744D01*
X0099734Y0080671D01*
X0099704Y0080626D01*
X0099112D01*
Y0080844D01*
X0097912D01*
Y0080526D01*
X009752D01*
X0097489Y0080571D01*
X0097373Y0080648D01*
X0097237Y0080676D01*
X0096787D01*
X009665Y0080648D01*
X0096534Y0080571D01*
X0096457Y0080455D01*
X009643Y0080319D01*
Y0080019D01*
X0096457Y0079882D01*
X0096534Y0079766D01*
X009665Y0079689D01*
X0096787Y0079662D01*
X0097237D01*
X0097373Y0079689D01*
X0097489Y0079766D01*
X009752Y0079812D01*
X0097912D01*
Y0079594D01*
X0099112D01*
Y0079912D01*
X0099704D01*
X0099734Y0079866D01*
X009985Y0079789D01*
X009998Y0079763D01*
Y0079194D01*
X0099762D01*
Y0077944D01*
X0100962D01*
Y0079194D01*
X0100694D01*
Y0079763D01*
X0100823Y0079789D01*
X0100939Y0079866D01*
X0101016Y0079982D01*
X0101044Y0080119D01*
Y0080419D01*
X0101016Y0080555D01*
X0100939Y0080671D01*
X010083Y0080744D01*
X0100939Y0080816D01*
X0101016Y0080932D01*
X0101044Y0081069D01*
Y0081369D01*
X0101016Y0081505D01*
X0100939Y0081621D01*
X010083Y0081694D01*
X0100939Y0081766D01*
X0101016Y0081882D01*
X0101044Y0082019D01*
Y0082319D01*
X0101016Y0082455D01*
X0100939Y0082571D01*
X0100823Y0082648D01*
X0100694Y0082674D01*
Y0083071D01*
X0101014Y0083391D01*
X0101091Y0083507D01*
X0101119Y0083644D01*
Y0083811D01*
X0101164Y0083841D01*
X0101241Y0083957D01*
X0101269Y0084094D01*
Y0084544D01*
X0101241Y008468D01*
X0101164Y0084796D01*
X0101119Y0084827D01*
Y0085136D01*
X0101164Y0085166D01*
X0101241Y0085282D01*
X0101269Y0085419D01*
Y0085869D01*
X0101241Y0086005D01*
X0101164Y0086121D01*
X0101119Y0086152D01*
Y0086544D01*
X0102362D01*
Y0086787D01*
X0102662D01*
Y0086519D01*
X0103862D01*
Y0086676D01*
X0103867Y0086673D01*
X0104062Y0086634D01*
X0104257Y0086673D01*
X0104422Y0086783D01*
X0104533Y0086949D01*
X0104572Y0087144D01*
X0104533Y0087339D01*
X0104422Y0087504D01*
X0104257Y0087615D01*
X0104062Y0087654D01*
X0103867Y0087615D01*
X0103862Y0087612D01*
Y0087769D01*
X0102662D01*
Y0087501D01*
X0102362D01*
Y0087744D01*
X0101112D01*
Y0086703D01*
X0101091Y0086805D01*
X0101014Y0086921D01*
X0100912Y0087023D01*
Y0087744D01*
X0100594D01*
Y0087969D01*
X0100837D01*
Y0089219D01*
D02*
G37*
G36*
X0102412Y0086226D02*
X0102112D01*
X0101975Y0086199D01*
X0101967Y0086193D01*
X0102262Y0085898D01*
X0102556Y0086193D01*
X0102548Y0086199D01*
X0102412Y0086226D01*
D02*
G37*
G36*
X0102262Y0085719D02*
X0102187Y0085644D01*
X0102262Y0085569D01*
X0102337Y0085644D01*
X0102262Y0085719D01*
D02*
G37*
G36*
X0102736Y0086013D02*
X0102366Y0085644D01*
X0102736Y0085274D01*
X0102741Y0085282D01*
X0102769Y0085419D01*
Y0085869D01*
X0102741Y0086005D01*
X0102736Y0086013D01*
D02*
G37*
G36*
X0101788Y0086013D02*
X0101782Y0086005D01*
X0101755Y0085869D01*
Y0085419D01*
X0101782Y0085282D01*
X0101788Y0085274D01*
X0102157Y0085644D01*
X0101788Y0086013D01*
D02*
G37*
G36*
X0102262Y0085389D02*
X0101967Y0085095D01*
X0101975Y0085089D01*
X0102112Y0085062D01*
X0102412D01*
X0102548Y0085089D01*
X0102556Y0085095D01*
X0102262Y0085389D01*
D02*
G37*
G36*
X0102412Y0084901D02*
X0102112D01*
X0101975Y0084873D01*
X0101967Y0084868D01*
X0102262Y0084573D01*
X0102556Y0084868D01*
X0102548Y0084873D01*
X0102412Y0084901D01*
D02*
G37*
G36*
X0102262Y0084394D02*
X0102187Y0084319D01*
X0102262Y0084244D01*
X0102337Y0084319D01*
X0102262Y0084394D01*
D02*
G37*
G36*
X0102736Y0084688D02*
X0102366Y0084319D01*
X0102736Y0083949D01*
X0102741Y0083957D01*
X0102769Y0084094D01*
Y0084544D01*
X0102741Y008468D01*
X0102736Y0084688D01*
D02*
G37*
G36*
X0101788D02*
X0101782Y008468D01*
X0101755Y0084544D01*
Y0084094D01*
X0101782Y0083957D01*
X0101788Y0083949D01*
X0102157Y0084319D01*
X0101788Y0084688D01*
D02*
G37*
G36*
X0102262Y0084064D02*
X0101967Y008377D01*
X0101975Y0083764D01*
X0102112Y0083737D01*
X0102412D01*
X0102548Y0083764D01*
X0102556Y008377D01*
X0102262Y0084064D01*
D02*
G37*
G36*
X0104912Y0081726D02*
X0104462D01*
X0104325Y0081699D01*
X0104317Y0081693D01*
X0104687Y0081323D01*
X0105056Y0081693D01*
X0105048Y0081699D01*
X0104912Y0081726D01*
D02*
G37*
G36*
X0104687Y0081294D02*
X0104612Y0081219D01*
X0104687Y0081144D01*
X0104762Y0081219D01*
X0104687Y0081294D01*
D02*
G37*
G36*
X0103611Y0081513D02*
X0103316Y0081219D01*
X0103611Y0080924D01*
X0103616Y0080932D01*
X0103644Y0081069D01*
Y0081369D01*
X0103616Y0081505D01*
X0103611Y0081513D01*
D02*
G37*
G36*
X0105236Y0081513D02*
X0104941Y0081219D01*
X0105236Y0080924D01*
X0105241Y0080932D01*
X0105269Y0081069D01*
Y0081369D01*
X0105241Y0081505D01*
X0105236Y0081513D01*
D02*
G37*
G36*
X0102263Y0081513D02*
X0102257Y0081505D01*
X010223Y0081369D01*
Y0081069D01*
X0102257Y0080932D01*
X0102263Y0080924D01*
X0102557Y0081219D01*
X0102263Y0081513D01*
D02*
G37*
G36*
X0104138D02*
X0104132Y0081505D01*
X0104105Y0081369D01*
Y0081069D01*
X0104132Y0080932D01*
X0104138Y0080924D01*
X0104432Y0081219D01*
X0104138Y0081513D01*
D02*
G37*
G36*
X0104687Y0081114D02*
X0104317Y0080745D01*
X0104325Y0080739D01*
X0104462Y0080712D01*
X0104912D01*
X0105048Y0080739D01*
X0105056Y0080745D01*
X0104687Y0081114D01*
D02*
G37*
G36*
X0102937Y0083329D02*
X0102742Y008329D01*
X0102576Y0083179D01*
X0102466Y0083014D01*
X0102427Y0082819D01*
X010246Y0082651D01*
X010245Y0082648D01*
X0102334Y0082571D01*
X0102257Y0082455D01*
X010223Y0082319D01*
Y0082019D01*
X0102257Y0081882D01*
X0102334Y0081766D01*
X0102443Y0081694D01*
X0102442Y0081693D01*
X0102827Y0081309D01*
X0102737Y0081219D01*
X0102827Y0081129D01*
X0102442Y0080745D01*
X0102443Y0080744D01*
X0102347Y008068D01*
X0102257Y008074D01*
X0102062Y0080779D01*
X0101867Y008074D01*
X0101701Y0080629D01*
X0101591Y0080464D01*
X0101552Y0080269D01*
X0101591Y0080074D01*
X0101701Y0079908D01*
X0101867Y0079798D01*
X0102062Y0079759D01*
X0102257Y0079798D01*
X0102347Y0079858D01*
X010245Y0079789D01*
X0102587Y0079762D01*
X0102939D01*
X0103234Y0079466D01*
X010335Y0079389D01*
X0103487Y0079362D01*
X0104179D01*
X0104209Y0079316D01*
X0104325Y0079239D01*
X0104462Y0079212D01*
X0104912D01*
X0105048Y0079239D01*
X0105164Y0079316D01*
X0105241Y0079432D01*
X0105269Y0079569D01*
Y0079869D01*
X0105241Y0080005D01*
X0105164Y0080121D01*
X0105048Y0080199D01*
X0104912Y0080226D01*
X0104462D01*
X0104325Y0080199D01*
X0104209Y0080121D01*
X0104179Y0080076D01*
X0103635D01*
X0103644Y0080119D01*
Y0080419D01*
X0103616Y0080555D01*
X0103539Y0080671D01*
X010343Y0080744D01*
X0103431Y0080745D01*
X0103047Y0081129D01*
X0103137Y0081219D01*
X0103047Y0081309D01*
X0103431Y0081693D01*
X010343Y0081694D01*
X0103539Y0081766D01*
X0103616Y0081882D01*
X0103644Y0082019D01*
Y0082319D01*
X0103616Y0082455D01*
X0103539Y0082571D01*
X0103423Y0082648D01*
X0103413Y0082651D01*
X0103447Y0082819D01*
X0103408Y0083014D01*
X0103297Y0083179D01*
X0103132Y008329D01*
X0102937Y0083329D01*
D02*
G37*
G36*
X0102287Y0079126D02*
X0101837D01*
X01017Y0079099D01*
X0101692Y0079093D01*
X0102062Y0078723D01*
X0102431Y0079093D01*
X0102423Y0079099D01*
X0102287Y0079126D01*
D02*
G37*
G36*
X0102062Y0078694D02*
X0101987Y0078619D01*
X0102062Y0078544D01*
X0102137Y0078619D01*
X0102062Y0078694D01*
D02*
G37*
G36*
X0102611Y0078913D02*
X0102316Y0078619D01*
X0102611Y0078324D01*
X0102616Y0078332D01*
X0102644Y0078469D01*
Y0078769D01*
X0102616Y0078905D01*
X0102611Y0078913D01*
D02*
G37*
G36*
X0101513Y0078913D02*
X0101507Y0078905D01*
X010148Y0078769D01*
Y0078469D01*
X0101507Y0078332D01*
X0101513Y0078324D01*
X0101807Y0078619D01*
X0101513Y0078913D01*
D02*
G37*
G36*
X0102062Y0078514D02*
X0101692Y0078145D01*
X01017Y0078139D01*
X0101837Y0078112D01*
X0102287D01*
X0102423Y0078139D01*
X0102431Y0078145D01*
X0102062Y0078514D01*
D02*
G37*
G36*
X0100962Y0077744D02*
X0099762D01*
Y007752D01*
X0099657Y007759D01*
X0099462Y0077629D01*
X0099267Y007759D01*
X0099101Y0077479D01*
X0098991Y0077314D01*
X0098952Y0077119D01*
X0098991Y0076924D01*
X0099101Y0076758D01*
X0099267Y0076648D01*
X0099462Y0076609D01*
X0099657Y0076648D01*
X0099762Y0076718D01*
Y0076494D01*
X0100962D01*
Y0076762D01*
X0101554D01*
X0101584Y0076716D01*
X01017Y0076639D01*
X0101837Y0076612D01*
X0102287D01*
X0102423Y0076639D01*
X0102539Y0076716D01*
X0102616Y0076832D01*
X0102644Y0076969D01*
Y0077269D01*
X0102616Y0077405D01*
X0102539Y0077521D01*
X0102423Y0077599D01*
X0102287Y0077626D01*
X0101837D01*
X01017Y0077599D01*
X0101584Y0077521D01*
X0101554Y0077476D01*
X0100962D01*
Y0077744D01*
D02*
G37*
%LPD*%
G36*
X0103848Y0086934D02*
X0103835Y0086945D01*
X010382Y0086955D01*
X0103803Y0086964D01*
X0103783Y0086972D01*
X0103762Y0086979D01*
X0103738Y0086984D01*
X0103712Y0086988D01*
X0103684Y0086991D01*
X0103622Y0086994D01*
Y0087294D01*
X0103654Y0087294D01*
X0103712Y0087299D01*
X0103738Y0087303D01*
X0103762Y0087309D01*
X0103783Y0087315D01*
X0103803Y0087323D01*
X010382Y0087332D01*
X0103835Y0087342D01*
X0103848Y0087354D01*
Y0086934D01*
D02*
G37*
G36*
X0103135Y0082592D02*
X0103125Y0082577D01*
X0103116Y008256D01*
X0103108Y008254D01*
X0103102Y0082519D01*
X0103096Y0082495D01*
X0103092Y0082469D01*
X0103089Y0082441D01*
X0103087Y0082379D01*
X0102787D01*
X0102786Y0082411D01*
X0102781Y0082469D01*
X0102777Y0082495D01*
X0102772Y0082519D01*
X0102765Y008254D01*
X0102757Y008256D01*
X0102748Y0082577D01*
X0102738Y0082592D01*
X0102727Y0082605D01*
X0103147D01*
X0103135Y0082592D01*
D02*
G37*
G36*
X0102289Y0080467D02*
X0102304Y0080457D01*
X0102321Y0080448D01*
X010234Y008044D01*
X0102362Y0080434D01*
X0102385Y0080428D01*
X0102411Y0080424D01*
X0102439Y0080421D01*
X0102502Y0080419D01*
X0102502Y0080119D01*
X0102469Y0080118D01*
X0102411Y0080113D01*
X0102385Y0080109D01*
X0102362Y0080104D01*
X010234Y0080097D01*
X0102321Y0080089D01*
X0102304Y008008D01*
X0102289Y008007D01*
X0102276Y0080059D01*
X0102276Y0080479D01*
X0102289Y0080467D01*
D02*
G37*
G36*
X0099689Y0077317D02*
X0099704Y0077307D01*
X0099721Y0077298D01*
X009974Y007729D01*
X0099762Y0077284D01*
X0099785Y0077278D01*
X0099811Y0077274D01*
X0099839Y0077271D01*
X0099902Y0077269D01*
Y0076969D01*
X0099869Y0076968D01*
X0099811Y0076963D01*
X0099785Y0076959D01*
X0099762Y0076954D01*
X009974Y0076947D01*
X0099721Y0076939D01*
X0099704Y007693D01*
X0099689Y007692D01*
X0099676Y0076909D01*
Y0077329D01*
X0099689Y0077317D01*
D02*
G37*
%LPC*%
G36*
X0090337Y0074794D02*
X0089137D01*
Y0073544D01*
X0090337D01*
Y007365D01*
X0090449Y007371D01*
X0090467Y0073698D01*
X0090662Y0073659D01*
X0090857Y0073698D01*
X0091022Y0073808D01*
X0091133Y0073974D01*
X0091172Y0074169D01*
X0091133Y0074364D01*
X0091022Y0074529D01*
X0090857Y007464D01*
X0090662Y0074679D01*
X0090467Y007464D01*
X0090449Y0074628D01*
X0090337Y0074688D01*
Y0074794D01*
D02*
G37*
G36*
Y0073344D02*
X0089137D01*
Y0072094D01*
X008938D01*
Y0071969D01*
X0089379Y0071962D01*
X0089377Y007195D01*
X0089376Y0071946D01*
X0089351Y0071929D01*
X0089241Y0071764D01*
X0089202Y0071569D01*
X0089241Y0071374D01*
X0089351Y0071208D01*
X0089517Y0071098D01*
X0089712Y0071059D01*
X0089907Y0071098D01*
X0090072Y0071208D01*
X0090183Y0071374D01*
X0090222Y0071569D01*
X0090183Y0071764D01*
X0090106Y0071879D01*
X0090106Y0071879D01*
X0090105Y007188D01*
X0090105Y0071882D01*
X0090102Y0071887D01*
X0090101Y0071888D01*
X0090101Y007189D01*
X0090099Y0071898D01*
X0090096Y007191D01*
X0090094Y0071923D01*
X0090094Y0071934D01*
Y0072094D01*
X0090337D01*
Y0072152D01*
X0090464Y0072254D01*
X0090562Y0072234D01*
X0090757Y0072273D01*
X0090922Y0072383D01*
X0091033Y0072549D01*
X0091072Y0072744D01*
X0091033Y0072939D01*
X0090922Y0073104D01*
X0090757Y0073215D01*
X0090562Y0073254D01*
X0090464Y0073234D01*
X0090337Y0073336D01*
Y0073344D01*
D02*
G37*
G36*
X0089187Y0059702D02*
X0088939Y0059669D01*
X0088708Y0059574D01*
X0088611Y0059499D01*
X0089277Y0058834D01*
X0089942Y0058168D01*
X0090017Y0058265D01*
X0090112Y0058496D01*
X0090145Y0058744D01*
X0090112Y0058992D01*
X0090017Y0059223D01*
X0089864Y0059421D01*
X0089666Y0059574D01*
X0089435Y0059669D01*
X0089187Y0059702D01*
D02*
G37*
G36*
X0088431Y005932D02*
X0088357Y0059223D01*
X0088261Y0058992D01*
X0088229Y0058744D01*
X0088261Y0058496D01*
X0088357Y0058265D01*
X0088509Y0058066D01*
X0088708Y0057914D01*
X0088939Y0057818D01*
X0089187Y0057786D01*
X0089435Y0057818D01*
X0089666Y0057914D01*
X0089763Y0057988D01*
X0089097Y0058654D01*
X0088431Y005932D01*
D02*
G37*
G36*
X0092037Y0059677D02*
X0091789Y0059644D01*
X0091558Y0059549D01*
X0091359Y0059396D01*
X0091207Y0059198D01*
X0091111Y0058967D01*
X0091079Y0058719D01*
X0091111Y0058471D01*
X0091207Y005824D01*
X0091359Y0058041D01*
X0091558Y0057889D01*
X0091789Y0057793D01*
X0092037Y0057761D01*
X0092285Y0057793D01*
X0092516Y0057889D01*
X0092714Y0058041D01*
X0092867Y005824D01*
X0092962Y0058471D01*
X0092995Y0058719D01*
X0092962Y0058967D01*
X0092867Y0059198D01*
X0092714Y0059396D01*
X0092516Y0059549D01*
X0092285Y0059644D01*
X0092037Y0059677D01*
D02*
G37*
%LPD*%
G36*
X0090448Y0073959D02*
X0090435Y007397D01*
X009042Y007398D01*
X0090403Y0073989D01*
X0090383Y0073997D01*
X0090362Y0074004D01*
X0090338Y0074009D01*
X0090312Y0074013D01*
X0090284Y0074016D01*
X0090222Y0074019D01*
Y0074319D01*
X0090254Y0074319D01*
X0090312Y0074324D01*
X0090338Y0074328D01*
X0090362Y0074334D01*
X0090383Y007434D01*
X0090403Y0074348D01*
X009042Y0074357D01*
X0090435Y0074367D01*
X0090448Y0074379D01*
Y0073959D01*
D02*
G37*
G36*
X0089887Y0071992D02*
X0089887Y007196D01*
X0089891Y0071902D01*
X0089895Y0071876D01*
X00899Y0071852D01*
X0089906Y007183D01*
X0089912Y0071811D01*
X008992Y0071793D01*
X0089929Y0071778D01*
X0089939Y0071765D01*
X008952Y00718D01*
X0089533Y0071812D01*
X0089544Y0071826D01*
X0089554Y0071843D01*
X0089563Y0071862D01*
X008957Y0071883D01*
X0089576Y0071906D01*
X0089581Y0071932D01*
X0089584Y0071959D01*
X0089586Y0071989D01*
X0089587Y0072022D01*
X0089887Y0071992D01*
D02*
G37*
%LPC*%
G36*
X0104912Y0074869D02*
X0103712D01*
Y0074601D01*
X0103574D01*
X0103549Y0074603D01*
X0103537Y0074605D01*
X0103527Y0074607D01*
X0103523Y0074608D01*
X0103522Y0074609D01*
X0103517Y0074611D01*
X0103515Y0074612D01*
X0103512Y0074613D01*
X0103507Y0074615D01*
X0103432Y0074665D01*
X0103237Y0074704D01*
X0103042Y0074665D01*
X0102876Y0074554D01*
X0102766Y0074389D01*
X0102727Y0074194D01*
X0102766Y0073999D01*
X0102876Y0073833D01*
X0103042Y0073723D01*
X0103237Y0073684D01*
X0103432Y0073723D01*
X0103585Y0073825D01*
X0103643Y0073811D01*
X0103712Y0073776D01*
Y0073619D01*
X0104912D01*
Y0074869D01*
D02*
G37*
G36*
Y0073419D02*
X0103712D01*
Y0073353D01*
X0103585Y0073274D01*
X0103437Y0073304D01*
X0103242Y0073265D01*
X0103076Y0073154D01*
X0102966Y0072989D01*
X0102927Y0072794D01*
X0102966Y0072599D01*
X0103076Y0072433D01*
X0103242Y0072323D01*
X0103437Y0072284D01*
X0103585Y0072313D01*
X0103712Y0072235D01*
Y0072169D01*
X0104912D01*
Y0073419D01*
D02*
G37*
G36*
X0104462Y0071879D02*
X0104267Y007184D01*
X0104101Y0071729D01*
X0103991Y0071564D01*
X0103952Y0071369D01*
X0103991Y0071174D01*
X0104101Y0071008D01*
X0104267Y0070898D01*
X0104462Y0070859D01*
X0104657Y0070898D01*
X0104822Y0071008D01*
X0104933Y0071174D01*
X0104972Y0071369D01*
X0104933Y0071564D01*
X0104822Y0071729D01*
X0104657Y007184D01*
X0104462Y0071879D01*
D02*
G37*
G36*
X0101987Y0059702D02*
X0101739Y0059669D01*
X0101508Y0059574D01*
X0101309Y0059421D01*
X0101157Y0059223D01*
X0101061Y0058992D01*
X0101029Y0058744D01*
X0101061Y0058496D01*
X0101157Y0058265D01*
X0101309Y0058066D01*
X0101508Y0057914D01*
X0101739Y0057818D01*
X0101987Y0057786D01*
X0102235Y0057818D01*
X0102466Y0057914D01*
X0102664Y0058066D01*
X0102817Y0058265D01*
X0102912Y0058496D01*
X0102945Y0058744D01*
X0102912Y0058992D01*
X0102817Y0059223D01*
X0102664Y0059421D01*
X0102466Y0059574D01*
X0102235Y0059669D01*
X0101987Y0059702D01*
D02*
G37*
G36*
X0104762Y0059652D02*
X0104514Y0059619D01*
X0104283Y0059524D01*
X0104084Y0059371D01*
X0103932Y0059173D01*
X0103836Y0058942D01*
X0103804Y0058694D01*
X0103836Y0058446D01*
X0103932Y0058215D01*
X0104084Y0058016D01*
X0104283Y0057864D01*
X0104514Y0057768D01*
X0104762Y0057736D01*
X010501Y0057768D01*
X0105241Y0057864D01*
X0105439Y0058016D01*
X0105592Y0058215D01*
X0105687Y0058446D01*
X010572Y0058694D01*
X0105687Y0058942D01*
X0105592Y0059173D01*
X0105439Y0059371D01*
X0105241Y0059524D01*
X010501Y0059619D01*
X0104762Y0059652D01*
D02*
G37*
%LPD*%
G36*
X0103426Y0074428D02*
X0103441Y0074421D01*
X0103458Y0074415D01*
X0103478Y0074409D01*
X0103499Y0074405D01*
X0103523Y0074401D01*
X0103577Y0074396D01*
X010364Y0074394D01*
X01037Y0074094D01*
X0103667Y0074093D01*
X010361Y0074087D01*
X0103585Y0074082D01*
X0103562Y0074076D01*
X0103542Y0074068D01*
X0103523Y0074059D01*
X0103508Y0074048D01*
X0103494Y0074036D01*
X0103483Y0074022D01*
X0103413Y0074437D01*
X0103426Y0074428D01*
D02*
G37*
G36*
X0103664Y0072992D02*
X0103679Y0072982D01*
X0103696Y0072973D01*
X0103715Y0072965D01*
X0103737Y0072959D01*
X010376Y0072953D01*
X0103786Y0072949D01*
X0103814Y0072946D01*
X0103877Y0072944D01*
Y0072644D01*
X0103844Y0072643D01*
X0103786Y0072638D01*
X010376Y0072634D01*
X0103737Y0072629D01*
X0103715Y0072622D01*
X0103696Y0072614D01*
X0103679Y0072605D01*
X0103664Y0072595D01*
X0103651Y0072584D01*
Y0073004D01*
X0103664Y0072992D01*
D02*
G37*
D10*
X0112062Y0123194D02*
D03*
X0113562D02*
D03*
X0088187Y0115144D02*
D03*
X0086687D02*
D03*
X0083987Y0103844D02*
D03*
X0085487D02*
D03*
X0085262Y0111394D02*
D03*
X0083762D02*
D03*
X0091312Y0100644D02*
D03*
X0092812D02*
D03*
X0096512Y0098369D02*
D03*
X0095012D02*
D03*
X0100762Y0085644D02*
D03*
X0102262D02*
D03*
X0100762Y0084319D02*
D03*
X0102262D02*
D03*
X0097812Y0087044D02*
D03*
X0096312D02*
D03*
X0091262Y0077019D02*
D03*
X0092762D02*
D03*
X0088937Y0088619D02*
D03*
X0090437D02*
D03*
X0088412Y0130244D02*
D03*
X0086912D02*
D03*
D12*
X0107862Y0121069D02*
D03*
Y0119619D02*
D03*
X0105462Y0120094D02*
D03*
Y0121544D02*
D03*
X0106787Y0127369D02*
D03*
Y0128819D02*
D03*
X0087462Y0116919D02*
D03*
Y0118369D02*
D03*
X0084037Y0100694D02*
D03*
Y0102144D02*
D03*
X0093137Y0104119D02*
D03*
Y0105569D02*
D03*
X0091512Y0104094D02*
D03*
Y0105544D02*
D03*
X0099087Y0104444D02*
D03*
Y0105894D02*
D03*
X0100737Y0105944D02*
D03*
Y0104494D02*
D03*
X0104312Y0072794D02*
D03*
Y0074244D02*
D03*
X0089737Y0072719D02*
D03*
Y0074169D02*
D03*
X0103262Y0087144D02*
D03*
Y0088594D02*
D03*
X0098512Y0080219D02*
D03*
Y0081669D02*
D03*
X0100237Y0090044D02*
D03*
Y0088594D02*
D03*
X0101762D02*
D03*
Y0090044D02*
D03*
X0100362Y0078569D02*
D03*
Y0077119D02*
D03*
X0095487Y0085469D02*
D03*
Y0084019D02*
D03*
X0089762Y0085744D02*
D03*
Y0084294D02*
D03*
Y0078469D02*
D03*
Y0077019D02*
D03*
X0095362Y0090044D02*
D03*
Y0088594D02*
D03*
X0096962Y0090044D02*
D03*
Y0088594D02*
D03*
X0089762Y0081819D02*
D03*
Y0080369D02*
D03*
X0093737Y0088594D02*
D03*
Y0090044D02*
D03*
X0098562Y0088594D02*
D03*
Y0090044D02*
D03*
X0083412Y0133344D02*
D03*
Y0131894D02*
D03*
X0081637Y0126844D02*
D03*
Y0128294D02*
D03*
D13*
X0111037Y0110394D02*
D03*
X0109587D02*
D03*
X0112062Y0125119D02*
D03*
X0110612D02*
D03*
X0103812Y0120819D02*
D03*
X0102362D02*
D03*
X0103762Y0118869D02*
D03*
X0102312D02*
D03*
X0101737Y0087144D02*
D03*
X0100287D02*
D03*
X0091487Y0078444D02*
D03*
X0092937D02*
D03*
X0088987Y0090044D02*
D03*
X0090437D02*
D03*
X0083087Y0125019D02*
D03*
X0081637D02*
D03*
D14*
X0087787Y0102144D02*
D03*
Y0101494D02*
D03*
Y0100844D02*
D03*
X0085887D02*
D03*
Y0101494D02*
D03*
Y0102144D02*
D03*
D15*
X0104637Y0126369D02*
D03*
X0103337D02*
D03*
X0103987Y0128269D02*
D03*
X0110737Y0129269D02*
D03*
X0111387D02*
D03*
X0112037D02*
D03*
Y0127369D02*
D03*
X0110737D02*
D03*
X0090787Y0111269D02*
D03*
X0090137D02*
D03*
X0089487D02*
D03*
Y0113169D02*
D03*
X0090137D02*
D03*
X0090787D02*
D03*
X0088112Y0111419D02*
D03*
X0087462D02*
D03*
X0086812D02*
D03*
Y0113319D02*
D03*
X0087462D02*
D03*
X0088112D02*
D03*
X0084012Y0107919D02*
D03*
X0084662D02*
D03*
X0085312D02*
D03*
Y0106019D02*
D03*
X0084662D02*
D03*
X0084012D02*
D03*
X0086587Y0105969D02*
D03*
X0087887D02*
D03*
X0087237Y0104069D02*
D03*
X0085012Y0113344D02*
D03*
X0083712D02*
D03*
X0084362Y0115244D02*
D03*
X0086812Y0109919D02*
D03*
X0087462D02*
D03*
X0088112D02*
D03*
Y0108019D02*
D03*
X0087462D02*
D03*
X0086812D02*
D03*
X0082262Y0100544D02*
D03*
X0081612D02*
D03*
X0080962D02*
D03*
Y0102444D02*
D03*
X0081612D02*
D03*
X0082262D02*
D03*
X0092937Y0082269D02*
D03*
X0092287D02*
D03*
X0091637D02*
D03*
Y0080369D02*
D03*
X0092287D02*
D03*
X0092937D02*
D03*
X0087537Y0131769D02*
D03*
X0086887D02*
D03*
X0086237D02*
D03*
Y0133669D02*
D03*
X0086887D02*
D03*
X0087537D02*
D03*
D16*
X0101187Y0127644D02*
D03*
Y0129144D02*
D03*
X0108662Y0128869D02*
D03*
Y0127369D02*
D03*
X0113687Y0128869D02*
D03*
Y0127369D02*
D03*
X0089462Y0105944D02*
D03*
Y0104444D02*
D03*
X0085762Y0118419D02*
D03*
Y0116919D02*
D03*
X0096512Y0117219D02*
D03*
Y0118719D02*
D03*
X0097887Y0121619D02*
D03*
Y0120119D02*
D03*
X0097912Y0117219D02*
D03*
Y0118719D02*
D03*
X0102337Y0105944D02*
D03*
Y0104444D02*
D03*
X0094912Y0106769D02*
D03*
Y0108269D02*
D03*
X0104687Y0079719D02*
D03*
Y0081219D02*
D03*
X0097012Y0080169D02*
D03*
Y0081669D02*
D03*
X0102062Y0077119D02*
D03*
Y0078619D02*
D03*
X0094737Y0082269D02*
D03*
Y0080769D02*
D03*
X0097112Y0085519D02*
D03*
Y0084019D02*
D03*
X0083187Y0126819D02*
D03*
Y0128319D02*
D03*
D19*
X0111487Y0113019D02*
D03*
X0110537D02*
D03*
X0109587D02*
D03*
Y0115619D02*
D03*
X0110537D02*
D03*
X0111487D02*
D03*
X0091337Y0086644D02*
D03*
X0092287D02*
D03*
X0093237D02*
D03*
Y0084044D02*
D03*
X0092287D02*
D03*
X0091337D02*
D03*
D31*
X0096187Y0102169D02*
X0096693Y0102675D01*
X0096187Y0100444D02*
Y0102169D01*
X0095737Y0099994D02*
X0096187Y0100444D01*
X0097262Y0103644D02*
Y0104244D01*
X0096693Y0102675D02*
X0097493D01*
X0098187Y0103369D01*
X0088437Y0131094D02*
Y0131619D01*
Y0130219D02*
Y0131094D01*
X0086237Y0133669D02*
Y0134794D01*
X0088437Y0131094D02*
X0089437D01*
X0086837Y0126844D02*
X0088387D01*
Y0128844D02*
X0089587D01*
X0087537Y0131769D02*
X0088287D01*
X0088437Y0131619D01*
Y0130219D02*
X0089512D01*
X0089687Y0130044D01*
Y0127844D02*
Y0130044D01*
X0088387Y0127844D02*
X0089687D01*
X0081687Y0128344D02*
X0085237D01*
X0081637Y0129244D02*
X0081637Y0129244D01*
Y0128294D02*
Y0129244D01*
X0084362Y0127844D02*
X0085237D01*
X0084087Y0127569D02*
X0084362Y0127844D01*
X0082362Y0127569D02*
X0084087D01*
X0081637Y0126844D02*
X0082362Y0127569D01*
X0081637Y0125019D02*
Y0126844D01*
X0081637Y0128294D02*
X0081687Y0128344D01*
X0099087Y0112394D02*
X0101462Y0114769D01*
X0099087Y0105894D02*
Y0112394D01*
X0093137Y0104119D02*
X0093712D01*
X0094237Y0104644D01*
X0094912D01*
X0093137Y0105569D02*
X0093887D01*
X0094412Y0105044D01*
X0094912D01*
Y0105444D02*
Y0106769D01*
X0096012Y0107519D02*
X0097337Y0106194D01*
X0092862Y0107519D02*
X0096012D01*
X0091512Y0106169D02*
X0092862Y0107519D01*
X0097337Y0105894D02*
Y0106194D01*
Y0105519D02*
Y0105894D01*
X0099087D01*
X0091512Y0105544D02*
Y0106169D01*
X0097262Y0105444D02*
X0097337Y0105519D01*
X0098487Y0105044D02*
X0099087Y0104444D01*
X0097262Y0105044D02*
X0098487D01*
X0097262Y0104644D02*
X0098062D01*
X0098187Y0104519D01*
Y0103369D02*
Y0104519D01*
X0094537Y0099994D02*
X0095737D01*
X0095887Y0104069D02*
X0096287D01*
X0095887Y0103269D02*
X0095887Y0103269D01*
X0095887Y0103269D02*
Y0104069D01*
X0096337Y0099994D02*
X0097137D01*
X0095612Y0099269D02*
X0096337Y0099994D01*
X0095212Y0099269D02*
X0095612D01*
X0095012Y0099069D02*
X0095212Y0099269D01*
X0095012Y0098369D02*
Y0099069D01*
D32*
X0093512Y0101294D02*
X0094537D01*
X0110537Y0113019D02*
Y0114394D01*
X0097887Y0121619D02*
X0098762D01*
X0086912Y0127944D02*
Y0130244D01*
X0111387Y0129269D02*
Y0130569D01*
X0092287Y0080369D02*
Y0081294D01*
X0103437Y0072794D02*
X0104312D01*
X0089712Y0071569D02*
X0089737Y0071594D01*
Y0072719D01*
X0083387Y0130744D02*
Y0131869D01*
X0086887Y0134244D02*
X0087437Y0134794D01*
X0086887Y0133669D02*
Y0134244D01*
X0091512Y0104094D02*
X0093112D01*
X0097262Y0092319D02*
X0098562Y0091019D01*
Y0090044D02*
Y0091019D01*
X0110662Y0125169D02*
Y0126044D01*
X0110612Y0125119D02*
X0110662Y0125169D01*
X0106832Y0121064D02*
X0110312D01*
X0106587Y0120819D02*
X0106832Y0121064D01*
X0103812Y0120819D02*
X0106587D01*
X0105462Y0122394D02*
X0112037D01*
X0095137Y0131194D02*
X0102412D01*
X0103987Y0129619D01*
Y0128269D02*
Y0129619D01*
Y0128269D02*
X0105087D01*
X0105987Y0127369D01*
X0103987Y0126369D02*
X0104637D01*
X0103337D02*
X0103987D01*
Y0125169D02*
Y0126369D01*
X0101187Y0127644D02*
X0101762Y0127069D01*
X0101762Y0125119D02*
X0110612D01*
X0099337Y0127644D02*
X0101187D01*
X0095037Y0128594D02*
X0095637D01*
X0094462Y0129169D02*
X0095037Y0128594D01*
X0094462Y0129169D02*
Y0130519D01*
X0095137Y0131194D01*
X0105987Y0127369D02*
X0106787D01*
X0108662D01*
X0110737D01*
X0113687D02*
X0114937D01*
X0112037D02*
X0113687D01*
X0114937D02*
X0115512Y0126794D01*
Y0121119D02*
Y0126794D01*
X0115457Y0121064D02*
X0115512Y0121119D01*
X0113962Y0121064D02*
X0115457D01*
X0105462Y0118869D02*
X0106462D01*
X0103762D02*
X0105462D01*
Y0120094D01*
X0112062Y0122419D02*
Y0125119D01*
Y0120344D02*
Y0122419D01*
X0112037Y0122394D02*
X0112062Y0122419D01*
X0105462Y0121544D02*
Y0122394D01*
X0108037Y0119794D02*
X0110312D01*
X0112612D02*
X0113962D01*
X0112062Y0120344D02*
X0112612Y0119794D01*
X0111487Y0113019D02*
Y0114319D01*
Y0115619D02*
Y0116944D01*
X0113962Y0117119D02*
Y0118524D01*
X0113812Y0116969D02*
X0113962Y0117119D01*
X0108362Y0116969D02*
X0113812D01*
X0106462Y0118869D02*
X0108362Y0116969D01*
X0109587Y0110394D02*
Y0113019D01*
X0108762Y0115619D02*
X0109587D01*
X0101362Y0118869D02*
X0102312D01*
X0101137Y0119094D02*
X0101362Y0118869D01*
X0101137Y0119094D02*
Y0120194D01*
X0098837Y0122494D02*
X0101137Y0120194D01*
X0097487Y0122494D02*
X0098837D01*
X0101362Y0120819D02*
X0102362D01*
X0098987Y0123194D02*
X0101362Y0120819D01*
X0097237Y0123194D02*
X0098987D01*
X0096362Y0122319D02*
X0097237Y0123194D01*
X0101762Y0122169D02*
Y0127069D01*
X0099337Y0126694D02*
Y0127644D01*
X0093537Y0127844D02*
X0093737Y0127644D01*
X0091762Y0127844D02*
X0093537D01*
X0090412Y0126494D02*
X0091762Y0127844D01*
X0093737Y0127644D02*
X0095637D01*
X0097837Y0129544D02*
X0099337D01*
X0097087Y0128794D02*
X0097837Y0129544D01*
X0097087Y0126644D02*
Y0128794D01*
X0096462Y0126019D02*
X0097087Y0126644D01*
X0094662Y0126019D02*
X0096462D01*
X0094512Y0125869D02*
X0094662Y0126019D01*
X0093512Y0125869D02*
X0094512D01*
X0097812Y0124544D02*
X0099362D01*
X0089937D02*
X0097812D01*
Y0128219D01*
X0098237Y0128644D01*
X0099337D01*
X0094937Y0126694D02*
X0095637D01*
X0095237Y0116694D02*
Y0119369D01*
X0094987Y0116444D02*
X0095237Y0116694D01*
X0094987Y0113044D02*
Y0116444D01*
X0090512Y0105544D02*
X0090512Y0105544D01*
X0091512D01*
X0094862Y0122319D02*
X0096362D01*
X0093037Y0120494D02*
X0094862Y0122319D01*
X0093037Y0119044D02*
Y0120494D01*
X0091337Y0117344D02*
X0093037Y0119044D01*
X0093137Y0105569D02*
Y0106369D01*
X0083162Y0106044D02*
X0083987D01*
X0086262Y0108019D02*
X0086812D01*
X0086087Y0111394D02*
X0086787D01*
X0085262D02*
X0086087D01*
X0088962Y0112319D02*
X0089487Y0111794D01*
Y0111269D02*
Y0111794D01*
X0087462Y0108944D02*
Y0110619D01*
Y0111419D01*
Y0110619D02*
X0087462Y0110619D01*
X0090137D01*
Y0111269D01*
X0087887Y0102244D02*
Y0105969D01*
X0087787Y0102144D02*
X0087887Y0102244D01*
X0087887Y0104444D02*
X0089462D01*
X0090137Y0111269D02*
Y0113169D01*
X0087462Y0108019D02*
Y0108944D01*
X0097887Y0120119D02*
Y0120769D01*
X0097937Y0120819D01*
X0098287D01*
X0103237Y0074194D02*
X0103287Y0074244D01*
X0104312D01*
X0082262Y0100544D02*
X0082762D01*
X0084037Y0102144D02*
X0085887D01*
X0083312D02*
X0084037D01*
X0083012Y0102444D02*
X0083312Y0102144D01*
X0082262Y0102444D02*
X0083012D01*
X0083337Y0101394D02*
X0084037Y0100694D01*
X0081812Y0101394D02*
X0083337D01*
X0081612Y0101194D02*
X0081812Y0101394D01*
X0081612Y0100544D02*
Y0101194D01*
Y0099144D02*
Y0100544D01*
X0087787Y0112394D02*
X0088112Y0112069D01*
X0084987Y0112394D02*
X0087787D01*
X0084487Y0111894D02*
X0084987Y0112394D01*
X0084487Y0110519D02*
Y0111894D01*
Y0110519D02*
X0084662Y0110344D01*
Y0107919D02*
Y0110344D01*
X0089462Y0105944D02*
Y0109919D01*
X0085762Y0106869D02*
X0089462D01*
X0085312Y0107319D02*
X0085762Y0106869D01*
X0085312Y0107319D02*
Y0107919D01*
X0085012Y0102969D02*
X0087237D01*
X0084662Y0103319D02*
X0085012Y0102969D01*
X0084662Y0103319D02*
Y0106019D01*
X0087137Y0101494D02*
X0087787D01*
X0086937Y0101694D02*
X0087137Y0101494D01*
X0086937Y0101694D02*
Y0102969D01*
X0087237Y0102969D02*
Y0104069D01*
X0084662Y0106019D02*
Y0107919D01*
X0083987Y0103844D02*
X0084012Y0103869D01*
Y0106019D01*
X0085487Y0103844D02*
X0085487Y0103844D01*
X0085487Y0103844D02*
Y0104744D01*
X0085312Y0104919D02*
X0085487Y0104744D01*
X0085312Y0104919D02*
Y0106019D01*
X0085362Y0105969D01*
X0086587D01*
X0083712Y0110194D02*
Y0111444D01*
Y0110194D02*
X0084012Y0109894D01*
Y0107919D02*
Y0109894D01*
X0088112Y0109919D02*
X0089462D01*
X0088187Y0115144D02*
X0089937D01*
X0090787Y0114294D01*
Y0113169D02*
Y0114294D01*
X0088112Y0111419D02*
Y0112069D01*
X0087462Y0112394D02*
Y0113319D01*
X0083712Y0111444D02*
Y0113344D01*
Y0111444D02*
X0083762Y0111394D01*
X0085012Y0113344D02*
X0086787D01*
X0088187Y0114094D02*
Y0115144D01*
X0088112Y0114019D02*
X0088187Y0114094D01*
X0088112Y0113319D02*
Y0114019D01*
X0086662Y0115119D02*
X0086687Y0115144D01*
X0086662Y0114244D02*
Y0115119D01*
Y0114244D02*
X0086812Y0114094D01*
Y0113319D02*
Y0114094D01*
X0087462Y0113319D02*
Y0116919D01*
X0088612Y0120619D02*
X0091462D01*
X0087462Y0119469D02*
X0088612Y0120619D01*
X0087462Y0118369D02*
Y0119469D01*
X0084587Y0116919D02*
X0085762D01*
X0084362Y0116694D02*
X0084587Y0116919D01*
X0084362Y0115244D02*
Y0116694D01*
X0085762Y0116919D02*
X0087462D01*
X0096512Y0118719D02*
X0096537Y0118744D01*
X0097887D01*
Y0120119D01*
X0089237Y0125244D02*
X0089937Y0124544D01*
X0094537Y0102544D02*
X0094812Y0102819D01*
X0094537Y0101944D02*
Y0102544D01*
X0097937Y0101944D02*
X0098787Y0102794D01*
X0097137Y0101944D02*
X0097937D01*
X0097137Y0101294D02*
X0097987D01*
X0102337Y0103644D02*
Y0104444D01*
X0102062Y0103369D02*
X0102337Y0103644D01*
X0099962Y0103369D02*
X0102062D01*
X0099962Y0102119D02*
Y0103369D01*
X0098487Y0100644D02*
X0099962Y0102119D01*
X0097137Y0100644D02*
X0098487D01*
X0094087Y0106769D02*
X0094912D01*
X0100737Y0105944D02*
X0102337D01*
X0100687Y0104444D02*
X0100737Y0104494D01*
X0099087Y0104444D02*
X0100687D01*
X0108162Y0099994D02*
X0111662Y0096494D01*
X0097137Y0099994D02*
X0108162D01*
X0092812Y0100644D02*
X0094537D01*
X0095437D01*
X0089737Y0074169D02*
X0090662D01*
X0095362Y0090044D02*
Y0090894D01*
X0096512Y0097619D02*
Y0098369D01*
X0102037Y0080269D02*
X0102937D01*
X0102037D02*
X0102037Y0080269D01*
X0102062D01*
X0103262Y0087144D02*
X0104062D01*
X0102937Y0082169D02*
Y0082819D01*
X0099537Y0083544D02*
Y0085494D01*
X0098512Y0082519D02*
X0099537Y0083544D01*
X0098512Y0081669D02*
Y0082519D01*
X0088937Y0084294D02*
X0089762D01*
X0090437Y0088619D02*
X0091112D01*
X0097837Y0083044D02*
X0098287Y0083494D01*
X0095512Y0083044D02*
X0097837D01*
X0094737Y0082269D02*
X0095512Y0083044D01*
X0103487Y0079719D02*
X0104687D01*
X0102937Y0080269D02*
X0103487Y0079719D01*
X0100337Y0078594D02*
X0100362Y0078569D01*
X0100337Y0078594D02*
Y0080269D01*
X0098512Y0080219D02*
X0098562Y0080269D01*
X0098462Y0080169D02*
X0098512Y0080219D01*
X0100337Y0080269D02*
X0100337Y0080269D01*
X0098562Y0080269D02*
X0100337D01*
X0097012Y0080169D02*
X0098462D01*
X0097012Y0081669D02*
X0098512D01*
X0101737Y0087144D02*
X0103262D01*
X0098562Y0090044D02*
X0100237D01*
X0095362Y0090044D02*
X0096962D01*
X0088937Y0088619D02*
Y0089994D01*
X0091487Y0078469D02*
Y0079194D01*
X0090437Y0090044D02*
X0091212D01*
X0088937Y0085719D02*
X0088962Y0085744D01*
X0089762D01*
X0097112Y0085519D02*
Y0086169D01*
X0095487Y0084019D02*
X0097112D01*
X0098287Y0083494D02*
Y0086569D01*
X0097812Y0087044D02*
X0098287Y0086569D01*
X0093237Y0086644D02*
X0094387D01*
X0095462Y0084044D02*
X0095487Y0084019D01*
X0093237Y0084044D02*
X0095462D01*
X0091387Y0085469D02*
X0095487D01*
X0091337Y0085519D02*
X0091387Y0085469D01*
X0091337Y0085519D02*
Y0086644D01*
X0090812D02*
X0091337D01*
X0090437Y0087019D02*
X0090812Y0086644D01*
X0090437Y0087019D02*
Y0088619D01*
X0088937Y0087469D02*
Y0088619D01*
Y0087469D02*
X0089762Y0086644D01*
Y0085744D02*
Y0086644D01*
Y0081819D02*
Y0084294D01*
X0091037Y0082269D02*
X0091637D01*
X0090587Y0081819D02*
X0091037Y0082269D01*
X0089762Y0081819D02*
X0090587D01*
X0089762Y0080369D02*
X0091637D01*
X0089762Y0078469D02*
Y0080369D01*
X0091487Y0078294D02*
X0092762Y0077019D01*
X0089762D02*
X0091262D01*
X0092287Y0082269D02*
X0094737D01*
X0091337Y0084044D02*
X0092287D01*
Y0082269D02*
Y0084044D01*
X0097812Y0088594D02*
X0098562D01*
X0096962D02*
X0097812D01*
Y0087044D02*
Y0088594D01*
X0100762Y0085644D02*
Y0086669D01*
Y0084319D02*
Y0085644D01*
X0100287Y0087144D02*
X0100762Y0086669D01*
X0100237Y0087194D02*
X0100287Y0087144D01*
X0100337Y0081219D02*
Y0082169D01*
Y0083219D01*
X0100762Y0083644D01*
Y0084319D01*
X0100237Y0087194D02*
Y0088594D01*
X0099462Y0077119D02*
X0100362D01*
X0102062D01*
X0092962Y0079219D02*
X0094462D01*
X0092937Y0078444D02*
Y0080369D01*
X0091962Y0134619D02*
Y0136894D01*
X0091012Y0133669D02*
X0091962Y0134619D01*
X0087537Y0133669D02*
X0091012D01*
X0086237Y0132544D02*
X0086387Y0132694D01*
X0086237Y0131769D02*
Y0132544D01*
X0086387Y0132694D02*
X0087412D01*
X0087537Y0132819D01*
Y0133669D01*
X0083412Y0131894D02*
X0084762D01*
Y0133169D02*
Y0133569D01*
X0084862Y0133669D01*
X0086237D01*
X0086887Y0131194D02*
Y0131769D01*
X0086737Y0131044D02*
X0086887Y0131194D01*
X0085037Y0131044D02*
X0086737D01*
X0084762Y0131319D02*
X0085037Y0131044D01*
X0084762Y0131319D02*
Y0131894D01*
D34*
X0096962Y0136894D02*
D03*
X0089187Y0058744D02*
D03*
X0107537Y0096444D02*
D03*
X0082262Y0096544D02*
D03*
X0104762Y0058694D02*
D03*
X0078687Y0113419D02*
D03*
X0078762Y0109894D02*
D03*
X0078762Y0106544D02*
D03*
X0115162Y0113644D02*
D03*
Y0110119D02*
D03*
X0078762Y0117419D02*
D03*
X0111662Y0096494D02*
D03*
X0078762Y0103594D02*
D03*
X0096962Y0076894D02*
D03*
X0086312Y0096544D02*
D03*
X0088462Y0053394D02*
D03*
X0105462D02*
D03*
X0101962Y0136894D02*
D03*
X0106962D02*
D03*
X0091962D02*
D03*
X0086962D02*
D03*
X0092712Y0074894D02*
D03*
X0101212D02*
D03*
X0100962Y0053394D02*
D03*
X0092962D02*
D03*
X0092037Y0058719D02*
D03*
X0101987Y0058744D02*
D03*
D35*
X0095587Y0102369D02*
D03*
X0093312Y0123894D02*
D03*
X0090412Y0116729D02*
D03*
X0092162Y0112994D02*
D03*
X0098612Y0127169D02*
D03*
X0102737Y0124119D02*
D03*
X0090562Y0069594D02*
D03*
X0103612Y0069569D02*
D03*
X0088312Y0091444D02*
D03*
X0104137Y0090919D02*
D03*
X0085262Y0099544D02*
D03*
X0111037Y0102219D02*
D03*
X0107462Y0110319D02*
D03*
X0093312Y0110219D02*
D03*
X0098637Y0123869D02*
D03*
X0097237Y0116269D02*
D03*
X0084387Y0118169D02*
D03*
X0083062Y0134419D02*
D03*
X0084437Y0125819D02*
D03*
X0096662Y0130044D02*
D03*
X0102587Y0129269D02*
D03*
X0111412Y0130694D02*
D03*
X0113812Y0125094D02*
D03*
X0112037Y0118394D02*
D03*
X0089037Y0114119D02*
D03*
X0085912Y0109169D02*
D03*
X0088637Y0108994D02*
D03*
X0090662Y0054469D02*
D03*
X0090562Y0072744D02*
D03*
X0103437Y0072794D02*
D03*
X0089712Y0071569D02*
D03*
X0104462Y0071369D02*
D03*
X0085762Y0129769D02*
D03*
X0090387Y0108144D02*
D03*
X0097262Y0108169D02*
D03*
X0088437Y0126219D02*
D03*
X0083387Y0130744D02*
D03*
X0087437Y0134794D02*
D03*
X0086237D02*
D03*
X0089437Y0131094D02*
D03*
X0081637Y0129244D02*
D03*
X0085037Y0122344D02*
D03*
X0097262Y0092319D02*
D03*
X0110662Y0126044D02*
D03*
X0108587Y0118494D02*
D03*
X0104362Y0117019D02*
D03*
X0101887Y0107644D02*
D03*
X0110337Y0111819D02*
D03*
X0103787Y0115294D02*
D03*
X0111487Y0114319D02*
D03*
X0108762Y0115619D02*
D03*
X0094937Y0126694D02*
D03*
X0095962Y0123244D02*
D03*
X0097837Y0109444D02*
D03*
X0097812Y0111169D02*
D03*
X0096362D02*
D03*
X0096412Y0109394D02*
D03*
X0090512Y0105544D02*
D03*
X0105212Y0102319D02*
D03*
Y0118169D02*
D03*
X0100137Y0101119D02*
D03*
X0101462Y0114769D02*
D03*
X0103737Y0114119D02*
D03*
Y0106469D02*
D03*
X0093137Y0106369D02*
D03*
X0102837Y0113369D02*
D03*
X0100812Y0125844D02*
D03*
X0101837Y0115444D02*
D03*
X0093912D02*
D03*
X0094312Y0114444D02*
D03*
X0092187Y0114794D02*
D03*
X0094987Y0113044D02*
D03*
X0083162Y0106044D02*
D03*
X0086262Y0108019D02*
D03*
X0086087Y0111394D02*
D03*
X0088962Y0112319D02*
D03*
X0088387Y0119444D02*
D03*
X0087462Y0108944D02*
D03*
X0091337Y0117344D02*
D03*
X0094262Y0098619D02*
D03*
X0090387Y0101844D02*
D03*
X0103137Y0119769D02*
D03*
X0096362Y0122319D02*
D03*
X0097487Y0122494D02*
D03*
X0098287Y0120819D02*
D03*
X0095262Y0121569D02*
D03*
Y0120219D02*
D03*
X0102837Y0096544D02*
D03*
X0101887Y0096594D02*
D03*
X0096987Y0090896D02*
D03*
X0100262Y0091794D02*
D03*
X0103237Y0074194D02*
D03*
X0101187Y0091769D02*
D03*
X0099562Y0114619D02*
D03*
X0092362Y0103269D02*
D03*
X0093387Y0097894D02*
D03*
X0082762Y0100544D02*
D03*
X0093712Y0116894D02*
D03*
X0093937Y0118169D02*
D03*
X0094387Y0119369D02*
D03*
X0095237D02*
D03*
X0101762Y0122169D02*
D03*
X0091462Y0120619D02*
D03*
X0089237Y0125244D02*
D03*
X0099362Y0124544D02*
D03*
X0095062Y0123769D02*
D03*
X0094237Y0125219D02*
D03*
X0093512Y0113819D02*
D03*
Y0125869D02*
D03*
X0090412Y0126494D02*
D03*
X0092787Y0127144D02*
D03*
X0094812Y0102819D02*
D03*
X0098787Y0102794D02*
D03*
X0097987Y0101294D02*
D03*
X0099962Y0103369D02*
D03*
X0094087Y0106769D02*
D03*
X0095887Y0103269D02*
D03*
X0095437Y0100644D02*
D03*
X0091962Y0091519D02*
D03*
X0090487Y0079419D02*
D03*
X0090662Y0074169D02*
D03*
X0090362Y0075594D02*
D03*
X0095362Y0090894D02*
D03*
X0096512Y0097619D02*
D03*
X0102062Y0080269D02*
D03*
X0100087Y0097994D02*
D03*
X0104062Y0087144D02*
D03*
X0102937Y0082819D02*
D03*
X0099537Y0085494D02*
D03*
X0088937Y0084294D02*
D03*
X0091112Y0088619D02*
D03*
X0099462Y0091794D02*
D03*
X0091487Y0079194D02*
D03*
X0091212Y0090044D02*
D03*
X0088937Y0085719D02*
D03*
X0097112Y0086169D02*
D03*
X0094387Y0086644D02*
D03*
X0099462Y0077119D02*
D03*
X0094462Y0079219D02*
D03*
D36*
X0113962Y0121064D02*
D03*
X0110312D02*
D03*
X0113962Y0119794D02*
D03*
X0110312D02*
D03*
X0113962Y0118524D02*
D03*
X0110312D02*
D03*
D37*
X0095637Y0126694D02*
D03*
Y0127644D02*
D03*
Y0128594D02*
D03*
Y0129544D02*
D03*
X0099337D02*
D03*
Y0128644D02*
D03*
Y0127644D02*
D03*
Y0126694D02*
D03*
D38*
X0081612Y0099144D02*
D03*
X0082887D02*
D03*
D39*
X0095887Y0105619D02*
D03*
X0096287D02*
D03*
X0096687D02*
D03*
X0095487Y0104069D02*
D03*
X0095887D02*
D03*
X0096287D02*
D03*
X0096687D02*
D03*
D40*
X0095487Y0105569D02*
D03*
D41*
X0097262Y0105444D02*
D03*
Y0105044D02*
D03*
Y0104644D02*
D03*
Y0104244D02*
D03*
X0094912D02*
D03*
Y0104644D02*
D03*
Y0105044D02*
D03*
Y0105444D02*
D03*
D42*
X0094537Y0099994D02*
D03*
Y0100644D02*
D03*
Y0101294D02*
D03*
X0097137Y0099994D02*
D03*
Y0101944D02*
D03*
Y0101294D02*
D03*
X0094537Y0101944D02*
D03*
X0097137Y0100644D02*
D03*
D43*
X0102937Y0082169D02*
D03*
Y0081219D02*
D03*
Y0080269D02*
D03*
X0100337D02*
D03*
Y0081219D02*
D03*
Y0082169D02*
D03*
D44*
X0088387Y0128844D02*
D03*
Y0128344D02*
D03*
Y0127344D02*
D03*
Y0127844D02*
D03*
Y0126844D02*
D03*
X0085237D02*
D03*
Y0127844D02*
D03*
Y0127344D02*
D03*
Y0128344D02*
D03*
Y0128844D02*
D03*
D45*
X0086812Y0127844D02*
D03*
D46*
X0084762Y0133169D02*
D03*
Y0131894D02*
D03*
M02*
