G04 Layer_Color=8388736*
%FSTAX43Y43*%
%MOMM*%
G71*
G01*
G75*
G04:AMPARAMS|DCode=50|XSize=0.85mm|YSize=0.7mm|CornerRadius=0.2mm|HoleSize=0mm|Usage=FLASHONLY|Rotation=90.000|XOffset=0mm|YOffset=0mm|HoleType=Round|Shape=RoundedRectangle|*
%AMROUNDEDRECTD50*
21,1,0.850,0.300,0,0,90.0*
21,1,0.450,0.700,0,0,90.0*
1,1,0.400,0.150,0.225*
1,1,0.400,0.150,-0.225*
1,1,0.400,-0.150,-0.225*
1,1,0.400,-0.150,0.225*
%
%ADD50ROUNDEDRECTD50*%
G04:AMPARAMS|DCode=51|XSize=1.6mm|YSize=0.45mm|CornerRadius=0.138mm|HoleSize=0mm|Usage=FLASHONLY|Rotation=180.000|XOffset=0mm|YOffset=0mm|HoleType=Round|Shape=RoundedRectangle|*
%AMROUNDEDRECTD51*
21,1,1.600,0.175,0,0,180.0*
21,1,1.325,0.450,0,0,180.0*
1,1,0.275,-0.662,0.087*
1,1,0.275,0.662,0.087*
1,1,0.275,0.662,-0.087*
1,1,0.275,-0.662,-0.087*
%
%ADD51ROUNDEDRECTD51*%
%ADD52R,0.900X0.950*%
%ADD53R,0.950X0.900*%
G04:AMPARAMS|DCode=54|XSize=0.5mm|YSize=0.85mm|CornerRadius=0.15mm|HoleSize=0mm|Usage=FLASHONLY|Rotation=270.000|XOffset=0mm|YOffset=0mm|HoleType=Round|Shape=RoundedRectangle|*
%AMROUNDEDRECTD54*
21,1,0.500,0.550,0,0,270.0*
21,1,0.200,0.850,0,0,270.0*
1,1,0.300,-0.275,-0.100*
1,1,0.300,-0.275,0.100*
1,1,0.300,0.275,0.100*
1,1,0.300,0.275,-0.100*
%
%ADD54ROUNDEDRECTD54*%
G04:AMPARAMS|DCode=55|XSize=0.5mm|YSize=0.85mm|CornerRadius=0.15mm|HoleSize=0mm|Usage=FLASHONLY|Rotation=180.000|XOffset=0mm|YOffset=0mm|HoleType=Round|Shape=RoundedRectangle|*
%AMROUNDEDRECTD55*
21,1,0.500,0.550,0,0,180.0*
21,1,0.200,0.850,0,0,180.0*
1,1,0.300,-0.100,0.275*
1,1,0.300,0.100,0.275*
1,1,0.300,0.100,-0.275*
1,1,0.300,-0.100,-0.275*
%
%ADD55ROUNDEDRECTD55*%
G04:AMPARAMS|DCode=56|XSize=0.85mm|YSize=0.7mm|CornerRadius=0.2mm|HoleSize=0mm|Usage=FLASHONLY|Rotation=0.000|XOffset=0mm|YOffset=0mm|HoleType=Round|Shape=RoundedRectangle|*
%AMROUNDEDRECTD56*
21,1,0.850,0.300,0,0,0.0*
21,1,0.450,0.700,0,0,0.0*
1,1,0.400,0.225,-0.150*
1,1,0.400,-0.225,-0.150*
1,1,0.400,-0.225,0.150*
1,1,0.400,0.225,0.150*
%
%ADD56ROUNDEDRECTD56*%
G04:AMPARAMS|DCode=57|XSize=2.5mm|YSize=2.1mm|CornerRadius=0.55mm|HoleSize=0mm|Usage=FLASHONLY|Rotation=180.000|XOffset=0mm|YOffset=0mm|HoleType=Round|Shape=RoundedRectangle|*
%AMROUNDEDRECTD57*
21,1,2.500,1.000,0,0,180.0*
21,1,1.400,2.100,0,0,180.0*
1,1,1.100,-0.700,0.500*
1,1,1.100,0.700,0.500*
1,1,1.100,0.700,-0.500*
1,1,1.100,-0.700,-0.500*
%
%ADD57ROUNDEDRECTD57*%
%ADD58R,2.200X1.500*%
G04:AMPARAMS|DCode=59|XSize=0.7mm|YSize=1.1mm|CornerRadius=0.2mm|HoleSize=0mm|Usage=FLASHONLY|Rotation=180.000|XOffset=0mm|YOffset=0mm|HoleType=Round|Shape=RoundedRectangle|*
%AMROUNDEDRECTD59*
21,1,0.700,0.700,0,0,180.0*
21,1,0.300,1.100,0,0,180.0*
1,1,0.400,-0.150,0.350*
1,1,0.400,0.150,0.350*
1,1,0.400,0.150,-0.350*
1,1,0.400,-0.150,-0.350*
%
%ADD59ROUNDEDRECTD59*%
G04:AMPARAMS|DCode=60|XSize=0.95mm|YSize=0.8mm|CornerRadius=0.225mm|HoleSize=0mm|Usage=FLASHONLY|Rotation=90.000|XOffset=0mm|YOffset=0mm|HoleType=Round|Shape=RoundedRectangle|*
%AMROUNDEDRECTD60*
21,1,0.950,0.350,0,0,90.0*
21,1,0.500,0.800,0,0,90.0*
1,1,0.450,0.175,0.250*
1,1,0.450,0.175,-0.250*
1,1,0.450,-0.175,-0.250*
1,1,0.450,-0.175,0.250*
%
%ADD60ROUNDEDRECTD60*%
%ADD61R,0.600X0.450*%
%ADD62R,0.600X0.530*%
%ADD63R,2.100X0.860*%
%ADD64R,0.860X2.100*%
G04:AMPARAMS|DCode=65|XSize=1.75mm|YSize=1.05mm|CornerRadius=0.287mm|HoleSize=0mm|Usage=FLASHONLY|Rotation=180.000|XOffset=0mm|YOffset=0mm|HoleType=Round|Shape=RoundedRectangle|*
%AMROUNDEDRECTD65*
21,1,1.750,0.475,0,0,180.0*
21,1,1.175,1.050,0,0,180.0*
1,1,0.575,-0.588,0.237*
1,1,0.575,0.588,0.237*
1,1,0.575,0.588,-0.237*
1,1,0.575,-0.588,-0.237*
%
%ADD65ROUNDEDRECTD65*%
%ADD66R,0.900X0.700*%
G04:AMPARAMS|DCode=67|XSize=0.7mm|YSize=0.35mm|CornerRadius=0.113mm|HoleSize=0mm|Usage=FLASHONLY|Rotation=90.000|XOffset=0mm|YOffset=0mm|HoleType=Round|Shape=RoundedRectangle|*
%AMROUNDEDRECTD67*
21,1,0.700,0.125,0,0,90.0*
21,1,0.475,0.350,0,0,90.0*
1,1,0.225,0.063,0.237*
1,1,0.225,0.063,-0.237*
1,1,0.225,-0.063,-0.237*
1,1,0.225,-0.063,0.237*
%
%ADD67ROUNDEDRECTD67*%
%ADD68O,0.300X0.800*%
%ADD69O,0.800X0.300*%
%ADD70R,3.100X3.100*%
%ADD71C,1.600*%
G36*
X0100687Y0092794D02*
X0087717D01*
Y0093894D01*
X0087712Y0093918D01*
Y0096119D01*
X0100687D01*
Y0092794D01*
D02*
G37*
G36*
X0104612Y0063269D02*
Y0061894D01*
X0101687D01*
Y0068543D01*
X0104624D01*
X0104612Y0063269D01*
D02*
G37*
G36*
X0089337Y006848D02*
X0092237D01*
Y0061972D01*
X0092187Y0061894D01*
X0089262D01*
Y006844D01*
X0089312Y0068519D01*
X0089337Y006848D01*
D02*
G37*
G36*
X0106462Y0053894D02*
X0104962Y0053894D01*
Y0052119D01*
X0101462D01*
Y0053919D01*
X0100237D01*
Y0055694D01*
X0106462D01*
Y0053894D01*
D02*
G37*
G36*
X0093687Y0053919D02*
X0092412D01*
Y0052019D01*
X0088962D01*
Y0053894D01*
X0087462D01*
X0087487Y0055694D01*
X0093687D01*
Y0053919D01*
D02*
G37*
D50*
X0087837Y0123894D02*
D03*
X0089337D02*
D03*
X0092962Y0121394D02*
D03*
X0091462D02*
D03*
X0094537Y0077519D02*
D03*
X0093037D02*
D03*
X0088037Y0131669D02*
D03*
X0086537D02*
D03*
X0103937Y0120494D02*
D03*
X0102437D02*
D03*
D51*
X0097312Y0127144D02*
D03*
Y0126494D02*
D03*
Y0125844D02*
D03*
Y0124544D02*
D03*
Y0123894D02*
D03*
Y0123244D02*
D03*
X0091462Y0125844D02*
D03*
Y0126494D02*
D03*
Y0127144D02*
D03*
Y0123244D02*
D03*
Y0123894D02*
D03*
Y0124544D02*
D03*
X0097312Y0125194D02*
D03*
X0091462D02*
D03*
D52*
X0089737Y0072744D02*
D03*
Y0074194D02*
D03*
X0104437Y0072919D02*
D03*
Y0074369D02*
D03*
X0103487Y0100894D02*
D03*
Y0099444D02*
D03*
X0099062Y0106194D02*
D03*
Y0107644D02*
D03*
X0095737Y0106219D02*
D03*
Y0107669D02*
D03*
D53*
X0090912Y0115094D02*
D03*
X0089462D02*
D03*
X0091287Y0077569D02*
D03*
X0089837D02*
D03*
X0096362Y0111894D02*
D03*
X0097812D02*
D03*
X0096387Y0110244D02*
D03*
X0097837D02*
D03*
X0108537Y0120294D02*
D03*
X0109987D02*
D03*
X0108512Y0122344D02*
D03*
X0109962D02*
D03*
X0113187Y0122319D02*
D03*
X0111737D02*
D03*
X0109037Y0110219D02*
D03*
X0110487D02*
D03*
X0113162Y0120319D02*
D03*
X0111712D02*
D03*
D54*
X0091337Y0118144D02*
D03*
Y0118794D02*
D03*
Y0119444D02*
D03*
X0089437D02*
D03*
Y0118794D02*
D03*
Y0118144D02*
D03*
D55*
X0090137Y0080344D02*
D03*
X0090787D02*
D03*
X0091437D02*
D03*
Y0082244D02*
D03*
X0090787D02*
D03*
X0090137D02*
D03*
D56*
X0084437Y0131669D02*
D03*
Y0130169D02*
D03*
X0099412Y0121619D02*
D03*
Y0120119D02*
D03*
X0103387Y0102844D02*
D03*
Y0104344D02*
D03*
X0112762Y0117094D02*
D03*
Y0115594D02*
D03*
D57*
X0080937Y0139519D02*
D03*
Y0135519D02*
D03*
D58*
X0085012Y0124069D02*
D03*
Y0119669D02*
D03*
X0080887Y0124119D02*
D03*
Y0119719D02*
D03*
Y0128019D02*
D03*
Y0132419D02*
D03*
D59*
X0086537Y0129769D02*
D03*
X0088437D02*
D03*
Y0127169D02*
D03*
X0087487D02*
D03*
X0086537D02*
D03*
X0107837Y0124844D02*
D03*
X0106887Y0127444D02*
D03*
X0108787D02*
D03*
D60*
X0103937Y0122169D02*
D03*
X0102487D02*
D03*
D61*
X0103937Y0119044D02*
D03*
Y0117844D02*
D03*
X0103187D02*
D03*
D62*
Y0119004D02*
D03*
D63*
X0094087Y0104319D02*
D03*
Y0101819D02*
D03*
Y0099319D02*
D03*
X0100087D02*
D03*
Y0101819D02*
D03*
Y0104319D02*
D03*
D64*
X0094462Y0083494D02*
D03*
X0096962D02*
D03*
X0099462D02*
D03*
Y0089494D02*
D03*
X0096962D02*
D03*
X0094462D02*
D03*
D65*
X0098387Y0129644D02*
D03*
Y0132394D02*
D03*
D66*
X0108737Y0128894D02*
D03*
Y0130294D02*
D03*
X0106887Y0128894D02*
D03*
Y0130294D02*
D03*
D67*
X0109687Y0117094D02*
D03*
X0110337D02*
D03*
X0109687Y0112644D02*
D03*
X0110337D02*
D03*
X0109037Y0117094D02*
D03*
X0110987D02*
D03*
X0109037Y0112644D02*
D03*
X0110987D02*
D03*
D68*
X0098687Y0118869D02*
D03*
X0098287D02*
D03*
X0097887D02*
D03*
X0097487D02*
D03*
X0097087D02*
D03*
X0096687D02*
D03*
X0096287D02*
D03*
X0095887D02*
D03*
Y0114769D02*
D03*
X0096287D02*
D03*
X0096687D02*
D03*
X0097087D02*
D03*
X0097487D02*
D03*
X0097887D02*
D03*
X0098287D02*
D03*
X0098687D02*
D03*
D69*
X0095237Y0118219D02*
D03*
Y0117819D02*
D03*
Y0117419D02*
D03*
Y0117019D02*
D03*
Y0116619D02*
D03*
Y0116219D02*
D03*
Y0115819D02*
D03*
Y0115419D02*
D03*
X0099337D02*
D03*
Y0115819D02*
D03*
Y0116219D02*
D03*
Y0116619D02*
D03*
Y0117019D02*
D03*
Y0117419D02*
D03*
Y0117819D02*
D03*
Y0118219D02*
D03*
D70*
X0097287Y0116819D02*
D03*
D71*
X0096962Y0136894D02*
D03*
X0089187Y0058744D02*
D03*
X0107537Y0096444D02*
D03*
X0082262Y0096544D02*
D03*
X0104762Y0058694D02*
D03*
X0078687Y0113419D02*
D03*
X0078762Y0109894D02*
D03*
X0078762Y0106544D02*
D03*
X0115162Y0113644D02*
D03*
Y0110119D02*
D03*
X0078762Y0117419D02*
D03*
X0111662Y0096494D02*
D03*
X0078762Y0103594D02*
D03*
X0096962Y0076894D02*
D03*
X0086312Y0096544D02*
D03*
X0088462Y0053394D02*
D03*
X0105462D02*
D03*
X0101962Y0136894D02*
D03*
X0106962D02*
D03*
X0091962D02*
D03*
X0086962D02*
D03*
X0092712Y0074894D02*
D03*
X0101212D02*
D03*
X0100962Y0053394D02*
D03*
X0092962D02*
D03*
X0092037Y0058719D02*
D03*
X0101987Y0058744D02*
D03*
M02*
