G04 Layer_Physical_Order=2*
G04 Layer_Color=36540*
%FSTAX43Y43*%
%MOMM*%
G71*
G01*
G75*
%ADD32C,0.300*%
%ADD34C,1.500*%
%ADD35C,0.600*%
G36*
X0116707Y0094149D02*
X0101512D01*
X0101499Y0094146D01*
X0101487Y0094147D01*
X010138Y0094137D01*
X0101344Y0094126D01*
X0101307Y0094119D01*
X0101109Y0094037D01*
X0101109D01*
X0101076Y0094014D01*
X0101026Y0093981D01*
X0101026Y0093981D01*
X0100874Y009383D01*
X0100819Y0093747D01*
X0100737Y0093549D01*
X0100717Y0093451D01*
Y0093237D01*
X0100737Y0093139D01*
X0100819Y0092941D01*
Y0092941D01*
X0100841Y0092908D01*
X0100874Y0092858D01*
X0100874Y0092858D01*
X0101026Y0092706D01*
X0101109Y0092651D01*
X0101307Y0092569D01*
X0101344Y0092562D01*
X010138Y0092551D01*
X0101487Y009254D01*
X0101499Y0092541D01*
X0101512Y0092539D01*
X0106207D01*
Y0057344D01*
X0100492D01*
X0100492Y0061639D01*
X0101712D01*
X0101809Y0061658D01*
X0101892Y0061714D01*
X0101947Y0061796D01*
X0101967Y0061894D01*
Y0065639D01*
X0103612D01*
X0103624Y0065641D01*
X0103637Y006564D01*
X0103744Y0065651D01*
X010378Y0065662D01*
X0103817Y0065669D01*
X0104015Y0065751D01*
X0104015D01*
X0104048Y0065773D01*
X0104098Y0065806D01*
X0104098Y0065806D01*
X0104249Y0065958D01*
X0104305Y0066041D01*
X0104387Y0066239D01*
X0104394Y0066276D01*
X0104405Y0066312D01*
X0104415Y0066419D01*
X0104413Y0066444D01*
X0104415Y0066469D01*
X0104405Y0066576D01*
X0104394Y0066612D01*
X0104387Y0066649D01*
X0104305Y0066847D01*
Y0066847D01*
X0104282Y006688D01*
X0104249Y006693D01*
X0104249Y006693D01*
X0104098Y0067081D01*
X0104015Y0067137D01*
X0103817Y0067219D01*
X010378Y0067226D01*
X0103744Y0067237D01*
X0103637Y0067247D01*
X0103624Y0067246D01*
X0103612Y0067249D01*
X0101967D01*
Y0074317D01*
X0102042Y0074415D01*
X0102137Y0074646D01*
X010217Y0074894D01*
X0102137Y0075142D01*
X0102042Y0075373D01*
X0101924Y0075526D01*
X0101892Y0075574D01*
X0101844Y0075606D01*
X0101691Y0075724D01*
X010146Y0075819D01*
X0101212Y0075852D01*
X0100964Y0075819D01*
X0100733Y0075724D01*
X0100635Y0075649D01*
X0093289D01*
X0093191Y0075724D01*
X009296Y0075819D01*
X0092712Y0075852D01*
X0092464Y0075819D01*
X0092233Y0075724D01*
X0092079Y0075606D01*
X0092032Y0075574D01*
X0092Y0075526D01*
X0091882Y0075373D01*
X0091786Y0075142D01*
X0091754Y0074894D01*
X0091786Y0074646D01*
X0091882Y0074415D01*
X0091957Y0074317D01*
Y0067249D01*
X0090312D01*
X0090299Y0067246D01*
X0090287Y0067247D01*
X009018Y0067237D01*
X0090144Y0067226D01*
X0090107Y0067219D01*
X0089909Y0067137D01*
X0089909D01*
X0089876Y0067114D01*
X0089826Y0067081D01*
X0089826Y0067081D01*
X0089674Y006693D01*
X0089619Y0066847D01*
X0089537Y0066649D01*
X008953Y0066612D01*
X0089519Y0066576D01*
X0089508Y0066469D01*
X0089511Y0066444D01*
X0089508Y0066419D01*
X0089519Y0066312D01*
X008953Y0066276D01*
X0089537Y0066239D01*
X0089619Y0066041D01*
Y0066041D01*
X0089641Y0066008D01*
X0089674Y0065958D01*
X0089674Y0065958D01*
X0089826Y0065806D01*
X0089909Y0065751D01*
X0090107Y0065669D01*
X0090144Y0065662D01*
X009018Y0065651D01*
X0090287Y006564D01*
X0090299Y0065641D01*
X0090312Y0065639D01*
X0091957D01*
Y0061894D01*
X0091976Y0061796D01*
X0092032Y0061714D01*
X0092114Y0061658D01*
X0092212Y0061639D01*
X0093457D01*
Y0057344D01*
X0091019D01*
Y0059819D01*
X0090991Y0059955D01*
X0090914Y0060071D01*
X0088594Y0062392D01*
Y0071421D01*
X008956Y0072387D01*
X0090178D01*
X0090185Y0072386D01*
X0090199Y0072384D01*
X0090201Y0072383D01*
X0090201Y0072383D01*
X0090367Y0072273D01*
X0090562Y0072234D01*
X0090757Y0072273D01*
X0090922Y0072383D01*
X0091033Y0072549D01*
X0091072Y0072744D01*
X0091033Y0072939D01*
X0090922Y0073104D01*
X0090757Y0073215D01*
X0090562Y0073254D01*
X0090367Y0073215D01*
X0090201Y0073104D01*
X0090201Y0073104D01*
X0090199Y0073104D01*
X0090188Y0073102D01*
X0090174Y0073101D01*
X0089412D01*
X0089275Y0073074D01*
X0089159Y0072996D01*
X0087984Y0071821D01*
X0087907Y0071705D01*
X008788Y0071569D01*
Y0062244D01*
X0087907Y0062107D01*
X0087984Y0061991D01*
X0090305Y0059671D01*
Y0057344D01*
X0087717D01*
Y0093894D01*
X0087697Y0093991D01*
X0087642Y0094074D01*
X0087559Y0094129D01*
X0087462Y0094149D01*
X0077217D01*
Y0141639D01*
X0116707D01*
Y0094149D01*
D02*
G37*
G36*
X0090348Y0072534D02*
X0090335Y0072545D01*
X009032Y0072555D01*
X0090303Y0072564D01*
X0090283Y0072572D01*
X0090262Y0072579D01*
X0090238Y0072584D01*
X0090212Y0072588D01*
X0090184Y0072591D01*
X0090122Y0072594D01*
Y0072894D01*
X0090154Y0072894D01*
X0090212Y0072899D01*
X0090238Y0072903D01*
X0090262Y0072909D01*
X0090283Y0072915D01*
X0090303Y0072923D01*
X009032Y0072932D01*
X0090335Y0072942D01*
X0090348Y0072954D01*
Y0072534D01*
D02*
G37*
G36*
X0090812Y0054876D02*
X0090817Y0054818D01*
X0090821Y0054792D01*
X0090827Y0054769D01*
X0090833Y0054747D01*
X0090841Y0054728D01*
X009085Y0054711D01*
X009086Y0054696D01*
X0090872Y0054683D01*
X0090452D01*
X0090463Y0054696D01*
X0090473Y0054711D01*
X0090482Y0054728D01*
X009049Y0054747D01*
X0090497Y0054769D01*
X0090502Y0054792D01*
X0090506Y0054818D01*
X0090509Y0054846D01*
X0090512Y0054909D01*
X0090812D01*
X0090812Y0054876D01*
D02*
G37*
%LPC*%
G36*
X0086962Y0137852D02*
X0086714Y0137819D01*
X0086483Y0137724D01*
X0086386Y0137649D01*
X0087052Y0136984D01*
X0087717Y0136318D01*
X0087792Y0136415D01*
X0087887Y0136646D01*
X008792Y0136894D01*
X0087887Y0137142D01*
X0087792Y0137373D01*
X0087639Y0137571D01*
X0087441Y0137724D01*
X008721Y0137819D01*
X0086962Y0137852D01*
D02*
G37*
G36*
X0106962D02*
X0106714Y0137819D01*
X0106483Y0137724D01*
X0106284Y0137571D01*
X0106132Y0137373D01*
X0106036Y0137142D01*
X0106004Y0136894D01*
X0106036Y0136646D01*
X0106132Y0136415D01*
X0106284Y0136216D01*
X0106483Y0136064D01*
X0106714Y0135968D01*
X0106962Y0135936D01*
X010721Y0135968D01*
X0107441Y0136064D01*
X0107639Y0136216D01*
X0107792Y0136415D01*
X0107887Y0136646D01*
X010792Y0136894D01*
X0107887Y0137142D01*
X0107792Y0137373D01*
X0107639Y0137571D01*
X0107441Y0137724D01*
X010721Y0137819D01*
X0106962Y0137852D01*
D02*
G37*
G36*
X0101962D02*
X0101714Y0137819D01*
X0101483Y0137724D01*
X0101284Y0137571D01*
X0101132Y0137373D01*
X0101036Y0137142D01*
X0101004Y0136894D01*
X0101036Y0136646D01*
X0101132Y0136415D01*
X0101284Y0136216D01*
X0101483Y0136064D01*
X0101714Y0135968D01*
X0101962Y0135936D01*
X010221Y0135968D01*
X0102441Y0136064D01*
X0102639Y0136216D01*
X0102792Y0136415D01*
X0102887Y0136646D01*
X010292Y0136894D01*
X0102887Y0137142D01*
X0102792Y0137373D01*
X0102639Y0137571D01*
X0102441Y0137724D01*
X010221Y0137819D01*
X0101962Y0137852D01*
D02*
G37*
G36*
X0096962D02*
X0096714Y0137819D01*
X0096483Y0137724D01*
X0096284Y0137571D01*
X0096132Y0137373D01*
X0096036Y0137142D01*
X0096004Y0136894D01*
X0096036Y0136646D01*
X0096132Y0136415D01*
X0096284Y0136216D01*
X0096483Y0136064D01*
X0096714Y0135968D01*
X0096962Y0135936D01*
X009721Y0135968D01*
X0097441Y0136064D01*
X0097639Y0136216D01*
X0097792Y0136415D01*
X0097887Y0136646D01*
X009792Y0136894D01*
X0097887Y0137142D01*
X0097792Y0137373D01*
X0097639Y0137571D01*
X0097441Y0137724D01*
X009721Y0137819D01*
X0096962Y0137852D01*
D02*
G37*
G36*
X0091962D02*
X0091714Y0137819D01*
X0091483Y0137724D01*
X0091284Y0137571D01*
X0091132Y0137373D01*
X0091036Y0137142D01*
X0091004Y0136894D01*
X0091036Y0136646D01*
X0091132Y0136415D01*
X0091284Y0136216D01*
X0091483Y0136064D01*
X0091714Y0135968D01*
X0091962Y0135936D01*
X009221Y0135968D01*
X0092441Y0136064D01*
X0092639Y0136216D01*
X0092792Y0136415D01*
X0092887Y0136646D01*
X009292Y0136894D01*
X0092887Y0137142D01*
X0092792Y0137373D01*
X0092639Y0137571D01*
X0092441Y0137724D01*
X009221Y0137819D01*
X0091962Y0137852D01*
D02*
G37*
G36*
X0086206Y013747D02*
X0086132Y0137373D01*
X0086036Y0137142D01*
X0086004Y0136894D01*
X0086036Y0136646D01*
X0086132Y0136415D01*
X0086284Y0136216D01*
X0086483Y0136064D01*
X0086714Y0135968D01*
X0086962Y0135936D01*
X008721Y0135968D01*
X0087441Y0136064D01*
X0087538Y0136138D01*
X0086872Y0136804D01*
X0086206Y013747D01*
D02*
G37*
G36*
X0087437Y0135304D02*
X0087242Y0135265D01*
X0087076Y0135154D01*
X0086966Y0134989D01*
X0086927Y0134794D01*
X0086966Y0134599D01*
X0087076Y0134433D01*
X0087242Y0134323D01*
X0087437Y0134284D01*
X0087632Y0134323D01*
X0087797Y0134433D01*
X0087908Y0134599D01*
X0087947Y0134794D01*
X0087908Y0134989D01*
X0087797Y0135154D01*
X0087632Y0135265D01*
X0087437Y0135304D01*
D02*
G37*
G36*
X0086237D02*
X0086042Y0135265D01*
X0085876Y0135154D01*
X0085766Y0134989D01*
X0085727Y0134794D01*
X0085766Y0134599D01*
X0085876Y0134433D01*
X0085876Y0134433D01*
X0085877Y0134431D01*
X0085879Y013442D01*
X008588Y0134406D01*
Y0133519D01*
X0085907Y0133382D01*
X0085984Y0133266D01*
X0088409Y0130841D01*
X0088525Y0130764D01*
X0088662Y0130737D01*
X0089053D01*
X008906Y0130736D01*
X0089074Y0130734D01*
X0089076Y0130733D01*
X0089076Y0130733D01*
X0089242Y0130623D01*
X0089437Y0130584D01*
X0089632Y0130623D01*
X0089797Y0130733D01*
X0089908Y0130899D01*
X0089947Y0131094D01*
X0089908Y0131289D01*
X0089797Y0131454D01*
X0089632Y0131565D01*
X0089437Y0131604D01*
X0089242Y0131565D01*
X0089076Y0131454D01*
X0089076Y0131454D01*
X0089074Y0131454D01*
X0089062Y0131452D01*
X0089049Y0131451D01*
X008881D01*
X0086594Y0133667D01*
Y013441D01*
X0086594Y0134417D01*
X0086597Y0134431D01*
X0086597Y0134433D01*
X0086597Y0134433D01*
X0086708Y0134599D01*
X0086747Y0134794D01*
X0086708Y0134989D01*
X0086597Y0135154D01*
X0086432Y0135265D01*
X0086237Y0135304D01*
D02*
G37*
G36*
X0083387Y0131254D02*
X0083192Y0131215D01*
X0083026Y0131104D01*
X0082916Y0130939D01*
X0082877Y0130744D01*
X0082916Y0130549D01*
X0083026Y0130383D01*
X0083192Y0130273D01*
X0083387Y0130234D01*
X0083582Y0130273D01*
X0083747Y0130383D01*
X0083858Y0130549D01*
X0083897Y0130744D01*
X0083858Y0130939D01*
X0083747Y0131104D01*
X0083582Y0131215D01*
X0083387Y0131254D01*
D02*
G37*
G36*
X0085762Y0130279D02*
X0085567Y013024D01*
X0085401Y0130129D01*
X0085291Y0129964D01*
X0085252Y0129769D01*
X0085291Y0129574D01*
X0085401Y0129408D01*
X0085567Y0129298D01*
X0085762Y0129259D01*
X0085957Y0129298D01*
X0086122Y0129408D01*
X0086233Y0129574D01*
X0086272Y0129769D01*
X0086233Y0129964D01*
X0086122Y0130129D01*
X0085957Y013024D01*
X0085762Y0130279D01*
D02*
G37*
G36*
X0081637Y0129754D02*
X0081442Y0129715D01*
X0081276Y0129604D01*
X0081166Y0129439D01*
X0081127Y0129244D01*
X0081166Y0129049D01*
X0081276Y0128883D01*
X0081442Y0128773D01*
X0081637Y0128734D01*
X0081832Y0128773D01*
X0081997Y0128883D01*
X0082108Y0129049D01*
X0082147Y0129244D01*
X0082108Y0129439D01*
X0081997Y0129604D01*
X0081832Y0129715D01*
X0081637Y0129754D01*
D02*
G37*
G36*
X0092787Y0127654D02*
X0092592Y0127615D01*
X0092426Y0127504D01*
X0092316Y0127339D01*
X0092277Y0127144D01*
X0092316Y0126949D01*
X0092426Y0126783D01*
X0092592Y0126673D01*
X0092787Y0126634D01*
X0092982Y0126673D01*
X0093147Y0126783D01*
X0093258Y0126949D01*
X0093297Y0127144D01*
X0093258Y0127339D01*
X0093147Y0127504D01*
X0092982Y0127615D01*
X0092787Y0127654D01*
D02*
G37*
G36*
X0094937Y0127204D02*
X0094742Y0127165D01*
X0094576Y0127054D01*
X0094466Y0126889D01*
X0094427Y0126694D01*
X0094466Y0126499D01*
X0094576Y0126333D01*
X0094742Y0126223D01*
X0094937Y0126184D01*
X0095132Y0126223D01*
X0095297Y0126333D01*
X0095408Y0126499D01*
X0095447Y0126694D01*
X0095408Y0126889D01*
X0095297Y0127054D01*
X0095132Y0127165D01*
X0094937Y0127204D01*
D02*
G37*
G36*
X0090412Y0127004D02*
X0090217Y0126965D01*
X0090051Y0126854D01*
X0089941Y0126689D01*
X0089902Y0126494D01*
X0089941Y0126299D01*
X0090051Y0126133D01*
X0090217Y0126023D01*
X0090412Y0125984D01*
X0090607Y0126023D01*
X0090772Y0126133D01*
X0090883Y0126299D01*
X0090922Y0126494D01*
X0090883Y0126689D01*
X0090772Y0126854D01*
X0090607Y0126965D01*
X0090412Y0127004D01*
D02*
G37*
G36*
X0110662Y0126554D02*
X0110467Y0126515D01*
X0110301Y0126404D01*
X0110191Y0126239D01*
X0110152Y0126044D01*
X0110191Y0125849D01*
X0110301Y0125683D01*
X0110467Y0125573D01*
X0110662Y0125534D01*
X0110857Y0125573D01*
X0111022Y0125683D01*
X0111133Y0125849D01*
X0111172Y0126044D01*
X0111133Y0126239D01*
X0111022Y0126404D01*
X0110857Y0126515D01*
X0110662Y0126554D01*
D02*
G37*
G36*
X0100812Y0126354D02*
X0100617Y0126315D01*
X0100451Y0126204D01*
X0100341Y0126039D01*
X0100302Y0125844D01*
X0100341Y0125649D01*
X0100451Y0125483D01*
X0100617Y0125373D01*
X0100812Y0125334D01*
X0101007Y0125373D01*
X0101172Y0125483D01*
X0101283Y0125649D01*
X0101322Y0125844D01*
X0101283Y0126039D01*
X0101172Y0126204D01*
X0101007Y0126315D01*
X0100812Y0126354D01*
D02*
G37*
G36*
X0099362Y0125054D02*
X0099167Y0125015D01*
X0099001Y0124904D01*
X0098891Y0124739D01*
X0098852Y0124544D01*
X0098891Y0124349D01*
X0099001Y0124183D01*
X0099167Y0124073D01*
X0099362Y0124034D01*
X0099557Y0124073D01*
X0099722Y0124183D01*
X0099833Y0124349D01*
X0099872Y0124544D01*
X0099833Y0124739D01*
X0099722Y0124904D01*
X0099557Y0125015D01*
X0099362Y0125054D01*
D02*
G37*
G36*
X0088437Y0126729D02*
X0088242Y012669D01*
X0088076Y0126579D01*
X0087966Y0126414D01*
X0087927Y0126219D01*
X0087966Y0126024D01*
X0088076Y0125858D01*
X0088076Y0125858D01*
X0088077Y0125856D01*
X0088079Y0125844D01*
X008808Y0125831D01*
Y0124894D01*
X0088107Y0124757D01*
X0088184Y0124641D01*
X0089884Y0122941D01*
X009Y0122864D01*
X0090137Y0122837D01*
X0095625D01*
X009565Y0122835D01*
X0095661Y0122833D01*
X0095671Y0122831D01*
X0095676Y0122829D01*
X0095677Y0122829D01*
X0095681Y0122827D01*
X0095684Y0122825D01*
X0095686Y0122825D01*
X0095692Y0122823D01*
X0095767Y0122773D01*
X0095962Y0122734D01*
X0096135Y0122768D01*
X0096001Y0122679D01*
X0095891Y0122514D01*
X0095862Y0122367D01*
X0095833Y0122396D01*
X0095717Y0122474D01*
X0095581Y0122501D01*
X0094712D01*
X0094575Y0122474D01*
X0094459Y0122396D01*
X0093039Y0120976D01*
X0091845D01*
X0091839Y0120976D01*
X0091825Y0120979D01*
X0091822Y0120979D01*
X0091822Y0120979D01*
X0091657Y012109D01*
X0091462Y0121129D01*
X0091267Y012109D01*
X0091101Y0120979D01*
X0091101Y0120979D01*
X0091099Y0120979D01*
X0091088Y0120977D01*
X0091074Y0120976D01*
X008691D01*
X008556Y0122325D01*
X0085556Y012233D01*
X0085548Y0122342D01*
X0085547Y0122344D01*
X0085547Y0122344D01*
X0085508Y0122539D01*
X0085397Y0122704D01*
X0085232Y0122815D01*
X0085037Y0122854D01*
X0084842Y0122815D01*
X0084676Y0122704D01*
X0084566Y0122539D01*
X0084527Y0122344D01*
X0084566Y0122149D01*
X0084676Y0121983D01*
X0084842Y0121873D01*
X0085037Y0121834D01*
X0085037Y0121834D01*
X0085039Y0121833D01*
X0085048Y0121826D01*
X0085059Y0121817D01*
X0086509Y0120366D01*
X0086625Y0120289D01*
X0086762Y0120262D01*
X0091078D01*
X0091085Y0120261D01*
X0091099Y0120259D01*
X0091101Y0120258D01*
X0091101Y0120258D01*
X0091267Y0120148D01*
X0091462Y0120109D01*
X0091657Y0120148D01*
X0091822Y0120258D01*
X0091822Y0120258D01*
X0091825Y0120259D01*
X0091836Y0120261D01*
X0091849Y0120262D01*
X0093187D01*
X0093323Y0120289D01*
X0093439Y0120366D01*
X0094779Y0121707D01*
X0094752Y0121569D01*
X0094791Y0121374D01*
X0094901Y0121208D01*
X0095067Y0121098D01*
X0095262Y0121059D01*
X0095262Y0121059D01*
X0095264Y0121058D01*
X0095273Y0121051D01*
X0095284Y0121042D01*
X0096409Y0119916D01*
X0096525Y0119839D01*
X0096662Y0119812D01*
X0102589D01*
X0102613Y0119788D01*
X0102618Y0119782D01*
X0102626Y0119771D01*
X0102627Y0119769D01*
X0102627Y0119769D01*
X0102666Y0119574D01*
X0102776Y0119408D01*
X0102788Y0119401D01*
X0096585D01*
X0095785Y01202D01*
X0095781Y0120205D01*
X0095773Y0120217D01*
X0095772Y0120219D01*
X0095772Y0120219D01*
X0095733Y0120414D01*
X0095622Y0120579D01*
X0095457Y012069D01*
X0095262Y0120729D01*
X0095067Y012069D01*
X0094901Y0120579D01*
X0094791Y0120414D01*
X0094752Y0120219D01*
X0094791Y0120024D01*
X0094901Y0119858D01*
X0094985Y0119802D01*
X0094876Y0119729D01*
X0094812Y0119633D01*
X0094747Y0119729D01*
X0094582Y011984D01*
X0094387Y0119879D01*
X0094192Y011984D01*
X0094026Y0119729D01*
X0094026Y0119729D01*
X0094024Y0119729D01*
X0094012Y0119727D01*
X0093999Y0119726D01*
X0093641D01*
X009342Y0119946D01*
X0093305Y0120023D01*
X0093168Y0120051D01*
X0091137D01*
X0091Y0120023D01*
X0090884Y0119946D01*
X0088714Y0117776D01*
X0079913D01*
X007988Y0117782D01*
X007984Y0117794D01*
X0079795Y0117813D01*
X0079745Y0117839D01*
X0079692Y0117873D01*
X0079636Y0117913D01*
X0079508Y0118023D01*
X0079458Y0118072D01*
X0079439Y0118096D01*
X0079241Y0118249D01*
X007901Y0118344D01*
X0078762Y0118377D01*
X0078514Y0118344D01*
X0078283Y0118249D01*
X0078084Y0118096D01*
X0077932Y0117898D01*
X0077836Y0117667D01*
X0077804Y0117419D01*
X0077836Y0117171D01*
X0077932Y011694D01*
X0078084Y0116741D01*
X0078283Y0116589D01*
X0078514Y0116493D01*
X0078762Y0116461D01*
X007901Y0116493D01*
X0079241Y0116589D01*
X0079439Y0116741D01*
X0079456Y0116763D01*
X0079575Y0116875D01*
X0079634Y0116923D01*
X0079692Y0116965D01*
X0079745Y0116998D01*
X0079795Y0117024D01*
X007984Y0117043D01*
X007988Y0117056D01*
X0079913Y0117062D01*
X0088862D01*
X0088998Y0117089D01*
X0089114Y0117166D01*
X0091285Y0119337D01*
X009302D01*
X0093241Y0119116D01*
X0093356Y0119039D01*
X0093493Y0119012D01*
X0094003D01*
X009401Y0119011D01*
X0094024Y0119009D01*
X0094026Y0119008D01*
X0094026Y0119008D01*
X0094192Y0118898D01*
X0094387Y0118859D01*
X0094582Y0118898D01*
X0094747Y0119008D01*
X0094812Y0119105D01*
X0094876Y0119008D01*
X0095042Y0118898D01*
X0095237Y0118859D01*
X0095432Y0118898D01*
X0095597Y0119008D01*
X0095708Y0119174D01*
X0095723Y0119252D01*
X0096184Y0118791D01*
X00963Y0118714D01*
X0096437Y0118687D01*
X0105614D01*
X0107055Y0117246D01*
Y0112919D01*
X0107082Y0112782D01*
X0107159Y0112666D01*
X0108259Y0111566D01*
X0108321Y0111526D01*
X0098195D01*
X0098189Y0111526D01*
X0098175Y0111529D01*
X0098172Y0111529D01*
X0098172Y0111529D01*
X0098007Y011164D01*
X0097812Y0111679D01*
X0097617Y011164D01*
X0097451Y0111529D01*
X0097341Y0111364D01*
X0097302Y0111169D01*
X0097341Y0110974D01*
X0097451Y0110808D01*
X0097617Y0110698D01*
X0097812Y0110659D01*
X0098007Y0110698D01*
X0098172Y0110808D01*
X0098172Y0110808D01*
X0098175Y0110809D01*
X0098186Y0110811D01*
X0098199Y0110812D01*
X0112687D01*
X0112823Y0110839D01*
X0112939Y0110916D01*
X01146Y0112577D01*
X0114628Y0112596D01*
X0114665Y0112616D01*
X011471Y0112634D01*
X0114764Y0112651D01*
X0114825Y0112665D01*
X0114893Y0112676D01*
X0115061Y0112689D01*
X0115131Y011269D01*
X0115162Y0112686D01*
X011541Y0112718D01*
X0115641Y0112814D01*
X0115839Y0112966D01*
X0115992Y0113165D01*
X0116087Y0113396D01*
X011612Y0113644D01*
X0116087Y0113892D01*
X0115992Y0114123D01*
X0115839Y0114321D01*
X0115641Y0114474D01*
X011541Y0114569D01*
X0115162Y0114602D01*
X0114914Y0114569D01*
X0114683Y0114474D01*
X0114484Y0114321D01*
X0114332Y0114123D01*
X0114236Y0113892D01*
X0114204Y0113644D01*
X0114207Y0113616D01*
X0114202Y0113453D01*
X0114194Y0113377D01*
X0114183Y0113307D01*
X0114169Y0113246D01*
X0114152Y0113192D01*
X0114134Y0113147D01*
X0114114Y011311D01*
X0114095Y0113082D01*
X0112539Y0111526D01*
X0110742D01*
X0110808Y0111624D01*
X0110847Y0111819D01*
X0110808Y0112014D01*
X0110697Y0112179D01*
X0110532Y011229D01*
X0110337Y0112329D01*
X0110142Y011229D01*
X0109976Y0112179D01*
X0109976Y0112179D01*
X0109974Y0112179D01*
X0109963Y0112177D01*
X0109949Y0112176D01*
X010866D01*
X0107769Y0113067D01*
Y0117394D01*
X0107741Y011753D01*
X0107664Y0117646D01*
X0106014Y0119296D01*
X0105898Y0119373D01*
X0105762Y0119401D01*
X0103486D01*
X0103497Y0119408D01*
X0103608Y0119574D01*
X0103647Y0119769D01*
X0103608Y0119964D01*
X0103497Y0120129D01*
X0103332Y012024D01*
X0103137Y0120279D01*
X0103137Y0120279D01*
X0103135Y012028D01*
X0103125Y0120287D01*
X0103115Y0120295D01*
X0102989Y0120421D01*
X0102873Y0120498D01*
X0102737Y0120526D01*
X0100615D01*
X0100639Y0120541D01*
X0101743Y0121645D01*
X0101748Y012165D01*
X010176Y0121658D01*
X0101762Y0121659D01*
X0101762Y0121659D01*
X0101957Y0121698D01*
X0102122Y0121808D01*
X0102233Y0121974D01*
X0102272Y0122169D01*
X0102233Y0122364D01*
X0102122Y0122529D01*
X0101957Y012264D01*
X0101762Y0122679D01*
X0101567Y012264D01*
X0101401Y0122529D01*
X0101291Y0122364D01*
X0101252Y0122169D01*
X0101252Y0122169D01*
X0101251Y0122167D01*
X0101244Y0122157D01*
X0101235Y0122147D01*
X0100264Y0121176D01*
X009867D01*
X0098664Y0121176D01*
X009865Y0121179D01*
X0098647Y0121179D01*
X0098647Y0121179D01*
X0098482Y012129D01*
X0098287Y0121329D01*
X0098092Y012129D01*
X0097926Y0121179D01*
X0097926Y0121179D01*
X0097924Y0121179D01*
X0097912Y0121177D01*
X0097899Y0121176D01*
X0097053D01*
X009641Y0121819D01*
X0096557Y0121848D01*
X0096722Y0121958D01*
X0096833Y0122124D01*
X0096872Y0122319D01*
X0096833Y0122514D01*
X0096722Y0122679D01*
X0096557Y012279D01*
X0096362Y0122829D01*
X0096189Y0122794D01*
X0096322Y0122883D01*
X0096433Y0123049D01*
X0096472Y0123244D01*
X0096433Y0123439D01*
X0096322Y0123604D01*
X0096157Y0123715D01*
X0095962Y0123754D01*
X0095767Y0123715D01*
X0095601Y0123604D01*
X0095568Y0123554D01*
X0095566Y0123554D01*
X0095559Y0123552D01*
X0095543Y0123551D01*
X0095517D01*
X0095533Y0123574D01*
X0095572Y0123769D01*
X0095533Y0123964D01*
X0095422Y0124129D01*
X0095422Y0124129D01*
X0095422Y0124132D01*
X009542Y0124143D01*
X0095419Y0124156D01*
Y0124394D01*
X0095391Y012453D01*
X0095314Y0124646D01*
X009476Y01252D01*
X0094756Y0125205D01*
X0094748Y0125217D01*
X0094747Y0125219D01*
X0094747Y0125219D01*
X0094708Y0125414D01*
X0094597Y0125579D01*
X0094432Y012569D01*
X0094237Y0125729D01*
X0094042Y012569D01*
X0093955Y0125632D01*
X0093983Y0125674D01*
X0094022Y0125869D01*
X0093983Y0126064D01*
X0093872Y0126229D01*
X0093707Y012634D01*
X0093512Y0126379D01*
X0093317Y012634D01*
X0093151Y0126229D01*
X0093041Y0126064D01*
X0093002Y0125869D01*
X0093041Y0125674D01*
X0093151Y0125508D01*
X0093317Y0125398D01*
X0093512Y0125359D01*
X0093707Y0125398D01*
X0093794Y0125456D01*
X0093766Y0125414D01*
X0093727Y0125219D01*
X0093766Y0125024D01*
X0093876Y0124858D01*
X0094042Y0124748D01*
X0094237Y0124709D01*
X0094237Y0124709D01*
X0094239Y0124708D01*
X0094248Y0124701D01*
X0094259Y0124692D01*
X0094705Y0124246D01*
Y0124152D01*
X0094704Y0124146D01*
X0094702Y0124132D01*
X0094701Y0124129D01*
X0094701Y0124129D01*
X0094591Y0123964D01*
X0094552Y0123769D01*
X0094591Y0123574D01*
X0094606Y0123551D01*
X0090285D01*
X0089068Y0124768D01*
X0089237Y0124734D01*
X0089432Y0124773D01*
X0089597Y0124883D01*
X0089708Y0125049D01*
X0089747Y0125244D01*
X0089708Y0125439D01*
X0089597Y0125604D01*
X0089432Y0125715D01*
X0089237Y0125754D01*
X0089042Y0125715D01*
X0088876Y0125604D01*
X0088794Y0125481D01*
Y0125835D01*
X0088794Y0125842D01*
X0088797Y0125856D01*
X0088797Y0125858D01*
X0088797Y0125858D01*
X0088908Y0126024D01*
X0088947Y0126219D01*
X0088908Y0126414D01*
X0088797Y0126579D01*
X0088632Y012669D01*
X0088437Y0126729D01*
D02*
G37*
G36*
X0097487Y0123004D02*
X0097292Y0122965D01*
X0097126Y0122854D01*
X0097016Y0122689D01*
X0096977Y0122494D01*
X0097016Y0122299D01*
X0097126Y0122133D01*
X0097292Y0122023D01*
X0097487Y0121984D01*
X0097682Y0122023D01*
X0097847Y0122133D01*
X0097958Y0122299D01*
X0097997Y0122494D01*
X0097958Y0122689D01*
X0097847Y0122854D01*
X0097682Y0122965D01*
X0097487Y0123004D01*
D02*
G37*
G36*
X0088387Y0119954D02*
X0088192Y0119915D01*
X0088026Y0119804D01*
X0087916Y0119639D01*
X0087877Y0119444D01*
X0087916Y0119249D01*
X0088026Y0119083D01*
X0088192Y0118973D01*
X0088387Y0118934D01*
X0088582Y0118973D01*
X0088747Y0119083D01*
X0088858Y0119249D01*
X0088897Y0119444D01*
X0088858Y0119639D01*
X0088747Y0119804D01*
X0088582Y0119915D01*
X0088387Y0119954D01*
D02*
G37*
G36*
X0105212Y0118679D02*
X0105017Y011864D01*
X0104851Y0118529D01*
X0104851Y0118529D01*
X0104849Y0118529D01*
X0104838Y0118527D01*
X0104824Y0118526D01*
X009432D01*
X0094314Y0118526D01*
X00943Y0118529D01*
X0094297Y0118529D01*
X0094297Y0118529D01*
X0094132Y011864D01*
X0093937Y0118679D01*
X0093742Y011864D01*
X0093576Y0118529D01*
X0093466Y0118364D01*
X0093427Y0118169D01*
X0093466Y0117974D01*
X0093576Y0117808D01*
X0093742Y0117698D01*
X0093937Y0117659D01*
X0094132Y0117698D01*
X0094297Y0117808D01*
X0094297Y0117808D01*
X00943Y0117809D01*
X0094311Y0117811D01*
X0094324Y0117812D01*
X0104828D01*
X0104835Y0117811D01*
X0104849Y0117809D01*
X0104851Y0117808D01*
X0104851Y0117808D01*
X0105017Y0117698D01*
X0105212Y0117659D01*
X0105407Y0117698D01*
X0105572Y0117808D01*
X0105683Y0117974D01*
X0105722Y0118169D01*
X0105683Y0118364D01*
X0105572Y0118529D01*
X0105407Y011864D01*
X0105212Y0118679D01*
D02*
G37*
G36*
X0108587Y0119004D02*
X0108392Y0118965D01*
X0108226Y0118854D01*
X0108116Y0118689D01*
X0108077Y0118494D01*
X0108116Y0118299D01*
X0108226Y0118133D01*
X0108392Y0118023D01*
X0108587Y0117984D01*
X0108782Y0118023D01*
X0108947Y0118133D01*
X0109058Y0118299D01*
X0109097Y0118494D01*
X0109058Y0118689D01*
X0108947Y0118854D01*
X0108782Y0118965D01*
X0108587Y0119004D01*
D02*
G37*
G36*
X0091337Y0117854D02*
X0091142Y0117815D01*
X0090976Y0117704D01*
X0090866Y0117539D01*
X0090827Y0117344D01*
X0090866Y0117149D01*
X0090908Y0117085D01*
X0090795D01*
X0090789Y0117086D01*
X0090775Y0117088D01*
X0090772Y0117089D01*
X0090772Y0117089D01*
X0090607Y01172D01*
X0090412Y0117238D01*
X0090217Y01172D01*
X0090051Y0117089D01*
X0089941Y0116924D01*
X0089902Y0116729D01*
X0089941Y0116534D01*
X0090051Y0116368D01*
X0090217Y0116258D01*
X0090412Y0116219D01*
X0090607Y0116258D01*
X0090772Y0116368D01*
X0090772Y0116368D01*
X0090775Y0116369D01*
X0090786Y0116371D01*
X0090799Y0116372D01*
X0092504D01*
X0092909Y0115966D01*
X0093025Y0115889D01*
X0093162Y0115862D01*
X0093638D01*
X0093551Y0115804D01*
X0093441Y0115639D01*
X0093402Y0115444D01*
X0093441Y0115249D01*
X0093551Y0115083D01*
X0093717Y0114973D01*
X0093912Y0114934D01*
X0094107Y0114973D01*
X0094272Y0115083D01*
X0094272Y0115083D01*
X0094275Y0115084D01*
X0094286Y0115086D01*
X0094299Y0115087D01*
X0099362D01*
X0099201Y0114979D01*
X0099091Y0114814D01*
X0099052Y0114619D01*
X0099052Y0114619D01*
X0099051Y0114617D01*
X0099044Y0114607D01*
X0099035Y0114597D01*
X0098614Y0114176D01*
X0094734D01*
X0094783Y0114249D01*
X0094822Y0114444D01*
X0094783Y0114639D01*
X0094672Y0114804D01*
X0094507Y0114915D01*
X0094312Y0114954D01*
X0094117Y0114915D01*
X0093951Y0114804D01*
X0093841Y0114639D01*
X0093802Y0114444D01*
X0093841Y0114249D01*
X0093889Y0114176D01*
X0093889Y0114176D01*
X0093875Y0114179D01*
X0093872Y0114179D01*
X0093872Y0114179D01*
X0093707Y011429D01*
X0093512Y0114329D01*
X0093317Y011429D01*
X0093151Y0114179D01*
X0093041Y0114014D01*
X0093002Y0113819D01*
X0093041Y0113624D01*
X0093151Y0113458D01*
X0093317Y0113348D01*
X0093512Y0113309D01*
X0093707Y0113348D01*
X0093872Y0113458D01*
X0093872Y0113458D01*
X0093875Y0113459D01*
X0093886Y0113461D01*
X0093899Y0113462D01*
X0094713D01*
X0094626Y0113404D01*
X0094516Y0113239D01*
X0094477Y0113044D01*
X0094516Y0112849D01*
X0094626Y0112683D01*
X0094792Y0112573D01*
X0094987Y0112534D01*
X0095182Y0112573D01*
X0095347Y0112683D01*
X0095458Y0112849D01*
X0095497Y0113044D01*
X0095458Y0113239D01*
X0095347Y0113404D01*
X0095261Y0113462D01*
X0098762D01*
X0098898Y0113489D01*
X0099014Y0113566D01*
X0099543Y0114095D01*
X0099548Y01141D01*
X009956Y0114108D01*
X0099562Y0114109D01*
X0099562Y0114109D01*
X0099757Y0114148D01*
X0099922Y0114258D01*
X0100033Y0114424D01*
X0100072Y0114619D01*
X0100033Y0114814D01*
X0099922Y0114979D01*
X0099761Y0115087D01*
X0101073D01*
X0100991Y0114964D01*
X0100952Y0114769D01*
X0100991Y0114574D01*
X0101101Y0114408D01*
X0101267Y0114298D01*
X0101462Y0114259D01*
X0101657Y0114298D01*
X0101822Y0114408D01*
X0101933Y0114574D01*
X0101972Y0114769D01*
X0101935Y0114954D01*
X0102032Y0114973D01*
X0102197Y0115083D01*
X0102308Y0115249D01*
X0102347Y0115444D01*
X0102308Y0115639D01*
X0102197Y0115804D01*
X0102032Y0115915D01*
X0101837Y0115954D01*
X0101642Y0115915D01*
X0101476Y0115804D01*
X0101476Y0115804D01*
X0101474Y0115804D01*
X0101463Y0115802D01*
X0101449Y0115801D01*
X0094295D01*
X0094289Y0115801D01*
X0094275Y0115804D01*
X0094272Y0115804D01*
X0094272Y0115804D01*
X0094186Y0115862D01*
X0094262D01*
X0094398Y0115889D01*
X0094514Y0115966D01*
X0095235Y0116687D01*
X0101864D01*
X0103259Y0115292D01*
X0103266Y0115283D01*
X0103274Y0115273D01*
X0103281Y0115263D01*
X0103284Y0115256D01*
X0103285Y0115256D01*
X0103285Y0115256D01*
X0103285Y0115255D01*
X0103285Y0115255D01*
X0103316Y0115099D01*
X0103426Y0114933D01*
X0103592Y0114823D01*
X0103787Y0114784D01*
X0103982Y0114823D01*
X0104147Y0114933D01*
X0104258Y0115099D01*
X0104297Y0115294D01*
X0104258Y0115489D01*
X0104147Y0115654D01*
X0103982Y0115765D01*
X0103787Y0115804D01*
X0103766Y01158D01*
X0103763Y0115802D01*
X0103755Y0115808D01*
X0103743Y0115817D01*
X0102264Y0117296D01*
X0102148Y0117373D01*
X0102012Y0117401D01*
X0095087D01*
X009495Y0117373D01*
X0094834Y0117296D01*
X0094114Y0116576D01*
X0094101D01*
X0094183Y0116699D01*
X0094222Y0116894D01*
X0094183Y0117089D01*
X0094072Y0117254D01*
X0093907Y0117365D01*
X0093712Y0117404D01*
X0093517Y0117365D01*
X0093351Y0117254D01*
X0093241Y0117089D01*
X0093202Y0116894D01*
X0093241Y0116699D01*
X0093323Y0116576D01*
X009331D01*
X0092904Y0116981D01*
X0092789Y0117058D01*
X0092652Y0117085D01*
X0091766D01*
X0091808Y0117149D01*
X0091847Y0117344D01*
X0091808Y0117539D01*
X0091697Y0117704D01*
X0091532Y0117815D01*
X0091337Y0117854D01*
D02*
G37*
G36*
X0104362Y0117529D02*
X0104167Y011749D01*
X0104001Y0117379D01*
X0103891Y0117214D01*
X0103852Y0117019D01*
X0103891Y0116824D01*
X0104001Y0116658D01*
X0104167Y0116548D01*
X0104362Y0116509D01*
X0104557Y0116548D01*
X0104722Y0116658D01*
X0104833Y0116824D01*
X0104872Y0117019D01*
X0104833Y0117214D01*
X0104722Y0117379D01*
X0104557Y011749D01*
X0104362Y0117529D01*
D02*
G37*
G36*
X0108762Y0116129D02*
X0108567Y011609D01*
X0108401Y0115979D01*
X0108291Y0115814D01*
X0108252Y0115619D01*
X0108291Y0115424D01*
X0108401Y0115258D01*
X0108567Y0115148D01*
X0108762Y0115109D01*
X0108957Y0115148D01*
X0109122Y0115258D01*
X0109233Y0115424D01*
X0109272Y0115619D01*
X0109233Y0115814D01*
X0109122Y0115979D01*
X0108957Y011609D01*
X0108762Y0116129D01*
D02*
G37*
G36*
X0092187Y0115304D02*
X0091992Y0115265D01*
X0091826Y0115154D01*
X0091716Y0114989D01*
X0091677Y0114794D01*
X0091716Y0114599D01*
X0091826Y0114433D01*
X0091992Y0114323D01*
X0092187Y0114284D01*
X0092382Y0114323D01*
X0092547Y0114433D01*
X0092658Y0114599D01*
X0092697Y0114794D01*
X0092658Y0114989D01*
X0092547Y0115154D01*
X0092382Y0115265D01*
X0092187Y0115304D01*
D02*
G37*
G36*
X0111487Y0114829D02*
X0111292Y011479D01*
X0111126Y0114679D01*
X0111016Y0114514D01*
X0110977Y0114319D01*
X0111016Y0114124D01*
X0111126Y0113958D01*
X0111292Y0113848D01*
X0111487Y0113809D01*
X0111682Y0113848D01*
X0111847Y0113958D01*
X0111958Y0114124D01*
X0111997Y0114319D01*
X0111958Y0114514D01*
X0111847Y0114679D01*
X0111682Y011479D01*
X0111487Y0114829D01*
D02*
G37*
G36*
X0103737Y0114629D02*
X0103542Y011459D01*
X0103376Y0114479D01*
X0103266Y0114314D01*
X0103227Y0114119D01*
X0103266Y0113924D01*
X0103376Y0113758D01*
X0103542Y0113648D01*
X0103737Y0113609D01*
X0103932Y0113648D01*
X0104097Y0113758D01*
X0104208Y0113924D01*
X0104247Y0114119D01*
X0104208Y0114314D01*
X0104097Y0114479D01*
X0103932Y011459D01*
X0103737Y0114629D01*
D02*
G37*
G36*
X0102837Y0113879D02*
X0102642Y011384D01*
X0102476Y0113729D01*
X0102366Y0113564D01*
X0102327Y0113369D01*
X0102366Y0113174D01*
X0102476Y0113008D01*
X0102642Y0112898D01*
X0102837Y0112859D01*
X0103032Y0112898D01*
X0103197Y0113008D01*
X0103308Y0113174D01*
X0103347Y0113369D01*
X0103308Y0113564D01*
X0103197Y0113729D01*
X0103032Y011384D01*
X0102837Y0113879D01*
D02*
G37*
G36*
X0092162Y0113504D02*
X0091967Y0113465D01*
X0091801Y0113354D01*
X0091691Y0113189D01*
X0091652Y0112994D01*
X0091691Y0112799D01*
X0091801Y0112633D01*
X0091967Y0112523D01*
X0092162Y0112484D01*
X0092357Y0112523D01*
X0092522Y0112633D01*
X0092633Y0112799D01*
X0092672Y0112994D01*
X0092633Y0113189D01*
X0092522Y0113354D01*
X0092357Y0113465D01*
X0092162Y0113504D01*
D02*
G37*
G36*
X0088962Y0112829D02*
X0088767Y011279D01*
X0088601Y0112679D01*
X0088491Y0112514D01*
X0088452Y0112319D01*
X0088491Y0112124D01*
X0088601Y0111958D01*
X0088767Y0111848D01*
X0088962Y0111809D01*
X0089157Y0111848D01*
X0089322Y0111958D01*
X0089433Y0112124D01*
X0089472Y0112319D01*
X0089433Y0112514D01*
X0089322Y0112679D01*
X0089157Y011279D01*
X0088962Y0112829D01*
D02*
G37*
G36*
X0086087Y0111904D02*
X0085892Y0111865D01*
X0085726Y0111754D01*
X0085616Y0111589D01*
X0085577Y0111394D01*
X0085616Y0111199D01*
X0085726Y0111033D01*
X0085892Y0110923D01*
X0086087Y0110884D01*
X0086282Y0110923D01*
X0086447Y0111033D01*
X0086558Y0111199D01*
X0086597Y0111394D01*
X0086558Y0111589D01*
X0086447Y0111754D01*
X0086282Y0111865D01*
X0086087Y0111904D01*
D02*
G37*
G36*
X0078687Y0114377D02*
X0078439Y0114344D01*
X0078208Y0114249D01*
X0078009Y0114096D01*
X0077857Y0113898D01*
X0077761Y0113667D01*
X0077729Y0113419D01*
X0077761Y0113171D01*
X0077857Y011294D01*
X0078009Y0112741D01*
X0078208Y0112589D01*
X0078439Y0112493D01*
X0078687Y0112461D01*
X0078935Y0112493D01*
X0079166Y0112589D01*
X0079364Y0112741D01*
X0079381Y0112763D01*
X00795Y0112875D01*
X0079559Y0112923D01*
X0079617Y0112965D01*
X007967Y0112998D01*
X007972Y0113024D01*
X0079765Y0113043D01*
X0079805Y0113056D01*
X0079838Y0113062D01*
X0085789D01*
X0087934Y0110916D01*
X008805Y0110839D01*
X0088187Y0110812D01*
X0095978D01*
X0095985Y0110811D01*
X0095999Y0110809D01*
X0096001Y0110808D01*
X0096001Y0110808D01*
X0096167Y0110698D01*
X0096362Y0110659D01*
X0096557Y0110698D01*
X0096722Y0110808D01*
X0096833Y0110974D01*
X0096872Y0111169D01*
X0096833Y0111364D01*
X0096722Y0111529D01*
X0096557Y011164D01*
X0096362Y0111679D01*
X0096167Y011164D01*
X0096001Y0111529D01*
X0096001Y0111529D01*
X0095999Y0111529D01*
X0095988Y0111527D01*
X0095974Y0111526D01*
X0088335D01*
X0086189Y0113671D01*
X0086073Y0113748D01*
X0085937Y0113776D01*
X0079838D01*
X0079805Y0113782D01*
X0079765Y0113794D01*
X007972Y0113813D01*
X007967Y0113839D01*
X0079617Y0113873D01*
X0079561Y0113913D01*
X0079433Y0114023D01*
X0079383Y0114072D01*
X0079364Y0114096D01*
X0079166Y0114249D01*
X0078935Y0114344D01*
X0078687Y0114377D01*
D02*
G37*
G36*
X0115162Y0111077D02*
X0114914Y0111044D01*
X0114683Y0110949D01*
X0114484Y0110796D01*
X0114332Y0110598D01*
X0114236Y0110367D01*
X0114204Y0110119D01*
X0114236Y0109871D01*
X0114265Y0109801D01*
X009822D01*
X0098214Y0109801D01*
X00982Y0109804D01*
X0098197Y0109804D01*
X0098197Y0109804D01*
X0098032Y0109915D01*
X0097837Y0109954D01*
X0097642Y0109915D01*
X0097476Y0109804D01*
X0097366Y0109639D01*
X0097327Y0109444D01*
X0097366Y0109249D01*
X0097476Y0109083D01*
X0097642Y0108973D01*
X0097837Y0108934D01*
X0098032Y0108973D01*
X0098197Y0109083D01*
X0098197Y0109083D01*
X00982Y0109084D01*
X0098211Y0109086D01*
X0098224Y0109087D01*
X0114487D01*
X0114623Y0109114D01*
X0114739Y0109191D01*
X0114782Y0109234D01*
X0114794Y0109243D01*
X0114914Y0109193D01*
X0115162Y0109161D01*
X011541Y0109193D01*
X0115641Y0109289D01*
X0115839Y0109441D01*
X0115992Y010964D01*
X0116087Y0109871D01*
X011612Y0110119D01*
X0116087Y0110367D01*
X0115992Y0110598D01*
X0115839Y0110796D01*
X0115641Y0110949D01*
X011541Y0111044D01*
X0115162Y0111077D01*
D02*
G37*
G36*
X0078762Y0110852D02*
X0078514Y0110819D01*
X0078283Y0110724D01*
X0078084Y0110571D01*
X0077932Y0110373D01*
X0077836Y0110142D01*
X0077804Y0109894D01*
X0077836Y0109646D01*
X0077932Y0109415D01*
X0078084Y0109216D01*
X0078283Y0109064D01*
X0078514Y0108968D01*
X0078762Y0108936D01*
X007901Y0108968D01*
X0079241Y0109064D01*
X0079439Y0109216D01*
X0079456Y0109238D01*
X0079575Y010935D01*
X0079634Y0109398D01*
X0079692Y010944D01*
X0079745Y0109473D01*
X0079795Y0109499D01*
X007984Y0109518D01*
X007988Y0109531D01*
X0079913Y0109537D01*
X0088589D01*
X0088984Y0109141D01*
X00891Y0109064D01*
X0089237Y0109037D01*
X0096028D01*
X0096035Y0109036D01*
X0096049Y0109034D01*
X0096051Y0109033D01*
X0096051Y0109033D01*
X0096217Y0108923D01*
X0096412Y0108884D01*
X0096607Y0108923D01*
X0096772Y0109033D01*
X0096883Y0109199D01*
X0096922Y0109394D01*
X0096883Y0109589D01*
X0096772Y0109754D01*
X0096607Y0109865D01*
X0096412Y0109904D01*
X0096217Y0109865D01*
X0096051Y0109754D01*
X0096051Y0109754D01*
X0096049Y0109754D01*
X0096037Y0109752D01*
X0096024Y0109751D01*
X0089385D01*
X0088989Y0110146D01*
X0088873Y0110224D01*
X0088737Y0110251D01*
X0079913D01*
X007988Y0110257D01*
X007984Y0110269D01*
X0079795Y0110288D01*
X0079745Y0110314D01*
X0079692Y0110348D01*
X0079636Y0110388D01*
X0079508Y0110498D01*
X0079458Y0110547D01*
X0079439Y0110571D01*
X0079241Y0110724D01*
X007901Y0110819D01*
X0078762Y0110852D01*
D02*
G37*
G36*
X0097262Y0108679D02*
X0097067Y010864D01*
X0096901Y0108529D01*
X0096901Y0108529D01*
X0096899Y0108529D01*
X0096887Y0108527D01*
X0096874Y0108526D01*
X0090752D01*
X0090741Y0108526D01*
X0090728Y0108528D01*
X0090716Y0108531D01*
X0090708Y0108533D01*
X0090706Y0108533D01*
X0090705Y0108534D01*
X00907Y0108537D01*
X0090698Y0108537D01*
X0090697Y0108538D01*
X0090697Y0108538D01*
X0090582Y0108615D01*
X0090387Y0108654D01*
X0090192Y0108615D01*
X0090026Y0108504D01*
X0089916Y0108339D01*
X0089877Y0108144D01*
X0089916Y0107949D01*
X0090026Y0107783D01*
X0090192Y0107673D01*
X0090387Y0107634D01*
X0090582Y0107673D01*
X0090747Y0107783D01*
X0090764Y0107808D01*
X0090768Y0107809D01*
X0090777Y0107811D01*
X0090792Y0107812D01*
X0096878D01*
X0096885Y0107811D01*
X0096899Y0107809D01*
X0096901Y0107808D01*
X0096901Y0107808D01*
X0097067Y0107698D01*
X0097262Y0107659D01*
X0097457Y0107698D01*
X0097622Y0107808D01*
X0097733Y0107974D01*
X0097772Y0108169D01*
X0097733Y0108364D01*
X0097622Y0108529D01*
X0097457Y010864D01*
X0097262Y0108679D01*
D02*
G37*
G36*
X0087462Y0109454D02*
X0087267Y0109415D01*
X0087101Y0109304D01*
X0086991Y0109139D01*
X0086952Y0108944D01*
X0086991Y0108749D01*
X0087101Y0108583D01*
X0087267Y0108473D01*
X0087462Y0108434D01*
X0087657Y0108473D01*
X0087822Y0108583D01*
X0087933Y0108749D01*
X0087972Y0108944D01*
X0087933Y0109139D01*
X0087822Y0109304D01*
X0087657Y0109415D01*
X0087462Y0109454D01*
D02*
G37*
G36*
X0086262Y0108529D02*
X0086067Y010849D01*
X0085901Y0108379D01*
X0085791Y0108214D01*
X0085752Y0108019D01*
X0085791Y0107824D01*
X0085901Y0107658D01*
X0086067Y0107548D01*
X0086262Y0107509D01*
X0086457Y0107548D01*
X0086622Y0107658D01*
X0086733Y0107824D01*
X0086772Y0108019D01*
X0086733Y0108214D01*
X0086622Y0108379D01*
X0086457Y010849D01*
X0086262Y0108529D01*
D02*
G37*
G36*
X0085012Y0107676D02*
X0079537D01*
X00794Y0107648D01*
X0079284Y0107571D01*
X007925Y0107537D01*
X0079227Y0107519D01*
X0079198Y0107501D01*
X0079169Y0107487D01*
X007914Y0107477D01*
X007911Y010747D01*
X0079078Y0107466D01*
X0079044Y0107465D01*
X0079013Y0107468D01*
X007901Y0107469D01*
X007898Y0107473D01*
X0078959Y0107477D01*
X0078952Y0107477D01*
X0078762Y0107502D01*
X0078514Y0107469D01*
X0078283Y0107374D01*
X0078084Y0107221D01*
X0077932Y0107023D01*
X0077836Y0106792D01*
X0077804Y0106544D01*
X0077836Y0106296D01*
X0077932Y0106065D01*
X0078084Y0105866D01*
X0078283Y0105714D01*
X0078514Y0105618D01*
X0078762Y0105586D01*
X007901Y0105618D01*
X0079241Y0105714D01*
X0079439Y0105866D01*
X0079592Y0106065D01*
X0079687Y0106296D01*
X007972Y0106544D01*
X0079695Y0106734D01*
X0079695Y0106741D01*
X0079691Y0106762D01*
X0079687Y0106792D01*
X0079686Y0106795D01*
X0079683Y0106826D01*
X0079684Y010686D01*
X0079688Y0106892D01*
X0079695Y0106922D01*
X0079705Y0106951D01*
X0079711Y0106962D01*
X0084864D01*
X0085709Y0106116D01*
X0085825Y0106039D01*
X0085962Y0106012D01*
X0090312D01*
X0090151Y0105904D01*
X0090041Y0105739D01*
X0090002Y0105544D01*
X0090002Y0105544D01*
X0090001Y0105542D01*
X0089994Y0105532D01*
X0089985Y0105522D01*
X0088414Y0103951D01*
X0079913D01*
X007988Y0103957D01*
X007984Y0103969D01*
X0079795Y0103988D01*
X0079745Y0104014D01*
X0079692Y0104048D01*
X0079636Y0104088D01*
X0079508Y0104198D01*
X0079458Y0104247D01*
X0079439Y0104271D01*
X0079241Y0104424D01*
X007901Y0104519D01*
X0078762Y0104552D01*
X0078514Y0104519D01*
X0078283Y0104424D01*
X0078084Y0104271D01*
X0077932Y0104073D01*
X0077836Y0103842D01*
X0077804Y0103594D01*
X0077836Y0103346D01*
X0077932Y0103115D01*
X0078084Y0102916D01*
X0078283Y0102764D01*
X0078514Y0102668D01*
X0078762Y0102636D01*
X007901Y0102668D01*
X0079241Y0102764D01*
X0079439Y0102916D01*
X0079456Y0102938D01*
X0079575Y010305D01*
X0079634Y0103098D01*
X0079692Y010314D01*
X0079745Y0103173D01*
X0079795Y0103199D01*
X007984Y0103218D01*
X007988Y0103231D01*
X0079913Y0103237D01*
X0088562D01*
X0088698Y0103264D01*
X0088814Y0103341D01*
X0090493Y010502D01*
X0090498Y0105025D01*
X009051Y0105033D01*
X0090512Y0105034D01*
X0090512Y0105034D01*
X0090707Y0105073D01*
X0090872Y0105183D01*
X0090983Y0105349D01*
X0091022Y0105544D01*
X0090983Y0105739D01*
X0090872Y0105904D01*
X0090711Y0106012D01*
X0092753D01*
X009276Y0106011D01*
X0092774Y0106009D01*
X0092776Y0106008D01*
X0092776Y0106008D01*
X0092942Y0105898D01*
X0093137Y0105859D01*
X0093137Y0105859D01*
X0093139Y0105858D01*
X0093148Y0105851D01*
X0093159Y0105842D01*
X0093484Y0105516D01*
X00936Y0105439D01*
X0093737Y0105412D01*
X0103037D01*
X0103173Y0105439D01*
X0103289Y0105516D01*
X0103718Y0105945D01*
X0103723Y010595D01*
X0103735Y0105958D01*
X0103737Y0105959D01*
X0103737Y0105959D01*
X0103932Y0105998D01*
X0104097Y0106108D01*
X0104208Y0106274D01*
X0104247Y0106469D01*
X0104208Y0106664D01*
X0104097Y0106829D01*
X0103932Y010694D01*
X0103737Y0106979D01*
X0103542Y010694D01*
X0103376Y0106829D01*
X0103266Y0106664D01*
X0103227Y0106469D01*
X0103227Y0106469D01*
X0103226Y0106467D01*
X0103219Y0106457D01*
X010321Y0106447D01*
X0102889Y0106126D01*
X0093885D01*
X009366Y010635D01*
X0093656Y0106355D01*
X0093648Y0106367D01*
X0093647Y0106369D01*
X0093647Y0106369D01*
X0093608Y0106564D01*
X0093497Y0106729D01*
X0093332Y010684D01*
X0093137Y0106879D01*
X0092942Y010684D01*
X0092776Y0106729D01*
X0092776Y0106729D01*
X0092774Y0106729D01*
X0092762Y0106727D01*
X0092749Y0106726D01*
X008611D01*
X0085264Y0107571D01*
X0085148Y0107648D01*
X0085012Y0107676D01*
D02*
G37*
G36*
X0101887Y0108154D02*
X0101692Y0108115D01*
X0101526Y0108004D01*
X0101416Y0107839D01*
X0101377Y0107644D01*
X0101416Y0107449D01*
X0101526Y0107283D01*
X0101692Y0107173D01*
X0101887Y0107134D01*
X0102082Y0107173D01*
X0102247Y0107283D01*
X0102358Y0107449D01*
X0102397Y0107644D01*
X0102358Y0107839D01*
X0102247Y0108004D01*
X0102082Y0108115D01*
X0101887Y0108154D01*
D02*
G37*
G36*
X0094087Y0107279D02*
X0093892Y010724D01*
X0093726Y0107129D01*
X0093616Y0106964D01*
X0093577Y0106769D01*
X0093616Y0106574D01*
X0093726Y0106408D01*
X0093892Y0106298D01*
X0094087Y0106259D01*
X0094282Y0106298D01*
X0094447Y0106408D01*
X0094558Y0106574D01*
X0094597Y0106769D01*
X0094558Y0106964D01*
X0094447Y0107129D01*
X0094282Y010724D01*
X0094087Y0107279D01*
D02*
G37*
G36*
X0083162Y0106554D02*
X0082967Y0106515D01*
X0082801Y0106404D01*
X0082691Y0106239D01*
X0082652Y0106044D01*
X0082691Y0105849D01*
X0082801Y0105683D01*
X0082967Y0105573D01*
X0083162Y0105534D01*
X0083357Y0105573D01*
X0083522Y0105683D01*
X0083633Y0105849D01*
X0083672Y0106044D01*
X0083633Y0106239D01*
X0083522Y0106404D01*
X0083357Y0106515D01*
X0083162Y0106554D01*
D02*
G37*
G36*
X0095062Y0104451D02*
X0093187D01*
X009305Y0104424D01*
X0092934Y0104346D01*
X0092381Y0103792D01*
X0092375Y0103788D01*
X0092364Y010378D01*
X0092362Y0103779D01*
X0092362Y0103779D01*
X0092167Y010374D01*
X0092001Y0103629D01*
X0091891Y0103464D01*
X0091852Y0103269D01*
X0091891Y0103074D01*
X0092001Y0102908D01*
X0092167Y0102798D01*
X0092362Y0102759D01*
X0092557Y0102798D01*
X0092722Y0102908D01*
X0092833Y0103074D01*
X0092872Y0103269D01*
X0092872Y0103269D01*
X0092873Y0103271D01*
X009288Y010328D01*
X0092888Y0103291D01*
X0093335Y0103737D01*
X0094914D01*
X0095363Y0103288D01*
X0095368Y0103282D01*
X0095376Y0103271D01*
X0095377Y0103269D01*
X0095377Y0103269D01*
X0095416Y0103074D01*
X0095526Y0102908D01*
X0095692Y0102798D01*
X0095887Y0102759D01*
X0096082Y0102798D01*
X0096247Y0102908D01*
X0096358Y0103074D01*
X0096397Y0103269D01*
X0096358Y0103464D01*
X0096247Y0103629D01*
X0096082Y010374D01*
X0095887Y0103779D01*
X0095887Y0103779D01*
X0095885Y010378D01*
X0095875Y0103787D01*
X0095865Y0103795D01*
X0095314Y0104346D01*
X0095198Y0104424D01*
X0095062Y0104451D01*
D02*
G37*
G36*
X0099962Y0103879D02*
X0099767Y010384D01*
X0099601Y0103729D01*
X0099491Y0103564D01*
X0099452Y0103369D01*
X0099491Y0103174D01*
X0099601Y0103008D01*
X0099767Y0102898D01*
X0099962Y0102859D01*
X0100157Y0102898D01*
X0100322Y0103008D01*
X0100433Y0103174D01*
X0100472Y0103369D01*
X0100433Y0103564D01*
X0100322Y0103729D01*
X0100157Y010384D01*
X0099962Y0103879D01*
D02*
G37*
G36*
X0094812Y0103329D02*
X0094617Y010329D01*
X0094451Y0103179D01*
X0094341Y0103014D01*
X0094302Y0102819D01*
X0094341Y0102624D01*
X0094451Y0102458D01*
X0094617Y0102348D01*
X0094812Y0102309D01*
X0095007Y0102348D01*
X0095172Y0102458D01*
X0095283Y0102624D01*
X0095322Y0102819D01*
X0095283Y0103014D01*
X0095172Y0103179D01*
X0095007Y010329D01*
X0094812Y0103329D01*
D02*
G37*
G36*
X0098787Y0103304D02*
X0098592Y0103265D01*
X0098426Y0103154D01*
X0098316Y0102989D01*
X0098277Y0102794D01*
X0098316Y0102599D01*
X0098426Y0102433D01*
X0098592Y0102323D01*
X0098787Y0102284D01*
X0098982Y0102323D01*
X0099147Y0102433D01*
X0099258Y0102599D01*
X0099297Y0102794D01*
X0099258Y0102989D01*
X0099147Y0103154D01*
X0098982Y0103265D01*
X0098787Y0103304D01*
D02*
G37*
G36*
X0105212Y0102829D02*
X0105017Y010279D01*
X0104851Y0102679D01*
X0104851Y0102679D01*
X0104849Y0102679D01*
X0104838Y0102677D01*
X0104824Y0102676D01*
X0099912D01*
X0099775Y0102648D01*
X0099659Y0102571D01*
X0098739Y0101651D01*
X009837D01*
X0098364Y0101651D01*
X009835Y0101654D01*
X0098347Y0101654D01*
X0098347Y0101654D01*
X0098182Y0101765D01*
X0097987Y0101804D01*
X0097792Y0101765D01*
X0097626Y0101654D01*
X0097516Y0101489D01*
X0097477Y0101294D01*
X0097516Y0101099D01*
X0097626Y0100933D01*
X0097792Y0100823D01*
X0097987Y0100784D01*
X0098182Y0100823D01*
X0098347Y0100933D01*
X0098347Y0100933D01*
X009835Y0100934D01*
X0098361Y0100936D01*
X0098374Y0100937D01*
X0098887D01*
X0099023Y0100964D01*
X0099139Y0101041D01*
X010006Y0101962D01*
X0104828D01*
X0104835Y0101961D01*
X0104849Y0101959D01*
X0104851Y0101958D01*
X0104851Y0101958D01*
X0105017Y0101848D01*
X0105212Y0101809D01*
X0105407Y0101848D01*
X0105572Y0101958D01*
X0105683Y0102124D01*
X0105722Y0102319D01*
X0105683Y0102514D01*
X0105572Y0102679D01*
X0105407Y010279D01*
X0105212Y0102829D01*
D02*
G37*
G36*
X0090387Y0102354D02*
X0090192Y0102315D01*
X0090026Y0102204D01*
X0089916Y0102039D01*
X0089877Y0101844D01*
X0089916Y0101649D01*
X0090026Y0101483D01*
X0090192Y0101373D01*
X0090387Y0101334D01*
X0090582Y0101373D01*
X0090747Y0101483D01*
X0090858Y0101649D01*
X0090897Y0101844D01*
X0090858Y0102039D01*
X0090747Y0102204D01*
X0090582Y0102315D01*
X0090387Y0102354D01*
D02*
G37*
G36*
X0100137Y0101629D02*
X0099942Y010159D01*
X0099776Y0101479D01*
X0099666Y0101314D01*
X0099627Y0101119D01*
X0099666Y0100924D01*
X0099776Y0100758D01*
X0099942Y0100648D01*
X0100137Y0100609D01*
X0100332Y0100648D01*
X0100497Y0100758D01*
X0100608Y0100924D01*
X0100647Y0101119D01*
X0100608Y0101314D01*
X0100497Y0101479D01*
X0100332Y010159D01*
X0100137Y0101629D01*
D02*
G37*
G36*
X0095437Y0101154D02*
X0095242Y0101115D01*
X0095076Y0101004D01*
X0094966Y0100839D01*
X0094927Y0100644D01*
X0094966Y0100449D01*
X0095076Y0100283D01*
X0095242Y0100173D01*
X0095437Y0100134D01*
X0095632Y0100173D01*
X0095797Y0100283D01*
X0095908Y0100449D01*
X0095947Y0100644D01*
X0095908Y0100839D01*
X0095797Y0101004D01*
X0095632Y0101115D01*
X0095437Y0101154D01*
D02*
G37*
G36*
X0094262Y0099129D02*
X0094067Y009909D01*
X0093901Y0098979D01*
X0093791Y0098814D01*
X0093752Y0098619D01*
X0093791Y0098424D01*
X0093901Y0098258D01*
X0094067Y0098148D01*
X0094262Y0098109D01*
X0094457Y0098148D01*
X0094622Y0098258D01*
X0094733Y0098424D01*
X0094772Y0098619D01*
X0094733Y0098814D01*
X0094622Y0098979D01*
X0094457Y009909D01*
X0094262Y0099129D01*
D02*
G37*
G36*
X0100087Y0098504D02*
X0099892Y0098465D01*
X0099726Y0098354D01*
X0099616Y0098189D01*
X0099577Y0097994D01*
X0099616Y0097799D01*
X0099726Y0097633D01*
X0099892Y0097523D01*
X0100087Y0097484D01*
X0100282Y0097523D01*
X0100447Y0097633D01*
X0100558Y0097799D01*
X0100597Y0097994D01*
X0100558Y0098189D01*
X0100447Y0098354D01*
X0100282Y0098465D01*
X0100087Y0098504D01*
D02*
G37*
G36*
X0082762Y0101054D02*
X0082567Y0101015D01*
X0082401Y0100904D01*
X0082291Y0100739D01*
X0082252Y0100544D01*
X0082291Y0100349D01*
X0082401Y0100183D01*
X0082567Y0100073D01*
X0082762Y0100034D01*
X0082762Y0100034D01*
X0082764Y0100033D01*
X0082773Y0100026D01*
X0082784Y0100017D01*
X0085159Y0097641D01*
X0085275Y0097564D01*
X0085412Y0097537D01*
X0093003D01*
X009301Y0097536D01*
X0093024Y0097534D01*
X0093026Y0097533D01*
X0093026Y0097533D01*
X0093192Y0097423D01*
X0093387Y0097384D01*
X0093582Y0097423D01*
X0093747Y0097533D01*
X0093858Y0097699D01*
X0093897Y0097894D01*
X0093858Y0098089D01*
X0093747Y0098254D01*
X0093582Y0098365D01*
X0093387Y0098404D01*
X0093192Y0098365D01*
X0093026Y0098254D01*
X0093026Y0098254D01*
X0093024Y0098254D01*
X0093012Y0098252D01*
X0092999Y0098251D01*
X008556D01*
X0083285Y0100525D01*
X0083281Y010053D01*
X0083273Y0100542D01*
X0083272Y0100544D01*
X0083272Y0100544D01*
X0083233Y0100739D01*
X0083122Y0100904D01*
X0082957Y0101015D01*
X0082762Y0101054D01*
D02*
G37*
G36*
X0096512Y0098129D02*
X0096317Y009809D01*
X0096151Y0097979D01*
X0096041Y0097814D01*
X0096002Y0097619D01*
X0096041Y0097424D01*
X0096151Y0097258D01*
X0096317Y0097148D01*
X0096512Y0097109D01*
X0096707Y0097148D01*
X0096872Y0097258D01*
X0096983Y0097424D01*
X0097022Y0097619D01*
X0096983Y0097814D01*
X0096872Y0097979D01*
X0096707Y009809D01*
X0096512Y0098129D01*
D02*
G37*
G36*
X0086312Y0097502D02*
X0086064Y0097469D01*
X0085833Y0097374D01*
X0085634Y0097221D01*
X0085482Y0097023D01*
X0085386Y0096792D01*
X0085354Y0096544D01*
X0085386Y0096296D01*
X0085482Y0096065D01*
X0085634Y0095866D01*
X0085833Y0095714D01*
X0086064Y0095618D01*
X0086312Y0095586D01*
X008656Y0095618D01*
X0086791Y0095714D01*
X0086989Y0095866D01*
X0087142Y0096065D01*
X0087237Y0096296D01*
X008727Y0096544D01*
X0087237Y0096792D01*
X0087142Y0097023D01*
X0086989Y0097221D01*
X0086791Y0097374D01*
X008656Y0097469D01*
X0086312Y0097502D01*
D02*
G37*
G36*
X0082262D02*
X0082014Y0097469D01*
X0081783Y0097374D01*
X0081584Y0097221D01*
X0081432Y0097023D01*
X0081336Y0096792D01*
X0081304Y0096544D01*
X0081336Y0096296D01*
X0081432Y0096065D01*
X0081584Y0095866D01*
X0081783Y0095714D01*
X0082014Y0095618D01*
X0082262Y0095586D01*
X008251Y0095618D01*
X0082741Y0095714D01*
X0082939Y0095866D01*
X0083092Y0096065D01*
X0083187Y0096296D01*
X008322Y0096544D01*
X0083187Y0096792D01*
X0083092Y0097023D01*
X0082939Y0097221D01*
X0082741Y0097374D01*
X008251Y0097469D01*
X0082262Y0097502D01*
D02*
G37*
G36*
X0111662Y0097452D02*
X0111414Y0097419D01*
X0111183Y0097324D01*
X0110984Y0097171D01*
X0110832Y0096973D01*
X0110736Y0096742D01*
X0110704Y0096494D01*
X0110736Y0096246D01*
X0110832Y0096015D01*
X0110984Y0095816D01*
X0111183Y0095664D01*
X0111414Y0095568D01*
X0111662Y0095536D01*
X011191Y0095568D01*
X0112141Y0095664D01*
X0112339Y0095816D01*
X0112492Y0096015D01*
X0112587Y0096246D01*
X011262Y0096494D01*
X0112587Y0096742D01*
X0112492Y0096973D01*
X0112339Y0097171D01*
X0112141Y0097324D01*
X011191Y0097419D01*
X0111662Y0097452D01*
D02*
G37*
G36*
X0104937Y0097626D02*
X0100612D01*
X0100475Y0097599D01*
X0100359Y0097521D01*
X0099209Y0096371D01*
X0099132Y0096255D01*
X0099105Y0096119D01*
Y0092177D01*
X0099104Y0092171D01*
X0099102Y0092157D01*
X0099101Y0092154D01*
X0099101Y0092154D01*
X0098991Y0091989D01*
X0098952Y0091794D01*
X0098991Y0091599D01*
X0099101Y0091433D01*
X0099267Y0091323D01*
X0099462Y0091284D01*
X0099657Y0091323D01*
X0099822Y0091433D01*
X0099862Y0091492D01*
X0099901Y0091433D01*
X0100067Y0091323D01*
X0100262Y0091284D01*
X0100457Y0091323D01*
X0100622Y0091433D01*
X0100716Y0091574D01*
X0100826Y0091408D01*
X0100992Y0091298D01*
X0101187Y0091259D01*
X0101382Y0091298D01*
X0101547Y0091408D01*
X0101658Y0091574D01*
X0101697Y0091769D01*
X0101658Y0091964D01*
X0101547Y0092129D01*
X0101382Y009224D01*
X0101187Y0092279D01*
X0100992Y009224D01*
X0100826Y0092129D01*
X0100733Y0091989D01*
X0100622Y0092154D01*
X0100622Y0092154D01*
X0100622Y0092157D01*
X010062Y0092168D01*
X0100619Y0092181D01*
Y0094296D01*
X010131Y0094987D01*
X0101637D01*
X0101773Y0095014D01*
X0101889Y0095091D01*
X0102818Y009602D01*
X0102823Y0096025D01*
X0102835Y0096033D01*
X0102837Y0096034D01*
X0102837Y0096034D01*
X0103032Y0096073D01*
X0103197Y0096183D01*
X0103308Y0096349D01*
X0103347Y0096544D01*
X0103308Y0096739D01*
X0103197Y0096904D01*
X0103186Y0096912D01*
X0104789D01*
X0105459Y0096241D01*
X0105575Y0096164D01*
X0105712Y0096137D01*
X0106378D01*
X0106411Y009613D01*
X0106449Y0096118D01*
X0106491Y0096099D01*
X0106537Y0096073D01*
X0106587Y009604D01*
X0106637Y0096D01*
X0106755Y0095887D01*
X0106816Y009582D01*
X0106822Y0095815D01*
X0106859Y0095766D01*
X0107058Y0095614D01*
X0107289Y0095518D01*
X0107537Y0095486D01*
X0107785Y0095518D01*
X0108016Y0095614D01*
X0108214Y0095766D01*
X0108367Y0095965D01*
X0108462Y0096196D01*
X0108495Y0096444D01*
X0108462Y0096692D01*
X0108367Y0096923D01*
X0108214Y0097121D01*
X0108016Y0097274D01*
X0107785Y0097369D01*
X0107537Y0097402D01*
X0107289Y0097369D01*
X0107058Y0097274D01*
X0106914Y0097163D01*
X0106904Y0097158D01*
X0106884Y009714D01*
X0106859Y0097121D01*
X0106854Y0097114D01*
X010683Y0097093D01*
X010669Y0096987D01*
X0106629Y0096947D01*
X0106572Y0096914D01*
X0106519Y0096888D01*
X0106471Y0096869D01*
X010643Y0096857D01*
X0106397Y0096851D01*
X010586D01*
X0105189Y0097521D01*
X0105073Y0097599D01*
X0104937Y0097626D01*
D02*
G37*
G36*
X0097262Y0092829D02*
X0097067Y009279D01*
X0096901Y0092679D01*
X0096791Y0092514D01*
X0096752Y0092319D01*
X0096791Y0092124D01*
X0096901Y0091958D01*
X0097067Y0091848D01*
X0097262Y0091809D01*
X0097457Y0091848D01*
X0097622Y0091958D01*
X0097733Y0092124D01*
X0097772Y0092319D01*
X0097733Y0092514D01*
X0097622Y0092679D01*
X0097457Y009279D01*
X0097262Y0092829D01*
D02*
G37*
G36*
X0091962Y0092029D02*
X0091767Y009199D01*
X0091601Y0091879D01*
X0091491Y0091714D01*
X0091452Y0091519D01*
X0091491Y0091324D01*
X0091601Y0091158D01*
X0091767Y0091048D01*
X0091962Y0091009D01*
X0092157Y0091048D01*
X0092322Y0091158D01*
X0092433Y0091324D01*
X0092472Y0091519D01*
X0092433Y0091714D01*
X0092322Y0091879D01*
X0092157Y009199D01*
X0091962Y0092029D01*
D02*
G37*
G36*
X0096987Y0091405D02*
X0096792Y0091367D01*
X0096626Y0091256D01*
X0096516Y0091091D01*
X0096477Y0090896D01*
X0096516Y0090701D01*
X0096626Y0090535D01*
X0096792Y0090425D01*
X0096987Y0090386D01*
X0097182Y0090425D01*
X0097347Y0090535D01*
X0097458Y0090701D01*
X0097497Y0090896D01*
X0097458Y0091091D01*
X0097347Y0091256D01*
X0097182Y0091367D01*
X0096987Y0091405D01*
D02*
G37*
G36*
X0095362Y0091404D02*
X0095167Y0091365D01*
X0095001Y0091254D01*
X0094891Y0091089D01*
X0094852Y0090894D01*
X0094891Y0090699D01*
X0095001Y0090533D01*
X0095167Y0090423D01*
X0095362Y0090384D01*
X0095557Y0090423D01*
X0095722Y0090533D01*
X0095833Y0090699D01*
X0095872Y0090894D01*
X0095833Y0091089D01*
X0095722Y0091254D01*
X0095557Y0091365D01*
X0095362Y0091404D01*
D02*
G37*
G36*
X0091112Y0089129D02*
X0090917Y008909D01*
X0090751Y0088979D01*
X0090641Y0088814D01*
X0090602Y0088619D01*
X0090641Y0088424D01*
X0090751Y0088258D01*
X0090917Y0088148D01*
X0091112Y0088109D01*
X0091307Y0088148D01*
X0091472Y0088258D01*
X0091583Y0088424D01*
X0091622Y0088619D01*
X0091583Y0088814D01*
X0091472Y0088979D01*
X0091307Y008909D01*
X0091112Y0089129D01*
D02*
G37*
G36*
X0104062Y0087654D02*
X0103867Y0087615D01*
X0103701Y0087504D01*
X0103591Y0087339D01*
X0103552Y0087144D01*
X0103591Y0086949D01*
X0103701Y0086783D01*
X0103867Y0086673D01*
X0104062Y0086634D01*
X0104257Y0086673D01*
X0104422Y0086783D01*
X0104533Y0086949D01*
X0104572Y0087144D01*
X0104533Y0087339D01*
X0104422Y0087504D01*
X0104257Y0087615D01*
X0104062Y0087654D01*
D02*
G37*
G36*
X0091212Y0090554D02*
X0091017Y0090515D01*
X0090851Y0090404D01*
X0090741Y0090239D01*
X0090702Y0090044D01*
X0090741Y0089849D01*
X0090851Y0089683D01*
X0091017Y0089573D01*
X0091212Y0089534D01*
X0091407Y0089573D01*
X0091572Y0089683D01*
X0091572Y0089683D01*
X0091575Y0089684D01*
X0091586Y0089686D01*
X0091599Y0089687D01*
X0091764D01*
X009403Y0087421D01*
Y0087027D01*
X0094029Y0087021D01*
X0094027Y0087007D01*
X0094026Y0087004D01*
X0094026Y0087004D01*
X0093916Y0086839D01*
X0093877Y0086644D01*
X0093916Y0086449D01*
X0094026Y0086283D01*
X0094192Y0086173D01*
X0094387Y0086134D01*
X0094582Y0086173D01*
X0094747Y0086283D01*
X0094858Y0086449D01*
X0094897Y0086644D01*
X0094858Y0086839D01*
X0094747Y0087004D01*
X0094747Y0087004D01*
X0094747Y0087007D01*
X0094745Y0087018D01*
X0094744Y0087031D01*
Y0087569D01*
X0094716Y0087705D01*
X0094639Y0087821D01*
X0092164Y0090296D01*
X0092048Y0090373D01*
X0091912Y0090401D01*
X0091595D01*
X0091589Y0090401D01*
X0091575Y0090404D01*
X0091572Y0090404D01*
X0091572Y0090404D01*
X0091407Y0090515D01*
X0091212Y0090554D01*
D02*
G37*
G36*
X0097112Y0086679D02*
X0096917Y008664D01*
X0096751Y0086529D01*
X0096641Y0086364D01*
X0096602Y0086169D01*
X0096602Y0086169D01*
X0096601Y0086167D01*
X0096594Y0086157D01*
X0096585Y0086147D01*
X0096514Y0086076D01*
X008932D01*
X0089314Y0086076D01*
X00893Y0086079D01*
X0089297Y0086079D01*
X0089297Y0086079D01*
X0089132Y008619D01*
X0088937Y0086229D01*
X0088742Y008619D01*
X0088576Y0086079D01*
X0088466Y0085914D01*
X0088427Y0085719D01*
X0088466Y0085524D01*
X0088576Y0085358D01*
X0088742Y0085248D01*
X0088937Y0085209D01*
X0089132Y0085248D01*
X0089297Y0085358D01*
X0089297Y0085358D01*
X00893Y0085359D01*
X0089311Y0085361D01*
X0089324Y0085362D01*
X0096662D01*
X0096798Y0085389D01*
X0096914Y0085466D01*
X0097093Y0085645D01*
X0097098Y008565D01*
X009711Y0085658D01*
X0097112Y0085659D01*
X0097112Y0085659D01*
X0097307Y0085698D01*
X0097472Y0085808D01*
X0097583Y0085974D01*
X0097622Y0086169D01*
X0097583Y0086364D01*
X0097472Y0086529D01*
X0097307Y008664D01*
X0097112Y0086679D01*
D02*
G37*
G36*
X0088937Y0084804D02*
X0088742Y0084765D01*
X0088576Y0084654D01*
X0088466Y0084489D01*
X0088427Y0084294D01*
X0088466Y0084099D01*
X0088576Y0083933D01*
X0088742Y0083823D01*
X0088937Y0083784D01*
X0089132Y0083823D01*
X0089297Y0083933D01*
X0089408Y0084099D01*
X0089447Y0084294D01*
X0089408Y0084489D01*
X0089297Y0084654D01*
X0089132Y0084765D01*
X0088937Y0084804D01*
D02*
G37*
G36*
X0099537Y0086004D02*
X0099342Y0085965D01*
X0099176Y0085854D01*
X0099066Y0085689D01*
X0099027Y0085494D01*
X0099066Y0085299D01*
X0099176Y0085133D01*
X0099342Y0085023D01*
X0099537Y0084984D01*
X0099732Y0085023D01*
X0099897Y0085133D01*
X0099897Y0085133D01*
X00999Y0085134D01*
X0099911Y0085136D01*
X0099924Y0085137D01*
X0100114D01*
X0102413Y0082838D01*
X0102418Y0082832D01*
X0102426Y0082821D01*
X0102427Y0082819D01*
X0102427Y0082819D01*
X0102466Y0082624D01*
X0102576Y0082458D01*
X0102742Y0082348D01*
X0102937Y0082309D01*
X0103132Y0082348D01*
X0103297Y0082458D01*
X0103408Y0082624D01*
X0103447Y0082819D01*
X0103408Y0083014D01*
X0103297Y0083179D01*
X0103132Y008329D01*
X0102937Y0083329D01*
X0102937Y0083329D01*
X0102935Y008333D01*
X0102925Y0083337D01*
X0102915Y0083345D01*
X0100514Y0085746D01*
X0100398Y0085824D01*
X0100262Y0085851D01*
X009992D01*
X0099914Y0085851D01*
X00999Y0085854D01*
X0099897Y0085854D01*
X0099897Y0085854D01*
X0099732Y0085965D01*
X0099537Y0086004D01*
D02*
G37*
G36*
X0102062Y0080779D02*
X0101867Y008074D01*
X0101701Y0080629D01*
X0101591Y0080464D01*
X0101552Y0080269D01*
X0101591Y0080074D01*
X0101701Y0079908D01*
X0101867Y0079798D01*
X0102062Y0079759D01*
X0102257Y0079798D01*
X0102422Y0079908D01*
X0102533Y0080074D01*
X0102572Y0080269D01*
X0102533Y0080464D01*
X0102422Y0080629D01*
X0102257Y008074D01*
X0102062Y0080779D01*
D02*
G37*
G36*
X0090487Y0079929D02*
X0090292Y007989D01*
X0090126Y0079779D01*
X0090016Y0079614D01*
X0089977Y0079419D01*
X0090016Y0079224D01*
X0090126Y0079058D01*
X0090292Y0078948D01*
X0090487Y0078909D01*
X0090682Y0078948D01*
X0090847Y0079058D01*
X0090958Y0079224D01*
X0090997Y0079419D01*
X0090958Y0079614D01*
X0090847Y0079779D01*
X0090682Y007989D01*
X0090487Y0079929D01*
D02*
G37*
G36*
X0094462Y0079729D02*
X0094267Y007969D01*
X0094101Y0079579D01*
X0093991Y0079414D01*
X0093952Y0079219D01*
X0093991Y0079024D01*
X0094101Y0078858D01*
X0094267Y0078748D01*
X0094462Y0078709D01*
X0094657Y0078748D01*
X0094822Y0078858D01*
X0094933Y0079024D01*
X0094972Y0079219D01*
X0094933Y0079414D01*
X0094822Y0079579D01*
X0094657Y007969D01*
X0094462Y0079729D01*
D02*
G37*
G36*
X0091487Y0079704D02*
X0091292Y0079665D01*
X0091126Y0079554D01*
X0091016Y0079389D01*
X0090977Y0079194D01*
X0091016Y0078999D01*
X0091126Y0078833D01*
X0091292Y0078723D01*
X0091487Y0078684D01*
X0091682Y0078723D01*
X0091847Y0078833D01*
X0091958Y0078999D01*
X0091997Y0079194D01*
X0091958Y0079389D01*
X0091847Y0079554D01*
X0091682Y0079665D01*
X0091487Y0079704D01*
D02*
G37*
G36*
X0099462Y0077629D02*
X0099267Y007759D01*
X0099101Y0077479D01*
X0098991Y0077314D01*
X0098952Y0077119D01*
X0098991Y0076924D01*
X0099101Y0076758D01*
X0099267Y0076648D01*
X0099462Y0076609D01*
X0099657Y0076648D01*
X0099822Y0076758D01*
X0099933Y0076924D01*
X0099972Y0077119D01*
X0099933Y0077314D01*
X0099822Y0077479D01*
X0099657Y007759D01*
X0099462Y0077629D01*
D02*
G37*
G36*
X0096962Y0077852D02*
X0096714Y0077819D01*
X0096483Y0077724D01*
X0096284Y0077571D01*
X0096132Y0077373D01*
X0096036Y0077142D01*
X0096004Y0076894D01*
X0096036Y0076646D01*
X0096132Y0076415D01*
X0096284Y0076216D01*
X0096483Y0076064D01*
X0096714Y0075968D01*
X0096962Y0075936D01*
X009721Y0075968D01*
X0097441Y0076064D01*
X0097639Y0076216D01*
X0097792Y0076415D01*
X0097887Y0076646D01*
X009792Y0076894D01*
X0097887Y0077142D01*
X0097792Y0077373D01*
X0097639Y0077571D01*
X0097441Y0077724D01*
X009721Y0077819D01*
X0096962Y0077852D01*
D02*
G37*
G36*
X0090362Y0076104D02*
X0090167Y0076065D01*
X0090001Y0075954D01*
X0089891Y0075789D01*
X0089852Y0075594D01*
X0089891Y0075399D01*
X0090001Y0075233D01*
X0090167Y0075123D01*
X0090362Y0075084D01*
X0090557Y0075123D01*
X0090722Y0075233D01*
X0090833Y0075399D01*
X0090872Y0075594D01*
X0090833Y0075789D01*
X0090722Y0075954D01*
X0090557Y0076065D01*
X0090362Y0076104D01*
D02*
G37*
G36*
X0103237Y0074704D02*
X0103042Y0074665D01*
X0102876Y0074554D01*
X0102766Y0074389D01*
X0102727Y0074194D01*
X0102766Y0073999D01*
X0102876Y0073833D01*
X0103042Y0073723D01*
X0103237Y0073684D01*
X0103432Y0073723D01*
X0103597Y0073833D01*
X0103708Y0073999D01*
X0103747Y0074194D01*
X0103708Y0074389D01*
X0103597Y0074554D01*
X0103432Y0074665D01*
X0103237Y0074704D01*
D02*
G37*
G36*
X0090662Y0074679D02*
X0090467Y007464D01*
X0090301Y0074529D01*
X0090191Y0074364D01*
X0090152Y0074169D01*
X0090191Y0073974D01*
X0090301Y0073808D01*
X0090467Y0073698D01*
X0090662Y0073659D01*
X0090857Y0073698D01*
X0091022Y0073808D01*
X0091133Y0073974D01*
X0091172Y0074169D01*
X0091133Y0074364D01*
X0091022Y0074529D01*
X0090857Y007464D01*
X0090662Y0074679D01*
D02*
G37*
G36*
X0103437Y0073304D02*
X0103242Y0073265D01*
X0103076Y0073154D01*
X0102966Y0072989D01*
X0102927Y0072794D01*
X0102966Y0072599D01*
X0103076Y0072433D01*
X0103242Y0072323D01*
X0103437Y0072284D01*
X0103632Y0072323D01*
X0103797Y0072433D01*
X0103908Y0072599D01*
X0103947Y0072794D01*
X0103908Y0072989D01*
X0103797Y0073154D01*
X0103632Y0073265D01*
X0103437Y0073304D01*
D02*
G37*
G36*
X0089187Y0059702D02*
X0088939Y0059669D01*
X0088708Y0059574D01*
X0088611Y0059499D01*
X0089277Y0058834D01*
X0089942Y0058168D01*
X0090017Y0058265D01*
X0090112Y0058496D01*
X0090145Y0058744D01*
X0090112Y0058992D01*
X0090017Y0059223D01*
X0089864Y0059421D01*
X0089666Y0059574D01*
X0089435Y0059669D01*
X0089187Y0059702D01*
D02*
G37*
G36*
X0101987D02*
X0101739Y0059669D01*
X0101508Y0059574D01*
X0101309Y0059421D01*
X0101157Y0059223D01*
X0101061Y0058992D01*
X0101029Y0058744D01*
X0101061Y0058496D01*
X0101157Y0058265D01*
X0101309Y0058066D01*
X0101508Y0057914D01*
X0101739Y0057818D01*
X0101987Y0057786D01*
X0102235Y0057818D01*
X0102466Y0057914D01*
X0102664Y0058066D01*
X0102817Y0058265D01*
X0102912Y0058496D01*
X0102945Y0058744D01*
X0102912Y0058992D01*
X0102817Y0059223D01*
X0102664Y0059421D01*
X0102466Y0059574D01*
X0102235Y0059669D01*
X0101987Y0059702D01*
D02*
G37*
G36*
X0088431Y005932D02*
X0088357Y0059223D01*
X0088261Y0058992D01*
X0088229Y0058744D01*
X0088261Y0058496D01*
X0088357Y0058265D01*
X0088509Y0058066D01*
X0088708Y0057914D01*
X0088939Y0057818D01*
X0089187Y0057786D01*
X0089435Y0057818D01*
X0089666Y0057914D01*
X0089763Y0057988D01*
X0089097Y0058654D01*
X0088431Y005932D01*
D02*
G37*
G36*
X0089712Y0072079D02*
X0089517Y007204D01*
X0089351Y0071929D01*
X0089241Y0071764D01*
X0089202Y0071569D01*
X0089241Y0071374D01*
X0089351Y0071208D01*
X0089351Y0071208D01*
X0089352Y0071206D01*
X0089354Y0071195D01*
X0089355Y0071181D01*
Y0069767D01*
X0088759Y0069171D01*
X0088682Y0069055D01*
X0088655Y0068919D01*
Y0062994D01*
X0088682Y0062857D01*
X0088759Y0062741D01*
X0091671Y005983D01*
X0091661Y0059797D01*
X0091642Y0059752D01*
X0091616Y0059702D01*
X0091583Y0059649D01*
X0091543Y0059593D01*
X0091433Y0059465D01*
X0091384Y0059415D01*
X0091359Y0059396D01*
X0091207Y0059198D01*
X0091111Y0058967D01*
X0091079Y0058719D01*
X0091111Y0058471D01*
X0091207Y005824D01*
X0091359Y0058041D01*
X0091558Y0057889D01*
X0091789Y0057793D01*
X0092037Y0057761D01*
X0092285Y0057793D01*
X0092516Y0057889D01*
X0092714Y0058041D01*
X0092867Y005824D01*
X0092962Y0058471D01*
X0092995Y0058719D01*
X0092962Y0058967D01*
X0092867Y0059198D01*
X0092714Y0059396D01*
X0092692Y0059413D01*
X009258Y0059532D01*
X0092532Y0059591D01*
X0092491Y0059649D01*
X0092457Y0059702D01*
X0092431Y0059752D01*
X0092412Y0059797D01*
X00924Y0059837D01*
X0092394Y005987D01*
Y0059969D01*
X0092366Y0060105D01*
X0092289Y0060221D01*
X0089369Y0063142D01*
Y0068771D01*
X0089964Y0069366D01*
X0090041Y0069482D01*
X0090069Y0069619D01*
Y0071185D01*
X0090069Y0071192D01*
X0090072Y0071206D01*
X0090072Y0071208D01*
X0090072Y0071208D01*
X0090183Y0071374D01*
X0090222Y0071569D01*
X0090183Y0071764D01*
X0090072Y0071929D01*
X0089907Y007204D01*
X0089712Y0072079D01*
D02*
G37*
G36*
X0104462Y0071879D02*
X0104267Y007184D01*
X0104101Y0071729D01*
X0103991Y0071564D01*
X0103952Y0071369D01*
X0103991Y0071174D01*
X0104101Y0071008D01*
X0104267Y0070898D01*
X0104462Y0070859D01*
X0104462Y0070859D01*
X0104464Y0070858D01*
X0104473Y0070851D01*
X0104484Y0070842D01*
X010458Y0070746D01*
Y0061492D01*
X0104534Y0061446D01*
X0104457Y006133D01*
X010443Y0061194D01*
Y0059849D01*
X0104424Y0059816D01*
X0104411Y0059777D01*
X0104392Y0059733D01*
X0104366Y0059686D01*
X0104332Y0059634D01*
X0104293Y0059581D01*
X0104181Y0059458D01*
X0104115Y0059395D01*
X0104084Y0059371D01*
X0103932Y0059173D01*
X0103836Y0058942D01*
X0103804Y0058694D01*
X0103836Y0058446D01*
X0103932Y0058215D01*
X0104084Y0058016D01*
X0104283Y0057864D01*
X0104514Y0057768D01*
X0104762Y0057736D01*
X010501Y0057768D01*
X0105241Y0057864D01*
X0105439Y0058016D01*
X0105592Y0058215D01*
X0105687Y0058446D01*
X010572Y0058694D01*
X0105687Y0058942D01*
X0105592Y0059173D01*
X0105439Y0059371D01*
X0105427Y0059381D01*
X0105329Y0059491D01*
X0105282Y0059553D01*
X0105241Y0059613D01*
X0105207Y0059668D01*
X0105181Y005972D01*
X0105162Y0059766D01*
X010515Y0059807D01*
X0105144Y005984D01*
Y0061046D01*
X0105189Y0061091D01*
X0105266Y0061207D01*
X0105294Y0061344D01*
Y0070894D01*
X0105266Y007103D01*
X0105189Y0071146D01*
X0104985Y007135D01*
X0104981Y0071355D01*
X0104973Y0071367D01*
X0104972Y0071369D01*
X0104972Y0071369D01*
X0104933Y0071564D01*
X0104822Y0071729D01*
X0104657Y007184D01*
X0104462Y0071879D01*
D02*
G37*
%LPD*%
G36*
X0086435Y0134567D02*
X0086425Y0134552D01*
X0086416Y0134535D01*
X0086408Y0134515D01*
X0086402Y0134494D01*
X0086396Y013447D01*
X0086392Y0134444D01*
X0086389Y0134416D01*
X0086387Y0134354D01*
X0086087D01*
X0086086Y0134386D01*
X0086081Y0134444D01*
X0086077Y013447D01*
X0086072Y0134494D01*
X0086065Y0134515D01*
X0086057Y0134535D01*
X0086048Y0134552D01*
X0086038Y0134567D01*
X0086027Y013458D01*
X0086447D01*
X0086435Y0134567D01*
D02*
G37*
G36*
X0089223Y0130884D02*
X008921Y0130895D01*
X0089195Y0130905D01*
X0089178Y0130914D01*
X0089158Y0130922D01*
X0089137Y0130929D01*
X0089113Y0130934D01*
X0089087Y0130938D01*
X0089059Y0130941D01*
X0088997Y0130944D01*
Y0131244D01*
X0089029Y0131244D01*
X0089087Y0131249D01*
X0089113Y0131253D01*
X0089137Y0131259D01*
X0089158Y0131265D01*
X0089178Y0131273D01*
X0089195Y0131282D01*
X008921Y0131292D01*
X0089223Y0131304D01*
Y0130884D01*
D02*
G37*
G36*
X0088635Y0125992D02*
X0088625Y0125977D01*
X0088616Y012596D01*
X0088608Y012594D01*
X0088602Y0125919D01*
X0088596Y0125895D01*
X0088592Y0125869D01*
X0088589Y0125841D01*
X0088587Y0125779D01*
X0088287D01*
X0088286Y0125811D01*
X0088281Y0125869D01*
X0088277Y0125895D01*
X0088272Y0125919D01*
X0088265Y012594D01*
X0088257Y012596D01*
X0088248Y0125977D01*
X0088238Y0125992D01*
X0088227Y0126005D01*
X0088647D01*
X0088635Y0125992D01*
D02*
G37*
G36*
X0094538Y0125199D02*
X0094541Y0125181D01*
X0094547Y0125162D01*
X0094555Y0125143D01*
X0094566Y0125123D01*
X0094579Y0125103D01*
X0094594Y0125082D01*
X0094611Y012506D01*
X0094654Y0125014D01*
X0094442Y0124802D01*
X0094418Y0124824D01*
X0094374Y0124862D01*
X0094353Y0124877D01*
X0094332Y012489D01*
X0094312Y01249D01*
X0094293Y0124909D01*
X0094275Y0124914D01*
X0094257Y0124918D01*
X009424Y0124919D01*
X0094537Y0125216D01*
X0094538Y0125199D01*
D02*
G37*
G36*
X0095212Y0124176D02*
X0095217Y0124118D01*
X0095221Y0124092D01*
X0095227Y0124069D01*
X0095233Y0124047D01*
X0095241Y0124028D01*
X009525Y0124011D01*
X009526Y0123996D01*
X0095272Y0123983D01*
X0094852D01*
X0094863Y0123996D01*
X0094873Y0124011D01*
X0094882Y0124028D01*
X009489Y0124047D01*
X0094897Y0124069D01*
X0094902Y0124092D01*
X0094906Y0124118D01*
X0094909Y0124146D01*
X0094912Y0124209D01*
X0095212D01*
X0095212Y0124176D01*
D02*
G37*
G36*
X0095786Y0123001D02*
X0095773Y0123009D01*
X0095758Y0123016D01*
X009574Y0123023D01*
X0095721Y0123028D01*
X0095699Y0123033D01*
X0095675Y0123037D01*
X0095621Y0123042D01*
X0095558Y0123044D01*
X0095499Y0123344D01*
X0095531Y0123345D01*
X0095589Y012335D01*
X0095614Y0123355D01*
X0095637Y0123362D01*
X0095657Y0123369D01*
X0095675Y0123379D01*
X0095691Y0123389D01*
X0095704Y0123402D01*
X0095716Y0123415D01*
X0095786Y0123001D01*
D02*
G37*
G36*
X0085338Y0122324D02*
X0085341Y0122306D01*
X0085347Y0122287D01*
X0085355Y0122268D01*
X0085366Y0122248D01*
X0085379Y0122228D01*
X0085394Y0122207D01*
X0085411Y0122185D01*
X0085454Y0122139D01*
X0085242Y0121927D01*
X0085218Y0121949D01*
X0085174Y0121987D01*
X0085153Y0122002D01*
X0085132Y0122015D01*
X0085112Y0122025D01*
X0085093Y0122034D01*
X0085075Y0122039D01*
X0085057Y0122043D01*
X008504Y0122044D01*
X0085337Y0122341D01*
X0085338Y0122324D01*
D02*
G37*
G36*
X0101759Y0121869D02*
X0101742Y0121868D01*
X0101724Y0121864D01*
X0101705Y0121859D01*
X0101686Y012185D01*
X0101666Y012184D01*
X0101646Y0121827D01*
X0101625Y0121812D01*
X0101603Y0121794D01*
X0101557Y0121752D01*
X0101345Y0121964D01*
X0101367Y0121987D01*
X0101405Y0122032D01*
X010142Y0122053D01*
X0101433Y0122073D01*
X0101443Y0122093D01*
X0101452Y0122112D01*
X0101457Y0122131D01*
X0101461Y0122149D01*
X0101462Y0122166D01*
X0101759Y0121869D01*
D02*
G37*
G36*
X0095563Y0121549D02*
X0095566Y0121531D01*
X0095572Y0121512D01*
X009558Y0121493D01*
X0095591Y0121473D01*
X0095604Y0121453D01*
X0095619Y0121432D01*
X0095636Y012141D01*
X0095679Y0121364D01*
X0095467Y0121152D01*
X0095443Y0121174D01*
X0095399Y0121212D01*
X0095378Y0121227D01*
X0095357Y012124D01*
X0095337Y012125D01*
X0095318Y0121259D01*
X00953Y0121264D01*
X0095282Y0121268D01*
X0095265Y0121269D01*
X0095562Y0121566D01*
X0095563Y0121549D01*
D02*
G37*
G36*
X0098514Y0121017D02*
X0098529Y0121007D01*
X0098546Y0120998D01*
X0098565Y012099D01*
X0098587Y0120984D01*
X009861Y0120978D01*
X0098636Y0120974D01*
X0098664Y0120971D01*
X0098727Y0120969D01*
Y0120669D01*
X0098694Y0120668D01*
X0098636Y0120663D01*
X009861Y0120659D01*
X0098587Y0120654D01*
X0098565Y0120647D01*
X0098546Y0120639D01*
X0098529Y012063D01*
X0098514Y012062D01*
X0098501Y0120609D01*
Y0121029D01*
X0098514Y0121017D01*
D02*
G37*
G36*
X0098073Y0120609D02*
X009806Y012062D01*
X0098045Y012063D01*
X0098028Y0120639D01*
X0098008Y0120647D01*
X0097987Y0120654D01*
X0097963Y0120659D01*
X0097937Y0120663D01*
X0097909Y0120666D01*
X0097847Y0120669D01*
Y0120969D01*
X0097879Y0120969D01*
X0097937Y0120974D01*
X0097963Y0120978D01*
X0097987Y0120984D01*
X0098008Y012099D01*
X0098028Y0120998D01*
X0098045Y0121007D01*
X009806Y0121017D01*
X0098073Y0121029D01*
Y0120609D01*
D02*
G37*
G36*
X0091689Y0120817D02*
X0091704Y0120807D01*
X0091721Y0120798D01*
X009174Y012079D01*
X0091762Y0120784D01*
X0091785Y0120778D01*
X0091811Y0120774D01*
X0091839Y0120771D01*
X0091902Y0120769D01*
Y0120469D01*
X0091869Y0120468D01*
X0091811Y0120463D01*
X0091785Y0120459D01*
X0091762Y0120454D01*
X009174Y0120447D01*
X0091721Y0120439D01*
X0091704Y012043D01*
X0091689Y012042D01*
X0091676Y0120409D01*
Y0120829D01*
X0091689Y0120817D01*
D02*
G37*
G36*
X0091248Y0120409D02*
X0091235Y012042D01*
X009122Y012043D01*
X0091203Y0120439D01*
X0091183Y0120447D01*
X0091162Y0120454D01*
X0091138Y0120459D01*
X0091112Y0120463D01*
X0091084Y0120466D01*
X0091022Y0120469D01*
Y0120769D01*
X0091054Y0120769D01*
X0091112Y0120774D01*
X0091138Y0120778D01*
X0091162Y0120784D01*
X0091183Y012079D01*
X0091203Y0120798D01*
X009122Y0120807D01*
X0091235Y0120817D01*
X0091248Y0120829D01*
Y0120409D01*
D02*
G37*
G36*
X0095563Y0120199D02*
X0095566Y0120181D01*
X0095572Y0120162D01*
X009558Y0120143D01*
X0095591Y0120123D01*
X0095604Y0120103D01*
X0095619Y0120082D01*
X0095636Y012006D01*
X0095679Y0120014D01*
X0095467Y0119802D01*
X0095443Y0119824D01*
X0095399Y0119862D01*
X0095378Y0119877D01*
X0095357Y011989D01*
X0095337Y01199D01*
X0095318Y0119909D01*
X00953Y0119914D01*
X0095282Y0119918D01*
X0095265Y0119919D01*
X0095562Y0120216D01*
X0095563Y0120199D01*
D02*
G37*
G36*
X0102955Y0120163D02*
X0103Y0120126D01*
X0103021Y0120111D01*
X0103041Y0120098D01*
X0103061Y0120087D01*
X010308Y0120079D01*
X0103099Y0120073D01*
X0103117Y012007D01*
X0103134Y0120069D01*
X0102837Y0119772D01*
X0102836Y0119789D01*
X0102832Y0119807D01*
X0102827Y0119825D01*
X0102818Y0119844D01*
X0102808Y0119864D01*
X0102795Y0119885D01*
X010278Y0119906D01*
X0102762Y0119928D01*
X010272Y0119974D01*
X0102932Y0120186D01*
X0102955Y0120163D01*
D02*
G37*
G36*
X0094173Y0119159D02*
X009416Y011917D01*
X0094145Y011918D01*
X0094128Y0119189D01*
X0094108Y0119197D01*
X0094087Y0119204D01*
X0094063Y0119209D01*
X0094037Y0119213D01*
X0094009Y0119216D01*
X0093947Y0119219D01*
Y0119519D01*
X0093979Y0119519D01*
X0094037Y0119524D01*
X0094063Y0119528D01*
X0094087Y0119534D01*
X0094108Y011954D01*
X0094128Y0119548D01*
X0094145Y0119557D01*
X009416Y0119567D01*
X0094173Y0119579D01*
Y0119159D01*
D02*
G37*
G36*
X007937Y0117873D02*
X007951Y0117753D01*
X0079578Y0117704D01*
X0079644Y0117663D01*
X0079708Y0117629D01*
X007977Y0117603D01*
X0079831Y0117584D01*
X0079889Y0117573D01*
X0079947Y0117569D01*
Y0117269D01*
X0079889Y0117265D01*
X0079831Y0117254D01*
X007977Y0117235D01*
X0079708Y0117209D01*
X0079644Y0117175D01*
X0079578Y0117134D01*
X007951Y0117085D01*
X0079441Y0117029D01*
X0079297Y0116894D01*
Y0117944D01*
X007937Y0117873D01*
D02*
G37*
G36*
X0115154Y0112894D02*
X0115053Y0112893D01*
X0114869Y0112879D01*
X0114786Y0112865D01*
X0114711Y0112848D01*
X0114642Y0112827D01*
X0114579Y0112801D01*
X0114523Y0112771D01*
X0114473Y0112738D01*
X011443Y01127D01*
X0114218Y0112912D01*
X0114256Y0112955D01*
X0114289Y0113005D01*
X0114319Y0113061D01*
X0114345Y0113124D01*
X0114366Y0113193D01*
X0114383Y0113268D01*
X0114397Y0113351D01*
X0114406Y0113439D01*
X0114412Y0113636D01*
X0115154Y0112894D01*
D02*
G37*
G36*
X0110123Y0111609D02*
X011011Y011162D01*
X0110095Y011163D01*
X0110078Y0111639D01*
X0110058Y0111647D01*
X0110037Y0111654D01*
X0110013Y0111659D01*
X0109987Y0111663D01*
X0109959Y0111666D01*
X0109897Y0111669D01*
Y0111969D01*
X0109929Y0111969D01*
X0109987Y0111974D01*
X0110013Y0111978D01*
X0110037Y0111984D01*
X0110058Y011199D01*
X0110078Y0111998D01*
X0110095Y0112007D01*
X011011Y0112017D01*
X0110123Y0112029D01*
Y0111609D01*
D02*
G37*
G36*
X0098039Y0111367D02*
X0098054Y0111357D01*
X0098071Y0111348D01*
X009809Y011134D01*
X0098112Y0111334D01*
X0098135Y0111328D01*
X0098161Y0111324D01*
X0098189Y0111321D01*
X0098252Y0111319D01*
Y0111019D01*
X0098219Y0111018D01*
X0098161Y0111013D01*
X0098135Y0111009D01*
X0098112Y0111004D01*
X009809Y0110997D01*
X0098071Y0110989D01*
X0098054Y011098D01*
X0098039Y011097D01*
X0098026Y0110959D01*
Y0111379D01*
X0098039Y0111367D01*
D02*
G37*
G36*
X0104998Y0117959D02*
X0104985Y011797D01*
X010497Y011798D01*
X0104953Y0117989D01*
X0104933Y0117997D01*
X0104912Y0118004D01*
X0104888Y0118009D01*
X0104862Y0118013D01*
X0104834Y0118016D01*
X0104772Y0118019D01*
Y0118319D01*
X0104804Y0118319D01*
X0104862Y0118324D01*
X0104888Y0118328D01*
X0104912Y0118334D01*
X0104933Y011834D01*
X0104953Y0118348D01*
X010497Y0118357D01*
X0104985Y0118367D01*
X0104998Y0118379D01*
Y0117959D01*
D02*
G37*
G36*
X0094164Y0118367D02*
X0094179Y0118357D01*
X0094196Y0118348D01*
X0094215Y011834D01*
X0094237Y0118334D01*
X009426Y0118328D01*
X0094286Y0118324D01*
X0094314Y0118321D01*
X0094377Y0118319D01*
Y0118019D01*
X0094344Y0118018D01*
X0094286Y0118013D01*
X009426Y0118009D01*
X0094237Y0118004D01*
X0094215Y0117997D01*
X0094196Y0117989D01*
X0094179Y011798D01*
X0094164Y011797D01*
X0094151Y0117959D01*
Y0118379D01*
X0094164Y0118367D01*
D02*
G37*
G36*
X0090639Y0116927D02*
X0090654Y0116917D01*
X0090671Y0116908D01*
X009069Y01169D01*
X0090712Y0116894D01*
X0090735Y0116888D01*
X0090761Y0116884D01*
X0090789Y0116881D01*
X0090852Y0116879D01*
Y0116579D01*
X0090819Y0116578D01*
X0090761Y0116573D01*
X0090735Y0116569D01*
X0090712Y0116564D01*
X009069Y0116557D01*
X0090671Y0116549D01*
X0090654Y011654D01*
X0090639Y011653D01*
X0090626Y0116519D01*
Y0116939D01*
X0090639Y0116927D01*
D02*
G37*
G36*
X0103586Y0115683D02*
X0103631Y0115645D01*
X0103652Y0115631D01*
X0103672Y0115618D01*
X0103693Y0115608D01*
X0103712Y0115601D01*
X0103731Y0115596D01*
X0103749Y0115593D01*
X0103766Y0115593D01*
X0103487Y0115279D01*
X0103485Y0115296D01*
X0103481Y0115313D01*
X0103475Y0115331D01*
X0103466Y011535D01*
X0103455Y011537D01*
X0103441Y011539D01*
X0103426Y0115411D01*
X0103388Y0115455D01*
X0103365Y0115478D01*
X0103563Y0115705D01*
X0103586Y0115683D01*
D02*
G37*
G36*
X0101623Y0115234D02*
X010161Y0115245D01*
X0101595Y0115255D01*
X0101578Y0115264D01*
X0101558Y0115272D01*
X0101537Y0115279D01*
X0101513Y0115284D01*
X0101487Y0115288D01*
X0101459Y0115291D01*
X0101397Y0115294D01*
Y0115594D01*
X0101429Y0115594D01*
X0101487Y0115599D01*
X0101513Y0115603D01*
X0101537Y0115609D01*
X0101558Y0115615D01*
X0101578Y0115623D01*
X0101595Y0115632D01*
X010161Y0115642D01*
X0101623Y0115654D01*
Y0115234D01*
D02*
G37*
G36*
X0094139Y0115642D02*
X0094154Y0115632D01*
X0094171Y0115623D01*
X009419Y0115615D01*
X0094212Y0115609D01*
X0094235Y0115603D01*
X0094261Y0115599D01*
X0094289Y0115596D01*
X0094352Y0115594D01*
Y0115294D01*
X0094319Y0115293D01*
X0094261Y0115288D01*
X0094235Y0115284D01*
X0094212Y0115279D01*
X009419Y0115272D01*
X0094171Y0115264D01*
X0094154Y0115255D01*
X0094139Y0115245D01*
X0094126Y0115234D01*
Y0115654D01*
X0094139Y0115642D01*
D02*
G37*
G36*
X0099559Y0114319D02*
X0099542Y0114318D01*
X0099524Y0114314D01*
X0099505Y0114309D01*
X0099486Y01143D01*
X0099466Y011429D01*
X0099446Y0114277D01*
X0099425Y0114262D01*
X0099403Y0114244D01*
X0099357Y0114202D01*
X0099145Y0114414D01*
X0099167Y0114437D01*
X0099205Y0114482D01*
X009922Y0114503D01*
X0099233Y0114523D01*
X0099243Y0114543D01*
X0099252Y0114562D01*
X0099257Y0114581D01*
X0099261Y0114599D01*
X0099262Y0114616D01*
X0099559Y0114319D01*
D02*
G37*
G36*
X0093739Y0114017D02*
X0093754Y0114007D01*
X0093771Y0113998D01*
X009379Y011399D01*
X0093812Y0113984D01*
X0093835Y0113978D01*
X0093861Y0113974D01*
X0093889Y0113971D01*
X0093952Y0113969D01*
Y0113669D01*
X0093919Y0113668D01*
X0093861Y0113663D01*
X0093835Y0113659D01*
X0093812Y0113654D01*
X009379Y0113647D01*
X0093771Y0113639D01*
X0093754Y011363D01*
X0093739Y011362D01*
X0093726Y0113609D01*
Y0114029D01*
X0093739Y0114017D01*
D02*
G37*
G36*
X0079295Y0113873D02*
X0079435Y0113753D01*
X0079503Y0113704D01*
X0079568Y0113663D01*
X0079633Y0113629D01*
X0079695Y0113603D01*
X0079756Y0113584D01*
X0079814Y0113573D01*
X0079872Y0113569D01*
Y0113269D01*
X0079814Y0113265D01*
X0079756Y0113254D01*
X0079695Y0113235D01*
X0079633Y0113209D01*
X0079568Y0113175D01*
X0079503Y0113134D01*
X0079435Y0113085D01*
X0079366Y0113029D01*
X0079222Y0112894D01*
Y0113944D01*
X0079295Y0113873D01*
D02*
G37*
G36*
X0096148Y0110959D02*
X0096135Y011097D01*
X009612Y011098D01*
X0096103Y0110989D01*
X0096083Y0110997D01*
X0096062Y0111004D01*
X0096038Y0111009D01*
X0096012Y0111013D01*
X0095984Y0111016D01*
X0095922Y0111019D01*
Y0111319D01*
X0095954Y0111319D01*
X0096012Y0111324D01*
X0096038Y0111328D01*
X0096062Y0111334D01*
X0096083Y011134D01*
X0096103Y0111348D01*
X009612Y0111357D01*
X0096135Y0111367D01*
X0096148Y0111379D01*
Y0110959D01*
D02*
G37*
G36*
X0114828Y0109447D02*
X011481Y0109454D01*
X0114792Y0109456D01*
X0114771Y0109455D01*
X011475Y010945D01*
X0114727Y0109441D01*
X0114703Y0109428D01*
X0114678Y0109411D01*
X0114651Y0109391D01*
X0114622Y0109366D01*
X0114593Y0109338D01*
X0114381Y010955D01*
X0114409Y0109579D01*
X0114454Y0109635D01*
X0114471Y010966D01*
X0114484Y0109684D01*
X0114493Y0109707D01*
X0114498Y0109729D01*
X0114499Y0109749D01*
X0114497Y0109767D01*
X011449Y0109785D01*
X0114828Y0109447D01*
D02*
G37*
G36*
X0098064Y0109642D02*
X0098079Y0109632D01*
X0098096Y0109623D01*
X0098115Y0109615D01*
X0098137Y0109609D01*
X009816Y0109603D01*
X0098186Y0109599D01*
X0098214Y0109596D01*
X0098277Y0109594D01*
Y0109294D01*
X0098244Y0109293D01*
X0098186Y0109288D01*
X009816Y0109284D01*
X0098137Y0109279D01*
X0098115Y0109272D01*
X0098096Y0109264D01*
X0098079Y0109255D01*
X0098064Y0109245D01*
X0098051Y0109234D01*
Y0109654D01*
X0098064Y0109642D01*
D02*
G37*
G36*
X007937Y0110348D02*
X007951Y0110228D01*
X0079578Y0110179D01*
X0079644Y0110138D01*
X0079708Y0110104D01*
X007977Y0110078D01*
X0079831Y0110059D01*
X0079889Y0110048D01*
X0079947Y0110044D01*
Y0109744D01*
X0079889Y010974D01*
X0079831Y0109729D01*
X007977Y010971D01*
X0079708Y0109684D01*
X0079644Y010965D01*
X0079578Y0109609D01*
X007951Y010956D01*
X0079441Y0109504D01*
X0079297Y0109369D01*
Y0110419D01*
X007937Y0110348D01*
D02*
G37*
G36*
X0096198Y0109184D02*
X0096185Y0109195D01*
X009617Y0109205D01*
X0096153Y0109214D01*
X0096133Y0109222D01*
X0096112Y0109229D01*
X0096088Y0109234D01*
X0096062Y0109238D01*
X0096034Y0109241D01*
X0095972Y0109244D01*
Y0109544D01*
X0096004Y0109544D01*
X0096062Y0109549D01*
X0096088Y0109553D01*
X0096112Y0109559D01*
X0096133Y0109565D01*
X0096153Y0109573D01*
X009617Y0109582D01*
X0096185Y0109592D01*
X0096198Y0109604D01*
Y0109184D01*
D02*
G37*
G36*
X0097048Y0107959D02*
X0097035Y010797D01*
X009702Y010798D01*
X0097003Y0107989D01*
X0096983Y0107997D01*
X0096962Y0108004D01*
X0096938Y0108009D01*
X0096912Y0108013D01*
X0096884Y0108016D01*
X0096822Y0108019D01*
Y0108319D01*
X0096854Y0108319D01*
X0096912Y0108324D01*
X0096938Y0108328D01*
X0096962Y0108334D01*
X0096983Y010834D01*
X0097003Y0108348D01*
X009702Y0108357D01*
X0097035Y0108367D01*
X0097048Y0108379D01*
Y0107959D01*
D02*
G37*
G36*
X0090596Y0108361D02*
X0090611Y0108352D01*
X0090629Y0108344D01*
X0090648Y0108338D01*
X009067Y0108332D01*
X0090694Y0108327D01*
X009072Y0108323D01*
X0090778Y0108319D01*
X009081Y0108319D01*
X009084Y0108019D01*
X0090807Y0108018D01*
X009075Y0108013D01*
X0090724Y0108008D01*
X0090701Y0108002D01*
X009068Y0107995D01*
X0090661Y0107986D01*
X0090644Y0107976D01*
X009063Y0107965D01*
X0090618Y0107952D01*
X0090583Y0108371D01*
X0090596Y0108361D01*
D02*
G37*
G36*
X0079643Y0107213D02*
X0079603Y0107169D01*
X0079569Y0107124D01*
X007954Y0107077D01*
X0079517Y0107029D01*
X0079499Y0106979D01*
X0079487Y0106928D01*
X007948Y0106874D01*
X0079479Y010682D01*
X0079484Y0106763D01*
X0079494Y0106705D01*
X0078923Y0107276D01*
X0078981Y0107266D01*
X0079038Y0107261D01*
X0079092Y0107262D01*
X0079146Y0107269D01*
X0079197Y0107281D01*
X0079247Y0107299D01*
X0079295Y0107322D01*
X0079342Y0107351D01*
X0079387Y0107385D01*
X0079431Y0107425D01*
X0079643Y0107213D01*
D02*
G37*
G36*
X0092923Y0106159D02*
X009291Y010617D01*
X0092895Y010618D01*
X0092878Y0106189D01*
X0092858Y0106197D01*
X0092837Y0106204D01*
X0092813Y0106209D01*
X0092787Y0106213D01*
X0092759Y0106216D01*
X0092697Y0106219D01*
Y0106519D01*
X0092729Y0106519D01*
X0092787Y0106524D01*
X0092813Y0106528D01*
X0092837Y0106534D01*
X0092858Y010654D01*
X0092878Y0106548D01*
X0092895Y0106557D01*
X009291Y0106567D01*
X0092923Y0106579D01*
Y0106159D01*
D02*
G37*
G36*
X0103734Y0106169D02*
X0103717Y0106168D01*
X0103699Y0106164D01*
X010368Y0106159D01*
X0103661Y010615D01*
X0103641Y010614D01*
X0103621Y0106127D01*
X01036Y0106112D01*
X0103578Y0106094D01*
X0103532Y0106052D01*
X010332Y0106264D01*
X0103342Y0106287D01*
X010338Y0106332D01*
X0103395Y0106353D01*
X0103408Y0106373D01*
X0103418Y0106393D01*
X0103427Y0106412D01*
X0103432Y0106431D01*
X0103436Y0106449D01*
X0103437Y0106466D01*
X0103734Y0106169D01*
D02*
G37*
G36*
X0093438Y0106349D02*
X0093441Y0106331D01*
X0093447Y0106312D01*
X0093455Y0106293D01*
X0093466Y0106273D01*
X0093479Y0106253D01*
X0093494Y0106232D01*
X0093511Y010621D01*
X0093554Y0106164D01*
X0093342Y0105952D01*
X0093318Y0105974D01*
X0093274Y0106012D01*
X0093253Y0106027D01*
X0093232Y010604D01*
X0093212Y010605D01*
X0093193Y0106059D01*
X0093175Y0106064D01*
X0093157Y0106068D01*
X009314Y0106069D01*
X0093437Y0106366D01*
X0093438Y0106349D01*
D02*
G37*
G36*
X0090509Y0105244D02*
X0090492Y0105243D01*
X0090474Y0105239D01*
X0090455Y0105234D01*
X0090436Y0105225D01*
X0090416Y0105215D01*
X0090396Y0105202D01*
X0090375Y0105187D01*
X0090353Y0105169D01*
X0090307Y0105127D01*
X0090095Y0105339D01*
X0090117Y0105362D01*
X0090155Y0105407D01*
X009017Y0105428D01*
X0090183Y0105448D01*
X0090193Y0105468D01*
X0090202Y0105487D01*
X0090207Y0105506D01*
X0090211Y0105524D01*
X0090212Y0105541D01*
X0090509Y0105244D01*
D02*
G37*
G36*
X007937Y0104048D02*
X007951Y0103928D01*
X0079578Y0103879D01*
X0079644Y0103838D01*
X0079708Y0103804D01*
X007977Y0103778D01*
X0079831Y0103759D01*
X0079889Y0103748D01*
X0079947Y0103744D01*
Y0103444D01*
X0079889Y010344D01*
X0079831Y0103429D01*
X007977Y010341D01*
X0079708Y0103384D01*
X0079644Y010335D01*
X0079578Y0103309D01*
X007951Y010326D01*
X0079441Y0103204D01*
X0079297Y0103069D01*
Y0104119D01*
X007937Y0104048D01*
D02*
G37*
G36*
X0095705Y0103663D02*
X009575Y0103626D01*
X0095771Y0103611D01*
X0095791Y0103598D01*
X0095811Y0103587D01*
X009583Y0103579D01*
X0095849Y0103573D01*
X0095867Y010357D01*
X0095884Y0103569D01*
X0095587Y0103272D01*
X0095586Y0103289D01*
X0095582Y0103307D01*
X0095577Y0103325D01*
X0095568Y0103344D01*
X0095558Y0103364D01*
X0095545Y0103385D01*
X009553Y0103406D01*
X0095512Y0103428D01*
X009547Y0103474D01*
X0095682Y0103686D01*
X0095705Y0103663D01*
D02*
G37*
G36*
X0092779Y0103474D02*
X0092756Y010345D01*
X0092719Y0103406D01*
X0092704Y0103385D01*
X0092691Y0103364D01*
X009268Y0103344D01*
X0092672Y0103325D01*
X0092666Y0103307D01*
X0092663Y0103289D01*
X0092662Y0103272D01*
X0092365Y0103569D01*
X0092382Y010357D01*
X00924Y0103573D01*
X0092418Y0103579D01*
X0092437Y0103587D01*
X0092457Y0103598D01*
X0092478Y0103611D01*
X0092499Y0103626D01*
X0092521Y0103643D01*
X0092567Y0103686D01*
X0092779Y0103474D01*
D02*
G37*
G36*
X0104998Y0102109D02*
X0104985Y010212D01*
X010497Y010213D01*
X0104953Y0102139D01*
X0104933Y0102147D01*
X0104912Y0102154D01*
X0104888Y0102159D01*
X0104862Y0102163D01*
X0104834Y0102166D01*
X0104772Y0102169D01*
Y0102469D01*
X0104804Y0102469D01*
X0104862Y0102474D01*
X0104888Y0102478D01*
X0104912Y0102484D01*
X0104933Y010249D01*
X0104953Y0102498D01*
X010497Y0102507D01*
X0104985Y0102517D01*
X0104998Y0102529D01*
Y0102109D01*
D02*
G37*
G36*
X0098214Y0101492D02*
X0098229Y0101482D01*
X0098246Y0101473D01*
X0098265Y0101465D01*
X0098287Y0101459D01*
X009831Y0101453D01*
X0098336Y0101449D01*
X0098364Y0101446D01*
X0098427Y0101444D01*
Y0101144D01*
X0098394Y0101143D01*
X0098336Y0101138D01*
X009831Y0101134D01*
X0098287Y0101129D01*
X0098265Y0101122D01*
X0098246Y0101114D01*
X0098229Y0101105D01*
X0098214Y0101095D01*
X0098201Y0101084D01*
Y0101504D01*
X0098214Y0101492D01*
D02*
G37*
G36*
X0083063Y0100524D02*
X0083066Y0100506D01*
X0083072Y0100487D01*
X008308Y0100468D01*
X0083091Y0100448D01*
X0083104Y0100428D01*
X0083119Y0100407D01*
X0083136Y0100385D01*
X0083179Y0100339D01*
X0082967Y0100127D01*
X0082943Y0100149D01*
X0082899Y0100187D01*
X0082878Y0100202D01*
X0082857Y0100215D01*
X0082837Y0100225D01*
X0082818Y0100234D01*
X00828Y0100239D01*
X0082782Y0100243D01*
X0082765Y0100244D01*
X0083062Y0100541D01*
X0083063Y0100524D01*
D02*
G37*
G36*
X0093173Y0097684D02*
X009316Y0097695D01*
X0093145Y0097705D01*
X0093128Y0097714D01*
X0093108Y0097722D01*
X0093087Y0097729D01*
X0093063Y0097734D01*
X0093037Y0097738D01*
X0093009Y0097741D01*
X0092947Y0097744D01*
Y0098044D01*
X0092979Y0098044D01*
X0093037Y0098049D01*
X0093063Y0098053D01*
X0093087Y0098059D01*
X0093108Y0098065D01*
X0093128Y0098073D01*
X0093145Y0098082D01*
X009316Y0098092D01*
X0093173Y0098104D01*
Y0097684D01*
D02*
G37*
G36*
X0102476Y0096904D02*
X0102367Y0096741D01*
X0102358Y0096789D01*
X0102276Y0096912D01*
X0102488D01*
X0102476Y0096904D01*
D02*
G37*
G36*
X0102834Y0096244D02*
X0102817Y0096243D01*
X0102799Y0096239D01*
X010278Y0096234D01*
X0102761Y0096225D01*
X0102741Y0096215D01*
X0102721Y0096202D01*
X01027Y0096187D01*
X0102678Y0096169D01*
X0102632Y0096127D01*
X010242Y0096339D01*
X0102442Y0096362D01*
X010248Y0096407D01*
X0102495Y0096428D01*
X0102508Y0096448D01*
X0102518Y0096468D01*
X0102527Y0096487D01*
X0102532Y0096506D01*
X0102536Y0096524D01*
X0102537Y0096541D01*
X0102834Y0096244D01*
D02*
G37*
G36*
X0106967Y0095956D02*
X0106901Y0096029D01*
X0106771Y0096154D01*
X0106708Y0096204D01*
X0106645Y0096247D01*
X0106583Y0096282D01*
X0106522Y0096309D01*
X0106462Y0096328D01*
X0106402Y009634D01*
X0106343Y0096344D01*
X0106364Y0096644D01*
X0106419Y0096647D01*
X0106477Y0096658D01*
X0106538Y0096676D01*
X0106602Y0096701D01*
X0106668Y0096734D01*
X0106736Y0096773D01*
X0106808Y009682D01*
X0106958Y0096935D01*
X0107037Y0097003D01*
X0106967Y0095956D01*
D02*
G37*
G36*
X0101416Y0096789D02*
X0101377Y0096594D01*
X0101416Y0096399D01*
X0101526Y0096233D01*
X0101692Y0096123D01*
X0101875Y0096086D01*
X0101489Y0095701D01*
X0101162D01*
X0101025Y0095674D01*
X0100909Y0095596D01*
X0100009Y0094696D01*
X0099932Y009458D01*
X0099905Y0094444D01*
Y0092177D01*
X0099904Y0092171D01*
X0099902Y0092157D01*
X0099901Y0092154D01*
X0099901Y0092154D01*
X0099862Y0092095D01*
X0099822Y0092154D01*
X0099822Y0092154D01*
X0099822Y0092157D01*
X009982Y0092168D01*
X0099819Y0092181D01*
Y0095971D01*
X010076Y0096912D01*
X0101498D01*
X0101416Y0096789D01*
D02*
G37*
G36*
X0100412Y0092201D02*
X0100417Y0092143D01*
X0100421Y0092117D01*
X0100427Y0092094D01*
X0100433Y0092072D01*
X0100441Y0092053D01*
X010045Y0092036D01*
X010046Y0092021D01*
X0100472Y0092008D01*
X0100052D01*
X0100063Y0092021D01*
X0100073Y0092036D01*
X0100082Y0092053D01*
X010009Y0092072D01*
X0100097Y0092094D01*
X0100102Y0092117D01*
X0100106Y0092143D01*
X0100109Y0092171D01*
X0100112Y0092234D01*
X0100412D01*
X0100412Y0092201D01*
D02*
G37*
G36*
X0099612D02*
X0099617Y0092143D01*
X0099621Y0092117D01*
X0099627Y0092094D01*
X0099633Y0092072D01*
X0099641Y0092053D01*
X009965Y0092036D01*
X009966Y0092021D01*
X0099672Y0092008D01*
X0099252D01*
X0099263Y0092021D01*
X0099273Y0092036D01*
X0099282Y0092053D01*
X009929Y0092072D01*
X0099297Y0092094D01*
X0099302Y0092117D01*
X0099306Y0092143D01*
X0099309Y0092171D01*
X0099312Y0092234D01*
X0099612D01*
X0099612Y0092201D01*
D02*
G37*
G36*
X0091439Y0090242D02*
X0091454Y0090232D01*
X0091471Y0090223D01*
X009149Y0090215D01*
X0091512Y0090209D01*
X0091535Y0090203D01*
X0091561Y0090199D01*
X0091589Y0090196D01*
X0091652Y0090194D01*
Y0089894D01*
X0091619Y0089893D01*
X0091561Y0089888D01*
X0091535Y0089884D01*
X0091512Y0089879D01*
X009149Y0089872D01*
X0091471Y0089864D01*
X0091454Y0089855D01*
X0091439Y0089845D01*
X0091426Y0089834D01*
Y0090254D01*
X0091439Y0090242D01*
D02*
G37*
G36*
X0094537Y0087051D02*
X0094542Y0086993D01*
X0094546Y0086967D01*
X0094552Y0086944D01*
X0094558Y0086922D01*
X0094566Y0086903D01*
X0094575Y0086886D01*
X0094585Y0086871D01*
X0094597Y0086858D01*
X0094177D01*
X0094188Y0086871D01*
X0094198Y0086886D01*
X0094207Y0086903D01*
X0094215Y0086922D01*
X0094222Y0086944D01*
X0094227Y0086967D01*
X0094231Y0086993D01*
X0094234Y0087021D01*
X0094237Y0087084D01*
X0094537D01*
X0094537Y0087051D01*
D02*
G37*
G36*
X0097109Y0085869D02*
X0097092Y0085868D01*
X0097074Y0085864D01*
X0097055Y0085859D01*
X0097036Y008585D01*
X0097016Y008584D01*
X0096996Y0085827D01*
X0096975Y0085812D01*
X0096953Y0085794D01*
X0096907Y0085752D01*
X0096695Y0085964D01*
X0096717Y0085987D01*
X0096755Y0086032D01*
X009677Y0086053D01*
X0096783Y0086073D01*
X0096793Y0086093D01*
X0096802Y0086112D01*
X0096807Y0086131D01*
X0096811Y0086149D01*
X0096812Y0086166D01*
X0097109Y0085869D01*
D02*
G37*
G36*
X0089164Y0085917D02*
X0089179Y0085907D01*
X0089196Y0085898D01*
X0089215Y008589D01*
X0089237Y0085884D01*
X008926Y0085878D01*
X0089286Y0085874D01*
X0089314Y0085871D01*
X0089377Y0085869D01*
Y0085569D01*
X0089344Y0085568D01*
X0089286Y0085563D01*
X008926Y0085559D01*
X0089237Y0085554D01*
X0089215Y0085547D01*
X0089196Y0085539D01*
X0089179Y008553D01*
X0089164Y008552D01*
X0089151Y0085509D01*
Y0085929D01*
X0089164Y0085917D01*
D02*
G37*
G36*
X0099764Y0085692D02*
X0099779Y0085682D01*
X0099796Y0085673D01*
X0099815Y0085665D01*
X0099837Y0085659D01*
X009986Y0085653D01*
X0099886Y0085649D01*
X0099914Y0085646D01*
X0099977Y0085644D01*
Y0085344D01*
X0099944Y0085343D01*
X0099886Y0085338D01*
X009986Y0085334D01*
X0099837Y0085329D01*
X0099815Y0085322D01*
X0099796Y0085314D01*
X0099779Y0085305D01*
X0099764Y0085295D01*
X0099751Y0085284D01*
Y0085704D01*
X0099764Y0085692D01*
D02*
G37*
G36*
X0102755Y0083213D02*
X01028Y0083176D01*
X0102821Y0083161D01*
X0102841Y0083148D01*
X0102861Y0083137D01*
X010288Y0083129D01*
X0102899Y0083123D01*
X0102917Y008312D01*
X0102934Y0083119D01*
X0102637Y0082822D01*
X0102636Y0082839D01*
X0102632Y0082857D01*
X0102627Y0082875D01*
X0102618Y0082894D01*
X0102608Y0082914D01*
X0102595Y0082935D01*
X010258Y0082956D01*
X0102562Y0082978D01*
X010252Y0083024D01*
X0102732Y0083236D01*
X0102755Y0083213D01*
D02*
G37*
G36*
X008991Y0071342D02*
X00899Y0071327D01*
X0089891Y007131D01*
X0089883Y007129D01*
X0089877Y0071269D01*
X0089871Y0071245D01*
X0089867Y0071219D01*
X0089864Y0071191D01*
X0089862Y0071129D01*
X0089562D01*
X0089561Y0071161D01*
X0089556Y0071219D01*
X0089552Y0071245D01*
X0089547Y0071269D01*
X008954Y007129D01*
X0089532Y007131D01*
X0089523Y0071327D01*
X0089513Y0071342D01*
X0089502Y0071355D01*
X0089922D01*
X008991Y0071342D01*
D02*
G37*
G36*
X0092191Y0059846D02*
X0092202Y0059788D01*
X0092221Y0059727D01*
X0092247Y0059665D01*
X0092281Y0059601D01*
X0092322Y0059535D01*
X0092371Y0059467D01*
X0092427Y0059398D01*
X0092562Y0059254D01*
X0091512D01*
X0091583Y0059327D01*
X0091703Y0059467D01*
X0091752Y0059535D01*
X0091793Y0059601D01*
X0091827Y0059665D01*
X0091853Y0059727D01*
X0091872Y0059788D01*
X0091883Y0059846D01*
X0091887Y0059904D01*
X0092187D01*
X0092191Y0059846D01*
D02*
G37*
G36*
X0104763Y0071349D02*
X0104766Y0071331D01*
X0104772Y0071312D01*
X010478Y0071293D01*
X0104791Y0071273D01*
X0104804Y0071253D01*
X0104819Y0071232D01*
X0104836Y007121D01*
X0104879Y0071164D01*
X0104667Y0070952D01*
X0104643Y0070974D01*
X0104599Y0071012D01*
X0104578Y0071027D01*
X0104557Y007104D01*
X0104537Y007105D01*
X0104518Y0071059D01*
X01045Y0071064D01*
X0104482Y0071068D01*
X0104465Y0071069D01*
X0104762Y0071366D01*
X0104763Y0071349D01*
D02*
G37*
G36*
X0104937Y0059873D02*
X010494Y0059817D01*
X0104951Y0059758D01*
X010497Y0059697D01*
X0104996Y0059635D01*
X0105029Y005957D01*
X0105069Y0059502D01*
X0105117Y0059433D01*
X0105172Y0059361D01*
X0105304Y0059212D01*
X0104255Y0059247D01*
X0104327Y0059316D01*
X010445Y0059451D01*
X0104499Y0059517D01*
X0104541Y0059581D01*
X0104576Y0059644D01*
X0104602Y0059706D01*
X0104622Y0059766D01*
X0104633Y0059825D01*
X0104637Y0059883D01*
X0104937Y0059873D01*
D02*
G37*
D32*
X0093162Y0116219D02*
X0094262D01*
X0092652Y0116729D02*
X0093162Y0116219D01*
X0090412Y0116729D02*
X0092652D01*
X0091137Y0119694D02*
X0093168D01*
X0088862Y0117419D02*
X0091137Y0119694D01*
X0093168D02*
X0093493Y0119369D01*
X0094387D01*
X0102012Y0117044D02*
X0103762Y0115294D01*
X0095087Y0117044D02*
X0102012D01*
X0094262Y0116219D02*
X0095087Y0117044D01*
X0088237Y0071569D02*
X0089412Y0072744D01*
X0088237Y0062244D02*
Y0071569D01*
Y0062244D02*
X0090662Y0059819D01*
Y0054469D02*
Y0059819D01*
X0089412Y0072744D02*
X0090562D01*
X0092037Y0058719D02*
Y0059969D01*
X0089012Y0062994D02*
X0092037Y0059969D01*
X0089012Y0062994D02*
Y0068919D01*
X0089712Y0069619D01*
Y0071569D01*
X0104762Y0058694D02*
X0104787Y0058719D01*
Y0061194D01*
X0104937Y0061344D01*
Y0070894D01*
X0104462Y0071369D02*
X0104937Y0070894D01*
X0090387Y0108144D02*
X0090412Y0108169D01*
X0097262D01*
X0088437Y0124894D02*
Y0126219D01*
Y0124894D02*
X0090137Y0123194D01*
X0095912D01*
X0095962Y0123244D01*
X0088662Y0131094D02*
X0089437D01*
X0086237Y0133519D02*
X0088662Y0131094D01*
X0086237Y0133519D02*
Y0134794D01*
X0085037Y0122344D02*
X0086762Y0120619D01*
X0091462D01*
X0097837Y0109444D02*
X0114487D01*
X0115162Y0110119D01*
X0097812Y0111169D02*
X0112687D01*
X0115162Y0113644D01*
X0108512Y0111819D02*
X0110337D01*
X0107412Y0112919D02*
X0108512Y0111819D01*
X0107412Y0112919D02*
Y0117394D01*
X0105762Y0119044D02*
X0107412Y0117394D01*
X0096437Y0119044D02*
X0105762D01*
X0095262Y0120219D02*
X0096437Y0119044D01*
X0103762Y0115294D02*
X0103787D01*
X0105712Y0096494D02*
X0107562D01*
X0104937Y0097269D02*
X0105712Y0096494D01*
X0078687Y0113419D02*
X0085937D01*
X0088187Y0111169D01*
X0096362D01*
X0078762Y0109894D02*
X0088737D01*
X0089237Y0109394D01*
X0096412D01*
X0078762Y0103594D02*
X0088562D01*
X0090512Y0105544D01*
X0078762Y0106544D02*
X0079537Y0107319D01*
X0085012D01*
X0085962Y0106369D01*
X0093137D01*
X0078762Y0117419D02*
X0088862D01*
X0099912Y0102319D02*
X0105212D01*
X0098887Y0101294D02*
X0099912Y0102319D01*
X0097987Y0101294D02*
X0098887D01*
X0093937Y0118169D02*
X0105212D01*
X0103037Y0105769D02*
X0103737Y0106469D01*
X0093737Y0105769D02*
X0103037D01*
X0093137Y0106369D02*
X0093737Y0105769D01*
X0101637Y0095344D02*
X0102837Y0096544D01*
X0101162Y0095344D02*
X0101637D01*
X0093912Y0115444D02*
X0101837D01*
X0102737Y0120169D02*
X0103137Y0119769D01*
X0096662Y0120169D02*
X0102737D01*
X0095262Y0121569D02*
X0096662Y0120169D01*
X0093187Y0120619D02*
X0094712Y0122144D01*
X0091462Y0120619D02*
X0093187D01*
X0094712Y0122144D02*
X0095581D01*
X0096906Y0120819D01*
X0098287D01*
X0100362D01*
X0100362Y0120819D01*
X0100387Y0120794D01*
X0101762Y0122169D01*
X0100262Y0091794D02*
Y0094444D01*
X0101162Y0095344D01*
X0100612Y0097269D02*
X0104937D01*
X0099462Y0096119D02*
X0100612Y0097269D01*
X0099462Y0091794D02*
Y0096119D01*
X0098762Y0113819D02*
X0099562Y0114619D01*
X0093512Y0113819D02*
X0098762D01*
X0092362Y0103269D02*
X0093187Y0104094D01*
X0095062D01*
X0095887Y0103269D01*
X0082762Y0100544D02*
X0085412Y0097894D01*
X0093387D01*
X0094237Y0125219D02*
X0095062Y0124394D01*
Y0123769D02*
Y0124394D01*
X0100262Y0085494D02*
X0102937Y0082819D01*
X0099537Y0085494D02*
X0100262D01*
X0094387Y0086644D02*
Y0087569D01*
X0091912Y0090044D02*
X0094387Y0087569D01*
X0091212Y0090044D02*
X0091912D01*
X0096662Y0085719D02*
X0097112Y0086169D01*
X0088937Y0085719D02*
X0096662D01*
D34*
X0089187Y0058744D02*
D03*
X0107537Y0096444D02*
D03*
X0104762Y0058694D02*
D03*
X0078687Y0113419D02*
D03*
X0078762Y0109894D02*
D03*
X0078762Y0106544D02*
D03*
X0115162Y0113644D02*
D03*
Y0110119D02*
D03*
X0078762Y0117419D02*
D03*
X0078762Y0103594D02*
D03*
X0086962Y0136894D02*
D03*
X0092037Y0058719D02*
D03*
D35*
X0095587Y0102369D02*
D03*
X0093312Y0123894D02*
D03*
X0090412Y0116729D02*
D03*
X0098612Y0127169D02*
D03*
X0102737Y0124119D02*
D03*
X0090562Y0069594D02*
D03*
X0103612Y0069569D02*
D03*
X0088312Y0091444D02*
D03*
X0104137Y0090919D02*
D03*
X0085262Y0099544D02*
D03*
X0111037Y0102219D02*
D03*
X0107462Y0110319D02*
D03*
X0093312Y0110219D02*
D03*
X0098637Y0123869D02*
D03*
X0097237Y0116269D02*
D03*
X0084387Y0118169D02*
D03*
X0083062Y0134419D02*
D03*
X0084437Y0125819D02*
D03*
X0096662Y0130044D02*
D03*
X0102587Y0129269D02*
D03*
X0111412Y0130694D02*
D03*
X0113812Y0125094D02*
D03*
X0112037Y0118394D02*
D03*
X0089037Y0114119D02*
D03*
X0085912Y0109169D02*
D03*
X0088637Y0108994D02*
D03*
X0090662Y0054469D02*
D03*
X0090562Y0072744D02*
D03*
X0089712Y0071569D02*
D03*
X0104462Y0071369D02*
D03*
X0090387Y0108144D02*
D03*
X0097262Y0108169D02*
D03*
X0088437Y0126219D02*
D03*
X0086237Y0134794D02*
D03*
X0089437Y0131094D02*
D03*
X0085037Y0122344D02*
D03*
X0110337Y0111819D02*
D03*
X0103787Y0115294D02*
D03*
X0095962Y0123244D02*
D03*
X0097837Y0109444D02*
D03*
X0097812Y0111169D02*
D03*
X0096362D02*
D03*
X0096412Y0109394D02*
D03*
X0090512Y0105544D02*
D03*
X0105212Y0102319D02*
D03*
Y0118169D02*
D03*
X0103737Y0106469D02*
D03*
X0093137Y0106369D02*
D03*
X0101837Y0115444D02*
D03*
X0093912D02*
D03*
X0103137Y0119769D02*
D03*
X0098287Y0120819D02*
D03*
X0095262Y0121569D02*
D03*
Y0120219D02*
D03*
X0102837Y0096544D02*
D03*
X0100262Y0091794D02*
D03*
X0099562Y0114619D02*
D03*
X0092362Y0103269D02*
D03*
X0093387Y0097894D02*
D03*
X0082762Y0100544D02*
D03*
X0093937Y0118169D02*
D03*
X0094387Y0119369D02*
D03*
X0101762Y0122169D02*
D03*
X0091462Y0120619D02*
D03*
X0095062Y0123769D02*
D03*
X0094237Y0125219D02*
D03*
X0093512Y0113819D02*
D03*
X0097987Y0101294D02*
D03*
X0095887Y0103269D02*
D03*
X0102937Y0082819D02*
D03*
X0099537Y0085494D02*
D03*
X0099462Y0091794D02*
D03*
X0091212Y0090044D02*
D03*
X0088937Y0085719D02*
D03*
X0097112Y0086169D02*
D03*
X0094387Y0086644D02*
D03*
M02*
