G04 Layer_Color=16711935*
%FSTAX43Y43*%
%MOMM*%
G71*
G01*
G75*
G04:AMPARAMS|DCode=50|XSize=0.85mm|YSize=0.7mm|CornerRadius=0.2mm|HoleSize=0mm|Usage=FLASHONLY|Rotation=90.000|XOffset=0mm|YOffset=0mm|HoleType=Round|Shape=RoundedRectangle|*
%AMROUNDEDRECTD50*
21,1,0.850,0.300,0,0,90.0*
21,1,0.450,0.700,0,0,90.0*
1,1,0.400,0.150,0.225*
1,1,0.400,0.150,-0.225*
1,1,0.400,-0.150,-0.225*
1,1,0.400,-0.150,0.225*
%
%ADD50ROUNDEDRECTD50*%
%ADD52R,0.900X0.950*%
%ADD53R,0.950X0.900*%
G04:AMPARAMS|DCode=54|XSize=0.5mm|YSize=0.85mm|CornerRadius=0.15mm|HoleSize=0mm|Usage=FLASHONLY|Rotation=270.000|XOffset=0mm|YOffset=0mm|HoleType=Round|Shape=RoundedRectangle|*
%AMROUNDEDRECTD54*
21,1,0.500,0.550,0,0,270.0*
21,1,0.200,0.850,0,0,270.0*
1,1,0.300,-0.275,-0.100*
1,1,0.300,-0.275,0.100*
1,1,0.300,0.275,0.100*
1,1,0.300,0.275,-0.100*
%
%ADD54ROUNDEDRECTD54*%
G04:AMPARAMS|DCode=55|XSize=0.5mm|YSize=0.85mm|CornerRadius=0.15mm|HoleSize=0mm|Usage=FLASHONLY|Rotation=180.000|XOffset=0mm|YOffset=0mm|HoleType=Round|Shape=RoundedRectangle|*
%AMROUNDEDRECTD55*
21,1,0.500,0.550,0,0,180.0*
21,1,0.200,0.850,0,0,180.0*
1,1,0.300,-0.100,0.275*
1,1,0.300,0.100,0.275*
1,1,0.300,0.100,-0.275*
1,1,0.300,-0.100,-0.275*
%
%ADD55ROUNDEDRECTD55*%
G04:AMPARAMS|DCode=56|XSize=0.85mm|YSize=0.7mm|CornerRadius=0.2mm|HoleSize=0mm|Usage=FLASHONLY|Rotation=0.000|XOffset=0mm|YOffset=0mm|HoleType=Round|Shape=RoundedRectangle|*
%AMROUNDEDRECTD56*
21,1,0.850,0.300,0,0,0.0*
21,1,0.450,0.700,0,0,0.0*
1,1,0.400,0.225,-0.150*
1,1,0.400,-0.225,-0.150*
1,1,0.400,-0.225,0.150*
1,1,0.400,0.225,0.150*
%
%ADD56ROUNDEDRECTD56*%
G04:AMPARAMS|DCode=59|XSize=0.7mm|YSize=1.1mm|CornerRadius=0.2mm|HoleSize=0mm|Usage=FLASHONLY|Rotation=180.000|XOffset=0mm|YOffset=0mm|HoleType=Round|Shape=RoundedRectangle|*
%AMROUNDEDRECTD59*
21,1,0.700,0.700,0,0,180.0*
21,1,0.300,1.100,0,0,180.0*
1,1,0.400,-0.150,0.350*
1,1,0.400,0.150,0.350*
1,1,0.400,0.150,-0.350*
1,1,0.400,-0.150,-0.350*
%
%ADD59ROUNDEDRECTD59*%
%ADD71C,1.600*%
%ADD72R,2.250X0.900*%
G04:AMPARAMS|DCode=73|XSize=0.7mm|YSize=0.55mm|CornerRadius=0.163mm|HoleSize=0mm|Usage=FLASHONLY|Rotation=0.000|XOffset=0mm|YOffset=0mm|HoleType=Round|Shape=RoundedRectangle|*
%AMROUNDEDRECTD73*
21,1,0.700,0.225,0,0,0.0*
21,1,0.375,0.550,0,0,0.0*
1,1,0.325,0.188,-0.113*
1,1,0.325,-0.188,-0.113*
1,1,0.325,-0.188,0.113*
1,1,0.325,0.188,0.113*
%
%ADD73ROUNDEDRECTD73*%
G04:AMPARAMS|DCode=74|XSize=0.55mm|YSize=0.7mm|CornerRadius=0.163mm|HoleSize=0mm|Usage=FLASHONLY|Rotation=270.000|XOffset=0mm|YOffset=0mm|HoleType=Round|Shape=RoundedRectangle|*
%AMROUNDEDRECTD74*
21,1,0.550,0.375,0,0,270.0*
21,1,0.225,0.700,0,0,270.0*
1,1,0.325,-0.188,-0.113*
1,1,0.325,-0.188,0.113*
1,1,0.325,0.188,0.113*
1,1,0.325,0.188,-0.113*
%
%ADD74ROUNDEDRECTD74*%
%ADD75R,0.300X0.750*%
%ADD76R,0.300X0.850*%
%ADD77R,0.750X0.300*%
G04:AMPARAMS|DCode=78|XSize=0.5mm|YSize=1.1mm|CornerRadius=0.15mm|HoleSize=0mm|Usage=FLASHONLY|Rotation=270.000|XOffset=0mm|YOffset=0mm|HoleType=Round|Shape=RoundedRectangle|*
%AMROUNDEDRECTD78*
21,1,0.500,0.800,0,0,270.0*
21,1,0.200,1.100,0,0,270.0*
1,1,0.300,-0.400,-0.100*
1,1,0.300,-0.400,0.100*
1,1,0.300,0.400,0.100*
1,1,0.300,0.400,-0.100*
%
%ADD78ROUNDEDRECTD78*%
G04:AMPARAMS|DCode=79|XSize=0.7mm|YSize=1.1mm|CornerRadius=0.2mm|HoleSize=0mm|Usage=FLASHONLY|Rotation=90.000|XOffset=0mm|YOffset=0mm|HoleType=Round|Shape=RoundedRectangle|*
%AMROUNDEDRECTD79*
21,1,0.700,0.700,0,0,90.0*
21,1,0.300,1.100,0,0,90.0*
1,1,0.400,0.350,0.150*
1,1,0.400,0.350,-0.150*
1,1,0.400,-0.350,-0.150*
1,1,0.400,-0.350,0.150*
%
%ADD79ROUNDEDRECTD79*%
%ADD80R,1.150X0.350*%
%ADD81R,1.600X2.700*%
G04:AMPARAMS|DCode=82|XSize=0.55mm|YSize=0.7mm|CornerRadius=0.163mm|HoleSize=0mm|Usage=FLASHONLY|Rotation=180.000|XOffset=0mm|YOffset=0mm|HoleType=Round|Shape=RoundedRectangle|*
%AMROUNDEDRECTD82*
21,1,0.550,0.375,0,0,180.0*
21,1,0.225,0.700,0,0,180.0*
1,1,0.325,-0.113,0.188*
1,1,0.325,0.113,0.188*
1,1,0.325,0.113,-0.188*
1,1,0.325,-0.113,-0.188*
%
%ADD82ROUNDEDRECTD82*%
G36*
X0099987Y0130294D02*
X0099737D01*
Y0130544D01*
X0099987D01*
Y0130294D01*
D02*
G37*
G36*
X0095587Y0125394D02*
X0095337D01*
Y0125644D01*
X0095587D01*
Y0125394D01*
D02*
G37*
G36*
X0100687Y0096169D02*
X0100687Y0092844D01*
X0087737Y0092844D01*
Y0096169D01*
X0100687Y0096169D01*
D02*
G37*
G36*
X0104637Y0068455D02*
X0104637Y0063194D01*
Y0061894D01*
X0101687D01*
Y0068494D01*
X0104662D01*
X0104637Y0068455D01*
D02*
G37*
G36*
X0092262Y0061894D02*
X0089262D01*
Y0068494D01*
X0092262D01*
Y0061894D01*
D02*
G37*
G36*
X0106437Y0053894D02*
X0104937D01*
Y0052119D01*
X0101487D01*
Y0053944D01*
X0100287D01*
Y0055694D01*
X0106437D01*
Y0053894D01*
D02*
G37*
G36*
X0093687D02*
X0092462Y0053894D01*
Y0052019D01*
X0088987D01*
Y0053919D01*
X0087512D01*
Y0055669D01*
X0093687D01*
Y0053894D01*
D02*
G37*
D50*
X0112062Y0123194D02*
D03*
X0113562D02*
D03*
X0088187Y0115144D02*
D03*
X0086687D02*
D03*
X0083987Y0103844D02*
D03*
X0085487D02*
D03*
X0085262Y0111394D02*
D03*
X0083762D02*
D03*
X0091312Y0100644D02*
D03*
X0092812D02*
D03*
X0096512Y0098369D02*
D03*
X0095012D02*
D03*
X0100762Y0085644D02*
D03*
X0102262D02*
D03*
X0100762Y0084319D02*
D03*
X0102262D02*
D03*
X0097812Y0087044D02*
D03*
X0096312D02*
D03*
X0091262Y0077019D02*
D03*
X0092762D02*
D03*
X0088937Y0088619D02*
D03*
X0090437D02*
D03*
X0088412Y0130244D02*
D03*
X0086912D02*
D03*
D52*
X0107862Y0121069D02*
D03*
Y0119619D02*
D03*
X0105462Y0120094D02*
D03*
Y0121544D02*
D03*
X0106787Y0127369D02*
D03*
Y0128819D02*
D03*
X0087462Y0116919D02*
D03*
Y0118369D02*
D03*
X0084037Y0100694D02*
D03*
Y0102144D02*
D03*
X0093137Y0104119D02*
D03*
Y0105569D02*
D03*
X0091512Y0104094D02*
D03*
Y0105544D02*
D03*
X0099087Y0104444D02*
D03*
Y0105894D02*
D03*
X0100737Y0105944D02*
D03*
Y0104494D02*
D03*
X0104312Y0072794D02*
D03*
Y0074244D02*
D03*
X0089737Y0072719D02*
D03*
Y0074169D02*
D03*
X0103262Y0087144D02*
D03*
Y0088594D02*
D03*
X0098512Y0080219D02*
D03*
Y0081669D02*
D03*
X0100237Y0090044D02*
D03*
Y0088594D02*
D03*
X0101762D02*
D03*
Y0090044D02*
D03*
X0100362Y0078569D02*
D03*
Y0077119D02*
D03*
X0095487Y0085469D02*
D03*
Y0084019D02*
D03*
X0089762Y0085744D02*
D03*
Y0084294D02*
D03*
Y0078469D02*
D03*
Y0077019D02*
D03*
X0095362Y0090044D02*
D03*
Y0088594D02*
D03*
X0096962Y0090044D02*
D03*
Y0088594D02*
D03*
X0089762Y0081819D02*
D03*
Y0080369D02*
D03*
X0093737Y0088594D02*
D03*
Y0090044D02*
D03*
X0098562Y0088594D02*
D03*
Y0090044D02*
D03*
X0083412Y0133344D02*
D03*
Y0131894D02*
D03*
X0081637Y0126844D02*
D03*
Y0128294D02*
D03*
D53*
X0111037Y0110394D02*
D03*
X0109587D02*
D03*
X0112062Y0125119D02*
D03*
X0110612D02*
D03*
X0103812Y0120819D02*
D03*
X0102362D02*
D03*
X0103762Y0118869D02*
D03*
X0102312D02*
D03*
X0101737Y0087144D02*
D03*
X0100287D02*
D03*
X0091487Y0078444D02*
D03*
X0092937D02*
D03*
X0088987Y0090044D02*
D03*
X0090437D02*
D03*
X0083087Y0125019D02*
D03*
X0081637D02*
D03*
D54*
X0087787Y0102144D02*
D03*
Y0101494D02*
D03*
Y0100844D02*
D03*
X0085887D02*
D03*
Y0101494D02*
D03*
Y0102144D02*
D03*
D55*
X0104637Y0126369D02*
D03*
X0103337D02*
D03*
X0103987Y0128269D02*
D03*
X0110737Y0129269D02*
D03*
X0111387D02*
D03*
X0112037D02*
D03*
Y0127369D02*
D03*
X0110737D02*
D03*
X0090787Y0111269D02*
D03*
X0090137D02*
D03*
X0089487D02*
D03*
Y0113169D02*
D03*
X0090137D02*
D03*
X0090787D02*
D03*
X0088112Y0111419D02*
D03*
X0087462D02*
D03*
X0086812D02*
D03*
Y0113319D02*
D03*
X0087462D02*
D03*
X0088112D02*
D03*
X0084012Y0107919D02*
D03*
X0084662D02*
D03*
X0085312D02*
D03*
Y0106019D02*
D03*
X0084662D02*
D03*
X0084012D02*
D03*
X0086587Y0105969D02*
D03*
X0087887D02*
D03*
X0087237Y0104069D02*
D03*
X0085012Y0113344D02*
D03*
X0083712D02*
D03*
X0084362Y0115244D02*
D03*
X0086812Y0109919D02*
D03*
X0087462D02*
D03*
X0088112D02*
D03*
Y0108019D02*
D03*
X0087462D02*
D03*
X0086812D02*
D03*
X0082262Y0100544D02*
D03*
X0081612D02*
D03*
X0080962D02*
D03*
Y0102444D02*
D03*
X0081612D02*
D03*
X0082262D02*
D03*
X0092937Y0082269D02*
D03*
X0092287D02*
D03*
X0091637D02*
D03*
Y0080369D02*
D03*
X0092287D02*
D03*
X0092937D02*
D03*
X0087537Y0131769D02*
D03*
X0086887D02*
D03*
X0086237D02*
D03*
Y0133669D02*
D03*
X0086887D02*
D03*
X0087537D02*
D03*
D56*
X0101187Y0127644D02*
D03*
Y0129144D02*
D03*
X0108662Y0128869D02*
D03*
Y0127369D02*
D03*
X0113687Y0128869D02*
D03*
Y0127369D02*
D03*
X0089462Y0105944D02*
D03*
Y0104444D02*
D03*
X0085762Y0118419D02*
D03*
Y0116919D02*
D03*
X0096512Y0117219D02*
D03*
Y0118719D02*
D03*
X0097887Y0121619D02*
D03*
Y0120119D02*
D03*
X0097912Y0117219D02*
D03*
Y0118719D02*
D03*
X0102337Y0105944D02*
D03*
Y0104444D02*
D03*
X0094912Y0106769D02*
D03*
Y0108269D02*
D03*
X0104687Y0079719D02*
D03*
Y0081219D02*
D03*
X0097012Y0080169D02*
D03*
Y0081669D02*
D03*
X0102062Y0077119D02*
D03*
Y0078619D02*
D03*
X0094737Y0082269D02*
D03*
Y0080769D02*
D03*
X0097112Y0085519D02*
D03*
Y0084019D02*
D03*
X0083187Y0126819D02*
D03*
Y0128319D02*
D03*
D59*
X0111487Y0113019D02*
D03*
X0110537D02*
D03*
X0109587D02*
D03*
Y0115619D02*
D03*
X0110537D02*
D03*
X0111487D02*
D03*
X0091337Y0086644D02*
D03*
X0092287D02*
D03*
X0093237D02*
D03*
Y0084044D02*
D03*
X0092287D02*
D03*
X0091337D02*
D03*
D71*
X0096962Y0136894D02*
D03*
X0089187Y0058744D02*
D03*
X0107537Y0096444D02*
D03*
X0082262Y0096544D02*
D03*
X0104762Y0058694D02*
D03*
X0078687Y0113419D02*
D03*
X0078762Y0109894D02*
D03*
X0078762Y0106544D02*
D03*
X0115162Y0113644D02*
D03*
Y0110119D02*
D03*
X0078762Y0117419D02*
D03*
X0111662Y0096494D02*
D03*
X0078762Y0103594D02*
D03*
X0096962Y0076894D02*
D03*
X0086312Y0096544D02*
D03*
X0088462Y0053394D02*
D03*
X0105462D02*
D03*
X0101962Y0136894D02*
D03*
X0106962D02*
D03*
X0091962D02*
D03*
X0086962D02*
D03*
X0092712Y0074894D02*
D03*
X0101212D02*
D03*
X0100962Y0053394D02*
D03*
X0092962D02*
D03*
X0092037Y0058719D02*
D03*
X0101987Y0058744D02*
D03*
D72*
X0113962Y0121064D02*
D03*
X0110312D02*
D03*
X0113962Y0119794D02*
D03*
X0110312D02*
D03*
X0113962Y0118524D02*
D03*
X0110312D02*
D03*
D73*
X0095637Y0126694D02*
D03*
Y0127644D02*
D03*
Y0128594D02*
D03*
Y0129544D02*
D03*
X0099337D02*
D03*
Y0128644D02*
D03*
Y0127644D02*
D03*
Y0126694D02*
D03*
D74*
X0081612Y0099144D02*
D03*
X0082887D02*
D03*
D75*
X0095887Y0105619D02*
D03*
X0096287D02*
D03*
X0096687D02*
D03*
X0095487Y0104069D02*
D03*
X0095887D02*
D03*
X0096287D02*
D03*
X0096687D02*
D03*
D76*
X0095487Y0105569D02*
D03*
D77*
X0097262Y0105444D02*
D03*
Y0105044D02*
D03*
Y0104644D02*
D03*
Y0104244D02*
D03*
X0094912D02*
D03*
Y0104644D02*
D03*
Y0105044D02*
D03*
Y0105444D02*
D03*
D78*
X0094537Y0099994D02*
D03*
Y0100644D02*
D03*
Y0101294D02*
D03*
X0097137Y0099994D02*
D03*
Y0101944D02*
D03*
Y0101294D02*
D03*
X0094537Y0101944D02*
D03*
X0097137Y0100644D02*
D03*
D79*
X0102937Y0082169D02*
D03*
Y0081219D02*
D03*
Y0080269D02*
D03*
X0100337D02*
D03*
Y0081219D02*
D03*
Y0082169D02*
D03*
D80*
X0088387Y0128844D02*
D03*
Y0128344D02*
D03*
Y0127344D02*
D03*
Y0127844D02*
D03*
Y0126844D02*
D03*
X0085237D02*
D03*
Y0127844D02*
D03*
Y0127344D02*
D03*
Y0128344D02*
D03*
Y0128844D02*
D03*
D81*
X0086812Y0127844D02*
D03*
D82*
X0084762Y0133169D02*
D03*
Y0131894D02*
D03*
M02*
