G04 Layer_Color=32896*
%FSTAX43Y43*%
%MOMM*%
G71*
G01*
G75*
%ADD31C,0.200*%
%ADD47C,0.250*%
%ADD48C,0.150*%
%ADD83C,0.254*%
G36*
X0098046Y0139396D02*
X0097474D01*
Y0139117D01*
X0097988D01*
Y0138944D01*
X0097474D01*
Y0138717D01*
X0098027D01*
Y0138544D01*
X0097267D01*
Y0139569D01*
X0098046D01*
Y0139396D01*
D02*
G37*
G36*
X0096519Y0139182D02*
X0096703D01*
X0096725Y0139181D01*
X0096746D01*
X0096765Y0139179D01*
X0096783Y0139178D01*
X0096799Y0139176D01*
X0096812Y0139175D01*
X0096826D01*
X0096836Y0139173D01*
X0096846Y0139172D01*
X0096854Y013917D01*
X009686D01*
X0096864Y0139169D01*
X0096867D01*
X0096888Y0139163D01*
X0096907Y0139156D01*
X0096925Y0139148D01*
X0096941Y0139139D01*
X0096954Y0139132D01*
X0096965Y0139126D01*
X0096971Y0139122D01*
X0096974Y013912D01*
X0096993Y0139105D01*
X0097009Y0139089D01*
X0097026Y0139071D01*
X0097037Y0139056D01*
X0097048Y0139042D01*
X0097055Y013903D01*
X009706Y0139022D01*
X0097061Y0139019D01*
X0097073Y0138994D01*
X0097082Y0138968D01*
X0097088Y0138939D01*
X0097092Y0138914D01*
X0097095Y0138894D01*
Y0138883D01*
X0097097Y0138876D01*
Y0138868D01*
Y0138864D01*
Y0138861D01*
Y0138859D01*
X0097094Y0138817D01*
X0097088Y0138777D01*
X0097077Y0138744D01*
X0097067Y0138714D01*
X0097061Y0138703D01*
X0097055Y0138692D01*
X0097051Y0138683D01*
X0097045Y0138674D01*
X0097042Y0138668D01*
X0097039Y0138664D01*
X0097036Y0138663D01*
Y0138661D01*
X0097012Y0138634D01*
X0096989Y0138612D01*
X0096963Y0138594D01*
X0096941Y0138581D01*
X009692Y0138572D01*
X0096904Y0138565D01*
X0096898Y0138563D01*
X0096894Y0138562D01*
X0096891Y013856D01*
X0096889D01*
X0096877Y0138557D01*
X0096863Y0138554D01*
X0096845Y0138553D01*
X0096827Y0138551D01*
X0096786Y0138549D01*
X0096744Y0138546D01*
X0096706D01*
X0096689Y0138544D01*
X0096312D01*
Y0139569D01*
X0096519D01*
Y0139182D01*
D02*
G37*
G36*
X0108337Y0098521D02*
Y009849D01*
X0108335Y009846D01*
Y0098432D01*
X0108334Y0098407D01*
X0108332Y0098383D01*
X0108331Y0098362D01*
X0108329Y0098343D01*
X0108326Y0098325D01*
X0108325Y009831D01*
X0108323Y0098297D01*
X0108322Y0098285D01*
X0108321Y0098276D01*
X0108319Y0098269D01*
Y0098264D01*
X0108318Y0098261D01*
Y009826D01*
X010831Y0098238D01*
X0108303Y0098217D01*
X0108292Y0098198D01*
X0108283Y0098182D01*
X0108275Y0098167D01*
X0108267Y0098155D01*
X0108261Y0098149D01*
X010826Y0098146D01*
X0108242Y0098127D01*
X0108223Y0098109D01*
X0108202Y0098094D01*
X0108183Y0098081D01*
X0108166Y009807D01*
X0108152Y0098063D01*
X0108143Y0098059D01*
X0108141Y0098057D01*
X010814D01*
X0108125Y0098051D01*
X0108109Y0098047D01*
X0108072Y0098038D01*
X0108035Y0098032D01*
X0107999Y0098029D01*
X0107983Y0098028D01*
X0107967Y0098026D01*
X0107953D01*
X010794Y0098025D01*
X0107916D01*
X0107873Y0098026D01*
X0107835Y0098029D01*
X0107801Y0098035D01*
X0107773Y0098041D01*
X0107761Y0098042D01*
X0107749Y0098045D01*
X010774Y0098048D01*
X0107733Y0098051D01*
X0107727Y0098053D01*
X0107722Y0098054D01*
X0107721Y0098056D01*
X0107719D01*
X0107693Y0098067D01*
X0107669Y0098082D01*
X0107648Y0098096D01*
X010763Y0098109D01*
X0107617Y0098121D01*
X0107607Y009813D01*
X0107601Y0098136D01*
X0107599Y0098139D01*
X0107583Y0098159D01*
X010757Y0098182D01*
X0107559Y0098202D01*
X010755Y0098223D01*
X0107545Y0098241D01*
X010754Y0098256D01*
X0107539Y009826D01*
Y0098264D01*
X0107537Y0098266D01*
Y0098267D01*
X0107534Y0098284D01*
X0107531Y0098301D01*
X0107528Y0098321D01*
X0107527Y009834D01*
X0107524Y0098384D01*
X0107521Y0098427D01*
Y0098447D01*
Y0098466D01*
X0107519Y0098484D01*
Y0098498D01*
Y009851D01*
Y0098521D01*
Y0098527D01*
Y0098528D01*
Y0099069D01*
X0107727D01*
Y00985D01*
Y0098478D01*
Y0098457D01*
X0107728Y0098438D01*
Y009842D01*
X010773Y0098405D01*
Y009839D01*
X0107731Y0098377D01*
Y0098365D01*
X0107734Y0098347D01*
X0107736Y0098334D01*
X0107737Y0098327D01*
Y0098324D01*
X0107742Y0098304D01*
X0107749Y0098288D01*
X0107758Y0098273D01*
X0107767Y009826D01*
X0107776Y009825D01*
X0107783Y0098242D01*
X0107789Y0098238D01*
X010779Y0098236D01*
X0107808Y0098224D01*
X010783Y0098216D01*
X0107851Y009821D01*
X0107873Y0098205D01*
X0107893Y0098202D01*
X0107907Y0098201D01*
X0107922D01*
X0107953Y0098202D01*
X010798Y0098207D01*
X0108004Y0098213D01*
X0108024Y009822D01*
X0108039Y0098226D01*
X0108051Y0098232D01*
X0108057Y0098236D01*
X010806Y0098238D01*
X0108076Y0098253D01*
X010809Y009827D01*
X0108101Y0098287D01*
X0108109Y0098303D01*
X0108115Y0098318D01*
X0108119Y009833D01*
X0108122Y0098337D01*
Y009834D01*
X0108124Y0098349D01*
X0108125Y0098358D01*
Y009837D01*
X0108127Y0098383D01*
X0108128Y0098411D01*
Y0098441D01*
X0108129Y0098467D01*
Y0098479D01*
Y0098491D01*
Y00985D01*
Y0098506D01*
Y009851D01*
Y0098512D01*
Y0099069D01*
X0108337D01*
Y0098521D01*
D02*
G37*
G36*
X0101098Y0061115D02*
X0101117Y0061084D01*
X0101138Y0061055D01*
X0101158Y0061031D01*
X0101176Y0061012D01*
X0101192Y0060997D01*
X0101198Y0060991D01*
X0101203Y0060987D01*
X0101206Y0060985D01*
X0101207Y0060984D01*
X010124Y006096D01*
X0101271Y0060939D01*
X0101299Y0060923D01*
X0101324Y0060911D01*
X0101345Y0060902D01*
X010136Y0060895D01*
X0101366Y0060893D01*
X010137Y0060892D01*
X0101372Y006089D01*
X0101373D01*
Y0060713D01*
X010132Y0060733D01*
X0101272Y0060756D01*
X010125Y0060767D01*
X0101229Y0060781D01*
X010121Y0060793D01*
X0101192Y0060804D01*
X0101176Y0060816D01*
X0101161Y0060827D01*
X0101149Y0060836D01*
X0101139Y0060844D01*
X010113Y0060852D01*
X0101124Y0060856D01*
X0101121Y0060859D01*
X010112Y0060861D01*
Y0060119D01*
X0100923D01*
Y0061149D01*
X0101083D01*
X0101098Y0061115D01*
D02*
G37*
G36*
X0092511Y0138544D02*
X0092302D01*
X0092145Y0139261D01*
X0091967Y0138544D01*
X0091719D01*
X0091532Y0139249D01*
X0091378Y0138544D01*
X0091166D01*
X0091409Y0139569D01*
X0091634D01*
X0091839Y0138803D01*
X009204Y0139569D01*
X0092264D01*
X0092511Y0138544D01*
D02*
G37*
G36*
X0103362Y006097D02*
X0103058D01*
Y0060119D01*
X0102851D01*
Y006097D01*
X0102549D01*
Y0061144D01*
X0103362D01*
Y006097D01*
D02*
G37*
G36*
X0090519Y0139182D02*
X0090703D01*
X0090725Y0139181D01*
X0090746D01*
X0090765Y0139179D01*
X0090783Y0139178D01*
X0090799Y0139176D01*
X0090812Y0139175D01*
X0090826D01*
X0090836Y0139173D01*
X0090846Y0139172D01*
X0090854Y013917D01*
X009086D01*
X0090864Y0139169D01*
X0090867D01*
X0090888Y0139163D01*
X0090907Y0139156D01*
X0090925Y0139148D01*
X0090941Y0139139D01*
X0090954Y0139132D01*
X0090965Y0139126D01*
X0090971Y0139122D01*
X0090974Y013912D01*
X0090993Y0139105D01*
X0091009Y0139089D01*
X0091026Y0139071D01*
X0091037Y0139056D01*
X0091048Y0139042D01*
X0091055Y013903D01*
X009106Y0139022D01*
X0091061Y0139019D01*
X0091073Y0138994D01*
X0091082Y0138968D01*
X0091088Y0138939D01*
X0091092Y0138914D01*
X0091095Y0138894D01*
Y0138883D01*
X0091097Y0138876D01*
Y0138868D01*
Y0138864D01*
Y0138861D01*
Y0138859D01*
X0091094Y0138817D01*
X0091088Y0138777D01*
X0091077Y0138744D01*
X0091067Y0138714D01*
X0091061Y0138703D01*
X0091055Y0138692D01*
X0091051Y0138683D01*
X0091045Y0138674D01*
X0091042Y0138668D01*
X0091039Y0138664D01*
X0091036Y0138663D01*
Y0138661D01*
X0091012Y0138634D01*
X0090989Y0138612D01*
X0090963Y0138594D01*
X0090941Y0138581D01*
X009092Y0138572D01*
X0090904Y0138565D01*
X0090898Y0138563D01*
X0090894Y0138562D01*
X0090891Y013856D01*
X0090889D01*
X0090877Y0138557D01*
X0090863Y0138554D01*
X0090845Y0138553D01*
X0090827Y0138551D01*
X0090786Y0138549D01*
X0090744Y0138546D01*
X0090706D01*
X0090689Y0138544D01*
X0090312D01*
Y0139569D01*
X0090519D01*
Y0139182D01*
D02*
G37*
G36*
X0112129Y0098303D02*
Y0098302D01*
Y0098296D01*
Y0098285D01*
Y0098273D01*
Y0098259D01*
X0112128Y0098241D01*
Y0098222D01*
Y0098202D01*
X0112125Y0098159D01*
X0112122Y0098115D01*
X011212Y0098096D01*
X0112117Y0098076D01*
X0112114Y0098059D01*
X0112111Y0098042D01*
Y0098041D01*
X011211Y0098039D01*
Y0098035D01*
X0112108Y0098031D01*
X0112104Y0098016D01*
X0112098Y0097998D01*
X0112089Y0097977D01*
X0112079Y0097957D01*
X0112066Y0097934D01*
X0112049Y0097914D01*
X0112048Y0097911D01*
X0112042Y0097905D01*
X0112031Y0097896D01*
X0112018Y0097884D01*
X0112Y0097871D01*
X011198Y0097857D01*
X0111956Y0097842D01*
X0111929Y0097831D01*
X0111928D01*
X0111926Y0097829D01*
X0111922Y0097828D01*
X0111916Y0097826D01*
X0111909Y0097823D01*
X01119Y009782D01*
X0111888Y0097817D01*
X0111876Y0097816D01*
X0111848Y009781D01*
X0111814Y0097804D01*
X0111775Y0097801D01*
X0111732Y00978D01*
X0111709D01*
X0111695Y0097801D01*
X0111682D01*
X0111666Y0097803D01*
X0111649Y0097804D01*
X0111614Y0097807D01*
X0111577Y0097813D01*
X011154Y0097822D01*
X0111524Y0097826D01*
X0111509Y0097832D01*
X0111507D01*
X0111506Y0097834D01*
X0111497Y0097838D01*
X0111482Y0097845D01*
X0111466Y0097856D01*
X0111447Y0097869D01*
X0111426Y0097884D01*
X0111407Y0097902D01*
X0111389Y0097921D01*
X0111387Y0097924D01*
X0111381Y009793D01*
X0111374Y0097942D01*
X0111365Y0097957D01*
X0111356Y0097973D01*
X0111346Y0097992D01*
X0111338Y0098013D01*
X0111331Y0098035D01*
Y0098036D01*
X011133Y0098039D01*
Y0098044D01*
X0111328Y0098051D01*
X0111327Y009806D01*
X0111325Y0098072D01*
X0111324Y0098085D01*
X0111322Y00981D01*
X0111319Y0098118D01*
X0111318Y0098137D01*
X0111316Y0098158D01*
X0111315Y0098182D01*
X0111313Y0098207D01*
Y0098235D01*
X0111312Y0098265D01*
Y0098296D01*
Y0098844D01*
X0111519D01*
Y0098287D01*
Y0098285D01*
Y0098281D01*
Y0098275D01*
Y0098266D01*
Y0098254D01*
Y0098242D01*
X0111521Y0098216D01*
Y0098186D01*
X0111522Y0098158D01*
X0111524Y0098145D01*
Y0098133D01*
X0111525Y0098124D01*
X0111527Y0098115D01*
Y0098112D01*
X0111529Y0098105D01*
X0111534Y0098093D01*
X011154Y0098078D01*
X0111547Y0098062D01*
X0111559Y0098045D01*
X0111572Y0098028D01*
X0111589Y0098013D01*
X0111592Y0098011D01*
X0111598Y0098007D01*
X0111609Y0098001D01*
X0111624Y0097995D01*
X0111645Y0097988D01*
X0111669Y0097982D01*
X0111695Y0097977D01*
X0111726Y0097976D01*
X0111741D01*
X0111756Y0097977D01*
X0111775Y009798D01*
X0111798Y0097985D01*
X0111818Y0097991D01*
X011184Y0097999D01*
X0111858Y0098011D01*
X011186Y0098013D01*
X0111866Y0098017D01*
X0111873Y0098025D01*
X0111882Y0098035D01*
X0111891Y0098048D01*
X01119Y0098063D01*
X0111907Y0098079D01*
X0111912Y0098099D01*
Y0098102D01*
X0111913Y0098109D01*
X0111914Y0098122D01*
X0111917Y009814D01*
Y0098152D01*
X0111919Y0098165D01*
Y009818D01*
X011192Y0098195D01*
Y0098213D01*
X0111922Y0098232D01*
Y0098253D01*
Y0098275D01*
Y0098844D01*
X0112129D01*
Y0098303D01*
D02*
G37*
G36*
X0085907Y0098923D02*
X0085931Y0098921D01*
X0085977Y0098914D01*
X0086015Y0098902D01*
X0086033Y0098896D01*
X0086049Y0098889D01*
X0086064Y0098883D01*
X0086076Y0098876D01*
X0086088Y009887D01*
X0086097Y0098865D01*
X0086104Y0098859D01*
X0086109Y0098856D01*
X0086112Y0098855D01*
X0086113Y0098853D01*
X0086129Y0098839D01*
X0086144Y0098824D01*
X0086157Y0098806D01*
X0086169Y0098787D01*
X0086187Y0098748D01*
X0086202Y0098711D01*
X0086206Y0098692D01*
X0086211Y0098676D01*
X0086215Y0098661D01*
X0086217Y0098648D01*
X008622Y0098636D01*
Y0098628D01*
X0086221Y0098622D01*
Y0098621D01*
X0086026Y0098602D01*
X0086023Y0098631D01*
X0086017Y0098656D01*
X0086011Y0098679D01*
X0086003Y0098695D01*
X0085998Y0098708D01*
X0085992Y0098717D01*
X0085987Y0098723D01*
X0085986Y0098725D01*
X0085971Y0098736D01*
X0085955Y0098745D01*
X0085938Y0098753D01*
X0085922Y0098757D01*
X0085909Y009876D01*
X0085897Y0098762D01*
X0085886D01*
X0085864Y009876D01*
X0085845Y0098756D01*
X0085829Y009875D01*
X0085814Y0098744D01*
X0085804Y0098738D01*
X0085795Y0098732D01*
X008579Y0098728D01*
X0085789Y0098726D01*
X0085777Y0098711D01*
X0085768Y0098695D01*
X0085762Y0098679D01*
X0085758Y0098662D01*
X0085755Y0098648D01*
X0085753Y0098634D01*
Y0098627D01*
Y0098625D01*
Y0098624D01*
X0085755Y0098602D01*
X0085759Y0098581D01*
X0085767Y009856D01*
X0085774Y0098542D01*
X0085781Y0098526D01*
X0085789Y0098514D01*
X0085793Y0098507D01*
X0085795Y0098504D01*
X0085801Y0098495D01*
X0085809Y0098485D01*
X0085821Y0098471D01*
X0085833Y0098459D01*
X008586Y0098431D01*
X0085886Y0098403D01*
X0085913Y0098377D01*
X0085925Y0098365D01*
X0085937Y0098356D01*
X0085946Y0098347D01*
X0085952Y0098341D01*
X0085956Y0098337D01*
X0085958Y0098335D01*
X0085987Y0098307D01*
X0086014Y009828D01*
X0086039Y0098255D01*
X0086061Y0098233D01*
X0086082Y0098211D01*
X00861Y009819D01*
X0086116Y0098172D01*
X0086129Y0098154D01*
X0086141Y009814D01*
X0086152Y0098126D01*
X008616Y0098116D01*
X0086166Y0098106D01*
X0086172Y00981D01*
X0086175Y0098094D01*
X0086178Y0098091D01*
Y0098089D01*
X0086197Y0098055D01*
X0086212Y009802D01*
X0086224Y0097987D01*
X0086233Y0097957D01*
X0086239Y0097931D01*
X008624Y009792D01*
X0086242Y0097912D01*
X0086243Y0097904D01*
X0086245Y0097898D01*
Y0097895D01*
Y0097894D01*
X0085556D01*
Y0098076D01*
X0085947D01*
X0085935Y0098095D01*
X0085922Y0098111D01*
X0085916Y0098119D01*
X0085912Y0098125D01*
X0085909Y0098128D01*
X0085907Y0098129D01*
X0085901Y0098135D01*
X0085895Y0098143D01*
X0085878Y0098159D01*
X0085858Y0098178D01*
X0085839Y0098197D01*
X008582Y0098215D01*
X0085804Y009823D01*
X0085798Y0098236D01*
X0085793Y009824D01*
X008579Y0098242D01*
X0085789Y0098243D01*
X0085756Y0098274D01*
X0085729Y00983D01*
X0085707Y0098323D01*
X008569Y0098341D01*
X0085676Y0098356D01*
X0085667Y0098366D01*
X0085661Y0098374D01*
X008566Y0098375D01*
X0085641Y00984D01*
X0085624Y0098424D01*
X0085611Y0098446D01*
X0085601Y0098465D01*
X0085592Y0098482D01*
X0085586Y0098495D01*
X0085583Y0098502D01*
X0085581Y0098505D01*
X0085573Y0098529D01*
X0085567Y0098553D01*
X0085562Y0098575D01*
X0085559Y0098596D01*
X0085558Y0098612D01*
X0085556Y0098625D01*
Y0098634D01*
Y0098637D01*
X0085558Y0098659D01*
X0085561Y0098682D01*
X0085564Y0098702D01*
X008557Y0098722D01*
X0085584Y0098756D01*
X0085599Y0098785D01*
X0085608Y0098799D01*
X0085615Y0098809D01*
X0085623Y0098819D01*
X008563Y0098827D01*
X0085636Y0098833D01*
X0085639Y0098839D01*
X0085642Y009884D01*
X0085644Y0098842D01*
X008566Y0098856D01*
X0085679Y009887D01*
X0085697Y009888D01*
X0085718Y0098889D01*
X0085756Y0098904D01*
X0085795Y0098914D01*
X0085812Y0098917D01*
X0085829Y009892D01*
X0085844Y0098921D01*
X0085857Y0098923D01*
X0085867Y0098924D01*
X0085882D01*
X0085907Y0098923D01*
D02*
G37*
G36*
X0087212Y0098371D02*
Y009834D01*
X008721Y009831D01*
Y0098282D01*
X0087209Y0098257D01*
X0087207Y0098233D01*
X0087206Y0098212D01*
X0087204Y0098193D01*
X0087201Y0098175D01*
X00872Y009816D01*
X0087198Y0098147D01*
X0087197Y0098135D01*
X0087196Y0098126D01*
X0087194Y0098119D01*
Y0098114D01*
X0087193Y0098111D01*
Y009811D01*
X0087185Y0098088D01*
X0087178Y0098067D01*
X0087167Y0098048D01*
X0087158Y0098032D01*
X008715Y0098017D01*
X0087142Y0098005D01*
X0087136Y0097999D01*
X0087135Y0097996D01*
X0087117Y0097977D01*
X0087098Y0097959D01*
X0087077Y0097944D01*
X0087058Y0097931D01*
X0087041Y009792D01*
X0087027Y0097913D01*
X0087018Y0097909D01*
X0087016Y0097907D01*
X0087015D01*
X0087Y0097901D01*
X0086984Y0097897D01*
X0086947Y0097888D01*
X008691Y0097882D01*
X0086874Y0097879D01*
X0086858Y0097878D01*
X0086842Y0097876D01*
X0086828D01*
X0086815Y0097875D01*
X0086791D01*
X0086748Y0097876D01*
X008671Y0097879D01*
X0086676Y0097885D01*
X0086648Y0097891D01*
X0086636Y0097892D01*
X0086624Y0097895D01*
X0086615Y0097898D01*
X0086608Y0097901D01*
X0086602Y0097903D01*
X0086597Y0097904D01*
X0086596Y0097906D01*
X0086594D01*
X0086568Y0097918D01*
X0086544Y0097932D01*
X0086523Y0097946D01*
X0086505Y0097959D01*
X0086492Y0097971D01*
X0086482Y009798D01*
X0086476Y0097986D01*
X0086474Y0097989D01*
X0086458Y0098009D01*
X0086445Y0098032D01*
X0086434Y0098052D01*
X0086425Y0098073D01*
X008642Y0098091D01*
X0086415Y0098106D01*
X0086414Y009811D01*
Y0098114D01*
X0086412Y0098116D01*
Y0098117D01*
X0086409Y0098134D01*
X0086406Y0098151D01*
X0086403Y0098171D01*
X0086402Y009819D01*
X0086399Y0098234D01*
X0086396Y0098277D01*
Y0098297D01*
Y0098316D01*
X0086394Y0098334D01*
Y0098348D01*
Y009836D01*
Y0098371D01*
Y0098377D01*
Y0098378D01*
Y0098919D01*
X0086602D01*
Y009835D01*
Y0098328D01*
Y0098307D01*
X0086603Y0098288D01*
Y009827D01*
X0086605Y0098255D01*
Y009824D01*
X0086606Y0098227D01*
Y0098215D01*
X0086609Y0098197D01*
X0086611Y0098184D01*
X0086612Y0098177D01*
Y0098174D01*
X0086617Y0098154D01*
X0086624Y0098138D01*
X0086633Y0098123D01*
X0086642Y009811D01*
X0086651Y00981D01*
X0086658Y0098092D01*
X0086664Y0098088D01*
X0086665Y0098086D01*
X0086683Y0098074D01*
X0086705Y0098066D01*
X0086726Y009806D01*
X0086748Y0098055D01*
X0086768Y0098052D01*
X0086782Y0098051D01*
X0086797D01*
X0086828Y0098052D01*
X0086855Y0098057D01*
X0086879Y0098063D01*
X0086899Y009807D01*
X0086914Y0098076D01*
X0086926Y0098082D01*
X0086932Y0098086D01*
X0086935Y0098088D01*
X0086951Y0098103D01*
X0086965Y009812D01*
X0086976Y0098137D01*
X0086984Y0098153D01*
X008699Y0098168D01*
X0086994Y009818D01*
X0086997Y0098187D01*
Y009819D01*
X0086999Y0098199D01*
X0087Y0098208D01*
Y009822D01*
X0087002Y0098233D01*
X0087003Y0098261D01*
Y0098291D01*
X0087004Y0098317D01*
Y0098329D01*
Y0098341D01*
Y009835D01*
Y0098356D01*
Y009836D01*
Y0098362D01*
Y0098919D01*
X0087212D01*
Y0098371D01*
D02*
G37*
G36*
X0080587Y0096294D02*
X0080379D01*
Y0096729D01*
X0079952D01*
Y0096902D01*
X0080379D01*
Y0097145D01*
X0079883D01*
Y0097319D01*
X0080587D01*
Y0096294D01*
D02*
G37*
G36*
X0107017Y009904D02*
X0107037Y0099009D01*
X0107057Y009898D01*
X0107078Y0098956D01*
X0107096Y0098937D01*
X0107112Y0098922D01*
X0107118Y0098916D01*
X0107123Y0098912D01*
X0107125Y009891D01*
X0107127Y0098909D01*
X010716Y0098885D01*
X0107191Y0098864D01*
X0107219Y0098848D01*
X0107244Y0098836D01*
X0107265Y0098827D01*
X0107279Y009882D01*
X0107285Y0098818D01*
X010729Y0098817D01*
X0107291Y0098815D01*
X0107293D01*
Y0098638D01*
X010724Y0098658D01*
X0107192Y0098681D01*
X010717Y0098692D01*
X0107149Y0098706D01*
X010713Y0098718D01*
X0107112Y0098729D01*
X0107096Y0098741D01*
X0107081Y0098752D01*
X0107069Y0098761D01*
X0107059Y0098769D01*
X010705Y0098777D01*
X0107044Y0098781D01*
X0107041Y0098784D01*
X010704Y0098786D01*
Y0098044D01*
X0106843D01*
Y0099074D01*
X0107003D01*
X0107017Y009904D01*
D02*
G37*
G36*
X0102131Y0139442D02*
X0102176D01*
X0102193Y0139441D01*
X0102222D01*
X0102232Y0139439D01*
X0102247D01*
X0102253Y0139438D01*
X0102259D01*
X0102288Y0139433D01*
X0102315Y0139426D01*
X0102339Y0139419D01*
X0102359Y013941D01*
X0102376Y0139402D01*
X0102387Y0139395D01*
X0102395Y013939D01*
X0102398Y0139389D01*
X0102419Y0139373D01*
X0102435Y0139355D01*
X0102451Y0139339D01*
X0102463Y0139321D01*
X0102473Y0139306D01*
X0102481Y0139294D01*
X0102485Y0139287D01*
X0102487Y0139284D01*
X0102497Y0139259D01*
X0102506Y0139235D01*
X0102512Y0139211D01*
X0102515Y0139191D01*
X0102518Y0139173D01*
X0102519Y0139159D01*
Y0139151D01*
Y0139149D01*
Y0139148D01*
X0102518Y0139115D01*
X0102512Y0139085D01*
X0102503Y013906D01*
X0102494Y0139037D01*
X0102485Y0139019D01*
X0102476Y0139005D01*
X010247Y0138997D01*
X0102469Y0138994D01*
X0102448Y013897D01*
X0102426Y0138951D01*
X0102401Y0138934D01*
X0102379Y0138923D01*
X0102358Y0138912D01*
X010234Y0138905D01*
X0102334Y0138903D01*
X010233Y0138902D01*
X0102327Y01389D01*
X0102325D01*
X0102349Y0138887D01*
X010237Y0138874D01*
X0102387Y0138857D01*
X0102402Y0138844D01*
X0102413Y0138831D01*
X0102421Y013882D01*
X0102427Y0138813D01*
X0102429Y013881D01*
X0102442Y0138786D01*
X0102453Y0138764D01*
X0102458Y0138742D01*
X0102464Y0138721D01*
X0102467Y0138703D01*
X0102469Y013869D01*
Y0138681D01*
Y013868D01*
Y0138678D01*
X0102467Y0138655D01*
X0102464Y0138631D01*
X0102458Y0138612D01*
X0102453Y0138594D01*
X0102447Y0138579D01*
X0102441Y0138567D01*
X0102438Y0138561D01*
X0102436Y0138558D01*
X0102424Y0138539D01*
X0102411Y0138523D01*
X0102398Y0138508D01*
X0102386Y0138495D01*
X0102374Y0138486D01*
X0102365Y0138478D01*
X0102359Y0138474D01*
X0102358Y0138472D01*
X010234Y0138461D01*
X0102321Y0138452D01*
X0102303Y0138444D01*
X0102287Y0138438D01*
X0102272Y0138434D01*
X0102262Y0138431D01*
X0102254Y0138429D01*
X0102251D01*
X0102226Y0138426D01*
X0102198Y0138424D01*
X0102168Y0138422D01*
X0102139Y0138421D01*
X0102112Y0138419D01*
X0101662D01*
Y0139444D01*
X0102106D01*
X0102131Y0139442D01*
D02*
G37*
G36*
X0107028Y0138344D02*
X0106809D01*
X0106412Y0139369D01*
X0106631D01*
X0106715Y0139136D01*
X0107127D01*
X0107216Y0139369D01*
X0107439D01*
X0107028Y0138344D01*
D02*
G37*
G36*
X0105139Y0056119D02*
X0104751D01*
X0104711Y005612D01*
X0104674Y0056122D01*
X0104643Y0056125D01*
X0104618Y0056129D01*
X0104597Y0056134D01*
X0104581Y0056137D01*
X0104576Y0056138D01*
X0104572D01*
X010457Y005614D01*
X0104569D01*
X0104536Y0056151D01*
X0104507Y0056165D01*
X0104483Y0056178D01*
X0104462Y0056191D01*
X0104446Y0056203D01*
X0104434Y0056212D01*
X0104427Y0056218D01*
X0104424Y0056221D01*
X0104399Y0056249D01*
X0104376Y0056279D01*
X0104357Y005631D01*
X0104342Y0056338D01*
X0104331Y0056365D01*
X0104325Y0056375D01*
X0104322Y0056384D01*
X0104319Y0056393D01*
X0104316Y0056399D01*
X0104314Y0056402D01*
Y0056403D01*
X0104304Y0056439D01*
X0104295Y0056476D01*
X0104289Y0056511D01*
X0104286Y0056545D01*
X0104285Y0056562D01*
X0104283Y0056576D01*
Y0056588D01*
X0104282Y00566D01*
Y0056609D01*
Y0056615D01*
Y0056619D01*
Y0056621D01*
X0104283Y0056673D01*
X0104288Y0056719D01*
X0104289Y0056741D01*
X0104292Y005676D01*
X0104295Y0056779D01*
X0104298Y0056796D01*
X0104302Y005681D01*
X0104305Y0056824D01*
X0104308Y0056836D01*
X010431Y0056844D01*
X0104313Y0056852D01*
X0104314Y0056858D01*
X0104316Y0056861D01*
Y0056862D01*
X0104329Y0056898D01*
X0104345Y005693D01*
X0104362Y0056958D01*
X0104378Y0056982D01*
X0104391Y0057001D01*
X0104403Y0057016D01*
X0104411Y0057025D01*
X0104412Y0057028D01*
X0104413D01*
X0104439Y0057052D01*
X0104464Y0057071D01*
X010449Y0057087D01*
X0104514Y0057101D01*
X0104535Y0057111D01*
X0104553Y0057118D01*
X0104559Y005712D01*
X0104563Y0057121D01*
X0104566Y0057123D01*
X0104567D01*
X0104596Y005713D01*
X0104627Y0057135D01*
X0104659Y0057139D01*
X010469Y0057141D01*
X0104719Y0057142D01*
X010473Y0057144D01*
X0105139D01*
Y0056119D01*
D02*
G37*
G36*
X0089811Y0060219D02*
X008962D01*
Y0060894D01*
X0089204Y0060219D01*
X0088997D01*
Y0061244D01*
X0089188D01*
Y0060553D01*
X0089611Y0061244D01*
X0089811D01*
Y0060219D01*
D02*
G37*
G36*
X0091982Y0056546D02*
Y0056515D01*
X0091981Y0056485D01*
Y0056457D01*
X0091979Y0056432D01*
X0091978Y0056408D01*
X0091976Y0056387D01*
X0091975Y0056368D01*
X0091972Y005635D01*
X009197Y0056335D01*
X0091969Y0056322D01*
X0091967Y005631D01*
X0091966Y0056301D01*
X0091964Y0056294D01*
Y0056289D01*
X0091963Y0056286D01*
Y0056285D01*
X0091956Y0056263D01*
X0091948Y0056242D01*
X0091938Y0056223D01*
X0091929Y0056207D01*
X009192Y0056192D01*
X0091913Y005618D01*
X0091907Y0056174D01*
X0091905Y0056171D01*
X0091887Y0056152D01*
X0091868Y0056134D01*
X0091847Y0056119D01*
X0091828Y0056106D01*
X0091812Y0056095D01*
X0091797Y0056088D01*
X0091788Y0056084D01*
X0091787Y0056082D01*
X0091785D01*
X009177Y0056076D01*
X0091754Y0056072D01*
X0091717Y0056063D01*
X009168Y0056057D01*
X0091645Y0056054D01*
X0091628Y0056053D01*
X0091612Y0056051D01*
X0091599D01*
X0091585Y005605D01*
X0091562D01*
X0091519Y0056051D01*
X009148Y0056054D01*
X0091446Y005606D01*
X0091418Y0056066D01*
X0091406Y0056067D01*
X0091394Y005607D01*
X0091385Y0056073D01*
X0091378Y0056076D01*
X0091372Y0056078D01*
X0091368Y0056079D01*
X0091366Y0056081D01*
X0091365D01*
X0091338Y0056092D01*
X0091314Y0056107D01*
X0091294Y0056121D01*
X0091276Y0056134D01*
X0091263Y0056146D01*
X0091252Y0056155D01*
X0091246Y0056161D01*
X0091245Y0056164D01*
X0091228Y0056184D01*
X0091215Y0056207D01*
X0091205Y0056227D01*
X0091196Y0056248D01*
X009119Y0056266D01*
X0091186Y0056281D01*
X0091184Y0056285D01*
Y0056289D01*
X0091183Y0056291D01*
Y0056292D01*
X009118Y0056309D01*
X0091177Y0056326D01*
X0091174Y0056346D01*
X0091172Y0056365D01*
X0091169Y0056409D01*
X0091166Y0056452D01*
Y0056472D01*
Y0056491D01*
X0091165Y0056509D01*
Y0056523D01*
Y0056535D01*
Y0056546D01*
Y0056552D01*
Y0056553D01*
Y0057094D01*
X0091372D01*
Y0056525D01*
Y0056503D01*
Y0056482D01*
X0091374Y0056463D01*
Y0056445D01*
X0091375Y005643D01*
Y0056415D01*
X0091377Y0056402D01*
Y005639D01*
X009138Y0056372D01*
X0091381Y0056359D01*
X0091382Y0056352D01*
Y0056349D01*
X0091387Y0056329D01*
X0091394Y0056313D01*
X0091403Y0056298D01*
X0091412Y0056285D01*
X0091421Y0056275D01*
X0091428Y0056267D01*
X0091434Y0056263D01*
X0091436Y0056261D01*
X0091454Y0056249D01*
X0091476Y0056241D01*
X0091496Y0056235D01*
X0091519Y005623D01*
X0091538Y0056227D01*
X0091553Y0056226D01*
X0091568D01*
X0091599Y0056227D01*
X0091625Y0056232D01*
X0091649Y0056238D01*
X009167Y0056245D01*
X0091685Y0056251D01*
X0091696Y0056257D01*
X0091702Y0056261D01*
X0091705Y0056263D01*
X0091722Y0056278D01*
X0091735Y0056295D01*
X0091747Y0056312D01*
X0091754Y0056328D01*
X009176Y0056343D01*
X0091765Y0056355D01*
X0091767Y0056362D01*
Y0056365D01*
X0091769Y0056374D01*
X009177Y0056383D01*
Y0056395D01*
X0091772Y0056408D01*
X0091773Y0056436D01*
Y0056466D01*
X0091775Y0056492D01*
Y0056504D01*
Y0056516D01*
Y0056525D01*
Y0056531D01*
Y0056535D01*
Y0056537D01*
Y0057094D01*
X0091982D01*
Y0056546D01*
D02*
G37*
G36*
X0106087Y005697D02*
X0105783D01*
Y0056119D01*
X0105576D01*
Y005697D01*
X0105274D01*
Y0057144D01*
X0106087D01*
Y005697D01*
D02*
G37*
G36*
X0095762Y0125794D02*
X0095387Y0125794D01*
Y0126169D01*
X0095762Y0125794D01*
D02*
G37*
G36*
X0103837Y0057148D02*
X0103861Y0057146D01*
X0103907Y0057139D01*
X0103946Y0057127D01*
X0103963Y0057121D01*
X010398Y0057114D01*
X0103994Y0057108D01*
X0104006Y0057101D01*
X0104018Y0057095D01*
X0104027Y005709D01*
X0104034Y0057084D01*
X0104039Y0057081D01*
X0104042Y005708D01*
X0104043Y0057078D01*
X010406Y0057064D01*
X0104074Y0057049D01*
X0104088Y0057031D01*
X01041Y0057012D01*
X0104117Y0056973D01*
X0104132Y0056936D01*
X0104137Y0056917D01*
X0104141Y0056901D01*
X0104145Y0056886D01*
X0104147Y0056873D01*
X010415Y0056861D01*
Y0056853D01*
X0104151Y0056847D01*
Y0056846D01*
X0103956Y0056827D01*
X0103953Y0056856D01*
X0103947Y0056881D01*
X0103941Y0056904D01*
X0103934Y005692D01*
X0103928Y0056933D01*
X0103922Y0056942D01*
X0103917Y0056948D01*
X0103916Y005695D01*
X0103901Y0056961D01*
X0103885Y005697D01*
X0103869Y0056978D01*
X0103852Y0056982D01*
X0103839Y0056985D01*
X0103827Y0056987D01*
X0103817D01*
X0103794Y0056985D01*
X0103775Y0056981D01*
X0103759Y0056975D01*
X0103744Y0056969D01*
X0103734Y0056963D01*
X0103725Y0056957D01*
X010372Y0056952D01*
X0103719Y0056951D01*
X0103707Y0056936D01*
X0103698Y005692D01*
X0103692Y0056904D01*
X0103688Y0056887D01*
X0103685Y0056873D01*
X0103683Y0056859D01*
Y0056852D01*
Y005685D01*
Y0056849D01*
X0103685Y0056827D01*
X0103689Y0056806D01*
X0103697Y0056785D01*
X0103704Y0056767D01*
X0103712Y0056751D01*
X0103719Y0056739D01*
X0103723Y0056732D01*
X0103725Y0056729D01*
X0103731Y005672D01*
X010374Y005671D01*
X0103752Y0056696D01*
X0103763Y0056684D01*
X010379Y0056656D01*
X0103817Y0056628D01*
X0103843Y0056602D01*
X0103855Y005659D01*
X0103867Y0056581D01*
X0103876Y0056572D01*
X0103882Y0056566D01*
X0103886Y0056562D01*
X0103888Y005656D01*
X0103917Y0056532D01*
X0103944Y0056505D01*
X0103969Y005648D01*
X0103991Y0056458D01*
X0104012Y0056436D01*
X010403Y0056415D01*
X0104046Y0056397D01*
X010406Y0056379D01*
X0104071Y0056365D01*
X0104082Y0056351D01*
X0104091Y0056341D01*
X0104097Y0056331D01*
X0104103Y0056325D01*
X0104105Y0056319D01*
X0104108Y0056316D01*
Y0056314D01*
X0104128Y005628D01*
X0104142Y0056245D01*
X0104154Y0056212D01*
X0104163Y0056182D01*
X0104169Y0056156D01*
X0104171Y0056145D01*
X0104172Y0056137D01*
X0104174Y0056129D01*
X0104175Y0056123D01*
Y005612D01*
Y0056119D01*
X0103486D01*
Y0056301D01*
X0103877D01*
X0103866Y005632D01*
X0103852Y0056336D01*
X0103846Y0056344D01*
X0103842Y005635D01*
X0103839Y0056353D01*
X0103837Y0056354D01*
X0103832Y005636D01*
X0103826Y0056368D01*
X0103808Y0056384D01*
X0103789Y0056403D01*
X0103769Y0056422D01*
X010375Y005644D01*
X0103734Y0056455D01*
X0103728Y0056461D01*
X0103723Y0056465D01*
X010372Y0056467D01*
X0103719Y0056468D01*
X0103686Y0056499D01*
X010366Y0056525D01*
X0103638Y0056548D01*
X010362Y0056566D01*
X0103606Y0056581D01*
X0103598Y0056591D01*
X0103592Y0056599D01*
X010359Y00566D01*
X0103571Y0056625D01*
X0103555Y0056649D01*
X0103541Y0056671D01*
X0103531Y005669D01*
X0103522Y0056707D01*
X0103516Y005672D01*
X0103513Y0056727D01*
X0103512Y005673D01*
X0103503Y0056754D01*
X0103497Y0056778D01*
X0103492Y00568D01*
X0103489Y0056821D01*
X0103488Y0056837D01*
X0103486Y005685D01*
Y0056859D01*
Y0056862D01*
X0103488Y0056884D01*
X0103491Y0056907D01*
X0103494Y0056927D01*
X01035Y0056947D01*
X0103515Y0056981D01*
X0103529Y005701D01*
X0103538Y0057024D01*
X0103546Y0057034D01*
X0103553Y0057044D01*
X0103561Y0057052D01*
X0103566Y0057058D01*
X0103569Y0057064D01*
X0103572Y0057065D01*
X0103574Y0057067D01*
X010359Y0057081D01*
X0103609Y0057095D01*
X0103627Y0057105D01*
X0103648Y0057114D01*
X0103686Y0057129D01*
X0103725Y0057139D01*
X0103743Y0057142D01*
X0103759Y0057145D01*
X0103774Y0057146D01*
X0103787Y0057148D01*
X0103797Y0057149D01*
X0103812D01*
X0103837Y0057148D01*
D02*
G37*
G36*
X0092594Y0056666D02*
X0092862D01*
Y0056482D01*
X0092594D01*
Y0056217D01*
X0092415D01*
Y0056482D01*
X0092145D01*
Y0056666D01*
X0092415D01*
Y0056931D01*
X0092594D01*
Y0056666D01*
D02*
G37*
G36*
X0090507Y0061261D02*
X0090555Y0061255D01*
X0090575Y0061251D01*
X0090596Y0061246D01*
X0090615Y0061242D01*
X0090632Y0061238D01*
X0090646Y0061232D01*
X0090661Y0061227D01*
X0090672Y0061223D01*
X0090682Y006122D01*
X0090689Y0061215D01*
X0090695Y0061214D01*
X0090698Y0061211D01*
X00907D01*
X0090746Y0061184D01*
X0090765Y0061168D01*
X0090784Y0061153D01*
X0090802Y0061137D01*
X0090818Y0061121D01*
X0090833Y0061104D01*
X0090846Y006109D01*
X0090857Y0061075D01*
X0090867Y0061061D01*
X0090876Y006105D01*
X0090883Y0061039D01*
X0090888Y006103D01*
X0090892Y0061024D01*
X0090894Y006102D01*
X0090895Y0061018D01*
X0090907Y0060995D01*
X0090917Y0060971D01*
X0090934Y0060922D01*
X0090946Y0060873D01*
X0090953Y006083D01*
X0090956Y006081D01*
X0090959Y0060792D01*
X009096Y0060776D01*
Y0060761D01*
X0090962Y006075D01*
Y0060742D01*
Y0060736D01*
Y0060734D01*
X0090959Y0060679D01*
X0090953Y0060629D01*
X0090943Y0060583D01*
X0090938Y0060561D01*
X0090932Y0060542D01*
X0090926Y0060524D01*
X0090922Y0060508D01*
X0090916Y0060494D01*
X0090911Y0060482D01*
X0090908Y0060473D01*
X0090906Y0060466D01*
X0090903Y0060462D01*
Y006046D01*
X0090877Y0060416D01*
X0090849Y0060377D01*
X009082Y0060343D01*
X009079Y0060317D01*
X0090777Y0060305D01*
X0090763Y0060294D01*
X0090753Y0060285D01*
X0090743Y006028D01*
X0090735Y0060274D01*
X0090728Y0060269D01*
X0090725Y0060268D01*
X0090723Y0060266D01*
X00907Y0060254D01*
X0090677Y0060244D01*
X0090629Y0060228D01*
X0090581Y0060216D01*
X0090538Y0060208D01*
X0090518Y0060205D01*
X00905Y0060203D01*
X0090483Y0060201D01*
X0090469D01*
X0090458Y00602D01*
X0090442D01*
X0090395Y0060201D01*
X009035Y0060207D01*
X0090307Y0060214D01*
X009027Y0060223D01*
X0090254Y0060228D01*
X0090239Y0060232D01*
X0090226Y0060237D01*
X0090214Y006024D01*
X0090205Y0060243D01*
X0090199Y0060245D01*
X0090195Y0060247D01*
X0090193D01*
X0090149Y0060265D01*
X0090112Y0060284D01*
X0090079Y0060303D01*
X0090051Y0060319D01*
X009003Y0060334D01*
X0090023Y006034D01*
X0090016Y0060346D01*
X0090011Y0060351D01*
X0090007Y0060354D01*
X0090004Y0060357D01*
Y0060768D01*
X0090449D01*
Y0060595D01*
X0090213D01*
Y0060463D01*
X009023Y006045D01*
X009025Y0060438D01*
X0090269Y0060428D01*
X0090287Y0060419D01*
X0090301Y0060411D01*
X0090315Y0060405D01*
X0090322Y0060402D01*
X0090324Y0060401D01*
X0090325D01*
X0090349Y0060392D01*
X0090372Y0060386D01*
X0090395Y0060382D01*
X0090414Y0060379D01*
X0090432Y0060377D01*
X0090444Y0060376D01*
X0090455D01*
X0090479Y0060377D01*
X0090503Y006038D01*
X0090523Y0060385D01*
X0090544Y0060391D01*
X0090581Y0060405D01*
X0090596Y0060413D01*
X0090611Y0060422D01*
X0090624Y0060431D01*
X0090636Y0060438D01*
X0090645Y0060447D01*
X0090654Y0060453D01*
X009066Y0060459D01*
X0090664Y0060463D01*
X0090667Y0060466D01*
X0090669Y0060468D01*
X0090682Y0060485D01*
X0090695Y0060506D01*
X0090706Y0060527D01*
X0090715Y0060549D01*
X0090729Y0060595D01*
X0090738Y0060639D01*
X0090741Y006066D01*
X0090744Y0060681D01*
X0090746Y0060697D01*
X0090747Y0060713D01*
X0090749Y0060725D01*
Y0060736D01*
Y0060742D01*
Y0060743D01*
X0090747Y0060774D01*
X0090746Y0060802D01*
X0090741Y006083D01*
X0090737Y0060856D01*
X0090731Y0060878D01*
X0090723Y0060898D01*
X0090716Y0060918D01*
X0090709Y0060936D01*
X0090703Y006095D01*
X0090695Y0060964D01*
X0090688Y0060974D01*
X0090682Y0060983D01*
X0090677Y006099D01*
X0090673Y0060995D01*
X0090672Y0060998D01*
X009067Y0060999D01*
X0090654Y0061014D01*
X0090637Y0061029D01*
X009062Y0061039D01*
X0090602Y006105D01*
X0090584Y0061058D01*
X0090566Y0061066D01*
X0090532Y0061076D01*
X0090516Y0061079D01*
X0090501Y0061082D01*
X0090488Y0061084D01*
X0090476Y0061085D01*
X0090467Y0061087D01*
X0090454D01*
X0090421Y0061085D01*
X0090393Y0061079D01*
X0090368Y0061073D01*
X0090346Y0061064D01*
X0090329Y0061057D01*
X0090316Y006105D01*
X0090309Y0061044D01*
X0090306Y0061042D01*
X0090285Y0061024D01*
X0090267Y0061005D01*
X0090252Y0060986D01*
X0090242Y0060967D01*
X0090233Y0060949D01*
X0090227Y0060936D01*
X0090224Y0060927D01*
X0090223Y0060925D01*
Y0060924D01*
X0090017Y0060962D01*
X0090023Y0060987D01*
X0090032Y0061013D01*
X0090041Y0061035D01*
X0090053Y0061055D01*
X0090063Y0061076D01*
X0090075Y0061094D01*
X0090087Y006111D01*
X0090098Y0061125D01*
X009011Y0061138D01*
X0090121Y006115D01*
X009013Y0061161D01*
X0090138Y0061168D01*
X0090146Y0061174D01*
X0090152Y006118D01*
X0090155Y0061181D01*
X0090156Y0061183D01*
X0090177Y0061198D01*
X0090199Y0061209D01*
X0090223Y006122D01*
X0090248Y0061229D01*
X0090297Y0061244D01*
X0090344Y0061252D01*
X0090367Y0061257D01*
X0090387Y0061258D01*
X0090406Y006126D01*
X0090423Y0061261D01*
X0090436Y0061263D01*
X0090454D01*
X0090507Y0061261D01*
D02*
G37*
G36*
X0102414Y0060119D02*
X0102026D01*
X0101986Y006012D01*
X0101949Y0060122D01*
X0101918Y0060125D01*
X0101893Y0060129D01*
X0101872Y0060134D01*
X0101856Y0060137D01*
X0101851Y0060138D01*
X0101847D01*
X0101845Y006014D01*
X0101844D01*
X0101811Y0060151D01*
X0101782Y0060165D01*
X0101758Y0060178D01*
X0101737Y0060191D01*
X0101721Y0060203D01*
X0101709Y0060212D01*
X0101702Y0060218D01*
X0101699Y0060221D01*
X0101674Y0060249D01*
X0101651Y0060279D01*
X0101632Y006031D01*
X0101617Y0060338D01*
X0101606Y0060365D01*
X01016Y0060375D01*
X0101597Y0060384D01*
X0101594Y0060393D01*
X0101591Y0060399D01*
X0101589Y0060402D01*
Y0060403D01*
X0101579Y0060439D01*
X010157Y0060476D01*
X0101564Y0060511D01*
X0101561Y0060545D01*
X010156Y0060562D01*
X0101558Y0060576D01*
Y0060588D01*
X0101557Y00606D01*
Y0060609D01*
Y0060615D01*
Y0060619D01*
Y0060621D01*
X0101558Y0060673D01*
X0101563Y0060719D01*
X0101564Y0060741D01*
X0101567Y006076D01*
X010157Y0060779D01*
X0101573Y0060796D01*
X0101577Y006081D01*
X010158Y0060824D01*
X0101583Y0060836D01*
X0101585Y0060844D01*
X0101588Y0060852D01*
X0101589Y0060858D01*
X0101591Y0060861D01*
Y0060862D01*
X0101604Y0060898D01*
X010162Y006093D01*
X0101637Y0060958D01*
X0101653Y0060982D01*
X0101666Y0061001D01*
X0101678Y0061016D01*
X0101686Y0061025D01*
X0101687Y0061028D01*
X0101688D01*
X0101714Y0061052D01*
X0101739Y0061071D01*
X0101765Y0061087D01*
X0101789Y0061101D01*
X010181Y0061111D01*
X0101828Y0061118D01*
X0101834Y006112D01*
X0101838Y0061121D01*
X0101841Y0061123D01*
X0101842D01*
X0101871Y006113D01*
X0101902Y0061135D01*
X0101934Y0061139D01*
X0101965Y0061141D01*
X0101994Y0061142D01*
X0102005Y0061144D01*
X0102414D01*
Y0060119D01*
D02*
G37*
G36*
X0088299Y0139642D02*
X0088336Y0139641D01*
X0088367Y0139638D01*
X0088392Y0139633D01*
X0088413Y0139629D01*
X0088429Y0139626D01*
X0088434Y0139625D01*
X0088438D01*
X008844Y0139623D01*
X0088441D01*
X0088474Y0139611D01*
X0088503Y0139598D01*
X0088527Y0139585D01*
X0088548Y0139571D01*
X0088564Y0139559D01*
X0088576Y0139551D01*
X0088583Y0139545D01*
X0088586Y0139542D01*
X0088611Y0139513D01*
X0088634Y0139484D01*
X0088653Y0139453D01*
X0088668Y0139425D01*
X008868Y0139398D01*
X0088685Y0139388D01*
X0088688Y0139379D01*
X0088691Y013937D01*
X0088694Y0139364D01*
X0088696Y0139361D01*
Y0139359D01*
X0088706Y0139324D01*
X0088715Y0139287D01*
X0088721Y0139251D01*
X0088724Y0139217D01*
X0088725Y0139201D01*
X0088727Y0139186D01*
Y0139174D01*
X0088728Y0139163D01*
Y0139154D01*
Y0139148D01*
Y0139143D01*
Y0139142D01*
X0088727Y013909D01*
X0088722Y0139044D01*
X0088721Y0139022D01*
X0088718Y0139003D01*
X0088715Y0138983D01*
X0088712Y0138967D01*
X0088708Y0138952D01*
X0088705Y0138939D01*
X0088702Y0138927D01*
X00887Y0138918D01*
X0088697Y0138911D01*
X0088696Y0138905D01*
X0088694Y0138902D01*
Y01389D01*
X0088681Y0138865D01*
X0088665Y0138832D01*
X0088648Y0138804D01*
X0088632Y013878D01*
X0088619Y0138761D01*
X0088607Y0138746D01*
X00886Y0138738D01*
X0088598Y0138735D01*
X0088597D01*
X0088571Y0138711D01*
X0088546Y0138692D01*
X008852Y0138675D01*
X0088496Y0138662D01*
X0088475Y0138652D01*
X0088457Y0138644D01*
X0088451Y0138643D01*
X0088447Y0138641D01*
X0088444Y013864D01*
X0088443D01*
X0088414Y0138632D01*
X0088383Y0138628D01*
X0088351Y0138624D01*
X008832Y0138622D01*
X0088292Y0138621D01*
X008828Y0138619D01*
X0087871D01*
Y0139644D01*
X0088259D01*
X0088299Y0139642D01*
D02*
G37*
G36*
X0093414Y0139369D02*
X0093401Y0139348D01*
X0093387Y0139327D01*
X0093376Y013931D01*
X0093364Y0139293D01*
X0093353Y0139279D01*
X0093345Y0139264D01*
X0093327Y0139242D01*
X0093313Y0139224D01*
X0093305Y0139212D01*
X0093297Y0139205D01*
X0093296Y0139203D01*
X0093279Y0139185D01*
X009326Y0139169D01*
X0093242Y0139156D01*
X0093225Y0139142D01*
X009321Y0139132D01*
X0093198Y0139125D01*
X0093189Y0139119D01*
X0093188Y0139117D01*
X0093186D01*
X0093211Y0139113D01*
X0093233Y0139107D01*
X0093254Y0139101D01*
X0093275Y0139093D01*
X0093293Y0139086D01*
X0093309Y0139079D01*
X0093325Y0139071D01*
X0093339Y0139062D01*
X009335Y0139055D01*
X0093361Y0139048D01*
X009337Y013904D01*
X0093376Y0139034D01*
X0093382Y013903D01*
X0093386Y0139025D01*
X0093387Y0139024D01*
X0093389Y0139022D01*
X0093401Y0139008D01*
X0093411Y0138993D01*
X0093429Y013896D01*
X0093441Y0138929D01*
X0093448Y0138898D01*
X0093454Y0138871D01*
X0093456Y0138861D01*
Y0138851D01*
X0093457Y0138843D01*
Y0138836D01*
Y0138833D01*
Y0138831D01*
X0093456Y0138799D01*
X009345Y0138768D01*
X0093442Y0138741D01*
X0093435Y0138717D01*
X0093426Y0138698D01*
X0093419Y0138683D01*
X0093416Y0138679D01*
X0093413Y0138674D01*
X0093411Y0138673D01*
Y0138671D01*
X0093393Y0138646D01*
X0093374Y0138626D01*
X0093355Y0138609D01*
X0093336Y0138594D01*
X0093318Y0138586D01*
X0093305Y0138578D01*
X0093296Y0138574D01*
X0093294Y0138572D01*
X0093293D01*
X0093278Y0138568D01*
X0093262Y0138563D01*
X0093225Y0138556D01*
X0093185Y0138551D01*
X0093146Y0138547D01*
X0093127D01*
X0093111Y0138546D01*
X0093094D01*
X0093081Y0138544D01*
X0092619D01*
Y0139569D01*
X0092826D01*
Y0139141D01*
X0092893D01*
X0092914Y0139142D01*
X0092931Y0139144D01*
X0092946Y0139147D01*
X0092958Y0139148D01*
X0092965Y0139151D01*
X009297Y0139153D01*
X0092971D01*
X0092983Y0139159D01*
X0092995Y0139165D01*
X0093005Y0139172D01*
X0093016Y0139178D01*
X0093023Y0139185D01*
X0093029Y0139191D01*
X0093032Y0139194D01*
X0093034Y0139196D01*
X0093039Y0139203D01*
X0093047Y013921D01*
X0093063Y0139233D01*
X0093081Y0139256D01*
X00931Y0139283D01*
X0093116Y0139307D01*
X0093124Y0139319D01*
X009313Y0139327D01*
X0093136Y0139335D01*
X009314Y0139341D01*
X0093142Y0139345D01*
X0093143Y0139347D01*
X0093291Y0139569D01*
X009354D01*
X0093414Y0139369D01*
D02*
G37*
G36*
X0086254Y0139662D02*
X0086298Y0139656D01*
X0086341Y0139648D01*
X0086378Y0139639D01*
X0086395Y0139635D01*
X0086409Y013963D01*
X0086423Y0139626D01*
X0086435Y0139623D01*
X0086443Y013962D01*
X0086449Y0139617D01*
X0086454Y0139616D01*
X0086455D01*
X00865Y0139598D01*
X0086537Y0139579D01*
X0086569Y0139559D01*
X0086598Y0139543D01*
X0086618Y0139528D01*
X0086626Y0139522D01*
X0086633Y0139516D01*
X0086637Y0139512D01*
X0086642Y0139509D01*
X0086645Y0139506D01*
Y0139094D01*
X0086199D01*
Y0139268D01*
X0086436D01*
Y0139399D01*
X0086418Y0139413D01*
X0086399Y0139425D01*
X008638Y0139435D01*
X0086362Y0139444D01*
X0086347Y0139451D01*
X0086334Y0139457D01*
X0086327Y013946D01*
X0086325Y0139462D01*
X0086324D01*
X00863Y0139471D01*
X0086276Y0139476D01*
X0086254Y0139481D01*
X0086235Y0139484D01*
X0086217Y0139485D01*
X0086205Y0139487D01*
X0086193D01*
X008617Y0139485D01*
X0086146Y0139482D01*
X0086125Y0139478D01*
X0086104Y0139472D01*
X0086067Y0139457D01*
X0086053Y013945D01*
X0086038Y0139441D01*
X0086024Y0139432D01*
X0086013Y0139425D01*
X0086004Y0139416D01*
X0085995Y013941D01*
X0085989Y0139404D01*
X0085984Y0139399D01*
X0085981Y0139397D01*
X008598Y0139395D01*
X0085967Y0139377D01*
X0085953Y0139357D01*
X0085943Y0139336D01*
X0085934Y0139314D01*
X0085919Y0139268D01*
X008591Y0139223D01*
X0085907Y0139203D01*
X0085904Y0139182D01*
X0085903Y0139165D01*
X0085902Y0139149D01*
X00859Y0139137D01*
Y0139127D01*
Y0139121D01*
Y013912D01*
X0085902Y0139089D01*
X0085903Y013906D01*
X0085907Y0139032D01*
X0085912Y0139007D01*
X0085918Y0138985D01*
X0085925Y0138964D01*
X0085933Y0138945D01*
X008594Y0138927D01*
X0085946Y0138912D01*
X0085953Y0138899D01*
X0085961Y0138889D01*
X0085967Y013888D01*
X0085971Y0138872D01*
X0085976Y0138868D01*
X0085977Y0138865D01*
X0085979Y0138863D01*
X0085995Y0138849D01*
X0086011Y0138834D01*
X0086029Y0138823D01*
X0086047Y0138813D01*
X0086064Y0138804D01*
X0086082Y0138797D01*
X0086116Y0138786D01*
X0086133Y0138783D01*
X0086147Y013878D01*
X0086161Y0138779D01*
X0086173Y0138778D01*
X0086181Y0138776D01*
X0086195D01*
X0086227Y0138778D01*
X0086255Y0138783D01*
X0086281Y0138789D01*
X0086303Y0138798D01*
X0086319Y0138806D01*
X0086332Y0138813D01*
X008634Y0138819D01*
X0086343Y013882D01*
X0086364Y0138838D01*
X0086381Y0138857D01*
X0086396Y0138877D01*
X0086406Y0138896D01*
X0086415Y0138914D01*
X0086421Y0138927D01*
X0086424Y0138936D01*
X0086426Y0138937D01*
Y0138939D01*
X0086632Y01389D01*
X0086626Y0138875D01*
X0086617Y013885D01*
X0086608Y0138828D01*
X0086596Y0138807D01*
X0086586Y0138786D01*
X0086574Y0138769D01*
X0086562Y0138752D01*
X008655Y0138738D01*
X0086538Y0138724D01*
X0086528Y0138712D01*
X0086519Y0138702D01*
X008651Y0138695D01*
X0086503Y0138689D01*
X0086497Y0138683D01*
X0086494Y0138681D01*
X0086492Y013868D01*
X0086472Y0138665D01*
X0086449Y0138653D01*
X0086426Y0138643D01*
X0086401Y0138634D01*
X0086352Y0138619D01*
X0086304Y013861D01*
X0086282Y0138606D01*
X0086261Y0138604D01*
X0086242Y0138603D01*
X0086226Y0138601D01*
X0086212Y01386D01*
X0086195D01*
X0086141Y0138601D01*
X0086094Y0138607D01*
X0086073Y0138612D01*
X0086053Y0138616D01*
X0086033Y0138621D01*
X0086017Y0138625D01*
X0086002Y0138631D01*
X0085987Y0138635D01*
X0085977Y013864D01*
X0085967Y0138643D01*
X0085959Y0138647D01*
X0085953Y0138649D01*
X008595Y0138652D01*
X0085949D01*
X0085903Y0138678D01*
X0085884Y0138695D01*
X0085865Y0138709D01*
X0085847Y0138726D01*
X008583Y0138742D01*
X0085816Y0138758D01*
X0085802Y0138773D01*
X0085792Y0138788D01*
X0085782Y0138801D01*
X0085773Y0138813D01*
X0085765Y0138823D01*
X0085761Y0138832D01*
X0085756Y0138838D01*
X0085755Y0138843D01*
X0085753Y0138844D01*
X0085742Y0138868D01*
X0085731Y0138892D01*
X0085715Y013894D01*
X0085703Y0138989D01*
X0085696Y0139032D01*
X0085693Y0139053D01*
X008569Y0139071D01*
X0085688Y0139087D01*
Y0139102D01*
X0085687Y0139112D01*
Y0139121D01*
Y0139127D01*
Y0139128D01*
X008569Y0139183D01*
X0085696Y0139234D01*
X0085706Y013928D01*
X008571Y0139302D01*
X0085716Y0139321D01*
X0085722Y0139339D01*
X0085727Y0139355D01*
X0085733Y0139368D01*
X0085737Y013938D01*
X008574Y0139389D01*
X0085743Y0139397D01*
X0085746Y0139401D01*
Y0139402D01*
X0085771Y0139447D01*
X0085799Y0139485D01*
X0085829Y0139519D01*
X0085859Y0139546D01*
X0085872Y0139558D01*
X0085885Y0139568D01*
X0085896Y0139577D01*
X0085906Y0139583D01*
X0085913Y0139589D01*
X0085921Y0139593D01*
X0085924Y0139595D01*
X0085925Y0139596D01*
X0085949Y0139608D01*
X0085971Y0139619D01*
X008602Y0139635D01*
X0086067Y0139647D01*
X008611Y0139654D01*
X0086131Y0139657D01*
X0086149Y013966D01*
X0086165Y0139662D01*
X008618D01*
X008619Y0139663D01*
X0086207D01*
X0086254Y0139662D01*
D02*
G37*
G36*
X0088778Y0060219D02*
X008839D01*
X008835Y006022D01*
X0088313Y0060222D01*
X0088282Y0060225D01*
X0088256Y0060229D01*
X0088236Y0060234D01*
X0088219Y0060237D01*
X0088215Y0060238D01*
X008821D01*
X0088209Y006024D01*
X0088207D01*
X0088175Y0060251D01*
X0088145Y0060265D01*
X0088122Y0060278D01*
X0088101Y0060291D01*
X0088085Y0060303D01*
X0088073Y0060312D01*
X0088065Y0060318D01*
X0088062Y0060321D01*
X0088037Y0060349D01*
X0088015Y0060379D01*
X0087996Y006041D01*
X0087981Y0060438D01*
X0087969Y0060465D01*
X0087963Y0060475D01*
X008796Y0060484D01*
X0087957Y0060493D01*
X0087954Y0060499D01*
X0087953Y0060502D01*
Y0060503D01*
X0087942Y0060539D01*
X0087934Y0060576D01*
X0087928Y0060611D01*
X0087925Y0060645D01*
X0087923Y0060662D01*
X0087922Y0060676D01*
Y0060688D01*
X008792Y00607D01*
Y0060709D01*
Y0060715D01*
Y0060719D01*
Y0060721D01*
X0087922Y0060773D01*
X0087926Y0060819D01*
X0087928Y0060841D01*
X0087931Y006086D01*
X0087934Y0060879D01*
X0087936Y0060896D01*
X0087941Y006091D01*
X0087944Y0060924D01*
X0087947Y0060936D01*
X0087948Y0060944D01*
X0087951Y0060952D01*
X0087953Y0060958D01*
X0087954Y0060961D01*
Y0060962D01*
X0087968Y0060998D01*
X0087984Y006103D01*
X0088Y0061058D01*
X0088016Y0061082D01*
X008803Y0061101D01*
X0088042Y0061116D01*
X0088049Y0061125D01*
X0088051Y0061128D01*
X0088052D01*
X0088077Y0061152D01*
X0088102Y0061171D01*
X0088129Y0061187D01*
X0088153Y0061201D01*
X0088173Y0061211D01*
X0088191Y0061218D01*
X0088197Y006122D01*
X0088202Y0061221D01*
X0088205Y0061223D01*
X0088206D01*
X0088234Y006123D01*
X0088265Y0061235D01*
X0088298Y0061239D01*
X0088329Y0061241D01*
X0088357Y0061242D01*
X0088369Y0061244D01*
X0088778D01*
Y0060219D01*
D02*
G37*
G36*
X0087652Y0138619D02*
X0087461D01*
Y0139309D01*
X0087037Y0138619D01*
X0086837D01*
Y0139644D01*
X0087028D01*
Y0138969D01*
X0087445Y0139644D01*
X0087652D01*
Y0138619D01*
D02*
G37*
%LPC*%
G36*
X0096661Y0139009D02*
X0096519D01*
Y0138717D01*
X0096673D01*
X0096688Y0138719D01*
X0096701D01*
X0096715Y013872D01*
X0096734D01*
X0096749Y0138722D01*
X0096759Y0138723D01*
X0096765Y0138725D01*
X0096766D01*
X0096784Y0138729D01*
X00968Y0138735D01*
X0096815Y0138743D01*
X0096827Y0138751D01*
X0096836Y0138759D01*
X0096843Y0138765D01*
X0096848Y0138769D01*
X0096849Y0138771D01*
X0096861Y0138785D01*
X0096869Y01388D01*
X0096875Y0138817D01*
X0096879Y0138831D01*
X0096882Y0138845D01*
X0096883Y0138855D01*
Y0138861D01*
Y0138864D01*
X0096882Y013888D01*
X009688Y0138895D01*
X0096876Y0138908D01*
X0096872Y013892D01*
X0096867Y0138931D01*
X0096864Y0138938D01*
X0096861Y0138942D01*
X009686Y0138944D01*
X0096851Y0138956D01*
X0096839Y0138966D01*
X0096829Y0138975D01*
X0096818Y0138982D01*
X0096809Y0138987D01*
X0096802Y0138991D01*
X0096796Y0138993D01*
X0096795Y0138994D01*
X0096786Y0138997D01*
X0096775Y0138999D01*
X0096752Y0139003D01*
X0096725Y0139006D01*
X0096698Y0139008D01*
X0096672D01*
X0096661Y0139009D01*
D02*
G37*
G36*
X0090661D02*
X0090519D01*
Y0138717D01*
X0090673D01*
X0090688Y0138719D01*
X0090701D01*
X0090715Y013872D01*
X0090734D01*
X0090749Y0138722D01*
X0090759Y0138723D01*
X0090765Y0138725D01*
X0090766D01*
X0090784Y0138729D01*
X00908Y0138735D01*
X0090815Y0138743D01*
X0090827Y0138751D01*
X0090836Y0138759D01*
X0090843Y0138765D01*
X0090848Y0138769D01*
X0090849Y0138771D01*
X0090861Y0138785D01*
X0090869Y01388D01*
X0090875Y0138817D01*
X0090879Y0138831D01*
X0090882Y0138845D01*
X0090883Y0138855D01*
Y0138861D01*
Y0138864D01*
X0090882Y013888D01*
X009088Y0138895D01*
X0090876Y0138908D01*
X0090872Y013892D01*
X0090867Y0138931D01*
X0090864Y0138938D01*
X0090861Y0138942D01*
X009086Y0138944D01*
X0090851Y0138956D01*
X0090839Y0138966D01*
X0090829Y0138975D01*
X0090818Y0138982D01*
X0090809Y0138987D01*
X0090802Y0138991D01*
X0090796Y0138993D01*
X0090795Y0138994D01*
X0090786Y0138997D01*
X0090775Y0138999D01*
X0090752Y0139003D01*
X0090725Y0139006D01*
X0090698Y0139008D01*
X0090672D01*
X0090661Y0139009D01*
D02*
G37*
G36*
X0102068Y0138826D02*
X0101869D01*
Y0138589D01*
X0102075D01*
X0102091Y0138591D01*
X010213D01*
X0102139Y0138592D01*
X0102155D01*
X0102161Y0138594D01*
X0102162D01*
X010218Y0138597D01*
X0102196Y0138601D01*
X010221Y0138607D01*
X0102222Y0138613D01*
X0102229Y0138619D01*
X0102236Y0138625D01*
X0102239Y0138628D01*
X0102241Y0138629D01*
X010225Y0138641D01*
X0102256Y0138655D01*
X0102262Y0138666D01*
X0102264Y0138678D01*
X0102266Y013869D01*
X0102267Y0138699D01*
Y0138705D01*
Y0138706D01*
X0102266Y0138724D01*
X0102263Y013874D01*
X0102257Y0138754D01*
X0102253Y0138766D01*
X0102247Y0138776D01*
X0102241Y0138782D01*
X0102238Y0138786D01*
X0102236Y0138788D01*
X0102225Y0138798D01*
X0102211Y0138806D01*
X0102198Y0138811D01*
X0102185Y0138816D01*
X0102171Y013882D01*
X0102162Y0138822D01*
X0102156Y0138823D01*
X0102148D01*
X0102139Y0138825D01*
X0102093D01*
X0102068Y0138826D01*
D02*
G37*
G36*
X0102097Y0139271D02*
X0101869D01*
Y0138997D01*
X0102084D01*
X0102105Y0138998D01*
X0102122Y0139D01*
X010214D01*
X0102155Y0139001D01*
X0102168Y0139003D01*
X0102179Y0139004D01*
X0102189Y0139005D01*
X0102196Y0139007D01*
X0102208Y0139008D01*
X0102216Y0139011D01*
X0102217D01*
X0102232Y0139017D01*
X0102245Y0139025D01*
X0102257Y0139032D01*
X0102266Y0139041D01*
X0102273Y0139047D01*
X0102278Y0139053D01*
X0102281Y0139057D01*
X0102282Y0139059D01*
X010229Y0139072D01*
X0102296Y0139085D01*
X01023Y0139097D01*
X0102303Y0139111D01*
X0102304Y0139121D01*
X0102306Y013913D01*
Y0139136D01*
Y0139137D01*
X0102304Y0139157D01*
X0102302Y0139174D01*
X0102297Y0139189D01*
X0102291Y0139201D01*
X0102285Y0139211D01*
X0102281Y0139219D01*
X0102278Y0139223D01*
X0102276Y0139225D01*
X0102264Y0139235D01*
X0102253Y0139244D01*
X0102239Y0139251D01*
X0102227Y0139257D01*
X0102217Y013926D01*
X0102208Y0139263D01*
X0102202Y0139265D01*
X0102201D01*
X0102195Y0139266D01*
X0102186D01*
X0102167Y0139268D01*
X0102143Y0139269D01*
X0102119D01*
X0102097Y0139271D01*
D02*
G37*
G36*
X010706Y0138963D02*
X0106778D01*
X0106917Y0138582D01*
X010706Y0138963D01*
D02*
G37*
G36*
X0104932Y005697D02*
X0104797D01*
X0104778Y0056969D01*
X010476D01*
X0104745Y0056967D01*
X0104732D01*
X0104719Y0056966D01*
X0104708D01*
X0104692Y0056963D01*
X010468Y0056961D01*
X0104673Y005696D01*
X0104671D01*
X010465Y0056954D01*
X0104633Y0056947D01*
X0104616Y0056939D01*
X0104602Y005693D01*
X0104591Y0056923D01*
X0104582Y0056917D01*
X0104578Y0056913D01*
X0104576Y0056911D01*
X0104563Y0056896D01*
X0104551Y005688D01*
X0104541Y0056864D01*
X0104532Y0056849D01*
X0104526Y0056834D01*
X0104522Y0056822D01*
X0104519Y0056815D01*
X0104517Y0056813D01*
Y0056812D01*
X010451Y0056785D01*
X0104504Y0056757D01*
X0104501Y0056726D01*
X0104498Y0056696D01*
X0104496Y0056671D01*
X0104495Y0056659D01*
Y0056649D01*
Y0056642D01*
Y0056636D01*
Y0056631D01*
Y005663D01*
X0104496Y0056588D01*
X0104498Y005655D01*
X0104502Y0056519D01*
X0104505Y0056492D01*
X010451Y005647D01*
X0104511Y0056461D01*
X0104514Y0056455D01*
X0104516Y0056449D01*
Y0056445D01*
X0104517Y0056443D01*
Y0056442D01*
X0104526Y0056418D01*
X0104533Y0056397D01*
X0104544Y0056381D01*
X0104551Y0056368D01*
X0104559Y0056357D01*
X0104565Y005635D01*
X0104569Y0056345D01*
X010457Y0056344D01*
X0104584Y0056334D01*
X0104597Y0056325D01*
X010461Y0056317D01*
X0104624Y0056311D01*
X0104636Y0056307D01*
X0104644Y0056304D01*
X010465Y0056301D01*
X0104653D01*
X010467Y0056298D01*
X0104689Y0056297D01*
X010471Y0056294D01*
X010473D01*
X010475Y0056292D01*
X0104932D01*
Y005697D01*
D02*
G37*
G36*
X0102207Y006097D02*
X0102072D01*
X0102053Y0060969D01*
X0102035D01*
X010202Y0060967D01*
X0102007D01*
X0101994Y0060966D01*
X0101983D01*
X0101967Y0060963D01*
X0101955Y0060961D01*
X0101948Y006096D01*
X0101946D01*
X0101925Y0060954D01*
X0101908Y0060947D01*
X0101891Y0060939D01*
X0101877Y006093D01*
X0101866Y0060923D01*
X0101857Y0060917D01*
X0101853Y0060913D01*
X0101851Y0060911D01*
X0101838Y0060896D01*
X0101826Y006088D01*
X0101816Y0060864D01*
X0101807Y0060849D01*
X0101801Y0060834D01*
X0101797Y0060822D01*
X0101794Y0060815D01*
X0101792Y0060813D01*
Y0060812D01*
X0101785Y0060785D01*
X0101779Y0060757D01*
X0101776Y0060726D01*
X0101773Y0060696D01*
X0101771Y0060671D01*
X010177Y0060659D01*
Y0060649D01*
Y0060642D01*
Y0060636D01*
Y0060631D01*
Y006063D01*
X0101771Y0060588D01*
X0101773Y006055D01*
X0101777Y0060519D01*
X010178Y0060492D01*
X0101785Y006047D01*
X0101786Y0060461D01*
X0101789Y0060455D01*
X0101791Y0060449D01*
Y0060445D01*
X0101792Y0060443D01*
Y0060442D01*
X0101801Y0060418D01*
X0101808Y0060397D01*
X0101819Y0060381D01*
X0101826Y0060368D01*
X0101834Y0060357D01*
X010184Y006035D01*
X0101844Y0060345D01*
X0101845Y0060344D01*
X0101859Y0060334D01*
X0101872Y0060325D01*
X0101885Y0060317D01*
X0101899Y0060311D01*
X0101911Y0060307D01*
X0101919Y0060304D01*
X0101925Y0060301D01*
X0101928D01*
X0101945Y0060298D01*
X0101964Y0060297D01*
X0101985Y0060294D01*
X0102005D01*
X0102025Y0060292D01*
X0102207D01*
Y006097D01*
D02*
G37*
G36*
X008826Y0139471D02*
X0088078D01*
Y0138792D01*
X0088213D01*
X0088232Y0138794D01*
X008825D01*
X0088265Y0138795D01*
X0088278D01*
X0088292Y0138797D01*
X0088302D01*
X0088318Y01388D01*
X008833Y0138801D01*
X0088337Y0138803D01*
X0088339D01*
X008836Y0138809D01*
X0088377Y0138816D01*
X0088394Y0138823D01*
X0088409Y0138832D01*
X0088419Y013884D01*
X0088428Y0138846D01*
X0088432Y013885D01*
X0088434Y0138852D01*
X0088447Y0138866D01*
X0088459Y0138883D01*
X0088469Y0138899D01*
X0088478Y0138914D01*
X0088484Y0138929D01*
X0088489Y013894D01*
X0088491Y0138948D01*
X0088493Y0138949D01*
Y0138951D01*
X00885Y0138977D01*
X0088506Y0139006D01*
X0088509Y0139037D01*
X0088512Y0139066D01*
X0088514Y0139091D01*
X0088515Y0139103D01*
Y0139114D01*
Y0139121D01*
Y0139127D01*
Y0139131D01*
Y0139133D01*
X0088514Y0139174D01*
X0088512Y0139213D01*
X0088508Y0139244D01*
X0088505Y0139271D01*
X00885Y0139293D01*
X0088499Y0139302D01*
X0088496Y0139308D01*
X0088494Y0139314D01*
Y0139318D01*
X0088493Y013932D01*
Y0139321D01*
X0088484Y0139345D01*
X0088477Y0139365D01*
X0088466Y0139382D01*
X0088459Y0139395D01*
X0088451Y0139405D01*
X0088446Y0139413D01*
X0088441Y0139417D01*
X008844Y0139419D01*
X0088426Y0139429D01*
X0088413Y0139438D01*
X00884Y0139445D01*
X0088386Y0139451D01*
X0088374Y0139456D01*
X0088366Y0139459D01*
X008836Y0139462D01*
X0088357D01*
X008834Y0139465D01*
X0088321Y0139466D01*
X00883Y0139469D01*
X008828D01*
X008826Y0139471D01*
D02*
G37*
G36*
X0093028Y0138978D02*
X0092826D01*
Y0138717D01*
X0093063D01*
X0093076Y0138719D01*
X0093109D01*
X0093122Y013872D01*
X0093131D01*
X0093136Y0138722D01*
X0093137D01*
X0093155Y0138726D01*
X0093171Y0138732D01*
X0093185Y0138738D01*
X0093195Y0138745D01*
X0093204Y0138753D01*
X0093211Y0138757D01*
X0093214Y0138762D01*
X0093216Y0138763D01*
X0093225Y0138775D01*
X0093232Y013879D01*
X0093236Y0138803D01*
X0093241Y0138817D01*
X0093242Y0138828D01*
X0093244Y0138837D01*
Y0138843D01*
Y0138846D01*
X0093242Y0138862D01*
X0093241Y0138877D01*
X0093236Y0138891D01*
X0093233Y0138902D01*
X0093229Y0138911D01*
X0093225Y0138917D01*
X0093223Y0138922D01*
X0093222Y0138923D01*
X0093213Y0138934D01*
X0093204Y0138942D01*
X0093185Y0138956D01*
X0093177Y013896D01*
X009317Y0138963D01*
X0093165Y0138966D01*
X0093164D01*
X0093156Y0138968D01*
X0093145Y0138971D01*
X0093133Y0138972D01*
X0093119Y0138974D01*
X0093088Y0138975D01*
X0093057Y0138976D01*
X0093028Y0138978D01*
D02*
G37*
G36*
X008857Y006107D02*
X0088436D01*
X0088416Y0061069D01*
X0088398D01*
X0088384Y0061067D01*
X008837D01*
X0088357Y0061066D01*
X0088347D01*
X008833Y0061063D01*
X0088319Y0061061D01*
X0088311Y006106D01*
X008831D01*
X0088289Y0061054D01*
X0088271Y0061047D01*
X0088255Y0061039D01*
X008824Y006103D01*
X008823Y0061023D01*
X0088221Y0061017D01*
X0088216Y0061013D01*
X0088215Y0061011D01*
X0088202Y0060996D01*
X008819Y006098D01*
X0088179Y0060964D01*
X008817Y0060949D01*
X0088165Y0060934D01*
X008816Y0060922D01*
X0088157Y0060915D01*
X0088156Y0060913D01*
Y0060912D01*
X0088148Y0060885D01*
X0088142Y0060857D01*
X0088139Y0060826D01*
X0088136Y0060796D01*
X0088135Y0060771D01*
X0088133Y0060759D01*
Y0060749D01*
Y0060742D01*
Y0060736D01*
Y0060731D01*
Y006073D01*
X0088135Y0060688D01*
X0088136Y006065D01*
X0088141Y0060619D01*
X0088144Y0060592D01*
X0088148Y006057D01*
X008815Y0060561D01*
X0088153Y0060555D01*
X0088154Y0060549D01*
Y0060545D01*
X0088156Y0060543D01*
Y0060542D01*
X0088165Y0060518D01*
X0088172Y0060497D01*
X0088182Y0060481D01*
X008819Y0060468D01*
X0088197Y0060457D01*
X0088203Y006045D01*
X0088207Y0060445D01*
X0088209Y0060444D01*
X0088222Y0060434D01*
X0088236Y0060425D01*
X0088249Y0060417D01*
X0088262Y0060411D01*
X0088274Y0060407D01*
X0088283Y0060404D01*
X0088289Y0060401D01*
X0088292D01*
X0088308Y0060398D01*
X0088327Y0060396D01*
X0088348Y0060394D01*
X0088369D01*
X0088388Y0060392D01*
X008857D01*
Y006107D01*
D02*
G37*
%LPD*%
D31*
X0088872Y0129384D02*
G03*
X0088872Y0129384I-000007J0D01*
G01*
X0107562Y0120244D02*
Y0120444D01*
X0108162Y0120244D02*
Y0120444D01*
X0105762Y0120719D02*
Y0120919D01*
X0105162Y0120719D02*
Y0120919D01*
X0110212Y0110694D02*
X0110412D01*
X0110212Y0110094D02*
X0110412D01*
X0107087Y0127994D02*
Y0128194D01*
X0106487Y0127994D02*
Y0128194D01*
X0111237Y0125419D02*
X0111437D01*
X0111237Y0124819D02*
X0111437D01*
X0102987Y0121119D02*
X0103187D01*
X0102987Y0120519D02*
X0103187D01*
X0102937Y0119169D02*
X0103137D01*
X0102937Y0118569D02*
X0103137D01*
X0087762Y0117544D02*
Y0117744D01*
X0087162Y0117544D02*
Y0117744D01*
X0084337Y0101319D02*
Y0101519D01*
X0083737Y0101319D02*
Y0101519D01*
X0093437Y0104744D02*
Y0104944D01*
X0092837Y0104744D02*
Y0104944D01*
X0091812Y0104719D02*
Y0104919D01*
X0091212Y0104719D02*
Y0104919D01*
X0099387Y0105069D02*
Y0105269D01*
X0098787Y0105069D02*
Y0105269D01*
X0100437Y0105119D02*
Y0105319D01*
X0101037Y0105119D02*
Y0105319D01*
X0104612Y0073419D02*
Y0073619D01*
X0104012Y0073419D02*
Y0073619D01*
X0090037Y0073344D02*
Y0073544D01*
X0089437Y0073344D02*
Y0073544D01*
X0100912Y0087444D02*
X0101112D01*
X0100912Y0086844D02*
X0101112D01*
X0103562Y0087769D02*
Y0087969D01*
X0102962Y0087769D02*
Y0087969D01*
X0098812Y0080844D02*
Y0081044D01*
X0098212Y0080844D02*
Y0081044D01*
X0099937Y0089219D02*
Y0089419D01*
X0100537Y0089219D02*
Y0089419D01*
X0102062Y0089219D02*
Y0089419D01*
X0101462Y0089219D02*
Y0089419D01*
X0100062Y0077744D02*
Y0077944D01*
X0100662Y0077744D02*
Y0077944D01*
X0095187Y0084644D02*
Y0084844D01*
X0095787Y0084644D02*
Y0084844D01*
X0089462Y0084919D02*
Y0085119D01*
X0090062Y0084919D02*
Y0085119D01*
X0089462Y0077644D02*
Y0077844D01*
X0090062Y0077644D02*
Y0077844D01*
X0092112Y0078144D02*
X0092312D01*
X0092112Y0078744D02*
X0092312D01*
X0095062Y0089219D02*
Y0089419D01*
X0095662Y0089219D02*
Y0089419D01*
X0096662Y0089219D02*
Y0089419D01*
X0097262Y0089219D02*
Y0089419D01*
X0089462Y0080994D02*
Y0081194D01*
X0090062Y0080994D02*
Y0081194D01*
X0094037Y0089219D02*
Y0089419D01*
X0093437Y0089219D02*
Y0089419D01*
X0089612Y0089744D02*
X0089812D01*
X0089612Y0090344D02*
X0089812D01*
X0098862Y0089219D02*
Y0089419D01*
X0098262Y0089219D02*
Y0089419D01*
X0083112Y0132519D02*
Y0132719D01*
X0083712Y0132519D02*
Y0132719D01*
X0082262Y0125319D02*
X0082462D01*
X0082262Y0124719D02*
X0082462D01*
X0081937Y0127469D02*
Y0127669D01*
X0081337Y0127469D02*
Y0127669D01*
D47*
X0105512Y0126369D02*
G03*
X0105512Y0126369I-0000125J0D01*
G01*
X0112512Y0113019D02*
G03*
X0112512Y0113019I-0000125J0D01*
G01*
X0110112Y0129269D02*
G03*
X0110112Y0129269I-0000125J0D01*
G01*
X0091662Y0111269D02*
G03*
X0091662Y0111269I-0000125J0D01*
G01*
X0088987Y0111419D02*
G03*
X0088987Y0111419I-0000125J0D01*
G01*
X0083387Y0107919D02*
G03*
X0083387Y0107919I-0000125J0D01*
G01*
X0085962Y0105969D02*
G03*
X0085962Y0105969I-0000125J0D01*
G01*
X0085887Y0113344D02*
G03*
X0085887Y0113344I-0000125J0D01*
G01*
X0086187Y0109919D02*
G03*
X0086187Y0109919I-0000125J0D01*
G01*
X0083137Y0100544D02*
G03*
X0083137Y0100544I-0000125J0D01*
G01*
X0087912Y0102894D02*
G03*
X0087912Y0102894I-0000125J0D01*
G01*
X0094662Y0099119D02*
G03*
X0094662Y0099119I-0000125J0D01*
G01*
X0090562Y0086644D02*
G03*
X0090562Y0086644I-0000125J0D01*
G01*
X0093812Y0080369D02*
G03*
X0093812Y0080369I-0000125J0D01*
G01*
X0103062Y0083069D02*
G03*
X0103062Y0083069I-0000125J0D01*
G01*
X0088412Y0131769D02*
G03*
X0088412Y0131769I-0000125J0D01*
G01*
D48*
X0105037Y0127494D02*
Y0127994D01*
X0104587D02*
X0105037D01*
X0102937Y0127494D02*
Y0127994D01*
X0103387D01*
X0100887Y0128194D02*
X0101487D01*
X0100887Y0128594D02*
X0101487D01*
X0108362Y0128319D02*
X0108962D01*
X0108362Y0127919D02*
X0108962D01*
X0112037Y0113969D02*
Y0114669D01*
X0109037Y0113969D02*
Y0114669D01*
Y0113969D02*
X0112037D01*
X0109037Y0114669D02*
X0112037D01*
X0110337Y0128119D02*
Y0128519D01*
X0112437Y0128119D02*
Y0128519D01*
X0110337D02*
X0112437D01*
X0110337Y0128119D02*
X0112437D01*
X0112612Y0122894D02*
Y0123494D01*
X0113012Y0122894D02*
Y0123494D01*
X0113387Y0128319D02*
X0113987D01*
X0113387Y0127919D02*
X0113987D01*
X0113661Y0121699D02*
Y0121915D01*
X0110613D02*
X0113661D01*
X0110613Y0121699D02*
Y0121915D01*
X0113661Y0117673D02*
X0113661Y0117889D01*
X0110613Y0117673D02*
X0113661D01*
X0110613D02*
Y0117889D01*
X0095412Y0130444D02*
X0095762D01*
X0095412Y0130094D02*
Y013035D01*
X0095387Y0125794D02*
X0095762D01*
X0095387D02*
Y0126169D01*
X0099237Y0130444D02*
X0099587D01*
Y0130069D02*
Y0130444D01*
Y0125794D02*
Y0126169D01*
X0099187Y0125794D02*
X0099587D01*
X0095412Y013035D02*
Y0130444D01*
X0081662Y0098644D02*
X0082862D01*
X0081662Y0099644D02*
X0082862D01*
X0081087Y0099019D02*
Y0099269D01*
X0091187Y0112019D02*
Y0112419D01*
X0089087Y0112019D02*
Y0112419D01*
Y0112019D02*
X0091187D01*
X0089087Y0112419D02*
X0091187D01*
X0088512Y0112169D02*
Y0112569D01*
X0086412Y0112169D02*
Y0112569D01*
Y0112169D02*
X0088512D01*
X0086412Y0112569D02*
X0088512D01*
X0083612Y0106769D02*
Y0107169D01*
X0085712Y0106769D02*
Y0107169D01*
X0083612D02*
X0085712D01*
X0083612Y0106769D02*
X0085712D01*
X0087637Y0114844D02*
Y0115444D01*
X0087237Y0114844D02*
Y0115444D01*
X0084537Y0103544D02*
Y0104144D01*
X0084937Y0103544D02*
Y0104144D01*
X0084712Y0111094D02*
Y0111694D01*
X0084312Y0111094D02*
Y0111694D01*
X0089162Y0105394D02*
X0089762D01*
X0089162Y0104994D02*
X0089762D01*
X0086187Y0104344D02*
Y0104844D01*
Y0104344D02*
X0086637D01*
X0088287D02*
Y0104844D01*
X0087837Y0104344D02*
X0088287D01*
X0085412Y0114469D02*
Y0114969D01*
X0084962D02*
X0085412D01*
X0083312Y0114469D02*
Y0114969D01*
X0083762D01*
X0086412Y0108769D02*
Y0109169D01*
X0088512Y0108769D02*
Y0109169D01*
X0086412D02*
X0088512D01*
X0086412Y0108769D02*
X0088512D01*
X0082662Y0101294D02*
Y0101694D01*
X0080562Y0101294D02*
Y0101694D01*
Y0101294D02*
X0082662D01*
X0080562Y0101694D02*
X0082662D01*
X0085462Y0117869D02*
X0086062D01*
X0085462Y0117469D02*
X0086062D01*
X0086637Y0102544D02*
X0087037D01*
X0086637Y0100444D02*
X0087037D01*
Y0102544D01*
X0086637Y0100444D02*
Y0102544D01*
X0096212Y0117769D02*
X0096812D01*
X0096212Y0118169D02*
X0096812D01*
X0097587Y0121069D02*
X0098187D01*
X0097587Y0120669D02*
X0098187D01*
X0097612Y0117769D02*
X0098212D01*
X0097612Y0118169D02*
X0098212D01*
X0102037Y0105394D02*
X0102637D01*
X0102037Y0104994D02*
X0102637D01*
X0094612Y0107319D02*
X0095212D01*
X0094612Y0107719D02*
X0095212D01*
X0091862Y0100344D02*
Y0100944D01*
X0092262Y0100344D02*
Y0100944D01*
X0095962Y0098069D02*
Y0098669D01*
X0095562Y0098069D02*
Y0098669D01*
X0095487Y0099469D02*
X0096187D01*
X0095487Y0102469D02*
X0096187D01*
X0095487Y0099469D02*
Y0102469D01*
X0096187Y0099469D02*
Y0102469D01*
X0101312Y0085344D02*
Y0085944D01*
X0101712Y0085344D02*
Y0085944D01*
X0104387Y0080269D02*
X0104987D01*
X0104387Y0080669D02*
X0104987D01*
X0096712Y0080719D02*
X0097312D01*
X0096712Y0081119D02*
X0097312D01*
X0101762Y0077669D02*
X0102362D01*
X0101762Y0078069D02*
X0102362D01*
X0101312Y0084019D02*
Y0084619D01*
X0101712Y0084019D02*
Y0084619D01*
X0094437Y0081719D02*
X0095037D01*
X0094437Y0081319D02*
X0095037D01*
X0097262Y0086744D02*
Y0087344D01*
X0096862Y0086744D02*
Y0087344D01*
X0091812Y0076719D02*
Y0077319D01*
X0092212Y0076719D02*
Y0077319D01*
X0090787Y0084994D02*
Y0085694D01*
X0093787Y0084994D02*
Y0085694D01*
X0090787D02*
X0093787D01*
X0090787Y0084994D02*
X0093787D01*
X0089487Y0088319D02*
Y0088919D01*
X0089887Y0088319D02*
Y0088919D01*
X0096812Y0084969D02*
X0097412D01*
X0096812Y0084569D02*
X0097412D01*
X0091237Y0081519D02*
X0093337D01*
X0091237Y0081119D02*
X0093337D01*
X0091237D02*
Y0081519D01*
X0093337Y0081119D02*
Y0081519D01*
X0101287Y0082719D02*
X0101987D01*
X0101287Y0079719D02*
X0101987D01*
Y0082719D01*
X0101287Y0079719D02*
Y0082719D01*
X0088437Y0129294D02*
Y0129494D01*
X0085137Y0129294D02*
Y0129494D01*
X0085162Y0126194D02*
X0088462D01*
X0085137Y0129494D02*
X0088437D01*
X0085162Y0126194D02*
Y0126394D01*
X0088462Y0126194D02*
Y0126394D01*
X0087862Y0129944D02*
Y0130544D01*
X0087462Y0129944D02*
Y0130544D01*
X0087937Y0132519D02*
Y0132919D01*
X0085837Y0132519D02*
Y0132919D01*
Y0132519D02*
X0087937D01*
X0085837Y0132919D02*
X0087937D01*
X0082887Y0127369D02*
X0083487D01*
X0082887Y0127769D02*
X0083487D01*
X0084262Y0131919D02*
Y0133119D01*
X0085262Y0131919D02*
Y0133119D01*
X0084637Y0133694D02*
X0084887D01*
X0115812Y0115169D02*
Y0115769D01*
X0115512D01*
X0115412Y0115669D01*
Y0115469D01*
X0115512Y0115369D01*
X0115812D01*
X0115212Y0115169D02*
X0115012D01*
X0115112D01*
Y0115769D01*
X0115212Y0115669D01*
X0114712Y0115169D02*
Y0115269D01*
X0114612D01*
Y0115169D01*
X0114712D01*
X0113812Y0115769D02*
X0114212D01*
Y0115469D01*
X0114012Y0115569D01*
X0113912D01*
X0113812Y0115469D01*
Y0115269D01*
X0113912Y0115169D01*
X0114112D01*
X0114212Y0115269D01*
X0115737Y0107719D02*
Y0108319D01*
X0115437D01*
X0115337Y0108219D01*
Y0108019D01*
X0115437Y0107919D01*
X0115737D01*
X0115137Y0107719D02*
X0114937D01*
X0115037D01*
Y0108319D01*
X0115137Y0108219D01*
X0114637Y0107719D02*
Y0107819D01*
X0114537D01*
Y0107719D01*
X0114637D01*
X0113837D02*
Y0108319D01*
X0114137Y0108019D01*
X0113737D01*
X0081987Y0103219D02*
Y0103819D01*
X0081687D01*
X0081587Y0103719D01*
Y0103519D01*
X0081687Y0103419D01*
X0081987D01*
X0081387Y0103719D02*
X0081287Y0103819D01*
X0081087D01*
X0080987Y0103719D01*
Y0103319D01*
X0081087Y0103219D01*
X0081287D01*
X0081387Y0103319D01*
Y0103719D01*
X0080787Y0103219D02*
Y0103319D01*
X0080687D01*
Y0103219D01*
X0080787D01*
X0080287Y0103819D02*
X0079887D01*
Y0103719D01*
X0080287Y0103319D01*
Y0103219D01*
X0081937Y0106219D02*
Y0106819D01*
X0081637D01*
X0081537Y0106719D01*
Y0106519D01*
X0081637Y0106419D01*
X0081937D01*
X0081337Y0106219D02*
X0081137D01*
X0081237D01*
Y0106819D01*
X0081337Y0106719D01*
X0080837Y0106219D02*
Y0106319D01*
X0080737D01*
Y0106219D01*
X0080837D01*
X0080337Y0106719D02*
X0080237Y0106819D01*
X0080037D01*
X0079937Y0106719D01*
Y0106319D01*
X0080037Y0106219D01*
X0080237D01*
X0080337Y0106319D01*
Y0106719D01*
X0081912Y0109444D02*
Y0110044D01*
X0081612D01*
X0081512Y0109944D01*
Y0109744D01*
X0081612Y0109644D01*
X0081912D01*
X0081312Y0109444D02*
X0081112D01*
X0081212D01*
Y0110044D01*
X0081312Y0109944D01*
X0080812Y0109444D02*
Y0109544D01*
X0080712D01*
Y0109444D01*
X0080812D01*
X0080312Y0110044D02*
X0079912D01*
Y0109944D01*
X0080312Y0109544D01*
Y0109444D01*
X0081862Y0113144D02*
Y0113744D01*
X0081562D01*
X0081462Y0113644D01*
Y0113444D01*
X0081562Y0113344D01*
X0081862D01*
X0081262Y0113144D02*
X0081062D01*
X0081162D01*
Y0113744D01*
X0081262Y0113644D01*
X0080762Y0113144D02*
Y0113244D01*
X0080662D01*
Y0113144D01*
X0080762D01*
X0079862Y0113744D02*
X0080062Y0113644D01*
X0080262Y0113444D01*
Y0113244D01*
X0080162Y0113144D01*
X0079962D01*
X0079862Y0113244D01*
Y0113344D01*
X0079962Y0113444D01*
X0080262D01*
X0081987Y0116994D02*
Y0117594D01*
X0081687D01*
X0081587Y0117494D01*
Y0117294D01*
X0081687Y0117194D01*
X0081987D01*
X0081387Y0117494D02*
X0081287Y0117594D01*
X0081087D01*
X0080987Y0117494D01*
Y0117394D01*
X0081087Y0117294D01*
X0081187D01*
X0081087D01*
X0080987Y0117194D01*
Y0117094D01*
X0081087Y0116994D01*
X0081287D01*
X0081387Y0117094D01*
X0080787Y0116994D02*
Y0117094D01*
X0080687D01*
Y0116994D01*
X0080787D01*
X0080287Y0117494D02*
X0080187Y0117594D01*
X0079987D01*
X0079887Y0117494D01*
Y0117094D01*
X0079987Y0116994D01*
X0080187D01*
X0080287Y0117094D01*
Y0117494D01*
X0107637Y0117344D02*
X0108237D01*
Y0117644D01*
X0108137Y0117744D01*
X0107937D01*
X0107837Y0117644D01*
Y0117344D01*
Y0117544D02*
X0107637Y0117744D01*
Y0118244D02*
X0108237D01*
X0107937Y0117944D01*
Y0118343D01*
X0107637Y0118543D02*
Y0118743D01*
Y0118643D01*
X0108237D01*
X0108137Y0118543D01*
X0108087Y0114369D02*
Y0113769D01*
X0107787D01*
X0107687Y0113869D01*
Y0114269D01*
X0107787Y0114369D01*
X0108087D01*
X0107487D02*
Y0113769D01*
X0107187D01*
X0107087Y0113869D01*
Y0114269D01*
X0107187Y0114369D01*
X0107487D01*
X0106487D02*
X0106887D01*
Y0114069D01*
X0106687Y0114169D01*
X0106587D01*
X0106487Y0114069D01*
Y0113869D01*
X0106587Y0113769D01*
X0106787D01*
X0106887Y0113869D01*
X0113912Y0117044D02*
X0113512Y0116444D01*
Y0117044D02*
X0113912Y0116444D01*
X0112912Y0116944D02*
X0113012Y0117044D01*
X0113212D01*
X0113312Y0116944D01*
Y0116844D01*
X0113212Y0116744D01*
X0113012D01*
X0112912Y0116644D01*
Y0116544D01*
X0113012Y0116444D01*
X0113212D01*
X0113312Y0116544D01*
X0112712Y0116944D02*
X0112612Y0117044D01*
X0112412D01*
X0112312Y0116944D01*
Y0116844D01*
X0112412Y0116744D01*
X0112512D01*
X0112412D01*
X0112312Y0116644D01*
Y0116544D01*
X0112412Y0116444D01*
X0112612D01*
X0112712Y0116544D01*
X0080037Y0101719D02*
Y0101319D01*
X0079837Y0101119D01*
X0079637Y0101319D01*
Y0101719D01*
X0079437D02*
X0079037D01*
X0079237D01*
Y0101119D01*
X0078837Y0101719D02*
X0078437D01*
Y0101619D01*
X0078837Y0101219D01*
Y0101119D01*
X0090162Y0101744D02*
Y0101344D01*
X0089962Y0101144D01*
X0089762Y0101344D01*
Y0101744D01*
X0089562D02*
X0089162D01*
X0089362D01*
Y0101144D01*
X0088562Y0101744D02*
X0088762Y0101644D01*
X0088962Y0101444D01*
Y0101244D01*
X0088862Y0101144D01*
X0088662D01*
X0088562Y0101244D01*
Y0101344D01*
X0088662Y0101444D01*
X0088962D01*
X0090582Y0109215D02*
Y0108815D01*
X0090382Y0108615D01*
X0090182Y0108815D01*
Y0109215D01*
X0089982D02*
X0089582D01*
X0089782D01*
Y0108615D01*
X0088982Y0109215D02*
X0089382D01*
Y0108915D01*
X0089182Y0109015D01*
X0089082D01*
X0088982Y0108915D01*
Y0108715D01*
X0089082Y0108615D01*
X0089282D01*
X0089382Y0108715D01*
X0085412Y0109419D02*
Y0109019D01*
X0085212Y0108819D01*
X0085012Y0109019D01*
Y0109419D01*
X0084812D02*
X0084412D01*
X0084612D01*
Y0108819D01*
X0083912D02*
Y0109419D01*
X0084212Y0109119D01*
X0083812D01*
X0091521Y0115143D02*
Y0114743D01*
X0091321Y0114543D01*
X0091121Y0114743D01*
Y0115143D01*
X0090921D02*
X0090521D01*
X0090721D01*
Y0114543D01*
X0090321Y0115043D02*
X0090222Y0115143D01*
X0090022D01*
X0089922Y0115043D01*
Y0114943D01*
X0090022Y0114843D01*
X0090122D01*
X0090022D01*
X0089922Y0114743D01*
Y0114643D01*
X0090022Y0114543D01*
X0090222D01*
X0090321Y0114643D01*
X0088187Y0114494D02*
Y0114094D01*
X0087987Y0113894D01*
X0087787Y0114094D01*
Y0114494D01*
X0087587D02*
X0087187D01*
X0087387D01*
Y0113894D01*
X0086587D02*
X0086987D01*
X0086587Y0114294D01*
Y0114394D01*
X0086687Y0114494D01*
X0086887D01*
X0086987Y0114394D01*
X0089812Y0133069D02*
Y0132669D01*
X0089612Y0132469D01*
X0089412Y0132669D01*
Y0133069D01*
X0089212D02*
X0088812D01*
X0089012D01*
Y0132469D01*
X0088612D02*
X0088412D01*
X0088512D01*
Y0133069D01*
X0088612Y0132969D01*
X0104662Y0130094D02*
Y0129694D01*
X0104462Y0129494D01*
X0104262Y0129694D01*
Y0130094D01*
X0104062D02*
Y0129494D01*
X0103762D01*
X0103662Y0129594D01*
Y0129994D01*
X0103762Y0130094D01*
X0104062D01*
X0103462Y0129594D02*
X0103362Y0129494D01*
X0103162D01*
X0103062Y0129594D01*
Y0129994D01*
X0103162Y0130094D01*
X0103362D01*
X0103462Y0129994D01*
Y0129894D01*
X0103362Y0129794D01*
X0103062D01*
X0080662Y0099544D02*
Y0099144D01*
X0080462Y0098944D01*
X0080262Y0099144D01*
Y0099544D01*
X0080062D02*
Y0098944D01*
X0079762D01*
X0079662Y0099044D01*
Y0099444D01*
X0079762Y0099544D01*
X0080062D01*
X0079462Y0099444D02*
X0079362Y0099544D01*
X0079162D01*
X0079062Y0099444D01*
Y0099344D01*
X0079162Y0099244D01*
X0079062Y0099144D01*
Y0099044D01*
X0079162Y0098944D01*
X0079362D01*
X0079462Y0099044D01*
Y0099144D01*
X0079362Y0099244D01*
X0079462Y0099344D01*
Y0099444D01*
X0079362Y0099244D02*
X0079162D01*
X0087987Y0107319D02*
Y0106919D01*
X0087787Y0106719D01*
X0087587Y0106919D01*
Y0107319D01*
X0087387D02*
Y0106719D01*
X0087087D01*
X0086987Y0106819D01*
Y0107219D01*
X0087087Y0107319D01*
X0087387D01*
X0086787D02*
X0086387D01*
Y0107219D01*
X0086787Y0106819D01*
Y0106719D01*
X0083812Y0116094D02*
Y0115694D01*
X0083612Y0115494D01*
X0083412Y0115694D01*
Y0116094D01*
X0083212D02*
Y0115494D01*
X0082912D01*
X0082812Y0115594D01*
Y0115994D01*
X0082912Y0116094D01*
X0083212D01*
X0082612Y0115994D02*
X0082512Y0116094D01*
X0082312D01*
X0082212Y0115994D01*
Y0115894D01*
X0082312Y0115794D01*
X0082412D01*
X0082312D01*
X0082212Y0115694D01*
Y0115594D01*
X0082312Y0115494D01*
X0082512D01*
X0082612Y0115594D01*
X0085062Y0134269D02*
X0084662D01*
X0084462Y0134469D01*
X0084662Y0134669D01*
X0085062D01*
Y0134869D02*
X0084462D01*
Y0135169D01*
X0084562Y0135268D01*
X0084962D01*
X0085062Y0135169D01*
Y0134869D01*
X0084462Y0135868D02*
Y0135468D01*
X0084862Y0135868D01*
X0084962D01*
X0085062Y0135768D01*
Y0135568D01*
X0084962Y0135468D01*
X0107312Y0130044D02*
Y0130644D01*
X0107012D01*
X0106912Y0130544D01*
Y0130344D01*
X0107012Y0130244D01*
X0107312D01*
X0107112D02*
X0106912Y0130044D01*
X0106412D02*
Y0130644D01*
X0106712Y0130344D01*
X0106312D01*
X0105712Y0130644D02*
X0105912Y0130544D01*
X0106112Y0130344D01*
Y0130144D01*
X0106012Y0130044D01*
X0105812D01*
X0105712Y0130144D01*
Y0130244D01*
X0105812Y0130344D01*
X0106112D01*
X0109587Y0124894D02*
Y0125494D01*
X0109287D01*
X0109187Y0125394D01*
Y0125194D01*
X0109287Y0125094D01*
X0109587D01*
X0109387D02*
X0109187Y0124894D01*
X0108687D02*
Y0125494D01*
X0108987Y0125194D01*
X0108587D01*
X0108387Y0125394D02*
X0108287Y0125494D01*
X0108087D01*
X0107987Y0125394D01*
Y0125294D01*
X0108087Y0125194D01*
X0108187D01*
X0108087D01*
X0107987Y0125094D01*
Y0124994D01*
X0108087Y0124894D01*
X0108287D01*
X0108387Y0124994D01*
X0106164Y0122672D02*
Y0123271D01*
X0105864D01*
X0105764Y0123172D01*
Y0122972D01*
X0105864Y0122872D01*
X0106164D01*
X0105964D02*
X0105764Y0122672D01*
X0105264D02*
Y0123271D01*
X0105564Y0122972D01*
X0105164D01*
X0104964Y0123172D02*
X0104864Y0123271D01*
X0104664D01*
X0104564Y0123172D01*
Y0122772D01*
X0104664Y0122672D01*
X0104864D01*
X0104964Y0122772D01*
Y0123172D01*
X0108242Y0110686D02*
X0107642D01*
Y0110386D01*
X0107742Y0110286D01*
X0107942D01*
X0108042Y0110386D01*
Y0110686D01*
Y0110486D02*
X0108242Y0110286D01*
X0107742Y0110086D02*
X0107642Y0109986D01*
Y0109786D01*
X0107742Y0109686D01*
X0107842D01*
X0107942Y0109786D01*
Y0109886D01*
Y0109786D01*
X0108042Y0109686D01*
X0108142D01*
X0108242Y0109786D01*
Y0109986D01*
X0108142Y0110086D01*
Y0109486D02*
X0108242Y0109386D01*
Y0109186D01*
X0108142Y0109086D01*
X0107742D01*
X0107642Y0109186D01*
Y0109386D01*
X0107742Y0109486D01*
X0107842D01*
X0107942Y0109386D01*
Y0109086D01*
X0103812Y0121869D02*
Y0122469D01*
X0103512D01*
X0103412Y0122369D01*
Y0122169D01*
X0103512Y0122069D01*
X0103812D01*
X0103612D02*
X0103412Y0121869D01*
X0103212Y0122369D02*
X0103112Y0122469D01*
X0102912D01*
X0102812Y0122369D01*
Y0122269D01*
X0102912Y0122169D01*
X0103012D01*
X0102912D01*
X0102812Y0122069D01*
Y0121969D01*
X0102912Y0121869D01*
X0103112D01*
X0103212Y0121969D01*
X0102612Y0122369D02*
X0102512Y0122469D01*
X0102312D01*
X0102212Y0122369D01*
Y0122269D01*
X0102312Y0122169D01*
X0102212Y0122069D01*
Y0121969D01*
X0102312Y0121869D01*
X0102512D01*
X0102612Y0121969D01*
Y0122069D01*
X0102512Y0122169D01*
X0102612Y0122269D01*
Y0122369D01*
X0102512Y0122169D02*
X0102312D01*
X0103837Y0117419D02*
Y0118019D01*
X0103537D01*
X0103437Y0117919D01*
Y0117719D01*
X0103537Y0117619D01*
X0103837D01*
X0103637D02*
X0103437Y0117419D01*
X0103237Y0117919D02*
X0103137Y0118019D01*
X0102937D01*
X0102837Y0117919D01*
Y0117819D01*
X0102937Y0117719D01*
X0103037D01*
X0102937D01*
X0102837Y0117619D01*
Y0117519D01*
X0102937Y0117419D01*
X0103137D01*
X0103237Y0117519D01*
X0102637Y0118019D02*
X0102237D01*
Y0117919D01*
X0102637Y0117519D01*
Y0117419D01*
X0093787Y0106619D02*
Y0107219D01*
X0093487D01*
X0093387Y0107119D01*
Y0106919D01*
X0093487Y0106819D01*
X0093787D01*
X0093587D02*
X0093387Y0106619D01*
X0093187Y0107119D02*
X0093087Y0107219D01*
X0092887D01*
X0092787Y0107119D01*
Y0107019D01*
X0092887Y0106919D01*
X0092987D01*
X0092887D01*
X0092787Y0106819D01*
Y0106719D01*
X0092887Y0106619D01*
X0093087D01*
X0093187Y0106719D01*
X0092587Y0106619D02*
X0092387D01*
X0092487D01*
Y0107219D01*
X0092587Y0107119D01*
X0091887Y0106594D02*
Y0107194D01*
X0091587D01*
X0091487Y0107094D01*
Y0106894D01*
X0091587Y0106794D01*
X0091887D01*
X0091687D02*
X0091487Y0106594D01*
X0090887D02*
X0091287D01*
X0090887Y0106994D01*
Y0107094D01*
X0090987Y0107194D01*
X0091187D01*
X0091287Y0107094D01*
X0090687Y0106694D02*
X0090587Y0106594D01*
X0090387D01*
X0090287Y0106694D01*
Y0107094D01*
X0090387Y0107194D01*
X0090587D01*
X0090687Y0107094D01*
Y0106994D01*
X0090587Y0106894D01*
X0090287D01*
X0085287Y0099294D02*
Y0099894D01*
X0084987D01*
X0084887Y0099794D01*
Y0099594D01*
X0084987Y0099494D01*
X0085287D01*
X0085087D02*
X0084887Y0099294D01*
X0084287D02*
X0084687D01*
X0084287Y0099694D01*
Y0099794D01*
X0084387Y0099894D01*
X0084587D01*
X0084687Y0099794D01*
X0084087D02*
X0083987Y0099894D01*
X0083787D01*
X0083687Y0099794D01*
Y0099694D01*
X0083787Y0099594D01*
X0083687Y0099494D01*
Y0099394D01*
X0083787Y0099294D01*
X0083987D01*
X0084087Y0099394D01*
Y0099494D01*
X0083987Y0099594D01*
X0084087Y0099694D01*
Y0099794D01*
X0083987Y0099594D02*
X0083787D01*
X0099712Y0106669D02*
Y0107269D01*
X0099412D01*
X0099312Y0107169D01*
Y0106969D01*
X0099412Y0106869D01*
X0099712D01*
X0099512D02*
X0099312Y0106669D01*
X0098712D02*
X0099112D01*
X0098712Y0107069D01*
Y0107169D01*
X0098812Y0107269D01*
X0099012D01*
X0099112Y0107169D01*
X0098512Y0107269D02*
X0098112D01*
Y0107169D01*
X0098512Y0106769D01*
Y0106669D01*
X0101712Y0106694D02*
Y0107294D01*
X0101412D01*
X0101312Y0107194D01*
Y0106994D01*
X0101412Y0106894D01*
X0101712D01*
X0101512D02*
X0101312Y0106694D01*
X0100712D02*
X0101112D01*
X0100712Y0107094D01*
Y0107194D01*
X0100812Y0107294D01*
X0101012D01*
X0101112Y0107194D01*
X0100112Y0107294D02*
X0100312Y0107194D01*
X0100512Y0106994D01*
Y0106794D01*
X0100412Y0106694D01*
X0100212D01*
X0100112Y0106794D01*
Y0106894D01*
X0100212Y0106994D01*
X0100512D01*
X0098212Y0090794D02*
X0098812D01*
Y0091094D01*
X0098712Y0091194D01*
X0098512D01*
X0098412Y0091094D01*
Y0090794D01*
Y0090994D02*
X0098212Y0091194D01*
Y0091793D02*
Y0091394D01*
X0098612Y0091793D01*
X0098712D01*
X0098812Y0091694D01*
Y0091494D01*
X0098712Y0091394D01*
X0098812Y0092393D02*
Y0091993D01*
X0098512D01*
X0098612Y0092193D01*
Y0092293D01*
X0098512Y0092393D01*
X0098312D01*
X0098212Y0092293D01*
Y0092093D01*
X0098312Y0091993D01*
X0093462Y0090794D02*
X0094062D01*
Y0091094D01*
X0093962Y0091194D01*
X0093762D01*
X0093662Y0091094D01*
Y0090794D01*
Y0090994D02*
X0093462Y0091194D01*
Y0091793D02*
Y0091394D01*
X0093862Y0091793D01*
X0093962D01*
X0094062Y0091694D01*
Y0091494D01*
X0093962Y0091394D01*
X0093462Y0092293D02*
X0094062D01*
X0093762Y0091993D01*
Y0092393D01*
X0097112Y0082694D02*
Y0083294D01*
X0096812D01*
X0096712Y0083194D01*
Y0082994D01*
X0096812Y0082894D01*
X0097112D01*
X0096912D02*
X0096712Y0082694D01*
X0096112D02*
X0096512D01*
X0096112Y0083094D01*
Y0083194D01*
X0096212Y0083294D01*
X0096412D01*
X0096512Y0083194D01*
X0095912D02*
X0095812Y0083294D01*
X0095612D01*
X0095512Y0083194D01*
Y0083094D01*
X0095612Y0082994D01*
X0095712D01*
X0095612D01*
X0095512Y0082894D01*
Y0082794D01*
X0095612Y0082694D01*
X0095812D01*
X0095912Y0082794D01*
X0088437Y0116919D02*
X0089037D01*
Y0117219D01*
X0088937Y0117319D01*
X0088737D01*
X0088637Y0117219D01*
Y0116919D01*
Y0117119D02*
X0088437Y0117319D01*
Y0117918D02*
Y0117519D01*
X0088837Y0117918D01*
X0088937D01*
X0089037Y0117819D01*
Y0117619D01*
X0088937Y0117519D01*
X0088437Y0118518D02*
Y0118118D01*
X0088837Y0118518D01*
X0088937D01*
X0089037Y0118418D01*
Y0118218D01*
X0088937Y0118118D01*
X0080762Y0128394D02*
X0080162D01*
Y0128094D01*
X0080262Y0127994D01*
X0080462D01*
X0080562Y0128094D01*
Y0128394D01*
Y0128194D02*
X0080762Y0127994D01*
Y0127394D02*
Y0127794D01*
X0080362Y0127394D01*
X0080262D01*
X0080162Y0127494D01*
Y0127694D01*
X0080262Y0127794D01*
X0080762Y0127194D02*
Y0126994D01*
Y0127094D01*
X0080162D01*
X0080262Y0127194D01*
X0082987Y0123469D02*
Y0124069D01*
X0082687D01*
X0082587Y0123969D01*
Y0123769D01*
X0082687Y0123669D01*
X0082987D01*
X0082787D02*
X0082587Y0123469D01*
X0081987D02*
X0082387D01*
X0081987Y0123869D01*
Y0123969D01*
X0082087Y0124069D01*
X0082287D01*
X0082387Y0123969D01*
X0081787D02*
X0081687Y0124069D01*
X0081487D01*
X0081387Y0123969D01*
Y0123569D01*
X0081487Y0123469D01*
X0081687D01*
X0081787Y0123569D01*
Y0123969D01*
X0090482Y0091009D02*
Y0091609D01*
X0090182D01*
X0090082Y0091509D01*
Y0091309D01*
X0090182Y0091209D01*
X0090482D01*
X0090282D02*
X0090082Y0091009D01*
X0089882D02*
X0089682D01*
X0089782D01*
Y0091609D01*
X0089882Y0091509D01*
X0089382Y0091109D02*
X0089282Y0091009D01*
X0089082D01*
X0088982Y0091109D01*
Y0091509D01*
X0089082Y0091609D01*
X0089282D01*
X0089382Y0091509D01*
Y0091409D01*
X0089282Y0091309D01*
X0088982D01*
X0104112Y0087369D02*
X0104712D01*
Y0087669D01*
X0104612Y0087769D01*
X0104412D01*
X0104312Y0087669D01*
Y0087369D01*
Y0087569D02*
X0104112Y0087769D01*
Y0087969D02*
Y0088169D01*
Y0088069D01*
X0104712D01*
X0104612Y0087969D01*
Y0088468D02*
X0104712Y0088568D01*
Y0088768D01*
X0104612Y0088868D01*
X0104512D01*
X0104412Y0088768D01*
X0104312Y0088868D01*
X0104212D01*
X0104112Y0088768D01*
Y0088568D01*
X0104212Y0088468D01*
X0104312D01*
X0104412Y0088568D01*
X0104512Y0088468D01*
X0104612D01*
X0104412Y0088568D02*
Y0088768D01*
X0088312Y0084319D02*
X0088912D01*
Y0084619D01*
X0088812Y0084719D01*
X0088612D01*
X0088512Y0084619D01*
Y0084319D01*
Y0084519D02*
X0088312Y0084719D01*
Y0084919D02*
Y0085119D01*
Y0085019D01*
X0088912D01*
X0088812Y0084919D01*
X0088912Y0085418D02*
Y0085818D01*
X0088812D01*
X0088412Y0085418D01*
X0088312D01*
X0099897Y0085854D02*
Y0086454D01*
X0099597D01*
X0099497Y0086354D01*
Y0086154D01*
X0099597Y0086054D01*
X0099897D01*
X0099697D02*
X0099497Y0085854D01*
X0099297D02*
X0099098D01*
X0099198D01*
Y0086454D01*
X0099297Y0086354D01*
X0098398Y0086454D02*
X0098598Y0086354D01*
X0098798Y0086154D01*
Y0085954D01*
X0098698Y0085854D01*
X0098498D01*
X0098398Y0085954D01*
Y0086054D01*
X0098498Y0086154D01*
X0098798D01*
X0099819Y0090846D02*
X0100418D01*
Y0091146D01*
X0100318Y0091246D01*
X0100119D01*
X0100019Y0091146D01*
Y0090846D01*
Y0091046D02*
X0099819Y0091246D01*
Y0091446D02*
Y0091646D01*
Y0091546D01*
X0100418D01*
X0100318Y0091446D01*
X0100418Y0092345D02*
Y0091946D01*
X0100119D01*
X0100219Y0092146D01*
Y0092246D01*
X0100119Y0092345D01*
X0099919D01*
X0099819Y0092246D01*
Y0092046D01*
X0099919Y0091946D01*
X0095112Y0090794D02*
X0095712D01*
Y0091094D01*
X0095612Y0091194D01*
X0095412D01*
X0095312Y0091094D01*
Y0090794D01*
Y0090994D02*
X0095112Y0091194D01*
Y0091394D02*
Y0091594D01*
Y0091494D01*
X0095712D01*
X0095612Y0091394D01*
X0095112Y0092193D02*
X0095712D01*
X0095412Y0091893D01*
Y0092293D01*
X0096712Y0090769D02*
X0097312D01*
Y0091069D01*
X0097212Y0091169D01*
X0097012D01*
X0096912Y0091069D01*
Y0090769D01*
Y0090969D02*
X0096712Y0091169D01*
Y0091369D02*
Y0091569D01*
Y0091469D01*
X0097312D01*
X0097212Y0091369D01*
Y0091868D02*
X0097312Y0091968D01*
Y0092168D01*
X0097212Y0092268D01*
X0097112D01*
X0097012Y0092168D01*
Y0092068D01*
Y0092168D01*
X0096912Y0092268D01*
X0096812D01*
X0096712Y0092168D01*
Y0091968D01*
X0096812Y0091868D01*
X0101412Y0090819D02*
X0102012D01*
Y0091119D01*
X0101912Y0091219D01*
X0101712D01*
X0101612Y0091119D01*
Y0090819D01*
Y0091019D02*
X0101412Y0091219D01*
Y0091419D02*
Y0091619D01*
Y0091519D01*
X0102012D01*
X0101912Y0091419D01*
X0101412Y0091918D02*
Y0092118D01*
Y0092018D01*
X0102012D01*
X0101912Y0091918D01*
X0098912Y0078769D02*
Y0079369D01*
X0098612D01*
X0098512Y0079269D01*
Y0079069D01*
X0098612Y0078969D01*
X0098912D01*
X0098712D02*
X0098512Y0078769D01*
X0098312Y0078869D02*
X0098212Y0078769D01*
X0098012D01*
X0097912Y0078869D01*
Y0079269D01*
X0098012Y0079369D01*
X0098212D01*
X0098312Y0079269D01*
Y0079169D01*
X0098212Y0079069D01*
X0097912D01*
X0088262Y0080594D02*
X0088862D01*
Y0080894D01*
X0088762Y0080994D01*
X0088562D01*
X0088462Y0080894D01*
Y0080594D01*
Y0080794D02*
X0088262Y0080994D01*
X0088762Y0081194D02*
X0088862Y0081294D01*
Y0081494D01*
X0088762Y0081593D01*
X0088662D01*
X0088562Y0081494D01*
X0088462Y0081593D01*
X0088362D01*
X0088262Y0081494D01*
Y0081294D01*
X0088362Y0081194D01*
X0088462D01*
X0088562Y0081294D01*
X0088662Y0081194D01*
X0088762D01*
X0088562Y0081294D02*
Y0081494D01*
X0088287Y0073019D02*
X0088887D01*
Y0073319D01*
X0088787Y0073419D01*
X0088587D01*
X0088487Y0073319D01*
Y0073019D01*
Y0073219D02*
X0088287Y0073419D01*
X0088887Y0073619D02*
Y0074018D01*
X0088787D01*
X0088387Y0073619D01*
X0088287D01*
X0082537Y0133244D02*
X0081937D01*
Y0132944D01*
X0082037Y0132844D01*
X0082237D01*
X0082337Y0132944D01*
Y0133244D01*
Y0133044D02*
X0082537Y0132844D01*
X0081937Y0132244D02*
X0082037Y0132444D01*
X0082237Y0132644D01*
X0082437D01*
X0082537Y0132544D01*
Y0132344D01*
X0082437Y0132244D01*
X0082337D01*
X0082237Y0132344D01*
Y0132644D01*
X0098957Y0077142D02*
X0099556D01*
Y0077442D01*
X0099456Y0077542D01*
X0099256D01*
X0099157Y0077442D01*
Y0077142D01*
Y0077342D02*
X0098957Y0077542D01*
X0099556Y0078141D02*
Y0077742D01*
X0099256D01*
X0099356Y0077942D01*
Y0078042D01*
X0099256Y0078141D01*
X0099057D01*
X0098957Y0078042D01*
Y0077842D01*
X0099057Y0077742D01*
X0088312Y0077369D02*
X0088912D01*
Y0077669D01*
X0088812Y0077769D01*
X0088612D01*
X0088512Y0077669D01*
Y0077369D01*
Y0077569D02*
X0088312Y0077769D01*
Y0078269D02*
X0088912D01*
X0088612Y0077969D01*
Y0078368D01*
X0104812Y0075194D02*
Y0075794D01*
X0104512D01*
X0104412Y0075694D01*
Y0075494D01*
X0104512Y0075394D01*
X0104812D01*
X0104612D02*
X0104412Y0075194D01*
X0104212Y0075694D02*
X0104112Y0075794D01*
X0103912D01*
X0103812Y0075694D01*
Y0075594D01*
X0103912Y0075494D01*
X0104012D01*
X0103912D01*
X0103812Y0075394D01*
Y0075294D01*
X0103912Y0075194D01*
X0104112D01*
X0104212Y0075294D01*
X0092762Y0079119D02*
Y0079719D01*
X0092462D01*
X0092362Y0079619D01*
Y0079419D01*
X0092462Y0079319D01*
X0092762D01*
X0092562D02*
X0092362Y0079119D01*
X0091762D02*
X0092162D01*
X0091762Y0079519D01*
Y0079619D01*
X0091862Y0079719D01*
X0092062D01*
X0092162Y0079619D01*
X0098267Y0125056D02*
Y0124456D01*
X0097968D01*
X0097868Y0124556D01*
Y0124956D01*
X0097968Y0125056D01*
X0098267D01*
X0097668D02*
Y0124456D01*
X0097368D01*
X0097268Y0124556D01*
Y0124956D01*
X0097368Y0125056D01*
X0097668D01*
X0097068D02*
X0096668D01*
Y0124956D01*
X0097068Y0124556D01*
Y0124456D01*
X0098812Y0100244D02*
X0098212D01*
Y0100544D01*
X0098312Y0100644D01*
X0098712D01*
X0098812Y0100544D01*
Y0100244D01*
Y0100844D02*
X0098212D01*
Y0101144D01*
X0098312Y0101243D01*
X0098712D01*
X0098812Y0101144D01*
Y0100844D01*
X0098212Y0101843D02*
Y0101443D01*
X0098612Y0101843D01*
X0098712D01*
X0098812Y0101743D01*
Y0101543D01*
X0098712Y0101443D01*
X0112087Y0130994D02*
Y0130394D01*
X0111787D01*
X0111687Y0130494D01*
Y0130894D01*
X0111787Y0130994D01*
X0112087D01*
X0111487Y0130394D02*
Y0130794D01*
X0111287Y0130994D01*
X0111087Y0130794D01*
Y0130394D01*
Y0130694D01*
X0111487D01*
X0110887Y0130994D02*
X0110487D01*
Y0130894D01*
X0110887Y0130494D01*
Y0130394D01*
X0097387Y0107144D02*
Y0106544D01*
X0097087D01*
X0096987Y0106644D01*
Y0107044D01*
X0097087Y0107144D01*
X0097387D01*
X0096787Y0106544D02*
Y0106944D01*
X0096587Y0107144D01*
X0096387Y0106944D01*
Y0106544D01*
Y0106844D01*
X0096787D01*
X0095787Y0107144D02*
X0095987Y0107044D01*
X0096187Y0106844D01*
Y0106644D01*
X0096087Y0106544D01*
X0095887D01*
X0095787Y0106644D01*
Y0106744D01*
X0095887Y0106844D01*
X0096187D01*
X0092887Y0088069D02*
Y0087469D01*
X0092587D01*
X0092487Y0087569D01*
Y0087969D01*
X0092587Y0088069D01*
X0092887D01*
X0092287Y0087469D02*
Y0087869D01*
X0092087Y0088069D01*
X0091887Y0087869D01*
Y0087469D01*
Y0087769D01*
X0092287D01*
X0091387Y0087469D02*
Y0088069D01*
X0091687Y0087769D01*
X0091287D01*
X0087437Y0125719D02*
Y0125119D01*
X0087137D01*
X0087037Y0125219D01*
Y0125619D01*
X0087137Y0125719D01*
X0087437D01*
X0086837Y0125119D02*
Y0125519D01*
X0086637Y0125719D01*
X0086437Y0125519D01*
Y0125119D01*
Y0125419D01*
X0086837D01*
X0086237Y0125619D02*
X0086137Y0125719D01*
X0085937D01*
X0085837Y0125619D01*
Y0125519D01*
X0085937Y0125419D01*
X0086037D01*
X0085937D01*
X0085837Y0125319D01*
Y0125219D01*
X0085937Y0125119D01*
X0086137D01*
X0086237Y0125219D01*
X0100362Y0083594D02*
Y0082994D01*
X0100062D01*
X0099962Y0083094D01*
Y0083494D01*
X0100062Y0083594D01*
X0100362D01*
X0099762Y0082994D02*
Y0083394D01*
X0099562Y0083594D01*
X0099362Y0083394D01*
Y0082994D01*
Y0083294D01*
X0099762D01*
X0098762Y0082994D02*
X0099162D01*
X0098762Y0083394D01*
Y0083494D01*
X0098862Y0083594D01*
X0099062D01*
X0099162Y0083494D01*
X0092962Y0083394D02*
Y0082794D01*
X0092662D01*
X0092562Y0082894D01*
Y0083294D01*
X0092662Y0083394D01*
X0092962D01*
X0092362Y0082794D02*
Y0083194D01*
X0092162Y0083394D01*
X0091962Y0083194D01*
Y0082794D01*
Y0083094D01*
X0092362D01*
X0091762Y0082794D02*
X0091562D01*
X0091662D01*
Y0083394D01*
X0091762Y0083294D01*
X0101687Y0130494D02*
X0101787Y0130594D01*
X0101987D01*
X0102087Y0130494D01*
Y0130094D01*
X0101987Y0129994D01*
X0101787D01*
X0101687Y0130094D01*
X0101487Y0130494D02*
X0101387Y0130594D01*
X0101187D01*
X0101087Y0130494D01*
Y0130394D01*
X0101187Y0130294D01*
X0101287D01*
X0101187D01*
X0101087Y0130194D01*
Y0130094D01*
X0101187Y0129994D01*
X0101387D01*
X0101487Y0130094D01*
X0100887Y0130494D02*
X0100787Y0130594D01*
X0100587D01*
X0100487Y0130494D01*
Y0130394D01*
X0100587Y0130294D01*
X0100487Y0130194D01*
Y0130094D01*
X0100587Y0129994D01*
X0100787D01*
X0100887Y0130094D01*
Y0130194D01*
X0100787Y0130294D01*
X0100887Y0130394D01*
Y0130494D01*
X0100787Y0130294D02*
X0100587D01*
X0109137Y0130444D02*
X0109237Y0130544D01*
X0109437D01*
X0109537Y0130444D01*
Y0130044D01*
X0109437Y0129944D01*
X0109237D01*
X0109137Y0130044D01*
X0108937Y0130444D02*
X0108837Y0130544D01*
X0108637D01*
X0108537Y0130444D01*
Y0130344D01*
X0108637Y0130244D01*
X0108737D01*
X0108637D01*
X0108537Y0130144D01*
Y0130044D01*
X0108637Y0129944D01*
X0108837D01*
X0108937Y0130044D01*
X0107937Y0130544D02*
X0108337D01*
Y0130244D01*
X0108137Y0130344D01*
X0108037D01*
X0107937Y0130244D01*
Y0130044D01*
X0108037Y0129944D01*
X0108237D01*
X0108337Y0130044D01*
X0115306Y0123327D02*
X0115406Y0123227D01*
Y0123027D01*
X0115306Y0122927D01*
X0114906D01*
X0114806Y0123027D01*
Y0123227D01*
X0114906Y0123327D01*
X0115306Y0123527D02*
X0115406Y0123627D01*
Y0123827D01*
X0115306Y0123927D01*
X0115206D01*
X0115106Y0123827D01*
Y0123727D01*
Y0123827D01*
X0115006Y0123927D01*
X0114906D01*
X0114806Y0123827D01*
Y0123627D01*
X0114906Y0123527D01*
X0114806Y0124427D02*
X0115406D01*
X0115106Y0124127D01*
Y0124527D01*
X0115162Y0127519D02*
X0115262Y0127419D01*
Y0127219D01*
X0115162Y0127119D01*
X0114762D01*
X0114662Y0127219D01*
Y0127419D01*
X0114762Y0127519D01*
X0115162Y0127719D02*
X0115262Y0127819D01*
Y0128019D01*
X0115162Y0128118D01*
X0115062D01*
X0114962Y0128019D01*
Y0127919D01*
Y0128019D01*
X0114862Y0128118D01*
X0114762D01*
X0114662Y0128019D01*
Y0127819D01*
X0114762Y0127719D01*
X0115162Y0128318D02*
X0115262Y0128418D01*
Y0128618D01*
X0115162Y0128718D01*
X0115062D01*
X0114962Y0128618D01*
Y0128518D01*
Y0128618D01*
X0114862Y0128718D01*
X0114762D01*
X0114662Y0128618D01*
Y0128418D01*
X0114762Y0128318D01*
X0095537Y0117569D02*
X0095637Y0117469D01*
Y0117269D01*
X0095537Y0117169D01*
X0095137D01*
X0095037Y0117269D01*
Y0117469D01*
X0095137Y0117569D01*
X0095537Y0117769D02*
X0095637Y0117869D01*
Y0118069D01*
X0095537Y0118168D01*
X0095437D01*
X0095337Y0118069D01*
Y0117969D01*
Y0118069D01*
X0095237Y0118168D01*
X0095137D01*
X0095037Y0118069D01*
Y0117869D01*
X0095137Y0117769D01*
X0095037Y0118768D02*
Y0118368D01*
X0095437Y0118768D01*
X0095537D01*
X0095637Y0118668D01*
Y0118468D01*
X0095537Y0118368D01*
X009933Y0120369D02*
X009943Y0120269D01*
Y0120069D01*
X009933Y0119969D01*
X009893D01*
X009883Y0120069D01*
Y0120269D01*
X009893Y0120369D01*
X009933Y0120569D02*
X009943Y0120669D01*
Y0120869D01*
X009933Y0120968D01*
X009923D01*
X009913Y0120869D01*
Y0120769D01*
Y0120869D01*
X009903Y0120968D01*
X009893D01*
X009883Y0120869D01*
Y0120669D01*
X009893Y0120569D01*
X009933Y0121168D02*
X009943Y0121268D01*
Y0121468D01*
X009933Y0121568D01*
X009893D01*
X009883Y0121468D01*
Y0121268D01*
X009893Y0121168D01*
X009933D01*
X0099337Y0117394D02*
X0099437Y0117294D01*
Y0117094D01*
X0099337Y0116994D01*
X0098937D01*
X0098837Y0117094D01*
Y0117294D01*
X0098937Y0117394D01*
X0098837Y0117993D02*
Y0117594D01*
X0099237Y0117993D01*
X0099337D01*
X0099437Y0117894D01*
Y0117694D01*
X0099337Y0117594D01*
Y0118193D02*
X0099437Y0118293D01*
Y0118493D01*
X0099337Y0118593D01*
X0099237D01*
X0099137Y0118493D01*
X0099037Y0118593D01*
X0098937D01*
X0098837Y0118493D01*
Y0118293D01*
X0098937Y0118193D01*
X0099037D01*
X0099137Y0118293D01*
X0099237Y0118193D01*
X0099337D01*
X0099137Y0118293D02*
Y0118493D01*
X0089912Y0103569D02*
X0090012Y0103669D01*
X0090212D01*
X0090312Y0103569D01*
Y0103169D01*
X0090212Y0103069D01*
X0090012D01*
X0089912Y0103169D01*
X0089312Y0103069D02*
X0089712D01*
X0089312Y0103469D01*
Y0103569D01*
X0089412Y0103669D01*
X0089612D01*
X0089712Y0103569D01*
X0089112Y0103069D02*
X0088912D01*
X0089012D01*
Y0103669D01*
X0089112Y0103569D01*
X0103587Y0104769D02*
X0103687Y0104669D01*
Y0104469D01*
X0103587Y0104369D01*
X0103187D01*
X0103087Y0104469D01*
Y0104669D01*
X0103187Y0104769D01*
X0103087Y0105368D02*
Y0104969D01*
X0103487Y0105368D01*
X0103587D01*
X0103687Y0105269D01*
Y0105069D01*
X0103587Y0104969D01*
Y0105568D02*
X0103687Y0105668D01*
Y0105868D01*
X0103587Y0105968D01*
X0103187D01*
X0103087Y0105868D01*
Y0105668D01*
X0103187Y0105568D01*
X0103587D01*
X0095162Y0109594D02*
X0095262Y0109694D01*
X0095462D01*
X0095562Y0109594D01*
Y0109194D01*
X0095462Y0109094D01*
X0095262D01*
X0095162Y0109194D01*
X0094962Y0109094D02*
X0094762D01*
X0094862D01*
Y0109694D01*
X0094962Y0109594D01*
X0094462Y0109194D02*
X0094362Y0109094D01*
X0094162D01*
X0094062Y0109194D01*
Y0109594D01*
X0094162Y0109694D01*
X0094362D01*
X0094462Y0109594D01*
Y0109494D01*
X0094362Y0109394D01*
X0094062D01*
X0092537Y0101869D02*
X0092637Y0101969D01*
X0092837D01*
X0092937Y0101869D01*
Y0101469D01*
X0092837Y0101369D01*
X0092637D01*
X0092537Y0101469D01*
X0092337Y0101369D02*
X0092137D01*
X0092237D01*
Y0101969D01*
X0092337Y0101869D01*
X0091837D02*
X0091737Y0101969D01*
X0091537D01*
X0091437Y0101869D01*
Y0101769D01*
X0091537Y0101669D01*
X0091437Y0101569D01*
Y0101469D01*
X0091537Y0101369D01*
X0091737D01*
X0091837Y0101469D01*
Y0101569D01*
X0091737Y0101669D01*
X0091837Y0101769D01*
Y0101869D01*
X0091737Y0101669D02*
X0091537D01*
X0084787Y0117494D02*
X0084887Y0117394D01*
Y0117194D01*
X0084787Y0117094D01*
X0084387D01*
X0084287Y0117194D01*
Y0117394D01*
X0084387Y0117494D01*
X0084287Y0117694D02*
Y0117894D01*
Y0117794D01*
X0084887D01*
X0084787Y0117694D01*
X0084887Y0118193D02*
Y0118593D01*
X0084787D01*
X0084387Y0118193D01*
X0084287D01*
X0084887Y0105169D02*
X0084987Y0105269D01*
X0085187D01*
X0085287Y0105169D01*
Y0104769D01*
X0085187Y0104669D01*
X0084987D01*
X0084887Y0104769D01*
X0084687Y0104669D02*
X0084487D01*
X0084587D01*
Y0105269D01*
X0084687Y0105169D01*
X0083787Y0105269D02*
X0083987Y0105169D01*
X0084187Y0104969D01*
Y0104769D01*
X0084087Y0104669D01*
X0083887D01*
X0083787Y0104769D01*
Y0104869D01*
X0083887Y0104969D01*
X0084187D01*
X0084787Y0112644D02*
X0084887Y0112744D01*
X0085087D01*
X0085187Y0112644D01*
Y0112244D01*
X0085087Y0112144D01*
X0084887D01*
X0084787Y0112244D01*
X0084587Y0112144D02*
X0084387D01*
X0084487D01*
Y0112744D01*
X0084587Y0112644D01*
X0083687Y0112744D02*
X0084087D01*
Y0112444D01*
X0083887Y0112544D01*
X0083787D01*
X0083687Y0112444D01*
Y0112244D01*
X0083787Y0112144D01*
X0083987D01*
X0084087Y0112244D01*
X0089862Y0087744D02*
X0089962Y0087844D01*
X0090162D01*
X0090262Y0087744D01*
Y0087344D01*
X0090162Y0087244D01*
X0089962D01*
X0089862Y0087344D01*
X0089662Y0087244D02*
X0089462D01*
X0089562D01*
Y0087844D01*
X0089662Y0087744D01*
X0088862Y0087244D02*
Y0087844D01*
X0089162Y0087544D01*
X0088762D01*
X0083562Y0129644D02*
X0083662Y0129744D01*
X0083862D01*
X0083962Y0129644D01*
Y0129244D01*
X0083862Y0129144D01*
X0083662D01*
X0083562Y0129244D01*
X0083362Y0129144D02*
X0083162D01*
X0083262D01*
Y0129744D01*
X0083362Y0129644D01*
X0082862D02*
X0082762Y0129744D01*
X0082562D01*
X0082462Y0129644D01*
Y0129544D01*
X0082562Y0129444D01*
X0082662D01*
X0082562D01*
X0082462Y0129344D01*
Y0129244D01*
X0082562Y0129144D01*
X0082762D01*
X0082862Y0129244D01*
X0096112Y0097444D02*
X0096212Y0097544D01*
X0096412D01*
X0096512Y0097444D01*
Y0097044D01*
X0096412Y0096944D01*
X0096212D01*
X0096112Y0097044D01*
X0095912Y0096944D02*
X0095712D01*
X0095812D01*
Y0097544D01*
X0095912Y0097444D01*
X0095012Y0096944D02*
X0095412D01*
X0095012Y0097344D01*
Y0097444D01*
X0095112Y0097544D01*
X0095312D01*
X0095412Y0097444D01*
X0098487Y0084494D02*
X0098587Y0084394D01*
Y0084194D01*
X0098487Y0084094D01*
X0098087D01*
X0097987Y0084194D01*
Y0084394D01*
X0098087Y0084494D01*
X0097987Y0084694D02*
Y0084894D01*
Y0084794D01*
X0098587D01*
X0098487Y0084694D01*
X0097987Y0085193D02*
Y0085393D01*
Y0085293D01*
X0098587D01*
X0098487Y0085193D01*
X0087862Y0116269D02*
X0087962Y0116369D01*
X0088162D01*
X0088262Y0116269D01*
Y0115869D01*
X0088162Y0115769D01*
X0087962D01*
X0087862Y0115869D01*
X0087662Y0115769D02*
X0087462D01*
X0087562D01*
Y0116369D01*
X0087662Y0116269D01*
X0087162D02*
X0087062Y0116369D01*
X0086862D01*
X0086762Y0116269D01*
Y0115869D01*
X0086862Y0115769D01*
X0087062D01*
X0087162Y0115869D01*
Y0116269D01*
X0103787Y0084544D02*
X0103887Y0084644D01*
X0104087D01*
X0104187Y0084544D01*
Y0084144D01*
X0104087Y0084044D01*
X0103887D01*
X0103787Y0084144D01*
X0103587D02*
X0103487Y0084044D01*
X0103287D01*
X0103187Y0084144D01*
Y0084544D01*
X0103287Y0084644D01*
X0103487D01*
X0103587Y0084544D01*
Y0084444D01*
X0103487Y0084344D01*
X0103187D01*
X0103837Y0085969D02*
X0103937Y0086069D01*
X0104137D01*
X0104237Y0085969D01*
Y0085569D01*
X0104137Y0085469D01*
X0103937D01*
X0103837Y0085569D01*
X0103637Y0085969D02*
X0103537Y0086069D01*
X0103337D01*
X0103237Y0085969D01*
Y0085869D01*
X0103337Y0085769D01*
X0103237Y0085669D01*
Y0085569D01*
X0103337Y0085469D01*
X0103537D01*
X0103637Y0085569D01*
Y0085669D01*
X0103537Y0085769D01*
X0103637Y0085869D01*
Y0085969D01*
X0103537Y0085769D02*
X0103337D01*
X0095887Y0081394D02*
X0095987Y0081294D01*
Y0081094D01*
X0095887Y0080994D01*
X0095487D01*
X0095387Y0081094D01*
Y0081294D01*
X0095487Y0081394D01*
X0095987Y0081594D02*
Y0081993D01*
X0095887D01*
X0095487Y0081594D01*
X0095387D01*
X0089987Y0130419D02*
X0090087Y0130519D01*
X0090287D01*
X0090387Y0130419D01*
Y0130019D01*
X0090287Y0129919D01*
X0090087D01*
X0089987Y0130019D01*
X0089387Y0130519D02*
X0089587Y0130419D01*
X0089787Y0130219D01*
Y0130019D01*
X0089687Y0129919D01*
X0089487D01*
X0089387Y0130019D01*
Y0130119D01*
X0089487Y0130219D01*
X0089787D01*
X0095237Y0087194D02*
X0095337Y0087294D01*
X0095537D01*
X0095637Y0087194D01*
Y0086794D01*
X0095537Y0086694D01*
X0095337D01*
X0095237Y0086794D01*
X0094637Y0087294D02*
X0095037D01*
Y0086994D01*
X0094837Y0087094D01*
X0094737D01*
X0094637Y0086994D01*
Y0086794D01*
X0094737Y0086694D01*
X0094937D01*
X0095037Y0086794D01*
X0097037Y0079294D02*
X0097137Y0079394D01*
X0097337D01*
X0097437Y0079294D01*
Y0078894D01*
X0097337Y0078794D01*
X0097137D01*
X0097037Y0078894D01*
X0096537Y0078794D02*
Y0079394D01*
X0096837Y0079094D01*
X0096437D01*
X0104554Y0082963D02*
X0104654Y0083063D01*
X0104854D01*
X0104953Y0082963D01*
Y0082563D01*
X0104854Y0082463D01*
X0104654D01*
X0104554Y0082563D01*
X0104354Y0082963D02*
X0104254Y0083063D01*
X0104054D01*
X0103954Y0082963D01*
Y0082863D01*
X0104054Y0082763D01*
X0104154D01*
X0104054D01*
X0103954Y0082663D01*
Y0082563D01*
X0104054Y0082463D01*
X0104254D01*
X0104354Y0082563D01*
X0094737Y0076969D02*
X0094837Y0076869D01*
Y0076669D01*
X0094737Y0076569D01*
X0094337D01*
X0094237Y0076669D01*
Y0076869D01*
X0094337Y0076969D01*
X0094237Y0077568D02*
Y0077169D01*
X0094637Y0077568D01*
X0094737D01*
X0094837Y0077469D01*
Y0077269D01*
X0094737Y0077169D01*
X0103512Y0077794D02*
X0103612Y0077694D01*
Y0077494D01*
X0103512Y0077394D01*
X0103112D01*
X0103012Y0077494D01*
Y0077694D01*
X0103112Y0077794D01*
X0103012Y0077994D02*
Y0078194D01*
Y0078094D01*
X0103612D01*
X0103512Y0077994D01*
D83*
X0114067Y0121826D02*
G03*
X0114067Y0121826I-0000025J0D01*
G01*
X0095094Y0106094D02*
G03*
X0095094Y0106094I-0000127J0D01*
G01*
M02*
