G04 Layer_Physical_Order=3*
G04 Layer_Color=16440176*
%FSTAX43Y43*%
%MOMM*%
G71*
G01*
G75*
%ADD32C,0.300*%
%ADD34C,1.500*%
%ADD35C,0.600*%
G36*
X0116707Y0094149D02*
X0101512D01*
X0101499Y0094146D01*
X0101487Y0094147D01*
X010138Y0094137D01*
X0101344Y0094126D01*
X0101307Y0094119D01*
X0101109Y0094037D01*
X0101109D01*
X0101076Y0094014D01*
X0101026Y0093981D01*
X0101026Y0093981D01*
X0100874Y009383D01*
X0100819Y0093747D01*
X0100737Y0093549D01*
X0100717Y0093451D01*
Y0093237D01*
X0100737Y0093139D01*
X0100819Y0092941D01*
Y0092941D01*
X0100841Y0092908D01*
X0100874Y0092858D01*
X0100874Y0092858D01*
X0101026Y0092706D01*
X0101109Y0092651D01*
X0101307Y0092569D01*
X0101344Y0092562D01*
X010138Y0092551D01*
X0101487Y009254D01*
X0101499Y0092541D01*
X0101512Y0092539D01*
X0106207D01*
Y0057344D01*
X0100492D01*
X0100492Y0061639D01*
X0101712D01*
X0101809Y0061658D01*
X0101892Y0061714D01*
X0101947Y0061796D01*
X0101967Y0061894D01*
Y0065639D01*
X0103612D01*
X0103624Y0065641D01*
X0103637Y006564D01*
X0103744Y0065651D01*
X010378Y0065662D01*
X0103817Y0065669D01*
X0104015Y0065751D01*
X0104015D01*
X0104048Y0065773D01*
X0104098Y0065806D01*
X0104098Y0065806D01*
X0104249Y0065958D01*
X0104305Y0066041D01*
X0104387Y0066239D01*
X0104394Y0066276D01*
X0104405Y0066312D01*
X0104415Y0066419D01*
X0104413Y0066444D01*
X0104415Y0066469D01*
X0104405Y0066576D01*
X0104394Y0066612D01*
X0104387Y0066649D01*
X0104305Y0066847D01*
Y0066847D01*
X0104282Y006688D01*
X0104249Y006693D01*
X0104249Y006693D01*
X0104098Y0067081D01*
X0104015Y0067137D01*
X0103817Y0067219D01*
X010378Y0067226D01*
X0103744Y0067237D01*
X0103637Y0067247D01*
X0103624Y0067246D01*
X0103612Y0067249D01*
X0101967D01*
Y0074317D01*
X0102042Y0074415D01*
X0102137Y0074646D01*
X010217Y0074894D01*
X0102137Y0075142D01*
X0102042Y0075373D01*
X0101924Y0075526D01*
X0101892Y0075574D01*
X0101844Y0075606D01*
X0101691Y0075724D01*
X010146Y0075819D01*
X0101212Y0075852D01*
X0100964Y0075819D01*
X0100733Y0075724D01*
X0100635Y0075649D01*
X0093289D01*
X0093191Y0075724D01*
X009296Y0075819D01*
X0092712Y0075852D01*
X0092464Y0075819D01*
X0092233Y0075724D01*
X0092079Y0075606D01*
X0092032Y0075574D01*
X0092Y0075526D01*
X0091882Y0075373D01*
X0091786Y0075142D01*
X0091754Y0074894D01*
X0091786Y0074646D01*
X0091882Y0074415D01*
X0091957Y0074317D01*
Y0067249D01*
X0090312D01*
X0090299Y0067246D01*
X0090287Y0067247D01*
X009018Y0067237D01*
X0090144Y0067226D01*
X0090107Y0067219D01*
X0089909Y0067137D01*
X0089909D01*
X0089876Y0067114D01*
X0089826Y0067081D01*
X0089826Y0067081D01*
X0089674Y006693D01*
X0089619Y0066847D01*
X0089537Y0066649D01*
X008953Y0066612D01*
X0089519Y0066576D01*
X0089508Y0066469D01*
X0089511Y0066444D01*
X0089508Y0066419D01*
X0089519Y0066312D01*
X008953Y0066276D01*
X0089537Y0066239D01*
X0089619Y0066041D01*
Y0066041D01*
X0089641Y0066008D01*
X0089674Y0065958D01*
X0089674Y0065958D01*
X0089826Y0065806D01*
X0089909Y0065751D01*
X0090107Y0065669D01*
X0090144Y0065662D01*
X009018Y0065651D01*
X0090287Y006564D01*
X0090299Y0065641D01*
X0090312Y0065639D01*
X0091957D01*
Y0061894D01*
X0091976Y0061796D01*
X0092032Y0061714D01*
X0092114Y0061658D01*
X0092212Y0061639D01*
X0093457D01*
Y0057344D01*
X0087717D01*
Y0093894D01*
X0087697Y0093991D01*
X0087642Y0094074D01*
X0087559Y0094129D01*
X0087462Y0094149D01*
X0077217D01*
Y0141639D01*
X0116707D01*
Y0094149D01*
D02*
G37*
%LPC*%
G36*
X0086962Y0137852D02*
X0086714Y0137819D01*
X0086483Y0137724D01*
X0086386Y0137649D01*
X0087052Y0136984D01*
X0087717Y0136318D01*
X0087792Y0136415D01*
X0087887Y0136646D01*
X008792Y0136894D01*
X0087887Y0137142D01*
X0087792Y0137373D01*
X0087639Y0137571D01*
X0087441Y0137724D01*
X008721Y0137819D01*
X0086962Y0137852D01*
D02*
G37*
G36*
X0106962D02*
X0106714Y0137819D01*
X0106483Y0137724D01*
X0106284Y0137571D01*
X0106132Y0137373D01*
X0106036Y0137142D01*
X0106004Y0136894D01*
X0106036Y0136646D01*
X0106132Y0136415D01*
X0106284Y0136216D01*
X0106483Y0136064D01*
X0106714Y0135968D01*
X0106962Y0135936D01*
X010721Y0135968D01*
X0107441Y0136064D01*
X0107639Y0136216D01*
X0107792Y0136415D01*
X0107887Y0136646D01*
X010792Y0136894D01*
X0107887Y0137142D01*
X0107792Y0137373D01*
X0107639Y0137571D01*
X0107441Y0137724D01*
X010721Y0137819D01*
X0106962Y0137852D01*
D02*
G37*
G36*
X0101962D02*
X0101714Y0137819D01*
X0101483Y0137724D01*
X0101284Y0137571D01*
X0101132Y0137373D01*
X0101036Y0137142D01*
X0101004Y0136894D01*
X0101036Y0136646D01*
X0101132Y0136415D01*
X0101284Y0136216D01*
X0101483Y0136064D01*
X0101714Y0135968D01*
X0101962Y0135936D01*
X010221Y0135968D01*
X0102441Y0136064D01*
X0102639Y0136216D01*
X0102792Y0136415D01*
X0102887Y0136646D01*
X010292Y0136894D01*
X0102887Y0137142D01*
X0102792Y0137373D01*
X0102639Y0137571D01*
X0102441Y0137724D01*
X010221Y0137819D01*
X0101962Y0137852D01*
D02*
G37*
G36*
X0096962D02*
X0096714Y0137819D01*
X0096483Y0137724D01*
X0096284Y0137571D01*
X0096132Y0137373D01*
X0096036Y0137142D01*
X0096004Y0136894D01*
X0096036Y0136646D01*
X0096132Y0136415D01*
X0096284Y0136216D01*
X0096483Y0136064D01*
X0096714Y0135968D01*
X0096962Y0135936D01*
X009721Y0135968D01*
X0097441Y0136064D01*
X0097639Y0136216D01*
X0097792Y0136415D01*
X0097887Y0136646D01*
X009792Y0136894D01*
X0097887Y0137142D01*
X0097792Y0137373D01*
X0097639Y0137571D01*
X0097441Y0137724D01*
X009721Y0137819D01*
X0096962Y0137852D01*
D02*
G37*
G36*
X0091962D02*
X0091714Y0137819D01*
X0091483Y0137724D01*
X0091284Y0137571D01*
X0091132Y0137373D01*
X0091036Y0137142D01*
X0091004Y0136894D01*
X0091036Y0136646D01*
X0091132Y0136415D01*
X0091284Y0136216D01*
X0091483Y0136064D01*
X0091714Y0135968D01*
X0091962Y0135936D01*
X009221Y0135968D01*
X0092441Y0136064D01*
X0092639Y0136216D01*
X0092792Y0136415D01*
X0092887Y0136646D01*
X009292Y0136894D01*
X0092887Y0137142D01*
X0092792Y0137373D01*
X0092639Y0137571D01*
X0092441Y0137724D01*
X009221Y0137819D01*
X0091962Y0137852D01*
D02*
G37*
G36*
X0086206Y013747D02*
X0086132Y0137373D01*
X0086036Y0137142D01*
X0086004Y0136894D01*
X0086036Y0136646D01*
X0086132Y0136415D01*
X0086284Y0136216D01*
X0086483Y0136064D01*
X0086714Y0135968D01*
X0086962Y0135936D01*
X008721Y0135968D01*
X0087441Y0136064D01*
X0087538Y0136138D01*
X0086872Y0136804D01*
X0086206Y013747D01*
D02*
G37*
G36*
X0087437Y0135304D02*
X0087242Y0135265D01*
X0087076Y0135154D01*
X0086966Y0134989D01*
X0086927Y0134794D01*
X0086927Y0134794D01*
X0086926Y0134792D01*
X0086919Y0134782D01*
X008691Y0134772D01*
X0086649Y0134511D01*
X0086708Y0134599D01*
X0086747Y0134794D01*
X0086708Y0134989D01*
X0086597Y0135154D01*
X0086432Y0135265D01*
X0086237Y0135304D01*
X0086042Y0135265D01*
X0085876Y0135154D01*
X0085766Y0134989D01*
X0085727Y0134794D01*
X0085766Y0134599D01*
X0085876Y0134433D01*
X0086042Y0134323D01*
X0086237Y0134284D01*
X0086432Y0134323D01*
X008652Y0134382D01*
X0083406Y0131267D01*
X00834Y0131263D01*
X0083389Y0131255D01*
X0083387Y0131254D01*
X0083387Y0131254D01*
X0083192Y0131215D01*
X0083026Y0131104D01*
X0082916Y0130939D01*
X0082877Y0130744D01*
X0082916Y0130549D01*
X0083026Y0130383D01*
X0083192Y0130273D01*
X0083387Y0130234D01*
X0083582Y0130273D01*
X0083747Y0130383D01*
X0083858Y0130549D01*
X0083897Y0130744D01*
X0083897Y0130744D01*
X0083898Y0130746D01*
X0083905Y0130755D01*
X0083913Y0130766D01*
X0087418Y013427D01*
X0087423Y0134275D01*
X0087435Y0134283D01*
X0087437Y0134284D01*
X0087437Y0134284D01*
X0087632Y0134323D01*
X0087797Y0134433D01*
X0087908Y0134599D01*
X0087947Y0134794D01*
X0087908Y0134989D01*
X0087797Y0135154D01*
X0087632Y0135265D01*
X0087437Y0135304D01*
D02*
G37*
G36*
X0089437Y0131604D02*
X0089242Y0131565D01*
X0089076Y0131454D01*
X0088966Y0131289D01*
X0088927Y0131094D01*
X0088966Y0130899D01*
X0089076Y0130733D01*
X0089242Y0130623D01*
X0089437Y0130584D01*
X0089632Y0130623D01*
X0089797Y0130733D01*
X0089908Y0130899D01*
X0089947Y0131094D01*
X0089908Y0131289D01*
X0089797Y0131454D01*
X0089632Y0131565D01*
X0089437Y0131604D01*
D02*
G37*
G36*
X0081637Y0129754D02*
X0081442Y0129715D01*
X0081276Y0129604D01*
X0081166Y0129439D01*
X0081127Y0129244D01*
X0081166Y0129049D01*
X0081276Y0128883D01*
X0081442Y0128773D01*
X0081637Y0128734D01*
X0081832Y0128773D01*
X0081997Y0128883D01*
X0082108Y0129049D01*
X0082147Y0129244D01*
X0082108Y0129439D01*
X0081997Y0129604D01*
X0081832Y0129715D01*
X0081637Y0129754D01*
D02*
G37*
G36*
X0088437Y0126729D02*
X0088242Y012669D01*
X0088076Y0126579D01*
X0087966Y0126414D01*
X0087927Y0126219D01*
X0087966Y0126024D01*
X0088076Y0125858D01*
X0088242Y0125748D01*
X0088437Y0125709D01*
X0088632Y0125748D01*
X0088797Y0125858D01*
X0088908Y0126024D01*
X0088947Y0126219D01*
X0088908Y0126414D01*
X0088797Y0126579D01*
X0088632Y012669D01*
X0088437Y0126729D01*
D02*
G37*
G36*
X0110662Y0126554D02*
X0110467Y0126515D01*
X0110301Y0126404D01*
X0110191Y0126239D01*
X0110152Y0126044D01*
X0110191Y0125849D01*
X0110301Y0125683D01*
X0110467Y0125573D01*
X0110662Y0125534D01*
X0110857Y0125573D01*
X0111022Y0125683D01*
X0111133Y0125849D01*
X0111172Y0126044D01*
X0111133Y0126239D01*
X0111022Y0126404D01*
X0110857Y0126515D01*
X0110662Y0126554D01*
D02*
G37*
G36*
X0089237Y0125754D02*
X0089042Y0125715D01*
X0088876Y0125604D01*
X0088766Y0125439D01*
X0088727Y0125244D01*
X0088766Y0125049D01*
X0088876Y0124883D01*
X0089042Y0124773D01*
X0089237Y0124734D01*
X0089432Y0124773D01*
X0089597Y0124883D01*
X0089708Y0125049D01*
X0089747Y0125244D01*
X0089708Y0125439D01*
X0089597Y0125604D01*
X0089432Y0125715D01*
X0089237Y0125754D01*
D02*
G37*
G36*
X0097487Y0123004D02*
X0097292Y0122965D01*
X0097126Y0122854D01*
X0097016Y0122689D01*
X0096977Y0122494D01*
X0097016Y0122299D01*
X0097126Y0122133D01*
X0097292Y0122023D01*
X0097487Y0121984D01*
X0097682Y0122023D01*
X0097847Y0122133D01*
X0097958Y0122299D01*
X0097997Y0122494D01*
X0097958Y0122689D01*
X0097847Y0122854D01*
X0097682Y0122965D01*
X0097487Y0123004D01*
D02*
G37*
G36*
X0085037Y0122854D02*
X0084842Y0122815D01*
X0084676Y0122704D01*
X0084566Y0122539D01*
X0084527Y0122344D01*
X0084566Y0122149D01*
X0084676Y0121983D01*
X0084842Y0121873D01*
X0085037Y0121834D01*
X0085232Y0121873D01*
X0085397Y0121983D01*
X0085508Y0122149D01*
X0085547Y0122344D01*
X0085508Y0122539D01*
X0085397Y0122704D01*
X0085232Y0122815D01*
X0085037Y0122854D01*
D02*
G37*
G36*
X0100812Y0126354D02*
X0100617Y0126315D01*
X0100451Y0126204D01*
X0100341Y0126039D01*
X0100302Y0125844D01*
X0100341Y0125649D01*
X0100451Y0125483D01*
X0100617Y0125373D01*
X0100812Y0125334D01*
X0100812Y0125334D01*
X0100814Y0125333D01*
X0100823Y0125326D01*
X010083Y012532D01*
Y0117494D01*
X0100857Y0117357D01*
X0100934Y0117241D01*
X010148Y0116696D01*
Y0115827D01*
X0101479Y0115821D01*
X0101477Y0115807D01*
X0101476Y0115804D01*
X0101476Y0115804D01*
X0101366Y0115639D01*
X0101327Y0115444D01*
X0101364Y0115259D01*
X0101267Y011524D01*
X0101101Y0115129D01*
X0100991Y0114964D01*
X0100952Y0114769D01*
X0100991Y0114574D01*
X0101101Y0114408D01*
X0101267Y0114298D01*
X0101462Y0114259D01*
X0101657Y0114298D01*
X0101822Y0114408D01*
X0101933Y0114574D01*
X0101972Y0114769D01*
X0101935Y0114954D01*
X0102032Y0114973D01*
X0102197Y0115083D01*
X0102308Y0115249D01*
X0102347Y0115444D01*
X0102308Y0115639D01*
X0102197Y0115804D01*
X0102197Y0115804D01*
X0102197Y0115807D01*
X0102195Y0115818D01*
X0102194Y0115831D01*
Y0116844D01*
X0102166Y011698D01*
X0102089Y0117096D01*
X0101544Y0117642D01*
Y0121713D01*
X0101567Y0121698D01*
X0101762Y0121659D01*
X0101957Y0121698D01*
X0102122Y0121808D01*
X0102233Y0121974D01*
X0102272Y0122169D01*
X0102233Y0122364D01*
X0102122Y0122529D01*
X0101957Y012264D01*
X0101762Y0122679D01*
X0101567Y012264D01*
X0101544Y0122624D01*
Y0125469D01*
X0101516Y0125605D01*
X0101439Y0125721D01*
X0101335Y0125825D01*
X0101331Y012583D01*
X0101323Y0125842D01*
X0101322Y0125844D01*
X0101322Y0125844D01*
X0101283Y0126039D01*
X0101172Y0126204D01*
X0101007Y0126315D01*
X0100812Y0126354D01*
D02*
G37*
G36*
X0092787Y0127654D02*
X0092592Y0127615D01*
X0092426Y0127504D01*
X0092316Y0127339D01*
X0092277Y0127144D01*
X0092277Y0127144D01*
X0092276Y0127142D01*
X0092269Y0127132D01*
X009226Y0127122D01*
X0091934Y0126796D01*
X0091857Y012668D01*
X009183Y0126544D01*
Y0120968D01*
X0091822Y0120979D01*
X0091657Y012109D01*
X0091462Y0121129D01*
X0091267Y012109D01*
X0091101Y0120979D01*
X0090991Y0120814D01*
X0090952Y0120619D01*
X0090991Y0120424D01*
X0091101Y0120258D01*
X0091267Y0120148D01*
X0091462Y0120109D01*
X0091657Y0120148D01*
X0091822Y0120258D01*
X009183Y012027D01*
Y0117428D01*
X0091808Y0117539D01*
X0091697Y0117704D01*
X0091532Y0117815D01*
X0091337Y0117854D01*
X0091142Y0117815D01*
X0090976Y0117704D01*
X0090866Y0117539D01*
X0090827Y0117344D01*
X0090866Y0117149D01*
X0090976Y0116983D01*
X0090976Y0116983D01*
X0090977Y0116981D01*
X0090979Y0116969D01*
X009098Y0116956D01*
Y0105743D01*
X0090872Y0105904D01*
X0090707Y0106015D01*
X0090512Y0106054D01*
X0090317Y0106015D01*
X0090151Y0105904D01*
X0090041Y0105739D01*
X0090002Y0105544D01*
X0090041Y0105349D01*
X0090151Y0105183D01*
X0090317Y0105073D01*
X0090512Y0105034D01*
X0090707Y0105073D01*
X0090872Y0105183D01*
X009098Y0105344D01*
Y0102044D01*
X0091007Y0101907D01*
X0091084Y0101791D01*
X0091605Y0101271D01*
Y0091902D01*
X0091604Y0091896D01*
X0091602Y0091882D01*
X0091601Y0091879D01*
X0091601Y0091879D01*
X0091569Y009183D01*
Y0101019D01*
X0091541Y0101155D01*
X0091464Y0101271D01*
X009091Y0101825D01*
X0090906Y010183D01*
X0090898Y0101842D01*
X0090897Y0101844D01*
X0090897Y0101844D01*
X0090858Y0102039D01*
X0090747Y0102204D01*
X0090582Y0102315D01*
X0090387Y0102354D01*
X0090192Y0102315D01*
X0090026Y0102204D01*
X0089916Y0102039D01*
X0089877Y0101844D01*
X0089916Y0101649D01*
X0090026Y0101483D01*
X0090192Y0101373D01*
X0090387Y0101334D01*
X0090387Y0101334D01*
X0090389Y0101333D01*
X0090398Y0101326D01*
X0090409Y0101317D01*
X0090855Y0100871D01*
Y0090427D01*
X0090854Y0090421D01*
X0090852Y0090407D01*
X0090851Y0090404D01*
X0090851Y0090404D01*
X0090741Y0090239D01*
X0090702Y0090044D01*
X0090741Y0089849D01*
X0090851Y0089683D01*
X0091017Y0089573D01*
X0091212Y0089534D01*
X0091407Y0089573D01*
X0091572Y0089683D01*
X0091683Y0089849D01*
X0091722Y0090044D01*
X0091683Y0090239D01*
X0091572Y0090404D01*
X0091572Y0090404D01*
X0091572Y0090407D01*
X009157Y0090418D01*
X0091569Y0090431D01*
Y0091207D01*
X0091601Y0091158D01*
X0091767Y0091048D01*
X0091962Y0091009D01*
X0092157Y0091048D01*
X0092322Y0091158D01*
X009233Y009117D01*
Y0086192D01*
X0090234Y0084096D01*
X0090157Y008398D01*
X009013Y0083844D01*
Y0079802D01*
X0090129Y0079796D01*
X0090127Y0079782D01*
X0090126Y0079779D01*
X0090126Y0079779D01*
X0090016Y0079614D01*
X0089977Y0079419D01*
X0090016Y0079224D01*
X0090126Y0079058D01*
X0090292Y0078948D01*
X0090487Y0078909D01*
X0090682Y0078948D01*
X0090847Y0079058D01*
X0090958Y0079224D01*
X0090997Y0079419D01*
X0090958Y0079614D01*
X0090847Y0079779D01*
X0090847Y0079779D01*
X0090847Y0079782D01*
X0090845Y0079793D01*
X0090844Y0079806D01*
Y0083696D01*
X0092939Y0085791D01*
X0093016Y0085907D01*
X0093044Y0086044D01*
Y009125D01*
X0093057Y0091182D01*
X0093134Y0091066D01*
X0094955Y0089246D01*
Y0086567D01*
X0094863Y0086475D01*
X0094897Y0086644D01*
X0094858Y0086839D01*
X0094747Y0087004D01*
X0094582Y0087115D01*
X0094387Y0087154D01*
X0094192Y0087115D01*
X0094026Y0087004D01*
X0093916Y0086839D01*
X0093877Y0086644D01*
X0093877Y0086644D01*
X0093876Y0086642D01*
X0093869Y0086632D01*
X009386Y0086622D01*
X0091234Y0083996D01*
X0091157Y008388D01*
X009113Y0083744D01*
Y0079577D01*
X0091129Y0079571D01*
X0091127Y0079557D01*
X0091126Y0079554D01*
X0091126Y0079554D01*
X0091016Y0079389D01*
X0090977Y0079194D01*
X0091016Y0078999D01*
X0091126Y0078833D01*
X0091292Y0078723D01*
X0091487Y0078684D01*
X0091682Y0078723D01*
X0091847Y0078833D01*
X0091958Y0078999D01*
X0091997Y0079194D01*
X0091958Y0079389D01*
X0091847Y0079554D01*
X0091847Y0079554D01*
X0091847Y0079557D01*
X0091845Y0079568D01*
X0091844Y0079581D01*
Y0083596D01*
X0094368Y008612D01*
X0094373Y0086125D01*
X0094385Y0086133D01*
X0094387Y0086134D01*
X0094387Y0086134D01*
X0094556Y0086168D01*
X0092509Y0084121D01*
X0092432Y0084005D01*
X0092405Y0083869D01*
Y0079042D01*
X0090109Y0076746D01*
X0090032Y007663D01*
X0090005Y0076494D01*
Y0075977D01*
X0090004Y0075971D01*
X0090002Y0075957D01*
X0090001Y0075954D01*
X0090001Y0075954D01*
X0089891Y0075789D01*
X0089852Y0075594D01*
X0089891Y0075399D01*
X0090001Y0075233D01*
X0090167Y0075123D01*
X0090362Y0075084D01*
X0090557Y0075123D01*
X0090722Y0075233D01*
X0090833Y0075399D01*
X0090872Y0075594D01*
X0090833Y0075789D01*
X0090722Y0075954D01*
X0090722Y0075954D01*
X0090722Y0075957D01*
X009072Y0075968D01*
X0090719Y0075981D01*
Y0076346D01*
X0093014Y0078641D01*
X0093091Y0078757D01*
X0093119Y0078894D01*
Y0083721D01*
X0093391Y0083993D01*
X0093332Y0083905D01*
X0093305Y0083769D01*
Y0078767D01*
X0091034Y0076496D01*
X0090957Y007638D01*
X009093Y0076244D01*
Y0075017D01*
X0090608Y0074694D01*
X0090589Y0074679D01*
X0090579Y0074671D01*
X009057Y0074666D01*
X0090566Y0074663D01*
X0090565Y0074663D01*
X009056Y0074661D01*
X0090557Y007466D01*
X0090555Y0074659D01*
X009055Y0074656D01*
X0090467Y007464D01*
X0090301Y0074529D01*
X0090191Y0074364D01*
X0090152Y0074169D01*
X0090191Y0073974D01*
X0090301Y0073808D01*
X0090467Y0073698D01*
X0090662Y0073659D01*
X0090857Y0073698D01*
X0091022Y0073808D01*
X0091133Y0073974D01*
X0091172Y0074169D01*
X0091159Y0074232D01*
X009116Y0074233D01*
X0091164Y0074239D01*
X0091173Y0074251D01*
X0091539Y0074616D01*
X0091616Y0074732D01*
X0091644Y0074869D01*
Y0076096D01*
X0093914Y0078366D01*
X0093991Y0078482D01*
X0094019Y0078619D01*
Y0078982D01*
X0094101Y0078858D01*
X0094267Y0078748D01*
X0094462Y0078709D01*
X0094657Y0078748D01*
X0094822Y0078858D01*
X0094933Y0079024D01*
X0094972Y0079219D01*
X0094933Y0079414D01*
X0094822Y0079579D01*
X0094657Y007969D01*
X0094462Y0079729D01*
X0094267Y007969D01*
X0094101Y0079579D01*
X0094019Y0079456D01*
Y0083621D01*
X0096264Y0085866D01*
X0096341Y0085982D01*
X0096369Y0086119D01*
Y0091269D01*
X0096341Y0091405D01*
X0096264Y0091521D01*
X0095794Y0091992D01*
Y010026D01*
X0095794Y0100267D01*
X0095797Y0100281D01*
X0095797Y0100283D01*
X0095797Y0100283D01*
X0095908Y0100449D01*
X0095947Y0100644D01*
X0095908Y0100839D01*
X0095797Y0101004D01*
X0095632Y0101115D01*
X0095437Y0101154D01*
X0095437Y0101154D01*
X0095435Y0101155D01*
X0095425Y0101162D01*
X0095415Y010117D01*
X0094444Y0102142D01*
Y010247D01*
X0094451Y0102458D01*
X0094617Y0102348D01*
X0094812Y0102309D01*
X0095007Y0102348D01*
X0095172Y0102458D01*
X0095283Y0102624D01*
X0095322Y0102819D01*
X0095283Y0103014D01*
X0095172Y0103179D01*
X0095172Y0103179D01*
X0095172Y0103182D01*
X009517Y0103193D01*
X0095169Y0103206D01*
Y0110771D01*
X0099061Y0114663D01*
X0099052Y0114619D01*
X0099052Y0114619D01*
X0099051Y0114617D01*
X0099044Y0114607D01*
X0099035Y0114597D01*
X0098534Y0114096D01*
X0098457Y011398D01*
X009843Y0113844D01*
Y0103177D01*
X0098429Y0103171D01*
X0098427Y0103157D01*
X0098426Y0103154D01*
X0098426Y0103154D01*
X0098316Y0102989D01*
X0098277Y0102794D01*
X0098316Y0102599D01*
X0098426Y0102433D01*
X0098592Y0102323D01*
X0098787Y0102284D01*
X0098982Y0102323D01*
X0099147Y0102433D01*
X0099258Y0102599D01*
X0099297Y0102794D01*
X0099258Y0102989D01*
X0099147Y0103154D01*
X0099147Y0103154D01*
X0099147Y0103157D01*
X0099145Y0103168D01*
X0099144Y0103181D01*
Y0113696D01*
X0099543Y0114095D01*
X0099548Y01141D01*
X009956Y0114108D01*
X0099562Y0114109D01*
X0099562Y0114109D01*
X0099757Y0114148D01*
X0099922Y0114258D01*
X0100033Y0114424D01*
X0100072Y0114619D01*
X0100033Y0114814D01*
X0099922Y0114979D01*
X0099757Y011509D01*
X0099562Y0115129D01*
X0099517Y011512D01*
X0099614Y0115216D01*
X0099691Y0115332D01*
X0099719Y0115469D01*
Y012416D01*
X0099719Y0124167D01*
X0099722Y0124181D01*
X0099722Y0124183D01*
X0099722Y0124183D01*
X0099833Y0124349D01*
X0099872Y0124544D01*
X0099833Y0124739D01*
X0099722Y0124904D01*
X0099557Y0125015D01*
X0099362Y0125054D01*
X0099167Y0125015D01*
X0099001Y0124904D01*
X0098891Y0124739D01*
X0098852Y0124544D01*
X0098891Y0124349D01*
X0099001Y0124183D01*
X0099001Y0124183D01*
X0099002Y0124181D01*
X0099004Y012417D01*
X0099005Y0124156D01*
Y0115617D01*
X0098644Y0115255D01*
Y0120435D01*
X0098644Y0120442D01*
X0098647Y0120456D01*
X0098647Y0120458D01*
X0098647Y0120458D01*
X0098758Y0120624D01*
X0098797Y0120819D01*
X0098758Y0121014D01*
X0098647Y0121179D01*
X0098482Y012129D01*
X0098287Y0121329D01*
X0098092Y012129D01*
X0097926Y0121179D01*
X0097816Y0121014D01*
X0097777Y0120819D01*
X0097816Y0120624D01*
X0097926Y0120458D01*
X0097926Y0120458D01*
X0097927Y0120456D01*
X0097929Y0120445D01*
X009793Y0120431D01*
Y0115367D01*
X0095469Y0112906D01*
X0095497Y0113044D01*
X0095458Y0113239D01*
X0095347Y0113404D01*
X0095182Y0113515D01*
X0094987Y0113554D01*
X0094792Y0113515D01*
X0094669Y0113433D01*
Y011406D01*
X0094669Y0114067D01*
X0094672Y0114081D01*
X0094672Y0114083D01*
X0094672Y0114083D01*
X0094783Y0114249D01*
X0094822Y0114444D01*
X0094822Y0114444D01*
X0094823Y0114446D01*
X009483Y0114455D01*
X0094838Y0114466D01*
X0096214Y0115841D01*
X0096291Y0115957D01*
X0096319Y0116094D01*
Y0121794D01*
X0096314Y0121819D01*
X0096362Y0121809D01*
X0096557Y0121848D01*
X0096722Y0121958D01*
X0096833Y0122124D01*
X0096872Y0122319D01*
X0096833Y0122514D01*
X0096722Y0122679D01*
X0096557Y012279D01*
X0096362Y0122829D01*
X0096189Y0122794D01*
X0096322Y0122883D01*
X0096433Y0123049D01*
X0096472Y0123244D01*
X0096433Y0123439D01*
X0096322Y0123604D01*
X0096157Y0123715D01*
X0095962Y0123754D01*
X0095767Y0123715D01*
X0095601Y0123604D01*
X0095491Y0123439D01*
X0095452Y0123244D01*
X0095452Y0123244D01*
X0095451Y0123242D01*
X0095444Y0123232D01*
X0095435Y0123222D01*
X0095334Y0123121D01*
X0095257Y0123005D01*
X009523Y0122869D01*
Y0122169D01*
X0095248Y0122076D01*
X0095067Y012204D01*
X0094901Y0121929D01*
X0094791Y0121764D01*
X0094752Y0121569D01*
X0094791Y0121374D01*
X0094901Y0121208D01*
X0095067Y0121098D01*
X0095262Y0121059D01*
X0095457Y0121098D01*
X0095605Y0121197D01*
Y0120591D01*
X0095457Y012069D01*
X0095262Y0120729D01*
X0095067Y012069D01*
X0094901Y0120579D01*
X0094791Y0120414D01*
X0094752Y0120219D01*
X0094791Y0120024D01*
X0094901Y0119858D01*
X0094985Y0119802D01*
X0094876Y0119729D01*
X0094812Y0119633D01*
X0094747Y0119729D01*
X0094582Y011984D01*
X0094387Y0119879D01*
X0094192Y011984D01*
X0094026Y0119729D01*
X0093916Y0119564D01*
X0093877Y0119369D01*
X0093916Y0119174D01*
X0094026Y0119008D01*
X0094192Y0118898D01*
X0094387Y0118859D01*
X0094582Y0118898D01*
X0094747Y0119008D01*
X0094812Y0119105D01*
X0094876Y0119008D01*
X0095042Y0118898D01*
X0095237Y0118859D01*
X0095432Y0118898D01*
X0095597Y0119008D01*
X0095605Y011902D01*
Y0116242D01*
X009433Y0114967D01*
X0094325Y0114963D01*
X0094314Y0114955D01*
X0094312Y0114954D01*
X0094312Y0114954D01*
X0094117Y0114915D01*
X0093951Y0114804D01*
X0093841Y0114639D01*
X0093802Y0114444D01*
X0093841Y0114249D01*
X0093951Y0114083D01*
X0093951Y0114083D01*
X0093952Y0114081D01*
X0093954Y011407D01*
X0093955Y0114056D01*
Y0114056D01*
X0093872Y0114179D01*
X0093707Y011429D01*
X0093512Y0114329D01*
X0093512Y0114329D01*
X009351Y011433D01*
X00935Y0114337D01*
X009349Y0114345D01*
X0093469Y0114367D01*
Y0115207D01*
X0093551Y0115083D01*
X0093717Y0114973D01*
X0093912Y0114934D01*
X0094107Y0114973D01*
X0094272Y0115083D01*
X0094383Y0115249D01*
X0094422Y0115444D01*
X0094383Y0115639D01*
X0094272Y0115804D01*
X0094107Y0115915D01*
X0093912Y0115954D01*
X0093717Y0115915D01*
X0093551Y0115804D01*
X0093467Y0115678D01*
X0093441Y0115805D01*
X0093364Y0115921D01*
X0093044Y0116242D01*
Y0117057D01*
X0093188Y0116913D01*
X0093193Y0116907D01*
X0093201Y0116896D01*
X0093202Y0116894D01*
X0093202Y0116894D01*
X0093241Y0116699D01*
X0093351Y0116533D01*
X0093517Y0116423D01*
X0093712Y0116384D01*
X0093907Y0116423D01*
X0094072Y0116533D01*
X0094183Y0116699D01*
X0094222Y0116894D01*
X0094183Y0117089D01*
X0094072Y0117254D01*
X0093907Y0117365D01*
X0093712Y0117404D01*
X0093712Y0117404D01*
X009371Y0117405D01*
X00937Y0117412D01*
X009369Y011742D01*
X0093594Y0117517D01*
Y0117797D01*
X0093742Y0117698D01*
X0093937Y0117659D01*
X0094132Y0117698D01*
X0094297Y0117808D01*
X0094408Y0117974D01*
X0094447Y0118169D01*
X0094408Y0118364D01*
X0094297Y0118529D01*
X0094132Y011864D01*
X0093937Y0118679D01*
X0093742Y011864D01*
X0093594Y0118541D01*
Y0118627D01*
X0093739Y0118773D01*
X0093816Y0118888D01*
X0093844Y0119025D01*
Y012119D01*
X0094521Y0121867D01*
X0094598Y0121983D01*
X0094626Y0122119D01*
Y0123522D01*
X0094701Y0123408D01*
X0094867Y0123298D01*
X0095062Y0123259D01*
X0095257Y0123298D01*
X0095422Y0123408D01*
X0095533Y0123574D01*
X0095572Y0123769D01*
X0095533Y0123964D01*
X0095422Y0124129D01*
X0095257Y012424D01*
X0095062Y0124279D01*
X0095017Y012427D01*
X0095189Y0124441D01*
X0095266Y0124557D01*
X0095294Y0124694D01*
Y012631D01*
X0095294Y0126317D01*
X0095297Y0126331D01*
X0095297Y0126333D01*
X0095297Y0126333D01*
X0095408Y0126499D01*
X0095447Y0126694D01*
X0095408Y0126889D01*
X0095297Y0127054D01*
X0095132Y0127165D01*
X0094937Y0127204D01*
X0094742Y0127165D01*
X0094576Y0127054D01*
X0094466Y0126889D01*
X0094427Y0126694D01*
X0094466Y0126499D01*
X0094576Y0126333D01*
X0094576Y0126333D01*
X0094577Y0126331D01*
X0094579Y012632D01*
X009458Y0126306D01*
Y0125591D01*
X0094432Y012569D01*
X0094237Y0125729D01*
X0094042Y012569D01*
X0093955Y0125632D01*
X0093983Y0125674D01*
X0094022Y0125869D01*
X0093983Y0126064D01*
X0093872Y0126229D01*
X0093707Y012634D01*
X0093512Y0126379D01*
X0093317Y012634D01*
X0093151Y0126229D01*
X0093041Y0126064D01*
X0093002Y0125869D01*
X0093002Y0125869D01*
X0093001Y0125867D01*
X0092994Y0125857D01*
X0092985Y0125847D01*
X0092544Y0125405D01*
Y0126396D01*
X0092768Y012662D01*
X0092773Y0126625D01*
X0092785Y0126633D01*
X0092787Y0126634D01*
X0092787Y0126634D01*
X0092982Y0126673D01*
X0093147Y0126783D01*
X0093258Y0126949D01*
X0093297Y0127144D01*
X0093258Y0127339D01*
X0093147Y0127504D01*
X0092982Y0127615D01*
X0092787Y0127654D01*
D02*
G37*
G36*
X0103137Y0120279D02*
X0102942Y012024D01*
X0102776Y0120129D01*
X0102666Y0119964D01*
X0102627Y0119769D01*
X0102666Y0119574D01*
X0102776Y0119408D01*
X0102942Y0119298D01*
X0103137Y0119259D01*
X0103332Y0119298D01*
X0103497Y0119408D01*
X0103608Y0119574D01*
X0103647Y0119769D01*
X0103608Y0119964D01*
X0103497Y0120129D01*
X0103332Y012024D01*
X0103137Y0120279D01*
D02*
G37*
G36*
X0088387Y0119954D02*
X0088192Y0119915D01*
X0088026Y0119804D01*
X0087916Y0119639D01*
X0087877Y0119444D01*
X0087877Y0119444D01*
X0087876Y0119442D01*
X0087869Y0119432D01*
X008786Y0119422D01*
X0087209Y0118771D01*
X0087132Y0118655D01*
X0087105Y0118519D01*
Y0109327D01*
X0087104Y0109321D01*
X0087102Y0109307D01*
X0087101Y0109304D01*
X0087101Y0109304D01*
X0086991Y0109139D01*
X0086952Y0108944D01*
X0086991Y0108749D01*
X0087101Y0108583D01*
X0087267Y0108473D01*
X0087462Y0108434D01*
X0087657Y0108473D01*
X0087822Y0108583D01*
X0087933Y0108749D01*
X0087972Y0108944D01*
X0087933Y0109139D01*
X0087822Y0109304D01*
X0087822Y0109304D01*
X0087822Y0109307D01*
X008782Y0109318D01*
X0087819Y0109331D01*
Y0118371D01*
X0088368Y011892D01*
X0088373Y0118925D01*
X0088385Y0118933D01*
X0088387Y0118934D01*
X0088387Y0118934D01*
X0088582Y0118973D01*
X0088747Y0119083D01*
X0088858Y0119249D01*
X0088897Y0119444D01*
X0088858Y0119639D01*
X0088747Y0119804D01*
X0088582Y0119915D01*
X0088387Y0119954D01*
D02*
G37*
G36*
X0107912Y0119526D02*
X0105112D01*
X0104975Y0119498D01*
X0104859Y0119421D01*
X0104109Y0118671D01*
X0104032Y0118555D01*
X0104005Y0118419D01*
Y0117402D01*
X0104004Y0117396D01*
X0104002Y0117382D01*
X0104001Y0117379D01*
X0104001Y0117379D01*
X0103891Y0117214D01*
X0103852Y0117019D01*
X0103891Y0116824D01*
X0104001Y0116658D01*
X0104167Y0116548D01*
X0104362Y0116509D01*
X0104557Y0116548D01*
X0104722Y0116658D01*
X0104833Y0116824D01*
X0104855Y0116935D01*
Y0102702D01*
X0104854Y0102696D01*
X0104852Y0102682D01*
X0104851Y0102679D01*
X0104851Y0102679D01*
X0104741Y0102514D01*
X0104702Y0102319D01*
X0104741Y0102124D01*
X0104851Y0101958D01*
X0105017Y0101848D01*
X0105212Y0101809D01*
X0105407Y0101848D01*
X0105572Y0101958D01*
X0105683Y0102124D01*
X0105722Y0102319D01*
X0105683Y0102514D01*
X0105572Y0102679D01*
X0105572Y0102679D01*
X0105572Y0102682D01*
X010557Y0102693D01*
X0105569Y0102706D01*
Y0117785D01*
X0105569Y0117792D01*
X0105572Y0117806D01*
X0105572Y0117808D01*
X0105572Y0117808D01*
X0105683Y0117974D01*
X0105722Y0118169D01*
X0105683Y0118364D01*
X0105572Y0118529D01*
X0105407Y011864D01*
X0105212Y0118679D01*
X0105105Y0118657D01*
X010526Y0118812D01*
X0107764D01*
X0108063Y0118513D01*
X0108068Y0118507D01*
X0108076Y0118496D01*
X0108077Y0118494D01*
X0108077Y0118494D01*
X0108116Y0118299D01*
X0108226Y0118133D01*
X0108392Y0118023D01*
X0108587Y0117984D01*
X0108782Y0118023D01*
X0108947Y0118133D01*
X0109058Y0118299D01*
X0109097Y0118494D01*
X0109058Y0118689D01*
X0108947Y0118854D01*
X0108782Y0118965D01*
X0108587Y0119004D01*
X0108587Y0119004D01*
X0108585Y0119005D01*
X0108575Y0119012D01*
X0108565Y011902D01*
X0108164Y0119421D01*
X0108048Y0119498D01*
X0107912Y0119526D01*
D02*
G37*
G36*
X0078762Y0118377D02*
X0078514Y0118344D01*
X0078283Y0118249D01*
X0078084Y0118096D01*
X0077932Y0117898D01*
X0077836Y0117667D01*
X0077804Y0117419D01*
X0077836Y0117171D01*
X0077932Y011694D01*
X0078084Y0116741D01*
X0078283Y0116589D01*
X0078514Y0116493D01*
X0078762Y0116461D01*
X007901Y0116493D01*
X0079241Y0116589D01*
X0079439Y0116741D01*
X0079592Y011694D01*
X0079687Y0117171D01*
X007972Y0117419D01*
X0079687Y0117667D01*
X0079592Y0117898D01*
X0079439Y0118096D01*
X0079241Y0118249D01*
X007901Y0118344D01*
X0078762Y0118377D01*
D02*
G37*
G36*
X0090412Y0127004D02*
X0090217Y0126965D01*
X0090051Y0126854D01*
X0089941Y0126689D01*
X0089902Y0126494D01*
X0089941Y0126299D01*
X0090051Y0126133D01*
X0090051Y0126133D01*
X0090052Y0126131D01*
X0090054Y0126119D01*
X0090055Y0126106D01*
Y0117112D01*
X0090054Y0117105D01*
X0090052Y0117091D01*
X0090051Y0117089D01*
X0090051Y0117089D01*
X0089941Y0116924D01*
X0089902Y0116729D01*
X0089941Y0116534D01*
X0090051Y0116368D01*
X0090217Y0116258D01*
X0090412Y0116219D01*
X0090607Y0116258D01*
X0090772Y0116368D01*
X0090883Y0116534D01*
X0090922Y0116729D01*
X0090883Y0116924D01*
X0090772Y0117089D01*
X0090772Y0117089D01*
X0090772Y0117091D01*
X009077Y0117103D01*
X0090769Y0117116D01*
Y012611D01*
X0090769Y0126117D01*
X0090772Y0126131D01*
X0090772Y0126133D01*
X0090772Y0126133D01*
X0090883Y0126299D01*
X0090922Y0126494D01*
X0090883Y0126689D01*
X0090772Y0126854D01*
X0090607Y0126965D01*
X0090412Y0127004D01*
D02*
G37*
G36*
X0108762Y0116129D02*
X0108567Y011609D01*
X0108401Y0115979D01*
X0108291Y0115814D01*
X0108252Y0115619D01*
X0108291Y0115424D01*
X0108401Y0115258D01*
X0108567Y0115148D01*
X0108762Y0115109D01*
X0108957Y0115148D01*
X0109122Y0115258D01*
X0109233Y0115424D01*
X0109272Y0115619D01*
X0109233Y0115814D01*
X0109122Y0115979D01*
X0108957Y011609D01*
X0108762Y0116129D01*
D02*
G37*
G36*
X0103787Y0115804D02*
X0103592Y0115765D01*
X0103426Y0115654D01*
X0103316Y0115489D01*
X0103277Y0115294D01*
X0103316Y0115099D01*
X0103426Y0114933D01*
X0103592Y0114823D01*
X0103787Y0114784D01*
X0103982Y0114823D01*
X0104147Y0114933D01*
X0104258Y0115099D01*
X0104297Y0115294D01*
X0104258Y0115489D01*
X0104147Y0115654D01*
X0103982Y0115765D01*
X0103787Y0115804D01*
D02*
G37*
G36*
X0111487Y0114829D02*
X0111292Y011479D01*
X0111126Y0114679D01*
X0111016Y0114514D01*
X0110977Y0114319D01*
X0111016Y0114124D01*
X0111126Y0113958D01*
X0111292Y0113848D01*
X0111487Y0113809D01*
X0111682Y0113848D01*
X0111847Y0113958D01*
X0111958Y0114124D01*
X0111997Y0114319D01*
X0111958Y0114514D01*
X0111847Y0114679D01*
X0111682Y011479D01*
X0111487Y0114829D01*
D02*
G37*
G36*
X0115162Y0114602D02*
X0114914Y0114569D01*
X0114683Y0114474D01*
X0114484Y0114321D01*
X0114332Y0114123D01*
X0114236Y0113892D01*
X0114204Y0113644D01*
X0114236Y0113396D01*
X0114332Y0113165D01*
X0114484Y0112966D01*
X0114683Y0112814D01*
X0114914Y0112718D01*
X0115162Y0112686D01*
X011541Y0112718D01*
X0115641Y0112814D01*
X0115839Y0112966D01*
X0115992Y0113165D01*
X0116087Y0113396D01*
X011612Y0113644D01*
X0116087Y0113892D01*
X0115992Y0114123D01*
X0115839Y0114321D01*
X0115641Y0114474D01*
X011541Y0114569D01*
X0115162Y0114602D01*
D02*
G37*
G36*
X0078687Y0114377D02*
X0078439Y0114344D01*
X0078208Y0114249D01*
X0078009Y0114096D01*
X0077857Y0113898D01*
X0077761Y0113667D01*
X0077729Y0113419D01*
X0077761Y0113171D01*
X0077857Y011294D01*
X0078009Y0112741D01*
X0078208Y0112589D01*
X0078439Y0112493D01*
X0078687Y0112461D01*
X0078935Y0112493D01*
X0079166Y0112589D01*
X0079364Y0112741D01*
X0079517Y011294D01*
X0079612Y0113171D01*
X0079645Y0113419D01*
X0079612Y0113667D01*
X0079517Y0113898D01*
X0079364Y0114096D01*
X0079166Y0114249D01*
X0078935Y0114344D01*
X0078687Y0114377D01*
D02*
G37*
G36*
X0088962Y0112829D02*
X0088767Y011279D01*
X0088601Y0112679D01*
X0088491Y0112514D01*
X0088452Y0112319D01*
X0088491Y0112124D01*
X0088601Y0111958D01*
X0088767Y0111848D01*
X0088962Y0111809D01*
X0089157Y0111848D01*
X0089322Y0111958D01*
X0089433Y0112124D01*
X0089472Y0112319D01*
X0089433Y0112514D01*
X0089322Y0112679D01*
X0089157Y011279D01*
X0088962Y0112829D01*
D02*
G37*
G36*
X0110337Y0112329D02*
X0110142Y011229D01*
X0109976Y0112179D01*
X0109866Y0112014D01*
X0109827Y0111819D01*
X0109866Y0111624D01*
X0109976Y0111458D01*
X0110142Y0111348D01*
X0110337Y0111309D01*
X0110532Y0111348D01*
X0110697Y0111458D01*
X0110808Y0111624D01*
X0110847Y0111819D01*
X0110808Y0112014D01*
X0110697Y0112179D01*
X0110532Y011229D01*
X0110337Y0112329D01*
D02*
G37*
G36*
X0086087Y0111904D02*
X0085892Y0111865D01*
X0085726Y0111754D01*
X0085616Y0111589D01*
X0085577Y0111394D01*
X0085616Y0111199D01*
X0085726Y0111033D01*
X0085892Y0110923D01*
X0086087Y0110884D01*
X0086282Y0110923D01*
X0086447Y0111033D01*
X0086558Y0111199D01*
X0086597Y0111394D01*
X0086558Y0111589D01*
X0086447Y0111754D01*
X0086282Y0111865D01*
X0086087Y0111904D01*
D02*
G37*
G36*
X0097812Y0111679D02*
X0097617Y011164D01*
X0097451Y0111529D01*
X0097341Y0111364D01*
X0097302Y0111169D01*
X0097341Y0110974D01*
X0097451Y0110808D01*
X0097617Y0110698D01*
X0097812Y0110659D01*
X0098007Y0110698D01*
X0098172Y0110808D01*
X0098283Y0110974D01*
X0098322Y0111169D01*
X0098283Y0111364D01*
X0098172Y0111529D01*
X0098007Y011164D01*
X0097812Y0111679D01*
D02*
G37*
G36*
X0096362D02*
X0096167Y011164D01*
X0096001Y0111529D01*
X0095891Y0111364D01*
X0095852Y0111169D01*
X0095891Y0110974D01*
X0096001Y0110808D01*
X0096167Y0110698D01*
X0096362Y0110659D01*
X0096557Y0110698D01*
X0096722Y0110808D01*
X0096833Y0110974D01*
X0096872Y0111169D01*
X0096833Y0111364D01*
X0096722Y0111529D01*
X0096557Y011164D01*
X0096362Y0111679D01*
D02*
G37*
G36*
X0115162Y0111077D02*
X0114914Y0111044D01*
X0114683Y0110949D01*
X0114484Y0110796D01*
X0114332Y0110598D01*
X0114236Y0110367D01*
X0114204Y0110119D01*
X0114236Y0109871D01*
X0114332Y010964D01*
X0114484Y0109441D01*
X0114683Y0109289D01*
X0114914Y0109193D01*
X0115162Y0109161D01*
X011541Y0109193D01*
X0115641Y0109289D01*
X0115839Y0109441D01*
X0115992Y010964D01*
X0116087Y0109871D01*
X011612Y0110119D01*
X0116087Y0110367D01*
X0115992Y0110598D01*
X0115839Y0110796D01*
X0115641Y0110949D01*
X011541Y0111044D01*
X0115162Y0111077D01*
D02*
G37*
G36*
X0078762Y0110852D02*
X0078514Y0110819D01*
X0078283Y0110724D01*
X0078084Y0110571D01*
X0077932Y0110373D01*
X0077836Y0110142D01*
X0077804Y0109894D01*
X0077836Y0109646D01*
X0077932Y0109415D01*
X0078084Y0109216D01*
X0078283Y0109064D01*
X0078514Y0108968D01*
X0078762Y0108936D01*
X007901Y0108968D01*
X0079241Y0109064D01*
X0079439Y0109216D01*
X0079592Y0109415D01*
X0079687Y0109646D01*
X007972Y0109894D01*
X0079687Y0110142D01*
X0079592Y0110373D01*
X0079439Y0110571D01*
X0079241Y0110724D01*
X007901Y0110819D01*
X0078762Y0110852D01*
D02*
G37*
G36*
X0097837Y0109954D02*
X0097642Y0109915D01*
X0097476Y0109804D01*
X0097366Y0109639D01*
X0097327Y0109444D01*
X0097366Y0109249D01*
X0097476Y0109083D01*
X0097642Y0108973D01*
X0097837Y0108934D01*
X0098032Y0108973D01*
X0098197Y0109083D01*
X0098308Y0109249D01*
X0098347Y0109444D01*
X0098308Y0109639D01*
X0098197Y0109804D01*
X0098032Y0109915D01*
X0097837Y0109954D01*
D02*
G37*
G36*
X0096412Y0109904D02*
X0096217Y0109865D01*
X0096051Y0109754D01*
X0095941Y0109589D01*
X0095902Y0109394D01*
X0095941Y0109199D01*
X0096051Y0109033D01*
X0096217Y0108923D01*
X0096412Y0108884D01*
X0096607Y0108923D01*
X0096772Y0109033D01*
X0096883Y0109199D01*
X0096922Y0109394D01*
X0096883Y0109589D01*
X0096772Y0109754D01*
X0096607Y0109865D01*
X0096412Y0109904D01*
D02*
G37*
G36*
X0085762Y0130279D02*
X0085567Y013024D01*
X0085401Y0130129D01*
X0085291Y0129964D01*
X0085252Y0129769D01*
X0085291Y0129574D01*
X0085401Y0129408D01*
X0085401Y0129408D01*
X0085402Y0129406D01*
X0085404Y0129395D01*
X0085405Y0129381D01*
Y0125369D01*
X0085432Y0125232D01*
X0085509Y0125116D01*
X008898Y0121646D01*
Y0115219D01*
X0089007Y0115082D01*
X0089084Y0114966D01*
X009003Y0114021D01*
Y0108527D01*
X0090029Y0108521D01*
X0090027Y0108507D01*
X0090026Y0108504D01*
X0090026Y0108504D01*
X0089916Y0108339D01*
X0089877Y0108144D01*
X0089916Y0107949D01*
X0090026Y0107783D01*
X0090192Y0107673D01*
X0090387Y0107634D01*
X0090582Y0107673D01*
X0090747Y0107783D01*
X0090858Y0107949D01*
X0090897Y0108144D01*
X0090858Y0108339D01*
X0090747Y0108504D01*
X0090747Y0108504D01*
X0090747Y0108507D01*
X0090745Y0108518D01*
X0090744Y0108531D01*
Y0114169D01*
X0090716Y0114305D01*
X0090639Y0114421D01*
X0089694Y0115367D01*
Y0121794D01*
X0089666Y012193D01*
X0089589Y0122046D01*
X0086119Y0125517D01*
Y0129385D01*
X0086119Y0129392D01*
X0086122Y0129406D01*
X0086122Y0129408D01*
X0086122Y0129408D01*
X0086233Y0129574D01*
X0086272Y0129769D01*
X0086233Y0129964D01*
X0086122Y0130129D01*
X0085957Y013024D01*
X0085762Y0130279D01*
D02*
G37*
G36*
X0086262Y0108529D02*
X0086067Y010849D01*
X0085901Y0108379D01*
X0085791Y0108214D01*
X0085752Y0108019D01*
X0085791Y0107824D01*
X0085901Y0107658D01*
X0086067Y0107548D01*
X0086262Y0107509D01*
X0086457Y0107548D01*
X0086622Y0107658D01*
X0086733Y0107824D01*
X0086772Y0108019D01*
X0086733Y0108214D01*
X0086622Y0108379D01*
X0086457Y010849D01*
X0086262Y0108529D01*
D02*
G37*
G36*
X0103737Y0114629D02*
X0103542Y011459D01*
X0103376Y0114479D01*
X0103266Y0114314D01*
X0103227Y0114119D01*
X0103266Y0113924D01*
X0103376Y0113758D01*
X0103376Y0113758D01*
X0103377Y0113756D01*
X0103379Y0113744D01*
X010338Y0113731D01*
Y0106852D01*
X0103379Y0106846D01*
X0103377Y0106832D01*
X0103376Y0106829D01*
X0103376Y0106829D01*
X0103266Y0106664D01*
X0103227Y0106469D01*
X0103266Y0106274D01*
X0103376Y0106108D01*
X0103542Y0105998D01*
X0103737Y0105959D01*
X0103932Y0105998D01*
X0104097Y0106108D01*
X0104208Y0106274D01*
X0104247Y0106469D01*
X0104208Y0106664D01*
X0104097Y0106829D01*
X0104097Y0106829D01*
X0104097Y0106832D01*
X0104095Y0106843D01*
X0104094Y0106856D01*
Y0113735D01*
X0104094Y0113742D01*
X0104097Y0113756D01*
X0104097Y0113758D01*
X0104097Y0113758D01*
X0104208Y0113924D01*
X0104247Y0114119D01*
X0104208Y0114314D01*
X0104097Y0114479D01*
X0103932Y011459D01*
X0103737Y0114629D01*
D02*
G37*
G36*
X0078762Y0107502D02*
X0078514Y0107469D01*
X0078283Y0107374D01*
X0078084Y0107221D01*
X0077932Y0107023D01*
X0077836Y0106792D01*
X0077804Y0106544D01*
X0077836Y0106296D01*
X0077932Y0106065D01*
X0078084Y0105866D01*
X0078283Y0105714D01*
X0078514Y0105618D01*
X0078762Y0105586D01*
X007901Y0105618D01*
X0079241Y0105714D01*
X0079439Y0105866D01*
X0079592Y0106065D01*
X0079687Y0106296D01*
X007972Y0106544D01*
X0079687Y0106792D01*
X0079592Y0107023D01*
X0079439Y0107221D01*
X0079241Y0107374D01*
X007901Y0107469D01*
X0078762Y0107502D01*
D02*
G37*
G36*
X0083162Y0106554D02*
X0082967Y0106515D01*
X0082801Y0106404D01*
X0082691Y0106239D01*
X0082652Y0106044D01*
X0082691Y0105849D01*
X0082801Y0105683D01*
X0082967Y0105573D01*
X0083162Y0105534D01*
X0083357Y0105573D01*
X0083522Y0105683D01*
X0083633Y0105849D01*
X0083672Y0106044D01*
X0083633Y0106239D01*
X0083522Y0106404D01*
X0083357Y0106515D01*
X0083162Y0106554D01*
D02*
G37*
G36*
X0099962Y0103879D02*
X0099767Y010384D01*
X0099601Y0103729D01*
X0099491Y0103564D01*
X0099452Y0103369D01*
X0099491Y0103174D01*
X0099601Y0103008D01*
X0099767Y0102898D01*
X0099962Y0102859D01*
X0100157Y0102898D01*
X0100322Y0103008D01*
X0100433Y0103174D01*
X0100472Y0103369D01*
X0100433Y0103564D01*
X0100322Y0103729D01*
X0100157Y010384D01*
X0099962Y0103879D01*
D02*
G37*
G36*
X0095887Y0103779D02*
X0095692Y010374D01*
X0095526Y0103629D01*
X0095416Y0103464D01*
X0095377Y0103269D01*
X0095416Y0103074D01*
X0095526Y0102908D01*
X0095692Y0102798D01*
X0095887Y0102759D01*
X0096082Y0102798D01*
X0096247Y0102908D01*
X0096358Y0103074D01*
X0096397Y0103269D01*
X0096358Y0103464D01*
X0096247Y0103629D01*
X0096082Y010374D01*
X0095887Y0103779D01*
D02*
G37*
G36*
X0078762Y0104552D02*
X0078514Y0104519D01*
X0078283Y0104424D01*
X0078084Y0104271D01*
X0077932Y0104073D01*
X0077836Y0103842D01*
X0077804Y0103594D01*
X0077836Y0103346D01*
X0077932Y0103115D01*
X0078084Y0102916D01*
X0078283Y0102764D01*
X0078514Y0102668D01*
X0078762Y0102636D01*
X007901Y0102668D01*
X0079241Y0102764D01*
X0079439Y0102916D01*
X0079592Y0103115D01*
X0079687Y0103346D01*
X007972Y0103594D01*
X0079687Y0103842D01*
X0079592Y0104073D01*
X0079439Y0104271D01*
X0079241Y0104424D01*
X007901Y0104519D01*
X0078762Y0104552D01*
D02*
G37*
G36*
X0082762Y0101054D02*
X0082567Y0101015D01*
X0082401Y0100904D01*
X0082291Y0100739D01*
X0082252Y0100544D01*
X0082291Y0100349D01*
X0082401Y0100183D01*
X0082567Y0100073D01*
X0082762Y0100034D01*
X0082957Y0100073D01*
X0083122Y0100183D01*
X0083233Y0100349D01*
X0083272Y0100544D01*
X0083233Y0100739D01*
X0083122Y0100904D01*
X0082957Y0101015D01*
X0082762Y0101054D01*
D02*
G37*
G36*
X0102837Y0113879D02*
X0102642Y011384D01*
X0102476Y0113729D01*
X0102366Y0113564D01*
X0102327Y0113369D01*
X0102366Y0113174D01*
X0102476Y0113008D01*
X0102476Y0113008D01*
X0102477Y0113006D01*
X0102479Y0112994D01*
X010248Y0112981D01*
Y0096927D01*
X0102479Y0096921D01*
X0102477Y0096907D01*
X0102476Y0096904D01*
X0102476Y0096904D01*
X0102367Y0096741D01*
X0102358Y0096789D01*
X0102247Y0096954D01*
X0102247Y0096954D01*
X0102247Y0096957D01*
X0102245Y0096968D01*
X0102244Y0096981D01*
Y010726D01*
X0102244Y0107267D01*
X0102247Y0107281D01*
X0102247Y0107283D01*
X0102247Y0107283D01*
X0102358Y0107449D01*
X0102397Y0107644D01*
X0102358Y0107839D01*
X0102247Y0108004D01*
X0102082Y0108115D01*
X0101887Y0108154D01*
X0101692Y0108115D01*
X0101526Y0108004D01*
X0101416Y0107839D01*
X0101377Y0107644D01*
X0101416Y0107449D01*
X0101526Y0107283D01*
X0101526Y0107283D01*
X0101527Y0107281D01*
X0101529Y010727D01*
X010153Y0107256D01*
Y0096977D01*
X0101529Y0096971D01*
X0101527Y0096957D01*
X0101526Y0096954D01*
X0101526Y0096954D01*
X0101526Y0096954D01*
X0101524Y0096954D01*
X0101512Y0096952D01*
X0101499Y0096951D01*
X0101062D01*
X0100925Y0096924D01*
X0100809Y0096846D01*
X0099959Y0095996D01*
X0099882Y009588D01*
X0099855Y0095744D01*
Y0092744D01*
X0099882Y0092607D01*
X0099959Y0092491D01*
X0100166Y0092285D01*
X0100067Y0092265D01*
X0099901Y0092154D01*
X0099862Y0092095D01*
X0099822Y0092154D01*
X0099657Y0092265D01*
X0099462Y0092304D01*
X0099267Y0092265D01*
X0099101Y0092154D01*
X0098994Y0091993D01*
Y0096421D01*
X0100047Y0097474D01*
X0100052Y0097479D01*
X0100063Y0097486D01*
X0100066Y0097488D01*
X0100087Y0097484D01*
X0100282Y0097523D01*
X0100447Y0097633D01*
X0100558Y0097799D01*
X0100597Y0097994D01*
X0100558Y0098189D01*
X0100447Y0098354D01*
X0100282Y0098465D01*
X0100087Y0098504D01*
X0099892Y0098465D01*
X0099726Y0098354D01*
X0099616Y0098189D01*
X0099585Y0098032D01*
X0099585Y0098032D01*
X0099585Y0098032D01*
X0099585Y0098032D01*
X0099584Y0098031D01*
X0099581Y0098024D01*
X0099574Y0098015D01*
X0099566Y0098004D01*
X0099559Y0097996D01*
X0098419Y0096855D01*
Y0097096D01*
X0100389Y0099066D01*
X0100466Y0099182D01*
X0100494Y0099319D01*
Y0100735D01*
X0100494Y0100742D01*
X0100497Y0100756D01*
X0100497Y0100758D01*
X0100497Y0100758D01*
X0100608Y0100924D01*
X0100647Y0101119D01*
X0100608Y0101314D01*
X0100497Y0101479D01*
X0100332Y010159D01*
X0100137Y0101629D01*
X0099942Y010159D01*
X0099776Y0101479D01*
X0099666Y0101314D01*
X0099627Y0101119D01*
X0099666Y0100924D01*
X0099776Y0100758D01*
X0099776Y0100758D01*
X0099777Y0100756D01*
X0099779Y0100745D01*
X009978Y0100731D01*
Y0099467D01*
X0097809Y0097496D01*
X0097732Y009738D01*
X0097705Y0097244D01*
Y0092556D01*
X0097622Y0092679D01*
X0097622Y0092679D01*
X0097622Y0092682D01*
X009762Y0092693D01*
X0097619Y0092706D01*
Y0100945D01*
X0097626Y0100933D01*
X0097792Y0100823D01*
X0097987Y0100784D01*
X0098182Y0100823D01*
X0098347Y0100933D01*
X0098458Y0101099D01*
X0098497Y0101294D01*
X0098458Y0101489D01*
X0098347Y0101654D01*
X0098182Y0101765D01*
X0097987Y0101804D01*
X0097792Y0101765D01*
X0097626Y0101654D01*
X0097619Y0101643D01*
Y0107785D01*
X0097619Y0107792D01*
X0097622Y0107806D01*
X0097622Y0107808D01*
X0097622Y0107808D01*
X0097733Y0107974D01*
X0097772Y0108169D01*
X0097733Y0108364D01*
X0097622Y0108529D01*
X0097457Y010864D01*
X0097262Y0108679D01*
X0097067Y010864D01*
X0096901Y0108529D01*
X0096791Y0108364D01*
X0096752Y0108169D01*
X0096791Y0107974D01*
X0096901Y0107808D01*
X0096901Y0107808D01*
X0096902Y0107806D01*
X0096904Y0107795D01*
X0096905Y0107781D01*
Y009793D01*
X0096872Y0097979D01*
X0096707Y009809D01*
X0096512Y0098129D01*
X0096317Y009809D01*
X0096151Y0097979D01*
X0096041Y0097814D01*
X0096002Y0097619D01*
X0096041Y0097424D01*
X0096151Y0097258D01*
X0096151Y0097258D01*
X0096152Y0097256D01*
X0096154Y0097244D01*
X0096155Y0097231D01*
Y0091944D01*
X0096182Y0091807D01*
X0096259Y0091691D01*
X009663Y0091321D01*
Y0091279D01*
X0096629Y0091272D01*
X0096627Y0091258D01*
X0096626Y0091256D01*
X0096626Y0091256D01*
X0096516Y0091091D01*
X0096477Y0090896D01*
X0096516Y0090701D01*
X0096626Y0090535D01*
X0096792Y0090425D01*
X0096987Y0090386D01*
X0097182Y0090425D01*
X0097347Y0090535D01*
X0097458Y0090701D01*
X0097497Y0090896D01*
X0097458Y0091091D01*
X0097347Y0091256D01*
X0097347Y0091256D01*
X0097347Y0091258D01*
X0097345Y009127D01*
X0097344Y0091283D01*
Y0091469D01*
X0097316Y0091605D01*
X0097239Y0091721D01*
X0097124Y0091836D01*
X0097262Y0091809D01*
X0097457Y0091848D01*
X0097622Y0091958D01*
X0097705Y0092082D01*
Y0084269D01*
X0097732Y0084132D01*
X0097809Y0084016D01*
X0101538Y0080288D01*
X0101543Y0080282D01*
X0101551Y0080271D01*
X0101552Y0080269D01*
X0101552Y0080269D01*
X0101591Y0080074D01*
X0101701Y0079908D01*
X0101867Y0079798D01*
X0102062Y0079759D01*
X0102257Y0079798D01*
X0102422Y0079908D01*
X0102533Y0080074D01*
X0102572Y0080269D01*
X0102533Y0080464D01*
X0102422Y0080629D01*
X0102257Y008074D01*
X0102062Y0080779D01*
X0102062Y0080779D01*
X010206Y008078D01*
X010205Y0080787D01*
X010204Y0080795D01*
X0098419Y0084417D01*
Y0089757D01*
X0101284Y0086891D01*
X01014Y0086814D01*
X0101537Y0086787D01*
X0103678D01*
X0103685Y0086786D01*
X0103699Y0086784D01*
X0103701Y0086783D01*
X0103701Y0086783D01*
X0103867Y0086673D01*
X0104062Y0086634D01*
X0104257Y0086673D01*
X0104422Y0086783D01*
X0104533Y0086949D01*
X0104572Y0087144D01*
X0104533Y0087339D01*
X0104422Y0087504D01*
X0104257Y0087615D01*
X0104062Y0087654D01*
X0103867Y0087615D01*
X0103701Y0087504D01*
X0103701Y0087504D01*
X0103699Y0087504D01*
X0103688Y0087502D01*
X0103674Y0087501D01*
X0101685D01*
X0098994Y0090192D01*
Y0091594D01*
X0099101Y0091433D01*
X0099267Y0091323D01*
X0099462Y0091284D01*
X0099657Y0091323D01*
X0099822Y0091433D01*
X0099862Y0091492D01*
X0099901Y0091433D01*
X0100067Y0091323D01*
X0100262Y0091284D01*
X0100457Y0091323D01*
X0100622Y0091433D01*
X0100716Y0091574D01*
X0100826Y0091408D01*
X0100992Y0091298D01*
X0101187Y0091259D01*
X0101382Y0091298D01*
X0101547Y0091408D01*
X0101658Y0091574D01*
X0101697Y0091769D01*
X0101658Y0091964D01*
X0101547Y0092129D01*
X0101382Y009224D01*
X0101187Y0092279D01*
X0101187Y0092279D01*
X0101185Y009228D01*
X0101175Y0092287D01*
X0101165Y0092295D01*
X0100569Y0092892D01*
Y0095596D01*
X010121Y0096237D01*
X0101503D01*
X010151Y0096236D01*
X0101524Y0096234D01*
X0101526Y0096233D01*
X0101526Y0096233D01*
X0101692Y0096123D01*
X0101887Y0096084D01*
X0102082Y0096123D01*
X0102247Y0096233D01*
X0102356Y0096396D01*
X0102366Y0096349D01*
X0102476Y0096183D01*
X0102642Y0096073D01*
X0102837Y0096034D01*
X0103032Y0096073D01*
X0103197Y0096183D01*
X0103308Y0096349D01*
X0103347Y0096544D01*
X0103308Y0096739D01*
X0103197Y0096904D01*
X0103197Y0096904D01*
X0103197Y0096907D01*
X0103195Y0096918D01*
X0103194Y0096931D01*
Y0112985D01*
X0103194Y0112992D01*
X0103197Y0113006D01*
X0103197Y0113008D01*
X0103197Y0113008D01*
X0103308Y0113174D01*
X0103347Y0113369D01*
X0103308Y0113564D01*
X0103197Y0113729D01*
X0103032Y011384D01*
X0102837Y0113879D01*
D02*
G37*
G36*
X0111662Y0097452D02*
X0111414Y0097419D01*
X0111183Y0097324D01*
X0110984Y0097171D01*
X0110832Y0096973D01*
X0110736Y0096742D01*
X0110704Y0096494D01*
X0110736Y0096246D01*
X0110832Y0096015D01*
X0110984Y0095816D01*
X0111183Y0095664D01*
X0111414Y0095568D01*
X0111662Y0095536D01*
X011191Y0095568D01*
X0112141Y0095664D01*
X0112339Y0095816D01*
X0112492Y0096015D01*
X0112587Y0096246D01*
X011262Y0096494D01*
X0112587Y0096742D01*
X0112492Y0096973D01*
X0112339Y0097171D01*
X0112141Y0097324D01*
X011191Y0097419D01*
X0111662Y0097452D01*
D02*
G37*
G36*
X0107537Y0097402D02*
X0107289Y0097369D01*
X0107058Y0097274D01*
X0106859Y0097121D01*
X0106707Y0096923D01*
X0106611Y0096692D01*
X0106579Y0096444D01*
X0106611Y0096196D01*
X0106707Y0095965D01*
X0106859Y0095766D01*
X0107058Y0095614D01*
X0107289Y0095518D01*
X0107537Y0095486D01*
X0107785Y0095518D01*
X0108016Y0095614D01*
X0108214Y0095766D01*
X0108367Y0095965D01*
X0108462Y0096196D01*
X0108495Y0096444D01*
X0108462Y0096692D01*
X0108367Y0096923D01*
X0108214Y0097121D01*
X0108016Y0097274D01*
X0107785Y0097369D01*
X0107537Y0097402D01*
D02*
G37*
G36*
X0087562Y0098526D02*
X0083887D01*
X008375Y0098498D01*
X0083634Y0098421D01*
X0082823Y009761D01*
X0082796Y0097591D01*
X0082758Y0097572D01*
X0082713Y0097553D01*
X008266Y0097537D01*
X0082598Y0097523D01*
X0082531Y0097512D01*
X0082362Y0097499D01*
X0082293Y0097498D01*
X0082262Y0097502D01*
X0082014Y0097469D01*
X0081783Y0097374D01*
X0081584Y0097221D01*
X0081432Y0097023D01*
X0081336Y0096792D01*
X0081304Y0096544D01*
X0081336Y0096296D01*
X0081432Y0096065D01*
X0081584Y0095866D01*
X0081783Y0095714D01*
X0082014Y0095618D01*
X0082262Y0095586D01*
X008251Y0095618D01*
X0082741Y0095714D01*
X0082939Y0095866D01*
X0083092Y0096065D01*
X0083187Y0096296D01*
X008322Y0096544D01*
X0083216Y0096571D01*
X0083221Y0096735D01*
X0083229Y009681D01*
X0083241Y009688D01*
X0083255Y0096942D01*
X0083271Y0096995D01*
X008329Y009704D01*
X0083309Y0097078D01*
X0083328Y0097105D01*
X0084035Y0097812D01*
X0087414D01*
X008983Y0095396D01*
Y0089544D01*
X0089857Y0089407D01*
X0089934Y0089291D01*
X0090588Y0088638D01*
X0090593Y0088632D01*
X0090601Y0088621D01*
X0090602Y0088619D01*
X0090602Y0088619D01*
X0090641Y0088424D01*
X0090751Y0088258D01*
X0090917Y0088148D01*
X0091112Y0088109D01*
X0091307Y0088148D01*
X0091472Y0088258D01*
X0091583Y0088424D01*
X0091622Y0088619D01*
X0091583Y0088814D01*
X0091472Y0088979D01*
X0091307Y008909D01*
X0091112Y0089129D01*
X0091112Y0089129D01*
X009111Y008913D01*
X00911Y0089137D01*
X009109Y0089145D01*
X0090544Y0089692D01*
Y0095544D01*
X0090516Y009568D01*
X0090439Y0095796D01*
X0087814Y0098421D01*
X0087698Y0098498D01*
X0087562Y0098526D01*
D02*
G37*
G36*
X0097112Y0086679D02*
X0096917Y008664D01*
X0096751Y0086529D01*
X0096641Y0086364D01*
X0096602Y0086169D01*
X0096641Y0085974D01*
X0096751Y0085808D01*
X0096917Y0085698D01*
X0097112Y0085659D01*
X0097307Y0085698D01*
X0097472Y0085808D01*
X0097583Y0085974D01*
X0097622Y0086169D01*
X0097583Y0086364D01*
X0097472Y0086529D01*
X0097307Y008664D01*
X0097112Y0086679D01*
D02*
G37*
G36*
X0088937Y0086229D02*
X0088742Y008619D01*
X0088576Y0086079D01*
X0088466Y0085914D01*
X0088427Y0085719D01*
X0088466Y0085524D01*
X0088576Y0085358D01*
X0088742Y0085248D01*
X0088937Y0085209D01*
X0089132Y0085248D01*
X0089297Y0085358D01*
X0089408Y0085524D01*
X0089447Y0085719D01*
X0089408Y0085914D01*
X0089297Y0086079D01*
X0089132Y008619D01*
X0088937Y0086229D01*
D02*
G37*
G36*
X0099537Y0086004D02*
X0099342Y0085965D01*
X0099176Y0085854D01*
X0099066Y0085689D01*
X0099027Y0085494D01*
X0099066Y0085299D01*
X0099176Y0085133D01*
X0099342Y0085023D01*
X0099537Y0084984D01*
X0099732Y0085023D01*
X0099897Y0085133D01*
X0100008Y0085299D01*
X0100047Y0085494D01*
X0100008Y0085689D01*
X0099897Y0085854D01*
X0099732Y0085965D01*
X0099537Y0086004D01*
D02*
G37*
G36*
X0086312Y0097502D02*
X0086064Y0097469D01*
X0085833Y0097374D01*
X0085634Y0097221D01*
X0085482Y0097023D01*
X0085386Y0096792D01*
X0085354Y0096544D01*
X0085386Y0096296D01*
X0085482Y0096065D01*
X0085634Y0095866D01*
X0085833Y0095714D01*
X0086064Y0095618D01*
X0086312Y0095586D01*
X008656Y0095618D01*
X0086791Y0095714D01*
X0086989Y0095866D01*
X0087006Y0095888D01*
X0087125Y0096D01*
X0087184Y0096048D01*
X0087242Y009609D01*
X0087295Y0096123D01*
X0087345Y0096149D01*
X008739Y0096168D01*
X008743Y0096181D01*
X0087463Y0096187D01*
X0087539D01*
X008878Y0094946D01*
Y0088694D01*
X0088807Y0088557D01*
X0088884Y0088441D01*
X0089805Y0087521D01*
Y0084717D01*
X0089739Y0084651D01*
X008932D01*
X0089314Y0084651D01*
X00893Y0084654D01*
X0089297Y0084654D01*
X0089297Y0084654D01*
X0089132Y0084765D01*
X0088937Y0084804D01*
X0088742Y0084765D01*
X0088576Y0084654D01*
X0088466Y0084489D01*
X0088427Y0084294D01*
X0088466Y0084099D01*
X0088576Y0083933D01*
X0088742Y0083823D01*
X0088937Y0083784D01*
X0089132Y0083823D01*
X0089297Y0083933D01*
X0089297Y0083933D01*
X00893Y0083934D01*
X0089311Y0083936D01*
X0089324Y0083937D01*
X0089887D01*
X0090023Y0083964D01*
X0090139Y0084041D01*
X0090414Y0084316D01*
X0090491Y0084432D01*
X0090519Y0084569D01*
Y0087669D01*
X0090491Y0087805D01*
X0090414Y0087921D01*
X0089494Y0088842D01*
Y0095094D01*
X0089466Y009523D01*
X0089389Y0095346D01*
X0087939Y0096796D01*
X0087823Y0096873D01*
X0087687Y0096901D01*
X0087463D01*
X008743Y0096907D01*
X008739Y0096919D01*
X0087345Y0096938D01*
X0087295Y0096964D01*
X0087242Y0096998D01*
X0087186Y0097038D01*
X0087058Y0097148D01*
X0087008Y0097197D01*
X0086989Y0097221D01*
X0086791Y0097374D01*
X008656Y0097469D01*
X0086312Y0097502D01*
D02*
G37*
G36*
X0102937Y0083329D02*
X0102742Y008329D01*
X0102576Y0083179D01*
X0102466Y0083014D01*
X0102427Y0082819D01*
X0102466Y0082624D01*
X0102576Y0082458D01*
X0102742Y0082348D01*
X0102937Y0082309D01*
X0103132Y0082348D01*
X0103297Y0082458D01*
X0103408Y0082624D01*
X0103447Y0082819D01*
X0103408Y0083014D01*
X0103297Y0083179D01*
X0103132Y008329D01*
X0102937Y0083329D01*
D02*
G37*
G36*
X0099462Y0077629D02*
X0099267Y007759D01*
X0099101Y0077479D01*
X0098991Y0077314D01*
X0098952Y0077119D01*
X0098991Y0076924D01*
X0099101Y0076758D01*
X0099267Y0076648D01*
X0099462Y0076609D01*
X0099657Y0076648D01*
X0099822Y0076758D01*
X0099933Y0076924D01*
X0099972Y0077119D01*
X0099933Y0077314D01*
X0099822Y0077479D01*
X0099657Y007759D01*
X0099462Y0077629D01*
D02*
G37*
G36*
X0096962Y0077852D02*
X0096714Y0077819D01*
X0096483Y0077724D01*
X0096284Y0077571D01*
X0096132Y0077373D01*
X0096036Y0077142D01*
X0096004Y0076894D01*
X0096036Y0076646D01*
X0096132Y0076415D01*
X0096284Y0076216D01*
X0096483Y0076064D01*
X0096714Y0075968D01*
X0096962Y0075936D01*
X009721Y0075968D01*
X0097441Y0076064D01*
X0097639Y0076216D01*
X0097792Y0076415D01*
X0097887Y0076646D01*
X009792Y0076894D01*
X0097887Y0077142D01*
X0097792Y0077373D01*
X0097639Y0077571D01*
X0097441Y0077724D01*
X009721Y0077819D01*
X0096962Y0077852D01*
D02*
G37*
G36*
X0103237Y0074704D02*
X0103042Y0074665D01*
X0102876Y0074554D01*
X0102766Y0074389D01*
X0102727Y0074194D01*
X0102766Y0073999D01*
X0102876Y0073833D01*
X0103042Y0073723D01*
X0103237Y0073684D01*
X0103432Y0073723D01*
X0103597Y0073833D01*
X0103708Y0073999D01*
X0103747Y0074194D01*
X0103708Y0074389D01*
X0103597Y0074554D01*
X0103432Y0074665D01*
X0103237Y0074704D01*
D02*
G37*
G36*
X0090562Y0073254D02*
X0090367Y0073215D01*
X0090201Y0073104D01*
X0090091Y0072939D01*
X0090052Y0072744D01*
X0090091Y0072549D01*
X0090201Y0072383D01*
X0090367Y0072273D01*
X0090562Y0072234D01*
X0090757Y0072273D01*
X0090922Y0072383D01*
X0091033Y0072549D01*
X0091072Y0072744D01*
X0091033Y0072939D01*
X0090922Y0073104D01*
X0090757Y0073215D01*
X0090562Y0073254D01*
D02*
G37*
G36*
X0089712Y0072079D02*
X0089517Y007204D01*
X0089351Y0071929D01*
X0089241Y0071764D01*
X0089202Y0071569D01*
X0089241Y0071374D01*
X0089351Y0071208D01*
X0089517Y0071098D01*
X0089712Y0071059D01*
X0089907Y0071098D01*
X0090072Y0071208D01*
X0090183Y0071374D01*
X0090222Y0071569D01*
X0090183Y0071764D01*
X0090072Y0071929D01*
X0089907Y007204D01*
X0089712Y0072079D01*
D02*
G37*
G36*
X0104462Y0071879D02*
X0104267Y007184D01*
X0104101Y0071729D01*
X0103991Y0071564D01*
X0103952Y0071369D01*
X0103991Y0071174D01*
X0104101Y0071008D01*
X0104267Y0070898D01*
X0104462Y0070859D01*
X0104657Y0070898D01*
X0104822Y0071008D01*
X0104933Y0071174D01*
X0104972Y0071369D01*
X0104933Y0071564D01*
X0104822Y0071729D01*
X0104657Y007184D01*
X0104462Y0071879D01*
D02*
G37*
G36*
X0089187Y0059702D02*
X0088939Y0059669D01*
X0088708Y0059574D01*
X0088611Y0059499D01*
X0089277Y0058834D01*
X0089942Y0058168D01*
X0090017Y0058265D01*
X0090112Y0058496D01*
X0090145Y0058744D01*
X0090112Y0058992D01*
X0090017Y0059223D01*
X0089864Y0059421D01*
X0089666Y0059574D01*
X0089435Y0059669D01*
X0089187Y0059702D01*
D02*
G37*
G36*
X0103437Y0073304D02*
X0103242Y0073265D01*
X0103076Y0073154D01*
X0102966Y0072989D01*
X0102927Y0072794D01*
X0102966Y0072599D01*
X0103076Y0072433D01*
X0103076Y0072433D01*
X0103077Y0072431D01*
X0103079Y007242D01*
X010308Y0072406D01*
Y0070819D01*
X0103107Y0070682D01*
X0103184Y0070566D01*
X010458Y0069171D01*
Y0063117D01*
X0101734Y0060271D01*
X0101657Y0060155D01*
X010163Y0060019D01*
Y0059895D01*
X0101624Y0059862D01*
X0101611Y0059822D01*
X0101592Y0059777D01*
X0101566Y0059727D01*
X0101533Y0059674D01*
X0101493Y0059618D01*
X0101383Y005949D01*
X0101334Y005944D01*
X0101309Y0059421D01*
X0101157Y0059223D01*
X0101061Y0058992D01*
X0101029Y0058744D01*
X0101061Y0058496D01*
X0101157Y0058265D01*
X0101309Y0058066D01*
X0101508Y0057914D01*
X0101739Y0057818D01*
X0101987Y0057786D01*
X0102235Y0057818D01*
X0102466Y0057914D01*
X0102664Y0058066D01*
X0102817Y0058265D01*
X0102912Y0058496D01*
X0102945Y0058744D01*
X0102912Y0058992D01*
X0102817Y0059223D01*
X0102664Y0059421D01*
X0102642Y0059438D01*
X010253Y0059557D01*
X0102482Y0059616D01*
X0102441Y0059674D01*
X0102407Y0059727D01*
X0102381Y0059777D01*
X0102362Y0059822D01*
X010235Y0059862D01*
X0102348Y0059875D01*
X0105189Y0062716D01*
X0105266Y0062832D01*
X0105294Y0062969D01*
Y0069319D01*
X0105266Y0069455D01*
X0105189Y0069571D01*
X0103794Y0070967D01*
Y007241D01*
X0103794Y0072417D01*
X0103797Y0072431D01*
X0103797Y0072433D01*
X0103797Y0072433D01*
X0103908Y0072599D01*
X0103947Y0072794D01*
X0103908Y0072989D01*
X0103797Y0073154D01*
X0103632Y0073265D01*
X0103437Y0073304D01*
D02*
G37*
G36*
X0088431Y005932D02*
X0088357Y0059223D01*
X0088261Y0058992D01*
X0088229Y0058744D01*
X0088261Y0058496D01*
X0088357Y0058265D01*
X0088509Y0058066D01*
X0088708Y0057914D01*
X0088939Y0057818D01*
X0089187Y0057786D01*
X0089435Y0057818D01*
X0089666Y0057914D01*
X0089763Y0057988D01*
X0089097Y0058654D01*
X0088431Y005932D01*
D02*
G37*
G36*
X0092037Y0059677D02*
X0091789Y0059644D01*
X0091558Y0059549D01*
X0091359Y0059396D01*
X0091207Y0059198D01*
X0091111Y0058967D01*
X0091079Y0058719D01*
X0091111Y0058471D01*
X0091207Y005824D01*
X0091359Y0058041D01*
X0091558Y0057889D01*
X0091789Y0057793D01*
X0092037Y0057761D01*
X0092285Y0057793D01*
X0092516Y0057889D01*
X0092714Y0058041D01*
X0092867Y005824D01*
X0092962Y0058471D01*
X0092995Y0058719D01*
X0092962Y0058967D01*
X0092867Y0059198D01*
X0092714Y0059396D01*
X0092516Y0059549D01*
X0092285Y0059644D01*
X0092037Y0059677D01*
D02*
G37*
G36*
X0104762Y0059652D02*
X0104514Y0059619D01*
X0104283Y0059524D01*
X0104084Y0059371D01*
X0103932Y0059173D01*
X0103836Y0058942D01*
X0103804Y0058694D01*
X0103836Y0058446D01*
X0103932Y0058215D01*
X0104084Y0058016D01*
X0104283Y0057864D01*
X0104514Y0057768D01*
X0104762Y0057736D01*
X010501Y0057768D01*
X0105241Y0057864D01*
X0105439Y0058016D01*
X0105592Y0058215D01*
X0105687Y0058446D01*
X010572Y0058694D01*
X0105687Y0058942D01*
X0105592Y0059173D01*
X0105439Y0059371D01*
X0105241Y0059524D01*
X010501Y0059619D01*
X0104762Y0059652D01*
D02*
G37*
%LPD*%
G36*
X0087434Y0134494D02*
X0087417Y0134493D01*
X0087399Y0134489D01*
X008738Y0134484D01*
X0087361Y0134475D01*
X0087341Y0134465D01*
X0087321Y0134452D01*
X00873Y0134437D01*
X0087278Y0134419D01*
X0087232Y0134377D01*
X008702Y0134589D01*
X0087042Y0134612D01*
X008708Y0134657D01*
X0087095Y0134678D01*
X0087108Y0134698D01*
X0087118Y0134718D01*
X0087127Y0134737D01*
X0087132Y0134756D01*
X0087136Y0134774D01*
X0087137Y0134791D01*
X0087434Y0134494D01*
D02*
G37*
G36*
X0083804Y0130949D02*
X0083781Y0130925D01*
X0083744Y0130881D01*
X0083729Y013086D01*
X0083716Y0130839D01*
X0083705Y0130819D01*
X0083697Y01308D01*
X0083691Y0130782D01*
X0083688Y0130764D01*
X0083687Y0130747D01*
X008339Y0131044D01*
X0083407Y0131045D01*
X0083425Y0131048D01*
X0083443Y0131054D01*
X0083462Y0131062D01*
X0083482Y0131073D01*
X0083503Y0131086D01*
X0083524Y0131101D01*
X0083546Y0131118D01*
X0083592Y0131161D01*
X0083804Y0130949D01*
D02*
G37*
G36*
X0101113Y0125824D02*
X0101116Y0125806D01*
X0101122Y0125787D01*
X010113Y0125768D01*
X0101141Y0125748D01*
X0101154Y0125728D01*
X0101169Y0125707D01*
X0101186Y0125685D01*
X0101229Y0125639D01*
X0101017Y0125427D01*
X0100993Y0125449D01*
X0100949Y0125487D01*
X0100928Y0125502D01*
X0100907Y0125515D01*
X0100887Y0125525D01*
X0100868Y0125534D01*
X010085Y0125539D01*
X0100832Y0125543D01*
X0100815Y0125544D01*
X0101112Y0125841D01*
X0101113Y0125824D01*
D02*
G37*
G36*
X0101987Y0115851D02*
X0101992Y0115793D01*
X0101996Y0115767D01*
X0102002Y0115744D01*
X0102008Y0115722D01*
X0102016Y0115703D01*
X0102025Y0115686D01*
X0102035Y0115671D01*
X0102047Y0115658D01*
X0101627D01*
X0101638Y0115671D01*
X0101648Y0115686D01*
X0101657Y0115703D01*
X0101665Y0115722D01*
X0101672Y0115744D01*
X0101677Y0115767D01*
X0101681Y0115793D01*
X0101684Y0115821D01*
X0101687Y0115884D01*
X0101987D01*
X0101987Y0115851D01*
D02*
G37*
G36*
X0092784Y0126844D02*
X0092767Y0126843D01*
X0092749Y0126839D01*
X009273Y0126834D01*
X0092711Y0126825D01*
X0092691Y0126815D01*
X0092671Y0126802D01*
X009265Y0126787D01*
X0092628Y0126769D01*
X0092582Y0126727D01*
X009237Y0126939D01*
X0092392Y0126962D01*
X009243Y0127007D01*
X0092445Y0127028D01*
X0092458Y0127048D01*
X0092468Y0127068D01*
X0092477Y0127087D01*
X0092482Y0127106D01*
X0092486Y0127124D01*
X0092487Y0127141D01*
X0092784Y0126844D01*
D02*
G37*
G36*
X0095135Y0126467D02*
X0095125Y0126452D01*
X0095116Y0126435D01*
X0095108Y0126415D01*
X0095102Y0126394D01*
X0095096Y012637D01*
X0095092Y0126344D01*
X0095089Y0126316D01*
X0095087Y0126254D01*
X0094787D01*
X0094786Y0126286D01*
X0094781Y0126344D01*
X0094777Y012637D01*
X0094772Y0126394D01*
X0094765Y0126415D01*
X0094757Y0126435D01*
X0094748Y0126452D01*
X0094738Y0126467D01*
X0094727Y012648D01*
X0095147D01*
X0095135Y0126467D01*
D02*
G37*
G36*
X0093509Y0125569D02*
X0093492Y0125568D01*
X0093474Y0125564D01*
X0093455Y0125559D01*
X0093436Y012555D01*
X0093416Y012554D01*
X0093396Y0125527D01*
X0093375Y0125512D01*
X0093353Y0125494D01*
X0093307Y0125452D01*
X0093095Y0125664D01*
X0093117Y0125687D01*
X0093155Y0125732D01*
X009317Y0125753D01*
X0093183Y0125773D01*
X0093193Y0125793D01*
X0093202Y0125812D01*
X0093207Y0125831D01*
X0093211Y0125849D01*
X0093212Y0125866D01*
X0093509Y0125569D01*
D02*
G37*
G36*
X0093766Y0125414D02*
X0093727Y0125219D01*
X0093766Y0125024D01*
X0093876Y0124858D01*
X0094042Y0124748D01*
X0094237Y0124709D01*
X0094432Y0124748D01*
X009458Y0124847D01*
Y0124842D01*
X0094016Y0124278D01*
X0093939Y0124162D01*
X0093912Y0124026D01*
Y0122267D01*
X0093234Y012159D01*
X0093157Y0121474D01*
X009313Y0121338D01*
Y0119173D01*
X0093044Y0119087D01*
Y0124896D01*
X0093493Y0125345D01*
X0093498Y012535D01*
X009351Y0125358D01*
X0093512Y0125359D01*
X0093512Y0125359D01*
X0093707Y0125398D01*
X0093794Y0125456D01*
X0093766Y0125414D01*
D02*
G37*
G36*
X009956Y0124317D02*
X009955Y0124302D01*
X0099541Y0124285D01*
X0099533Y0124265D01*
X0099527Y0124244D01*
X0099521Y012422D01*
X0099517Y0124194D01*
X0099514Y0124166D01*
X0099512Y0124104D01*
X0099212D01*
X0099211Y0124136D01*
X0099206Y0124194D01*
X0099202Y012422D01*
X0099197Y0124244D01*
X009919Y0124265D01*
X0099182Y0124285D01*
X0099173Y0124302D01*
X0099163Y0124317D01*
X0099152Y012433D01*
X0099572D01*
X009956Y0124317D01*
D02*
G37*
G36*
X0095959Y0122944D02*
X0095942Y0122943D01*
X0095924Y0122939D01*
X0095905Y0122934D01*
X0095886Y0122925D01*
X0095866Y0122915D01*
X0095846Y0122902D01*
X0095825Y0122887D01*
X0095803Y0122869D01*
X0095757Y0122827D01*
X0095545Y0123039D01*
X0095567Y0123062D01*
X0095605Y0123107D01*
X009562Y0123128D01*
X0095633Y0123148D01*
X0095643Y0123168D01*
X0095652Y0123187D01*
X0095657Y0123206D01*
X0095661Y0123224D01*
X0095662Y0123241D01*
X0095959Y0122944D01*
D02*
G37*
G36*
X0096001Y0122679D02*
X0095944Y0122593D01*
Y0122721D01*
X0095948Y0122725D01*
X009596Y0122733D01*
X0095962Y0122734D01*
X0095962Y0122734D01*
X0096135Y0122768D01*
X0096001Y0122679D01*
D02*
G37*
G36*
X0098485Y0120592D02*
X0098475Y0120577D01*
X0098466Y012056D01*
X0098458Y012054D01*
X0098452Y0120519D01*
X0098446Y0120495D01*
X0098442Y0120469D01*
X0098439Y0120441D01*
X0098437Y0120379D01*
X0098137D01*
X0098136Y0120411D01*
X0098131Y0120469D01*
X0098127Y0120495D01*
X0098122Y0120519D01*
X0098115Y012054D01*
X0098107Y012056D01*
X0098098Y0120577D01*
X0098088Y0120592D01*
X0098077Y0120605D01*
X0098497D01*
X0098485Y0120592D01*
D02*
G37*
G36*
X0095605Y0119718D02*
X0095597Y0119729D01*
X0095513Y0119785D01*
X0095605Y0119847D01*
Y0119718D01*
D02*
G37*
G36*
X0091535Y0117117D02*
X0091525Y0117102D01*
X0091516Y0117085D01*
X0091508Y0117065D01*
X0091502Y0117044D01*
X0091496Y011702D01*
X0091492Y0116994D01*
X0091489Y0116966D01*
X0091487Y0116904D01*
X0091187D01*
X0091186Y0116936D01*
X0091181Y0116994D01*
X0091177Y011702D01*
X0091172Y0117044D01*
X0091165Y0117065D01*
X0091157Y0117085D01*
X0091148Y0117102D01*
X0091138Y0117117D01*
X0091127Y011713D01*
X0091547D01*
X0091535Y0117117D01*
D02*
G37*
G36*
X009353Y0117288D02*
X0093575Y0117251D01*
X0093596Y0117236D01*
X0093616Y0117223D01*
X0093636Y0117212D01*
X0093655Y0117204D01*
X0093674Y0117198D01*
X0093692Y0117195D01*
X0093709Y0117194D01*
X0093412Y0116897D01*
X0093411Y0116914D01*
X0093407Y0116932D01*
X0093402Y011695D01*
X0093393Y0116969D01*
X0093383Y0116989D01*
X009337Y011701D01*
X0093355Y0117031D01*
X0093337Y0117053D01*
X0093295Y0117099D01*
X0093507Y0117311D01*
X009353Y0117288D01*
D02*
G37*
G36*
X0092337Y0115201D02*
X0092342Y0115143D01*
X0092346Y0115117D01*
X0092352Y0115094D01*
X0092358Y0115072D01*
X0092366Y0115053D01*
X0092375Y0115036D01*
X0092385Y0115021D01*
X0092397Y0115008D01*
X0091977D01*
X0091988Y0115021D01*
X0091998Y0115036D01*
X0092007Y0115053D01*
X0092015Y0115072D01*
X0092022Y0115094D01*
X0092027Y0115117D01*
X0092031Y0115143D01*
X0092034Y0115171D01*
X0092037Y0115234D01*
X0092337D01*
X0092337Y0115201D01*
D02*
G37*
G36*
X009183Y0115177D02*
X0091829Y0115171D01*
X0091827Y0115157D01*
X0091826Y0115154D01*
X0091826Y0115154D01*
X0091716Y0114989D01*
X0091694Y0114878D01*
Y011696D01*
X0091694Y0116967D01*
X0091697Y0116981D01*
X0091697Y0116983D01*
X0091697Y0116983D01*
X0091808Y0117149D01*
X009183Y011726D01*
Y0115177D01*
D02*
G37*
G36*
X0094729Y0114649D02*
X0094706Y0114625D01*
X0094669Y0114581D01*
X0094654Y011456D01*
X0094641Y0114539D01*
X009463Y0114519D01*
X0094622Y01145D01*
X0094616Y0114482D01*
X0094613Y0114464D01*
X0094612Y0114447D01*
X0094315Y0114744D01*
X0094332Y0114745D01*
X009435Y0114748D01*
X0094368Y0114754D01*
X0094387Y0114762D01*
X0094407Y0114773D01*
X0094428Y0114786D01*
X0094449Y0114801D01*
X0094471Y0114818D01*
X0094517Y0114861D01*
X0094729Y0114649D01*
D02*
G37*
G36*
X0092755Y0115521D02*
Y0114219D01*
X0092782Y0114082D01*
X0092859Y0113966D01*
X0092988Y0113838D01*
X0092993Y0113832D01*
X0093001Y0113821D01*
X0093002Y0113819D01*
X0093002Y0113819D01*
X0093041Y0113624D01*
X0093151Y0113458D01*
X0093317Y0113348D01*
X0093512Y0113309D01*
X0093707Y0113348D01*
X0093872Y0113458D01*
X0093955Y0113582D01*
Y0112817D01*
X0092144Y0111005D01*
Y0111397D01*
X0092414Y0111668D01*
X0092491Y0111783D01*
X0092519Y011192D01*
Y011261D01*
X0092519Y0112617D01*
X0092522Y0112631D01*
X0092522Y0112633D01*
X0092522Y0112633D01*
X0092633Y0112799D01*
X0092672Y0112994D01*
X0092633Y0113189D01*
X0092522Y0113354D01*
X0092357Y0113465D01*
X0092162Y0113504D01*
X0091967Y0113465D01*
X0091801Y0113354D01*
X0091694Y0113193D01*
Y011471D01*
X0091716Y0114599D01*
X0091826Y0114433D01*
X0091992Y0114323D01*
X0092187Y0114284D01*
X0092382Y0114323D01*
X0092547Y0114433D01*
X0092658Y0114599D01*
X0092697Y0114794D01*
X0092658Y0114989D01*
X0092547Y0115154D01*
X0092547Y0115154D01*
X0092547Y0115157D01*
X0092545Y0115168D01*
X0092544Y0115181D01*
Y0115732D01*
X0092755Y0115521D01*
D02*
G37*
G36*
X0099559Y0114319D02*
X0099542Y0114318D01*
X0099524Y0114314D01*
X0099505Y0114309D01*
X0099486Y01143D01*
X0099466Y011429D01*
X0099446Y0114277D01*
X0099425Y0114262D01*
X0099403Y0114244D01*
X0099357Y0114202D01*
X0099145Y0114414D01*
X0099167Y0114437D01*
X0099205Y0114482D01*
X009922Y0114503D01*
X0099233Y0114523D01*
X0099243Y0114543D01*
X0099252Y0114562D01*
X0099257Y0114581D01*
X0099261Y0114599D01*
X0099262Y0114616D01*
X0099559Y0114319D01*
D02*
G37*
G36*
X009451Y0114217D02*
X00945Y0114202D01*
X0094491Y0114185D01*
X0094483Y0114165D01*
X0094477Y0114144D01*
X0094471Y011412D01*
X0094467Y0114094D01*
X0094464Y0114066D01*
X0094462Y0114004D01*
X0094162D01*
X0094161Y0114036D01*
X0094156Y0114094D01*
X0094152Y011412D01*
X0094147Y0114144D01*
X009414Y0114165D01*
X0094132Y0114185D01*
X0094123Y0114202D01*
X0094113Y0114217D01*
X0094102Y011423D01*
X0094522D01*
X009451Y0114217D01*
D02*
G37*
G36*
X009333Y0114213D02*
X0093375Y0114176D01*
X0093396Y0114161D01*
X0093416Y0114148D01*
X0093436Y0114137D01*
X0093455Y0114129D01*
X0093474Y0114123D01*
X0093492Y011412D01*
X0093509Y0114119D01*
X0093212Y0113822D01*
X0093211Y0113839D01*
X0093207Y0113857D01*
X0093202Y0113875D01*
X0093193Y0113894D01*
X0093183Y0113914D01*
X009317Y0113935D01*
X0093155Y0113956D01*
X0093137Y0113978D01*
X0093095Y0114024D01*
X0093307Y0114236D01*
X009333Y0114213D01*
D02*
G37*
G36*
X009236Y0112767D02*
X009235Y0112752D01*
X0092341Y0112735D01*
X0092333Y0112715D01*
X0092327Y0112694D01*
X0092321Y011267D01*
X0092317Y0112644D01*
X0092314Y0112616D01*
X0092312Y0112554D01*
X0092012D01*
X0092011Y0112586D01*
X0092006Y0112644D01*
X0092002Y011267D01*
X0091997Y0112694D01*
X009199Y0112715D01*
X0091982Y0112735D01*
X0091973Y0112752D01*
X0091963Y0112767D01*
X0091952Y011278D01*
X0092372D01*
X009236Y0112767D01*
D02*
G37*
G36*
X0091801Y0112633D02*
X0091801Y0112633D01*
X0091802Y0112631D01*
X0091804Y011262D01*
X0091805Y0112606D01*
Y0112068D01*
X0091694Y0111956D01*
Y0112794D01*
X0091801Y0112633D01*
D02*
G37*
G36*
X0094455Y0107118D02*
X0094447Y0107129D01*
X0094447Y0107129D01*
X0094447Y0107132D01*
X0094445Y0107143D01*
X0094444Y0107156D01*
Y0110871D01*
X0094455Y0110882D01*
Y0107118D01*
D02*
G37*
G36*
X0094237Y0107176D02*
X0094242Y0107118D01*
X0094246Y0107092D01*
X0094252Y0107069D01*
X0094258Y0107047D01*
X0094266Y0107028D01*
X0094275Y0107011D01*
X0094285Y0106996D01*
X0094297Y0106983D01*
X0093877D01*
X0093888Y0106996D01*
X0093898Y0107011D01*
X0093907Y0107028D01*
X0093915Y0107047D01*
X0093922Y0107069D01*
X0093927Y0107092D01*
X0093931Y0107118D01*
X0093934Y0107146D01*
X0093937Y0107209D01*
X0094237D01*
X0094237Y0107176D01*
D02*
G37*
G36*
X0094285Y0106542D02*
X0094275Y0106527D01*
X0094266Y010651D01*
X0094258Y010649D01*
X0094252Y0106469D01*
X0094246Y0106445D01*
X0094242Y0106419D01*
X0094239Y0106391D01*
X0094237Y0106329D01*
X0093937D01*
X0093936Y0106361D01*
X0093931Y0106419D01*
X0093927Y0106445D01*
X0093922Y0106469D01*
X0093915Y010649D01*
X0093907Y010651D01*
X0093898Y0106527D01*
X0093888Y0106542D01*
X0093877Y0106555D01*
X0094297D01*
X0094285Y0106542D01*
D02*
G37*
G36*
X0094792Y0112573D02*
X0094987Y0112534D01*
X0095125Y0112561D01*
X0093834Y0111271D01*
X0093757Y0111155D01*
X009373Y0111019D01*
Y0107152D01*
X0093729Y0107146D01*
X0093727Y0107132D01*
X0093726Y0107129D01*
X0093726Y0107129D01*
X0093616Y0106964D01*
X0093577Y0106769D01*
X0093616Y0106574D01*
X0093726Y0106408D01*
X0093726Y0106408D01*
X0093727Y0106406D01*
X0093729Y0106395D01*
X009373Y0106381D01*
Y0101994D01*
X0093757Y0101857D01*
X0093834Y0101741D01*
X0094913Y0100663D01*
X0094918Y0100657D01*
X0094926Y0100646D01*
X0094927Y0100644D01*
X0094927Y0100644D01*
X0094966Y0100449D01*
X0095076Y0100283D01*
X0095076Y0100283D01*
X0095077Y0100281D01*
X0095079Y010027D01*
X009508Y0100256D01*
Y0091844D01*
X0095107Y0091707D01*
X0095184Y0091591D01*
X0095375Y0091401D01*
X0095362Y0091404D01*
X0095362Y0091404D01*
X009536Y0091405D01*
X009535Y0091412D01*
X009534Y009142D01*
X0094619Y0092142D01*
Y0098235D01*
X0094619Y0098242D01*
X0094622Y0098256D01*
X0094622Y0098258D01*
X0094622Y0098258D01*
X0094733Y0098424D01*
X0094772Y0098619D01*
X0094733Y0098814D01*
X0094622Y0098979D01*
X0094457Y009909D01*
X0094262Y0099129D01*
X0094067Y009909D01*
X0093901Y0098979D01*
X0093791Y0098814D01*
X0093752Y0098619D01*
X0093791Y0098424D01*
X0093901Y0098258D01*
X0093901Y0098258D01*
X0093902Y0098256D01*
X0093904Y0098245D01*
X0093905Y0098231D01*
Y0091994D01*
X0093932Y0091857D01*
X0094009Y0091741D01*
X0094838Y0090913D01*
X0094843Y0090907D01*
X0094851Y0090896D01*
X0094852Y0090894D01*
X0094852Y0090894D01*
X0094891Y0090699D01*
X0095001Y0090533D01*
X0095167Y0090423D01*
X0095362Y0090384D01*
X0095557Y0090423D01*
X0095655Y0090488D01*
Y0089463D01*
X0095641Y008953D01*
X0095564Y0089646D01*
X0093744Y0091467D01*
Y009751D01*
X0093744Y0097517D01*
X0093747Y0097531D01*
X0093747Y0097533D01*
X0093747Y0097533D01*
X0093858Y0097699D01*
X0093897Y0097894D01*
X0093858Y0098089D01*
X0093747Y0098254D01*
X0093582Y0098365D01*
X0093387Y0098404D01*
X0093192Y0098365D01*
X0093044Y0098266D01*
Y0101794D01*
X0093016Y010193D01*
X0092939Y0102046D01*
X0092193Y0102793D01*
X0092362Y0102759D01*
X0092557Y0102798D01*
X0092722Y0102908D01*
X0092833Y0103074D01*
X0092872Y0103269D01*
X0092833Y0103464D01*
X0092722Y0103629D01*
X0092722Y0103629D01*
X0092722Y0103632D01*
X009272Y0103643D01*
X0092719Y0103656D01*
Y0106095D01*
X0092776Y0106008D01*
X0092942Y0105898D01*
X0093137Y0105859D01*
X0093332Y0105898D01*
X0093497Y0106008D01*
X0093608Y0106174D01*
X0093647Y0106369D01*
X0093608Y0106564D01*
X0093497Y0106729D01*
X0093332Y010684D01*
X0093137Y0106879D01*
X0092942Y010684D01*
X0092776Y0106729D01*
X0092719Y0106643D01*
Y0110571D01*
X0094564Y0112416D01*
X0094641Y0112532D01*
X0094666Y0112657D01*
X0094792Y0112573D01*
D02*
G37*
G36*
X0092512Y0103676D02*
X0092517Y0103618D01*
X0092521Y0103592D01*
X0092527Y0103569D01*
X0092533Y0103547D01*
X0092541Y0103528D01*
X009255Y0103511D01*
X009256Y0103496D01*
X0092572Y0103483D01*
X0092152D01*
X0092163Y0103496D01*
X0092173Y0103511D01*
X0092182Y0103528D01*
X009219Y0103547D01*
X0092197Y0103569D01*
X0092202Y0103592D01*
X0092206Y0103618D01*
X0092209Y0103646D01*
X0092212Y0103709D01*
X0092512D01*
X0092512Y0103676D01*
D02*
G37*
G36*
X0094455Y0103202D02*
X0094454Y0103196D01*
X0094452Y0103182D01*
X0094451Y0103179D01*
X0094451Y0103179D01*
X0094444Y0103168D01*
Y0106385D01*
X0094444Y0106392D01*
X0094447Y0106406D01*
X0094447Y0106408D01*
X0094447Y0106408D01*
X0094455Y010642D01*
Y0103202D01*
D02*
G37*
G36*
X0094962Y0103226D02*
X0094967Y0103168D01*
X0094971Y0103142D01*
X0094977Y0103119D01*
X0094983Y0103097D01*
X0094991Y0103078D01*
X0095Y0103061D01*
X009501Y0103046D01*
X0095022Y0103033D01*
X0094602D01*
X0094613Y0103046D01*
X0094623Y0103061D01*
X0094632Y0103078D01*
X009464Y0103097D01*
X0094647Y0103119D01*
X0094652Y0103142D01*
X0094656Y0103168D01*
X0094659Y0103196D01*
X0094662Y0103259D01*
X0094962D01*
X0094962Y0103226D01*
D02*
G37*
G36*
X0098937Y0103201D02*
X0098942Y0103143D01*
X0098946Y0103117D01*
X0098952Y0103094D01*
X0098958Y0103072D01*
X0098966Y0103053D01*
X0098975Y0103036D01*
X0098985Y0103021D01*
X0098997Y0103008D01*
X0098577D01*
X0098588Y0103021D01*
X0098598Y0103036D01*
X0098607Y0103053D01*
X0098615Y0103072D01*
X0098622Y0103094D01*
X0098627Y0103117D01*
X0098631Y0103143D01*
X0098634Y0103171D01*
X0098637Y0103234D01*
X0098937D01*
X0098937Y0103201D01*
D02*
G37*
G36*
X0090688Y0101824D02*
X0090691Y0101806D01*
X0090697Y0101787D01*
X0090705Y0101768D01*
X0090716Y0101748D01*
X0090729Y0101728D01*
X0090744Y0101707D01*
X0090761Y0101685D01*
X0090804Y0101639D01*
X0090592Y0101427D01*
X0090568Y0101449D01*
X0090524Y0101487D01*
X0090503Y0101502D01*
X0090482Y0101515D01*
X0090462Y0101525D01*
X0090443Y0101534D01*
X0090425Y0101539D01*
X0090407Y0101543D01*
X009039Y0101544D01*
X0090687Y0101841D01*
X0090688Y0101824D01*
D02*
G37*
G36*
X0095255Y0101038D02*
X00953Y0101001D01*
X0095321Y0100986D01*
X0095341Y0100973D01*
X0095361Y0100962D01*
X009538Y0100954D01*
X0095399Y0100948D01*
X0095417Y0100945D01*
X0095434Y0100944D01*
X0095137Y0100647D01*
X0095136Y0100664D01*
X0095132Y0100682D01*
X0095127Y01007D01*
X0095118Y0100719D01*
X0095108Y0100739D01*
X0095095Y010076D01*
X009508Y0100781D01*
X0095062Y0100803D01*
X009502Y0100849D01*
X0095232Y0101061D01*
X0095255Y0101038D01*
D02*
G37*
G36*
X0095635Y0100417D02*
X0095625Y0100402D01*
X0095616Y0100385D01*
X0095608Y0100365D01*
X0095602Y0100344D01*
X0095596Y010032D01*
X0095592Y0100294D01*
X0095589Y0100266D01*
X0095587Y0100204D01*
X0095287D01*
X0095286Y0100236D01*
X0095281Y0100294D01*
X0095277Y010032D01*
X0095272Y0100344D01*
X0095265Y0100365D01*
X0095257Y0100385D01*
X0095248Y0100402D01*
X0095238Y0100417D01*
X0095227Y010043D01*
X0095647D01*
X0095635Y0100417D01*
D02*
G37*
G36*
X009446Y0098392D02*
X009445Y0098377D01*
X0094441Y009836D01*
X0094433Y009834D01*
X0094427Y0098319D01*
X0094421Y0098295D01*
X0094417Y0098269D01*
X0094414Y0098241D01*
X0094412Y0098179D01*
X0094112D01*
X0094111Y0098211D01*
X0094106Y0098269D01*
X0094102Y0098295D01*
X0094097Y0098319D01*
X009409Y009834D01*
X0094082Y009836D01*
X0094073Y0098377D01*
X0094063Y0098392D01*
X0094052Y0098405D01*
X0094472D01*
X009446Y0098392D01*
D02*
G37*
G36*
X0093585Y0097667D02*
X0093575Y0097652D01*
X0093566Y0097635D01*
X0093558Y0097615D01*
X0093552Y0097594D01*
X0093546Y009757D01*
X0093542Y0097544D01*
X0093539Y0097516D01*
X0093537Y0097454D01*
X0093237D01*
X0093236Y0097486D01*
X0093231Y0097544D01*
X0093227Y009757D01*
X0093222Y0097594D01*
X0093215Y0097615D01*
X0093207Y0097635D01*
X0093198Y0097652D01*
X0093188Y0097667D01*
X0093177Y009768D01*
X0093597D01*
X0093585Y0097667D01*
D02*
G37*
G36*
X009233Y0101646D02*
Y0091868D01*
X0092322Y0091879D01*
X0092322Y0091879D01*
X0092322Y0091882D01*
X009232Y0091893D01*
X0092319Y0091906D01*
Y0101419D01*
X0092291Y0101555D01*
X0092214Y0101671D01*
X0091694Y0102192D01*
Y0102282D01*
X009233Y0101646D01*
D02*
G37*
G36*
X0092112Y0091926D02*
X0092117Y0091868D01*
X0092121Y0091842D01*
X0092127Y0091819D01*
X0092133Y0091797D01*
X0092141Y0091778D01*
X009215Y0091761D01*
X009216Y0091746D01*
X0092172Y0091733D01*
X0091752D01*
X0091763Y0091746D01*
X0091773Y0091761D01*
X0091782Y0091778D01*
X009179Y0091797D01*
X0091797Y0091819D01*
X0091802Y0091842D01*
X0091806Y0091868D01*
X0091809Y0091896D01*
X0091812Y0091959D01*
X0092112D01*
X0092112Y0091926D01*
D02*
G37*
G36*
X009518Y0091288D02*
X0095225Y0091251D01*
X0095246Y0091236D01*
X0095266Y0091223D01*
X0095286Y0091212D01*
X0095305Y0091204D01*
X0095324Y0091198D01*
X0095342Y0091195D01*
X0095359Y0091194D01*
X0095062Y0090897D01*
X0095061Y0090914D01*
X0095057Y0090932D01*
X0095052Y009095D01*
X0095043Y0090969D01*
X0095033Y0090989D01*
X009502Y009101D01*
X0095005Y0091031D01*
X0094987Y0091053D01*
X0094945Y0091099D01*
X0095157Y0091311D01*
X009518Y0091288D01*
D02*
G37*
G36*
X0091362Y0090451D02*
X0091367Y0090393D01*
X0091371Y0090367D01*
X0091377Y0090344D01*
X0091383Y0090322D01*
X0091391Y0090303D01*
X00914Y0090286D01*
X009141Y0090271D01*
X0091422Y0090258D01*
X0091002D01*
X0091013Y0090271D01*
X0091023Y0090286D01*
X0091032Y0090303D01*
X009104Y0090322D01*
X0091047Y0090344D01*
X0091052Y0090367D01*
X0091056Y0090393D01*
X0091059Y0090421D01*
X0091062Y0090484D01*
X0091362D01*
X0091362Y0090451D01*
D02*
G37*
G36*
X0094384Y0086344D02*
X0094367Y0086343D01*
X0094349Y0086339D01*
X009433Y0086334D01*
X0094311Y0086325D01*
X0094291Y0086315D01*
X0094271Y0086302D01*
X009425Y0086287D01*
X0094228Y0086269D01*
X0094182Y0086227D01*
X009397Y0086439D01*
X0093992Y0086462D01*
X009403Y0086507D01*
X0094045Y0086528D01*
X0094058Y0086548D01*
X0094068Y0086568D01*
X0094077Y0086587D01*
X0094082Y0086606D01*
X0094086Y0086624D01*
X0094087Y0086641D01*
X0094384Y0086344D01*
D02*
G37*
G36*
X0095655Y0086267D02*
X0095583Y0086195D01*
X0095641Y0086282D01*
X0095655Y008635D01*
Y0086267D01*
D02*
G37*
G36*
X0090637Y0079826D02*
X0090642Y0079768D01*
X0090646Y0079742D01*
X0090652Y0079719D01*
X0090658Y0079697D01*
X0090666Y0079678D01*
X0090675Y0079661D01*
X0090685Y0079646D01*
X0090697Y0079633D01*
X0090277D01*
X0090288Y0079646D01*
X0090298Y0079661D01*
X0090307Y0079678D01*
X0090315Y0079697D01*
X0090322Y0079719D01*
X0090327Y0079742D01*
X0090331Y0079768D01*
X0090334Y0079796D01*
X0090337Y0079859D01*
X0090637D01*
X0090637Y0079826D01*
D02*
G37*
G36*
X0091637Y0079601D02*
X0091642Y0079543D01*
X0091646Y0079517D01*
X0091652Y0079494D01*
X0091658Y0079472D01*
X0091666Y0079453D01*
X0091675Y0079436D01*
X0091685Y0079421D01*
X0091697Y0079408D01*
X0091277D01*
X0091288Y0079421D01*
X0091298Y0079436D01*
X0091307Y0079453D01*
X0091315Y0079472D01*
X0091322Y0079494D01*
X0091327Y0079517D01*
X0091331Y0079543D01*
X0091334Y0079571D01*
X0091337Y0079634D01*
X0091637D01*
X0091637Y0079601D01*
D02*
G37*
G36*
X0090512Y0076001D02*
X0090517Y0075943D01*
X0090521Y0075917D01*
X0090527Y0075894D01*
X0090533Y0075872D01*
X0090541Y0075853D01*
X009055Y0075836D01*
X009056Y0075821D01*
X0090572Y0075808D01*
X0090152D01*
X0090163Y0075821D01*
X0090173Y0075836D01*
X0090182Y0075853D01*
X009019Y0075872D01*
X0090197Y0075894D01*
X0090202Y0075917D01*
X0090206Y0075943D01*
X0090209Y0075971D01*
X0090212Y0076034D01*
X0090512D01*
X0090512Y0076001D01*
D02*
G37*
G36*
X0091058Y0074428D02*
X0091036Y0074405D01*
X0091Y007436D01*
X0090985Y0074339D01*
X0090974Y0074318D01*
X0090965Y0074298D01*
X0090959Y0074279D01*
X0090955Y007426D01*
X0090955Y0074242D01*
X0090957Y0074225D01*
X0090612Y0074465D01*
X0090626Y0074468D01*
X0090642Y0074474D01*
X0090659Y0074481D01*
X0090676Y0074491D01*
X0090695Y0074503D01*
X0090714Y0074518D01*
X0090756Y0074552D01*
X0090802Y0074596D01*
X0091058Y0074428D01*
D02*
G37*
G36*
X0088384Y0119144D02*
X0088367Y0119143D01*
X0088349Y0119139D01*
X008833Y0119134D01*
X0088311Y0119125D01*
X0088291Y0119115D01*
X0088271Y0119102D01*
X008825Y0119087D01*
X0088228Y0119069D01*
X0088182Y0119027D01*
X008797Y0119239D01*
X0087992Y0119262D01*
X008803Y0119307D01*
X0088045Y0119328D01*
X0088058Y0119348D01*
X0088068Y0119368D01*
X0088077Y0119387D01*
X0088082Y0119406D01*
X0088086Y0119424D01*
X0088087Y0119441D01*
X0088384Y0119144D01*
D02*
G37*
G36*
X0087612Y0109351D02*
X0087617Y0109293D01*
X0087621Y0109267D01*
X0087627Y0109244D01*
X0087633Y0109222D01*
X0087641Y0109203D01*
X008765Y0109186D01*
X008766Y0109171D01*
X0087672Y0109158D01*
X0087252D01*
X0087263Y0109171D01*
X0087273Y0109186D01*
X0087282Y0109203D01*
X008729Y0109222D01*
X0087297Y0109244D01*
X0087302Y0109267D01*
X0087306Y0109293D01*
X0087309Y0109321D01*
X0087312Y0109384D01*
X0087612D01*
X0087612Y0109351D01*
D02*
G37*
G36*
X0108405Y0118888D02*
X010845Y0118851D01*
X0108471Y0118836D01*
X0108491Y0118823D01*
X0108511Y0118812D01*
X010853Y0118804D01*
X0108549Y0118798D01*
X0108567Y0118795D01*
X0108584Y0118794D01*
X0108287Y0118497D01*
X0108286Y0118514D01*
X0108282Y0118532D01*
X0108277Y011855D01*
X0108268Y0118569D01*
X0108258Y0118589D01*
X0108245Y011861D01*
X010823Y0118631D01*
X0108212Y0118653D01*
X010817Y0118699D01*
X0108382Y0118911D01*
X0108405Y0118888D01*
D02*
G37*
G36*
X0104719Y0118253D02*
Y0118271D01*
X0104723Y0118276D01*
X0104719Y0118253D01*
D02*
G37*
G36*
X010541Y0117942D02*
X01054Y0117927D01*
X0105391Y011791D01*
X0105383Y011789D01*
X0105377Y0117869D01*
X0105371Y0117845D01*
X0105367Y0117819D01*
X0105364Y0117791D01*
X0105362Y0117729D01*
X0105062D01*
X0105061Y0117761D01*
X0105056Y0117819D01*
X0105052Y0117845D01*
X0105047Y0117869D01*
X010504Y011789D01*
X0105032Y011791D01*
X0105023Y0117927D01*
X0105013Y0117942D01*
X0105002Y0117955D01*
X0105422D01*
X010541Y0117942D01*
D02*
G37*
G36*
X0104512Y0117426D02*
X0104517Y0117368D01*
X0104521Y0117342D01*
X0104527Y0117319D01*
X0104533Y0117297D01*
X0104541Y0117278D01*
X010455Y0117261D01*
X010456Y0117246D01*
X0104572Y0117233D01*
X0104152D01*
X0104163Y0117246D01*
X0104173Y0117261D01*
X0104182Y0117278D01*
X010419Y0117297D01*
X0104197Y0117319D01*
X0104202Y0117342D01*
X0104206Y0117368D01*
X0104209Y0117396D01*
X0104212Y0117459D01*
X0104512D01*
X0104512Y0117426D01*
D02*
G37*
G36*
X0104741Y0117974D02*
X0104851Y0117808D01*
X0104851Y0117808D01*
X0104852Y0117806D01*
X0104854Y0117795D01*
X0104855Y0117781D01*
Y0117103D01*
X0104833Y0117214D01*
X0104722Y0117379D01*
X0104722Y0117379D01*
X0104722Y0117382D01*
X010472Y0117393D01*
X0104719Y0117406D01*
Y0118085D01*
X0104741Y0117974D01*
D02*
G37*
G36*
X0105362Y0102726D02*
X0105367Y0102668D01*
X0105371Y0102642D01*
X0105377Y0102619D01*
X0105383Y0102597D01*
X0105391Y0102578D01*
X01054Y0102561D01*
X010541Y0102546D01*
X0105422Y0102533D01*
X0105002D01*
X0105013Y0102546D01*
X0105023Y0102561D01*
X0105032Y0102578D01*
X010504Y0102597D01*
X0105047Y0102619D01*
X0105052Y0102642D01*
X0105056Y0102668D01*
X0105059Y0102696D01*
X0105062Y0102759D01*
X0105362D01*
X0105362Y0102726D01*
D02*
G37*
G36*
X009061Y0126267D02*
X00906Y0126252D01*
X0090591Y0126235D01*
X0090583Y0126215D01*
X0090577Y0126194D01*
X0090571Y012617D01*
X0090567Y0126144D01*
X0090564Y0126116D01*
X0090562Y0126054D01*
X0090262D01*
X0090261Y0126086D01*
X0090256Y0126144D01*
X0090252Y012617D01*
X0090247Y0126194D01*
X009024Y0126215D01*
X0090232Y0126235D01*
X0090223Y0126252D01*
X0090213Y0126267D01*
X0090202Y012628D01*
X0090622D01*
X009061Y0126267D01*
D02*
G37*
G36*
X0090562Y0117136D02*
X0090567Y0117078D01*
X0090571Y0117052D01*
X0090577Y0117029D01*
X0090583Y0117007D01*
X0090591Y0116988D01*
X00906Y0116971D01*
X009061Y0116956D01*
X0090622Y0116943D01*
X0090202D01*
X0090213Y0116956D01*
X0090223Y0116971D01*
X0090232Y0116988D01*
X009024Y0117007D01*
X0090247Y0117029D01*
X0090252Y0117052D01*
X0090256Y0117078D01*
X0090259Y0117106D01*
X0090262Y0117168D01*
X0090562D01*
X0090562Y0117136D01*
D02*
G37*
G36*
X008596Y0129542D02*
X008595Y0129527D01*
X0085941Y012951D01*
X0085933Y012949D01*
X0085927Y0129469D01*
X0085921Y0129445D01*
X0085917Y0129419D01*
X0085914Y0129391D01*
X0085912Y0129329D01*
X0085612D01*
X0085611Y0129361D01*
X0085606Y0129419D01*
X0085602Y0129445D01*
X0085597Y0129469D01*
X008559Y012949D01*
X0085582Y012951D01*
X0085573Y0129527D01*
X0085563Y0129542D01*
X0085552Y0129555D01*
X0085972D01*
X008596Y0129542D01*
D02*
G37*
G36*
X0090537Y0108551D02*
X0090542Y0108493D01*
X0090546Y0108467D01*
X0090552Y0108444D01*
X0090558Y0108422D01*
X0090566Y0108403D01*
X0090575Y0108386D01*
X0090585Y0108371D01*
X0090597Y0108358D01*
X0090177D01*
X0090188Y0108371D01*
X0090198Y0108386D01*
X0090207Y0108403D01*
X0090215Y0108422D01*
X0090222Y0108444D01*
X0090227Y0108467D01*
X0090231Y0108493D01*
X0090234Y0108521D01*
X0090237Y0108584D01*
X0090537D01*
X0090537Y0108551D01*
D02*
G37*
G36*
X0103935Y0113892D02*
X0103925Y0113877D01*
X0103916Y011386D01*
X0103908Y011384D01*
X0103902Y0113819D01*
X0103896Y0113795D01*
X0103892Y0113769D01*
X0103889Y0113741D01*
X0103887Y0113679D01*
X0103587D01*
X0103586Y0113711D01*
X0103581Y0113769D01*
X0103577Y0113795D01*
X0103572Y0113819D01*
X0103565Y011384D01*
X0103557Y011386D01*
X0103548Y0113877D01*
X0103538Y0113892D01*
X0103527Y0113905D01*
X0103947D01*
X0103935Y0113892D01*
D02*
G37*
G36*
X0103887Y0106876D02*
X0103892Y0106818D01*
X0103896Y0106792D01*
X0103902Y0106769D01*
X0103908Y0106747D01*
X0103916Y0106728D01*
X0103925Y0106711D01*
X0103935Y0106696D01*
X0103947Y0106683D01*
X0103527D01*
X0103538Y0106696D01*
X0103548Y0106711D01*
X0103557Y0106728D01*
X0103565Y0106747D01*
X0103572Y0106769D01*
X0103577Y0106792D01*
X0103581Y0106818D01*
X0103584Y0106846D01*
X0103587Y0106909D01*
X0103887D01*
X0103887Y0106876D01*
D02*
G37*
G36*
X0103035Y0113142D02*
X0103025Y0113127D01*
X0103016Y011311D01*
X0103008Y011309D01*
X0103002Y0113069D01*
X0102996Y0113045D01*
X0102992Y0113019D01*
X0102989Y0112991D01*
X0102987Y0112929D01*
X0102687D01*
X0102686Y0112961D01*
X0102681Y0113019D01*
X0102677Y0113045D01*
X0102672Y0113069D01*
X0102665Y011309D01*
X0102657Y011311D01*
X0102648Y0113127D01*
X0102638Y0113142D01*
X0102627Y0113155D01*
X0103047D01*
X0103035Y0113142D01*
D02*
G37*
G36*
X009746Y0107942D02*
X009745Y0107927D01*
X0097441Y010791D01*
X0097433Y010789D01*
X0097427Y0107869D01*
X0097421Y0107845D01*
X0097417Y0107819D01*
X0097414Y0107791D01*
X0097412Y0107729D01*
X0097112D01*
X0097111Y0107761D01*
X0097106Y0107819D01*
X0097102Y0107845D01*
X0097097Y0107869D01*
X009709Y010789D01*
X0097082Y010791D01*
X0097073Y0107927D01*
X0097063Y0107942D01*
X0097052Y0107955D01*
X0097472D01*
X009746Y0107942D01*
D02*
G37*
G36*
X0102085Y0107417D02*
X0102075Y0107402D01*
X0102066Y0107385D01*
X0102058Y0107365D01*
X0102052Y0107344D01*
X0102046Y010732D01*
X0102042Y0107294D01*
X0102039Y0107266D01*
X0102037Y0107204D01*
X0101737D01*
X0101736Y0107236D01*
X0101731Y0107294D01*
X0101727Y010732D01*
X0101722Y0107344D01*
X0101715Y0107365D01*
X0101707Y0107385D01*
X0101698Y0107402D01*
X0101688Y0107417D01*
X0101677Y010743D01*
X0102097D01*
X0102085Y0107417D01*
D02*
G37*
G36*
X0100335Y0100892D02*
X0100325Y0100877D01*
X0100316Y010086D01*
X0100308Y010084D01*
X0100302Y0100819D01*
X0100296Y0100795D01*
X0100292Y0100769D01*
X0100289Y0100741D01*
X0100287Y0100679D01*
X0099987D01*
X0099986Y0100711D01*
X0099981Y0100769D01*
X0099977Y0100795D01*
X0099972Y0100819D01*
X0099965Y010084D01*
X0099957Y010086D01*
X0099948Y0100877D01*
X0099938Y0100892D01*
X0099927Y0100905D01*
X0100347D01*
X0100335Y0100892D01*
D02*
G37*
G36*
X0100066Y0097695D02*
X0100049Y0097694D01*
X0100031Y0097692D01*
X0100012Y0097687D01*
X0099993Y0097679D01*
X0099972Y0097669D01*
X0099952Y0097657D01*
X0099931Y0097642D01*
X0099909Y0097625D01*
X0099863Y0097583D01*
X0099665Y0097809D01*
X0099688Y0097832D01*
X0099726Y0097877D01*
X0099741Y0097898D01*
X0099755Y0097918D01*
X0099766Y0097938D01*
X0099774Y0097956D01*
X0099781Y0097975D01*
X0099785Y0097992D01*
X0099787Y0098008D01*
X0100066Y0097695D01*
D02*
G37*
G36*
X009671Y0097392D02*
X00967Y0097377D01*
X0096691Y009736D01*
X0096683Y009734D01*
X0096677Y0097319D01*
X0096671Y0097295D01*
X0096667Y0097269D01*
X0096664Y0097241D01*
X0096662Y0097179D01*
X0096362D01*
X0096361Y0097211D01*
X0096356Y0097269D01*
X0096352Y0097295D01*
X0096347Y0097319D01*
X009634Y009734D01*
X0096332Y009736D01*
X0096323Y0097377D01*
X0096313Y0097392D01*
X0096302Y0097405D01*
X0096722D01*
X009671Y0097392D01*
D02*
G37*
G36*
X0102037Y0097001D02*
X0102042Y0096943D01*
X0102046Y0096917D01*
X0102052Y0096894D01*
X0102058Y0096872D01*
X0102066Y0096853D01*
X0102075Y0096836D01*
X0102085Y0096821D01*
X0102097Y0096808D01*
X0101677D01*
X0101688Y0096821D01*
X0101698Y0096836D01*
X0101707Y0096853D01*
X0101715Y0096872D01*
X0101722Y0096894D01*
X0101727Y0096917D01*
X0101731Y0096943D01*
X0101734Y0096971D01*
X0101737Y0097034D01*
X0102037D01*
X0102037Y0097001D01*
D02*
G37*
G36*
X0102987Y0096951D02*
X0102992Y0096893D01*
X0102996Y0096867D01*
X0103002Y0096844D01*
X0103008Y0096822D01*
X0103016Y0096803D01*
X0103025Y0096786D01*
X0103035Y0096771D01*
X0103047Y0096758D01*
X0102627D01*
X0102638Y0096771D01*
X0102648Y0096786D01*
X0102657Y0096803D01*
X0102665Y0096822D01*
X0102672Y0096844D01*
X0102677Y0096867D01*
X0102681Y0096893D01*
X0102684Y0096921D01*
X0102687Y0096984D01*
X0102987D01*
X0102987Y0096951D01*
D02*
G37*
G36*
X0101673Y0096384D02*
X010166Y0096395D01*
X0101645Y0096405D01*
X0101628Y0096414D01*
X0101608Y0096422D01*
X0101587Y0096429D01*
X0101563Y0096434D01*
X0101537Y0096438D01*
X0101509Y0096441D01*
X0101447Y0096444D01*
Y0096744D01*
X0101479Y0096744D01*
X0101537Y0096749D01*
X0101563Y0096753D01*
X0101587Y0096759D01*
X0101608Y0096765D01*
X0101628Y0096773D01*
X0101645Y0096782D01*
X010166Y0096792D01*
X0101673Y0096804D01*
Y0096384D01*
D02*
G37*
G36*
X0096905Y0092702D02*
X0096904Y0092696D01*
X0096902Y0092682D01*
X0096901Y0092679D01*
X0096901Y0092679D01*
X0096869Y009263D01*
Y0097235D01*
X0096869Y0097242D01*
X0096872Y0097256D01*
X0096872Y0097258D01*
X0096872Y0097258D01*
X0096905Y0097307D01*
Y0092702D01*
D02*
G37*
G36*
X0097412Y0092726D02*
X0097417Y0092668D01*
X0097421Y0092642D01*
X0097427Y0092619D01*
X0097433Y0092597D01*
X0097441Y0092578D01*
X009745Y0092561D01*
X009746Y0092546D01*
X0097472Y0092533D01*
X0097052D01*
X0097063Y0092546D01*
X0097073Y0092561D01*
X0097082Y0092578D01*
X009709Y0092597D01*
X0097097Y0092619D01*
X0097102Y0092642D01*
X0097106Y0092668D01*
X0097109Y0092696D01*
X0097112Y0092759D01*
X0097412D01*
X0097412Y0092726D01*
D02*
G37*
G36*
X0101005Y0092163D02*
X010105Y0092126D01*
X0101071Y0092111D01*
X0101091Y0092098D01*
X0101111Y0092087D01*
X010113Y0092079D01*
X0101149Y0092073D01*
X0101167Y009207D01*
X0101184Y0092069D01*
X0100887Y0091772D01*
X0100886Y0091789D01*
X0100882Y0091807D01*
X0100877Y0091825D01*
X0100868Y0091844D01*
X0100858Y0091864D01*
X0100845Y0091885D01*
X010083Y0091906D01*
X0100812Y0091928D01*
X010077Y0091974D01*
X0100982Y0092186D01*
X0101005Y0092163D01*
D02*
G37*
G36*
X0097137Y0091303D02*
X0097142Y0091245D01*
X0097146Y0091219D01*
X0097152Y0091196D01*
X0097158Y0091174D01*
X0097166Y0091155D01*
X0097175Y0091138D01*
X0097185Y0091123D01*
X0097197Y009111D01*
X0096777D01*
X0096788Y0091123D01*
X0096798Y0091138D01*
X0096807Y0091155D01*
X0096815Y0091174D01*
X0096822Y0091196D01*
X0096827Y0091219D01*
X0096831Y0091245D01*
X0096834Y0091273D01*
X0096837Y0091335D01*
X0097137D01*
X0097137Y0091303D01*
D02*
G37*
G36*
X0103848Y0086934D02*
X0103835Y0086945D01*
X010382Y0086955D01*
X0103803Y0086964D01*
X0103783Y0086972D01*
X0103762Y0086979D01*
X0103738Y0086984D01*
X0103712Y0086988D01*
X0103684Y0086991D01*
X0103622Y0086994D01*
Y0087294D01*
X0103654Y0087294D01*
X0103712Y0087299D01*
X0103738Y0087303D01*
X0103762Y0087309D01*
X0103783Y0087315D01*
X0103803Y0087323D01*
X010382Y0087332D01*
X0103835Y0087342D01*
X0103848Y0087354D01*
Y0086934D01*
D02*
G37*
G36*
X010188Y0080663D02*
X0101925Y0080626D01*
X0101946Y0080611D01*
X0101966Y0080598D01*
X0101986Y0080587D01*
X0102005Y0080579D01*
X0102024Y0080573D01*
X0102042Y008057D01*
X0102059Y0080569D01*
X0101762Y0080272D01*
X0101761Y0080289D01*
X0101757Y0080307D01*
X0101752Y0080325D01*
X0101743Y0080344D01*
X0101733Y0080364D01*
X010172Y0080385D01*
X0101705Y0080406D01*
X0101687Y0080428D01*
X0101645Y0080474D01*
X0101857Y0080686D01*
X010188Y0080663D01*
D02*
G37*
G36*
X0083206Y0097276D02*
X0083168Y0097232D01*
X0083134Y0097183D01*
X0083105Y0097127D01*
X0083079Y0097064D01*
X0083058Y0096995D01*
X008304Y0096919D01*
X0083027Y0096837D01*
X0083018Y0096748D01*
X0083012Y0096551D01*
X0082269Y0097294D01*
X0082371Y0097295D01*
X0082555Y0097309D01*
X0082637Y0097322D01*
X0082713Y009734D01*
X0082782Y0097361D01*
X0082845Y0097387D01*
X0082901Y0097416D01*
X008295Y009745D01*
X0082994Y0097488D01*
X0083206Y0097276D01*
D02*
G37*
G36*
X009093Y0089013D02*
X0090975Y0088976D01*
X0090996Y0088961D01*
X0091016Y0088948D01*
X0091036Y0088937D01*
X0091055Y0088929D01*
X0091074Y0088923D01*
X0091092Y008892D01*
X0091109Y0088919D01*
X0090812Y0088622D01*
X0090811Y0088639D01*
X0090807Y0088657D01*
X0090802Y0088675D01*
X0090793Y0088694D01*
X0090783Y0088714D01*
X009077Y0088735D01*
X0090755Y0088756D01*
X0090737Y0088778D01*
X0090695Y0088824D01*
X0090907Y0089036D01*
X009093Y0089013D01*
D02*
G37*
G36*
X008692Y0096998D02*
X008706Y0096878D01*
X0087128Y0096829D01*
X0087193Y0096788D01*
X0087258Y0096754D01*
X008732Y0096728D01*
X0087381Y0096709D01*
X0087439Y0096698D01*
X0087497Y0096694D01*
Y0096394D01*
X0087439Y009639D01*
X0087381Y0096379D01*
X008732Y009636D01*
X0087258Y0096334D01*
X0087193Y00963D01*
X0087128Y0096259D01*
X008706Y009621D01*
X0086991Y0096154D01*
X0086847Y0096019D01*
Y0097069D01*
X008692Y0096998D01*
D02*
G37*
G36*
X0089164Y0084492D02*
X0089179Y0084482D01*
X0089196Y0084473D01*
X0089215Y0084465D01*
X0089237Y0084459D01*
X008926Y0084453D01*
X0089286Y0084449D01*
X0089314Y0084446D01*
X0089377Y0084444D01*
Y0084144D01*
X0089344Y0084143D01*
X0089286Y0084138D01*
X008926Y0084134D01*
X0089237Y0084129D01*
X0089215Y0084122D01*
X0089196Y0084114D01*
X0089179Y0084105D01*
X0089164Y0084095D01*
X0089151Y0084084D01*
Y0084504D01*
X0089164Y0084492D01*
D02*
G37*
G36*
X0103635Y0072567D02*
X0103625Y0072552D01*
X0103616Y0072535D01*
X0103608Y0072515D01*
X0103602Y0072494D01*
X0103596Y007247D01*
X0103592Y0072444D01*
X0103589Y0072416D01*
X0103587Y0072354D01*
X0103287D01*
X0103286Y0072386D01*
X0103281Y0072444D01*
X0103277Y007247D01*
X0103272Y0072494D01*
X0103265Y0072515D01*
X0103257Y0072535D01*
X0103248Y0072552D01*
X0103238Y0072567D01*
X0103227Y007258D01*
X0103647D01*
X0103635Y0072567D01*
D02*
G37*
G36*
X0102141Y0059871D02*
X0102152Y0059813D01*
X0102171Y0059752D01*
X0102197Y005969D01*
X0102231Y0059626D01*
X0102272Y005956D01*
X0102321Y0059492D01*
X0102377Y0059423D01*
X0102512Y0059279D01*
X0101462D01*
X0101533Y0059352D01*
X0101653Y0059492D01*
X0101702Y005956D01*
X0101743Y0059626D01*
X0101777Y005969D01*
X0101803Y0059752D01*
X0101822Y0059813D01*
X0101833Y0059871D01*
X0101837Y0059929D01*
X0102137D01*
X0102141Y0059871D01*
D02*
G37*
D32*
X0094269Y0124026D02*
X0094937Y0124694D01*
X0094269Y0122119D02*
Y0124026D01*
X0093487Y0121338D02*
X0094269Y0122119D01*
X0093487Y0119025D02*
Y0121338D01*
X0093237Y0118775D02*
X0093487Y0119025D01*
X0093237Y0117369D02*
Y0118775D01*
X0090412Y0116729D02*
Y0126494D01*
X0091787Y0111545D02*
X0092162Y011192D01*
X0091787Y0102694D02*
Y0111545D01*
X0092162Y011192D02*
Y0112994D01*
X0093112Y0114219D02*
Y0115669D01*
X0092687Y0116094D02*
X0093112Y0115669D01*
X0092687Y0116094D02*
Y0125044D01*
X0104937Y0062969D02*
Y0069319D01*
X0101987Y0060019D02*
X0104937Y0062969D01*
X0101987Y0058744D02*
Y0060019D01*
X0103437Y0070819D02*
X0104937Y0069319D01*
X0103437Y0070819D02*
Y0072794D01*
X0085762Y0125369D02*
Y0129769D01*
Y0125369D02*
X0089337Y0121794D01*
Y0115219D02*
Y0121794D01*
Y0115219D02*
X0090387Y0114169D01*
Y0108144D02*
Y0114169D01*
X0083387Y0130744D02*
X0087437Y0134794D01*
X0097262Y0092319D02*
Y0108169D01*
X0098062Y0097244D02*
X0100137Y0099319D01*
X0098062Y0084269D02*
Y0097244D01*
Y0084269D02*
X0102062Y0080269D01*
X0096987Y0090896D02*
Y0091469D01*
X0096512Y0091944D02*
X0096987Y0091469D01*
X0096512Y0091944D02*
Y0097619D01*
X0096012Y0086119D02*
Y0091269D01*
X0095437Y0091844D02*
X0096012Y0091269D01*
X0095437Y0091844D02*
Y0100644D01*
X0100137Y0099319D02*
Y0101119D01*
X0105112Y0119169D02*
X0107912D01*
X0104362Y0118419D02*
X0105112Y0119169D01*
X0104362Y0117019D02*
Y0118419D01*
X0107912Y0119169D02*
X0108587Y0118494D01*
X0101887Y0096594D02*
Y0107644D01*
X0102837Y0096544D02*
Y0113369D01*
X0101837Y0115444D02*
Y0116844D01*
X0101187Y0117494D02*
X0101837Y0116844D01*
X0101187Y0117494D02*
Y0125469D01*
X0094937Y0124694D02*
Y0126694D01*
X0093237Y0117369D02*
X0093712Y0116894D01*
X0093112Y0114219D02*
X0093512Y0113819D01*
X0092687Y0125044D02*
X0093512Y0125869D01*
X0095962Y0116094D02*
Y0121794D01*
X0094312Y0114444D02*
X0095962Y0116094D01*
X0095587Y0122169D02*
X0095962Y0121794D01*
X0095587Y0122169D02*
Y0122869D01*
X0095962Y0123244D01*
X0099362Y0115469D02*
Y0124544D01*
X0094812Y0110919D02*
X0099362Y0115469D01*
X0105212Y0102319D02*
Y0118169D01*
X0103737Y0106469D02*
Y0114119D01*
X0100812Y0125844D02*
X0101187Y0125469D01*
X0092362Y0110719D02*
X0094312Y0112669D01*
Y0114444D01*
X0092187Y0114794D02*
Y0126544D01*
X0092787Y0127144D01*
X0092362Y0103269D02*
Y0110719D01*
X0094812Y0102819D02*
Y0110919D01*
X0098287Y0115219D02*
Y0120819D01*
X0094087Y0111019D02*
X0098287Y0115219D01*
X0094087Y0106769D02*
Y0111019D01*
X0087462Y0118519D02*
X0088387Y0119444D01*
X0087462Y0108944D02*
Y0118519D01*
X0092687Y0086044D02*
Y0101794D01*
X0091787Y0102694D02*
X0092687Y0101794D01*
X0091337Y0102044D02*
Y0117344D01*
Y0102044D02*
X0091962Y0101419D01*
Y0091519D02*
Y0101419D01*
X0094262Y0091994D02*
Y0098619D01*
Y0091994D02*
X0095362Y0090894D01*
X0090387Y0101844D02*
X0091212Y0101019D01*
Y0090044D02*
Y0101019D01*
X0098787Y0113844D02*
X0099562Y0114619D01*
X0098787Y0102794D02*
Y0113844D01*
X0101062Y0096594D02*
X0101887D01*
X0100212Y0095744D02*
X0101062Y0096594D01*
X0100212Y0092744D02*
Y0095744D01*
Y0092744D02*
X0101187Y0091769D01*
X0093662Y0083769D02*
X0096012Y0086119D01*
X0093387Y0091319D02*
X0095312Y0089394D01*
Y0086419D02*
Y0089394D01*
X0092762Y0083869D02*
X0095312Y0086419D01*
X0094087Y0101994D02*
Y0106769D01*
Y0101994D02*
X0095437Y0100644D01*
X0092762Y0078894D02*
Y0083869D01*
X0093662Y0078619D02*
Y0083769D01*
X0090487Y0083844D02*
X0092687Y0086044D01*
X0090487Y0079419D02*
Y0083844D01*
X0093387Y0091319D02*
Y0097894D01*
X0090362Y0076494D02*
X0092762Y0078894D01*
X0090362Y0075594D02*
Y0076494D01*
X0091287Y0076244D02*
X0093662Y0078619D01*
X0091287Y0074869D02*
Y0076244D01*
X0090662Y0074244D02*
X0091287Y0074869D01*
X0090662Y0074169D02*
Y0074244D01*
X0100062Y0097994D02*
X0100087D01*
X0098637Y0096569D02*
X0100062Y0097994D01*
X0098637Y0090044D02*
Y0096569D01*
Y0090044D02*
X0101537Y0087144D01*
X0104062D01*
X0087687Y0096544D02*
X0089137Y0095094D01*
Y0088694D02*
Y0095094D01*
X0086312Y0096544D02*
X0087687D01*
X0089137Y0088694D02*
X0090162Y0087669D01*
Y0084569D02*
Y0087669D01*
X0089887Y0084294D02*
X0090162Y0084569D01*
X0088937Y0084294D02*
X0089887D01*
X0090187Y0089544D02*
Y0095544D01*
X0087562Y0098169D02*
X0090187Y0095544D01*
X0083887Y0098169D02*
X0087562D01*
X0082262Y0096544D02*
X0083887Y0098169D01*
X0090187Y0089544D02*
X0091112Y0088619D01*
X0091487Y0083744D02*
X0094387Y0086644D01*
X0091487Y0079194D02*
Y0083744D01*
D34*
X0089187Y0058744D02*
D03*
X0082262Y0096544D02*
D03*
X0086312D02*
D03*
X0086962Y0136894D02*
D03*
X0101987Y0058744D02*
D03*
D35*
X0095587Y0102369D02*
D03*
X0093312Y0123894D02*
D03*
X0090412Y0116729D02*
D03*
X0092162Y0112994D02*
D03*
X0098612Y0127169D02*
D03*
X0102737Y0124119D02*
D03*
X0090562Y0069594D02*
D03*
X0103612Y0069569D02*
D03*
X0088312Y0091444D02*
D03*
X0104137Y0090919D02*
D03*
X0085262Y0099544D02*
D03*
X0111037Y0102219D02*
D03*
X0107462Y0110319D02*
D03*
X0093312Y0110219D02*
D03*
X0098637Y0123869D02*
D03*
X0097237Y0116269D02*
D03*
X0084387Y0118169D02*
D03*
X0083062Y0134419D02*
D03*
X0084437Y0125819D02*
D03*
X0096662Y0130044D02*
D03*
X0102587Y0129269D02*
D03*
X0111412Y0130694D02*
D03*
X0113812Y0125094D02*
D03*
X0112037Y0118394D02*
D03*
X0089037Y0114119D02*
D03*
X0085912Y0109169D02*
D03*
X0088637Y0108994D02*
D03*
X0103437Y0072794D02*
D03*
X0085762Y0129769D02*
D03*
X0090387Y0108144D02*
D03*
X0097262Y0108169D02*
D03*
X0083387Y0130744D02*
D03*
X0087437Y0134794D02*
D03*
X0097262Y0092319D02*
D03*
X0108587Y0118494D02*
D03*
X0104362Y0117019D02*
D03*
X0101887Y0107644D02*
D03*
X0094937Y0126694D02*
D03*
X0095962Y0123244D02*
D03*
X0105212Y0102319D02*
D03*
Y0118169D02*
D03*
X0100137Y0101119D02*
D03*
X0103737Y0114119D02*
D03*
Y0106469D02*
D03*
X0102837Y0113369D02*
D03*
X0100812Y0125844D02*
D03*
X0101837Y0115444D02*
D03*
X0094312Y0114444D02*
D03*
X0092187Y0114794D02*
D03*
X0088387Y0119444D02*
D03*
X0087462Y0108944D02*
D03*
X0091337Y0117344D02*
D03*
X0094262Y0098619D02*
D03*
X0090387Y0101844D02*
D03*
X0098287Y0120819D02*
D03*
X0102837Y0096544D02*
D03*
X0101887Y0096594D02*
D03*
X0096987Y0090896D02*
D03*
X0101187Y0091769D02*
D03*
X0099562Y0114619D02*
D03*
X0092362Y0103269D02*
D03*
X0093387Y0097894D02*
D03*
X0093712Y0116894D02*
D03*
X0099362Y0124544D02*
D03*
X0093512Y0113819D02*
D03*
Y0125869D02*
D03*
X0090412Y0126494D02*
D03*
X0092787Y0127144D02*
D03*
X0094812Y0102819D02*
D03*
X0098787Y0102794D02*
D03*
X0094087Y0106769D02*
D03*
X0095437Y0100644D02*
D03*
X0091962Y0091519D02*
D03*
X0090487Y0079419D02*
D03*
X0090662Y0074169D02*
D03*
X0090362Y0075594D02*
D03*
X0095362Y0090894D02*
D03*
X0096512Y0097619D02*
D03*
X0102062Y0080269D02*
D03*
X0100087Y0097994D02*
D03*
X0104062Y0087144D02*
D03*
X0088937Y0084294D02*
D03*
X0091112Y0088619D02*
D03*
X0091487Y0079194D02*
D03*
X0091212Y0090044D02*
D03*
X0094387Y0086644D02*
D03*
M02*
