M48
;Layer_Color=9474304
;FILE_FORMAT=4:3
METRIC,LZ
;TYPE=PLATED
T1F00S00C0.300
T2F00S00C0.650
T3F00S00C1.100
%
T01
X0104574Y0081048
X0106399Y008611
T02
X0089479Y0088108
X0090749
Y0089378
X0089479
Y0090648
X0090749
Y0107108
Y0108378
Y0109648
X0089479
Y0108378
Y0107108
X0120149
Y0108378
Y0109648
X0121419
Y0108378
Y0107108
Y0090648
X0120149
Y0089378
X0121419
Y0088108
X0120149
T03
X0109549Y0083754
X0113049
X0111049Y0113154
X0107549
X0104049
X0100549
M30
