G04*
G04 #@! TF.GenerationSoftware,Altium Limited,Altium Designer,20.1.8 (145)*
G04*
G04 Layer_Color=16711935*
%FSTAX43Y43*%
%MOMM*%
G71*
G04*
G04 #@! TF.SameCoordinates,4CD76DC4-311B-4E25-801D-5A3FBB03E2DD*
G04*
G04*
G04 #@! TF.FilePolarity,Negative*
G04*
G01*
G75*
%ADD10C,8.203*%
%ADD11C,3.203*%
%ADD12C,1.553*%
G36*
X0082874Y0083992D02*
X0083146Y0083879D01*
X0083391Y0083715D01*
X0083599Y0083507D01*
X0083763Y0083262D01*
X0083876Y008299D01*
X0083933Y0082701D01*
Y0082401D01*
X0083875Y0082111D01*
X0083762Y0081838D01*
X0083598Y0081593D01*
X0083389Y0081384D01*
X0083144Y008122D01*
X0082871Y0081107D01*
X0082581Y0081049D01*
X008228D01*
X0081991Y0081106D01*
X0081719Y0081219D01*
X0081475Y0081382D01*
X0081266Y0081591D01*
X0081103Y0081835D01*
X008099Y0082107D01*
X0080933Y0082396D01*
Y0082696D01*
X008099Y0082985D01*
X0081103Y0083256D01*
X0081266Y0083501D01*
X0081474Y0083709D01*
X0081719Y0083873D01*
X0081991Y0083985D01*
X0082279Y0084043D01*
X0082427Y0084043D01*
X0082438Y0084049D01*
Y0084049D01*
X0082585D01*
X0082874Y0083992D01*
D02*
G37*
G36*
X0115869Y0067995D02*
X0116141Y0067882D01*
X0116386Y0067718D01*
X0116594Y006751D01*
X0116758Y0067265D01*
X0116871Y0066993D01*
X0116928Y0066704D01*
Y0066404D01*
X0116871Y0066115D01*
X0116758Y0065842D01*
X0116593Y0065596D01*
X0116384Y0065387D01*
X0116139Y0065223D01*
X0115866Y006511D01*
X0115576Y0065052D01*
X0115275D01*
X0114986Y006511D01*
X0114714Y0065222D01*
X011447Y0065386D01*
X0114262Y0065594D01*
X0114098Y0065838D01*
X0113986Y006611D01*
X0113928Y0066399D01*
Y0066699D01*
X0113986Y0066988D01*
X0114098Y006726D01*
X0114262Y0067504D01*
X011447Y0067712D01*
X0114714Y0067876D01*
X0114986Y0067988D01*
X0115275Y0068046D01*
X0115422Y0068046D01*
X0115433Y0068052D01*
Y0068052D01*
X011558D01*
X0115869Y0067995D01*
D02*
G37*
D10*
X0082433Y0074549D02*
D03*
X0115433D02*
D03*
D11*
X0098997Y0094549D02*
D03*
Y0054549D02*
D03*
D12*
X0090683Y0058049D02*
D03*
X0084683Y0064049D02*
D03*
M02*
