G04*
G04 #@! TF.GenerationSoftware,Altium Limited,Altium Designer,20.1.8 (145)*
G04*
G04 Layer_Physical_Order=2*
G04 Layer_Color=16711680*
%FSTAX43Y43*%
%MOMM*%
G71*
G04*
G04 #@! TF.SameCoordinates,4CD76DC4-311B-4E25-801D-5A3FBB03E2DD*
G04*
G04*
G04 #@! TF.FilePolarity,Positive*
G04*
G01*
G75*
%ADD13C,8.000*%
%ADD14C,3.000*%
%ADD15C,1.350*%
G36*
X0082874Y0083979D02*
X0083146Y0083866D01*
X0083391Y0083703D01*
X0083599Y0083494D01*
X0083763Y0083249D01*
X0083876Y0082977D01*
X0083933Y0082688D01*
Y0082389D01*
X0083875Y0082099D01*
X0083762Y0081826D01*
X0083598Y008158D01*
X0083389Y0081371D01*
X0083144Y0081207D01*
X0082871Y0081094D01*
X0082581Y0081037D01*
X008228D01*
X0081991Y0081094D01*
X0081719Y0081207D01*
X0081475Y008137D01*
X0081266Y0081578D01*
X0081103Y0081823D01*
X008099Y0082094D01*
X0080933Y0082383D01*
Y0082684D01*
X008099Y0082972D01*
X0081103Y0083244D01*
X0081266Y0083489D01*
X0081474Y0083697D01*
X0081719Y008386D01*
X0081991Y0083973D01*
X0082279Y008403D01*
X0082427Y008403D01*
X0082438Y0084036D01*
Y0084036D01*
X0082585D01*
X0082874Y0083979D01*
D02*
G37*
G36*
X0115869Y0067982D02*
X0116141Y0067869D01*
X0116386Y0067706D01*
X0116594Y0067498D01*
X0116758Y0067253D01*
X0116871Y0066981D01*
X0116928Y0066692D01*
Y0066392D01*
X0116871Y0066102D01*
X0116758Y0065829D01*
X0116593Y0065583D01*
X0116384Y0065375D01*
X0116139Y006521D01*
X0115866Y0065097D01*
X0115576Y006504D01*
X0115275D01*
X0114986Y0065097D01*
X0114714Y006521D01*
X011447Y0065373D01*
X0114262Y0065581D01*
X0114098Y0065826D01*
X0113986Y0066098D01*
X0113928Y0066386D01*
Y0066687D01*
X0113986Y0066975D01*
X0114098Y0067247D01*
X0114262Y0067492D01*
X011447Y00677D01*
X0114714Y0067863D01*
X0114986Y0067976D01*
X0115275Y0068033D01*
X0115422Y0068033D01*
X0115433Y006804D01*
Y006804D01*
X011558D01*
X0115869Y0067982D01*
D02*
G37*
D13*
X0082433Y0074549D02*
D03*
X0115433D02*
D03*
D14*
X0098997Y0094549D02*
D03*
Y0054549D02*
D03*
D15*
X0090683Y0058049D02*
D03*
X0084683Y0064049D02*
D03*
M02*
