G04*
G04 #@! TF.GenerationSoftware,Altium Limited,Altium Designer,20.1.8 (145)*
G04*
G04 Layer_Physical_Order=2*
G04 Layer_Color=16711680*
%FSTAX43Y43*%
%MOMM*%
G71*
G04*
G04 #@! TF.SameCoordinates,E6AD84FA-A84C-469F-AD0F-9F455A438001*
G04*
G04*
G04 #@! TF.FilePolarity,Positive*
G04*
G01*
G75*
%ADD16C,0.300*%
%ADD17C,0.600*%
%ADD18C,3.000*%
%ADD19C,2.000*%
%ADD20C,1.300*%
%ADD21C,2.200*%
%ADD22C,2.250*%
%ADD23C,8.000*%
%ADD24R,0.760X2.000*%
%ADD25R,2.300X2.100*%
G04:AMPARAMS|DCode=26|XSize=1.5mm|YSize=1mm|CornerRadius=0mm|HoleSize=0mm|Usage=FLASHONLY|Rotation=135.000|XOffset=0mm|YOffset=0mm|HoleType=Round|Shape=Rectangle|*
%AMROTATEDRECTD26*
4,1,4,0.884,-0.177,0.177,-0.884,-0.884,0.177,-0.177,0.884,0.884,-0.177,0.0*
%
%ADD26ROTATEDRECTD26*%

%ADD27R,1.500X3.200*%
%ADD28C,0.500*%
G36*
X0097157Y0096897D02*
X0098584Y0096709D01*
X0099996Y0096428D01*
X0101387Y0096055D01*
X010275Y0095593D01*
X0104081Y0095042D01*
X0105372Y0094405D01*
X0106619Y0093685D01*
X0107816Y0092885D01*
X0108958Y0092008D01*
X0110041Y0091059D01*
X0111059Y0090041D01*
X0112008Y0088958D01*
X0112885Y0087816D01*
X0113685Y0086619D01*
X0114405Y0085372D01*
X0115042Y0084081D01*
X0115593Y008275D01*
X0116055Y0081387D01*
X0116428Y0079996D01*
X0116709Y0078584D01*
X0116897Y0077157D01*
X0116991Y007572D01*
Y0075D01*
Y007428D01*
X0116897Y0072843D01*
X0116709Y0071416D01*
X0116428Y0070004D01*
X0116055Y0068613D01*
X0115593Y0067249D01*
X0115042Y0065919D01*
X0114405Y0064628D01*
X0113685Y0063381D01*
X0112885Y0062184D01*
X0112008Y0061042D01*
X0111059Y0059959D01*
X0110041Y0058941D01*
X0108958Y0057992D01*
X0107816Y0057115D01*
X0106619Y0056315D01*
X0105372Y0055595D01*
X0104081Y0054958D01*
X010275Y0054407D01*
X0101387Y0053945D01*
X0099996Y0053572D01*
X0098584Y0053291D01*
X0097157Y0053103D01*
X009572Y0053009D01*
X009428D01*
X0092843Y0053103D01*
X0091416Y0053291D01*
X0090004Y0053572D01*
X0088613Y0053945D01*
X008725Y0054407D01*
X0085919Y0054958D01*
X0084628Y0055595D01*
X0083381Y0056315D01*
X0082184Y0057115D01*
X0081042Y0057992D01*
X0079959Y0058941D01*
X0078941Y0059959D01*
X0077992Y0061042D01*
X0077115Y0062184D01*
X0076315Y0063381D01*
X0075595Y0064628D01*
X0074958Y0065919D01*
X0074407Y0067249D01*
X0073945Y0068613D01*
X0073572Y0070004D01*
X0073291Y0071416D01*
X0073103Y0072843D01*
X0073009Y007428D01*
Y0075D01*
Y007572D01*
X0073103Y0077157D01*
X0073291Y0078584D01*
X0073572Y0079996D01*
X0073945Y0081387D01*
X0074407Y008275D01*
X0074958Y0084081D01*
X0075595Y0085372D01*
X0076315Y0086619D01*
X0077115Y0087816D01*
X0077992Y0088958D01*
X0078941Y0090041D01*
X0079959Y0091059D01*
X0081042Y0092008D01*
X0082184Y0092885D01*
X0083381Y0093685D01*
X0084628Y0094405D01*
X0085919Y0095042D01*
X008725Y0095593D01*
X0088613Y0096055D01*
X0090004Y0096428D01*
X0091416Y0096709D01*
X0092843Y0096897D01*
X009428Y0096991D01*
X009572D01*
X0097157Y0096897D01*
D02*
G37*
%LPC*%
G36*
X0104289Y0088805D02*
X0103976Y0088764D01*
X0103684Y0088643D01*
X0103433Y0088451D01*
X0103241Y00882D01*
X010312Y0087908D01*
X0103079Y0087595D01*
X010312Y0087282D01*
X0103241Y008699D01*
X0103433Y0086739D01*
X0103684Y0086547D01*
X0103976Y0086426D01*
X0104289Y0086385D01*
X0104602Y0086426D01*
X0104894Y0086547D01*
X0105145Y0086739D01*
X0105337Y008699D01*
X0105458Y0087282D01*
X01055Y0087595D01*
X0105458Y0087908D01*
X0105337Y00882D01*
X0105145Y0088451D01*
X0104894Y0088643D01*
X0104602Y0088764D01*
X0104289Y0088805D01*
D02*
G37*
G36*
X0088415Y0089359D02*
X0087255D01*
Y0086959D01*
X0087325D01*
Y0085D01*
Y0083359D01*
X0087255D01*
Y0080959D01*
X0088415D01*
Y0083359D01*
X0088345D01*
Y008449D01*
X00904D01*
X0090443Y0084485D01*
X0090486Y0084476D01*
X0090524Y0084466D01*
X0090556Y0084455D01*
X0090583Y0084442D01*
X0090606Y0084429D01*
X0090625Y0084416D01*
X0090632Y008441D01*
X0090644Y0084394D01*
X0090821Y0084258D01*
X0091028Y0084172D01*
X009125Y0084143D01*
X0091472Y0084172D01*
X0091679Y0084258D01*
X0091856Y0084394D01*
X0091868Y008441D01*
X0091875Y0084416D01*
X0091894Y0084429D01*
X0091917Y0084442D01*
X0091944Y0084455D01*
X0091976Y0084466D01*
X0092014Y0084476D01*
X0092054Y0084484D01*
X0092115Y008449D01*
X00924D01*
X0092443Y0084485D01*
X0092486Y0084476D01*
X0092524Y0084466D01*
X0092556Y0084455D01*
X0092583Y0084442D01*
X0092606Y0084429D01*
X0092625Y0084416D01*
X0092632Y008441D01*
X0092644Y0084394D01*
X0092821Y0084258D01*
X0093028Y0084172D01*
X009325Y0084143D01*
X0093472Y0084172D01*
X0093679Y0084258D01*
X0093856Y0084394D01*
X0093992Y0084571D01*
X0094078Y0084778D01*
X0094107Y0085D01*
X0094078Y0085222D01*
X0093992Y0085429D01*
X0093856Y0085606D01*
X0093679Y0085742D01*
X0093472Y0085828D01*
X009325Y0085857D01*
X0093028Y0085828D01*
X0092821Y0085742D01*
X0092644Y0085606D01*
X0092632Y008559D01*
X0092625Y0085584D01*
X0092606Y0085571D01*
X0092583Y0085558D01*
X0092556Y0085545D01*
X0092524Y0085534D01*
X0092486Y0085524D01*
X0092446Y0085516D01*
X0092385Y008551D01*
X00921D01*
X0092057Y0085515D01*
X0092014Y0085524D01*
X0091976Y0085534D01*
X0091944Y0085545D01*
X0091917Y0085558D01*
X0091894Y0085571D01*
X0091875Y0085584D01*
X0091868Y008559D01*
X0091856Y0085606D01*
X0091679Y0085742D01*
X0091472Y0085828D01*
X009125Y0085857D01*
X0091028Y0085828D01*
X0090821Y0085742D01*
X0090644Y0085606D01*
X0090632Y008559D01*
X0090625Y0085584D01*
X0090606Y0085571D01*
X0090583Y0085558D01*
X0090556Y0085545D01*
X0090524Y0085534D01*
X0090486Y0085524D01*
X0090446Y0085516D01*
X0090385Y008551D01*
X0088345D01*
Y0086959D01*
X0088415D01*
Y0089359D01*
D02*
G37*
G36*
X009325Y0083857D02*
X0093028Y0083828D01*
X0092821Y0083742D01*
X0092644Y0083606D01*
X0092632Y008359D01*
X0092625Y0083584D01*
X0092606Y0083571D01*
X0092583Y0083558D01*
X0092556Y0083545D01*
X0092524Y0083534D01*
X0092486Y0083524D01*
X0092446Y0083516D01*
X0092385Y008351D01*
X00921D01*
X0092057Y0083515D01*
X0092014Y0083524D01*
X0091976Y0083534D01*
X0091944Y0083545D01*
X0091917Y0083558D01*
X0091894Y0083571D01*
X0091875Y0083584D01*
X0091868Y008359D01*
X0091856Y0083606D01*
X0091679Y0083742D01*
X0091472Y0083828D01*
X009125Y0083857D01*
X0091028Y0083828D01*
X0090821Y0083742D01*
X0090644Y0083606D01*
X0090508Y0083429D01*
X0090422Y0083222D01*
X0090393Y0083D01*
X0090422Y0082778D01*
X0090508Y0082571D01*
X0090644Y0082394D01*
X0090821Y0082258D01*
X0091028Y0082172D01*
X009125Y0082143D01*
X0091472Y0082172D01*
X0091679Y0082258D01*
X0091856Y0082394D01*
X0091868Y008241D01*
X0091875Y0082416D01*
X0091894Y0082429D01*
X0091917Y0082442D01*
X0091944Y0082455D01*
X0091976Y0082466D01*
X0092014Y0082476D01*
X0092054Y0082484D01*
X0092115Y008249D01*
X00924D01*
X0092443Y0082485D01*
X0092486Y0082476D01*
X0092524Y0082466D01*
X0092556Y0082455D01*
X0092583Y0082442D01*
X0092606Y0082429D01*
X0092625Y0082416D01*
X0092632Y008241D01*
X0092644Y0082394D01*
X0092821Y0082258D01*
X0093028Y0082172D01*
X009325Y0082143D01*
X0093472Y0082172D01*
X0093679Y0082258D01*
X0093856Y0082394D01*
X0093868Y008241D01*
X0093875Y0082416D01*
X0093894Y0082429D01*
X0093917Y0082442D01*
X0093944Y0082455D01*
X0093976Y0082466D01*
X0094014Y0082476D01*
X0094054Y0082484D01*
X0094115Y008249D01*
X0095929D01*
X0096886Y0081533D01*
X0096923Y0081483D01*
X0096963Y0081417D01*
X0096998Y0081344D01*
X0097028Y0081264D01*
X0097053Y0081177D01*
X0097072Y0081082D01*
X0097086Y008098D01*
X0097094Y008087D01*
X0097095Y0080791D01*
X0097089Y008074D01*
X0097133Y0080401D01*
X0097264Y0080084D01*
X0097473Y0079813D01*
X0097744Y0079604D01*
X0098061Y0079473D01*
X00984Y0079429D01*
X0098739Y0079473D01*
X0099056Y0079604D01*
X0099327Y0079813D01*
X0099536Y0080084D01*
X0099667Y0080401D01*
X0099711Y008074D01*
X0099667Y0081079D01*
X0099536Y0081396D01*
X0099327Y0081667D01*
X0099056Y0081876D01*
X0098739Y0082007D01*
X00984Y0082051D01*
X0098349Y0082045D01*
X009827Y0082046D01*
X009816Y0082054D01*
X0098058Y0082068D01*
X0097963Y0082087D01*
X0097876Y0082112D01*
X0097796Y0082142D01*
X0097723Y0082177D01*
X0097657Y0082217D01*
X0097607Y0082254D01*
X00965Y008336D01*
X0096335Y0083471D01*
X009614Y008351D01*
X00941D01*
X0094057Y0083515D01*
X0094014Y0083524D01*
X0093976Y0083534D01*
X0093944Y0083545D01*
X0093917Y0083558D01*
X0093894Y0083571D01*
X0093875Y0083584D01*
X0093868Y008359D01*
X0093856Y0083606D01*
X0093679Y0083742D01*
X0093472Y0083828D01*
X009325Y0083857D01*
D02*
G37*
G36*
X0095Y009051D02*
X0085686D01*
X0085491Y0090471D01*
X0085326Y009036D01*
X0084974Y0090009D01*
X0084864Y0089844D01*
X0084825Y0089649D01*
Y0089359D01*
X0084755D01*
Y0086959D01*
X0084825D01*
Y0083359D01*
X0084755D01*
Y0080959D01*
X0085915D01*
Y0083359D01*
X0085845D01*
Y0086959D01*
X0085915D01*
Y0089359D01*
X0085915D01*
X0085914Y0089363D01*
X0086021Y008949D01*
X0094789D01*
X009789Y0086389D01*
Y0086181D01*
X0097881Y008612D01*
X0097862Y0086045D01*
X0097835Y0085969D01*
X00978Y0085891D01*
X0097756Y0085812D01*
X0097703Y0085731D01*
X0097641Y0085649D01*
X0097569Y0085566D01*
X0097513Y0085508D01*
X0097473Y0085477D01*
X0097264Y0085206D01*
X0097133Y0084889D01*
X0097089Y008455D01*
X0097133Y0084211D01*
X0097264Y0083894D01*
X0097473Y0083623D01*
X0097744Y0083414D01*
X0098061Y0083283D01*
X00984Y0083239D01*
X0098739Y0083283D01*
X0099056Y0083414D01*
X0099327Y0083623D01*
X0099536Y0083894D01*
X0099667Y0084211D01*
X0099711Y008455D01*
X0099667Y0084889D01*
X0099536Y0085206D01*
X0099327Y0085477D01*
X0099287Y0085508D01*
X0099231Y0085565D01*
X0099159Y0085649D01*
X0099097Y0085731D01*
X0099044Y0085812D01*
X0099Y0085891D01*
X0098965Y0085969D01*
X0098938Y0086045D01*
X0098919Y008612D01*
X009891Y0086181D01*
Y00866D01*
X0098871Y0086795D01*
X009876Y008696D01*
X009536Y009036D01*
X0095195Y0090471D01*
X0095Y009051D01*
D02*
G37*
G36*
X00785Y0084708D02*
X0078167Y0084675D01*
X0077846Y0084578D01*
X0077551Y008442D01*
X0077292Y0084208D01*
X007708Y0083949D01*
X0076922Y0083654D01*
X0076825Y0083333D01*
X0076792Y0083D01*
X0076825Y0082667D01*
X0076922Y0082346D01*
X007708Y0082051D01*
X0077292Y0081792D01*
X0077551Y008158D01*
X0077846Y0081422D01*
X0078167Y0081325D01*
X00785Y0081292D01*
X0078833Y0081325D01*
X0079154Y0081422D01*
X0079449Y008158D01*
X0079708Y0081792D01*
X007992Y0082051D01*
X0080078Y0082346D01*
X0080175Y0082667D01*
X0080208Y0083D01*
X0080175Y0083333D01*
X0080078Y0083654D01*
X007992Y0083949D01*
X0079708Y0084208D01*
X0079449Y008442D01*
X0079154Y0084578D01*
X0078833Y0084675D01*
X00785Y0084708D01*
D02*
G37*
G36*
X0083415Y0089359D02*
X0082255D01*
Y0086959D01*
X0082325D01*
Y0083359D01*
X0082255D01*
Y0080959D01*
X0082325D01*
Y0080351D01*
X0082364Y0080156D01*
X0082474Y0079991D01*
X0082826Y007964D01*
X0082991Y0079529D01*
X0083186Y007949D01*
X0087305D01*
X0087344Y0079363D01*
X008734Y007936D01*
X008664Y007866D01*
X0086529Y0078495D01*
X008649Y00783D01*
Y007755D01*
X008565D01*
Y007505D01*
X008835D01*
Y007755D01*
X008751D01*
Y0078089D01*
X0087911Y007849D01*
X00904D01*
X0090443Y0078485D01*
X0090486Y0078476D01*
X0090524Y0078466D01*
X0090556Y0078455D01*
X0090583Y0078442D01*
X0090606Y0078429D01*
X0090625Y0078416D01*
X0090632Y007841D01*
X0090644Y0078394D01*
X0090821Y0078258D01*
X0091028Y0078172D01*
X009125Y0078143D01*
X0091472Y0078172D01*
X0091679Y0078258D01*
X0091856Y0078394D01*
X0091868Y007841D01*
X0091875Y0078416D01*
X0091894Y0078429D01*
X0091917Y0078442D01*
X0091944Y0078455D01*
X0091976Y0078466D01*
X0092014Y0078476D01*
X0092054Y0078484D01*
X0092115Y007849D01*
X00924D01*
X0092443Y0078485D01*
X0092486Y0078476D01*
X0092524Y0078466D01*
X0092556Y0078455D01*
X0092583Y0078442D01*
X0092606Y0078429D01*
X0092625Y0078416D01*
X0092632Y007841D01*
X0092644Y0078394D01*
X0092821Y0078258D01*
X0093028Y0078172D01*
X009325Y0078143D01*
X0093472Y0078172D01*
X0093679Y0078258D01*
X0093856Y0078394D01*
X0093868Y007841D01*
X0093875Y0078416D01*
X0093894Y0078429D01*
X0093917Y0078442D01*
X0093944Y0078455D01*
X0093976Y0078466D01*
X0094014Y0078476D01*
X0094054Y0078484D01*
X0094115Y007849D01*
X0096119D01*
X0096886Y0077723D01*
X0096923Y0077673D01*
X0096963Y0077607D01*
X0096998Y0077534D01*
X0097028Y0077454D01*
X0097053Y0077367D01*
X0097072Y0077272D01*
X0097086Y007717D01*
X0097094Y007706D01*
X0097095Y0076981D01*
X0097089Y007693D01*
X0097133Y0076591D01*
X0097264Y0076274D01*
X0097473Y0076003D01*
X0097744Y0075794D01*
X0098061Y0075663D01*
X00984Y0075619D01*
X0098739Y0075663D01*
X0099056Y0075794D01*
X0099327Y0076003D01*
X0099536Y0076274D01*
X0099667Y0076591D01*
X0099711Y007693D01*
X0099667Y0077269D01*
X0099536Y0077586D01*
X0099327Y0077857D01*
X0099056Y0078066D01*
X0098739Y0078197D01*
X00984Y0078241D01*
X0098349Y0078235D01*
X009827Y0078236D01*
X009816Y0078244D01*
X0098058Y0078258D01*
X0097963Y0078277D01*
X0097876Y0078302D01*
X0097796Y0078332D01*
X0097723Y0078367D01*
X0097657Y0078407D01*
X0097607Y0078444D01*
X009669Y007936D01*
X0096525Y0079471D01*
X009633Y007951D01*
X00941D01*
X0094057Y0079515D01*
X0094014Y0079524D01*
X0093976Y0079534D01*
X0093944Y0079545D01*
X0093917Y0079558D01*
X0093894Y0079571D01*
X0093875Y0079584D01*
X0093868Y007959D01*
X0093856Y0079606D01*
X0093679Y0079742D01*
X0093472Y0079828D01*
X009325Y0079857D01*
X0093028Y0079828D01*
X0092821Y0079742D01*
X0092644Y0079606D01*
X0092632Y007959D01*
X0092625Y0079584D01*
X0092606Y0079571D01*
X0092583Y0079558D01*
X0092556Y0079545D01*
X0092524Y0079534D01*
X0092486Y0079524D01*
X0092446Y0079516D01*
X0092385Y007951D01*
X00921D01*
X0092057Y0079515D01*
X0092014Y0079524D01*
X0091976Y0079534D01*
X0091944Y0079545D01*
X0091917Y0079558D01*
X0091894Y0079571D01*
X0091875Y0079584D01*
X0091868Y007959D01*
X0091856Y0079606D01*
X0091679Y0079742D01*
X0091472Y0079828D01*
X009125Y0079857D01*
X0091028Y0079828D01*
X0090821Y0079742D01*
X0090644Y0079606D01*
X0090632Y007959D01*
X0090625Y0079584D01*
X0090606Y0079571D01*
X0090583Y0079558D01*
X0090556Y0079545D01*
X0090524Y0079534D01*
X0090486Y0079524D01*
X0090446Y0079516D01*
X0090385Y007951D01*
X008923D01*
X0089191Y0079637D01*
X0089195Y007964D01*
X0089912Y0080356D01*
X0090513D01*
X0090598Y0080347D01*
X0090639Y008034D01*
X0090677Y0080331D01*
X0090709Y0080321D01*
X0090737Y008031D01*
X0090759Y00803D01*
X0090785Y0080284D01*
X0090788Y0080283D01*
X0090821Y0080258D01*
X0091028Y0080172D01*
X009125Y0080143D01*
X0091472Y0080172D01*
X0091679Y0080258D01*
X0091856Y0080394D01*
X0091868Y008041D01*
X0091875Y0080416D01*
X0091894Y0080429D01*
X0091917Y0080442D01*
X0091944Y0080455D01*
X0091976Y0080466D01*
X0092014Y0080476D01*
X0092054Y0080484D01*
X0092115Y008049D01*
X00924D01*
X0092443Y0080485D01*
X0092486Y0080476D01*
X0092524Y0080466D01*
X0092556Y0080455D01*
X0092583Y0080442D01*
X0092606Y0080429D01*
X0092625Y0080416D01*
X0092632Y008041D01*
X0092644Y0080394D01*
X0092821Y0080258D01*
X0093028Y0080172D01*
X009325Y0080143D01*
X0093472Y0080172D01*
X0093679Y0080258D01*
X0093856Y0080394D01*
X0093992Y0080571D01*
X0094078Y0080778D01*
X0094107Y0081D01*
X0094078Y0081222D01*
X0093992Y0081429D01*
X0093856Y0081606D01*
X0093679Y0081742D01*
X0093472Y0081828D01*
X009325Y0081857D01*
X0093028Y0081828D01*
X0092821Y0081742D01*
X0092644Y0081606D01*
X0092632Y008159D01*
X0092625Y0081584D01*
X0092606Y0081571D01*
X0092583Y0081558D01*
X0092556Y0081545D01*
X0092524Y0081534D01*
X0092486Y0081524D01*
X0092446Y0081516D01*
X0092385Y008151D01*
X00921D01*
X0092057Y0081515D01*
X0092014Y0081524D01*
X0091976Y0081534D01*
X0091944Y0081545D01*
X0091917Y0081558D01*
X0091894Y0081571D01*
X0091875Y0081584D01*
X0091868Y008159D01*
X0091856Y0081606D01*
X0091679Y0081742D01*
X0091472Y0081828D01*
X009125Y0081857D01*
X0091028Y0081828D01*
X0090821Y0081742D01*
X0090644Y0081606D01*
X0090544Y0081476D01*
X0090538Y0081471D01*
X0090521Y0081447D01*
X0090509Y0081436D01*
X0090495Y0081425D01*
X0090476Y0081413D01*
X0090451Y0081402D01*
X009042Y0081392D01*
X0090383Y0081383D01*
X0090339Y0081376D01*
X0090338Y0081376D01*
X0089701D01*
X0089506Y0081337D01*
X008934Y0081227D01*
X0088624Y008051D01*
X0083397D01*
X0083345Y0080563D01*
Y0080959D01*
X0083415D01*
Y0083359D01*
X0083345D01*
Y0086959D01*
X0083415D01*
Y0089359D01*
D02*
G37*
G36*
X0108789Y0088805D02*
X0108476Y0088764D01*
X0108184Y0088643D01*
X0107933Y0088451D01*
X0107741Y00882D01*
X010762Y0087908D01*
X0107579Y0087595D01*
X010762Y0087282D01*
X0107741Y008699D01*
X0107933Y0086739D01*
X0107971Y008671D01*
X0108045Y0086636D01*
X0108212Y0086446D01*
X0108276Y0086363D01*
X0108329Y0086284D01*
X010837Y0086212D01*
X0108401Y0086148D01*
X0108421Y0086092D01*
X0108432Y0086045D01*
X0108432Y0086035D01*
Y0082655D01*
X0108432Y0082645D01*
X0108421Y0082598D01*
X0108401Y0082542D01*
X010837Y0082478D01*
X0108329Y0082406D01*
X0108276Y0082327D01*
X0108212Y0082244D01*
X0108045Y0082054D01*
X0107971Y008198D01*
X0107933Y0081951D01*
X0107741Y00817D01*
X0107662Y0081511D01*
X0107662Y008151D01*
X0107661Y0081506D01*
X0107654Y0081491D01*
X010765Y0081484D01*
X0107636Y0081446D01*
X010762Y0081408D01*
X0107619Y0081404D01*
X0107592Y0081346D01*
X0107563Y0081297D01*
X0107533Y0081257D01*
X0107504Y0081227D01*
X0107475Y0081204D01*
X0107446Y0081188D01*
X0107414Y0081176D01*
X010738Y0081169D01*
X0107377Y0081169D01*
X0107339D01*
X0107203Y0081142D01*
X0107087Y0081064D01*
X0106275Y0080252D01*
X0106197Y0080137D01*
X010617Y008D01*
Y0067357D01*
X0105472D01*
X0105442Y0067429D01*
X0105306Y0067606D01*
X0105129Y0067742D01*
X0104922Y0067828D01*
X01047Y0067857D01*
X0104478Y0067828D01*
X0104271Y0067742D01*
X0104094Y0067606D01*
X0104079Y0067587D01*
X0104038Y0067547D01*
X0103987Y0067502D01*
X0103938Y0067463D01*
X0103892Y0067431D01*
X0103849Y0067405D01*
X0103809Y0067385D01*
X0103772Y0067371D01*
X0103738Y0067361D01*
X0103712Y0067357D01*
X01035D01*
X0103363Y006733D01*
X0103248Y0067252D01*
X0102348Y0066352D01*
X010227Y0066237D01*
X0102243Y00661D01*
Y0063984D01*
X0101616Y0063357D01*
X0096148D01*
X0095357Y0064148D01*
Y0066649D01*
X009533Y0066785D01*
X0095252Y0066901D01*
X0094901Y0067252D01*
X0094785Y006733D01*
X0094649Y0067357D01*
X0094238D01*
X0094212Y0067361D01*
X0094178Y0067371D01*
X0094141Y0067385D01*
X0094101Y0067405D01*
X0094058Y0067431D01*
X0094014Y0067462D01*
X009391Y0067548D01*
X0093871Y0067587D01*
X0093856Y0067606D01*
X0093679Y0067742D01*
X0093472Y0067828D01*
X009325Y0067857D01*
X0093028Y0067828D01*
X0092821Y0067742D01*
X0092644Y0067606D01*
X0092508Y0067429D01*
X0092422Y0067222D01*
X0092393Y0067D01*
X0092422Y0066778D01*
X0092508Y0066571D01*
X0092644Y0066394D01*
X0092821Y0066258D01*
X0093028Y0066172D01*
X009325Y0066143D01*
X0093472Y0066172D01*
X0093679Y0066258D01*
X0093856Y0066394D01*
X0093871Y0066413D01*
X0093912Y0066453D01*
X0093963Y0066498D01*
X0094012Y0066537D01*
X0094058Y0066569D01*
X0094101Y0066595D01*
X0094141Y0066615D01*
X0094178Y0066629D01*
X0094212Y0066639D01*
X0094238Y0066643D01*
X0094501D01*
X0094643Y0066501D01*
Y0064D01*
X009467Y0063863D01*
X0094748Y0063748D01*
X0095748Y0062748D01*
X0095863Y006267D01*
X0096Y0062643D01*
X0101764D01*
X01019Y006267D01*
X0102016Y0062748D01*
X0102852Y0063584D01*
X010293Y00637D01*
X0102957Y0063836D01*
Y0065952D01*
X0103648Y0066643D01*
X0103712D01*
X0103738Y0066639D01*
X0103772Y0066629D01*
X0103809Y0066615D01*
X0103849Y0066595D01*
X0103892Y0066569D01*
X0103936Y0066538D01*
X0104039Y0066452D01*
X0104079Y0066413D01*
X0104094Y0066394D01*
X0104271Y0066258D01*
X0104478Y0066172D01*
X01047Y0066143D01*
X0104922Y0066172D01*
X0105129Y0066258D01*
X0105306Y0066394D01*
X0105442Y0066571D01*
X0105472Y0066643D01*
X0107228D01*
X0107258Y0066571D01*
X0107394Y0066394D01*
X0107571Y0066258D01*
X0107778Y0066172D01*
X0108Y0066143D01*
X0108222Y0066172D01*
X0108429Y0066258D01*
X0108606Y0066394D01*
X0108742Y0066571D01*
X0108828Y0066778D01*
X0108857Y0067D01*
X0108828Y0067222D01*
X0108742Y0067429D01*
X0108606Y0067606D01*
X0108429Y0067742D01*
X0108222Y0067828D01*
X0108Y0067857D01*
X0107778Y0067828D01*
X0107571Y0067742D01*
X0107394Y0067606D01*
X0107258Y0067429D01*
X0107228Y0067357D01*
X0106884D01*
Y0079852D01*
X0107476Y0080444D01*
X0107526Y0080433D01*
X0107593Y0080413D01*
X0107661Y0080387D01*
X0107732Y0080354D01*
X0107803Y0080316D01*
X0107961Y0080213D01*
X0108041Y0080152D01*
X0108056Y0080145D01*
X0108068Y0080135D01*
X0108071Y0080134D01*
X0108184Y0080047D01*
X0108476Y0079926D01*
X0108789Y0079885D01*
X0109102Y0079926D01*
X0109394Y0080047D01*
X0109645Y0080239D01*
X0109837Y008049D01*
X0109958Y0080782D01*
X011Y0081095D01*
X0109958Y0081408D01*
X0109837Y00817D01*
X0109645Y0081951D01*
X0109607Y008198D01*
X0109534Y0082054D01*
X0109366Y0082244D01*
X0109303Y0082327D01*
X010925Y0082406D01*
X0109208Y0082478D01*
X0109177Y0082542D01*
X0109157Y0082598D01*
X0109147Y0082645D01*
X0109146Y0082655D01*
Y0086035D01*
X0109147Y0086045D01*
X0109157Y0086092D01*
X0109177Y0086148D01*
X0109208Y0086212D01*
X010925Y0086284D01*
X0109303Y0086363D01*
X0109366Y0086446D01*
X0109534Y0086636D01*
X0109607Y008671D01*
X0109645Y0086739D01*
X0109837Y008699D01*
X0109958Y0087282D01*
X011Y0087595D01*
X0109958Y0087908D01*
X0109837Y00882D01*
X0109645Y0088451D01*
X0109394Y0088643D01*
X0109102Y0088764D01*
X0108789Y0088805D01*
D02*
G37*
G36*
X0104289Y0082305D02*
X0103976Y0082264D01*
X0103684Y0082143D01*
X0103433Y0081951D01*
X0103241Y00817D01*
X010312Y0081408D01*
X0103079Y0081095D01*
X010312Y0080782D01*
X0103241Y008049D01*
X0103433Y0080239D01*
X0103684Y0080047D01*
X0103976Y0079926D01*
X0104289Y0079885D01*
X0104602Y0079926D01*
X0104894Y0080047D01*
X0105145Y0080239D01*
X0105337Y008049D01*
X0105458Y0080782D01*
X01055Y0081095D01*
X0105458Y0081408D01*
X0105337Y00817D01*
X0105145Y0081951D01*
X0104894Y0082143D01*
X0104602Y0082264D01*
X0104289Y0082305D01*
D02*
G37*
G36*
X01115Y0079263D02*
X0110944Y0079227D01*
X0110397Y0079118D01*
X0109869Y0078939D01*
X0109368Y0078692D01*
X0108905Y0078382D01*
X0108599Y0078114D01*
X01115Y0075212D01*
X0114401Y0078114D01*
X0114095Y0078382D01*
X0113632Y0078692D01*
X0113131Y0078939D01*
X0112603Y0079118D01*
X0112056Y0079227D01*
X01115Y0079263D01*
D02*
G37*
G36*
X00785D02*
X0077944Y0079227D01*
X0077397Y0079118D01*
X0076869Y0078939D01*
X0076368Y0078692D01*
X0075905Y0078382D01*
X0075599Y0078114D01*
X00785Y0075212D01*
X0081401Y0078114D01*
X0081095Y0078382D01*
X0080632Y0078692D01*
X0080131Y0078939D01*
X0079603Y0079118D01*
X0079056Y0079227D01*
X00785Y0079263D01*
D02*
G37*
G36*
X009325Y0075912D02*
X0093014Y0075881D01*
X0092794Y007579D01*
X0092725Y0075737D01*
X009325Y0075212D01*
X0093775Y0075737D01*
X0093706Y007579D01*
X0093486Y0075881D01*
X009325Y0075912D01*
D02*
G37*
G36*
X009125D02*
X0091014Y0075881D01*
X0090794Y007579D01*
X0090725Y0075737D01*
X009125Y0075212D01*
X0091775Y0075737D01*
X0091706Y007579D01*
X0091486Y0075881D01*
X009125Y0075912D01*
D02*
G37*
G36*
X0093987Y0075525D02*
X0093462Y0075D01*
X0093987Y0074475D01*
X009404Y0074544D01*
X0094131Y0074764D01*
X0094162Y0075D01*
X0094131Y0075236D01*
X009404Y0075456D01*
X0093987Y0075525D01*
D02*
G37*
G36*
X0091987D02*
X0091462Y0075D01*
X0091987Y0074475D01*
X009204Y0074544D01*
X0092131Y0074764D01*
X0092162Y0075D01*
X0092131Y0075236D01*
X009204Y0075456D01*
X0091987Y0075525D01*
D02*
G37*
G36*
X0092513D02*
X009246Y0075456D01*
X0092369Y0075236D01*
X0092338Y0075D01*
X0092369Y0074764D01*
X009246Y0074544D01*
X0092513Y0074475D01*
X0093038Y0075D01*
X0092513Y0075525D01*
D02*
G37*
G36*
X0090513D02*
X009046Y0075456D01*
X0090369Y0075236D01*
X0090338Y0075D01*
X0090369Y0074764D01*
X009046Y0074544D01*
X0090513Y0074475D01*
X0091038Y0075D01*
X0090513Y0075525D01*
D02*
G37*
G36*
X009325Y0074788D02*
X0092725Y0074263D01*
X0092794Y007421D01*
X0093014Y0074119D01*
X009325Y0074088D01*
X0093486Y0074119D01*
X0093706Y007421D01*
X0093775Y0074263D01*
X009325Y0074788D01*
D02*
G37*
G36*
X009125D02*
X0090725Y0074263D01*
X0090794Y007421D01*
X0091014Y0074119D01*
X009125Y0074088D01*
X0091486Y0074119D01*
X0091706Y007421D01*
X0091775Y0074263D01*
X009125Y0074788D01*
D02*
G37*
G36*
X010186Y0094021D02*
X009836D01*
Y0093821D01*
X009656D01*
Y009253D01*
X0083021D01*
X0082826Y0092492D01*
X008266Y0092381D01*
X008064Y009036D01*
X0080529Y0090195D01*
X008049Y009D01*
Y008D01*
X0080529Y0079805D01*
X008064Y007964D01*
X008349Y0076789D01*
Y0072051D01*
X0083529Y0071856D01*
X008364Y0071691D01*
X0083991Y007134D01*
X0084156Y0071229D01*
X0084351Y007119D01*
X008565D01*
Y007045D01*
X008835D01*
Y007119D01*
X0088649D01*
X0088844Y0071229D01*
X0089009Y007134D01*
X008936Y0071691D01*
X0089471Y0071856D01*
X008951Y0072051D01*
Y0076437D01*
X0089563Y007649D01*
X00904D01*
X0090443Y0076485D01*
X0090486Y0076476D01*
X0090524Y0076466D01*
X0090556Y0076455D01*
X0090583Y0076442D01*
X0090606Y0076429D01*
X0090625Y0076416D01*
X0090632Y007641D01*
X0090644Y0076394D01*
X0090821Y0076258D01*
X0091028Y0076172D01*
X009125Y0076143D01*
X0091472Y0076172D01*
X0091679Y0076258D01*
X0091856Y0076394D01*
X0091868Y007641D01*
X0091875Y0076416D01*
X0091894Y0076429D01*
X0091917Y0076442D01*
X0091944Y0076455D01*
X0091976Y0076466D01*
X0092014Y0076476D01*
X0092054Y0076484D01*
X0092115Y007649D01*
X00924D01*
X0092443Y0076485D01*
X0092486Y0076476D01*
X0092524Y0076466D01*
X0092556Y0076455D01*
X0092583Y0076442D01*
X0092606Y0076429D01*
X0092625Y0076416D01*
X0092632Y007641D01*
X0092644Y0076394D01*
X0092821Y0076258D01*
X0093028Y0076172D01*
X009325Y0076143D01*
X0093472Y0076172D01*
X0093679Y0076258D01*
X0093856Y0076394D01*
X0093992Y0076571D01*
X0094078Y0076778D01*
X0094107Y0077D01*
X0094078Y0077222D01*
X0093992Y0077429D01*
X0093856Y0077606D01*
X0093679Y0077742D01*
X0093472Y0077828D01*
X009325Y0077857D01*
X0093028Y0077828D01*
X0092821Y0077742D01*
X0092644Y0077606D01*
X0092632Y007759D01*
X0092625Y0077584D01*
X0092606Y0077571D01*
X0092583Y0077558D01*
X0092556Y0077545D01*
X0092524Y0077534D01*
X0092486Y0077524D01*
X0092446Y0077516D01*
X0092385Y007751D01*
X00921D01*
X0092057Y0077515D01*
X0092014Y0077524D01*
X0091976Y0077534D01*
X0091944Y0077545D01*
X0091917Y0077558D01*
X0091894Y0077571D01*
X0091875Y0077584D01*
X0091868Y007759D01*
X0091856Y0077606D01*
X0091679Y0077742D01*
X0091472Y0077828D01*
X009125Y0077857D01*
X0091028Y0077828D01*
X0090821Y0077742D01*
X0090644Y0077606D01*
X0090632Y007759D01*
X0090625Y0077584D01*
X0090606Y0077571D01*
X0090583Y0077558D01*
X0090556Y0077545D01*
X0090524Y0077534D01*
X0090486Y0077524D01*
X0090446Y0077516D01*
X0090385Y007751D01*
X0089351D01*
X0089156Y0077471D01*
X0088991Y007736D01*
X008864Y0077009D01*
X0088529Y0076844D01*
X008849Y0076649D01*
Y0072381D01*
X0088477Y0072373D01*
X008835Y007244D01*
Y007295D01*
X008565D01*
Y007221D01*
X0084563D01*
X008451Y0072263D01*
Y0077D01*
X0084471Y0077195D01*
X008436Y007736D01*
X008151Y0080211D01*
Y0089789D01*
X0083232Y0091511D01*
X009656D01*
Y0090221D01*
X009836D01*
Y0090021D01*
X0101551D01*
Y007432D01*
X010081Y0073579D01*
X0100063D01*
X01Y007359D01*
X0099929Y007361D01*
X0099854Y007364D01*
X0099775Y0073679D01*
X0099693Y0073728D01*
X0099609Y0073787D01*
X0099424Y0073942D01*
X0099359Y0074006D01*
X0099327Y0074047D01*
X0099056Y0074256D01*
X0098739Y0074387D01*
X00984Y0074431D01*
X0098061Y0074387D01*
X0097744Y0074256D01*
X0097473Y0074047D01*
X0097264Y0073776D01*
X0097133Y0073459D01*
X0097089Y007312D01*
X0097133Y0072781D01*
X0097264Y0072464D01*
X0097473Y0072193D01*
X0097744Y0071984D01*
X0098061Y0071853D01*
X00984Y0071809D01*
X0098739Y0071853D01*
X0099056Y0071984D01*
X0099327Y0072193D01*
X0099359Y0072234D01*
X0099426Y0072299D01*
X0099518Y0072381D01*
X0099607Y0072452D01*
X0099692Y0072512D01*
X0099775Y0072561D01*
X0099854Y00726D01*
X0099929Y007263D01*
X01Y007265D01*
X0100063Y0072661D01*
X0101D01*
X0101176Y0072696D01*
X0101324Y0072796D01*
X0102335Y0073806D01*
X0102434Y0073955D01*
X0102469Y007413D01*
Y0090221D01*
X010296D01*
Y0093821D01*
X010186D01*
Y0094021D01*
D02*
G37*
G36*
X009325Y0073857D02*
X0093028Y0073828D01*
X0092821Y0073742D01*
X0092644Y0073606D01*
X0092632Y007359D01*
X0092625Y0073584D01*
X0092606Y0073571D01*
X0092583Y0073558D01*
X0092556Y0073545D01*
X0092524Y0073534D01*
X0092486Y0073524D01*
X0092446Y0073516D01*
X0092385Y007351D01*
X00921D01*
X0092057Y0073515D01*
X0092014Y0073524D01*
X0091976Y0073534D01*
X0091944Y0073545D01*
X0091917Y0073558D01*
X0091894Y0073571D01*
X0091875Y0073584D01*
X0091868Y007359D01*
X0091856Y0073606D01*
X0091679Y0073742D01*
X0091472Y0073828D01*
X009125Y0073857D01*
X0091028Y0073828D01*
X0090821Y0073742D01*
X0090644Y0073606D01*
X0090508Y0073429D01*
X0090422Y0073222D01*
X0090393Y0073D01*
X0090422Y0072778D01*
X0090508Y0072571D01*
X0090644Y0072394D01*
X0090821Y0072258D01*
X0091028Y0072172D01*
X009125Y0072143D01*
X0091472Y0072172D01*
X0091679Y0072258D01*
X0091856Y0072394D01*
X0091868Y007241D01*
X0091875Y0072416D01*
X0091894Y0072429D01*
X0091917Y0072442D01*
X0091944Y0072455D01*
X0091976Y0072466D01*
X0092014Y0072476D01*
X0092054Y0072484D01*
X0092115Y007249D01*
X00924D01*
X0092443Y0072485D01*
X0092486Y0072476D01*
X0092524Y0072466D01*
X0092556Y0072455D01*
X0092583Y0072442D01*
X0092606Y0072429D01*
X0092625Y0072416D01*
X0092632Y007241D01*
X0092644Y0072394D01*
X0092821Y0072258D01*
X0093028Y0072172D01*
X009325Y0072143D01*
X0093472Y0072172D01*
X0093679Y0072258D01*
X0093856Y0072394D01*
X0093992Y0072571D01*
X0094078Y0072778D01*
X0094107Y0073D01*
X0094078Y0073222D01*
X0093992Y0073429D01*
X0093856Y0073606D01*
X0093679Y0073742D01*
X0093472Y0073828D01*
X009325Y0073857D01*
D02*
G37*
G36*
X0114614Y0077901D02*
X0111712Y0075D01*
X0114614Y0072099D01*
X0114882Y0072405D01*
X0115192Y0072868D01*
X0115439Y0073369D01*
X0115618Y0073897D01*
X0115727Y0074444D01*
X0115763Y0075D01*
X0115727Y0075556D01*
X0115618Y0076103D01*
X0115439Y0076631D01*
X0115192Y0077132D01*
X0114882Y0077595D01*
X0114614Y0077901D01*
D02*
G37*
G36*
X0075386Y0077901D02*
X0075118Y0077595D01*
X0074808Y0077132D01*
X0074561Y0076631D01*
X0074382Y0076103D01*
X0074273Y0075556D01*
X0074237Y0075D01*
X0074273Y0074444D01*
X0074382Y0073897D01*
X0074561Y0073369D01*
X0074808Y0072868D01*
X0075118Y0072405D01*
X0075386Y0072099D01*
X0078288Y0075D01*
X0075386Y0077901D01*
D02*
G37*
G36*
X0108386Y0077901D02*
X0108118Y0077595D01*
X0107808Y0077132D01*
X0107561Y0076631D01*
X0107382Y0076103D01*
X0107273Y0075556D01*
X0107237Y0075D01*
X0107273Y0074444D01*
X0107382Y0073897D01*
X0107561Y0073369D01*
X0107808Y0072868D01*
X0108118Y0072405D01*
X0108386Y0072099D01*
X0111288Y0075D01*
X0108386Y0077901D01*
D02*
G37*
G36*
X0081614Y0077901D02*
X0078712Y0075D01*
X0081614Y0072099D01*
X0081882Y0072405D01*
X0082192Y0072868D01*
X0082439Y0073369D01*
X0082618Y0073897D01*
X0082727Y0074444D01*
X0082763Y0075D01*
X0082727Y0075556D01*
X0082618Y0076103D01*
X0082439Y0076631D01*
X0082192Y0077132D01*
X0081882Y0077595D01*
X0081614Y0077901D01*
D02*
G37*
G36*
X009325Y0071857D02*
X0093028Y0071828D01*
X0092821Y0071742D01*
X0092644Y0071606D01*
X0092632Y007159D01*
X0092625Y0071584D01*
X0092606Y0071571D01*
X0092583Y0071558D01*
X0092556Y0071545D01*
X0092524Y0071534D01*
X0092486Y0071524D01*
X0092446Y0071516D01*
X0092385Y007151D01*
X00921D01*
X0092057Y0071515D01*
X0092014Y0071524D01*
X0091976Y0071534D01*
X0091944Y0071545D01*
X0091917Y0071558D01*
X0091894Y0071571D01*
X0091875Y0071584D01*
X0091868Y007159D01*
X0091856Y0071606D01*
X0091679Y0071742D01*
X0091472Y0071828D01*
X009125Y0071857D01*
X0091028Y0071828D01*
X0090821Y0071742D01*
X0090644Y0071606D01*
X0090508Y0071429D01*
X0090422Y0071222D01*
X0090393Y0071D01*
X0090422Y0070778D01*
X0090508Y0070571D01*
X0090644Y0070394D01*
X0090821Y0070258D01*
X0091028Y0070172D01*
X009125Y0070143D01*
X0091472Y0070172D01*
X0091679Y0070258D01*
X0091856Y0070394D01*
X0091868Y007041D01*
X0091875Y0070416D01*
X0091894Y0070429D01*
X0091917Y0070442D01*
X0091944Y0070455D01*
X0091976Y0070466D01*
X0092014Y0070476D01*
X0092054Y0070484D01*
X0092115Y007049D01*
X00924D01*
X0092443Y0070485D01*
X0092486Y0070476D01*
X0092524Y0070466D01*
X0092556Y0070455D01*
X0092583Y0070442D01*
X0092606Y0070429D01*
X0092625Y0070416D01*
X0092632Y007041D01*
X0092644Y0070394D01*
X0092821Y0070258D01*
X0093028Y0070172D01*
X009325Y0070143D01*
X0093472Y0070172D01*
X0093679Y0070258D01*
X0093856Y0070394D01*
X0093992Y0070571D01*
X0094078Y0070778D01*
X0094107Y0071D01*
X0094078Y0071222D01*
X0093992Y0071429D01*
X0093856Y0071606D01*
X0093679Y0071742D01*
X0093472Y0071828D01*
X009325Y0071857D01*
D02*
G37*
G36*
X01115Y0074788D02*
X0108599Y0071886D01*
X0108905Y0071618D01*
X0109368Y0071308D01*
X0109869Y0071061D01*
X0110397Y0070882D01*
X0110944Y0070773D01*
X01115Y0070737D01*
X0112056Y0070773D01*
X0112603Y0070882D01*
X0113131Y0071061D01*
X0113632Y0071308D01*
X0114095Y0071618D01*
X0114401Y0071886D01*
X01115Y0074788D01*
D02*
G37*
G36*
X00785Y0074788D02*
X0075599Y0071886D01*
X0075905Y0071618D01*
X0076368Y0071308D01*
X0076869Y0071061D01*
X0077397Y0070882D01*
X0077944Y0070773D01*
X00785Y0070737D01*
X0079056Y0070773D01*
X0079603Y0070882D01*
X0080131Y0071061D01*
X0080632Y0071308D01*
X0081095Y0071618D01*
X0081401Y0071886D01*
X00785Y0074788D01*
D02*
G37*
G36*
X009325Y0069857D02*
X0093028Y0069828D01*
X0092821Y0069742D01*
X0092644Y0069606D01*
X0092508Y0069429D01*
X0092422Y0069222D01*
X0092393Y0069D01*
X0092396Y0068976D01*
X0092395Y0068918D01*
X0092391Y006885D01*
X0092384Y0068789D01*
X0092374Y0068734D01*
X0092362Y0068685D01*
X0092347Y0068642D01*
X0092331Y0068606D01*
X0092314Y0068575D01*
X0092299Y0068554D01*
X0092105Y006836D01*
X0091981Y0068371D01*
X0091925Y0068484D01*
X0091992Y0068571D01*
X0092078Y0068778D01*
X0092107Y0069D01*
X0092078Y0069222D01*
X0091992Y0069429D01*
X0091856Y0069606D01*
X0091679Y0069742D01*
X0091472Y0069828D01*
X009125Y0069857D01*
X0091028Y0069828D01*
X0090821Y0069742D01*
X0090644Y0069606D01*
X0090629Y0069587D01*
X0090588Y0069547D01*
X0090537Y0069502D01*
X0090488Y0069463D01*
X0090442Y0069431D01*
X0090399Y0069405D01*
X0090359Y0069385D01*
X0090322Y0069371D01*
X0090288Y0069361D01*
X0090262Y0069357D01*
X0081679D01*
X0081543Y006933D01*
X0081427Y0069252D01*
X0079207Y0067033D01*
X0078788Y0067452D01*
X0077798Y0066462D01*
X0079141Y0065119D01*
X0080131Y0066109D01*
X0079712Y0066528D01*
X0081827Y0068643D01*
X0090262D01*
X0090288Y0068639D01*
X0090322Y0068629D01*
X0090359Y0068615D01*
X0090399Y0068595D01*
X0090442Y0068569D01*
X0090486Y0068538D01*
X0090551Y0068484D01*
X0090505Y0068357D01*
X0090505Y0068357D01*
X0088D01*
X0087863Y006833D01*
X0087748Y0068252D01*
X0084998Y0065502D01*
X008492Y0065387D01*
X0084893Y006525D01*
Y0063148D01*
X008375Y0062005D01*
X008346Y0062295D01*
X0083702Y0062538D01*
X0082359Y0063881D01*
X0081369Y0062891D01*
X0082712Y0061548D01*
X0082955Y006179D01*
X0083498Y0061248D01*
X008404Y0060705D01*
X0083798Y0060462D01*
X0085141Y0059119D01*
X0086131Y0060109D01*
X0084788Y0061452D01*
X0084545Y006121D01*
X0084255Y00615D01*
X0085502Y0062748D01*
X008558Y0062863D01*
X0085607Y0063D01*
Y0065102D01*
X0088148Y0067643D01*
X0090505D01*
X009051Y0067637D01*
X0090553Y0067516D01*
X0090537Y0067502D01*
X0090488Y0067463D01*
X0090442Y0067431D01*
X0090399Y0067405D01*
X0090359Y0067385D01*
X0090322Y0067371D01*
X0090288Y0067361D01*
X0090262Y0067357D01*
X008975D01*
X0089613Y006733D01*
X0089498Y0067252D01*
X0089248Y0067002D01*
X008917Y0066887D01*
X0089143Y006675D01*
Y0057827D01*
X0088778Y0057462D01*
X0088359Y0057881D01*
X0087369Y0056891D01*
X0088712Y0055548D01*
X0089702Y0056538D01*
X0089283Y0056957D01*
X0089752Y0057427D01*
X008983Y0057543D01*
X0089857Y0057679D01*
Y0066602D01*
X0089898Y0066643D01*
X0090262D01*
X0090288Y0066639D01*
X0090322Y0066629D01*
X0090359Y0066615D01*
X0090399Y0066595D01*
X0090442Y0066569D01*
X0090486Y0066538D01*
X009059Y0066452D01*
X0090629Y0066413D01*
X0090644Y0066394D01*
X0090821Y0066258D01*
X0091028Y0066172D01*
X009125Y0066143D01*
X0091472Y0066172D01*
X0091679Y0066258D01*
X0091856Y0066394D01*
X0091992Y0066571D01*
X0092078Y0066778D01*
X0092107Y0067D01*
X0092078Y0067222D01*
X0091992Y0067429D01*
X0091925Y0067516D01*
X0091988Y0067643D01*
X009225D01*
X0092387Y006767D01*
X0092502Y0067748D01*
X0092804Y0068049D01*
X0092825Y0068064D01*
X0092856Y0068081D01*
X0092892Y0068097D01*
X0092935Y0068112D01*
X0092984Y0068124D01*
X0093036Y0068133D01*
X0093171Y0068145D01*
X0093226Y0068146D01*
X009325Y0068143D01*
X0093472Y0068172D01*
X0093679Y0068258D01*
X0093856Y0068394D01*
X0093992Y0068571D01*
X0094078Y0068778D01*
X0094107Y0069D01*
X0094078Y0069222D01*
X0093992Y0069429D01*
X0093856Y0069606D01*
X0093679Y0069742D01*
X0093472Y0069828D01*
X009325Y0069857D01*
D02*
G37*
G36*
X00984Y0070621D02*
X0098061Y0070577D01*
X0097744Y0070446D01*
X0097473Y0070237D01*
X0097264Y0069966D01*
X0097133Y0069649D01*
X0097089Y006931D01*
X0097133Y0068971D01*
X0097264Y0068654D01*
X0097473Y0068383D01*
X0097744Y0068174D01*
X0098061Y0068043D01*
X00984Y0067999D01*
X0098739Y0068043D01*
X0099056Y0068174D01*
X0099327Y0068383D01*
X0099536Y0068654D01*
X0099667Y0068971D01*
X0099711Y006931D01*
X0099667Y0069649D01*
X0099536Y0069966D01*
X0099327Y0070237D01*
X0099056Y0070446D01*
X0098739Y0070577D01*
X00984Y0070621D01*
D02*
G37*
G36*
X01115Y0068708D02*
X0111167Y0068675D01*
X0110846Y0068578D01*
X0110551Y006842D01*
X0110292Y0068208D01*
X011008Y0067949D01*
X0109922Y0067654D01*
X0109825Y0067333D01*
X0109792Y0067D01*
X0109825Y0066667D01*
X0109922Y0066346D01*
X011008Y0066051D01*
X0110292Y0065792D01*
X0110551Y006558D01*
X0110846Y0065422D01*
X0111167Y0065325D01*
X01115Y0065292D01*
X0111833Y0065325D01*
X0112154Y0065422D01*
X0112449Y006558D01*
X0112708Y0065792D01*
X011292Y0066051D01*
X0113078Y0066346D01*
X0113175Y0066667D01*
X0113208Y0067D01*
X0113175Y0067333D01*
X0113078Y0067654D01*
X011292Y0067949D01*
X0112708Y0068208D01*
X0112449Y006842D01*
X0112154Y0068578D01*
X0111833Y0068675D01*
X01115Y0068708D01*
D02*
G37*
G36*
X00984Y0066811D02*
X0098061Y0066767D01*
X0097744Y0066636D01*
X0097473Y0066427D01*
X0097264Y0066156D01*
X0097133Y0065839D01*
X0097089Y00655D01*
X0097133Y0065161D01*
X0097264Y0064844D01*
X0097473Y0064573D01*
X0097744Y0064364D01*
X0098061Y0064233D01*
X00984Y0064189D01*
X0098739Y0064233D01*
X0099056Y0064364D01*
X0099327Y0064573D01*
X0099536Y0064844D01*
X0099667Y0065161D01*
X0099711Y00655D01*
X0099667Y0065839D01*
X0099536Y0066156D01*
X0099327Y0066427D01*
X0099056Y0066636D01*
X0098739Y0066767D01*
X00984Y0066811D01*
D02*
G37*
G36*
X009125Y0065857D02*
X0091028Y0065828D01*
X0090821Y0065742D01*
X0090644Y0065606D01*
X0090508Y0065429D01*
X0090422Y0065222D01*
X0090393Y0065D01*
X0090422Y0064778D01*
X0090508Y0064571D01*
X0090644Y0064394D01*
X0090821Y0064258D01*
X0091028Y0064172D01*
X009125Y0064143D01*
X0091472Y0064172D01*
X0091679Y0064258D01*
X0091856Y0064394D01*
X0091992Y0064571D01*
X0092078Y0064778D01*
X0092107Y0065D01*
X0092078Y0065222D01*
X0091992Y0065429D01*
X0091856Y0065606D01*
X0091679Y0065742D01*
X0091472Y0065828D01*
X009125Y0065857D01*
D02*
G37*
G36*
X009325D02*
X0093028Y0065828D01*
X0092821Y0065742D01*
X0092644Y0065606D01*
X0092508Y0065429D01*
X0092422Y0065222D01*
X0092393Y0065D01*
X0092422Y0064778D01*
X0092508Y0064571D01*
X0092644Y0064394D01*
X0092663Y0064379D01*
X0092703Y0064338D01*
X0092748Y0064287D01*
X0092787Y0064238D01*
X0092819Y0064192D01*
X0092845Y0064149D01*
X0092865Y0064109D01*
X0092879Y0064072D01*
X0092889Y0064038D01*
X0092893Y0064012D01*
Y006275D01*
X009292Y0062613D01*
X0092998Y0062498D01*
X0094396Y0061099D01*
X0094512Y0061022D01*
X0094649Y0060995D01*
X0102851D01*
X0102988Y0061022D01*
X0103104Y0061099D01*
X0103752Y0061748D01*
X0103753Y0061749D01*
X0103759Y006175D01*
X0103892Y0061729D01*
X0103958Y0061571D01*
X0104094Y0061394D01*
X0104271Y0061258D01*
X0104478Y0061172D01*
X01047Y0061143D01*
X0104922Y0061172D01*
X0105129Y0061258D01*
X0105306Y0061394D01*
X0105442Y0061571D01*
X0105528Y0061778D01*
X0105557Y0062D01*
X0105528Y0062222D01*
X0105442Y0062429D01*
X0105306Y0062606D01*
X0105129Y0062742D01*
X0104922Y0062828D01*
X01047Y0062857D01*
X0104478Y0062828D01*
X0104271Y0062742D01*
X0104094Y0062606D01*
X0103984Y0062463D01*
X0103857Y0062506D01*
Y0063948D01*
X0103859Y0063951D01*
X0103971Y0064008D01*
X0103984Y0064009D01*
X0104023Y0063972D01*
X0104071Y0063922D01*
X0104073Y0063921D01*
X0104094Y0063894D01*
X0104271Y0063758D01*
X0104478Y0063672D01*
X01047Y0063643D01*
X0104922Y0063672D01*
X0105129Y0063758D01*
X0105306Y0063894D01*
X0105442Y0064071D01*
X0105472Y0064143D01*
X0107228D01*
X0107258Y0064071D01*
X0107394Y0063894D01*
X0107571Y0063758D01*
X0107778Y0063672D01*
X0108Y0063643D01*
X0108222Y0063672D01*
X0108429Y0063758D01*
X0108606Y0063894D01*
X0108742Y0064071D01*
X0108828Y0064278D01*
X0108857Y00645D01*
X0108828Y0064722D01*
X0108742Y0064929D01*
X0108606Y0065106D01*
X0108429Y0065242D01*
X0108222Y0065328D01*
X0108Y0065357D01*
X0107778Y0065328D01*
X0107571Y0065242D01*
X0107394Y0065106D01*
X0107258Y0064929D01*
X0107228Y0064857D01*
X0105472D01*
X0105442Y0064929D01*
X0105306Y0065106D01*
X0105129Y0065242D01*
X0104922Y0065328D01*
X01047Y0065357D01*
X0104478Y0065328D01*
X0104271Y0065242D01*
X0104094Y0065106D01*
X0104073Y0065079D01*
X0104071Y0065078D01*
X0104023Y0065028D01*
X010398Y0064988D01*
X0103938Y0064954D01*
X0103897Y0064925D01*
X0103858Y0064902D01*
X010382Y0064884D01*
X0103783Y0064871D01*
X0103748Y0064861D01*
X0103718Y0064857D01*
X0103676D01*
X0103539Y006483D01*
X0103423Y0064752D01*
X0103248Y0064577D01*
X010317Y0064461D01*
X0103143Y0064324D01*
Y0062148D01*
X0102704Y0061708D01*
X0094796D01*
X0093607Y0062898D01*
Y0064012D01*
X0093611Y0064038D01*
X0093621Y0064072D01*
X0093635Y0064109D01*
X0093655Y0064149D01*
X0093681Y0064192D01*
X0093712Y0064236D01*
X0093798Y006434D01*
X0093837Y0064379D01*
X0093856Y0064394D01*
X0093992Y0064571D01*
X0094078Y0064778D01*
X0094107Y0065D01*
X0094078Y0065222D01*
X0093992Y0065429D01*
X0093856Y0065606D01*
X0093679Y0065742D01*
X0093472Y0065828D01*
X009325Y0065857D01*
D02*
G37*
G36*
X008075Y0065836D02*
X0080404Y0065791D01*
X0080082Y0065657D01*
X0079805Y0065445D01*
X0079593Y0065168D01*
X0079459Y0064846D01*
X0079414Y00645D01*
X0079459Y0064154D01*
X0079593Y0063832D01*
X0079805Y0063555D01*
X0080082Y0063343D01*
X0080404Y0063209D01*
X008075Y0063164D01*
X0081096Y0063209D01*
X0081418Y0063343D01*
X0081695Y0063555D01*
X0081907Y0063832D01*
X0082041Y0064154D01*
X0082086Y00645D01*
X0082041Y0064846D01*
X0081907Y0065168D01*
X0081695Y0065445D01*
X0081418Y0065657D01*
X0081096Y0065791D01*
X008075Y0065836D01*
D02*
G37*
G36*
X0108Y0062857D02*
X0107778Y0062828D01*
X0107571Y0062742D01*
X0107394Y0062606D01*
X0107258Y0062429D01*
X0107172Y0062222D01*
X0107143Y0062D01*
X0107172Y0061778D01*
X0107258Y0061571D01*
X0107394Y0061394D01*
X0107571Y0061258D01*
X0107778Y0061172D01*
X0108Y0061143D01*
X0108222Y0061172D01*
X0108429Y0061258D01*
X0108606Y0061394D01*
X0108742Y0061571D01*
X0108828Y0061778D01*
X0108857Y0062D01*
X0108828Y0062222D01*
X0108742Y0062429D01*
X0108606Y0062606D01*
X0108429Y0062742D01*
X0108222Y0062828D01*
X0108Y0062857D01*
D02*
G37*
G36*
X008675Y0059836D02*
X0086404Y0059791D01*
X0086082Y0059657D01*
X0085805Y0059445D01*
X0085593Y0059168D01*
X0085459Y0058846D01*
X0085414Y00585D01*
X0085459Y0058154D01*
X0085593Y0057832D01*
X0085805Y0057555D01*
X0086082Y0057343D01*
X0086404Y0057209D01*
X008675Y0057164D01*
X0087096Y0057209D01*
X0087418Y0057343D01*
X0087695Y0057555D01*
X0087907Y0057832D01*
X0088041Y0058154D01*
X0088086Y00585D01*
X0088041Y0058846D01*
X0087907Y0059168D01*
X0087695Y0059445D01*
X0087418Y0059657D01*
X0087096Y0059791D01*
X008675Y0059836D01*
D02*
G37*
%LPD*%
G36*
X0092786Y0084545D02*
X0092753Y0084574D01*
X0092717Y0084601D01*
X0092677Y0084624D01*
X0092632Y0084644D01*
X0092584Y0084661D01*
X0092532Y0084675D01*
X0092476Y0084686D01*
X0092416Y0084694D01*
X0092351Y0084698D01*
X0092283Y00847D01*
Y00853D01*
X0092351Y0085302D01*
X0092476Y0085314D01*
X0092532Y0085325D01*
X0092584Y0085339D01*
X0092632Y0085356D01*
X0092677Y0085376D01*
X0092717Y0085399D01*
X0092753Y0085426D01*
X0092786Y0085455D01*
Y0084545D01*
D02*
G37*
G36*
X0091747Y0085426D02*
X0091783Y0085399D01*
X0091823Y0085376D01*
X0091868Y0085356D01*
X0091916Y0085339D01*
X0091968Y0085325D01*
X0092024Y0085314D01*
X0092084Y0085306D01*
X0092149Y0085302D01*
X0092217Y00853D01*
Y00847D01*
X0092149Y0084698D01*
X0092024Y0084686D01*
X0091968Y0084675D01*
X0091916Y0084661D01*
X0091868Y0084644D01*
X0091823Y0084624D01*
X0091783Y0084601D01*
X0091747Y0084574D01*
X0091714Y0084545D01*
Y0085455D01*
X0091747Y0085426D01*
D02*
G37*
G36*
X0090786Y0084545D02*
X0090753Y0084574D01*
X0090717Y0084601D01*
X0090677Y0084624D01*
X0090632Y0084644D01*
X0090584Y0084661D01*
X0090532Y0084675D01*
X0090476Y0084686D01*
X0090416Y0084694D01*
X0090351Y0084698D01*
X0090283Y00847D01*
Y00853D01*
X0090351Y0085302D01*
X0090476Y0085314D01*
X0090532Y0085325D01*
X0090584Y0085339D01*
X0090632Y0085356D01*
X0090677Y0085376D01*
X0090717Y0085399D01*
X0090753Y0085426D01*
X0090786Y0085455D01*
Y0084545D01*
D02*
G37*
G36*
X0093747Y0083426D02*
X0093783Y0083399D01*
X0093823Y0083376D01*
X0093868Y0083356D01*
X0093916Y0083339D01*
X0093968Y0083325D01*
X0094024Y0083314D01*
X0094084Y0083306D01*
X0094149Y0083302D01*
X0094217Y00833D01*
Y00827D01*
X0094149Y0082698D01*
X0094024Y0082686D01*
X0093968Y0082675D01*
X0093916Y0082661D01*
X0093868Y0082644D01*
X0093823Y0082624D01*
X0093783Y0082601D01*
X0093747Y0082574D01*
X0093714Y0082545D01*
Y0083455D01*
X0093747Y0083426D01*
D02*
G37*
G36*
X0092786Y0082545D02*
X0092753Y0082574D01*
X0092717Y0082601D01*
X0092677Y0082624D01*
X0092632Y0082644D01*
X0092584Y0082661D01*
X0092532Y0082675D01*
X0092476Y0082686D01*
X0092416Y0082694D01*
X0092351Y0082698D01*
X0092283Y00827D01*
Y00833D01*
X0092351Y0083302D01*
X0092476Y0083314D01*
X0092532Y0083325D01*
X0092584Y0083339D01*
X0092632Y0083356D01*
X0092677Y0083376D01*
X0092717Y0083399D01*
X0092753Y0083426D01*
X0092786Y0083455D01*
Y0082545D01*
D02*
G37*
G36*
X0091747Y0083426D02*
X0091783Y0083399D01*
X0091823Y0083376D01*
X0091868Y0083356D01*
X0091916Y0083339D01*
X0091968Y0083325D01*
X0092024Y0083314D01*
X0092084Y0083306D01*
X0092149Y0083302D01*
X0092217Y00833D01*
Y00827D01*
X0092149Y0082698D01*
X0092024Y0082686D01*
X0091968Y0082675D01*
X0091916Y0082661D01*
X0091868Y0082644D01*
X0091823Y0082624D01*
X0091783Y0082601D01*
X0091747Y0082574D01*
X0091714Y0082545D01*
Y0083455D01*
X0091747Y0083426D01*
D02*
G37*
G36*
X0097467Y0082104D02*
X0097544Y0082047D01*
X0097627Y0081998D01*
X0097716Y0081955D01*
X0097812Y0081918D01*
X0097914Y0081889D01*
X0098023Y0081867D01*
X0098139Y0081851D01*
X0098261Y0081842D01*
X0098389Y008184D01*
X00973Y0080751D01*
X0097298Y0080879D01*
X0097289Y0081001D01*
X0097273Y0081117D01*
X0097251Y0081226D01*
X0097222Y0081328D01*
X0097185Y0081424D01*
X0097142Y0081513D01*
X0097093Y0081596D01*
X0097036Y0081673D01*
X0096973Y0081743D01*
X0097397Y0082167D01*
X0097467Y0082104D01*
D02*
G37*
G36*
X0098705Y0086174D02*
X0098719Y008608D01*
X0098742Y0085986D01*
X0098775Y0085892D01*
X0098817Y0085799D01*
X0098869Y0085706D01*
X009893Y0085613D01*
X0099001Y008552D01*
X0099081Y0085428D01*
X009917Y0085336D01*
X009763D01*
X0097719Y0085428D01*
X0097799Y008552D01*
X009787Y0085613D01*
X0097931Y0085706D01*
X0097982Y0085799D01*
X0098025Y0085892D01*
X0098058Y0085986D01*
X0098081Y008608D01*
X0098095Y0086174D01*
X00981Y0086268D01*
X00987D01*
X0098705Y0086174D01*
D02*
G37*
G36*
X0092786Y0080545D02*
X0092753Y0080574D01*
X0092717Y0080601D01*
X0092677Y0080624D01*
X0092632Y0080644D01*
X0092584Y0080661D01*
X0092532Y0080675D01*
X0092476Y0080686D01*
X0092416Y0080694D01*
X0092351Y0080698D01*
X0092283Y00807D01*
Y00813D01*
X0092351Y0081302D01*
X0092476Y0081314D01*
X0092532Y0081325D01*
X0092584Y0081339D01*
X0092632Y0081356D01*
X0092677Y0081376D01*
X0092717Y0081399D01*
X0092753Y0081426D01*
X0092786Y0081455D01*
Y0080545D01*
D02*
G37*
G36*
X0091747Y0081426D02*
X0091783Y0081399D01*
X0091823Y0081376D01*
X0091868Y0081356D01*
X0091916Y0081339D01*
X0091968Y0081325D01*
X0092024Y0081314D01*
X0092084Y0081306D01*
X0092149Y0081302D01*
X0092217Y00813D01*
Y00807D01*
X0092149Y0080698D01*
X0092024Y0080686D01*
X0091968Y0080675D01*
X0091916Y0080661D01*
X0091868Y0080644D01*
X0091823Y0080624D01*
X0091783Y0080601D01*
X0091747Y0080574D01*
X0091714Y0080545D01*
Y0081455D01*
X0091747Y0081426D01*
D02*
G37*
G36*
X009089Y0080459D02*
X0090856Y0080479D01*
X0090818Y0080498D01*
X0090776Y0080514D01*
X009073Y0080528D01*
X0090681Y0080539D01*
X0090628Y0080549D01*
X009051Y0080562D01*
X0090445Y0080565D01*
X0090376Y0080566D01*
X0090232Y0081166D01*
X00903Y0081168D01*
X0090363Y0081173D01*
X0090422Y0081183D01*
X0090476Y0081195D01*
X0090526Y0081212D01*
X0090571Y0081232D01*
X009061Y0081256D01*
X0090646Y0081284D01*
X0090676Y0081315D01*
X0090702Y008135D01*
X009089Y0080459D01*
D02*
G37*
G36*
X0093747Y0079426D02*
X0093783Y0079399D01*
X0093823Y0079376D01*
X0093868Y0079356D01*
X0093916Y0079339D01*
X0093968Y0079325D01*
X0094024Y0079314D01*
X0094084Y0079306D01*
X0094149Y0079302D01*
X0094217Y00793D01*
Y00787D01*
X0094149Y0078698D01*
X0094024Y0078686D01*
X0093968Y0078675D01*
X0093916Y0078661D01*
X0093868Y0078644D01*
X0093823Y0078624D01*
X0093783Y0078601D01*
X0093747Y0078574D01*
X0093714Y0078545D01*
Y0079455D01*
X0093747Y0079426D01*
D02*
G37*
G36*
X0092786Y0078545D02*
X0092753Y0078574D01*
X0092717Y0078601D01*
X0092677Y0078624D01*
X0092632Y0078644D01*
X0092584Y0078661D01*
X0092532Y0078675D01*
X0092476Y0078686D01*
X0092416Y0078694D01*
X0092351Y0078698D01*
X0092283Y00787D01*
Y00793D01*
X0092351Y0079302D01*
X0092476Y0079314D01*
X0092532Y0079325D01*
X0092584Y0079339D01*
X0092632Y0079356D01*
X0092677Y0079376D01*
X0092717Y0079399D01*
X0092753Y0079426D01*
X0092786Y0079455D01*
Y0078545D01*
D02*
G37*
G36*
X0091747Y0079426D02*
X0091783Y0079399D01*
X0091823Y0079376D01*
X0091868Y0079356D01*
X0091916Y0079339D01*
X0091968Y0079325D01*
X0092024Y0079314D01*
X0092084Y0079306D01*
X0092149Y0079302D01*
X0092217Y00793D01*
Y00787D01*
X0092149Y0078698D01*
X0092024Y0078686D01*
X0091968Y0078675D01*
X0091916Y0078661D01*
X0091868Y0078644D01*
X0091823Y0078624D01*
X0091783Y0078601D01*
X0091747Y0078574D01*
X0091714Y0078545D01*
Y0079455D01*
X0091747Y0079426D01*
D02*
G37*
G36*
X0090786Y0078545D02*
X0090753Y0078574D01*
X0090717Y0078601D01*
X0090677Y0078624D01*
X0090632Y0078644D01*
X0090584Y0078661D01*
X0090532Y0078675D01*
X0090476Y0078686D01*
X0090416Y0078694D01*
X0090351Y0078698D01*
X0090283Y00787D01*
Y00793D01*
X0090351Y0079302D01*
X0090476Y0079314D01*
X0090532Y0079325D01*
X0090584Y0079339D01*
X0090632Y0079356D01*
X0090677Y0079376D01*
X0090717Y0079399D01*
X0090753Y0079426D01*
X0090786Y0079455D01*
Y0078545D01*
D02*
G37*
G36*
X0097467Y0078294D02*
X0097544Y0078237D01*
X0097627Y0078188D01*
X0097716Y0078145D01*
X0097812Y0078108D01*
X0097914Y0078079D01*
X0098023Y0078057D01*
X0098139Y0078041D01*
X0098261Y0078032D01*
X0098389Y007803D01*
X00973Y0076941D01*
X0097298Y0077069D01*
X0097289Y0077191D01*
X0097273Y0077307D01*
X0097251Y0077416D01*
X0097222Y0077518D01*
X0097185Y0077614D01*
X0097142Y0077703D01*
X0097093Y0077786D01*
X0097036Y0077863D01*
X0096973Y0077933D01*
X0097397Y0078357D01*
X0097467Y0078294D01*
D02*
G37*
G36*
X0109385Y0086775D02*
X0109209Y0086576D01*
X0109137Y0086482D01*
X0109077Y0086393D01*
X0109027Y0086307D01*
X0108989Y0086226D01*
X0108961Y0086149D01*
X0108945Y0086076D01*
X0108939Y0086006D01*
X0108639D01*
X0108634Y0086076D01*
X0108617Y0086149D01*
X010859Y0086226D01*
X0108551Y0086307D01*
X0108502Y0086393D01*
X0108441Y0086482D01*
X010837Y0086576D01*
X0108194Y0086775D01*
X0108089Y0086881D01*
X0109489D01*
X0109385Y0086775D01*
D02*
G37*
G36*
X0108945Y0082615D02*
X0108961Y0082541D01*
X0108989Y0082464D01*
X0109027Y0082383D01*
X0109077Y0082297D01*
X0109137Y0082208D01*
X0109209Y0082114D01*
X0109385Y0081915D01*
X0109489Y0081809D01*
X0108089D01*
X0108194Y0081915D01*
X010837Y0082114D01*
X0108441Y0082208D01*
X0108502Y0082297D01*
X0108551Y0082383D01*
X010859Y0082464D01*
X0108617Y0082541D01*
X0108634Y0082615D01*
X0108639Y0082684D01*
X0108939D01*
X0108945Y0082615D01*
D02*
G37*
G36*
X0108165Y0080314D02*
X0108078Y008038D01*
X0107908Y0080491D01*
X0107824Y0080537D01*
X0107741Y0080575D01*
X0107658Y0080606D01*
X0107577Y0080631D01*
X0107497Y0080648D01*
X0107418Y0080659D01*
X0107339Y0080662D01*
Y0080962D01*
X0107407Y0080967D01*
X0107472Y008098D01*
X0107532Y0081003D01*
X0107588Y0081034D01*
X010764Y0081075D01*
X0107688Y0081124D01*
X0107732Y0081183D01*
X0107773Y008125D01*
X0107809Y0081327D01*
X0107841Y0081412D01*
X0108165Y0080314D01*
D02*
G37*
G36*
X0104236Y0066545D02*
X0104176Y0066603D01*
X010406Y0066701D01*
X0104003Y006674D01*
X0103947Y0066774D01*
X0103891Y0066801D01*
X0103837Y0066823D01*
X0103783Y0066838D01*
X010373Y0066847D01*
X0103678Y006685D01*
Y006715D01*
X010373Y0067153D01*
X0103783Y0067162D01*
X0103837Y0067177D01*
X0103891Y0067199D01*
X0103947Y0067226D01*
X0104003Y006726D01*
X010406Y0067299D01*
X0104118Y0067345D01*
X0104176Y0067397D01*
X0104236Y0067455D01*
Y0066545D01*
D02*
G37*
G36*
X0093774Y0067397D02*
X009389Y0067299D01*
X0093947Y006726D01*
X0094003Y0067226D01*
X0094059Y0067199D01*
X0094113Y0067177D01*
X0094167Y0067162D01*
X009422Y0067153D01*
X0094272Y006715D01*
Y006685D01*
X009422Y0066847D01*
X0094167Y0066838D01*
X0094113Y0066823D01*
X0094059Y0066801D01*
X0094003Y0066774D01*
X0093947Y006674D01*
X009389Y0066701D01*
X0093832Y0066655D01*
X0093774Y0066603D01*
X0093714Y0066545D01*
Y0067455D01*
X0093774Y0067397D01*
D02*
G37*
G36*
X0092786Y0076545D02*
X0092753Y0076574D01*
X0092717Y0076601D01*
X0092677Y0076624D01*
X0092632Y0076644D01*
X0092584Y0076661D01*
X0092532Y0076675D01*
X0092476Y0076686D01*
X0092416Y0076694D01*
X0092351Y0076698D01*
X0092283Y00767D01*
Y00773D01*
X0092351Y0077302D01*
X0092476Y0077314D01*
X0092532Y0077325D01*
X0092584Y0077339D01*
X0092632Y0077356D01*
X0092677Y0077376D01*
X0092717Y0077399D01*
X0092753Y0077426D01*
X0092786Y0077455D01*
Y0076545D01*
D02*
G37*
G36*
X0091747Y0077426D02*
X0091783Y0077399D01*
X0091823Y0077376D01*
X0091868Y0077356D01*
X0091916Y0077339D01*
X0091968Y0077325D01*
X0092024Y0077314D01*
X0092084Y0077306D01*
X0092149Y0077302D01*
X0092217Y00773D01*
Y00767D01*
X0092149Y0076698D01*
X0092024Y0076686D01*
X0091968Y0076675D01*
X0091916Y0076661D01*
X0091868Y0076644D01*
X0091823Y0076624D01*
X0091783Y0076601D01*
X0091747Y0076574D01*
X0091714Y0076545D01*
Y0077455D01*
X0091747Y0077426D01*
D02*
G37*
G36*
X0090786Y0076545D02*
X0090753Y0076574D01*
X0090717Y0076601D01*
X0090677Y0076624D01*
X0090632Y0076644D01*
X0090584Y0076661D01*
X0090532Y0076675D01*
X0090476Y0076686D01*
X0090416Y0076694D01*
X0090351Y0076698D01*
X0090283Y00767D01*
Y00773D01*
X0090351Y0077302D01*
X0090476Y0077314D01*
X0090532Y0077325D01*
X0090584Y0077339D01*
X0090632Y0077356D01*
X0090677Y0077376D01*
X0090717Y0077399D01*
X0090753Y0077426D01*
X0090786Y0077455D01*
Y0076545D01*
D02*
G37*
G36*
X0099287Y0073791D02*
X0099485Y0073625D01*
X0099582Y0073557D01*
X0099677Y00735D01*
X0099771Y0073453D01*
X0099863Y0073417D01*
X0099954Y0073391D01*
X0100043Y0073375D01*
X0100131Y007337D01*
Y007287D01*
X0100043Y0072865D01*
X0099954Y0072849D01*
X0099863Y0072823D01*
X0099771Y0072787D01*
X0099677Y007274D01*
X0099582Y0072683D01*
X0099485Y0072615D01*
X0099386Y0072537D01*
X0099287Y0072449D01*
X0099186Y007235D01*
Y007389D01*
X0099287Y0073791D01*
D02*
G37*
G36*
X0092786Y0072545D02*
X0092753Y0072574D01*
X0092717Y0072601D01*
X0092677Y0072624D01*
X0092632Y0072644D01*
X0092584Y0072661D01*
X0092532Y0072675D01*
X0092476Y0072686D01*
X0092416Y0072694D01*
X0092351Y0072698D01*
X0092283Y00727D01*
Y00733D01*
X0092351Y0073302D01*
X0092476Y0073314D01*
X0092532Y0073325D01*
X0092584Y0073339D01*
X0092632Y0073356D01*
X0092677Y0073376D01*
X0092717Y0073399D01*
X0092753Y0073426D01*
X0092786Y0073455D01*
Y0072545D01*
D02*
G37*
G36*
X0091747Y0073426D02*
X0091783Y0073399D01*
X0091823Y0073376D01*
X0091868Y0073356D01*
X0091916Y0073339D01*
X0091968Y0073325D01*
X0092024Y0073314D01*
X0092084Y0073306D01*
X0092149Y0073302D01*
X0092217Y00733D01*
Y00727D01*
X0092149Y0072698D01*
X0092024Y0072686D01*
X0091968Y0072675D01*
X0091916Y0072661D01*
X0091868Y0072644D01*
X0091823Y0072624D01*
X0091783Y0072601D01*
X0091747Y0072574D01*
X0091714Y0072545D01*
Y0073455D01*
X0091747Y0073426D01*
D02*
G37*
G36*
X0092786Y0070545D02*
X0092753Y0070574D01*
X0092717Y0070601D01*
X0092677Y0070624D01*
X0092632Y0070644D01*
X0092584Y0070661D01*
X0092532Y0070675D01*
X0092476Y0070686D01*
X0092416Y0070694D01*
X0092351Y0070698D01*
X0092283Y00707D01*
Y00713D01*
X0092351Y0071302D01*
X0092476Y0071314D01*
X0092532Y0071325D01*
X0092584Y0071339D01*
X0092632Y0071356D01*
X0092677Y0071376D01*
X0092717Y0071399D01*
X0092753Y0071426D01*
X0092786Y0071455D01*
Y0070545D01*
D02*
G37*
G36*
X0091747Y0071426D02*
X0091783Y0071399D01*
X0091823Y0071376D01*
X0091868Y0071356D01*
X0091916Y0071339D01*
X0091968Y0071325D01*
X0092024Y0071314D01*
X0092084Y0071306D01*
X0092149Y0071302D01*
X0092217Y00713D01*
Y00707D01*
X0092149Y0070698D01*
X0092024Y0070686D01*
X0091968Y0070675D01*
X0091916Y0070661D01*
X0091868Y0070644D01*
X0091823Y0070624D01*
X0091783Y0070601D01*
X0091747Y0070574D01*
X0091714Y0070545D01*
Y0071455D01*
X0091747Y0071426D01*
D02*
G37*
G36*
X0090786Y0068545D02*
X0090726Y0068603D01*
X009061Y0068701D01*
X0090553Y006874D01*
X0090497Y0068774D01*
X0090441Y0068801D01*
X0090387Y0068823D01*
X0090333Y0068838D01*
X009028Y0068847D01*
X0090228Y006885D01*
Y006915D01*
X009028Y0069153D01*
X0090333Y0069162D01*
X0090387Y0069177D01*
X0090441Y0069199D01*
X0090497Y0069226D01*
X0090553Y006926D01*
X009061Y0069299D01*
X0090668Y0069345D01*
X0090726Y0069397D01*
X0090786Y0069455D01*
Y0068545D01*
D02*
G37*
G36*
X0093243Y006835D02*
X0093161Y0068349D01*
X0093009Y0068336D01*
X0092941Y0068323D01*
X0092877Y0068307D01*
X0092819Y0068288D01*
X0092765Y0068264D01*
X0092716Y0068237D01*
X0092672Y0068206D01*
X0092633Y0068171D01*
X0092421Y0068383D01*
X0092456Y0068422D01*
X0092487Y0068466D01*
X0092514Y0068515D01*
X0092538Y0068569D01*
X0092557Y0068627D01*
X0092573Y0068691D01*
X0092586Y0068759D01*
X0092594Y0068832D01*
X0092599Y0068911D01*
X00926Y0068993D01*
X0093243Y006835D01*
D02*
G37*
G36*
X0090786Y0066545D02*
X0090726Y0066603D01*
X009061Y0066701D01*
X0090553Y006674D01*
X0090497Y0066774D01*
X0090441Y0066801D01*
X0090387Y0066823D01*
X0090333Y0066838D01*
X009028Y0066847D01*
X0090228Y006685D01*
Y006715D01*
X009028Y0067153D01*
X0090333Y0067162D01*
X0090387Y0067177D01*
X0090441Y0067199D01*
X0090497Y0067226D01*
X0090553Y006726D01*
X009061Y0067299D01*
X0090668Y0067345D01*
X0090726Y0067397D01*
X0090786Y0067455D01*
Y0066545D01*
D02*
G37*
G36*
X0104218Y0064063D02*
X0104166Y0064118D01*
X0104114Y0064167D01*
X0104061Y006421D01*
X0104007Y0064247D01*
X0103953Y0064278D01*
X0103899Y0064304D01*
X0103844Y0064324D01*
X0103789Y0064339D01*
X0103734Y0064347D01*
X0103678Y006435D01*
Y006465D01*
X0103734Y0064653D01*
X0103789Y0064661D01*
X0103844Y0064676D01*
X0103899Y0064696D01*
X0103953Y0064722D01*
X0104007Y0064753D01*
X0104061Y006479D01*
X0104114Y0064833D01*
X0104166Y0064882D01*
X0104218Y0064937D01*
Y0064063D01*
D02*
G37*
G36*
X0093647Y0064476D02*
X0093549Y006436D01*
X009351Y0064303D01*
X0093476Y0064247D01*
X0093449Y0064191D01*
X0093427Y0064137D01*
X0093412Y0064083D01*
X0093403Y006403D01*
X00934Y0063978D01*
X00931D01*
X0093097Y006403D01*
X0093088Y0064083D01*
X0093073Y0064137D01*
X0093051Y0064191D01*
X0093024Y0064247D01*
X009299Y0064303D01*
X0092951Y006436D01*
X0092905Y0064418D01*
X0092853Y0064476D01*
X0092795Y0064536D01*
X0093705D01*
X0093647Y0064476D01*
D02*
G37*
D16*
X0106526Y0067D02*
X0108D01*
X0106527Y0067042D02*
Y008D01*
X0107339Y0080812D01*
X0108506D01*
X0108789Y0081095D01*
Y0087595D01*
X0106526Y006704D02*
X0106527Y0067042D01*
X01047Y00645D02*
X0108D01*
X0103676D02*
X01047D01*
Y0067D02*
X0108D01*
X01035Y0062D02*
Y0064324D01*
X0103676Y00645D01*
X0102851Y0061351D02*
X01035Y0062D01*
Y0067D02*
X01047D01*
X0081679Y0069D02*
X009125D01*
X0078965Y0066285D02*
X0081679Y0069D01*
X0094649Y0061351D02*
X0102851D01*
X009325Y006275D02*
X0094649Y0061351D01*
X009325Y006275D02*
Y0065D01*
X0095Y0064D02*
X0096Y0063D01*
X0101764D02*
X01026Y0063836D01*
X0096Y0063D02*
X0101764D01*
X0095Y0064D02*
Y0066649D01*
X01026Y0063836D02*
Y00661D01*
X009325Y0067D02*
X0094649D01*
X0095Y0066649D01*
X01026Y00661D02*
X01035Y0067D01*
X008375Y00615D02*
X008525Y0063D01*
Y006525D02*
X0088Y0068D01*
X008525Y0063D02*
Y006525D01*
X0088Y0068D02*
X0091664D01*
X008375Y00615D02*
X0084965Y0060285D01*
X0082535Y0062715D02*
X008375Y00615D01*
X009225Y0068D02*
X009325Y0069D01*
X0091664Y0068D02*
X009225D01*
X0091664Y0068D02*
X0091664Y0068D01*
X00895Y006675D02*
X008975Y0067D01*
X00895Y0057679D02*
Y006675D01*
X008975Y0067D02*
X009125D01*
X0088535Y0056715D02*
Y0056715D01*
X00895Y0057679D01*
X0078965Y0066285D02*
X0078965D01*
D17*
X0081Y008D02*
X0084Y0077D01*
Y0072051D02*
Y0077D01*
X0081Y008D02*
Y009D01*
X0083021Y0092021D01*
X009751D01*
X0084351Y00717D02*
X0087D01*
X0084Y0072051D02*
X0084351Y00717D01*
X0085335Y0088159D02*
Y0089649D01*
X0085686Y009D01*
X0095D01*
X00984Y00866D01*
X0087835Y0085D02*
Y0088159D01*
Y0082159D02*
Y0085D01*
X009125D01*
X0083186Y008D02*
X0088835D01*
X0082835Y0080351D02*
Y0082159D01*
Y0080351D02*
X0083186Y008D01*
X0091116Y0080866D02*
X009125Y0081D01*
X0089701Y0080866D02*
X0091116D01*
X0088835Y008D02*
X0089701Y0080866D01*
X0091061Y0081D02*
X009125D01*
X00912Y007705D02*
X009125Y0077D01*
X0082835Y0082159D02*
Y0088159D01*
X0085335Y0082159D02*
Y0088159D01*
X00984Y008455D02*
Y00866D01*
X009325Y0083D02*
X009614D01*
X00984Y008074D01*
X0089351Y0077D02*
X009125D01*
X0089Y0072051D02*
Y0076649D01*
X0087Y00717D02*
X0088649D01*
X0089Y0072051D01*
Y0076649D02*
X0089351Y0077D01*
X00877Y0079D02*
X009125D01*
X0087Y00763D02*
Y00783D01*
X00877Y0079D01*
X0087Y00763D02*
X00877Y0077D01*
X009325Y0079D02*
X009633D01*
X00984Y007693D01*
X009325Y0073D02*
X0093384Y0072866D01*
X009125Y0071D02*
X009325D01*
X009125Y0085D02*
X009325D01*
X009125Y0083D02*
X009325D01*
X009125Y0081D02*
X009325D01*
X009125Y0079D02*
X009325D01*
X009125Y0073D02*
X009325D01*
X009125Y0077D02*
X009325D01*
D18*
X01115Y0067D02*
D03*
X00785Y0083D02*
D03*
D19*
X0104289Y0081095D02*
D03*
X0108789D02*
D03*
X0104289Y0087595D02*
D03*
X0108789D02*
D03*
D20*
X009325Y0085D02*
D03*
Y0083D02*
D03*
Y0081D02*
D03*
Y0079D02*
D03*
Y0077D02*
D03*
Y0075D02*
D03*
Y0073D02*
D03*
Y0071D02*
D03*
Y0069D02*
D03*
Y0067D02*
D03*
Y0065D02*
D03*
X009125Y0081D02*
D03*
Y0083D02*
D03*
Y0085D02*
D03*
Y0073D02*
D03*
Y0075D02*
D03*
Y0077D02*
D03*
Y0079D02*
D03*
Y0065D02*
D03*
Y0067D02*
D03*
Y0069D02*
D03*
Y0071D02*
D03*
X01047Y0067D02*
D03*
Y00645D02*
D03*
Y0062D02*
D03*
X0108Y0067D02*
D03*
Y00645D02*
D03*
Y0062D02*
D03*
D21*
X00984Y00655D02*
D03*
Y006931D02*
D03*
Y007312D02*
D03*
Y007693D02*
D03*
Y008074D02*
D03*
Y008455D02*
D03*
D22*
X008075Y00645D02*
D03*
X008675Y00585D02*
D03*
D23*
X01115Y0075D02*
D03*
X00785D02*
D03*
D24*
X0082835Y0082159D02*
D03*
X0085335D02*
D03*
X0087835D02*
D03*
Y0088159D02*
D03*
X0085335D02*
D03*
X0082835D02*
D03*
D25*
X0087Y00717D02*
D03*
Y00763D02*
D03*
D26*
X0082535Y0062715D02*
D03*
X0078965Y0066285D02*
D03*
X0088535Y0056715D02*
D03*
X0084965Y0060285D02*
D03*
D27*
X010201Y0092021D02*
D03*
X009751D02*
D03*
D28*
X00984Y007312D02*
X0101D01*
X010201Y007413D02*
Y0092021D01*
X0101Y007312D02*
X010201Y007413D01*
M02*
