M48
;Layer_Color=9474304
;FILE_FORMAT=4:3
METRIC,LZ
;TYPE=PLATED
T1F00S00C0.800
T2F00S00C0.900
T3F00S00C1.200
T4F00S00C1.400
T5F00S00C2.000
T6F00S00C4.200
;TYPE=NON_PLATED
T7F00S00C2.250
%
T01
X009125Y0065
X009325
Y0067
Y0069
Y0071
Y0073
Y0075
Y0077
X009125
Y0075
Y0073
Y0071
Y0069
Y0067
T02
X01047Y0062
Y00645
Y0067
X0108
Y00645
Y0062
X009325Y0079
X009125
Y0081
Y0083
X009325
Y0081
Y0085
X009125
T03
X0104289Y0081095
X0108789
Y0087595
X0104289
T04
X00984Y00655
Y006931
Y007312
Y007693
Y008074
Y008455
T05
X01115Y0067
X00785Y0083
T06
X01115Y0075
X00785
T07
X008075Y00645
X008675Y00585
M30
