G04*
G04 #@! TF.GenerationSoftware,Altium Limited,Altium Designer,20.1.8 (145)*
G04*
G04 Layer_Color=32896*
%FSTAX43Y43*%
%MOMM*%
G71*
G04*
G04 #@! TF.SameCoordinates,C49A0B41-0C8C-4AB0-A7A6-883BC44C46A5*
G04*
G04*
G04 #@! TF.FilePolarity,Positive*
G04*
G01*
G75*
%ADD10C,0.150*%
%ADD11C,0.250*%
%ADD16C,0.100*%
%ADD17C,0.200*%
%ADD97C,0.700*%
G36*
X0074967Y0043295D02*
X0074979Y0043289D01*
X0074988Y0043282D01*
X0074993Y0043272D01*
X0074997Y0043263D01*
X0074999Y0043256D01*
X0075Y004325D01*
Y0043248D01*
Y004255D01*
X0074997Y0042533D01*
X0074992Y0042521D01*
X0074983Y0042512D01*
X0074974Y0042507D01*
X0074965Y0042503D01*
X0074957Y0042501D01*
X0074951Y00425D01*
X0074949D01*
X0074932Y0042503D01*
X007492Y0042508D01*
X007491Y0042515D01*
X0074904Y0042525D01*
X00749Y0042535D01*
X0074899Y0042542D01*
X0074897Y0042547D01*
Y004255D01*
Y0042809D01*
X007475D01*
X007461Y0042528D01*
X0074603Y0042518D01*
X0074596Y0042511D01*
X0074588Y0042507D01*
X0074581Y0042504D01*
X0074574Y0042501D01*
X0074569Y00425D01*
X0074563D01*
X0074556Y0042501D01*
X0074549Y0042503D01*
X0074537Y0042508D01*
X007453Y0042512D01*
X0074527Y0042515D01*
X0074522Y0042521D01*
X0074517Y0042528D01*
X0074512Y0042539D01*
X007451Y0042547D01*
Y0042549D01*
Y004255D01*
X0074512Y0042558D01*
X0074513Y0042565D01*
X0074516Y0042571D01*
X0074517Y0042572D01*
X0074652Y0042831D01*
X0074627Y0042843D01*
X0074605Y0042856D01*
X0074587Y0042872D01*
X007457Y0042888D01*
X0074556Y0042906D01*
X0074545Y0042926D01*
X0074535Y0042944D01*
X0074528Y0042963D01*
X0074523Y0042981D01*
X0074517Y0042998D01*
X0074515Y0043013D01*
X0074513Y0043027D01*
X0074512Y0043038D01*
X007451Y0043046D01*
Y0043052D01*
Y0043053D01*
X0074512Y0043071D01*
X0074513Y0043089D01*
X0074522Y0043123D01*
X0074533Y0043152D01*
X0074547Y0043177D01*
X007456Y0043198D01*
X0074566Y0043206D01*
X0074571Y0043213D01*
X0074576Y0043218D01*
X007458Y0043223D01*
X0074581Y0043224D01*
X0074583Y0043225D01*
X0074596Y0043238D01*
X007461Y0043249D01*
X0074624Y0043259D01*
X0074639Y0043267D01*
X0074669Y0043279D01*
X0074696Y0043289D01*
X007472Y0043293D01*
X007473Y0043295D01*
X0074739Y0043296D01*
X0074746Y0043297D01*
X007495D01*
X0074967Y0043295D01*
D02*
G37*
G36*
X0074193D02*
X0074222Y0043288D01*
X0074246Y0043278D01*
X0074268Y0043267D01*
X0074284Y0043256D01*
X0074297Y0043246D01*
X0074305Y0043239D01*
X0074307Y0043238D01*
X0074308Y0043236D01*
X0074319Y0043225D01*
X0074327Y0043213D01*
X0074343Y0043189D01*
X0074352Y0043164D01*
X0074361Y0043142D01*
X0074365Y0043123D01*
X0074366Y0043106D01*
X0074368Y00431D01*
Y0043096D01*
Y0043094D01*
Y0043092D01*
X0074366Y004307D01*
X0074363Y0043048D01*
X0074358Y0043028D01*
X007435Y004301D01*
X0074341Y0042994D01*
X0074333Y0042978D01*
X0074322Y0042966D01*
X0074312Y0042953D01*
X0074302Y0042942D01*
X0074291Y0042934D01*
X0074283Y0042926D01*
X0074273Y004292D01*
X0074266Y0042915D01*
X0074261Y0042912D01*
X0074258Y0042911D01*
X0074257Y0042909D01*
X0074025Y0042797D01*
X007401Y0042784D01*
X0073999Y004277D01*
X0073992Y0042755D01*
X0073986Y004274D01*
X0073983Y0042726D01*
X0073981Y0042715D01*
Y0042708D01*
Y0042707D01*
Y0042705D01*
X0073982Y004269D01*
X0073986Y0042676D01*
X007399Y0042664D01*
X0073996Y0042653D01*
X0074003Y0042644D01*
X0074007Y0042637D01*
X0074011Y0042633D01*
X0074013Y0042632D01*
X0074025Y0042622D01*
X0074036Y0042614D01*
X0074049Y0042608D01*
X007406Y0042605D01*
X0074069Y0042603D01*
X0074078Y0042601D01*
X0074104D01*
X0074124Y0042604D01*
X007414Y0042605D01*
X0074154Y0042608D01*
X0074167Y0042611D01*
X0074175Y0042612D01*
X0074182Y0042615D01*
X0074183D01*
X0074208Y0042628D01*
X007423Y0042637D01*
X0074248Y0042647D01*
X0074264Y0042655D01*
X0074276Y0042662D01*
X0074284Y0042666D01*
X007429Y0042669D01*
X0074291Y0042671D01*
X0074301Y0042675D01*
X0074309Y0042676D01*
X0074315Y0042678D01*
X0074325D01*
X0074332Y0042675D01*
X0074344Y0042671D01*
X0074351Y0042665D01*
X0074352Y0042664D01*
X0074354Y0042662D01*
X0074362Y0042651D01*
X0074366Y004264D01*
X0074368Y0042632D01*
Y0042629D01*
Y0042628D01*
X0074366Y0042619D01*
X0074365Y0042611D01*
X0074357Y0042597D01*
X007435Y0042589D01*
X0074348Y0042587D01*
X0074347Y0042586D01*
X0074325Y0042571D01*
X0074302Y0042558D01*
X007428Y0042546D01*
X0074257Y0042536D01*
X0074234Y0042528D01*
X0074214Y0042521D01*
X0074172Y0042511D01*
X0074154Y0042507D01*
X0074137Y0042504D01*
X0074122Y0042503D01*
X007411Y0042501D01*
X0074099Y00425D01*
X0074085D01*
X0074069Y0042501D01*
X0074054Y0042503D01*
X0074026Y004251D01*
X0074001Y0042519D01*
X0073981Y0042531D01*
X0073963Y004254D01*
X007395Y004255D01*
X0073942Y0042557D01*
X0073939Y004256D01*
X0073928Y0042571D01*
X0073918Y0042583D01*
X0073904Y0042608D01*
X0073893Y0042633D01*
X0073885Y0042655D01*
X0073881Y0042675D01*
X0073879Y0042691D01*
X0073878Y0042697D01*
Y0042701D01*
Y0042704D01*
Y0042705D01*
X0073879Y0042727D01*
X0073882Y0042748D01*
X0073889Y0042768D01*
X0073896Y0042786D01*
X0073904Y0042802D01*
X0073914Y0042818D01*
X0073924Y004283D01*
X0073935Y0042843D01*
X0073946Y0042852D01*
X0073956Y0042862D01*
X0073965Y004287D01*
X0073974Y0042876D01*
X0073981Y0042881D01*
X0073986Y0042884D01*
X007399Y0042887D01*
X0073992D01*
X007421Y0042999D01*
X0074228Y0043012D01*
X0074241Y0043026D01*
X0074251Y0043041D01*
X0074258Y0043056D01*
X0074262Y004307D01*
X0074264Y0043081D01*
X0074265Y0043089D01*
Y0043091D01*
Y0043092D01*
X0074264Y0043107D01*
X0074261Y0043121D01*
X0074255Y0043134D01*
X007425Y0043145D01*
X0074246Y0043153D01*
X007424Y004316D01*
X0074237Y0043164D01*
X0074236Y0043166D01*
X0074223Y0043175D01*
X0074211Y0043184D01*
X00742Y0043189D01*
X0074187Y0043192D01*
X0074178Y0043195D01*
X0074169Y0043196D01*
X0074162D01*
X007413Y0043195D01*
X00741Y0043191D01*
X0074071Y0043185D01*
X0074044Y004318D01*
X0074022Y0043173D01*
X0074013Y004317D01*
X0074006Y0043167D01*
X0073999Y0043164D01*
X0073995Y0043163D01*
X0073992Y0043162D01*
X007399D01*
X0073982Y0043159D01*
X0073975Y0043157D01*
X0073971Y0043156D01*
X007397D01*
X0073961Y0043157D01*
X0073954Y0043159D01*
X0073943Y0043164D01*
X0073936Y0043168D01*
X0073934Y0043171D01*
X0073928Y0043177D01*
X0073925Y0043184D01*
X007392Y0043195D01*
X0073918Y0043205D01*
Y0043206D01*
Y0043207D01*
X007392Y0043217D01*
X0073922Y0043227D01*
X0073932Y0043241D01*
X0073938Y0043246D01*
X0073943Y004325D01*
X0073946Y0043252D01*
X0073947Y0043253D01*
X0073963Y0043261D01*
X0073978Y0043268D01*
X0074013Y0043279D01*
X0074049Y0043286D01*
X0074083Y0043292D01*
X0074099Y0043293D01*
X0074114Y0043295D01*
X0074128Y0043296D01*
X0074139Y0043297D01*
X0074178D01*
X0074193Y0043295D01*
D02*
G37*
G36*
X0073702D02*
X0073714Y0043289D01*
X0073723Y0043282D01*
X0073728Y0043272D01*
X0073732Y0043263D01*
X0073734Y0043256D01*
X0073735Y004325D01*
Y0043248D01*
X0073732Y0043231D01*
X0073727Y0043218D01*
X007372Y0043209D01*
X007371Y0043203D01*
X0073701Y0043199D01*
X0073694Y0043198D01*
X0073688Y0043196D01*
X0073542D01*
Y004255D01*
X007354Y0042533D01*
X0073534Y0042521D01*
X0073526Y0042512D01*
X0073516Y0042507D01*
X0073508Y0042503D01*
X0073499Y0042501D01*
X0073494Y00425D01*
X0073491D01*
X0073474Y0042503D01*
X0073462Y0042508D01*
X0073452Y0042515D01*
X0073447Y0042525D01*
X0073443Y0042535D01*
X0073441Y0042542D01*
X007344Y0042547D01*
Y004255D01*
Y0043196D01*
X0073298D01*
X0073282Y0043199D01*
X0073269Y0043205D01*
X007326Y0043213D01*
X0073254Y0043223D01*
X007325Y0043231D01*
X0073248Y0043239D01*
X0073247Y0043245D01*
Y0043248D01*
X007325Y0043264D01*
X0073255Y0043277D01*
X0073264Y0043285D01*
X0073272Y0043292D01*
X0073282Y0043295D01*
X007329Y0043296D01*
X0073296Y0043297D01*
X0073685D01*
X0073702Y0043295D01*
D02*
G37*
%LPC*%
G36*
X0074897Y0043196D02*
X0074756D01*
X0074734Y0043195D01*
X0074714Y0043189D01*
X0074698Y0043184D01*
X0074682Y0043175D01*
X0074671Y0043168D01*
X0074662Y0043162D01*
X0074656Y0043156D01*
X0074655Y0043155D01*
X0074641Y0043138D01*
X0074631Y0043121D01*
X0074623Y0043105D01*
X0074619Y0043088D01*
X0074616Y0043074D01*
X0074613Y0043063D01*
Y0043056D01*
Y0043055D01*
Y0043053D01*
X0074614Y0043031D01*
X007462Y0043012D01*
X0074626Y0042994D01*
X0074634Y004298D01*
X0074641Y0042967D01*
X0074648Y0042958D01*
X0074653Y0042952D01*
X0074655Y0042951D01*
X0074671Y0042937D01*
X0074688Y0042927D01*
X0074705Y004292D01*
X0074721Y0042916D01*
X0074735Y0042913D01*
X0074746Y0042911D01*
X0074897D01*
Y0043196D01*
D02*
G37*
%LPD*%
D10*
X0075989Y0043489D02*
G03*
X0076Y00435I0J0000011D01*
G01*
D02*
G03*
X00765Y0044I0J00005D01*
G01*
Y0045D02*
G03*
X0076Y00455I-00005J0D01*
G01*
X00725D02*
G03*
X0072Y0045I0J-00005D01*
G01*
Y0043989D02*
G03*
X00725Y0043489I00005J0D01*
G01*
X00765Y0044D02*
Y0045D01*
X00725Y00455D02*
X0076D01*
X0072Y0043989D02*
Y0045D01*
X00725Y0043489D02*
X0075989D01*
X00738Y002945D02*
Y003155D01*
X00742Y002945D02*
Y003155D01*
X00738Y002945D02*
X00742D01*
X00738Y003155D02*
X00742D01*
X0073362Y0028D02*
X0074562D01*
X0073362Y0029D02*
X0074562D01*
X0072787Y0028375D02*
Y0028625D01*
X00617Y00607D02*
Y00628D01*
X00613Y00607D02*
Y00628D01*
X00617D01*
X00613Y00607D02*
X00617D01*
X006075Y0059325D02*
Y006015D01*
X0061425Y0059325D02*
X0062175D01*
X006145Y0060175D02*
X00622D01*
X0090575Y006495D02*
Y00657D01*
X0091425Y0064925D02*
Y0065675D01*
X00906Y006425D02*
X0091425D01*
X00736Y004925D02*
X007485D01*
X00736D02*
Y00505D01*
X00861Y004925D02*
Y00505D01*
X008485Y004925D02*
X00861D01*
X008485Y006175D02*
X00861D01*
Y00605D02*
Y006175D01*
X0081675Y00638D02*
X0082325D01*
X0081675Y00626D02*
X0082325D01*
X009435Y006825D02*
Y006785D01*
X009415Y006765D01*
X009395Y006785D01*
Y006825D01*
X009375D02*
Y006765D01*
X009345D01*
X009335Y006775D01*
Y006815D01*
X009345Y006825D01*
X009375D01*
X009315D02*
Y006765D01*
X009285D01*
X0092751Y006775D01*
Y006815D01*
X009285Y006825D01*
X009315D01*
X008945Y006665D02*
X008955Y006675D01*
X008975D01*
X008985Y006665D01*
Y006625D01*
X008975Y006615D01*
X008955D01*
X008945Y006625D01*
Y006645D01*
X008965D01*
X008925Y006615D02*
Y006675D01*
X008885Y006615D01*
Y006675D01*
X008865D02*
Y006615D01*
X008835D01*
X0088251Y006625D01*
Y006665D01*
X008835Y006675D01*
X008865D01*
X009435Y006965D02*
Y007005D01*
X009405D01*
X009395Y006995D01*
Y006965D01*
X009375D02*
Y007025D01*
X009345D01*
X009335Y007015D01*
Y006995D01*
X009345Y006985D01*
X009375D01*
X009355D02*
X009335Y006965D01*
X0092751Y007015D02*
X009285Y007025D01*
X009305D01*
X009315Y007015D01*
Y007005D01*
X009305Y006995D01*
X009285D01*
X0092751Y006985D01*
Y006975D01*
X009285Y006965D01*
X009305D01*
X009315Y006975D01*
X0092551Y007025D02*
X0092151D01*
X0092351D01*
Y006965D01*
X008495Y006815D02*
X008505Y006825D01*
X008525D01*
X008535Y006815D01*
Y006805D01*
X008525Y006795D01*
X008505D01*
X008495Y006785D01*
Y006775D01*
X008505Y006765D01*
X008525D01*
X008535Y006775D01*
X008475Y006825D02*
Y006765D01*
X008455Y006785D01*
X008435Y006765D01*
Y006825D01*
X0083751Y006815D02*
X008385Y006825D01*
X008405D01*
X008415Y006815D01*
Y006775D01*
X008405Y006765D01*
X008385D01*
X0083751Y006775D01*
X0083551Y006825D02*
Y006765D01*
X0083151D01*
X0082951Y006825D02*
Y006765D01*
Y006785D01*
X0082551Y006825D01*
X0082851Y006795D01*
X0082551Y006765D01*
X008495Y007015D02*
X008505Y007025D01*
X008525D01*
X008535Y007015D01*
Y007005D01*
X008525Y006995D01*
X008505D01*
X008495Y006985D01*
Y006975D01*
X008505Y006965D01*
X008525D01*
X008535Y006975D01*
X008475Y007025D02*
Y006965D01*
X008455Y006985D01*
X008435Y006965D01*
Y007025D01*
X008415D02*
Y006965D01*
X008385D01*
X0083751Y006975D01*
Y007015D01*
X008385Y007025D01*
X008415D01*
X0083551D02*
X0083351D01*
X0083451D01*
Y006965D01*
X0083551D01*
X0083351D01*
X0082751Y007025D02*
X0082951D01*
X0083051Y007015D01*
Y006975D01*
X0082951Y006965D01*
X0082751D01*
X0082651Y006975D01*
Y007015D01*
X0082751Y007025D01*
X00747Y003255D02*
Y003215D01*
X00745Y003195D01*
X00743Y003215D01*
Y003255D01*
X00741D02*
X00737D01*
X00739D01*
Y003195D01*
X00735D02*
X00733D01*
X00734D01*
Y003255D01*
X00735Y003245D01*
X007455Y002755D02*
Y002715D01*
X007435Y002695D01*
X007415Y002715D01*
Y002755D01*
X007395D02*
Y002695D01*
X007365D01*
X007355Y002705D01*
Y002745D01*
X007365Y002755D01*
X007395D01*
X007305Y002695D02*
Y002755D01*
X007335Y002725D01*
X007295D01*
X007885Y002895D02*
Y002955D01*
X007855D01*
X007845Y002945D01*
Y002925D01*
X007855Y002915D01*
X007885D01*
X007865D02*
X007845Y002895D01*
X007825D02*
X007805D01*
X007815D01*
Y002955D01*
X007825Y002945D01*
X007775D02*
X007765Y002955D01*
X007745D01*
X007735Y002945D01*
Y002935D01*
X007745Y002925D01*
X007735Y002915D01*
Y002905D01*
X007745Y002895D01*
X007765D01*
X007775Y002905D01*
Y002915D01*
X007765Y002925D01*
X007775Y002935D01*
Y002945D01*
X007765Y002925D02*
X007745D01*
X006255Y00588D02*
Y00584D01*
X006235Y00582D01*
X006215Y00584D01*
Y00588D01*
X006195D02*
Y00582D01*
X006165D01*
X006155Y00583D01*
Y00587D01*
X006165Y00588D01*
X006195D01*
X006135Y00587D02*
X006125Y00588D01*
X006105D01*
X006095Y00587D01*
Y00586D01*
X006105Y00585D01*
X006115D01*
X006105D01*
X006095Y00584D01*
Y00583D01*
X006105Y00582D01*
X006125D01*
X006135Y00583D01*
X00622Y00643D02*
Y00637D01*
X00619D01*
X00618Y00638D01*
Y00642D01*
X00619Y00643D01*
X00622D01*
X00616Y00637D02*
Y00641D01*
X00614Y00643D01*
X00612Y00641D01*
Y00637D01*
Y0064D01*
X00616D01*
X0061Y00637D02*
X00608D01*
X00609D01*
Y00643D01*
X0061Y00642D01*
X00649D02*
X0065Y00643D01*
X00652D01*
X00653Y00642D01*
Y00638D01*
X00652Y00637D01*
X0065D01*
X00649Y00638D01*
X00643Y00637D02*
X00647D01*
X00643Y00641D01*
Y00642D01*
X00644Y00643D01*
X00646D01*
X00647Y00642D01*
X00637Y00643D02*
X00641D01*
Y0064D01*
X00639Y00641D01*
X00638D01*
X00637Y0064D01*
Y00638D01*
X00638Y00637D01*
X0064D01*
X00641Y00638D01*
X00883Y00613D02*
Y00607D01*
X0088D01*
X00879Y00608D01*
Y00612D01*
X0088Y00613D01*
X00883D01*
X00877D02*
Y00607D01*
X00874D01*
X00873Y00608D01*
Y00612D01*
X00874Y00613D01*
X00877D01*
X00871D02*
X00867D01*
Y00612D01*
X00871Y00608D01*
Y00607D01*
X008165Y00382D02*
X008125Y00376D01*
Y00382D02*
X008165Y00376D01*
X008065Y00381D02*
X008075Y00382D01*
X008095D01*
X008105Y00381D01*
Y0038D01*
X008095Y00379D01*
X008075D01*
X008065Y00378D01*
Y00377D01*
X008075Y00376D01*
X008095D01*
X008105Y00377D01*
X008045Y00376D02*
X008025D01*
X008035D01*
Y00382D01*
X008045Y00381D01*
X007965Y00376D02*
Y00382D01*
X007995Y00379D01*
X007955D01*
X00938Y00658D02*
Y00654D01*
X00936Y00652D01*
X00934Y00654D01*
Y00658D01*
X00932D02*
Y00652D01*
X00929D01*
X00928Y00653D01*
Y00657D01*
X00929Y00658D01*
X00932D01*
X00922Y00652D02*
X00926D01*
X00922Y00656D01*
Y00657D01*
X00923Y00658D01*
X00925D01*
X00926Y00657D01*
X0089731Y0054074D02*
X0089331D01*
X0089531D01*
Y0053474D01*
X0089132D02*
Y0054074D01*
X0088832D01*
X0088732Y0053974D01*
Y0053774D01*
X0088832Y0053674D01*
X0089132D01*
X0088532Y0053474D02*
X0088332D01*
X0088432D01*
Y0054074D01*
X0088532Y0053974D01*
X0087732Y0053474D02*
Y0054074D01*
X0088032Y0053774D01*
X0087632D01*
X0089731Y0055574D02*
X0089331D01*
X0089531D01*
Y0054974D01*
X0089132D02*
Y0055574D01*
X0088832D01*
X0088732Y0055474D01*
Y0055274D01*
X0088832Y0055174D01*
X0089132D01*
X0088532Y0054974D02*
X0088332D01*
X0088432D01*
Y0055574D01*
X0088532Y0055474D01*
X0088032D02*
X0087932Y0055574D01*
X0087732D01*
X0087632Y0055474D01*
Y0055374D01*
X0087732Y0055274D01*
X0087832D01*
X0087732D01*
X0087632Y0055174D01*
Y0055074D01*
X0087732Y0054974D01*
X0087932D01*
X0088032Y0055074D01*
X007005Y00578D02*
X006965D01*
X006985D01*
Y00572D01*
X006945D02*
Y00578D01*
X006915D01*
X006905Y00577D01*
Y00575D01*
X006915Y00574D01*
X006945D01*
X006885Y00572D02*
X006865D01*
X006875D01*
Y00578D01*
X006885Y00577D01*
X006795Y00572D02*
X006835D01*
X006795Y00576D01*
Y00577D01*
X006805Y00578D01*
X006825D01*
X006835Y00577D01*
X006995Y00593D02*
X006955D01*
X006975D01*
Y00587D01*
X006935D02*
Y00593D01*
X006905D01*
X006895Y00592D01*
Y0059D01*
X006905Y00589D01*
X006935D01*
X006875Y00587D02*
X006855D01*
X006865D01*
Y00593D01*
X006875Y00592D01*
X006825Y00587D02*
X006805D01*
X006815D01*
Y00593D01*
X006825Y00592D01*
X007005Y00608D02*
X006965D01*
X006985D01*
Y00602D01*
X006945D02*
Y00608D01*
X006915D01*
X006905Y00607D01*
Y00605D01*
X006915Y00604D01*
X006945D01*
X006885Y00602D02*
X006865D01*
X006875D01*
Y00608D01*
X006885Y00607D01*
X006835D02*
X006825Y00608D01*
X006805D01*
X006795Y00607D01*
Y00603D01*
X006805Y00602D01*
X006825D01*
X006835Y00603D01*
Y00607D01*
X0089484Y0064836D02*
X0089084D01*
X0089284D01*
Y0064237D01*
X0088884D02*
Y0064836D01*
X0088584D01*
X0088485Y0064736D01*
Y0064536D01*
X0088584Y0064437D01*
X0088884D01*
X0088285Y0064337D02*
X0088185Y0064237D01*
X0087985D01*
X0087885Y0064337D01*
Y0064736D01*
X0087985Y0064836D01*
X0088185D01*
X0088285Y0064736D01*
Y0064636D01*
X0088185Y0064536D01*
X0087885D01*
X007071Y0062538D02*
X007031D01*
X007051D01*
Y0061938D01*
X007011D02*
Y0062538D01*
X0069811D01*
X0069711Y0062438D01*
Y0062238D01*
X0069811Y0062138D01*
X007011D01*
X0069511Y0062438D02*
X0069411Y0062538D01*
X0069211D01*
X0069111Y0062438D01*
Y0062338D01*
X0069211Y0062238D01*
X0069111Y0062138D01*
Y0062038D01*
X0069211Y0061938D01*
X0069411D01*
X0069511Y0062038D01*
Y0062138D01*
X0069411Y0062238D01*
X0069511Y0062338D01*
Y0062438D01*
X0069411Y0062238D02*
X0069211D01*
X00703Y00493D02*
X00699D01*
X00701D01*
Y00487D01*
X00697D02*
Y00493D01*
X00694D01*
X00693Y00492D01*
Y0049D01*
X00694Y00489D01*
X00697D01*
X00691Y00493D02*
X00687D01*
Y00492D01*
X00691Y00488D01*
Y00487D01*
X00703Y00508D02*
X00699D01*
X00701D01*
Y00502D01*
X00697D02*
Y00508D01*
X00694D01*
X00693Y00507D01*
Y00505D01*
X00694Y00504D01*
X00697D01*
X00687Y00508D02*
X00689Y00507D01*
X00691Y00505D01*
Y00503D01*
X0069Y00502D01*
X00688D01*
X00687Y00503D01*
Y00504D01*
X00688Y00505D01*
X00691D01*
X00848Y00458D02*
X00844D01*
X00846D01*
Y00452D01*
X00842D02*
Y00458D01*
X00839D01*
X00838Y00457D01*
Y00455D01*
X00839Y00454D01*
X00842D01*
X00832Y00458D02*
X00836D01*
Y00455D01*
X00834Y00456D01*
X00833D01*
X00832Y00455D01*
Y00453D01*
X00833Y00452D01*
X00835D01*
X00836Y00453D01*
X00873Y00458D02*
X00869D01*
X00871D01*
Y00452D01*
X00867D02*
Y00458D01*
X00864D01*
X00863Y00457D01*
Y00455D01*
X00864Y00454D01*
X00867D01*
X00858Y00452D02*
Y00458D01*
X00861Y00455D01*
X00857D01*
X00898Y00458D02*
X00894D01*
X00896D01*
Y00452D01*
X00892D02*
Y00458D01*
X00889D01*
X00888Y00457D01*
Y00455D01*
X00889Y00454D01*
X00892D01*
X00886Y00457D02*
X00885Y00458D01*
X00883D01*
X00882Y00457D01*
Y00456D01*
X00883Y00455D01*
X00884D01*
X00883D01*
X00882Y00454D01*
Y00453D01*
X00883Y00452D01*
X00885D01*
X00886Y00453D01*
X00764Y006465D02*
X0077D01*
Y006495D01*
X00769Y006505D01*
X00767D01*
X00766Y006495D01*
Y006465D01*
Y006485D02*
X00764Y006505D01*
Y006525D02*
Y006545D01*
Y006535D01*
X0077D01*
X00769Y006525D01*
X0077Y006615D02*
Y006575D01*
X00767D01*
X00768Y006595D01*
Y006605D01*
X00767Y006615D01*
X00765D01*
X00764Y006605D01*
Y006585D01*
X00765Y006575D01*
X00755Y006465D02*
X00761D01*
Y006495D01*
X0076Y006505D01*
X00758D01*
X00757Y006495D01*
Y006465D01*
Y006485D02*
X00755Y006505D01*
Y006525D02*
Y006545D01*
Y006535D01*
X00761D01*
X0076Y006525D01*
X00755Y006605D02*
X00761D01*
X00758Y006575D01*
Y006615D01*
X007495Y00461D02*
Y00467D01*
X007465D01*
X007455Y00466D01*
Y00464D01*
X007465Y00463D01*
X007495D01*
X007475D02*
X007455Y00461D01*
X007435D02*
X007415D01*
X007425D01*
Y00467D01*
X007435Y00466D01*
X007385D02*
X007375Y00467D01*
X007355D01*
X007345Y00466D01*
Y00465D01*
X007355Y00464D01*
X007365D01*
X007355D01*
X007345Y00463D01*
Y00462D01*
X007355Y00461D01*
X007375D01*
X007385Y00462D01*
X00849Y00634D02*
Y00628D01*
X00845D01*
X0084D02*
Y00634D01*
X00843Y00631D01*
X00839D01*
X008235Y004555D02*
Y004495D01*
X008195D01*
X008175Y004545D02*
X008165Y004555D01*
X008145D01*
X008135Y004545D01*
Y004535D01*
X008145Y004525D01*
X008155D01*
X008145D01*
X008135Y004515D01*
Y004505D01*
X008145Y004495D01*
X008165D01*
X008175Y004505D01*
X00787Y00651D02*
X00788Y00652D01*
X0079D01*
X00791Y00651D01*
Y00647D01*
X0079Y00646D01*
X00788D01*
X00787Y00647D01*
X00781Y00646D02*
X00785D01*
X00781Y0065D01*
Y00651D01*
X00782Y00652D01*
X00784D01*
X00785Y00651D01*
X00779D02*
X00778Y00652D01*
X00776D01*
X00775Y00651D01*
Y0065D01*
X00776Y00649D01*
X00775Y00648D01*
Y00647D01*
X00776Y00646D01*
X00778D01*
X00779Y00647D01*
Y00648D01*
X00778Y00649D01*
X00779Y0065D01*
Y00651D01*
X00778Y00649D02*
X00776D01*
X00806Y00679D02*
X00807Y0068D01*
X00809D01*
X0081Y00679D01*
Y00675D01*
X00809Y00674D01*
X00807D01*
X00806Y00675D01*
X008Y00674D02*
X00804D01*
X008Y00678D01*
Y00679D01*
X00801Y0068D01*
X00803D01*
X00804Y00679D01*
X00794Y0068D02*
X00796Y00679D01*
X00798Y00677D01*
Y00675D01*
X00797Y00674D01*
X00795D01*
X00794Y00675D01*
Y00676D01*
X00795Y00677D01*
X00798D01*
X00787Y0066D02*
X00788Y00661D01*
X0079D01*
X00791Y0066D01*
Y00656D01*
X0079Y00655D01*
X00788D01*
X00787Y00656D01*
X00781Y00655D02*
X00785D01*
X00781Y00659D01*
Y0066D01*
X00782Y00661D01*
X00784D01*
X00785Y0066D01*
X00776Y00655D02*
Y00661D01*
X00779Y00658D01*
X00775D01*
X00806Y00669D02*
X00807Y0067D01*
X00809D01*
X0081Y00669D01*
Y00665D01*
X00809Y00664D01*
X00807D01*
X00806Y00665D01*
X008Y00664D02*
X00804D01*
X008Y00668D01*
Y00669D01*
X00801Y0067D01*
X00803D01*
X00804Y00669D01*
X00798Y00664D02*
X00796D01*
X00797D01*
Y0067D01*
X00798Y00669D01*
X00835Y004395D02*
X00836Y004405D01*
X00838D01*
X00839Y004395D01*
Y004355D01*
X00838Y004345D01*
X00836D01*
X00835Y004355D01*
X00829Y004345D02*
X00833D01*
X00829Y004385D01*
Y004395D01*
X0083Y004405D01*
X00832D01*
X00833Y004395D01*
X00827D02*
X00826Y004405D01*
X00824D01*
X00823Y004395D01*
Y004355D01*
X00824Y004345D01*
X00826D01*
X00827Y004355D01*
Y004395D01*
X0069218Y0055239D02*
X0069318Y0055139D01*
Y0054939D01*
X0069218Y0054839D01*
X0068818D01*
X0068718Y0054939D01*
Y0055139D01*
X0068818Y0055239D01*
X0068718Y0055439D02*
Y0055639D01*
Y0055539D01*
X0069318D01*
X0069218Y0055439D01*
X0068818Y0055939D02*
X0068718Y0056039D01*
Y0056239D01*
X0068818Y0056339D01*
X0069218D01*
X0069318Y0056239D01*
Y0056039D01*
X0069218Y0055939D01*
X0069118D01*
X0069018Y0056039D01*
Y0056339D01*
X007455Y0066D02*
X007465Y00661D01*
X007485D01*
X007495Y0066D01*
Y00656D01*
X007485Y00655D01*
X007465D01*
X007455Y00656D01*
X007435Y00655D02*
X007415D01*
X007425D01*
Y00661D01*
X007435Y0066D01*
X007385D02*
X007375Y00661D01*
X007355D01*
X007345Y0066D01*
Y00659D01*
X007355Y00658D01*
X007345Y00657D01*
Y00656D01*
X007355Y00655D01*
X007375D01*
X007385Y00656D01*
Y00657D01*
X007375Y00658D01*
X007385Y00659D01*
Y0066D01*
X007375Y00658D02*
X007355D01*
X0070218Y0055239D02*
X0070318Y0055139D01*
Y0054939D01*
X0070218Y0054839D01*
X0069818D01*
X0069718Y0054939D01*
Y0055139D01*
X0069818Y0055239D01*
X0069718Y0055439D02*
Y0055639D01*
Y0055539D01*
X0070318D01*
X0070218Y0055439D01*
X0070318Y0055939D02*
Y0056339D01*
X0070218D01*
X0069818Y0055939D01*
X0069718D01*
X00693Y0052403D02*
X00694Y0052303D01*
Y0052103D01*
X00693Y0052003D01*
X00689D01*
X00688Y0052103D01*
Y0052303D01*
X00689Y0052403D01*
X00688Y0052603D02*
Y0052803D01*
Y0052703D01*
X00694D01*
X00693Y0052603D01*
X00694Y0053502D02*
X00693Y0053302D01*
X00691Y0053102D01*
X00689D01*
X00688Y0053202D01*
Y0053402D01*
X00689Y0053502D01*
X0069D01*
X00691Y0053402D01*
Y0053102D01*
X008245Y00472D02*
X008255Y00473D01*
X008275D01*
X008285Y00472D01*
Y00468D01*
X008275Y00467D01*
X008255D01*
X008245Y00468D01*
X008225Y00467D02*
X008205D01*
X008215D01*
Y00473D01*
X008225Y00472D01*
X008135Y00473D02*
X008175D01*
Y0047D01*
X008155Y00471D01*
X008145D01*
X008135Y0047D01*
Y00468D01*
X008145Y00467D01*
X008165D01*
X008175Y00468D01*
X00702Y0052403D02*
X00703Y0052303D01*
Y0052103D01*
X00702Y0052003D01*
X00698D01*
X00697Y0052103D01*
Y0052303D01*
X00698Y0052403D01*
X00697Y0052603D02*
Y0052803D01*
Y0052703D01*
X00703D01*
X00702Y0052603D01*
X00697Y0053402D02*
X00703D01*
X007Y0053102D01*
Y0053502D01*
X007455Y0065D02*
X007465Y00651D01*
X007485D01*
X007495Y0065D01*
Y00646D01*
X007485Y00645D01*
X007465D01*
X007455Y00646D01*
X007435Y00645D02*
X007415D01*
X007425D01*
Y00651D01*
X007435Y0065D01*
X007385D02*
X007375Y00651D01*
X007355D01*
X007345Y0065D01*
Y00649D01*
X007355Y00648D01*
X007365D01*
X007355D01*
X007345Y00647D01*
Y00646D01*
X007355Y00645D01*
X007375D01*
X007385Y00646D01*
X008305Y00659D02*
X008315Y0066D01*
X008335D01*
X008345Y00659D01*
Y00655D01*
X008335Y00654D01*
X008315D01*
X008305Y00655D01*
X008285Y00654D02*
X008265D01*
X008275D01*
Y0066D01*
X008285Y00659D01*
X008195Y00654D02*
X008235D01*
X008195Y00658D01*
Y00659D01*
X008205Y0066D01*
X008225D01*
X008235Y00659D01*
X007455Y00478D02*
X007465Y00479D01*
X007485D01*
X007495Y00478D01*
Y00474D01*
X007485Y00473D01*
X007465D01*
X007455Y00474D01*
X007435Y00473D02*
X007415D01*
X007425D01*
Y00479D01*
X007435Y00478D01*
X007385Y00473D02*
X007365D01*
X007375D01*
Y00479D01*
X007385Y00478D01*
D11*
X0075075Y00319D02*
G03*
X0075075Y00319I-0000125J0D01*
G01*
X0060675Y006035D02*
G03*
X0060675Y006035I-0000125J0D01*
G01*
D16*
X0077975Y00309D02*
X0078225D01*
X0077975Y00301D02*
X0078225D01*
X006538Y0061447D02*
Y0062046D01*
X0064131Y006145D02*
Y0062048D01*
X0086Y00705D02*
X0092D01*
Y0067D02*
Y00705D01*
X0086Y0067D02*
X0092D01*
X0086D02*
Y00705D01*
X0070898Y0055389D02*
Y0055987D01*
X0072148Y0055386D02*
Y0055985D01*
D17*
X0080325Y0064575D02*
Y0064975D01*
X0080325Y00655D02*
Y00659D01*
X00793Y00627D02*
Y00631D01*
X00793Y00637D02*
Y00641D01*
X00777Y00634D02*
X00781D01*
X00767D02*
X00771D01*
X0082725Y0064575D02*
Y0064975D01*
X00754Y00627D02*
Y00631D01*
X00754Y00637D02*
Y00641D01*
X00714Y0052753D02*
X00718D01*
X00723Y0052753D02*
X00727D01*
X0072318Y0055489D02*
X0072718D01*
X00762Y00474D02*
Y00478D01*
X00762Y00463D02*
Y00467D01*
X00801Y00467D02*
Y00471D01*
X00804Y00453D02*
X00808D01*
X00811Y00435D02*
Y00439D01*
X00784Y0038588D02*
X00828D01*
Y0041713D01*
X00784Y0038588D02*
Y0041713D01*
X0081475D02*
X00828D01*
X00784D02*
X0079725D01*
D97*
X00745Y006115D02*
G03*
X00745Y006115I-00003J0D01*
G01*
M02*
