G04*
G04 #@! TF.GenerationSoftware,Altium Limited,Altium Designer,20.1.8 (145)*
G04*
G04 Layer_Physical_Order=1*
G04 Layer_Color=255*
%FSTAX43Y43*%
%MOMM*%
G71*
G04*
G04 #@! TF.SameCoordinates,C49A0B41-0C8C-4AB0-A7A6-883BC44C46A5*
G04*
G04*
G04 #@! TF.FilePolarity,Positive*
G04*
G01*
G75*
%ADD11C,0.250*%
%ADD17C,0.200*%
%ADD40R,0.450X0.600*%
%ADD41R,0.800X0.900*%
G04:AMPARAMS|DCode=42|XSize=0.9mm|YSize=0.8mm|CornerRadius=0.2mm|HoleSize=0mm|Usage=FLASHONLY|Rotation=90.000|XOffset=0mm|YOffset=0mm|HoleType=Round|Shape=RoundedRectangle|*
%AMROUNDEDRECTD42*
21,1,0.900,0.400,0,0,90.0*
21,1,0.500,0.800,0,0,90.0*
1,1,0.400,0.200,0.250*
1,1,0.400,0.200,-0.250*
1,1,0.400,-0.200,-0.250*
1,1,0.400,-0.200,0.250*
%
%ADD42ROUNDEDRECTD42*%
%ADD43R,1.450X0.900*%
G04:AMPARAMS|DCode=44|XSize=0.6mm|YSize=0.6mm|CornerRadius=0.15mm|HoleSize=0mm|Usage=FLASHONLY|Rotation=0.000|XOffset=0mm|YOffset=0mm|HoleType=Round|Shape=RoundedRectangle|*
%AMROUNDEDRECTD44*
21,1,0.600,0.300,0,0,0.0*
21,1,0.300,0.600,0,0,0.0*
1,1,0.300,0.150,-0.150*
1,1,0.300,-0.150,-0.150*
1,1,0.300,-0.150,0.150*
1,1,0.300,0.150,0.150*
%
%ADD44ROUNDEDRECTD44*%
%ADD45R,0.350X1.000*%
G04:AMPARAMS|DCode=46|XSize=0.9mm|YSize=0.8mm|CornerRadius=0.2mm|HoleSize=0mm|Usage=FLASHONLY|Rotation=0.000|XOffset=0mm|YOffset=0mm|HoleType=Round|Shape=RoundedRectangle|*
%AMROUNDEDRECTD46*
21,1,0.900,0.400,0,0,0.0*
21,1,0.500,0.800,0,0,0.0*
1,1,0.400,0.250,-0.200*
1,1,0.400,-0.250,-0.200*
1,1,0.400,-0.250,0.200*
1,1,0.400,0.250,0.200*
%
%ADD46ROUNDEDRECTD46*%
%ADD47R,2.900X2.900*%
%ADD48O,0.200X0.700*%
%ADD49O,0.700X0.200*%
%ADD50R,0.900X0.800*%
%ADD51R,0.400X0.500*%
%ADD52R,0.760X2.050*%
%ADD53O,2.200X0.600*%
%ADD54R,0.500X0.350*%
%ADD55R,0.850X0.850*%
%ADD56R,2.100X0.760*%
%ADD57R,0.700X0.300*%
%ADD58R,0.600X1.100*%
%ADD59C,0.600*%
%ADD60C,0.300*%
%ADD61C,0.400*%
%ADD62C,1.500*%
%ADD63C,8.000*%
%ADD64C,0.600*%
%ADD65C,0.700*%
G36*
X0076249Y0079661D02*
X007774Y0079493D01*
X007922Y0079242D01*
X0080683Y0078908D01*
X0082125Y0078492D01*
X0083542Y0077996D01*
X0084928Y0077422D01*
X008628Y0076771D01*
X0087594Y0076045D01*
X0088865Y0075246D01*
X0090089Y0074378D01*
X0091262Y0073442D01*
X0092381Y0072442D01*
X0093442Y0071381D01*
X0094442Y0070262D01*
X0095378Y0069089D01*
X0096247Y0067865D01*
X0097045Y0066594D01*
X0097771Y006528D01*
X0098422Y0063928D01*
X0098996Y0062542D01*
X0099492Y0061125D01*
X0099908Y0059683D01*
X0100242Y005822D01*
X0100493Y005674D01*
X0100661Y0055249D01*
X0100745Y005375D01*
Y0053D01*
Y005225D01*
X0100661Y0050751D01*
X0100493Y004926D01*
X0100242Y004778D01*
X0099908Y0046317D01*
X0099492Y0044875D01*
X0098996Y0043458D01*
X0098422Y0042072D01*
X0097771Y004072D01*
X0097045Y0039406D01*
X0096247Y0038135D01*
X0095378Y0036911D01*
X0094442Y0035738D01*
X0093442Y0034619D01*
X0092381Y0033558D01*
X0091262Y0032558D01*
X0090089Y0031622D01*
X0088865Y0030753D01*
X0087594Y0029955D01*
X008628Y0029229D01*
X0084928Y0028578D01*
X0083542Y0028004D01*
X0082125Y0027508D01*
X0080683Y0027092D01*
X007922Y0026758D01*
X007774Y0026507D01*
X0076249Y0026339D01*
X007475Y0026255D01*
X007325D01*
X0071751Y0026339D01*
X007026Y0026507D01*
X006878Y0026758D01*
X0067317Y0027092D01*
X0065875Y0027508D01*
X0064458Y0028004D01*
X0063072Y0028578D01*
X006172Y0029229D01*
X0060406Y0029955D01*
X0059135Y0030753D01*
X0057911Y0031622D01*
X0056738Y0032558D01*
X0055619Y0033558D01*
X0054558Y0034619D01*
X0053558Y0035738D01*
X0052622Y0036911D01*
X0051753Y0038135D01*
X0050955Y0039406D01*
X0050229Y004072D01*
X0049578Y0042072D01*
X0049004Y0043458D01*
X0048508Y0044875D01*
X0048092Y0046317D01*
X0047758Y004778D01*
X0047507Y004926D01*
X0047339Y0050751D01*
X0047255Y005225D01*
Y0053D01*
Y005375D01*
X0047339Y0055249D01*
X0047507Y005674D01*
X0047758Y005822D01*
X0048092Y0059683D01*
X0048508Y0061125D01*
X0049004Y0062542D01*
X0049578Y0063928D01*
X0050229Y006528D01*
X0050955Y0066594D01*
X0051754Y0067865D01*
X0052622Y0069089D01*
X0053558Y0070262D01*
X0054558Y0071381D01*
X0055619Y0072442D01*
X0056738Y0073442D01*
X0057911Y0074378D01*
X0059135Y0075247D01*
X0060406Y0076045D01*
X006172Y0076771D01*
X0063072Y0077422D01*
X0064458Y0077996D01*
X0065875Y0078492D01*
X0067317Y0078908D01*
X006878Y0079242D01*
X007026Y0079493D01*
X0071751Y0079661D01*
X007325Y0079745D01*
X007475D01*
X0076249Y0079661D01*
D02*
G37*
%LPC*%
G36*
X0074Y007851D02*
X00675D01*
X0067305Y0078471D01*
X006714Y007836D01*
X006546Y007668D01*
X0065349Y0076515D01*
X006531Y007632D01*
Y00761D01*
X0065125D01*
Y0075985D01*
X0062575D01*
X006238Y0075946D01*
X0062215Y0075835D01*
X005759Y007121D01*
X0057479Y0071045D01*
X005744Y007085D01*
Y0067988D01*
Y006426D01*
X0057D01*
X0056805Y0064221D01*
X005664Y006411D01*
X0056529Y0063945D01*
X005649Y006375D01*
X0056529Y0063555D01*
X005664Y006339D01*
X0056805Y0063279D01*
X0057Y006324D01*
X005744D01*
Y0061631D01*
X0057479Y0061436D01*
X005749Y0061419D01*
Y0061139D01*
X0057363Y0061109D01*
X0057192Y0061457D01*
X0056882Y006192D01*
X0056514Y0062339D01*
X0056095Y0062707D01*
X0055632Y0063017D01*
X0055131Y0063264D01*
X0054603Y0063443D01*
X0054056Y0063552D01*
X0054Y0063555D01*
Y0059325D01*
Y0055095D01*
X0054056Y0055098D01*
X0054603Y0055207D01*
X0055131Y0055386D01*
X0055632Y0055633D01*
X0056095Y0055943D01*
X0056514Y0056311D01*
X0056882Y005673D01*
X0057192Y0057193D01*
X0057363Y0057541D01*
X005749Y0057511D01*
Y0056604D01*
X005674Y0055853D01*
X0056629Y0055688D01*
X005659Y0055493D01*
Y0050442D01*
X0056577Y0050431D01*
X0056512Y0050443D01*
X005645Y0050493D01*
Y0051598D01*
X005645Y0051615D01*
Y0051725D01*
X005645Y0051742D01*
Y0052868D01*
X005645Y0052885D01*
Y0052995D01*
X005645Y0053012D01*
Y0053475D01*
X00552D01*
X005395D01*
Y0053012D01*
X005395Y0052995D01*
Y0052885D01*
X005395Y0052868D01*
Y0051742D01*
X005395Y0051725D01*
Y0051615D01*
X005395Y0051598D01*
Y0050472D01*
X005395Y0050455D01*
Y0050345D01*
X0053865Y0050275D01*
X005367Y0050236D01*
X0053505Y0050125D01*
X0053153Y0049774D01*
X0053043Y0049609D01*
X0053004Y0049414D01*
Y0041486D01*
X0053043Y0041291D01*
X0053153Y0041126D01*
X0058557Y0035722D01*
X006479Y002949D01*
X0064955Y0029379D01*
X006515Y002934D01*
X0068744D01*
X0068844Y0029273D01*
X0069Y0029242D01*
X00695D01*
X0069656Y0029273D01*
X0069756Y002934D01*
X0071057D01*
X0071063Y0029342D01*
X0074351D01*
X0074546Y002938D01*
X0074712Y0029491D01*
X007536Y003014D01*
X0075471Y0030305D01*
X007551Y00305D01*
Y0032D01*
X0075471Y0032195D01*
X007536Y003236D01*
X0075195Y0032471D01*
X0075Y003251D01*
X0074805Y0032471D01*
X007464Y003236D01*
X0074529Y0032195D01*
X007449Y0032D01*
Y0030711D01*
X007414Y0030361D01*
X0071058D01*
X0071052Y003036D01*
X0069756D01*
X0069656Y0030427D01*
X0069614Y0030435D01*
Y0030565D01*
X0069656Y0030573D01*
X0069788Y0030662D01*
X0069877Y0030794D01*
X0069908Y003095D01*
Y003105D01*
X0068592D01*
Y003095D01*
X0068623Y0030794D01*
X0068712Y0030662D01*
X0068844Y0030573D01*
X0068886Y0030565D01*
Y0030435D01*
X0068844Y0030427D01*
X0068744Y003036D01*
X0065361D01*
X0059566Y0036155D01*
X0064688Y0041277D01*
X0064688Y0041277D01*
X0064777Y0041409D01*
X0064808Y0041565D01*
Y00426D01*
X0065D01*
Y0042842D01*
X00654D01*
X00654Y0042842D01*
X0065556Y0042873D01*
X0065688Y0042962D01*
X0066127Y00434D01*
X006655D01*
Y00444D01*
Y00456D01*
X0066306D01*
Y0047D01*
X0066306Y0047D01*
X0066283Y0047117D01*
X0066216Y0047216D01*
X0065966Y0047466D01*
X0065867Y0047533D01*
X006575Y0047556D01*
X006575Y0047556D01*
X0065D01*
Y00479D01*
X0065D01*
Y0048206D01*
X0065057Y0048217D01*
X0065156Y0048284D01*
X0068316Y0051444D01*
X0068316Y0051444D01*
X0068383Y0051543D01*
X0068406Y005166D01*
X0068406Y005166D01*
Y0062169D01*
X0068518Y0062229D01*
X0068555Y0062204D01*
X006875Y0062165D01*
X0068945Y0062204D01*
X006911Y0062315D01*
X0069221Y006248D01*
X006926Y0062675D01*
X0069221Y006287D01*
X006911Y0063035D01*
X0069056Y0063072D01*
Y0063075D01*
X0069056Y0063075D01*
X0069033Y0063192D01*
X0068966Y0063291D01*
X0068936Y0063322D01*
X0068978Y006346D01*
X0069017Y0063467D01*
X00691Y0063523D01*
X0069101Y0063522D01*
X0069744Y0062879D01*
Y0062153D01*
X0069534Y0061943D01*
X0069467Y0061844D01*
X0069444Y0061726D01*
X0069444Y0061726D01*
Y0050028D01*
X0066884Y0047468D01*
X0066817Y0047369D01*
X0066794Y0047251D01*
X0066794Y0047251D01*
Y0035003D01*
X0066791Y0034993D01*
X0066785Y0034982D01*
X0066747Y0034943D01*
X0066667Y0034909D01*
X0066628Y0034926D01*
X006638Y0034958D01*
X0066132Y0034926D01*
X0065901Y003483D01*
X0065702Y0034678D01*
X006555Y0034479D01*
X0065454Y0034248D01*
X0065422Y0034D01*
X0065454Y0033752D01*
X006555Y0033521D01*
X0065656Y0033383D01*
X0065593Y0033256D01*
X0065017D01*
X006489Y0033383D01*
X0064888Y0033385D01*
X0064874Y0033408D01*
X0064858Y0033443D01*
X0064842Y0033489D01*
X0064828Y0033547D01*
X0064815Y0033615D01*
X0064805Y0033692D01*
X0064794Y0033884D01*
X0064794Y0033968D01*
X0064798Y0034D01*
X0064766Y0034248D01*
X006467Y0034479D01*
X0064518Y0034678D01*
X0064319Y003483D01*
X0064088Y0034926D01*
X006384Y0034958D01*
X0063592Y0034926D01*
X0063361Y003483D01*
X0063162Y0034678D01*
X006301Y0034479D01*
X0062914Y0034248D01*
X0062882Y0034D01*
X0062914Y0033752D01*
X006301Y0033521D01*
X0063162Y0033322D01*
X0063361Y003317D01*
X0063592Y0033074D01*
X006384Y0033042D01*
X0063872Y0033046D01*
X0063956Y0033046D01*
X0064148Y0033035D01*
X0064225Y0033025D01*
X0064293Y0033012D01*
X0064351Y0032998D01*
X0064397Y0032982D01*
X0064432Y0032966D01*
X0064455Y0032952D01*
X0064457Y003295D01*
X0064674Y0032734D01*
X0064773Y0032667D01*
X006489Y0032644D01*
X0066815D01*
X0066815Y0032644D01*
X0066932Y0032667D01*
X0067031Y0032734D01*
X0067716Y0033419D01*
X0067716Y0033419D01*
X0067783Y0033518D01*
X0067806Y0033635D01*
X0067806Y0033635D01*
Y0034294D01*
X0067933Y0034347D01*
X0067952Y0034329D01*
X0067955Y0034308D01*
X0067966Y0034116D01*
X0067966Y0034032D01*
X0067962Y0034D01*
X0067994Y0033752D01*
X006809Y0033521D01*
X0068242Y0033322D01*
X0068441Y003317D01*
X0068672Y0033074D01*
X006892Y0033042D01*
X0069168Y0033074D01*
X0069399Y003317D01*
X0069598Y0033322D01*
X006975Y0033521D01*
X0069846Y0033752D01*
X0069878Y0034D01*
X0069846Y0034248D01*
X006975Y0034479D01*
X0069598Y0034678D01*
X0069399Y003483D01*
X0069168Y0034926D01*
X006892Y0034958D01*
X0068888Y0034954D01*
X0068804Y0034954D01*
X0068612Y0034965D01*
X0068535Y0034975D01*
X0068467Y0034988D01*
X0068409Y0035002D01*
X0068363Y0035018D01*
X0068328Y0035034D01*
X0068305Y0035048D01*
X0068303Y003505D01*
X0068206Y0035147D01*
Y0042044D01*
X0068323Y0042093D01*
X0073694Y0036722D01*
Y0035179D01*
X0073694Y0035176D01*
X0073688Y0035149D01*
X0073674Y0035114D01*
X0073653Y003507D01*
X0073622Y0035019D01*
X0073583Y0034962D01*
X0073535Y00349D01*
X0073407Y0034757D01*
X0073348Y0034697D01*
X0073322Y0034678D01*
X007317Y0034479D01*
X0073074Y0034248D01*
X0073042Y0034D01*
X0073074Y0033752D01*
X007317Y0033521D01*
X0073322Y0033322D01*
X0073521Y003317D01*
X0073752Y0033074D01*
X0074Y0033042D01*
X0074248Y0033074D01*
X0074479Y003317D01*
X0074678Y0033322D01*
X007483Y0033521D01*
X0074926Y0033752D01*
X0074958Y0034D01*
X0074926Y0034248D01*
X007483Y0034479D01*
X0074678Y0034678D01*
X0074652Y0034697D01*
X0074593Y0034757D01*
X0074465Y00349D01*
X0074417Y0034962D01*
X0074378Y0035019D01*
X0074347Y003507D01*
X0074326Y0035114D01*
X0074312Y0035149D01*
X0074306Y0035176D01*
X0074306Y0035179D01*
Y0036596D01*
X0074423Y0036644D01*
X0076094Y0034973D01*
X007608Y0034846D01*
X0076059Y0034829D01*
X0075862Y0034678D01*
X007571Y0034479D01*
X0075614Y0034248D01*
X0075582Y0034D01*
X0075614Y0033752D01*
X007571Y0033521D01*
X0075862Y0033322D01*
X0076061Y003317D01*
X0076292Y0033074D01*
X007654Y0033042D01*
X0076788Y0033074D01*
X0077019Y003317D01*
X0077218Y0033322D01*
X007737Y0033521D01*
X0077466Y0033752D01*
X0077498Y0034D01*
X0077466Y0034248D01*
X007737Y0034479D01*
X0077218Y0034678D01*
X0077019Y003483D01*
X0076874Y003489D01*
X0076864Y0034897D01*
X0076852Y0034902D01*
X007685Y0034908D01*
X0076847Y003492D01*
X0076846Y003493D01*
Y003496D01*
X0076846Y003496D01*
X0076823Y0035077D01*
X0076756Y0035176D01*
X0076756Y0035176D01*
X0074716Y0037216D01*
X0074716Y0037216D01*
X0069306Y0042627D01*
Y00434D01*
X006955D01*
Y0043445D01*
X0069801D01*
X006981Y0043443D01*
X0069819Y004344D01*
X0069828Y0043436D01*
X0069838Y0043432D01*
X0069848Y0043426D01*
X0069858Y0043418D01*
X0069866Y0043412D01*
X0069881Y004339D01*
X0070046Y004328D01*
X0070241Y0043241D01*
X0070436Y004328D01*
X007054Y0043349D01*
X0070667Y0043281D01*
Y0042702D01*
X0070667Y0042702D01*
X007069Y0042585D01*
X0070756Y0042485D01*
X0071858Y0041384D01*
X0071858Y0041384D01*
X0071957Y0041317D01*
X0072074Y0041294D01*
X0072122D01*
X0076294Y0037122D01*
Y003648D01*
X0076294Y003648D01*
X0076317Y0036363D01*
X0076384Y0036264D01*
X007803Y0034617D01*
X0078032Y0034615D01*
X0078046Y0034592D01*
X0078062Y0034557D01*
X0078078Y0034511D01*
X0078092Y0034453D01*
X0078105Y0034385D01*
X0078115Y0034308D01*
X0078126Y0034116D01*
X0078126Y0034032D01*
X0078122Y0034D01*
X0078154Y0033752D01*
X007825Y0033521D01*
X0078402Y0033322D01*
X0078601Y003317D01*
X0078832Y0033074D01*
X007908Y0033042D01*
X0079328Y0033074D01*
X0079559Y003317D01*
X0079758Y0033322D01*
X007991Y0033521D01*
X0080006Y0033752D01*
X0080038Y0034D01*
X0080006Y0034248D01*
X007991Y0034479D01*
X0079758Y0034678D01*
X0079559Y003483D01*
X0079328Y0034926D01*
X007908Y0034958D01*
X0079048Y0034954D01*
X0078964Y0034954D01*
X0078772Y0034965D01*
X0078695Y0034975D01*
X0078627Y0034988D01*
X0078569Y0035002D01*
X0078523Y0035018D01*
X0078488Y0035034D01*
X0078465Y0035048D01*
X0078463Y003505D01*
X0076906Y0036607D01*
Y0036924D01*
X0077023Y0036972D01*
X0078248Y0035748D01*
X0078363Y003567D01*
X00785Y0035643D01*
X009D01*
X0090137Y003567D01*
X0090252Y0035748D01*
X0095152Y0040648D01*
X009523Y0040763D01*
X0095257Y00409D01*
Y0053643D01*
X009523Y005378D01*
X0095152Y0053895D01*
X0094348Y00547D01*
X0094232Y0054777D01*
X0094095Y0054805D01*
X00927D01*
X008983Y0057675D01*
Y0069774D01*
X0090027Y0069972D01*
X0090048Y0069989D01*
X0090057Y0069995D01*
X0090065Y0069999D01*
X0090067Y0070001D01*
X0090068Y0070001D01*
X0090074Y0070003D01*
X0090076Y0070004D01*
X0090077Y0070004D01*
X0090083Y0070007D01*
X0090195Y0070029D01*
X009036Y007014D01*
X0090471Y0070305D01*
X009051Y00705D01*
X0090471Y0070695D01*
X009036Y007086D01*
X0090195Y0070971D01*
X009Y007101D01*
X0089805Y0070971D01*
X008964Y007086D01*
X0089529Y0070695D01*
X008949Y00705D01*
X0089499Y0070458D01*
X0089497Y0070455D01*
X0089492Y0070448D01*
X0089482Y0070436D01*
X008922Y0070174D01*
X0089143Y0070058D01*
X0089116Y0069922D01*
Y0068872D01*
X0088989Y006886D01*
X008898Y0068906D01*
X0088902Y0069022D01*
X0088359Y0069565D01*
Y0070119D01*
X008836Y0070125D01*
X0088362Y0070139D01*
X0088363Y0070144D01*
X0088471Y0070305D01*
X008851Y00705D01*
X0088471Y0070695D01*
X008836Y007086D01*
X0088195Y0070971D01*
X0088Y007101D01*
X0087805Y0070971D01*
X008764Y007086D01*
X0087584Y0070777D01*
X0087457Y0070816D01*
Y0073949D01*
X008743Y0074086D01*
X0087352Y0074202D01*
X0087177Y0074377D01*
X0087061Y0074455D01*
X0086925Y0074482D01*
Y007465D01*
X0086075D01*
Y007465D01*
X0085975D01*
Y007465D01*
X0085125D01*
Y0074507D01*
X008446D01*
Y0074907D01*
X008445Y0074956D01*
Y007505D01*
X0084431D01*
X0084421Y0075102D01*
X008431Y0075268D01*
X008416Y0075418D01*
Y0075494D01*
X0084227Y0075594D01*
X0084258Y007575D01*
Y007625D01*
X0084227Y0076406D01*
X008416Y0076506D01*
Y00766D01*
X0084121Y0076795D01*
X008401Y007696D01*
X008361Y007736D01*
X0083445Y0077471D01*
X008325Y007751D01*
X008125D01*
X0081055Y0077471D01*
X008089Y007736D01*
X0080539Y007701D01*
X007516D01*
Y007735D01*
X0075121Y0077545D01*
X007501Y007771D01*
X007436Y007836D01*
X0074195Y0078471D01*
X0074Y007851D01*
D02*
G37*
G36*
X0095Y0063555D02*
Y0059825D01*
X009873D01*
X0098727Y0059881D01*
X0098618Y0060428D01*
X0098439Y0060956D01*
X0098192Y0061457D01*
X0097882Y006192D01*
X0097514Y0062339D01*
X0097095Y0062707D01*
X0096632Y0063017D01*
X0096131Y0063264D01*
X0095603Y0063443D01*
X0095056Y0063552D01*
X0095Y0063555D01*
D02*
G37*
G36*
X0094D02*
X0093944Y0063552D01*
X0093397Y0063443D01*
X0092869Y0063264D01*
X0092368Y0063017D01*
X0091905Y0062707D01*
X0091486Y0062339D01*
X0091118Y006192D01*
X0090808Y0061457D01*
X0090561Y0060956D01*
X0090382Y0060428D01*
X0090273Y0059881D01*
X009027Y0059825D01*
X0094D01*
Y0063555D01*
D02*
G37*
G36*
X0053D02*
X0052944Y0063552D01*
X0052397Y0063443D01*
X0051869Y0063264D01*
X0051368Y0063017D01*
X0050905Y0062707D01*
X0050486Y0062339D01*
X0050118Y006192D01*
X0049808Y0061457D01*
X0049561Y0060956D01*
X0049382Y0060428D01*
X0049273Y0059881D01*
X004927Y0059825D01*
X0053D01*
Y0063555D01*
D02*
G37*
G36*
X009873Y0058825D02*
X0095D01*
Y0055095D01*
X0095056Y0055098D01*
X0095603Y0055207D01*
X0096131Y0055386D01*
X0096632Y0055633D01*
X0097095Y0055943D01*
X0097514Y0056311D01*
X0097882Y005673D01*
X0098192Y0057193D01*
X0098439Y0057694D01*
X0098618Y0058222D01*
X0098727Y0058769D01*
X009873Y0058825D01*
D02*
G37*
G36*
X0094D02*
X009027D01*
X0090273Y0058769D01*
X0090382Y0058222D01*
X0090561Y0057694D01*
X0090808Y0057193D01*
X0091118Y005673D01*
X0091486Y0056311D01*
X0091905Y0055943D01*
X0092368Y0055633D01*
X0092869Y0055386D01*
X0093397Y0055207D01*
X0093944Y0055098D01*
X0094Y0055095D01*
Y0058825D01*
D02*
G37*
G36*
X0053D02*
X004927D01*
X0049273Y0058769D01*
X0049382Y0058222D01*
X0049561Y0057694D01*
X0049808Y0057193D01*
X0050118Y005673D01*
X0050486Y0056311D01*
X0050905Y0055943D01*
X0051368Y0055633D01*
X0051869Y0055386D01*
X0052397Y0055207D01*
X0052944Y0055098D01*
X0053Y0055095D01*
Y0058825D01*
D02*
G37*
G36*
X005645Y0054155D02*
X00553D01*
Y0053675D01*
X005645D01*
Y0054155D01*
D02*
G37*
G36*
X00551D02*
X005395D01*
Y0053675D01*
X00551D01*
Y0054155D01*
D02*
G37*
G36*
X008416Y0034958D02*
X0083912Y0034926D01*
X0083681Y003483D01*
X0083482Y0034678D01*
X008333Y0034479D01*
X0083234Y0034248D01*
X0083202Y0034D01*
X0083234Y0033752D01*
X008333Y0033521D01*
X0083482Y0033322D01*
X0083681Y003317D01*
X0083912Y0033074D01*
X008416Y0033042D01*
X0084408Y0033074D01*
X0084639Y003317D01*
X0084838Y0033322D01*
X008499Y0033521D01*
X0085086Y0033752D01*
X0085118Y0034D01*
X0085086Y0034248D01*
X008499Y0034479D01*
X0084838Y0034678D01*
X0084639Y003483D01*
X0084408Y0034926D01*
X008416Y0034958D01*
D02*
G37*
G36*
X008162D02*
X0081372Y0034926D01*
X0081141Y003483D01*
X0080942Y0034678D01*
X008079Y0034479D01*
X0080694Y0034248D01*
X0080662Y0034D01*
X0080694Y0033752D01*
X008079Y0033521D01*
X0080942Y0033322D01*
X0081141Y003317D01*
X0081372Y0033074D01*
X008162Y0033042D01*
X0081868Y0033074D01*
X0082099Y003317D01*
X0082298Y0033322D01*
X008245Y0033521D01*
X0082546Y0033752D01*
X0082578Y0034D01*
X0082546Y0034248D01*
X008245Y0034479D01*
X0082298Y0034678D01*
X0082099Y003483D01*
X0081868Y0034926D01*
X008162Y0034958D01*
D02*
G37*
G36*
X007146D02*
X0071212Y0034926D01*
X0070981Y003483D01*
X0070782Y0034678D01*
X007063Y0034479D01*
X0070534Y0034248D01*
X0070502Y0034D01*
X0070534Y0033752D01*
X007063Y0033521D01*
X0070782Y0033322D01*
X0070981Y003317D01*
X0071212Y0033074D01*
X007146Y0033042D01*
X0071708Y0033074D01*
X0071939Y003317D01*
X0072138Y0033322D01*
X007229Y0033521D01*
X0072386Y0033752D01*
X0072418Y0034D01*
X0072386Y0034248D01*
X007229Y0034479D01*
X0072138Y0034678D01*
X0071939Y003483D01*
X0071708Y0034926D01*
X007146Y0034958D01*
D02*
G37*
G36*
X00695Y0031758D02*
X006935D01*
Y003125D01*
X0069908D01*
Y003135D01*
X0069877Y0031506D01*
X0069788Y0031638D01*
X0069656Y0031727D01*
X00695Y0031758D01*
D02*
G37*
G36*
X006915D02*
X0069D01*
X0068844Y0031727D01*
X0068712Y0031638D01*
X0068623Y0031506D01*
X0068592Y003135D01*
Y003125D01*
X006915D01*
Y0031758D01*
D02*
G37*
%LPD*%
G36*
X007414Y0077139D02*
Y0077006D01*
X0074073Y0076906D01*
X0074065Y0076864D01*
X0073935D01*
X0073927Y0076906D01*
X0073838Y0077038D01*
X0073706Y0077127D01*
X007355Y0077158D01*
X007345D01*
Y00765D01*
Y0075842D01*
X007355D01*
X0073706Y0075873D01*
X0073838Y0075962D01*
X0073927Y0076094D01*
X0073935Y0076136D01*
X0074065D01*
X0074073Y0076094D01*
X0074162Y0075962D01*
X0074294Y0075873D01*
X007445Y0075842D01*
X007485D01*
X0075006Y0075873D01*
X0075138Y0075962D01*
X0075157Y007599D01*
X007589D01*
Y0074665D01*
X00756D01*
X0075405Y0074626D01*
X007524Y0074515D01*
X0075129Y007435D01*
X007509Y0074155D01*
X0075129Y007396D01*
X007524Y0073795D01*
X0075405Y0073684D01*
X00756Y0073645D01*
X007589D01*
Y0073395D01*
X00756D01*
X0075405Y0073356D01*
X007524Y0073245D01*
X0075129Y007308D01*
X007509Y0072885D01*
X0075129Y007269D01*
X007524Y0072525D01*
X0075405Y0072414D01*
X00756Y0072375D01*
X00772D01*
X0077395Y0072414D01*
X007756Y0072525D01*
X0077671Y007269D01*
X007771Y0072885D01*
X0077671Y007308D01*
X007756Y0073245D01*
X0077395Y0073356D01*
X00772Y0073395D01*
X007691D01*
Y0073645D01*
X00772D01*
X0077395Y0073684D01*
X007756Y0073795D01*
X0077671Y007396D01*
X007771Y0074155D01*
X0077671Y007435D01*
X007756Y0074515D01*
X0077395Y0074626D01*
X00772Y0074665D01*
X007691D01*
Y007599D01*
X007849D01*
Y007325D01*
X0078529Y0073055D01*
X007864Y007289D01*
X0078805Y0072779D01*
X0079Y007274D01*
X0079195Y0072779D01*
X007936Y007289D01*
X0079471Y0073055D01*
X007951Y007325D01*
Y007599D01*
X008075D01*
X0080945Y0076029D01*
X008111Y007614D01*
X0081461Y007649D01*
X0081688D01*
X0081765Y0076363D01*
X0081742Y007625D01*
Y00761D01*
X008235D01*
Y0076D01*
X008245D01*
Y0075342D01*
X008255D01*
X0082706Y0075373D01*
X0082838Y0075462D01*
X0082927Y0075594D01*
X0082935Y0075636D01*
X0083065D01*
X0083073Y0075594D01*
X008314Y0075494D01*
Y0075207D01*
X0083152Y0075148D01*
X00831Y0075085D01*
Y00743D01*
Y007355D01*
X008445D01*
Y0073793D01*
X0085125D01*
Y007365D01*
X0085975D01*
Y007365D01*
X0086075D01*
Y007365D01*
X0086743D01*
Y00724D01*
X0085075D01*
Y0072133D01*
X008445D01*
Y007245D01*
X008345D01*
Y007095D01*
X008445D01*
Y0071317D01*
X0085075D01*
Y00711D01*
X0086743D01*
Y00707D01*
X0085075D01*
Y00694D01*
X0085643D01*
Y0068831D01*
X0084742D01*
X0084727Y0068906D01*
X0084638Y0069038D01*
X0084506Y0069127D01*
X0084481Y0069132D01*
Y0069435D01*
X0084727D01*
Y0070735D01*
X0083554D01*
X0083527Y0070735D01*
X0083427D01*
X00834Y0070735D01*
X0082408D01*
Y007095D01*
X008255D01*
Y007245D01*
X008155D01*
Y007095D01*
X0081796D01*
Y0070735D01*
X0080804D01*
X0080777Y0070735D01*
X0080677D01*
X008065Y0070735D01*
X0080177D01*
Y0070085D01*
Y0069435D01*
X008065D01*
X0080677Y0069435D01*
X0080777D01*
X0080804Y0069435D01*
X0081977D01*
Y0069779D01*
X0082227D01*
Y0069435D01*
X0082544D01*
Y0069137D01*
X0082494Y0069127D01*
X0082362Y0069038D01*
X0082273Y0068906D01*
X0082242Y006875D01*
Y006825D01*
X0082273Y0068094D01*
X0082362Y0067962D01*
X0082494Y0067873D01*
X008265Y0067842D01*
X008305D01*
X0083206Y0067873D01*
X0083338Y0067962D01*
X0083427Y0068094D01*
X0083435Y0068136D01*
X0083565D01*
X0083573Y0068094D01*
X0083662Y0067962D01*
X0083794Y0067873D01*
X008395Y0067842D01*
X008435D01*
X0084506Y0067873D01*
X0084638Y0067962D01*
X0084727Y0068094D01*
X0084742Y0068169D01*
X0085643D01*
Y0067648D01*
X0085602Y0067607D01*
X0081898D01*
X0081402Y0068102D01*
X0081287Y006818D01*
X008115Y0068207D01*
X0080626D01*
X0080538Y0068338D01*
X0080406Y0068427D01*
X008025Y0068458D01*
X007975D01*
X0079594Y0068427D01*
X0079462Y0068338D01*
X0079373Y0068206D01*
X0079368Y0068182D01*
X0078814D01*
X0078677Y0068318D01*
X0078611Y0068362D01*
X0078427Y0068438D01*
X0078349Y0068454D01*
X0077151D01*
X0077073Y0068438D01*
X0076889Y0068362D01*
X0076823Y0068318D01*
X0076682Y0068177D01*
X0076638Y0068111D01*
X0076562Y0067927D01*
X0076546Y0067849D01*
Y0067651D01*
X0076562Y0067573D01*
X0076638Y0067389D01*
X0076682Y0067323D01*
X0076823Y0067182D01*
X0076889Y0067138D01*
X0077073Y0067062D01*
X0077151Y0067046D01*
X0077419D01*
Y006675D01*
X0077444Y0066623D01*
X0077516Y0066516D01*
X0078475Y0065556D01*
Y0064774D01*
X0078358Y0064726D01*
X0076692Y0066391D01*
X0076593Y0066458D01*
X0076476Y0066481D01*
X0076476Y0066481D01*
X0073602D01*
X0073563Y0066608D01*
X007361Y006664D01*
X0073721Y0066805D01*
X007376Y0067D01*
X0073721Y0067195D01*
X007361Y006736D01*
X0073445Y0067471D01*
X0073356Y0067489D01*
X0073314Y0067627D01*
X0075536Y0069848D01*
X00756Y0069835D01*
X00772D01*
X0077395Y0069874D01*
X007756Y0069985D01*
X0077671Y007015D01*
X007771Y0070345D01*
X0077671Y007054D01*
X007756Y0070705D01*
X0077395Y0070816D01*
X00772Y0070855D01*
X00756D01*
X0075405Y0070816D01*
X007524Y0070705D01*
X0075129Y007054D01*
X007509Y0070345D01*
X0075103Y0070281D01*
X0072995Y0068173D01*
X0072858Y0068215D01*
X007276Y006836D01*
X0072595Y0068471D01*
X0072567Y0068476D01*
X0072531Y0068598D01*
X0075192Y0071259D01*
X007524Y0071255D01*
X0075405Y0071144D01*
X00756Y0071105D01*
X00772D01*
X0077395Y0071144D01*
X007756Y0071255D01*
X0077671Y007142D01*
X007771Y0071615D01*
X0077671Y007181D01*
X007756Y0071975D01*
X0077395Y0072086D01*
X00772Y0072125D01*
X00756D01*
X0075405Y0072086D01*
X007524Y0071975D01*
X0075203Y0071921D01*
X0075115D01*
X0074998Y0071898D01*
X0074899Y0071831D01*
X0072083Y0069016D01*
X0071962Y0069053D01*
X007195Y0069109D01*
X007184Y0069274D01*
X0071674Y0069385D01*
X0071479Y0069424D01*
X0071284Y0069385D01*
X007127Y0069375D01*
X0071155Y0069451D01*
X0071172Y0069535D01*
X0071137Y0069708D01*
X0071204Y0069835D01*
X00715D01*
Y0070245D01*
X007031D01*
X0070329Y007015D01*
X0070438Y0069987D01*
X0070301Y0069895D01*
X0070274Y0069854D01*
X0070269Y006985D01*
X0070255Y0069833D01*
X0070247Y0069826D01*
X007024Y006982D01*
X0070234Y0069815D01*
X0070228Y0069812D01*
X0070223Y0069809D01*
X0070216Y0069807D01*
X007021Y0069806D01*
X0069501D01*
X0069429Y0069867D01*
X0069394Y0069921D01*
X006941Y007D01*
X0069371Y0070195D01*
X006926Y007036D01*
X0069095Y0070471D01*
X00689Y007051D01*
X0068705Y0070471D01*
X006854Y007036D01*
X0068513Y0070322D01*
X0068386D01*
X006836Y007036D01*
X0068195Y0070471D01*
X0068Y007051D01*
X0067805Y0070471D01*
X0067727Y0070419D01*
X00676Y0070487D01*
Y007085D01*
X00665D01*
Y0070475D01*
X00663D01*
Y007085D01*
X0065956D01*
Y00713D01*
X00676D01*
Y007205D01*
X0067456D01*
Y0072838D01*
X0067506Y0072848D01*
X0067638Y0072937D01*
X0067727Y0073069D01*
X0067758Y0073225D01*
Y0073725D01*
X0067727Y0073881D01*
X0067638Y0074013D01*
X0067506Y0074102D01*
X0067456Y0074112D01*
Y007485D01*
X0067775D01*
Y00761D01*
X0066525D01*
Y007485D01*
X0066844D01*
Y0074112D01*
X0066794Y0074102D01*
X0066662Y0074013D01*
X0066573Y0073881D01*
X0066565Y0073839D01*
X0066435D01*
X0066427Y0073881D01*
X0066338Y0074013D01*
X0066206Y0074102D01*
X006605Y0074133D01*
X006595D01*
Y0073475D01*
Y0072817D01*
X006605D01*
X0066206Y0072848D01*
X0066338Y0072937D01*
X0066427Y0073069D01*
X0066435Y0073111D01*
X0066565D01*
X0066573Y0073069D01*
X0066662Y0072937D01*
X0066794Y0072848D01*
X0066844Y0072838D01*
Y007205D01*
X006595D01*
Y0071981D01*
X006585D01*
X0065733Y0071958D01*
X0065634Y0071891D01*
X0065434Y0071691D01*
X0065367Y0071592D01*
X0065344Y0071475D01*
X0065344Y0071475D01*
Y0069616D01*
X0065344Y0069616D01*
X0065367Y0069499D01*
X0065434Y0069399D01*
X0066296Y0068537D01*
X0066284Y0068416D01*
X0066217Y0068317D01*
X0066194Y00682D01*
Y0067804D01*
X0066178Y0067697D01*
X0066071Y0067681D01*
X0064427D01*
X0064308Y00678D01*
Y0068175D01*
X0064277Y0068331D01*
X0064188Y0068463D01*
X0064056Y0068552D01*
X0064014Y006856D01*
Y006869D01*
X0064056Y0068698D01*
X0064188Y0068787D01*
X0064277Y0068919D01*
X0064308Y0069075D01*
Y0069175D01*
X0062992D01*
Y0069075D01*
X0063023Y0068919D01*
X0063112Y0068787D01*
X0063244Y0068698D01*
X0063286Y006869D01*
Y006856D01*
X0063244Y0068552D01*
X0063112Y0068463D01*
X0063023Y0068331D01*
X0062992Y0068175D01*
Y0068074D01*
X0062875Y0068026D01*
X0062709Y0068191D01*
X006261Y0068258D01*
X0062493Y0068281D01*
X0062493Y0068281D01*
X0062187D01*
X0062177Y0068331D01*
X0062088Y0068463D01*
X0061956Y0068552D01*
X0061914Y006856D01*
Y006869D01*
X0061956Y0068698D01*
X0062088Y0068787D01*
X0062177Y0068919D01*
X0062208Y0069075D01*
Y0069175D01*
X0060892D01*
Y0069075D01*
X0060923Y0068919D01*
X0061012Y0068787D01*
X0061144Y0068698D01*
X0061186Y006869D01*
Y006856D01*
X0061144Y0068552D01*
X0061012Y0068463D01*
X0060958Y0068383D01*
X0059992D01*
X0059938Y0068463D01*
X0059806Y0068552D01*
X0059764Y006856D01*
Y006869D01*
X0059806Y0068698D01*
X0059938Y0068787D01*
X0060027Y0068919D01*
X0060058Y0069075D01*
Y0069175D01*
X0058742D01*
Y0069075D01*
X0058773Y0068919D01*
X0058862Y0068787D01*
X0058994Y0068698D01*
X0059036Y006869D01*
Y006856D01*
X0058994Y0068552D01*
X0058862Y0068463D01*
X0058816Y0068395D01*
X005846D01*
Y0070639D01*
X0062786Y0074965D01*
X0065125D01*
Y007485D01*
X0066375D01*
Y00761D01*
X0066427Y0076206D01*
X0067711Y007749D01*
X0073789D01*
X007414Y0077139D01*
D02*
G37*
G36*
X0090033Y0070202D02*
X0090017Y0070199D01*
X0090001Y0070194D01*
X0089983Y0070187D01*
X0089965Y0070177D01*
X0089946Y0070166D01*
X0089926Y0070152D01*
X0089883Y0070118D01*
X0089861Y0070097D01*
X0089838Y0070075D01*
X0089596Y0070257D01*
X0089618Y0070281D01*
X0089655Y0070325D01*
X008967Y0070346D01*
X0089681Y0070367D01*
X0089691Y0070387D01*
X0089698Y0070407D01*
X0089702Y0070425D01*
X0089703Y0070444D01*
X0089703Y0070461D01*
X0090033Y0070202D01*
D02*
G37*
G36*
X00882Y0070275D02*
X008819Y007026D01*
X0088182Y0070242D01*
X0088174Y0070223D01*
X0088167Y0070201D01*
X0088162Y0070178D01*
X0088158Y0070152D01*
X0088155Y0070124D01*
X0088152Y0070062D01*
X0087852Y0070059D01*
X0087852Y0070091D01*
X0087847Y0070149D01*
X0087843Y0070175D01*
X0087837Y0070198D01*
X0087831Y007022D01*
X0087823Y0070239D01*
X0087814Y0070256D01*
X0087803Y0070271D01*
X0087792Y0070284D01*
X0088212Y0070287D01*
X00882Y0070275D01*
D02*
G37*
G36*
X0066501Y007016D02*
X0066504Y0070133D01*
X006651Y0070106D01*
X0066518Y007008D01*
X0066527Y0070055D01*
X006654Y0070031D01*
X0066554Y0070007D01*
X006657Y0069984D01*
X0066589Y0069961D01*
X006661Y0069939D01*
X006619D01*
X0066211Y0069961D01*
X006623Y0069984D01*
X0066246Y0070007D01*
X006626Y0070031D01*
X0066272Y0070055D01*
X0066282Y007008D01*
X006629Y0070106D01*
X0066296Y0070133D01*
X0066299Y007016D01*
X00663Y0070188D01*
X00665D01*
X0066501Y007016D01*
D02*
G37*
G36*
X0067954Y0069704D02*
X0067938Y0069705D01*
X0067922Y0069703D01*
X0067906Y00697D01*
X0067889Y0069694D01*
X0067871Y0069685D01*
X0067852Y0069674D01*
X0067833Y0069661D01*
X0067813Y0069646D01*
X0067792Y0069627D01*
X0067771Y0069607D01*
X0067629Y0069748D01*
X0067648Y0069768D01*
X0067665Y0069788D01*
X0067679Y0069806D01*
X006769Y0069825D01*
X00677Y0069842D01*
X0067707Y0069859D01*
X0067711Y0069876D01*
X0067713Y0069892D01*
X0067713Y0069908D01*
X006771Y0069923D01*
X0067954Y0069704D01*
D02*
G37*
G36*
X0068897Y00697D02*
X0068867Y0069699D01*
X0068838Y0069697D01*
X0068809Y0069692D01*
X0068783Y0069685D01*
X0068757Y0069676D01*
X0068732Y0069665D01*
X0068708Y0069653D01*
X0068685Y0069638D01*
X0068664Y0069621D01*
X0068643Y0069602D01*
X0068502Y0069743D01*
X0068521Y0069764D01*
X0068538Y0069785D01*
X0068553Y0069808D01*
X0068565Y0069832D01*
X0068576Y0069857D01*
X0068585Y0069882D01*
X0068592Y0069909D01*
X0068597Y0069938D01*
X0068599Y0069967D01*
X00686Y0069997D01*
X0068897Y00697D01*
D02*
G37*
G36*
X0070473Y0069301D02*
X0070449Y006932D01*
X0070424Y0069337D01*
X0070399Y0069352D01*
X0070373Y0069364D01*
X0070347Y0069375D01*
X0070321Y0069384D01*
X0070295Y0069391D01*
X0070268Y0069396D01*
X0070241Y0069399D01*
X0070214Y00694D01*
X0070189Y00696D01*
X0070217Y0069601D01*
X0070245Y0069605D01*
X0070271Y0069611D01*
X0070296Y0069619D01*
X007032Y006963D01*
X0070343Y0069643D01*
X0070365Y0069658D01*
X0070386Y0069676D01*
X0070406Y0069696D01*
X0070425Y0069719D01*
X0070473Y0069301D01*
D02*
G37*
G36*
X0071265Y0068704D02*
X0071243Y0068725D01*
X0071221Y0068744D01*
X0071197Y006876D01*
X0071174Y0068774D01*
X0071149Y0068786D01*
X0071124Y0068796D01*
X0071098Y0068804D01*
X0071072Y006881D01*
X0071044Y0068813D01*
X0071017Y0068814D01*
Y0069014D01*
X0071044Y0069015D01*
X0071072Y0069018D01*
X0071098Y0069024D01*
X0071124Y0069032D01*
X0071149Y0069041D01*
X0071174Y0069054D01*
X0071197Y0069068D01*
X0071221Y0069084D01*
X0071243Y0069103D01*
X0071265Y0069124D01*
Y0068704D01*
D02*
G37*
G36*
X0088199Y0068273D02*
X0088188Y0068258D01*
X0088179Y0068241D01*
X0088172Y0068221D01*
X0088165Y00682D01*
X008816Y0068176D01*
X0088155Y0068151D01*
X0088152Y0068123D01*
X008815Y006806D01*
X008785D01*
X0087849Y0068092D01*
X0087845Y0068151D01*
X008784Y0068176D01*
X0087835Y00682D01*
X0087828Y0068221D01*
X0087821Y0068241D01*
X0087812Y0068258D01*
X0087801Y0068273D01*
X008779Y0068286D01*
X008821D01*
X0088199Y0068273D01*
D02*
G37*
G36*
X0072397Y00677D02*
X0072367Y0067699D01*
X0072338Y0067697D01*
X0072309Y0067692D01*
X0072283Y0067685D01*
X0072257Y0067676D01*
X0072232Y0067665D01*
X0072208Y0067653D01*
X0072185Y0067638D01*
X0072164Y0067621D01*
X0072143Y0067602D01*
X0072002Y0067743D01*
X0072021Y0067764D01*
X0072038Y0067785D01*
X0072053Y0067808D01*
X0072065Y0067832D01*
X0072076Y0067857D01*
X0072085Y0067882D01*
X0072092Y0067909D01*
X0072097Y0067938D01*
X0072099Y0067967D01*
X00721Y0067997D01*
X0072397Y00677D01*
D02*
G37*
G36*
X0063112Y0066923D02*
X0063064Y0066806D01*
X0059517D01*
X0059517Y0066806D01*
X00594Y0066783D01*
X0059301Y0066716D01*
X0059301Y0066716D01*
X0059184Y0066599D01*
X0059117Y00665D01*
X0059094Y0066383D01*
X0058975Y006635D01*
X00588D01*
Y006505D01*
X00588Y006505D01*
X0058841Y0064923D01*
X0058577Y006466D01*
X005846Y0064708D01*
Y006758D01*
X0058799D01*
X0058862Y0067487D01*
X0058994Y0067398D01*
X005915Y0067367D01*
X005965D01*
X0059806Y0067398D01*
X0059938Y0067487D01*
X0059992Y0067567D01*
X0060958D01*
X0061012Y0067487D01*
X0061144Y0067398D01*
X00613Y0067367D01*
X00618D01*
X0061956Y0067398D01*
X0062088Y0067487D01*
X0062177Y0067619D01*
X0062187Y0067669D01*
X0062366D01*
X0063112Y0066923D01*
D02*
G37*
G36*
X0078533Y0068174D02*
X0078674Y0068033D01*
X0078698Y0067975D01*
X0078724Y0067975D01*
X0078731Y0067894D01*
X007875Y0067849D01*
Y006775D01*
Y0067703D01*
X0078753Y0067675D01*
X007875Y0067675D01*
Y0067651D01*
X0078674Y0067467D01*
X0078533Y0067326D01*
X0078349Y006725D01*
X0077151D01*
X0076967Y0067326D01*
X0076826Y0067467D01*
X007675Y0067651D01*
Y006775D01*
Y0067849D01*
X0076826Y0068033D01*
X0076967Y0068174D01*
X0077151Y006825D01*
X0078349D01*
X0078533Y0068174D01*
D02*
G37*
G36*
X0087583Y0070224D02*
X008764Y007014D01*
X0087642Y0070138D01*
X0087643Y0070135D01*
X0087644Y0070124D01*
X0087646Y007011D01*
Y0069417D01*
X0087673Y006928D01*
X008775Y0069164D01*
X0087821Y0069094D01*
X008778Y0068955D01*
X008764Y006886D01*
X0087529Y0068695D01*
X008749Y00685D01*
X0087529Y0068305D01*
X008764Y006814D01*
X008764Y0068139D01*
X008764Y0068137D01*
X0087642Y0068126D01*
X0087643Y0068112D01*
Y0061827D01*
X0087526Y0061779D01*
X0084152Y0065152D01*
X0084037Y006523D01*
X00839Y0065257D01*
X0080525D01*
Y00656D01*
X0079775D01*
Y00642D01*
X0080525D01*
Y0064543D01*
X0083752D01*
X0087143Y0061152D01*
Y006004D01*
X0087016Y0059989D01*
X0085752Y0061252D01*
X0085637Y006133D01*
X00855Y0061357D01*
X0076348D01*
X0075857Y0061848D01*
Y00624D01*
X007605D01*
Y00631D01*
Y00638D01*
X0074475D01*
Y0062689D01*
X0074358Y006264D01*
X0073757Y0063241D01*
Y0063581D01*
X007373Y0063717D01*
X0073652Y0063833D01*
X0073606Y006388D01*
X007361Y00639D01*
X0073571Y0064095D01*
X007346Y006426D01*
X0073295Y0064371D01*
X00731Y006441D01*
X0072905Y0064371D01*
X007274Y006426D01*
X0072629Y0064095D01*
X0072594Y0063921D01*
X0072563Y0063872D01*
X0072501Y006381D01*
X00725Y006381D01*
X0072305Y0063771D01*
X007214Y006366D01*
X0072029Y0063495D01*
X007199Y00633D01*
X0072029Y0063105D01*
X007214Y006294D01*
X0072305Y0062829D01*
X00725Y006279D01*
X00725Y006279D01*
X0072502Y0062789D01*
X0072512Y0062782D01*
X0072522Y0062774D01*
X0072619Y0062676D01*
X0072648Y0062633D01*
X0075533Y0059748D01*
X0075649Y005967D01*
X0075786Y0059643D01*
X0084152D01*
X0085043Y0058752D01*
Y0049393D01*
X008507Y0049256D01*
X0085148Y0049141D01*
X0087341Y0046948D01*
X0087456Y004687D01*
X0087593Y0046843D01*
X0090537D01*
X0090674Y004687D01*
X0090789Y0046948D01*
X0091452Y0047611D01*
X009153Y0047726D01*
X0091557Y0047863D01*
Y0047915D01*
X009405D01*
Y0049075D01*
X009405D01*
Y0049185D01*
X009405D01*
Y0050345D01*
X009405D01*
Y0050455D01*
X009405D01*
Y0051615D01*
X009405D01*
Y0051725D01*
X009405D01*
Y0052885D01*
X009405D01*
Y0052995D01*
X009405D01*
Y0053823D01*
X0094167Y0053871D01*
X0094543Y0053495D01*
Y0041048D01*
X0089852Y0036357D01*
X0078648D01*
X0075857Y0039148D01*
Y0043349D01*
X0075863Y0043382D01*
X0075876Y0043422D01*
X0075895Y0043467D01*
X0075921Y0043516D01*
X0075954Y004357D01*
X0075994Y0043625D01*
X0076104Y0043754D01*
X0076153Y0043803D01*
X0076178Y0043822D01*
X007633Y0044021D01*
X0076426Y0044252D01*
X0076458Y00445D01*
X0076426Y0044748D01*
X007633Y0044979D01*
X0076178Y0045178D01*
X0075979Y004533D01*
X0075748Y0045426D01*
X00755Y0045458D01*
X0075252Y0045426D01*
X0075021Y004533D01*
X0074822Y0045178D01*
X007467Y0044979D01*
X0074574Y0044748D01*
X0074542Y00445D01*
X0074574Y0044252D01*
X007467Y0044021D01*
X0074822Y0043822D01*
X0074844Y0043806D01*
X0074956Y0043687D01*
X0075004Y0043627D01*
X0075046Y004357D01*
X0075079Y0043516D01*
X0075105Y0043467D01*
X0075124Y0043422D01*
X0075137Y0043382D01*
X0075143Y0043349D01*
Y0039304D01*
X0075026Y0039255D01*
X0072465Y0041816D01*
X0072366Y0041883D01*
X0072249Y0041906D01*
X0072249Y0041906D01*
X0072201D01*
X0071279Y0042828D01*
Y0053396D01*
X00732D01*
X0073278Y0053412D01*
X0073344Y0053456D01*
X0073388Y0053522D01*
X0073404Y00536D01*
Y0055001D01*
X0073388Y0055079D01*
X0073344Y0055145D01*
X0073278Y0055189D01*
X00732Y0055205D01*
X0073007D01*
X0073001Y0055204D01*
X0072968D01*
X0072902Y0055302D01*
X007287Y0055324D01*
Y0055476D01*
X0072902Y0055498D01*
X007298Y0055613D01*
X0073007Y005575D01*
Y00558D01*
X0071993D01*
Y005575D01*
X007202Y0055613D01*
X0072098Y0055498D01*
X007213Y0055476D01*
Y0055324D01*
X0072098Y0055302D01*
X0072032Y0055204D01*
X0071999D01*
X0071993Y0055205D01*
X00718D01*
X0071722Y0055189D01*
X0071656Y0055145D01*
X0071612Y0055079D01*
X0071596Y0055001D01*
Y0054804D01*
X0071279D01*
Y0061125D01*
X0071466Y0061313D01*
X0071533Y0061412D01*
X0071556Y0061529D01*
X0071556Y0061529D01*
Y0064781D01*
X0071533Y0064898D01*
X0071466Y0064998D01*
X0071216Y0065248D01*
X0071216Y0065248D01*
X0071216Y0065248D01*
X0071112Y0065352D01*
X0071161Y0065469D01*
X0073346D01*
X0073412Y0065365D01*
X007341Y0065342D01*
X0073372Y0065153D01*
X0073411Y0064957D01*
X0073522Y0064792D01*
X0073687Y0064682D01*
X0073882Y0064643D01*
X0074077Y0064682D01*
X0074243Y0064792D01*
X0074243Y0064792D01*
X0074245Y0064793D01*
X0074256Y0064795D01*
X007427Y0064796D01*
X0074475D01*
Y00642D01*
X0075225D01*
Y0065469D01*
X0075775D01*
Y00642D01*
X0076525D01*
Y0065514D01*
X0076652Y0065566D01*
X0078334Y0063884D01*
X0078434Y0063817D01*
X007845Y0063814D01*
X0078475Y00638D01*
Y00624D01*
X0079574D01*
X0079621Y0062312D01*
X0079631Y0062273D01*
X0079595Y0062092D01*
X0079633Y0061897D01*
X0079744Y0061732D01*
X0079909Y0061621D01*
X0080104Y0061582D01*
X00803Y0061621D01*
X0080465Y0061732D01*
X0080479Y0061753D01*
X0080487Y006176D01*
X0080498Y0061767D01*
X0080508Y0061773D01*
X0080517Y0061778D01*
X0080526Y0061781D01*
X0080536Y0061784D01*
X0080545Y0061786D01*
X0083521D01*
X0083521Y0061786D01*
X0083638Y0061809D01*
X0083738Y0061876D01*
X0084283Y0062421D01*
X0084291Y0062427D01*
X00843Y0062431D01*
X0084309Y0062435D01*
X0084319Y0062438D01*
X008433Y0062441D01*
X0084343Y0062443D01*
X0084353Y0062444D01*
X0084379Y0062439D01*
X0084574Y0062478D01*
X0084739Y0062589D01*
X008485Y0062754D01*
X0084888Y0062949D01*
X008485Y0063144D01*
X0084739Y006331D01*
X0084574Y006342D01*
X0084379Y0063459D01*
X0084183Y006342D01*
X0084018Y006331D01*
X0083908Y0063144D01*
X0083869Y0062949D01*
X0083874Y0062924D01*
X0083873Y0062913D01*
X0083871Y00629D01*
X0083868Y0062889D01*
X0083864Y0062879D01*
X0083861Y006287D01*
X0083856Y0062862D01*
X0083851Y0062854D01*
X0083395Y0062398D01*
X0080545D01*
X0080536Y00624D01*
X0080526Y0062403D01*
X0080525Y0062403D01*
Y0063D01*
X008015D01*
Y00631D01*
X008005D01*
Y00638D01*
X0079769D01*
X0079716Y0063879D01*
X0079716Y0063879D01*
X0079279Y0064316D01*
X0079225Y0064353D01*
Y00656D01*
X0079181D01*
Y006565D01*
X0079156Y0065777D01*
X0079084Y0065884D01*
X0078081Y0066887D01*
Y0067046D01*
X0078349D01*
X0078427Y0067062D01*
X0078611Y0067138D01*
X0078677Y0067182D01*
X0078818Y0067323D01*
X0078862Y0067389D01*
X0078895Y0067468D01*
X007939D01*
X0079462Y0067362D01*
X0079594Y0067273D01*
X0079636Y0067265D01*
Y0067135D01*
X0079594Y0067127D01*
X0079462Y0067038D01*
X0079373Y0066906D01*
X0079342Y006675D01*
Y006665D01*
X008D01*
X0080658D01*
Y006675D01*
X0080627Y0066906D01*
X0080538Y0067038D01*
X0080406Y0067127D01*
X0080364Y0067135D01*
Y0067265D01*
X0080406Y0067273D01*
X0080538Y0067362D01*
X0080626Y0067493D01*
X0081002D01*
X0081498Y0066998D01*
X0081613Y006692D01*
X008175Y0066893D01*
X008575D01*
X0085887Y006692D01*
X0086002Y0066998D01*
X0086252Y0067248D01*
X008633Y0067363D01*
X0086357Y00675D01*
Y00685D01*
Y00694D01*
X0086925D01*
Y0069693D01*
X0087061Y006972D01*
X0087177Y0069798D01*
X0087352Y0069973D01*
X008743Y0070089D01*
X0087451Y0070194D01*
X0087538Y0070225D01*
X0087583Y0070224D01*
D02*
G37*
G36*
X0073247Y00667D02*
X0073217Y0066699D01*
X0073188Y0066697D01*
X0073159Y0066692D01*
X0073132Y0066685D01*
X0073107Y0066676D01*
X0073082Y0066665D01*
X0073058Y0066653D01*
X0073035Y0066638D01*
X0073014Y0066621D01*
X0072993Y0066602D01*
X0072852Y0066743D01*
X0072871Y0066764D01*
X0072888Y0066785D01*
X0072903Y0066808D01*
X0072915Y0066832D01*
X0072926Y0066857D01*
X0072935Y0066882D01*
X0072942Y0066909D01*
X0072947Y0066938D01*
X0072949Y0066967D01*
X007295Y0066997D01*
X0073247Y00667D01*
D02*
G37*
G36*
X0074109Y0065351D02*
X0074124Y0065341D01*
X0074141Y0065332D01*
X0074161Y0065324D01*
X0074182Y0065318D01*
X0074206Y0065312D01*
X0074232Y0065308D01*
X007426Y0065305D01*
X0074322Y0065303D01*
Y0065003D01*
X007429Y0065002D01*
X0074232Y0064997D01*
X0074206Y0064993D01*
X0074182Y0064988D01*
X0074161Y0064981D01*
X0074141Y0064973D01*
X0074124Y0064964D01*
X0074109Y0064954D01*
X0074096Y0064943D01*
Y0065363D01*
X0074109Y0065351D01*
D02*
G37*
G36*
X007339Y0063818D02*
X0073393Y0063812D01*
X0073398Y0063804D01*
X0073406Y0063793D01*
X007343Y0063766D01*
X0073506Y0063687D01*
X0073289Y0063479D01*
X0073152Y0063604D01*
X007339Y0063822D01*
X007339Y0063818D01*
D02*
G37*
G36*
X006885Y0063053D02*
X0068856Y0062975D01*
X0068858Y0062965D01*
X0068861Y0062959D01*
X0068864Y0062954D01*
X0068867Y0062951D01*
X0068633D01*
X0068636Y0062954D01*
X0068639Y0062959D01*
X0068642Y0062965D01*
X0068644Y0062975D01*
X0068646Y0062986D01*
X0068648Y0063015D01*
X006865Y0063053D01*
X006865Y0063075D01*
X006885D01*
X006885Y0063053D01*
D02*
G37*
G36*
X0072801Y006328D02*
X0072804Y0063262D01*
X007281Y0063244D01*
X0072818Y0063224D01*
X0072829Y0063205D01*
X0072842Y0063184D01*
X0072857Y0063163D01*
X0072875Y0063141D01*
X0072917Y0063095D01*
X0072705Y0062883D01*
X0072682Y0062905D01*
X0072637Y0062943D01*
X0072616Y0062958D01*
X0072595Y0062971D01*
X0072576Y0062982D01*
X0072556Y006299D01*
X0072538Y0062996D01*
X007252Y0062999D01*
X0072503Y0063D01*
X00728Y0063297D01*
X0072801Y006328D01*
D02*
G37*
G36*
X0059585Y0062839D02*
X0059165D01*
X0059167Y0062843D01*
X0059169Y006285D01*
X005917Y006286D01*
X0059173Y0062891D01*
X0059175Y0062994D01*
X0059175Y0063029D01*
X0059575D01*
X0059585Y0062839D01*
D02*
G37*
G36*
X0084376Y0062649D02*
X0084345Y0062648D01*
X0084316Y0062646D01*
X0084288Y0062641D01*
X0084261Y0062634D01*
X0084235Y0062625D01*
X008421Y0062615D01*
X0084187Y0062602D01*
X0084164Y0062587D01*
X0084142Y006257D01*
X0084122Y0062551D01*
X0083981Y0062693D01*
X0083999Y0062713D01*
X0084016Y0062735D01*
X0084031Y0062757D01*
X0084044Y0062781D01*
X0084055Y0062806D01*
X0084064Y0062832D01*
X008407Y0062859D01*
X0084075Y0062887D01*
X0084078Y0062916D01*
X0084079Y0062946D01*
X0084376Y0062649D01*
D02*
G37*
G36*
X0080341Y0062281D02*
X0080363Y0062262D01*
X0080386Y0062246D01*
X008041Y0062232D01*
X0080435Y006222D01*
X008046Y006221D01*
X0080486Y0062202D01*
X0080512Y0062196D01*
X0080539Y0062193D01*
X0080567Y0062192D01*
Y0061992D01*
X0080539Y0061991D01*
X0080512Y0061988D01*
X0080486Y0061982D01*
X008046Y0061974D01*
X0080435Y0061965D01*
X008041Y0061952D01*
X0080386Y0061938D01*
X0080363Y0061922D01*
X0080341Y0061903D01*
X0080319Y0061882D01*
Y0062302D01*
X0080341Y0062281D01*
D02*
G37*
G36*
X0066178Y0064253D02*
X0066194Y0064146D01*
Y006375D01*
Y0055187D01*
X0065111Y0054104D01*
X0065Y005415D01*
Y005415D01*
X00638D01*
Y005415D01*
X00637D01*
Y005415D01*
X00625D01*
Y0053806D01*
X006005D01*
Y0054155D01*
X005761D01*
Y0055281D01*
X005836Y0056032D01*
X0058471Y0056197D01*
X005851Y0056393D01*
Y0061315D01*
X0058637Y0061373D01*
X0058708Y0061326D01*
X0058844Y0061299D01*
X005885D01*
Y0059575D01*
X006001D01*
Y0059575D01*
X006012D01*
Y0059575D01*
X0061263D01*
X006128Y0059575D01*
X006139D01*
X0061407Y0059575D01*
X006255D01*
Y0059894D01*
X006335D01*
Y005975D01*
X006415D01*
Y006065D01*
X006335D01*
Y0060506D01*
X006255D01*
Y0062025D01*
X0061407D01*
X006139Y0062025D01*
X006128D01*
X0061263Y0062025D01*
X0061083D01*
Y0063125D01*
X0061138Y0063162D01*
X0061226Y0063292D01*
X00618D01*
Y006305D01*
X0063D01*
Y006305D01*
X00631D01*
Y006305D01*
X00643D01*
Y006324D01*
X006475D01*
X0064781Y0063246D01*
X0064879Y0063166D01*
Y00583D01*
X0064533D01*
Y0057127D01*
X0064533Y00571D01*
Y0057D01*
X0064533Y0056973D01*
Y0055908D01*
X006425D01*
Y0056973D01*
X006425Y0057D01*
Y00571D01*
X006425Y0057127D01*
Y00583D01*
X006295D01*
Y0058108D01*
X006255D01*
Y0058425D01*
X0061407D01*
X006139Y0058425D01*
X006128D01*
X0061263Y0058425D01*
X0060137D01*
X006012Y0058425D01*
X006001D01*
X0059993Y0058425D01*
X005953D01*
Y00572D01*
Y0055975D01*
X0059993D01*
X006001Y0055975D01*
X006012D01*
X0060137Y0055975D01*
X0060292D01*
Y00558D01*
X0060292Y00558D01*
X0060323Y0055644D01*
X0060412Y0055512D01*
X0060712Y0055212D01*
X0060712Y0055212D01*
X0060844Y0055123D01*
X0061Y0055092D01*
X0061Y0055092D01*
X00635D01*
X00635Y0055092D01*
X00635Y0055092D01*
X0064949D01*
X0064949Y0055092D01*
X0065105Y0055123D01*
X0065237Y0055212D01*
X0065472Y0055446D01*
X0065472Y0055446D01*
X006556Y0055578D01*
X0065591Y0055734D01*
Y00558D01*
X0065833D01*
Y0056973D01*
X0065833Y0057D01*
Y00571D01*
X0065833Y0057127D01*
Y00583D01*
X0065491D01*
Y006321D01*
X0065566Y0063285D01*
X0065566Y0063285D01*
X0065633Y0063384D01*
X0065656Y0063501D01*
Y0063999D01*
X0065656Y0063999D01*
X0065633Y0064116D01*
X0065608Y0064153D01*
X006567Y006426D01*
X0065678Y0064269D01*
X0066071D01*
X0066178Y0064253D01*
D02*
G37*
G36*
X00732Y00536D02*
X0071279D01*
Y00546D01*
X00718D01*
Y0055001D01*
X0071993D01*
Y0055D01*
X0073007D01*
Y0055001D01*
X00732D01*
Y00536D01*
D02*
G37*
G36*
X0089143Y0057391D02*
X008922Y0057275D01*
X0092213Y0054282D01*
X0092161Y0054155D01*
X0091557D01*
Y0054221D01*
X009153Y0054358D01*
X0091452Y0054474D01*
X0089007Y0056919D01*
Y0057424D01*
X0089134Y0057437D01*
X0089143Y0057391D01*
D02*
G37*
G36*
X0089916Y0054272D02*
X0089867Y0054155D01*
X008795D01*
X0087857Y0054237D01*
Y0056165D01*
X0087974Y0056214D01*
X0089916Y0054272D01*
D02*
G37*
G36*
X0086443Y0059552D02*
Y0053283D01*
X0086443Y0053281D01*
X0086438Y0053273D01*
X0086384Y005323D01*
X0086308Y0053251D01*
X0086257Y005329D01*
Y0059107D01*
X008623Y0059244D01*
X0086152Y0059359D01*
X0084986Y0060526D01*
X0085035Y0060643D01*
X0085352D01*
X0086443Y0059552D01*
D02*
G37*
G36*
X0086951Y0053308D02*
X0086955Y0053249D01*
X008696Y0053224D01*
X0086965Y00532D01*
X0086972Y0053179D01*
X0086979Y0053159D01*
X0086988Y0053142D01*
X0086999Y0053127D01*
X008701Y0053114D01*
X008659D01*
X0086601Y0053127D01*
X0086612Y0053142D01*
X0086621Y0053159D01*
X0086628Y0053179D01*
X0086635Y00532D01*
X008664Y0053224D01*
X0086645Y0053249D01*
X0086648Y0053277D01*
X008665Y005334D01*
X008695D01*
X0086951Y0053308D01*
D02*
G37*
G36*
X0087651Y0052508D02*
X0087655Y0052449D01*
X008766Y0052424D01*
X0087665Y00524D01*
X0087672Y0052379D01*
X0087679Y0052359D01*
X0087688Y0052342D01*
X0087699Y0052327D01*
X008771Y0052314D01*
X008729D01*
X0087301Y0052327D01*
X0087312Y0052342D01*
X0087321Y0052359D01*
X0087328Y0052379D01*
X0087335Y00524D01*
X008734Y0052424D01*
X0087345Y0052449D01*
X0087348Y0052477D01*
X008735Y005254D01*
X008765D01*
X0087651Y0052508D01*
D02*
G37*
G36*
X008644Y005254D02*
X0086605Y0052429D01*
X00868Y005239D01*
X0086961Y0052422D01*
X0087039Y0052333D01*
X0087045Y0052319D01*
X0087029Y0052295D01*
X008699Y00521D01*
X0087029Y0051905D01*
X008714Y005174D01*
X0087305Y0051629D01*
X00875Y005159D01*
X0087695Y0051629D01*
X0087823Y0051714D01*
X0087872Y0051705D01*
X0087929Y0051652D01*
X008795Y0051598D01*
Y0050455D01*
X008795D01*
Y0050345D01*
X008795D01*
Y0049185D01*
X008795D01*
Y0049075D01*
X008795D01*
Y0048234D01*
X0087823Y0048182D01*
X0086257Y0049748D01*
Y0052584D01*
X0086384Y0052623D01*
X008644Y005254D01*
D02*
G37*
G36*
X00625Y004785D02*
X00625D01*
Y0047556D01*
X0057877D01*
X0057645Y0047788D01*
X0057697Y0047915D01*
X006005D01*
Y0048194D01*
X00625D01*
Y004785D01*
D02*
G37*
G36*
X0057534Y0047034D02*
X0057534Y0047034D01*
X0057633Y0046967D01*
X005775Y0046944D01*
X00625D01*
Y00466D01*
X00637D01*
X00637Y00466D01*
X00638D01*
Y00466D01*
X0063827Y00466D01*
X0065D01*
Y0046944D01*
X0065623D01*
X0065694Y0046873D01*
Y00456D01*
X006545D01*
Y0045435D01*
X0065333Y0045386D01*
X0065234Y0045484D01*
X0065127Y0045556D01*
X0065Y0045581D01*
X0064992D01*
X0064977Y0045656D01*
X0064888Y0045788D01*
X0064756Y0045877D01*
X00646Y0045908D01*
X00642D01*
X0064044Y0045877D01*
X0063912Y0045788D01*
X0063823Y0045656D01*
X0063815Y0045614D01*
X0063685D01*
X0063677Y0045656D01*
X0063588Y0045788D01*
X0063456Y0045877D01*
X00633Y0045908D01*
X00629D01*
X0062744Y0045877D01*
X0062612Y0045788D01*
X0062523Y0045656D01*
X0062492Y00455D01*
Y0045D01*
X0062523Y0044844D01*
X0062612Y0044712D01*
X0062744Y0044623D01*
X0062769Y0044618D01*
Y00439D01*
X00625D01*
Y00426D01*
X00637D01*
Y00426D01*
X00638D01*
Y00426D01*
X0063992D01*
Y0041734D01*
X005899Y0036731D01*
X0054023Y0041698D01*
Y0047915D01*
X005645D01*
Y0047951D01*
X0056567Y0048D01*
X0057534Y0047034D01*
D02*
G37*
G36*
X0070189Y0044764D02*
X007017Y0044741D01*
X0070154Y0044718D01*
X007014Y0044694D01*
X0070128Y004467D01*
X0070118Y0044645D01*
X007011Y0044619D01*
X0070104Y0044592D01*
X0070101Y0044565D01*
X00701Y0044537D01*
X00699D01*
X0069899Y0044565D01*
X0069896Y0044592D01*
X006989Y0044619D01*
X0069882Y0044645D01*
X0069872Y004467D01*
X006986Y0044694D01*
X0069846Y0044718D01*
X006983Y0044741D01*
X0069811Y0044764D01*
X006979Y0044786D01*
X007021D01*
X0070189Y0044764D01*
D02*
G37*
G36*
X0070667Y0049088D02*
Y004422D01*
X007054Y0044152D01*
X0070436Y0044222D01*
X007034Y0044241D01*
X0070282Y0044382D01*
X0070283Y0044383D01*
X0070306Y00445D01*
X0070306Y00445D01*
Y0044559D01*
X0070308Y0044569D01*
X0070311Y0044578D01*
X0070314Y0044587D01*
X0070319Y0044597D01*
X0070325Y0044606D01*
X0070332Y0044617D01*
X0070339Y0044625D01*
X007036Y004464D01*
X0070471Y0044805D01*
X007051Y0045D01*
X0070471Y0045195D01*
X007036Y004536D01*
X0070195Y0045471D01*
X007Y004551D01*
X0069805Y0045471D01*
X0069677Y0045386D01*
X006955Y0045438D01*
Y00456D01*
X0068956D01*
X006892Y004569D01*
X0068912Y0045727D01*
X0069018Y0045886D01*
X0069057Y0046081D01*
X0069018Y0046276D01*
X0068908Y0046441D01*
X0068742Y0046552D01*
X0068547Y0046591D01*
X0068352Y0046552D01*
X0068318Y0046529D01*
X0068206Y0046589D01*
Y0046793D01*
X0070549Y0049137D01*
X0070667Y0049088D01*
D02*
G37*
G36*
X0070027Y0043541D02*
X0070005Y0043561D01*
X0069982Y004358D01*
X0069959Y0043597D01*
X0069935Y0043611D01*
X0069911Y0043623D01*
X0069886Y0043633D01*
X006986Y0043641D01*
X0069833Y0043646D01*
X0069806Y0043649D01*
X0069778Y0043651D01*
Y0043851D01*
X0069806Y0043852D01*
X0069833Y0043855D01*
X006986Y004386D01*
X0069886Y0043868D01*
X0069911Y0043878D01*
X0069935Y004389D01*
X0069959Y0043904D01*
X0069982Y0043921D01*
X0070005Y004394D01*
X0070027Y0043961D01*
Y0043541D01*
D02*
G37*
G36*
X0075954Y0043892D02*
X0075834Y0043752D01*
X0075785Y0043684D01*
X0075744Y0043618D01*
X007571Y0043554D01*
X0075684Y0043492D01*
X0075665Y0043431D01*
X0075654Y0043372D01*
X007565Y0043315D01*
X007535D01*
X0075346Y0043372D01*
X0075335Y0043431D01*
X0075316Y0043492D01*
X007529Y0043554D01*
X0075256Y0043618D01*
X0075215Y0043684D01*
X0075166Y0043752D01*
X007511Y0043821D01*
X0074975Y0043964D01*
X0076025Y0043964D01*
X0075954Y0043892D01*
D02*
G37*
G36*
X0076641Y0034921D02*
X0076646Y0034886D01*
X0076653Y0034853D01*
X0076663Y0034823D01*
X0076676Y0034797D01*
X0076692Y0034773D01*
X0076711Y0034753D01*
X0076733Y0034735D01*
X0076757Y003472D01*
X0076785Y0034709D01*
X0076295D01*
X0076323Y003472D01*
X0076347Y0034735D01*
X0076369Y0034753D01*
X0076388Y0034773D01*
X0076404Y0034797D01*
X0076417Y0034823D01*
X0076427Y0034853D01*
X0076434Y0034886D01*
X0076439Y0034921D01*
X007644Y003496D01*
X007664D01*
X0076641Y0034921D01*
D02*
G37*
G36*
X0067171Y0034649D02*
X0067139Y0034615D01*
X0067113Y003458D01*
X0067092Y0034543D01*
X0067076Y0034506D01*
X0067064Y0034468D01*
X0067058Y0034428D01*
X0067057Y0034388D01*
X0067061Y0034347D01*
X0067069Y0034304D01*
X0067083Y0034261D01*
X0066641Y0034703D01*
X0066684Y0034689D01*
X0066727Y0034681D01*
X0066768Y0034677D01*
X0066808Y0034678D01*
X0066848Y0034684D01*
X0066886Y0034696D01*
X0066923Y0034712D01*
X006696Y0034733D01*
X0066995Y0034759D01*
X0067029Y0034791D01*
X0067171Y0034649D01*
D02*
G37*
G36*
X0074104Y0035143D02*
X0074117Y003509D01*
X0074138Y0035033D01*
X0074168Y0034972D01*
X0074206Y0034908D01*
X0074253Y0034841D01*
X0074308Y003477D01*
X0074444Y0034617D01*
X0074525Y0034536D01*
X0073475D01*
X0073556Y0034617D01*
X0073692Y003477D01*
X0073747Y0034841D01*
X0073794Y0034908D01*
X0073832Y0034972D01*
X0073862Y0035033D01*
X0073883Y003509D01*
X0073896Y0035143D01*
X00739Y0035193D01*
X00741D01*
X0074104Y0035143D01*
D02*
G37*
G36*
X0078345Y0034882D02*
X0078392Y0034853D01*
X0078447Y0034828D01*
X0078511Y0034806D01*
X0078584Y0034788D01*
X0078664Y0034773D01*
X0078754Y0034762D01*
X0078958Y0034751D01*
X0079073Y003475D01*
X007833Y0034007D01*
X0078329Y0034122D01*
X0078318Y0034326D01*
X0078307Y0034416D01*
X0078292Y0034496D01*
X0078274Y0034569D01*
X0078252Y0034633D01*
X0078227Y0034688D01*
X0078198Y0034735D01*
X0078165Y0034773D01*
X0078307Y0034915D01*
X0078345Y0034882D01*
D02*
G37*
G36*
X0068185D02*
X0068232Y0034853D01*
X0068287Y0034828D01*
X0068351Y0034806D01*
X0068424Y0034788D01*
X0068504Y0034773D01*
X0068594Y0034762D01*
X0068798Y0034751D01*
X0068912Y003475D01*
X006817Y0034007D01*
X0068169Y0034122D01*
X0068158Y0034326D01*
X0068147Y0034416D01*
X0068132Y0034496D01*
X0068114Y0034569D01*
X0068092Y0034633D01*
X0068067Y0034688D01*
X0068038Y0034735D01*
X0068006Y0034773D01*
X0068147Y0034915D01*
X0068185Y0034882D01*
D02*
G37*
G36*
X0064591Y0033878D02*
X0064602Y0033674D01*
X0064613Y0033584D01*
X0064628Y0033504D01*
X0064646Y0033431D01*
X0064668Y0033367D01*
X0064693Y0033312D01*
X0064722Y0033265D01*
X0064755Y0033227D01*
X0064613Y0033085D01*
X0064575Y0033118D01*
X0064528Y0033147D01*
X0064473Y0033172D01*
X0064409Y0033194D01*
X0064336Y0033212D01*
X0064256Y0033227D01*
X0064166Y0033238D01*
X0063962Y0033249D01*
X0063847Y003325D01*
X006459Y0033993D01*
X0064591Y0033878D01*
D02*
G37*
%LPC*%
G36*
X007325Y0077158D02*
X007315D01*
X0072994Y0077127D01*
X0072862Y0077038D01*
X0072773Y0076906D01*
X0072742Y007675D01*
Y00766D01*
X007325D01*
Y0077158D01*
D02*
G37*
G36*
Y00764D02*
X0072742D01*
Y007625D01*
X0072773Y0076094D01*
X0072862Y0075962D01*
X0072994Y0075873D01*
X007315Y0075842D01*
X007325D01*
Y00764D01*
D02*
G37*
G36*
X008225Y00759D02*
X0081742D01*
Y007575D01*
X0081773Y0075594D01*
X0081862Y0075462D01*
X0081994Y0075373D01*
X008215Y0075342D01*
X008225D01*
Y00759D01*
D02*
G37*
G36*
X00829Y007505D02*
X008155D01*
Y0073742D01*
X0081542Y0073734D01*
X0081423Y0073686D01*
X0081295Y0073771D01*
X00811Y007381D01*
X0080905Y0073771D01*
X008074Y007366D01*
X0080629Y0073495D01*
X008059Y00733D01*
X0080629Y0073105D01*
X008074Y007294D01*
X0080905Y0072829D01*
X00811Y007279D01*
X0081295Y0072829D01*
X008146Y007294D01*
X0081475Y0072961D01*
X0081483Y0072968D01*
X0081494Y0072975D01*
X0081503Y0072981D01*
X0081513Y0072986D01*
X0081522Y0072989D01*
X0081531Y0072992D01*
X0081541Y0072994D01*
X0081933D01*
X0081933Y0072994D01*
X008205Y0073017D01*
X0082149Y0073084D01*
X0082266Y0073201D01*
X0082266Y0073201D01*
X0082333Y00733D01*
X0082356Y0073417D01*
X0082356Y0073417D01*
Y007355D01*
X00829D01*
Y00743D01*
Y007505D01*
D02*
G37*
G36*
X00724Y0074665D02*
X00708D01*
X0070605Y0074626D01*
X007044Y0074515D01*
X0070329Y007435D01*
X007029Y0074155D01*
X0070329Y007396D01*
X007044Y0073795D01*
X0070605Y0073684D01*
X00708Y0073645D01*
X00724D01*
X0072595Y0073684D01*
X007276Y0073795D01*
X0072787Y0073834D01*
X0073231D01*
X007324Y0073832D01*
X007325Y0073829D01*
X0073259Y0073826D01*
X0073268Y0073821D01*
X0073278Y0073815D01*
X0073289Y0073808D01*
X0073297Y0073801D01*
X0073311Y007378D01*
X0073476Y0073669D01*
X0073672Y007363D01*
X0073867Y0073669D01*
X0074032Y007378D01*
X0074143Y0073945D01*
X0074181Y007414D01*
X0074143Y0074335D01*
X0074032Y0074501D01*
X0073867Y0074611D01*
X0073672Y007465D01*
X0073476Y0074611D01*
X0073311Y0074501D01*
X0073297Y0074479D01*
X0073288Y0074472D01*
X0073278Y0074465D01*
X0073268Y0074459D01*
X0073259Y0074454D01*
X0073249Y0074451D01*
X007324Y0074448D01*
X0073231Y0074446D01*
X0072807D01*
X007276Y0074515D01*
X0072595Y0074626D01*
X00724Y0074665D01*
D02*
G37*
G36*
X006575Y0074133D02*
X006565D01*
X0065494Y0074102D01*
X0065362Y0074013D01*
X0065273Y0073881D01*
X0065242Y0073725D01*
Y0073575D01*
X006575D01*
Y0074133D01*
D02*
G37*
G36*
Y0073375D02*
X0065242D01*
Y0073225D01*
X0065273Y0073069D01*
X0065362Y0072937D01*
X0065494Y0072848D01*
X006565Y0072817D01*
X006575D01*
Y0073375D01*
D02*
G37*
G36*
X00724Y0073395D02*
X00708D01*
X0070605Y0073356D01*
X007044Y0073245D01*
X0070329Y007308D01*
X007029Y0072885D01*
X0070329Y007269D01*
X007044Y0072525D01*
X0070605Y0072414D01*
X00708Y0072375D01*
X00724D01*
X0072595Y0072414D01*
X007276Y0072525D01*
X0072802Y0072587D01*
X0073223D01*
X0073231Y0072585D01*
X0073239Y0072583D01*
X0073246Y007258D01*
X0073253Y0072576D01*
X0073261Y0072571D01*
X0073269Y0072564D01*
X0073278Y0072556D01*
X0073291Y0072541D01*
X0073312Y007251D01*
X0073477Y00724D01*
X0073672Y0072361D01*
X0073867Y00724D01*
X0074032Y007251D01*
X0074143Y0072676D01*
X0074182Y0072871D01*
X0074143Y0073066D01*
X0074032Y0073231D01*
X0073867Y0073342D01*
X0073672Y0073381D01*
X0073477Y0073342D01*
X0073344Y0073253D01*
X0073343Y0073253D01*
X0073342Y0073252D01*
X0073312Y0073231D01*
X0073307Y0073225D01*
X0073298Y0073219D01*
X0073286Y0073213D01*
X0073275Y0073208D01*
X0073263Y0073204D01*
X0073252Y00732D01*
X0073242Y0073198D01*
X0072792D01*
X007276Y0073245D01*
X0072595Y0073356D01*
X00724Y0073395D01*
D02*
G37*
G36*
X006875Y007226D02*
X0068555Y0072221D01*
X006839Y007211D01*
X0068279Y0071945D01*
X006824Y007175D01*
X0068279Y0071555D01*
X006839Y007139D01*
X0068555Y0071279D01*
X006875Y007124D01*
X0068945Y0071279D01*
X0069067Y007136D01*
X0069179Y0071399D01*
X0069278Y0071332D01*
X0069395Y0071309D01*
X0070403D01*
X007044Y0071255D01*
X0070605Y0071144D01*
X00708Y0071105D01*
X00724D01*
X0072595Y0071144D01*
X007276Y0071255D01*
X0072871Y007142D01*
X007291Y0071615D01*
X0072871Y007181D01*
X007276Y0071975D01*
X0072595Y0072086D01*
X00724Y0072125D01*
X00708D01*
X0070605Y0072086D01*
X007044Y0071975D01*
X0070403Y0071921D01*
X0069521D01*
X0069476Y0071966D01*
X0069377Y0072033D01*
X006926Y0072056D01*
X006926Y0072056D01*
X0069191D01*
X0069181Y0072058D01*
X0069172Y0072061D01*
X0069163Y0072064D01*
X0069153Y0072069D01*
X0069144Y0072075D01*
X0069133Y0072082D01*
X0069125Y0072089D01*
X006911Y007211D01*
X0068945Y0072221D01*
X006875Y007226D01*
D02*
G37*
G36*
X00724Y0070855D02*
X00717D01*
Y0070445D01*
X007289D01*
X0072871Y007054D01*
X007276Y0070705D01*
X0072595Y0070816D01*
X00724Y0070855D01*
D02*
G37*
G36*
X00715D02*
X00708D01*
X0070605Y0070816D01*
X007044Y0070705D01*
X0070329Y007054D01*
X007031Y0070445D01*
X00715D01*
Y0070855D01*
D02*
G37*
G36*
X0079977Y0070735D02*
X0079477D01*
Y0070185D01*
X0079977D01*
Y0070735D01*
D02*
G37*
G36*
X007289Y0070245D02*
X00717D01*
Y0069835D01*
X00724D01*
X0072595Y0069874D01*
X007276Y0069985D01*
X0072871Y007015D01*
X007289Y0070245D01*
D02*
G37*
G36*
X0079977Y0069985D02*
X0079477D01*
Y0069435D01*
X0079977D01*
Y0069985D01*
D02*
G37*
G36*
X00639Y0069883D02*
X006375D01*
Y0069375D01*
X0064308D01*
Y0069475D01*
X0064277Y0069631D01*
X0064188Y0069763D01*
X0064056Y0069852D01*
X00639Y0069883D01*
D02*
G37*
G36*
X006355D02*
X00634D01*
X0063244Y0069852D01*
X0063112Y0069763D01*
X0063023Y0069631D01*
X0062992Y0069475D01*
Y0069375D01*
X006355D01*
Y0069883D01*
D02*
G37*
G36*
X00618Y0069883D02*
X006165D01*
Y0069375D01*
X0062208D01*
Y0069475D01*
X0062177Y0069631D01*
X0062088Y0069763D01*
X0061956Y0069852D01*
X00618Y0069883D01*
D02*
G37*
G36*
X006145D02*
X00613D01*
X0061144Y0069852D01*
X0061012Y0069763D01*
X0060923Y0069631D01*
X0060892Y0069475D01*
Y0069375D01*
X006145D01*
Y0069883D01*
D02*
G37*
G36*
X005965D02*
X00595D01*
Y0069375D01*
X0060058D01*
Y0069475D01*
X0060027Y0069631D01*
X0059938Y0069763D01*
X0059806Y0069852D01*
X005965Y0069883D01*
D02*
G37*
G36*
X00593D02*
X005915D01*
X0058994Y0069852D01*
X0058862Y0069763D01*
X0058773Y0069631D01*
X0058742Y0069475D01*
Y0069375D01*
X00593D01*
Y0069883D01*
D02*
G37*
%LPD*%
G36*
X0081336Y0073489D02*
X0081359Y007347D01*
X0081382Y0073454D01*
X0081406Y007344D01*
X008143Y0073427D01*
X0081455Y0073418D01*
X0081481Y007341D01*
X0081508Y0073404D01*
X0081535Y0073401D01*
X0081563Y00734D01*
Y00732D01*
X0081535Y0073199D01*
X0081508Y0073196D01*
X0081481Y007319D01*
X0081455Y0073182D01*
X008143Y0073173D01*
X0081406Y007316D01*
X0081382Y0073146D01*
X0081359Y007313D01*
X0081336Y0073111D01*
X0081314Y007309D01*
Y007351D01*
X0081336Y0073489D01*
D02*
G37*
G36*
X0073457Y007393D02*
X0073436Y0073951D01*
X0073413Y007397D01*
X007339Y0073986D01*
X0073366Y0074D01*
X0073341Y0074013D01*
X0073316Y0074022D01*
X007329Y007403D01*
X0073264Y0074036D01*
X0073237Y0074039D01*
X0073209Y007404D01*
X0073209Y007424D01*
X0073236Y0074241D01*
X0073264Y0074244D01*
X007329Y007425D01*
X0073316Y0074258D01*
X0073341Y0074268D01*
X0073366Y007428D01*
X007339Y0074294D01*
X0073413Y007431D01*
X0073435Y0074329D01*
X0073457Y007435D01*
X0073457Y007393D01*
D02*
G37*
G36*
X0073443Y0072677D02*
X0073423Y0072699D01*
X0073402Y0072718D01*
X007338Y0072736D01*
X0073358Y0072751D01*
X0073334Y0072764D01*
X0073309Y0072774D01*
X0073284Y0072782D01*
X0073258Y0072788D01*
X0073231Y0072791D01*
X0073202Y0072793D01*
X0073218Y0072993D01*
X0073245Y0072994D01*
X0073272Y0072997D01*
X0073299Y0073002D01*
X0073325Y0073009D01*
X0073351Y0073018D01*
X0073376Y007303D01*
X0073401Y0073043D01*
X0073426Y0073059D01*
X007345Y0073076D01*
X0073473Y0073096D01*
X0073443Y0072677D01*
D02*
G37*
G36*
X0068986Y0071939D02*
X0069009Y007192D01*
X0069032Y0071904D01*
X0069056Y007189D01*
X006908Y0071878D01*
X0069105Y0071868D01*
X0069131Y007186D01*
X0069158Y0071854D01*
X0069185Y0071851D01*
X0069213Y007185D01*
Y007165D01*
X0069185Y0071649D01*
X0069158Y0071646D01*
X0069131Y007164D01*
X0069105Y0071632D01*
X006908Y0071622D01*
X0069056Y007161D01*
X0069032Y0071596D01*
X0069009Y007158D01*
X0068986Y0071561D01*
X0068964Y007154D01*
Y007196D01*
X0068986Y0071939D01*
D02*
G37*
%LPC*%
G36*
X0080658Y006645D02*
X00801D01*
Y0065942D01*
X008025D01*
X0080406Y0065973D01*
X0080538Y0066062D01*
X0080627Y0066194D01*
X0080658Y006635D01*
Y006645D01*
D02*
G37*
G36*
X00799D02*
X0079342D01*
Y006635D01*
X0079373Y0066194D01*
X0079462Y0066062D01*
X0079594Y0065973D01*
X007975Y0065942D01*
X00799D01*
Y006645D01*
D02*
G37*
G36*
X0076525Y00638D02*
X007625D01*
Y00632D01*
X0076525D01*
Y00638D01*
D02*
G37*
G36*
X0080525D02*
X008025D01*
Y00632D01*
X0080525D01*
Y00638D01*
D02*
G37*
G36*
X0076525Y0063D02*
X007625D01*
Y00624D01*
X0076525D01*
Y0063D01*
D02*
G37*
G36*
X007265Y0056407D02*
X00726D01*
Y0056D01*
X0073007D01*
Y005605D01*
X007298Y0056187D01*
X0072902Y0056302D01*
X0072787Y005638D01*
X007265Y0056407D01*
D02*
G37*
G36*
X00724D02*
X007235D01*
X0072213Y005638D01*
X0072098Y0056302D01*
X007202Y0056187D01*
X0071993Y005605D01*
Y0056D01*
X00724D01*
Y0056407D01*
D02*
G37*
G36*
X00735Y004538D02*
Y0045D01*
X007388D01*
X0073877Y0045006D01*
X0073716Y0045216D01*
X0073506Y0045377D01*
X00735Y004538D01*
D02*
G37*
G36*
X00725Y004538D02*
X0072494Y0045377D01*
X0072284Y0045216D01*
X0072123Y0045006D01*
X007212Y0045D01*
X00725D01*
Y004538D01*
D02*
G37*
G36*
X007388Y0044D02*
X00735D01*
Y004362D01*
X0073506Y0043623D01*
X0073716Y0043784D01*
X0073877Y0043994D01*
X007388Y0044D01*
D02*
G37*
G36*
X00725D02*
X007212D01*
X0072123Y0043994D01*
X0072284Y0043784D01*
X0072494Y0043623D01*
X00725Y004362D01*
Y0044D01*
D02*
G37*
G36*
X0063738Y00629D02*
X0063543Y0062861D01*
X0063378Y0062751D01*
X0063268Y0062585D01*
X0063229Y006239D01*
X0063268Y0062195D01*
X0063347Y0062076D01*
X006335Y006195D01*
X006335D01*
Y006105D01*
X006415D01*
Y006195D01*
X006415Y006195D01*
X0064131Y0062077D01*
X0064209Y0062195D01*
X0064248Y006239D01*
X0064209Y0062585D01*
X0064099Y0062751D01*
X0063934Y0062861D01*
X0063738Y00629D01*
D02*
G37*
G36*
X005933Y0058425D02*
X005885D01*
Y00573D01*
X005933D01*
Y0058425D01*
D02*
G37*
G36*
Y00571D02*
X005885D01*
Y0055975D01*
X005933D01*
Y00571D01*
D02*
G37*
%LPD*%
G36*
X0063941Y0062167D02*
X0063932Y0062152D01*
X0063923Y0062135D01*
X0063915Y0062115D01*
X0063909Y0062094D01*
X0063904Y006207D01*
X0063899Y0062044D01*
X0063897Y0062016D01*
X0063894Y0061954D01*
X0063594Y0061947D01*
X0063594Y0061979D01*
X0063589Y0062037D01*
X0063584Y0062063D01*
X0063579Y0062087D01*
X0063572Y0062108D01*
X0063564Y0062127D01*
X0063555Y0062144D01*
X0063544Y0062159D01*
X0063533Y0062172D01*
X0063953Y006218D01*
X0063941Y0062167D01*
D02*
G37*
%LPC*%
G36*
X0073007Y00548D02*
X00726D01*
Y0054393D01*
X007265D01*
X0072787Y005442D01*
X0072902Y0054498D01*
X007298Y0054613D01*
X0073007Y005475D01*
Y00548D01*
D02*
G37*
G36*
X00724D02*
X0071993D01*
Y005475D01*
X007202Y0054613D01*
X0072098Y0054498D01*
X0072213Y005442D01*
X007235Y0054393D01*
X00724D01*
Y00548D01*
D02*
G37*
%LPD*%
D11*
X008415Y00685D02*
X0086D01*
X0084127Y0070085D02*
X008415Y0070062D01*
Y00685D02*
Y0070062D01*
X007775Y006675D02*
Y006775D01*
X007885Y00649D02*
Y006565D01*
X007775Y006675D02*
X007885Y006565D01*
X00644Y004525D02*
X0065D01*
X00655Y004475D02*
X0066D01*
X0065Y004525D02*
X00655Y004475D01*
X00631Y004325D02*
Y004425D01*
Y004525D01*
Y004425D02*
X0066D01*
D17*
X00766Y003648D02*
X007908Y0034D01*
X0070973Y0042702D02*
Y0061252D01*
X00766Y003648D02*
Y0037249D01*
X0072249Y00416D02*
X00766Y0037249D01*
X0072074Y00416D02*
X0072249D01*
X0070973Y0042702D02*
X0072074Y00416D01*
X006875Y007175D02*
X006926D01*
X0069395Y0071615D01*
X00716D01*
X0065275Y0065658D02*
X0065392Y0065775D01*
X0065275Y0064074D02*
Y0065658D01*
Y0064074D02*
X006535Y0063999D01*
Y0063501D02*
Y0063999D01*
X0065185Y0063337D02*
X006535Y0063501D01*
X0065185Y0057702D02*
Y0063337D01*
X008285Y00685D02*
Y0070062D01*
X0082827Y0070085D02*
X008285Y0070062D01*
X0082102Y0070085D02*
X0082827D01*
X0081377D02*
X0082102D01*
X008205Y00717D02*
X0082102Y0071648D01*
Y0070085D02*
Y0071648D01*
X00811Y00733D02*
X0081933D01*
X008205Y0073417D02*
Y00743D01*
X0081933Y00733D02*
X008205Y0073417D01*
X006895Y00448D02*
X0069Y004475D01*
X0068526Y00448D02*
X006895D01*
X006835Y0044976D02*
X0068526Y00448D01*
X006835Y0044976D02*
Y0045775D01*
X0068547Y0045973D01*
Y0046081D01*
X0080104Y0062092D02*
X0083521D01*
X0084379Y0062949D01*
X0078551Y00641D02*
X0079063D01*
X0069875Y0066175D02*
X0076476D01*
X00795Y00631D02*
Y0063663D01*
X0079063Y00641D02*
X00795Y0063663D01*
X0076476Y0066175D02*
X0078551Y00641D01*
X0071607Y0072893D02*
X0073659D01*
X0073681Y0072871D01*
X00716Y0072885D02*
X0071607Y0072893D01*
X0071615Y007414D02*
X0073671D01*
X0073672Y007414D01*
X00716Y0074155D02*
X0071615Y007414D01*
X0065183Y00577D02*
X0065185Y0057702D01*
X0065392Y0065775D02*
X0065925D01*
X0071Y0065031D02*
X007125Y0064781D01*
Y0061529D02*
Y0064781D01*
X0071Y0065031D02*
Y0065031D01*
X0070656Y0065375D02*
X0071Y0065031D01*
X0070973Y0061252D02*
X007125Y0061529D01*
X007085Y0061695D02*
Y006449D01*
X0070573Y0061418D02*
X007085Y0061695D01*
X0069875Y0064975D02*
X0070365D01*
X0070573Y0049593D02*
Y0061418D01*
X0070365Y0064975D02*
X007085Y006449D01*
X00679Y004692D02*
X0070573Y0049593D01*
X007015Y0061561D02*
X007045Y0061861D01*
X007015Y0049736D02*
Y0061561D01*
X00675Y0047086D02*
X007015Y0049736D01*
X0069875Y0064575D02*
X0070133D01*
X007045Y0064258D01*
Y0061861D02*
Y0064258D01*
X0069306Y006375D02*
X007005Y0063006D01*
X00693Y006375D02*
X0069306D01*
X007005Y0062026D02*
Y0063006D01*
X00693Y006375D02*
Y0064D01*
X006975Y0049901D02*
Y0061726D01*
X00671Y0047251D02*
X006975Y0049901D01*
Y0061726D02*
X007005Y0062026D01*
X0069Y004375D02*
X0069001Y0043751D01*
X0070241D01*
X006975Y004425D02*
X007Y00445D01*
X0069Y004425D02*
X006975D01*
X007Y00445D02*
Y0045D01*
X00689Y0068366D02*
X0069448Y0068914D01*
X0071479D01*
X007145Y006795D02*
X0075115Y0071615D01*
X0070627Y00695D02*
X0070662Y0069535D01*
X00681Y00692D02*
X00689Y007D01*
X0068Y0069978D02*
Y007D01*
X006715Y006875D02*
Y0070475D01*
X00664Y0069725D02*
Y0070475D01*
X006565Y0069616D02*
X00669Y0068366D01*
X006565Y0069616D02*
Y0071475D01*
X00677Y0069678D02*
X0068Y0069978D01*
X0069469Y00695D02*
X0070627D01*
X00685Y0068531D02*
X0069469Y00695D01*
X006565Y0071475D02*
X006585Y0071675D01*
X006715Y006875D02*
X00673Y00686D01*
X00677Y006795D02*
Y0069678D01*
X0075115Y0071615D02*
X00764D01*
X00693Y006795D02*
X007145D01*
X0069875Y0065775D02*
X0076D01*
X007615Y00649D02*
Y0065625D01*
X0076Y0065775D02*
X007615Y0065625D01*
X007654Y0034D02*
Y003496D01*
X00745Y0037D02*
X007654Y003496D01*
X0069Y00425D02*
X00745Y0037D01*
Y0037D02*
Y0037D01*
X0069Y00425D02*
Y004375D01*
X00685Y006795D02*
Y0068531D01*
X00681Y006795D02*
Y00692D01*
X00689Y006795D02*
Y0068366D01*
X006851Y004425D02*
X0069D01*
X006835Y004409D02*
X006851Y004425D01*
X00673Y006795D02*
Y00686D01*
X0069875Y0066575D02*
X0072825D01*
X007325Y0067D01*
X0069875Y0066975D02*
X007223D01*
X00756Y0070345D01*
X00764D01*
X0069875Y0067375D02*
X0071775D01*
X00724Y0068D01*
X0069875Y0065375D02*
X0070656D01*
X0063493Y0066975D02*
X0065925D01*
X006155Y0067975D02*
X0062493D01*
X0063493Y0066975D01*
X00679Y003502D02*
X006892Y0034D01*
X00679Y003502D02*
Y004692D01*
X00675Y0033635D02*
Y0047086D01*
X0066815Y003295D02*
X00675Y0033635D01*
X006638Y0034D02*
X00671Y003472D01*
Y0047251D01*
X006835Y0042499D02*
Y004409D01*
X006225Y00602D02*
X006375D01*
X006197Y006048D02*
X006225Y00602D01*
X006197Y006048D02*
Y00608D01*
X0059517Y00665D02*
X00645D01*
X0064825Y0066175D02*
X0065925D01*
X00645Y00665D02*
X0064825Y0066175D01*
X00594Y00657D02*
Y0066383D01*
X0059517Y00665D01*
X00685Y0063325D02*
Y0064D01*
Y0063325D02*
X006875Y0063075D01*
Y0062675D02*
Y0063075D01*
X0065925Y0066575D02*
Y0066975D01*
X00644Y00485D02*
X006494D01*
X00681Y005166D01*
X00677Y005251D02*
Y0064D01*
X006494Y004975D02*
X00677Y005251D01*
X00665Y005506D02*
Y0064D01*
X00673Y005336D02*
Y0064D01*
X00644Y0051D02*
X006494D01*
Y005225D02*
X00669Y005421D01*
X006494Y00535D02*
X00665Y005506D01*
X00644Y005225D02*
X006494D01*
Y0051D02*
X00673Y005336D01*
X00644Y004975D02*
X006494D01*
X006489Y003295D02*
X0066815D01*
X006384Y0034D02*
X006489Y003295D01*
X00664Y0070475D02*
X00664Y0070475D01*
X006585Y0071675D02*
X00664D01*
X006365Y0067975D02*
X00637D01*
X00643Y0067375D01*
X00669Y006795D02*
Y0068366D01*
X00643Y0067375D02*
X0065925D01*
X006715Y0071675D02*
Y0073475D01*
Y0075475D01*
X00681Y005166D02*
Y0064D01*
X00669Y005421D02*
Y0064D01*
X00644Y00535D02*
X006494D01*
X0074Y0034D02*
Y0036849D01*
X006835Y0042499D02*
X0074Y0036849D01*
X00552Y0048495D02*
X0055205Y00485D01*
X005775Y004725D02*
X00631D01*
X00565Y00485D02*
X005775Y004725D01*
X0055205Y00485D02*
X00565D01*
X00644Y004725D02*
X006575D01*
X0066Y004525D02*
Y0047D01*
X006575Y004725D02*
X0066Y0047D01*
X0058805Y00485D02*
X00631D01*
X00588Y0048495D02*
X0058805Y00485D01*
X0058875Y00535D02*
X00631D01*
X00588Y0053575D02*
X0058875Y00535D01*
X0058855Y005225D02*
X00631D01*
X00588Y0052305D02*
X0058855Y005225D01*
X0058835Y0051D02*
X00631D01*
X00588Y0051035D02*
X0058835Y0051D01*
X0058815Y004975D02*
X00631D01*
X00588Y0049765D02*
X0058815Y004975D01*
D40*
X00865Y007415D02*
D03*
X008555D02*
D03*
D41*
X0082827Y0070085D02*
D03*
X0084127D02*
D03*
X0080077D02*
D03*
X0081377D02*
D03*
X00607Y00657D02*
D03*
X00594D02*
D03*
X00637D02*
D03*
X00624D02*
D03*
X00637Y00637D02*
D03*
X00624D02*
D03*
X00644Y004725D02*
D03*
X00631D02*
D03*
X00644Y004325D02*
D03*
X00631D02*
D03*
X00631Y00485D02*
D03*
X00644D02*
D03*
X00631Y005225D02*
D03*
X00644D02*
D03*
X00631Y00535D02*
D03*
X00644D02*
D03*
X00631Y0051D02*
D03*
X00644D02*
D03*
X00631Y004975D02*
D03*
X00644D02*
D03*
D42*
X008415Y00685D02*
D03*
X008285D02*
D03*
X005935Y00637D02*
D03*
X006065D02*
D03*
X006585Y0073475D02*
D03*
X006715D02*
D03*
X007335Y00765D02*
D03*
X007465D02*
D03*
X00644Y004525D02*
D03*
X00631D02*
D03*
X008235Y0076D02*
D03*
X008365D02*
D03*
D43*
X0086Y007175D02*
D03*
Y007005D02*
D03*
D44*
X00725Y00549D02*
D03*
Y00559D02*
D03*
D45*
X007885Y00631D02*
D03*
X00795D02*
D03*
X008015D02*
D03*
Y00649D02*
D03*
X007885D02*
D03*
X007485Y00631D02*
D03*
X00755D02*
D03*
X007615D02*
D03*
Y00649D02*
D03*
X007485D02*
D03*
D46*
X006925Y003115D02*
D03*
Y002985D02*
D03*
X006365Y0067975D02*
D03*
Y0069275D02*
D03*
X006155Y0069275D02*
D03*
Y0067975D02*
D03*
X00594Y0069275D02*
D03*
Y0067975D02*
D03*
X008Y006655D02*
D03*
Y006785D02*
D03*
D47*
X00679Y0065975D02*
D03*
D48*
X00665Y006795D02*
D03*
X00669D02*
D03*
X00673D02*
D03*
X00677D02*
D03*
X00681D02*
D03*
X00685D02*
D03*
X00689D02*
D03*
X00693D02*
D03*
Y0064D02*
D03*
X00689D02*
D03*
X00685D02*
D03*
X00681D02*
D03*
X00677D02*
D03*
X00673D02*
D03*
X00669D02*
D03*
X00665D02*
D03*
D49*
X0069875Y0067375D02*
D03*
Y0066975D02*
D03*
Y0066575D02*
D03*
Y0066175D02*
D03*
Y0065775D02*
D03*
Y0065375D02*
D03*
Y0064975D02*
D03*
Y0064575D02*
D03*
X0065925D02*
D03*
Y0064975D02*
D03*
Y0065375D02*
D03*
Y0065775D02*
D03*
Y0066175D02*
D03*
Y0066575D02*
D03*
Y0066975D02*
D03*
Y0067375D02*
D03*
D50*
X00636Y00564D02*
D03*
Y00577D02*
D03*
X0065183D02*
D03*
Y00564D02*
D03*
D51*
X006375Y00602D02*
D03*
Y00615D02*
D03*
D52*
X005943Y00572D02*
D03*
X00607D02*
D03*
X006197D02*
D03*
X005943Y00608D02*
D03*
X00607D02*
D03*
X006197D02*
D03*
D53*
X00716Y0074155D02*
D03*
Y0072885D02*
D03*
Y0071615D02*
D03*
Y0070345D02*
D03*
X00764Y0074155D02*
D03*
Y0072885D02*
D03*
Y0071615D02*
D03*
Y0070345D02*
D03*
D54*
X00664Y0071675D02*
D03*
Y0070475D02*
D03*
X006715D02*
D03*
Y0071675D02*
D03*
D55*
Y0075475D02*
D03*
X006575D02*
D03*
D56*
X00552Y0053575D02*
D03*
X00588D02*
D03*
Y0048495D02*
D03*
X00552D02*
D03*
X00588Y0049765D02*
D03*
X00552D02*
D03*
X00588Y0051035D02*
D03*
X00552D02*
D03*
X00588Y0052305D02*
D03*
X00552D02*
D03*
X00892D02*
D03*
X00928D02*
D03*
X00892Y0051035D02*
D03*
X00928D02*
D03*
X00892Y0049765D02*
D03*
X00928D02*
D03*
X00892Y0048495D02*
D03*
X00928D02*
D03*
Y0053575D02*
D03*
X00892D02*
D03*
D57*
X0066Y004375D02*
D03*
Y004425D02*
D03*
Y004475D02*
D03*
Y004525D02*
D03*
X0069D02*
D03*
Y004475D02*
D03*
Y004425D02*
D03*
Y004375D02*
D03*
D58*
X008395Y00743D02*
D03*
X0083D02*
D03*
X008205D02*
D03*
Y00717D02*
D03*
X008395D02*
D03*
D59*
X00571Y0050116D02*
Y0055493D01*
X0053865Y0049765D02*
X00552D01*
X00571Y0055493D02*
X0058Y0056393D01*
X0056749Y0049765D02*
X00571Y0050116D01*
X00552Y0049765D02*
X0056749D01*
X0075Y00305D02*
Y0032D01*
X0074351Y0029851D02*
X0075Y00305D01*
X0071808Y0029851D02*
X0074351D01*
X006925Y002985D02*
X0071057D01*
X0071058Y0029851D01*
X006515Y002985D02*
X006925D01*
X0071058Y0029851D02*
X0071808D01*
X00637Y00637D02*
X006375Y006375D01*
X006475D01*
X008365Y0076D02*
Y00766D01*
Y0075207D02*
Y0076D01*
Y0075207D02*
X008395Y0074907D01*
Y00743D02*
Y0074907D01*
X0079Y00765D02*
X008075D01*
X008125Y0077D01*
X008325D01*
X008365Y00766D01*
X0079Y007325D02*
Y00765D01*
X00764D02*
X0079D01*
X007465D02*
X00764D01*
X005795Y006375D02*
Y0067988D01*
Y0061631D02*
Y006375D01*
X0057D02*
X005795D01*
Y0067988D02*
Y007085D01*
X0062575Y0075475D01*
X0058917Y0036083D02*
X006515Y002985D01*
X0053514Y0041486D02*
X0058917Y0036083D01*
X00764Y0074155D02*
Y00765D01*
Y0072885D02*
Y0074155D01*
X007465Y00765D02*
Y007735D01*
X0074Y0078D02*
X007465Y007735D01*
X00675Y0078D02*
X0074D01*
X006582Y007632D02*
X00675Y0078D01*
X006582Y0075545D02*
Y007632D01*
X006575Y0075475D02*
X006582Y0075545D01*
X0062575Y0075475D02*
X006575D01*
X0058Y0056393D02*
Y0061581D01*
X005795Y0061631D02*
X0058Y0061581D01*
X0053514Y0041486D02*
Y0049414D01*
X0053865Y0049765D01*
D60*
X0089473Y0057527D02*
X0092552Y0054448D01*
X0089473Y0069922D02*
X009Y0070449D01*
X0089473Y0057527D02*
Y0069922D01*
X009Y0070449D02*
Y00705D01*
X0092552Y0054448D02*
X0094095D01*
X00949Y0053643D01*
Y00409D02*
Y0053643D01*
X00871Y0070226D02*
Y0073949D01*
X0086Y007005D02*
X0086Y007005D01*
X0086924D01*
X00871Y0070226D01*
X0086525Y0074125D02*
X0086924D01*
X00871Y0073949D01*
X00865Y007415D02*
X0086525Y0074125D01*
X00841Y007415D02*
X008555D01*
X008395Y00743D02*
X00841Y007415D01*
X00734Y0063093D02*
Y0063581D01*
X00731Y0063881D02*
Y00639D01*
Y0063881D02*
X00734Y0063581D01*
X00868Y00529D02*
Y00597D01*
X00762Y0061D02*
X00855D01*
X00868Y00597D01*
X00859Y00496D02*
Y0059107D01*
X00854Y0049393D02*
Y00589D01*
X00843Y006D02*
X00854Y00589D01*
Y0049393D02*
X0087593Y00472D01*
X0084507Y00605D02*
X00859Y0059107D01*
Y00496D02*
X00878Y00477D01*
X00875Y00521D02*
Y00613D01*
X0088Y0056693D02*
X0090388Y0054305D01*
X0088Y0056693D02*
Y00685D01*
X0090388Y0054305D02*
X0090395D01*
X00907Y0054D01*
X00839Y00649D02*
X00875Y00613D01*
X00692Y004525D02*
Y00457D01*
X00695Y0046D01*
X0069Y004525D02*
X00692D01*
X00755Y0039D02*
Y00445D01*
X00785Y0036D02*
X009D01*
X00755Y0039D02*
X00785Y0036D01*
X0063744Y0061506D02*
X006375Y00615D01*
X0063744Y0061506D02*
Y0062385D01*
X0063738Y006239D02*
X0063744Y0062385D01*
X0079975Y0067825D02*
X008Y006785D01*
X0078325Y0067825D02*
X0079975D01*
X00783Y00678D02*
X0078325Y0067825D01*
X0086Y00685D02*
Y007005D01*
Y00675D02*
Y00685D01*
X008575Y006725D02*
X0086Y00675D01*
X008175Y006725D02*
X008575D01*
X008Y006785D02*
X008115D01*
X008175Y006725D01*
X0075786Y006D02*
X00843D01*
X008865Y0056771D02*
Y0068769D01*
X00729Y0062886D02*
Y00629D01*
X00725Y00633D02*
Y00633D01*
X00912Y0047863D02*
Y0054221D01*
X00725Y00633D02*
X00729Y00629D01*
Y0062886D02*
X0075786Y006D01*
X0088002Y0069417D02*
X008865Y0068769D01*
Y0056771D02*
X00912Y0054221D01*
X0088Y00705D02*
X0088002Y0070498D01*
X0087593Y00472D02*
X0090537D01*
X00912Y0047863D01*
X0088002Y0069417D02*
Y0070498D01*
X009Y0036D02*
X00949Y00409D01*
X00755Y00445D02*
X00755Y00445D01*
X00734Y0063093D02*
X0075993Y00605D01*
X0084507D01*
X00878Y00477D02*
X009033D01*
X00907Y004807D01*
Y0054D01*
X00755Y00617D02*
Y00631D01*
Y00617D02*
X00762Y0061D01*
X008015Y00649D02*
X00839D01*
X007485D02*
Y0065128D01*
X0074825Y0065153D02*
X007485Y0065128D01*
X0073882Y0065153D02*
X0074825D01*
X005943Y00608D02*
Y0061426D01*
X00586Y00619D02*
Y0064178D01*
X00592Y0061656D02*
X005943Y0061426D01*
X0058844Y0061656D02*
X00592D01*
X00586Y00619D02*
X0058844Y0061656D01*
X0059122Y00647D02*
X00604D01*
X00586Y0064178D02*
X0059122Y00647D01*
X00604D02*
X006067Y006497D01*
Y006567D01*
X00607Y00657D01*
X00624D01*
D61*
X008395Y00717D02*
X0083975Y0071725D01*
X0085975D01*
X0086Y007175D01*
X005795Y0067988D02*
X0059388D01*
X00644Y0041565D02*
Y004325D01*
X0058917Y0036083D02*
X00644Y0041565D01*
Y004325D02*
X00654D01*
X006585Y00437D01*
X0059388Y0067988D02*
X00594Y0067975D01*
X0059375Y0062625D02*
Y0063675D01*
X005935Y00637D02*
X0059375Y0063675D01*
X006275Y006475D02*
X0063466D01*
X00637Y0064984D02*
Y00657D01*
X0063466Y006475D02*
X00637Y0064984D01*
X00624Y00644D02*
X006275Y006475D01*
X00624Y00637D02*
Y00644D01*
X006065Y00637D02*
X00624D01*
X0060675Y0060825D02*
X00607Y00608D01*
X0060675Y0060825D02*
Y0063675D01*
X006065Y00637D02*
X0060675Y0063675D01*
X00635Y00555D02*
X0064949D01*
X0061D02*
X00635D01*
X00636Y00556D02*
Y00564D01*
X00635Y00555D02*
X00636Y00556D01*
X0065183Y0055734D02*
Y00564D01*
X0064949Y00555D02*
X0065183Y0055734D01*
X00607Y00558D02*
Y00572D01*
Y00558D02*
X0061Y00555D01*
X006215Y00577D02*
X00636D01*
X006197Y005752D02*
X006215Y00577D01*
X006197Y00572D02*
Y005752D01*
X00594Y0067975D02*
X006155D01*
D62*
X0073Y00445D02*
D03*
X006384Y0034D02*
D03*
X006638D02*
D03*
X007908D02*
D03*
X006892D02*
D03*
X007146D02*
D03*
X007654D02*
D03*
X0074D02*
D03*
X008162D02*
D03*
X008416D02*
D03*
X00755Y00445D02*
D03*
D63*
X00945Y0059325D02*
D03*
X00535D02*
D03*
D64*
X0088Y0073075D02*
D03*
X0086D02*
D03*
X0066Y0048D02*
D03*
X00868Y00529D02*
D03*
X00875Y00521D02*
D03*
X0061Y0076D02*
D03*
X0069415Y0046596D02*
D03*
X0070211Y0042384D02*
D03*
X00795Y0038D02*
D03*
X006875Y007175D02*
D03*
X008025Y00305D02*
D03*
X0069231Y0032268D02*
D03*
Y0028925D02*
D03*
X0075Y0032D02*
D03*
X0071058Y0029851D02*
D03*
X0071808D02*
D03*
X0063738Y006239D02*
D03*
X006475Y006375D02*
D03*
X0068547Y0046081D02*
D03*
X0061322Y0054493D02*
D03*
X0084379Y0062949D02*
D03*
X0080104Y0062092D02*
D03*
X0085975Y0075102D02*
D03*
X0062Y0073D02*
D03*
X0060467Y0067102D02*
D03*
X0078Y0072D02*
D03*
X0088475Y0054873D02*
D03*
X0052Y0051D02*
D03*
X0076258Y0048595D02*
D03*
X0074Y0042D02*
D03*
X0062414Y003446D02*
D03*
X00665Y0032D02*
D03*
X0071847Y0028925D02*
D03*
X00665Y0029D02*
D03*
X0062Y0031D02*
D03*
X0058Y0035D02*
D03*
X0057Y004D02*
D03*
X0055Y0038D02*
D03*
Y0042D02*
D03*
X0052D02*
D03*
Y0046D02*
D03*
X0055D02*
D03*
X0061D02*
D03*
X0056Y0055D02*
D03*
X0081Y0078D02*
D03*
X0076D02*
D03*
X0071Y0079D02*
D03*
X0066Y0078D02*
D03*
X0064Y0077D02*
D03*
X0059Y0074D02*
D03*
X0057Y007D02*
D03*
Y0067D02*
D03*
X0068985Y0076904D02*
D03*
X0077571Y0075509D02*
D03*
X0081Y0075D02*
D03*
X0087Y0064D02*
D03*
X0085Y0062D02*
D03*
Y0066D02*
D03*
X0080977Y0066644D02*
D03*
X0076Y0067D02*
D03*
X0064271Y0058977D02*
D03*
X0065078Y0054751D02*
D03*
X0093Y0046D02*
D03*
Y0041D02*
D03*
X0091Y0039D02*
D03*
X0089Y0037D02*
D03*
X0086D02*
D03*
Y0034D02*
D03*
X0089D02*
D03*
X0092Y0036D02*
D03*
X0095Y004D02*
D03*
X0094Y0038D02*
D03*
X0096Y0042072D02*
D03*
Y0046D02*
D03*
Y005D02*
D03*
Y0053895D02*
D03*
X0083Y00485D02*
D03*
X00815Y0047D02*
D03*
Y0045D02*
D03*
Y00425D02*
D03*
X00835Y0041D02*
D03*
Y00425D02*
D03*
Y00395D02*
D03*
Y0038D02*
D03*
X00815D02*
D03*
X00775D02*
D03*
Y00395D02*
D03*
Y0041D02*
D03*
X00795Y00425D02*
D03*
X00775D02*
D03*
X00795Y0045D02*
D03*
X00785Y0047D02*
D03*
X008Y00485D02*
D03*
X007185Y0064731D02*
D03*
X0072998Y0065154D02*
D03*
X00725Y00633D02*
D03*
X00731Y00639D02*
D03*
X0074D02*
D03*
X009Y00705D02*
D03*
X0088Y00685D02*
D03*
Y00705D02*
D03*
X0063Y0039D02*
D03*
X0076Y0037D02*
D03*
X0074Y0039D02*
D03*
X0072145Y0037085D02*
D03*
X0072033Y0040651D02*
D03*
X0072Y0047D02*
D03*
Y00765D02*
D03*
X006875Y00735D02*
D03*
X00646D02*
D03*
X00637Y00708D02*
D03*
X00615D02*
D03*
X00594D02*
D03*
X0057Y006375D02*
D03*
X0073882Y0065153D02*
D03*
X0079Y007325D02*
D03*
X007725Y006775D02*
D03*
X00783Y00678D02*
D03*
X0072481Y0054084D02*
D03*
X007159D02*
D03*
X0073672Y0072871D02*
D03*
X0073672Y007414D02*
D03*
X00658Y0062D02*
D03*
Y0059D02*
D03*
X0062Y0042D02*
D03*
X006Y0039D02*
D03*
X0061Y0036D02*
D03*
X00651Y00415D02*
D03*
X00665Y00385D02*
D03*
X0070241Y0043751D02*
D03*
X0071479Y0068914D02*
D03*
X0070662Y0069535D02*
D03*
X00689Y007D02*
D03*
X0068D02*
D03*
X00664Y0069725D02*
D03*
X00651Y00693D02*
D03*
X007Y0045D02*
D03*
X00594Y00554D02*
D03*
Y0059D02*
D03*
X00811Y00733D02*
D03*
X007325Y0067D02*
D03*
X00724Y0068D02*
D03*
X0059375Y0062625D02*
D03*
X006875Y0062675D02*
D03*
X00665Y00415D02*
D03*
Y00355D02*
D03*
X00685Y00415D02*
D03*
Y00355D02*
D03*
Y00385D02*
D03*
D65*
X00679Y0065975D02*
D03*
M02*
