G04*
G04 #@! TF.GenerationSoftware,Altium Limited,Altium Designer,20.1.8 (145)*
G04*
G04 Layer_Color=8388736*
%FSTAX43Y43*%
%MOMM*%
G71*
G04*
G04 #@! TF.SameCoordinates,C49A0B41-0C8C-4AB0-A7A6-883BC44C46A5*
G04*
G04*
G04 #@! TF.FilePolarity,Negative*
G04*
G01*
G75*
%ADD18R,0.550X0.700*%
%ADD19R,0.900X1.000*%
G04:AMPARAMS|DCode=20|XSize=1mm|YSize=0.9mm|CornerRadius=0.25mm|HoleSize=0mm|Usage=FLASHONLY|Rotation=90.000|XOffset=0mm|YOffset=0mm|HoleType=Round|Shape=RoundedRectangle|*
%AMROUNDEDRECTD20*
21,1,1.000,0.400,0,0,90.0*
21,1,0.500,0.900,0,0,90.0*
1,1,0.500,0.200,0.250*
1,1,0.500,0.200,-0.250*
1,1,0.500,-0.200,-0.250*
1,1,0.500,-0.200,0.250*
%
%ADD20ROUNDEDRECTD20*%
%ADD21R,1.550X1.000*%
G04:AMPARAMS|DCode=22|XSize=0.7mm|YSize=0.7mm|CornerRadius=0.2mm|HoleSize=0mm|Usage=FLASHONLY|Rotation=0.000|XOffset=0mm|YOffset=0mm|HoleType=Round|Shape=RoundedRectangle|*
%AMROUNDEDRECTD22*
21,1,0.700,0.300,0,0,0.0*
21,1,0.300,0.700,0,0,0.0*
1,1,0.400,0.150,-0.150*
1,1,0.400,-0.150,-0.150*
1,1,0.400,-0.150,0.150*
1,1,0.400,0.150,0.150*
%
%ADD22ROUNDEDRECTD22*%
%ADD23R,0.450X1.100*%
G04:AMPARAMS|DCode=24|XSize=1mm|YSize=0.9mm|CornerRadius=0.25mm|HoleSize=0mm|Usage=FLASHONLY|Rotation=0.000|XOffset=0mm|YOffset=0mm|HoleType=Round|Shape=RoundedRectangle|*
%AMROUNDEDRECTD24*
21,1,1.000,0.400,0,0,0.0*
21,1,0.500,0.900,0,0,0.0*
1,1,0.500,0.250,-0.200*
1,1,0.500,-0.250,-0.200*
1,1,0.500,-0.250,0.200*
1,1,0.500,0.250,0.200*
%
%ADD24ROUNDEDRECTD24*%
%ADD25R,3.000X3.000*%
%ADD26O,0.300X0.800*%
%ADD27O,0.800X0.300*%
%ADD28R,1.000X0.900*%
%ADD29R,0.500X0.600*%
%ADD30R,0.860X2.150*%
%ADD31O,2.300X0.700*%
%ADD32R,0.600X0.450*%
%ADD33R,0.950X0.950*%
%ADD34R,2.200X0.860*%
%ADD35R,0.800X0.400*%
%ADD36R,0.700X1.200*%
%ADD37C,1.600*%
%ADD38C,8.100*%
%ADD39C,0.903*%
D18*
X00865Y007415D02*
D03*
X008555D02*
D03*
D19*
X0082827Y0070085D02*
D03*
X0084127D02*
D03*
X0080077D02*
D03*
X0081377D02*
D03*
X00607Y00657D02*
D03*
X00594D02*
D03*
X00637D02*
D03*
X00624D02*
D03*
X00637Y00637D02*
D03*
X00624D02*
D03*
X00644Y004725D02*
D03*
X00631D02*
D03*
X00644Y004325D02*
D03*
X00631D02*
D03*
X00631Y00485D02*
D03*
X00644D02*
D03*
X00631Y005225D02*
D03*
X00644D02*
D03*
X00631Y00535D02*
D03*
X00644D02*
D03*
X00631Y0051D02*
D03*
X00644D02*
D03*
X00631Y004975D02*
D03*
X00644D02*
D03*
D20*
X008415Y00685D02*
D03*
X008285D02*
D03*
X005935Y00637D02*
D03*
X006065D02*
D03*
X006585Y0073475D02*
D03*
X006715D02*
D03*
X007335Y00765D02*
D03*
X007465D02*
D03*
X00644Y004525D02*
D03*
X00631D02*
D03*
X008235Y0076D02*
D03*
X008365D02*
D03*
D21*
X0086Y007175D02*
D03*
Y007005D02*
D03*
D22*
X00725Y00549D02*
D03*
Y00559D02*
D03*
D23*
X007885Y00631D02*
D03*
X00795D02*
D03*
X008015D02*
D03*
Y00649D02*
D03*
X007885D02*
D03*
X007485Y00631D02*
D03*
X00755D02*
D03*
X007615D02*
D03*
Y00649D02*
D03*
X007485D02*
D03*
D24*
X006925Y003115D02*
D03*
Y002985D02*
D03*
X006365Y0067975D02*
D03*
Y0069275D02*
D03*
X006155Y0069275D02*
D03*
Y0067975D02*
D03*
X00594Y0069275D02*
D03*
Y0067975D02*
D03*
X008Y006655D02*
D03*
Y006785D02*
D03*
D25*
X00679Y0065975D02*
D03*
D26*
X00665Y006795D02*
D03*
X00669D02*
D03*
X00673D02*
D03*
X00677D02*
D03*
X00681D02*
D03*
X00685D02*
D03*
X00689D02*
D03*
X00693D02*
D03*
Y0064D02*
D03*
X00689D02*
D03*
X00685D02*
D03*
X00681D02*
D03*
X00677D02*
D03*
X00673D02*
D03*
X00669D02*
D03*
X00665D02*
D03*
D27*
X0069875Y0067375D02*
D03*
Y0066975D02*
D03*
Y0066575D02*
D03*
Y0066175D02*
D03*
Y0065775D02*
D03*
Y0065375D02*
D03*
Y0064975D02*
D03*
Y0064575D02*
D03*
X0065925D02*
D03*
Y0064975D02*
D03*
Y0065375D02*
D03*
Y0065775D02*
D03*
Y0066175D02*
D03*
Y0066575D02*
D03*
Y0066975D02*
D03*
Y0067375D02*
D03*
D28*
X00636Y00564D02*
D03*
Y00577D02*
D03*
X0065183D02*
D03*
Y00564D02*
D03*
D29*
X006375Y00602D02*
D03*
Y00615D02*
D03*
D30*
X005943Y00572D02*
D03*
X00607D02*
D03*
X006197D02*
D03*
X005943Y00608D02*
D03*
X00607D02*
D03*
X006197D02*
D03*
D31*
X00716Y0074155D02*
D03*
Y0072885D02*
D03*
Y0071615D02*
D03*
Y0070345D02*
D03*
X00764Y0074155D02*
D03*
Y0072885D02*
D03*
Y0071615D02*
D03*
Y0070345D02*
D03*
D32*
X00664Y0071675D02*
D03*
Y0070475D02*
D03*
X006715D02*
D03*
Y0071675D02*
D03*
D33*
Y0075475D02*
D03*
X006575D02*
D03*
D34*
X00552Y0053575D02*
D03*
X00588D02*
D03*
Y0048495D02*
D03*
X00552D02*
D03*
X00588Y0049765D02*
D03*
X00552D02*
D03*
X00588Y0051035D02*
D03*
X00552D02*
D03*
X00588Y0052305D02*
D03*
X00552D02*
D03*
X00892D02*
D03*
X00928D02*
D03*
X00892Y0051035D02*
D03*
X00928D02*
D03*
X00892Y0049765D02*
D03*
X00928D02*
D03*
X00892Y0048495D02*
D03*
X00928D02*
D03*
Y0053575D02*
D03*
X00892D02*
D03*
D35*
X0066Y004375D02*
D03*
Y004425D02*
D03*
Y004475D02*
D03*
Y004525D02*
D03*
X0069D02*
D03*
Y004475D02*
D03*
Y004425D02*
D03*
Y004375D02*
D03*
D36*
X008395Y00743D02*
D03*
X0083D02*
D03*
X008205D02*
D03*
Y00717D02*
D03*
X008395D02*
D03*
D37*
X0073Y00445D02*
D03*
X006384Y0034D02*
D03*
X006638D02*
D03*
X007908D02*
D03*
X006892D02*
D03*
X007146D02*
D03*
X007654D02*
D03*
X0074D02*
D03*
X008162D02*
D03*
X008416D02*
D03*
X00755Y00445D02*
D03*
D38*
X00945Y0059325D02*
D03*
X00535D02*
D03*
D39*
X00679Y0065975D02*
D03*
M02*
