G04*
G04 #@! TF.GenerationSoftware,Altium Limited,Altium Designer,20.1.8 (145)*
G04*
G04 Layer_Physical_Order=2*
G04 Layer_Color=36540*
%FSLAX43Y43*%
%MOMM*%
G71*
G04*
G04 #@! TF.SameCoordinates,A35BB786-9FE3-423A-BE6B-7267126F668D*
G04*
G04*
G04 #@! TF.FilePolarity,Positive*
G04*
G01*
G75*
%ADD11C,0.250*%
%ADD12C,0.300*%
%ADD14C,0.200*%
%ADD47C,1.000*%
%ADD48C,0.600*%
%ADD49C,0.700*%
G36*
X64745Y26380D02*
X31255D01*
Y28125D01*
Y47870D01*
X64745D01*
Y26380D01*
D02*
G37*
%LPC*%
G36*
X59940Y47501D02*
X59757Y47477D01*
X59587Y47406D01*
X59441Y47294D01*
X59329Y47148D01*
X59305Y47091D01*
X59281Y47148D01*
X59169Y47294D01*
X59023Y47406D01*
X58853Y47477D01*
X58670Y47501D01*
X58487Y47477D01*
X58317Y47406D01*
X58171Y47294D01*
X58059Y47148D01*
X58035Y47091D01*
X58011Y47148D01*
X57899Y47294D01*
X57753Y47406D01*
X57583Y47477D01*
X57400Y47501D01*
X57217Y47477D01*
X57047Y47406D01*
X56901Y47294D01*
X56789Y47148D01*
X56718Y46978D01*
X56694Y46795D01*
X56718Y46612D01*
X56789Y46442D01*
X56901Y46296D01*
X57047Y46184D01*
X57104Y46160D01*
X57047Y46136D01*
X56901Y46024D01*
X56789Y45878D01*
X56718Y45708D01*
X56694Y45525D01*
X56718Y45342D01*
X56789Y45172D01*
X56901Y45026D01*
X57047Y44914D01*
X57217Y44843D01*
X57400Y44819D01*
X57583Y44843D01*
X57753Y44914D01*
X57899Y45026D01*
X58011Y45172D01*
X58035Y45229D01*
X58059Y45172D01*
X58171Y45026D01*
X58317Y44914D01*
X58487Y44843D01*
X58670Y44819D01*
X58853Y44843D01*
X59023Y44914D01*
X59169Y45026D01*
X59281Y45172D01*
X59305Y45229D01*
X59329Y45172D01*
X59441Y45026D01*
X59587Y44914D01*
X59757Y44843D01*
X59940Y44819D01*
X60123Y44843D01*
X60293Y44914D01*
X60439Y45026D01*
X60551Y45172D01*
X60622Y45342D01*
X60646Y45525D01*
X60622Y45708D01*
X60551Y45878D01*
X60439Y46024D01*
X60293Y46136D01*
X60236Y46160D01*
X60293Y46184D01*
X60439Y46296D01*
X60551Y46442D01*
X60622Y46612D01*
X60646Y46795D01*
X60622Y46978D01*
X60551Y47148D01*
X60439Y47294D01*
X60293Y47406D01*
X60123Y47477D01*
X59940Y47501D01*
D02*
G37*
G36*
X40940D02*
X40757Y47477D01*
X40587Y47406D01*
X40441Y47294D01*
X40329Y47148D01*
X40305Y47091D01*
X40281Y47148D01*
X40231Y47214D01*
X39741Y46724D01*
X39599Y46866D01*
X40089Y47356D01*
X40023Y47406D01*
X39853Y47477D01*
X39670Y47501D01*
X39487Y47477D01*
X39317Y47406D01*
X39171Y47294D01*
X39059Y47148D01*
X39035Y47091D01*
X39011Y47148D01*
X38899Y47294D01*
X38753Y47406D01*
X38583Y47477D01*
X38400Y47501D01*
X38217Y47477D01*
X38047Y47406D01*
X37901Y47294D01*
X37789Y47148D01*
X37718Y46978D01*
X37694Y46795D01*
X37718Y46612D01*
X37789Y46442D01*
X37901Y46296D01*
X37912Y46287D01*
X37937Y46262D01*
X37962Y46232D01*
X37984Y46203D01*
X38001Y46174D01*
X38009Y46160D01*
X38001Y46146D01*
X37984Y46117D01*
X37962Y46088D01*
X37937Y46058D01*
X37912Y46033D01*
X37901Y46024D01*
X37789Y45878D01*
X37718Y45708D01*
X37694Y45525D01*
X37718Y45342D01*
X37789Y45172D01*
X37901Y45026D01*
X37912Y45017D01*
X37937Y44992D01*
X37962Y44962D01*
X37984Y44933D01*
X38001Y44904D01*
X38016Y44877D01*
X38027Y44851D01*
X38035Y44825D01*
X38041Y44800D01*
X38043Y44786D01*
Y38057D01*
X37915Y38143D01*
X37700Y38186D01*
X37485Y38143D01*
X37303Y38022D01*
X37182Y37840D01*
X37139Y37625D01*
X37182Y37410D01*
X37303Y37228D01*
X37485Y37107D01*
X37700Y37064D01*
X37915Y37107D01*
X38043Y37193D01*
Y35173D01*
X35628Y32757D01*
X35550Y32642D01*
X35523Y32505D01*
Y32314D01*
X35518Y32340D01*
X35397Y32522D01*
X35215Y32643D01*
X35000Y32686D01*
X34785Y32643D01*
X34603Y32522D01*
X34482Y32340D01*
X34439Y32125D01*
X34482Y31910D01*
X34603Y31728D01*
X34785Y31607D01*
X35000Y31564D01*
X35215Y31607D01*
X35397Y31728D01*
X35518Y31910D01*
X35523Y31936D01*
Y29464D01*
X35521Y29450D01*
X35515Y29425D01*
X35507Y29399D01*
X35496Y29373D01*
X35481Y29346D01*
X35464Y29317D01*
X35442Y29288D01*
X35417Y29258D01*
X35392Y29233D01*
X35381Y29224D01*
X35269Y29078D01*
X35198Y28908D01*
X35174Y28725D01*
X35198Y28542D01*
X35269Y28372D01*
X35381Y28226D01*
X35392Y28217D01*
X35417Y28192D01*
X35442Y28162D01*
X35464Y28133D01*
X35481Y28104D01*
X35489Y28090D01*
X35481Y28076D01*
X35464Y28047D01*
X35442Y28018D01*
X35417Y27988D01*
X35392Y27963D01*
X35381Y27954D01*
X35269Y27808D01*
X35198Y27638D01*
X35174Y27455D01*
X35198Y27272D01*
X35269Y27102D01*
X35381Y26956D01*
X35527Y26844D01*
X35697Y26773D01*
X35880Y26749D01*
X36063Y26773D01*
X36233Y26844D01*
X36379Y26956D01*
X36491Y27102D01*
X36515Y27159D01*
X36539Y27102D01*
X36651Y26956D01*
X36797Y26844D01*
X36967Y26773D01*
X37150Y26749D01*
X37333Y26773D01*
X37503Y26844D01*
X37649Y26956D01*
X37761Y27102D01*
X37785Y27159D01*
X37809Y27102D01*
X37921Y26956D01*
X38067Y26844D01*
X38237Y26773D01*
X38420Y26749D01*
X38603Y26773D01*
X38773Y26844D01*
X38919Y26956D01*
X39031Y27102D01*
X39102Y27272D01*
X39126Y27455D01*
X39102Y27638D01*
X39031Y27808D01*
X38919Y27954D01*
X38908Y27963D01*
X38883Y27988D01*
X38858Y28018D01*
X38836Y28047D01*
X38819Y28076D01*
X38811Y28090D01*
X38819Y28104D01*
X38836Y28133D01*
X38858Y28162D01*
X38883Y28192D01*
X38908Y28217D01*
X38919Y28226D01*
X39031Y28372D01*
X39102Y28542D01*
X39126Y28725D01*
X39102Y28908D01*
X39031Y29078D01*
X38919Y29224D01*
X38908Y29233D01*
X38883Y29258D01*
X38858Y29288D01*
X38836Y29317D01*
X38819Y29346D01*
X38804Y29373D01*
X38793Y29399D01*
X38785Y29425D01*
X38779Y29450D01*
X38777Y29464D01*
Y31397D01*
X41400Y34020D01*
X41477Y34136D01*
X41504Y34272D01*
Y42878D01*
X41477Y43014D01*
X41400Y43130D01*
X41282Y43248D01*
Y44781D01*
X41284Y44795D01*
X41290Y44820D01*
X41298Y44844D01*
X41309Y44870D01*
X41323Y44896D01*
X41341Y44922D01*
X41362Y44950D01*
X41388Y44979D01*
X41422Y45012D01*
X41423Y45013D01*
X41439Y45026D01*
X41551Y45172D01*
X41622Y45342D01*
X41646Y45525D01*
X41622Y45708D01*
X41551Y45878D01*
X41439Y46024D01*
X41428Y46033D01*
X41403Y46058D01*
X41378Y46088D01*
X41356Y46117D01*
X41339Y46146D01*
X41331Y46160D01*
X41339Y46174D01*
X41356Y46203D01*
X41378Y46232D01*
X41403Y46262D01*
X41428Y46287D01*
X41439Y46296D01*
X41551Y46442D01*
X41622Y46612D01*
X41646Y46795D01*
X41622Y46978D01*
X41551Y47148D01*
X41439Y47294D01*
X41293Y47406D01*
X41123Y47477D01*
X40940Y47501D01*
D02*
G37*
G36*
X42300Y44586D02*
X42085Y44543D01*
X41903Y44422D01*
X41782Y44240D01*
X41739Y44025D01*
X41782Y43810D01*
X41903Y43628D01*
X42085Y43507D01*
X42300Y43464D01*
X42515Y43507D01*
X42697Y43628D01*
X42818Y43810D01*
X42861Y44025D01*
X42818Y44240D01*
X42697Y44422D01*
X42515Y44543D01*
X42300Y44586D01*
D02*
G37*
G36*
X62746Y42843D02*
X62564Y42819D01*
X62393Y42749D01*
X62247Y42637D01*
X62135Y42490D01*
X62111Y42433D01*
X62088Y42490D01*
X61976Y42637D01*
X61829Y42749D01*
X61659Y42819D01*
X61476Y42843D01*
X61294Y42819D01*
X61123Y42749D01*
X60977Y42637D01*
X60865Y42490D01*
X60841Y42433D01*
X60818Y42490D01*
X60706Y42637D01*
X60559Y42749D01*
X60389Y42819D01*
X60206Y42843D01*
X60024Y42819D01*
X59853Y42749D01*
X59707Y42637D01*
X59595Y42490D01*
X59524Y42320D01*
X59500Y42137D01*
X59524Y41955D01*
X59595Y41784D01*
X59707Y41638D01*
X59853Y41526D01*
X59910Y41502D01*
X59853Y41479D01*
X59707Y41367D01*
X59595Y41220D01*
X59524Y41050D01*
X59500Y40867D01*
X59524Y40685D01*
X59595Y40514D01*
X59707Y40368D01*
X59853Y40256D01*
X60024Y40185D01*
X60206Y40161D01*
X60389Y40185D01*
X60559Y40256D01*
X60706Y40368D01*
X60818Y40514D01*
X60841Y40571D01*
X60865Y40514D01*
X60977Y40368D01*
X61123Y40256D01*
X61294Y40185D01*
X61476Y40161D01*
X61659Y40185D01*
X61829Y40256D01*
X61976Y40368D01*
X62088Y40514D01*
X62111Y40571D01*
X62135Y40514D01*
X62247Y40368D01*
X62393Y40256D01*
X62564Y40185D01*
X62746Y40161D01*
X62929Y40185D01*
X63099Y40256D01*
X63246Y40368D01*
X63358Y40514D01*
X63428Y40685D01*
X63452Y40867D01*
X63428Y41050D01*
X63358Y41220D01*
X63246Y41367D01*
X63099Y41479D01*
X63042Y41502D01*
X63099Y41526D01*
X63246Y41638D01*
X63358Y41784D01*
X63428Y41955D01*
X63452Y42137D01*
X63428Y42320D01*
X63358Y42490D01*
X63246Y42637D01*
X63099Y42749D01*
X62929Y42819D01*
X62746Y42843D01*
D02*
G37*
G36*
X50000Y43436D02*
X49785Y43393D01*
X49603Y43272D01*
X49482Y43090D01*
X49439Y42875D01*
X49482Y42660D01*
X49603Y42478D01*
X49785Y42357D01*
X50000Y42314D01*
X50215Y42357D01*
X50397Y42478D01*
X50518Y42660D01*
X50561Y42875D01*
X50518Y43090D01*
X50397Y43272D01*
X50215Y43393D01*
X50000Y43436D01*
D02*
G37*
G36*
X56950Y43386D02*
X56735Y43343D01*
X56553Y43222D01*
X56432Y43040D01*
X56389Y42825D01*
X56432Y42610D01*
X56553Y42428D01*
X56735Y42307D01*
X56950Y42264D01*
X57165Y42307D01*
X57347Y42428D01*
X57412Y42526D01*
X57478Y42427D01*
X57660Y42305D01*
X57875Y42262D01*
X58089Y42305D01*
X58271Y42427D01*
X58393Y42609D01*
X58435Y42823D01*
X58393Y43038D01*
X58271Y43220D01*
X58089Y43341D01*
X57875Y43384D01*
X57660Y43341D01*
X57478Y43220D01*
X57413Y43122D01*
X57347Y43222D01*
X57165Y43343D01*
X56950Y43386D01*
D02*
G37*
G36*
X44500Y42236D02*
X44285Y42193D01*
X44103Y42072D01*
X43982Y41890D01*
X43939Y41675D01*
X43982Y41460D01*
X44103Y41278D01*
X44285Y41157D01*
X44500Y41114D01*
X44715Y41157D01*
X44897Y41278D01*
X45018Y41460D01*
X45061Y41675D01*
X45018Y41890D01*
X44897Y42072D01*
X44715Y42193D01*
X44500Y42236D01*
D02*
G37*
G36*
X43604Y41586D02*
X43389Y41543D01*
X43207Y41422D01*
X43086Y41240D01*
X43043Y41025D01*
X43086Y40810D01*
X43207Y40628D01*
X43389Y40507D01*
X43604Y40464D01*
X43818Y40507D01*
X44000Y40628D01*
X44122Y40810D01*
X44165Y41025D01*
X44122Y41240D01*
X44000Y41422D01*
X43818Y41543D01*
X43604Y41586D01*
D02*
G37*
G36*
X35355Y41287D02*
X34865Y40797D01*
X34375Y40307D01*
X34441Y40256D01*
X34612Y40185D01*
X34794Y40161D01*
X34977Y40185D01*
X35147Y40256D01*
X35294Y40368D01*
X35406Y40514D01*
X35476Y40685D01*
X35500Y40867D01*
X35476Y41050D01*
X35406Y41220D01*
X35355Y41287D01*
D02*
G37*
G36*
X51550Y43686D02*
X51335Y43643D01*
X51153Y43522D01*
X51032Y43340D01*
X50989Y43125D01*
X51032Y42910D01*
X51147Y42738D01*
X48998Y40589D01*
X48920Y40474D01*
X48893Y40337D01*
Y39337D01*
X48031Y38475D01*
X48061Y38625D01*
X48018Y38840D01*
X47897Y39022D01*
X47715Y39143D01*
X47500Y39186D01*
X47285Y39143D01*
X47103Y39022D01*
X46982Y38840D01*
X46939Y38625D01*
X46982Y38410D01*
X47103Y38228D01*
X47285Y38107D01*
X47500Y38064D01*
X47650Y38094D01*
X47578Y38022D01*
X47565Y38012D01*
X47551Y38004D01*
X47539Y37997D01*
X47528Y37992D01*
X47520Y37989D01*
X47516Y37988D01*
X47493Y37993D01*
X47278Y37950D01*
X47096Y37829D01*
X46975Y37647D01*
X46932Y37432D01*
X46975Y37218D01*
X47096Y37036D01*
X47278Y36914D01*
X47493Y36871D01*
X47679Y36908D01*
X47584Y36813D01*
X47571Y36804D01*
X47557Y36795D01*
X47545Y36789D01*
X47535Y36784D01*
X47527Y36782D01*
X47520Y36780D01*
X47493Y36786D01*
X47278Y36743D01*
X47096Y36622D01*
X46975Y36440D01*
X46932Y36225D01*
X46975Y36010D01*
X47096Y35828D01*
X47278Y35707D01*
X47493Y35664D01*
X47707Y35707D01*
X47889Y35828D01*
X48011Y36010D01*
X48054Y36225D01*
X48050Y36243D01*
X48050Y36245D01*
X48054Y36254D01*
X48058Y36265D01*
X48065Y36277D01*
X48074Y36291D01*
X48084Y36304D01*
X48893Y37113D01*
X48970Y37229D01*
X48990Y37330D01*
X49463Y37803D01*
X49482Y37710D01*
X49603Y37528D01*
X49785Y37407D01*
X50000Y37364D01*
X50215Y37407D01*
X50397Y37528D01*
X50518Y37710D01*
X50561Y37925D01*
X50518Y38140D01*
X50397Y38322D01*
X50215Y38443D01*
X50122Y38462D01*
X51186Y39525D01*
X52515D01*
X52532Y39523D01*
X52547Y39519D01*
X52561Y39516D01*
X52571Y39511D01*
X52580Y39507D01*
X52583Y39505D01*
X52596Y39486D01*
X52778Y39364D01*
X52993Y39321D01*
X53207Y39364D01*
X53389Y39486D01*
X53511Y39668D01*
X53554Y39882D01*
X53511Y40097D01*
X53389Y40279D01*
X53207Y40400D01*
X52993Y40443D01*
X52778Y40400D01*
X52596Y40279D01*
X52583Y40259D01*
X52580Y40257D01*
X52571Y40253D01*
X52561Y40249D01*
X52547Y40245D01*
X52532Y40241D01*
X52515Y40239D01*
X51038D01*
X50901Y40212D01*
X50786Y40135D01*
X50556Y39905D01*
X50518Y40097D01*
X50397Y40279D01*
X50215Y40400D01*
X50000Y40443D01*
X49826Y40408D01*
X51781Y42363D01*
X51858Y42479D01*
X51885Y42615D01*
Y42687D01*
X51885Y42688D01*
X51947Y42728D01*
X52068Y42910D01*
X52111Y43125D01*
X52068Y43340D01*
X51947Y43522D01*
X51765Y43643D01*
X51550Y43686D01*
D02*
G37*
G36*
X36434Y46732D02*
X33576D01*
X33439Y46705D01*
X33323Y46627D01*
X33148Y46452D01*
X33070Y46336D01*
X33043Y46199D01*
Y45914D01*
X33041Y45900D01*
X33035Y45875D01*
X33027Y45849D01*
X33016Y45823D01*
X33001Y45796D01*
X32984Y45767D01*
X32962Y45738D01*
X32937Y45708D01*
X32912Y45683D01*
X32901Y45674D01*
X32789Y45528D01*
X32718Y45358D01*
X32694Y45175D01*
X32718Y44992D01*
X32789Y44822D01*
X32901Y44676D01*
X33047Y44564D01*
X33104Y44540D01*
X33047Y44516D01*
X32901Y44404D01*
X32789Y44258D01*
X32718Y44088D01*
X32694Y43905D01*
X32718Y43722D01*
X32789Y43552D01*
X32901Y43406D01*
X33014Y43319D01*
X32260D01*
X32154Y43298D01*
X32133Y43293D01*
X32026Y43222D01*
X32001Y43197D01*
X31929Y43089D01*
X31925Y43068D01*
X31904Y42962D01*
Y42890D01*
X31902Y42875D01*
X31895Y42852D01*
X31886Y42826D01*
X31873Y42797D01*
X31856Y42766D01*
X31836Y42735D01*
X31776Y42658D01*
X31761Y42641D01*
X31755Y42637D01*
X31745Y42623D01*
X31740Y42617D01*
X31737Y42613D01*
X31643Y42490D01*
X31572Y42320D01*
X31548Y42137D01*
X31572Y41955D01*
X31643Y41784D01*
X31755Y41638D01*
X31901Y41526D01*
X31958Y41502D01*
X31901Y41479D01*
X31755Y41367D01*
X31643Y41220D01*
X31572Y41050D01*
X31548Y40867D01*
X31572Y40685D01*
X31643Y40514D01*
X31755Y40368D01*
X31901Y40256D01*
X32072Y40185D01*
X32254Y40161D01*
X32437Y40185D01*
X32607Y40256D01*
X32754Y40368D01*
X32866Y40514D01*
X32889Y40571D01*
X32913Y40514D01*
X32964Y40448D01*
X33454Y40938D01*
X33595Y40797D01*
X33105Y40307D01*
X33171Y40256D01*
X33342Y40185D01*
X33524Y40161D01*
X33707Y40185D01*
X33877Y40256D01*
X34024Y40368D01*
X34136Y40514D01*
X34159Y40571D01*
X34183Y40514D01*
X34234Y40448D01*
X34724Y40938D01*
X35213Y41428D01*
X35147Y41479D01*
X35090Y41502D01*
X35147Y41526D01*
X35294Y41638D01*
X35406Y41784D01*
X35476Y41955D01*
X35500Y42137D01*
X35476Y42320D01*
X35406Y42490D01*
X35362Y42548D01*
X35609Y42301D01*
Y39662D01*
X35403Y39456D01*
X32758D01*
X32756Y39457D01*
X32741Y39460D01*
X32727Y39463D01*
X32714Y39468D01*
X32701Y39474D01*
X32688Y39481D01*
X32676Y39490D01*
X32667Y39497D01*
X32651Y39522D01*
X32469Y39643D01*
X32254Y39686D01*
X32040Y39643D01*
X31858Y39522D01*
X31736Y39340D01*
X31693Y39125D01*
X31736Y38910D01*
X31858Y38728D01*
X32040Y38607D01*
X32254Y38564D01*
X32469Y38607D01*
X32651Y38728D01*
X32667Y38753D01*
X32676Y38760D01*
X32688Y38769D01*
X32701Y38776D01*
X32714Y38782D01*
X32727Y38787D01*
X32741Y38791D01*
X32756Y38793D01*
X32758Y38794D01*
X35540D01*
X35646Y38815D01*
X35667Y38819D01*
X35774Y38891D01*
X36174Y39291D01*
X36246Y39398D01*
X36250Y39419D01*
X36271Y39525D01*
Y42438D01*
X36246Y42565D01*
X36174Y42672D01*
X35625Y43222D01*
X35518Y43293D01*
X35497Y43298D01*
X35391Y43319D01*
X35056D01*
X35169Y43406D01*
X35281Y43552D01*
X35305Y43609D01*
X35329Y43552D01*
X35441Y43406D01*
X35587Y43294D01*
X35757Y43223D01*
X35940Y43199D01*
X36123Y43223D01*
X36293Y43294D01*
X36433Y43401D01*
Y38063D01*
X36050Y37680D01*
X36018Y37840D01*
X35897Y38022D01*
X35715Y38143D01*
X35500Y38186D01*
X35285Y38143D01*
X35103Y38022D01*
X34982Y37840D01*
X34939Y37625D01*
X34982Y37410D01*
X35103Y37228D01*
X35285Y37107D01*
X35445Y37075D01*
X33835Y35465D01*
X33822Y35455D01*
X33808Y35446D01*
X33796Y35440D01*
X33786Y35435D01*
X33777Y35432D01*
X33773Y35431D01*
X33750Y35436D01*
X33535Y35393D01*
X33353Y35272D01*
X33232Y35090D01*
X33189Y34875D01*
X33232Y34660D01*
X33353Y34478D01*
X33535Y34357D01*
X33750Y34314D01*
X33965Y34357D01*
X34147Y34478D01*
X34268Y34660D01*
X34311Y34875D01*
X34306Y34898D01*
X34307Y34902D01*
X34310Y34911D01*
X34315Y34921D01*
X34321Y34933D01*
X34330Y34947D01*
X34340Y34960D01*
X37042Y37663D01*
X37120Y37778D01*
X37147Y37915D01*
Y46019D01*
X37120Y46156D01*
X37042Y46272D01*
X36687Y46627D01*
X36571Y46705D01*
X36434Y46732D01*
D02*
G37*
G36*
X52900Y29786D02*
X52685Y29743D01*
X52503Y29622D01*
X52450Y29542D01*
X52397Y29622D01*
X52215Y29743D01*
X52000Y29786D01*
X51785Y29743D01*
X51603Y29622D01*
X51482Y29440D01*
X51439Y29225D01*
X51482Y29010D01*
X51603Y28828D01*
X51785Y28707D01*
X52000Y28664D01*
X52215Y28707D01*
X52397Y28828D01*
X52450Y28909D01*
X52503Y28828D01*
X52685Y28707D01*
X52900Y28664D01*
X53115Y28707D01*
X53297Y28828D01*
X53418Y29010D01*
X53461Y29225D01*
X53418Y29440D01*
X53297Y29622D01*
X53115Y29743D01*
X52900Y29786D01*
D02*
G37*
G36*
X44000Y30286D02*
X43785Y30243D01*
X43603Y30122D01*
X43482Y29940D01*
X43439Y29725D01*
X43482Y29510D01*
X43603Y29328D01*
X43785Y29207D01*
X44000Y29164D01*
X44215Y29207D01*
X44397Y29328D01*
X44518Y29510D01*
X44561Y29725D01*
X44518Y29940D01*
X44397Y30122D01*
X44215Y30243D01*
X44000Y30286D01*
D02*
G37*
G36*
X42500D02*
X42285Y30243D01*
X42103Y30122D01*
X41982Y29940D01*
X41939Y29725D01*
X41982Y29510D01*
X42103Y29328D01*
X42285Y29207D01*
X42500Y29164D01*
X42715Y29207D01*
X42897Y29328D01*
X43018Y29510D01*
X43061Y29725D01*
X43018Y29940D01*
X42897Y30122D01*
X42715Y30243D01*
X42500Y30286D01*
D02*
G37*
G36*
X58795Y29431D02*
X58612Y29407D01*
X58442Y29336D01*
X58296Y29224D01*
X58184Y29078D01*
X58160Y29021D01*
X58136Y29078D01*
X58024Y29224D01*
X57878Y29336D01*
X57708Y29407D01*
X57525Y29431D01*
X57342Y29407D01*
X57172Y29336D01*
X57026Y29224D01*
X56914Y29078D01*
X56890Y29021D01*
X56866Y29078D01*
X56754Y29224D01*
X56608Y29336D01*
X56438Y29407D01*
X56255Y29431D01*
X56072Y29407D01*
X55902Y29336D01*
X55756Y29224D01*
X55644Y29078D01*
X55573Y28908D01*
X55549Y28725D01*
X55573Y28542D01*
X55644Y28372D01*
X55756Y28226D01*
X55902Y28114D01*
X55959Y28090D01*
X55902Y28066D01*
X55756Y27954D01*
X55644Y27808D01*
X55573Y27638D01*
X55549Y27455D01*
X55573Y27272D01*
X55644Y27102D01*
X55756Y26956D01*
X55902Y26844D01*
X56072Y26773D01*
X56255Y26749D01*
X56438Y26773D01*
X56608Y26844D01*
X56754Y26956D01*
X56866Y27102D01*
X56890Y27159D01*
X56914Y27102D01*
X56964Y27036D01*
X57454Y27526D01*
X57596Y27384D01*
X57106Y26894D01*
X57172Y26844D01*
X57342Y26773D01*
X57525Y26749D01*
X57708Y26773D01*
X57878Y26844D01*
X58024Y26956D01*
X58136Y27102D01*
X58160Y27159D01*
X58184Y27102D01*
X58296Y26956D01*
X58442Y26844D01*
X58612Y26773D01*
X58795Y26749D01*
X58978Y26773D01*
X59148Y26844D01*
X59294Y26956D01*
X59406Y27102D01*
X59477Y27272D01*
X59501Y27455D01*
X59477Y27638D01*
X59406Y27808D01*
X59294Y27954D01*
X59148Y28066D01*
X59091Y28090D01*
X59148Y28114D01*
X59294Y28226D01*
X59406Y28372D01*
X59477Y28542D01*
X59501Y28725D01*
X59477Y28908D01*
X59406Y29078D01*
X59294Y29224D01*
X59148Y29336D01*
X58978Y29407D01*
X58795Y29431D01*
D02*
G37*
G36*
X51000Y28436D02*
X50785Y28393D01*
X50603Y28272D01*
X50482Y28090D01*
X50439Y27875D01*
X50482Y27660D01*
X50603Y27478D01*
X50785Y27357D01*
X51000Y27314D01*
X51215Y27357D01*
X51397Y27478D01*
X51518Y27660D01*
X51561Y27875D01*
X51518Y28090D01*
X51397Y28272D01*
X51215Y28393D01*
X51000Y28436D01*
D02*
G37*
%LPD*%
G36*
X41252Y46398D02*
X41218Y46358D01*
X41188Y46318D01*
X41162Y46277D01*
X41140Y46235D01*
X41122Y46193D01*
X41111Y46160D01*
X41122Y46127D01*
X41140Y46085D01*
X41162Y46043D01*
X41188Y46002D01*
X41218Y45962D01*
X41252Y45922D01*
X41290Y45882D01*
X40590D01*
X40628Y45922D01*
X40662Y45962D01*
X40692Y46002D01*
X40718Y46043D01*
X40740Y46085D01*
X40758Y46127D01*
X40769Y46160D01*
X40758Y46193D01*
X40740Y46235D01*
X40718Y46277D01*
X40692Y46318D01*
X40662Y46358D01*
X40628Y46398D01*
X40590Y46438D01*
X41290D01*
X41252Y46398D01*
D02*
G37*
G36*
X38712D02*
X38678Y46358D01*
X38648Y46318D01*
X38622Y46277D01*
X38600Y46235D01*
X38582Y46193D01*
X38571Y46160D01*
X38582Y46127D01*
X38600Y46085D01*
X38622Y46043D01*
X38648Y46002D01*
X38678Y45962D01*
X38712Y45922D01*
X38750Y45882D01*
X38050D01*
X38088Y45922D01*
X38122Y45962D01*
X38152Y46002D01*
X38178Y46043D01*
X38200Y46085D01*
X38218Y46127D01*
X38229Y46160D01*
X38218Y46193D01*
X38200Y46235D01*
X38178Y46277D01*
X38152Y46318D01*
X38122Y46358D01*
X38088Y46398D01*
X38050Y46438D01*
X38750D01*
X38712Y46398D01*
D02*
G37*
G36*
X40329Y45172D02*
X40428Y45043D01*
X40428Y45042D01*
X40430Y45040D01*
X40441Y45026D01*
X40447Y45021D01*
X40462Y45005D01*
X40487Y44974D01*
X40508Y44943D01*
X40526Y44914D01*
X40541Y44885D01*
X40552Y44858D01*
X40560Y44831D01*
X40566Y44805D01*
X40568Y44791D01*
Y43100D01*
X40595Y42964D01*
X40673Y42848D01*
X40790Y42730D01*
Y34420D01*
X38168Y31797D01*
X38090Y31682D01*
X38063Y31545D01*
Y29464D01*
X38061Y29450D01*
X38055Y29425D01*
X38047Y29399D01*
X38036Y29373D01*
X38021Y29346D01*
X38004Y29317D01*
X37982Y29288D01*
X37957Y29258D01*
X37932Y29233D01*
X37921Y29224D01*
X37809Y29078D01*
X37785Y29021D01*
X37761Y29078D01*
X37649Y29224D01*
X37503Y29336D01*
X37333Y29407D01*
X37150Y29431D01*
X36967Y29407D01*
X36797Y29336D01*
X36651Y29224D01*
X36539Y29078D01*
X36515Y29021D01*
X36491Y29078D01*
X36379Y29224D01*
X36368Y29233D01*
X36343Y29258D01*
X36318Y29288D01*
X36296Y29317D01*
X36279Y29346D01*
X36264Y29373D01*
X36253Y29399D01*
X36245Y29425D01*
X36239Y29450D01*
X36237Y29464D01*
Y32357D01*
X38652Y34773D01*
X38730Y34888D01*
X38757Y35025D01*
Y44786D01*
X38759Y44800D01*
X38765Y44825D01*
X38773Y44851D01*
X38784Y44877D01*
X38799Y44904D01*
X38816Y44933D01*
X38838Y44962D01*
X38863Y44992D01*
X38888Y45017D01*
X38899Y45026D01*
X39011Y45172D01*
X39035Y45229D01*
X39059Y45172D01*
X39171Y45026D01*
X39317Y44914D01*
X39487Y44843D01*
X39670Y44819D01*
X39853Y44843D01*
X40023Y44914D01*
X40169Y45026D01*
X40281Y45172D01*
X40305Y45229D01*
X40329Y45172D01*
D02*
G37*
G36*
X38712Y45128D02*
X38678Y45088D01*
X38648Y45048D01*
X38622Y45007D01*
X38600Y44965D01*
X38582Y44923D01*
X38568Y44880D01*
X38558Y44836D01*
X38552Y44793D01*
X38550Y44748D01*
X38250D01*
X38248Y44793D01*
X38242Y44836D01*
X38232Y44880D01*
X38218Y44923D01*
X38200Y44965D01*
X38178Y45007D01*
X38152Y45048D01*
X38122Y45088D01*
X38088Y45128D01*
X38050Y45168D01*
X38750D01*
X38712Y45128D01*
D02*
G37*
G36*
X41279Y45158D02*
X41240Y45119D01*
X41206Y45081D01*
X41175Y45041D01*
X41148Y45001D01*
X41126Y44960D01*
X41108Y44918D01*
X41093Y44876D01*
X41083Y44832D01*
X41077Y44788D01*
X41075Y44744D01*
X40775Y44753D01*
X40773Y44797D01*
X40767Y44841D01*
X40757Y44885D01*
X40744Y44928D01*
X40726Y44970D01*
X40705Y45013D01*
X40679Y45055D01*
X40650Y45096D01*
X40617Y45138D01*
X40579Y45179D01*
X41279Y45158D01*
D02*
G37*
G36*
X38572Y29457D02*
X38578Y29414D01*
X38588Y29370D01*
X38602Y29327D01*
X38620Y29285D01*
X38642Y29243D01*
X38668Y29202D01*
X38698Y29162D01*
X38732Y29122D01*
X38770Y29082D01*
X38070D01*
X38108Y29122D01*
X38142Y29162D01*
X38172Y29202D01*
X38198Y29243D01*
X38220Y29285D01*
X38238Y29327D01*
X38252Y29370D01*
X38262Y29414D01*
X38268Y29457D01*
X38270Y29502D01*
X38570D01*
X38572Y29457D01*
D02*
G37*
G36*
X36032D02*
X36038Y29414D01*
X36048Y29370D01*
X36062Y29327D01*
X36080Y29285D01*
X36102Y29243D01*
X36128Y29202D01*
X36158Y29162D01*
X36192Y29122D01*
X36230Y29082D01*
X35530D01*
X35568Y29122D01*
X35602Y29162D01*
X35632Y29202D01*
X35658Y29243D01*
X35680Y29285D01*
X35698Y29327D01*
X35712Y29370D01*
X35722Y29414D01*
X35728Y29457D01*
X35730Y29502D01*
X36030D01*
X36032Y29457D01*
D02*
G37*
G36*
X38732Y28328D02*
X38698Y28288D01*
X38668Y28248D01*
X38642Y28207D01*
X38620Y28165D01*
X38602Y28123D01*
X38591Y28090D01*
X38602Y28057D01*
X38620Y28015D01*
X38642Y27973D01*
X38668Y27932D01*
X38698Y27892D01*
X38732Y27852D01*
X38770Y27812D01*
X38070D01*
X38108Y27852D01*
X38142Y27892D01*
X38172Y27932D01*
X38198Y27973D01*
X38220Y28015D01*
X38238Y28057D01*
X38249Y28090D01*
X38238Y28123D01*
X38220Y28165D01*
X38198Y28207D01*
X38172Y28248D01*
X38142Y28288D01*
X38108Y28328D01*
X38070Y28368D01*
X38770D01*
X38732Y28328D01*
D02*
G37*
G36*
X36192D02*
X36158Y28288D01*
X36128Y28248D01*
X36102Y28207D01*
X36080Y28165D01*
X36062Y28123D01*
X36051Y28090D01*
X36062Y28057D01*
X36080Y28015D01*
X36102Y27973D01*
X36128Y27932D01*
X36158Y27892D01*
X36192Y27852D01*
X36230Y27812D01*
X35530D01*
X35568Y27852D01*
X35602Y27892D01*
X35632Y27932D01*
X35658Y27973D01*
X35680Y28015D01*
X35698Y28057D01*
X35709Y28090D01*
X35698Y28123D01*
X35680Y28165D01*
X35658Y28207D01*
X35632Y28248D01*
X35602Y28288D01*
X35568Y28328D01*
X35530Y28368D01*
X36230D01*
X36192Y28328D01*
D02*
G37*
%LPC*%
G36*
X39900Y36331D02*
X39685Y36288D01*
X39503Y36166D01*
X39382Y35984D01*
X39339Y35770D01*
X39382Y35555D01*
X39503Y35373D01*
X39685Y35252D01*
X39900Y35209D01*
X40115Y35252D01*
X40297Y35373D01*
X40418Y35555D01*
X40461Y35770D01*
X40418Y35984D01*
X40297Y36166D01*
X40115Y36288D01*
X39900Y36331D01*
D02*
G37*
G36*
X38500Y34186D02*
X38285Y34143D01*
X38103Y34022D01*
X37982Y33840D01*
X37939Y33625D01*
X37982Y33410D01*
X38103Y33228D01*
X38285Y33107D01*
X38500Y33064D01*
X38715Y33107D01*
X38897Y33228D01*
X39018Y33410D01*
X39061Y33625D01*
X39018Y33840D01*
X38897Y34022D01*
X38715Y34143D01*
X38500Y34186D01*
D02*
G37*
%LPD*%
G36*
X51718Y42818D02*
X51711Y42812D01*
X51704Y42803D01*
X51698Y42791D01*
X51693Y42775D01*
X51688Y42756D01*
X51685Y42735D01*
X51680Y42681D01*
X51678Y42615D01*
X51378D01*
X51378Y42654D01*
X51370Y42773D01*
X51366Y42794D01*
X51362Y42811D01*
X51357Y42825D01*
X51351Y42835D01*
X51345Y42841D01*
X51718Y42818D01*
D02*
G37*
G36*
X52743Y39637D02*
X52723Y39655D01*
X52702Y39671D01*
X52679Y39686D01*
X52654Y39698D01*
X52627Y39708D01*
X52599Y39717D01*
X52568Y39724D01*
X52536Y39728D01*
X52502Y39731D01*
X52467Y39732D01*
Y40032D01*
X52502Y40033D01*
X52536Y40036D01*
X52568Y40041D01*
X52599Y40047D01*
X52627Y40056D01*
X52654Y40066D01*
X52679Y40079D01*
X52702Y40093D01*
X52723Y40109D01*
X52743Y40127D01*
Y39637D01*
D02*
G37*
G36*
X47971Y37698D02*
X47946Y37672D01*
X47924Y37646D01*
X47905Y37620D01*
X47888Y37594D01*
X47874Y37568D01*
X47863Y37542D01*
X47854Y37515D01*
X47847Y37489D01*
X47844Y37462D01*
X47843Y37436D01*
X47496Y37782D01*
X47523Y37783D01*
X47549Y37787D01*
X47576Y37793D01*
X47602Y37802D01*
X47628Y37814D01*
X47655Y37828D01*
X47681Y37844D01*
X47707Y37864D01*
X47733Y37886D01*
X47759Y37910D01*
X47971Y37698D01*
D02*
G37*
G36*
X47973Y36486D02*
X47948Y36460D01*
X47926Y36434D01*
X47907Y36408D01*
X47890Y36382D01*
X47876Y36355D01*
X47864Y36329D01*
X47855Y36303D01*
X47848Y36276D01*
X47844Y36250D01*
X47843Y36223D01*
X47501Y36575D01*
X47528Y36576D01*
X47554Y36579D01*
X47581Y36585D01*
X47607Y36594D01*
X47634Y36605D01*
X47660Y36619D01*
X47686Y36635D01*
X47712Y36655D01*
X47738Y36677D01*
X47764Y36701D01*
X47973Y36486D01*
D02*
G37*
G36*
X33552Y45907D02*
X33558Y45864D01*
X33568Y45820D01*
X33582Y45777D01*
X33600Y45735D01*
X33622Y45693D01*
X33648Y45652D01*
X33678Y45612D01*
X33712Y45572D01*
X33750Y45532D01*
X33050D01*
X33088Y45572D01*
X33122Y45612D01*
X33152Y45652D01*
X33178Y45693D01*
X33200Y45735D01*
X33218Y45777D01*
X33232Y45820D01*
X33242Y45864D01*
X33248Y45907D01*
X33250Y45952D01*
X33550D01*
X33552Y45907D01*
D02*
G37*
G36*
X32363Y42884D02*
X32369Y42842D01*
X32381Y42800D01*
X32397Y42758D01*
X32418Y42717D01*
X32443Y42675D01*
X32473Y42633D01*
X32508Y42591D01*
X32547Y42549D01*
X32590Y42507D01*
X31891Y42481D01*
X31933Y42527D01*
X32003Y42617D01*
X32031Y42662D01*
X32055Y42706D01*
X32075Y42749D01*
X32090Y42792D01*
X32101Y42834D01*
X32108Y42875D01*
X32110Y42916D01*
X32360Y42926D01*
X32363Y42884D01*
D02*
G37*
G36*
X32528Y39347D02*
X32553Y39327D01*
X32579Y39309D01*
X32607Y39293D01*
X32635Y39280D01*
X32664Y39269D01*
X32694Y39261D01*
X32726Y39255D01*
X32758Y39251D01*
X32791Y39250D01*
Y39000D01*
X32758Y38999D01*
X32726Y38995D01*
X32694Y38989D01*
X32664Y38981D01*
X32635Y38970D01*
X32607Y38957D01*
X32579Y38941D01*
X32553Y38923D01*
X32528Y38903D01*
X32504Y38880D01*
Y39370D01*
X32528Y39347D01*
D02*
G37*
G36*
X34228Y35141D02*
X34204Y35115D01*
X34182Y35089D01*
X34162Y35063D01*
X34145Y35037D01*
X34131Y35011D01*
X34120Y34984D01*
X34111Y34958D01*
X34105Y34932D01*
X34101Y34905D01*
X34100Y34879D01*
X33754Y35225D01*
X33780Y35226D01*
X33807Y35230D01*
X33833Y35236D01*
X33859Y35245D01*
X33886Y35256D01*
X33912Y35270D01*
X33938Y35287D01*
X33964Y35307D01*
X33990Y35329D01*
X34016Y35353D01*
X34228Y35141D01*
D02*
G37*
D11*
X32235Y42156D02*
X32254Y42137D01*
X32235Y42156D02*
Y42962D01*
X32260Y42987D01*
X35391D01*
X35940Y39525D02*
Y42438D01*
X35391Y42987D02*
X35940Y42438D01*
X32254Y39125D02*
X35540D01*
X35940Y39525D01*
D12*
X41147Y34272D02*
Y42878D01*
X40925Y43100D02*
Y45510D01*
Y43100D02*
X41147Y42878D01*
X38420Y31545D02*
X41147Y34272D01*
X47493Y36225D02*
X47500D01*
X48640Y37365D02*
Y37485D01*
X47500Y36225D02*
X48640Y37365D01*
Y37485D02*
X51038Y39882D01*
X49250Y39189D02*
Y40337D01*
X51528Y43103D02*
X51550Y43125D01*
X51528Y42615D02*
Y43103D01*
X49250Y40337D02*
X51528Y42615D01*
X47493Y37432D02*
X49250Y39189D01*
X40925Y45510D02*
X40940Y45525D01*
Y46795D01*
X38400Y35025D02*
Y45525D01*
X35880Y32505D02*
X38400Y35025D01*
Y45525D02*
Y46795D01*
X51038Y39882D02*
X52993D01*
X35880Y28725D02*
Y32505D01*
X33576Y46375D02*
X36434D01*
X33400Y45175D02*
Y46199D01*
X33576Y46375D01*
X36790Y37915D02*
Y46019D01*
X36434Y46375D02*
X36790Y46019D01*
X33750Y34875D02*
X36790Y37915D01*
X35880Y27455D02*
Y28725D01*
X38420D02*
Y31545D01*
Y27455D02*
Y28725D01*
D14*
X57525Y27455D02*
X57570D01*
D47*
X32254Y42137D02*
D03*
X33524Y40867D02*
D03*
X34794D02*
D03*
X40940Y46795D02*
D03*
Y45525D02*
D03*
X39670Y46795D02*
D03*
X38400D02*
D03*
Y45525D02*
D03*
X35880Y27455D02*
D03*
Y28725D02*
D03*
X38420Y27455D02*
D03*
Y28725D02*
D03*
X57525Y27455D02*
D03*
X33400Y45175D02*
D03*
D48*
X37150Y32125D02*
D03*
X39991Y30375D02*
D03*
X33775D02*
D03*
X64100Y44925D02*
D03*
X52200Y45725D02*
D03*
D49*
X51550Y43125D02*
D03*
X33750Y27375D02*
D03*
Y34875D02*
D03*
X37495Y41970D02*
D03*
Y43875D02*
D03*
X41500Y31625D02*
D03*
X43500Y47375D02*
D03*
X46000Y31625D02*
D03*
X46250Y43125D02*
D03*
X47493Y36225D02*
D03*
Y37432D02*
D03*
X49750Y35375D02*
D03*
X37150Y30375D02*
D03*
X46000Y34375D02*
D03*
X46250Y44875D02*
D03*
X32254Y39125D02*
D03*
X40379Y41504D02*
D03*
X34670Y47375D02*
D03*
X48500Y27125D02*
D03*
X47493Y31625D02*
D03*
X49000Y43125D02*
D03*
Y47375D02*
D03*
X52993Y39882D02*
D03*
X47493Y34375D02*
D03*
X43100Y37625D02*
D03*
M02*
