G04*
G04 #@! TF.GenerationSoftware,Altium Limited,Altium Designer,20.1.8 (145)*
G04*
G04 Layer_Physical_Order=3*
G04 Layer_Color=16440176*
%FSLAX43Y43*%
%MOMM*%
G71*
G04*
G04 #@! TF.SameCoordinates,A35BB786-9FE3-423A-BE6B-7267126F668D*
G04*
G04*
G04 #@! TF.FilePolarity,Positive*
G04*
G01*
G75*
%ADD12C,0.300*%
%ADD14C,0.200*%
%ADD47C,1.000*%
%ADD48C,0.600*%
%ADD49C,0.700*%
G36*
X58821Y47502D02*
X58826Y47457D01*
X58833Y47415D01*
X58843Y47376D01*
X58857Y47339D01*
X58873Y47306D01*
X58892Y47275D01*
X58914Y47246D01*
X58939Y47220D01*
X58967Y47198D01*
X58373D01*
X58401Y47220D01*
X58426Y47246D01*
X58448Y47275D01*
X58467Y47306D01*
X58483Y47339D01*
X58497Y47376D01*
X58507Y47415D01*
X58514Y47457D01*
X58519Y47502D01*
X58520Y47549D01*
X58820D01*
X58821Y47502D01*
D02*
G37*
G36*
X64745Y26380D02*
X31255D01*
Y28125D01*
Y47870D01*
X55679D01*
X55756Y47685D01*
X55356Y47286D01*
X50504D01*
X50367Y47259D01*
X50252Y47181D01*
X47048Y43977D01*
X46970Y43862D01*
X46943Y43725D01*
Y42287D01*
X43748Y39092D01*
X43670Y38976D01*
X43643Y38839D01*
Y30202D01*
X43641Y30186D01*
X43637Y30170D01*
X43633Y30157D01*
X43629Y30146D01*
X43625Y30138D01*
X43623Y30134D01*
X43603Y30122D01*
X43482Y29940D01*
X43439Y29725D01*
X43283Y29525D01*
X43217Y29512D01*
X43090Y29640D01*
X43080Y29653D01*
X43071Y29667D01*
X43065Y29679D01*
X43060Y29689D01*
X43057Y29698D01*
X43056Y29702D01*
X43061Y29725D01*
X43018Y29940D01*
X42897Y30122D01*
X42715Y30243D01*
X42500Y30286D01*
X42285Y30243D01*
X42103Y30122D01*
X41982Y29940D01*
X41939Y29725D01*
X41982Y29510D01*
X42103Y29328D01*
X42285Y29207D01*
X42500Y29164D01*
X42523Y29169D01*
X42527Y29168D01*
X42536Y29165D01*
X42546Y29160D01*
X42558Y29154D01*
X42572Y29145D01*
X42585Y29135D01*
X42948Y28773D01*
X43063Y28695D01*
X43200Y28668D01*
X44624D01*
X44761Y28695D01*
X44877Y28773D01*
X45252Y29148D01*
X45330Y29264D01*
X45357Y29401D01*
Y38984D01*
X48052Y41680D01*
X48130Y41796D01*
X48157Y41932D01*
Y43370D01*
X50859Y46072D01*
X55048D01*
X56848Y44273D01*
X56963Y44195D01*
X57100Y44168D01*
X58494D01*
X58631Y44195D01*
X58747Y44273D01*
X58922Y44448D01*
X59000Y44564D01*
X59027Y44701D01*
Y44786D01*
X59029Y44800D01*
X59035Y44825D01*
X59043Y44851D01*
X59054Y44877D01*
X59069Y44904D01*
X59086Y44933D01*
X59108Y44962D01*
X59133Y44992D01*
X59158Y45017D01*
X59169Y45026D01*
X59179Y45038D01*
X59431D01*
X59441Y45026D01*
X59587Y44914D01*
X59757Y44843D01*
X59940Y44819D01*
X60123Y44843D01*
X60293Y44914D01*
X60439Y45026D01*
X60551Y45172D01*
X60622Y45342D01*
X60646Y45525D01*
X60622Y45708D01*
X60551Y45878D01*
X60439Y46024D01*
X60427Y46034D01*
Y46286D01*
X60439Y46296D01*
X60551Y46442D01*
X60622Y46612D01*
X60646Y46795D01*
X60622Y46978D01*
X60551Y47148D01*
X60439Y47294D01*
X60293Y47406D01*
X60123Y47477D01*
X59940Y47501D01*
X59757Y47477D01*
X59587Y47406D01*
X59441Y47294D01*
X59431Y47282D01*
X59179D01*
X59169Y47294D01*
X59114Y47336D01*
X59111Y47342D01*
X59103Y47347D01*
X59096Y47355D01*
X59077Y47371D01*
X59068Y47380D01*
X59060Y47391D01*
X59052Y47403D01*
X59045Y47418D01*
X59038Y47437D01*
X59033Y47459D01*
X59028Y47485D01*
X59027Y47497D01*
Y47549D01*
X59003Y47670D01*
X59005Y47694D01*
X59117Y47870D01*
X64745D01*
Y26380D01*
D02*
G37*
G36*
X58982Y45128D02*
X58948Y45088D01*
X58918Y45048D01*
X58892Y45007D01*
X58870Y44965D01*
X58852Y44923D01*
X58838Y44880D01*
X58828Y44836D01*
X58822Y44793D01*
X58820Y44748D01*
X58520D01*
X58518Y44793D01*
X58512Y44836D01*
X58502Y44880D01*
X58488Y44923D01*
X58470Y44965D01*
X58448Y45007D01*
X58422Y45048D01*
X58392Y45088D01*
X58358Y45128D01*
X58320Y45168D01*
X59020D01*
X58982Y45128D01*
D02*
G37*
G36*
X44151Y30215D02*
X44154Y30182D01*
X44159Y30149D01*
X44165Y30119D01*
X44174Y30091D01*
X44184Y30064D01*
X44197Y30039D01*
X44211Y30016D01*
X44227Y29994D01*
X44245Y29975D01*
X43755D01*
X43773Y29994D01*
X43789Y30016D01*
X43803Y30039D01*
X43816Y30064D01*
X43826Y30091D01*
X43835Y30119D01*
X43841Y30149D01*
X43846Y30182D01*
X43849Y30215D01*
X43850Y30251D01*
X44150D01*
X44151Y30215D01*
D02*
G37*
G36*
X42851Y29695D02*
X42855Y29668D01*
X42861Y29642D01*
X42870Y29616D01*
X42881Y29589D01*
X42895Y29563D01*
X42912Y29537D01*
X42932Y29511D01*
X42954Y29485D01*
X42978Y29459D01*
X42766Y29247D01*
X42740Y29271D01*
X42714Y29293D01*
X42688Y29313D01*
X42662Y29330D01*
X42636Y29344D01*
X42609Y29355D01*
X42583Y29364D01*
X42557Y29370D01*
X42530Y29374D01*
X42504Y29375D01*
X42850Y29722D01*
X42851Y29695D01*
D02*
G37*
%LPC*%
G36*
X40940Y47501D02*
X40757Y47477D01*
X40587Y47406D01*
X40441Y47294D01*
X40431Y47282D01*
X40298D01*
X39741Y46724D01*
X39599Y46866D01*
X40089Y47356D01*
X40023Y47406D01*
X39853Y47477D01*
X39670Y47501D01*
X39487Y47477D01*
X39317Y47406D01*
X39171Y47294D01*
X39161Y47282D01*
X38909D01*
X38899Y47294D01*
X38753Y47406D01*
X38583Y47477D01*
X38400Y47501D01*
X38217Y47477D01*
X38047Y47406D01*
X37901Y47294D01*
X37789Y47148D01*
X37718Y46978D01*
X37694Y46795D01*
X37718Y46612D01*
X37789Y46442D01*
X37901Y46296D01*
X37913Y46286D01*
Y46034D01*
X37901Y46024D01*
X37789Y45878D01*
X37718Y45708D01*
X37694Y45525D01*
X37718Y45342D01*
X37789Y45172D01*
X37901Y45026D01*
X38047Y44914D01*
X38217Y44843D01*
X38400Y44819D01*
X38583Y44843D01*
X38753Y44914D01*
X38899Y45026D01*
X38909Y45038D01*
X39161D01*
X39171Y45026D01*
X39317Y44914D01*
X39487Y44843D01*
X39670Y44819D01*
X39853Y44843D01*
X40023Y44914D01*
X40169Y45026D01*
X40179Y45038D01*
X40431D01*
X40441Y45026D01*
X40587Y44914D01*
X40757Y44843D01*
X40940Y44819D01*
X41123Y44843D01*
X41293Y44914D01*
X41439Y45026D01*
X41551Y45172D01*
X41622Y45342D01*
X41646Y45525D01*
X41622Y45708D01*
X41551Y45878D01*
X41439Y46024D01*
X41427Y46034D01*
Y46286D01*
X41439Y46296D01*
X41551Y46442D01*
X41622Y46612D01*
X41646Y46795D01*
X41622Y46978D01*
X41551Y47148D01*
X41439Y47294D01*
X41293Y47406D01*
X41123Y47477D01*
X40940Y47501D01*
D02*
G37*
G36*
X35940Y45881D02*
X35757Y45857D01*
X35587Y45786D01*
X35441Y45674D01*
X35431Y45662D01*
X35179D01*
X35169Y45674D01*
X35023Y45786D01*
X34853Y45857D01*
X34670Y45881D01*
X34487Y45857D01*
X34317Y45786D01*
X34171Y45674D01*
X34161Y45662D01*
X33909D01*
X33899Y45674D01*
X33753Y45786D01*
X33583Y45857D01*
X33400Y45881D01*
X33217Y45857D01*
X33047Y45786D01*
X32901Y45674D01*
X32789Y45528D01*
X32718Y45358D01*
X32694Y45175D01*
X32718Y44992D01*
X32789Y44822D01*
X32901Y44676D01*
X32913Y44666D01*
Y44414D01*
X32901Y44404D01*
X32789Y44258D01*
X32718Y44088D01*
X32694Y43905D01*
X32718Y43722D01*
X32789Y43552D01*
X32901Y43406D01*
X33047Y43294D01*
X33217Y43223D01*
X33400Y43199D01*
X33415Y43201D01*
X33450Y43200D01*
X33489Y43197D01*
X33524Y43192D01*
X33557Y43184D01*
X33586Y43175D01*
X33613Y43165D01*
X33637Y43152D01*
X33659Y43138D01*
X33671Y43130D01*
X33794Y43006D01*
X33712Y42834D01*
X33697Y42821D01*
X33524Y42843D01*
X33342Y42819D01*
X33171Y42749D01*
X33025Y42637D01*
X33015Y42624D01*
X32763D01*
X32754Y42637D01*
X32607Y42749D01*
X32437Y42819D01*
X32254Y42843D01*
X32072Y42819D01*
X31901Y42749D01*
X31755Y42637D01*
X31643Y42490D01*
X31572Y42320D01*
X31548Y42137D01*
X31572Y41955D01*
X31643Y41784D01*
X31755Y41638D01*
X31768Y41628D01*
Y41376D01*
X31755Y41367D01*
X31643Y41220D01*
X31572Y41050D01*
X31548Y40867D01*
X31572Y40685D01*
X31643Y40514D01*
X31755Y40368D01*
X31901Y40256D01*
X32072Y40185D01*
X32254Y40161D01*
X32437Y40185D01*
X32607Y40256D01*
X32754Y40368D01*
X32763Y40381D01*
X32896D01*
X33454Y40938D01*
X33595Y40797D01*
X33105Y40307D01*
X33171Y40256D01*
X33342Y40185D01*
X33524Y40161D01*
X33707Y40185D01*
X33877Y40256D01*
X34024Y40368D01*
X34033Y40381D01*
X34166D01*
X34724Y40938D01*
X35281Y41495D01*
Y41628D01*
X35294Y41638D01*
X35406Y41784D01*
X35476Y41955D01*
X35489Y42049D01*
X35695Y42126D01*
X40343Y37477D01*
Y36376D01*
X40143Y36269D01*
X40115Y36288D01*
X39900Y36331D01*
X39685Y36288D01*
X39503Y36166D01*
X39382Y35984D01*
X39339Y35770D01*
X39382Y35555D01*
X39503Y35373D01*
X39685Y35252D01*
X39900Y35209D01*
X40115Y35252D01*
X40143Y35271D01*
X40343Y35164D01*
Y29925D01*
X40370Y29788D01*
X40448Y29673D01*
X42498Y27623D01*
X42613Y27545D01*
X42750Y27518D01*
X50523D01*
X50539Y27516D01*
X50555Y27512D01*
X50568Y27508D01*
X50579Y27504D01*
X50587Y27500D01*
X50591Y27498D01*
X50603Y27478D01*
X50785Y27357D01*
X51000Y27314D01*
X51215Y27357D01*
X51397Y27478D01*
X51518Y27660D01*
X51561Y27875D01*
X51518Y28090D01*
X51397Y28272D01*
X51215Y28393D01*
X51000Y28436D01*
X50785Y28393D01*
X50603Y28272D01*
X50591Y28252D01*
X50587Y28250D01*
X50579Y28246D01*
X50568Y28242D01*
X50555Y28238D01*
X50539Y28234D01*
X50523Y28232D01*
X42898D01*
X41057Y30073D01*
Y37625D01*
X41030Y37762D01*
X40952Y37877D01*
X35816Y43014D01*
X35910Y43203D01*
X35940Y43199D01*
X36123Y43223D01*
X36293Y43294D01*
X36439Y43406D01*
X36551Y43552D01*
X36622Y43722D01*
X36646Y43905D01*
X36622Y44088D01*
X36551Y44258D01*
X36439Y44404D01*
X36427Y44414D01*
Y44666D01*
X36439Y44676D01*
X36551Y44822D01*
X36622Y44992D01*
X36646Y45175D01*
X36622Y45358D01*
X36551Y45528D01*
X36501Y45594D01*
X36011Y45104D01*
X35869Y45246D01*
X36359Y45736D01*
X36293Y45786D01*
X36123Y45857D01*
X35940Y45881D01*
D02*
G37*
G36*
X42300Y44586D02*
X42085Y44543D01*
X41903Y44422D01*
X41782Y44240D01*
X41739Y44025D01*
X41782Y43810D01*
X41903Y43628D01*
X42085Y43507D01*
X42300Y43464D01*
X42515Y43507D01*
X42697Y43628D01*
X42818Y43810D01*
X42861Y44025D01*
X42818Y44240D01*
X42697Y44422D01*
X42515Y44543D01*
X42300Y44586D01*
D02*
G37*
G36*
X62746Y42843D02*
X62564Y42819D01*
X62393Y42749D01*
X62247Y42637D01*
X62237Y42624D01*
X61985D01*
X61976Y42637D01*
X61829Y42749D01*
X61659Y42819D01*
X61476Y42843D01*
X61294Y42819D01*
X61123Y42749D01*
X60977Y42637D01*
X60967Y42624D01*
X60715D01*
X60706Y42637D01*
X60559Y42749D01*
X60389Y42819D01*
X60206Y42843D01*
X60024Y42819D01*
X59853Y42749D01*
X59707Y42637D01*
X59595Y42490D01*
X59524Y42320D01*
X59500Y42137D01*
X59524Y41955D01*
X59595Y41784D01*
X59707Y41638D01*
X59720Y41628D01*
Y41376D01*
X59707Y41367D01*
X59595Y41220D01*
X59524Y41050D01*
X59500Y40867D01*
X59524Y40685D01*
X59595Y40514D01*
X59707Y40368D01*
X59853Y40256D01*
X60024Y40185D01*
X60206Y40161D01*
X60389Y40185D01*
X60559Y40256D01*
X60706Y40368D01*
X60715Y40381D01*
X60967D01*
X60977Y40368D01*
X61123Y40256D01*
X61294Y40185D01*
X61476Y40161D01*
X61659Y40185D01*
X61829Y40256D01*
X61976Y40368D01*
X61985Y40381D01*
X62237D01*
X62247Y40368D01*
X62393Y40256D01*
X62564Y40185D01*
X62746Y40161D01*
X62929Y40185D01*
X63099Y40256D01*
X63246Y40368D01*
X63358Y40514D01*
X63428Y40685D01*
X63452Y40867D01*
X63428Y41050D01*
X63358Y41220D01*
X63246Y41367D01*
X63233Y41376D01*
Y41628D01*
X63246Y41638D01*
X63358Y41784D01*
X63428Y41955D01*
X63452Y42137D01*
X63428Y42320D01*
X63358Y42490D01*
X63246Y42637D01*
X63099Y42749D01*
X62929Y42819D01*
X62746Y42843D01*
D02*
G37*
G36*
X51550Y43686D02*
X51335Y43643D01*
X51153Y43522D01*
X51032Y43340D01*
X50989Y43125D01*
X51032Y42910D01*
X51153Y42728D01*
X51335Y42607D01*
X51550Y42564D01*
X51765Y42607D01*
X51947Y42728D01*
X52068Y42910D01*
X52111Y43125D01*
X52068Y43340D01*
X51947Y43522D01*
X51765Y43643D01*
X51550Y43686D01*
D02*
G37*
G36*
X50000Y43436D02*
X49785Y43393D01*
X49603Y43272D01*
X49482Y43090D01*
X49439Y42875D01*
X49482Y42660D01*
X49603Y42478D01*
X49785Y42357D01*
X50000Y42314D01*
X50215Y42357D01*
X50397Y42478D01*
X50518Y42660D01*
X50561Y42875D01*
X50518Y43090D01*
X50397Y43272D01*
X50215Y43393D01*
X50000Y43436D01*
D02*
G37*
G36*
X56950Y43386D02*
X56735Y43343D01*
X56553Y43222D01*
X56432Y43040D01*
X56389Y42825D01*
X56432Y42610D01*
X56553Y42428D01*
X56735Y42307D01*
X56950Y42264D01*
X57165Y42307D01*
X57347Y42428D01*
X57553Y42377D01*
X57660Y42305D01*
X57875Y42262D01*
X58089Y42305D01*
X58271Y42427D01*
X58393Y42609D01*
X58435Y42823D01*
X58393Y43038D01*
X58271Y43220D01*
X58089Y43341D01*
X57875Y43384D01*
X57660Y43341D01*
X57478Y43220D01*
X57272Y43271D01*
X57165Y43343D01*
X56950Y43386D01*
D02*
G37*
G36*
X44500Y42236D02*
X44285Y42193D01*
X44103Y42072D01*
X43982Y41890D01*
X43944Y41700D01*
X43907Y41654D01*
X43759Y41555D01*
X43604Y41586D01*
X43389Y41543D01*
X43207Y41422D01*
X43086Y41240D01*
X43043Y41025D01*
X43086Y40810D01*
X43207Y40628D01*
X43389Y40507D01*
X43604Y40464D01*
X43818Y40507D01*
X44000Y40628D01*
X44122Y40810D01*
X44160Y41000D01*
X44197Y41046D01*
X44345Y41145D01*
X44500Y41114D01*
X44715Y41157D01*
X44897Y41278D01*
X45018Y41460D01*
X45061Y41675D01*
X45018Y41890D01*
X44897Y42072D01*
X44715Y42193D01*
X44500Y42236D01*
D02*
G37*
G36*
X35355Y41287D02*
X34865Y40797D01*
X34375Y40307D01*
X34441Y40256D01*
X34612Y40185D01*
X34794Y40161D01*
X34977Y40185D01*
X35147Y40256D01*
X35294Y40368D01*
X35406Y40514D01*
X35476Y40685D01*
X35500Y40867D01*
X35476Y41050D01*
X35406Y41220D01*
X35355Y41287D01*
D02*
G37*
G36*
X52993Y40443D02*
X52778Y40400D01*
X52596Y40279D01*
X52475Y40097D01*
X52432Y39882D01*
X52475Y39668D01*
X52596Y39486D01*
X52778Y39364D01*
X52993Y39321D01*
X53207Y39364D01*
X53389Y39486D01*
X53511Y39668D01*
X53554Y39882D01*
X53511Y40097D01*
X53389Y40279D01*
X53207Y40400D01*
X52993Y40443D01*
D02*
G37*
G36*
X50000D02*
X49785Y40400D01*
X49603Y40279D01*
X49482Y40097D01*
X49439Y39882D01*
X49482Y39668D01*
X49603Y39486D01*
X49785Y39364D01*
X50000Y39321D01*
X50215Y39364D01*
X50397Y39486D01*
X50518Y39668D01*
X50561Y39882D01*
X50518Y40097D01*
X50397Y40279D01*
X50215Y40400D01*
X50000Y40443D01*
D02*
G37*
G36*
X32254Y39686D02*
X32040Y39643D01*
X31858Y39522D01*
X31736Y39340D01*
X31693Y39125D01*
X31736Y38910D01*
X31858Y38728D01*
X32040Y38607D01*
X32254Y38564D01*
X32469Y38607D01*
X32651Y38728D01*
X32772Y38910D01*
X32815Y39125D01*
X32772Y39340D01*
X32651Y39522D01*
X32469Y39643D01*
X32254Y39686D01*
D02*
G37*
G36*
X50000Y38486D02*
X49785Y38443D01*
X49603Y38322D01*
X49482Y38140D01*
X49439Y37925D01*
X49482Y37710D01*
X49603Y37528D01*
X49785Y37407D01*
X50000Y37364D01*
X50215Y37407D01*
X50397Y37528D01*
X50518Y37710D01*
X50561Y37925D01*
X50518Y38140D01*
X50397Y38322D01*
X50215Y38443D01*
X50000Y38486D01*
D02*
G37*
G36*
X37700Y38186D02*
X37485Y38143D01*
X37303Y38022D01*
X37182Y37840D01*
X37139Y37625D01*
X37182Y37410D01*
X37303Y37228D01*
X37485Y37107D01*
X37700Y37064D01*
X37915Y37107D01*
X38097Y37228D01*
X38218Y37410D01*
X38261Y37625D01*
X38218Y37840D01*
X38097Y38022D01*
X37915Y38143D01*
X37700Y38186D01*
D02*
G37*
G36*
X35500D02*
X35285Y38143D01*
X35103Y38022D01*
X34982Y37840D01*
X34939Y37625D01*
X34982Y37410D01*
X35103Y37228D01*
X35285Y37107D01*
X35500Y37064D01*
X35715Y37107D01*
X35897Y37228D01*
X36018Y37410D01*
X36061Y37625D01*
X36018Y37840D01*
X35897Y38022D01*
X35715Y38143D01*
X35500Y38186D01*
D02*
G37*
G36*
X47500Y39186D02*
X47285Y39143D01*
X47103Y39022D01*
X46982Y38840D01*
X46939Y38625D01*
X46982Y38410D01*
X47103Y38228D01*
X47233Y38142D01*
X47246Y38085D01*
X47244Y37959D01*
X47233Y37920D01*
X47096Y37829D01*
X46975Y37647D01*
X46932Y37432D01*
X46975Y37218D01*
X47096Y37036D01*
X47240Y36939D01*
X47258Y36847D01*
Y36811D01*
X47240Y36718D01*
X47096Y36622D01*
X46975Y36440D01*
X46932Y36225D01*
X46975Y36010D01*
X47096Y35828D01*
X47278Y35707D01*
X47493Y35664D01*
X47707Y35707D01*
X47889Y35828D01*
X48011Y36010D01*
X48054Y36225D01*
X48011Y36440D01*
X47889Y36622D01*
X47745Y36718D01*
X47727Y36811D01*
Y36847D01*
X47745Y36939D01*
X47889Y37036D01*
X48011Y37218D01*
X48054Y37432D01*
X48011Y37647D01*
X47889Y37829D01*
X47760Y37915D01*
X47747Y37972D01*
X47749Y38098D01*
X47760Y38137D01*
X47897Y38228D01*
X48018Y38410D01*
X48061Y38625D01*
X48018Y38840D01*
X47897Y39022D01*
X47715Y39143D01*
X47500Y39186D01*
D02*
G37*
G36*
X33750Y35436D02*
X33535Y35393D01*
X33353Y35272D01*
X33232Y35090D01*
X33189Y34875D01*
X33232Y34660D01*
X33353Y34478D01*
X33535Y34357D01*
X33750Y34314D01*
X33965Y34357D01*
X34147Y34478D01*
X34268Y34660D01*
X34311Y34875D01*
X34268Y35090D01*
X34147Y35272D01*
X33965Y35393D01*
X33750Y35436D01*
D02*
G37*
G36*
X38500Y34186D02*
X38285Y34143D01*
X38103Y34022D01*
X37982Y33840D01*
X37939Y33625D01*
X37982Y33410D01*
X38103Y33228D01*
X38285Y33107D01*
X38500Y33064D01*
X38715Y33107D01*
X38897Y33228D01*
X39018Y33410D01*
X39061Y33625D01*
X39018Y33840D01*
X38897Y34022D01*
X38715Y34143D01*
X38500Y34186D01*
D02*
G37*
G36*
X35000Y32686D02*
X34785Y32643D01*
X34603Y32522D01*
X34482Y32340D01*
X34439Y32125D01*
X34482Y31910D01*
X34603Y31728D01*
X34785Y31607D01*
X35000Y31564D01*
X35215Y31607D01*
X35397Y31728D01*
X35518Y31910D01*
X35561Y32125D01*
X35518Y32340D01*
X35397Y32522D01*
X35215Y32643D01*
X35000Y32686D01*
D02*
G37*
G36*
X52900Y29786D02*
X52685Y29743D01*
X52596Y29683D01*
X52450Y29638D01*
X52304Y29683D01*
X52215Y29743D01*
X52000Y29786D01*
X51785Y29743D01*
X51603Y29622D01*
X51482Y29440D01*
X51439Y29225D01*
X51482Y29010D01*
X51603Y28828D01*
X51785Y28707D01*
X52000Y28664D01*
X52215Y28707D01*
X52304Y28767D01*
X52450Y28812D01*
X52596Y28767D01*
X52685Y28707D01*
X52900Y28664D01*
X53115Y28707D01*
X53297Y28828D01*
X53418Y29010D01*
X53461Y29225D01*
X53418Y29440D01*
X53297Y29622D01*
X53115Y29743D01*
X52900Y29786D01*
D02*
G37*
G36*
X58795Y29431D02*
X58612Y29407D01*
X58442Y29336D01*
X58296Y29224D01*
X58286Y29212D01*
X58034D01*
X58024Y29224D01*
X57878Y29336D01*
X57708Y29407D01*
X57525Y29431D01*
X57342Y29407D01*
X57172Y29336D01*
X57026Y29224D01*
X57016Y29212D01*
X56764D01*
X56754Y29224D01*
X56608Y29336D01*
X56438Y29407D01*
X56255Y29431D01*
X56072Y29407D01*
X55902Y29336D01*
X55756Y29224D01*
X55644Y29078D01*
X55573Y28908D01*
X55549Y28725D01*
X55573Y28542D01*
X55644Y28372D01*
X55756Y28226D01*
X55768Y28216D01*
Y27964D01*
X55756Y27954D01*
X55644Y27808D01*
X55573Y27638D01*
X55549Y27455D01*
X55573Y27272D01*
X55644Y27102D01*
X55756Y26956D01*
X55902Y26844D01*
X56072Y26773D01*
X56255Y26749D01*
X56438Y26773D01*
X56608Y26844D01*
X56754Y26956D01*
X56764Y26968D01*
X56897D01*
X57454Y27526D01*
X57596Y27384D01*
X57106Y26894D01*
X57172Y26844D01*
X57342Y26773D01*
X57525Y26749D01*
X57708Y26773D01*
X57878Y26844D01*
X58024Y26956D01*
X58034Y26968D01*
X58286D01*
X58296Y26956D01*
X58442Y26844D01*
X58612Y26773D01*
X58795Y26749D01*
X58978Y26773D01*
X59148Y26844D01*
X59294Y26956D01*
X59406Y27102D01*
X59477Y27272D01*
X59501Y27455D01*
X59477Y27638D01*
X59406Y27808D01*
X59294Y27954D01*
X59282Y27964D01*
Y28216D01*
X59294Y28226D01*
X59406Y28372D01*
X59477Y28542D01*
X59501Y28725D01*
X59477Y28908D01*
X59406Y29078D01*
X59294Y29224D01*
X59148Y29336D01*
X58978Y29407D01*
X58795Y29431D01*
D02*
G37*
G36*
X38420D02*
X38237Y29407D01*
X38067Y29336D01*
X37921Y29224D01*
X37911Y29212D01*
X37659D01*
X37649Y29224D01*
X37503Y29336D01*
X37333Y29407D01*
X37150Y29431D01*
X36967Y29407D01*
X36797Y29336D01*
X36651Y29224D01*
X36641Y29212D01*
X36389D01*
X36379Y29224D01*
X36233Y29336D01*
X36063Y29407D01*
X35880Y29431D01*
X35697Y29407D01*
X35527Y29336D01*
X35381Y29224D01*
X35269Y29078D01*
X35198Y28908D01*
X35174Y28725D01*
X35198Y28542D01*
X35269Y28372D01*
X35381Y28226D01*
X35393Y28216D01*
Y27964D01*
X35381Y27954D01*
X35269Y27808D01*
X35198Y27638D01*
X35174Y27455D01*
X35198Y27272D01*
X35269Y27102D01*
X35381Y26956D01*
X35527Y26844D01*
X35697Y26773D01*
X35880Y26749D01*
X36063Y26773D01*
X36233Y26844D01*
X36379Y26956D01*
X36389Y26968D01*
X36641D01*
X36651Y26956D01*
X36797Y26844D01*
X36967Y26773D01*
X37150Y26749D01*
X37333Y26773D01*
X37503Y26844D01*
X37649Y26956D01*
X37659Y26968D01*
X37911D01*
X37921Y26956D01*
X38067Y26844D01*
X38237Y26773D01*
X38420Y26749D01*
X38603Y26773D01*
X38773Y26844D01*
X38919Y26956D01*
X39031Y27102D01*
X39102Y27272D01*
X39126Y27455D01*
X39102Y27638D01*
X39031Y27808D01*
X38919Y27954D01*
X38907Y27964D01*
Y28216D01*
X38919Y28226D01*
X39031Y28372D01*
X39102Y28542D01*
X39126Y28725D01*
X39102Y28908D01*
X39031Y29078D01*
X38919Y29224D01*
X38773Y29336D01*
X38603Y29407D01*
X38420Y29431D01*
D02*
G37*
%LPD*%
G36*
X33901Y43845D02*
X33905Y43793D01*
X33913Y43743D01*
X33924Y43695D01*
X33937Y43650D01*
X33955Y43608D01*
X33975Y43568D01*
X33999Y43530D01*
X34025Y43495D01*
X34055Y43462D01*
X33843Y43250D01*
X33810Y43280D01*
X33775Y43306D01*
X33737Y43330D01*
X33697Y43350D01*
X33655Y43368D01*
X33610Y43382D01*
X33562Y43392D01*
X33512Y43400D01*
X33460Y43404D01*
X33405Y43405D01*
X33900Y43900D01*
X33901Y43845D01*
D02*
G37*
G36*
X50750Y27630D02*
X50731Y27648D01*
X50709Y27664D01*
X50686Y27678D01*
X50661Y27691D01*
X50634Y27701D01*
X50606Y27710D01*
X50576Y27716D01*
X50543Y27721D01*
X50509Y27724D01*
X50474Y27725D01*
Y28025D01*
X50509Y28026D01*
X50543Y28029D01*
X50576Y28034D01*
X50606Y28040D01*
X50634Y28049D01*
X50661Y28059D01*
X50686Y28072D01*
X50709Y28086D01*
X50731Y28102D01*
X50750Y28120D01*
Y27630D01*
D02*
G37*
D12*
X50711Y46429D02*
X55196D01*
X57100Y44525D01*
X58494D01*
X47800Y43518D02*
X50711Y46429D01*
X55504Y46929D02*
X56300Y47725D01*
X47300Y43725D02*
X50504Y46929D01*
X55504D01*
X44624Y29025D02*
X45000Y29401D01*
X42500Y29725D02*
X43200Y29025D01*
X44624D01*
X45000Y29401D02*
Y39132D01*
X58494Y47725D02*
X58670Y47549D01*
X56300Y47725D02*
X58494D01*
X58670Y46795D02*
Y47549D01*
X47800Y41932D02*
Y43518D01*
X45000Y39132D02*
X47800Y41932D01*
X58670Y44701D02*
Y45525D01*
X58494Y44525D02*
X58670Y44701D01*
X47300Y42139D02*
Y43725D01*
X44000Y38839D02*
X47300Y42139D01*
X44000Y29725D02*
Y38839D01*
X40700Y29925D02*
Y37625D01*
X34280Y43025D02*
X35300D01*
X40700Y37625D01*
X33400Y43905D02*
X34280Y43025D01*
X40700Y29925D02*
X42750Y27875D01*
X51000D01*
D14*
X57525Y27455D02*
X57570D01*
X33524Y40867D02*
X33558D01*
X39670Y46795D02*
Y46855D01*
D47*
X58670Y45525D02*
D03*
Y46795D02*
D03*
X33524Y40867D02*
D03*
X34794D02*
D03*
X39670Y46795D02*
D03*
X57525Y27455D02*
D03*
X35940Y45175D02*
D03*
X33400Y43905D02*
D03*
D48*
X37150Y32125D02*
D03*
X39991Y30375D02*
D03*
X33775D02*
D03*
X64100Y44925D02*
D03*
X52200Y45725D02*
D03*
D49*
X33750Y27375D02*
D03*
X37495Y41970D02*
D03*
Y43875D02*
D03*
X41500Y31625D02*
D03*
X44000Y29725D02*
D03*
X43500Y47375D02*
D03*
X46000Y31625D02*
D03*
X46250Y43125D02*
D03*
X49750Y35375D02*
D03*
X37150Y30375D02*
D03*
X46000Y34375D02*
D03*
X46250Y44875D02*
D03*
X40379Y41504D02*
D03*
X34670Y47375D02*
D03*
X48500Y27125D02*
D03*
X42500Y29725D02*
D03*
X47493Y31625D02*
D03*
X49000Y43125D02*
D03*
Y47375D02*
D03*
X51000Y27875D02*
D03*
X47493Y34375D02*
D03*
X43100Y37625D02*
D03*
M02*
