G04*
G04 #@! TF.GenerationSoftware,Altium Limited,Altium Designer,20.1.8 (145)*
G04*
G04 Layer_Physical_Order=2*
G04 Layer_Color=16711680*
%FSTAX43Y43*%
%MOMM*%
G71*
G04*
G04 #@! TF.SameCoordinates,E683AD83-98AB-4380-AA0D-37E4A2E561CE*
G04*
G04*
G04 #@! TF.FilePolarity,Positive*
G04*
G01*
G75*
%ADD11C,0.250*%
%ADD13C,0.200*%
%ADD38C,0.300*%
%ADD39C,1.000*%
%ADD40C,1.500*%
%ADD41C,0.600*%
%ADD42C,0.700*%
G36*
X012219Y0106655D02*
X0122063Y0106587D01*
X0122028Y010661D01*
X0121901Y0106635D01*
X0121858D01*
X0121852Y0106636D01*
X0121834Y0106639D01*
X0121821Y0106642D01*
X0121813Y0106645D01*
X0121811Y0106646D01*
X0121806Y0106657D01*
X0121694Y0106803D01*
X0121548Y0106915D01*
X0121378Y0106986D01*
X0121195Y010701D01*
X0121012Y0106986D01*
X0120842Y0106915D01*
X0120696Y0106803D01*
X0120674Y0106775D01*
X012053D01*
X0120551Y0106753D01*
X0120521Y0106721D01*
X0120495Y0106687D01*
X0120472Y0106652D01*
X0120453Y0106615D01*
X0120438Y0106577D01*
X0120427Y0106538D01*
X012042Y0106498D01*
X0120416Y0106457D01*
X0120417Y0106414D01*
X0120421Y010637D01*
X0119991Y01068D01*
X0120035Y0106796D01*
X0120078Y0106795D01*
X0120119Y0106799D01*
X0120159Y0106806D01*
X0120198Y0106817D01*
X0120236Y0106832D01*
X0120273Y0106851D01*
X0120308Y0106874D01*
X0120342Y01069D01*
X0120362Y0106919D01*
X0120305Y0106963D01*
X0120122Y0107039D01*
X0119925Y0107065D01*
X0119728Y0107039D01*
X0119545Y0106963D01*
X0119489Y010692D01*
X0120015Y0106394D01*
X0119835Y0106214D01*
X0119252Y0106798D01*
X0119227D01*
X0119193Y0106842D01*
X0119035Y0106963D01*
X0118852Y0107039D01*
X0118655Y0107065D01*
X0118458Y0107039D01*
X0118275Y0106963D01*
X0118219Y010692D01*
X0118745Y0106394D01*
X0118565Y0106214D01*
X0118039Y010674D01*
X0117996Y0106684D01*
X011792Y0106501D01*
X0117894Y0106304D01*
X011792Y0106107D01*
X0117996Y0105924D01*
X0118117Y0105766D01*
X0118161Y0105732D01*
Y0105707D01*
X0118745Y0105124D01*
X0119328Y010454D01*
X0119343D01*
X0119299Y0104585D01*
X0119329Y0104617D01*
X0119355Y0104651D01*
X0119378Y0104686D01*
X0119397Y0104723D01*
X0119412Y0104761D01*
X0119423Y01048D01*
X011943Y010484D01*
X0119434Y0104881D01*
X0119433Y0104924D01*
X0119429Y0104968D01*
X0119859Y0104538D01*
X0119815Y0104542D01*
X0119772Y0104543D01*
X0119731Y0104539D01*
X0119691Y0104532D01*
X0119652Y0104521D01*
X0119614Y0104506D01*
X0119577Y0104487D01*
X0119542Y0104464D01*
X0119508Y0104438D01*
X0119488Y0104419D01*
X0119545Y0104375D01*
X0119728Y0104299D01*
X0119925Y0104273D01*
X0120122Y0104299D01*
X0120305Y0104375D01*
X0120361Y0104418D01*
X0119835Y0104944D01*
X0120015Y0105124D01*
X0120576Y0104563D01*
X0120674D01*
X0120696Y0104535D01*
X0120842Y0104423D01*
X0121012Y0104352D01*
X0121195Y0104328D01*
X0121378Y0104352D01*
X0121548Y0104423D01*
X0121616Y0104475D01*
X0121743Y0104412D01*
Y0104017D01*
X0120961Y0103234D01*
X0120889Y0103127D01*
X0120864Y0103D01*
Y0092108D01*
X0120889Y0091981D01*
X0120961Y0091874D01*
X0121764Y009107D01*
Y009068D01*
X0121637Y0090617D01*
X0121548Y0090685D01*
X0121378Y0090756D01*
X0121195Y009078D01*
X0121012Y0090756D01*
X0120842Y0090685D01*
X0120696Y0090573D01*
X0120639Y0090499D01*
X0120481D01*
X0120424Y0090573D01*
X0120278Y0090685D01*
X0120108Y0090756D01*
X0119925Y009078D01*
X0119742Y0090756D01*
X0119572Y0090685D01*
X0119426Y0090573D01*
X0119369Y0090499D01*
X0119211D01*
X0119154Y0090573D01*
X0119008Y0090685D01*
X0118838Y0090756D01*
X0118655Y009078D01*
X0118472Y0090756D01*
X0118302Y0090685D01*
X0118156Y0090573D01*
X0118044Y0090427D01*
X0117973Y0090257D01*
X0117949Y0090074D01*
X0117973Y0089891D01*
X0118044Y0089721D01*
X0118156Y0089575D01*
X011823Y0089518D01*
Y008936D01*
X0118156Y0089303D01*
X0118147Y0089292D01*
X0118122Y0089267D01*
X0118092Y0089242D01*
X0118063Y008922D01*
X0118034Y0089203D01*
X0118007Y0089188D01*
X0117981Y0089177D01*
X0117955Y0089169D01*
X011793Y0089163D01*
X0117806Y0089205D01*
Y0094809D01*
X0117779Y0094946D01*
X0117701Y0095061D01*
X0117056Y0095706D01*
X0116941Y0095784D01*
X0116804Y0095811D01*
X0114372D01*
X0114022Y009616D01*
X0114018Y0096165D01*
X011401Y0096177D01*
X0114009Y0096179D01*
X0114009Y0096179D01*
X011397Y0096374D01*
X0113859Y0096539D01*
X0113694Y009665D01*
X0113499Y0096689D01*
X0113304Y009665D01*
X0113139Y0096539D01*
X0113028Y0096374D01*
X0112989Y0096179D01*
X0113028Y0095984D01*
X0113139Y0095819D01*
X0113304Y0095708D01*
X0113499Y0095669D01*
X0113499Y0095669D01*
X0113501Y0095668D01*
X0113511Y0095661D01*
X0113521Y0095653D01*
X0113972Y0095202D01*
X0114087Y0095124D01*
X0114224Y0095097D01*
X0116656D01*
X0117092Y0094661D01*
Y008898D01*
X0117119Y0088843D01*
X0117197Y0088727D01*
X0117372Y0088552D01*
X0117488Y0088474D01*
X0117625Y0088447D01*
X0117916D01*
X011793Y0088445D01*
X0117955Y0088439D01*
X0117981Y0088431D01*
X0118007Y008842D01*
X0118034Y0088405D01*
X0118063Y0088388D01*
X0118092Y0088366D01*
X0118122Y0088341D01*
X0118147Y0088316D01*
X0118156Y0088305D01*
X0118302Y0088193D01*
X0118472Y0088122D01*
X0118655Y0088098D01*
X0118838Y0088122D01*
X0119008Y0088193D01*
X0119154Y0088305D01*
X0119176Y0088333D01*
X0119336D01*
X0119341Y0088327D01*
X0119365Y008836D01*
X0119386Y0088398D01*
X0119403Y0088439D01*
X0119417Y0088482D01*
X0119426Y0088529D01*
X0119432Y0088579D01*
X0119435Y0088632D01*
X0119433Y0088688D01*
X0119428Y0088747D01*
X0119972Y0088306D01*
X0119909Y0088299D01*
X0119794Y0088278D01*
X0119742Y0088264D01*
X0119694Y0088248D01*
X0119649Y008823D01*
X0119608Y008821D01*
X0119571Y0088187D01*
X0119537Y0088163D01*
X011953Y0088156D01*
X0119545Y0088145D01*
X0119728Y0088069D01*
X0119925Y0088043D01*
X0120122Y0088069D01*
X0120305Y0088145D01*
X0120361Y0088188D01*
X0119835Y0088714D01*
X0120015Y0088894D01*
X0120576Y0088333D01*
X0120674D01*
X0120696Y0088305D01*
X0120842Y0088193D01*
X0121012Y0088122D01*
X0121195Y0088098D01*
X0121378Y0088122D01*
X0121548Y0088193D01*
X0121694Y0088305D01*
X012173Y0088351D01*
X012174Y0088359D01*
X0121756Y0088376D01*
X0121765Y0088385D01*
X0121775Y0088392D01*
X0121787Y0088399D01*
X0121801Y0088406D01*
X0121818Y0088412D01*
X0121839Y0088417D01*
X0121864Y0088421D01*
X0121877Y0088423D01*
X0121924D01*
X012205Y0088448D01*
X0122063Y0088456D01*
X012219Y0088388D01*
Y0087313D01*
X0088708D01*
Y0107795D01*
X012219D01*
Y0106655D01*
D02*
G37*
G36*
X0121647Y0106522D02*
X0121664Y0106503D01*
X0121684Y0106486D01*
X0121707Y0106471D01*
X0121732Y0106458D01*
X012176Y0106447D01*
X0121791Y0106439D01*
X0121825Y0106434D01*
X0121862Y010643D01*
X0121901Y0106429D01*
Y0106179D01*
X0121862Y0106178D01*
X0121825Y0106174D01*
X0121791Y0106169D01*
X012176Y0106161D01*
X0121732Y010615D01*
X0121707Y0106137D01*
X0121684Y0106122D01*
X0121664Y0106105D01*
X0121647Y0106086D01*
X0121633Y0106064D01*
Y0106544D01*
X0121647Y0106522D01*
D02*
G37*
G36*
X01138Y0096159D02*
X0113803Y0096141D01*
X0113809Y0096123D01*
X0113817Y0096103D01*
X0113828Y0096084D01*
X0113841Y0096063D01*
X0113856Y0096042D01*
X0113874Y009602D01*
X0113916Y0095974D01*
X0113704Y0095762D01*
X0113681Y0095784D01*
X0113636Y0095822D01*
X0113615Y0095837D01*
X0113594Y009585D01*
X0113575Y0095861D01*
X0113555Y0095869D01*
X0113537Y0095875D01*
X0113519Y0095878D01*
X0113502Y0095879D01*
X0113799Y0096176D01*
X01138Y0096159D01*
D02*
G37*
G36*
X012219Y010336D02*
Y0091748D01*
X0122073Y0091699D01*
X0121526Y0092245D01*
Y0102863D01*
X0122073Y0103409D01*
X012219Y010336D01*
D02*
G37*
G36*
X0121658Y0089001D02*
X0121677Y0088976D01*
X0121699Y0088953D01*
X0121723Y0088933D01*
X012175Y0088917D01*
X0121779Y0088903D01*
X0121812Y0088893D01*
X0121846Y0088885D01*
X0121884Y0088881D01*
X0121924Y0088879D01*
Y0088629D01*
X0121879Y0088628D01*
X0121837Y0088624D01*
X0121797Y0088617D01*
X012176Y0088607D01*
X0121725Y0088595D01*
X0121692Y008858D01*
X0121662Y0088563D01*
X0121635Y0088542D01*
X012161Y0088519D01*
X0121587Y0088494D01*
X0121641Y008903D01*
X0121658Y0089001D01*
D02*
G37*
G36*
X0118298Y0088454D02*
X0118258Y0088492D01*
X0118218Y0088526D01*
X0118178Y0088556D01*
X0118137Y0088582D01*
X0118095Y0088604D01*
X0118053Y0088622D01*
X011801Y0088636D01*
X0117966Y0088646D01*
X0117923Y0088652D01*
X0117878Y0088654D01*
Y0088954D01*
X0117923Y0088956D01*
X0117966Y0088962D01*
X011801Y0088972D01*
X0118053Y0088986D01*
X0118095Y0089004D01*
X0118137Y0089026D01*
X0118178Y0089052D01*
X0118218Y0089082D01*
X0118258Y0089116D01*
X0118298Y0089154D01*
Y0088454D01*
D02*
G37*
%LPC*%
G36*
X0094173Y010754D02*
X0092268D01*
X0092131Y0107513D01*
X0092016Y0107436D01*
X009184Y010726D01*
X0091763Y0107144D01*
X0091735Y0107008D01*
Y0106965D01*
X0091735Y0106963D01*
X009162Y0106915D01*
X0091474Y0106803D01*
X0091417Y0106729D01*
X0091259D01*
X0091202Y0106803D01*
X0091056Y0106915D01*
X0090886Y0106986D01*
X0090703Y010701D01*
X009052Y0106986D01*
X009035Y0106915D01*
X0090204Y0106803D01*
X0090092Y0106657D01*
X0090021Y0106487D01*
X0089997Y0106304D01*
X0090021Y0106121D01*
X0090092Y0105951D01*
X0090204Y0105805D01*
X0090278Y0105748D01*
Y010559D01*
X0090204Y0105533D01*
X0090092Y0105387D01*
X0090021Y0105217D01*
X0089997Y0105034D01*
X0090021Y0104851D01*
X0090092Y0104681D01*
X0090204Y0104535D01*
X009035Y0104423D01*
X009052Y0104352D01*
X0090703Y0104328D01*
X0090886Y0104352D01*
X0091056Y0104423D01*
X0091202Y0104535D01*
X0091259Y0104609D01*
X0091417D01*
X0091474Y0104535D01*
X009162Y0104423D01*
X009179Y0104352D01*
X0091973Y0104328D01*
X0092156Y0104352D01*
X0092326Y0104423D01*
X0092472Y0104535D01*
X0092529Y0104609D01*
X0092687D01*
X0092744Y0104535D01*
X009289Y0104423D01*
X009306Y0104352D01*
X0093243Y0104328D01*
X0093426Y0104352D01*
X0093596Y0104423D01*
X0093742Y0104535D01*
X0093854Y0104681D01*
X0093865Y0104707D01*
X0093992Y0104682D01*
Y0102302D01*
X0093197Y0101506D01*
X0093119Y0101391D01*
X0093092Y0101254D01*
Y0088176D01*
X0092784D01*
X0092741Y0088303D01*
X0092742Y0088305D01*
X0092854Y0088451D01*
X0092925Y0088621D01*
X0092949Y0088804D01*
X0092925Y0088987D01*
X0092854Y0089157D01*
X0092742Y0089303D01*
X0092668Y008936D01*
Y0089518D01*
X0092742Y0089575D01*
X0092854Y0089721D01*
X0092925Y0089891D01*
X0092949Y0090074D01*
X0092925Y0090257D01*
X0092854Y0090427D01*
X0092742Y0090573D01*
X0092596Y0090685D01*
X0092426Y0090756D01*
X0092243Y009078D01*
X009206Y0090756D01*
X009189Y0090685D01*
X0091744Y0090573D01*
X0091687Y0090499D01*
X0091529D01*
X0091472Y0090573D01*
X0091326Y0090685D01*
X0091156Y0090756D01*
X0090973Y009078D01*
X009079Y0090756D01*
X009062Y0090685D01*
X0090474Y0090573D01*
X0090417Y0090499D01*
X0090259D01*
X0090202Y0090573D01*
X0090056Y0090685D01*
X0089886Y0090756D01*
X0089703Y009078D01*
X008952Y0090756D01*
X008935Y0090685D01*
X0089204Y0090573D01*
X0089092Y0090427D01*
X0089021Y0090257D01*
X0088997Y0090074D01*
X0089021Y0089891D01*
X0089092Y0089721D01*
X0089204Y0089575D01*
X0089278Y0089518D01*
Y008936D01*
X0089204Y0089303D01*
X0089092Y0089157D01*
X0089021Y0088987D01*
X0088997Y0088804D01*
X0089021Y0088621D01*
X0089092Y0088451D01*
X0089204Y0088305D01*
X008935Y0088193D01*
X008952Y0088122D01*
X0089703Y0088098D01*
X0089886Y0088122D01*
X0090056Y0088193D01*
X0090202Y0088305D01*
X0090259Y0088379D01*
X0090417D01*
X0090474Y0088305D01*
X0090485Y0088296D01*
X009051Y0088271D01*
X0090535Y0088241D01*
X0090557Y0088212D01*
X0090574Y0088183D01*
X0090589Y0088156D01*
X00906Y008813D01*
X0090608Y0088104D01*
X0090614Y0088079D01*
X0090616Y0088065D01*
Y0087995D01*
X0090643Y0087859D01*
X0090721Y0087743D01*
X0090896Y0087567D01*
X0091012Y008749D01*
X0091149Y0087463D01*
X0093273D01*
X009341Y008749D01*
X0093526Y0087567D01*
X0093701Y0087743D01*
X0093779Y0087859D01*
X0093806Y0087995D01*
Y0101106D01*
X0094601Y0101902D01*
X0094679Y0102017D01*
X0094706Y0102154D01*
Y0107008D01*
X0094679Y0107144D01*
X0094601Y010726D01*
X0094426Y0107436D01*
X009431Y0107513D01*
X0094173Y010754D01*
D02*
G37*
G36*
X0118039Y010547D02*
X0117996Y0105414D01*
X011792Y0105231D01*
X0117894Y0105034D01*
X011792Y0104837D01*
X0117996Y0104654D01*
X0118117Y0104496D01*
X0118275Y0104375D01*
X0118458Y0104299D01*
X0118655Y0104273D01*
X0118852Y0104299D01*
X0119035Y0104375D01*
X0119091Y0104418D01*
X0118565Y0104944D01*
X0118039Y010547D01*
D02*
G37*
G36*
X0105714Y0101863D02*
X0105184D01*
X0105167Y010186D01*
X010515Y0101861D01*
X0104623Y0101791D01*
X0104607Y0101786D01*
X010459Y0101785D01*
X0104077Y0101647D01*
X0104062Y010164D01*
X0104045Y0101637D01*
X0103555Y0101433D01*
X0103541Y0101424D01*
X0103524Y0101418D01*
X0103065Y0101153D01*
X0103052Y0101142D01*
X0103036Y0101134D01*
X0102615Y0100811D01*
X0102604Y0100798D01*
X010259Y0100789D01*
X0102214Y0100413D01*
X0102205Y0100399D01*
X0102192Y0100388D01*
X0101869Y0099967D01*
X0101861Y0099951D01*
X010185Y0099938D01*
X0101585Y0099479D01*
X0101579Y0099462D01*
X010157Y0099448D01*
X0101366Y0098958D01*
X0101363Y0098941D01*
X0101356Y0098926D01*
X0101218Y0098413D01*
X0101217Y0098396D01*
X0101212Y009838D01*
X0101142Y0097853D01*
X0101143Y0097836D01*
X010114Y0097819D01*
Y0097289D01*
X0101143Y0097272D01*
X0101142Y0097255D01*
X0101212Y0096728D01*
X0101217Y0096712D01*
X0101218Y0096695D01*
X0101356Y0096182D01*
X0101363Y0096167D01*
X0101366Y009615D01*
X010157Y009566D01*
X0101579Y0095646D01*
X0101585Y0095629D01*
X010185Y009517D01*
X0101861Y0095157D01*
X0101869Y0095141D01*
X0102192Y009472D01*
X0102205Y0094709D01*
X0102214Y0094695D01*
X010259Y0094319D01*
X0102604Y009431D01*
X0102615Y0094297D01*
X0103036Y0093974D01*
X0103052Y0093966D01*
X0103065Y0093955D01*
X0103524Y009369D01*
X0103541Y0093684D01*
X0103555Y0093675D01*
X0104045Y0093471D01*
X0104062Y0093468D01*
X0104077Y0093461D01*
X010459Y0093323D01*
X0104607Y0093322D01*
X0104623Y0093317D01*
X010515Y0093247D01*
X0105167Y0093248D01*
X0105184Y0093245D01*
X0105714D01*
X0105731Y0093248D01*
X0105748Y0093247D01*
X0106275Y0093317D01*
X0106291Y0093322D01*
X0106308Y0093323D01*
X0106821Y0093461D01*
X0106836Y0093468D01*
X0106853Y0093471D01*
X0107343Y0093675D01*
X0107357Y0093684D01*
X0107374Y009369D01*
X0107833Y0093955D01*
X0107846Y0093966D01*
X0107862Y0093974D01*
X0108283Y0094297D01*
X0108294Y009431D01*
X0108308Y0094319D01*
X0108684Y0094695D01*
X0108693Y0094709D01*
X0108706Y009472D01*
X0109029Y0095141D01*
X0109037Y0095157D01*
X0109048Y009517D01*
X0109313Y0095629D01*
X0109319Y0095646D01*
X0109328Y009566D01*
X0109532Y009615D01*
X0109535Y0096167D01*
X0109542Y0096182D01*
X010968Y0096695D01*
X0109681Y0096712D01*
X0109686Y0096728D01*
X0109756Y0097255D01*
X0109755Y0097272D01*
X0109758Y0097289D01*
Y0097819D01*
X0109755Y0097836D01*
X0109756Y0097853D01*
X0109686Y009838D01*
X0109681Y0098396D01*
X010968Y0098413D01*
X0109542Y0098926D01*
X0109535Y0098941D01*
X0109532Y0098958D01*
X0109328Y0099448D01*
X0109319Y0099462D01*
X0109313Y0099479D01*
X0109048Y0099938D01*
X0109037Y0099951D01*
X0109029Y0099967D01*
X0108706Y0100388D01*
X0108693Y0100399D01*
X0108684Y0100413D01*
X0108308Y0100789D01*
X0108294Y0100798D01*
X0108283Y0100811D01*
X0107862Y0101134D01*
X0107846Y0101142D01*
X0107833Y0101153D01*
X0107374Y0101418D01*
X0107357Y0101424D01*
X0107343Y0101433D01*
X0106853Y0101637D01*
X0106836Y010164D01*
X0106821Y0101647D01*
X0106308Y0101785D01*
X0106291Y0101786D01*
X0106275Y0101791D01*
X0105748Y0101861D01*
X0105731Y010186D01*
X0105714Y0101863D01*
D02*
G37*
G36*
X0115949Y0098567D02*
X0115687Y0098532D01*
X0115443Y0098431D01*
X0115335Y0098348D01*
X0116039Y0097644D01*
X0116743Y009694D01*
X0116826Y0097048D01*
X0116927Y0097292D01*
X0116962Y0097554D01*
X0116927Y0097816D01*
X0116826Y009806D01*
X0116665Y009827D01*
X0116455Y0098431D01*
X0116211Y0098532D01*
X0115949Y0098567D01*
D02*
G37*
G36*
X0094949D02*
X0094687Y0098532D01*
X0094443Y0098431D01*
X0094233Y009827D01*
X0094072Y009806D01*
X0093971Y0097816D01*
X0093936Y0097554D01*
X0093971Y0097292D01*
X0094072Y0097048D01*
X0094155Y009694D01*
X0094859Y0097644D01*
X0095563Y0098348D01*
X0095455Y0098431D01*
X0095211Y0098532D01*
X0094949Y0098567D01*
D02*
G37*
G36*
X0115155Y0098168D02*
X0115072Y009806D01*
X0114971Y0097816D01*
X0114936Y0097554D01*
X0114971Y0097292D01*
X0115072Y0097048D01*
X0115233Y0096838D01*
X0115443Y0096677D01*
X0115687Y0096576D01*
X0115949Y0096541D01*
X0116211Y0096576D01*
X0116455Y0096677D01*
X0116563Y009676D01*
X0115859Y0097464D01*
X0115155Y0098168D01*
D02*
G37*
G36*
X0095743Y0098168D02*
X0095039Y0097464D01*
X0094335Y009676D01*
X0094443Y0096677D01*
X0094687Y0096576D01*
X0094949Y0096541D01*
X0095211Y0096576D01*
X0095455Y0096677D01*
X0095665Y0096838D01*
X0095826Y0097048D01*
X0095927Y0097292D01*
X0095962Y0097554D01*
X0095927Y0097816D01*
X0095826Y009806D01*
X0095743Y0098168D01*
D02*
G37*
G36*
X0112024Y0096714D02*
X0111829Y0096675D01*
X0111664Y0096564D01*
X0111553Y0096399D01*
X0111514Y0096204D01*
X0111553Y0096009D01*
X0111664Y0095844D01*
X0111664Y0095843D01*
X0111664Y0095841D01*
X0111666Y009583D01*
X0111667Y0095816D01*
Y0094783D01*
X0108152Y0091268D01*
X0108146Y0091264D01*
X0108135Y0091255D01*
X0108133Y0091254D01*
X0108133Y0091254D01*
X0107938Y0091215D01*
X0107772Y0091105D01*
X0107662Y009094D01*
X0107623Y0090744D01*
X0107662Y0090549D01*
X0107772Y0090384D01*
X0107938Y0090274D01*
X0108133Y0090235D01*
X0108328Y0090274D01*
X0108493Y0090384D01*
X0108604Y0090549D01*
X0108643Y0090744D01*
X0108643Y0090745D01*
X0108644Y0090747D01*
X0108651Y0090756D01*
X0108659Y0090766D01*
X0112276Y0094383D01*
X0112354Y0094499D01*
X0112381Y0094636D01*
Y0095821D01*
X0112382Y0095827D01*
X0112384Y0095841D01*
X0112384Y0095843D01*
X0112384Y0095844D01*
X0112495Y0096009D01*
X0112534Y0096204D01*
X0112495Y0096399D01*
X0112384Y0096564D01*
X0112219Y0096675D01*
X0112024Y0096714D01*
D02*
G37*
%LPD*%
G36*
X0092243Y0106956D02*
X0092249Y0106864D01*
X0092255Y0106824D01*
X0092262Y0106787D01*
X0092271Y0106755D01*
X0092282Y0106726D01*
X0092294Y01067D01*
X0092308Y0106679D01*
X0092323Y0106661D01*
X0091828Y0106783D01*
X009185Y0106791D01*
X0091869Y0106803D01*
X0091886Y0106817D01*
X0091901Y0106835D01*
X0091914Y0106856D01*
X0091924Y010688D01*
X0091932Y0106907D01*
X0091938Y0106938D01*
X0091941Y0106971D01*
X0091942Y0107008D01*
X0092242D01*
X0092243Y0106956D01*
D02*
G37*
G36*
X0091285Y0088407D02*
X0091251Y0088367D01*
X0091221Y0088327D01*
X0091195Y0088286D01*
X0091173Y0088244D01*
X0091155Y0088202D01*
X0091141Y0088159D01*
X0091131Y0088115D01*
X0091125Y0088072D01*
X0091123Y0088027D01*
X0090823D01*
X0090821Y0088072D01*
X0090815Y0088115D01*
X0090805Y0088159D01*
X0090791Y0088202D01*
X0090773Y0088244D01*
X0090751Y0088286D01*
X0090725Y0088327D01*
X0090695Y0088367D01*
X0090661Y0088407D01*
X0090623Y0088447D01*
X0091323D01*
X0091285Y0088407D01*
D02*
G37*
G36*
X0112223Y0095977D02*
X0112212Y0095962D01*
X0112203Y0095945D01*
X0112196Y0095925D01*
X0112189Y0095904D01*
X0112184Y009588D01*
X0112179Y0095855D01*
X0112176Y0095827D01*
X0112174Y0095764D01*
X0111874D01*
X0111873Y0095796D01*
X0111869Y0095855D01*
X0111864Y009588D01*
X0111859Y0095904D01*
X0111852Y0095925D01*
X0111845Y0095945D01*
X0111836Y0095962D01*
X0111825Y0095977D01*
X0111814Y009599D01*
X0112234D01*
X0112223Y0095977D01*
D02*
G37*
G36*
X010855Y0090949D02*
X0108528Y0090926D01*
X010849Y0090882D01*
X0108475Y0090861D01*
X0108462Y009084D01*
X0108451Y009082D01*
X0108443Y0090801D01*
X0108437Y0090782D01*
X0108434Y0090765D01*
X0108433Y0090747D01*
X0108136Y0091044D01*
X0108153Y0091046D01*
X0108171Y0091049D01*
X0108189Y0091055D01*
X0108209Y0091063D01*
X0108228Y0091073D01*
X0108249Y0091086D01*
X010827Y0091102D01*
X0108292Y0091119D01*
X0108338Y0091162D01*
X010855Y0090949D01*
D02*
G37*
D11*
X0119387Y0104496D02*
X0119925Y0105034D01*
Y0106304D02*
X0120463Y0106842D01*
X0121245Y0088754D02*
X0121924D01*
X012207Y00889D01*
X0121195Y0106304D02*
X0121901D01*
X0122049Y0106156D01*
X0121195Y0103D02*
X0122049Y0103854D01*
X0121195Y0092108D02*
Y0103D01*
Y0092108D02*
X012207Y0091233D01*
X0121195Y0088804D02*
X0121245Y0088754D01*
X0119249Y0088054D02*
X0119925Y008873D01*
Y0088804D01*
D13*
X012207Y00889D02*
Y0091233D01*
X0122049Y0103854D02*
Y0106156D01*
D38*
X0093449Y0087995D02*
Y0101254D01*
X0091149Y008782D02*
X0093273D01*
X0090973Y0087995D02*
Y0088804D01*
Y0087995D02*
X0091149Y008782D01*
X0093273D02*
X0093449Y0087995D01*
X0094173Y0107183D02*
X0094349Y0107008D01*
X0092268Y0107183D02*
X0094173D01*
X0094349Y0102154D02*
Y0107008D01*
X0092092Y0106423D02*
Y0107008D01*
X0092268Y0107183D01*
X0091973Y0106304D02*
X0092092Y0106423D01*
X0108133Y0090744D02*
X0112024Y0094636D01*
X0093449Y0101254D02*
X0094349Y0102154D01*
X0117625Y0088804D02*
X0118655D01*
X0117449Y008898D02*
X0117625Y0088804D01*
X0112024Y0094636D02*
Y0096204D01*
X0113499Y0096179D02*
X0114224Y0095454D01*
X0116804D01*
X0117449Y008898D02*
Y0094809D01*
X0116804Y0095454D02*
X0117449Y0094809D01*
D39*
X0089703Y0088804D02*
D03*
Y0090074D02*
D03*
X0090973Y0088804D02*
D03*
Y0090074D02*
D03*
X0092243Y0088804D02*
D03*
Y0090074D02*
D03*
X0093243Y0106304D02*
D03*
Y0105034D02*
D03*
X0091973Y0106304D02*
D03*
Y0105034D02*
D03*
X0090703Y0106304D02*
D03*
Y0105034D02*
D03*
X0118655Y0088804D02*
D03*
Y0090074D02*
D03*
X0119925Y0088804D02*
D03*
Y0090074D02*
D03*
X0121195Y0088804D02*
D03*
Y0090074D02*
D03*
Y0106304D02*
D03*
Y0105034D02*
D03*
X0119925Y0106304D02*
D03*
Y0105034D02*
D03*
X0118655Y0106304D02*
D03*
Y0105034D02*
D03*
D40*
X0115949Y0097554D02*
D03*
X0094949D02*
D03*
D41*
X0089799Y0103454D02*
D03*
X0089574Y0098254D02*
D03*
X0091624Y0091629D02*
D03*
Y0096754D02*
D03*
X0090299Y0091554D02*
D03*
X0091349Y0103504D02*
D03*
X0108133Y0090744D02*
D03*
X0105474Y0091004D02*
D03*
X0112024Y0096204D02*
D03*
X0113499Y0096179D02*
D03*
D42*
X0095874Y0100404D02*
D03*
X0097024Y0103004D02*
D03*
X0098649Y0104829D02*
D03*
X0100624Y0106304D02*
D03*
X0103199Y0107279D02*
D03*
X0107574Y0107329D02*
D03*
X0110299Y0106229D02*
D03*
X0112549Y0104529D02*
D03*
X0114224Y0102354D02*
D03*
X0115099Y0100304D02*
D03*
X0095849Y0094729D02*
D03*
X0096874Y0092329D02*
D03*
X0098424Y0090404D02*
D03*
X0100174Y0088979D02*
D03*
X0102424Y0088004D02*
D03*
X0108099Y0087904D02*
D03*
X0110424Y0088854D02*
D03*
X0112474Y0090329D02*
D03*
X0114149Y0092579D02*
D03*
M02*
