G04*
G04 #@! TF.GenerationSoftware,Altium Limited,Altium Designer,20.1.8 (145)*
G04*
G04 Layer_Color=16777215*
%FSTAX43Y43*%
%MOMM*%
G71*
G04*
G04 #@! TF.SameCoordinates,E683AD83-98AB-4380-AA0D-37E4A2E561CE*
G04*
G04*
G04 #@! TF.FilePolarity,Positive*
G04*
G01*
G75*
%ADD10C,0.150*%
%ADD11C,0.250*%
%ADD12C,0.100*%
%ADD13C,0.200*%
G36*
X0092945Y0091072D02*
Y0090402D01*
X0092915D01*
X0092243Y0091074D01*
X0092943D01*
X0092945Y0091072D01*
D02*
G37*
G36*
X0090703Y0104034D02*
X0090003D01*
X0090001Y0104036D01*
Y0104706D01*
X0090031D01*
X0090703Y0104034D01*
D02*
G37*
G36*
X0121897Y0091072D02*
Y0090402D01*
X0121867D01*
X0121195Y0091074D01*
X0121895D01*
X0121897Y0091072D01*
D02*
G37*
G36*
X0118655Y0104034D02*
X0117955D01*
X0117953Y0104036D01*
Y0104706D01*
X0117983D01*
X0118655Y0104034D01*
D02*
G37*
G36*
X0118078Y0099129D02*
X0116299D01*
Y0100512D01*
X0118078D01*
Y0099129D01*
D02*
G37*
%LPC*%
G36*
X0116907Y0100312D02*
X0116894D01*
X0116872Y0100311D01*
X011685Y010031D01*
X0116811Y0100301D01*
X0116776Y010029D01*
X0116761Y0100283D01*
X0116747Y0100276D01*
X0116733Y0100269D01*
X0116722Y0100262D01*
X0116713Y0100257D01*
X0116706Y0100251D01*
X0116699Y0100247D01*
X0116695Y0100243D01*
X0116692Y0100242D01*
X011669Y010024D01*
X0116677Y0100226D01*
X0116663Y0100211D01*
X011664Y0100179D01*
X0116622Y0100144D01*
X0116609Y0100111D01*
X0116603Y0100096D01*
X0116599Y0100082D01*
X0116596Y010007D01*
X0116592Y0100058D01*
X0116591Y0100049D01*
X0116589Y0100042D01*
X0116588Y0100038D01*
Y0100036D01*
X0116771Y010001D01*
X0116778Y010004D01*
X0116786Y0100065D01*
X0116794Y0100086D01*
X0116803Y0100103D01*
X011681Y0100115D01*
X0116815Y0100124D01*
X0116819Y0100129D01*
X0116821Y0100131D01*
X0116833Y0100142D01*
X0116847Y010015D01*
X011686Y0100157D01*
X0116872Y0100161D01*
X0116883Y0100164D01*
X0116891Y0100165D01*
X0116898D01*
X0116914Y0100164D01*
X0116928Y0100161D01*
X011694Y0100156D01*
X0116951Y010015D01*
X0116959Y0100144D01*
X0116965Y0100139D01*
X0116969Y0100136D01*
X0116971Y0100135D01*
X011698Y0100122D01*
X0116987Y010011D01*
X0116993Y0100096D01*
X0116995Y0100083D01*
X0116998Y0100072D01*
X0117Y0100064D01*
Y0100058D01*
Y0100056D01*
X0116998Y0100045D01*
X0116997Y0100032D01*
X0116994Y0100021D01*
X0116991Y010001D01*
X0116987Y0100002D01*
X0116984Y0099995D01*
X0116983Y0099989D01*
X0116982Y0099988D01*
X0116975Y0099974D01*
X0116965Y0099959D01*
X0116955Y0099943D01*
X0116944Y0099929D01*
X0116934Y0099917D01*
X0116926Y0099907D01*
X0116921Y0099902D01*
X0116919Y0099899D01*
X0116914Y0099893D01*
X0116907Y0099887D01*
X011689Y0099868D01*
X0116869Y0099849D01*
X0116848Y0099828D01*
X0116829Y0099809D01*
X0116812Y0099794D01*
X0116807Y0099787D01*
X0116801Y0099783D01*
X0116799Y009978D01*
X0116797Y0099778D01*
X0116774Y0099756D01*
X0116753Y0099735D01*
X0116733Y0099716D01*
X0116715Y0099698D01*
X0116699Y0099683D01*
X0116685Y0099667D01*
X0116671Y0099655D01*
X011666Y0099642D01*
X011665Y0099633D01*
X0116642Y0099623D01*
X0116635Y0099616D01*
X0116629Y0099611D01*
X0116622Y0099602D01*
X011662Y0099599D01*
X0116603Y0099579D01*
X0116588Y0099558D01*
X0116574Y0099538D01*
X0116561Y009952D01*
X0116552Y0099505D01*
X0116545Y0099493D01*
X0116541Y0099484D01*
X0116539Y0099483D01*
Y0099482D01*
X0116528Y0099458D01*
X011652Y0099433D01*
X0116513Y0099411D01*
X0116507Y009939D01*
X0116503Y0099373D01*
X01165Y009936D01*
Y0099354D01*
X0116499Y009935D01*
Y0099347D01*
X0117183D01*
X0117081D01*
X0117118Y0099519D01*
X0116785D01*
X0116804Y0099543D01*
X0116812Y0099554D01*
X0116821Y0099563D01*
X0116828Y009957D01*
X0116833Y0099576D01*
X0116836Y009958D01*
X0116837Y0099581D01*
X0116851Y0099595D01*
X0116868Y0099612D01*
X0116887Y009963D01*
X0116907Y0099648D01*
X0116925Y0099666D01*
X011694Y009968D01*
X0116946Y0099685D01*
X011695Y0099688D01*
X0116952Y0099691D01*
X0116954Y0099692D01*
X0116984Y0099721D01*
X0117011Y0099746D01*
X0117033Y0099769D01*
X0117051Y0099787D01*
X0117065Y0099801D01*
X0117075Y009981D01*
X011708Y0099817D01*
X0117081Y0099819D01*
X0117101Y0099842D01*
X0117116Y0099864D01*
X011713Y0099885D01*
X0117141Y0099903D01*
X0117149Y0099918D01*
X0117155Y0099929D01*
X0117158Y0099936D01*
X0117159Y0099939D01*
X0117167Y0099961D01*
X0117173Y0099982D01*
X0117177Y0100002D01*
X011718Y0100018D01*
X0117181Y0100034D01*
X0117183Y0100045D01*
Y0100054D01*
X0117181Y0100075D01*
X011718Y0100095D01*
X011717Y0100131D01*
X0117158Y0100162D01*
X0117144Y0100189D01*
X0117137Y01002D01*
X011713Y010021D01*
X0117123Y0100218D01*
X0117118Y0100226D01*
X0117112Y0100232D01*
X0117108Y0100236D01*
X0117106Y0100237D01*
X0117105Y0100239D01*
X011709Y0100251D01*
X0117075Y0100264D01*
X0117058Y0100273D01*
X011704Y0100282D01*
X0117005Y0100294D01*
X0116971Y0100303D01*
X0116955Y0100307D01*
X0116941Y0100308D01*
X0116928Y010031D01*
X0116916Y0100311D01*
X0116907Y0100312D01*
D02*
G37*
G36*
X0117627Y0100058D02*
X0117614D01*
X0117568Y0100056D01*
X0117527Y010005D01*
X0117509Y0100046D01*
X0117492Y0100042D01*
X0117475Y0100038D01*
X0117461Y0100032D01*
X0117449Y0100027D01*
X0117438Y0100022D01*
X0117428Y0100018D01*
X011742Y0100014D01*
X0117414Y0100011D01*
X011741Y0100009D01*
X0117407Y0100006D01*
X0117406D01*
X011738Y0099985D01*
X0117356Y0099961D01*
X0117338Y0099936D01*
X0117323Y0099914D01*
X0117312Y0099893D01*
X0117303Y0099877D01*
X0117301Y009987D01*
X0117299Y0099866D01*
X0117298Y0099863D01*
Y0099862D01*
X0117481Y0099846D01*
X0117485Y0099859D01*
X0117491Y009987D01*
X0117498Y009988D01*
X0117504Y0099888D01*
X011751Y0099895D01*
X0117516Y0099899D01*
X0117518Y0099902D01*
X011752Y0099903D01*
X0117532Y009991D01*
X0117545Y0099916D01*
X0117559Y0099918D01*
X0117571Y0099921D01*
X0117582Y0099923D01*
X0117592Y0099924D01*
X01176D01*
X0117617Y0099923D01*
X0117632Y0099921D01*
X0117643Y0099917D01*
X0117654Y0099914D01*
X0117663Y009991D01*
X0117668Y0099906D01*
X0117671Y0099905D01*
X0117672Y0099903D01*
X0117681Y0099895D01*
X0117686Y0099887D01*
X0117692Y0099878D01*
X0117694Y009987D01*
X0117696Y0099863D01*
X0117697Y0099859D01*
Y0099855D01*
Y0099853D01*
Y0099844D01*
X0117696Y0099834D01*
X0117692Y0099813D01*
X0117689Y0099805D01*
X0117686Y0099798D01*
X0117685Y0099792D01*
Y0099791D01*
X0117675Y0099788D01*
X0117664Y0099785D01*
X0117651Y0099783D01*
X0117638Y009978D01*
X0117608Y0099774D01*
X0117578Y0099771D01*
X011755Y0099767D01*
X0117538Y0099766D01*
X0117528Y0099764D01*
X0117518D01*
X0117511Y0099763D01*
X0117506D01*
X0117477Y009976D01*
X011745Y0099756D01*
X0117427Y0099752D01*
X0117405Y0099746D01*
X0117384Y0099741D01*
X0117366Y0099735D01*
X0117349Y0099728D01*
X0117335Y0099723D01*
X0117323Y0099716D01*
X0117312Y009971D01*
X0117303Y0099705D01*
X0117296Y0099701D01*
X0117291Y0099697D01*
X0117287Y0099694D01*
X0117285Y0099692D01*
X0117284Y0099691D01*
X0117273Y009968D01*
X0117265Y0099667D01*
X0117249Y0099641D01*
X0117238Y0099615D01*
X0117231Y0099588D01*
X0117226Y0099566D01*
X0117224Y0099556D01*
Y0099548D01*
X0117223Y0099541D01*
Y0099531D01*
X0117226Y00995D01*
X0117231Y009947D01*
X0117241Y0099446D01*
X0117251Y0099425D01*
X011726Y0099407D01*
X011727Y0099394D01*
X0117276Y0099387D01*
X0117278Y0099384D01*
X0117301Y0099366D01*
X0117324Y0099353D01*
X0117349Y0099343D01*
X0117371Y0099336D01*
X0117391Y0099332D01*
X0117407Y009933D01*
X0117413Y0099329D01*
X0117878D01*
Y0099888D01*
Y0099887D01*
X0117875Y00999D01*
X0117868Y0099925D01*
X0117857Y0099948D01*
X0117846Y0099967D01*
X0117833Y0099984D01*
X0117822Y0099995D01*
X0117815Y0100002D01*
X0117814Y0100004D01*
X0117812D01*
X01178Y0100014D01*
X0117786Y0100022D01*
X0117754Y0100036D01*
X0117722Y0100046D01*
X0117689Y0100052D01*
X011766Y0100056D01*
X0117647Y0100057D01*
X0117636D01*
X0117627Y0100058D01*
D02*
G37*
%LPD*%
G36*
X0117654Y0099645D02*
X0117649Y0099622D01*
X0117643Y0099601D01*
X0117638Y0099583D01*
X0117632Y0099569D01*
X0117628Y0099558D01*
X0117624Y0099551D01*
X0117622Y0099545D01*
X0117621Y0099544D01*
X0117614Y0099531D01*
X0117604Y0099522D01*
X0117595Y0099512D01*
X0117586Y0099505D01*
X0117578Y0099498D01*
X0117571Y0099494D01*
X0117565Y0099491D01*
X0117564Y009949D01*
X011755Y0099483D01*
X0117536Y0099479D01*
X0117522Y0099475D01*
X011751Y0099473D01*
X01175Y0099472D01*
X0117492Y009947D01*
X0117485D01*
X0117471Y0099472D01*
X0117459Y0099475D01*
X0117448Y0099477D01*
X0117439Y0099482D01*
X0117432Y0099486D01*
X0117427Y009949D01*
X0117424Y0099491D01*
X0117423Y0099493D01*
X0117414Y0099501D01*
X0117409Y0099511D01*
X0117405Y009952D01*
X0117402Y0099529D01*
X01174Y0099537D01*
X0117399Y0099543D01*
Y0099547D01*
Y0099548D01*
X01174Y0099562D01*
X0117403Y0099574D01*
X0117409Y0099586D01*
X0117414Y0099595D01*
X011742Y0099602D01*
X0117425Y0099608D01*
X0117428Y0099611D01*
X011743Y0099612D01*
X0117439Y0099617D01*
X011745Y0099623D01*
X0117463Y0099629D01*
X0117477Y0099634D01*
X0117507Y0099642D01*
X0117538Y0099649D01*
X0117567Y0099655D01*
X0117579Y0099658D01*
X0117592Y0099659D01*
X01176Y009966D01*
X0117608D01*
X0117613Y0099662D01*
X0117614D01*
X0117633Y0099665D01*
X0117647Y0099669D01*
X0117653Y009967D01*
X0117657D01*
X0117658Y0099672D01*
X011766D01*
X0117654Y0099645D01*
D02*
G37*
G36*
X0117878Y0099329D02*
X0117421D01*
X0117442Y009933D01*
X0117461Y0099333D01*
X0117479Y0099337D01*
X0117496Y0099341D01*
X011751Y0099346D01*
X011752Y009935D01*
X0117527Y0099353D01*
X0117529Y0099354D01*
X0117549Y0099364D01*
X0117567Y0099376D01*
X0117584Y0099387D01*
X0117597Y0099398D01*
X0117608Y0099409D01*
X0117618Y0099418D01*
X0117624Y0099423D01*
X0117625Y0099425D01*
X0117628Y0099396D01*
X0117631Y0099383D01*
X0117632Y0099371D01*
X0117635Y0099361D01*
X0117638Y0099354D01*
X0117639Y0099348D01*
Y0099347D01*
X0117821D01*
X0117815Y0099366D01*
X0117812Y0099386D01*
X011781Y0099402D01*
X0117807Y0099416D01*
Y0099429D01*
X0117805Y0099437D01*
Y0099444D01*
Y0099446D01*
Y0099455D01*
X0117807Y0099468D01*
X011781Y0099494D01*
X0117814Y0099522D01*
X0117819Y0099551D01*
X0117823Y0099577D01*
X0117826Y0099588D01*
X0117828Y0099599D01*
X0117829Y0099608D01*
X011783Y0099613D01*
X0117832Y0099617D01*
Y0099619D01*
X0117837Y0099645D01*
X0117843Y009967D01*
X0117848Y0099692D01*
X0117853Y0099712D01*
X0117855Y0099728D01*
X0117858Y0099744D01*
X0117861Y0099758D01*
X0117864Y0099769D01*
X0117865Y0099778D01*
X0117868Y0099785D01*
Y0099792D01*
X0117869Y0099796D01*
X0117871Y0099803D01*
Y0099805D01*
X0117875Y0099831D01*
X0117876Y0099842D01*
Y0099852D01*
X0117878Y009986D01*
Y0099329D01*
D02*
G37*
D10*
X0115449Y0097554D02*
G03*
X0115449Y0097554I-001J0D01*
G01*
X0106949Y0090854D02*
X0106949Y0090154D01*
X0103949Y0090154D02*
X0103949Y0090854D01*
X0106949Y0090854D01*
X0103949Y0090154D02*
X0106949Y0090154D01*
X0099498Y009655D02*
X0099725Y0095705D01*
X0097992Y0095215D02*
X0099151Y0095525D01*
X0097747Y0096133D02*
X0098906Y0096443D01*
X009791Y0093919D02*
X0098347Y0093161D01*
X0098417Y009424D02*
X0099456Y009484D01*
X0098892Y0093418D02*
X0099931Y0094018D01*
X0108926Y0090489D02*
X0109226Y0089969D01*
X0109272Y0090689D02*
X0109572Y0090169D01*
X0101589Y0091081D02*
X0102109Y0090781D01*
X0101789Y0091427D02*
X0102309Y0091127D01*
X011037Y0092383D02*
X0110795Y0092808D01*
X0110653Y00921D02*
X0111078Y0092525D01*
X0106174Y0104329D02*
Y0104929D01*
X0106574Y0104329D02*
Y0104929D01*
X0097149Y0107254D02*
Y0106254D01*
X0097649D01*
X0097815Y0106421D01*
Y0107087D01*
X0097649Y0107254D01*
X0097149D01*
X0113049Y0107054D02*
Y0106054D01*
X0113549D01*
X0113715Y0106221D01*
Y0106887D01*
X0113549Y0107054D01*
X0113049D01*
X0097149Y0088029D02*
Y0089029D01*
X0097482Y0088695D01*
X0097815Y0089029D01*
Y0088029D01*
X0113049Y0088129D02*
Y0089129D01*
X0113382Y0088795D01*
X0113715Y0089129D01*
Y0088129D01*
X0102434Y0088861D02*
X0103034D01*
Y0089161D01*
X0102934Y0089261D01*
X0102534D01*
X0102434Y0089161D01*
Y0088861D01*
X0103034Y0089461D02*
X0102634D01*
X0102434Y0089661D01*
X0102634Y0089861D01*
X0103034D01*
X0102734D01*
Y0089461D01*
X0103034Y0090061D02*
Y0090261D01*
Y0090161D01*
X0102434D01*
X0102534Y0090061D01*
X0100703Y0097209D02*
X0100317Y0097106D01*
X0100176Y0096861D01*
X0100421Y0096719D01*
X0100807Y0096823D01*
X0100859Y009663D02*
X0100279Y0096475D01*
X0100357Y0096185D01*
X0100479Y0096114D01*
X0100866Y0096218D01*
X0100936Y009634D01*
X0100859Y009663D01*
X0100538Y0095509D02*
X0100434Y0095895D01*
X0100924Y0095613D01*
X0101021Y0095638D01*
X0101091Y0095761D01*
X010104Y0095954D01*
X0100917Y0096025D01*
X009753Y0092454D02*
X0097876Y0092654D01*
X0097949Y0092927D01*
X0097676Y0093D01*
X009733Y00928D01*
X009723Y0092974D02*
X0097749Y0093273D01*
X0097599Y0093533D01*
X0097463Y009357D01*
X0097116Y009337D01*
X009708Y0093233D01*
X009723Y0092974D01*
X0097449Y0093793D02*
X0097349Y0093966D01*
X0097399Y0093879D01*
X009688Y009358D01*
X0097016Y0093543D01*
X0112199Y0098429D02*
Y0099029D01*
X0112499D01*
X0112599Y0098929D01*
Y0098729D01*
X0112499Y0098629D01*
X0112199D01*
X0112399D02*
X0112599Y0098429D01*
X0113199Y0099029D02*
X0112999Y0098929D01*
X0112799Y0098729D01*
Y0098529D01*
X0112899Y0098429D01*
X0113099D01*
X0113199Y0098529D01*
Y0098629D01*
X0113099Y0098729D01*
X0112799D01*
X0113649Y0093679D02*
X0114168Y0093379D01*
X0114018Y0093119D01*
X0113882Y0093083D01*
X0113709Y0093183D01*
X0113672Y0093319D01*
X0113822Y0093579D01*
X0113722Y0093406D02*
X0113449Y0093333D01*
X0113782Y009291D02*
X0113819Y0092773D01*
X0113719Y00926D01*
X0113582Y0092563D01*
X0113495Y0092613D01*
X0113459Y009275D01*
X0113509Y0092836D01*
X0113459Y009275D01*
X0113322Y0092713D01*
X0113236Y0092763D01*
X0113199Y00929D01*
X0113299Y0093073D01*
X0113436Y009311D01*
X0101274Y0094054D02*
X0101698Y0094478D01*
X010191Y0094266D01*
X010191Y0094125D01*
X0101769Y0093983D01*
X0101627D01*
X0101415Y0094195D01*
X0101557Y0094054D02*
X0101557Y0093771D01*
X0101981Y0093347D02*
X0101698Y009363D01*
X0102264D01*
X0102334Y0093701D01*
X0102334Y0093842D01*
X0102193Y0093983D01*
X0102052D01*
X0097699Y0098554D02*
Y0099154D01*
X0097999D01*
X0098099Y0099054D01*
Y0098854D01*
X0097999Y0098754D01*
X0097699D01*
X0097899D02*
X0098099Y0098554D01*
X0098299D02*
X0098499D01*
X0098399D01*
Y0099154D01*
X0098299Y0099054D01*
X010977Y0089537D02*
X0109634Y0089573D01*
X0109461Y0089473D01*
X0109424Y0089337D01*
X0109624Y0088991D01*
X0109761Y0088954D01*
X0109934Y0089054D01*
X010997Y0089191D01*
X011024Y0089923D02*
X0110117Y0089737D01*
X0110044Y0089464D01*
X0110143Y008929D01*
X011028Y0089254D01*
X0110453Y0089354D01*
X011049Y008949D01*
X011044Y0089577D01*
X0110303Y0089614D01*
X0110044Y0089464D01*
X0103195Y0093187D02*
X0103159Y0093324D01*
X0102985Y0093423D01*
X0102849Y0093387D01*
X0102649Y0093041D01*
X0102686Y0092904D01*
X0102859Y0092804D01*
X0102995Y0092841D01*
X0103368Y0093087D02*
X0103505Y0093124D01*
X0103678Y0093024D01*
X0103715Y0092887D01*
X0103665Y00928D01*
X0103528Y0092764D01*
X0103442Y0092814D01*
X0103528Y0092764D01*
X0103565Y0092627D01*
X0103515Y0092541D01*
X0103378Y0092504D01*
X0103205Y0092604D01*
X0103168Y0092741D01*
X011232Y0090943D02*
X0112461Y0090943D01*
X0112602Y0091084D01*
Y0091226D01*
X011232Y0091508D01*
X0112178D01*
X0112037Y0091367D01*
Y0091226D01*
X0111542Y0090872D02*
X0111825Y0091155D01*
Y0090589D01*
X0111896Y0090519D01*
X0112037Y0090519D01*
X0112178Y009066D01*
Y0090801D01*
X0106474Y0103579D02*
X0106374Y0103679D01*
X0106174D01*
X0106074Y0103579D01*
Y0103179D01*
X0106174Y0103079D01*
X0106374D01*
X0106474Y0103179D01*
X0106674Y0103079D02*
X0106874D01*
X0106774D01*
Y0103679D01*
X0106674Y0103579D01*
D11*
X0107424Y0091804D02*
G03*
X0107424Y0091804I-0000125J0D01*
G01*
D12*
X0088989Y0087774D02*
X0092943Y0087773D01*
Y0091099D01*
X0088989Y0087774D02*
Y0091099D01*
X0092943D01*
X0090003Y0107335D02*
X0093957Y0107334D01*
X0090003Y0104009D02*
Y0107335D01*
X0093957Y0104009D02*
Y0107334D01*
X0090003Y0104009D02*
X0093957D01*
X0117941Y0087774D02*
X0121895Y0087773D01*
Y0091099D01*
X0117941Y0087774D02*
Y0091099D01*
X0121895D01*
X0117955Y0107335D02*
X0121909Y0107334D01*
X0117955Y0104009D02*
Y0107335D01*
X0121909Y0104009D02*
Y0107334D01*
X0117955Y0104009D02*
X0121909D01*
D13*
X0112674Y0097154D02*
X0112874Y0097154D01*
X0112674Y0097754D02*
X0112874D01*
X0111987Y0094439D02*
X0112161Y0094339D01*
X0111687Y0093919D02*
X0111861Y0093819D01*
X0099991Y0092545D02*
X0100133Y0092687D01*
X0100415Y0092121D02*
X0100557Y0092263D01*
X0098049Y0097854D02*
X0098249Y0097854D01*
X0098049Y0097254D02*
X0098249D01*
M02*
