G04*
G04 #@! TF.GenerationSoftware,Altium Limited,Altium Designer,20.1.8 (145)*
G04*
G04 Layer_Physical_Order=2*
G04 Layer_Color=16711680*
%FSTAX43Y43*%
%MOMM*%
G71*
G04*
G04 #@! TF.SameCoordinates,D0AF8ED7-0584-4811-8BF5-3ABD82A448BB*
G04*
G04*
G04 #@! TF.FilePolarity,Positive*
G04*
G01*
G75*
%ADD10C,0.250*%
%ADD46C,0.300*%
%ADD48C,0.500*%
%ADD51C,2.300*%
%ADD52C,1.500*%
%ADD53C,10.000*%
%ADD54C,7.000*%
%ADD55C,0.600*%
G36*
X0075055Y0079736D02*
X0076643Y0079626D01*
X0078221Y0079422D01*
X0079784Y0079124D01*
X0081327Y0078734D01*
X0082844Y0078253D01*
X0084329Y0077683D01*
X0085779Y0077025D01*
X0087186Y0076282D01*
X0088547Y0075457D01*
X0089856Y0074553D01*
X0091109Y0073572D01*
X0092302Y0072519D01*
X009343Y0071396D01*
X0094489Y0070209D01*
X0095476Y006896D01*
X0096387Y0067655D01*
X0097218Y0066298D01*
X0097968Y0064895D01*
X0098632Y0063449D01*
X009921Y0061966D01*
X0099698Y0060451D01*
X0100096Y0058911D01*
X0100401Y0057349D01*
X0100613Y0055772D01*
X0100731Y0054185D01*
X0100754Y0052594D01*
X0100682Y0051004D01*
X0100517Y0049421D01*
X0100257Y0047851D01*
X0099904Y0046299D01*
X009946Y0044771D01*
X0098926Y0043272D01*
X0098304Y0041808D01*
X0097595Y0040383D01*
X0096803Y0039002D01*
X0095931Y0037671D01*
X0094981Y0036395D01*
X0093957Y0035177D01*
X0092862Y0034022D01*
X00917Y0032934D01*
X0090476Y0031918D01*
X0089194Y0030975D01*
X0087858Y0030111D01*
X0086473Y0029328D01*
X0085043Y0028628D01*
X0083575Y0028015D01*
X0082073Y002749D01*
X0080542Y0027055D01*
X0078988Y0026712D01*
X0077416Y0026462D01*
X0075833Y0026306D01*
X0074243Y0026244D01*
X0072652Y0026277D01*
X0071065Y0026404D01*
X006949Y0026626D01*
X006793Y0026941D01*
X0066391Y0027348D01*
X006488Y0027845D01*
X0063401Y0028432D01*
X0061959Y0029106D01*
X006056Y0029864D01*
X0059208Y0030704D01*
X0057909Y0031622D01*
X0056666Y0032617D01*
X0055485Y0033683D01*
X005437Y0034818D01*
X0053324Y0036017D01*
X0053098Y0036309D01*
X0053094Y0036318D01*
X0053127Y003648D01*
X0053538Y0036764D01*
X005355Y0036776D01*
X0053564Y0036785D01*
X0054006Y0037185D01*
X0054016Y0037198D01*
X0054029Y0037209D01*
X0054414Y0037664D01*
X0054422Y0037679D01*
X0054434Y0037691D01*
X0054755Y0038193D01*
X0054761Y0038209D01*
X0054771Y0038223D01*
X0055024Y0038762D01*
X0055028Y0038779D01*
X0055036Y0038794D01*
X0055214Y0039362D01*
X0055216Y0039379D01*
X0055222Y0039395D01*
X0055324Y0039982D01*
X0055324Y0039999D01*
X0055328Y0040016D01*
X0055351Y0040611D01*
X0055348Y0040628D01*
X005535Y0040645D01*
X0055295Y0041238D01*
X005529Y0041254D01*
X0055289Y0041271D01*
X0055156Y0041852D01*
X0055149Y0041868D01*
X0055146Y0041884D01*
X0054937Y0042443D01*
X0054929Y0042457D01*
X0054924Y0042473D01*
X0054643Y0042999D01*
X0054632Y0043012D01*
X0054625Y0043027D01*
X0054277Y0043511D01*
X0054265Y0043523D01*
X0054256Y0043537D01*
X0053847Y0043971D01*
X0053833Y0043981D01*
X0053822Y0043994D01*
X005336Y004437D01*
X0053345Y0044378D01*
X0053333Y0044389D01*
X0052825Y0044701D01*
X0052809Y0044707D01*
X0052795Y0044716D01*
X005225Y0044958D01*
X0052234Y0044962D01*
X0052218Y004497D01*
X0051647Y0045137D01*
X005163Y0045139D01*
X0051614Y0045145D01*
X0051025Y0045235D01*
X0051008Y0045234D01*
X0050991Y0045238D01*
X0050396Y004525D01*
X0050379Y0045247D01*
X0050362Y0045248D01*
X004977Y0045182D01*
X0049754Y0045176D01*
X0049737Y0045176D01*
X0049158Y0045031D01*
X0049143Y0045024D01*
X0049126Y0045021D01*
X0048665Y0044838D01*
X0048511Y0044902D01*
X0048507Y0044909D01*
X0048385Y0045268D01*
X004797Y0046804D01*
X0047648Y0048362D01*
X0047419Y0049937D01*
X0047284Y0051522D01*
X0047243Y0053113D01*
X0047297Y0054704D01*
X0047446Y0056288D01*
X0047688Y0057861D01*
X0048024Y0059416D01*
X0048451Y0060949D01*
X0048969Y0062454D01*
X0049575Y0063925D01*
X0050268Y0065358D01*
X0051044Y0066747D01*
X0051902Y0068087D01*
X0052838Y0069374D01*
X0053849Y0070603D01*
X0054931Y007177D01*
X0056081Y007287D01*
X0057294Y00739D01*
X0058566Y0074857D01*
X0059892Y0075736D01*
X0061269Y0076534D01*
X006269Y0077249D01*
X0064152Y0077879D01*
X0065648Y007842D01*
X0067174Y0078872D01*
X0068724Y0079232D01*
X0070293Y0079499D01*
X0071875Y0079672D01*
X0073464Y0079752D01*
X0075055Y0079736D01*
D02*
G37*
%LPC*%
G36*
X008875Y0068331D02*
X008175D01*
X0081623Y0068306D01*
X0081516Y0068234D01*
X0081266Y0067984D01*
X0081194Y0067877D01*
X0081169Y006775D01*
Y0067665D01*
X0081167Y0067654D01*
X0081164Y0067643D01*
X0081162Y0067634D01*
X0081159Y0067627D01*
X0081156Y0067621D01*
X0081156Y0067621D01*
X008114Y006761D01*
X0081029Y0067445D01*
X008099Y006725D01*
X0081029Y0067055D01*
X008114Y006689D01*
X0081305Y0066779D01*
X00815Y006674D01*
X0081695Y0066779D01*
X008186Y006689D01*
X0081971Y0067055D01*
X008201Y006725D01*
X0081971Y0067445D01*
X0081906Y0067542D01*
X0081974Y0067669D01*
X0083026D01*
X0083094Y0067542D01*
X0083029Y0067445D01*
X008299Y006725D01*
X0083029Y0067055D01*
X008314Y006689D01*
X0083305Y0066779D01*
X00835Y006674D01*
X0083695Y0066779D01*
X008386Y006689D01*
X0083871Y0066906D01*
X0083871Y0066906D01*
X0083877Y0066909D01*
X0083884Y0066912D01*
X0083893Y0066914D01*
X0083904Y0066917D01*
X0083915Y0066919D01*
X0086696D01*
X0086729Y0066755D01*
X008684Y006659D01*
X0087005Y0066479D01*
X00872Y006644D01*
X0087395Y0066479D01*
X008756Y006659D01*
X0087671Y0066755D01*
X008771Y006695D01*
X0087671Y0067145D01*
X008756Y006731D01*
X0087395Y0067421D01*
X00872Y006746D01*
X0087166Y0067453D01*
X0087134Y0067484D01*
X0087049Y0067542D01*
X008706Y0067643D01*
X008707Y0067669D01*
X0088613D01*
X0088801Y006748D01*
X008879Y006735D01*
X0088679Y0067185D01*
X008864Y006699D01*
X0088679Y0066795D01*
X008879Y0066629D01*
X0088955Y0066519D01*
X008915Y006648D01*
X0089345Y0066519D01*
X008951Y0066629D01*
X0089621Y0066795D01*
X008966Y006699D01*
X0089621Y0067185D01*
X008951Y006735D01*
X0089494Y0067361D01*
X0089494Y0067361D01*
X0089491Y0067367D01*
X0089488Y0067374D01*
X0089486Y0067383D01*
X0089483Y0067394D01*
X0089481Y0067405D01*
Y00676D01*
X0089456Y0067727D01*
X0089384Y0067834D01*
X0088984Y0068234D01*
X0088877Y0068306D01*
X0088856Y006831D01*
X008875Y0068331D01*
D02*
G37*
G36*
X0095Y0063097D02*
Y0059825D01*
X0098272D01*
X0098265Y0059921D01*
X0098125Y0060503D01*
X0097896Y0061056D01*
X0097584Y0061565D01*
X0097195Y006202D01*
X009674Y0062409D01*
X009623Y0062721D01*
X0095678Y006295D01*
X0095096Y006309D01*
X0095Y0063097D01*
D02*
G37*
G36*
X0094D02*
X0093904Y006309D01*
X0093322Y006295D01*
X009277Y0062721D01*
X009226Y0062409D01*
X0091805Y006202D01*
X0091416Y0061565D01*
X0091104Y0061056D01*
X0090875Y0060503D01*
X0090735Y0059921D01*
X0090728Y0059825D01*
X0094D01*
Y0063097D01*
D02*
G37*
G36*
X0054D02*
Y0059825D01*
X0057272D01*
X0057265Y0059921D01*
X0057125Y0060503D01*
X0056896Y0061056D01*
X0056584Y0061565D01*
X0056195Y006202D01*
X005574Y0062409D01*
X005523Y0062721D01*
X0054678Y006295D01*
X0054096Y006309D01*
X0054Y0063097D01*
D02*
G37*
G36*
X0053D02*
X0052904Y006309D01*
X0052322Y006295D01*
X005177Y0062721D01*
X005126Y0062409D01*
X0050805Y006202D01*
X0050416Y0061565D01*
X0050104Y0061056D01*
X0049875Y0060503D01*
X0049735Y0059921D01*
X0049728Y0059825D01*
X0053D01*
Y0063097D01*
D02*
G37*
G36*
X0098272Y0058825D02*
X0095D01*
Y0055553D01*
X0095096Y005556D01*
X0095678Y00557D01*
X009623Y0055929D01*
X009674Y0056241D01*
X0097195Y005663D01*
X0097584Y0057085D01*
X0097896Y0057595D01*
X0098125Y0058147D01*
X0098265Y0058729D01*
X0098272Y0058825D01*
D02*
G37*
G36*
X0094D02*
X0090728D01*
X0090735Y0058729D01*
X0090875Y0058147D01*
X0091104Y0057595D01*
X0091416Y0057085D01*
X0091805Y005663D01*
X009226Y0056241D01*
X009277Y0055929D01*
X0093322Y00557D01*
X0093904Y005556D01*
X0094Y0055553D01*
Y0058825D01*
D02*
G37*
G36*
X0057272D02*
X0054D01*
Y0055553D01*
X0054096Y005556D01*
X0054678Y00557D01*
X005523Y0055929D01*
X005574Y0056241D01*
X0056195Y005663D01*
X0056584Y0057085D01*
X0056896Y0057595D01*
X0057125Y0058147D01*
X0057265Y0058729D01*
X0057272Y0058825D01*
D02*
G37*
G36*
X0053D02*
X0049728D01*
X0049735Y0058729D01*
X0049875Y0058147D01*
X0050104Y0057595D01*
X0050416Y0057085D01*
X0050805Y005663D01*
X005126Y0056241D01*
X005177Y0055929D01*
X0052322Y00557D01*
X0052904Y005556D01*
X0053Y0055553D01*
Y0058825D01*
D02*
G37*
G36*
X00585Y0040087D02*
Y0039225D01*
X0059362D01*
X0059267Y0039456D01*
X0059034Y0039759D01*
X0058731Y0039992D01*
X00585Y0040087D01*
D02*
G37*
G36*
X00575D02*
X0057269Y0039992D01*
X0056966Y0039759D01*
X0056733Y0039456D01*
X0056638Y0039225D01*
X00575D01*
Y0040087D01*
D02*
G37*
G36*
X0092025Y0040087D02*
X0091673Y004004D01*
X0091344Y0039904D01*
X0091062Y0039688D01*
X0090846Y0039406D01*
X009071Y0039077D01*
X0090663Y0038725D01*
X009071Y0038373D01*
X0090846Y0038044D01*
X0091062Y0037762D01*
X0091344Y0037546D01*
X0091673Y003741D01*
X0092025Y0037363D01*
X0092377Y003741D01*
X0092706Y0037546D01*
X0092988Y0037762D01*
X0093204Y0038044D01*
X009334Y0038373D01*
X0093387Y0038725D01*
X009334Y0039077D01*
X0093204Y0039406D01*
X0092988Y0039688D01*
X0092706Y0039904D01*
X0092377Y004004D01*
X0092025Y0040087D01*
D02*
G37*
G36*
X0059362Y0038225D02*
X00585D01*
Y0037363D01*
X0058731Y0037458D01*
X0059034Y0037691D01*
X0059267Y0037994D01*
X0059362Y0038225D01*
D02*
G37*
G36*
X00575D02*
X0056638D01*
X0056733Y0037994D01*
X0056966Y0037691D01*
X0057269Y0037458D01*
X00575Y0037363D01*
Y0038225D01*
D02*
G37*
G36*
X0065031Y006775D02*
X0064836Y0067711D01*
X0064671Y0067601D01*
X006456Y0067435D01*
X0064521Y006724D01*
X006456Y0067045D01*
X0064572Y0067027D01*
Y0062282D01*
X0058514Y0056224D01*
X0058415Y0056075D01*
X005838Y0055899D01*
Y0046601D01*
X0058415Y0046425D01*
X0058514Y0046276D01*
X0068461Y0036329D01*
Y0035082D01*
X0068458Y0035053D01*
X0068447Y0035003D01*
X0068433Y0034955D01*
X0068415Y0034908D01*
X0068392Y0034862D01*
X0068364Y0034816D01*
X0068332Y0034771D01*
X0068295Y0034726D01*
X0068265Y0034695D01*
X0068242Y0034678D01*
X006809Y0034479D01*
X0067994Y0034248D01*
X0067962Y0034D01*
X0067994Y0033752D01*
X006809Y0033521D01*
X0068242Y0033322D01*
X0068441Y003317D01*
X0068672Y0033074D01*
X006892Y0033042D01*
X0069168Y0033074D01*
X0069399Y003317D01*
X0069598Y0033322D01*
X006975Y0033521D01*
X0069846Y0033752D01*
X0069878Y0034D01*
X0069846Y0034248D01*
X006975Y0034479D01*
X0069598Y0034678D01*
X0069575Y0034695D01*
X0069545Y0034726D01*
X0069508Y0034771D01*
X0069476Y0034816D01*
X0069448Y0034862D01*
X0069425Y0034908D01*
X0069407Y0034955D01*
X0069393Y0035003D01*
X0069382Y0035053D01*
X0069379Y0035082D01*
Y0036519D01*
X0069344Y0036695D01*
X0069244Y0036844D01*
X0059298Y0046791D01*
Y0052518D01*
X0059424Y0052571D01*
X0077034Y0034961D01*
X0076962Y0034853D01*
X0076788Y0034926D01*
X007654Y0034958D01*
X0076292Y0034926D01*
X0076061Y003483D01*
X0075862Y0034678D01*
X007571Y0034479D01*
X0075614Y0034248D01*
X0075582Y0034D01*
X0075614Y0033752D01*
X007571Y0033521D01*
X0075862Y0033322D01*
X0076061Y003317D01*
X0076292Y0033074D01*
X007654Y0033042D01*
X0076788Y0033074D01*
X0077019Y003317D01*
X0077218Y0033322D01*
X007737Y0033521D01*
X0077466Y0033752D01*
X0077498Y0034D01*
X0077466Y0034248D01*
X0077393Y0034422D01*
X0077498Y0034498D01*
X0077613Y003442D01*
X007775Y0034393D01*
X0078083D01*
X0078133Y0034332D01*
X0078166Y0034275D01*
X0078154Y0034248D01*
X0078122Y0034D01*
X0078154Y0033752D01*
X007825Y0033521D01*
X0078402Y0033322D01*
X0078601Y003317D01*
X0078832Y0033074D01*
X007908Y0033042D01*
X0079328Y0033074D01*
X0079559Y003317D01*
X0079758Y0033322D01*
X007991Y0033521D01*
X0080006Y0033752D01*
X0080038Y0034D01*
X0080006Y0034248D01*
X007991Y0034479D01*
X0079758Y0034678D01*
X0079559Y003483D01*
X0079328Y0034926D01*
X007908Y0034958D01*
X0078832Y0034926D01*
X0078805Y0034914D01*
X0078791Y0034911D01*
X0078768Y0034908D01*
X0078747Y0034908D01*
X0078727Y0034911D01*
X0078707Y0034916D01*
X0078685Y0034924D01*
X0078662Y0034936D01*
X0078637Y0034952D01*
X0078618Y0034967D01*
X0078582Y0035002D01*
X0078467Y003508D01*
X007833Y0035107D01*
X0077898D01*
X0076901Y0036104D01*
X0076982Y0036203D01*
X0077369Y0035944D01*
X0077987Y0035639D01*
X0078638Y0035418D01*
X0079313Y0035284D01*
X008Y0035239D01*
X0080687Y0035284D01*
X0081362Y0035418D01*
X0082013Y0035639D01*
X0082631Y0035944D01*
X0083203Y0036326D01*
X0083665Y0036732D01*
X0083681Y0036745D01*
X0083768Y0036653D01*
X0082182Y0035066D01*
X0082154Y0035047D01*
X0082117Y0035028D01*
X0082071Y0035009D01*
X0082018Y0034993D01*
X0081956Y0034979D01*
X0081889Y0034968D01*
X008172Y0034955D01*
X0081651Y0034954D01*
X008162Y0034958D01*
X0081372Y0034926D01*
X0081141Y003483D01*
X0080942Y0034678D01*
X008079Y0034479D01*
X0080694Y0034248D01*
X0080662Y0034D01*
X0080694Y0033752D01*
X008079Y0033521D01*
X0080942Y0033322D01*
X0081141Y003317D01*
X0081372Y0033074D01*
X008162Y0033042D01*
X0081868Y0033074D01*
X0082099Y003317D01*
X0082298Y0033322D01*
X008245Y0033521D01*
X0082546Y0033752D01*
X0082578Y0034D01*
X0082575Y0034027D01*
X008258Y0034191D01*
X0082587Y0034266D01*
X0082599Y0034336D01*
X0082613Y0034398D01*
X0082629Y0034451D01*
X0082648Y0034497D01*
X0082667Y0034534D01*
X0082686Y0034562D01*
X0087902Y0039778D01*
X008798Y0039893D01*
X0088007Y004003D01*
Y006385D01*
X008798Y0063987D01*
X0087902Y0064102D01*
X0087857Y0064148D01*
Y0064617D01*
X0087858Y0064623D01*
X008786Y0064637D01*
X008786Y0064639D01*
X008786Y006464D01*
X0087924Y0064734D01*
X0088076D01*
X008814Y006464D01*
X008814Y0064639D01*
X008814Y0064637D01*
X0088142Y0064626D01*
X0088143Y0064612D01*
Y0038488D01*
X0084722Y0035066D01*
X0084694Y0035047D01*
X0084657Y0035028D01*
X0084611Y0035009D01*
X0084558Y0034993D01*
X0084496Y0034979D01*
X0084429Y0034968D01*
X008426Y0034955D01*
X0084191Y0034954D01*
X008416Y0034958D01*
X0083912Y0034926D01*
X0083681Y003483D01*
X0083482Y0034678D01*
X008333Y0034479D01*
X0083234Y0034248D01*
X0083202Y0034D01*
X0083234Y0033752D01*
X008333Y0033521D01*
X0083482Y0033322D01*
X0083681Y003317D01*
X0083912Y0033074D01*
X008416Y0033042D01*
X0084408Y0033074D01*
X0084639Y003317D01*
X0084838Y0033322D01*
X008499Y0033521D01*
X0085086Y0033752D01*
X0085118Y0034D01*
X0085115Y0034027D01*
X008512Y0034191D01*
X0085127Y0034266D01*
X0085139Y0034336D01*
X0085153Y0034398D01*
X0085169Y0034451D01*
X0085188Y0034497D01*
X0085207Y0034534D01*
X0085226Y0034562D01*
X0088752Y0038088D01*
X008883Y0038203D01*
X0088857Y003834D01*
Y0064617D01*
X0088858Y0064623D01*
X008886Y0064637D01*
X008886Y0064639D01*
X008886Y006464D01*
X0088971Y0064805D01*
X008901Y0065D01*
X0088971Y0065195D01*
X008886Y006536D01*
X0088695Y0065471D01*
X00885Y006551D01*
X0088305Y0065471D01*
X008814Y006536D01*
X0088076Y0065266D01*
X0087924D01*
X008786Y006536D01*
X0087695Y0065471D01*
X00875Y006551D01*
X0087305Y0065471D01*
X008714Y006536D01*
X0087029Y0065195D01*
X008699Y0065D01*
X0087029Y0064805D01*
X008714Y006464D01*
X008714Y0064639D01*
X008714Y0064637D01*
X0087142Y0064626D01*
X0087143Y0064612D01*
Y0064D01*
X008717Y0063863D01*
X0087248Y0063748D01*
X0087293Y0063702D01*
Y0040178D01*
X0083847Y0036732D01*
X0083755Y0036819D01*
X0083768Y0036835D01*
X0084174Y0037297D01*
X0084556Y0037869D01*
X0084861Y0038487D01*
X0085082Y0039138D01*
X0085216Y0039813D01*
X0085261Y00405D01*
X0085216Y0041187D01*
X0085082Y0041862D01*
X0084861Y0042513D01*
X0084556Y0043131D01*
X0084174Y0043703D01*
X008372Y004422D01*
X0083203Y0044674D01*
X0082631Y0045056D01*
X0082013Y0045361D01*
X0081362Y0045582D01*
X0080687Y0045716D01*
X008Y0045761D01*
X0079313Y0045716D01*
X0078638Y0045582D01*
X0077987Y0045361D01*
X0077369Y0045056D01*
X0076797Y0044674D01*
X007628Y004422D01*
X0075826Y0043703D01*
X0075444Y0043131D01*
X0075139Y0042513D01*
X0074918Y0041862D01*
X0074784Y0041187D01*
X0074739Y00405D01*
X0074784Y0039813D01*
X0074918Y0039138D01*
X0075139Y0038487D01*
X0075444Y0037869D01*
X0075703Y0037482D01*
X0075604Y0037401D01*
X0059946Y0053059D01*
Y0053875D01*
X0059946Y0053882D01*
X0059949Y0053896D01*
X0059949Y0053898D01*
X0059949Y0053898D01*
X006006Y0054063D01*
X0060098Y0054258D01*
X006006Y0054453D01*
X0059949Y0054619D01*
X0059784Y0054729D01*
X0059589Y0054768D01*
X0059424Y0054735D01*
X0059298Y0054806D01*
Y0055709D01*
X0065356Y0061767D01*
X0065455Y0061916D01*
X006549Y0062092D01*
Y0067027D01*
X0065502Y0067045D01*
X0065541Y006724D01*
X0065502Y0067435D01*
X0065392Y0067601D01*
X0065226Y0067711D01*
X0065031Y006775D01*
D02*
G37*
G36*
X0088Y0035862D02*
X0087648Y0035815D01*
X0087319Y0035679D01*
X0087037Y0035463D01*
X0086821Y0035181D01*
X0086685Y0034852D01*
X0086638Y00345D01*
X0086685Y0034148D01*
X0086821Y0033819D01*
X0087037Y0033537D01*
X0087319Y0033321D01*
X0087648Y0033185D01*
X0088Y0033138D01*
X0088352Y0033185D01*
X0088681Y0033321D01*
X0088963Y0033537D01*
X0089179Y0033819D01*
X0089315Y0034148D01*
X0089362Y00345D01*
X0089315Y0034852D01*
X0089179Y0035181D01*
X0088963Y0035463D01*
X0088681Y0035679D01*
X0088352Y0035815D01*
X0088Y0035862D01*
D02*
G37*
G36*
X006D02*
X0059648Y0035815D01*
X0059319Y0035679D01*
X0059037Y0035463D01*
X0058821Y0035181D01*
X0058685Y0034852D01*
X0058638Y00345D01*
X0058685Y0034148D01*
X0058821Y0033819D01*
X0059037Y0033537D01*
X0059319Y0033321D01*
X0059648Y0033185D01*
X006Y0033138D01*
X0060352Y0033185D01*
X0060681Y0033321D01*
X0060963Y0033537D01*
X0061179Y0033819D01*
X0061315Y0034148D01*
X0061362Y00345D01*
X0061315Y0034852D01*
X0061179Y0035181D01*
X0060963Y0035463D01*
X0060681Y0035679D01*
X0060352Y0035815D01*
X006Y0035862D01*
D02*
G37*
G36*
X0074Y0034958D02*
X0073752Y0034926D01*
X0073521Y003483D01*
X0073322Y0034678D01*
X007317Y0034479D01*
X0073074Y0034248D01*
X0073042Y0034D01*
X0073074Y0033752D01*
X007317Y0033521D01*
X0073322Y0033322D01*
X0073521Y003317D01*
X0073752Y0033074D01*
X0074Y0033042D01*
X0074248Y0033074D01*
X0074479Y003317D01*
X0074678Y0033322D01*
X007483Y0033521D01*
X0074926Y0033752D01*
X0074958Y0034D01*
X0074926Y0034248D01*
X007483Y0034479D01*
X0074678Y0034678D01*
X0074479Y003483D01*
X0074248Y0034926D01*
X0074Y0034958D01*
D02*
G37*
G36*
X007146D02*
X0071212Y0034926D01*
X0070981Y003483D01*
X0070782Y0034678D01*
X007063Y0034479D01*
X0070534Y0034248D01*
X0070502Y0034D01*
X0070534Y0033752D01*
X007063Y0033521D01*
X0070782Y0033322D01*
X0070981Y003317D01*
X0071212Y0033074D01*
X007146Y0033042D01*
X0071708Y0033074D01*
X0071939Y003317D01*
X0072138Y0033322D01*
X007229Y0033521D01*
X0072386Y0033752D01*
X0072418Y0034D01*
X0072386Y0034248D01*
X007229Y0034479D01*
X0072138Y0034678D01*
X0071939Y003483D01*
X0071708Y0034926D01*
X007146Y0034958D01*
D02*
G37*
G36*
X006638D02*
X0066132Y0034926D01*
X0065901Y003483D01*
X0065702Y0034678D01*
X006555Y0034479D01*
X0065454Y0034248D01*
X0065422Y0034D01*
X0065454Y0033752D01*
X006555Y0033521D01*
X0065702Y0033322D01*
X0065901Y003317D01*
X0066132Y0033074D01*
X006638Y0033042D01*
X0066628Y0033074D01*
X0066859Y003317D01*
X0067058Y0033322D01*
X006721Y0033521D01*
X0067306Y0033752D01*
X0067338Y0034D01*
X0067306Y0034248D01*
X006721Y0034479D01*
X0067058Y0034678D01*
X0066859Y003483D01*
X0066628Y0034926D01*
X006638Y0034958D01*
D02*
G37*
G36*
X006384D02*
X0063592Y0034926D01*
X0063361Y003483D01*
X0063162Y0034678D01*
X006301Y0034479D01*
X0062914Y0034248D01*
X0062882Y0034D01*
X0062914Y0033752D01*
X006301Y0033521D01*
X0063162Y0033322D01*
X0063361Y003317D01*
X0063592Y0033074D01*
X006384Y0033042D01*
X0064088Y0033074D01*
X0064319Y003317D01*
X0064518Y0033322D01*
X006467Y0033521D01*
X0064766Y0033752D01*
X0064798Y0034D01*
X0064766Y0034248D01*
X006467Y0034479D01*
X0064518Y0034678D01*
X0064319Y003483D01*
X0064088Y0034926D01*
X006384Y0034958D01*
D02*
G37*
G36*
X0082Y0031362D02*
Y00305D01*
X0082862D01*
X0082767Y0030731D01*
X0082534Y0031034D01*
X0082231Y0031267D01*
X0082Y0031362D01*
D02*
G37*
G36*
X0081Y0031362D02*
X0080769Y0031267D01*
X0080466Y0031034D01*
X0080233Y0030731D01*
X0080138Y00305D01*
X0081D01*
Y0031362D01*
D02*
G37*
G36*
X00765Y0031362D02*
X0076148Y0031315D01*
X0075819Y0031179D01*
X0075537Y0030963D01*
X0075321Y0030681D01*
X0075185Y0030352D01*
X0075138Y003D01*
X0075185Y0029648D01*
X0075321Y0029319D01*
X0075537Y0029037D01*
X0075819Y0028821D01*
X0076148Y0028685D01*
X00765Y0028638D01*
X0076852Y0028685D01*
X0077181Y0028821D01*
X0077463Y0029037D01*
X0077679Y0029319D01*
X0077815Y0029648D01*
X0077862Y003D01*
X0077815Y0030352D01*
X0077679Y0030681D01*
X0077463Y0030963D01*
X0077181Y0031179D01*
X0076852Y0031315D01*
X00765Y0031362D01*
D02*
G37*
G36*
X00715D02*
X0071148Y0031315D01*
X0070819Y0031179D01*
X0070537Y0030963D01*
X0070321Y0030681D01*
X0070185Y0030352D01*
X0070138Y003D01*
X0070185Y0029648D01*
X0070321Y0029319D01*
X0070537Y0029037D01*
X0070819Y0028821D01*
X0071148Y0028685D01*
X00715Y0028638D01*
X0071852Y0028685D01*
X0072181Y0028821D01*
X0072463Y0029037D01*
X0072679Y0029319D01*
X0072815Y0029648D01*
X0072862Y003D01*
X0072815Y0030352D01*
X0072679Y0030681D01*
X0072463Y0030963D01*
X0072181Y0031179D01*
X0071852Y0031315D01*
X00715Y0031362D01*
D02*
G37*
G36*
X00665D02*
X0066148Y0031315D01*
X0065819Y0031179D01*
X0065537Y0030963D01*
X0065321Y0030681D01*
X0065185Y0030352D01*
X0065138Y003D01*
X0065185Y0029648D01*
X0065321Y0029319D01*
X0065537Y0029037D01*
X0065819Y0028821D01*
X0066148Y0028685D01*
X00665Y0028638D01*
X0066852Y0028685D01*
X0067181Y0028821D01*
X0067463Y0029037D01*
X0067679Y0029319D01*
X0067815Y0029648D01*
X0067862Y003D01*
X0067815Y0030352D01*
X0067679Y0030681D01*
X0067463Y0030963D01*
X0067181Y0031179D01*
X0066852Y0031315D01*
X00665Y0031362D01*
D02*
G37*
G36*
X0082862Y00295D02*
X0082D01*
Y0028638D01*
X0082231Y0028733D01*
X0082534Y0028966D01*
X0082767Y0029269D01*
X0082862Y00295D01*
D02*
G37*
G36*
X0081D02*
X0080138D01*
X0080233Y0029269D01*
X0080466Y0028966D01*
X0080769Y0028733D01*
X0081Y0028638D01*
Y00295D01*
D02*
G37*
%LPD*%
G36*
X0081626Y0067672D02*
X0081628Y0067644D01*
X0081633Y0067616D01*
X0081639Y006759D01*
X0081646Y0067566D01*
X0081656Y0067542D01*
X0081667Y0067521D01*
X0081679Y00675D01*
X0081694Y0067482D01*
X008171Y0067464D01*
X008129D01*
X0081306Y0067482D01*
X0081321Y00675D01*
X0081333Y0067521D01*
X0081344Y0067542D01*
X0081354Y0067566D01*
X0081361Y006759D01*
X0081367Y0067616D01*
X0081372Y0067644D01*
X0081374Y0067672D01*
X0081375Y0067703D01*
X0081625D01*
X0081626Y0067672D01*
D02*
G37*
G36*
X0089276Y0067412D02*
X0089278Y0067383D01*
X0089283Y0067356D01*
X0089289Y006733D01*
X0089296Y0067305D01*
X0089306Y0067282D01*
X0089317Y0067261D01*
X0089329Y006724D01*
X0089344Y0067222D01*
X008936Y0067204D01*
X008894D01*
X0088956Y0067222D01*
X0088971Y006724D01*
X0088983Y0067261D01*
X0088994Y0067282D01*
X0089004Y0067305D01*
X0089011Y006733D01*
X0089017Y0067356D01*
X0089022Y0067383D01*
X0089024Y0067412D01*
X0089025Y0067443D01*
X0089275D01*
X0089276Y0067412D01*
D02*
G37*
G36*
X0083732Y0067444D02*
X008375Y0067429D01*
X0083771Y0067417D01*
X0083792Y0067406D01*
X0083816Y0067396D01*
X008384Y0067389D01*
X0083866Y0067383D01*
X0083894Y0067378D01*
X0083922Y0067376D01*
X0083953Y0067375D01*
Y0067125D01*
X0083922Y0067124D01*
X0083894Y0067122D01*
X0083866Y0067117D01*
X008384Y0067111D01*
X0083816Y0067104D01*
X0083792Y0067094D01*
X0083771Y0067083D01*
X008375Y0067071D01*
X0083732Y0067056D01*
X0083714Y006704D01*
Y006746D01*
X0083732Y0067444D01*
D02*
G37*
G36*
X0087009Y0067318D02*
X0087086Y0067251D01*
X0087096Y0067245D01*
X0087105Y006724D01*
X0087112Y0067238D01*
X0087117Y0067238D01*
X0086912Y0067033D01*
X0086912Y0067038D01*
X008691Y0067045D01*
X0086905Y0067054D01*
X0086899Y0067064D01*
X008689Y0067076D01*
X0086865Y0067105D01*
X0086812Y0067162D01*
X0086988Y0067338D01*
X0087009Y0067318D01*
D02*
G37*
G36*
X0088699Y0064773D02*
X0088688Y0064758D01*
X0088679Y0064741D01*
X0088672Y0064721D01*
X0088665Y00647D01*
X008866Y0064676D01*
X0088655Y0064651D01*
X0088652Y0064623D01*
X008865Y006456D01*
X008835D01*
X0088349Y0064592D01*
X0088345Y0064651D01*
X008834Y0064676D01*
X0088335Y00647D01*
X0088328Y0064721D01*
X0088321Y0064741D01*
X0088312Y0064758D01*
X0088301Y0064773D01*
X008829Y0064786D01*
X008871D01*
X0088699Y0064773D01*
D02*
G37*
G36*
X0087699D02*
X0087688Y0064758D01*
X0087679Y0064741D01*
X0087672Y0064721D01*
X0087665Y00647D01*
X008766Y0064676D01*
X0087655Y0064651D01*
X0087652Y0064623D01*
X008765Y006456D01*
X008735D01*
X0087349Y0064592D01*
X0087345Y0064651D01*
X008734Y0064676D01*
X0087335Y00647D01*
X0087328Y0064721D01*
X0087321Y0064741D01*
X0087312Y0064758D01*
X0087301Y0064773D01*
X008729Y0064786D01*
X008771D01*
X0087699Y0064773D01*
D02*
G37*
G36*
X0059787Y0054031D02*
X0059777Y0054016D01*
X0059768Y0053999D01*
X005976Y005398D01*
X0059754Y0053958D01*
X0059748Y0053935D01*
X0059744Y0053909D01*
X0059741Y0053881D01*
X0059739Y0053819D01*
X0059439D01*
X0059438Y0053851D01*
X0059433Y0053909D01*
X0059429Y0053935D01*
X0059424Y0053958D01*
X0059417Y005398D01*
X0059409Y0053999D01*
X00594Y0054016D01*
X005939Y0054031D01*
X0059379Y0054044D01*
X0059799D01*
X0059787Y0054031D01*
D02*
G37*
G36*
X0069173Y0035088D02*
X0069181Y003502D01*
X0069195Y0034953D01*
X0069214Y0034889D01*
X0069239Y0034826D01*
X0069269Y0034764D01*
X0069305Y0034705D01*
X0069346Y0034647D01*
X0069393Y003459D01*
X0069445Y0034536D01*
X0068395D01*
X0068447Y003459D01*
X0068494Y0034647D01*
X0068535Y0034705D01*
X0068571Y0034764D01*
X0068601Y0034826D01*
X0068626Y0034889D01*
X0068645Y0034953D01*
X0068659Y003502D01*
X0068667Y0035088D01*
X006867Y0035157D01*
X006917D01*
X0069173Y0035088D01*
D02*
G37*
G36*
X0078477Y0034818D02*
X0078518Y0034786D01*
X007856Y0034759D01*
X0078603Y0034737D01*
X0078646Y0034721D01*
X007869Y003471D01*
X0078735Y0034705D01*
X007878Y0034704D01*
X0078826Y003471D01*
X0078872Y0034721D01*
X0078359Y0034208D01*
X007837Y0034254D01*
X0078376Y00343D01*
X0078376Y0034345D01*
X007837Y003439D01*
X0078359Y0034434D01*
X0078343Y0034477D01*
X0078321Y003452D01*
X0078294Y0034562D01*
X0078262Y0034603D01*
X0078224Y0034644D01*
X0078436Y0034856D01*
X0078477Y0034818D01*
D02*
G37*
G36*
X0085104Y0034732D02*
X0085066Y0034689D01*
X0085032Y0034639D01*
X0085003Y0034583D01*
X0084977Y003452D01*
X0084956Y0034451D01*
X0084938Y0034375D01*
X0084925Y0034293D01*
X0084916Y0034204D01*
X008491Y0034007D01*
X0084168Y003475D01*
X0084269Y0034751D01*
X0084453Y0034765D01*
X0084535Y0034778D01*
X0084611Y0034796D01*
X008468Y0034817D01*
X0084743Y0034843D01*
X0084799Y0034872D01*
X0084849Y0034906D01*
X0084892Y0034944D01*
X0085104Y0034732D01*
D02*
G37*
G36*
X0082564D02*
X0082526Y0034689D01*
X0082492Y0034639D01*
X0082463Y0034583D01*
X0082437Y003452D01*
X0082416Y0034451D01*
X0082398Y0034375D01*
X0082385Y0034293D01*
X0082376Y0034204D01*
X008237Y0034007D01*
X0081628Y003475D01*
X0081729Y0034751D01*
X0081913Y0034765D01*
X0081995Y0034778D01*
X0082071Y0034796D01*
X008214Y0034817D01*
X0082203Y0034843D01*
X0082259Y0034872D01*
X0082309Y0034906D01*
X0082352Y0034944D01*
X0082564Y0034732D01*
D02*
G37*
D10*
X00869Y006725D02*
X00872Y006695D01*
X00835Y006725D02*
X00869D01*
X008175Y0068D02*
X008875D01*
X008915Y006699D02*
Y00676D01*
X008875Y0068D02*
X008915Y00676D01*
X00815Y006725D02*
Y006775D01*
X008175Y0068D01*
D46*
X00875Y0064D02*
Y0065D01*
X007833Y003475D02*
X007908Y0034D01*
X0059589Y0052911D02*
Y0054258D01*
X007775Y003475D02*
X007833D01*
X0059589Y0052911D02*
X007775Y003475D01*
X00875Y0064D02*
X008765Y006385D01*
X008162Y0034D02*
X008765Y004003D01*
Y006385D01*
X00885Y003834D02*
Y0065D01*
X008416Y0034D02*
X00885Y003834D01*
D48*
X0058839Y0055899D02*
X0065031Y0062092D01*
X006892Y0034D02*
Y0036519D01*
X0058839Y0046601D02*
Y0055899D01*
Y0046601D02*
X006892Y0036519D01*
X0065031Y0062092D02*
Y006724D01*
D51*
X006Y00345D02*
D03*
X0058Y0038725D02*
D03*
X0088Y00345D02*
D03*
X00665Y003D02*
D03*
X00715D02*
D03*
X00815D02*
D03*
X00765D02*
D03*
X0092025Y0038725D02*
D03*
D52*
X006384Y0034D02*
D03*
X006638D02*
D03*
X006892D02*
D03*
X007146D02*
D03*
X0074D02*
D03*
X007654D02*
D03*
X007908D02*
D03*
X008162D02*
D03*
X008416D02*
D03*
D53*
X008Y00405D02*
D03*
D54*
X00945Y0059325D02*
D03*
X00535D02*
D03*
D55*
X0059Y0059D02*
D03*
Y00605D02*
D03*
Y00575D02*
D03*
X00895Y00405D02*
D03*
X0087D02*
D03*
X00655Y00565D02*
D03*
X00605Y005D02*
D03*
X009Y00535D02*
D03*
Y00565D02*
D03*
Y00595D02*
D03*
X0063Y00565D02*
D03*
Y0059D02*
D03*
X00895Y0038D02*
D03*
X0087D02*
D03*
X0063Y0067D02*
D03*
X00615D02*
D03*
X00655Y0059D02*
D03*
X00685D02*
D03*
X0064Y0039D02*
D03*
X00615Y0036D02*
D03*
X0065D02*
D03*
X00675Y0039D02*
D03*
X0075Y0044D02*
D03*
X00685Y00495D02*
D03*
Y0045D02*
D03*
X0079Y0053D02*
D03*
Y0048D02*
D03*
X0075D02*
D03*
X00715Y004D02*
D03*
Y0045D02*
D03*
Y0049D02*
D03*
X0059589Y0054258D02*
D03*
X00885Y0065D02*
D03*
X00875D02*
D03*
X00872Y006695D02*
D03*
X008915Y006699D02*
D03*
X00815Y006725D02*
D03*
X00835D02*
D03*
X0087Y00635D02*
D03*
X00845D02*
D03*
X00825D02*
D03*
X00785Y0071D02*
D03*
X00825Y0072D02*
D03*
X0076Y00545D02*
D03*
X00815Y00565D02*
D03*
Y00595D02*
D03*
X00805Y00635D02*
D03*
X0069Y0071D02*
D03*
X0072D02*
D03*
X0066D02*
D03*
X0075D02*
D03*
X0068Y00665D02*
D03*
X00785Y0065D02*
D03*
Y0062D02*
D03*
Y0059D02*
D03*
X00775Y00565D02*
D03*
X00745D02*
D03*
X0075Y00685D02*
D03*
X0066D02*
D03*
X0072D02*
D03*
X0069D02*
D03*
X0075Y00645D02*
D03*
X0072D02*
D03*
X00735Y00665D02*
D03*
X0067251Y006148D02*
D03*
X0065031Y006724D02*
D03*
X00705Y00665D02*
D03*
M02*
