M48
;Layer_Color=9474304
;FILE_FORMAT=4:3
METRIC,LZ
;TYPE=PLATED
T1F00S00C0.300
T2F00S00C0.650
T3F00S00C1.000
%
T01
X0080766Y0091217
X0082687Y0093594
Y0098792
X0080766Y0098289
X0083703Y0100495
X0084112Y0102469
X0086712Y0103069
X008781Y0104397
X008874Y0104419
X0089512
X0090336
X0091112
X0091887Y0104397
X0094454Y0103711
X0094454Y010282
X0096512Y0101269
Y0100499
Y0099719
X0098003Y0101438
Y0105869
X0096512Y0105569
X0096412Y0109816
X0092212
X008781Y0109173
X0087555Y0106458
X0088512Y0106469
X0087999Y0097469
X0086012Y0097994
X0094612Y0097919
X0095712Y0092969
X0097912Y0094869
X0102023Y0094998
X0103012Y0091283
X0107512Y0094445
X0108837Y0095721
X0109587Y0097919
X0110912Y0101669
X0110012Y0102569
X0108937Y0102469
X0108812Y0104221
X0107012Y0107469
X0103412Y0106819
X0103083Y0105271
X0101012Y0104881
X0102629Y0103086
X0103327Y0100538
X0106359Y0100694
X0102612Y0108349
X0099412Y0111274
X0107608Y0111329
X0112379Y0111333
X0112362Y0093469
Y0091283
X0092912Y0091194
X0091207Y0092369
X0080766Y010363
Y0109786
T02
X0084392Y0091899
Y0093169
X0085662
Y0091899
X0086932
Y0093169
X0083306Y0105311
X0082036
X0080766
Y0106581
X0082036
X0083306
X0084572Y0109969
X0085842
X0087112
Y0111239
X0085842
X0084572
X0103572
X0104842
X0106112
Y0109969
X0104842
X0103572
X0108572Y0109619
X0109842
X0111112
Y0108349
X0109842
X0108572
X0109718Y0106581
Y0105311
X0110988
Y0106581
X0112258
Y0105311
X0108632Y0093169
X0107362
X0106092
Y0091899
X0107362
X0108632
T03
X0101312Y0096819
M30
