G04*
G04 #@! TF.GenerationSoftware,Altium Limited,Altium Designer,20.1.8 (145)*
G04*
G04 Layer_Color=32896*
%FSTAX43Y43*%
%MOMM*%
G71*
G04*
G04 #@! TF.SameCoordinates,0B34B400-A00A-4FE9-84D7-845614CC9F3F*
G04*
G04*
G04 #@! TF.FilePolarity,Positive*
G04*
G01*
G75*
%ADD11C,0.250*%
%ADD12C,0.200*%
%ADD13C,0.150*%
%ADD14C,0.100*%
G36*
X0084008Y0104313D02*
X0084006Y0104311D01*
X0083306D01*
X0083979Y0104984D01*
X0084008D01*
Y0104313D01*
D02*
G37*
G36*
X011296D02*
X0112958Y0104311D01*
X0112258D01*
X0112931Y0104984D01*
X011296D01*
Y0104313D01*
D02*
G37*
G36*
X0091507Y0098264D02*
X0090787Y0097544D01*
X0090787Y0098264D01*
X0091507Y0098264D01*
D02*
G37*
D11*
X0085737Y0094269D02*
G03*
X0085737Y0094269I-0000125J0D01*
G01*
X0090537Y0099364D02*
G03*
X0090537Y0099364I-0000125J0D01*
G01*
X0106887Y0106703D02*
G03*
X0106887Y0106703I-0000125J0D01*
G01*
X0106837Y0094974D02*
G03*
X0106837Y0094974I-0000125J0D01*
G01*
D12*
X0088812Y0099826D02*
X0089012D01*
X0088812Y0100426D02*
X0089012D01*
X0086512Y0094569D02*
X0087512D01*
Y0095369D01*
X0086512Y0097569D02*
X0087512D01*
Y0096769D02*
Y0097569D01*
X0084292Y0098269D02*
X0084492D01*
X0084292Y0098869D02*
X0084492D01*
X0090787Y0098264D02*
X0095412D01*
X0090787Y0095064D02*
Y0098264D01*
Y0095064D02*
X0095412D01*
Y0098264D01*
X0104712Y0096869D02*
Y0097069D01*
X0104112Y0096869D02*
Y0097069D01*
X008883Y0098919D02*
X008903D01*
X008883Y0098319D02*
X008903D01*
X0104112Y0099619D02*
Y0099819D01*
X0104712Y0099619D02*
Y0099819D01*
X0108212Y0095229D02*
Y0100229D01*
X0110012Y0095229D02*
Y0100229D01*
X0108212Y0095229D02*
X0110012D01*
X0108212Y0100229D02*
X0110012D01*
D13*
X0099835Y0099694D02*
X0100585D01*
X009981Y0098844D02*
X010056D01*
X0099135D02*
Y0099669D01*
X0088804Y0093704D02*
X0089404D01*
X0088804Y0093304D02*
X0089404D01*
X0105612Y0106353D02*
X0106012D01*
X0105612Y0104253D02*
X0106012D01*
Y0106353D01*
X0105612Y0104253D02*
Y0106353D01*
X0106012Y010324D02*
Y010384D01*
X0105612Y010324D02*
Y010384D01*
X0102587Y0095869D02*
X0103462D01*
X0103487Y0096469D02*
Y0097669D01*
X0102537Y0096469D02*
Y0097669D01*
X0110612Y0094169D02*
Y0094769D01*
X0111012Y0094169D02*
Y0094769D01*
X0102012Y0102569D02*
Y0103568D01*
X0101679Y0103235D01*
X0101345Y0103568D01*
Y0102569D01*
X0088937Y0102694D02*
Y0103693D01*
X0088604Y010336D01*
X008827Y0103693D01*
Y0102694D01*
X0087312Y0099726D02*
Y0100326D01*
X0087012D01*
X0086912Y0100226D01*
Y0100026D01*
X0087012Y0099926D01*
X0087312D01*
X0087112D02*
X0086912Y0099726D01*
X0086712Y0099826D02*
X0086612Y0099726D01*
X0086412D01*
X0086312Y0099826D01*
Y0100226D01*
X0086412Y0100326D01*
X0086612D01*
X0086712Y0100226D01*
Y0100126D01*
X0086612Y0100026D01*
X0086312D01*
X0100962Y0100719D02*
Y0100319D01*
X0100762Y0100119D01*
X0100562Y0100319D01*
Y0100719D01*
X0100362D02*
Y0100119D01*
X0100062D01*
X0099962Y0100219D01*
Y0100619D01*
X0100062Y0100719D01*
X0100362D01*
X0099362D02*
X0099762D01*
Y0100419D01*
X0099562Y0100519D01*
X0099462D01*
X0099362Y0100419D01*
Y0100219D01*
X0099462Y0100119D01*
X0099662D01*
X0099762Y0100219D01*
X0097512Y0095669D02*
Y0095069D01*
X0097212D01*
X0097112Y0095169D01*
Y0095569D01*
X0097212Y0095669D01*
X0097512D01*
X0096912D02*
Y0095069D01*
X0096612D01*
X0096512Y0095169D01*
Y0095569D01*
X0096612Y0095669D01*
X0096912D01*
X0096312Y0095569D02*
X0096212Y0095669D01*
X0096012D01*
X0095912Y0095569D01*
Y0095469D01*
X0096012Y0095369D01*
X0096112D01*
X0096012D01*
X0095912Y0095269D01*
Y0095169D01*
X0096012Y0095069D01*
X0096212D01*
X0096312Y0095169D01*
X0104012Y0105682D02*
Y0105082D01*
X0103712D01*
X0103612Y0105182D01*
Y0105582D01*
X0103712Y0105682D01*
X0104012D01*
X0103412Y0105082D02*
Y0105482D01*
X0103212Y0105682D01*
X0103012Y0105482D01*
Y0105082D01*
Y0105382D01*
X0103412D01*
X0102812Y0105082D02*
X0102612D01*
X0102712D01*
Y0105682D01*
X0102812Y0105582D01*
X0108812Y0094829D02*
Y0094229D01*
X0108512D01*
X0108412Y0094329D01*
Y0094729D01*
X0108512Y0094829D01*
X0108812D01*
X0108212D02*
Y0094229D01*
X0107912D01*
X0107812Y0094329D01*
Y0094729D01*
X0107912Y0094829D01*
X0108212D01*
X0107212D02*
X0107612D01*
Y0094529D01*
X0107412Y0094629D01*
X0107312D01*
X0107212Y0094529D01*
Y0094329D01*
X0107312Y0094229D01*
X0107512D01*
X0107612Y0094329D01*
X0103912Y010374D02*
X0104012Y010384D01*
X0104212D01*
X0104312Y010374D01*
Y010334D01*
X0104212Y010324D01*
X0104012D01*
X0103912Y010334D01*
X0103712Y010374D02*
X0103612Y010384D01*
X0103412D01*
X0103312Y010374D01*
Y010364D01*
X0103412Y010354D01*
X0103312Y010344D01*
Y010334D01*
X0103412Y010324D01*
X0103612D01*
X0103712Y010334D01*
Y010344D01*
X0103612Y010354D01*
X0103712Y010364D01*
Y010374D01*
X0103612Y010354D02*
X0103412D01*
X0089412Y0091869D02*
X0089512Y0091969D01*
X0089712D01*
X0089812Y0091869D01*
Y0091469D01*
X0089712Y0091369D01*
X0089512D01*
X0089412Y0091469D01*
X0089212Y0091369D02*
X0089012D01*
X0089112D01*
Y0091969D01*
X0089212Y0091869D01*
X0088712D02*
X0088612Y0091969D01*
X0088412D01*
X0088312Y0091869D01*
Y0091769D01*
X0088412Y0091669D01*
X0088512D01*
X0088412D01*
X0088312Y0091569D01*
Y0091469D01*
X0088412Y0091369D01*
X0088612D01*
X0088712Y0091469D01*
X0111212Y0093569D02*
X0111312Y0093669D01*
X0111512D01*
X0111612Y0093569D01*
Y0093169D01*
X0111512Y0093069D01*
X0111312D01*
X0111212Y0093169D01*
X0111012Y0093069D02*
X0110812D01*
X0110912D01*
Y0093669D01*
X0111012Y0093569D01*
X0110112Y0093669D02*
X0110512D01*
Y0093369D01*
X0110312Y0093469D01*
X0110212D01*
X0110112Y0093369D01*
Y0093169D01*
X0110212Y0093069D01*
X0110412D01*
X0110512Y0093169D01*
X0087312Y0098269D02*
Y0098869D01*
X0087012D01*
X0086912Y0098769D01*
Y0098569D01*
X0087012Y0098469D01*
X0087312D01*
X0087112D02*
X0086912Y0098269D01*
X0086712D02*
X0086512D01*
X0086612D01*
Y0098869D01*
X0086712Y0098769D01*
X0086212D02*
X0086112Y0098869D01*
X0085912D01*
X0085812Y0098769D01*
Y0098369D01*
X0085912Y0098269D01*
X0086112D01*
X0086212Y0098369D01*
Y0098769D01*
X0082592Y0098269D02*
Y0098869D01*
X0082292D01*
X0082192Y0098769D01*
Y0098569D01*
X0082292Y0098469D01*
X0082592D01*
X0082392D02*
X0082192Y0098269D01*
X0081992D02*
X0081792D01*
X0081892D01*
Y0098869D01*
X0081992Y0098769D01*
X0081492Y0098269D02*
X0081292D01*
X0081392D01*
Y0098869D01*
X0081492Y0098769D01*
X0105212Y0094794D02*
Y0095394D01*
X0104912D01*
X0104812Y0095294D01*
Y0095094D01*
X0104912Y0094994D01*
X0105212D01*
X0105012D02*
X0104812Y0094794D01*
X0104612D02*
X0104412D01*
X0104512D01*
Y0095394D01*
X0104612Y0095294D01*
X0103712Y0095394D02*
X0104112D01*
Y0095094D01*
X0103912Y0095194D01*
X0103812D01*
X0103712Y0095094D01*
Y0094894D01*
X0103812Y0094794D01*
X0104012D01*
X0104112Y0094894D01*
X0103612Y0099419D02*
Y0100019D01*
X0103312D01*
X0103212Y0099919D01*
Y0099719D01*
X0103312Y0099619D01*
X0103612D01*
X0103412D02*
X0103212Y0099419D01*
X0103012D02*
X0102812D01*
X0102912D01*
Y0100019D01*
X0103012Y0099919D01*
X0102512Y0099519D02*
X0102412Y0099419D01*
X0102212D01*
X0102112Y0099519D01*
Y0099919D01*
X0102212Y0100019D01*
X0102412D01*
X0102512Y0099919D01*
Y0099819D01*
X0102412Y0099719D01*
X0102112D01*
X0103312Y0095369D02*
Y0094969D01*
X0103112Y0094769D01*
X0102912Y0094969D01*
Y0095369D01*
X0102712D02*
Y0094769D01*
X0102412D01*
X0102312Y0094869D01*
Y0095269D01*
X0102412Y0095369D01*
X0102712D01*
X0101812Y0094769D02*
Y0095369D01*
X0102112Y0095069D01*
X0101712D01*
X0084412Y0095169D02*
Y0094769D01*
X0084212Y0094569D01*
X0084012Y0094769D01*
Y0095169D01*
X0083812D02*
Y0094569D01*
X0083512D01*
X0083412Y0094669D01*
Y0095069D01*
X0083512Y0095169D01*
X0083812D01*
X0082812Y0094569D02*
X0083212D01*
X0082812Y0094969D01*
Y0095069D01*
X0082912Y0095169D01*
X0083112D01*
X0083212Y0095069D01*
D14*
X0086437Y0101369D02*
X0106212D01*
X0099512Y0102369D02*
Y0111694D01*
X0109004Y0107611D02*
X0112958Y0107612D01*
Y0104286D02*
Y0107612D01*
X0109004Y0104286D02*
Y0107611D01*
Y0104286D02*
X0112958D01*
X0080052Y0107611D02*
X0084006Y0107612D01*
Y0104286D02*
Y0107612D01*
X0080052Y0104286D02*
Y0107611D01*
Y0104286D02*
X0084006D01*
X0086662Y0102369D02*
X0106362D01*
X0093512D02*
X0099512D01*
X0093512D02*
Y0111694D01*
X0099512D01*
M02*
