G04*
G04 #@! TF.GenerationSoftware,Altium Limited,Altium Designer,20.1.8 (145)*
G04*
G04 Layer_Color=6711008*
%FSTAX43Y43*%
%MOMM*%
G71*
G04*
G04 #@! TF.SameCoordinates,4CD76DC4-311B-4E25-801D-5A3FBB03E2DD*
G04*
G04*
G04 #@! TF.FilePolarity,Positive*
G04*
G01*
G75*
%ADD16C,0.100*%
%ADD17C,0.150*%
D16*
X0112633Y0067849D02*
G03*
X0111633Y0068849I-0001J0D01*
G01*
X0104683Y0057549D02*
G03*
X0105683Y0058549I0J0001D01*
G01*
X0094933Y0085549D02*
G03*
X0093933Y0084549I0J-0001D01*
G01*
X0108133Y0060223D02*
G03*
X0109133Y0059223I0001J0D01*
G01*
X0111633Y0059223D02*
G03*
X0112633Y0060223I0J0001D01*
G01*
X0105733Y0062349D02*
G03*
X0106733Y0063349I0J0001D01*
G01*
X0105683Y0088799D02*
G03*
X0106683Y0087799I0001J0D01*
G01*
X0105683Y0090549D02*
G03*
X0104683Y0091549I-0001J0D01*
G01*
X0109133Y0068849D02*
G03*
X0108133Y0067849I0J-0001D01*
G01*
X0098933Y0058549D02*
G03*
X0099933Y0057549I0001J0D01*
G01*
X0098933Y0062549D02*
G03*
X0097933Y0063549I-0001J0D01*
G01*
X0107733Y0079999D02*
G03*
X0106733Y0078999I0J-0001D01*
G01*
X0112633Y0079999D02*
G03*
X0113633Y0080999I0J0001D01*
G01*
Y0086799D02*
G03*
X0112633Y0087799I-0001J0D01*
G01*
X0099683Y0091549D02*
G03*
X0098683Y0090549I0J-0001D01*
G01*
X0097683Y0085549D02*
G03*
X0098683Y0086549I0J0001D01*
G01*
X0093933Y0064549D02*
G03*
X0094933Y0063549I0001J0D01*
G01*
X0109133Y0059223D02*
X0111633Y0059223D01*
X0109133Y0068849D02*
X0111633D01*
X0106683Y0087799D02*
X0112633Y0087799D01*
X0099683Y0091549D02*
X0104683D01*
X0094933Y0085549D02*
X0097683Y0085549D01*
X0105683Y0088799D02*
Y0090549D01*
X0103933Y0057549D02*
X0104683Y0057549D01*
X0099933Y0057549D02*
X0103933D01*
X0105683Y0058549D02*
X0105733Y0062349D01*
X0093933Y0064549D02*
Y0084549D01*
X0108133Y0060223D02*
Y0067849D01*
X0112633Y0060223D02*
Y0067849D01*
X0098933Y0058549D02*
Y0062549D01*
X0106733Y0063349D02*
Y0078999D01*
X0107733Y0079999D02*
X0112633D01*
X0113633Y0080999D02*
Y0086799D01*
X0098683Y0086549D02*
Y0090549D01*
X009495Y0063549D02*
X0097933D01*
D17*
X0121183Y0074549D02*
G03*
X0121183Y0074549I-002225J0D01*
G01*
M02*
