G04*
G04 #@! TF.GenerationSoftware,Altium Limited,Altium Designer,20.1.8 (145)*
G04*
G04 Layer_Color=16777215*
%FSTAX43Y43*%
%MOMM*%
G71*
G04*
G04 #@! TF.SameCoordinates,7F49C3F1-04F9-482F-9C58-12B171E084D3*
G04*
G04*
G04 #@! TF.FilePolarity,Positive*
G04*
G01*
G75*
%ADD10C,0.300*%
%ADD11C,0.100*%
%ADD12C,0.400*%
G36*
X0114672Y006213D02*
X0113922Y006413D01*
X0115422D01*
X0114672Y006213D01*
D02*
G37*
G36*
X011469Y0067189D02*
X011544Y0065189D01*
X011394D01*
X011469Y0067189D01*
D02*
G37*
G36*
X0092954Y0078813D02*
Y0070187D01*
X0090246D01*
Y0078813D01*
X0092954D01*
D02*
G37*
G36*
X0098171Y0077828D02*
X00982Y0077824D01*
X0098237Y007782D01*
X0098316Y0077803D01*
X0098404Y0077774D01*
X0098446Y0077753D01*
X0098491Y0077733D01*
X0098537Y0077703D01*
X0098579Y007767D01*
X0098616Y0077633D01*
X0098654Y0077591D01*
X0098658Y0077587D01*
X0098662Y0077578D01*
X009867Y0077566D01*
X0098683Y0077549D01*
X0098695Y0077524D01*
X0098712Y0077499D01*
X009875Y0077433D01*
X0098783Y0077349D01*
X0098812Y0077258D01*
X0098833Y0077154D01*
X0098841Y0077099D01*
Y0077041D01*
Y0077037D01*
Y0077029D01*
Y0077016D01*
X0098837Y0076995D01*
Y007697D01*
X0098833Y0076941D01*
X0098825Y0076875D01*
X0098804Y0076795D01*
X0098779Y0076708D01*
X0098745Y0076616D01*
X0098695Y007652D01*
Y0076516D01*
X0098687Y0076508D01*
X0098679Y0076495D01*
X0098666Y0076475D01*
X009865Y007645D01*
X0098629Y007642D01*
X0098604Y0076387D01*
X0098575Y0076345D01*
X0098541Y00763D01*
X00985Y007625D01*
X0098454Y0076196D01*
X0098404Y0076137D01*
X009835Y0076075D01*
X0098291Y0076008D01*
X0098221Y0075933D01*
X009815Y0075858D01*
X0098146Y0075854D01*
X0098137Y0075846D01*
X0098125Y0075833D01*
X0098108Y0075816D01*
X0098066Y0075771D01*
X0098012Y0075716D01*
X0097958Y0075654D01*
X0097904Y0075596D01*
X0097858Y0075542D01*
X0097837Y0075521D01*
X0097821Y00755D01*
X0097817Y0075496D01*
X0097808Y0075483D01*
X0097796Y0075467D01*
X0097779Y0075442D01*
X0097758Y0075412D01*
X0097737Y0075379D01*
X00977Y0075312D01*
X0098845D01*
Y0074975D01*
X00973D01*
Y0074979D01*
Y0074983D01*
Y0074996D01*
Y0075012D01*
X0097304Y0075054D01*
X0097312Y0075108D01*
X0097325Y0075175D01*
X0097346Y0075254D01*
X0097379Y0075337D01*
X0097421Y0075429D01*
Y0075433D01*
X0097429Y0075442D01*
X0097433Y0075454D01*
X0097446Y0075475D01*
X0097462Y00755D01*
X0097479Y0075529D01*
X0097504Y0075562D01*
X0097529Y00756D01*
X0097558Y0075641D01*
X0097592Y0075687D01*
X0097633Y0075737D01*
X0097675Y0075787D01*
X0097725Y0075841D01*
X0097775Y00759D01*
X0097833Y0075962D01*
X0097896Y0076025D01*
X00979Y0076029D01*
X0097912Y0076041D01*
X0097933Y0076062D01*
X0097962Y0076091D01*
X0097991Y0076125D01*
X0098029Y0076162D01*
X0098071Y0076208D01*
X0098112Y0076254D01*
X0098204Y0076354D01*
X0098291Y0076458D01*
X0098329Y0076508D01*
X0098366Y0076558D01*
X00984Y0076604D01*
X0098425Y0076645D01*
Y007665D01*
X0098429Y0076654D01*
X0098437Y0076666D01*
X0098446Y0076683D01*
X0098466Y0076725D01*
X0098491Y0076779D01*
X0098512Y0076841D01*
X0098533Y0076908D01*
X009855Y0076983D01*
X0098554Y0077054D01*
Y0077058D01*
Y0077062D01*
Y0077074D01*
Y0077091D01*
X0098546Y0077129D01*
X0098537Y0077179D01*
X0098521Y0077237D01*
X00985Y0077295D01*
X0098466Y0077354D01*
X0098425Y0077408D01*
X0098421Y0077412D01*
X00984Y0077429D01*
X0098375Y0077449D01*
X0098337Y0077479D01*
X0098291Y0077504D01*
X0098237Y0077524D01*
X0098175Y0077541D01*
X0098108Y0077545D01*
X00981D01*
X0098075Y0077541D01*
X0098037Y0077537D01*
X0097991Y0077529D01*
X0097941Y0077508D01*
X0097883Y0077483D01*
X0097829Y0077445D01*
X0097779Y0077395D01*
X0097775Y0077387D01*
X0097758Y0077366D01*
X0097737Y0077333D01*
X0097717Y0077287D01*
X0097692Y0077224D01*
X0097671Y0077154D01*
X0097654Y0077066D01*
X009765Y007697D01*
X0097354Y0077008D01*
Y0077012D01*
Y0077024D01*
X0097358Y0077045D01*
X0097362Y0077074D01*
X0097367Y0077108D01*
X0097375Y0077149D01*
X0097383Y0077191D01*
X0097396Y0077237D01*
X0097425Y0077337D01*
X0097462Y0077441D01*
X0097517Y0077537D01*
X009755Y0077583D01*
X0097583Y0077624D01*
X0097587Y0077628D01*
X0097592Y0077633D01*
X0097604Y0077645D01*
X0097621Y0077658D01*
X0097642Y0077674D01*
X0097667Y0077691D01*
X0097725Y0077728D01*
X0097804Y0077766D01*
X0097892Y0077799D01*
X0097996Y0077824D01*
X0098054Y0077828D01*
X0098112Y0077833D01*
X0098146D01*
X0098171Y0077828D01*
D02*
G37*
G36*
X0098579Y007095D02*
X0098296D01*
Y0073179D01*
X0098292Y0073174D01*
X0098279Y0073158D01*
X0098254Y0073137D01*
X0098225Y0073104D01*
X0098187Y007307D01*
X0098142Y0073029D01*
X0098087Y0072983D01*
X0098029Y0072937D01*
X0098021Y0072933D01*
X0098Y0072916D01*
X0097971Y0072895D01*
X0097929Y007287D01*
X0097883Y0072841D01*
X0097829Y0072812D01*
X0097779Y0072783D01*
X0097725Y0072758D01*
Y0073095D01*
X0097729D01*
X0097738Y0073099D01*
X0097746Y0073108D01*
X0097762Y007312D01*
X0097808Y0073149D01*
X0097862Y0073187D01*
X0097929Y0073233D01*
X0097996Y0073291D01*
X0098067Y0073354D01*
X0098137Y0073424D01*
X0098142Y0073429D01*
X0098146Y0073433D01*
X0098167Y0073458D01*
X00982Y0073495D01*
X0098237Y0073545D01*
X0098279Y0073603D01*
X0098321Y007367D01*
X0098362Y0073737D01*
X0098392Y0073808D01*
X0098579D01*
Y007095D01*
D02*
G37*
G36*
X0108261Y009027D02*
X0108276Y0090268D01*
X0108293Y0090267D01*
X0108311Y0090263D01*
X0108331Y0090257D01*
X0108378Y0090242D01*
X0108402Y0090233D01*
X0108426Y0090222D01*
X010845Y0090207D01*
X0108474Y0090191D01*
X0108498Y0090172D01*
X010852Y0090152D01*
X0108522D01*
X0108524Y0090148D01*
X0108528Y0090142D01*
X0108533Y0090137D01*
X0108541Y0090128D01*
X0108548Y0090117D01*
X0108557Y0090104D01*
X0108567Y0090089D01*
X0108576Y0090072D01*
X0108587Y0090055D01*
X0108596Y0090035D01*
X0108607Y0090013D01*
X0108617Y0089987D01*
X0108626Y0089961D01*
X0108635Y0089933D01*
X0108643Y0089904D01*
X0108437Y0089844D01*
Y0089846D01*
X0108435Y0089848D01*
Y0089854D01*
X0108433Y0089861D01*
X0108428Y008988D01*
X010842Y0089902D01*
X0108409Y0089928D01*
X0108394Y0089954D01*
X0108378Y0089978D01*
X0108357Y009D01*
X0108355Y0090002D01*
X0108348Y0090009D01*
X0108335Y0090018D01*
X0108318Y0090028D01*
X0108298Y0090039D01*
X0108276Y0090046D01*
X010825Y0090054D01*
X010822Y0090055D01*
X0108209D01*
X0108202Y0090054D01*
X0108181Y009005D01*
X0108156Y0090042D01*
X0108126Y0090031D01*
X0108094Y0090013D01*
X010808Y0090002D01*
X0108065Y0089989D01*
X010805Y0089974D01*
X0108035Y0089955D01*
Y0089954D01*
X0108031Y0089952D01*
X010803Y0089944D01*
X0108024Y0089937D01*
X0108018Y0089926D01*
X0108013Y0089913D01*
X0108007Y0089896D01*
X0108Y0089878D01*
X0107993Y0089857D01*
X0107987Y0089833D01*
X0107981Y0089805D01*
X0107976Y0089776D01*
X0107972Y0089744D01*
X0107968Y0089709D01*
X0107965Y008967D01*
Y008963D01*
Y0089628D01*
Y0089618D01*
Y0089607D01*
X0107967Y0089591D01*
Y0089572D01*
X0107968Y008955D01*
X010797Y0089526D01*
X0107974Y00895D01*
X0107981Y0089444D01*
X0107994Y0089389D01*
X0108002Y0089363D01*
X0108011Y0089337D01*
X0108022Y0089315D01*
X0108033Y0089294D01*
Y0089293D01*
X0108037Y0089291D01*
X0108046Y008928D01*
X0108061Y0089263D01*
X0108083Y0089246D01*
X0108109Y0089228D01*
X0108139Y0089211D01*
X0108176Y00892D01*
X0108194Y0089198D01*
X0108215Y0089196D01*
X0108218D01*
X0108228Y0089198D01*
X0108244Y00892D01*
X0108263Y0089204D01*
X0108285Y0089211D01*
X0108309Y0089222D01*
X0108333Y0089239D01*
X0108355Y0089259D01*
X0108357Y0089263D01*
X0108365Y0089272D01*
X0108376Y0089287D01*
X0108389Y0089309D01*
X0108404Y0089337D01*
X0108417Y0089372D01*
X0108431Y0089413D01*
X0108443Y0089463D01*
X0108644Y0089385D01*
Y0089383D01*
X0108643Y0089376D01*
X0108639Y0089365D01*
X0108635Y008935D01*
X010863Y0089333D01*
X0108624Y0089313D01*
X0108617Y0089291D01*
X0108607Y0089267D01*
X0108585Y0089217D01*
X0108557Y0089165D01*
X0108526Y0089117D01*
X0108507Y0089096D01*
X0108487Y0089076D01*
X0108485Y0089074D01*
X0108481Y0089072D01*
X0108476Y0089067D01*
X0108467Y0089061D01*
X0108457Y0089054D01*
X0108444Y0089046D01*
X010843Y0089037D01*
X0108413Y0089028D01*
X0108394Y0089019D01*
X0108374Y0089009D01*
X0108328Y0088994D01*
X0108276Y0088983D01*
X0108248Y0088981D01*
X0108218Y008898D01*
X0108209D01*
X01082Y0088981D01*
X0108185D01*
X0108168Y0088985D01*
X0108148Y0088987D01*
X0108126Y0088993D01*
X0108102Y0088998D01*
X0108076Y0089007D01*
X010805Y0089017D01*
X0108024Y008903D01*
X0107996Y0089044D01*
X0107968Y0089063D01*
X0107943Y0089083D01*
X0107917Y0089106D01*
X0107893Y0089133D01*
X0107891Y0089135D01*
X0107887Y0089141D01*
X010788Y0089152D01*
X010787Y0089167D01*
X0107859Y0089183D01*
X0107848Y0089206D01*
X0107835Y0089231D01*
X0107822Y0089261D01*
X0107807Y0089293D01*
X0107794Y008933D01*
X0107783Y0089368D01*
X0107772Y0089411D01*
X0107763Y0089457D01*
X0107756Y0089507D01*
X0107752Y0089559D01*
X010775Y0089615D01*
Y0089617D01*
Y0089618D01*
Y008963D01*
X0107752Y0089646D01*
Y0089667D01*
X0107754Y0089694D01*
X0107757Y0089726D01*
X0107763Y0089759D01*
X0107769Y0089796D01*
X0107776Y0089837D01*
X0107785Y0089878D01*
X0107796Y0089918D01*
X0107811Y0089961D01*
X0107828Y0090002D01*
X0107846Y0090041D01*
X0107869Y009008D01*
X0107894Y0090115D01*
X0107896Y0090117D01*
X01079Y0090122D01*
X0107907Y009013D01*
X0107917Y0090139D01*
X010793Y0090152D01*
X0107944Y0090165D01*
X0107963Y009018D01*
X0107983Y0090194D01*
X0108006Y0090207D01*
X0108031Y0090222D01*
X0108059Y0090235D01*
X0108089Y0090248D01*
X0108122Y0090257D01*
X0108156Y0090265D01*
X0108193Y009027D01*
X0108231Y0090272D01*
X0108248D01*
X0108261Y009027D01*
D02*
G37*
G36*
X0110757Y0089D02*
X0110548D01*
X0110135Y0089815D01*
Y0089D01*
X0109942D01*
Y0090252D01*
X0110142D01*
X0110565Y0089415D01*
Y0090252D01*
X0110757D01*
Y0089D01*
D02*
G37*
G36*
X0114212Y0089211D02*
X0114727D01*
Y0089D01*
X0114005D01*
Y0090242D01*
X0114212D01*
Y0089211D01*
D02*
G37*
G36*
X0112327Y009025D02*
X0112344D01*
X0112379Y0090248D01*
X0112418Y0090242D01*
X0112457Y0090237D01*
X0112494Y0090228D01*
X0112511Y0090222D01*
X0112525Y0090217D01*
X0112529Y0090215D01*
X0112538Y0090211D01*
X0112551Y0090202D01*
X0112568Y0090189D01*
X0112587Y0090174D01*
X0112605Y0090154D01*
X0112625Y009013D01*
X0112644Y00901D01*
X0112646Y0090096D01*
X0112651Y0090085D01*
X0112659Y0090067D01*
X0112668Y0090044D01*
X0112675Y0090015D01*
X0112683Y008998D01*
X0112688Y0089942D01*
X011269Y00899D01*
Y0089898D01*
Y0089894D01*
Y0089885D01*
X0112688Y0089876D01*
Y0089863D01*
X0112687Y0089848D01*
X0112681Y0089815D01*
X0112674Y0089778D01*
X0112661Y0089739D01*
X0112642Y00897D01*
X0112618Y0089663D01*
Y0089661D01*
X0112614Y0089659D01*
X0112605Y0089648D01*
X0112588Y0089633D01*
X0112566Y0089617D01*
X0112538Y0089596D01*
X0112503Y0089578D01*
X0112464Y0089563D01*
X0112418Y0089552D01*
X0112422Y008955D01*
X0112429Y0089543D01*
X0112442Y0089533D01*
X0112457Y008952D01*
X0112474Y0089506D01*
X0112492Y0089487D01*
X0112511Y0089467D01*
X0112527Y0089446D01*
X0112529Y0089444D01*
X0112535Y0089435D01*
X0112546Y008942D01*
X0112559Y00894D01*
X0112575Y0089372D01*
X0112585Y0089356D01*
X0112596Y0089337D01*
X0112607Y0089317D01*
X011262Y0089294D01*
X0112633Y0089268D01*
X0112646Y0089243D01*
X0112772Y0089D01*
X0112522D01*
X0112374Y0089272D01*
Y0089274D01*
X011237Y008928D01*
X0112366Y0089287D01*
X0112361Y0089296D01*
X0112353Y0089307D01*
X0112346Y008932D01*
X0112329Y008935D01*
X0112311Y0089381D01*
X0112292Y0089413D01*
X0112285Y0089426D01*
X0112275Y0089437D01*
X0112268Y0089448D01*
X0112262Y0089456D01*
X0112261Y0089457D01*
X0112257Y0089461D01*
X0112251Y0089468D01*
X0112244Y0089476D01*
X0112225Y0089493D01*
X0112214Y0089502D01*
X0112201Y0089507D01*
X01122D01*
X0112196Y0089509D01*
X0112188Y0089513D01*
X0112177Y0089515D01*
X0112163Y0089518D01*
X0112144Y008952D01*
X0112124Y0089522D01*
X0112057D01*
Y0089D01*
X011185D01*
Y0090252D01*
X0112314D01*
X0112327Y009025D01*
D02*
G37*
G36*
X0111716Y0090041D02*
X0111413D01*
Y0089D01*
X0111205D01*
Y0090041D01*
X01109D01*
Y0090252D01*
X0111716D01*
Y0090041D01*
D02*
G37*
G36*
X0113362Y009027D02*
X0113377D01*
X0113396Y0090267D01*
X0113418Y0090263D01*
X0113442Y0090257D01*
X0113468Y0090252D01*
X0113496Y0090242D01*
X0113525Y0090231D01*
X0113555Y0090217D01*
X0113585Y0090202D01*
X0113614Y0090181D01*
X0113644Y0090159D01*
X0113672Y0090133D01*
X0113699Y0090104D01*
X0113701Y0090102D01*
X0113705Y0090096D01*
X0113712Y0090087D01*
X0113722Y0090072D01*
X0113731Y0090055D01*
X0113744Y0090033D01*
X0113757Y0090009D01*
X011377Y0089981D01*
X0113783Y0089948D01*
X0113794Y0089913D01*
X0113807Y0089874D01*
X0113816Y0089831D01*
X0113825Y0089785D01*
X0113833Y0089735D01*
X0113836Y0089681D01*
X0113838Y0089626D01*
Y0089622D01*
Y0089613D01*
Y0089596D01*
X0113836Y0089574D01*
X0113835Y0089548D01*
X0113831Y0089517D01*
X0113825Y0089483D01*
X011382Y0089446D01*
X0113812Y0089407D01*
X0113803Y0089368D01*
X011379Y0089328D01*
X0113775Y0089287D01*
X0113759Y0089246D01*
X0113738Y0089207D01*
X0113716Y008917D01*
X011369Y0089135D01*
X0113688Y0089133D01*
X0113685Y0089128D01*
X0113677Y008912D01*
X0113666Y0089111D01*
X0113653Y00891D01*
X0113638Y0089085D01*
X011362Y0089072D01*
X0113598Y0089057D01*
X0113573Y0089043D01*
X0113548Y008903D01*
X011352Y0089017D01*
X0113488Y0089004D01*
X0113455Y0088994D01*
X0113418Y0088987D01*
X0113381Y0088981D01*
X011334Y008898D01*
X0113331D01*
X0113318Y0088981D01*
X0113303D01*
X0113285Y0088985D01*
X0113262Y0088987D01*
X0113238Y0088993D01*
X0113212Y0088998D01*
X0113185Y0089007D01*
X0113157Y0089017D01*
X0113127Y008903D01*
X0113098Y0089044D01*
X011307Y0089063D01*
X011304Y0089083D01*
X0113014Y0089106D01*
X0112988Y0089133D01*
X0112986Y0089135D01*
X0112983Y0089141D01*
X0112975Y0089152D01*
X0112966Y0089165D01*
X0112955Y0089183D01*
X0112942Y0089206D01*
X0112929Y0089231D01*
X0112916Y0089259D01*
X0112901Y0089293D01*
X0112888Y008933D01*
X0112875Y0089368D01*
X0112864Y0089411D01*
X0112855Y0089457D01*
X0112848Y0089507D01*
X0112844Y0089561D01*
X0112842Y0089617D01*
Y0089618D01*
Y0089626D01*
Y0089639D01*
X0112844Y0089654D01*
Y0089672D01*
X0112846Y0089694D01*
X0112848Y008972D01*
X0112849Y0089746D01*
X0112859Y0089805D01*
X011287Y0089867D01*
X0112885Y0089928D01*
X0112896Y0089957D01*
X0112907Y0089985D01*
Y0089987D01*
X0112911Y0089991D01*
X0112914Y0089998D01*
X011292Y0090009D01*
X0112925Y009002D01*
X0112933Y0090035D01*
X0112953Y0090067D01*
X0112979Y0090102D01*
X0113007Y0090137D01*
X0113042Y009017D01*
X0113079Y00902D01*
X0113081D01*
X0113085Y0090204D01*
X011309Y0090207D01*
X0113098Y0090211D01*
X0113109Y0090217D01*
X0113122Y0090222D01*
X0113136Y0090229D01*
X0113151Y0090237D01*
X011319Y009025D01*
X0113235Y0090261D01*
X0113285Y0090268D01*
X011334Y0090272D01*
X0113349D01*
X0113362Y009027D01*
D02*
G37*
G36*
X01093D02*
X0109315D01*
X0109333Y0090267D01*
X0109355Y0090263D01*
X0109379Y0090257D01*
X0109405Y0090252D01*
X0109433Y0090242D01*
X0109463Y0090231D01*
X0109492Y0090217D01*
X0109522Y0090202D01*
X0109552Y0090181D01*
X0109581Y0090159D01*
X0109609Y0090133D01*
X0109637Y0090104D01*
X0109639Y0090102D01*
X0109642Y0090096D01*
X010965Y0090087D01*
X0109659Y0090072D01*
X0109668Y0090055D01*
X0109681Y0090033D01*
X0109694Y0090009D01*
X0109707Y0089981D01*
X010972Y0089948D01*
X0109731Y0089913D01*
X0109744Y0089874D01*
X0109754Y0089831D01*
X0109763Y0089785D01*
X010977Y0089735D01*
X0109774Y0089681D01*
X0109776Y0089626D01*
Y0089622D01*
Y0089613D01*
Y0089596D01*
X0109774Y0089574D01*
X0109772Y0089548D01*
X0109768Y0089517D01*
X0109763Y0089483D01*
X0109757Y0089446D01*
X010975Y0089407D01*
X0109741Y0089368D01*
X0109728Y0089328D01*
X0109713Y0089287D01*
X0109696Y0089246D01*
X0109676Y0089207D01*
X0109654Y008917D01*
X0109628Y0089135D01*
X0109626Y0089133D01*
X0109622Y0089128D01*
X0109615Y008912D01*
X0109604Y0089111D01*
X0109591Y00891D01*
X0109576Y0089085D01*
X0109557Y0089072D01*
X0109535Y0089057D01*
X0109511Y0089043D01*
X0109485Y008903D01*
X0109457Y0089017D01*
X0109426Y0089004D01*
X0109392Y0088994D01*
X0109355Y0088987D01*
X0109318Y0088981D01*
X0109278Y008898D01*
X0109268D01*
X0109255Y0088981D01*
X0109241D01*
X0109222Y0088985D01*
X01092Y0088987D01*
X0109176Y0088993D01*
X010915Y0088998D01*
X0109122Y0089007D01*
X0109094Y0089017D01*
X0109065Y008903D01*
X0109035Y0089044D01*
X0109007Y0089063D01*
X0108978Y0089083D01*
X0108952Y0089106D01*
X0108926Y0089133D01*
X0108924Y0089135D01*
X010892Y0089141D01*
X0108913Y0089152D01*
X0108904Y0089165D01*
X0108892Y0089183D01*
X010888Y0089206D01*
X0108867Y0089231D01*
X0108854Y0089259D01*
X0108839Y0089293D01*
X0108826Y008933D01*
X0108813Y0089368D01*
X0108802Y0089411D01*
X0108792Y0089457D01*
X0108785Y0089507D01*
X0108781Y0089561D01*
X010878Y0089617D01*
Y0089618D01*
Y0089626D01*
Y0089639D01*
X0108781Y0089654D01*
Y0089672D01*
X0108783Y0089694D01*
X0108785Y008972D01*
X0108787Y0089746D01*
X0108796Y0089805D01*
X0108807Y0089867D01*
X0108822Y0089928D01*
X0108833Y0089957D01*
X0108844Y0089985D01*
Y0089987D01*
X0108848Y0089991D01*
X0108852Y0089998D01*
X0108857Y0090009D01*
X0108863Y009002D01*
X010887Y0090035D01*
X0108891Y0090067D01*
X0108917Y0090102D01*
X0108944Y0090137D01*
X0108979Y009017D01*
X0109017Y00902D01*
X0109018D01*
X0109022Y0090204D01*
X0109028Y0090207D01*
X0109035Y0090211D01*
X0109046Y0090217D01*
X0109059Y0090222D01*
X0109074Y0090229D01*
X0109089Y0090237D01*
X0109128Y009025D01*
X0109172Y0090261D01*
X0109222Y0090268D01*
X0109278Y0090272D01*
X0109287D01*
X01093Y009027D01*
D02*
G37*
G36*
X0109916Y0071685D02*
X0109938Y0071682D01*
X0109966Y0071679D01*
X0109994Y0071677D01*
X0110027Y0071668D01*
X0110094Y0071652D01*
X0110166Y0071624D01*
X0110199Y0071607D01*
X0110236Y0071588D01*
X0110266Y0071566D01*
X0110297Y0071538D01*
X0110299Y0071535D01*
X0110302Y0071532D01*
X0110311Y0071521D01*
X0110322Y007151D01*
X0110333Y0071496D01*
X0110347Y0071477D01*
X011036Y0071455D01*
X0110374Y007143D01*
X0110388Y0071402D01*
X0110405Y0071371D01*
X0110419Y0071335D01*
X011043Y0071299D01*
X0110441Y0071257D01*
X0110449Y0071216D01*
X0110458Y0071169D01*
X011046Y0071119D01*
X0110149Y0071102D01*
Y0071105D01*
Y0071108D01*
X0110147Y0071116D01*
X0110144Y0071127D01*
X0110138Y0071152D01*
X011013Y0071185D01*
X0110116Y0071219D01*
X0110102Y0071255D01*
X0110083Y0071285D01*
X0110058Y0071313D01*
X0110055Y0071316D01*
X0110047Y0071321D01*
X011003Y0071332D01*
X0110008Y0071344D01*
X010998Y0071355D01*
X0109947Y0071366D01*
X0109908Y0071371D01*
X0109864Y0071374D01*
X0109844D01*
X0109819Y0071371D01*
X0109791Y0071369D01*
X0109761Y007136D01*
X010973Y0071352D01*
X0109697Y0071338D01*
X0109669Y0071321D01*
X0109666Y0071319D01*
X0109658Y0071313D01*
X0109647Y0071302D01*
X0109636Y0071285D01*
X0109625Y0071266D01*
X0109614Y0071244D01*
X0109605Y0071219D01*
X0109603Y0071191D01*
Y0071188D01*
Y007118D01*
X0109605Y0071166D01*
X0109611Y0071146D01*
X0109616Y0071127D01*
X0109628Y0071108D01*
X0109644Y0071085D01*
X0109664Y0071066D01*
X0109666Y0071063D01*
X0109678Y0071058D01*
X0109694Y0071046D01*
X0109722Y0071033D01*
X0109741Y0071024D01*
X0109761Y0071013D01*
X0109783Y0071005D01*
X0109811Y0070994D01*
X0109839Y0070983D01*
X0109872Y0070972D01*
X0109908Y007096D01*
X0109947Y0070949D01*
X010995D01*
X0109958Y0070947D01*
X0109969Y0070944D01*
X0109986Y0070938D01*
X0110005Y007093D01*
X0110027Y0070924D01*
X0110077Y0070905D01*
X0110133Y0070883D01*
X0110188Y007086D01*
X0110241Y0070833D01*
X0110266Y0070819D01*
X0110286Y0070805D01*
X0110291Y0070802D01*
X0110302Y0070791D01*
X0110322Y0070777D01*
X0110347Y0070755D01*
X0110372Y0070727D01*
X0110399Y0070694D01*
X0110424Y0070655D01*
X0110447Y0070613D01*
X0110449Y0070608D01*
X0110455Y0070591D01*
X0110463Y0070566D01*
X0110474Y0070533D01*
X0110485Y0070491D01*
X0110494Y0070441D01*
X0110499Y0070386D01*
X0110502Y0070325D01*
Y0070322D01*
Y0070314D01*
Y0070302D01*
X0110499Y0070283D01*
X0110497Y0070264D01*
X0110494Y0070239D01*
X0110488Y0070211D01*
X0110483Y0070183D01*
X0110466Y0070116D01*
X0110438Y0070047D01*
X0110422Y0070014D01*
X0110399Y006998D01*
X0110377Y0069947D01*
X0110349Y0069914D01*
X0110347Y0069911D01*
X0110341Y0069905D01*
X0110333Y00699D01*
X0110322Y0069889D01*
X0110305Y0069875D01*
X0110286Y0069861D01*
X0110261Y0069847D01*
X0110236Y0069833D01*
X0110205Y0069817D01*
X0110169Y0069803D01*
X011013Y0069789D01*
X0110088Y0069775D01*
X0110041Y0069764D01*
X0109991Y0069758D01*
X0109938Y0069753D01*
X010988Y006975D01*
X0109855D01*
X0109827Y0069756D01*
X0109791Y0069761D01*
X0109747Y0069769D01*
X0109697Y0069783D01*
X0109644Y0069803D01*
X0109589Y0069831D01*
X0109533Y0069864D01*
X0109478Y0069908D01*
X0109425Y0069958D01*
X01094Y0069989D01*
X0109375Y0070022D01*
X0109353Y0070058D01*
X0109333Y0070094D01*
X0109314Y0070136D01*
X0109294Y007018D01*
X0109281Y007023D01*
X0109267Y007028D01*
X0109258Y0070336D01*
X010925Y0070394D01*
X0109553Y007043D01*
Y0070427D01*
X0109555Y0070414D01*
X0109558Y0070397D01*
X0109564Y0070375D01*
X0109572Y0070347D01*
X0109583Y0070316D01*
X0109597Y0070283D01*
X0109614Y007025D01*
X0109633Y0070216D01*
X0109655Y0070183D01*
X0109683Y0070153D01*
X0109716Y0070125D01*
X0109753Y0070103D01*
X0109791Y0070086D01*
X0109839Y0070072D01*
X0109889Y0070069D01*
X0109911D01*
X0109936Y0070072D01*
X0109969Y0070078D01*
X0110002Y0070086D01*
X0110038Y00701D01*
X0110075Y0070116D01*
X0110108Y0070141D01*
X0110111Y0070144D01*
X0110122Y0070155D01*
X0110136Y0070172D01*
X0110149Y0070191D01*
X0110166Y0070219D01*
X0110177Y007025D01*
X0110188Y0070286D01*
X0110191Y0070325D01*
Y0070327D01*
Y0070336D01*
X0110188Y0070347D01*
Y0070364D01*
X0110177Y0070397D01*
X0110172Y0070416D01*
X0110161Y0070433D01*
Y0070436D01*
X0110155Y0070441D01*
X0110138Y0070458D01*
X0110127Y0070469D01*
X0110113Y0070483D01*
X0110094Y0070494D01*
X0110075Y0070505D01*
X0110072Y0070508D01*
X0110063Y0070511D01*
X0110044Y0070519D01*
X0110019Y007053D01*
X0110002Y0070536D01*
X0109983Y0070541D01*
X0109961Y007055D01*
X0109933Y0070558D01*
X0109905Y0070569D01*
X0109872Y007058D01*
X0109836Y0070591D01*
X0109797Y0070602D01*
X0109794D01*
X0109789Y0070605D01*
X0109777Y0070608D01*
X0109764Y0070613D01*
X0109747Y0070619D01*
X010973Y0070625D01*
X0109686Y0070641D01*
X0109639Y0070661D01*
X0109589Y0070683D01*
X0109544Y0070708D01*
X0109505Y0070733D01*
X0109503Y0070736D01*
X0109492Y0070747D01*
X0109475Y0070761D01*
X0109453Y0070783D01*
X010943Y0070808D01*
X0109405Y0070838D01*
X010938Y0070874D01*
X0109358Y0070916D01*
X0109355Y0070922D01*
X010935Y0070935D01*
X0109342Y007096D01*
X0109333Y0070991D01*
X0109322Y0071027D01*
X0109314Y0071069D01*
X0109308Y0071116D01*
X0109306Y0071163D01*
Y0071166D01*
Y0071169D01*
Y0071177D01*
Y0071188D01*
X0109308Y0071219D01*
X0109314Y0071255D01*
X0109322Y0071296D01*
X0109336Y0071344D01*
X0109353Y0071391D01*
X0109375Y0071438D01*
Y0071441D01*
X0109378Y0071443D01*
X0109389Y0071457D01*
X0109403Y007148D01*
X0109425Y0071507D01*
X0109453Y0071538D01*
X0109486Y0071568D01*
X0109522Y0071599D01*
X0109566Y0071624D01*
X0109569D01*
X0109572Y0071627D01*
X0109589Y0071635D01*
X0109616Y0071643D01*
X0109653Y0071657D01*
X0109697Y0071668D01*
X0109747Y0071677D01*
X0109808Y0071685D01*
X0109872Y0071688D01*
X0109897D01*
X0109916Y0071685D01*
D02*
G37*
G36*
X0113314Y0071341D02*
X0112859D01*
Y0069781D01*
X0112548D01*
Y0071341D01*
X011209D01*
Y0071657D01*
X0113314D01*
Y0071341D01*
D02*
G37*
G36*
X011191D02*
X0111077D01*
Y0070924D01*
X0111851D01*
Y0070608D01*
X0111077D01*
Y0070097D01*
X0111937D01*
Y0069781D01*
X0110766D01*
Y0071657D01*
X011191D01*
Y0071341D01*
D02*
G37*
G36*
X0112581Y0057281D02*
X0112267D01*
X0111648Y0058502D01*
Y0057281D01*
X0111359D01*
Y0059157D01*
X0111659D01*
X0112292Y0057902D01*
Y0059157D01*
X0112581D01*
Y0057281D01*
D02*
G37*
G36*
X0111026Y0058172D02*
Y0058166D01*
Y0058155D01*
Y0058136D01*
Y0058111D01*
Y005808D01*
X0111023Y0058044D01*
Y0058005D01*
X0111021Y0057961D01*
X0111015Y0057872D01*
X011101Y0057783D01*
X0111004Y0057739D01*
X0110998Y0057697D01*
X0110993Y0057658D01*
X0110985Y0057625D01*
Y0057622D01*
X0110982Y0057616D01*
X0110979Y0057608D01*
X0110976Y0057597D01*
X0110965Y0057566D01*
X0110946Y0057528D01*
X0110921Y0057486D01*
X011089Y0057439D01*
X0110851Y0057394D01*
X0110801Y0057353D01*
X0110799D01*
X0110796Y0057347D01*
X0110787Y0057344D01*
X0110776Y0057336D01*
X0110762Y0057328D01*
X0110746Y0057319D01*
X0110724Y0057311D01*
X0110701Y0057303D01*
X0110649Y0057283D01*
X0110585Y0057267D01*
X0110513Y0057256D01*
X0110429Y005725D01*
X0110407D01*
X011039Y0057253D01*
X0110368D01*
X0110346Y0057256D01*
X0110291Y0057261D01*
X0110232Y0057272D01*
X0110168Y0057286D01*
X0110107Y0057308D01*
X0110052Y0057336D01*
X0110049D01*
X0110046Y0057339D01*
X011003Y0057353D01*
X0110005Y0057372D01*
X0109977Y00574D01*
X0109943Y0057433D01*
X010991Y0057475D01*
X010988Y0057522D01*
X0109855Y0057578D01*
Y005758D01*
X0109852Y0057586D01*
X0109849Y0057594D01*
X0109846Y0057608D01*
X0109841Y0057628D01*
X0109835Y005765D01*
X010983Y0057678D01*
X0109827Y0057708D01*
X0109821Y0057747D01*
X0109816Y0057789D01*
X010981Y0057836D01*
X0109805Y0057889D01*
X0109802Y0057947D01*
X0109799Y0058011D01*
X0109796Y005808D01*
Y0058155D01*
Y0059157D01*
X0110107D01*
Y0058141D01*
Y0058138D01*
Y005813D01*
Y0058119D01*
Y0058102D01*
Y0058086D01*
Y0058063D01*
X011011Y0058013D01*
Y0057963D01*
X0110113Y0057911D01*
X0110116Y0057866D01*
Y005785D01*
X0110118Y0057833D01*
Y0057827D01*
X0110124Y0057814D01*
X011013Y0057791D01*
X0110138Y0057764D01*
X0110152Y005773D01*
X0110168Y00577D01*
X0110188Y0057669D01*
X0110216Y0057641D01*
X0110218Y0057639D01*
X0110229Y005763D01*
X0110246Y0057619D01*
X0110271Y0057608D01*
X0110299Y0057597D01*
X0110335Y0057586D01*
X0110377Y0057578D01*
X0110421Y0057575D01*
X011044D01*
X011046Y0057578D01*
X0110485Y005758D01*
X0110513Y0057586D01*
X011054Y0057594D01*
X0110568Y0057605D01*
X0110596Y0057622D01*
X0110599Y0057625D01*
X0110607Y005763D01*
X0110618Y0057641D01*
X0110632Y0057655D01*
X0110649Y0057675D01*
X0110663Y0057697D01*
X0110676Y0057722D01*
X0110688Y0057752D01*
Y0057758D01*
X0110693Y0057769D01*
Y005778D01*
X0110696Y0057794D01*
X0110699Y0057811D01*
X0110701Y005783D01*
X0110704Y0057852D01*
X0110707Y005788D01*
X011071Y0057911D01*
Y0057944D01*
X0110713Y005798D01*
X0110715Y0058022D01*
Y0058069D01*
Y0058119D01*
Y0059157D01*
X0111026D01*
Y0058172D01*
D02*
G37*
G36*
X0108966Y0059154D02*
X0108991D01*
X0109044Y0059152D01*
X0109102Y0059143D01*
X0109161Y0059135D01*
X0109216Y0059121D01*
X0109241Y0059113D01*
X0109263Y0059105D01*
X0109269Y0059102D01*
X0109283Y0059096D01*
X0109302Y0059082D01*
X0109327Y0059063D01*
X0109355Y0059041D01*
X0109383Y005901D01*
X0109413Y0058974D01*
X0109441Y005893D01*
X0109444Y0058924D01*
X0109452Y0058907D01*
X0109463Y005888D01*
X0109477Y0058846D01*
X0109488Y0058802D01*
X0109499Y0058749D01*
X0109508Y0058694D01*
X010951Y005863D01*
Y0058627D01*
Y0058621D01*
Y0058608D01*
X0109508Y0058594D01*
Y0058574D01*
X0109505Y0058552D01*
X0109497Y0058502D01*
X0109485Y0058447D01*
X0109466Y0058388D01*
X0109438Y005833D01*
X0109402Y0058274D01*
Y0058272D01*
X0109397Y0058269D01*
X0109383Y0058252D01*
X0109358Y005823D01*
X0109324Y0058205D01*
X0109283Y0058174D01*
X010923Y0058147D01*
X0109172Y0058125D01*
X0109102Y0058108D01*
X0109108Y0058105D01*
X0109119Y0058094D01*
X0109138Y005808D01*
X0109161Y0058061D01*
X0109186Y0058038D01*
X0109213Y0058011D01*
X0109241Y005798D01*
X0109266Y005795D01*
X0109269Y0057947D01*
X0109277Y0057933D01*
X0109294Y0057911D01*
X0109313Y005788D01*
X0109338Y0057839D01*
X0109352Y0057814D01*
X0109369Y0057786D01*
X0109385Y0057755D01*
X0109405Y0057722D01*
X0109424Y0057683D01*
X0109444Y0057644D01*
X0109633Y0057281D01*
X0109258D01*
X0109036Y0057689D01*
Y0057691D01*
X010903Y00577D01*
X0109025Y0057711D01*
X0109016Y0057725D01*
X0109005Y0057741D01*
X0108994Y0057761D01*
X0108969Y0057805D01*
X0108941Y0057852D01*
X0108914Y00579D01*
X0108902Y0057919D01*
X0108889Y0057936D01*
X0108877Y0057952D01*
X0108869Y0057963D01*
X0108866Y0057966D01*
X0108861Y0057972D01*
X0108852Y0057983D01*
X0108841Y0057994D01*
X0108814Y0058019D01*
X0108797Y0058033D01*
X0108777Y0058041D01*
X0108775D01*
X0108769Y0058044D01*
X0108758Y005805D01*
X0108741Y0058052D01*
X0108719Y0058058D01*
X0108691Y0058061D01*
X0108661Y0058063D01*
X0108561D01*
Y0057281D01*
X010825D01*
Y0059157D01*
X0108947D01*
X0108966Y0059154D01*
D02*
G37*
%LPC*%
G36*
X0092554Y0078413D02*
X0090677D01*
Y0078124D01*
X0091898D01*
X0090677Y0077505D01*
Y0077192D01*
X0092554D01*
Y0078413D01*
D02*
G37*
G36*
Y0077025D02*
X0090677D01*
Y0076695D01*
X0091102Y007657D01*
Y0075948D01*
X0090677Y0075815D01*
Y0075479D01*
D01*
X0092554Y0076098D01*
Y0075948D01*
Y0076428D01*
X0090677Y0077025D01*
X0092554D01*
D01*
D02*
G37*
G36*
Y007532D02*
X0090677D01*
Y0075032D01*
X0092157D01*
X0090677Y0074726D01*
Y0074429D01*
X0092157Y0074118D01*
X0090677D01*
Y007383D01*
X0092554D01*
Y007532D01*
D02*
G37*
G36*
Y0073527D02*
X0090646D01*
D01*
X0091476D01*
X0091407Y0073524D01*
X0091343Y0073521D01*
X0091285Y0073519D01*
X0091232Y0073513D01*
X0091185Y0073507D01*
X0091143Y0073502D01*
X0091104Y0073496D01*
X0091074Y0073494D01*
X0091046Y0073488D01*
X0091024Y0073483D01*
X0091005Y0073477D01*
X0090991Y0073474D01*
X0090982Y0073471D01*
X0090977Y0073469D01*
X0090974D01*
X0090918Y0073444D01*
X0090871Y0073413D01*
X009083Y007338D01*
X0090796Y0073346D01*
X0090769Y0073319D01*
X0090749Y0073294D01*
X0090735Y0073277D01*
X0090732Y0073274D01*
Y0073272D01*
X0090705Y0073216D01*
X0090682Y0073155D01*
X0090669Y0073091D01*
X0090657Y0073033D01*
X0090652Y0072977D01*
X0090649Y0072955D01*
Y0072933D01*
X0090646Y0072916D01*
Y0072977D01*
Y0072894D01*
X0090652Y0072811D01*
X0090663Y0072738D01*
X009068Y0072675D01*
X0090699Y0072622D01*
X0090707Y00726D01*
X0090716Y0072577D01*
X0090724Y0072561D01*
X0090732Y0072547D01*
X0090741Y0072536D01*
X0090744Y0072527D01*
X0090749Y0072525D01*
Y0072522D01*
X0090791Y0072472D01*
X0090835Y0072433D01*
X0090882Y0072403D01*
X0090924Y0072378D01*
X0090963Y0072358D01*
X0090993Y0072347D01*
X0091005Y0072344D01*
X0091013Y0072341D01*
X0091018Y0072339D01*
X0091021D01*
X0091054Y007233D01*
X0091093Y0072325D01*
X0091135Y0072319D01*
X0091179Y0072314D01*
X0091268Y0072308D01*
X0091357Y0072303D01*
X0091402Y00723D01*
X009144D01*
X0091476Y0072297D01*
X0092554D01*
Y0072608D01*
X0091515D01*
X0091465D01*
X0091418D01*
X0091377Y0072611D01*
X009134Y0072614D01*
X0091307D01*
X0091277Y0072616D01*
X0091249Y0072619D01*
X0091227Y0072622D01*
X0091207Y0072625D01*
X0091191Y0072627D01*
X0091177Y007263D01*
X0091166D01*
X0091154Y0072636D01*
X0091149D01*
X0091118Y0072647D01*
X0091093Y0072661D01*
X0091071Y0072675D01*
X0091052Y0072691D01*
X0091038Y0072705D01*
X0091027Y0072716D01*
X0091021Y0072725D01*
X0091018Y0072727D01*
X0091002Y0072755D01*
X0090991Y0072783D01*
X0090982Y0072811D01*
X0090977Y0072838D01*
X0090974Y0072863D01*
X0090971Y0072883D01*
Y0072902D01*
X0090974Y0072947D01*
X0090982Y0072988D01*
X0090993Y0073024D01*
X0091005Y0073052D01*
X0091016Y0073077D01*
X0091027Y0073094D01*
X0091035Y0073105D01*
X0091038Y0073108D01*
X0091066Y0073135D01*
X0091096Y0073155D01*
X0091127Y0073172D01*
X009116Y0073185D01*
X0091188Y0073194D01*
X009121Y0073199D01*
X0091224Y0073205D01*
X0091229D01*
X0091246Y0073208D01*
X0091263D01*
X0091307Y007321D01*
X009136Y0073213D01*
X009141D01*
X009146Y0073216D01*
X0091482D01*
X0091499D01*
X0091515D01*
X0091526D01*
X0091535D01*
X0091538D01*
X0092554D01*
Y0072977D01*
Y0073527D01*
D02*
G37*
G36*
Y0071969D02*
X0090677D01*
Y0071659D01*
X009146D01*
Y0071559D01*
X0091457Y0071528D01*
X0091454Y00715D01*
X0091449Y0071478D01*
X0091446Y0071461D01*
X009144Y007145D01*
X0091438Y0071445D01*
Y0071442D01*
X0091429Y0071423D01*
X0091415Y0071406D01*
X009139Y0071378D01*
X0091379Y0071367D01*
X0091368Y0071359D01*
X0091363Y0071353D01*
X009136Y007135D01*
X0091349Y0071342D01*
X0091332Y0071331D01*
X0091315Y0071317D01*
X0091296Y0071306D01*
X0091249Y0071278D01*
X0091202Y007125D01*
X0091157Y0071225D01*
X0091138Y0071214D01*
X0091121Y0071203D01*
X0091107Y0071195D01*
X0091096Y0071189D01*
X0091088Y0071184D01*
X0091085D01*
X0090677Y0070962D01*
Y0070587D01*
D01*
X0091041Y0070776D01*
X0091079Y0070795D01*
X0091118Y0070815D01*
X0091152Y0070834D01*
X0091182Y0070851D01*
X009121Y0070867D01*
X0091235Y0070881D01*
X0091277Y0070906D01*
X0091307Y0070926D01*
X0091329Y0070942D01*
X0091343Y0070951D01*
X0091346Y0070953D01*
X0091377Y0070978D01*
X0091407Y0071006D01*
X0091435Y0071034D01*
X0091457Y0071059D01*
X0091476Y0071081D01*
X009149Y0071101D01*
X0091501Y0071112D01*
X0091504Y0071117D01*
X0091521Y0071048D01*
X0091543Y0070989D01*
X0091571Y0070937D01*
X0091601Y0070895D01*
X0091626Y0070862D01*
X0091649Y0070837D01*
X0091665Y0070823D01*
X0091668Y0070817D01*
X0091671D01*
X0091726Y0070781D01*
X0091785Y0070753D01*
X0091843Y0070734D01*
X0091898Y0070723D01*
X0091948Y0070715D01*
X0091971Y0070712D01*
X009199D01*
X0092004Y0070709D01*
X0092018D01*
X0092023D01*
X0092026D01*
X009209Y0070712D01*
X0092146Y007072D01*
X0092198Y0070731D01*
X0092243Y0070742D01*
X0092276Y0070756D01*
X0092304Y0070767D01*
X009232Y0070776D01*
X0092326Y0070778D01*
X009237Y0070806D01*
X0092407Y0070837D01*
X0092437Y0070865D01*
X0092459Y0070892D01*
X0092479Y0070917D01*
X0092493Y0070937D01*
X0092498Y0070951D01*
X0092501Y0070956D01*
X0092509Y0070978D01*
X0092518Y0071003D01*
X0092531Y0071059D01*
X009254Y0071117D01*
X0092548Y0071175D01*
X0092551Y0071228D01*
Y0071253D01*
X0092554Y0071273D01*
Y0070712D01*
Y0071969D01*
D02*
G37*
%LPD*%
G36*
Y007748D02*
X0091299D01*
X0092554Y0078113D01*
Y007748D01*
D02*
G37*
G36*
X0092115Y0076264D02*
X0091418Y0076051D01*
Y0076473D01*
X0092115Y0076264D01*
D02*
G37*
G36*
X0092554Y0074299D02*
X0091268Y0074576D01*
X0092554Y0074857D01*
Y0074299D01*
D02*
G37*
G36*
X0092237Y0071348D02*
X0092234Y0071317D01*
Y0071267D01*
X0092232Y0071245D01*
Y0071228D01*
X0092229Y0071212D01*
X0092226Y0071189D01*
X0092223Y0071175D01*
X009222Y0071167D01*
Y0071164D01*
X0092212Y0071142D01*
X0092201Y0071123D01*
X0092187Y0071106D01*
X0092176Y0071092D01*
X0092165Y0071081D01*
X0092154Y0071073D01*
X0092148Y007107D01*
X0092146Y0071067D01*
X0092123Y0071056D01*
X0092101Y0071045D01*
X0092054Y0071037D01*
X0092032Y0071034D01*
X0092015Y0071031D01*
X0092004D01*
X0092001D01*
X0091968Y0071034D01*
X009194Y0071037D01*
X0091912Y0071042D01*
X0091893Y0071048D01*
X0091873Y0071056D01*
X0091862Y0071062D01*
X0091854Y0071064D01*
X0091851Y0071067D01*
X0091832Y0071081D01*
X0091815Y0071098D01*
X0091804Y0071112D01*
X0091793Y0071128D01*
X0091785Y0071142D01*
X0091779Y007115D01*
X0091776Y0071159D01*
Y0071162D01*
X0091774Y0071175D01*
X0091771Y0071189D01*
X0091768Y0071228D01*
X0091762Y0071273D01*
Y0071317D01*
X009176Y0071361D01*
Y0071659D01*
X0092237D01*
Y0071348D01*
D02*
G37*
%LPC*%
G36*
X0112264Y0090041D02*
X0112057D01*
Y0089722D01*
X0112255D01*
X0112285Y0089724D01*
X0112314D01*
X0112344Y0089728D01*
X011237Y008973D01*
X0112379Y0089731D01*
X0112388Y0089733D01*
X011239D01*
X0112396Y0089735D01*
X0112401Y0089739D01*
X0112411Y0089744D01*
X0112422Y0089752D01*
X0112431Y0089759D01*
X0112442Y008977D01*
X0112451Y0089783D01*
X0112453Y0089785D01*
X0112455Y0089791D01*
X0112459Y0089798D01*
X0112464Y0089811D01*
X0112468Y0089824D01*
X0112472Y0089843D01*
X0112474Y0089861D01*
X0112475Y0089883D01*
Y0089885D01*
Y0089893D01*
X0112474Y0089904D01*
X0112472Y0089918D01*
X0112466Y008995D01*
X0112459Y0089965D01*
X0112451Y008998D01*
X011245Y0089981D01*
X0112448Y0089985D01*
X0112442Y0089992D01*
X0112435Y009D01*
X0112425Y0090007D01*
X0112414Y0090017D01*
X0112401Y0090024D01*
X0112387Y009003D01*
X0112385D01*
X0112379Y0090031D01*
X011237Y0090033D01*
X0112355Y0090035D01*
X0112344Y0090037D01*
X0112333D01*
X0112318Y0090039D01*
X0112285D01*
X0112264Y0090041D01*
D02*
G37*
G36*
X011334Y0090055D02*
X0113327D01*
X011332Y0090054D01*
X0113309Y0090052D01*
X0113296Y009005D01*
X0113268Y0090042D01*
X0113235Y009003D01*
X0113218Y0090022D01*
X0113201Y0090011D01*
X0113183Y0089998D01*
X0113166Y0089985D01*
X0113149Y0089968D01*
X0113135Y008995D01*
Y0089948D01*
X0113131Y0089944D01*
X0113127Y0089939D01*
X0113122Y008993D01*
X0113116Y0089918D01*
X0113111Y0089905D01*
X0113103Y0089889D01*
X0113096Y008987D01*
X0113088Y0089848D01*
X0113081Y0089824D01*
X0113075Y0089798D01*
X011307Y0089768D01*
X0113064Y0089737D01*
X0113061Y0089702D01*
X0113059Y0089665D01*
X0113057Y0089626D01*
Y0089624D01*
Y0089617D01*
Y0089605D01*
X0113059Y0089591D01*
Y0089572D01*
X0113061Y0089552D01*
X0113064Y008953D01*
X0113068Y0089506D01*
X0113077Y0089454D01*
X0113092Y00894D01*
X0113112Y0089348D01*
X0113124Y0089326D01*
X0113138Y0089304D01*
X011314Y0089302D01*
X0113142Y00893D01*
X0113148Y0089294D01*
X0113153Y0089287D01*
X011317Y008927D01*
X0113194Y008925D01*
X0113224Y008923D01*
X0113259Y0089213D01*
X0113277Y0089206D01*
X0113298Y0089202D01*
X0113318Y0089198D01*
X011334Y0089196D01*
X0113351D01*
X0113361Y0089198D01*
X0113372Y00892D01*
X0113383Y0089202D01*
X0113411Y0089209D01*
X0113444Y0089222D01*
X0113461Y0089231D01*
X0113477Y0089241D01*
X0113494Y0089254D01*
X0113511Y0089267D01*
X0113527Y0089283D01*
X0113542Y0089302D01*
X0113544Y0089304D01*
X0113546Y0089307D01*
X0113549Y0089313D01*
X0113555Y0089322D01*
X0113561Y0089333D01*
X0113568Y0089348D01*
X0113575Y0089365D01*
X0113583Y0089383D01*
X011359Y0089406D01*
X0113598Y008943D01*
X0113605Y0089456D01*
X011361Y0089485D01*
X0113616Y0089518D01*
X011362Y0089552D01*
X0113623Y0089589D01*
Y008963D01*
Y0089631D01*
Y0089639D01*
Y008965D01*
X0113622Y0089665D01*
Y0089683D01*
X011362Y0089704D01*
X0113616Y0089726D01*
X0113614Y0089752D01*
X0113605Y0089804D01*
X011359Y0089855D01*
X011357Y0089907D01*
X0113559Y008993D01*
X0113544Y008995D01*
Y0089952D01*
X011354Y0089954D01*
X0113536Y0089959D01*
X0113529Y0089967D01*
X0113512Y0089983D01*
X011349Y0090004D01*
X0113461Y0090022D01*
X0113425Y0090039D01*
X0113405Y0090046D01*
X0113385Y0090052D01*
X0113362Y0090054D01*
X011334Y0090055D01*
D02*
G37*
G36*
X0109278D02*
X0109265D01*
X0109257Y0090054D01*
X0109246Y0090052D01*
X0109233Y009005D01*
X0109205Y0090042D01*
X0109172Y009003D01*
X0109155Y0090022D01*
X0109139Y0090011D01*
X010912Y0089998D01*
X0109104Y0089985D01*
X0109087Y0089968D01*
X0109072Y008995D01*
Y0089948D01*
X0109068Y0089944D01*
X0109065Y0089939D01*
X0109059Y008993D01*
X0109054Y0089918D01*
X0109048Y0089905D01*
X0109041Y0089889D01*
X0109033Y008987D01*
X0109026Y0089848D01*
X0109018Y0089824D01*
X0109013Y0089798D01*
X0109007Y0089768D01*
X0109002Y0089737D01*
X0108998Y0089702D01*
X0108996Y0089665D01*
X0108994Y0089626D01*
Y0089624D01*
Y0089617D01*
Y0089605D01*
X0108996Y0089591D01*
Y0089572D01*
X0108998Y0089552D01*
X0109002Y008953D01*
X0109005Y0089506D01*
X0109015Y0089454D01*
X010903Y00894D01*
X010905Y0089348D01*
X0109061Y0089326D01*
X0109076Y0089304D01*
X0109078Y0089302D01*
X0109079Y00893D01*
X0109085Y0089294D01*
X0109091Y0089287D01*
X0109107Y008927D01*
X0109131Y008925D01*
X0109161Y008923D01*
X0109196Y0089213D01*
X0109215Y0089206D01*
X0109235Y0089202D01*
X0109255Y0089198D01*
X0109278Y0089196D01*
X0109289D01*
X0109298Y0089198D01*
X0109309Y00892D01*
X010932Y0089202D01*
X0109348Y0089209D01*
X0109381Y0089222D01*
X0109398Y0089231D01*
X0109415Y0089241D01*
X0109431Y0089254D01*
X0109448Y0089267D01*
X0109465Y0089283D01*
X0109479Y0089302D01*
X0109481Y0089304D01*
X0109483Y0089307D01*
X0109487Y0089313D01*
X0109492Y0089322D01*
X0109498Y0089333D01*
X0109505Y0089348D01*
X0109513Y0089365D01*
X010952Y0089383D01*
X0109528Y0089406D01*
X0109535Y008943D01*
X0109542Y0089456D01*
X0109548Y0089485D01*
X0109554Y0089518D01*
X0109557Y0089552D01*
X0109561Y0089589D01*
Y008963D01*
Y0089631D01*
Y0089639D01*
Y008965D01*
X0109559Y0089665D01*
Y0089683D01*
X0109557Y0089704D01*
X0109554Y0089726D01*
X0109552Y0089752D01*
X0109542Y0089804D01*
X0109528Y0089855D01*
X0109507Y0089907D01*
X0109496Y008993D01*
X0109481Y008995D01*
Y0089952D01*
X0109478Y0089954D01*
X0109474Y0089959D01*
X0109466Y0089967D01*
X010945Y0089983D01*
X0109428Y0090004D01*
X0109398Y0090022D01*
X0109363Y0090039D01*
X0109342Y0090046D01*
X0109322Y0090052D01*
X01093Y0090054D01*
X0109278Y0090055D01*
D02*
G37*
G36*
X0108872Y0058841D02*
X0108561D01*
Y0058363D01*
X0108858D01*
X0108902Y0058366D01*
X0108947D01*
X0108991Y0058372D01*
X010903Y0058374D01*
X0109044Y0058377D01*
X0109058Y005838D01*
X0109061D01*
X0109069Y0058383D01*
X0109077Y0058388D01*
X0109091Y0058397D01*
X0109108Y0058408D01*
X0109122Y0058419D01*
X0109138Y0058435D01*
X0109152Y0058455D01*
X0109155Y0058458D01*
X0109158Y0058466D01*
X0109163Y0058477D01*
X0109172Y0058497D01*
X0109177Y0058516D01*
X0109183Y0058544D01*
X0109186Y0058571D01*
X0109188Y0058605D01*
Y0058608D01*
Y0058619D01*
X0109186Y0058635D01*
X0109183Y0058658D01*
X0109174Y0058705D01*
X0109163Y0058727D01*
X0109152Y0058749D01*
X0109149Y0058752D01*
X0109147Y0058757D01*
X0109138Y0058769D01*
X0109127Y005878D01*
X0109113Y0058791D01*
X0109097Y0058805D01*
X0109077Y0058816D01*
X0109055Y0058824D01*
X0109052D01*
X0109044Y0058827D01*
X010903Y005883D01*
X0109008Y0058832D01*
X0108991Y0058835D01*
X0108975D01*
X0108952Y0058838D01*
X0108902D01*
X0108872Y0058841D01*
D02*
G37*
%LPD*%
D10*
X009475Y00715D02*
Y00735D01*
X009375Y00725D02*
X009575D01*
X009375Y00765D02*
X009575D01*
D11*
X00965Y00702D02*
Y00788D01*
X0093Y00745D02*
X00995D01*
X009295Y00702D02*
X00995D01*
Y00788D01*
X00929D02*
X00995D01*
D12*
X0114677Y0062762D02*
Y0066362D01*
M02*
