G04*
G04 #@! TF.GenerationSoftware,Altium Limited,Altium Designer,20.1.8 (145)*
G04*
G04 Layer_Color=16777215*
%FSTAX43Y43*%
%MOMM*%
G71*
G04*
G04 #@! TF.SameCoordinates,0B34B400-A00A-4FE9-84D7-845614CC9F3F*
G04*
G04*
G04 #@! TF.FilePolarity,Positive*
G04*
G01*
G75*
%ADD10C,0.254*%
%ADD11C,0.250*%
%ADD12C,0.200*%
%ADD13C,0.150*%
%ADD14C,0.100*%
G36*
X0087633Y0094167D02*
Y0093496D01*
X0087604D01*
X0086932Y0094169D01*
X0087632D01*
X0087633Y0094167D01*
D02*
G37*
G36*
X0084572Y0108969D02*
X0083872D01*
X008387Y010897D01*
Y0109641D01*
X0083899D01*
X0084572Y0108969D01*
D02*
G37*
G36*
X0103572D02*
X0102872D01*
X010287Y010897D01*
Y0109641D01*
X0102899D01*
X0103572Y0108969D01*
D02*
G37*
G36*
X0109333Y0094167D02*
Y0093496D01*
X0109304D01*
X0108632Y0094169D01*
X0109332D01*
X0109333Y0094167D01*
D02*
G37*
G36*
X0097387Y0090869D02*
X0095637D01*
Y0092394D01*
X0097387D01*
Y0090869D01*
D02*
G37*
G36*
X009971Y0110704D02*
X0092203D01*
Y0112334D01*
X009971D01*
Y0110704D01*
D02*
G37*
%LPC*%
G36*
X0096974Y0092111D02*
X0096682D01*
X0096512Y0091455D01*
X009634Y0092111D01*
X009605D01*
Y0091151D01*
X0096229D01*
Y0091906D01*
X0096418Y0091151D01*
X0096605D01*
X0096793Y0091906D01*
X0096795Y0091151D01*
X0096974D01*
Y0092111D01*
D02*
G37*
G36*
X0097025Y011188D02*
X0097011D01*
X0096984Y0111879D01*
X0096959Y0111875D01*
X0096934Y0111869D01*
X0096913Y0111862D01*
X0096895Y0111855D01*
X0096882Y011185D01*
X0096877Y0111847D01*
X0096873Y0111846D01*
X0096871Y0111844D01*
X009687D01*
X0096846Y011183D01*
X0096826Y0111815D01*
X0096809Y0111801D01*
X0096794Y0111787D01*
X0096783Y0111775D01*
X0096774Y0111765D01*
X0096769Y011176D01*
X0096767Y0111757D01*
X0096762Y0111778D01*
X0096753Y0111794D01*
X0096744Y0111811D01*
X0096735Y0111823D01*
X0096726Y0111833D01*
X0096719Y0111841D01*
X0096713Y0111846D01*
X0096712Y0111847D01*
X0096695Y0111858D01*
X0096676Y0111866D01*
X0096655Y0111872D01*
X0096636Y0111876D01*
X0096619Y0111879D01*
X0096604Y011188D01*
X0096591D01*
X009657Y0111879D01*
X0096548Y0111876D01*
X0096529Y0111871D01*
X0096508Y0111865D01*
X0096472Y0111848D01*
X0096439Y011183D01*
X0096423Y0111821D01*
X0096411Y0111812D01*
X00964Y0111804D01*
X009639Y0111796D01*
X0096382Y011179D01*
X0096376Y0111785D01*
X0096373Y0111782D01*
X0096372Y011178D01*
X0096389Y0111865D01*
X0096213D01*
X0096067Y0111169D01*
X0096665D01*
X0096731Y0111484D01*
X0096737Y0111509D01*
X0096742Y0111531D01*
X0096748Y0111552D01*
X0096755Y011157D01*
X009676Y0111586D01*
X0096766Y0111602D01*
X0096771Y0111615D01*
X0096777Y0111628D01*
X0096781Y0111638D01*
X0096787Y0111647D01*
X0096791Y0111654D01*
X0096794Y0111661D01*
X0096796Y0111665D01*
X0096799Y0111668D01*
X0096801Y0111671D01*
X0096812Y0111685D01*
X0096821Y0111696D01*
X0096832Y0111706D01*
X0096844Y0111714D01*
X0096866Y0111728D01*
X0096885Y0111736D01*
X0096902Y0111742D01*
X0096916Y0111744D01*
X0096921Y0111746D01*
X0096928D01*
X0096941Y0111744D01*
X009695Y0111743D01*
X009696Y011174D01*
X0096967Y0111737D01*
X0096973Y0111733D01*
X0096977Y011173D01*
X0096978Y0111729D01*
X0096979Y0111728D01*
X0096985Y0111721D01*
X0096991Y0111714D01*
X0096995Y0111699D01*
X0096996Y0111692D01*
X0096998Y0111687D01*
Y0111683D01*
Y0111682D01*
Y0111679D01*
Y0111675D01*
X0096995Y0111664D01*
X0096992Y0111649D01*
X0096989Y0111633D01*
X0096986Y0111618D01*
X0096984Y0111604D01*
X0096982Y0111599D01*
Y0111596D01*
X0096981Y0111593D01*
Y0111592D01*
X0096891Y0111169D01*
X0096668D01*
X0097188D01*
X0097077D01*
X0097168Y0111592D01*
X0097175Y0111622D01*
X0097179Y0111649D01*
X0097183Y0111671D01*
X0097185Y0111687D01*
X0097186Y01117D01*
X0097188Y011171D01*
Y0111717D01*
X0097186Y0111743D01*
X0097181Y0111767D01*
X0097172Y0111786D01*
X0097164Y0111803D01*
X0097156Y0111816D01*
X0097147Y0111826D01*
X0097142Y0111833D01*
X009714Y0111834D01*
X0097122Y011185D01*
X0097102Y0111861D01*
X0097079Y0111869D01*
X0097059Y0111875D01*
X0097041Y0111877D01*
X0097025Y011188D01*
D02*
G37*
G36*
X0095762D02*
X0095749D01*
X0095708Y0111877D01*
X0095669Y0111871D01*
X0095634Y0111862D01*
X0095604Y0111851D01*
X009559Y0111846D01*
X0095577Y011184D01*
X0095568Y0111836D01*
X0095558Y0111832D01*
X0095551Y0111828D01*
X0095546Y0111825D01*
X0095543Y0111823D01*
X0095541Y0111822D01*
X0095508Y0111798D01*
X0095479Y0111772D01*
X0095455Y0111746D01*
X0095436Y0111721D01*
X0095419Y0111697D01*
X0095414Y0111687D01*
X0095408Y0111679D01*
X0095405Y0111672D01*
X0095403Y0111667D01*
X00954Y0111664D01*
Y0111663D01*
X0095385Y0111624D01*
X0095372Y0111586D01*
X0095364Y011155D01*
X0095358Y0111517D01*
X0095357Y0111502D01*
X0095355Y0111489D01*
X0095354Y0111477D01*
Y0111467D01*
X0095353Y0111459D01*
D01*
Y0111151D01*
Y0111448D01*
X0095354Y0111423D01*
X0095355Y0111399D01*
X009536Y0111375D01*
X0095365Y0111355D01*
X0095371Y0111335D01*
X0095378Y0111317D01*
X0095385Y0111302D01*
X0095392Y0111287D01*
X0095398Y0111274D01*
X0095405Y0111262D01*
X0095412Y0111252D01*
X0095418Y0111245D01*
X0095423Y0111238D01*
X0095428Y0111234D01*
X0095429Y0111231D01*
X009543Y011123D01*
X0095446Y0111216D01*
X0095462Y0111203D01*
X0095479Y0111194D01*
X0095496Y0111184D01*
X0095514Y0111177D01*
X0095532Y011117D01*
X0095565Y011116D01*
X009558Y0111158D01*
X0095595Y0111155D01*
X0095608Y0111154D01*
X0095619Y0111152D01*
X0095629Y0111151D01*
X0095353D01*
X0095641D01*
X0095663Y0111152D01*
X0095684Y0111154D01*
X0095723Y011116D01*
X0095758Y011117D01*
X0095788Y0111183D01*
X0095801Y0111188D01*
X0095812Y0111194D01*
X0095823Y0111199D01*
X0095831Y0111203D01*
X0095838Y0111208D01*
X0095842Y011121D01*
X0095845Y0111213D01*
X0095846D01*
X0095878Y011124D01*
X0095905Y0111269D01*
X0095928Y0111299D01*
X0095948Y011133D01*
X0095962Y0111356D01*
X0095967Y0111367D01*
X0095973Y0111378D01*
X0095977Y0111387D01*
X0095978Y0111392D01*
X0095981Y0111396D01*
Y0111398D01*
X0095798Y0111428D01*
X0095788Y0111405D01*
X0095777Y0111385D01*
X0095766Y0111369D01*
X0095756Y0111355D01*
X0095747Y0111344D01*
X0095738Y0111337D01*
X0095733Y0111331D01*
X0095731Y011133D01*
X0095716Y0111319D01*
X0095701Y0111312D01*
X0095686Y0111306D01*
X0095673Y0111302D01*
X0095662Y0111299D01*
X0095654Y0111298D01*
X0095645D01*
X0095629Y0111299D01*
X0095615Y0111303D01*
X0095601Y0111309D01*
X009559Y0111314D01*
X0095582Y011132D01*
X0095575Y0111326D01*
X009557Y011133D01*
X0095569Y0111331D01*
X0095559Y0111345D01*
X0095552Y011136D01*
X0095547Y0111375D01*
X0095544Y0111391D01*
X0095541Y0111405D01*
X009554Y0111416D01*
Y0111423D01*
Y0111425D01*
X0095541Y0111453D01*
X0095544Y0111479D01*
X0095548Y0111506D01*
X0095552Y0111529D01*
X0095557Y0111549D01*
X0095561Y0111564D01*
X0095562Y011157D01*
X0095564Y0111574D01*
X0095565Y0111577D01*
Y0111578D01*
X0095575Y0111607D01*
X0095587Y0111632D01*
X0095598Y0111653D01*
X0095611Y0111669D01*
X009562Y0111683D01*
X0095629Y0111693D01*
X0095636Y0111699D01*
X0095637Y01117D01*
X0095655Y0111714D01*
X0095673Y0111724D01*
X009569Y0111732D01*
X0095705Y0111736D01*
X0095719Y0111739D01*
X0095729Y0111742D01*
X0095738D01*
X0095755Y011174D01*
X009577Y0111737D01*
X0095783Y0111732D01*
X0095794Y0111728D01*
X0095803Y0111722D01*
X0095809Y0111717D01*
X0095813Y0111714D01*
X0095815Y0111712D01*
X0095824Y0111701D01*
X0095833Y0111687D01*
X0095838Y0111674D01*
X0095844Y011166D01*
X0095846Y0111646D01*
X0095849Y0111636D01*
X0095851Y0111629D01*
Y0111626D01*
X009603Y0111644D01*
X0096027Y0111664D01*
X0096023Y0111682D01*
X0096013Y0111715D01*
X0095999Y0111744D01*
X0095984Y0111769D01*
X009597Y0111789D01*
X0095957Y0111804D01*
X0095953Y0111808D01*
X0095949Y0111812D01*
X0095948Y0111814D01*
X0095946Y0111815D01*
X0095932Y0111826D01*
X0095917Y0111837D01*
X0095884Y0111853D01*
X0095852Y0111865D01*
X009582Y0111872D01*
X0095792Y0111877D01*
X009578Y0111879D01*
X009577D01*
X0095762Y011188D01*
D02*
G37*
G36*
X0095281Y0111606D02*
X0094916D01*
X009488Y0111424D01*
X0095245D01*
X0095281Y0111606D01*
D02*
G37*
G36*
X0098447Y0112134D02*
X0098434D01*
X0098412Y0112133D01*
X009839Y0112131D01*
X0098351Y0112123D01*
X0098316Y0112112D01*
X0098301Y0112105D01*
X0098287Y0112098D01*
X0098273Y0112091D01*
X0098262Y0112084D01*
X0098253Y0112079D01*
X0098246Y0112073D01*
X0098239Y0112069D01*
X0098235Y0112065D01*
X0098232Y0112063D01*
X009823Y0112062D01*
X0098217Y0112048D01*
X0098203Y0112033D01*
X009818Y0112001D01*
X0098162Y0111966D01*
X0098149Y0111933D01*
X0098143Y0111918D01*
X0098139Y0111904D01*
X0098136Y0111891D01*
X0098132Y011188D01*
X0098131Y0111871D01*
X0098129Y0111864D01*
X0098128Y0111859D01*
Y0111858D01*
X0098311Y0111832D01*
X0098318Y0111862D01*
X0098326Y0111887D01*
X0098334Y0111908D01*
X0098343Y0111925D01*
X009835Y0111937D01*
X0098355Y0111945D01*
X0098359Y0111951D01*
X0098361Y0111952D01*
X0098373Y0111963D01*
X0098387Y0111972D01*
X00984Y0111979D01*
X0098412Y0111983D01*
X0098423Y0111986D01*
X0098432Y0111987D01*
X0098438D01*
X0098454Y0111986D01*
X0098468Y0111983D01*
X009848Y0111977D01*
X0098491Y0111972D01*
X0098499Y0111966D01*
X0098505Y0111961D01*
X0098509Y0111958D01*
X0098511Y0111957D01*
X009852Y0111944D01*
X0098527Y0111932D01*
X0098533Y0111918D01*
X0098536Y0111905D01*
X0098538Y0111894D01*
X009854Y0111886D01*
Y011188D01*
Y0111877D01*
X0098538Y0111866D01*
X0098537Y0111854D01*
X0098534Y0111843D01*
X0098531Y0111832D01*
X0098527Y0111823D01*
X0098524Y0111816D01*
X0098523Y0111811D01*
X0098522Y011181D01*
X0098515Y0111796D01*
X0098505Y011178D01*
X0098495Y0111765D01*
X0098484Y0111751D01*
X0098475Y0111739D01*
X0098466Y0111729D01*
X0098461Y0111724D01*
X0098459Y0111721D01*
X0098454Y0111715D01*
X0098447Y0111708D01*
X009843Y011169D01*
X0098409Y0111671D01*
X0098389Y011165D01*
X0098369Y0111631D01*
X0098352Y0111615D01*
X0098347Y0111608D01*
X0098341Y0111604D01*
X0098339Y0111602D01*
X0098337Y01116D01*
X0098314Y0111578D01*
X0098293Y0111557D01*
X0098273Y0111538D01*
X0098255Y011152D01*
X0098239Y0111504D01*
X0098225Y0111489D01*
X0098211Y0111477D01*
X00982Y0111464D01*
X009819Y0111454D01*
X0098182Y0111445D01*
X0098175Y0111438D01*
X0098169Y0111432D01*
X0098162Y0111424D01*
X009816Y0111421D01*
X0098143Y01114D01*
X0098128Y011138D01*
X0098114Y011136D01*
X0098101Y0111342D01*
X0098092Y0111327D01*
X0098085Y0111314D01*
X0098081Y0111306D01*
X0098079Y0111305D01*
Y0111303D01*
X0098068Y011128D01*
X009806Y0111255D01*
X0098053Y0111233D01*
X0098047Y0111212D01*
X0098043Y0111195D01*
X009804Y0111181D01*
Y0111176D01*
X0098039Y0111172D01*
Y0111169D01*
X0098723D01*
X0098622D01*
X0098658Y0111341D01*
X0098325D01*
X0098344Y0111364D01*
X0098352Y0111375D01*
X0098361Y0111385D01*
X0098368Y0111392D01*
X0098373Y0111398D01*
X0098376Y0111402D01*
X0098377Y0111403D01*
X0098391Y0111417D01*
X0098408Y0111434D01*
X0098427Y0111452D01*
X0098447Y011147D01*
X0098465Y0111488D01*
X009848Y0111502D01*
X0098486Y0111507D01*
X009849Y011151D01*
X0098493Y0111513D01*
X0098494Y0111514D01*
X0098524Y0111543D01*
X0098551Y0111568D01*
X0098573Y011159D01*
X0098591Y0111608D01*
X0098605Y0111622D01*
X0098615Y0111632D01*
X009862Y0111639D01*
X0098622Y011164D01*
X0098641Y0111664D01*
X0098656Y0111686D01*
X009867Y0111707D01*
X0098681Y0111725D01*
X0098689Y011174D01*
X0098695Y0111751D01*
X0098698Y0111758D01*
X0098699Y0111761D01*
X0098707Y0111783D01*
X0098713Y0111804D01*
X0098717Y0111823D01*
X009872Y011184D01*
X0098721Y0111855D01*
X0098723Y0111866D01*
Y0111876D01*
X0098721Y0111897D01*
X009872Y0111916D01*
X009871Y0111952D01*
X0098698Y0111984D01*
X0098684Y0112011D01*
X0098677Y0112022D01*
X009867Y0112031D01*
X0098663Y011204D01*
X0098658Y0112048D01*
X0098652Y0112054D01*
X0098648Y0112058D01*
X0098646Y0112059D01*
X0098645Y0112061D01*
X009863Y0112073D01*
X0098615Y0112086D01*
X0098598Y0112095D01*
X009858Y0112104D01*
X0098545Y0112116D01*
X0098511Y0112124D01*
X0098495Y0112129D01*
X0098481Y011213D01*
X0098468Y0112131D01*
X0098456Y0112133D01*
X0098447Y0112134D01*
D02*
G37*
G36*
X0094835Y0111865D02*
X0094203D01*
X0094057Y0111169D01*
D01*
X0094482D01*
X0094243D01*
X0094358Y0111718D01*
X0094616D01*
X0094503Y0111169D01*
X0094688D01*
X0094835Y0111865D01*
D02*
G37*
G36*
X009402D02*
X0093425D01*
X0093343Y0111477D01*
X0093339Y0111459D01*
X0093335Y0111443D01*
X0093332Y0111428D01*
X0093328Y0111416D01*
X0093321Y0111393D01*
X0093315Y0111375D01*
X009331Y0111363D01*
X0093306Y0111355D01*
X0093304Y0111349D01*
X0093303Y0111348D01*
X0093295Y0111338D01*
X0093284Y011133D01*
X0093272Y0111324D01*
X0093261Y0111321D01*
X0093252Y0111319D01*
X0093243Y0111317D01*
X0093235D01*
X0093211Y0111319D01*
X00932Y011132D01*
X0093189Y0111321D01*
X0093181Y0111323D01*
X0093174Y0111324D01*
D01*
X0093168Y0111326D01*
X0093167D01*
X0093143Y0111198D01*
X0093138Y0111169D01*
X0093164Y0111163D01*
X0093186Y011116D01*
X0093207Y0111158D01*
X0093225Y0111155D01*
X0093239D01*
X0093249Y0111154D01*
X0093138D01*
D01*
X009402D01*
D01*
X0093257D01*
X0093292Y0111155D01*
X0093322Y011116D01*
X0093349Y0111167D01*
X0093371Y0111177D01*
X0093388Y0111185D01*
X00934Y0111192D01*
X0093407Y0111198D01*
X009341Y0111199D01*
X0093419Y0111209D01*
X0093429Y0111219D01*
X0093446Y0111242D01*
X0093458Y0111267D01*
X0093469Y0111292D01*
X0093478Y0111314D01*
X009348Y0111324D01*
X0093483Y0111334D01*
X0093485Y0111341D01*
X0093486Y0111346D01*
X0093487Y0111349D01*
Y011135D01*
X0093565Y0111718D01*
X0093801D01*
X0093687Y0111169D01*
X0093873D01*
X009402Y0111865D01*
D02*
G37*
G36*
X0093181D02*
X0092403D01*
X0092549D01*
X0092403Y0111169D01*
X0092689D01*
X0092589D01*
X0092704Y0111718D01*
X0092962D01*
X0092848Y0111169D01*
X0093034D01*
X0093181Y0111865D01*
D02*
G37*
G36*
X009951Y0112129D02*
X0098752D01*
D01*
X0098953D01*
X0098752Y0111169D01*
X0098921D01*
X0098945Y0111281D01*
X0098959Y0111258D01*
X0098975Y0111238D01*
X0098992Y011122D01*
X0099008Y0111206D01*
X0099028Y0111194D01*
X0099046Y0111183D01*
X0099064Y0111174D01*
X0099082Y0111167D01*
X0099099Y0111162D01*
X0099114Y0111158D01*
X0099128Y0111155D01*
X009914Y0111154D01*
X0099151Y0111152D01*
X0099158Y0111151D01*
X0099165D01*
X0099189Y0111152D01*
X009921Y0111155D01*
X009923Y0111159D01*
X0099248Y0111165D01*
X0099264Y0111169D01*
X0099275Y0111173D01*
X0099282Y0111176D01*
X0099284Y0111177D01*
X0099307Y0111188D01*
X0099326Y0111202D01*
X0099345Y0111216D01*
X0099362Y011123D01*
X0099376Y0111241D01*
X0099386Y0111251D01*
X0099393Y0111258D01*
X0099395Y011126D01*
X0099415Y0111283D01*
X009943Y0111307D01*
X0099445Y0111331D01*
X0099456Y0111355D01*
X0099466Y0111375D01*
X0099473Y0111391D01*
X0099476Y0111398D01*
X0099477Y0111402D01*
X0099479Y0111405D01*
Y0111406D01*
X009949Y0111439D01*
X0099497Y0111473D01*
X0099502Y0111504D01*
X0099506Y0111532D01*
X0099509Y0111556D01*
Y0111565D01*
X009951Y0111574D01*
Y011159D01*
X0099509Y0111617D01*
X0099508Y011164D01*
X0099505Y0111663D01*
X0099501Y0111683D01*
X0099495Y0111703D01*
X009949Y0111721D01*
X0099484Y0111736D01*
X0099477Y0111751D01*
X0099472Y0111764D01*
X0099465Y0111775D01*
X0099459Y0111785D01*
X0099455Y0111791D01*
X0099449Y0111797D01*
X0099447Y0111803D01*
X0099445Y0111804D01*
X0099444Y0111805D01*
X0099431Y0111819D01*
X0099418Y011183D01*
X0099402Y011184D01*
X0099388Y0111848D01*
X0099358Y0111862D01*
X009933Y0111871D01*
X0099305Y0111876D01*
X0099294Y0111877D01*
X0099284Y0111879D01*
X0099277Y011188D01*
X0099266D01*
X0099247Y0111879D01*
X0099228Y0111877D01*
X0099211Y0111875D01*
X0099196Y0111872D01*
X0099185Y0111868D01*
X0099175Y0111865D01*
X0099169Y0111864D01*
X0099167Y0111862D01*
X009915Y0111855D01*
X0099133Y0111847D01*
X0099117Y0111837D01*
X0099103Y0111829D01*
X0099089Y0111821D01*
X0099079Y0111814D01*
X0099074Y0111808D01*
X0099071Y0111807D01*
X0099139Y0112129D01*
X009951D01*
D02*
G37*
G36*
X0097964Y0111169D02*
Y0111023D01*
X0097199D01*
Y0111169D01*
Y0110904D01*
X0097964D01*
Y0111169D01*
D02*
G37*
%LPD*%
G36*
X0096523Y0111744D02*
X0096533Y0111743D01*
X0096541Y011174D01*
X009655Y0111737D01*
X0096555Y0111733D01*
X0096559Y011173D01*
X0096561Y0111729D01*
X0096562Y0111728D01*
X0096569Y0111721D01*
X0096573Y0111712D01*
X0096579Y0111699D01*
X009658Y0111692D01*
X0096581Y0111686D01*
Y0111683D01*
Y0111682D01*
Y0111672D01*
X0096579Y0111658D01*
X0096577Y0111643D01*
X0096575Y0111626D01*
X0096572Y0111613D01*
X0096569Y01116D01*
X0096568Y011159D01*
X0096566Y0111589D01*
Y0111588D01*
X0096479Y0111169D01*
X0096253D01*
X0096319Y0111488D01*
X0096324Y0111503D01*
X0096326Y0111517D01*
X0096332Y0111539D01*
X0096337Y0111559D01*
X009634Y0111572D01*
X0096343Y0111582D01*
X0096346Y0111589D01*
X0096347Y0111593D01*
Y0111595D01*
X0096354Y0111613D01*
X0096361Y0111628D01*
X0096368Y0111643D01*
X0096375Y0111654D01*
X009638Y0111664D01*
X0096385Y0111671D01*
X0096387Y0111675D01*
X0096389Y0111676D01*
X0096398Y0111687D01*
X0096408Y0111697D01*
X0096418Y0111707D01*
X0096428Y0111714D01*
X0096434Y0111719D01*
X0096441Y0111724D01*
X0096446Y0111725D01*
X0096447Y0111726D01*
X0096459Y0111733D01*
X0096471Y0111737D01*
X0096482Y0111742D01*
X0096491Y0111743D01*
X00965Y0111744D01*
X0096505Y0111746D01*
X0096511D01*
X0096523Y0111744D01*
D02*
G37*
G36*
X0099216D02*
X0099234Y0111739D01*
X009925Y0111732D01*
X0099264Y0111725D01*
X0099275Y0111717D01*
X0099283Y011171D01*
X0099289Y0111704D01*
X009929Y0111703D01*
X0099302Y0111686D01*
X0099312Y0111667D01*
X0099319Y0111647D01*
X0099325Y0111628D01*
X0099327Y0111611D01*
X0099329Y0111599D01*
Y0111593D01*
Y0111589D01*
Y0111588D01*
Y0111586D01*
X0099327Y0111559D01*
X0099325Y0111531D01*
X0099319Y0111504D01*
X0099315Y0111482D01*
X0099309Y0111463D01*
X0099304Y0111448D01*
X0099302Y0111442D01*
X0099301Y0111438D01*
X00993Y0111436D01*
Y0111435D01*
X0099289Y0111409D01*
X0099276Y0111387D01*
X0099264Y0111367D01*
X0099253Y0111352D01*
X0099243Y0111341D01*
X0099234Y0111332D01*
X0099229Y0111327D01*
X0099228Y0111326D01*
X0099211Y0111314D01*
X0099196Y0111306D01*
X009918Y0111301D01*
X0099167Y0111296D01*
X0099154Y0111294D01*
X0099146Y0111292D01*
X0099137D01*
X0099118Y0111294D01*
X00991Y0111299D01*
X0099083Y0111306D01*
X0099069Y0111314D01*
X0099058Y0111321D01*
X009905Y0111328D01*
X0099045Y0111334D01*
X0099043Y0111335D01*
X0099031Y0111353D01*
X0099021Y0111373D01*
X0099014Y0111391D01*
X009901Y011141D01*
X0099007Y0111425D01*
X0099004Y0111439D01*
Y0111448D01*
Y0111449D01*
Y011145D01*
X0099006Y0111475D01*
X0099007Y01115D01*
X0099015Y0111545D01*
X0099021Y0111565D01*
X0099026Y0111583D01*
X0099032Y0111602D01*
X0099039Y0111617D01*
X0099046Y0111631D01*
X0099051Y0111643D01*
X0099057Y0111654D01*
X0099063Y0111663D01*
X0099067Y0111669D01*
X0099071Y0111675D01*
X0099072Y0111678D01*
X0099074Y0111679D01*
X0099083Y011169D01*
X0099093Y0111701D01*
X0099115Y0111718D01*
X0099135Y0111729D01*
X0099154Y0111737D01*
X0099172Y0111743D01*
X0099185Y0111744D01*
X009919Y0111746D01*
X0099197D01*
X0099216Y0111744D01*
D02*
G37*
D10*
X0102512Y0096819D02*
G03*
X0102512Y0096819I-00012J0D01*
G01*
X0089787Y0094869D02*
G03*
X0089787Y0094869I-0000075J0D01*
G01*
D11*
X0106887Y0098969D02*
G03*
X0106887Y0098969I-0000125J0D01*
G01*
X0102987D02*
G03*
X0102987Y0098969I-0000125J0D01*
G01*
X0099537Y0107719D02*
G03*
X0099537Y0107719I-0000125J0D01*
G01*
X0085337Y0097019D02*
G03*
X0085337Y0097019I-0000125J0D01*
G01*
X0086337Y0102269D02*
G03*
X0086337Y0102269I-0000125J0D01*
G01*
D12*
X0093912Y0098669D02*
Y0098869D01*
X0093312Y0098669D02*
Y0098869D01*
X0105186Y0107922D02*
X0105386D01*
X0105186Y0108522D02*
X0105386D01*
X0101112Y0109669D02*
X0101312D01*
X0101112Y0110269D02*
X0101312D01*
X0104861Y0106069D02*
Y0106269D01*
X0104261Y0106069D02*
Y0106269D01*
X0102412Y0099269D02*
Y0099469D01*
X0101812Y0099269D02*
Y0099469D01*
X0097312Y0097969D02*
Y0098169D01*
X0097912Y0097969D02*
Y0098169D01*
X0100312Y0099569D02*
Y0099769D01*
X0099712Y0099569D02*
Y0099769D01*
X0081712Y0108569D02*
Y0111569D01*
X0083112D01*
Y0108569D02*
Y0111569D01*
X0081712Y0108569D02*
X0083112D01*
X0088812D02*
Y0111569D01*
X0090212D01*
Y0108569D02*
Y0111569D01*
X0088812Y0108569D02*
X0090212D01*
X0087512Y0104469D02*
Y0108469D01*
X0085812Y0104469D02*
X0090312D01*
Y0105069D01*
X0085812Y0104469D02*
Y0105069D01*
Y0107869D02*
Y0108469D01*
X0090312Y0107869D02*
Y0108469D01*
X0085812D02*
X0090312D01*
X0099487Y0103658D02*
X0099687D01*
X0099487Y0103058D02*
X0099687D01*
X0104831D02*
X0105031D01*
X0104831Y0103658D02*
X0105031D01*
X0089712Y0091169D02*
X0089912D01*
X0089712Y0091769D02*
X0089912D01*
X0112712Y0102669D02*
Y0102869D01*
X0112112Y0102669D02*
Y0102869D01*
X0088487Y0094094D02*
X0091137D01*
X0088487Y0092844D02*
X0091137D01*
X0088487D02*
Y0094094D01*
X0091137Y0092844D02*
Y0094094D01*
X0081212Y0092769D02*
Y0092969D01*
X0081812Y0092769D02*
Y0092969D01*
X0100412Y0108869D02*
X0100612D01*
X0100412Y0108269D02*
X0100612D01*
X0101112Y0110969D02*
X0101312D01*
X0101112Y0111569D02*
X0101312D01*
D13*
X0105712Y0106331D02*
X0106312D01*
X0105712Y0105931D02*
X0106312D01*
X0098712Y0097469D02*
X0099312D01*
X0098712Y0097069D02*
X0099312D01*
X0110012Y0103269D02*
Y0103869D01*
X0110412Y0103269D02*
Y0103869D01*
X0107112Y0100619D02*
X0110112D01*
X0107112Y0099919D02*
X0110112D01*
Y0100619D01*
X0107112Y0099919D02*
Y0100619D01*
X0103212D02*
X0106212D01*
X0103212Y0099919D02*
X0106212D01*
Y0100619D01*
X0103212Y0099919D02*
Y0100619D01*
X0100362Y0107369D02*
X0101062D01*
X0100362Y0104369D02*
X0101062D01*
X0100362D02*
Y0107369D01*
X0101062Y0104369D02*
Y0107369D01*
X0105812Y0096769D02*
Y0097369D01*
X0106212Y0096769D02*
Y0097369D01*
X0101412Y0102269D02*
X0102012D01*
X0101412Y0102669D02*
X0102012D01*
X0098328Y0099744D02*
Y0100944D01*
X0099278Y0099744D02*
Y0100944D01*
X0098378Y0101544D02*
X0099253D01*
X0107712Y0105069D02*
X0108312D01*
X0107712Y0104669D02*
X0108312D01*
X0109212Y0096769D02*
Y0097369D01*
X0108812Y0096769D02*
Y0097369D01*
X0082762Y0095869D02*
X0084862D01*
X0082762Y0096269D02*
X0084862D01*
X0082762Y0095869D02*
Y0096269D01*
X0084862Y0095869D02*
Y0096269D01*
X0087112Y0095869D02*
X0087712D01*
X0087112Y0096269D02*
X0087712D01*
X0086962Y0102819D02*
Y0103319D01*
X0087462D01*
X0091562D02*
X0092062D01*
Y0102819D02*
Y0103319D01*
Y0098219D02*
Y0098719D01*
X0091562Y0098219D02*
X0092062D01*
X0086962D02*
X0087462D01*
X0086962D02*
Y0098719D01*
X0081212Y0095669D02*
X0081812D01*
X0081212Y0096069D02*
X0081812D01*
X0085612D02*
X0086212D01*
X0085612Y0095669D02*
X0086212D01*
X0083403Y0100711D02*
X0084003D01*
X0083403Y0100311D02*
X0084003D01*
X0084938Y0100711D02*
X0085538D01*
X0084938Y0100311D02*
X0085538D01*
X0100362Y0094469D02*
Y0094869D01*
X0100562Y0095069D01*
X0100762Y0094869D01*
Y0094469D01*
Y0094769D01*
X0100362D01*
X0100962Y0095069D02*
X0101162D01*
X0101062D01*
Y0094469D01*
X0100962D01*
X0101162D01*
X0101462D02*
Y0095069D01*
X0101862Y0094469D01*
Y0095069D01*
X0102062Y0094469D02*
X0102261D01*
X0102162D01*
Y0095069D01*
X0102062Y0094969D01*
X0091612Y0093769D02*
Y0093169D01*
X0092012D01*
X0092212D02*
X0092412D01*
X0092312D01*
Y0093769D01*
X0092212Y0093669D01*
X0090712Y010978D02*
Y010938D01*
X0091012D01*
Y010958D01*
Y010938D01*
X0091312D01*
X0090712Y010998D02*
X0091212D01*
X0091312Y011008D01*
Y011028D01*
X0091212Y011038D01*
X0090712D01*
X0091312Y011098D02*
Y011058D01*
X0090912Y011098D01*
X0090812D01*
X0090712Y011088D01*
Y011068D01*
X0090812Y011058D01*
X0080575Y010988D02*
Y010948D01*
X0080875D01*
Y010968D01*
Y010948D01*
X0081175D01*
X0080575Y011008D02*
X0081075D01*
X0081175Y011018D01*
Y011038D01*
X0081075Y011048D01*
X0080575D01*
X0081175Y011068D02*
Y011088D01*
Y011078D01*
X0080575D01*
X0080675Y011068D01*
X0091512Y0106751D02*
Y0106351D01*
X0091712Y0106151D01*
X0091912Y0106351D01*
Y0106751D01*
X0092112D02*
Y0106151D01*
X0092412D01*
X0092512Y0106251D01*
Y0106651D01*
X0092412Y0106751D01*
X0092112D01*
X0092712Y0106651D02*
X0092812Y0106751D01*
X0093012D01*
X0093112Y0106651D01*
Y0106551D01*
X0093012Y0106451D01*
X0092912D01*
X0093012D01*
X0093112Y0106351D01*
Y0106251D01*
X0093012Y0106151D01*
X0092812D01*
X0092712Y0106251D01*
X0090112Y0095369D02*
X0090712D01*
Y0095669D01*
X0090612Y0095769D01*
X0090512D01*
X0090412Y0095669D01*
Y0095369D01*
Y0095669D01*
X0090312Y0095769D01*
X0090212D01*
X0090112Y0095669D01*
Y0095369D01*
X0090612Y0096368D02*
X0090212D01*
X0090112Y0096269D01*
Y0096069D01*
X0090212Y0095969D01*
X0090612D01*
X0090712Y0096069D01*
Y0096269D01*
X0090512Y0096169D02*
X0090712Y0096368D01*
Y0096269D02*
X0090612Y0096368D01*
X0090712Y0096568D02*
Y0096768D01*
Y0096668D01*
X0090112D01*
X0090212Y0096568D01*
X0103112Y0098181D02*
Y0097581D01*
X0103412D01*
X0103512Y0097681D01*
Y0098081D01*
X0103412Y0098181D01*
X0103112D01*
X0103712Y0097581D02*
Y0097981D01*
X0103912Y0098181D01*
X0104111Y0097981D01*
Y0097581D01*
Y0097881D01*
X0103712D01*
X0104311Y0098081D02*
X0104411Y0098181D01*
X0104611D01*
X0104711Y0098081D01*
Y0097981D01*
X0104611Y0097881D01*
X0104511D01*
X0104611D01*
X0104711Y0097781D01*
Y0097681D01*
X0104611Y0097581D01*
X0104411D01*
X0104311Y0097681D01*
X0082512Y0098469D02*
Y0097869D01*
X0082812D01*
X0082912Y0097969D01*
Y0098369D01*
X0082812Y0098469D01*
X0082512D01*
X0083112Y0097869D02*
Y0098269D01*
X0083312Y0098469D01*
X0083511Y0098269D01*
Y0097869D01*
Y0098169D01*
X0083112D01*
X0084111Y0097869D02*
X0083711D01*
X0084111Y0098269D01*
Y0098369D01*
X0084011Y0098469D01*
X0083811D01*
X0083711Y0098369D01*
X0110612Y0099684D02*
X0111212D01*
Y0099984D01*
X0111112Y0100084D01*
X0110712D01*
X0110612Y0099984D01*
Y0099684D01*
Y0100284D02*
X0111212D01*
Y0100584D01*
X0111112Y0100683D01*
X0110712D01*
X0110612Y0100584D01*
Y0100284D01*
X0111212Y0100883D02*
Y0101083D01*
Y0100983D01*
X0110612D01*
X0110712Y0100883D01*
X0092612Y0103669D02*
Y0103069D01*
X0092912D01*
X0093012Y0103169D01*
Y0103569D01*
X0092912Y0103669D01*
X0092612D01*
X0093212D02*
Y0103069D01*
X0093512D01*
X0093611Y0103169D01*
Y0103569D01*
X0093512Y0103669D01*
X0093212D01*
X0094211Y0103069D02*
X0093811D01*
X0094211Y0103469D01*
Y0103569D01*
X0094111Y0103669D01*
X0093911D01*
X0093811Y0103569D01*
X0108037Y0106905D02*
X0107937Y0107005D01*
X0107737D01*
X0107637Y0106905D01*
Y0106505D01*
X0107737Y0106405D01*
X0107937D01*
X0108037Y0106505D01*
X0108237Y0106405D02*
X0108437D01*
X0108337D01*
Y0107005D01*
X0108237Y0106905D01*
X0110162Y0102769D02*
X0110062Y0102869D01*
X0109862D01*
X0109762Y0102769D01*
Y0102369D01*
X0109862Y0102269D01*
X0110062D01*
X0110162Y0102369D01*
X0110761Y0102269D02*
X0110362D01*
X0110761Y0102669D01*
Y0102769D01*
X0110662Y0102869D01*
X0110462D01*
X0110362Y0102769D01*
X0080266Y0095869D02*
X0080166Y0095769D01*
Y0095569D01*
X0080266Y0095469D01*
X0080666D01*
X0080766Y0095569D01*
Y0095769D01*
X0080666Y0095869D01*
X0080266Y0096069D02*
X0080166Y0096169D01*
Y0096369D01*
X0080266Y0096468D01*
X0080366D01*
X0080466Y0096369D01*
Y0096269D01*
Y0096369D01*
X0080566Y0096468D01*
X0080666D01*
X0080766Y0096369D01*
Y0096169D01*
X0080666Y0096069D01*
X0098912Y0095619D02*
X0098812Y0095719D01*
X0098612D01*
X0098512Y0095619D01*
Y0095219D01*
X0098612Y0095119D01*
X0098812D01*
X0098912Y0095219D01*
X0099412Y0095119D02*
Y0095719D01*
X0099112Y0095419D01*
X0099511D01*
X0108972Y0096293D02*
X0108872Y0096393D01*
X0108672D01*
X0108572Y0096293D01*
Y0095893D01*
X0108672Y0095793D01*
X0108872D01*
X0108972Y0095893D01*
X0109571Y0096393D02*
X0109172D01*
Y0096093D01*
X0109372Y0096193D01*
X0109472D01*
X0109571Y0096093D01*
Y0095893D01*
X0109472Y0095793D01*
X0109272D01*
X0109172Y0095893D01*
X010249Y0102425D02*
X010239Y0102325D01*
Y0102125D01*
X010249Y0102025D01*
X010289D01*
X010299Y0102125D01*
Y0102325D01*
X010289Y0102425D01*
X010239Y0103024D02*
X010249Y0102824D01*
X010269Y0102624D01*
X010289D01*
X010299Y0102724D01*
Y0102924D01*
X010289Y0103024D01*
X010279D01*
X010269Y0102924D01*
Y0102624D01*
X0106012Y0096319D02*
X0105912Y0096419D01*
X0105712D01*
X0105612Y0096319D01*
Y0095919D01*
X0105712Y0095819D01*
X0105912D01*
X0106012Y0095919D01*
X0106212Y0096419D02*
X0106611D01*
Y0096319D01*
X0106212Y0095919D01*
Y0095819D01*
X0085912Y0097969D02*
X0085812Y0098069D01*
X0085612D01*
X0085512Y0097969D01*
Y0097569D01*
X0085612Y0097469D01*
X0085812D01*
X0085912Y0097569D01*
X0086112D02*
X0086212Y0097469D01*
X0086412D01*
X0086511Y0097569D01*
Y0097969D01*
X0086412Y0098069D01*
X0086212D01*
X0086112Y0097969D01*
Y0097869D01*
X0086212Y0097769D01*
X0086511D01*
X0085038Y0102411D02*
X0084938Y0102311D01*
Y0102111D01*
X0085038Y0102011D01*
X0085438D01*
X0085538Y0102111D01*
Y0102311D01*
X0085438Y0102411D01*
X0085538Y0102611D02*
Y0102811D01*
Y0102711D01*
X0084938D01*
X0085038Y0102611D01*
Y0103111D02*
X0084938Y010321D01*
Y010341D01*
X0085038Y010351D01*
X0085438D01*
X0085538Y010341D01*
Y010321D01*
X0085438Y0103111D01*
X0085038D01*
X0083503Y0102411D02*
X0083403Y0102311D01*
Y0102111D01*
X0083503Y0102011D01*
X0083903D01*
X0084003Y0102111D01*
Y0102311D01*
X0083903Y0102411D01*
X0084003Y0102611D02*
Y0102811D01*
Y0102711D01*
X0083403D01*
X0083503Y0102611D01*
X0084003Y0103111D02*
Y010331D01*
Y010321D01*
X0083403D01*
X0083503Y0103111D01*
X0080766Y0092569D02*
X0080166D01*
Y0092869D01*
X0080266Y0092969D01*
X0080466D01*
X0080566Y0092869D01*
Y0092569D01*
Y0092769D02*
X0080766Y0092969D01*
Y0093169D02*
Y0093369D01*
Y0093269D01*
X0080166D01*
X0080266Y0093169D01*
X0099612Y0101269D02*
Y0101869D01*
X0099912D01*
X0100012Y0101769D01*
Y0101569D01*
X0099912Y0101469D01*
X0099612D01*
X0099812D02*
X0100012Y0101269D01*
X0100611D02*
X0100212D01*
X0100611Y0101669D01*
Y0101769D01*
X0100512Y0101869D01*
X0100312D01*
X0100212Y0101769D01*
X0104512Y0104169D02*
Y0104769D01*
X0104812D01*
X0104912Y0104669D01*
Y0104469D01*
X0104812Y0104369D01*
X0104512D01*
X0104712D02*
X0104912Y0104169D01*
X0105112Y0104669D02*
X0105212Y0104769D01*
X0105412D01*
X0105511Y0104669D01*
Y0104569D01*
X0105412Y0104469D01*
X0105312D01*
X0105412D01*
X0105511Y0104369D01*
Y0104269D01*
X0105412Y0104169D01*
X0105212D01*
X0105112Y0104269D01*
X0101365Y0099044D02*
X0100766D01*
Y0099344D01*
X0100866Y0099444D01*
X0101065D01*
X0101165Y0099344D01*
Y0099044D01*
Y0099244D02*
X0101365Y0099444D01*
Y0099944D02*
X0100766D01*
X0101065Y0099644D01*
Y0100043D01*
X0096812Y0097569D02*
X0096212D01*
Y0097869D01*
X0096312Y0097969D01*
X0096512D01*
X0096612Y0097869D01*
Y0097569D01*
Y0097769D02*
X0096812Y0097969D01*
X0096212Y0098568D02*
X0096312Y0098369D01*
X0096512Y0098169D01*
X0096712D01*
X0096812Y0098269D01*
Y0098469D01*
X0096712Y0098568D01*
X0096612D01*
X0096512Y0098469D01*
Y0098169D01*
X0091512Y0091124D02*
Y0091724D01*
X0091812D01*
X0091912Y0091624D01*
Y0091424D01*
X0091812Y0091324D01*
X0091512D01*
X0091712D02*
X0091912Y0091124D01*
X0092112Y0091724D02*
X0092511D01*
Y0091624D01*
X0092112Y0091224D01*
Y0091124D01*
X0093231Y0100415D02*
Y0101015D01*
X0093531D01*
X0093631Y0100915D01*
Y0100715D01*
X0093531Y0100615D01*
X0093231D01*
X0093431D02*
X0093631Y0100415D01*
X0093831Y0100915D02*
X0093931Y0101015D01*
X0094131D01*
X0094231Y0100915D01*
Y0100815D01*
X0094131Y0100715D01*
X0094231Y0100615D01*
Y0100515D01*
X0094131Y0100415D01*
X0093931D01*
X0093831Y0100515D01*
Y0100615D01*
X0093931Y0100715D01*
X0093831Y0100815D01*
Y0100915D01*
X0093931Y0100715D02*
X0094131D01*
X0112712Y0099684D02*
X0112112D01*
Y0099984D01*
X0112212Y0100084D01*
X0112412D01*
X0112512Y0099984D01*
Y0099684D01*
Y0099884D02*
X0112712Y0100084D01*
Y0100284D02*
Y0100484D01*
Y0100384D01*
X0112112D01*
X0112212Y0100284D01*
X0112712Y0101183D02*
Y0100783D01*
X0112312Y0101183D01*
X0112212D01*
X0112112Y0101083D01*
Y0100883D01*
X0112212Y0100783D01*
X0097512Y0108269D02*
Y0108869D01*
X0097812D01*
X0097912Y0108769D01*
Y0108569D01*
X0097812Y0108469D01*
X0097512D01*
X0097712D02*
X0097912Y0108269D01*
X0098112D02*
X0098312D01*
X0098212D01*
Y0108869D01*
X0098112Y0108769D01*
X0098611D02*
X0098711Y0108869D01*
X0098911D01*
X0099011Y0108769D01*
Y0108669D01*
X0098911Y0108569D01*
X0098811D01*
X0098911D01*
X0099011Y0108469D01*
Y0108369D01*
X0098911Y0108269D01*
X0098711D01*
X0098611Y0108369D01*
X0096512Y0103069D02*
Y0103669D01*
X0096812D01*
X0096912Y0103569D01*
Y0103369D01*
X0096812Y0103269D01*
X0096512D01*
X0096712D02*
X0096912Y0103069D01*
X0097112D02*
X0097312D01*
X0097212D01*
Y0103669D01*
X0097112Y0103569D01*
X0097911Y0103069D02*
Y0103669D01*
X0097611Y0103369D01*
X0098011D01*
X010386Y0105456D02*
X0103261D01*
Y0105756D01*
X0103361Y0105856D01*
X0103561D01*
X010366Y0105756D01*
Y0105456D01*
Y0105656D02*
X010386Y0105856D01*
Y0106056D02*
Y0106256D01*
Y0106156D01*
X0103261D01*
X0103361Y0106056D01*
X0103261Y0106956D02*
X0103361Y0106756D01*
X0103561Y0106556D01*
X010376D01*
X010386Y0106656D01*
Y0106856D01*
X010376Y0106956D01*
X010366D01*
X0103561Y0106856D01*
Y0106556D01*
X0102281Y0107904D02*
Y0108504D01*
X0102581D01*
X0102681Y0108404D01*
Y0108204D01*
X0102581Y0108104D01*
X0102281D01*
X0102481D02*
X0102681Y0107904D01*
X0102881D02*
X0103081D01*
X0102981D01*
Y0108504D01*
X0102881Y0108404D01*
X0103381Y0108504D02*
X0103781D01*
Y0108404D01*
X0103381Y0108004D01*
Y0107904D01*
X0097487Y0109619D02*
Y0110219D01*
X0097787D01*
X0097887Y0110119D01*
Y0109919D01*
X0097787Y0109819D01*
X0097487D01*
X0097687D02*
X0097887Y0109619D01*
X0098087D02*
X0098287D01*
X0098187D01*
Y0110219D01*
X0098087Y0110119D01*
X0098586D02*
X0098686Y0110219D01*
X0098886D01*
X0098986Y0110119D01*
Y0110019D01*
X0098886Y0109919D01*
X0098986Y0109819D01*
Y0109719D01*
X0098886Y0109619D01*
X0098686D01*
X0098586Y0109719D01*
Y0109819D01*
X0098686Y0109919D01*
X0098586Y0110019D01*
Y0110119D01*
X0098686Y0109919D02*
X0098886D01*
X0097809Y0105169D02*
X0098409D01*
Y0105469D01*
X0098309Y0105569D01*
X0097909D01*
X0097809Y0105469D01*
Y0105169D01*
Y0105769D02*
X0098409D01*
Y0106069D01*
X0098309Y0106168D01*
X0097909D01*
X0097809Y0106069D01*
Y0105769D01*
X0098409Y0106668D02*
X0097809D01*
X0098109Y0106368D01*
Y0106768D01*
X0097412Y0099819D02*
X0097812D01*
X0098012Y0100019D01*
X0097812Y0100219D01*
X0097412D01*
Y0100419D02*
X0098012D01*
Y0100719D01*
X0097912Y0100818D01*
X0097512D01*
X0097412Y0100719D01*
Y0100419D01*
X0098012Y0101018D02*
Y0101218D01*
Y0101118D01*
X0097412D01*
X0097512Y0101018D01*
D14*
X0083872Y0112269D02*
X0087826Y0112269D01*
X0083872Y0108944D02*
Y0112269D01*
X0087826Y0108944D02*
Y0112269D01*
X0083872Y0108944D02*
X0087826D01*
X0089337Y0096919D02*
X0089712D01*
Y0096469D02*
Y0096919D01*
X0088087Y0096544D02*
Y0096919D01*
X0088537D01*
X0088087Y0094994D02*
X0088462D01*
X0088087D02*
Y0095444D01*
X0107797Y0114094D02*
X0111947D01*
X0107797Y0107594D02*
Y0114094D01*
X0111947Y0107594D02*
Y0114094D01*
X0107797Y0107594D02*
X0111947D01*
X0083678Y0090869D02*
X0087632Y0090868D01*
Y0094194D01*
X0083678Y0090869D02*
Y0094194D01*
X0087632D01*
X0102872Y0112269D02*
X0106826Y0112269D01*
X0102872Y0108944D02*
Y0112269D01*
X0106826Y0108944D02*
Y0112269D01*
X0102872Y0108944D02*
X0106826D01*
X0105378Y0090869D02*
X0109332Y0090868D01*
Y0094194D01*
X0105378Y0090869D02*
Y0094194D01*
X0109332D01*
M02*
