G04*
G04 #@! TF.GenerationSoftware,Altium Limited,Altium Designer,20.1.8 (145)*
G04*
G04 Layer_Physical_Order=1*
G04 Layer_Color=255*
%FSTAX43Y43*%
%MOMM*%
G71*
G04*
G04 #@! TF.SameCoordinates,50862E5C-5C1C-4336-863E-61652BE41A98*
G04*
G04*
G04 #@! TF.FilePolarity,Positive*
G04*
G01*
G75*
%ADD14C,2.500*%
%ADD15C,2.200*%
%ADD16C,8.000*%
G36*
X0097157Y0096897D02*
X0098584Y0096709D01*
X0099996Y0096428D01*
X0101387Y0096055D01*
X010275Y0095593D01*
X0104081Y0095042D01*
X0105372Y0094405D01*
X0106619Y0093685D01*
X0107816Y0092885D01*
X0108958Y0092008D01*
X0110041Y0091059D01*
X0111059Y0090041D01*
X0112008Y0088958D01*
X0112885Y0087816D01*
X0113685Y0086619D01*
X0114405Y0085372D01*
X0115042Y0084081D01*
X0115593Y008275D01*
X0116055Y0081387D01*
X0116428Y0079996D01*
X0116709Y0078584D01*
X0116897Y0077157D01*
X0116991Y007572D01*
Y0075D01*
Y007428D01*
X0116897Y0072843D01*
X0116709Y0071416D01*
X0116428Y0070004D01*
X0116055Y0068613D01*
X0115593Y0067249D01*
X0115042Y0065919D01*
X0114405Y0064628D01*
X0113685Y0063381D01*
X0112885Y0062184D01*
X0112008Y0061042D01*
X0111059Y0059959D01*
X0110041Y0058941D01*
X0108958Y0057992D01*
X0107816Y0057115D01*
X0106619Y0056315D01*
X0105372Y0055595D01*
X0104081Y0054958D01*
X010275Y0054407D01*
X0101387Y0053945D01*
X0099996Y0053572D01*
X0098584Y0053291D01*
X0097157Y0053103D01*
X009572Y0053009D01*
X009428D01*
X0092843Y0053103D01*
X0091416Y0053291D01*
X0090004Y0053572D01*
X0088613Y0053945D01*
X008725Y0054407D01*
X0085919Y0054958D01*
X0084628Y0055595D01*
X0083381Y0056315D01*
X0082184Y0057115D01*
X0081042Y0057992D01*
X0079959Y0058941D01*
X0078941Y0059959D01*
X0077992Y0061042D01*
X0077115Y0062184D01*
X0076315Y0063381D01*
X0075595Y0064628D01*
X0074958Y0065919D01*
X0074407Y0067249D01*
X0073945Y0068613D01*
X0073572Y0070004D01*
X0073291Y0071416D01*
X0073103Y0072843D01*
X0073009Y007428D01*
Y0075D01*
Y007572D01*
X0073103Y0077157D01*
X0073291Y0078584D01*
X0073572Y0079996D01*
X0073945Y0081387D01*
X0074407Y008275D01*
X0074958Y0084081D01*
X0075595Y0085372D01*
X0076315Y0086619D01*
X0077115Y0087816D01*
X0077992Y0088958D01*
X0078941Y0090041D01*
X0079959Y0091059D01*
X0081042Y0092008D01*
X0082184Y0092885D01*
X0083381Y0093685D01*
X0084628Y0094405D01*
X0085919Y0095042D01*
X008725Y0095593D01*
X0088613Y0096055D01*
X0090004Y0096428D01*
X0091416Y0096709D01*
X0092843Y0096897D01*
X009428Y0096991D01*
X009572D01*
X0097157Y0096897D01*
D02*
G37*
%LPC*%
G36*
X01115Y0080011D02*
X0110846Y0079968D01*
X0110203Y007984D01*
X0109582Y0079629D01*
X0108995Y0079339D01*
X010845Y0078975D01*
X0107957Y0078543D01*
X0107525Y007805D01*
X0107161Y0077505D01*
X0106871Y0076918D01*
X010666Y0076297D01*
X0106532Y0075654D01*
X0106489Y0075D01*
X0106532Y0074346D01*
X010666Y0073703D01*
X0106871Y0073082D01*
X0107161Y0072495D01*
X0107525Y007195D01*
X0107957Y0071457D01*
X010845Y0071025D01*
X0108995Y0070661D01*
X0109582Y0070371D01*
X0110203Y007016D01*
X0110846Y0070032D01*
X01115Y0069989D01*
X0112154Y0070032D01*
X0112797Y007016D01*
X0113418Y0070371D01*
X0114005Y0070661D01*
X011455Y0071025D01*
X0115043Y0071457D01*
X0115475Y007195D01*
X0115839Y0072495D01*
X0116129Y0073082D01*
X011634Y0073703D01*
X0116468Y0074346D01*
X0116511Y0075D01*
X0116468Y0075654D01*
X011634Y0076297D01*
X0116129Y0076918D01*
X0115839Y0077505D01*
X0115475Y007805D01*
X0115043Y0078543D01*
X011455Y0078975D01*
X0114005Y0079339D01*
X0113418Y0079629D01*
X0112797Y007984D01*
X0112154Y0079968D01*
X01115Y0080011D01*
D02*
G37*
G36*
X00785D02*
X0077846Y0079968D01*
X0077203Y007984D01*
X0076582Y0079629D01*
X0075995Y0079339D01*
X007545Y0078975D01*
X0074957Y0078543D01*
X0074525Y007805D01*
X0074161Y0077505D01*
X0073871Y0076918D01*
X007366Y0076297D01*
X0073532Y0075654D01*
X0073489Y0075D01*
X0073532Y0074346D01*
X007366Y0073703D01*
X0073871Y0073082D01*
X0074161Y0072495D01*
X0074525Y007195D01*
X0074957Y0071457D01*
X007545Y0071025D01*
X0075995Y0070661D01*
X0076582Y0070371D01*
X0077203Y007016D01*
X0077846Y0070032D01*
X00785Y0069989D01*
X0079154Y0070032D01*
X0079797Y007016D01*
X0080418Y0070371D01*
X0081005Y0070661D01*
X008155Y0071025D01*
X0082043Y0071457D01*
X0082475Y007195D01*
X0082839Y0072495D01*
X0083129Y0073082D01*
X008334Y0073703D01*
X0083468Y0074346D01*
X0083511Y0075D01*
X0083468Y0075654D01*
X008334Y0076297D01*
X0083129Y0076918D01*
X0082839Y0077505D01*
X0082475Y007805D01*
X0082043Y0078543D01*
X008155Y0078975D01*
X0081005Y0079339D01*
X0080418Y0079629D01*
X0079797Y007984D01*
X0079154Y0079968D01*
X00785Y0080011D01*
D02*
G37*
G36*
X00984Y008073D02*
X0097988Y008069D01*
X0097592Y008057D01*
X0097228Y0080375D01*
X0096908Y0080112D01*
X0096645Y0079792D01*
X009645Y0079428D01*
X009633Y0079032D01*
X009629Y007862D01*
X009633Y0078208D01*
X009645Y0077812D01*
X0096645Y0077448D01*
X0096908Y0077128D01*
X0097228Y0076865D01*
X009739Y0076779D01*
Y0076651D01*
X0097228Y0076565D01*
X0096908Y0076302D01*
X0096645Y0075982D01*
X009645Y0075618D01*
X009633Y0075222D01*
X009629Y007481D01*
X009633Y0074398D01*
X009645Y0074002D01*
X0096645Y0073638D01*
X0096908Y0073318D01*
X0097228Y0073055D01*
X009739Y0072968D01*
Y0072841D01*
X0097228Y0072755D01*
X0096908Y0072492D01*
X0096645Y0072172D01*
X009645Y0071808D01*
X009633Y0071412D01*
X009629Y0071D01*
X009633Y0070588D01*
X009645Y0070192D01*
X0096645Y0069828D01*
X0096908Y0069508D01*
X0097228Y0069245D01*
X0097592Y006905D01*
X0097988Y006893D01*
X00984Y006889D01*
X0098812Y006893D01*
X0099208Y006905D01*
X0099572Y0069245D01*
X0099892Y0069508D01*
X0100155Y0069828D01*
X010035Y0070192D01*
X010047Y0070588D01*
X010051Y0071D01*
X010047Y0071412D01*
X010035Y0071808D01*
X0100155Y0072172D01*
X0099892Y0072492D01*
X0099572Y0072755D01*
X009941Y0072841D01*
Y0072968D01*
X0099572Y0073055D01*
X0099892Y0073318D01*
X0100155Y0073638D01*
X010035Y0074002D01*
X010047Y0074398D01*
X010051Y007481D01*
X010047Y0075222D01*
X010035Y0075618D01*
X0100155Y0075982D01*
X0099892Y0076302D01*
X0099572Y0076565D01*
X009941Y0076651D01*
Y0076779D01*
X0099572Y0076865D01*
X0099892Y0077128D01*
X0100155Y0077448D01*
X010035Y0077812D01*
X010047Y0078208D01*
X010051Y007862D01*
X010047Y0079032D01*
X010035Y0079428D01*
X0100155Y0079792D01*
X0099892Y0080112D01*
X0099572Y0080375D01*
X0099208Y008057D01*
X0098812Y008069D01*
X00984Y008073D01*
D02*
G37*
%LPD*%
D14*
X0111262Y0075D02*
X0111738D01*
X0115238Y00785D01*
X0107678Y0071416D02*
X0111262Y0075D01*
X0107678Y0071324D02*
Y0071416D01*
X0074824Y0078584D02*
X0074916D01*
X00785Y0075D01*
Y0074525D02*
X0082Y0071025D01*
X00785Y0074525D02*
Y0075D01*
D15*
X00984Y007862D02*
D03*
Y007481D02*
D03*
Y0071D02*
D03*
D16*
X01115Y0075D02*
D03*
X00785D02*
D03*
M02*
