G04*
G04 #@! TF.GenerationSoftware,Altium Limited,Altium Designer,20.1.8 (145)*
G04*
G04 Layer_Physical_Order=2*
G04 Layer_Color=16711680*
%FSTAX43Y43*%
%MOMM*%
G71*
G04*
G04 #@! TF.SameCoordinates,50862E5C-5C1C-4336-863E-61652BE41A98*
G04*
G04*
G04 #@! TF.FilePolarity,Positive*
G04*
G01*
G75*
%ADD14C,2.500*%
%ADD15C,2.200*%
%ADD16C,8.000*%
G36*
X0097157Y0096897D02*
X0098584Y0096709D01*
X0099996Y0096428D01*
X0101387Y0096055D01*
X010275Y0095593D01*
X0104081Y0095042D01*
X0105372Y0094405D01*
X0106619Y0093685D01*
X0107816Y0092885D01*
X0108958Y0092008D01*
X0110041Y0091059D01*
X0111059Y0090041D01*
X0112008Y0088958D01*
X0112885Y0087816D01*
X0113685Y0086619D01*
X0114405Y0085372D01*
X0115042Y0084081D01*
X0115593Y008275D01*
X0116055Y0081387D01*
X0116428Y0079996D01*
X0116709Y0078584D01*
X0116897Y0077157D01*
X0116991Y007572D01*
Y0075D01*
Y007428D01*
X0116897Y0072843D01*
X0116709Y0071416D01*
X0116428Y0070004D01*
X0116055Y0068613D01*
X0115593Y0067249D01*
X0115042Y0065919D01*
X0114405Y0064628D01*
X0113685Y0063381D01*
X0112885Y0062184D01*
X0112008Y0061042D01*
X0111059Y0059959D01*
X0110041Y0058941D01*
X0108958Y0057992D01*
X0107816Y0057115D01*
X0106619Y0056315D01*
X0105372Y0055595D01*
X0104081Y0054958D01*
X010275Y0054407D01*
X0101387Y0053945D01*
X0099996Y0053572D01*
X0098584Y0053291D01*
X0097157Y0053103D01*
X009572Y0053009D01*
X009428D01*
X0092843Y0053103D01*
X0091416Y0053291D01*
X0090004Y0053572D01*
X0088613Y0053945D01*
X008725Y0054407D01*
X0085919Y0054958D01*
X0084628Y0055595D01*
X0083381Y0056315D01*
X0082184Y0057115D01*
X0081042Y0057992D01*
X0079959Y0058941D01*
X0078941Y0059959D01*
X0077992Y0061042D01*
X0077115Y0062184D01*
X0076315Y0063381D01*
X0075595Y0064628D01*
X0074958Y0065919D01*
X0074407Y0067249D01*
X0073945Y0068613D01*
X0073572Y0070004D01*
X0073291Y0071416D01*
X0073103Y0072843D01*
X0073009Y007428D01*
Y0075D01*
Y007572D01*
X0073103Y0077157D01*
X0073291Y0078584D01*
X0073572Y0079996D01*
X0073945Y0081387D01*
X0074407Y008275D01*
X0074958Y0084081D01*
X0075595Y0085372D01*
X0076315Y0086619D01*
X0077115Y0087816D01*
X0077992Y0088958D01*
X0078941Y0090041D01*
X0079959Y0091059D01*
X0081042Y0092008D01*
X0082184Y0092885D01*
X0083381Y0093685D01*
X0084628Y0094405D01*
X0085919Y0095042D01*
X008725Y0095593D01*
X0088613Y0096055D01*
X0090004Y0096428D01*
X0091416Y0096709D01*
X0092843Y0096897D01*
X009428Y0096991D01*
X009572D01*
X0097157Y0096897D01*
D02*
G37*
%LPC*%
G36*
X01115Y0080011D02*
X0110846Y0079968D01*
X0110203Y007984D01*
X0109582Y0079629D01*
X0108995Y0079339D01*
X010845Y0078975D01*
X0107957Y0078543D01*
X0107525Y007805D01*
X0107161Y0077505D01*
X0106871Y0076918D01*
X010666Y0076297D01*
X0106532Y0075654D01*
X0106489Y0075D01*
X0106532Y0074346D01*
X010666Y0073703D01*
X0106871Y0073082D01*
X0107161Y0072495D01*
X0107525Y007195D01*
X0107957Y0071457D01*
X010845Y0071025D01*
X0108995Y0070661D01*
X0109582Y0070371D01*
X0110203Y007016D01*
X0110846Y0070032D01*
X01115Y0069989D01*
X0112154Y0070032D01*
X0112797Y007016D01*
X0113418Y0070371D01*
X0114005Y0070661D01*
X011455Y0071025D01*
X0115043Y0071457D01*
X0115475Y007195D01*
X0115839Y0072495D01*
X0116129Y0073082D01*
X011634Y0073703D01*
X0116468Y0074346D01*
X0116511Y0075D01*
X0116468Y0075654D01*
X011634Y0076297D01*
X0116129Y0076918D01*
X0115839Y0077505D01*
X0115475Y007805D01*
X0115043Y0078543D01*
X011455Y0078975D01*
X0114005Y0079339D01*
X0113418Y0079629D01*
X0112797Y007984D01*
X0112154Y0079968D01*
X01115Y0080011D01*
D02*
G37*
G36*
X00785D02*
X0077846Y0079968D01*
X0077203Y007984D01*
X0076582Y0079629D01*
X0075995Y0079339D01*
X007545Y0078975D01*
X0074957Y0078543D01*
X0074525Y007805D01*
X0074161Y0077505D01*
X0073871Y0076918D01*
X007366Y0076297D01*
X0073532Y0075654D01*
X0073489Y0075D01*
X0073532Y0074346D01*
X007366Y0073703D01*
X0073871Y0073082D01*
X0074161Y0072495D01*
X0074525Y007195D01*
X0074957Y0071457D01*
X007545Y0071025D01*
X0075995Y0070661D01*
X0076582Y0070371D01*
X0077203Y007016D01*
X0077846Y0070032D01*
X00785Y0069989D01*
X0079154Y0070032D01*
X0079797Y007016D01*
X0080418Y0070371D01*
X0081005Y0070661D01*
X008155Y0071025D01*
X0082043Y0071457D01*
X0082475Y007195D01*
X0082839Y0072495D01*
X0083129Y0073082D01*
X008334Y0073703D01*
X0083468Y0074346D01*
X0083511Y0075D01*
X0083468Y0075654D01*
X008334Y0076297D01*
X0083129Y0076918D01*
X0082839Y0077505D01*
X0082475Y007805D01*
X0082043Y0078543D01*
X008155Y0078975D01*
X0081005Y0079339D01*
X0080418Y0079629D01*
X0079797Y007984D01*
X0079154Y0079968D01*
X00785Y0080011D01*
D02*
G37*
G36*
X0101398Y0080903D02*
X0098232D01*
X0097971Y0080869D01*
X0097647Y0080782D01*
X0097404Y0080681D01*
X0097113Y0080514D01*
X0096904Y0080353D01*
X0096667Y0080116D01*
X0096506Y0079907D01*
X0096339Y0079616D01*
X0096339Y0079616D01*
X0096238Y0079373D01*
X0096151Y0079049D01*
X0096117Y0078788D01*
Y0078452D01*
X0096151Y0078191D01*
X0096238Y0077867D01*
X0096339Y0077624D01*
X0096506Y0077333D01*
X0096667Y0077124D01*
X0096904Y0076887D01*
X0097024Y0076795D01*
Y0076635D01*
X0096904Y0076543D01*
X0096667Y0076306D01*
X0096506Y0076097D01*
X0096339Y0075806D01*
X0096339Y0075806D01*
X0096238Y0075563D01*
X0096151Y0075239D01*
X0096117Y0074978D01*
Y0074642D01*
X0096151Y0074381D01*
X0096238Y0074057D01*
X0096339Y0073814D01*
X0096506Y0073523D01*
X0096667Y0073314D01*
X0096904Y0073077D01*
X0097024Y0072985D01*
Y0072825D01*
X0096904Y0072733D01*
X0096667Y0072496D01*
X0096506Y0072287D01*
X0096339Y0071996D01*
X0096339Y0071996D01*
X0096238Y0071753D01*
X0096151Y0071429D01*
X0096117Y0071168D01*
Y0070832D01*
X0096151Y0070571D01*
X0096238Y0070247D01*
X0096339Y0070004D01*
X0096506Y0069713D01*
X0096667Y0069504D01*
X0096904Y0069267D01*
X0097113Y0069106D01*
X0097404Y0068939D01*
X0097404Y0068939D01*
X0097647Y0068838D01*
X0097971Y0068751D01*
X0098232Y0068717D01*
X0101398D01*
X0101659Y0068751D01*
X0101983Y0068838D01*
X0102226Y0068939D01*
X0102517Y0069106D01*
X0102726Y0069267D01*
X0102963Y0069504D01*
X0103123Y0069713D01*
X0103291Y0070004D01*
X0103392Y0070247D01*
X0103479Y0070571D01*
X0103513Y0070832D01*
Y0071168D01*
X0103479Y0071429D01*
X0103392Y0071753D01*
X0103291Y0071996D01*
X0103123Y0072287D01*
X0102963Y0072496D01*
X0102726Y0072733D01*
X0102606Y0072825D01*
Y0072985D01*
X0102726Y0073077D01*
X0102963Y0073314D01*
X0103123Y0073523D01*
X0103291Y0073814D01*
X0103392Y0074057D01*
X0103479Y0074381D01*
X0103513Y0074642D01*
Y0074978D01*
X0103479Y0075239D01*
X0103392Y0075563D01*
X0103291Y0075806D01*
X0103123Y0076097D01*
X0102963Y0076306D01*
X0102726Y0076543D01*
X0102606Y0076635D01*
Y0076795D01*
X0102726Y0076887D01*
X0102963Y0077124D01*
X0103123Y0077333D01*
X0103291Y0077624D01*
X0103392Y0077867D01*
X0103479Y0078191D01*
X0103513Y0078452D01*
Y0078788D01*
X0103479Y0079049D01*
X0103392Y0079373D01*
X0103291Y0079616D01*
X0103123Y0079907D01*
X0102963Y0080116D01*
X0102726Y0080353D01*
X0102517Y0080514D01*
X0102226Y0080681D01*
X0101983Y0080782D01*
X0101659Y0080869D01*
X0101398Y0080903D01*
D02*
G37*
%LPD*%
G36*
X0101722Y0079808D02*
X0102013Y007964D01*
X010225Y0079403D01*
X0102418Y0079112D01*
X0102505Y0078788D01*
Y0078452D01*
X0102418Y0078128D01*
X010225Y0077837D01*
X0102013Y00776D01*
X0101722Y0077432D01*
X0101398Y0077345D01*
X0098232D01*
X0097908Y0077432D01*
X0097617Y00776D01*
X009738Y0077837D01*
X0097212Y0078128D01*
X0097125Y0078452D01*
Y0078788D01*
X0097212Y0079112D01*
X009738Y0079403D01*
X0097617Y007964D01*
X0097908Y0079808D01*
X0098232Y0079895D01*
X0101398D01*
X0101722Y0079808D01*
D02*
G37*
G36*
Y0075998D02*
X0102013Y007583D01*
X010225Y0075593D01*
X0102418Y0075302D01*
X0102505Y0074978D01*
Y0074642D01*
X0102418Y0074318D01*
X010225Y0074027D01*
X0102013Y007379D01*
X0101722Y0073622D01*
X0101398Y0073535D01*
X0098232D01*
X0097908Y0073622D01*
X0097617Y007379D01*
X009738Y0074027D01*
X0097212Y0074318D01*
X0097125Y0074642D01*
Y0074978D01*
X0097212Y0075302D01*
X009738Y0075593D01*
X0097617Y007583D01*
X0097908Y0075998D01*
X0098232Y0076085D01*
X0101398D01*
X0101722Y0075998D01*
D02*
G37*
G36*
Y0072188D02*
X0102013Y007202D01*
X010225Y0071783D01*
X0102418Y0071492D01*
X0102505Y0071168D01*
Y0070832D01*
X0102418Y0070508D01*
X010225Y0070217D01*
X0102013Y006998D01*
X0101722Y0069812D01*
X0101398Y0069725D01*
X0098232D01*
X0097908Y0069812D01*
X0097617Y006998D01*
X009738Y0070217D01*
X0097212Y0070508D01*
X0097125Y0070832D01*
Y0071168D01*
X0097212Y0071492D01*
X009738Y0071783D01*
X0097617Y007202D01*
X0097908Y0072188D01*
X0098232Y0072275D01*
X0101398D01*
X0101722Y0072188D01*
D02*
G37*
D14*
X0108049Y0078635D02*
X0111592Y0075092D01*
Y0075D02*
X0115176Y0071416D01*
X0074824D02*
X0078408Y0075D01*
X00785D01*
X0082043Y0078543D01*
D15*
X00984Y007862D02*
D03*
Y007481D02*
D03*
Y0071D02*
D03*
D16*
X01115Y0075D02*
D03*
X00785D02*
D03*
M02*
