G04*
G04 #@! TF.GenerationSoftware,Altium Limited,Altium Designer,20.1.8 (145)*
G04*
G04 Layer_Color=32896*
%FSTAX43Y43*%
%MOMM*%
G71*
G04*
G04 #@! TF.SameCoordinates,E6AD84FA-A84C-469F-AD0F-9F455A438001*
G04*
G04*
G04 #@! TF.FilePolarity,Positive*
G04*
G01*
G75*
%ADD33C,0.100*%
%ADD34C,0.150*%
%ADD35C,0.200*%
G36*
X01005Y005622D02*
X0100382D01*
Y0056335D01*
X0100367Y0056311D01*
X0100352Y0056291D01*
X0100337Y0056272D01*
X0100322Y0056259D01*
X0100311Y0056248D01*
X0100302Y0056239D01*
X0100295Y0056235D01*
X0100293Y0056233D01*
X0100272Y0056222D01*
X0100252Y0056215D01*
X0100232Y0056207D01*
X0100213Y0056204D01*
X0100198Y0056202D01*
X0100185Y00562D01*
X0100174D01*
X010015Y0056202D01*
X0100128Y0056206D01*
X0100106Y0056211D01*
X0100083Y005622D01*
X0100045Y0056241D01*
X0100011Y0056263D01*
X0099983Y0056287D01*
X0099972Y0056296D01*
X0099963Y0056306D01*
X0099956Y0056315D01*
X009995Y005632D01*
X0099948Y0056324D01*
X0099946Y0056326D01*
X009993Y005635D01*
X0099913Y0056378D01*
X00999Y0056406D01*
X0099889Y0056435D01*
X0099872Y0056494D01*
X0099861Y0056554D01*
X0099856Y005658D01*
X0099854Y0056605D01*
X0099852Y0056628D01*
X009985Y0056646D01*
X0099848Y0056663D01*
Y0056674D01*
Y0056683D01*
Y0056685D01*
X009985Y0056741D01*
X0099856Y0056791D01*
X0099863Y0056833D01*
X009987Y0056872D01*
X0099874Y0056889D01*
X0099878Y0056902D01*
X0099882Y0056915D01*
X0099885Y0056926D01*
X0099889Y0056933D01*
X0099891Y0056939D01*
X0099893Y0056942D01*
Y0056944D01*
X0099909Y0056981D01*
X0099928Y0057015D01*
X0099948Y0057042D01*
X0099967Y0057065D01*
X0099982Y0057081D01*
X0099996Y0057094D01*
X0100004Y0057102D01*
X0100007Y0057104D01*
X0100035Y0057122D01*
X0100063Y0057135D01*
X0100089Y0057144D01*
X0100115Y005715D01*
X0100135Y0057155D01*
X0100152Y0057157D01*
X0100167D01*
X0100189Y0057155D01*
X0100211Y0057152D01*
X0100232Y0057148D01*
X0100248Y0057142D01*
X0100261Y0057135D01*
X0100272Y0057131D01*
X010028Y0057128D01*
X0100282Y0057126D01*
X01003Y0057113D01*
X0100317Y0057098D01*
X0100333Y0057083D01*
X0100346Y0057068D01*
X0100357Y0057054D01*
X0100365Y0057042D01*
X010037Y0057035D01*
X0100372Y0057033D01*
Y0057485D01*
X01005D01*
Y005622D01*
D02*
G37*
G36*
X0096369Y0057154D02*
X0096415Y0057146D01*
X0096456Y0057135D01*
X0096489Y0057124D01*
X0096515Y0057111D01*
X0096534Y00571D01*
X0096539Y0057094D01*
X0096545Y0057092D01*
X0096547Y0057089D01*
X0096549D01*
X0096563Y0057076D01*
X0096576Y0057061D01*
X00966Y0057028D01*
X0096619Y0056992D01*
X0096632Y0056957D01*
X0096643Y0056926D01*
X0096647Y0056911D01*
X009665Y00569D01*
X0096652Y0056891D01*
X0096654Y0056881D01*
X0096656Y0056878D01*
Y0056876D01*
X009653Y0056854D01*
X0096521Y0056889D01*
X0096512Y0056918D01*
X00965Y0056942D01*
X0096491Y0056961D01*
X0096482Y0056976D01*
X0096475Y0056985D01*
X0096469Y0056991D01*
X0096467Y0056992D01*
X0096449Y0057005D01*
X0096428Y0057015D01*
X0096406Y005702D01*
X0096384Y0057026D01*
X0096363Y0057028D01*
X0096349Y005703D01*
X0096334D01*
X0096299Y0057028D01*
X0096269Y005702D01*
X0096245Y0057013D01*
X0096225Y0057002D01*
X009621Y0056992D01*
X0096199Y0056983D01*
X0096191Y0056976D01*
X0096189Y0056974D01*
X0096178Y0056957D01*
X0096169Y0056937D01*
X0096163Y0056915D01*
X0096158Y0056893D01*
X0096156Y0056872D01*
X0096154Y0056855D01*
Y0056844D01*
Y0056842D01*
Y0056841D01*
X0096156Y0056802D01*
X0096171Y0056796D01*
X0096186Y0056791D01*
X0096223Y005678D01*
X009626Y005677D01*
X0096297Y0056761D01*
X009633Y0056755D01*
X0096345Y0056752D01*
X0096358Y005675D01*
X0096369Y0056748D01*
X0096376D01*
X0096382Y0056746D01*
X0096384D01*
X0096425Y0056739D01*
X009646Y0056731D01*
X0096489Y0056722D01*
X0096515Y0056715D01*
X0096534Y0056707D01*
X0096547Y00567D01*
X0096556Y0056696D01*
X0096558Y0056694D01*
X0096578Y0056681D01*
X0096595Y0056665D01*
X009661Y005665D01*
X0096623Y0056635D01*
X0096634Y005662D01*
X0096641Y0056609D01*
X0096645Y0056602D01*
X0096647Y00566D01*
X0096658Y0056576D01*
X0096665Y0056552D01*
X0096671Y0056528D01*
X0096675Y0056507D01*
X0096676Y0056487D01*
X0096678Y0056472D01*
Y0056463D01*
Y0056461D01*
Y0056459D01*
X0096675Y0056417D01*
X0096667Y005638D01*
X0096656Y0056348D01*
X0096643Y005632D01*
X0096632Y0056298D01*
X0096621Y0056283D01*
X0096613Y0056274D01*
X009661Y005627D01*
X0096582Y0056246D01*
X009655Y005623D01*
X0096519Y0056217D01*
X0096489Y0056209D01*
X0096463Y0056204D01*
X0096441Y0056202D01*
X0096434Y00562D01*
X0096423D01*
X0096395Y0056202D01*
X0096369Y0056206D01*
X0096345Y0056211D01*
X0096323Y0056217D01*
X0096306Y0056222D01*
X0096291Y0056228D01*
X0096284Y0056231D01*
X009628Y0056233D01*
X0096254Y0056248D01*
X009623Y0056263D01*
X0096206Y005628D01*
X0096186Y0056296D01*
X0096169Y0056311D01*
X0096156Y0056322D01*
X0096149Y005633D01*
X0096145Y0056333D01*
X0096143Y0056309D01*
X0096139Y0056287D01*
X0096134Y0056268D01*
X009613Y0056252D01*
X0096126Y0056239D01*
X0096123Y005623D01*
X0096119Y0056222D01*
Y005622D01*
X0095986D01*
X0096002Y0056259D01*
X0096008Y0056278D01*
X0096012Y0056294D01*
X0096015Y0056307D01*
X0096017Y0056318D01*
X0096019Y0056326D01*
Y0056328D01*
X0096021Y0056341D01*
Y0056356D01*
X0096023Y0056374D01*
Y0056394D01*
X0096025Y0056441D01*
Y0056487D01*
X0096026Y0056531D01*
Y0056552D01*
Y0056568D01*
Y0056583D01*
Y0056594D01*
Y0056602D01*
Y0056604D01*
Y0056811D01*
Y0056855D01*
X009603Y0056894D01*
X0096032Y0056928D01*
X0096036Y0056954D01*
X0096039Y0056974D01*
X0096041Y0056991D01*
X0096045Y0056998D01*
Y0057002D01*
X0096054Y0057026D01*
X0096065Y0057048D01*
X009608Y0057067D01*
X0096095Y0057083D01*
X0096108Y0057096D01*
X0096119Y0057105D01*
X0096126Y0057111D01*
X009613Y0057113D01*
X0096158Y0057128D01*
X0096188Y0057139D01*
X0096217Y0057146D01*
X0096247Y0057152D01*
X0096275Y0057155D01*
X0096295Y0057157D01*
X0096315D01*
X0096369Y0057154D01*
D02*
G37*
G36*
X010103Y00566D02*
X0100639D01*
Y0056755D01*
X010103D01*
Y00566D01*
D02*
G37*
G36*
X0105098Y005622D02*
X0104955D01*
X010455Y0057485D01*
X0104688D01*
X010497Y0056565D01*
X0104981Y0056526D01*
X0104992Y0056489D01*
X0105001Y0056456D01*
X0105009Y0056424D01*
X0105016Y0056398D01*
X0105022Y0056378D01*
X0105024Y005637D01*
Y0056365D01*
X0105025Y0056361D01*
Y0056359D01*
X0105035Y0056396D01*
X0105044Y0056433D01*
X0105053Y0056468D01*
X0105061Y00565D01*
X0105068Y0056526D01*
X0105074Y0056546D01*
X0105075Y0056554D01*
X0105077Y0056559D01*
X0105079Y0056563D01*
Y0056565D01*
X010535Y0057485D01*
X01055D01*
X0105098Y005622D01*
D02*
G37*
G36*
X0103057Y0056754D02*
X0103055Y0056698D01*
X0103053Y0056646D01*
X0103048Y00566D01*
X0103042Y0056556D01*
X0103033Y0056517D01*
X0103026Y0056481D01*
X0103016Y005645D01*
X0103007Y0056422D01*
X0102998Y0056398D01*
X0102989Y0056378D01*
X0102979Y0056359D01*
X0102972Y0056346D01*
X0102966Y0056335D01*
X0102961Y0056328D01*
X0102959Y0056324D01*
X0102957Y0056322D01*
X0102937Y00563D01*
X0102915Y0056281D01*
X0102891Y0056265D01*
X0102866Y0056252D01*
X0102841Y0056239D01*
X0102815Y005623D01*
X0102765Y0056215D01*
X0102742Y0056211D01*
X010272Y0056207D01*
X01027Y0056204D01*
X0102683Y0056202D01*
X010267Y00562D01*
X010265D01*
X0102598Y0056204D01*
X0102552Y0056211D01*
X0102511Y005622D01*
X0102476Y0056233D01*
X0102448Y0056246D01*
X0102437Y0056252D01*
X0102428Y0056256D01*
X010242Y0056261D01*
X0102415Y0056263D01*
X0102413Y0056267D01*
X0102411D01*
X0102378Y0056294D01*
X0102352Y0056324D01*
X0102328Y0056356D01*
X0102311Y0056385D01*
X0102298Y0056411D01*
X0102289Y0056433D01*
X0102285Y0056441D01*
X0102283Y0056446D01*
X0102281Y005645D01*
Y0056452D01*
X0102268Y0056498D01*
X0102259Y005655D01*
X0102254Y00566D01*
X0102248Y0056648D01*
Y0056668D01*
X0102246Y0056689D01*
Y0056707D01*
X0102244Y0056724D01*
Y0056735D01*
Y0056746D01*
Y0056752D01*
Y0056754D01*
Y0057485D01*
X0102381D01*
Y0056755D01*
Y0056713D01*
X0102385Y0056674D01*
X0102387Y0056637D01*
X0102392Y0056604D01*
X0102396Y0056576D01*
X0102402Y0056548D01*
X0102409Y0056526D01*
X0102415Y0056506D01*
X010242Y0056487D01*
X0102428Y0056472D01*
X0102433Y0056459D01*
X0102437Y005645D01*
X0102442Y0056443D01*
X0102444Y0056437D01*
X0102448Y0056435D01*
Y0056433D01*
X0102461Y0056418D01*
X0102476Y0056407D01*
X0102509Y0056387D01*
X0102544Y0056372D01*
X0102578Y0056363D01*
X0102609Y0056356D01*
X0102624Y0056354D01*
X0102635D01*
X0102646Y0056352D01*
X0102659D01*
X0102691Y0056354D01*
X0102718Y0056357D01*
X0102744Y0056365D01*
X0102766Y0056372D01*
X0102783Y0056378D01*
X0102796Y0056385D01*
X0102803Y0056389D01*
X0102807Y0056391D01*
X0102828Y0056407D01*
X0102846Y0056426D01*
X0102861Y0056446D01*
X0102874Y0056465D01*
X0102883Y0056481D01*
X0102889Y0056494D01*
X0102892Y0056504D01*
X0102894Y0056507D01*
X0102898Y0056522D01*
X0102903Y0056541D01*
X0102909Y005658D01*
X0102915Y005662D01*
X0102916Y0056661D01*
X0102918Y0056698D01*
X010292Y0056713D01*
Y0056728D01*
Y0056739D01*
Y0056748D01*
Y0056754D01*
Y0056755D01*
Y0057485D01*
X0103057D01*
Y0056754D01*
D02*
G37*
G36*
X0098861Y0057365D02*
Y0057137D01*
X0098954D01*
Y0057017D01*
X0098861D01*
Y0056487D01*
Y0056463D01*
Y0056441D01*
X0098859Y0056418D01*
Y00564D01*
X0098858Y0056383D01*
X0098856Y0056368D01*
X0098854Y0056344D01*
X009885Y0056326D01*
X0098848Y0056313D01*
X0098846Y0056306D01*
Y0056304D01*
X0098839Y0056289D01*
X0098832Y0056274D01*
X0098822Y0056261D01*
X0098813Y0056252D01*
X0098806Y0056244D01*
X0098798Y0056239D01*
X0098795Y0056235D01*
X0098793Y0056233D01*
X0098776Y0056224D01*
X0098759Y0056218D01*
X0098741Y0056213D01*
X0098724Y0056211D01*
X0098709Y0056209D01*
X0098697Y0056207D01*
X0098685D01*
X0098654Y0056209D01*
X0098637Y0056211D01*
X0098622Y0056215D01*
X0098609Y0056217D01*
X00986Y0056218D01*
X0098593Y005622D01*
X0098591D01*
X0098608Y0056357D01*
X0098632Y0056354D01*
X009865Y0056352D01*
X0098665D01*
X009868Y0056354D01*
X0098693Y0056357D01*
X0098704Y0056361D01*
X0098711Y0056367D01*
X0098717Y0056372D01*
X0098721Y0056378D01*
X0098724Y005638D01*
Y0056381D01*
X0098728Y0056393D01*
X009873Y0056406D01*
X0098734Y0056422D01*
Y0056439D01*
X0098735Y0056454D01*
Y0056467D01*
Y0056474D01*
Y0056478D01*
Y0057017D01*
X0098608D01*
Y0057137D01*
X0098735D01*
Y0057457D01*
X0098861Y0057365D01*
D02*
G37*
G36*
X01044Y005622D02*
X0104263D01*
Y0057485D01*
X01044D01*
Y005622D01*
D02*
G37*
G36*
X0102011D02*
X0101874D01*
Y0056781D01*
X0101692D01*
X010167Y0056778D01*
X0101652Y0056776D01*
X0101637Y0056772D01*
X0101626Y0056768D01*
X0101617Y0056765D01*
X0101611Y0056763D01*
X0101609Y0056761D01*
X0101594Y0056752D01*
X010158Y0056743D01*
X0101555Y0056718D01*
X0101544Y0056707D01*
X0101537Y0056698D01*
X0101531Y0056691D01*
X010153Y0056689D01*
X0101522Y0056678D01*
X0101513Y0056665D01*
X0101494Y0056635D01*
X0101474Y00566D01*
X0101454Y0056567D01*
X0101437Y0056533D01*
X010143Y0056518D01*
X0101422Y0056507D01*
X0101417Y0056496D01*
X0101413Y0056489D01*
X0101409Y0056483D01*
Y0056481D01*
X010127Y005622D01*
X0101096D01*
X0101278Y0056563D01*
X0101296Y0056596D01*
X0101315Y0056626D01*
X0101333Y0056654D01*
X010135Y0056678D01*
X0101365Y0056696D01*
X0101376Y0056711D01*
X0101383Y005672D01*
X0101387Y0056724D01*
X01014Y0056737D01*
X0101413Y005675D01*
X0101441Y0056772D01*
X0101454Y0056781D01*
X0101463Y0056789D01*
X010147Y0056793D01*
X0101472Y0056794D01*
X0101422Y0056805D01*
X010138Y0056822D01*
X0101343Y0056841D01*
X0101311Y0056859D01*
X0101289Y0056878D01*
X010127Y0056893D01*
X0101261Y0056904D01*
X0101257Y0056905D01*
Y0056907D01*
X0101231Y0056942D01*
X0101213Y0056981D01*
X01012Y005702D01*
X0101191Y0057057D01*
X0101185Y0057089D01*
X0101183Y0057104D01*
Y0057115D01*
X0101181Y0057126D01*
Y0057133D01*
Y0057137D01*
Y0057139D01*
X0101183Y0057178D01*
X0101189Y0057215D01*
X0101196Y0057248D01*
X0101204Y0057276D01*
X0101211Y0057298D01*
X0101218Y0057315D01*
X0101224Y0057326D01*
X0101226Y0057329D01*
X0101243Y0057359D01*
X0101263Y0057383D01*
X0101281Y0057404D01*
X0101298Y005742D01*
X0101315Y0057433D01*
X0101328Y0057441D01*
X0101335Y0057446D01*
X0101339Y0057448D01*
X0101368Y0057461D01*
X0101402Y005747D01*
X0101437Y0057476D01*
X010147Y0057481D01*
X0101502Y0057483D01*
X0101517D01*
X0101528Y0057485D01*
X0102011D01*
Y005622D01*
D02*
G37*
G36*
X0098469D02*
X0098332D01*
Y0056781D01*
X009815Y0056781D01*
X0098128Y0056778D01*
X009811Y0056776D01*
X0098095Y0056772D01*
X0098084Y0056768D01*
X0098074Y0056765D01*
X0098069Y0056763D01*
X0098067Y0056761D01*
X0098052Y0056752D01*
X0098037Y0056743D01*
X0098013Y0056718D01*
X0098002Y0056707D01*
X0097995Y0056698D01*
X0097989Y0056691D01*
X0097987Y0056689D01*
X009798Y0056678D01*
X0097971Y0056665D01*
X0097952Y0056635D01*
X0097932Y00566D01*
X0097911Y0056567D01*
X0097895Y0056533D01*
X0097887Y0056518D01*
X009788Y0056507D01*
X0097874Y0056496D01*
X0097871Y0056489D01*
X0097867Y0056483D01*
Y0056481D01*
X0097728Y005622D01*
X0097554D01*
X0097736Y0056563D01*
X0097754Y0056596D01*
X0097773Y0056626D01*
X0097791Y0056654D01*
X0097808Y0056678D01*
X0097823Y0056696D01*
X0097834Y0056711D01*
X0097841Y005672D01*
X0097845Y0056724D01*
X0097858Y0056737D01*
X0097871Y005675D01*
X0097898Y0056772D01*
X0097911Y0056781D01*
X0097921Y0056789D01*
X0097928Y0056793D01*
X009793Y0056794D01*
X009788Y0056805D01*
X0097837Y0056822D01*
X00978Y0056841D01*
X0097769Y0056859D01*
X0097747Y0056878D01*
X0097728Y0056893D01*
X0097719Y0056904D01*
X0097715Y0056905D01*
Y0056907D01*
X0097689Y0056942D01*
X0097671Y0056981D01*
X0097658Y005702D01*
X0097648Y0057057D01*
X0097643Y0057089D01*
X0097641Y0057104D01*
Y0057115D01*
X0097639Y0057126D01*
Y0057133D01*
Y0057137D01*
Y0057139D01*
X0097641Y0057178D01*
X0097647Y0057215D01*
X0097654Y0057248D01*
X0097661Y0057276D01*
X0097669Y0057298D01*
X0097676Y0057315D01*
X0097682Y0057326D01*
X0097684Y0057329D01*
X00977Y0057359D01*
X0097721Y0057383D01*
X0097739Y0057404D01*
X0097756Y005742D01*
X0097773Y0057433D01*
X0097785Y0057441D01*
X0097793Y0057446D01*
X0097797Y0057448D01*
X0097826Y0057461D01*
X009786Y005747D01*
X0097895Y0057476D01*
X0097928Y0057481D01*
X009796Y0057483D01*
X0097974D01*
X0097985Y0057485D01*
X0098469Y0057485D01*
Y005622D01*
D02*
G37*
G36*
X0103696Y0057505D02*
X0103724Y0057504D01*
X0103777Y0057492D01*
X0103802Y0057485D01*
X0103824Y0057476D01*
X0103844Y0057467D01*
X0103863Y0057459D01*
X0103877Y005745D01*
X0103892Y0057441D01*
X0103905Y0057431D01*
X0103914Y0057424D01*
X0103922Y0057418D01*
X0103927Y0057413D01*
X0103931Y0057411D01*
X0103933Y0057409D01*
X010395Y0057391D01*
X0103964Y005737D01*
X0103979Y005735D01*
X010399Y0057329D01*
X0104007Y0057287D01*
X0104018Y0057248D01*
X0104026Y0057213D01*
X0104027Y0057198D01*
X0104029Y0057185D01*
X0104031Y0057174D01*
Y0057167D01*
Y0057161D01*
Y0057159D01*
X0104029Y0057128D01*
X0104026Y0057098D01*
X010402Y0057072D01*
X0104014Y0057048D01*
X0104009Y005703D01*
X0104003Y0057017D01*
X0104Y0057007D01*
X0103998Y0057004D01*
X0103983Y005698D01*
X0103968Y0056957D01*
X0103952Y0056939D01*
X0103937Y0056924D01*
X0103922Y0056911D01*
X0103911Y00569D01*
X0103903Y0056894D01*
X0103902Y0056893D01*
X0103889Y0056885D01*
X0103874Y0056876D01*
X0103842Y0056861D01*
X0103807Y0056846D01*
X0103774Y0056833D01*
X0103742Y0056822D01*
X0103727Y0056817D01*
X0103716Y0056813D01*
X0103705Y0056809D01*
X0103698Y0056807D01*
X0103694Y0056805D01*
X0103692D01*
X0103663Y0056796D01*
X0103635Y0056789D01*
X0103611Y0056781D01*
X0103589Y0056774D01*
X010357Y0056767D01*
X0103552Y0056761D01*
X0103537Y0056755D01*
X0103524Y005675D01*
X0103511Y0056744D01*
X0103502Y0056741D01*
X0103489Y0056735D01*
X0103479Y0056731D01*
X0103478Y005673D01*
X0103459Y0056718D01*
X0103444Y0056707D01*
X0103431Y0056696D01*
X0103422Y0056685D01*
X0103415Y0056676D01*
X0103407Y0056668D01*
X0103405Y0056663D01*
X0103403Y0056661D01*
X0103394Y0056644D01*
X0103389Y005663D01*
X0103383Y0056613D01*
X0103381Y0056598D01*
X0103379Y0056585D01*
X0103378Y0056574D01*
Y0056567D01*
Y0056565D01*
X0103381Y0056531D01*
X0103389Y0056502D01*
X01034Y0056474D01*
X0103411Y0056452D01*
X0103424Y0056435D01*
X0103435Y0056422D01*
X0103442Y0056415D01*
X0103446Y0056411D01*
X0103474Y0056391D01*
X0103505Y0056378D01*
X0103537Y0056367D01*
X0103566Y0056359D01*
X0103594Y0056356D01*
X0103616Y0056354D01*
X0103626Y0056352D01*
X0103637D01*
X0103668Y0056354D01*
X0103696Y0056357D01*
X0103722Y0056363D01*
X0103746Y005637D01*
X0103765Y0056376D01*
X0103777Y0056381D01*
X0103787Y0056385D01*
X010379Y0056387D01*
X0103815Y0056402D01*
X0103835Y0056417D01*
X0103853Y0056431D01*
X0103868Y0056446D01*
X0103881Y0056459D01*
X0103889Y005647D01*
X0103894Y0056478D01*
X0103896Y005648D01*
X0103909Y0056504D01*
X0103918Y005653D01*
X0103927Y0056556D01*
X0103933Y0056583D01*
X0103937Y0056605D01*
X010394Y0056626D01*
Y0056633D01*
X0103942Y0056639D01*
Y0056641D01*
Y0056643D01*
X010407Y005663D01*
X0104068Y0056593D01*
X0104064Y0056559D01*
X0104057Y0056528D01*
X010405Y0056496D01*
X010404Y0056468D01*
X0104031Y0056443D01*
X0104022Y0056418D01*
X0104011Y0056398D01*
X0104Y005638D01*
X0103989Y0056363D01*
X0103979Y0056348D01*
X0103972Y0056337D01*
X0103964Y0056328D01*
X0103959Y005632D01*
X0103955Y0056317D01*
X0103953Y0056315D01*
X0103931Y0056294D01*
X0103907Y0056278D01*
X0103883Y0056261D01*
X0103857Y0056248D01*
X0103831Y0056237D01*
X0103805Y0056228D01*
X0103757Y0056215D01*
X0103733Y0056209D01*
X0103713Y0056206D01*
X0103694Y0056204D01*
X0103677Y0056202D01*
X0103665Y00562D01*
X0103646D01*
X0103602Y0056202D01*
X0103561Y0056207D01*
X0103524Y0056215D01*
X0103494Y0056224D01*
X0103468Y0056231D01*
X010345Y0056239D01*
X0103444Y0056243D01*
X0103439Y0056244D01*
X0103437Y0056246D01*
X0103435D01*
X0103403Y0056265D01*
X0103376Y0056287D01*
X0103352Y0056309D01*
X0103331Y0056331D01*
X0103316Y0056352D01*
X0103305Y0056367D01*
X0103298Y0056378D01*
X0103296Y005638D01*
Y0056381D01*
X0103279Y0056415D01*
X0103266Y005645D01*
X0103257Y0056483D01*
X010325Y0056515D01*
X0103246Y0056541D01*
X0103244Y0056561D01*
Y0056568D01*
Y0056574D01*
Y0056578D01*
Y005658D01*
X0103246Y0056618D01*
X0103252Y0056655D01*
X0103261Y0056687D01*
X0103268Y0056715D01*
X0103278Y0056737D01*
X0103287Y0056754D01*
X0103292Y0056763D01*
X0103294Y0056767D01*
X0103315Y0056794D01*
X0103337Y005682D01*
X0103361Y0056843D01*
X0103383Y0056861D01*
X0103403Y0056876D01*
X0103422Y0056885D01*
X0103433Y0056893D01*
X0103435Y0056894D01*
X0103437D01*
X010345Y00569D01*
X0103465Y0056907D01*
X0103498Y0056918D01*
X0103533Y0056931D01*
X0103568Y0056942D01*
X0103602Y0056954D01*
X0103616Y0056957D01*
X0103627Y0056961D01*
X0103639Y0056965D01*
X0103646Y0056967D01*
X0103652Y0056968D01*
X0103653D01*
X0103681Y0056976D01*
X0103707Y0056985D01*
X0103731Y0056992D01*
X0103752Y0057D01*
X010377Y0057007D01*
X0103787Y0057015D01*
X0103802Y005702D01*
X0103813Y0057028D01*
X0103833Y0057039D01*
X0103846Y0057046D01*
X0103853Y0057052D01*
X0103855Y0057054D01*
X010387Y005707D01*
X0103881Y0057091D01*
X0103889Y0057109D01*
X0103894Y005713D01*
X0103898Y0057146D01*
X01039Y0057159D01*
Y0057168D01*
Y0057172D01*
X0103898Y0057202D01*
X010389Y0057228D01*
X0103881Y005725D01*
X0103868Y005727D01*
X0103857Y0057285D01*
X0103848Y0057296D01*
X010384Y0057304D01*
X0103839Y0057305D01*
X0103813Y0057324D01*
X0103785Y0057337D01*
X0103755Y0057346D01*
X0103727Y0057352D01*
X0103702Y0057357D01*
X0103679Y0057359D01*
X0103661D01*
X010362Y0057357D01*
X0103585Y005735D01*
X0103553Y0057341D01*
X0103529Y0057329D01*
X0103509Y0057317D01*
X0103494Y0057307D01*
X0103487Y00573D01*
X0103483Y0057298D01*
X0103461Y0057274D01*
X0103444Y0057244D01*
X0103431Y0057215D01*
X010342Y0057185D01*
X0103415Y0057159D01*
X0103409Y0057137D01*
Y0057128D01*
X0103407Y0057122D01*
Y0057118D01*
Y0057117D01*
X0103276Y005713D01*
X0103279Y005717D01*
X0103285Y0057209D01*
X0103294Y0057242D01*
X0103303Y0057272D01*
X0103313Y0057296D01*
X010332Y0057315D01*
X0103326Y0057326D01*
X0103328Y0057328D01*
Y0057329D01*
X0103348Y0057359D01*
X0103368Y0057387D01*
X010339Y0057409D01*
X0103413Y0057428D01*
X0103433Y0057442D01*
X0103448Y0057452D01*
X0103459Y0057459D01*
X0103461Y0057461D01*
X0103463D01*
X0103496Y0057476D01*
X0103531Y0057487D01*
X0103565Y0057496D01*
X0103596Y0057502D01*
X0103624Y0057505D01*
X0103635D01*
X0103646Y0057507D01*
X0103665D01*
X0103696Y0057505D01*
D02*
G37*
G36*
X0099419Y0057155D02*
X0099446Y0057152D01*
X0099471Y0057146D01*
X0099495Y0057139D01*
X0099539Y0057118D01*
X0099576Y0057096D01*
X0099591Y0057085D01*
X0099606Y0057074D01*
X0099617Y0057063D01*
X0099626Y0057054D01*
X0099633Y0057046D01*
X0099639Y0057041D01*
X0099643Y0057037D01*
X0099645Y0057035D01*
X0099661Y0057011D01*
X0099676Y0056985D01*
X0099691Y0056957D01*
X0099702Y0056928D01*
X0099719Y0056868D01*
X009973Y0056811D01*
X0099735Y0056785D01*
X0099737Y0056759D01*
X0099739Y0056737D01*
X0099741Y0056717D01*
X0099743Y00567D01*
Y0056689D01*
Y005668D01*
Y0056678D01*
X0099741Y0056635D01*
X0099739Y0056594D01*
X0099733Y0056557D01*
X0099728Y0056522D01*
X0099719Y0056491D01*
X0099711Y0056461D01*
X0099702Y0056433D01*
X0099693Y0056411D01*
X0099683Y0056389D01*
X0099674Y005637D01*
X0099665Y0056356D01*
X0099658Y0056343D01*
X0099652Y0056333D01*
X0099646Y0056326D01*
X0099645Y0056322D01*
X0099643Y005632D01*
X0099624Y00563D01*
X0099604Y0056281D01*
X0099582Y0056265D01*
X0099561Y005625D01*
X0099539Y0056239D01*
X0099519Y005623D01*
X009948Y0056215D01*
X0099445Y0056206D01*
X009943Y0056204D01*
X0099417Y0056202D01*
X0099406Y00562D01*
X0099391D01*
X0099363Y0056202D01*
X0099337Y0056206D01*
X0099311Y0056211D01*
X0099287Y0056218D01*
X0099245Y0056239D01*
X0099208Y0056261D01*
X0099193Y0056272D01*
X0099178Y0056281D01*
X0099167Y0056293D01*
X0099158Y0056302D01*
X0099148Y0056309D01*
X0099143Y0056315D01*
X0099141Y0056318D01*
X0099139Y005632D01*
X0099121Y0056344D01*
X0099106Y005637D01*
X0099093Y0056398D01*
X0099082Y0056428D01*
X0099063Y0056489D01*
X0099052Y0056548D01*
X0099046Y0056576D01*
X0099045Y0056604D01*
X0099043Y0056626D01*
X0099041Y0056646D01*
X0099039Y0056663D01*
Y0056676D01*
Y0056685D01*
Y0056687D01*
X0099041Y0056728D01*
X0099043Y0056767D01*
X0099048Y0056804D01*
X0099056Y0056837D01*
X0099063Y0056868D01*
X0099071Y0056898D01*
X009908Y0056924D01*
X0099089Y0056946D01*
X00991Y0056967D01*
X0099109Y0056985D01*
X0099117Y0057D01*
X0099124Y0057013D01*
X0099132Y0057022D01*
X0099137Y005703D01*
X0099139Y0057033D01*
X0099141Y0057035D01*
X0099159Y0057057D01*
X009918Y0057076D01*
X00992Y0057092D01*
X0099222Y0057105D01*
X0099243Y0057118D01*
X0099263Y0057128D01*
X0099304Y0057142D01*
X0099337Y0057152D01*
X0099354Y0057154D01*
X0099365Y0057155D01*
X0099376Y0057157D01*
X0099391D01*
X0099419Y0057155D01*
D02*
G37*
G36*
X0097545Y0056D02*
X0096721D01*
Y0056089D01*
X0097545D01*
Y0056D01*
D02*
G37*
G36*
X0082821Y0092843D02*
X0082798Y0092835D01*
X008278Y0092824D01*
X0082761Y0092806D01*
X008275Y009278D01*
X0082747Y0092746D01*
Y009285D01*
X0082835D01*
X0082821Y0092843D01*
D02*
G37*
G36*
X008275Y0092724D02*
X0082754Y0092709D01*
X0082761Y0092694D01*
X0082772Y009268D01*
X0082787Y0092665D01*
X0082809Y009265D01*
X0084339Y0091798D01*
X0082854D01*
X008285D01*
X0082835D01*
X0082821Y0091791D01*
X0082798Y0091783D01*
X008278Y0091772D01*
X0082761Y0091754D01*
X008275Y0091728D01*
X0082747Y0091695D01*
Y0092735D01*
X008275Y0092724D01*
D02*
G37*
G36*
X008485Y009278D02*
Y009285D01*
X008485D01*
Y0090113D01*
X0082747D01*
Y0090113D01*
X0082747D01*
Y0090202D01*
X008275Y0090187D01*
X0082761Y0090165D01*
X0082772Y0090147D01*
X0082791Y0090128D01*
X0082817Y0090117D01*
X0082854Y0090113D01*
X0082869D01*
X0082887Y0090117D01*
X0082906Y0090128D01*
X0082924Y0090139D01*
X0082943Y0090158D01*
X0082954Y0090184D01*
X0082958Y0090221D01*
Y0090661D01*
X0082961Y0090687D01*
X0082969Y0090717D01*
X008298Y0090754D01*
X0082998Y0090791D01*
X0083021Y0090828D01*
X008305Y0090865D01*
X0083054Y0090869D01*
X0083065Y009088D01*
X0083087Y0090895D01*
X0083113Y0090909D01*
X0083146Y0090924D01*
X0083184Y0090939D01*
X0083228Y009095D01*
X0083276Y0090954D01*
X0084324D01*
X0084332D01*
X0084346D01*
X0084372Y009095D01*
X0084402Y0090943D01*
X0084439Y0090932D01*
X0084476Y0090917D01*
X0084513Y0090895D01*
X008455Y0090865D01*
X0084554Y0090861D01*
X0084565Y0090847D01*
X008458Y0090828D01*
X0084594Y0090802D01*
X0084609Y0090769D01*
X0084624Y0090732D01*
X0084635Y0090687D01*
X0084639Y0090639D01*
Y0090202D01*
X0084643Y0090187D01*
X0084654Y0090165D01*
X0084665Y0090147D01*
X0084683Y0090128D01*
X0084709Y0090117D01*
X0084746Y0090113D01*
X0084761D01*
X008478Y0090117D01*
X0084798Y0090128D01*
X0084817Y0090139D01*
X0084835Y0090158D01*
X0084846Y0090184D01*
X008485Y0090221D01*
Y0090128D01*
Y0090661D01*
X0084846Y0090676D01*
X0084843Y0090717D01*
X0084831Y0090769D01*
X0084813Y0090828D01*
X0084787Y0090887D01*
X008475Y0090954D01*
X0084698Y0091013D01*
X0084691Y0091021D01*
X0084669Y0091035D01*
X0084639Y0091061D01*
X0084594Y0091087D01*
X0084539Y0091117D01*
X0084476Y0091143D01*
X0084402Y0091158D01*
X0084324Y0091165D01*
X008485D01*
X008325D01*
X0083235Y0091161D01*
X0083195Y0091158D01*
X0083146Y0091146D01*
X0083087Y0091128D01*
X0083024Y0091102D01*
X0082961Y0091065D01*
X0082902Y0091013D01*
X0082895Y0091006D01*
X0082876Y0090984D01*
X0082854Y0090954D01*
X0082824Y0090909D01*
X0082795Y0090854D01*
X0082772Y0090791D01*
X0082754Y0090717D01*
X0082747Y0090639D01*
Y0091165D01*
X0083074D01*
X0082747D01*
Y0091587D01*
X0082747D01*
Y0091676D01*
X008275Y0091661D01*
X0082761Y0091639D01*
X0082772Y009162D01*
X0082791Y0091602D01*
X0082817Y0091591D01*
X0082854Y0091587D01*
X0084761D01*
X008478Y0091591D01*
X0084798Y0091602D01*
X0084817Y0091613D01*
X0084835Y0091632D01*
X0084846Y0091658D01*
X008485Y0091695D01*
Y0091676D01*
Y0091695D01*
Y0091706D01*
X0084843Y0091728D01*
X0084828Y0091761D01*
X0084817Y0091776D01*
X0084798Y0091787D01*
X0083258Y0092639D01*
X0084746D01*
X008475D01*
X0084761D01*
X008478Y0092643D01*
X0084798Y0092654D01*
X0084817Y0092665D01*
X0084835Y0092683D01*
X0084846Y0092709D01*
X008485Y0092746D01*
Y0092761D01*
X0084843Y009278D01*
X0084835Y0092798D01*
X0084824Y0092817D01*
X0084806Y0092835D01*
X008478Y0092846D01*
X0084746Y009285D01*
X008485D01*
Y009278D01*
D02*
G37*
G36*
X008785Y0092761D02*
X0087843Y009278D01*
X0087835Y0092798D01*
X0087824Y0092817D01*
X0087806Y0092835D01*
X008778Y0092846D01*
X0087746Y009285D01*
X008785D01*
Y0092761D01*
D02*
G37*
G36*
X0085835Y009285D02*
X0085821Y0092843D01*
X0085798Y0092835D01*
X008578Y0092824D01*
X0085761Y0092806D01*
X008575Y009278D01*
X0085747Y0092746D01*
Y009285D01*
X0085803D01*
X0085747D01*
D01*
X008785D01*
X0085835D01*
D02*
G37*
G36*
X008575Y0092724D02*
X0085754Y0092709D01*
X0085761Y0092694D01*
X0085772Y009268D01*
X0085787Y0092665D01*
X0085809Y009265D01*
X0087339Y0091798D01*
X0085854D01*
X008585D01*
X0085835D01*
X0085821Y0091791D01*
X0085798Y0091783D01*
X008578Y0091772D01*
X0085761Y0091754D01*
X008575Y0091728D01*
X0085747Y0091695D01*
Y0092735D01*
X008575Y0092724D01*
D02*
G37*
G36*
X008785Y0089902D02*
X008785D01*
Y0090561D01*
X0087846Y009058D01*
X0087843Y0090602D01*
X0087839Y0090628D01*
X0087828Y0090691D01*
X0087806Y0090761D01*
X0087772Y0090835D01*
X0087754Y0090872D01*
X0087728Y0090909D01*
X0087702Y0090947D01*
X0087669Y0090984D01*
X0087665Y0090987D01*
X0087661Y0090991D01*
X008765Y0090998D01*
X0087635Y0091013D01*
X0087617Y0091024D01*
X0087594Y0091039D01*
X0087543Y0091072D01*
X0087476Y0091106D01*
X0087402Y0091135D01*
X0087317Y0091158D01*
X0087269Y0091161D01*
X008722Y0091165D01*
X008785D01*
X0086354D01*
X0086335Y0091161D01*
X0086313Y0091158D01*
X0086287Y0091154D01*
X0086224Y0091143D01*
X0086154Y0091121D01*
X008608Y0091087D01*
X0086043Y0091069D01*
X0086006Y0091043D01*
X0085969Y0091017D01*
X0085932Y0090984D01*
X0085928Y009098D01*
X0085924Y0090976D01*
X0085913Y0090965D01*
X0085902Y009095D01*
X0085887Y0090932D01*
X0085872Y0090909D01*
X0085839Y0090858D01*
X0085806Y0090791D01*
X0085776Y0090717D01*
X0085754Y0090632D01*
X008575Y0090584D01*
X0085747Y0090535D01*
Y0091165D01*
X0086263D01*
X0085747D01*
Y0091587D01*
X0085747D01*
Y0091676D01*
X008575Y0091661D01*
X0085761Y0091639D01*
X0085772Y009162D01*
X0085791Y0091602D01*
X0085817Y0091591D01*
X0085854Y0091587D01*
X0087761D01*
X008778Y0091591D01*
X0087798Y0091602D01*
X0087817Y0091613D01*
X0087835Y0091632D01*
X0087846Y0091658D01*
X008785Y0091695D01*
Y0091613D01*
Y0091728D01*
Y0091706D01*
X0087843Y0091728D01*
X0087828Y0091761D01*
X0087817Y0091776D01*
X0087798Y0091787D01*
X0086258Y0092639D01*
X0087746D01*
X008775D01*
X0087761D01*
X008778Y0092643D01*
X0087798Y0092654D01*
X0087817Y0092665D01*
X0087835Y0092683D01*
X0087846Y0092709D01*
X008785Y0092746D01*
Y009285D01*
X008785D01*
Y0089902D01*
D02*
G37*
G36*
X008725Y009095D02*
X0087283Y0090947D01*
X0087324Y0090939D01*
X0087372Y0090924D01*
X008742Y0090902D01*
X0087472Y0090876D01*
X008752Y0090835D01*
X0087524Y0090828D01*
X0087539Y0090813D01*
X0087557Y0090787D01*
X008758Y009075D01*
X0087602Y0090709D01*
X008762Y0090658D01*
X0087635Y0090598D01*
X0087639Y0090535D01*
Y0090528D01*
X0087635Y0090506D01*
X0087632Y0090472D01*
X0087624Y0090432D01*
X0087609Y0090384D01*
X0087587Y0090335D01*
X0087561Y0090284D01*
X008752Y0090235D01*
X0087513Y0090232D01*
X0087498Y0090217D01*
X0087472Y0090198D01*
X0087435Y0090173D01*
X0087394Y009015D01*
X0087343Y0090132D01*
X0087283Y0090117D01*
X008722Y0090113D01*
X008638D01*
X0086376D01*
X0086372D01*
X008635D01*
X0086317Y0090121D01*
X0086276Y0090128D01*
X0086228Y0090143D01*
X008618Y0090165D01*
X0086128Y0090195D01*
X008608Y0090235D01*
X0086076Y0090239D01*
X0086061Y0090258D01*
X0086043Y0090284D01*
X0086017Y0090317D01*
X0085995Y0090361D01*
X0085976Y0090413D01*
X0085961Y0090472D01*
X0085958Y0090535D01*
Y0090565D01*
X0085965Y0090598D01*
X0085972Y0090639D01*
X0085987Y0090687D01*
X0086009Y0090735D01*
X0086039Y0090787D01*
X008608Y0090835D01*
X0086084Y0090839D01*
X0086102Y0090854D01*
X0086128Y0090872D01*
X0086161Y0090895D01*
X0086206Y0090917D01*
X0086258Y0090935D01*
X0086317Y009095D01*
X008638Y0090954D01*
X008722D01*
X0087224D01*
X0087228D01*
X008725Y009095D01*
D02*
G37*
G36*
X008785Y0089902D02*
X0087246D01*
X0087265Y0089906D01*
X0087287D01*
X0087313Y0089913D01*
X0087376Y0089924D01*
X0087446Y0089947D01*
X008752Y008998D01*
X0087557Y0090002D01*
X0087594Y0090024D01*
X0087632Y0090054D01*
X0087669Y0090087D01*
X0087672Y0090091D01*
X0087676Y0090095D01*
X0087683Y0090106D01*
X0087698Y0090121D01*
X0087709Y0090139D01*
X0087724Y0090161D01*
X0087757Y0090213D01*
X0087791Y0090276D01*
X008782Y0090354D01*
X0087843Y0090439D01*
X0087846Y0090487D01*
X008785Y0090535D01*
Y0089902D01*
D02*
G37*
G36*
X008575Y0090491D02*
Y0090469D01*
X0085758Y0090443D01*
X0085769Y009038D01*
X0085791Y009031D01*
X0085824Y0090235D01*
X0085846Y0090198D01*
X0085869Y0090161D01*
X0085898Y0090124D01*
X0085932Y0090087D01*
X0085935Y0090084D01*
X0085939Y009008D01*
X008595Y0090069D01*
X0085965Y0090058D01*
X0085984Y0090043D01*
X0086006Y0090028D01*
X0086058Y0089995D01*
X0086121Y0089961D01*
X0086198Y0089932D01*
X0086283Y008991D01*
X0086332Y0089906D01*
X008638Y0089902D01*
X0085747D01*
Y0090509D01*
X008575Y0090491D01*
D02*
G37*
G36*
X0083238Y0063388D02*
X0083355Y0063505D01*
X0083434Y0063426D01*
X0083317Y0063308D01*
X0083435Y006319D01*
X0083354Y0063109D01*
X0083236Y0063227D01*
X0083119Y006311D01*
X008304Y0063189D01*
X0083157Y0063307D01*
X0083038Y0063426D01*
X0083119Y0063507D01*
X0083238Y0063388D01*
D02*
G37*
G36*
X0089238Y0057388D02*
X0089355Y0057505D01*
X0089434Y0057426D01*
X0089317Y0057308D01*
X0089435Y005719D01*
X0089354Y0057109D01*
X0089236Y0057227D01*
X0089119Y005711D01*
X008904Y0057189D01*
X0089157Y0057307D01*
X0089038Y0057426D01*
X0089119Y0057507D01*
X0089238Y0057388D01*
D02*
G37*
%LPC*%
G36*
X0100185Y005703D02*
X0100167D01*
X010015Y0057026D01*
X0100122Y0057017D01*
X0100098Y0057002D01*
X0100078Y0056987D01*
X0100061Y0056972D01*
X0100048Y0056957D01*
X0100039Y0056948D01*
X0100037Y0056946D01*
Y0056944D01*
X0100026Y0056928D01*
X0100017Y0056909D01*
X0100002Y0056867D01*
X0099993Y0056824D01*
X0099985Y005678D01*
X0099982Y0056741D01*
X009998Y0056724D01*
X0099978Y0056709D01*
Y0056696D01*
Y0056687D01*
Y0056681D01*
Y005668D01*
Y0056648D01*
X009998Y0056618D01*
X0099983Y0056591D01*
X0099987Y0056565D01*
X0099993Y0056541D01*
X0099996Y0056518D01*
X0100002Y0056498D01*
X0100007Y0056481D01*
X0100015Y0056467D01*
X010002Y0056452D01*
X0100024Y0056441D01*
X010003Y0056431D01*
X0100033Y0056424D01*
X0100037Y0056418D01*
X0100039Y0056417D01*
Y0056415D01*
X010005Y00564D01*
X0100063Y0056387D01*
X0100087Y0056365D01*
X0100111Y005635D01*
X0100132Y0056339D01*
X0100152Y0056333D01*
X0100167Y005633D01*
X0100176Y0056328D01*
X010018D01*
X01002Y005633D01*
X010022Y0056333D01*
X0100239Y0056339D01*
X0100254Y0056346D01*
X0100267Y0056354D01*
X0100276Y0056359D01*
X0100283Y0056363D01*
X0100285Y0056365D01*
X0100302Y005638D01*
X0100317Y0056398D01*
X0100328Y0056415D01*
X0100339Y0056433D01*
X0100346Y0056448D01*
X0100352Y0056461D01*
X0100356Y0056468D01*
X0100357Y0056472D01*
X0100367Y0056502D01*
X0100372Y0056535D01*
X0100378Y005657D01*
X010038Y0056605D01*
X0100382Y0056637D01*
X0100383Y005665D01*
Y0056661D01*
Y0056672D01*
Y005668D01*
Y0056683D01*
Y0056685D01*
Y0056715D01*
X0100382Y0056744D01*
X0100378Y005677D01*
X0100374Y0056796D01*
X0100369Y0056818D01*
X0100365Y0056839D01*
X0100359Y0056859D01*
X0100352Y0056876D01*
X0100346Y0056891D01*
X0100341Y0056904D01*
X0100337Y0056915D01*
X0100332Y0056924D01*
X0100328Y0056931D01*
X0100324Y0056937D01*
X0100322Y0056939D01*
Y0056941D01*
X0100311Y0056955D01*
X0100298Y005697D01*
X0100274Y0056992D01*
X010025Y0057007D01*
X010023Y0057018D01*
X0100209Y0057026D01*
X0100195Y0057028D01*
X0100185Y005703D01*
D02*
G37*
G36*
X0096156Y005668D02*
Y0056622D01*
X0096158Y0056583D01*
X009616Y0056548D01*
X0096165Y0056518D01*
X0096169Y0056494D01*
X0096175Y0056474D01*
X009618Y0056461D01*
X0096182Y0056454D01*
X0096184Y005645D01*
X0096195Y005643D01*
X0096208Y0056411D01*
X0096223Y0056396D01*
X0096236Y0056381D01*
X0096249Y0056372D01*
X0096258Y0056363D01*
X0096265Y0056359D01*
X0096267Y0056357D01*
X0096288Y0056346D01*
X009631Y0056337D01*
X009633Y0056331D01*
X009635Y0056326D01*
X0096367Y0056324D01*
X009638Y0056322D01*
X0096391D01*
X0096417Y0056324D01*
X0096439Y0056328D01*
X0096458Y0056335D01*
X0096475Y0056343D01*
X0096487Y0056348D01*
X0096497Y0056356D01*
X0096502Y0056359D01*
X0096504Y0056361D01*
X0096517Y0056376D01*
X0096526Y0056394D01*
X0096534Y0056411D01*
X0096537Y0056428D01*
X0096541Y0056443D01*
X0096543Y0056454D01*
Y0056461D01*
Y0056465D01*
X0096541Y0056493D01*
X0096537Y0056506D01*
X0096534Y0056517D01*
X0096532Y0056524D01*
X0096528Y0056531D01*
X0096526Y0056535D01*
Y0056537D01*
X0096512Y0056559D01*
X0096495Y0056574D01*
X0096487Y005658D01*
X0096482Y0056583D01*
X0096478Y0056587D01*
X0096476D01*
X0096462Y0056594D01*
X0096445Y00566D01*
X0096408Y0056611D01*
X0096391Y0056615D01*
X0096376Y0056618D01*
X0096367Y005662D01*
X0096363D01*
X0096315Y005663D01*
X0096273Y0056641D01*
X0096238Y005665D01*
X0096208Y0056659D01*
X0096186Y0056667D01*
X0096169Y0056674D01*
X009616Y0056678D01*
X0096156Y005668D01*
D02*
G37*
G36*
X0101874Y0057346D02*
X0101546D01*
X0101507Y0057344D01*
X0101474Y0057337D01*
X0101444Y0057329D01*
X010142Y0057318D01*
X0101404Y0057309D01*
X0101391Y00573D01*
X0101381Y0057292D01*
X010138Y0057291D01*
X0101361Y0057268D01*
X0101346Y0057244D01*
X0101337Y0057218D01*
X010133Y0057194D01*
X0101326Y0057172D01*
X0101322Y0057155D01*
Y0057148D01*
Y0057142D01*
Y0057141D01*
Y0057139D01*
X0101324Y0057115D01*
X0101326Y0057092D01*
X0101331Y0057072D01*
X0101337Y0057055D01*
X0101343Y0057041D01*
X0101346Y0057031D01*
X010135Y0057024D01*
X0101352Y0057022D01*
X0101363Y0057005D01*
X0101376Y0056989D01*
X0101391Y0056978D01*
X0101402Y0056967D01*
X0101415Y0056959D01*
X0101422Y0056952D01*
X010143Y005695D01*
X0101431Y0056948D01*
X0101452Y0056941D01*
X0101476Y0056935D01*
X01015Y0056931D01*
X0101524Y005693D01*
X0101546Y0056928D01*
X0101563Y0056926D01*
X0101874D01*
Y0057346D01*
D02*
G37*
G36*
X0098332D02*
X0098004Y0057346D01*
X0097965Y0057344D01*
X0097932Y0057337D01*
X0097902Y0057329D01*
X0097878Y0057318D01*
X0097861Y0057309D01*
X0097848Y00573D01*
X0097839Y0057292D01*
X0097837Y0057291D01*
X0097819Y0057268D01*
X0097804Y0057244D01*
X0097795Y0057218D01*
X0097787Y0057194D01*
X0097784Y0057172D01*
X009778Y0057155D01*
Y0057148D01*
Y0057142D01*
Y0057141D01*
Y0057139D01*
X0097782Y0057115D01*
X0097784Y0057092D01*
X0097789Y0057072D01*
X0097795Y0057055D01*
X00978Y0057041D01*
X0097804Y0057031D01*
X0097808Y0057024D01*
X009781Y0057022D01*
X0097821Y0057005D01*
X0097834Y0056989D01*
X0097848Y0056978D01*
X009786Y0056967D01*
X0097873Y0056959D01*
X009788Y0056952D01*
X0097887Y005695D01*
X0097889Y0056948D01*
X009791Y0056941D01*
X0097934Y0056935D01*
X0097958Y0056931D01*
X0097982Y005693D01*
X0098004Y0056928D01*
X0098021Y0056926D01*
X0098332Y0056926D01*
Y0057346D01*
D02*
G37*
G36*
X0099398Y005703D02*
X0099378D01*
X0099361Y0057026D01*
X009933Y0057017D01*
X0099302Y0057002D01*
X009928Y0056987D01*
X0099261Y005697D01*
X0099246Y0056955D01*
X0099239Y0056946D01*
X0099235Y0056944D01*
Y0056942D01*
X0099224Y0056926D01*
X0099213Y0056905D01*
X0099196Y0056865D01*
X0099185Y005682D01*
X0099176Y0056778D01*
X0099172Y0056739D01*
X0099171Y0056722D01*
Y0056707D01*
X0099169Y0056694D01*
Y0056685D01*
Y005668D01*
Y0056678D01*
Y0056646D01*
X0099171Y0056617D01*
X0099174Y0056589D01*
X0099178Y0056563D01*
X0099184Y0056539D01*
X0099189Y0056517D01*
X0099195Y0056498D01*
X00992Y005648D01*
X0099208Y0056465D01*
X0099213Y0056452D01*
X0099219Y0056441D01*
X0099222Y0056431D01*
X0099228Y0056424D01*
X009923Y0056418D01*
X0099233Y0056417D01*
Y0056415D01*
X0099246Y00564D01*
X0099259Y0056387D01*
X0099285Y0056365D01*
X0099311Y005635D01*
X0099335Y0056339D01*
X0099358Y0056333D01*
X0099374Y005633D01*
X0099385Y0056328D01*
X0099389D01*
X0099406Y005633D01*
X0099422Y0056331D01*
X0099454Y0056341D01*
X0099482Y0056356D01*
X0099504Y005637D01*
X0099522Y0056385D01*
X0099537Y00564D01*
X0099545Y0056409D01*
X0099548Y0056413D01*
X0099559Y005643D01*
X0099571Y005645D01*
X0099585Y0056491D01*
X0099596Y0056535D01*
X0099606Y0056578D01*
X0099609Y0056617D01*
X0099611Y0056633D01*
Y0056648D01*
X0099613Y0056661D01*
Y005667D01*
Y0056676D01*
Y0056678D01*
Y0056709D01*
X0099611Y0056739D01*
X0099608Y0056767D01*
X0099604Y0056793D01*
X0099598Y0056817D01*
X0099593Y0056839D01*
X0099587Y0056857D01*
X0099582Y0056876D01*
X0099576Y0056891D01*
X0099571Y0056904D01*
X0099565Y0056915D01*
X0099559Y0056924D01*
X0099556Y0056931D01*
X0099552Y0056937D01*
X009955Y0056939D01*
Y0056941D01*
X0099537Y0056955D01*
X0099524Y005697D01*
X0099498Y0056992D01*
X0099472Y0057007D01*
X0099448Y0057018D01*
X0099426Y0057026D01*
X0099409Y0057028D01*
X0099398Y005703D01*
D02*
G37*
G36*
X008485Y0092746D02*
Y0092735D01*
D01*
Y0092746D01*
D02*
G37*
G36*
Y0092709D02*
D01*
D01*
D01*
D02*
G37*
G36*
Y0091798D02*
D01*
D01*
D01*
D02*
G37*
G36*
Y0091776D02*
Y0091772D01*
D01*
Y0091776D01*
D02*
G37*
%LPD*%
D33*
X00827Y0089925D02*
X0084875D01*
X00827Y009D02*
X0084875D01*
X0085702Y0089873D02*
Y0092859D01*
X00827Y0090075D02*
X0084875D01*
X0084896Y0089889D02*
Y0092875D01*
X00827Y0089859D02*
X0087898D01*
X00827Y0092897D02*
X0087898D01*
X00827Y0089859D02*
Y0092897D01*
X0087898Y0089859D02*
Y0092897D01*
X0082253Y0061159D02*
X0084091Y0062997D01*
X0077374Y0066038D02*
X0082253Y0061159D01*
X0077374Y0066038D02*
X0079212Y0067876D01*
X0084091Y0062997D01*
X0088253Y0055159D02*
X0090091Y0056997D01*
X0083374Y0060038D02*
X0088253Y0055159D01*
X0083374Y0060038D02*
X0085212Y0061876D01*
X0090091Y0056997D01*
X009425Y0053D02*
Y0097D01*
X009575Y0053D02*
Y0097D01*
D34*
X0081835Y0084159D02*
X0081835Y0086159D01*
X0088835D01*
Y0084159D02*
Y0086159D01*
X0081835Y0084159D02*
X0088835D01*
D35*
X0089Y00718D02*
Y00763D01*
X00884D02*
X0089D01*
X00884Y00718D02*
X0089D01*
X0085D02*
X00856D01*
X0085Y00763D02*
X00856D01*
X0085Y00718D02*
Y00763D01*
Y00735D02*
X0089D01*
X009641Y0090121D02*
X010311D01*
Y0093921D01*
X009641D02*
X010311D01*
X009641Y0090121D02*
Y0093921D01*
X0080104Y00859D02*
X0079937Y0086067D01*
Y00864D01*
X0080104Y0086567D01*
X008027D01*
X0080437Y00864D01*
Y0086067D01*
X0080603Y00859D01*
X008077D01*
X0080937Y0086067D01*
Y00864D01*
X008077Y0086567D01*
X0079937Y0085567D02*
X0080937D01*
X0080603Y0085234D01*
X0080937Y0084901D01*
X0079937D01*
X0080937Y0083901D02*
Y0084567D01*
X008027Y0083901D01*
X0080104D01*
X0079937Y0084068D01*
Y0084401D01*
X0080104Y0084567D01*
X0088333Y0069963D02*
Y0069297D01*
X0088Y0068963D01*
X0087666Y0069297D01*
Y0069963D01*
X0087333D02*
Y0068963D01*
X0086833D01*
X0086667Y006913D01*
Y0069797D01*
X0086833Y0069963D01*
X0087333D01*
X0086334Y0069797D02*
X0086167Y0069963D01*
X0085834D01*
X0085667Y0069797D01*
Y006963D01*
X0085834Y0069463D01*
X0086D01*
X0085834D01*
X0085667Y0069297D01*
Y006913D01*
X0085834Y0068963D01*
X0086167D01*
X0086334Y006913D01*
X0085333Y00665D02*
Y0065833D01*
X0085Y00655D01*
X0084666Y0065833D01*
Y00665D01*
X0084333D02*
Y00655D01*
X0083833D01*
X0083667Y0065667D01*
Y0066333D01*
X0083833Y00665D01*
X0084333D01*
X0082667Y00655D02*
X0083334D01*
X0082667Y0066167D01*
Y0066333D01*
X0082834Y00665D01*
X0083167D01*
X0083334Y0066333D01*
X0091166Y00605D02*
Y0059833D01*
X0090833Y00595D01*
X00905Y0059833D01*
Y00605D01*
X0090167D02*
Y00595D01*
X0089667D01*
X00895Y0059667D01*
Y0060333D01*
X0089667Y00605D01*
X0090167D01*
X0089167Y00595D02*
X0088834D01*
X0089D01*
Y00605D01*
X0089167Y0060333D01*
X0100275Y009568D02*
X0100942D01*
Y009518D01*
X0100608D01*
X0100942D01*
Y009468D01*
X0099942Y009568D02*
Y0094847D01*
X0099775Y009468D01*
X0099442D01*
X0099275Y0094847D01*
Y009568D01*
X0098942Y009468D02*
X0098609D01*
X0098776D01*
Y009568D01*
X0098942Y0095513D01*
M02*
