G04*
G04 #@! TF.GenerationSoftware,Altium Limited,Altium Designer,20.1.8 (145)*
G04*
G04 Layer_Color=8388736*
%FSTAX43Y43*%
%MOMM*%
G71*
G04*
G04 #@! TF.SameCoordinates,E6AD84FA-A84C-469F-AD0F-9F455A438001*
G04*
G04*
G04 #@! TF.FilePolarity,Negative*
G04*
G01*
G75*
%ADD10C,3.203*%
%ADD11C,2.203*%
%ADD12C,1.503*%
%ADD13C,2.403*%
%ADD14C,2.453*%
%ADD15C,8.203*%
D10*
X01115Y0067D02*
D03*
X00785Y0083D02*
D03*
D11*
X0104289Y0081095D02*
D03*
X0108789D02*
D03*
X0104289Y0087595D02*
D03*
X0108789D02*
D03*
D12*
X009325Y0085D02*
D03*
Y0083D02*
D03*
Y0081D02*
D03*
Y0079D02*
D03*
Y0077D02*
D03*
Y0075D02*
D03*
Y0073D02*
D03*
Y0071D02*
D03*
Y0069D02*
D03*
Y0067D02*
D03*
Y0065D02*
D03*
X009125Y0081D02*
D03*
Y0083D02*
D03*
Y0085D02*
D03*
Y0073D02*
D03*
Y0075D02*
D03*
Y0077D02*
D03*
Y0079D02*
D03*
Y0065D02*
D03*
Y0067D02*
D03*
Y0069D02*
D03*
Y0071D02*
D03*
X01047Y0067D02*
D03*
Y00645D02*
D03*
Y0062D02*
D03*
X0108Y0067D02*
D03*
Y00645D02*
D03*
Y0062D02*
D03*
D13*
X00984Y00655D02*
D03*
Y006931D02*
D03*
Y007312D02*
D03*
Y007693D02*
D03*
Y008074D02*
D03*
Y008455D02*
D03*
D14*
X008075Y00645D02*
D03*
X008675Y00585D02*
D03*
D15*
X01115Y0075D02*
D03*
X00785D02*
D03*
M02*
