G04*
G04 #@! TF.GenerationSoftware,Altium Limited,Altium Designer,20.1.8 (145)*
G04*
G04 Layer_Color=8388736*
%FSTAX43Y43*%
%MOMM*%
G71*
G04*
G04 #@! TF.SameCoordinates,48CEEDD8-FEA7-46FE-8C49-AB3D6DD9764B*
G04*
G04*
G04 #@! TF.FilePolarity,Negative*
G04*
G01*
G75*
G04:AMPARAMS|DCode=14|XSize=0.85mm|YSize=0.7mm|CornerRadius=0.2mm|HoleSize=0mm|Usage=FLASHONLY|Rotation=0.000|XOffset=0mm|YOffset=0mm|HoleType=Round|Shape=RoundedRectangle|*
%AMROUNDEDRECTD14*
21,1,0.850,0.300,0,0,0.0*
21,1,0.450,0.700,0,0,0.0*
1,1,0.400,0.225,-0.150*
1,1,0.400,-0.225,-0.150*
1,1,0.400,-0.225,0.150*
1,1,0.400,0.225,0.150*
%
%ADD14ROUNDEDRECTD14*%
G04:AMPARAMS|DCode=15|XSize=0.85mm|YSize=0.7mm|CornerRadius=0.2mm|HoleSize=0mm|Usage=FLASHONLY|Rotation=90.000|XOffset=0mm|YOffset=0mm|HoleType=Round|Shape=RoundedRectangle|*
%AMROUNDEDRECTD15*
21,1,0.850,0.300,0,0,90.0*
21,1,0.450,0.700,0,0,90.0*
1,1,0.400,0.150,0.225*
1,1,0.400,0.150,-0.225*
1,1,0.400,-0.150,-0.225*
1,1,0.400,-0.150,0.225*
%
%ADD15ROUNDEDRECTD15*%
G04:AMPARAMS|DCode=16|XSize=0.5mm|YSize=0.85mm|CornerRadius=0.15mm|HoleSize=0mm|Usage=FLASHONLY|Rotation=180.000|XOffset=0mm|YOffset=0mm|HoleType=Round|Shape=RoundedRectangle|*
%AMROUNDEDRECTD16*
21,1,0.500,0.550,0,0,180.0*
21,1,0.200,0.850,0,0,180.0*
1,1,0.300,-0.100,0.275*
1,1,0.300,0.100,0.275*
1,1,0.300,0.100,-0.275*
1,1,0.300,-0.100,-0.275*
%
%ADD16ROUNDEDRECTD16*%
%ADD17R,0.950X0.900*%
%ADD18R,0.900X0.950*%
%ADD19O,0.350X0.900*%
%ADD20O,0.900X0.350*%
G04:AMPARAMS|DCode=21|XSize=4.7mm|YSize=4.7mm|CornerRadius=0.28mm|HoleSize=0mm|Usage=FLASHONLY|Rotation=90.000|XOffset=0mm|YOffset=0mm|HoleType=Round|Shape=RoundedRectangle|*
%AMROUNDEDRECTD21*
21,1,4.700,4.140,0,0,90.0*
21,1,4.140,4.700,0,0,90.0*
1,1,0.560,2.070,2.070*
1,1,0.560,2.070,-2.070*
1,1,0.560,-2.070,-2.070*
1,1,0.560,-2.070,2.070*
%
%ADD21ROUNDEDRECTD21*%
G04:AMPARAMS|DCode=22|XSize=2.5mm|YSize=2.1mm|CornerRadius=0.55mm|HoleSize=0mm|Usage=FLASHONLY|Rotation=180.000|XOffset=0mm|YOffset=0mm|HoleType=Round|Shape=RoundedRectangle|*
%AMROUNDEDRECTD22*
21,1,2.500,1.000,0,0,180.0*
21,1,1.400,2.100,0,0,180.0*
1,1,1.100,-0.700,0.500*
1,1,1.100,0.700,0.500*
1,1,1.100,0.700,-0.500*
1,1,1.100,-0.700,-0.500*
%
%ADD22ROUNDEDRECTD22*%
G04:AMPARAMS|DCode=23|XSize=4.7mm|YSize=2.5mm|CornerRadius=0.65mm|HoleSize=0mm|Usage=FLASHONLY|Rotation=270.000|XOffset=0mm|YOffset=0mm|HoleType=Round|Shape=RoundedRectangle|*
%AMROUNDEDRECTD23*
21,1,4.700,1.200,0,0,270.0*
21,1,3.400,2.500,0,0,270.0*
1,1,1.300,-0.600,-1.700*
1,1,1.300,-0.600,1.700*
1,1,1.300,0.600,1.700*
1,1,1.300,0.600,-1.700*
%
%ADD23ROUNDEDRECTD23*%
%ADD24C,1.100*%
D14*
X0109506Y0098422D02*
D03*
Y0099922D02*
D03*
X0085412Y0111219D02*
D03*
Y0109719D02*
D03*
X0099112Y0100819D02*
D03*
Y0099319D02*
D03*
X0094012Y0103219D02*
D03*
Y0104719D02*
D03*
Y0099619D02*
D03*
Y0098119D02*
D03*
D15*
X0101762Y0107137D02*
D03*
X0103262D02*
D03*
X0101762Y0105562D02*
D03*
X0103262D02*
D03*
X0101803Y0093894D02*
D03*
X0103303D02*
D03*
X0101803Y0095394D02*
D03*
X0103303D02*
D03*
X0105862Y0095169D02*
D03*
X0104362D02*
D03*
D16*
X0099812Y0098419D02*
D03*
X0100462Y0096519D02*
D03*
X0099162D02*
D03*
D17*
X0088487Y0100669D02*
D03*
X0089937D02*
D03*
X0088487Y0102169D02*
D03*
X0089937D02*
D03*
X0110887Y0103669D02*
D03*
X0112337D02*
D03*
X0110887Y0101269D02*
D03*
X0112337D02*
D03*
X0099837Y0102169D02*
D03*
X0098387D02*
D03*
X0112337Y0102469D02*
D03*
X0110887D02*
D03*
D18*
X0111012Y0099094D02*
D03*
Y0097644D02*
D03*
X0112312D02*
D03*
Y0099094D02*
D03*
X0108712Y0096394D02*
D03*
Y0094944D02*
D03*
D19*
X0102808Y0097361D02*
D03*
X0103308D02*
D03*
X0103808D02*
D03*
X0104308D02*
D03*
X0104808D02*
D03*
X0105308D02*
D03*
X0105808D02*
D03*
X0106308D02*
D03*
X0106808D02*
D03*
X0107308D02*
D03*
Y0103361D02*
D03*
X0106808D02*
D03*
X0106308D02*
D03*
X0105808D02*
D03*
X0105308D02*
D03*
X0104808D02*
D03*
X0104308D02*
D03*
X0103808D02*
D03*
X0103308D02*
D03*
X0102808D02*
D03*
D20*
X0108058Y0098111D02*
D03*
Y0098611D02*
D03*
Y0099111D02*
D03*
Y0099611D02*
D03*
Y0100111D02*
D03*
Y0100611D02*
D03*
Y0101111D02*
D03*
Y0101611D02*
D03*
Y0102111D02*
D03*
Y0102611D02*
D03*
X0102058D02*
D03*
Y0102111D02*
D03*
Y0101611D02*
D03*
Y0101111D02*
D03*
Y0100611D02*
D03*
Y0100111D02*
D03*
Y0099611D02*
D03*
Y0099111D02*
D03*
Y0098611D02*
D03*
Y0098111D02*
D03*
D21*
X0105058Y0100361D02*
D03*
D22*
X0084512Y0098869D02*
D03*
Y0102869D02*
D03*
D23*
X0087962Y0106069D02*
D03*
X0091862D02*
D03*
X0087962Y0096869D02*
D03*
X0091862D02*
D03*
D24*
X0108718Y0106581D02*
D03*
Y0105311D02*
D03*
X0109988Y0106581D02*
D03*
Y0105311D02*
D03*
X0111258Y0106581D02*
D03*
Y0105311D02*
D03*
X0105912Y0109969D02*
D03*
Y0111239D02*
D03*
X0107182Y0109969D02*
D03*
Y0111239D02*
D03*
X0108452Y0109969D02*
D03*
Y0111239D02*
D03*
X0107267Y0093169D02*
D03*
Y0091899D02*
D03*
X0105997Y0093169D02*
D03*
Y0091899D02*
D03*
X0104727Y0093169D02*
D03*
Y0091899D02*
D03*
X0086912Y0109969D02*
D03*
Y0111239D02*
D03*
X0088182Y0109969D02*
D03*
Y0111239D02*
D03*
X0089452Y0109969D02*
D03*
Y0111239D02*
D03*
X0086932Y0093169D02*
D03*
Y0091899D02*
D03*
X0085662Y0093169D02*
D03*
Y0091899D02*
D03*
X0084392Y0093169D02*
D03*
Y0091899D02*
D03*
X0080766Y0106581D02*
D03*
Y0105311D02*
D03*
X0082036Y0106581D02*
D03*
Y0105311D02*
D03*
X0083306Y0106581D02*
D03*
Y0105311D02*
D03*
M02*
