G04*
G04 #@! TF.GenerationSoftware,Altium Limited,Altium Designer,20.1.8 (145)*
G04*
G04 Layer_Physical_Order=3*
G04 Layer_Color=16440176*
%FSTAX43Y43*%
%MOMM*%
G71*
G04*
G04 #@! TF.SameCoordinates,48CEEDD8-FEA7-46FE-8C49-AB3D6DD9764B*
G04*
G04*
G04 #@! TF.FilePolarity,Positive*
G04*
G01*
G75*
%ADD39C,0.600*%
G36*
X0113257Y0090824D02*
X0079767D01*
Y0112314D01*
X0113257D01*
Y0090824D01*
D02*
G37*
%LPC*%
G36*
X0108452Y0111945D02*
X0108269Y0111921D01*
X0108099Y011185D01*
X0107953Y0111738D01*
X0107895Y0111664D01*
X0107738D01*
X0107681Y0111738D01*
X0107535Y011185D01*
X0107365Y0111921D01*
X0107182Y0111945D01*
X0106999Y0111921D01*
X0106829Y011185D01*
X0106683Y0111738D01*
X0106625Y0111664D01*
X0106468D01*
X0106411Y0111738D01*
X0106265Y011185D01*
X0106095Y0111921D01*
X0105912Y0111945D01*
X0105729Y0111921D01*
X0105559Y011185D01*
X0105413Y0111738D01*
X01053Y0111592D01*
X010523Y0111422D01*
X0105206Y0111239D01*
X010523Y0111056D01*
X01053Y0110886D01*
X0105413Y011074D01*
X0105487Y0110682D01*
Y0110525D01*
X0105413Y0110468D01*
X01053Y0110322D01*
X010523Y0110152D01*
X0105206Y0109969D01*
X010523Y0109786D01*
X01053Y0109616D01*
X0105413Y010947D01*
X0105559Y0109357D01*
X0105729Y0109287D01*
X0105912Y0109263D01*
X0106095Y0109287D01*
X0106265Y0109357D01*
X0106411Y010947D01*
X0106468Y0109544D01*
X0106625D01*
X0106683Y010947D01*
X0106829Y0109357D01*
X0106999Y0109287D01*
X0107182Y0109263D01*
X0107365Y0109287D01*
X0107535Y0109357D01*
X0107681Y010947D01*
X0107738Y0109544D01*
X0107895D01*
X0107953Y010947D01*
X0108099Y0109357D01*
X0108269Y0109287D01*
X0108452Y0109263D01*
X0108635Y0109287D01*
X0108805Y0109357D01*
X0108951Y010947D01*
X0109063Y0109616D01*
X0109134Y0109786D01*
X0109158Y0109969D01*
X0109134Y0110152D01*
X0109063Y0110322D01*
X0108951Y0110468D01*
X0108877Y0110525D01*
Y0110682D01*
X0108951Y011074D01*
X0109063Y0110886D01*
X0109134Y0111056D01*
X0109158Y0111239D01*
X0109134Y0111422D01*
X0109063Y0111592D01*
X0108951Y0111738D01*
X0108805Y011185D01*
X0108635Y0111921D01*
X0108452Y0111945D01*
D02*
G37*
G36*
X0089452D02*
X0089269Y0111921D01*
X0089099Y011185D01*
X0088953Y0111738D01*
X0088895Y0111664D01*
X0088738D01*
X0088681Y0111738D01*
X0088535Y011185D01*
X0088365Y0111921D01*
X0088182Y0111945D01*
X0087999Y0111921D01*
X0087829Y011185D01*
X0087683Y0111738D01*
X0087625Y0111664D01*
X0087468D01*
X0087411Y0111738D01*
X0087265Y011185D01*
X0087095Y0111921D01*
X0086912Y0111945D01*
X0086729Y0111921D01*
X0086559Y011185D01*
X0086413Y0111738D01*
X00863Y0111592D01*
X008623Y0111422D01*
X0086206Y0111239D01*
X008623Y0111056D01*
X00863Y0110886D01*
X0086413Y011074D01*
X0086487Y0110682D01*
Y0110525D01*
X0086413Y0110468D01*
X00863Y0110322D01*
X008623Y0110152D01*
X0086206Y0109969D01*
X008623Y0109786D01*
X00863Y0109616D01*
X0086413Y010947D01*
X0086559Y0109357D01*
X0086729Y0109287D01*
X0086912Y0109263D01*
X0087095Y0109287D01*
X0087265Y0109357D01*
X0087411Y010947D01*
X0087468Y0109544D01*
X0087625D01*
X0087683Y010947D01*
X0087829Y0109357D01*
X0087999Y0109287D01*
X0088182Y0109263D01*
X0088365Y0109287D01*
X0088535Y0109357D01*
X0088681Y010947D01*
X0088738Y0109544D01*
X0088895D01*
X0088953Y010947D01*
X0089099Y0109357D01*
X0089269Y0109287D01*
X0089452Y0109263D01*
X0089635Y0109287D01*
X0089805Y0109357D01*
X0089951Y010947D01*
X0090063Y0109616D01*
X0090134Y0109786D01*
X0090158Y0109969D01*
X0090134Y0110152D01*
X0090063Y0110322D01*
X0089951Y0110468D01*
X0089877Y0110525D01*
Y0110682D01*
X0089951Y011074D01*
X0090063Y0110886D01*
X0090134Y0111056D01*
X0090158Y0111239D01*
X0090134Y0111422D01*
X0090063Y0111592D01*
X0089951Y0111738D01*
X0089805Y011185D01*
X0089635Y0111921D01*
X0089452Y0111945D01*
D02*
G37*
G36*
X0098387Y0109661D02*
X0098192Y0109622D01*
X0098026Y0109512D01*
X0097916Y0109346D01*
X0097877Y0109151D01*
X0097916Y0108956D01*
X0098026Y0108791D01*
X0098192Y010868D01*
X0098387Y0108641D01*
X0098582Y010868D01*
X0098747Y0108791D01*
X0098858Y0108956D01*
X0098897Y0109151D01*
X0098858Y0109346D01*
X0098747Y0109512D01*
X0098582Y0109622D01*
X0098387Y0109661D01*
D02*
G37*
G36*
X0095212D02*
X0095017Y0109622D01*
X0094851Y0109512D01*
X0094741Y0109346D01*
X0094702Y0109151D01*
X0094741Y0108956D01*
X0094851Y0108791D01*
X0095017Y010868D01*
X0095212Y0108641D01*
X0095407Y010868D01*
X0095572Y0108791D01*
X0095683Y0108956D01*
X0095722Y0109151D01*
X0095683Y0109346D01*
X0095572Y0109512D01*
X0095407Y0109622D01*
X0095212Y0109661D01*
D02*
G37*
G36*
X0085412Y0109086D02*
X0085217Y0109047D01*
X0085051Y0108936D01*
X0084941Y0108771D01*
X0084902Y0108576D01*
X0084941Y0108381D01*
X0085051Y0108215D01*
X0085217Y0108105D01*
X0085412Y0108066D01*
X0085607Y0108105D01*
X0085772Y0108215D01*
X0085883Y0108381D01*
X0085922Y0108576D01*
X0085883Y0108771D01*
X0085772Y0108936D01*
X0085607Y0109047D01*
X0085412Y0109086D01*
D02*
G37*
G36*
X0089877Y0109079D02*
X0089682Y010904D01*
X0089516Y0108929D01*
X0089406Y0108764D01*
X0089367Y0108569D01*
X0089406Y0108374D01*
X0089516Y0108208D01*
X0089682Y0108098D01*
X0089877Y0108059D01*
X0090072Y0108098D01*
X0090237Y0108208D01*
X0090348Y0108374D01*
X0090386Y0108569D01*
X0090348Y0108764D01*
X0090237Y0108929D01*
X0090072Y010904D01*
X0089877Y0109079D01*
D02*
G37*
G36*
X0083306D02*
X0083111Y010904D01*
X0082946Y0108929D01*
X0082835Y0108764D01*
X0082796Y0108569D01*
X0082835Y0108374D01*
X0082946Y0108208D01*
X0083111Y0108098D01*
X0083306Y0108059D01*
X0083501Y0108098D01*
X0083667Y0108208D01*
X0083777Y0108374D01*
X0083816Y0108569D01*
X0083777Y0108764D01*
X0083667Y0108929D01*
X0083501Y010904D01*
X0083306Y0109079D01*
D02*
G37*
G36*
X0105412Y0108893D02*
X0105217Y0108854D01*
X0105051Y0108744D01*
X0104941Y0108578D01*
X0104902Y0108383D01*
X0104941Y0108188D01*
X0105051Y0108023D01*
X0105217Y0107912D01*
X0105412Y0107873D01*
X0105607Y0107912D01*
X0105772Y0108023D01*
X0105883Y0108188D01*
X0105922Y0108383D01*
X0105883Y0108578D01*
X0105772Y0108744D01*
X0105607Y0108854D01*
X0105412Y0108893D01*
D02*
G37*
G36*
X0103269D02*
X0103074Y0108854D01*
X0102909Y0108744D01*
X0102798Y0108578D01*
X010276Y0108383D01*
X0102798Y0108188D01*
X0102909Y0108023D01*
X0103074Y0107912D01*
X0103269Y0107873D01*
X0103464Y0107912D01*
X010363Y0108023D01*
X010374Y0108188D01*
X0103779Y0108383D01*
X010374Y0108578D01*
X010363Y0108744D01*
X0103464Y0108854D01*
X0103269Y0108893D01*
D02*
G37*
G36*
X0107738Y0108879D02*
X0107543Y010884D01*
X0107378Y0108729D01*
X0107267Y0108564D01*
X0107228Y0108369D01*
X0107267Y0108174D01*
X0107378Y0108008D01*
X0107543Y0107898D01*
X0107738Y0107859D01*
X0107933Y0107898D01*
X0108099Y0108008D01*
X0108209Y0108174D01*
X0108248Y0108369D01*
X0108209Y0108564D01*
X0108099Y0108729D01*
X0107933Y010884D01*
X0107738Y0108879D01*
D02*
G37*
G36*
X0111258Y0107287D02*
X0111075Y0107263D01*
X0110905Y0107193D01*
X0110759Y010708D01*
X0110702Y0107006D01*
X0110544D01*
X0110487Y010708D01*
X0110341Y0107193D01*
X0110171Y0107263D01*
X0109988Y0107287D01*
X0109805Y0107263D01*
X0109635Y0107193D01*
X0109489Y010708D01*
X0109432Y0107006D01*
X0109274D01*
X0109217Y010708D01*
X0109071Y0107193D01*
X0108901Y0107263D01*
X0108718Y0107287D01*
X0108535Y0107263D01*
X0108365Y0107193D01*
X0108219Y010708D01*
X0108107Y0106934D01*
X0108036Y0106764D01*
X0108012Y0106581D01*
X0108036Y0106398D01*
X0108107Y0106228D01*
X0108219Y0106082D01*
X0108293Y0106025D01*
Y0105867D01*
X0108219Y010581D01*
X0108107Y0105664D01*
X0108036Y0105494D01*
X0108012Y0105311D01*
X0108036Y0105128D01*
X0108107Y0104958D01*
X0108219Y0104812D01*
X0108365Y01047D01*
X0108535Y0104629D01*
X0108718Y0104605D01*
X0108901Y0104629D01*
X0109071Y01047D01*
X0109217Y0104812D01*
X0109274Y0104886D01*
X0109432D01*
X0109489Y0104812D01*
X0109635Y01047D01*
X0109805Y0104629D01*
X0109988Y0104605D01*
X0110171Y0104629D01*
X0110341Y01047D01*
X0110487Y0104812D01*
X0110544Y0104886D01*
X0110702D01*
X0110759Y0104812D01*
X0110905Y01047D01*
X0111075Y0104629D01*
X0111258Y0104605D01*
X0111441Y0104629D01*
X0111611Y01047D01*
X0111757Y0104812D01*
X011187Y0104958D01*
X011194Y0105128D01*
X0111964Y0105311D01*
X011194Y0105494D01*
X011187Y0105664D01*
X0111757Y010581D01*
X0111683Y0105867D01*
Y0106025D01*
X0111757Y0106082D01*
X011187Y0106228D01*
X011194Y0106398D01*
X0111964Y0106581D01*
X011194Y0106764D01*
X011187Y0106934D01*
X0111757Y010708D01*
X0111611Y0107193D01*
X0111441Y0107263D01*
X0111258Y0107287D01*
D02*
G37*
G36*
X0083306D02*
X0083123Y0107263D01*
X0082953Y0107193D01*
X0082807Y010708D01*
X008275Y0107006D01*
X0082592D01*
X0082535Y010708D01*
X0082389Y0107193D01*
X0082219Y0107263D01*
X0082036Y0107287D01*
X0081853Y0107263D01*
X0081683Y0107193D01*
X0081537Y010708D01*
X008148Y0107006D01*
X0081322D01*
X0081265Y010708D01*
X0081119Y0107193D01*
X0080949Y0107263D01*
X0080766Y0107287D01*
X0080583Y0107263D01*
X0080413Y0107193D01*
X0080267Y010708D01*
X0080155Y0106934D01*
X0080084Y0106764D01*
X008006Y0106581D01*
X0080084Y0106398D01*
X0080155Y0106228D01*
X0080267Y0106082D01*
X0080341Y0106025D01*
Y0105867D01*
X0080267Y010581D01*
X0080155Y0105664D01*
X0080084Y0105494D01*
X008006Y0105311D01*
X0080084Y0105128D01*
X0080155Y0104958D01*
X0080267Y0104812D01*
X0080413Y01047D01*
X0080583Y0104629D01*
X0080766Y0104605D01*
X0080949Y0104629D01*
X0081119Y01047D01*
X0081265Y0104812D01*
X0081322Y0104886D01*
X008148D01*
X0081537Y0104812D01*
X0081683Y01047D01*
X0081853Y0104629D01*
X0082036Y0104605D01*
X0082219Y0104629D01*
X0082389Y01047D01*
X0082535Y0104812D01*
X0082592Y0104886D01*
X008275D01*
X0082807Y0104812D01*
X0082953Y01047D01*
X0083123Y0104629D01*
X0083306Y0104605D01*
X0083489Y0104629D01*
X0083659Y01047D01*
X0083805Y0104812D01*
X0083918Y0104958D01*
X0083988Y0105128D01*
X0084012Y0105311D01*
X0083988Y0105494D01*
X0083918Y0105664D01*
X0083805Y010581D01*
X0083731Y0105867D01*
Y0106025D01*
X0083805Y0106082D01*
X0083918Y0106228D01*
X0083988Y0106398D01*
X0084012Y0106581D01*
X0083988Y0106764D01*
X0083918Y0106934D01*
X0083805Y010708D01*
X0083659Y0107193D01*
X0083489Y0107263D01*
X0083306Y0107287D01*
D02*
G37*
G36*
X0098387Y0107654D02*
X0098192Y0107615D01*
X0098026Y0107505D01*
X0097916Y0107339D01*
X0097877Y0107144D01*
X0097916Y0106949D01*
X0098026Y0106784D01*
X0098192Y0106673D01*
X0098387Y0106635D01*
X0098582Y0106673D01*
X0098747Y0106784D01*
X0098858Y0106949D01*
X0098897Y0107144D01*
X0098858Y0107339D01*
X0098747Y0107505D01*
X0098582Y0107615D01*
X0098387Y0107654D01*
D02*
G37*
G36*
X0095212D02*
X0095017Y0107615D01*
X0094851Y0107505D01*
X0094741Y0107339D01*
X0094702Y0107144D01*
X0094741Y0106949D01*
X0094851Y0106784D01*
X0095017Y0106673D01*
X0095212Y0106635D01*
X0095407Y0106673D01*
X0095572Y0106784D01*
X0095683Y0106949D01*
X0095722Y0107144D01*
X0095683Y0107339D01*
X0095572Y0107505D01*
X0095407Y0107615D01*
X0095212Y0107654D01*
D02*
G37*
G36*
X0106712Y0106579D02*
X0106517Y010654D01*
X0106351Y0106429D01*
X0106241Y0106264D01*
X0106202Y0106069D01*
X0106241Y0105874D01*
X0106351Y0105708D01*
X0106517Y0105598D01*
X0106712Y0105559D01*
X0106907Y0105598D01*
X0107072Y0105708D01*
X0107183Y0105874D01*
X0107222Y0106069D01*
X0107183Y0106264D01*
X0107072Y0106429D01*
X0106907Y010654D01*
X0106712Y0106579D01*
D02*
G37*
G36*
X0095212Y0105279D02*
X0095017Y010524D01*
X0094851Y0105129D01*
X0094741Y0104964D01*
X0094702Y0104769D01*
X0094741Y0104574D01*
X0094851Y0104408D01*
X0095017Y0104298D01*
X0095212Y0104259D01*
X0095407Y0104298D01*
X0095572Y0104408D01*
X0095683Y0104574D01*
X0095722Y0104769D01*
X0095683Y0104964D01*
X0095572Y0105129D01*
X0095407Y010524D01*
X0095212Y0105279D01*
D02*
G37*
G36*
X0089812D02*
X0089617Y010524D01*
X0089451Y0105129D01*
X0089341Y0104964D01*
X0089302Y0104769D01*
X0089341Y0104574D01*
X0089451Y0104408D01*
X0089617Y0104298D01*
X0089812Y0104259D01*
X0090007Y0104298D01*
X0090172Y0104408D01*
X0090283Y0104574D01*
X0090322Y0104769D01*
X0090283Y0104964D01*
X0090172Y0105129D01*
X0090007Y010524D01*
X0089812Y0105279D01*
D02*
G37*
G36*
X0085845D02*
X0085649Y010524D01*
X0085484Y0105129D01*
X0085374Y0104964D01*
X0085335Y0104769D01*
X0085374Y0104574D01*
X0085484Y0104408D01*
X0085649Y0104298D01*
X0085845Y0104259D01*
X008604Y0104298D01*
X0086205Y0104408D01*
X0086316Y0104574D01*
X0086354Y0104769D01*
X0086316Y0104964D01*
X0086205Y0105129D01*
X008604Y010524D01*
X0085845Y0105279D01*
D02*
G37*
G36*
X0098387Y0105229D02*
X0098192Y010519D01*
X0098026Y0105079D01*
X0097916Y0104914D01*
X0097877Y0104719D01*
X0097916Y0104524D01*
X0098026Y0104358D01*
X0098192Y0104248D01*
X0098387Y0104209D01*
X0098582Y0104248D01*
X0098747Y0104358D01*
X0098858Y0104524D01*
X0098897Y0104719D01*
X0098858Y0104914D01*
X0098747Y0105079D01*
X0098582Y010519D01*
X0098387Y0105229D01*
D02*
G37*
G36*
X0102058Y0105001D02*
X0101863Y0104963D01*
X0101698Y0104852D01*
X0101587Y0104687D01*
X0101548Y0104492D01*
X0101587Y0104297D01*
X0101698Y0104131D01*
X0101863Y0104021D01*
X0102058Y0103982D01*
X0102253Y0104021D01*
X0102419Y0104131D01*
X0102529Y0104297D01*
X0102568Y0104492D01*
X0102529Y0104687D01*
X0102419Y0104852D01*
X0102253Y0104963D01*
X0102058Y0105001D01*
D02*
G37*
G36*
X0108344Y0104146D02*
X0108148Y0104107D01*
X0107983Y0103997D01*
X0107873Y0103831D01*
X0107834Y0103636D01*
X0107873Y0103441D01*
X0107983Y0103276D01*
X0108148Y0103165D01*
X0108344Y0103126D01*
X0108539Y0103165D01*
X0108704Y0103276D01*
X0108815Y0103441D01*
X0108853Y0103636D01*
X0108815Y0103831D01*
X0108704Y0103997D01*
X0108539Y0104107D01*
X0108344Y0104146D01*
D02*
G37*
G36*
X0109787Y0104079D02*
X0109592Y010404D01*
X0109426Y0103929D01*
X0109316Y0103764D01*
X0109277Y0103569D01*
X0109316Y0103374D01*
X0109426Y0103208D01*
X0109592Y0103098D01*
X0109663Y0103084D01*
Y0102954D01*
X0109592Y010294D01*
X0109426Y0102829D01*
X0109316Y0102664D01*
X0109277Y0102469D01*
X0109316Y0102274D01*
X0109426Y0102108D01*
X0109592Y0101998D01*
X0109787Y0101959D01*
X0109982Y0101998D01*
X0110147Y0102108D01*
X0110258Y0102274D01*
X0110297Y0102469D01*
X0110258Y0102664D01*
X0110147Y0102829D01*
X0109982Y010294D01*
X010991Y0102954D01*
Y0103084D01*
X0109982Y0103098D01*
X0110147Y0103208D01*
X0110258Y0103374D01*
X0110297Y0103569D01*
X0110258Y0103764D01*
X0110147Y0103929D01*
X0109982Y010404D01*
X0109787Y0104079D01*
D02*
G37*
G36*
X0097249Y0102696D02*
X0097054Y0102657D01*
X0096889Y0102547D01*
X0096778Y0102381D01*
X0096739Y0102186D01*
X0096778Y0101991D01*
X0096889Y0101826D01*
X0097054Y0101715D01*
X0097249Y0101676D01*
X0097444Y0101715D01*
X009761Y0101826D01*
X009772Y0101991D01*
X0097759Y0102186D01*
X009772Y0102381D01*
X009761Y0102547D01*
X0097444Y0102657D01*
X0097249Y0102696D01*
D02*
G37*
G36*
X0091181Y0101933D02*
X0090986Y0101894D01*
X0090821Y0101783D01*
X009071Y0101618D01*
X0090672Y0101423D01*
X009071Y0101228D01*
X0090821Y0101062D01*
X0090986Y0100952D01*
X0091181Y0100913D01*
X0091377Y0100952D01*
X0091542Y0101062D01*
X0091652Y0101228D01*
X0091691Y0101423D01*
X0091652Y0101618D01*
X0091542Y0101783D01*
X0091377Y0101894D01*
X0091181Y0101933D01*
D02*
G37*
G36*
X0095173Y0101928D02*
X0094978Y010189D01*
X0094813Y0101779D01*
X0094702Y0101614D01*
X0094663Y0101419D01*
X0094702Y0101224D01*
X0094813Y0101058D01*
X0094978Y0100948D01*
X0095173Y0100909D01*
X0095368Y0100948D01*
X0095534Y0101058D01*
X0095644Y0101224D01*
X0095683Y0101419D01*
X0095644Y0101614D01*
X0095534Y0101779D01*
X0095368Y010189D01*
X0095173Y0101928D01*
D02*
G37*
G36*
X0109787Y0101779D02*
X0109592Y010174D01*
X0109426Y0101629D01*
X0109316Y0101464D01*
X0109277Y0101269D01*
X0109316Y0101074D01*
X0109426Y0100908D01*
X0109592Y0100798D01*
X0109787Y0100759D01*
X0109982Y0100798D01*
X0110147Y0100908D01*
X0110258Y0101074D01*
X0110297Y0101269D01*
X0110258Y0101464D01*
X0110147Y0101629D01*
X0109982Y010174D01*
X0109787Y0101779D01*
D02*
G37*
G36*
X0098012Y0101515D02*
X0097817Y0101476D01*
X0097651Y0101366D01*
X0097541Y01012D01*
X0097502Y0101005D01*
X0097541Y010081D01*
X0097651Y0100645D01*
X0097817Y0100534D01*
X0098012Y0100495D01*
X0098207Y0100534D01*
X0098372Y0100645D01*
X0098483Y010081D01*
X0098522Y0101005D01*
X0098483Y01012D01*
X0098372Y0101366D01*
X0098207Y0101476D01*
X0098012Y0101515D01*
D02*
G37*
G36*
X0084512Y0101479D02*
X0084317Y010144D01*
X0084151Y0101329D01*
X0084041Y0101164D01*
X0084002Y0100969D01*
X0084041Y0100774D01*
X0084151Y0100608D01*
X0084317Y0100498D01*
X0084512Y0100459D01*
X0084707Y0100498D01*
X0084872Y0100608D01*
X0084983Y0100774D01*
X0085022Y0100969D01*
X0084983Y0101164D01*
X0084872Y0101329D01*
X0084707Y010144D01*
X0084512Y0101479D01*
D02*
G37*
G36*
X011102Y0100504D02*
X0110825Y0100465D01*
X0110659Y0100355D01*
X0110645Y0100332D01*
X0110469Y0100298D01*
X0110407Y010034D01*
X0110212Y0100379D01*
X0110017Y010034D01*
X0109851Y0100229D01*
X0109741Y0100064D01*
X0109702Y0099869D01*
X0109741Y0099674D01*
X0109851Y0099508D01*
X0110017Y0099398D01*
X0110212Y0099359D01*
X0110407Y0099398D01*
X0110572Y0099508D01*
X0110587Y0099531D01*
X0110763Y0099565D01*
X0110825Y0099523D01*
X011102Y0099484D01*
X0111215Y0099523D01*
X011138Y0099634D01*
X0111491Y0099799D01*
X0111499Y0099838D01*
X0111628D01*
X0111641Y0099774D01*
X0111751Y0099608D01*
X0111917Y0099498D01*
X0112112Y0099459D01*
X0112307Y0099498D01*
X0112472Y0099608D01*
X0112583Y0099774D01*
X0112622Y0099969D01*
X0112583Y0100164D01*
X0112472Y0100329D01*
X0112307Y010044D01*
X0112112Y0100479D01*
X0111917Y010044D01*
X0111751Y0100329D01*
X0111641Y0100164D01*
X0111633Y0100125D01*
X0111504D01*
X0111491Y0100189D01*
X011138Y0100355D01*
X0111215Y0100465D01*
X011102Y0100504D01*
D02*
G37*
G36*
X0095212Y0098479D02*
X0095017Y009844D01*
X0094851Y0098329D01*
X0094741Y0098164D01*
X0094702Y0097969D01*
X0094741Y0097774D01*
X0094851Y0097608D01*
X0095017Y0097498D01*
X0095212Y0097459D01*
X0095407Y0097498D01*
X0095572Y0097608D01*
X0095683Y0097774D01*
X0095722Y0097969D01*
X0095683Y0098164D01*
X0095572Y0098329D01*
X0095407Y009844D01*
X0095212Y0098479D01*
D02*
G37*
G36*
X0101432Y0098243D02*
X0101237Y0098205D01*
X0101072Y0098094D01*
X0100961Y0097929D01*
X0100923Y0097734D01*
X0100961Y0097539D01*
X0101072Y0097373D01*
X0101237Y0097263D01*
X0101432Y0097224D01*
X0101628Y0097263D01*
X0101793Y0097373D01*
X0101903Y0097539D01*
X0101942Y0097734D01*
X0101903Y0097929D01*
X0101793Y0098094D01*
X0101628Y0098205D01*
X0101432Y0098243D01*
D02*
G37*
G36*
X0111012Y0097279D02*
X0110817Y009724D01*
X0110651Y0097129D01*
X0110541Y0096964D01*
X0110502Y0096769D01*
X0110541Y0096574D01*
X0110651Y0096408D01*
X0110817Y0096298D01*
X0111012Y0096259D01*
X0111207Y0096298D01*
X0111372Y0096408D01*
X0111483Y0096574D01*
X0111522Y0096769D01*
X0111483Y0096964D01*
X0111372Y0097129D01*
X0111207Y009724D01*
X0111012Y0097279D01*
D02*
G37*
G36*
X0095212Y0096882D02*
X0095017Y0096843D01*
X0094851Y0096733D01*
X0094741Y0096568D01*
X0094702Y0096372D01*
X0094741Y0096177D01*
X0094851Y0096012D01*
X0095017Y0095901D01*
X0095212Y0095863D01*
X0095407Y0095901D01*
X0095572Y0096012D01*
X0095683Y0096177D01*
X0095722Y0096372D01*
X0095683Y0096568D01*
X0095572Y0096733D01*
X0095407Y0096843D01*
X0095212Y0096882D01*
D02*
G37*
G36*
X0105074Y0096458D02*
X0104879Y0096419D01*
X0104713Y0096309D01*
X0104603Y0096144D01*
X0104564Y0095949D01*
X0104603Y0095753D01*
X0104713Y0095588D01*
X0104879Y0095478D01*
X0105074Y0095439D01*
X0105269Y0095478D01*
X0105434Y0095588D01*
X0105545Y0095753D01*
X0105584Y0095949D01*
X0105545Y0096144D01*
X0105434Y0096309D01*
X0105269Y0096419D01*
X0105074Y0096458D01*
D02*
G37*
G36*
X0089912Y0096379D02*
X0089717Y009634D01*
X0089551Y0096229D01*
X0089441Y0096064D01*
X0089402Y0095869D01*
X0089441Y0095674D01*
X0089551Y0095508D01*
X0089717Y0095398D01*
X0089912Y0095359D01*
X0090107Y0095398D01*
X0090272Y0095508D01*
X0090383Y0095674D01*
X0090422Y0095869D01*
X0090383Y0096064D01*
X0090272Y0096229D01*
X0090107Y009634D01*
X0089912Y0096379D01*
D02*
G37*
G36*
X0085662D02*
X0085467Y009634D01*
X0085301Y0096229D01*
X0085191Y0096064D01*
X0085152Y0095869D01*
X0085191Y0095674D01*
X0085301Y0095508D01*
X0085467Y0095398D01*
X0085662Y0095359D01*
X0085857Y0095398D01*
X0086022Y0095508D01*
X0086133Y0095674D01*
X0086172Y0095869D01*
X0086133Y0096064D01*
X0086022Y0096229D01*
X0085857Y009634D01*
X0085662Y0096379D01*
D02*
G37*
G36*
X0083212D02*
X0083017Y009634D01*
X0082851Y0096229D01*
X0082741Y0096064D01*
X0082702Y0095869D01*
X0082741Y0095674D01*
X0082851Y0095508D01*
X0083017Y0095398D01*
X0083212Y0095359D01*
X0083407Y0095398D01*
X0083572Y0095508D01*
X0083683Y0095674D01*
X0083722Y0095869D01*
X0083683Y0096064D01*
X0083572Y0096229D01*
X0083407Y009634D01*
X0083212Y0096379D01*
D02*
G37*
G36*
X0099178Y0095779D02*
X0098983Y009574D01*
X0098818Y0095629D01*
X0098707Y0095464D01*
X0098669Y0095269D01*
X0098707Y0095074D01*
X0098818Y0094908D01*
X0098983Y0094798D01*
X0099178Y0094759D01*
X0099374Y0094798D01*
X0099539Y0094908D01*
X0099649Y0095074D01*
X0099688Y0095269D01*
X0099649Y0095464D01*
X0099539Y0095629D01*
X0099374Y009574D01*
X0099178Y0095779D01*
D02*
G37*
G36*
X0111012Y0095679D02*
X0110817Y009564D01*
X0110651Y0095529D01*
X0110541Y0095364D01*
X0110502Y0095169D01*
X0110541Y0094974D01*
X0110651Y0094808D01*
X0110817Y0094698D01*
X0111012Y0094659D01*
X0111207Y0094698D01*
X0111372Y0094808D01*
X0111483Y0094974D01*
X0111522Y0095169D01*
X0111483Y0095364D01*
X0111372Y0095529D01*
X0111207Y009564D01*
X0111012Y0095679D01*
D02*
G37*
G36*
X0106625Y0094929D02*
X010643Y009489D01*
X0106265Y0094779D01*
X0106154Y0094614D01*
X0106116Y0094419D01*
X0106154Y0094224D01*
X0106265Y0094058D01*
X010643Y0093948D01*
X0106625Y0093909D01*
X0106821Y0093948D01*
X0106986Y0094058D01*
X0107096Y0094224D01*
X0107135Y0094419D01*
X0107096Y0094614D01*
X0106986Y0094779D01*
X0106821Y009489D01*
X0106625Y0094929D01*
D02*
G37*
G36*
X0107267Y0093875D02*
X0107084Y0093851D01*
X0106914Y009378D01*
X0106768Y0093668D01*
X010671Y0093594D01*
X0106553D01*
X0106496Y0093668D01*
X010635Y009378D01*
X010618Y0093851D01*
X0105997Y0093875D01*
X0105814Y0093851D01*
X0105644Y009378D01*
X0105498Y0093668D01*
X010544Y0093594D01*
X0105283D01*
X0105226Y0093668D01*
X010508Y009378D01*
X010491Y0093851D01*
X0104727Y0093875D01*
X0104544Y0093851D01*
X0104374Y009378D01*
X0104228Y0093668D01*
X0104115Y0093522D01*
X0104045Y0093352D01*
X0104021Y0093169D01*
X0104045Y0092986D01*
X0104115Y0092816D01*
X0104228Y009267D01*
X0104302Y0092612D01*
Y0092455D01*
X0104228Y0092398D01*
X0104115Y0092252D01*
X0104045Y0092082D01*
X0104021Y0091899D01*
X0104045Y0091716D01*
X0104115Y0091546D01*
X0104228Y00914D01*
X0104374Y0091287D01*
X0104544Y0091217D01*
X0104727Y0091193D01*
X010491Y0091217D01*
X010508Y0091287D01*
X0105226Y00914D01*
X0105283Y0091474D01*
X010544D01*
X0105498Y00914D01*
X0105644Y0091287D01*
X0105814Y0091217D01*
X0105997Y0091193D01*
X010618Y0091217D01*
X010635Y0091287D01*
X0106496Y00914D01*
X0106553Y0091474D01*
X010671D01*
X0106768Y00914D01*
X0106914Y0091287D01*
X0107084Y0091217D01*
X0107267Y0091193D01*
X010745Y0091217D01*
X010762Y0091287D01*
X0107766Y00914D01*
X0107878Y0091546D01*
X0107949Y0091716D01*
X0107973Y0091899D01*
X0107949Y0092082D01*
X0107878Y0092252D01*
X0107766Y0092398D01*
X0107692Y0092455D01*
Y0092612D01*
X0107766Y009267D01*
X0107878Y0092816D01*
X0107949Y0092986D01*
X0107973Y0093169D01*
X0107949Y0093352D01*
X0107878Y0093522D01*
X0107766Y0093668D01*
X010762Y009378D01*
X010745Y0093851D01*
X0107267Y0093875D01*
D02*
G37*
G36*
X0086932D02*
X0086749Y0093851D01*
X0086579Y009378D01*
X0086433Y0093668D01*
X0086375Y0093594D01*
X0086218D01*
X0086161Y0093668D01*
X0086015Y009378D01*
X0085845Y0093851D01*
X0085662Y0093875D01*
X0085479Y0093851D01*
X0085309Y009378D01*
X0085163Y0093668D01*
X0085105Y0093594D01*
X0084948D01*
X0084891Y0093668D01*
X0084745Y009378D01*
X0084575Y0093851D01*
X0084392Y0093875D01*
X0084209Y0093851D01*
X0084039Y009378D01*
X0083893Y0093668D01*
X008378Y0093522D01*
X008371Y0093352D01*
X0083686Y0093169D01*
X008371Y0092986D01*
X008378Y0092816D01*
X0083893Y009267D01*
X0083967Y0092612D01*
Y0092455D01*
X0083893Y0092398D01*
X008378Y0092252D01*
X008371Y0092082D01*
X0083686Y0091899D01*
X008371Y0091716D01*
X008378Y0091546D01*
X0083893Y00914D01*
X0084039Y0091287D01*
X0084209Y0091217D01*
X0084392Y0091193D01*
X0084575Y0091217D01*
X0084745Y0091287D01*
X0084891Y00914D01*
X0084948Y0091474D01*
X0085105D01*
X0085163Y00914D01*
X0085309Y0091287D01*
X0085479Y0091217D01*
X0085662Y0091193D01*
X0085845Y0091217D01*
X0086015Y0091287D01*
X0086161Y00914D01*
X0086218Y0091474D01*
X0086375D01*
X0086433Y00914D01*
X0086579Y0091287D01*
X0086749Y0091217D01*
X0086932Y0091193D01*
X0087115Y0091217D01*
X0087285Y0091287D01*
X0087431Y00914D01*
X0087543Y0091546D01*
X0087614Y0091716D01*
X0087638Y0091899D01*
X0087614Y0092082D01*
X0087543Y0092252D01*
X0087431Y0092398D01*
X0087357Y0092455D01*
Y0092612D01*
X0087431Y009267D01*
X0087543Y0092816D01*
X0087614Y0092986D01*
X0087638Y0093169D01*
X0087614Y0093352D01*
X0087543Y0093522D01*
X0087431Y0093668D01*
X0087285Y009378D01*
X0087115Y0093851D01*
X0086932Y0093875D01*
D02*
G37*
G36*
X0100496Y0094418D02*
X0100301Y0094379D01*
X0100136Y0094269D01*
X0100025Y0094103D01*
X0099986Y0093908D01*
X0100025Y0093713D01*
X0100136Y0093548D01*
X0100301Y0093437D01*
X0100496Y0093398D01*
X0100691Y0093437D01*
X0100857Y0093548D01*
X0100967Y0093713D01*
X0101006Y0093908D01*
X0100967Y0094103D01*
X0100857Y0094269D01*
X0100691Y0094379D01*
X0100496Y0094418D01*
D02*
G37*
G36*
X0101803Y0093179D02*
X0101608Y0093141D01*
X0101443Y009303D01*
X0101332Y0092865D01*
X0101293Y009267D01*
X0101332Y0092474D01*
X0101443Y0092309D01*
X0101608Y0092199D01*
X0101803Y009216D01*
X0101998Y0092199D01*
X0102164Y0092309D01*
X0102274Y0092474D01*
X0102313Y009267D01*
X0102274Y0092865D01*
X0102164Y009303D01*
X0101998Y0093141D01*
X0101803Y0093179D01*
D02*
G37*
%LPD*%
D39*
X0104012Y0098569D02*
D03*
Y0100269D02*
D03*
Y0101969D02*
D03*
X0106512Y0098569D02*
D03*
Y0100269D02*
D03*
M02*
