G04*
G04 #@! TF.GenerationSoftware,Altium Limited,Altium Designer,20.1.8 (145)*
G04*
G04 Layer_Physical_Order=2*
G04 Layer_Color=36540*
%FSTAX43Y43*%
%MOMM*%
G71*
G04*
G04 #@! TF.SameCoordinates,48CEEDD8-FEA7-46FE-8C49-AB3D6DD9764B*
G04*
G04*
G04 #@! TF.FilePolarity,Positive*
G04*
G01*
G75*
%ADD10C,0.250*%
%ADD35C,0.300*%
%ADD38C,1.000*%
%ADD39C,0.600*%
G36*
X0107362Y0111857D02*
X0107369Y011175D01*
X0107372Y0111731D01*
X0107376Y0111717D01*
X010738Y0111705D01*
X0107385Y0111698D01*
X010739Y0111693D01*
X0107029Y0111715D01*
X0107035Y0111719D01*
X0107041Y0111725D01*
X0107046Y0111735D01*
X010705Y0111748D01*
X0107054Y0111765D01*
X0107057Y0111784D01*
X010706Y0111832D01*
X0107062Y0111893D01*
X0107362D01*
X0107362Y0111857D01*
D02*
G37*
G36*
X0113257Y0090824D02*
X0079767D01*
Y0112314D01*
X0106962D01*
X0107011Y0112197D01*
X0106959Y0112145D01*
X0106882Y011203D01*
X0106855Y0111893D01*
Y0111861D01*
X0106829Y011185D01*
X0106683Y0111738D01*
X0106625Y0111664D01*
X0106468D01*
X0106411Y0111738D01*
X0106265Y011185D01*
X0106095Y0111921D01*
X0105912Y0111945D01*
X0105729Y0111921D01*
X0105559Y011185D01*
X0105413Y0111738D01*
X01053Y0111592D01*
X010523Y0111422D01*
X0105206Y0111239D01*
X010523Y0111056D01*
X01053Y0110886D01*
X0105413Y011074D01*
X0105487Y0110682D01*
Y0110525D01*
X0105413Y0110468D01*
X01053Y0110322D01*
X010523Y0110152D01*
X0105206Y0109969D01*
X010523Y0109786D01*
X01053Y0109616D01*
X0105413Y010947D01*
X0105559Y0109357D01*
X0105729Y0109287D01*
X0105912Y0109263D01*
X0106095Y0109287D01*
X0106265Y0109357D01*
X0106411Y010947D01*
X0106468Y0109544D01*
X0106625D01*
X0106683Y010947D01*
X0106829Y0109357D01*
X0106999Y0109287D01*
X0107182Y0109263D01*
X0107365Y0109287D01*
X0107535Y0109357D01*
X0107681Y010947D01*
X0107738Y0109544D01*
X0107895D01*
X0107953Y010947D01*
X0108099Y0109357D01*
X0108269Y0109287D01*
X0108452Y0109263D01*
X0108635Y0109287D01*
X0108805Y0109357D01*
X0108951Y010947D01*
X0109063Y0109616D01*
X0109134Y0109786D01*
X0109158Y0109969D01*
X0109134Y0110152D01*
X0109063Y0110322D01*
X0108951Y0110468D01*
X0108877Y0110525D01*
Y0110682D01*
X0108951Y011074D01*
X0109063Y0110886D01*
X0109134Y0111056D01*
X0109158Y0111239D01*
X0109134Y0111422D01*
X0109063Y0111592D01*
X0109043Y0111618D01*
X0109099Y0111732D01*
X0112144D01*
X0112155Y0111721D01*
Y0103926D01*
X011017D01*
X0110164Y0103926D01*
X011015Y0103929D01*
X0110147Y0103929D01*
X0110147Y0103929D01*
X0109982Y010404D01*
X0109787Y0104079D01*
X0109592Y010404D01*
X0109426Y0103929D01*
X0109316Y0103764D01*
X0109277Y0103569D01*
X0109316Y0103374D01*
X0109426Y0103208D01*
X0109592Y0103098D01*
X0109663Y0103084D01*
Y0102954D01*
X0109592Y010294D01*
X0109426Y0102829D01*
X0109316Y0102664D01*
X0109277Y0102469D01*
X0109316Y0102274D01*
X0109426Y0102108D01*
X0109592Y0101998D01*
X0109787Y0101959D01*
X0109982Y0101998D01*
X0110147Y0102108D01*
X0110258Y0102274D01*
X0110297Y0102469D01*
X0110258Y0102664D01*
X0110147Y0102829D01*
X0109982Y010294D01*
X010991Y0102954D01*
Y0103084D01*
X0109982Y0103098D01*
X0110147Y0103208D01*
X0110147Y0103208D01*
X011015Y0103209D01*
X0110161Y0103211D01*
X0110174Y0103212D01*
X0112336D01*
X0112473Y0103239D01*
X0112588Y0103316D01*
X0112764Y0103492D01*
X0112841Y0103608D01*
X0112869Y0103745D01*
Y0111869D01*
X0112841Y0112005D01*
X0112764Y0112121D01*
X0112689Y0112197D01*
X0112737Y0112314D01*
X0113257D01*
Y0090824D01*
D02*
G37*
G36*
X0110014Y0103767D02*
X0110029Y0103757D01*
X0110046Y0103748D01*
X0110065Y010374D01*
X0110087Y0103734D01*
X011011Y0103728D01*
X0110136Y0103724D01*
X0110164Y0103721D01*
X0110227Y0103719D01*
X0110227Y0103419D01*
X0110194Y0103418D01*
X0110136Y0103413D01*
X011011Y0103409D01*
X0110087Y0103404D01*
X0110065Y0103397D01*
X0110046Y0103389D01*
X0110029Y010338D01*
X0110014Y010337D01*
X0110001Y0103359D01*
X0110001Y0103779D01*
X0110014Y0103767D01*
D02*
G37*
%LPC*%
G36*
X0089452Y0111945D02*
X0089269Y0111921D01*
X0089099Y011185D01*
X0088953Y0111738D01*
X0088895Y0111664D01*
X0088738D01*
X0088681Y0111738D01*
X0088535Y011185D01*
X0088365Y0111921D01*
X0088257Y0111935D01*
Y0111239D01*
X0088107D01*
Y0111935D01*
X0087999Y0111921D01*
X0087829Y011185D01*
X0087683Y0111738D01*
X0087625Y0111664D01*
X0087468D01*
X0087411Y0111738D01*
X0087265Y011185D01*
X0087095Y0111921D01*
X0086912Y0111945D01*
X0086729Y0111921D01*
X0086559Y011185D01*
X0086413Y0111738D01*
X00863Y0111592D01*
X008623Y0111422D01*
X0086206Y0111239D01*
X008623Y0111056D01*
X00863Y0110886D01*
X0086413Y011074D01*
X0086487Y0110682D01*
Y0110525D01*
X0086413Y0110468D01*
X00863Y0110322D01*
X008623Y0110152D01*
X0086206Y0109969D01*
X008623Y0109786D01*
X00863Y0109616D01*
X0086413Y010947D01*
X0086559Y0109357D01*
X0086729Y0109287D01*
X0086912Y0109263D01*
X0087095Y0109287D01*
X0087265Y0109357D01*
X0087411Y010947D01*
X0087468Y0109544D01*
X0087625D01*
X0087683Y010947D01*
X0087829Y0109357D01*
X0087999Y0109287D01*
X0088182Y0109263D01*
X0088365Y0109287D01*
X0088535Y0109357D01*
X0088681Y010947D01*
X0088738Y0109544D01*
X0088895D01*
X0088953Y010947D01*
X0089099Y0109357D01*
X0089269Y0109287D01*
X0089452Y0109263D01*
X0089635Y0109287D01*
X0089805Y0109357D01*
X0089951Y010947D01*
X0090063Y0109616D01*
X0090134Y0109786D01*
X0090158Y0109969D01*
X0090134Y0110152D01*
X0090063Y0110322D01*
X0089951Y0110468D01*
X0089877Y0110525D01*
Y0110682D01*
X0089951Y011074D01*
X0090063Y0110886D01*
X0090134Y0111056D01*
X0090158Y0111239D01*
X0090134Y0111422D01*
X0090063Y0111592D01*
X0089951Y0111738D01*
X0089805Y011185D01*
X0089635Y0111921D01*
X0089452Y0111945D01*
D02*
G37*
G36*
X0103269Y0108893D02*
X0103074Y0108854D01*
X0102909Y0108744D01*
X0102798Y0108578D01*
X010276Y0108383D01*
X0102798Y0108188D01*
X0102909Y0108023D01*
X0103074Y0107912D01*
X0103269Y0107873D01*
X0103464Y0107912D01*
X010363Y0108023D01*
X010374Y0108188D01*
X0103779Y0108383D01*
X010374Y0108578D01*
X010363Y0108744D01*
X0103464Y0108854D01*
X0103269Y0108893D01*
D02*
G37*
G36*
X0111258Y0107287D02*
X0111075Y0107263D01*
X0110905Y0107193D01*
X0110759Y010708D01*
X0110702Y0107006D01*
X0110544D01*
X0110487Y010708D01*
X0110341Y0107193D01*
X0110171Y0107263D01*
X0109988Y0107287D01*
X0109805Y0107263D01*
X0109635Y0107193D01*
X0109489Y010708D01*
X0109432Y0107006D01*
X0109274D01*
X0109217Y010708D01*
X0109071Y0107193D01*
X0108901Y0107263D01*
X0108718Y0107287D01*
X0108535Y0107263D01*
X0108365Y0107193D01*
X0108219Y010708D01*
X0108107Y0106934D01*
X0108036Y0106764D01*
X0108012Y0106581D01*
X0108036Y0106398D01*
X0108107Y0106228D01*
X0108219Y0106082D01*
X0108293Y0106025D01*
Y0105867D01*
X0108219Y010581D01*
X0108107Y0105664D01*
X0108036Y0105494D01*
X0108012Y0105311D01*
X0108036Y0105128D01*
X0108107Y0104958D01*
X0108219Y0104812D01*
X0108365Y01047D01*
X0108535Y0104629D01*
X0108718Y0104605D01*
X0108901Y0104629D01*
X0109071Y01047D01*
X0109217Y0104812D01*
X0109274Y0104886D01*
X0109432D01*
X0109489Y0104812D01*
X0109635Y01047D01*
X0109805Y0104629D01*
X0109988Y0104605D01*
X0110171Y0104629D01*
X0110341Y01047D01*
X0110487Y0104812D01*
X0110544Y0104886D01*
X0110702D01*
X0110759Y0104812D01*
X0110905Y01047D01*
X0111075Y0104629D01*
X0111258Y0104605D01*
X0111441Y0104629D01*
X0111611Y01047D01*
X0111757Y0104812D01*
X011187Y0104958D01*
X011194Y0105128D01*
X0111964Y0105311D01*
X011194Y0105494D01*
X011187Y0105664D01*
X0111757Y010581D01*
X0111683Y0105867D01*
Y0106025D01*
X0111757Y0106082D01*
X011187Y0106228D01*
X011194Y0106398D01*
X0111964Y0106581D01*
X011194Y0106764D01*
X011187Y0106934D01*
X0111757Y010708D01*
X0111611Y0107193D01*
X0111441Y0107263D01*
X0111258Y0107287D01*
D02*
G37*
G36*
X0083381Y0107277D02*
Y0106656D01*
X0084002D01*
X0083988Y0106764D01*
X0083918Y0106934D01*
X0083805Y010708D01*
X0083659Y0107193D01*
X0083489Y0107263D01*
X0083381Y0107277D01*
D02*
G37*
G36*
X0106712Y0106579D02*
X0106517Y010654D01*
X0106351Y0106429D01*
X0106241Y0106264D01*
X0106202Y0106069D01*
X0106241Y0105874D01*
X0106351Y0105708D01*
X0106517Y0105598D01*
X0106712Y0105559D01*
X0106907Y0105598D01*
X0107072Y0105708D01*
X0107183Y0105874D01*
X0107222Y0106069D01*
X0107183Y0106264D01*
X0107072Y0106429D01*
X0106907Y010654D01*
X0106712Y0106579D01*
D02*
G37*
G36*
X0084002Y0105236D02*
X0083381D01*
Y0104615D01*
X0083489Y0104629D01*
X0083659Y01047D01*
X0083805Y0104812D01*
X0083918Y0104958D01*
X0083988Y0105128D01*
X0084002Y0105236D01*
D02*
G37*
G36*
X0104012Y0102479D02*
X0103817Y010244D01*
X0103651Y0102329D01*
X0103541Y0102164D01*
X0103502Y0101969D01*
X0103541Y0101774D01*
X0103651Y0101608D01*
X0103817Y0101498D01*
X0104012Y0101459D01*
X0104207Y0101498D01*
X0104372Y0101608D01*
X0104483Y0101774D01*
X0104522Y0101969D01*
X0104483Y0102164D01*
X0104372Y0102329D01*
X0104207Y010244D01*
X0104012Y0102479D01*
D02*
G37*
G36*
X0106512Y0100779D02*
X0106317Y010074D01*
X0106151Y0100629D01*
X0106041Y0100464D01*
X0106002Y0100269D01*
X0106041Y0100074D01*
X0106151Y0099908D01*
X0106317Y0099798D01*
X0106512Y0099759D01*
X0106707Y0099798D01*
X0106872Y0099908D01*
X0106983Y0100074D01*
X0107022Y0100269D01*
X0106983Y0100464D01*
X0106872Y0100629D01*
X0106707Y010074D01*
X0106512Y0100779D01*
D02*
G37*
G36*
X0104012D02*
X0103817Y010074D01*
X0103651Y0100629D01*
X0103541Y0100464D01*
X0103502Y0100269D01*
X0103541Y0100074D01*
X0103651Y0099908D01*
X0103817Y0099798D01*
X0104012Y0099759D01*
X0104207Y0099798D01*
X0104372Y0099908D01*
X0104483Y0100074D01*
X0104522Y0100269D01*
X0104483Y0100464D01*
X0104372Y0100629D01*
X0104207Y010074D01*
X0104012Y0100779D01*
D02*
G37*
G36*
X01021Y01082D02*
X0080949D01*
X0080822Y0108175D01*
X0080714Y0108103D01*
X0080532Y010792D01*
X008046Y0107813D01*
X0080435Y0107686D01*
Y0107202D01*
X0080413Y0107193D01*
X0080267Y010708D01*
X0080155Y0106934D01*
X0080084Y0106764D01*
X008006Y0106581D01*
X0080084Y0106398D01*
X0080155Y0106228D01*
X0080267Y0106082D01*
X0080341Y0106025D01*
Y0105867D01*
X0080267Y010581D01*
X0080155Y0105664D01*
X0080084Y0105494D01*
X008006Y0105311D01*
X0080084Y0105128D01*
X0080155Y0104958D01*
X0080267Y0104812D01*
X0080413Y01047D01*
X0080583Y0104629D01*
X0080766Y0104605D01*
X0080949Y0104629D01*
X0081119Y01047D01*
X0081265Y0104812D01*
X0081322Y0104886D01*
X008148D01*
X0081537Y0104812D01*
X0081683Y01047D01*
X0081853Y0104629D01*
X0081961Y0104615D01*
Y0105311D01*
X0082111D01*
Y0104615D01*
X0082219Y0104629D01*
X0082389Y01047D01*
X0082535Y0104812D01*
X0082592Y0104886D01*
X008275D01*
X0082807Y0104812D01*
X0082953Y01047D01*
X0083123Y0104629D01*
X0083231Y0104615D01*
Y0105311D01*
X0083306D01*
Y0105386D01*
X0084002D01*
X0083988Y0105494D01*
X0083918Y0105664D01*
X0083805Y010581D01*
X0083731Y0105867D01*
Y0106025D01*
X0083805Y0106082D01*
X0083918Y0106228D01*
X0083988Y0106398D01*
X0084002Y0106506D01*
X0083306D01*
Y0106581D01*
X0083231D01*
Y0107277D01*
X0083123Y0107263D01*
X0082953Y0107193D01*
X0082807Y010708D01*
X008275Y0107006D01*
X0082592D01*
X0082535Y010708D01*
X0082389Y0107193D01*
X0082219Y0107263D01*
X0082111Y0107277D01*
Y0106581D01*
X0081961D01*
Y0107277D01*
X0081853Y0107263D01*
X0081683Y0107193D01*
X0081537Y010708D01*
X008148Y0107006D01*
X0081322D01*
X0081265Y010708D01*
X0081119Y0107193D01*
X0081097Y0107202D01*
Y0107537D01*
X0101963D01*
X0108072Y0101429D01*
X0108072Y0101429D01*
X0109066Y0100434D01*
X0109174Y0100363D01*
X01093Y0100337D01*
X0110513D01*
X0110573Y0100225D01*
X0110549Y0100189D01*
X011051Y0099994D01*
X0110549Y0099799D01*
X0110659Y0099634D01*
X0110825Y0099523D01*
X011102Y0099484D01*
X0111215Y0099523D01*
X011138Y0099634D01*
X0111491Y0099799D01*
X0111499Y0099838D01*
X0111628D01*
X0111641Y0099774D01*
X0111751Y0099608D01*
X0111917Y0099498D01*
X0112112Y0099459D01*
X0112307Y0099498D01*
X0112472Y0099608D01*
X0112583Y0099774D01*
X0112622Y0099969D01*
X0112583Y0100164D01*
X0112472Y0100329D01*
X0112307Y010044D01*
X0112112Y0100479D01*
X0112051Y0100467D01*
X0111615Y0100903D01*
X0111507Y0100975D01*
X011138Y0101D01*
X011035D01*
X0110268Y0101127D01*
X0110297Y0101269D01*
X0110258Y0101464D01*
X0110147Y0101629D01*
X0109982Y010174D01*
X0109787Y0101779D01*
X0109592Y010174D01*
X0109426Y0101629D01*
X0109316Y0101464D01*
X0109289Y0101329D01*
X0109154Y0101283D01*
X0108541Y0101897D01*
X0108541Y0101897D01*
X0102335Y0108103D01*
X0102227Y0108175D01*
X0102206Y0108179D01*
X01021Y01082D01*
D02*
G37*
G36*
X0106512Y0099079D02*
X0106317Y009904D01*
X0106151Y0098929D01*
X0106041Y0098764D01*
X0106002Y0098569D01*
X0106041Y0098374D01*
X0106151Y0098208D01*
X0106317Y0098098D01*
X0106512Y0098059D01*
X0106707Y0098098D01*
X0106872Y0098208D01*
X0106983Y0098374D01*
X0107022Y0098569D01*
X0106983Y0098764D01*
X0106872Y0098929D01*
X0106707Y009904D01*
X0106512Y0099079D01*
D02*
G37*
G36*
X0104012D02*
X0103817Y009904D01*
X0103651Y0098929D01*
X0103541Y0098764D01*
X0103502Y0098569D01*
X0103541Y0098374D01*
X0103651Y0098208D01*
X0103817Y0098098D01*
X0104012Y0098059D01*
X0104207Y0098098D01*
X0104372Y0098208D01*
X0104483Y0098374D01*
X0104522Y0098569D01*
X0104483Y0098764D01*
X0104372Y0098929D01*
X0104207Y009904D01*
X0104012Y0099079D01*
D02*
G37*
G36*
X0099178Y0095779D02*
X0098983Y009574D01*
X0098818Y0095629D01*
X0098707Y0095464D01*
X0098669Y0095269D01*
X0098707Y0095074D01*
X0098818Y0094908D01*
X0098983Y0094798D01*
X0099178Y0094759D01*
X0099374Y0094798D01*
X0099539Y0094908D01*
X0099649Y0095074D01*
X0099688Y0095269D01*
X0099649Y0095464D01*
X0099539Y0095629D01*
X0099374Y009574D01*
X0099178Y0095779D01*
D02*
G37*
G36*
X0107267Y0093875D02*
X0107084Y0093851D01*
X0106914Y009378D01*
X0106768Y0093668D01*
X010671Y0093594D01*
X0106553D01*
X0106496Y0093668D01*
X010635Y009378D01*
X010618Y0093851D01*
X0105997Y0093875D01*
X0105814Y0093851D01*
X0105644Y009378D01*
X0105498Y0093668D01*
X010544Y0093594D01*
X0105283D01*
X0105226Y0093668D01*
X010508Y009378D01*
X010491Y0093851D01*
X0104727Y0093875D01*
X0104544Y0093851D01*
X0104374Y009378D01*
X0104228Y0093668D01*
X0104115Y0093522D01*
X0104045Y0093352D01*
X0104021Y0093169D01*
X0104045Y0092986D01*
X0104115Y0092816D01*
X0104228Y009267D01*
X0104302Y0092612D01*
Y0092455D01*
X0104228Y0092398D01*
X0104115Y0092252D01*
X0104045Y0092082D01*
X0104021Y0091899D01*
X0104045Y0091716D01*
X0104115Y0091546D01*
X0104228Y00914D01*
X0104374Y0091287D01*
X0104544Y0091217D01*
X0104727Y0091193D01*
X010491Y0091217D01*
X010508Y0091287D01*
X0105226Y00914D01*
X0105283Y0091474D01*
X010544D01*
X0105498Y00914D01*
X0105644Y0091287D01*
X0105814Y0091217D01*
X0105859Y0091211D01*
X0105852Y009124D01*
X0105836Y0091282D01*
X0105816Y0091325D01*
X0105791Y0091368D01*
X0105762Y0091411D01*
X0105728Y0091454D01*
X010569Y0091498D01*
X0105647Y0091542D01*
X0105922D01*
Y0091899D01*
X0106072D01*
Y0091542D01*
X0106347D01*
X0106304Y0091498D01*
X0106232Y0091411D01*
X0106203Y0091368D01*
X0106178Y0091325D01*
X0106158Y0091282D01*
X0106142Y009124D01*
X0106134Y0091211D01*
X010618Y0091217D01*
X010635Y0091287D01*
X0106496Y00914D01*
X0106553Y0091474D01*
X010671D01*
X0106768Y00914D01*
X0106914Y0091287D01*
X0107084Y0091217D01*
X0107267Y0091193D01*
X010745Y0091217D01*
X010762Y0091287D01*
X0107766Y00914D01*
X0107878Y0091546D01*
X0107949Y0091716D01*
X0107973Y0091899D01*
X0107949Y0092082D01*
X0107878Y0092252D01*
X0107766Y0092398D01*
X0107692Y0092455D01*
Y0092612D01*
X0107766Y009267D01*
X0107878Y0092816D01*
X0107949Y0092986D01*
X0107973Y0093169D01*
X0107949Y0093352D01*
X0107878Y0093522D01*
X0107766Y0093668D01*
X010762Y009378D01*
X010745Y0093851D01*
X0107267Y0093875D01*
D02*
G37*
G36*
X0086932D02*
X0086749Y0093851D01*
X0086579Y009378D01*
X0086433Y0093668D01*
X0086375Y0093594D01*
X0086218D01*
X0086161Y0093668D01*
X0086015Y009378D01*
X0085845Y0093851D01*
X0085662Y0093875D01*
X0085479Y0093851D01*
X0085309Y009378D01*
X0085163Y0093668D01*
X0085105Y0093594D01*
X0084948D01*
X0084891Y0093668D01*
X0084745Y009378D01*
X0084575Y0093851D01*
X0084392Y0093875D01*
X0084209Y0093851D01*
X0084039Y009378D01*
X0083893Y0093668D01*
X008378Y0093522D01*
X008371Y0093352D01*
X0083686Y0093169D01*
X008371Y0092986D01*
X008378Y0092816D01*
X0083893Y009267D01*
X0083967Y0092612D01*
Y0092455D01*
X0083893Y0092398D01*
X008378Y0092252D01*
X008371Y0092082D01*
X0083686Y0091899D01*
X008371Y0091716D01*
X008378Y0091546D01*
X0083893Y00914D01*
X0084039Y0091287D01*
X0084209Y0091217D01*
X0084392Y0091193D01*
X0084575Y0091217D01*
X0084745Y0091287D01*
X0084891Y00914D01*
X0084948Y0091474D01*
X0085105D01*
X0085163Y00914D01*
X0085309Y0091287D01*
X0085479Y0091217D01*
X0085662Y0091193D01*
X0085845Y0091217D01*
X0086015Y0091287D01*
X0086161Y00914D01*
X0086218Y0091474D01*
X0086375D01*
X0086433Y00914D01*
X0086579Y0091287D01*
X0086749Y0091217D01*
X0086932Y0091193D01*
X0087115Y0091217D01*
X0087285Y0091287D01*
X0087431Y00914D01*
X0087543Y0091546D01*
X0087614Y0091716D01*
X0087638Y0091899D01*
X0087614Y0092082D01*
X0087543Y0092252D01*
X0087431Y0092398D01*
X0087357Y0092455D01*
Y0092612D01*
X0087431Y009267D01*
X0087543Y0092816D01*
X0087614Y0092986D01*
X0087638Y0093169D01*
X0087614Y0093352D01*
X0087543Y0093522D01*
X0087431Y0093668D01*
X0087285Y009378D01*
X0087115Y0093851D01*
X0086932Y0093875D01*
D02*
G37*
%LPD*%
D10*
X0080949Y0107869D02*
X01021D01*
X0108306Y0101663D02*
Y0101663D01*
X01021Y0107869D02*
X0108306Y0101663D01*
Y0101663D02*
X01093Y0100669D01*
X011138D01*
X011208Y0099969D02*
X0112112D01*
X011138Y0100669D02*
X011208Y0099969D01*
X0080766Y0106581D02*
Y0107686D01*
X0080949Y0107869D01*
X0105997Y0090944D02*
Y0091899D01*
D35*
X0112336Y0103569D02*
X0112512Y0103745D01*
X0109787Y0103569D02*
X0109787Y0103569D01*
X0112336D01*
X0112512Y0103745D02*
Y0111869D01*
X0107212Y0111269D02*
Y0111893D01*
X0107408Y0112089D01*
X0112292D01*
X0112512Y0111869D01*
X0107182Y0111239D02*
X0107212Y0111269D01*
D38*
X0107182Y0111239D02*
D03*
X0105997Y0091899D02*
D03*
X0088182Y0111239D02*
D03*
X0080766Y0106581D02*
D03*
X0082036D02*
D03*
Y0105311D02*
D03*
X0083306Y0106581D02*
D03*
Y0105311D02*
D03*
D39*
X0102058Y0104492D02*
D03*
X0089812Y0104769D02*
D03*
X0083306Y0108569D02*
D03*
X0089912Y0095869D02*
D03*
X0083212D02*
D03*
X0085662D02*
D03*
X0107738Y0108369D02*
D03*
X0105412Y0108383D02*
D03*
X0089877Y0108569D02*
D03*
X0085412Y0108576D02*
D03*
X0111012Y0095169D02*
D03*
X0100496Y0093908D02*
D03*
X0101803Y009267D02*
D03*
X0098012Y0101005D02*
D03*
X0098387Y0109151D02*
D03*
X0095212D02*
D03*
X0098387Y0104719D02*
D03*
Y0107144D02*
D03*
X0095212D02*
D03*
X0111012Y0096769D02*
D03*
X0110212Y0099869D02*
D03*
X0095173Y0101419D02*
D03*
X0091181Y0101423D02*
D03*
X0095212Y0104769D02*
D03*
X0097249Y0102186D02*
D03*
X0085845Y0104769D02*
D03*
X0084512Y0100969D02*
D03*
X0109787Y0103569D02*
D03*
X0108344Y0103636D02*
D03*
X0095212Y0096372D02*
D03*
X0105074Y0095949D02*
D03*
X0106625Y0094419D02*
D03*
X0101432Y0097734D02*
D03*
X0095212Y0097969D02*
D03*
X0112112Y0099969D02*
D03*
M02*
