G04*
G04 #@! TF.GenerationSoftware,Altium Limited,Altium Designer,20.1.8 (145)*
G04*
G04 Layer_Physical_Order=1*
G04 Layer_Color=255*
%FSTAX43Y43*%
%MOMM*%
G71*
G04*
G04 #@! TF.SameCoordinates,DCFB0F7C-07F7-4DEC-9F4C-8A45A990D123*
G04*
G04*
G04 #@! TF.FilePolarity,Positive*
G04*
G01*
G75*
%ADD16C,0.600*%
%ADD17C,0.300*%
%ADD18C,1.300*%
%ADD19C,2.200*%
%ADD20C,3.000*%
%ADD21C,2.000*%
%ADD22C,2.250*%
%ADD23C,8.000*%
G36*
X0097157Y0096897D02*
X0098584Y0096709D01*
X0099996Y0096428D01*
X0101387Y0096055D01*
X010275Y0095593D01*
X0104081Y0095042D01*
X0105372Y0094405D01*
X0106619Y0093685D01*
X0107816Y0092885D01*
X0108958Y0092008D01*
X0110041Y0091059D01*
X0111059Y0090041D01*
X0112008Y0088958D01*
X0112885Y0087816D01*
X0113685Y0086619D01*
X0114405Y0085372D01*
X0115042Y0084081D01*
X0115593Y008275D01*
X0116055Y0081387D01*
X0116428Y0079996D01*
X0116709Y0078584D01*
X0116897Y0077157D01*
X0116991Y007572D01*
Y0075D01*
Y007428D01*
X0116897Y0072843D01*
X0116709Y0071416D01*
X0116428Y0070004D01*
X0116055Y0068613D01*
X0115593Y0067249D01*
X0115042Y0065919D01*
X0114405Y0064628D01*
X0113685Y0063381D01*
X0112885Y0062184D01*
X0112008Y0061042D01*
X0111059Y0059959D01*
X0110041Y0058941D01*
X0108958Y0057992D01*
X0107816Y0057115D01*
X0106619Y0056315D01*
X0105372Y0055595D01*
X0104081Y0054958D01*
X010275Y0054407D01*
X0101387Y0053945D01*
X0099996Y0053572D01*
X0098584Y0053291D01*
X0097157Y0053103D01*
X009572Y0053009D01*
X009428D01*
X0092843Y0053103D01*
X0091416Y0053291D01*
X0090004Y0053572D01*
X0088613Y0053945D01*
X008725Y0054407D01*
X0085919Y0054958D01*
X0084628Y0055595D01*
X0083381Y0056315D01*
X0082184Y0057115D01*
X0081042Y0057992D01*
X0079959Y0058941D01*
X0078941Y0059959D01*
X0077992Y0061042D01*
X0077115Y0062184D01*
X0076315Y0063381D01*
X0075595Y0064628D01*
X0074958Y0065919D01*
X0074407Y0067249D01*
X0073945Y0068613D01*
X0073572Y0070004D01*
X0073291Y0071416D01*
X0073103Y0072843D01*
X0073009Y007428D01*
Y0075D01*
Y007572D01*
X0073103Y0077157D01*
X0073291Y0078584D01*
X0073572Y0079996D01*
X0073945Y0081387D01*
X0074407Y008275D01*
X0074958Y0084081D01*
X0075595Y0085372D01*
X0076315Y0086619D01*
X0077115Y0087816D01*
X0077992Y0088958D01*
X0078941Y0090041D01*
X0079959Y0091059D01*
X0081042Y0092008D01*
X0082184Y0092885D01*
X0083381Y0093685D01*
X0084628Y0094405D01*
X0085919Y0095042D01*
X008725Y0095593D01*
X0088613Y0096055D01*
X0090004Y0096428D01*
X0091416Y0096709D01*
X0092843Y0096897D01*
X009428Y0096991D01*
X009572D01*
X0097157Y0096897D01*
D02*
G37*
%LPC*%
G36*
X0108789Y0088805D02*
X0108476Y0088764D01*
X0108184Y0088643D01*
X0107933Y0088451D01*
X0107741Y00882D01*
X010762Y0087908D01*
X0107579Y0087595D01*
X010762Y0087282D01*
X0107741Y008699D01*
X0107933Y0086739D01*
X0108184Y0086547D01*
X0108476Y0086426D01*
X0108789Y0086385D01*
X0109102Y0086426D01*
X0109394Y0086547D01*
X0109645Y0086739D01*
X0109837Y008699D01*
X0109958Y0087282D01*
X011Y0087595D01*
X0109958Y0087908D01*
X0109837Y00882D01*
X0109645Y0088451D01*
X0109394Y0088643D01*
X0109102Y0088764D01*
X0108789Y0088805D01*
D02*
G37*
G36*
X009325Y0085857D02*
X0093028Y0085828D01*
X0092821Y0085742D01*
X0092644Y0085606D01*
X0092632Y008559D01*
X0092625Y0085584D01*
X0092606Y0085571D01*
X0092583Y0085558D01*
X0092556Y0085545D01*
X0092524Y0085534D01*
X0092486Y0085524D01*
X0092446Y0085516D01*
X0092385Y008551D01*
X00921D01*
X0092057Y0085515D01*
X0092014Y0085524D01*
X0091976Y0085534D01*
X0091944Y0085545D01*
X0091917Y0085558D01*
X0091894Y0085571D01*
X0091875Y0085584D01*
X0091868Y008559D01*
X0091856Y0085606D01*
X0091679Y0085742D01*
X0091472Y0085828D01*
X009125Y0085857D01*
X0091028Y0085828D01*
X0090821Y0085742D01*
X0090644Y0085606D01*
X0090632Y008559D01*
X0090625Y0085584D01*
X0090606Y0085571D01*
X0090583Y0085558D01*
X0090556Y0085545D01*
X0090524Y0085534D01*
X0090486Y0085524D01*
X0090446Y0085516D01*
X0090385Y008551D01*
X0089D01*
X0088805Y0085471D01*
X008864Y008536D01*
X0087279Y0084D01*
X0087169Y0083835D01*
X008713Y008364D01*
Y007236D01*
X0087169Y0072165D01*
X0087279Y0072D01*
X008864Y007064D01*
X0088805Y0070529D01*
X0089Y007049D01*
X00904D01*
X0090443Y0070485D01*
X0090486Y0070476D01*
X0090524Y0070466D01*
X0090556Y0070455D01*
X0090583Y0070442D01*
X0090606Y0070429D01*
X0090625Y0070416D01*
X0090632Y007041D01*
X0090644Y0070394D01*
X0090821Y0070258D01*
X0091028Y0070172D01*
X009125Y0070143D01*
X0091472Y0070172D01*
X0091679Y0070258D01*
X0091856Y0070394D01*
X0091868Y007041D01*
X0091875Y0070416D01*
X0091894Y0070429D01*
X0091917Y0070442D01*
X0091944Y0070455D01*
X0091976Y0070466D01*
X0092014Y0070476D01*
X0092054Y0070484D01*
X0092115Y007049D01*
X00924D01*
X0092443Y0070485D01*
X0092486Y0070476D01*
X0092524Y0070466D01*
X0092556Y0070455D01*
X0092583Y0070442D01*
X0092606Y0070429D01*
X0092625Y0070416D01*
X0092632Y007041D01*
X0092644Y0070394D01*
X0092821Y0070258D01*
X0093028Y0070172D01*
X009325Y0070143D01*
X0093472Y0070172D01*
X0093679Y0070258D01*
X0093856Y0070394D01*
X0093868Y007041D01*
X0093875Y0070416D01*
X0093894Y0070429D01*
X0093917Y0070442D01*
X0093944Y0070455D01*
X0093976Y0070466D01*
X0094014Y0070476D01*
X0094054Y0070484D01*
X0094115Y007049D01*
X0096474D01*
X0096886Y0070078D01*
X0096923Y0070028D01*
X0096963Y0069962D01*
X0096998Y0069889D01*
X0097028Y0069809D01*
X0097053Y0069722D01*
X0097072Y0069627D01*
X0097086Y0069525D01*
X0097094Y0069415D01*
X0097095Y0069336D01*
X0097089Y0069285D01*
X0097133Y0068946D01*
X0097264Y0068629D01*
X0097473Y0068358D01*
X0097744Y0068149D01*
X0098061Y0068018D01*
X00984Y0067974D01*
X0098739Y0068018D01*
X0099056Y0068149D01*
X0099327Y0068358D01*
X0099536Y0068629D01*
X0099667Y0068946D01*
X0099711Y0069285D01*
X0099667Y0069624D01*
X0099536Y0069941D01*
X0099327Y0070212D01*
X0099056Y0070421D01*
X0098739Y0070552D01*
X00984Y0070596D01*
X0098349Y007059D01*
X009827Y0070591D01*
X009816Y0070599D01*
X0098058Y0070613D01*
X0097963Y0070632D01*
X0097876Y0070657D01*
X0097796Y0070687D01*
X0097723Y0070722D01*
X0097657Y0070762D01*
X0097607Y0070799D01*
X0097045Y007136D01*
X009688Y0071471D01*
X0096685Y007151D01*
X00941D01*
X0094057Y0071515D01*
X0094014Y0071524D01*
X0093976Y0071534D01*
X0093944Y0071545D01*
X0093917Y0071558D01*
X0093894Y0071571D01*
X0093875Y0071584D01*
X0093868Y007159D01*
X0093856Y0071606D01*
X0093679Y0071742D01*
X0093472Y0071828D01*
X009325Y0071857D01*
X0093028Y0071828D01*
X0092821Y0071742D01*
X0092644Y0071606D01*
X0092632Y007159D01*
X0092625Y0071584D01*
X0092606Y0071571D01*
X0092583Y0071558D01*
X0092556Y0071545D01*
X0092524Y0071534D01*
X0092486Y0071524D01*
X0092446Y0071516D01*
X0092385Y007151D01*
X00921D01*
X0092057Y0071515D01*
X0092014Y0071524D01*
X0091976Y0071534D01*
X0091944Y0071545D01*
X0091917Y0071558D01*
X0091894Y0071571D01*
X0091875Y0071584D01*
X0091868Y007159D01*
X0091856Y0071606D01*
X0091679Y0071742D01*
X0091472Y0071828D01*
X009125Y0071857D01*
X0091028Y0071828D01*
X0090821Y0071742D01*
X0090644Y0071606D01*
X0090632Y007159D01*
X0090625Y0071584D01*
X0090606Y0071571D01*
X0090583Y0071558D01*
X0090556Y0071545D01*
X0090524Y0071534D01*
X0090486Y0071524D01*
X0090446Y0071516D01*
X0090385Y007151D01*
X0089211D01*
X0088149Y0072572D01*
Y0083428D01*
X0089211Y008449D01*
X00904D01*
X0090443Y0084485D01*
X0090486Y0084476D01*
X0090524Y0084466D01*
X0090556Y0084455D01*
X0090583Y0084442D01*
X0090606Y0084429D01*
X0090625Y0084416D01*
X0090632Y008441D01*
X0090644Y0084394D01*
X0090821Y0084258D01*
X0091028Y0084172D01*
X009125Y0084143D01*
X0091472Y0084172D01*
X0091679Y0084258D01*
X0091856Y0084394D01*
X0091868Y008441D01*
X0091875Y0084416D01*
X0091894Y0084429D01*
X0091917Y0084442D01*
X0091944Y0084455D01*
X0091976Y0084466D01*
X0092014Y0084476D01*
X0092054Y0084484D01*
X0092115Y008449D01*
X00924D01*
X0092443Y0084485D01*
X0092486Y0084476D01*
X0092524Y0084466D01*
X0092556Y0084455D01*
X0092583Y0084442D01*
X0092606Y0084429D01*
X0092625Y0084416D01*
X0092632Y008441D01*
X0092644Y0084394D01*
X0092821Y0084258D01*
X0093028Y0084172D01*
X009325Y0084143D01*
X0093472Y0084172D01*
X0093679Y0084258D01*
X0093856Y0084394D01*
X0093992Y0084571D01*
X0094078Y0084778D01*
X0094107Y0085D01*
X0094078Y0085222D01*
X0093992Y0085429D01*
X0093856Y0085606D01*
X0093679Y0085742D01*
X0093472Y0085828D01*
X009325Y0085857D01*
D02*
G37*
G36*
Y0083857D02*
X0093028Y0083828D01*
X0092821Y0083742D01*
X0092644Y0083606D01*
X0092632Y008359D01*
X0092625Y0083584D01*
X0092606Y0083571D01*
X0092583Y0083558D01*
X0092556Y0083545D01*
X0092524Y0083534D01*
X0092486Y0083524D01*
X0092446Y0083516D01*
X0092385Y008351D01*
X00921D01*
X0092057Y0083515D01*
X0092014Y0083524D01*
X0091976Y0083534D01*
X0091944Y0083545D01*
X0091917Y0083558D01*
X0091894Y0083571D01*
X0091875Y0083584D01*
X0091868Y008359D01*
X0091856Y0083606D01*
X0091679Y0083742D01*
X0091472Y0083828D01*
X009125Y0083857D01*
X0091028Y0083828D01*
X0090821Y0083742D01*
X0090644Y0083606D01*
X0090508Y0083429D01*
X0090422Y0083222D01*
X0090393Y0083D01*
X0090422Y0082778D01*
X0090508Y0082571D01*
X0090644Y0082394D01*
X0090821Y0082258D01*
X0091028Y0082172D01*
X009125Y0082143D01*
X0091472Y0082172D01*
X0091679Y0082258D01*
X0091856Y0082394D01*
X0091868Y008241D01*
X0091875Y0082416D01*
X0091894Y0082429D01*
X0091917Y0082442D01*
X0091944Y0082455D01*
X0091976Y0082466D01*
X0092014Y0082476D01*
X0092054Y0082484D01*
X0092115Y008249D01*
X00924D01*
X0092443Y0082485D01*
X0092486Y0082476D01*
X0092524Y0082466D01*
X0092556Y0082455D01*
X0092583Y0082442D01*
X0092606Y0082429D01*
X0092625Y0082416D01*
X0092632Y008241D01*
X0092644Y0082394D01*
X0092821Y0082258D01*
X0093028Y0082172D01*
X009325Y0082143D01*
X0093472Y0082172D01*
X0093679Y0082258D01*
X0093856Y0082394D01*
X0093868Y008241D01*
X0093875Y0082416D01*
X0093894Y0082429D01*
X0093917Y0082442D01*
X0093944Y0082455D01*
X0093976Y0082466D01*
X0094014Y0082476D01*
X0094054Y0082484D01*
X0094115Y008249D01*
X0095079D01*
X009524Y0082329D01*
Y0077351D01*
X0095279Y0077156D01*
X009539Y0076991D01*
X0095836Y0076545D01*
X0096001Y0076434D01*
X0096196Y0076395D01*
X0096769D01*
X009683Y0076386D01*
X0096905Y0076367D01*
X0096981Y007634D01*
X0097059Y0076305D01*
X0097138Y0076261D01*
X0097219Y0076208D01*
X0097301Y0076146D01*
X0097384Y0076074D01*
X0097442Y0076018D01*
X0097473Y0075978D01*
X0097744Y0075769D01*
X0098061Y0075638D01*
X00984Y0075594D01*
X0098739Y0075638D01*
X0099056Y0075769D01*
X0099327Y0075978D01*
X0099536Y0076249D01*
X0099667Y0076566D01*
X0099711Y0076905D01*
X0099667Y0077244D01*
X0099536Y0077561D01*
X0099327Y0077832D01*
X0099056Y0078041D01*
X0098739Y0078172D01*
X00984Y0078216D01*
X0098061Y0078172D01*
X0097744Y0078041D01*
X0097473Y0077832D01*
X0097442Y0077792D01*
X0097385Y0077736D01*
X0097301Y0077664D01*
X0097219Y0077602D01*
X0097138Y0077549D01*
X0097059Y0077505D01*
X0096981Y007747D01*
X0096905Y0077443D01*
X009683Y0077424D01*
X0096769Y0077415D01*
X0096408D01*
X009626Y0077563D01*
Y008254D01*
X0096221Y0082735D01*
X009611Y0082901D01*
X0095651Y008336D01*
X0095485Y0083471D01*
X009529Y008351D01*
X00941D01*
X0094057Y0083515D01*
X0094014Y0083524D01*
X0093976Y0083534D01*
X0093944Y0083545D01*
X0093917Y0083558D01*
X0093894Y0083571D01*
X0093875Y0083584D01*
X0093868Y008359D01*
X0093856Y0083606D01*
X0093679Y0083742D01*
X0093472Y0083828D01*
X009325Y0083857D01*
D02*
G37*
G36*
Y0081857D02*
X0093028Y0081828D01*
X0092821Y0081742D01*
X0092644Y0081606D01*
X0092632Y008159D01*
X0092625Y0081584D01*
X0092606Y0081571D01*
X0092583Y0081558D01*
X0092556Y0081545D01*
X0092524Y0081534D01*
X0092486Y0081524D01*
X0092446Y0081516D01*
X0092385Y008151D01*
X00921D01*
X0092057Y0081515D01*
X0092014Y0081524D01*
X0091976Y0081534D01*
X0091944Y0081545D01*
X0091917Y0081558D01*
X0091894Y0081571D01*
X0091875Y0081584D01*
X0091868Y008159D01*
X0091856Y0081606D01*
X0091679Y0081742D01*
X0091472Y0081828D01*
X009125Y0081857D01*
X0091028Y0081828D01*
X0090821Y0081742D01*
X0090644Y0081606D01*
X0090632Y008159D01*
X0090625Y0081584D01*
X0090606Y0081571D01*
X0090583Y0081558D01*
X0090556Y0081545D01*
X0090524Y0081534D01*
X0090486Y0081524D01*
X0090446Y0081516D01*
X0090385Y008151D01*
X008965D01*
X0089455Y0081471D01*
X008929Y008136D01*
X008864Y008071D01*
X0088529Y0080545D01*
X008849Y008035D01*
Y007346D01*
X0088529Y0073265D01*
X008864Y0073099D01*
X0089099Y007264D01*
X0089265Y0072529D01*
X008946Y007249D01*
X00904D01*
X0090443Y0072485D01*
X0090486Y0072476D01*
X0090524Y0072466D01*
X0090556Y0072455D01*
X0090583Y0072442D01*
X0090606Y0072429D01*
X0090625Y0072416D01*
X0090632Y007241D01*
X0090644Y0072394D01*
X0090821Y0072258D01*
X0091028Y0072172D01*
X009125Y0072143D01*
X0091472Y0072172D01*
X0091679Y0072258D01*
X0091856Y0072394D01*
X0091868Y007241D01*
X0091875Y0072416D01*
X0091894Y0072429D01*
X0091917Y0072442D01*
X0091944Y0072455D01*
X0091976Y0072466D01*
X0092014Y0072476D01*
X0092054Y0072484D01*
X0092115Y007249D01*
X00924D01*
X0092443Y0072485D01*
X0092486Y0072476D01*
X0092524Y0072466D01*
X0092556Y0072455D01*
X0092583Y0072442D01*
X0092606Y0072429D01*
X0092625Y0072416D01*
X0092632Y007241D01*
X0092644Y0072394D01*
X0092821Y0072258D01*
X0093028Y0072172D01*
X009325Y0072143D01*
X0093472Y0072172D01*
X0093679Y0072258D01*
X0093856Y0072394D01*
X0093888Y0072435D01*
X0093894Y0072439D01*
X0093916Y0072462D01*
X0093932Y0072475D01*
X0093952Y0072488D01*
X0093976Y0072501D01*
X0094006Y0072512D01*
X0094041Y0072523D01*
X0094082Y0072531D01*
X0094127Y0072538D01*
X0096784D01*
X0096844Y0072529D01*
X0096921Y007251D01*
X0096999Y0072484D01*
X0097079Y0072449D01*
X0097161Y0072406D01*
X0097245Y0072354D01*
X0097332Y0072293D01*
X009742Y0072223D01*
X0097455Y0072191D01*
X0097473Y0072168D01*
X0097744Y0071959D01*
X0098061Y0071828D01*
X00984Y0071784D01*
X0098739Y0071828D01*
X0099056Y0071959D01*
X0099327Y0072168D01*
X0099536Y0072439D01*
X0099667Y0072756D01*
X0099711Y0073095D01*
X0099667Y0073434D01*
X0099536Y0073751D01*
X0099327Y0074022D01*
X0099056Y0074231D01*
X0098739Y0074362D01*
X00984Y0074406D01*
X0098061Y0074362D01*
X0097744Y0074231D01*
X0097473Y0074022D01*
X0097431Y0073967D01*
X0097351Y0073884D01*
X0097273Y007381D01*
X0097195Y0073747D01*
X0097118Y0073693D01*
X0097041Y0073649D01*
X0096966Y0073613D01*
X0096892Y0073586D01*
X0096818Y0073567D01*
X0096756Y0073557D01*
X0094066D01*
X0094025Y0073562D01*
X0093981Y007357D01*
X0093941Y0073579D01*
X0093906Y007359D01*
X0093877Y0073602D01*
X0093852Y0073615D01*
X0093832Y0073628D01*
X0093806Y0073648D01*
X0093794Y0073654D01*
X0093679Y0073742D01*
X0093472Y0073828D01*
X009325Y0073857D01*
X0093028Y0073828D01*
X0092821Y0073742D01*
X0092644Y0073606D01*
X0092632Y007359D01*
X0092625Y0073584D01*
X0092606Y0073571D01*
X0092583Y0073558D01*
X0092556Y0073545D01*
X0092524Y0073534D01*
X0092486Y0073524D01*
X0092446Y0073516D01*
X0092385Y007351D01*
X00921D01*
X0092057Y0073515D01*
X0092014Y0073524D01*
X0091976Y0073534D01*
X0091944Y0073545D01*
X0091917Y0073558D01*
X0091894Y0073571D01*
X0091875Y0073584D01*
X0091868Y007359D01*
X0091856Y0073606D01*
X0091679Y0073742D01*
X0091472Y0073828D01*
X009125Y0073857D01*
X0091028Y0073828D01*
X0090821Y0073742D01*
X0090644Y0073606D01*
X0090632Y007359D01*
X0090625Y0073584D01*
X0090606Y0073571D01*
X0090583Y0073558D01*
X0090556Y0073545D01*
X0090524Y0073534D01*
X0090486Y0073524D01*
X0090446Y0073516D01*
X0090385Y007351D01*
X0089671D01*
X008951Y0073671D01*
Y0080139D01*
X0089861Y008049D01*
X00904D01*
X0090443Y0080485D01*
X0090486Y0080476D01*
X0090524Y0080466D01*
X0090556Y0080455D01*
X0090583Y0080442D01*
X0090606Y0080429D01*
X0090625Y0080416D01*
X0090632Y008041D01*
X0090644Y0080394D01*
X0090821Y0080258D01*
X0091028Y0080172D01*
X009125Y0080143D01*
X0091472Y0080172D01*
X0091679Y0080258D01*
X0091856Y0080394D01*
X0091868Y008041D01*
X0091875Y0080416D01*
X0091894Y0080429D01*
X0091917Y0080442D01*
X0091944Y0080455D01*
X0091976Y0080466D01*
X0092014Y0080476D01*
X0092054Y0080484D01*
X0092115Y008049D01*
X00924D01*
X0092443Y0080485D01*
X0092486Y0080476D01*
X0092524Y0080466D01*
X0092556Y0080455D01*
X0092583Y0080442D01*
X0092606Y0080429D01*
X0092625Y0080416D01*
X0092632Y008041D01*
X0092644Y0080394D01*
X0092821Y0080258D01*
X0093028Y0080172D01*
X009325Y0080143D01*
X0093472Y0080172D01*
X0093679Y0080258D01*
X0093856Y0080394D01*
X0093992Y0080571D01*
X0094078Y0080778D01*
X0094107Y0081D01*
X0094078Y0081222D01*
X0093992Y0081429D01*
X0093856Y0081606D01*
X0093679Y0081742D01*
X0093472Y0081828D01*
X009325Y0081857D01*
D02*
G37*
G36*
X00785Y0084708D02*
X0078167Y0084675D01*
X0077846Y0084578D01*
X0077551Y008442D01*
X0077292Y0084208D01*
X007708Y0083949D01*
X0076922Y0083654D01*
X0076825Y0083333D01*
X0076792Y0083D01*
X0076825Y0082667D01*
X0076922Y0082346D01*
X007708Y0082051D01*
X0077292Y0081792D01*
X0077551Y008158D01*
X0077846Y0081422D01*
X0078167Y0081325D01*
X00785Y0081292D01*
X0078833Y0081325D01*
X0079154Y0081422D01*
X0079449Y008158D01*
X0079708Y0081792D01*
X007992Y0082051D01*
X0080078Y0082346D01*
X0080175Y0082667D01*
X0080208Y0083D01*
X0080175Y0083333D01*
X0080078Y0083654D01*
X007992Y0083949D01*
X0079708Y0084208D01*
X0079449Y008442D01*
X0079154Y0084578D01*
X0078833Y0084675D01*
X00785Y0084708D01*
D02*
G37*
G36*
X00984Y0082081D02*
X0098047Y0082034D01*
X0097717Y0081898D01*
X0097554Y0081773D01*
X00984Y0080927D01*
X0099246Y0081773D01*
X0099083Y0081898D01*
X0098753Y0082034D01*
X00984Y0082081D01*
D02*
G37*
G36*
X0108789Y0082305D02*
X0108476Y0082264D01*
X0108184Y0082143D01*
X0107933Y0081951D01*
X0107741Y00817D01*
X010762Y0081408D01*
X0107579Y0081095D01*
X010762Y0080782D01*
X0107741Y008049D01*
X0107933Y0080239D01*
X0108184Y0080047D01*
X0108476Y0079926D01*
X0108789Y0079885D01*
X0109102Y0079926D01*
X0109394Y0080047D01*
X0109645Y0080239D01*
X0109837Y008049D01*
X0109958Y0080782D01*
X011Y0081095D01*
X0109958Y0081408D01*
X0109837Y00817D01*
X0109645Y0081951D01*
X0109394Y0082143D01*
X0109102Y0082264D01*
X0108789Y0082305D01*
D02*
G37*
G36*
X0099458Y0081561D02*
X0098612Y0080715D01*
X0099458Y0079869D01*
X0099583Y0080032D01*
X0099719Y0080362D01*
X0099766Y0080715D01*
X0099719Y0081068D01*
X0099583Y0081398D01*
X0099458Y0081561D01*
D02*
G37*
G36*
X0097342Y0081561D02*
X0097217Y0081398D01*
X0097081Y0081068D01*
X0097034Y0080715D01*
X0097081Y0080362D01*
X0097217Y0080032D01*
X0097342Y0079869D01*
X0098188Y0080715D01*
X0097342Y0081561D01*
D02*
G37*
G36*
X009325Y0079857D02*
X0093028Y0079828D01*
X0092821Y0079742D01*
X0092644Y0079606D01*
X0092632Y007959D01*
X0092625Y0079584D01*
X0092606Y0079571D01*
X0092583Y0079558D01*
X0092556Y0079545D01*
X0092524Y0079534D01*
X0092486Y0079524D01*
X0092446Y0079516D01*
X0092385Y007951D01*
X00921D01*
X0092057Y0079515D01*
X0092014Y0079524D01*
X0091976Y0079534D01*
X0091944Y0079545D01*
X0091917Y0079558D01*
X0091894Y0079571D01*
X0091875Y0079584D01*
X0091868Y007959D01*
X0091856Y0079606D01*
X0091679Y0079742D01*
X0091472Y0079828D01*
X009125Y0079857D01*
X0091028Y0079828D01*
X0090821Y0079742D01*
X0090644Y0079606D01*
X0090508Y0079429D01*
X0090422Y0079222D01*
X0090393Y0079D01*
X0090422Y0078778D01*
X0090508Y0078571D01*
X0090644Y0078394D01*
X0090821Y0078258D01*
X0091028Y0078172D01*
X009125Y0078143D01*
X0091472Y0078172D01*
X0091679Y0078258D01*
X0091856Y0078394D01*
X0091868Y007841D01*
X0091875Y0078416D01*
X0091894Y0078429D01*
X0091917Y0078442D01*
X0091944Y0078455D01*
X0091976Y0078466D01*
X0092014Y0078476D01*
X0092054Y0078484D01*
X0092115Y007849D01*
X00924D01*
X0092443Y0078485D01*
X0092486Y0078476D01*
X0092524Y0078466D01*
X0092556Y0078455D01*
X0092583Y0078442D01*
X0092606Y0078429D01*
X0092625Y0078416D01*
X0092632Y007841D01*
X0092644Y0078394D01*
X0092821Y0078258D01*
X0093028Y0078172D01*
X009325Y0078143D01*
X0093472Y0078172D01*
X0093679Y0078258D01*
X0093856Y0078394D01*
X0093992Y0078571D01*
X0094078Y0078778D01*
X0094107Y0079D01*
X0094078Y0079222D01*
X0093992Y0079429D01*
X0093856Y0079606D01*
X0093679Y0079742D01*
X0093472Y0079828D01*
X009325Y0079857D01*
D02*
G37*
G36*
X00984Y0080503D02*
X0097554Y0079657D01*
X0097717Y0079532D01*
X0098047Y0079396D01*
X00984Y0079349D01*
X0098753Y0079396D01*
X0099083Y0079532D01*
X0099246Y0079657D01*
X00984Y0080503D01*
D02*
G37*
G36*
X009325Y0077857D02*
X0093028Y0077828D01*
X0092821Y0077742D01*
X0092644Y0077606D01*
X0092632Y007759D01*
X0092625Y0077584D01*
X0092606Y0077571D01*
X0092583Y0077558D01*
X0092556Y0077545D01*
X0092524Y0077534D01*
X0092486Y0077524D01*
X0092446Y0077516D01*
X0092385Y007751D01*
X00921D01*
X0092057Y0077515D01*
X0092014Y0077524D01*
X0091976Y0077534D01*
X0091944Y0077545D01*
X0091917Y0077558D01*
X0091894Y0077571D01*
X0091875Y0077584D01*
X0091868Y007759D01*
X0091856Y0077606D01*
X0091679Y0077742D01*
X0091472Y0077828D01*
X009125Y0077857D01*
X0091028Y0077828D01*
X0090821Y0077742D01*
X0090644Y0077606D01*
X0090508Y0077429D01*
X0090422Y0077222D01*
X0090393Y0077D01*
X0090422Y0076778D01*
X0090508Y0076571D01*
X0090644Y0076394D01*
X0090821Y0076258D01*
X0091028Y0076172D01*
X009125Y0076143D01*
X0091472Y0076172D01*
X0091679Y0076258D01*
X0091856Y0076394D01*
X0091868Y007641D01*
X0091875Y0076416D01*
X0091894Y0076429D01*
X0091917Y0076442D01*
X0091944Y0076455D01*
X0091976Y0076466D01*
X0092014Y0076476D01*
X0092054Y0076484D01*
X0092115Y007649D01*
X00924D01*
X0092443Y0076485D01*
X0092486Y0076476D01*
X0092524Y0076466D01*
X0092556Y0076455D01*
X0092583Y0076442D01*
X0092606Y0076429D01*
X0092625Y0076416D01*
X0092632Y007641D01*
X0092644Y0076394D01*
X0092821Y0076258D01*
X0093028Y0076172D01*
X009325Y0076143D01*
X0093472Y0076172D01*
X0093679Y0076258D01*
X0093856Y0076394D01*
X0093992Y0076571D01*
X0094078Y0076778D01*
X0094107Y0077D01*
X0094078Y0077222D01*
X0093992Y0077429D01*
X0093856Y0077606D01*
X0093679Y0077742D01*
X0093472Y0077828D01*
X009325Y0077857D01*
D02*
G37*
G36*
X01115Y0079263D02*
X0110944Y0079227D01*
X0110397Y0079118D01*
X0109869Y0078939D01*
X0109368Y0078692D01*
X0108905Y0078382D01*
X0108599Y0078114D01*
X01115Y0075212D01*
X0114401Y0078114D01*
X0114095Y0078382D01*
X0113632Y0078692D01*
X0113131Y0078939D01*
X0112603Y0079118D01*
X0112056Y0079227D01*
X01115Y0079263D01*
D02*
G37*
G36*
X00785D02*
X0077944Y0079227D01*
X0077397Y0079118D01*
X0076869Y0078939D01*
X0076368Y0078692D01*
X0075905Y0078382D01*
X0075599Y0078114D01*
X00785Y0075212D01*
X0081401Y0078114D01*
X0081095Y0078382D01*
X0080632Y0078692D01*
X0080131Y0078939D01*
X0079603Y0079118D01*
X0079056Y0079227D01*
X00785Y0079263D01*
D02*
G37*
G36*
X009325Y0075912D02*
X0093014Y0075881D01*
X0092794Y007579D01*
X0092725Y0075737D01*
X009325Y0075212D01*
X0093775Y0075737D01*
X0093706Y007579D01*
X0093486Y0075881D01*
X009325Y0075912D01*
D02*
G37*
G36*
X009125D02*
X0091014Y0075881D01*
X0090794Y007579D01*
X0090725Y0075737D01*
X009125Y0075212D01*
X0091775Y0075737D01*
X0091706Y007579D01*
X0091486Y0075881D01*
X009125Y0075912D01*
D02*
G37*
G36*
X0093987Y0075525D02*
X0093462Y0075D01*
X0093987Y0074475D01*
X009404Y0074544D01*
X0094131Y0074764D01*
X0094162Y0075D01*
X0094131Y0075236D01*
X009404Y0075456D01*
X0093987Y0075525D01*
D02*
G37*
G36*
X0091987D02*
X0091462Y0075D01*
X0091987Y0074475D01*
X009204Y0074544D01*
X0092131Y0074764D01*
X0092162Y0075D01*
X0092131Y0075236D01*
X009204Y0075456D01*
X0091987Y0075525D01*
D02*
G37*
G36*
X0092513D02*
X009246Y0075456D01*
X0092369Y0075236D01*
X0092338Y0075D01*
X0092369Y0074764D01*
X009246Y0074544D01*
X0092513Y0074475D01*
X0093038Y0075D01*
X0092513Y0075525D01*
D02*
G37*
G36*
X0090513D02*
X009046Y0075456D01*
X0090369Y0075236D01*
X0090338Y0075D01*
X0090369Y0074764D01*
X009046Y0074544D01*
X0090513Y0074475D01*
X0091038Y0075D01*
X0090513Y0075525D01*
D02*
G37*
G36*
X009325Y0074788D02*
X0092725Y0074263D01*
X0092794Y007421D01*
X0093014Y0074119D01*
X009325Y0074088D01*
X0093486Y0074119D01*
X0093706Y007421D01*
X0093775Y0074263D01*
X009325Y0074788D01*
D02*
G37*
G36*
X009125D02*
X0090725Y0074263D01*
X0090794Y007421D01*
X0091014Y0074119D01*
X009125Y0074088D01*
X0091486Y0074119D01*
X0091706Y007421D01*
X0091775Y0074263D01*
X009125Y0074788D01*
D02*
G37*
G36*
X0114614Y0077901D02*
X0111712Y0075D01*
X0114614Y0072099D01*
X0114882Y0072405D01*
X0115192Y0072868D01*
X0115439Y0073369D01*
X0115618Y0073897D01*
X0115727Y0074444D01*
X0115763Y0075D01*
X0115727Y0075556D01*
X0115618Y0076103D01*
X0115439Y0076631D01*
X0115192Y0077132D01*
X0114882Y0077595D01*
X0114614Y0077901D01*
D02*
G37*
G36*
X0075386Y0077901D02*
X0075118Y0077595D01*
X0074808Y0077132D01*
X0074561Y0076631D01*
X0074382Y0076103D01*
X0074273Y0075556D01*
X0074237Y0075D01*
X0074273Y0074444D01*
X0074382Y0073897D01*
X0074561Y0073369D01*
X0074808Y0072868D01*
X0075118Y0072405D01*
X0075386Y0072099D01*
X0078288Y0075D01*
X0075386Y0077901D01*
D02*
G37*
G36*
X0108386Y0077901D02*
X0108118Y0077595D01*
X0107808Y0077132D01*
X0107561Y0076631D01*
X0107382Y0076103D01*
X0107273Y0075556D01*
X0107237Y0075D01*
X0107273Y0074444D01*
X0107382Y0073897D01*
X0107561Y0073369D01*
X0107808Y0072868D01*
X0108118Y0072405D01*
X0108386Y0072099D01*
X0111288Y0075D01*
X0108386Y0077901D01*
D02*
G37*
G36*
X0081614Y0077901D02*
X0078712Y0075D01*
X0081614Y0072099D01*
X0081882Y0072405D01*
X0082192Y0072868D01*
X0082439Y0073369D01*
X0082618Y0073897D01*
X0082727Y0074444D01*
X0082763Y0075D01*
X0082727Y0075556D01*
X0082618Y0076103D01*
X0082439Y0076631D01*
X0082192Y0077132D01*
X0081882Y0077595D01*
X0081614Y0077901D01*
D02*
G37*
G36*
X01115Y0074788D02*
X0108599Y0071886D01*
X0108905Y0071618D01*
X0109368Y0071308D01*
X0109869Y0071061D01*
X0110397Y0070882D01*
X0110944Y0070773D01*
X01115Y0070737D01*
X0112056Y0070773D01*
X0112603Y0070882D01*
X0113131Y0071061D01*
X0113632Y0071308D01*
X0114095Y0071618D01*
X0114401Y0071886D01*
X01115Y0074788D01*
D02*
G37*
G36*
X00785Y0074788D02*
X0075599Y0071886D01*
X0075905Y0071618D01*
X0076368Y0071308D01*
X0076869Y0071061D01*
X0077397Y0070882D01*
X0077944Y0070773D01*
X00785Y0070737D01*
X0079056Y0070773D01*
X0079603Y0070882D01*
X0080131Y0071061D01*
X0080632Y0071308D01*
X0081095Y0071618D01*
X0081401Y0071886D01*
X00785Y0074788D01*
D02*
G37*
G36*
X009325Y0069857D02*
X0093028Y0069828D01*
X0092821Y0069742D01*
X0092644Y0069606D01*
X0092508Y0069429D01*
X0092422Y0069222D01*
X0092393Y0069D01*
X0092422Y0068778D01*
X0092508Y0068571D01*
X0092644Y0068394D01*
X0092821Y0068258D01*
X0093028Y0068172D01*
X009325Y0068143D01*
X0093472Y0068172D01*
X0093679Y0068258D01*
X0093856Y0068394D01*
X0093992Y0068571D01*
X0094078Y0068778D01*
X0094107Y0069D01*
X0094078Y0069222D01*
X0093992Y0069429D01*
X0093856Y0069606D01*
X0093679Y0069742D01*
X0093472Y0069828D01*
X009325Y0069857D01*
D02*
G37*
G36*
X009125D02*
X0091028Y0069828D01*
X0090821Y0069742D01*
X0090644Y0069606D01*
X0090508Y0069429D01*
X0090422Y0069222D01*
X0090393Y0069D01*
X0090422Y0068778D01*
X0090508Y0068571D01*
X0090644Y0068394D01*
X0090821Y0068258D01*
X0091028Y0068172D01*
X009125Y0068143D01*
X0091472Y0068172D01*
X0091679Y0068258D01*
X0091856Y0068394D01*
X0091992Y0068571D01*
X0092078Y0068778D01*
X0092107Y0069D01*
X0092078Y0069222D01*
X0091992Y0069429D01*
X0091856Y0069606D01*
X0091679Y0069742D01*
X0091472Y0069828D01*
X009125Y0069857D01*
D02*
G37*
G36*
X0108Y0067857D02*
X0107778Y0067828D01*
X0107571Y0067742D01*
X0107394Y0067606D01*
X0107258Y0067429D01*
X0107172Y0067222D01*
X0107143Y0067D01*
X0107172Y0066778D01*
X0107258Y0066571D01*
X0107394Y0066394D01*
X0107571Y0066258D01*
X0107778Y0066172D01*
X0108Y0066143D01*
X0108222Y0066172D01*
X0108429Y0066258D01*
X0108606Y0066394D01*
X0108742Y0066571D01*
X0108828Y0066778D01*
X0108857Y0067D01*
X0108828Y0067222D01*
X0108742Y0067429D01*
X0108606Y0067606D01*
X0108429Y0067742D01*
X0108222Y0067828D01*
X0108Y0067857D01*
D02*
G37*
G36*
X0104289Y0088805D02*
X0103976Y0088764D01*
X0103684Y0088643D01*
X0103433Y0088451D01*
X0103241Y00882D01*
X010312Y0087908D01*
X0103079Y0087595D01*
X010312Y0087282D01*
X0103241Y008699D01*
X0103433Y0086739D01*
X0103471Y008671D01*
X0103545Y0086636D01*
X0103712Y0086446D01*
X0103776Y0086363D01*
X0103829Y0086284D01*
X010387Y0086212D01*
X0103901Y0086148D01*
X0103921Y0086092D01*
X0103932Y0086045D01*
X0103932Y0086035D01*
Y0082655D01*
X0103932Y0082645D01*
X0103921Y0082598D01*
X0103901Y0082542D01*
X010387Y0082478D01*
X0103829Y0082406D01*
X0103776Y0082327D01*
X0103712Y0082244D01*
X0103545Y0082054D01*
X0103471Y008198D01*
X0103433Y0081951D01*
X0103241Y00817D01*
X010312Y0081408D01*
X0103079Y0081095D01*
X010312Y0080782D01*
X0103241Y008049D01*
X0103433Y0080239D01*
X0103471Y008021D01*
X0103545Y0080136D01*
X0103712Y0079946D01*
X0103776Y0079863D01*
X0103829Y0079784D01*
X010387Y0079712D01*
X0103901Y0079648D01*
X0103921Y0079592D01*
X0103932Y0079545D01*
X0103932Y0079535D01*
Y0073437D01*
X0103248Y0072752D01*
X010317Y0072637D01*
X0103143Y00725D01*
Y0060898D01*
X0102852Y0060607D01*
X0092898D01*
X0091607Y0061898D01*
Y0064012D01*
X0091611Y0064038D01*
X0091621Y0064072D01*
X0091635Y0064109D01*
X0091655Y0064149D01*
X0091681Y0064192D01*
X0091712Y0064236D01*
X0091798Y006434D01*
X0091837Y0064379D01*
X0091856Y0064394D01*
X0091992Y0064571D01*
X0092078Y0064778D01*
X0092107Y0065D01*
X0092078Y0065222D01*
X0091992Y0065429D01*
X0091856Y0065606D01*
X0091679Y0065742D01*
X0091472Y0065828D01*
X009125Y0065857D01*
X0091028Y0065828D01*
X0090821Y0065742D01*
X0090644Y0065606D01*
X0090508Y0065429D01*
X0090422Y0065222D01*
X0090393Y0065D01*
X0090422Y0064778D01*
X0090508Y0064571D01*
X0090644Y0064394D01*
X0090663Y0064379D01*
X0090703Y0064338D01*
X0090748Y0064287D01*
X0090787Y0064238D01*
X0090819Y0064192D01*
X0090845Y0064149D01*
X0090865Y0064109D01*
X0090879Y0064072D01*
X0090889Y0064038D01*
X0090893Y0064012D01*
Y006175D01*
X009092Y0061613D01*
X0090998Y0061498D01*
X0092498Y0059998D01*
X0092613Y005992D01*
X009275Y0059893D01*
X0103D01*
X0103137Y005992D01*
X0103252Y0059998D01*
X0103752Y0060498D01*
X010383Y0060613D01*
X0103857Y006075D01*
Y0061494D01*
X0103984Y0061537D01*
X0104094Y0061394D01*
X0104271Y0061258D01*
X0104478Y0061172D01*
X01047Y0061143D01*
X0104922Y0061172D01*
X0105129Y0061258D01*
X0105306Y0061394D01*
X0105442Y0061571D01*
X0105528Y0061778D01*
X0105557Y0062D01*
X0105528Y0062222D01*
X0105442Y0062429D01*
X0105306Y0062606D01*
X0105129Y0062742D01*
X0104922Y0062828D01*
X01047Y0062857D01*
X0104478Y0062828D01*
X0104271Y0062742D01*
X0104094Y0062606D01*
X0103984Y0062463D01*
X0103857Y0062506D01*
Y0063994D01*
X0103984Y0064037D01*
X0104094Y0063894D01*
X0104271Y0063758D01*
X0104478Y0063672D01*
X01047Y0063643D01*
X0104922Y0063672D01*
X0105129Y0063758D01*
X0105306Y0063894D01*
X0105442Y0064071D01*
X0105528Y0064278D01*
X0105557Y00645D01*
X0105528Y0064722D01*
X0105442Y0064929D01*
X0105306Y0065106D01*
X0105129Y0065242D01*
X0104922Y0065328D01*
X01047Y0065357D01*
X0104478Y0065328D01*
X0104271Y0065242D01*
X0104094Y0065106D01*
X0103984Y0064963D01*
X0103857Y0065006D01*
Y0066494D01*
X0103984Y0066537D01*
X0104094Y0066394D01*
X0104271Y0066258D01*
X0104478Y0066172D01*
X01047Y0066143D01*
X0104922Y0066172D01*
X0105129Y0066258D01*
X0105306Y0066394D01*
X0105442Y0066571D01*
X0105528Y0066778D01*
X0105557Y0067D01*
X0105528Y0067222D01*
X0105442Y0067429D01*
X0105306Y0067606D01*
X0105129Y0067742D01*
X0104922Y0067828D01*
X01047Y0067857D01*
X0104478Y0067828D01*
X0104271Y0067742D01*
X0104094Y0067606D01*
X0103984Y0067463D01*
X0103857Y0067506D01*
Y0072352D01*
X0104541Y0073037D01*
X0104619Y0073153D01*
X0104646Y0073289D01*
Y0079535D01*
X0104647Y0079545D01*
X0104657Y0079592D01*
X0104677Y0079648D01*
X0104708Y0079712D01*
X010475Y0079784D01*
X0104803Y0079863D01*
X0104866Y0079946D01*
X0105034Y0080136D01*
X0105107Y008021D01*
X0105145Y0080239D01*
X0105337Y008049D01*
X0105458Y0080782D01*
X01055Y0081095D01*
X0105458Y0081408D01*
X0105337Y00817D01*
X0105145Y0081951D01*
X0105107Y008198D01*
X0105034Y0082054D01*
X0104866Y0082244D01*
X0104803Y0082327D01*
X010475Y0082406D01*
X0104708Y0082478D01*
X0104677Y0082542D01*
X0104657Y0082598D01*
X0104647Y0082645D01*
X0104646Y0082655D01*
Y0086035D01*
X0104647Y0086045D01*
X0104657Y0086092D01*
X0104677Y0086148D01*
X0104708Y0086212D01*
X010475Y0086284D01*
X0104803Y0086363D01*
X0104866Y0086446D01*
X0105034Y0086636D01*
X0105107Y008671D01*
X0105145Y0086739D01*
X0105337Y008699D01*
X0105458Y0087282D01*
X01055Y0087595D01*
X0105458Y0087908D01*
X0105337Y00882D01*
X0105145Y0088451D01*
X0104894Y0088643D01*
X0104602Y0088764D01*
X0104289Y0088805D01*
D02*
G37*
G36*
X009325Y0067857D02*
X0093028Y0067828D01*
X0092821Y0067742D01*
X0092644Y0067606D01*
X0092508Y0067429D01*
X0092422Y0067222D01*
X0092393Y0067D01*
X0092422Y0066778D01*
X0092508Y0066571D01*
X0092644Y0066394D01*
X0092821Y0066258D01*
X0093028Y0066172D01*
X009325Y0066143D01*
X0093472Y0066172D01*
X0093679Y0066258D01*
X0093856Y0066394D01*
X0093992Y0066571D01*
X0094078Y0066778D01*
X0094107Y0067D01*
X0094078Y0067222D01*
X0093992Y0067429D01*
X0093856Y0067606D01*
X0093679Y0067742D01*
X0093472Y0067828D01*
X009325Y0067857D01*
D02*
G37*
G36*
X009125D02*
X0091028Y0067828D01*
X0090821Y0067742D01*
X0090644Y0067606D01*
X0090508Y0067429D01*
X0090422Y0067222D01*
X0090393Y0067D01*
X0090422Y0066778D01*
X0090508Y0066571D01*
X0090644Y0066394D01*
X0090821Y0066258D01*
X0091028Y0066172D01*
X009125Y0066143D01*
X0091472Y0066172D01*
X0091679Y0066258D01*
X0091856Y0066394D01*
X0091992Y0066571D01*
X0092078Y0066778D01*
X0092107Y0067D01*
X0092078Y0067222D01*
X0091992Y0067429D01*
X0091856Y0067606D01*
X0091679Y0067742D01*
X0091472Y0067828D01*
X009125Y0067857D01*
D02*
G37*
G36*
X01115Y0068708D02*
X0111167Y0068675D01*
X0110846Y0068578D01*
X0110551Y006842D01*
X0110292Y0068208D01*
X011008Y0067949D01*
X0109922Y0067654D01*
X0109825Y0067333D01*
X0109792Y0067D01*
X0109825Y0066667D01*
X0109922Y0066346D01*
X011008Y0066051D01*
X0110292Y0065792D01*
X0110551Y006558D01*
X0110846Y0065422D01*
X0111167Y0065325D01*
X01115Y0065292D01*
X0111833Y0065325D01*
X0112154Y0065422D01*
X0112449Y006558D01*
X0112708Y0065792D01*
X011292Y0066051D01*
X0113078Y0066346D01*
X0113175Y0066667D01*
X0113208Y0067D01*
X0113175Y0067333D01*
X0113078Y0067654D01*
X011292Y0067949D01*
X0112708Y0068208D01*
X0112449Y006842D01*
X0112154Y0068578D01*
X0111833Y0068675D01*
X01115Y0068708D01*
D02*
G37*
G36*
X009325Y0065857D02*
X0093028Y0065828D01*
X0092821Y0065742D01*
X0092644Y0065606D01*
X0092508Y0065429D01*
X0092422Y0065222D01*
X0092393Y0065D01*
X0092422Y0064778D01*
X0092508Y0064571D01*
X0092644Y0064394D01*
X0092821Y0064258D01*
X0093028Y0064172D01*
X009325Y0064143D01*
X0093472Y0064172D01*
X0093679Y0064258D01*
X0093856Y0064394D01*
X0093992Y0064571D01*
X0094078Y0064778D01*
X0094107Y0065D01*
X0094078Y0065222D01*
X0093992Y0065429D01*
X0093856Y0065606D01*
X0093679Y0065742D01*
X0093472Y0065828D01*
X009325Y0065857D01*
D02*
G37*
G36*
X0108Y0065357D02*
X0107778Y0065328D01*
X0107571Y0065242D01*
X0107394Y0065106D01*
X0107258Y0064929D01*
X0107172Y0064722D01*
X0107143Y00645D01*
X0107172Y0064278D01*
X0107258Y0064071D01*
X0107394Y0063894D01*
X0107571Y0063758D01*
X0107778Y0063672D01*
X0108Y0063643D01*
X0108222Y0063672D01*
X0108429Y0063758D01*
X0108606Y0063894D01*
X0108742Y0064071D01*
X0108828Y0064278D01*
X0108857Y00645D01*
X0108828Y0064722D01*
X0108742Y0064929D01*
X0108606Y0065106D01*
X0108429Y0065242D01*
X0108222Y0065328D01*
X0108Y0065357D01*
D02*
G37*
G36*
X008075Y0065836D02*
X0080404Y0065791D01*
X0080082Y0065657D01*
X0079805Y0065445D01*
X0079593Y0065168D01*
X0079459Y0064846D01*
X0079414Y00645D01*
X0079459Y0064154D01*
X0079593Y0063832D01*
X0079805Y0063555D01*
X0080082Y0063343D01*
X0080404Y0063209D01*
X008075Y0063164D01*
X0081096Y0063209D01*
X0081418Y0063343D01*
X0081695Y0063555D01*
X0081907Y0063832D01*
X0082041Y0064154D01*
X0082086Y00645D01*
X0082041Y0064846D01*
X0081907Y0065168D01*
X0081695Y0065445D01*
X0081418Y0065657D01*
X0081096Y0065791D01*
X008075Y0065836D01*
D02*
G37*
G36*
X0108Y0062857D02*
X0107778Y0062828D01*
X0107571Y0062742D01*
X0107394Y0062606D01*
X0107258Y0062429D01*
X0107172Y0062222D01*
X0107143Y0062D01*
X0107172Y0061778D01*
X0107258Y0061571D01*
X0107394Y0061394D01*
X0107571Y0061258D01*
X0107778Y0061172D01*
X0108Y0061143D01*
X0108222Y0061172D01*
X0108429Y0061258D01*
X0108606Y0061394D01*
X0108742Y0061571D01*
X0108828Y0061778D01*
X0108857Y0062D01*
X0108828Y0062222D01*
X0108742Y0062429D01*
X0108606Y0062606D01*
X0108429Y0062742D01*
X0108222Y0062828D01*
X0108Y0062857D01*
D02*
G37*
G36*
X008675Y0059836D02*
X0086404Y0059791D01*
X0086082Y0059657D01*
X0085805Y0059445D01*
X0085593Y0059168D01*
X0085459Y0058846D01*
X0085414Y00585D01*
X0085459Y0058154D01*
X0085593Y0057832D01*
X0085805Y0057555D01*
X0086082Y0057343D01*
X0086404Y0057209D01*
X008675Y0057164D01*
X0087096Y0057209D01*
X0087418Y0057343D01*
X0087695Y0057555D01*
X0087907Y0057832D01*
X0088041Y0058154D01*
X0088086Y00585D01*
X0088041Y0058846D01*
X0087907Y0059168D01*
X0087695Y0059445D01*
X0087418Y0059657D01*
X0087096Y0059791D01*
X008675Y0059836D01*
D02*
G37*
%LPD*%
G36*
X0092786Y0084545D02*
X0092753Y0084574D01*
X0092717Y0084601D01*
X0092677Y0084624D01*
X0092632Y0084644D01*
X0092584Y0084661D01*
X0092532Y0084675D01*
X0092476Y0084686D01*
X0092416Y0084694D01*
X0092351Y0084698D01*
X0092283Y00847D01*
Y00853D01*
X0092351Y0085302D01*
X0092476Y0085314D01*
X0092532Y0085325D01*
X0092584Y0085339D01*
X0092632Y0085356D01*
X0092677Y0085376D01*
X0092717Y0085399D01*
X0092753Y0085426D01*
X0092786Y0085455D01*
Y0084545D01*
D02*
G37*
G36*
X0091747Y0085426D02*
X0091783Y0085399D01*
X0091823Y0085376D01*
X0091868Y0085356D01*
X0091916Y0085339D01*
X0091968Y0085325D01*
X0092024Y0085314D01*
X0092084Y0085306D01*
X0092149Y0085302D01*
X0092217Y00853D01*
Y00847D01*
X0092149Y0084698D01*
X0092024Y0084686D01*
X0091968Y0084675D01*
X0091916Y0084661D01*
X0091868Y0084644D01*
X0091823Y0084624D01*
X0091783Y0084601D01*
X0091747Y0084574D01*
X0091714Y0084545D01*
Y0085455D01*
X0091747Y0085426D01*
D02*
G37*
G36*
X0090786Y0084545D02*
X0090753Y0084574D01*
X0090717Y0084601D01*
X0090677Y0084624D01*
X0090632Y0084644D01*
X0090584Y0084661D01*
X0090532Y0084675D01*
X0090476Y0084686D01*
X0090416Y0084694D01*
X0090351Y0084698D01*
X0090283Y00847D01*
Y00853D01*
X0090351Y0085302D01*
X0090476Y0085314D01*
X0090532Y0085325D01*
X0090584Y0085339D01*
X0090632Y0085356D01*
X0090677Y0085376D01*
X0090717Y0085399D01*
X0090753Y0085426D01*
X0090786Y0085455D01*
Y0084545D01*
D02*
G37*
G36*
X0093747Y0071426D02*
X0093783Y0071399D01*
X0093823Y0071376D01*
X0093868Y0071356D01*
X0093916Y0071339D01*
X0093968Y0071325D01*
X0094024Y0071314D01*
X0094084Y0071306D01*
X0094149Y0071302D01*
X0094217Y00713D01*
Y00707D01*
X0094149Y0070698D01*
X0094024Y0070686D01*
X0093968Y0070675D01*
X0093916Y0070661D01*
X0093868Y0070644D01*
X0093823Y0070624D01*
X0093783Y0070601D01*
X0093747Y0070574D01*
X0093714Y0070545D01*
Y0071455D01*
X0093747Y0071426D01*
D02*
G37*
G36*
X0092786Y0070545D02*
X0092753Y0070574D01*
X0092717Y0070601D01*
X0092677Y0070624D01*
X0092632Y0070644D01*
X0092584Y0070661D01*
X0092532Y0070675D01*
X0092476Y0070686D01*
X0092416Y0070694D01*
X0092351Y0070698D01*
X0092283Y00707D01*
Y00713D01*
X0092351Y0071302D01*
X0092476Y0071314D01*
X0092532Y0071325D01*
X0092584Y0071339D01*
X0092632Y0071356D01*
X0092677Y0071376D01*
X0092717Y0071399D01*
X0092753Y0071426D01*
X0092786Y0071455D01*
Y0070545D01*
D02*
G37*
G36*
X0091747Y0071426D02*
X0091783Y0071399D01*
X0091823Y0071376D01*
X0091868Y0071356D01*
X0091916Y0071339D01*
X0091968Y0071325D01*
X0092024Y0071314D01*
X0092084Y0071306D01*
X0092149Y0071302D01*
X0092217Y00713D01*
Y00707D01*
X0092149Y0070698D01*
X0092024Y0070686D01*
X0091968Y0070675D01*
X0091916Y0070661D01*
X0091868Y0070644D01*
X0091823Y0070624D01*
X0091783Y0070601D01*
X0091747Y0070574D01*
X0091714Y0070545D01*
Y0071455D01*
X0091747Y0071426D01*
D02*
G37*
G36*
X0090786Y0070545D02*
X0090753Y0070574D01*
X0090717Y0070601D01*
X0090677Y0070624D01*
X0090632Y0070644D01*
X0090584Y0070661D01*
X0090532Y0070675D01*
X0090476Y0070686D01*
X0090416Y0070694D01*
X0090351Y0070698D01*
X0090283Y00707D01*
Y00713D01*
X0090351Y0071302D01*
X0090476Y0071314D01*
X0090532Y0071325D01*
X0090584Y0071339D01*
X0090632Y0071356D01*
X0090677Y0071376D01*
X0090717Y0071399D01*
X0090753Y0071426D01*
X0090786Y0071455D01*
Y0070545D01*
D02*
G37*
G36*
X0097467Y0070649D02*
X0097544Y0070592D01*
X0097627Y0070543D01*
X0097716Y00705D01*
X0097812Y0070463D01*
X0097914Y0070434D01*
X0098023Y0070412D01*
X0098139Y0070396D01*
X0098261Y0070387D01*
X0098389Y0070385D01*
X00973Y0069296D01*
X0097298Y0069424D01*
X0097289Y0069546D01*
X0097273Y0069662D01*
X0097251Y0069771D01*
X0097222Y0069873D01*
X0097185Y0069969D01*
X0097142Y0070058D01*
X0097093Y0070141D01*
X0097036Y0070218D01*
X0096973Y0070288D01*
X0097397Y0070712D01*
X0097467Y0070649D01*
D02*
G37*
G36*
X0093747Y0083426D02*
X0093783Y0083399D01*
X0093823Y0083376D01*
X0093868Y0083356D01*
X0093916Y0083339D01*
X0093968Y0083325D01*
X0094024Y0083314D01*
X0094084Y0083306D01*
X0094149Y0083302D01*
X0094217Y00833D01*
Y00827D01*
X0094149Y0082698D01*
X0094024Y0082686D01*
X0093968Y0082675D01*
X0093916Y0082661D01*
X0093868Y0082644D01*
X0093823Y0082624D01*
X0093783Y0082601D01*
X0093747Y0082574D01*
X0093714Y0082545D01*
Y0083455D01*
X0093747Y0083426D01*
D02*
G37*
G36*
X0092786Y0082545D02*
X0092753Y0082574D01*
X0092717Y0082601D01*
X0092677Y0082624D01*
X0092632Y0082644D01*
X0092584Y0082661D01*
X0092532Y0082675D01*
X0092476Y0082686D01*
X0092416Y0082694D01*
X0092351Y0082698D01*
X0092283Y00827D01*
Y00833D01*
X0092351Y0083302D01*
X0092476Y0083314D01*
X0092532Y0083325D01*
X0092584Y0083339D01*
X0092632Y0083356D01*
X0092677Y0083376D01*
X0092717Y0083399D01*
X0092753Y0083426D01*
X0092786Y0083455D01*
Y0082545D01*
D02*
G37*
G36*
X0091747Y0083426D02*
X0091783Y0083399D01*
X0091823Y0083376D01*
X0091868Y0083356D01*
X0091916Y0083339D01*
X0091968Y0083325D01*
X0092024Y0083314D01*
X0092084Y0083306D01*
X0092149Y0083302D01*
X0092217Y00833D01*
Y00827D01*
X0092149Y0082698D01*
X0092024Y0082686D01*
X0091968Y0082675D01*
X0091916Y0082661D01*
X0091868Y0082644D01*
X0091823Y0082624D01*
X0091783Y0082601D01*
X0091747Y0082574D01*
X0091714Y0082545D01*
Y0083455D01*
X0091747Y0083426D01*
D02*
G37*
G36*
X0097614Y0076135D02*
X0097522Y0076224D01*
X009743Y0076304D01*
X0097337Y0076375D01*
X0097244Y0076436D01*
X0097151Y0076488D01*
X0097058Y007653D01*
X0096964Y0076563D01*
X009687Y0076586D01*
X0096776Y00766D01*
X0096682Y0076605D01*
Y0077205D01*
X0096776Y007721D01*
X009687Y0077224D01*
X0096964Y0077247D01*
X0097058Y007728D01*
X0097151Y0077323D01*
X0097244Y0077374D01*
X0097337Y0077435D01*
X009743Y0077506D01*
X0097522Y0077586D01*
X0097614Y0077675D01*
Y0076135D01*
D02*
G37*
G36*
X0092786Y0080545D02*
X0092753Y0080574D01*
X0092717Y0080601D01*
X0092677Y0080624D01*
X0092632Y0080644D01*
X0092584Y0080661D01*
X0092532Y0080675D01*
X0092476Y0080686D01*
X0092416Y0080694D01*
X0092351Y0080698D01*
X0092283Y00807D01*
Y00813D01*
X0092351Y0081302D01*
X0092476Y0081314D01*
X0092532Y0081325D01*
X0092584Y0081339D01*
X0092632Y0081356D01*
X0092677Y0081376D01*
X0092717Y0081399D01*
X0092753Y0081426D01*
X0092786Y0081455D01*
Y0080545D01*
D02*
G37*
G36*
X0091747Y0081426D02*
X0091783Y0081399D01*
X0091823Y0081376D01*
X0091868Y0081356D01*
X0091916Y0081339D01*
X0091968Y0081325D01*
X0092024Y0081314D01*
X0092084Y0081306D01*
X0092149Y0081302D01*
X0092217Y00813D01*
Y00807D01*
X0092149Y0080698D01*
X0092024Y0080686D01*
X0091968Y0080675D01*
X0091916Y0080661D01*
X0091868Y0080644D01*
X0091823Y0080624D01*
X0091783Y0080601D01*
X0091747Y0080574D01*
X0091714Y0080545D01*
Y0081455D01*
X0091747Y0081426D01*
D02*
G37*
G36*
X0090786Y0080545D02*
X0090753Y0080574D01*
X0090717Y0080601D01*
X0090677Y0080624D01*
X0090632Y0080644D01*
X0090584Y0080661D01*
X0090532Y0080675D01*
X0090476Y0080686D01*
X0090416Y0080694D01*
X0090351Y0080698D01*
X0090283Y00807D01*
Y00813D01*
X0090351Y0081302D01*
X0090476Y0081314D01*
X0090532Y0081325D01*
X0090584Y0081339D01*
X0090632Y0081356D01*
X0090677Y0081376D01*
X0090717Y0081399D01*
X0090753Y0081426D01*
X0090786Y0081455D01*
Y0080545D01*
D02*
G37*
G36*
X0093713Y0073461D02*
X0093751Y0073437D01*
X0093792Y0073416D01*
X0093838Y0073398D01*
X0093887Y0073383D01*
X009394Y007337D01*
X0093996Y007336D01*
X0094057Y0073353D01*
X0094189Y0073348D01*
X0094239Y0072747D01*
X0094171Y0072746D01*
X0094107Y0072741D01*
X0094047Y0072732D01*
X0093992Y0072721D01*
X009394Y0072706D01*
X0093893Y0072687D01*
X009385Y0072665D01*
X0093811Y007264D01*
X0093777Y0072612D01*
X0093746Y007258D01*
X009368Y0073488D01*
X0093713Y0073461D01*
D02*
G37*
G36*
X0092786Y0072545D02*
X0092753Y0072574D01*
X0092717Y0072601D01*
X0092677Y0072624D01*
X0092632Y0072644D01*
X0092584Y0072661D01*
X0092532Y0072675D01*
X0092476Y0072686D01*
X0092416Y0072694D01*
X0092351Y0072698D01*
X0092283Y00727D01*
Y00733D01*
X0092351Y0073302D01*
X0092476Y0073314D01*
X0092532Y0073325D01*
X0092584Y0073339D01*
X0092632Y0073356D01*
X0092677Y0073376D01*
X0092717Y0073399D01*
X0092753Y0073426D01*
X0092786Y0073455D01*
Y0072545D01*
D02*
G37*
G36*
X0091747Y0073426D02*
X0091783Y0073399D01*
X0091823Y0073376D01*
X0091868Y0073356D01*
X0091916Y0073339D01*
X0091968Y0073325D01*
X0092024Y0073314D01*
X0092084Y0073306D01*
X0092149Y0073302D01*
X0092217Y00733D01*
Y00727D01*
X0092149Y0072698D01*
X0092024Y0072686D01*
X0091968Y0072675D01*
X0091916Y0072661D01*
X0091868Y0072644D01*
X0091823Y0072624D01*
X0091783Y0072601D01*
X0091747Y0072574D01*
X0091714Y0072545D01*
Y0073455D01*
X0091747Y0073426D01*
D02*
G37*
G36*
X0090786Y0072545D02*
X0090753Y0072574D01*
X0090717Y0072601D01*
X0090677Y0072624D01*
X0090632Y0072644D01*
X0090584Y0072661D01*
X0090532Y0072675D01*
X0090476Y0072686D01*
X0090416Y0072694D01*
X0090351Y0072698D01*
X0090283Y00727D01*
Y00733D01*
X0090351Y0073302D01*
X0090476Y0073314D01*
X0090532Y0073325D01*
X0090584Y0073339D01*
X0090632Y0073356D01*
X0090677Y0073376D01*
X0090717Y0073399D01*
X0090753Y0073426D01*
X0090786Y0073455D01*
Y0072545D01*
D02*
G37*
G36*
X0097648Y0072292D02*
X0097551Y0072378D01*
X0097454Y0072456D01*
X0097358Y0072524D01*
X0097262Y0072583D01*
X0097167Y0072634D01*
X0097072Y0072675D01*
X0096977Y0072706D01*
X0096883Y0072729D01*
X009679Y0072743D01*
X0096696Y0072747D01*
X0096669Y0073348D01*
X0096765Y0073352D01*
X0096859Y0073367D01*
X0096952Y0073391D01*
X0097045Y0073425D01*
X0097137Y0073468D01*
X0097228Y0073521D01*
X0097317Y0073584D01*
X0097407Y0073657D01*
X0097495Y0073739D01*
X0097582Y007383D01*
X0097648Y0072292D01*
D02*
G37*
G36*
X0092786Y0078545D02*
X0092753Y0078574D01*
X0092717Y0078601D01*
X0092677Y0078624D01*
X0092632Y0078644D01*
X0092584Y0078661D01*
X0092532Y0078675D01*
X0092476Y0078686D01*
X0092416Y0078694D01*
X0092351Y0078698D01*
X0092283Y00787D01*
Y00793D01*
X0092351Y0079302D01*
X0092476Y0079314D01*
X0092532Y0079325D01*
X0092584Y0079339D01*
X0092632Y0079356D01*
X0092677Y0079376D01*
X0092717Y0079399D01*
X0092753Y0079426D01*
X0092786Y0079455D01*
Y0078545D01*
D02*
G37*
G36*
X0091747Y0079426D02*
X0091783Y0079399D01*
X0091823Y0079376D01*
X0091868Y0079356D01*
X0091916Y0079339D01*
X0091968Y0079325D01*
X0092024Y0079314D01*
X0092084Y0079306D01*
X0092149Y0079302D01*
X0092217Y00793D01*
Y00787D01*
X0092149Y0078698D01*
X0092024Y0078686D01*
X0091968Y0078675D01*
X0091916Y0078661D01*
X0091868Y0078644D01*
X0091823Y0078624D01*
X0091783Y0078601D01*
X0091747Y0078574D01*
X0091714Y0078545D01*
Y0079455D01*
X0091747Y0079426D01*
D02*
G37*
G36*
X0092786Y0076545D02*
X0092753Y0076574D01*
X0092717Y0076601D01*
X0092677Y0076624D01*
X0092632Y0076644D01*
X0092584Y0076661D01*
X0092532Y0076675D01*
X0092476Y0076686D01*
X0092416Y0076694D01*
X0092351Y0076698D01*
X0092283Y00767D01*
Y00773D01*
X0092351Y0077302D01*
X0092476Y0077314D01*
X0092532Y0077325D01*
X0092584Y0077339D01*
X0092632Y0077356D01*
X0092677Y0077376D01*
X0092717Y0077399D01*
X0092753Y0077426D01*
X0092786Y0077455D01*
Y0076545D01*
D02*
G37*
G36*
X0091747Y0077426D02*
X0091783Y0077399D01*
X0091823Y0077376D01*
X0091868Y0077356D01*
X0091916Y0077339D01*
X0091968Y0077325D01*
X0092024Y0077314D01*
X0092084Y0077306D01*
X0092149Y0077302D01*
X0092217Y00773D01*
Y00767D01*
X0092149Y0076698D01*
X0092024Y0076686D01*
X0091968Y0076675D01*
X0091916Y0076661D01*
X0091868Y0076644D01*
X0091823Y0076624D01*
X0091783Y0076601D01*
X0091747Y0076574D01*
X0091714Y0076545D01*
Y0077455D01*
X0091747Y0077426D01*
D02*
G37*
G36*
X0104885Y0086775D02*
X0104709Y0086576D01*
X0104637Y0086482D01*
X0104577Y0086393D01*
X0104527Y0086307D01*
X0104489Y0086226D01*
X0104461Y0086149D01*
X0104445Y0086076D01*
X0104439Y0086006D01*
X0104139D01*
X0104134Y0086076D01*
X0104117Y0086149D01*
X010409Y0086226D01*
X0104051Y0086307D01*
X0104002Y0086393D01*
X0103941Y0086482D01*
X010387Y0086576D01*
X0103694Y0086775D01*
X0103589Y0086881D01*
X0104989D01*
X0104885Y0086775D01*
D02*
G37*
G36*
X0104445Y0082615D02*
X0104461Y0082541D01*
X0104489Y0082464D01*
X0104527Y0082383D01*
X0104577Y0082297D01*
X0104637Y0082208D01*
X0104709Y0082114D01*
X0104885Y0081915D01*
X0104989Y0081809D01*
X0103589D01*
X0103694Y0081915D01*
X010387Y0082114D01*
X0103941Y0082208D01*
X0104002Y0082297D01*
X0104051Y0082383D01*
X010409Y0082464D01*
X0104117Y0082541D01*
X0104134Y0082615D01*
X0104139Y0082684D01*
X0104439D01*
X0104445Y0082615D01*
D02*
G37*
G36*
X0104885Y0080275D02*
X0104709Y0080076D01*
X0104637Y0079982D01*
X0104577Y0079893D01*
X0104527Y0079807D01*
X0104489Y0079726D01*
X0104461Y0079649D01*
X0104445Y0079576D01*
X0104439Y0079506D01*
X0104139D01*
X0104134Y0079576D01*
X0104117Y0079649D01*
X010409Y0079726D01*
X0104051Y0079807D01*
X0104002Y0079893D01*
X0103941Y0079982D01*
X010387Y0080076D01*
X0103694Y0080275D01*
X0103589Y0080381D01*
X0104989D01*
X0104885Y0080275D01*
D02*
G37*
G36*
X0091647Y0064476D02*
X0091549Y006436D01*
X009151Y0064303D01*
X0091476Y0064247D01*
X0091449Y0064191D01*
X0091427Y0064137D01*
X0091412Y0064083D01*
X0091403Y006403D01*
X00914Y0063978D01*
X00911D01*
X0091097Y006403D01*
X0091088Y0064083D01*
X0091073Y0064137D01*
X0091051Y0064191D01*
X0091024Y0064247D01*
X009099Y0064303D01*
X0090951Y006436D01*
X0090905Y0064418D01*
X0090853Y0064476D01*
X0090795Y0064536D01*
X0091705D01*
X0091647Y0064476D01*
D02*
G37*
D16*
X008764Y007236D02*
X0089Y0071D01*
X008764Y008364D02*
X0089Y0085D01*
X008764Y007236D02*
Y008364D01*
X009575Y0077351D02*
Y008254D01*
X0096196Y0076905D02*
X00984D01*
X009575Y0077351D02*
X0096196Y0076905D01*
X009325Y0083D02*
X009529D01*
X009575Y008254D01*
X0089Y0071D02*
X009125D01*
X0089Y007346D02*
X008946Y0073D01*
X0089Y008035D02*
X008965Y0081D01*
X009125D01*
X008946Y0073D02*
X009125D01*
X0089Y007346D02*
Y008035D01*
X009325Y0073D02*
X009334Y007291D01*
X0089Y0085D02*
X009125D01*
X009325Y0073D02*
X0093298Y0073048D01*
X0098353D01*
X00984Y0073095D01*
X009325Y0071D02*
X0096685D01*
X00984Y0069285D01*
X009125Y0071D02*
X009325D01*
X009125Y0073D02*
X009325D01*
X009125Y0077D02*
X009325D01*
X009125Y0079D02*
X009325D01*
X009125Y0081D02*
X009325D01*
X009125Y0083D02*
X009325D01*
X009125Y0085D02*
X009325D01*
D17*
X0104289Y0073289D02*
Y0081095D01*
Y0087595D01*
X01035Y006075D02*
Y00725D01*
X0104289Y0073289D01*
X009275Y006025D02*
X0103D01*
X01035Y006075D01*
X009125Y006175D02*
X009275Y006025D01*
X009125Y006175D02*
Y0065D01*
D18*
X009325Y0085D02*
D03*
Y0083D02*
D03*
Y0081D02*
D03*
Y0079D02*
D03*
Y0077D02*
D03*
Y0075D02*
D03*
Y0073D02*
D03*
Y0071D02*
D03*
Y0069D02*
D03*
Y0067D02*
D03*
Y0065D02*
D03*
X009125Y0081D02*
D03*
Y0083D02*
D03*
Y0085D02*
D03*
Y0073D02*
D03*
Y0075D02*
D03*
Y0077D02*
D03*
Y0079D02*
D03*
Y0065D02*
D03*
Y0067D02*
D03*
Y0069D02*
D03*
Y0071D02*
D03*
X01047Y0067D02*
D03*
Y00645D02*
D03*
Y0062D02*
D03*
X0108Y0067D02*
D03*
Y00645D02*
D03*
Y0062D02*
D03*
D19*
X00984Y0080715D02*
D03*
Y0076905D02*
D03*
Y0073095D02*
D03*
Y0069285D02*
D03*
D20*
X01115Y0067D02*
D03*
X00785Y0083D02*
D03*
D21*
X0104289Y0081095D02*
D03*
X0108789D02*
D03*
X0104289Y0087595D02*
D03*
X0108789D02*
D03*
D22*
X008075Y00645D02*
D03*
X008675Y00585D02*
D03*
D23*
X01115Y0075D02*
D03*
X00785D02*
D03*
M02*
