M48
;Layer_Color=9474304
;FILE_FORMAT=4:3
METRIC,LZ
;TYPE=PLATED
T1F00S00C0.300
T2F00S00C1.000
T3F00S00C1.500
T4F00S00C4.000
;TYPE=NON_PLATED
T5F00S00C10.000
%
T01
X00615Y0036
X0065
X0064Y0039
X00675
X0087Y0038
X00895
Y00405
X0087
X009Y00535
Y00565
Y00595
X00885Y0065
X00875
X0087Y00635
X00845
X00825
X00805
X00815Y006725
X00835
X00872Y006695
X008915Y006699
X00825Y0072
X00815Y00595
Y00565
X00775
X00745
X0076Y00545
X0079Y0053
Y0048
X0075
Y0044
X00715Y0045
X00685
Y00495
X00715Y0049
Y004
X00605Y005
X0059589Y0054258
X0059Y00575
Y0059
Y00605
X0063Y0059
Y00565
X00655
Y0059
X00685
X0067251Y006148
X0068Y00665
X00705
X00735
X0075Y00685
Y0071
X0072
Y00685
X0069
Y0071
X0066
Y00685
X0065031Y006724
X0063Y0067
X00615
X0072Y00645
X0075
X00785Y0065
Y0062
Y0059
Y0071
T02
X006384Y0034
X006638
X006892
X007146
X0074
X007654
X007908
X008162
X008416
T03
X006Y00345
X0058Y0038725
X00665Y003
X00715
X00765
X00815
X0088Y00345
X0092025Y0038725
T04
X00945Y0059325
X00535
T05
X008Y00405
M30
