G04*
G04 #@! TF.GenerationSoftware,Altium Limited,Altium Designer,20.1.8 (145)*
G04*
G04 Layer_Physical_Order=2*
G04 Layer_Color=36540*
%FSLAX43Y43*%
%MOMM*%
G71*
G04*
G04 #@! TF.SameCoordinates,5712E5C3-EFE7-4622-A9FF-169796C5DE8E*
G04*
G04*
G04 #@! TF.FilePolarity,Positive*
G04*
G01*
G75*
%ADD16C,0.200*%
%ADD73C,2.200*%
%ADD74C,1.500*%
%ADD75C,1.000*%
%ADD76C,1.300*%
%ADD77C,0.700*%
G36*
X319470Y28280D02*
X35280D01*
Y95720D01*
X319470D01*
X319470Y28280D01*
D02*
G37*
%LPC*%
G36*
X309880Y95010D02*
X299880Y95010D01*
X299781Y95010D01*
X299781Y95010D01*
X299781Y95010D01*
X299585Y94971D01*
X299585Y94971D01*
X299585Y94971D01*
X299402Y94895D01*
X299402Y94895D01*
X299402Y94895D01*
X299335Y94850D01*
X299236Y94784D01*
X299236Y94784D01*
X299236Y94784D01*
X299096Y94644D01*
X298985Y94478D01*
X298945Y94380D01*
X298934Y94329D01*
X298915Y94281D01*
X298879Y94096D01*
X298880Y94048D01*
X298870Y94000D01*
Y92306D01*
X298881Y92250D01*
X298870Y92194D01*
X298870Y86500D01*
X298870Y86401D01*
X298870Y86401D01*
X298870Y86401D01*
X298891Y86297D01*
X298909Y86205D01*
X298909Y86205D01*
X298909Y86205D01*
X298985Y86022D01*
X299096Y85856D01*
X299236Y85716D01*
X299402Y85605D01*
X299585Y85529D01*
X299692Y85508D01*
X299781Y85490D01*
X299880Y85490D01*
X299880Y85490D01*
X300592Y85490D01*
X300660Y85290D01*
X300513Y85177D01*
X300304Y84906D01*
X300173Y84589D01*
X300142Y84350D01*
X301440D01*
Y84250D01*
X301540D01*
Y82952D01*
X301779Y82983D01*
X302096Y83114D01*
X302367Y83323D01*
X302576Y83594D01*
X302670Y83823D01*
X302870Y83783D01*
Y83000D01*
X302870Y82938D01*
X302876Y82907D01*
X302874Y82875D01*
X302889Y82752D01*
X302899Y82722D01*
X302901Y82690D01*
X302931Y82570D01*
X302945Y82542D01*
X302950Y82510D01*
X302951Y82510D01*
X302957Y82500D01*
X302959Y82490D01*
X302990Y82418D01*
X302990Y81277D01*
X302985Y81265D01*
X302973Y81260D01*
X295500Y81260D01*
X295401Y81260D01*
X295401Y81260D01*
X295401Y81260D01*
X295311Y81242D01*
X295205Y81221D01*
X295205Y81221D01*
X295205Y81221D01*
X295022Y81145D01*
X295022Y81145D01*
X295022Y81145D01*
X294958Y81102D01*
X294856Y81034D01*
X294856Y81034D01*
X294716Y80894D01*
X294716Y80894D01*
X294716Y80894D01*
X294666Y80819D01*
X294605Y80728D01*
X294605Y80728D01*
X294605Y80728D01*
X294565Y80630D01*
X294554Y80579D01*
X294535Y80531D01*
X294499Y80346D01*
X294500Y80316D01*
X294491Y80286D01*
X294494Y80268D01*
X294490Y80250D01*
X294490Y67010D01*
X262703Y67010D01*
X262510Y67203D01*
X262510Y77740D01*
X265228D01*
X265300Y77540D01*
X265113Y77387D01*
X264913Y77143D01*
X264765Y76865D01*
X264673Y76564D01*
X264642Y76250D01*
X264673Y75936D01*
X264765Y75635D01*
X264913Y75357D01*
X265113Y75113D01*
X265357Y74913D01*
X265635Y74765D01*
X265936Y74673D01*
X266250Y74642D01*
X266564Y74673D01*
X266865Y74765D01*
X267143Y74913D01*
X267387Y75113D01*
X267587Y75357D01*
X267735Y75635D01*
X267827Y75936D01*
X267858Y76250D01*
X267827Y76564D01*
X267735Y76865D01*
X267587Y77143D01*
X267387Y77387D01*
X267200Y77540D01*
X267272Y77740D01*
X269887D01*
X269900Y77540D01*
X269721Y77517D01*
X269404Y77386D01*
X269133Y77177D01*
X268924Y76906D01*
X268793Y76589D01*
X268762Y76350D01*
X270060D01*
X271358D01*
X271327Y76589D01*
X271196Y76906D01*
X270987Y77177D01*
X270716Y77386D01*
X270399Y77517D01*
X270220Y77540D01*
X270233Y77740D01*
X271250D01*
X271349Y77740D01*
X271545Y77779D01*
X271728Y77855D01*
X271894Y77966D01*
X271894Y77966D01*
X272034Y78106D01*
X272145Y78272D01*
X272221Y78455D01*
X272221Y78455D01*
X272221Y78455D01*
X272242Y78560D01*
X272260Y78651D01*
X272260Y78651D01*
X272260Y78651D01*
X272260Y78750D01*
X272260Y78750D01*
X272260Y82165D01*
X272340Y82299D01*
X272356Y82342D01*
X272380Y82381D01*
X272444Y82551D01*
X272452Y82597D01*
X272469Y82640D01*
X272501Y82818D01*
X272501Y82864D01*
X272505Y82886D01*
X272574Y82931D01*
X272710Y82976D01*
X272787Y82913D01*
X273065Y82765D01*
X273366Y82673D01*
X273680Y82642D01*
X273994Y82673D01*
X274295Y82765D01*
X274573Y82913D01*
X274817Y83113D01*
X275017Y83357D01*
X275165Y83635D01*
X275257Y83936D01*
X275288Y84250D01*
X275257Y84564D01*
X275165Y84865D01*
X275017Y85143D01*
X274896Y85290D01*
X274991Y85490D01*
X275099Y85490D01*
X275295Y85529D01*
X275478Y85605D01*
X275644Y85716D01*
X275644Y85716D01*
X275784Y85856D01*
X275895Y86022D01*
X275971Y86205D01*
X275971Y86205D01*
X275971Y86205D01*
X275992Y86310D01*
X276010Y86401D01*
X276010Y86401D01*
X276010Y86401D01*
X276010Y86500D01*
X276010Y86500D01*
X276010Y91008D01*
X276210Y91075D01*
X276407Y90913D01*
X276685Y90765D01*
X276986Y90673D01*
X277300Y90642D01*
X277614Y90673D01*
X277915Y90765D01*
X278193Y90913D01*
X278437Y91113D01*
X278637Y91357D01*
X278785Y91635D01*
X278877Y91936D01*
X278908Y92250D01*
X278877Y92564D01*
X278785Y92865D01*
X278637Y93143D01*
X278437Y93387D01*
X278193Y93587D01*
X277915Y93735D01*
X277614Y93827D01*
X277300Y93858D01*
X276986Y93827D01*
X276685Y93735D01*
X276407Y93587D01*
X276210Y93425D01*
X276010Y93492D01*
X276010Y94000D01*
X276010Y94099D01*
X276010Y94099D01*
X276010Y94099D01*
X275988Y94209D01*
X275971Y94294D01*
X275971Y94295D01*
X275971Y94295D01*
X275895Y94478D01*
X275895Y94478D01*
X275895Y94478D01*
X275825Y94582D01*
X275784Y94644D01*
X275784Y94644D01*
X275784Y94644D01*
X275644Y94784D01*
X275644Y94784D01*
X275644Y94784D01*
X275561Y94839D01*
X275478Y94895D01*
X275478Y94895D01*
X275478Y94895D01*
X275378Y94936D01*
X275326Y94947D01*
X275277Y94966D01*
X275095Y95001D01*
X275047Y95000D01*
X275000Y95010D01*
X264500Y95010D01*
X264401Y95010D01*
X264401Y95010D01*
X264401Y95010D01*
X264311Y94992D01*
X264205Y94971D01*
X264205Y94971D01*
X264205Y94971D01*
X264022Y94895D01*
X264022Y94895D01*
X264022Y94895D01*
X263916Y94824D01*
X263856Y94784D01*
X263856Y94784D01*
X263856Y94784D01*
X263716Y94644D01*
X263716Y94644D01*
X263716Y94644D01*
X263654Y94551D01*
X263605Y94478D01*
X263605Y94478D01*
X263605Y94478D01*
X263565Y94380D01*
X263554Y94329D01*
X263535Y94281D01*
X263499Y94096D01*
X263500Y94048D01*
X263490Y94000D01*
Y92717D01*
X263290Y92677D01*
X263196Y92906D01*
X262987Y93177D01*
X262716Y93386D01*
X262399Y93517D01*
X262160Y93548D01*
Y92250D01*
Y90952D01*
X262399Y90983D01*
X262716Y91114D01*
X262987Y91323D01*
X263196Y91594D01*
X263290Y91823D01*
X263490Y91783D01*
X263490Y86500D01*
Y86401D01*
X263529Y86205D01*
X263605Y86022D01*
X263716Y85856D01*
X263856Y85716D01*
X263856Y85716D01*
X264022Y85605D01*
X264205Y85529D01*
X264401Y85490D01*
X264500D01*
X265212Y85490D01*
X265280Y85290D01*
X265133Y85177D01*
X264924Y84906D01*
X264793Y84589D01*
X264762Y84350D01*
X266060D01*
Y84250D01*
X266160D01*
Y82952D01*
X266399Y82983D01*
X266716Y83114D01*
X266987Y83323D01*
X267196Y83594D01*
X267290Y83823D01*
X267490Y83783D01*
Y83500D01*
X267490Y81277D01*
X267485Y81265D01*
X267473Y81260D01*
X260000Y81260D01*
X259901Y81260D01*
X259901Y81260D01*
X259901Y81260D01*
X259811Y81242D01*
X259705Y81221D01*
X259705Y81221D01*
X259705Y81221D01*
X259522Y81145D01*
X259522Y81145D01*
X259522Y81145D01*
X259458Y81102D01*
X259356Y81034D01*
X259356Y81034D01*
X259216Y80894D01*
X259216Y80894D01*
X259216Y80894D01*
X259166Y80819D01*
X259105Y80728D01*
X259105Y80728D01*
X259105Y80728D01*
X259065Y80630D01*
X259054Y80579D01*
X259035Y80531D01*
X258999Y80346D01*
X259000Y80316D01*
X258991Y80286D01*
X258994Y80268D01*
X258990Y80250D01*
X258990Y67203D01*
X258797Y67010D01*
X228013Y67010D01*
X227989Y67011D01*
X227931Y67022D01*
X227888Y67040D01*
X227849Y67066D01*
X227816Y67099D01*
X227790Y67138D01*
X227772Y67181D01*
X227761Y67239D01*
X227760Y67263D01*
X227760Y77740D01*
X230303D01*
X230353Y77540D01*
X230347Y77537D01*
X230103Y77337D01*
X229903Y77093D01*
X229755Y76815D01*
X229663Y76514D01*
X229632Y76200D01*
X229663Y75886D01*
X229755Y75585D01*
X229903Y75307D01*
X230103Y75063D01*
X230347Y74863D01*
X230625Y74715D01*
X230926Y74623D01*
X231240Y74592D01*
X231554Y74623D01*
X231855Y74715D01*
X232133Y74863D01*
X232377Y75063D01*
X232577Y75307D01*
X232725Y75585D01*
X232817Y75886D01*
X232848Y76200D01*
X232817Y76514D01*
X232725Y76815D01*
X232577Y77093D01*
X232377Y77337D01*
X232133Y77537D01*
X232127Y77540D01*
X232177Y77740D01*
X236500D01*
X236599Y77740D01*
X236795Y77779D01*
X236978Y77855D01*
X237144Y77966D01*
X237144Y77966D01*
X237284Y78106D01*
X237395Y78272D01*
X237471Y78455D01*
X237471Y78455D01*
X237471Y78455D01*
X237492Y78560D01*
X237510Y78651D01*
X237510Y78651D01*
X237510Y78651D01*
X237510Y78750D01*
X237510Y78750D01*
X237510Y81569D01*
X237541Y81590D01*
X237651Y81755D01*
X237690Y81950D01*
X237690Y82832D01*
X237890Y82926D01*
X237967Y82863D01*
X238245Y82715D01*
X238546Y82623D01*
X238860Y82592D01*
X239174Y82623D01*
X239475Y82715D01*
X239753Y82863D01*
X239997Y83063D01*
X240197Y83307D01*
X240345Y83585D01*
X240437Y83886D01*
X240468Y84200D01*
X240437Y84514D01*
X240345Y84815D01*
X240197Y85093D01*
X240032Y85294D01*
X240051Y85453D01*
X240084Y85524D01*
X240158Y85555D01*
X240158Y85555D01*
X240262Y85624D01*
X240324Y85666D01*
X240464Y85806D01*
X240464Y85806D01*
X240575Y85972D01*
X240651Y86155D01*
X240651Y86155D01*
X240651Y86155D01*
X240671Y86254D01*
X240690Y86351D01*
X240690Y86351D01*
X240690Y86351D01*
X240690Y86450D01*
X240690Y86450D01*
X240690Y91166D01*
X240890Y91238D01*
X241033Y91063D01*
X241277Y90863D01*
X241555Y90715D01*
X241856Y90623D01*
X242170Y90592D01*
X242484Y90623D01*
X242785Y90715D01*
X243063Y90863D01*
X243307Y91063D01*
X243507Y91307D01*
X243655Y91585D01*
X243747Y91886D01*
X243778Y92200D01*
X243747Y92514D01*
X243655Y92815D01*
X243507Y93093D01*
X243307Y93337D01*
X243063Y93537D01*
X242785Y93685D01*
X242484Y93777D01*
X242170Y93808D01*
X241856Y93777D01*
X241555Y93685D01*
X241277Y93537D01*
X241033Y93337D01*
X240890Y93162D01*
X240690Y93234D01*
Y93950D01*
X240690Y94049D01*
X240690Y94049D01*
X240690Y94049D01*
X240671Y94143D01*
X240651Y94244D01*
X240651Y94245D01*
X240651Y94245D01*
X240575Y94428D01*
X240575Y94428D01*
X240575Y94428D01*
X240538Y94484D01*
X240464Y94594D01*
X240464Y94594D01*
X240464Y94594D01*
X240324Y94734D01*
X240324Y94734D01*
X240324Y94734D01*
X240249Y94784D01*
X240158Y94845D01*
X240158Y94845D01*
X240158Y94845D01*
X240058Y94886D01*
X240006Y94897D01*
X239957Y94916D01*
X239775Y94951D01*
X239727Y94950D01*
X239680Y94960D01*
X229680Y94960D01*
X229581Y94960D01*
X229581Y94960D01*
X229581Y94960D01*
X229484Y94940D01*
X229386Y94921D01*
X229386Y94921D01*
X229386Y94921D01*
X229202Y94845D01*
X229202Y94845D01*
X229202Y94845D01*
X229098Y94775D01*
X229036Y94734D01*
X229036Y94734D01*
X229036Y94734D01*
X228896Y94594D01*
X228896Y94594D01*
X228828Y94492D01*
X228785Y94428D01*
X228785Y94428D01*
X228785Y94428D01*
X228745Y94330D01*
X228734Y94279D01*
X228715Y94231D01*
X228679Y94046D01*
X228680Y93998D01*
X228670Y93950D01*
Y92256D01*
X228681Y92200D01*
X228670Y92144D01*
X228670Y86450D01*
X228670Y86351D01*
X228670Y86351D01*
X228670Y86351D01*
X228690Y86249D01*
X228709Y86155D01*
X228709Y86155D01*
X228709Y86155D01*
X228785Y85972D01*
X228785Y85972D01*
X228785Y85972D01*
X228841Y85889D01*
X228896Y85806D01*
X228896Y85806D01*
X228896Y85806D01*
X229036Y85666D01*
X229036Y85666D01*
X229036Y85666D01*
X229139Y85597D01*
X229202Y85555D01*
X229202D01*
X229202Y85555D01*
X229386Y85479D01*
X229386Y85479D01*
X229386Y85479D01*
X229472Y85462D01*
X229581Y85440D01*
X229581Y85440D01*
X229581Y85440D01*
X229680Y85440D01*
X230392Y85440D01*
X230460Y85240D01*
X230313Y85127D01*
X230105Y84856D01*
X229974Y84539D01*
X229942Y84300D01*
X231240D01*
Y84200D01*
X231340D01*
Y82902D01*
X231579Y82933D01*
X231896Y83064D01*
X232167Y83273D01*
X232376Y83544D01*
X232470Y83773D01*
X232670Y83733D01*
X232670Y81950D01*
X232709Y81755D01*
X232740Y81708D01*
X232740Y81277D01*
X232735Y81265D01*
X232723Y81260D01*
X225250Y81260D01*
X225151Y81260D01*
X225151Y81260D01*
X225151Y81260D01*
X225061Y81242D01*
X224955Y81221D01*
X224955Y81221D01*
X224955Y81221D01*
X224772Y81145D01*
X224772Y81145D01*
X224772Y81145D01*
X224708Y81102D01*
X224606Y81034D01*
X224606Y81034D01*
X224466Y80894D01*
X224466Y80894D01*
X224466Y80894D01*
X224416Y80819D01*
X224355Y80728D01*
X224355Y80728D01*
X224355Y80728D01*
X224315Y80630D01*
X224304Y80579D01*
X224285Y80531D01*
X224249Y80346D01*
X224250Y80316D01*
X224241Y80286D01*
X224244Y80268D01*
X224240Y80250D01*
X224240Y67263D01*
X224239Y67239D01*
X224227Y67181D01*
X224210Y67138D01*
X224184Y67099D01*
X224151Y67066D01*
X224112Y67040D01*
X224069Y67022D01*
X224011Y67011D01*
X223987Y67010D01*
X55527D01*
X55515Y67015D01*
X55510Y67027D01*
X55510Y87500D01*
X55510Y87599D01*
X55510Y87599D01*
X55510Y87599D01*
X55488Y87708D01*
X55471Y87794D01*
X55471Y87794D01*
X55471Y87794D01*
X55395Y87978D01*
X55395Y87978D01*
X55395Y87978D01*
X55335Y88068D01*
X55284Y88144D01*
X55284Y88144D01*
X55284Y88144D01*
X55144Y88284D01*
X55144Y88284D01*
X55144Y88284D01*
X55055Y88344D01*
X54978Y88395D01*
X54978Y88395D01*
X54978Y88395D01*
X54878Y88436D01*
X54826Y88447D01*
X54777Y88466D01*
X54595Y88501D01*
X54547Y88500D01*
X54500Y88510D01*
X54500Y88510D01*
X52500Y88510D01*
X52401Y88510D01*
X52401Y88510D01*
X52401Y88510D01*
X52296Y88489D01*
X52205Y88471D01*
X52205Y88471D01*
X52205Y88471D01*
X52022Y88395D01*
X52022Y88395D01*
X52022Y88395D01*
X51938Y88339D01*
X51856Y88284D01*
X51856Y88284D01*
X51856Y88284D01*
X51716Y88144D01*
X51716Y88144D01*
X51716Y88144D01*
X51673Y88081D01*
X51605Y87978D01*
X51605Y87978D01*
X51605Y87978D01*
X51565Y87880D01*
X51554Y87829D01*
X51535Y87781D01*
X51499Y87596D01*
X51500Y87566D01*
X51491Y87536D01*
X51494Y87518D01*
X51490Y87500D01*
X51490Y64500D01*
X51490Y64401D01*
X51490Y64401D01*
X51490Y64401D01*
X51508Y64310D01*
X51529Y64205D01*
X51529Y64205D01*
X51529Y64205D01*
X51605Y64022D01*
X51684Y63904D01*
X51630Y63757D01*
X51585Y63704D01*
X47750D01*
X47672Y63688D01*
X47606Y63644D01*
X47562Y63578D01*
X47546Y63500D01*
Y60500D01*
X47562Y60422D01*
X47606Y60356D01*
X47672Y60312D01*
X47750Y60296D01*
X55750D01*
X55828Y60312D01*
X55894Y60356D01*
X55939Y60422D01*
X55954Y60500D01*
Y63490D01*
X226518Y63490D01*
X297000D01*
X297099Y63490D01*
X297295Y63529D01*
X297478Y63605D01*
X297478Y63605D01*
X297644Y63716D01*
X297784Y63856D01*
X297784Y63856D01*
X297895Y64022D01*
X297971Y64205D01*
X298010Y64401D01*
Y64500D01*
X298010Y64500D01*
X298010Y66500D01*
X298010Y77740D01*
X300419D01*
X300490Y77540D01*
X300303Y77387D01*
X300103Y77143D01*
X299955Y76865D01*
X299863Y76564D01*
X299832Y76250D01*
X299863Y75936D01*
X299955Y75635D01*
X300103Y75357D01*
X300303Y75113D01*
X300547Y74913D01*
X300825Y74765D01*
X301126Y74673D01*
X301440Y74642D01*
X301754Y74673D01*
X302055Y74765D01*
X302333Y74913D01*
X302577Y75113D01*
X302777Y75357D01*
X302925Y75635D01*
X303017Y75936D01*
X303048Y76250D01*
X303017Y76564D01*
X302925Y76865D01*
X302777Y77143D01*
X302577Y77387D01*
X302390Y77540D01*
X302461Y77740D01*
X305078D01*
X305091Y77540D01*
X304911Y77517D01*
X304594Y77386D01*
X304323Y77177D01*
X304114Y76906D01*
X303983Y76589D01*
X303952Y76350D01*
X305250D01*
X306548D01*
X306517Y76589D01*
X306386Y76906D01*
X306177Y77177D01*
X305906Y77386D01*
X305589Y77517D01*
X305409Y77540D01*
X305422Y77740D01*
X306750D01*
X306849Y77740D01*
X307045Y77779D01*
X307228Y77855D01*
X307394Y77966D01*
X307394Y77966D01*
X307534Y78106D01*
X307645Y78272D01*
X307721Y78455D01*
X307721Y78455D01*
X307721Y78455D01*
X307742Y78560D01*
X307760Y78651D01*
X307760Y78651D01*
X307760Y78651D01*
X307760Y78750D01*
X307760Y78750D01*
X307760Y82385D01*
X307803Y82490D01*
X307809Y82523D01*
X307823Y82553D01*
X307856Y82678D01*
X307858Y82711D01*
X307869Y82742D01*
X307886Y82870D01*
X307884Y82886D01*
X307921Y82922D01*
X307986Y82955D01*
X308090Y82976D01*
X308167Y82913D01*
X308445Y82765D01*
X308746Y82673D01*
X309060Y82642D01*
X309374Y82673D01*
X309675Y82765D01*
X309953Y82913D01*
X310197Y83113D01*
X310397Y83357D01*
X310545Y83635D01*
X310637Y83936D01*
X310668Y84250D01*
X310637Y84564D01*
X310545Y84865D01*
X310397Y85143D01*
X310232Y85344D01*
X310251Y85503D01*
X310284Y85574D01*
X310358Y85605D01*
X310524Y85716D01*
X310664Y85856D01*
X310775Y86022D01*
X310851Y86205D01*
X310851Y86205D01*
X310851Y86205D01*
X310869Y86297D01*
X310890Y86401D01*
X310890Y86401D01*
X310890Y86401D01*
X310890Y86500D01*
X310890Y86500D01*
Y91216D01*
X311090Y91288D01*
X311233Y91113D01*
X311477Y90913D01*
X311755Y90765D01*
X312056Y90673D01*
X312370Y90642D01*
X312684Y90673D01*
X312985Y90765D01*
X313263Y90913D01*
X313507Y91113D01*
X313707Y91357D01*
X313855Y91635D01*
X313947Y91936D01*
X313978Y92250D01*
X313947Y92564D01*
X313855Y92865D01*
X313707Y93143D01*
X313507Y93387D01*
X313263Y93587D01*
X312985Y93735D01*
X312684Y93827D01*
X312370Y93858D01*
X312056Y93827D01*
X311755Y93735D01*
X311477Y93587D01*
X311233Y93387D01*
X311090Y93212D01*
X310890Y93284D01*
Y94000D01*
X310890Y94099D01*
X310890Y94099D01*
X310890Y94099D01*
X310869Y94203D01*
X310851Y94295D01*
X310851Y94295D01*
X310851Y94295D01*
X310775Y94478D01*
X310775Y94478D01*
X310664Y94644D01*
X310664Y94644D01*
X310524Y94784D01*
X310524Y94784D01*
X310524Y94784D01*
X310442Y94839D01*
X310358Y94895D01*
X310358Y94895D01*
X310358Y94895D01*
X310257Y94937D01*
X310205Y94947D01*
X310156Y94967D01*
X309974Y95001D01*
X309927Y95001D01*
X309880Y95010D01*
X309880D01*
X309880Y95010D01*
D02*
G37*
G36*
X261960Y93548D02*
X261721Y93517D01*
X261404Y93386D01*
X261133Y93177D01*
X260924Y92906D01*
X260793Y92589D01*
X260762Y92350D01*
X261960D01*
Y93548D01*
D02*
G37*
G36*
X297230Y93548D02*
Y92350D01*
X298428D01*
X298396Y92589D01*
X298266Y92906D01*
X298057Y93177D01*
X297786Y93386D01*
X297469Y93517D01*
X297230Y93548D01*
D02*
G37*
G36*
X297030Y93548D02*
X296791Y93517D01*
X296474Y93386D01*
X296203Y93177D01*
X295994Y92906D01*
X295863Y92589D01*
X295832Y92350D01*
X297030D01*
Y93548D01*
D02*
G37*
G36*
X227030Y93498D02*
Y92300D01*
X228228D01*
X228197Y92539D01*
X228066Y92856D01*
X227857Y93127D01*
X227586Y93336D01*
X227269Y93467D01*
X227030Y93498D01*
D02*
G37*
G36*
X226830Y93498D02*
X226591Y93467D01*
X226274Y93336D01*
X226003Y93127D01*
X225794Y92856D01*
X225664Y92539D01*
X225632Y92300D01*
X226830D01*
Y93498D01*
D02*
G37*
G36*
X97750Y92311D02*
X97535Y92268D01*
X97353Y92147D01*
X97232Y91965D01*
X97189Y91750D01*
X97232Y91535D01*
X97353Y91353D01*
X97535Y91232D01*
X97750Y91189D01*
X97965Y91232D01*
X98147Y91353D01*
X98268Y91535D01*
X98311Y91750D01*
X98268Y91965D01*
X98147Y92147D01*
X97965Y92268D01*
X97750Y92311D01*
D02*
G37*
G36*
X95500D02*
X95285Y92268D01*
X95103Y92147D01*
X94982Y91965D01*
X94939Y91750D01*
X94982Y91535D01*
X95103Y91353D01*
X95285Y91232D01*
X95500Y91189D01*
X95715Y91232D01*
X95897Y91353D01*
X96018Y91535D01*
X96061Y91750D01*
X96018Y91965D01*
X95897Y92147D01*
X95715Y92268D01*
X95500Y92311D01*
D02*
G37*
G36*
X93250D02*
X93035Y92268D01*
X92853Y92147D01*
X92732Y91965D01*
X92689Y91750D01*
X92732Y91535D01*
X92853Y91353D01*
X93035Y91232D01*
X93250Y91189D01*
X93465Y91232D01*
X93647Y91353D01*
X93768Y91535D01*
X93811Y91750D01*
X93768Y91965D01*
X93647Y92147D01*
X93465Y92268D01*
X93250Y92311D01*
D02*
G37*
G36*
X261960Y92150D02*
X260762D01*
X260793Y91911D01*
X260924Y91594D01*
X261133Y91323D01*
X261404Y91114D01*
X261721Y90983D01*
X261960Y90952D01*
Y92150D01*
D02*
G37*
G36*
X298428Y92150D02*
X297230D01*
Y90952D01*
X297469Y90983D01*
X297786Y91114D01*
X298057Y91323D01*
X298266Y91594D01*
X298396Y91911D01*
X298428Y92150D01*
D02*
G37*
G36*
X297030D02*
X295832D01*
X295863Y91911D01*
X295994Y91594D01*
X296203Y91323D01*
X296474Y91114D01*
X296791Y90983D01*
X297030Y90952D01*
Y92150D01*
D02*
G37*
G36*
X226830Y92100D02*
X225632D01*
X225664Y91861D01*
X225794Y91544D01*
X226003Y91273D01*
X226274Y91064D01*
X226591Y90933D01*
X226830Y90902D01*
Y92100D01*
D02*
G37*
G36*
X228228D02*
X227030D01*
Y90902D01*
X227269Y90933D01*
X227586Y91064D01*
X227857Y91273D01*
X228066Y91544D01*
X228197Y91861D01*
X228228Y92100D01*
D02*
G37*
G36*
X258250Y93858D02*
X257936Y93827D01*
X257635Y93735D01*
X257357Y93587D01*
X257113Y93387D01*
X256913Y93143D01*
X256765Y92865D01*
X256673Y92564D01*
X256642Y92250D01*
X256673Y91936D01*
X256765Y91635D01*
X256913Y91357D01*
X257113Y91113D01*
X257357Y90913D01*
X257635Y90765D01*
X257936Y90673D01*
X258250Y90642D01*
X258564Y90673D01*
X258865Y90765D01*
X259143Y90913D01*
X259387Y91113D01*
X259587Y91357D01*
X259735Y91635D01*
X259827Y91936D01*
X259858Y92250D01*
X259827Y92564D01*
X259735Y92865D01*
X259587Y93143D01*
X259387Y93387D01*
X259143Y93587D01*
X258865Y93735D01*
X258564Y93827D01*
X258250Y93858D01*
D02*
G37*
G36*
X293320Y93858D02*
X293006Y93827D01*
X292705Y93735D01*
X292427Y93587D01*
X292183Y93387D01*
X291983Y93143D01*
X291835Y92865D01*
X291743Y92564D01*
X291712Y92250D01*
X291743Y91936D01*
X291835Y91635D01*
X291983Y91357D01*
X292183Y91113D01*
X292427Y90913D01*
X292705Y90765D01*
X293006Y90673D01*
X293320Y90642D01*
X293634Y90673D01*
X293935Y90765D01*
X294213Y90913D01*
X294457Y91113D01*
X294657Y91357D01*
X294805Y91635D01*
X294897Y91936D01*
X294928Y92250D01*
X294897Y92564D01*
X294805Y92865D01*
X294657Y93143D01*
X294457Y93387D01*
X294213Y93587D01*
X293935Y93735D01*
X293634Y93827D01*
X293320Y93858D01*
D02*
G37*
G36*
X223120Y93808D02*
X222806Y93777D01*
X222505Y93685D01*
X222227Y93537D01*
X221983Y93337D01*
X221783Y93093D01*
X221635Y92815D01*
X221543Y92514D01*
X221512Y92200D01*
X221543Y91886D01*
X221635Y91585D01*
X221783Y91307D01*
X221983Y91063D01*
X222227Y90863D01*
X222505Y90715D01*
X222806Y90623D01*
X223120Y90592D01*
X223434Y90623D01*
X223735Y90715D01*
X224013Y90863D01*
X224257Y91063D01*
X224457Y91307D01*
X224605Y91585D01*
X224697Y91886D01*
X224728Y92200D01*
X224697Y92514D01*
X224605Y92815D01*
X224457Y93093D01*
X224257Y93337D01*
X224013Y93537D01*
X223735Y93685D01*
X223434Y93777D01*
X223120Y93808D01*
D02*
G37*
G36*
X76000Y94761D02*
X75559Y94717D01*
X75135Y94589D01*
X74744Y94380D01*
X74401Y94099D01*
X74120Y93756D01*
X73911Y93365D01*
X73783Y92941D01*
X73739Y92500D01*
X73783Y92059D01*
X73911Y91635D01*
X74120Y91244D01*
X74401Y90901D01*
X74744Y90620D01*
X75135Y90411D01*
X75559Y90283D01*
X76000Y90239D01*
X76441Y90283D01*
X76865Y90411D01*
X77256Y90620D01*
X77599Y90901D01*
X77880Y91244D01*
X78089Y91635D01*
X78217Y92059D01*
X78261Y92500D01*
X78217Y92941D01*
X78089Y93365D01*
X77880Y93756D01*
X77599Y94099D01*
X77256Y94380D01*
X76865Y94589D01*
X76441Y94717D01*
X76000Y94761D01*
D02*
G37*
G36*
X145150Y89645D02*
Y88800D01*
X145995D01*
X145976Y88948D01*
X145880Y89179D01*
X145728Y89378D01*
X145529Y89530D01*
X145298Y89626D01*
X145150Y89645D01*
D02*
G37*
G36*
X144950D02*
X144802Y89626D01*
X144571Y89530D01*
X144372Y89378D01*
X144220Y89179D01*
X144124Y88948D01*
X144105Y88800D01*
X144950D01*
Y89645D01*
D02*
G37*
G36*
X97750Y89311D02*
X97535Y89268D01*
X97353Y89147D01*
X97232Y88965D01*
X97189Y88750D01*
X97232Y88535D01*
X97353Y88353D01*
X97535Y88232D01*
X97750Y88189D01*
X97965Y88232D01*
X98147Y88353D01*
X98268Y88535D01*
X98311Y88750D01*
X98268Y88965D01*
X98147Y89147D01*
X97965Y89268D01*
X97750Y89311D01*
D02*
G37*
G36*
X95500D02*
X95285Y89268D01*
X95103Y89147D01*
X94982Y88965D01*
X94939Y88750D01*
X94982Y88535D01*
X95103Y88353D01*
X95285Y88232D01*
X95500Y88189D01*
X95715Y88232D01*
X95897Y88353D01*
X96018Y88535D01*
X96061Y88750D01*
X96018Y88965D01*
X95897Y89147D01*
X95715Y89268D01*
X95500Y89311D01*
D02*
G37*
G36*
X93250D02*
X93035Y89268D01*
X92853Y89147D01*
X92732Y88965D01*
X92689Y88750D01*
X92732Y88535D01*
X92853Y88353D01*
X93035Y88232D01*
X93250Y88189D01*
X93465Y88232D01*
X93647Y88353D01*
X93768Y88535D01*
X93811Y88750D01*
X93768Y88965D01*
X93647Y89147D01*
X93465Y89268D01*
X93250Y89311D01*
D02*
G37*
G36*
X144950Y88600D02*
X144105D01*
X144124Y88452D01*
X144220Y88221D01*
X144372Y88022D01*
X144571Y87870D01*
X144802Y87774D01*
X144950Y87755D01*
Y88600D01*
D02*
G37*
G36*
X145995D02*
X145150D01*
Y87755D01*
X145298Y87774D01*
X145529Y87870D01*
X145728Y88022D01*
X145880Y88221D01*
X145976Y88452D01*
X145995Y88600D01*
D02*
G37*
G36*
X117100Y88661D02*
X116885Y88618D01*
X116703Y88497D01*
X116582Y88315D01*
X116539Y88100D01*
X116582Y87885D01*
X116703Y87703D01*
X116885Y87582D01*
X117100Y87539D01*
X117315Y87582D01*
X117497Y87703D01*
X117618Y87885D01*
X117661Y88100D01*
X117618Y88315D01*
X117497Y88497D01*
X117315Y88618D01*
X117100Y88661D01*
D02*
G37*
G36*
X203050Y89961D02*
X202724Y89918D01*
X202420Y89792D01*
X202158Y89592D01*
X201958Y89330D01*
X201832Y89026D01*
X201789Y88700D01*
X201832Y88374D01*
X201958Y88070D01*
X202158Y87809D01*
X202420Y87608D01*
X202724Y87482D01*
X203050Y87439D01*
X203376Y87482D01*
X203680Y87608D01*
X203942Y87809D01*
X204142Y88070D01*
X204268Y88374D01*
X204311Y88700D01*
X204268Y89026D01*
X204142Y89330D01*
X203942Y89592D01*
X203680Y89792D01*
X203376Y89918D01*
X203050Y89961D01*
D02*
G37*
G36*
X127000Y88561D02*
X126785Y88518D01*
X126603Y88397D01*
X126482Y88215D01*
X126439Y88000D01*
X126482Y87785D01*
X126603Y87603D01*
X126785Y87482D01*
X127000Y87439D01*
X127215Y87482D01*
X127397Y87603D01*
X127518Y87785D01*
X127561Y88000D01*
X127518Y88215D01*
X127397Y88397D01*
X127215Y88518D01*
X127000Y88561D01*
D02*
G37*
G36*
X265960Y84150D02*
X264762D01*
X264793Y83911D01*
X264924Y83594D01*
X265133Y83323D01*
X265404Y83114D01*
X265721Y82983D01*
X265960Y82952D01*
Y84150D01*
D02*
G37*
G36*
X301340Y84150D02*
X300142D01*
X300173Y83911D01*
X300304Y83594D01*
X300513Y83323D01*
X300784Y83114D01*
X301101Y82983D01*
X301340Y82952D01*
Y84150D01*
D02*
G37*
G36*
X231140Y84100D02*
X229942D01*
X229974Y83861D01*
X230105Y83544D01*
X230313Y83273D01*
X230584Y83064D01*
X230901Y82933D01*
X231140Y82902D01*
Y84100D01*
D02*
G37*
G36*
X297630Y85858D02*
X297316Y85827D01*
X297015Y85735D01*
X296737Y85587D01*
X296493Y85387D01*
X296293Y85143D01*
X296145Y84865D01*
X296053Y84564D01*
X296022Y84250D01*
X296053Y83936D01*
X296145Y83635D01*
X296293Y83357D01*
X296493Y83113D01*
X296737Y82913D01*
X297015Y82765D01*
X297316Y82673D01*
X297630Y82642D01*
X297944Y82673D01*
X298245Y82765D01*
X298523Y82913D01*
X298767Y83113D01*
X298967Y83357D01*
X299115Y83635D01*
X299207Y83936D01*
X299238Y84250D01*
X299207Y84564D01*
X299115Y84865D01*
X298967Y85143D01*
X298767Y85387D01*
X298523Y85587D01*
X298245Y85735D01*
X297944Y85827D01*
X297630Y85858D01*
D02*
G37*
G36*
X262250D02*
X261936Y85827D01*
X261635Y85735D01*
X261357Y85587D01*
X261113Y85387D01*
X260913Y85143D01*
X260765Y84865D01*
X260673Y84564D01*
X260642Y84250D01*
X260673Y83936D01*
X260765Y83635D01*
X260913Y83357D01*
X261113Y83113D01*
X261357Y82913D01*
X261635Y82765D01*
X261936Y82673D01*
X262250Y82642D01*
X262564Y82673D01*
X262865Y82765D01*
X263143Y82913D01*
X263387Y83113D01*
X263587Y83357D01*
X263735Y83635D01*
X263827Y83936D01*
X263858Y84250D01*
X263827Y84564D01*
X263735Y84865D01*
X263587Y85143D01*
X263387Y85387D01*
X263143Y85587D01*
X262865Y85735D01*
X262564Y85827D01*
X262250Y85858D01*
D02*
G37*
G36*
X227430Y85808D02*
X227116Y85777D01*
X226815Y85685D01*
X226537Y85537D01*
X226293Y85337D01*
X226093Y85093D01*
X225945Y84815D01*
X225853Y84514D01*
X225822Y84200D01*
X225853Y83886D01*
X225945Y83585D01*
X226093Y83307D01*
X226293Y83063D01*
X226537Y82863D01*
X226815Y82715D01*
X227116Y82623D01*
X227430Y82592D01*
X227744Y82623D01*
X228045Y82715D01*
X228323Y82863D01*
X228567Y83063D01*
X228767Y83307D01*
X228915Y83585D01*
X229007Y83886D01*
X229038Y84200D01*
X229007Y84514D01*
X228915Y84815D01*
X228767Y85093D01*
X228567Y85337D01*
X228323Y85537D01*
X228045Y85685D01*
X227744Y85777D01*
X227430Y85808D01*
D02*
G37*
G36*
X97750Y81561D02*
X97535Y81518D01*
X97353Y81397D01*
X97232Y81215D01*
X97189Y81000D01*
X97232Y80785D01*
X97353Y80603D01*
X97535Y80482D01*
X97750Y80439D01*
X97965Y80482D01*
X98147Y80603D01*
X98268Y80785D01*
X98311Y81000D01*
X98268Y81215D01*
X98147Y81397D01*
X97965Y81518D01*
X97750Y81561D01*
D02*
G37*
G36*
X95500D02*
X95285Y81518D01*
X95103Y81397D01*
X94982Y81215D01*
X94939Y81000D01*
X94982Y80785D01*
X95103Y80603D01*
X95285Y80482D01*
X95500Y80439D01*
X95715Y80482D01*
X95897Y80603D01*
X96018Y80785D01*
X96061Y81000D01*
X96018Y81215D01*
X95897Y81397D01*
X95715Y81518D01*
X95500Y81561D01*
D02*
G37*
G36*
X93250D02*
X93035Y81518D01*
X92853Y81397D01*
X92732Y81215D01*
X92689Y81000D01*
X92732Y80785D01*
X92853Y80603D01*
X93035Y80482D01*
X93250Y80439D01*
X93465Y80482D01*
X93647Y80603D01*
X93768Y80785D01*
X93811Y81000D01*
X93768Y81215D01*
X93647Y81397D01*
X93465Y81518D01*
X93250Y81561D01*
D02*
G37*
G36*
X117100Y80084D02*
X116885Y80042D01*
X116704Y79920D01*
X116582Y79738D01*
X116539Y79524D01*
X116582Y79309D01*
X116704Y79127D01*
X116885Y79006D01*
X117100Y78963D01*
X117315Y79006D01*
X117497Y79127D01*
X117618Y79309D01*
X117661Y79524D01*
X117618Y79738D01*
X117497Y79920D01*
X117315Y80042D01*
X117100Y80084D01*
D02*
G37*
G36*
X127000Y80061D02*
X126785Y80018D01*
X126603Y79897D01*
X126482Y79715D01*
X126439Y79500D01*
X126482Y79285D01*
X126603Y79103D01*
X126785Y78982D01*
X127000Y78939D01*
X127215Y78982D01*
X127397Y79103D01*
X127518Y79285D01*
X127561Y79500D01*
X127518Y79715D01*
X127397Y79897D01*
X127215Y80018D01*
X127000Y80061D01*
D02*
G37*
G36*
X40250Y82108D02*
X39936Y82077D01*
X39635Y81985D01*
X39357Y81837D01*
X39113Y81637D01*
X38913Y81393D01*
X38765Y81115D01*
X38673Y80814D01*
X38642Y80500D01*
X38673Y80186D01*
X38765Y79885D01*
X38913Y79607D01*
X39113Y79363D01*
X39357Y79163D01*
X39635Y79015D01*
X39936Y78923D01*
X40250Y78892D01*
X40564Y78923D01*
X40865Y79015D01*
X41143Y79163D01*
X41387Y79363D01*
X41587Y79607D01*
X41735Y79885D01*
X41827Y80186D01*
X41858Y80500D01*
X41827Y80814D01*
X41735Y81115D01*
X41587Y81393D01*
X41387Y81637D01*
X41143Y81837D01*
X40865Y81985D01*
X40564Y82077D01*
X40250Y82108D01*
D02*
G37*
G36*
X76000Y81959D02*
X75618Y81922D01*
X75250Y81810D01*
X74911Y81629D01*
X74614Y81386D01*
X74371Y81089D01*
X74190Y80750D01*
X74078Y80382D01*
X74041Y80000D01*
X74078Y79618D01*
X74190Y79250D01*
X74371Y78911D01*
X74614Y78614D01*
X74911Y78371D01*
X75250Y78190D01*
X75618Y78078D01*
X76000Y78041D01*
X76382Y78078D01*
X76750Y78190D01*
X77089Y78371D01*
X77386Y78614D01*
X77629Y78911D01*
X77810Y79250D01*
X77922Y79618D01*
X77959Y80000D01*
X77922Y80382D01*
X77810Y80750D01*
X77629Y81089D01*
X77386Y81386D01*
X77089Y81629D01*
X76750Y81810D01*
X76382Y81922D01*
X76000Y81959D01*
D02*
G37*
G36*
X145150Y78645D02*
Y77800D01*
X145995D01*
X145976Y77948D01*
X145880Y78179D01*
X145728Y78378D01*
X145529Y78530D01*
X145298Y78626D01*
X145150Y78645D01*
D02*
G37*
G36*
X144950D02*
X144802Y78626D01*
X144571Y78530D01*
X144372Y78378D01*
X144220Y78179D01*
X144124Y77948D01*
X144105Y77800D01*
X144950D01*
Y78645D01*
D02*
G37*
G36*
X97750Y78561D02*
X97535Y78518D01*
X97353Y78397D01*
X97232Y78215D01*
X97189Y78000D01*
X97232Y77785D01*
X97353Y77603D01*
X97535Y77482D01*
X97750Y77439D01*
X97965Y77482D01*
X98147Y77603D01*
X98268Y77785D01*
X98311Y78000D01*
X98268Y78215D01*
X98147Y78397D01*
X97965Y78518D01*
X97750Y78561D01*
D02*
G37*
G36*
X95500D02*
X95285Y78518D01*
X95103Y78397D01*
X94982Y78215D01*
X94939Y78000D01*
X94982Y77785D01*
X95103Y77603D01*
X95285Y77482D01*
X95500Y77439D01*
X95715Y77482D01*
X95897Y77603D01*
X96018Y77785D01*
X96061Y78000D01*
X96018Y78215D01*
X95897Y78397D01*
X95715Y78518D01*
X95500Y78561D01*
D02*
G37*
G36*
X93250D02*
X93035Y78518D01*
X92853Y78397D01*
X92732Y78215D01*
X92689Y78000D01*
X92732Y77785D01*
X92853Y77603D01*
X93035Y77482D01*
X93250Y77439D01*
X93465Y77482D01*
X93647Y77603D01*
X93768Y77785D01*
X93811Y78000D01*
X93768Y78215D01*
X93647Y78397D01*
X93465Y78518D01*
X93250Y78561D01*
D02*
G37*
G36*
X40350Y77988D02*
Y76790D01*
X41548D01*
X41517Y77029D01*
X41386Y77346D01*
X41177Y77617D01*
X40906Y77826D01*
X40589Y77957D01*
X40350Y77988D01*
D02*
G37*
G36*
X40150D02*
X39911Y77957D01*
X39594Y77826D01*
X39323Y77617D01*
X39114Y77346D01*
X38983Y77029D01*
X38952Y76790D01*
X40150D01*
Y77988D01*
D02*
G37*
G36*
X144950Y77600D02*
X144105D01*
X144124Y77452D01*
X144220Y77221D01*
X144372Y77022D01*
X144571Y76870D01*
X144802Y76774D01*
X144950Y76755D01*
Y77600D01*
D02*
G37*
G36*
X145995D02*
X145150D01*
Y76755D01*
X145298Y76774D01*
X145529Y76870D01*
X145728Y77022D01*
X145880Y77221D01*
X145976Y77452D01*
X145995Y77600D01*
D02*
G37*
G36*
X203050Y78961D02*
X202724Y78918D01*
X202420Y78792D01*
X202158Y78592D01*
X201958Y78330D01*
X201832Y78026D01*
X201789Y77700D01*
X201832Y77374D01*
X201958Y77070D01*
X202158Y76809D01*
X202420Y76608D01*
X202724Y76482D01*
X203050Y76439D01*
X203376Y76482D01*
X203680Y76608D01*
X203942Y76809D01*
X204142Y77070D01*
X204268Y77374D01*
X204311Y77700D01*
X204268Y78026D01*
X204142Y78330D01*
X203942Y78592D01*
X203680Y78792D01*
X203376Y78918D01*
X203050Y78961D01*
D02*
G37*
G36*
X235150Y77498D02*
Y76300D01*
X236348D01*
X236317Y76539D01*
X236186Y76856D01*
X235977Y77127D01*
X235706Y77336D01*
X235389Y77467D01*
X235150Y77498D01*
D02*
G37*
G36*
X234950Y77498D02*
X234711Y77467D01*
X234394Y77336D01*
X234123Y77127D01*
X233915Y76856D01*
X233784Y76539D01*
X233752Y76300D01*
X234950D01*
Y77498D01*
D02*
G37*
G36*
X41548Y76590D02*
X40350D01*
Y75392D01*
X40589Y75423D01*
X40906Y75554D01*
X41177Y75763D01*
X41386Y76034D01*
X41517Y76351D01*
X41548Y76590D01*
D02*
G37*
G36*
X40150D02*
X38952D01*
X38983Y76351D01*
X39114Y76034D01*
X39323Y75763D01*
X39594Y75554D01*
X39911Y75423D01*
X40150Y75392D01*
Y76590D01*
D02*
G37*
G36*
X269960Y76150D02*
X268762D01*
X268793Y75911D01*
X268924Y75594D01*
X269133Y75323D01*
X269404Y75114D01*
X269721Y74983D01*
X269960Y74952D01*
Y76150D01*
D02*
G37*
G36*
X271358D02*
X270160D01*
Y74952D01*
X270399Y74983D01*
X270716Y75114D01*
X270987Y75323D01*
X271196Y75594D01*
X271327Y75911D01*
X271358Y76150D01*
D02*
G37*
G36*
X306548Y76150D02*
X305350D01*
Y74952D01*
X305589Y74983D01*
X305906Y75114D01*
X306177Y75323D01*
X306386Y75594D01*
X306517Y75911D01*
X306548Y76150D01*
D02*
G37*
G36*
X305150D02*
X303952D01*
X303983Y75911D01*
X304114Y75594D01*
X304323Y75323D01*
X304594Y75114D01*
X304911Y74983D01*
X305150Y74952D01*
Y76150D01*
D02*
G37*
G36*
X236348Y76100D02*
X235150D01*
Y74902D01*
X235389Y74933D01*
X235706Y75064D01*
X235977Y75273D01*
X236186Y75544D01*
X236317Y75861D01*
X236348Y76100D01*
D02*
G37*
G36*
X234950D02*
X233752D01*
X233784Y75861D01*
X233915Y75544D01*
X234123Y75273D01*
X234394Y75064D01*
X234711Y74933D01*
X234950Y74902D01*
Y76100D01*
D02*
G37*
G36*
X117100Y71336D02*
X116885Y71293D01*
X116703Y71171D01*
X116582Y70990D01*
X116539Y70775D01*
X116582Y70560D01*
X116703Y70378D01*
X116885Y70257D01*
X117100Y70214D01*
X117315Y70257D01*
X117496Y70378D01*
X117618Y70560D01*
X117661Y70775D01*
X117618Y70990D01*
X117496Y71171D01*
X117315Y71293D01*
X117100Y71336D01*
D02*
G37*
G36*
X127000Y71311D02*
X126785Y71268D01*
X126603Y71147D01*
X126482Y70965D01*
X126439Y70750D01*
X126482Y70535D01*
X126603Y70353D01*
X126785Y70232D01*
X127000Y70189D01*
X127215Y70232D01*
X127397Y70353D01*
X127518Y70535D01*
X127561Y70750D01*
X127518Y70965D01*
X127397Y71147D01*
X127215Y71268D01*
X127000Y71311D01*
D02*
G37*
G36*
X157650Y69645D02*
Y68800D01*
X158495D01*
X158476Y68948D01*
X158380Y69179D01*
X158228Y69378D01*
X158029Y69530D01*
X157798Y69626D01*
X157650Y69645D01*
D02*
G37*
G36*
X157450D02*
X157302Y69626D01*
X157071Y69530D01*
X156872Y69378D01*
X156720Y69179D01*
X156624Y68948D01*
X156605Y68800D01*
X157450D01*
Y69645D01*
D02*
G37*
G36*
X158495Y68600D02*
X157650D01*
Y67755D01*
X157798Y67774D01*
X158029Y67870D01*
X158228Y68022D01*
X158380Y68221D01*
X158476Y68452D01*
X158495Y68600D01*
D02*
G37*
G36*
X157450D02*
X156605D01*
X156624Y68452D01*
X156720Y68221D01*
X156872Y68022D01*
X157071Y67870D01*
X157302Y67774D01*
X157450Y67755D01*
Y68600D01*
D02*
G37*
G36*
X181550Y69658D02*
X181302Y69626D01*
X181071Y69530D01*
X180872Y69378D01*
X180720Y69179D01*
X180624Y68948D01*
X180592Y68700D01*
X180624Y68452D01*
X180720Y68221D01*
X180872Y68022D01*
X181071Y67870D01*
X181302Y67774D01*
X181550Y67742D01*
X181798Y67774D01*
X182029Y67870D01*
X182228Y68022D01*
X182380Y68221D01*
X182476Y68452D01*
X182508Y68700D01*
X182476Y68948D01*
X182380Y69179D01*
X182228Y69378D01*
X182029Y69530D01*
X181798Y69626D01*
X181550Y69658D01*
D02*
G37*
G36*
X178550D02*
X178302Y69626D01*
X178071Y69530D01*
X177872Y69378D01*
X177720Y69179D01*
X177624Y68948D01*
X177592Y68700D01*
X177624Y68452D01*
X177720Y68221D01*
X177872Y68022D01*
X178071Y67870D01*
X178302Y67774D01*
X178550Y67742D01*
X178798Y67774D01*
X179029Y67870D01*
X179228Y68022D01*
X179380Y68221D01*
X179476Y68452D01*
X179508Y68700D01*
X179476Y68948D01*
X179380Y69179D01*
X179228Y69378D01*
X179029Y69530D01*
X178798Y69626D01*
X178550Y69658D01*
D02*
G37*
G36*
X202550Y69961D02*
X202224Y69918D01*
X201920Y69792D01*
X201659Y69591D01*
X201458Y69330D01*
X201332Y69026D01*
X201289Y68700D01*
X201332Y68374D01*
X201458Y68070D01*
X201659Y67808D01*
X201920Y67608D01*
X202224Y67482D01*
X202550Y67439D01*
X202876Y67482D01*
X203180Y67608D01*
X203442Y67808D01*
X203642Y68070D01*
X203768Y68374D01*
X203811Y68700D01*
X203768Y69026D01*
X203642Y69330D01*
X203442Y69591D01*
X203180Y69792D01*
X202876Y69918D01*
X202550Y69961D01*
D02*
G37*
G36*
X187250Y62811D02*
X187035Y62768D01*
X186853Y62647D01*
X186732Y62465D01*
X186689Y62250D01*
X186732Y62035D01*
X186853Y61853D01*
X187035Y61732D01*
X187250Y61689D01*
X187465Y61732D01*
X187647Y61853D01*
X187768Y62035D01*
X187811Y62250D01*
X187768Y62465D01*
X187647Y62647D01*
X187465Y62768D01*
X187250Y62811D01*
D02*
G37*
G36*
X178000Y60961D02*
X177785Y60918D01*
X177603Y60797D01*
X177482Y60615D01*
X177439Y60400D01*
X177482Y60185D01*
X177603Y60003D01*
X177785Y59882D01*
X178000Y59839D01*
X178215Y59882D01*
X178397Y60003D01*
X178518Y60185D01*
X178561Y60400D01*
X178518Y60615D01*
X178397Y60797D01*
X178215Y60918D01*
X178000Y60961D01*
D02*
G37*
G36*
X186000Y60961D02*
X185785Y60918D01*
X185603Y60797D01*
X185482Y60615D01*
X185439Y60400D01*
X185482Y60185D01*
X185603Y60003D01*
X185785Y59882D01*
X186000Y59839D01*
X186215Y59882D01*
X186397Y60003D01*
X186518Y60185D01*
X186561Y60400D01*
X186518Y60615D01*
X186397Y60797D01*
X186215Y60918D01*
X186000Y60961D01*
D02*
G37*
G36*
X68750Y58561D02*
X68535Y58518D01*
X68353Y58397D01*
X68232Y58215D01*
X68189Y58000D01*
X68232Y57785D01*
X68353Y57603D01*
X68535Y57482D01*
X68750Y57439D01*
X68965Y57482D01*
X69147Y57603D01*
X69268Y57785D01*
X69311Y58000D01*
X69268Y58215D01*
X69147Y58397D01*
X68965Y58518D01*
X68750Y58561D01*
D02*
G37*
G36*
X145100Y56945D02*
Y56100D01*
X145945D01*
X145926Y56248D01*
X145830Y56479D01*
X145678Y56678D01*
X145479Y56830D01*
X145248Y56926D01*
X145100Y56945D01*
D02*
G37*
G36*
X144900D02*
X144752Y56926D01*
X144521Y56830D01*
X144322Y56678D01*
X144170Y56479D01*
X144074Y56248D01*
X144055Y56100D01*
X144900D01*
Y56945D01*
D02*
G37*
G36*
X222100Y55945D02*
Y55100D01*
X222945D01*
X222925Y55248D01*
X222830Y55479D01*
X222677Y55678D01*
X222479Y55830D01*
X222248Y55926D01*
X222100Y55945D01*
D02*
G37*
G36*
X221900D02*
X221752Y55926D01*
X221521Y55830D01*
X221322Y55678D01*
X221170Y55479D01*
X221074Y55248D01*
X221055Y55100D01*
X221900D01*
Y55945D01*
D02*
G37*
G36*
X144900Y55900D02*
X144055D01*
X144074Y55752D01*
X144170Y55521D01*
X144322Y55322D01*
X144521Y55170D01*
X144752Y55074D01*
X144900Y55055D01*
Y55900D01*
D02*
G37*
G36*
X145945D02*
X145100D01*
Y55055D01*
X145248Y55074D01*
X145479Y55170D01*
X145678Y55322D01*
X145830Y55521D01*
X145926Y55752D01*
X145945Y55900D01*
D02*
G37*
G36*
X203000Y57261D02*
X202674Y57218D01*
X202370Y57092D01*
X202109Y56891D01*
X201908Y56630D01*
X201782Y56326D01*
X201739Y56000D01*
X201782Y55674D01*
X201908Y55370D01*
X202109Y55108D01*
X202370Y54908D01*
X202674Y54782D01*
X203000Y54739D01*
X203326Y54782D01*
X203630Y54908D01*
X203892Y55108D01*
X204092Y55370D01*
X204218Y55674D01*
X204261Y56000D01*
X204218Y56326D01*
X204092Y56630D01*
X203892Y56891D01*
X203630Y57092D01*
X203326Y57218D01*
X203000Y57261D01*
D02*
G37*
G36*
X221900Y54900D02*
X221055D01*
X221074Y54752D01*
X221170Y54521D01*
X221322Y54322D01*
X221521Y54170D01*
X221752Y54074D01*
X221900Y54055D01*
Y54900D01*
D02*
G37*
G36*
X222945D02*
X222100D01*
Y54055D01*
X222248Y54074D01*
X222479Y54170D01*
X222677Y54322D01*
X222830Y54521D01*
X222925Y54752D01*
X222945Y54900D01*
D02*
G37*
G36*
X280000Y56261D02*
X279674Y56218D01*
X279370Y56092D01*
X279108Y55892D01*
X278908Y55630D01*
X278782Y55326D01*
X278739Y55000D01*
X278782Y54674D01*
X278908Y54370D01*
X279108Y54109D01*
X279370Y53908D01*
X279674Y53782D01*
X280000Y53739D01*
X280326Y53782D01*
X280630Y53908D01*
X280891Y54109D01*
X281092Y54370D01*
X281218Y54674D01*
X281261Y55000D01*
X281218Y55326D01*
X281092Y55630D01*
X280891Y55892D01*
X280630Y56092D01*
X280326Y56218D01*
X280000Y56261D01*
D02*
G37*
G36*
X92000Y53761D02*
X91785Y53718D01*
X91603Y53597D01*
X91482Y53415D01*
X91439Y53200D01*
X91482Y52985D01*
X91603Y52803D01*
X91785Y52682D01*
X92000Y52639D01*
X92215Y52682D01*
X92397Y52803D01*
X92518Y52985D01*
X92561Y53200D01*
X92518Y53415D01*
X92397Y53597D01*
X92215Y53718D01*
X92000Y53761D01*
D02*
G37*
G36*
X185950Y53511D02*
X185735Y53468D01*
X185553Y53347D01*
X185432Y53165D01*
X185389Y52950D01*
X185432Y52735D01*
X185553Y52553D01*
X185735Y52432D01*
X185950Y52389D01*
X186165Y52432D01*
X186346Y52553D01*
X186468Y52735D01*
X186511Y52950D01*
X186468Y53165D01*
X186346Y53347D01*
X186165Y53468D01*
X185950Y53511D01*
D02*
G37*
G36*
X178200Y53511D02*
X177985Y53468D01*
X177803Y53347D01*
X177682Y53165D01*
X177639Y52950D01*
X177682Y52735D01*
X177803Y52553D01*
X177985Y52432D01*
X178200Y52389D01*
X178415Y52432D01*
X178596Y52553D01*
X178718Y52735D01*
X178761Y52950D01*
X178718Y53165D01*
X178596Y53347D01*
X178415Y53468D01*
X178200Y53511D01*
D02*
G37*
G36*
X81500Y52811D02*
X81285Y52768D01*
X81103Y52647D01*
X80982Y52465D01*
X80939Y52250D01*
X80982Y52035D01*
X81103Y51853D01*
X81285Y51732D01*
X81500Y51689D01*
X81715Y51732D01*
X81897Y51853D01*
X82018Y52035D01*
X82061Y52250D01*
X82018Y52465D01*
X81897Y52647D01*
X81715Y52768D01*
X81500Y52811D01*
D02*
G37*
G36*
X92012Y51149D02*
X91797Y51106D01*
X91615Y50985D01*
X91494Y50803D01*
X91451Y50588D01*
X91494Y50374D01*
X91615Y50192D01*
X91797Y50070D01*
X92012Y50027D01*
X92226Y50070D01*
X92408Y50192D01*
X92530Y50374D01*
X92573Y50588D01*
X92530Y50803D01*
X92408Y50985D01*
X92226Y51106D01*
X92012Y51149D01*
D02*
G37*
G36*
X63800Y50161D02*
X63585Y50118D01*
X63403Y49997D01*
X63282Y49815D01*
X63252Y49664D01*
X63048D01*
X63035Y49731D01*
X63018Y49815D01*
X62897Y49997D01*
X62715Y50118D01*
X62500Y50161D01*
X62285Y50118D01*
X62103Y49997D01*
X61982Y49815D01*
X61939Y49600D01*
X61982Y49385D01*
X62103Y49203D01*
X62153Y49170D01*
Y48930D01*
X62103Y48897D01*
X61982Y48715D01*
X61939Y48500D01*
X61982Y48285D01*
X62103Y48103D01*
X62285Y47982D01*
X62500Y47939D01*
X62715Y47982D01*
X62897Y48103D01*
X63018Y48285D01*
X63048Y48436D01*
X63252D01*
X63265Y48369D01*
X63282Y48285D01*
X63403Y48103D01*
X63585Y47982D01*
X63800Y47939D01*
X64015Y47982D01*
X64197Y48103D01*
X64318Y48285D01*
X64361Y48500D01*
X64318Y48715D01*
X64197Y48897D01*
X64147Y48930D01*
Y49170D01*
X64197Y49203D01*
X64318Y49385D01*
X64361Y49600D01*
X64318Y49815D01*
X64197Y49997D01*
X64015Y50118D01*
X63800Y50161D01*
D02*
G37*
G36*
X59260Y50224D02*
X59045Y50181D01*
X58863Y50060D01*
X58741Y49878D01*
X58699Y49663D01*
X58741Y49449D01*
X58863Y49267D01*
X59045Y49145D01*
X59260Y49103D01*
X59474Y49145D01*
X59656Y49267D01*
X59778Y49449D01*
X59820Y49663D01*
X59778Y49878D01*
X59656Y50060D01*
X59474Y50181D01*
X59260Y50224D01*
D02*
G37*
G36*
X60326Y49208D02*
X60111Y49165D01*
X59929Y49043D01*
X59807Y48861D01*
X59765Y48647D01*
X59807Y48432D01*
X59929Y48250D01*
X60111Y48129D01*
X60326Y48086D01*
X60540Y48129D01*
X60722Y48250D01*
X60844Y48432D01*
X60886Y48647D01*
X60844Y48861D01*
X60722Y49043D01*
X60540Y49165D01*
X60326Y49208D01*
D02*
G37*
G36*
X84600Y48261D02*
X84385Y48218D01*
X84203Y48097D01*
X84143Y48006D01*
X69700D01*
X69583Y47983D01*
X69484Y47916D01*
X68284Y46716D01*
X68217Y46617D01*
X68194Y46500D01*
X68194Y46500D01*
Y41700D01*
X68194Y41700D01*
X68217Y41583D01*
X68284Y41484D01*
X69160Y40607D01*
X69139Y40500D01*
X69182Y40285D01*
X69303Y40103D01*
X69485Y39982D01*
X69700Y39939D01*
X69915Y39982D01*
X70097Y40103D01*
X70218Y40285D01*
X70261Y40500D01*
X70218Y40715D01*
X70097Y40897D01*
X69915Y41018D01*
X69700Y41061D01*
X69593Y41040D01*
X68806Y41827D01*
Y46373D01*
X69827Y47394D01*
X84143D01*
X84203Y47303D01*
X84385Y47182D01*
X84600Y47139D01*
X84815Y47182D01*
X84997Y47303D01*
X85118Y47485D01*
X85161Y47700D01*
X85118Y47915D01*
X84997Y48097D01*
X84815Y48218D01*
X84600Y48261D01*
D02*
G37*
G36*
X81500Y46561D02*
X81285Y46518D01*
X81103Y46397D01*
X80982Y46215D01*
X80939Y46000D01*
X80982Y45785D01*
X81103Y45603D01*
X81285Y45482D01*
X81500Y45439D01*
X81715Y45482D01*
X81897Y45603D01*
X82018Y45785D01*
X82061Y46000D01*
X82018Y46215D01*
X81897Y46397D01*
X81715Y46518D01*
X81500Y46561D01*
D02*
G37*
G36*
X145100Y45945D02*
Y45100D01*
X145945D01*
X145926Y45248D01*
X145830Y45479D01*
X145678Y45678D01*
X145479Y45830D01*
X145248Y45926D01*
X145100Y45945D01*
D02*
G37*
G36*
X144900D02*
X144752Y45926D01*
X144521Y45830D01*
X144322Y45678D01*
X144170Y45479D01*
X144074Y45248D01*
X144055Y45100D01*
X144900D01*
Y45945D01*
D02*
G37*
G36*
X74800Y45811D02*
X74585Y45768D01*
X74403Y45647D01*
X74282Y45465D01*
X74239Y45250D01*
X74282Y45035D01*
X74403Y44853D01*
X74585Y44732D01*
X74800Y44689D01*
X75015Y44732D01*
X75197Y44853D01*
X75318Y45035D01*
X75361Y45250D01*
X75318Y45465D01*
X75197Y45647D01*
X75015Y45768D01*
X74800Y45811D01*
D02*
G37*
G36*
X222100Y44945D02*
Y44100D01*
X222945D01*
X222925Y44248D01*
X222830Y44479D01*
X222677Y44678D01*
X222479Y44830D01*
X222248Y44926D01*
X222100Y44945D01*
D02*
G37*
G36*
X221900D02*
X221752Y44926D01*
X221521Y44830D01*
X221322Y44678D01*
X221170Y44479D01*
X221074Y44248D01*
X221055Y44100D01*
X221900D01*
Y44945D01*
D02*
G37*
G36*
X144900Y44900D02*
X144055D01*
X144074Y44752D01*
X144170Y44521D01*
X144322Y44322D01*
X144521Y44170D01*
X144752Y44074D01*
X144900Y44055D01*
Y44900D01*
D02*
G37*
G36*
X145945D02*
X145100D01*
Y44055D01*
X145248Y44074D01*
X145479Y44170D01*
X145678Y44322D01*
X145830Y44521D01*
X145926Y44752D01*
X145945Y44900D01*
D02*
G37*
G36*
X203000Y46261D02*
X202674Y46218D01*
X202370Y46092D01*
X202109Y45892D01*
X201908Y45630D01*
X201782Y45326D01*
X201739Y45000D01*
X201782Y44674D01*
X201908Y44370D01*
X202109Y44109D01*
X202370Y43908D01*
X202674Y43782D01*
X203000Y43739D01*
X203326Y43782D01*
X203630Y43908D01*
X203892Y44109D01*
X204092Y44370D01*
X204218Y44674D01*
X204261Y45000D01*
X204218Y45326D01*
X204092Y45630D01*
X203892Y45892D01*
X203630Y46092D01*
X203326Y46218D01*
X203000Y46261D01*
D02*
G37*
G36*
X55610Y43953D02*
X55396Y43911D01*
X55214Y43789D01*
X55169Y43723D01*
X54929D01*
X54902Y43762D01*
X54720Y43884D01*
X54506Y43926D01*
X54291Y43884D01*
X54109Y43762D01*
X53988Y43580D01*
X53945Y43366D01*
X53988Y43151D01*
X54109Y42969D01*
X54291Y42848D01*
X54506Y42805D01*
X54720Y42848D01*
X54902Y42969D01*
X54947Y43036D01*
X55187D01*
X55214Y42996D01*
X55396Y42875D01*
X55610Y42832D01*
X55825Y42875D01*
X56007Y42996D01*
X56128Y43178D01*
X56171Y43393D01*
X56128Y43607D01*
X56007Y43789D01*
X55825Y43911D01*
X55610Y43953D01*
D02*
G37*
G36*
X221900Y43900D02*
X221055D01*
X221074Y43752D01*
X221170Y43521D01*
X221322Y43322D01*
X221521Y43170D01*
X221752Y43074D01*
X221900Y43055D01*
Y43900D01*
D02*
G37*
G36*
X222945D02*
X222100D01*
Y43055D01*
X222248Y43074D01*
X222479Y43170D01*
X222677Y43322D01*
X222830Y43521D01*
X222925Y43752D01*
X222945Y43900D01*
D02*
G37*
G36*
X280000Y45261D02*
X279674Y45218D01*
X279370Y45092D01*
X279108Y44891D01*
X278908Y44630D01*
X278782Y44326D01*
X278739Y44000D01*
X278782Y43674D01*
X278908Y43370D01*
X279108Y43108D01*
X279370Y42908D01*
X279674Y42782D01*
X280000Y42739D01*
X280326Y42782D01*
X280630Y42908D01*
X280891Y43108D01*
X281092Y43370D01*
X281218Y43674D01*
X281261Y44000D01*
X281218Y44326D01*
X281092Y44630D01*
X280891Y44891D01*
X280630Y45092D01*
X280326Y45218D01*
X280000Y45261D01*
D02*
G37*
G36*
X69750Y43811D02*
X69535Y43768D01*
X69353Y43647D01*
X69232Y43465D01*
X69189Y43250D01*
X69232Y43035D01*
X69353Y42853D01*
X69535Y42732D01*
X69750Y42689D01*
X69965Y42732D01*
X70147Y42853D01*
X70268Y43035D01*
X70311Y43250D01*
X70268Y43465D01*
X70147Y43647D01*
X69965Y43768D01*
X69750Y43811D01*
D02*
G37*
G36*
X79000Y42561D02*
X78785Y42518D01*
X78696Y42458D01*
X78550Y42413D01*
X78404Y42458D01*
X78315Y42518D01*
X78100Y42561D01*
X77885Y42518D01*
X77703Y42397D01*
X77582Y42215D01*
X77539Y42000D01*
X77582Y41785D01*
X77703Y41603D01*
X77885Y41482D01*
X78100Y41439D01*
X78315Y41482D01*
X78404Y41542D01*
X78550Y41587D01*
X78696Y41542D01*
X78785Y41482D01*
X79000Y41439D01*
X79215Y41482D01*
X79397Y41603D01*
X79518Y41785D01*
X79561Y42000D01*
X79518Y42215D01*
X79397Y42397D01*
X79215Y42518D01*
X79000Y42561D01*
D02*
G37*
G36*
X263200Y42761D02*
X262985Y42718D01*
X262803Y42597D01*
X262682Y42415D01*
X262639Y42200D01*
X262682Y41985D01*
X262803Y41803D01*
X262985Y41682D01*
X263200Y41639D01*
X263414Y41682D01*
X263596Y41803D01*
X263718Y41985D01*
X263761Y42200D01*
X263718Y42415D01*
X263596Y42597D01*
X263414Y42718D01*
X263200Y42761D01*
D02*
G37*
G36*
X91664Y42551D02*
X91450Y42509D01*
X91268Y42387D01*
X91146Y42205D01*
X91104Y41991D01*
X91125Y41884D01*
X90784Y41543D01*
X90717Y41443D01*
X90694Y41326D01*
X90694Y41326D01*
Y36457D01*
X90603Y36397D01*
X90482Y36215D01*
X90439Y36000D01*
X90482Y35785D01*
X90603Y35603D01*
X90785Y35482D01*
X91000Y35439D01*
X91215Y35482D01*
X91397Y35603D01*
X91518Y35785D01*
X91561Y36000D01*
X91518Y36215D01*
X91397Y36397D01*
X91306Y36457D01*
Y41200D01*
X91557Y41451D01*
X91664Y41430D01*
X91879Y41473D01*
X92061Y41594D01*
X92182Y41776D01*
X92225Y41991D01*
X92182Y42205D01*
X92061Y42387D01*
X91879Y42509D01*
X91664Y42551D01*
D02*
G37*
G36*
X78000Y41061D02*
X77785Y41018D01*
X77603Y40897D01*
X77482Y40715D01*
X77439Y40500D01*
X77482Y40285D01*
X77603Y40103D01*
Y39997D01*
X77482Y39815D01*
X77439Y39600D01*
X77482Y39385D01*
X77603Y39203D01*
Y39097D01*
X77482Y38915D01*
X77439Y38700D01*
X77482Y38485D01*
X77603Y38303D01*
X77785Y38182D01*
X78000Y38139D01*
X78215Y38182D01*
X78397Y38303D01*
X78518Y38485D01*
X78561Y38700D01*
X78518Y38915D01*
X78397Y39097D01*
Y39203D01*
X78518Y39385D01*
X78561Y39600D01*
X78518Y39815D01*
X78397Y39997D01*
Y40103D01*
X78518Y40285D01*
X78561Y40500D01*
X78518Y40715D01*
X78397Y40897D01*
X78215Y41018D01*
X78000Y41061D01*
D02*
G37*
G36*
X88700Y38620D02*
X88485Y38577D01*
X88303Y38456D01*
X88182Y38274D01*
X88139Y38059D01*
X88182Y37845D01*
X88303Y37663D01*
X88485Y37541D01*
X88700Y37499D01*
X88915Y37541D01*
X89097Y37663D01*
X89218Y37845D01*
X89261Y38059D01*
X89218Y38274D01*
X89097Y38456D01*
X88915Y38577D01*
X88700Y38620D01*
D02*
G37*
G36*
X139000Y39009D02*
X138739Y38974D01*
X138496Y38874D01*
X138287Y38713D01*
X138127Y38504D01*
X138026Y38261D01*
X137991Y38000D01*
X138026Y37739D01*
X138127Y37496D01*
X138287Y37287D01*
X138496Y37127D01*
X138739Y37026D01*
X139000Y36991D01*
X139261Y37026D01*
X139504Y37127D01*
X139713Y37287D01*
X139874Y37496D01*
X139974Y37739D01*
X140009Y38000D01*
X139974Y38261D01*
X139874Y38504D01*
X139713Y38713D01*
X139504Y38874D01*
X139261Y38974D01*
X139000Y39009D01*
D02*
G37*
G36*
X134000D02*
X133739Y38974D01*
X133496Y38874D01*
X133287Y38713D01*
X133126Y38504D01*
X133026Y38261D01*
X132991Y38000D01*
X133026Y37739D01*
X133126Y37496D01*
X133287Y37287D01*
X133496Y37127D01*
X133739Y37026D01*
X134000Y36991D01*
X134261Y37026D01*
X134504Y37127D01*
X134713Y37287D01*
X134873Y37496D01*
X134974Y37739D01*
X135009Y38000D01*
X134974Y38261D01*
X134873Y38504D01*
X134713Y38713D01*
X134504Y38874D01*
X134261Y38974D01*
X134000Y39009D01*
D02*
G37*
G36*
X116000Y38408D02*
X115752Y38376D01*
X115521Y38280D01*
X115322Y38128D01*
X115170Y37929D01*
X115074Y37698D01*
X115042Y37450D01*
X115074Y37202D01*
X115170Y36971D01*
X115322Y36772D01*
X115521Y36620D01*
X115752Y36524D01*
X116000Y36492D01*
X116248Y36524D01*
X116479Y36620D01*
X116678Y36772D01*
X116830Y36971D01*
X116926Y37202D01*
X116958Y37450D01*
X116926Y37698D01*
X116830Y37929D01*
X116678Y38128D01*
X116479Y38280D01*
X116248Y38376D01*
X116000Y38408D01*
D02*
G37*
G36*
X113500D02*
X113252Y38376D01*
X113021Y38280D01*
X112822Y38128D01*
X112670Y37929D01*
X112574Y37698D01*
X112542Y37450D01*
X112574Y37202D01*
X112670Y36971D01*
X112822Y36772D01*
X113021Y36620D01*
X113252Y36524D01*
X113500Y36492D01*
X113748Y36524D01*
X113979Y36620D01*
X114178Y36772D01*
X114330Y36971D01*
X114426Y37202D01*
X114458Y37450D01*
X114426Y37698D01*
X114330Y37929D01*
X114178Y38128D01*
X113979Y38280D01*
X113748Y38376D01*
X113500Y38408D01*
D02*
G37*
G36*
X157100Y36945D02*
Y36100D01*
X157945D01*
X157926Y36248D01*
X157830Y36479D01*
X157678Y36678D01*
X157479Y36830D01*
X157248Y36926D01*
X157100Y36945D01*
D02*
G37*
G36*
X156900D02*
X156752Y36926D01*
X156521Y36830D01*
X156322Y36678D01*
X156170Y36479D01*
X156074Y36248D01*
X156055Y36100D01*
X156900D01*
Y36945D01*
D02*
G37*
G36*
X51520Y36226D02*
X51337Y36202D01*
X51167Y36131D01*
X51021Y36019D01*
X51011Y36007D01*
X50759D01*
X50749Y36019D01*
X50603Y36131D01*
X50433Y36202D01*
X50250Y36226D01*
X50067Y36202D01*
X49897Y36131D01*
X49751Y36019D01*
X49741Y36007D01*
X49489D01*
X49479Y36019D01*
X49333Y36131D01*
X49163Y36202D01*
X48980Y36226D01*
X48797Y36202D01*
X48627Y36131D01*
X48481Y36019D01*
X48369Y35873D01*
X48298Y35703D01*
X48274Y35520D01*
X48298Y35337D01*
X48369Y35167D01*
X48481Y35021D01*
X48493Y35011D01*
Y34759D01*
X48481Y34749D01*
X48369Y34603D01*
X48298Y34433D01*
X48287Y34350D01*
X48980D01*
Y34250D01*
X49080D01*
Y33557D01*
X49163Y33568D01*
X49333Y33639D01*
X49479Y33751D01*
X49489Y33763D01*
X49741D01*
X49751Y33751D01*
X49897Y33639D01*
X50067Y33568D01*
X50250Y33544D01*
X50433Y33568D01*
X50603Y33639D01*
X50749Y33751D01*
X50759Y33763D01*
X51011D01*
X51021Y33751D01*
X51167Y33639D01*
X51337Y33568D01*
X51520Y33544D01*
X51703Y33568D01*
X51873Y33639D01*
X52019Y33751D01*
X52131Y33897D01*
X52202Y34067D01*
X52226Y34250D01*
X52202Y34433D01*
X52131Y34603D01*
X52019Y34749D01*
X52007Y34759D01*
Y35011D01*
X52019Y35021D01*
X52131Y35167D01*
X52202Y35337D01*
X52226Y35520D01*
X52202Y35703D01*
X52131Y35873D01*
X52019Y36019D01*
X51873Y36131D01*
X51703Y36202D01*
X51520Y36226D01*
D02*
G37*
G36*
X234600Y35945D02*
Y35100D01*
X235445D01*
X235425Y35248D01*
X235330Y35479D01*
X235177Y35678D01*
X234979Y35830D01*
X234748Y35926D01*
X234600Y35945D01*
D02*
G37*
G36*
X234400D02*
X234252Y35926D01*
X234021Y35830D01*
X233822Y35678D01*
X233670Y35479D01*
X233574Y35248D01*
X233555Y35100D01*
X234400D01*
Y35945D01*
D02*
G37*
G36*
X157945Y35900D02*
X157100D01*
Y35055D01*
X157248Y35074D01*
X157479Y35170D01*
X157678Y35322D01*
X157830Y35521D01*
X157926Y35752D01*
X157945Y35900D01*
D02*
G37*
G36*
X156900D02*
X156055D01*
X156074Y35752D01*
X156170Y35521D01*
X156322Y35322D01*
X156521Y35170D01*
X156752Y35074D01*
X156900Y35055D01*
Y35900D01*
D02*
G37*
G36*
X181000Y36958D02*
X180752Y36926D01*
X180521Y36830D01*
X180322Y36678D01*
X180170Y36479D01*
X180074Y36248D01*
X180042Y36000D01*
X180074Y35752D01*
X180170Y35521D01*
X180322Y35322D01*
X180521Y35170D01*
X180752Y35074D01*
X181000Y35042D01*
X181248Y35074D01*
X181479Y35170D01*
X181678Y35322D01*
X181830Y35521D01*
X181926Y35752D01*
X181958Y36000D01*
X181926Y36248D01*
X181830Y36479D01*
X181678Y36678D01*
X181479Y36830D01*
X181248Y36926D01*
X181000Y36958D01*
D02*
G37*
G36*
X178000Y36958D02*
X177752Y36926D01*
X177521Y36830D01*
X177322Y36678D01*
X177170Y36479D01*
X177074Y36248D01*
X177042Y36000D01*
X177074Y35752D01*
X177170Y35521D01*
X177322Y35322D01*
X177521Y35170D01*
X177752Y35074D01*
X178000Y35042D01*
X178248Y35074D01*
X178479Y35170D01*
X178678Y35322D01*
X178830Y35521D01*
X178926Y35752D01*
X178958Y36000D01*
X178926Y36248D01*
X178830Y36479D01*
X178678Y36678D01*
X178479Y36830D01*
X178248Y36926D01*
X178000Y36958D01*
D02*
G37*
G36*
X202000Y37261D02*
X201674Y37218D01*
X201370Y37092D01*
X201108Y36892D01*
X200908Y36630D01*
X200782Y36326D01*
X200739Y36000D01*
X200782Y35674D01*
X200908Y35370D01*
X201108Y35109D01*
X201370Y34908D01*
X201674Y34782D01*
X202000Y34739D01*
X202326Y34782D01*
X202630Y34908D01*
X202891Y35109D01*
X203092Y35370D01*
X203218Y35674D01*
X203261Y36000D01*
X203218Y36326D01*
X203092Y36630D01*
X202891Y36892D01*
X202630Y37092D01*
X202326Y37218D01*
X202000Y37261D01*
D02*
G37*
G36*
X92100Y35661D02*
X91885Y35618D01*
X91703Y35497D01*
X91582Y35315D01*
X91539Y35100D01*
X91582Y34885D01*
X91703Y34703D01*
X91885Y34582D01*
X92100Y34539D01*
X92315Y34582D01*
X92497Y34703D01*
X92618Y34885D01*
X92661Y35100D01*
X92618Y35315D01*
X92497Y35497D01*
X92315Y35618D01*
X92100Y35661D01*
D02*
G37*
G36*
X116100Y35195D02*
Y34350D01*
X116945D01*
X116926Y34498D01*
X116830Y34729D01*
X116678Y34928D01*
X116479Y35080D01*
X116248Y35176D01*
X116100Y35195D01*
D02*
G37*
G36*
X115900D02*
X115752Y35176D01*
X115521Y35080D01*
X115322Y34928D01*
X115170Y34729D01*
X115074Y34498D01*
X115055Y34350D01*
X115900D01*
Y35195D01*
D02*
G37*
G36*
X234400Y34900D02*
X233555D01*
X233574Y34752D01*
X233670Y34521D01*
X233822Y34322D01*
X234021Y34170D01*
X234252Y34074D01*
X234400Y34055D01*
Y34900D01*
D02*
G37*
G36*
X235445D02*
X234600D01*
Y34055D01*
X234748Y34074D01*
X234979Y34170D01*
X235177Y34322D01*
X235330Y34521D01*
X235425Y34752D01*
X235445Y34900D01*
D02*
G37*
G36*
X255500Y35958D02*
X255252Y35926D01*
X255021Y35830D01*
X254822Y35678D01*
X254670Y35479D01*
X254574Y35248D01*
X254542Y35000D01*
X254574Y34752D01*
X254670Y34521D01*
X254822Y34322D01*
X255021Y34170D01*
X255252Y34074D01*
X255500Y34042D01*
X255748Y34074D01*
X255979Y34170D01*
X256177Y34322D01*
X256330Y34521D01*
X256425Y34752D01*
X256458Y35000D01*
X256425Y35248D01*
X256330Y35479D01*
X256177Y35678D01*
X255979Y35830D01*
X255748Y35926D01*
X255500Y35958D01*
D02*
G37*
G36*
X258500Y35958D02*
X258252Y35925D01*
X258021Y35830D01*
X257822Y35678D01*
X257670Y35479D01*
X257574Y35248D01*
X257542Y35000D01*
X257574Y34752D01*
X257670Y34521D01*
X257822Y34322D01*
X258021Y34170D01*
X258252Y34074D01*
X258500Y34042D01*
X258748Y34074D01*
X258979Y34170D01*
X259177Y34322D01*
X259330Y34521D01*
X259425Y34752D01*
X259458Y35000D01*
X259425Y35248D01*
X259330Y35479D01*
X259177Y35678D01*
X258979Y35830D01*
X258748Y35925D01*
X258500Y35958D01*
D02*
G37*
G36*
X279500Y36261D02*
X279174Y36218D01*
X278870Y36092D01*
X278608Y35891D01*
X278408Y35630D01*
X278282Y35326D01*
X278239Y35000D01*
X278282Y34674D01*
X278408Y34370D01*
X278608Y34108D01*
X278870Y33908D01*
X279174Y33782D01*
X279500Y33739D01*
X279826Y33782D01*
X280130Y33908D01*
X280391Y34108D01*
X280592Y34370D01*
X280718Y34674D01*
X280761Y35000D01*
X280718Y35326D01*
X280592Y35630D01*
X280391Y35891D01*
X280130Y36092D01*
X279826Y36218D01*
X279500Y36261D01*
D02*
G37*
G36*
X48880Y34150D02*
X48287D01*
X48298Y34067D01*
X48369Y33897D01*
X48481Y33751D01*
X48627Y33639D01*
X48797Y33568D01*
X48880Y33557D01*
Y34150D01*
D02*
G37*
G36*
X116945D02*
X116100D01*
Y33305D01*
X116248Y33324D01*
X116479Y33420D01*
X116678Y33572D01*
X116830Y33771D01*
X116926Y34002D01*
X116945Y34150D01*
D02*
G37*
G36*
X115900D02*
X115055D01*
X115074Y34002D01*
X115170Y33771D01*
X115322Y33572D01*
X115521Y33420D01*
X115752Y33324D01*
X115900Y33305D01*
Y34150D01*
D02*
G37*
G36*
X113500Y35208D02*
X113252Y35176D01*
X113021Y35080D01*
X112822Y34928D01*
X112670Y34729D01*
X112574Y34498D01*
X112542Y34250D01*
X112574Y34002D01*
X112670Y33771D01*
X112822Y33572D01*
X113021Y33420D01*
X113252Y33324D01*
X113500Y33292D01*
X113748Y33324D01*
X113979Y33420D01*
X114178Y33572D01*
X114330Y33771D01*
X114426Y34002D01*
X114458Y34250D01*
X114426Y34498D01*
X114330Y34729D01*
X114178Y34928D01*
X113979Y35080D01*
X113748Y35176D01*
X113500Y35208D01*
D02*
G37*
G36*
X120770Y36709D02*
X120388Y36672D01*
X120020Y36560D01*
X119681Y36379D01*
X119384Y36136D01*
X119141Y35839D01*
X118960Y35500D01*
X118848Y35132D01*
X118811Y34750D01*
X118848Y34368D01*
X118960Y34000D01*
X119141Y33661D01*
X119384Y33364D01*
X119681Y33121D01*
X120020Y32940D01*
X120388Y32828D01*
X120770Y32791D01*
X121152Y32828D01*
X121520Y32940D01*
X121859Y33121D01*
X122156Y33364D01*
X122399Y33661D01*
X122580Y34000D01*
X122692Y34368D01*
X122729Y34750D01*
X122692Y35132D01*
X122580Y35500D01*
X122399Y35839D01*
X122156Y36136D01*
X121859Y36379D01*
X121520Y36560D01*
X121152Y36672D01*
X120770Y36709D01*
D02*
G37*
G36*
X108730D02*
X108348Y36672D01*
X107980Y36560D01*
X107641Y36379D01*
X107344Y36136D01*
X107101Y35839D01*
X106920Y35500D01*
X106808Y35132D01*
X106771Y34750D01*
X106808Y34368D01*
X106920Y34000D01*
X107101Y33661D01*
X107344Y33364D01*
X107641Y33121D01*
X107980Y32940D01*
X108348Y32828D01*
X108730Y32791D01*
X109112Y32828D01*
X109480Y32940D01*
X109819Y33121D01*
X110116Y33364D01*
X110359Y33661D01*
X110540Y34000D01*
X110652Y34368D01*
X110689Y34750D01*
X110652Y35132D01*
X110540Y35500D01*
X110359Y35839D01*
X110116Y36136D01*
X109819Y36379D01*
X109480Y36560D01*
X109112Y36672D01*
X108730Y36709D01*
D02*
G37*
G36*
X263200Y33761D02*
X262985Y33718D01*
X262803Y33597D01*
X262682Y33415D01*
X262639Y33200D01*
X262682Y32985D01*
X262803Y32803D01*
X262985Y32682D01*
X263200Y32639D01*
X263415Y32682D01*
X263596Y32803D01*
X263718Y32985D01*
X263761Y33200D01*
X263718Y33415D01*
X263596Y33597D01*
X263415Y33718D01*
X263200Y33761D01*
D02*
G37*
G36*
X79600Y33344D02*
Y32600D01*
X80344D01*
X80328Y32722D01*
X80242Y32929D01*
X80106Y33106D01*
X79929Y33242D01*
X79722Y33328D01*
X79600Y33344D01*
D02*
G37*
G36*
X77600D02*
Y32600D01*
X78344D01*
X78328Y32722D01*
X78243Y32929D01*
X78106Y33106D01*
X77929Y33242D01*
X77722Y33328D01*
X77600Y33344D01*
D02*
G37*
G36*
X79400D02*
X79278Y33328D01*
X79071Y33242D01*
X78894Y33106D01*
X78758Y32929D01*
X78672Y32722D01*
X78656Y32600D01*
X79400D01*
Y33344D01*
D02*
G37*
G36*
X77400D02*
X77278Y33328D01*
X77071Y33242D01*
X76894Y33106D01*
X76758Y32929D01*
X76672Y32722D01*
X76656Y32600D01*
X77400D01*
Y33344D01*
D02*
G37*
G36*
X80344Y32400D02*
X79600D01*
Y31656D01*
X79722Y31672D01*
X79929Y31758D01*
X80106Y31894D01*
X80242Y32071D01*
X80328Y32278D01*
X80344Y32400D01*
D02*
G37*
G36*
X78344D02*
X77600D01*
Y31656D01*
X77722Y31672D01*
X77929Y31758D01*
X78106Y31894D01*
X78243Y32071D01*
X78328Y32278D01*
X78344Y32400D01*
D02*
G37*
G36*
X79400D02*
X78656D01*
X78672Y32278D01*
X78758Y32071D01*
X78894Y31894D01*
X79071Y31758D01*
X79278Y31672D01*
X79400Y31656D01*
Y32400D01*
D02*
G37*
G36*
X77400D02*
X76656D01*
X76672Y32278D01*
X76758Y32071D01*
X76894Y31894D01*
X77071Y31758D01*
X77278Y31672D01*
X77400Y31656D01*
Y32400D01*
D02*
G37*
G36*
X75500Y33357D02*
X75278Y33328D01*
X75071Y33242D01*
X74894Y33106D01*
X74758Y32929D01*
X74672Y32722D01*
X74643Y32500D01*
X74672Y32278D01*
X74758Y32071D01*
X74894Y31894D01*
X75071Y31758D01*
X75278Y31672D01*
X75500Y31643D01*
X75722Y31672D01*
X75929Y31758D01*
X76106Y31894D01*
X76243Y32071D01*
X76328Y32278D01*
X76357Y32500D01*
X76328Y32722D01*
X76243Y32929D01*
X76106Y33106D01*
X75929Y33242D01*
X75722Y33328D01*
X75500Y33357D01*
D02*
G37*
G36*
X73500D02*
X73278Y33328D01*
X73071Y33242D01*
X72894Y33106D01*
X72758Y32929D01*
X72672Y32722D01*
X72643Y32500D01*
X72672Y32278D01*
X72758Y32071D01*
X72894Y31894D01*
X73071Y31758D01*
X73278Y31672D01*
X73500Y31643D01*
X73722Y31672D01*
X73929Y31758D01*
X74106Y31894D01*
X74242Y32071D01*
X74328Y32278D01*
X74357Y32500D01*
X74328Y32722D01*
X74242Y32929D01*
X74106Y33106D01*
X73929Y33242D01*
X73722Y33328D01*
X73500Y33357D01*
D02*
G37*
G36*
X71500D02*
X71278Y33328D01*
X71071Y33242D01*
X70894Y33106D01*
X70758Y32929D01*
X70672Y32722D01*
X70643Y32500D01*
X70672Y32278D01*
X70758Y32071D01*
X70894Y31894D01*
X71071Y31758D01*
X71278Y31672D01*
X71500Y31643D01*
X71722Y31672D01*
X71929Y31758D01*
X72106Y31894D01*
X72242Y32071D01*
X72328Y32278D01*
X72357Y32500D01*
X72328Y32722D01*
X72242Y32929D01*
X72106Y33106D01*
X71929Y33242D01*
X71722Y33328D01*
X71500Y33357D01*
D02*
G37*
G36*
X69500D02*
X69278Y33328D01*
X69071Y33242D01*
X68894Y33106D01*
X68758Y32929D01*
X68672Y32722D01*
X68643Y32500D01*
X68672Y32278D01*
X68758Y32071D01*
X68894Y31894D01*
X69071Y31758D01*
X69278Y31672D01*
X69500Y31643D01*
X69722Y31672D01*
X69929Y31758D01*
X70106Y31894D01*
X70242Y32071D01*
X70328Y32278D01*
X70357Y32500D01*
X70328Y32722D01*
X70242Y32929D01*
X70106Y33106D01*
X69929Y33242D01*
X69722Y33328D01*
X69500Y33357D01*
D02*
G37*
G36*
X67500D02*
X67278Y33328D01*
X67071Y33242D01*
X66894Y33106D01*
X66758Y32929D01*
X66672Y32722D01*
X66643Y32500D01*
X66672Y32278D01*
X66758Y32071D01*
X66894Y31894D01*
X67071Y31758D01*
X67278Y31672D01*
X67500Y31643D01*
X67722Y31672D01*
X67929Y31758D01*
X68106Y31894D01*
X68242Y32071D01*
X68328Y32278D01*
X68357Y32500D01*
X68328Y32722D01*
X68242Y32929D01*
X68106Y33106D01*
X67929Y33242D01*
X67722Y33328D01*
X67500Y33357D01*
D02*
G37*
G36*
X79600Y31344D02*
Y30600D01*
X80344D01*
X80328Y30722D01*
X80242Y30929D01*
X80106Y31106D01*
X79929Y31242D01*
X79722Y31328D01*
X79600Y31344D01*
D02*
G37*
G36*
X77600D02*
Y30600D01*
X78344D01*
X78328Y30722D01*
X78243Y30929D01*
X78106Y31106D01*
X77929Y31242D01*
X77722Y31328D01*
X77600Y31344D01*
D02*
G37*
G36*
X75600D02*
Y30600D01*
X76344D01*
X76328Y30722D01*
X76243Y30929D01*
X76106Y31106D01*
X75929Y31242D01*
X75722Y31328D01*
X75600Y31344D01*
D02*
G37*
G36*
X79400D02*
X79278Y31328D01*
X79071Y31242D01*
X78894Y31106D01*
X78758Y30929D01*
X78672Y30722D01*
X78656Y30600D01*
X79400D01*
Y31344D01*
D02*
G37*
G36*
X77400D02*
X77278Y31328D01*
X77071Y31242D01*
X76894Y31106D01*
X76758Y30929D01*
X76672Y30722D01*
X76656Y30600D01*
X77400D01*
Y31344D01*
D02*
G37*
G36*
X75400D02*
X75278Y31328D01*
X75071Y31242D01*
X74894Y31106D01*
X74758Y30929D01*
X74672Y30722D01*
X74656Y30600D01*
X75400D01*
Y31344D01*
D02*
G37*
G36*
X80344Y30400D02*
X79600D01*
Y29656D01*
X79722Y29672D01*
X79929Y29758D01*
X80106Y29894D01*
X80242Y30071D01*
X80328Y30278D01*
X80344Y30400D01*
D02*
G37*
G36*
X78344D02*
X77600D01*
Y29656D01*
X77722Y29672D01*
X77929Y29758D01*
X78106Y29894D01*
X78243Y30071D01*
X78328Y30278D01*
X78344Y30400D01*
D02*
G37*
G36*
X76344D02*
X75600D01*
Y29656D01*
X75722Y29672D01*
X75929Y29758D01*
X76106Y29894D01*
X76243Y30071D01*
X76328Y30278D01*
X76344Y30400D01*
D02*
G37*
G36*
X79400D02*
X78656D01*
X78672Y30278D01*
X78758Y30071D01*
X78894Y29894D01*
X79071Y29758D01*
X79278Y29672D01*
X79400Y29656D01*
Y30400D01*
D02*
G37*
G36*
X77400D02*
X76656D01*
X76672Y30278D01*
X76758Y30071D01*
X76894Y29894D01*
X77071Y29758D01*
X77278Y29672D01*
X77400Y29656D01*
Y30400D01*
D02*
G37*
G36*
X75400D02*
X74656D01*
X74672Y30278D01*
X74758Y30071D01*
X74894Y29894D01*
X75071Y29758D01*
X75278Y29672D01*
X75400Y29656D01*
Y30400D01*
D02*
G37*
G36*
X73500Y31357D02*
X73278Y31328D01*
X73071Y31242D01*
X72894Y31106D01*
X72758Y30929D01*
X72672Y30722D01*
X72643Y30500D01*
X72672Y30278D01*
X72758Y30071D01*
X72894Y29894D01*
X73071Y29758D01*
X73278Y29672D01*
X73500Y29643D01*
X73722Y29672D01*
X73929Y29758D01*
X74106Y29894D01*
X74242Y30071D01*
X74328Y30278D01*
X74357Y30500D01*
X74328Y30722D01*
X74242Y30929D01*
X74106Y31106D01*
X73929Y31242D01*
X73722Y31328D01*
X73500Y31357D01*
D02*
G37*
G36*
X71500D02*
X71278Y31328D01*
X71071Y31242D01*
X70894Y31106D01*
X70758Y30929D01*
X70672Y30722D01*
X70643Y30500D01*
X70672Y30278D01*
X70758Y30071D01*
X70894Y29894D01*
X71071Y29758D01*
X71278Y29672D01*
X71500Y29643D01*
X71722Y29672D01*
X71929Y29758D01*
X72106Y29894D01*
X72242Y30071D01*
X72328Y30278D01*
X72357Y30500D01*
X72328Y30722D01*
X72242Y30929D01*
X72106Y31106D01*
X71929Y31242D01*
X71722Y31328D01*
X71500Y31357D01*
D02*
G37*
G36*
X69500D02*
X69278Y31328D01*
X69071Y31242D01*
X68894Y31106D01*
X68758Y30929D01*
X68672Y30722D01*
X68643Y30500D01*
X68672Y30278D01*
X68758Y30071D01*
X68894Y29894D01*
X69071Y29758D01*
X69278Y29672D01*
X69500Y29643D01*
X69722Y29672D01*
X69929Y29758D01*
X70106Y29894D01*
X70242Y30071D01*
X70328Y30278D01*
X70357Y30500D01*
X70328Y30722D01*
X70242Y30929D01*
X70106Y31106D01*
X69929Y31242D01*
X69722Y31328D01*
X69500Y31357D01*
D02*
G37*
G36*
X67500D02*
X67278Y31328D01*
X67071Y31242D01*
X66894Y31106D01*
X66758Y30929D01*
X66672Y30722D01*
X66643Y30500D01*
X66672Y30278D01*
X66758Y30071D01*
X66894Y29894D01*
X67071Y29758D01*
X67278Y29672D01*
X67500Y29643D01*
X67722Y29672D01*
X67929Y29758D01*
X68106Y29894D01*
X68242Y30071D01*
X68328Y30278D01*
X68357Y30500D01*
X68328Y30722D01*
X68242Y30929D01*
X68106Y31106D01*
X67929Y31242D01*
X67722Y31328D01*
X67500Y31357D01*
D02*
G37*
%LPD*%
G36*
X309880Y94500D02*
X309880Y94500D01*
X309880D01*
X310062Y94466D01*
X310163Y94424D01*
X310304Y94283D01*
X310380Y94099D01*
X310380Y94000D01*
Y86500D01*
X310380Y86500D01*
X310380Y86401D01*
X310304Y86217D01*
X310163Y86076D01*
X309979Y86000D01*
X309880Y86000D01*
X307880Y86000D01*
X307880Y86000D01*
X307782Y85990D01*
X307602Y85916D01*
X307464Y85778D01*
X307390Y85598D01*
X307380Y85500D01*
X307380Y83000D01*
X307380Y83000D01*
X307380Y82935D01*
X307363Y82807D01*
X307330Y82683D01*
X307282Y82563D01*
X307250Y82507D01*
X307250Y78750D01*
X307250Y78750D01*
X307250Y78651D01*
X307174Y78467D01*
X307033Y78326D01*
X306849Y78250D01*
X306750Y78250D01*
X297750D01*
X297750Y78250D01*
X297701Y78245D01*
X297611Y78208D01*
X297542Y78139D01*
X297505Y78049D01*
X297500Y78000D01*
X297500Y66500D01*
X297500Y64500D01*
X297500Y64500D01*
Y64401D01*
X297424Y64217D01*
X297283Y64076D01*
X297099Y64000D01*
X297000Y64000D01*
X226518D01*
X55000Y64000D01*
X52500Y64000D01*
X52500Y64000D01*
X52401Y64000D01*
X52217Y64076D01*
X52076Y64217D01*
X52000Y64401D01*
X52000Y64500D01*
X52000Y87500D01*
X52000Y87500D01*
X52036Y87685D01*
X52076Y87783D01*
X52217Y87924D01*
X52401Y88000D01*
X52500Y88000D01*
X54500Y88000D01*
X54500Y88000D01*
X54500Y88000D01*
X54500D01*
X54683Y87965D01*
X54783Y87924D01*
X54924Y87783D01*
X55000Y87599D01*
X55000Y87500D01*
X55000Y67000D01*
X55010Y66902D01*
X55084Y66722D01*
X55222Y66584D01*
X55402Y66510D01*
X55500Y66500D01*
X224000D01*
X224074Y66504D01*
X224218Y66532D01*
X224354Y66589D01*
X224476Y66670D01*
X224580Y66774D01*
X224661Y66896D01*
X224718Y67032D01*
X224746Y67176D01*
X224750Y67250D01*
X224750Y80250D01*
X224750Y80250D01*
X224786Y80435D01*
X224826Y80533D01*
X224967Y80674D01*
X225151Y80750D01*
X225250Y80750D01*
X232750Y80750D01*
X232848Y80760D01*
X232932Y80794D01*
X233028Y80834D01*
X233166Y80972D01*
X233240Y81152D01*
X233250Y81250D01*
X233250Y81950D01*
X233180D01*
X233180Y85450D01*
X233180D01*
X233180Y85450D01*
X233180Y85450D01*
X233170Y85548D01*
X233135Y85632D01*
X233096Y85728D01*
X232958Y85866D01*
X232778Y85940D01*
X232680Y85950D01*
X229680Y85950D01*
X229581Y85950D01*
X229397Y86026D01*
X229256Y86167D01*
X229180Y86351D01*
X229180Y86450D01*
X229180Y92144D01*
X229380Y92157D01*
X229394Y92053D01*
X229421Y91847D01*
X229557Y91517D01*
X229652Y91394D01*
X230457Y92200D01*
X229652Y93006D01*
X229557Y92883D01*
X229421Y92553D01*
X229394Y92347D01*
X229380Y92243D01*
X229180Y92256D01*
Y93950D01*
X229180Y93950D01*
X229216Y94135D01*
X229256Y94233D01*
X229397Y94374D01*
X229581Y94450D01*
X229680Y94450D01*
X239680Y94450D01*
X239680Y94450D01*
X239680Y94450D01*
X239680D01*
X239863Y94415D01*
X239963Y94374D01*
X240104Y94233D01*
X240180Y94049D01*
X240180Y93950D01*
X240180Y86450D01*
X240180Y86450D01*
X240180Y86351D01*
X240104Y86167D01*
X239963Y86026D01*
X239779Y85950D01*
X239680Y85950D01*
X237680D01*
X237680Y85950D01*
X237583Y85940D01*
X237402Y85866D01*
X237264Y85728D01*
X237190Y85548D01*
X237180Y85450D01*
X237180Y81950D01*
X237000D01*
X237000Y78750D01*
X237000Y78750D01*
X237000Y78651D01*
X236924Y78467D01*
X236783Y78326D01*
X236599Y78250D01*
X236500Y78250D01*
X227500D01*
X227500Y78250D01*
X227451Y78245D01*
X227361Y78208D01*
X227292Y78139D01*
X227255Y78049D01*
X227250Y78000D01*
X227250Y67250D01*
X227254Y67176D01*
X227282Y67032D01*
X227339Y66896D01*
X227420Y66774D01*
X227524Y66670D01*
X227646Y66589D01*
X227782Y66532D01*
X227926Y66504D01*
X228000Y66500D01*
X259000Y66500D01*
X259098Y66510D01*
X259182Y66544D01*
X259278Y66584D01*
X259416Y66722D01*
X259490Y66902D01*
X259500Y67000D01*
X259500Y80250D01*
X259500Y80250D01*
X259536Y80435D01*
X259576Y80533D01*
X259717Y80674D01*
X259901Y80750D01*
X260000Y80750D01*
X267500Y80750D01*
X267598Y80760D01*
X267682Y80794D01*
X267778Y80834D01*
X267916Y80972D01*
X267990Y81152D01*
X268000Y81250D01*
X268000Y83500D01*
X268000Y85500D01*
X268000D01*
X268000Y85500D01*
X268000Y85500D01*
X267990Y85598D01*
X267955Y85682D01*
X267916Y85778D01*
X267778Y85916D01*
X267598Y85990D01*
X267500Y86000D01*
X264500Y86000D01*
X264401D01*
X264217Y86076D01*
X264076Y86217D01*
X264000Y86401D01*
Y86500D01*
X264000Y94000D01*
X264000Y94000D01*
X264036Y94185D01*
X264076Y94283D01*
X264217Y94424D01*
X264401Y94500D01*
X264500Y94500D01*
X275000Y94500D01*
X275000Y94500D01*
X275000Y94500D01*
X275000D01*
X275183Y94465D01*
X275283Y94424D01*
X275424Y94283D01*
X275500Y94099D01*
X275500Y94000D01*
X275500Y86500D01*
X275500Y86500D01*
X275500Y86401D01*
X275424Y86217D01*
X275283Y86076D01*
X275099Y86000D01*
X275000Y86000D01*
X272500Y86000D01*
X272500Y86000D01*
X272402Y85990D01*
X272222Y85916D01*
X272084Y85778D01*
X272010Y85598D01*
X272000Y85500D01*
X272000Y83000D01*
X272000Y83000D01*
X272000Y82909D01*
X271967Y82731D01*
X271903Y82562D01*
X271810Y82406D01*
X271750Y82339D01*
X271750Y78750D01*
X271750Y78750D01*
X271750Y78651D01*
X271674Y78467D01*
X271533Y78326D01*
X271349Y78250D01*
X271250Y78250D01*
X262250D01*
X262250Y78250D01*
X262201Y78245D01*
X262111Y78208D01*
X262042Y78139D01*
X262005Y78049D01*
X262000Y78000D01*
X262000Y67000D01*
X262010Y66902D01*
X262084Y66722D01*
X262222Y66584D01*
X262402Y66510D01*
X262500Y66500D01*
X295000Y66500D01*
X295000Y80250D01*
X295000Y80250D01*
X295036Y80435D01*
X295076Y80533D01*
X295217Y80674D01*
X295401Y80750D01*
X295500Y80750D01*
X303000Y80750D01*
X303098Y80760D01*
X303182Y80794D01*
X303278Y80834D01*
X303416Y80972D01*
X303490Y81152D01*
X303500Y81250D01*
X303500Y82525D01*
X303500Y82525D01*
X303426Y82694D01*
X303426Y82695D01*
X303395Y82815D01*
X303380Y82938D01*
X303380Y83000D01*
Y85500D01*
X303380D01*
X303380Y85500D01*
X303380Y85500D01*
X303370Y85598D01*
X303335Y85682D01*
X303296Y85778D01*
X303158Y85916D01*
X302977Y85990D01*
X302880Y86000D01*
X299880Y86000D01*
X299880Y86000D01*
X299780Y86000D01*
X299597Y86076D01*
X299456Y86217D01*
X299380Y86401D01*
X299380Y86500D01*
X299380Y92194D01*
X299580Y92207D01*
X299594Y92103D01*
X299621Y91897D01*
X299757Y91567D01*
X299851Y91444D01*
X300657Y92250D01*
X299851Y93056D01*
X299757Y92933D01*
X299621Y92603D01*
X299594Y92397D01*
X299580Y92293D01*
X299380Y92306D01*
Y94000D01*
X299380Y94000D01*
X299415Y94185D01*
X299456Y94283D01*
X299597Y94424D01*
X299780Y94500D01*
X299880Y94500D01*
X309880Y94500D01*
X309880Y94500D01*
D02*
G37*
%LPC*%
G36*
X273490Y93616D02*
X273137Y93569D01*
X272807Y93433D01*
X272684Y93339D01*
X273490Y92533D01*
X274296Y93339D01*
X274173Y93433D01*
X273843Y93569D01*
X273490Y93616D01*
D02*
G37*
G36*
X265870D02*
X265517Y93569D01*
X265187Y93433D01*
X265064Y93339D01*
X265870Y92533D01*
X266676Y93339D01*
X266553Y93433D01*
X266223Y93569D01*
X265870Y93616D01*
D02*
G37*
G36*
X308560Y93616D02*
X308206Y93569D01*
X307877Y93433D01*
X307754Y93338D01*
X308560Y92533D01*
X309366Y93338D01*
X309243Y93433D01*
X308913Y93569D01*
X308560Y93616D01*
D02*
G37*
G36*
X300940D02*
X300586Y93569D01*
X300257Y93433D01*
X300134Y93338D01*
X300940Y92533D01*
X301746Y93338D01*
X301623Y93433D01*
X301293Y93569D01*
X300940Y93616D01*
D02*
G37*
G36*
X238360Y93566D02*
X238007Y93519D01*
X237677Y93383D01*
X237554Y93288D01*
X238360Y92483D01*
X239166Y93288D01*
X239043Y93383D01*
X238714Y93519D01*
X238360Y93566D01*
D02*
G37*
G36*
X230740D02*
X230387Y93519D01*
X230057Y93383D01*
X229934Y93288D01*
X230740Y92483D01*
X231546Y93288D01*
X231423Y93383D01*
X231094Y93519D01*
X230740Y93566D01*
D02*
G37*
G36*
X266958Y93056D02*
X266153Y92250D01*
X266958Y91444D01*
X267053Y91567D01*
X267189Y91897D01*
X267236Y92250D01*
X267189Y92603D01*
X267053Y92933D01*
X266958Y93056D01*
D02*
G37*
G36*
X274578D02*
X273773Y92250D01*
X274578Y91444D01*
X274673Y91567D01*
X274809Y91897D01*
X274856Y92250D01*
X274809Y92603D01*
X274673Y92933D01*
X274578Y93056D01*
D02*
G37*
G36*
X272402Y93056D02*
X272307Y92933D01*
X272171Y92603D01*
X272124Y92250D01*
X272171Y91897D01*
X272307Y91567D01*
X272402Y91444D01*
X273207Y92250D01*
X272402Y93056D01*
D02*
G37*
G36*
X264782D02*
X264687Y92933D01*
X264551Y92603D01*
X264504Y92250D01*
X264551Y91897D01*
X264687Y91567D01*
X264782Y91444D01*
X265587Y92250D01*
X264782Y93056D01*
D02*
G37*
G36*
X309648Y93056D02*
X308843Y92250D01*
X309648Y91444D01*
X309743Y91567D01*
X309879Y91897D01*
X309926Y92250D01*
X309879Y92603D01*
X309743Y92933D01*
X309648Y93056D01*
D02*
G37*
G36*
X302028D02*
X301223Y92250D01*
X302028Y91444D01*
X302123Y91567D01*
X302259Y91897D01*
X302306Y92250D01*
X302259Y92603D01*
X302123Y92933D01*
X302028Y93056D01*
D02*
G37*
G36*
X307471Y93056D02*
X307377Y92933D01*
X307241Y92603D01*
X307194Y92250D01*
X307241Y91897D01*
X307377Y91567D01*
X307471Y91444D01*
X308277Y92250D01*
X307471Y93056D01*
D02*
G37*
G36*
X237272Y93006D02*
X237177Y92883D01*
X237041Y92553D01*
X236994Y92200D01*
X237041Y91847D01*
X237177Y91517D01*
X237272Y91394D01*
X238077Y92200D01*
X237272Y93006D01*
D02*
G37*
G36*
X239449Y93006D02*
X238643Y92200D01*
X239449Y91394D01*
X239543Y91517D01*
X239679Y91847D01*
X239726Y92200D01*
X239679Y92553D01*
X239543Y92883D01*
X239449Y93006D01*
D02*
G37*
G36*
X231829D02*
X231023Y92200D01*
X231829Y91394D01*
X231923Y91517D01*
X232059Y91847D01*
X232106Y92200D01*
X232059Y92553D01*
X231923Y92883D01*
X231829Y93006D01*
D02*
G37*
G36*
X269680Y93561D02*
X269341Y93517D01*
X269024Y93386D01*
X268753Y93177D01*
X268544Y92906D01*
X268413Y92589D01*
X268369Y92250D01*
X268413Y91911D01*
X268544Y91594D01*
X268753Y91323D01*
X269024Y91114D01*
X269341Y90983D01*
X269680Y90939D01*
X270019Y90983D01*
X270336Y91114D01*
X270607Y91323D01*
X270816Y91594D01*
X270947Y91911D01*
X270991Y92250D01*
X270947Y92589D01*
X270816Y92906D01*
X270607Y93177D01*
X270336Y93386D01*
X270019Y93517D01*
X269680Y93561D01*
D02*
G37*
G36*
X304750Y93561D02*
X304411Y93517D01*
X304094Y93386D01*
X303823Y93177D01*
X303614Y92906D01*
X303483Y92589D01*
X303439Y92250D01*
X303483Y91911D01*
X303614Y91594D01*
X303823Y91323D01*
X304094Y91114D01*
X304411Y90983D01*
X304750Y90939D01*
X305089Y90983D01*
X305406Y91114D01*
X305677Y91323D01*
X305885Y91594D01*
X306016Y91911D01*
X306061Y92250D01*
X306016Y92589D01*
X305885Y92906D01*
X305677Y93177D01*
X305406Y93386D01*
X305089Y93517D01*
X304750Y93561D01*
D02*
G37*
G36*
X234550Y93511D02*
X234211Y93467D01*
X233894Y93336D01*
X233623Y93127D01*
X233415Y92856D01*
X233284Y92539D01*
X233239Y92200D01*
X233284Y91861D01*
X233415Y91544D01*
X233623Y91273D01*
X233894Y91064D01*
X234211Y90933D01*
X234550Y90889D01*
X234889Y90933D01*
X235206Y91064D01*
X235477Y91273D01*
X235686Y91544D01*
X235817Y91861D01*
X235861Y92200D01*
X235817Y92539D01*
X235686Y92856D01*
X235477Y93127D01*
X235206Y93336D01*
X234889Y93467D01*
X234550Y93511D01*
D02*
G37*
G36*
X273490Y91967D02*
X272684Y91162D01*
X272807Y91067D01*
X273137Y90931D01*
X273490Y90884D01*
X273843Y90931D01*
X274173Y91067D01*
X274296Y91162D01*
X273490Y91967D01*
D02*
G37*
G36*
X265870D02*
X265064Y91162D01*
X265187Y91067D01*
X265517Y90931D01*
X265870Y90884D01*
X266223Y90931D01*
X266553Y91067D01*
X266676Y91162D01*
X265870Y91967D01*
D02*
G37*
G36*
X308560Y91967D02*
X307754Y91161D01*
X307877Y91067D01*
X308206Y90931D01*
X308560Y90884D01*
X308913Y90931D01*
X309243Y91067D01*
X309366Y91162D01*
X308560Y91967D01*
D02*
G37*
G36*
X300940D02*
X300134Y91161D01*
X300257Y91067D01*
X300586Y90931D01*
X300940Y90884D01*
X301293Y90931D01*
X301623Y91067D01*
X301746Y91162D01*
X300940Y91967D01*
D02*
G37*
G36*
X238360Y91917D02*
X237554Y91112D01*
X237677Y91017D01*
X238007Y90881D01*
X238360Y90834D01*
X238714Y90881D01*
X239043Y91017D01*
X239166Y91112D01*
X238360Y91917D01*
D02*
G37*
G36*
X230740D02*
X229934Y91112D01*
X230057Y91017D01*
X230387Y90881D01*
X230740Y90834D01*
X231094Y90881D01*
X231423Y91017D01*
X231546Y91112D01*
X230740Y91917D01*
D02*
G37*
G36*
X305250Y85616D02*
X304896Y85569D01*
X304567Y85433D01*
X304444Y85338D01*
X305250Y84533D01*
X306056Y85338D01*
X305933Y85433D01*
X305603Y85569D01*
X305250Y85616D01*
D02*
G37*
G36*
X269870D02*
X269517Y85569D01*
X269187Y85433D01*
X269064Y85338D01*
X269870Y84533D01*
X270676Y85338D01*
X270553Y85433D01*
X270223Y85569D01*
X269870Y85616D01*
D02*
G37*
G36*
X235050Y85566D02*
X234697Y85519D01*
X234367Y85383D01*
X234244Y85288D01*
X235050Y84483D01*
X235856Y85288D01*
X235733Y85383D01*
X235404Y85519D01*
X235050Y85566D01*
D02*
G37*
G36*
X268781Y85056D02*
X268687Y84933D01*
X268551Y84603D01*
X268504Y84250D01*
X268551Y83897D01*
X268687Y83567D01*
X268781Y83444D01*
X269587Y84250D01*
X268781Y85056D01*
D02*
G37*
G36*
X304161Y85056D02*
X304067Y84933D01*
X303931Y84603D01*
X303884Y84250D01*
X303931Y83897D01*
X304067Y83567D01*
X304161Y83444D01*
X304967Y84250D01*
X304161Y85056D01*
D02*
G37*
G36*
X306338Y85056D02*
X305533Y84250D01*
X306338Y83444D01*
X306433Y83567D01*
X306569Y83897D01*
X306616Y84250D01*
X306569Y84603D01*
X306433Y84933D01*
X306338Y85056D01*
D02*
G37*
G36*
X270958Y85056D02*
X270153Y84250D01*
X270958Y83444D01*
X271053Y83567D01*
X271189Y83897D01*
X271236Y84250D01*
X271189Y84603D01*
X271053Y84933D01*
X270958Y85056D01*
D02*
G37*
G36*
X236139Y85006D02*
X235333Y84200D01*
X236139Y83394D01*
X236233Y83517D01*
X236369Y83847D01*
X236416Y84200D01*
X236369Y84553D01*
X236233Y84883D01*
X236139Y85006D01*
D02*
G37*
G36*
X233962Y85006D02*
X233867Y84883D01*
X233731Y84553D01*
X233684Y84200D01*
X233731Y83847D01*
X233867Y83517D01*
X233962Y83394D01*
X234767Y84200D01*
X233962Y85006D01*
D02*
G37*
G36*
X305250Y83967D02*
X304444Y83161D01*
X304567Y83067D01*
X304896Y82931D01*
X305250Y82884D01*
X305603Y82931D01*
X305933Y83067D01*
X306056Y83161D01*
X305250Y83967D01*
D02*
G37*
G36*
X269870Y83967D02*
X269064Y83161D01*
X269187Y83067D01*
X269517Y82931D01*
X269870Y82884D01*
X270223Y82931D01*
X270553Y83067D01*
X270676Y83161D01*
X269870Y83967D01*
D02*
G37*
G36*
X235050Y83917D02*
X234244Y83112D01*
X234367Y83017D01*
X234697Y82881D01*
X235050Y82834D01*
X235404Y82881D01*
X235733Y83017D01*
X235856Y83112D01*
X235050Y83917D01*
D02*
G37*
%LPD*%
G36*
X84386Y47490D02*
X84364Y47511D01*
X84341Y47530D01*
X84318Y47546D01*
X84294Y47560D01*
X84270Y47572D01*
X84245Y47582D01*
X84219Y47590D01*
X84192Y47596D01*
X84165Y47599D01*
X84137Y47600D01*
Y47800D01*
X84165Y47801D01*
X84192Y47804D01*
X84219Y47810D01*
X84245Y47818D01*
X84270Y47827D01*
X84294Y47840D01*
X84318Y47854D01*
X84341Y47870D01*
X84364Y47889D01*
X84386Y47910D01*
Y47490D01*
D02*
G37*
G36*
X69464Y40879D02*
X69485Y40862D01*
X69508Y40847D01*
X69532Y40835D01*
X69557Y40824D01*
X69582Y40815D01*
X69609Y40808D01*
X69638Y40803D01*
X69667Y40801D01*
X69697Y40800D01*
X69400Y40503D01*
X69399Y40533D01*
X69397Y40562D01*
X69392Y40591D01*
X69385Y40618D01*
X69376Y40643D01*
X69365Y40668D01*
X69353Y40692D01*
X69338Y40715D01*
X69321Y40736D01*
X69302Y40757D01*
X69443Y40898D01*
X69464Y40879D01*
D02*
G37*
D16*
X91000Y36000D02*
Y41326D01*
X91664Y41991D01*
X69700Y47700D02*
X84600D01*
X68500Y41700D02*
Y46500D01*
X69700Y47700D01*
X68500Y41700D02*
X69700Y40500D01*
D73*
X40250Y76690D02*
D03*
X262060Y92250D02*
D03*
X265870D02*
D03*
X273490D02*
D03*
X308560Y92250D02*
D03*
X300940D02*
D03*
X297130D02*
D03*
X305250Y84250D02*
D03*
X301440D02*
D03*
X305250Y76250D02*
D03*
X269870Y84250D02*
D03*
X266060D02*
D03*
X270060Y76250D02*
D03*
X235050Y76200D02*
D03*
Y84200D02*
D03*
X231240D02*
D03*
X226930Y92200D02*
D03*
X230740D02*
D03*
X238360D02*
D03*
D74*
X145050Y88700D02*
D03*
X234500Y35000D02*
D03*
X222000Y55000D02*
D03*
Y44000D02*
D03*
X157000Y36000D02*
D03*
X145000Y56000D02*
D03*
Y45000D02*
D03*
X157550Y68700D02*
D03*
X145050Y77700D02*
D03*
X116000Y34250D02*
D03*
D75*
X48980D02*
D03*
X152000Y41000D02*
D03*
Y52000D02*
D03*
Y56000D02*
D03*
Y60000D02*
D03*
Y74000D02*
D03*
Y78000D02*
D03*
Y88000D02*
D03*
Y92000D02*
D03*
X156000Y41000D02*
D03*
Y52000D02*
D03*
Y56000D02*
D03*
Y60000D02*
D03*
Y74000D02*
D03*
Y78000D02*
D03*
Y88000D02*
D03*
Y92000D02*
D03*
X160000Y41000D02*
D03*
Y52000D02*
D03*
Y56000D02*
D03*
Y60000D02*
D03*
Y74000D02*
D03*
Y78000D02*
D03*
Y88000D02*
D03*
Y92000D02*
D03*
X164000Y56000D02*
D03*
Y60000D02*
D03*
Y74000D02*
D03*
Y78000D02*
D03*
Y88000D02*
D03*
Y92000D02*
D03*
X168000Y41000D02*
D03*
Y52000D02*
D03*
Y56000D02*
D03*
Y60000D02*
D03*
Y88000D02*
D03*
Y92000D02*
D03*
X172000Y41000D02*
D03*
Y52000D02*
D03*
X172000Y56000D02*
D03*
X172000Y84000D02*
D03*
X172000Y88000D02*
D03*
Y92000D02*
D03*
X176000Y41000D02*
D03*
Y52000D02*
D03*
Y56000D02*
D03*
Y82000D02*
D03*
Y84000D02*
D03*
Y88000D02*
D03*
Y92000D02*
D03*
X180000Y41000D02*
D03*
Y78000D02*
D03*
Y82000D02*
D03*
Y84000D02*
D03*
Y88000D02*
D03*
Y92000D02*
D03*
X184000Y41000D02*
D03*
X184000Y78000D02*
D03*
Y82000D02*
D03*
X184000Y84000D02*
D03*
X184000Y88000D02*
D03*
Y92000D02*
D03*
X188000Y41000D02*
D03*
Y78000D02*
D03*
Y82000D02*
D03*
Y84000D02*
D03*
Y88000D02*
D03*
Y92000D02*
D03*
X192000Y41000D02*
D03*
Y82000D02*
D03*
Y84000D02*
D03*
Y88000D02*
D03*
Y92000D02*
D03*
X196000Y41000D02*
D03*
X196000Y82000D02*
D03*
X196000Y84000D02*
D03*
X196000Y88000D02*
D03*
Y92000D02*
D03*
X152000Y49000D02*
D03*
Y45000D02*
D03*
X156000Y49000D02*
D03*
Y45000D02*
D03*
X160000Y49000D02*
D03*
Y45000D02*
D03*
X168000D02*
D03*
Y49000D02*
D03*
X172000Y45000D02*
D03*
Y49000D02*
D03*
X176000Y45000D02*
D03*
Y49000D02*
D03*
X180000Y45000D02*
D03*
Y49000D02*
D03*
X184000Y45000D02*
D03*
Y49000D02*
D03*
X188000Y45000D02*
D03*
Y49000D02*
D03*
X192000Y45000D02*
D03*
Y49000D02*
D03*
X196000Y45000D02*
D03*
Y49000D02*
D03*
X169000Y74000D02*
D03*
X227000Y40000D02*
D03*
X235000D02*
D03*
X239000D02*
D03*
X243000D02*
D03*
X227000Y48000D02*
D03*
Y44000D02*
D03*
X231000Y48000D02*
D03*
Y44000D02*
D03*
X235000Y48000D02*
D03*
X247000Y44000D02*
D03*
X243000D02*
D03*
X239000D02*
D03*
X259000D02*
D03*
X255000D02*
D03*
X251000D02*
D03*
X271000Y48000D02*
D03*
X267000D02*
D03*
X247000Y40000D02*
D03*
X251000D02*
D03*
X255000D02*
D03*
X259000D02*
D03*
X227000Y51000D02*
D03*
X231000D02*
D03*
X235000D02*
D03*
X239000D02*
D03*
X243000D02*
D03*
X227000Y59000D02*
D03*
Y55000D02*
D03*
X231000Y59000D02*
D03*
Y55000D02*
D03*
X235000Y59000D02*
D03*
Y55000D02*
D03*
X247000D02*
D03*
Y59000D02*
D03*
X243000Y55000D02*
D03*
Y59000D02*
D03*
X239000Y55000D02*
D03*
Y59000D02*
D03*
X259000Y55000D02*
D03*
Y59000D02*
D03*
X255000Y55000D02*
D03*
Y59000D02*
D03*
X251000Y55000D02*
D03*
Y59000D02*
D03*
X267000D02*
D03*
X263000Y55000D02*
D03*
Y59000D02*
D03*
X247000Y51000D02*
D03*
X251000D02*
D03*
X255000D02*
D03*
X259000D02*
D03*
X263000D02*
D03*
X267000D02*
D03*
X271000D02*
D03*
D76*
X75500Y30500D02*
D03*
X77500Y32500D02*
D03*
Y30500D02*
D03*
X79500Y32500D02*
D03*
Y30500D02*
D03*
D77*
X91664Y41991D02*
D03*
X91000Y36000D02*
D03*
X150000Y62000D02*
D03*
Y68000D02*
D03*
X155000Y62000D02*
D03*
Y68000D02*
D03*
X167000Y62000D02*
D03*
Y68000D02*
D03*
X180000Y56000D02*
D03*
X184000Y52000D02*
D03*
Y56000D02*
D03*
Y60000D02*
D03*
X188000Y56000D02*
D03*
X192000Y52000D02*
D03*
Y56000D02*
D03*
Y60000D02*
D03*
X196000Y52000D02*
D03*
Y56000D02*
D03*
Y60000D02*
D03*
X186000Y69000D02*
D03*
X199000Y60000D02*
D03*
X189000Y63000D02*
D03*
Y69000D02*
D03*
X199000Y63000D02*
D03*
X254000Y31000D02*
D03*
X256000D02*
D03*
X263000Y29000D02*
D03*
Y31000D02*
D03*
X290000Y32000D02*
D03*
Y38000D02*
D03*
X300000D02*
D03*
Y32000D02*
D03*
X307000Y46000D02*
D03*
X313000D02*
D03*
Y51000D02*
D03*
X307000D02*
D03*
X313000Y56000D02*
D03*
X307000D02*
D03*
X299000Y62000D02*
D03*
X293000D02*
D03*
X299000Y71000D02*
D03*
X293000D02*
D03*
Y68000D02*
D03*
X299000D02*
D03*
X307000Y74000D02*
D03*
Y68000D02*
D03*
X313000D02*
D03*
Y73000D02*
D03*
Y81000D02*
D03*
Y86000D02*
D03*
X284000Y94000D02*
D03*
X243000D02*
D03*
X254000Y93000D02*
D03*
X284000Y86000D02*
D03*
X277000D02*
D03*
X284000Y81000D02*
D03*
X277000D02*
D03*
Y73000D02*
D03*
X284000D02*
D03*
Y68000D02*
D03*
X277000D02*
D03*
X254000Y73000D02*
D03*
Y77000D02*
D03*
Y82000D02*
D03*
Y86000D02*
D03*
X243000D02*
D03*
Y83000D02*
D03*
Y77000D02*
D03*
Y73000D02*
D03*
X213000Y92000D02*
D03*
X221000Y60000D02*
D03*
Y72000D02*
D03*
X216000Y78000D02*
D03*
Y60000D02*
D03*
X211000D02*
D03*
Y78000D02*
D03*
X207000D02*
D03*
X173000Y32000D02*
D03*
X167000D02*
D03*
X160000D02*
D03*
X206000Y33000D02*
D03*
X212000D02*
D03*
X218000D02*
D03*
Y38000D02*
D03*
X212000D02*
D03*
X206000D02*
D03*
X196000Y34000D02*
D03*
X192000D02*
D03*
X206000Y49000D02*
D03*
Y53000D02*
D03*
X207000Y92000D02*
D03*
Y88000D02*
D03*
X206000Y60000D02*
D03*
X203000Y63000D02*
D03*
X141000Y89000D02*
D03*
Y79000D02*
D03*
X145000Y62000D02*
D03*
Y68000D02*
D03*
X139000Y62000D02*
D03*
Y68000D02*
D03*
X133000Y62000D02*
D03*
Y68000D02*
D03*
X101000Y95000D02*
D03*
Y89000D02*
D03*
Y83000D02*
D03*
X118000Y61000D02*
D03*
Y68000D02*
D03*
X105000Y60000D02*
D03*
Y68000D02*
D03*
X100000Y60000D02*
D03*
Y68000D02*
D03*
X96000D02*
D03*
Y60000D02*
D03*
Y57000D02*
D03*
X99000Y47000D02*
D03*
X95000Y36000D02*
D03*
Y39000D02*
D03*
X47000Y71000D02*
D03*
X50000Y73000D02*
D03*
X51000Y71000D02*
D03*
X56000D02*
D03*
Y73000D02*
D03*
X47000D02*
D03*
X87000Y54000D02*
D03*
Y51000D02*
D03*
X83000Y49000D02*
D03*
Y53000D02*
D03*
X79000Y50000D02*
D03*
Y53000D02*
D03*
X62000Y46000D02*
D03*
X65000Y45000D02*
D03*
X59000Y38000D02*
D03*
X60000Y40000D02*
D03*
X71000Y39000D02*
D03*
X64000Y40000D02*
D03*
Y37000D02*
D03*
X72000D02*
D03*
X77000D02*
D03*
X90000Y31000D02*
D03*
X105000Y32000D02*
D03*
X99000D02*
D03*
X95000D02*
D03*
X93000Y34000D02*
D03*
X99000Y36000D02*
D03*
Y39000D02*
D03*
Y43000D02*
D03*
X105000Y36000D02*
D03*
Y39000D02*
D03*
X111000Y43000D02*
D03*
Y47000D02*
D03*
X105000Y43000D02*
D03*
Y47000D02*
D03*
X138000Y54000D02*
D03*
X139000Y50000D02*
D03*
X133000D02*
D03*
Y54000D02*
D03*
X129000Y50000D02*
D03*
Y54000D02*
D03*
X118000Y50000D02*
D03*
Y54000D02*
D03*
X111000Y50000D02*
D03*
Y54000D02*
D03*
X105000Y50000D02*
D03*
Y54000D02*
D03*
X103000Y56000D02*
D03*
X108000D02*
D03*
X112000Y60000D02*
D03*
X107000D02*
D03*
X114000Y74000D02*
D03*
X113000Y87000D02*
D03*
Y83000D02*
D03*
X116000D02*
D03*
Y86000D02*
D03*
Y91000D02*
D03*
Y95000D02*
D03*
X129000D02*
D03*
Y91000D02*
D03*
X133000Y93000D02*
D03*
Y88000D02*
D03*
Y76000D02*
D03*
Y80000D02*
D03*
Y83000D02*
D03*
Y86000D02*
D03*
X129000D02*
D03*
Y83000D02*
D03*
Y78000D02*
D03*
Y73000D02*
D03*
X110000Y74000D02*
D03*
Y95000D02*
D03*
Y91000D02*
D03*
Y84000D02*
D03*
X114000Y79000D02*
D03*
X110000D02*
D03*
X114000Y70000D02*
D03*
Y63000D02*
D03*
X110000D02*
D03*
Y69750D02*
D03*
X125250Y73250D02*
D03*
X126000Y80750D02*
D03*
X125000Y82000D02*
D03*
Y90750D02*
D03*
X126500Y89500D02*
D03*
X52000Y38250D02*
D03*
X55000D02*
D03*
X53500Y37000D02*
D03*
X71500Y75000D02*
D03*
X70250Y76250D02*
D03*
X263000Y44000D02*
D03*
X271000Y40000D02*
D03*
X54000Y86500D02*
D03*
Y85526D02*
D03*
Y84526D02*
D03*
Y83526D02*
D03*
Y82526D02*
D03*
X84600Y47700D02*
D03*
X69700Y40500D02*
D03*
X53000Y82000D02*
D03*
Y83000D02*
D03*
Y84000D02*
D03*
Y85000D02*
D03*
Y86000D02*
D03*
Y86974D02*
D03*
X74000Y42250D02*
D03*
M02*
