G04*
G04 #@! TF.GenerationSoftware,Altium Limited,Altium Designer,20.1.8 (145)*
G04*
G04 Layer_Physical_Order=3*
G04 Layer_Color=16440176*
%FSLAX43Y43*%
%MOMM*%
G71*
G04*
G04 #@! TF.SameCoordinates,5712E5C3-EFE7-4622-A9FF-169796C5DE8E*
G04*
G04*
G04 #@! TF.FilePolarity,Positive*
G04*
G01*
G75*
%ADD10C,0.150*%
%ADD14C,0.300*%
%ADD67C,0.800*%
%ADD73C,2.200*%
%ADD74C,1.500*%
%ADD75C,1.000*%
%ADD76C,1.300*%
%ADD77C,0.700*%
G36*
X319470Y28280D02*
X35280D01*
Y95720D01*
X319470D01*
X319470Y28280D01*
D02*
G37*
%LPC*%
G36*
X262160Y93548D02*
Y92350D01*
X263358D01*
X263327Y92589D01*
X263196Y92906D01*
X262987Y93177D01*
X262716Y93386D01*
X262399Y93517D01*
X262160Y93548D01*
D02*
G37*
G36*
X261960D02*
X261721Y93517D01*
X261404Y93386D01*
X261133Y93177D01*
X260924Y92906D01*
X260793Y92589D01*
X260762Y92350D01*
X261960D01*
Y93548D01*
D02*
G37*
G36*
X297230Y93548D02*
Y92350D01*
X298428D01*
X298396Y92589D01*
X298266Y92906D01*
X298057Y93177D01*
X297786Y93386D01*
X297469Y93517D01*
X297230Y93548D01*
D02*
G37*
G36*
X297030Y93548D02*
X296791Y93517D01*
X296474Y93386D01*
X296203Y93177D01*
X295994Y92906D01*
X295863Y92589D01*
X295832Y92350D01*
X297030D01*
Y93548D01*
D02*
G37*
G36*
X227030Y93498D02*
Y92300D01*
X228228D01*
X228197Y92539D01*
X228066Y92856D01*
X227857Y93127D01*
X227586Y93336D01*
X227269Y93467D01*
X227030Y93498D01*
D02*
G37*
G36*
X226830Y93498D02*
X226591Y93467D01*
X226274Y93336D01*
X226003Y93127D01*
X225794Y92856D01*
X225664Y92539D01*
X225632Y92300D01*
X226830D01*
Y93498D01*
D02*
G37*
G36*
X97750Y92311D02*
X97535Y92268D01*
X97353Y92147D01*
X97232Y91965D01*
X97189Y91750D01*
X97232Y91535D01*
X97353Y91353D01*
X97535Y91232D01*
X97750Y91189D01*
X97965Y91232D01*
X98147Y91353D01*
X98268Y91535D01*
X98311Y91750D01*
X98268Y91965D01*
X98147Y92147D01*
X97965Y92268D01*
X97750Y92311D01*
D02*
G37*
G36*
X95500D02*
X95285Y92268D01*
X95103Y92147D01*
X94982Y91965D01*
X94939Y91750D01*
X94982Y91535D01*
X95103Y91353D01*
X95285Y91232D01*
X95500Y91189D01*
X95715Y91232D01*
X95897Y91353D01*
X96018Y91535D01*
X96061Y91750D01*
X96018Y91965D01*
X95897Y92147D01*
X95715Y92268D01*
X95500Y92311D01*
D02*
G37*
G36*
X93250D02*
X93035Y92268D01*
X92853Y92147D01*
X92732Y91965D01*
X92689Y91750D01*
X92732Y91535D01*
X92853Y91353D01*
X93035Y91232D01*
X93250Y91189D01*
X93465Y91232D01*
X93647Y91353D01*
X93768Y91535D01*
X93811Y91750D01*
X93768Y91965D01*
X93647Y92147D01*
X93465Y92268D01*
X93250Y92311D01*
D02*
G37*
G36*
X263358Y92150D02*
X262160D01*
Y90952D01*
X262399Y90983D01*
X262716Y91114D01*
X262987Y91323D01*
X263196Y91594D01*
X263327Y91911D01*
X263358Y92150D01*
D02*
G37*
G36*
X261960D02*
X260762D01*
X260793Y91911D01*
X260924Y91594D01*
X261133Y91323D01*
X261404Y91114D01*
X261721Y90983D01*
X261960Y90952D01*
Y92150D01*
D02*
G37*
G36*
X298428Y92150D02*
X297230D01*
Y90952D01*
X297469Y90983D01*
X297786Y91114D01*
X298057Y91323D01*
X298266Y91594D01*
X298396Y91911D01*
X298428Y92150D01*
D02*
G37*
G36*
X297030D02*
X295832D01*
X295863Y91911D01*
X295994Y91594D01*
X296203Y91323D01*
X296474Y91114D01*
X296791Y90983D01*
X297030Y90952D01*
Y92150D01*
D02*
G37*
G36*
X226830Y92100D02*
X225632D01*
X225664Y91861D01*
X225794Y91544D01*
X226003Y91273D01*
X226274Y91064D01*
X226591Y90933D01*
X226830Y90902D01*
Y92100D01*
D02*
G37*
G36*
X228228D02*
X227030D01*
Y90902D01*
X227269Y90933D01*
X227586Y91064D01*
X227857Y91273D01*
X228066Y91544D01*
X228197Y91861D01*
X228228Y92100D01*
D02*
G37*
G36*
X277300Y93858D02*
X276986Y93827D01*
X276685Y93735D01*
X276407Y93587D01*
X276163Y93387D01*
X275963Y93143D01*
X275815Y92865D01*
X275723Y92564D01*
X275692Y92250D01*
X275723Y91936D01*
X275815Y91635D01*
X275963Y91357D01*
X276163Y91113D01*
X276407Y90913D01*
X276685Y90765D01*
X276986Y90673D01*
X277300Y90642D01*
X277614Y90673D01*
X277915Y90765D01*
X278193Y90913D01*
X278437Y91113D01*
X278637Y91357D01*
X278785Y91635D01*
X278877Y91936D01*
X278908Y92250D01*
X278877Y92564D01*
X278785Y92865D01*
X278637Y93143D01*
X278437Y93387D01*
X278193Y93587D01*
X277915Y93735D01*
X277614Y93827D01*
X277300Y93858D01*
D02*
G37*
G36*
X273490D02*
X273176Y93827D01*
X272875Y93735D01*
X272597Y93587D01*
X272353Y93387D01*
X272153Y93143D01*
X272005Y92865D01*
X271913Y92564D01*
X271882Y92250D01*
X271913Y91936D01*
X272005Y91635D01*
X272153Y91357D01*
X272353Y91113D01*
X272597Y90913D01*
X272875Y90765D01*
X273176Y90673D01*
X273490Y90642D01*
X273804Y90673D01*
X274105Y90765D01*
X274383Y90913D01*
X274627Y91113D01*
X274827Y91357D01*
X274975Y91635D01*
X275067Y91936D01*
X275098Y92250D01*
X275067Y92564D01*
X274975Y92865D01*
X274827Y93143D01*
X274627Y93387D01*
X274383Y93587D01*
X274105Y93735D01*
X273804Y93827D01*
X273490Y93858D01*
D02*
G37*
G36*
X269680D02*
X269366Y93827D01*
X269065Y93735D01*
X268787Y93587D01*
X268543Y93387D01*
X268343Y93143D01*
X268195Y92865D01*
X268103Y92564D01*
X268072Y92250D01*
X268103Y91936D01*
X268195Y91635D01*
X268343Y91357D01*
X268543Y91113D01*
X268787Y90913D01*
X269065Y90765D01*
X269366Y90673D01*
X269680Y90642D01*
X269994Y90673D01*
X270295Y90765D01*
X270573Y90913D01*
X270817Y91113D01*
X271017Y91357D01*
X271165Y91635D01*
X271257Y91936D01*
X271288Y92250D01*
X271257Y92564D01*
X271165Y92865D01*
X271017Y93143D01*
X270817Y93387D01*
X270573Y93587D01*
X270295Y93735D01*
X269994Y93827D01*
X269680Y93858D01*
D02*
G37*
G36*
X265870D02*
X265556Y93827D01*
X265255Y93735D01*
X264977Y93587D01*
X264733Y93387D01*
X264533Y93143D01*
X264385Y92865D01*
X264293Y92564D01*
X264262Y92250D01*
X264293Y91936D01*
X264385Y91635D01*
X264533Y91357D01*
X264733Y91113D01*
X264977Y90913D01*
X265255Y90765D01*
X265556Y90673D01*
X265870Y90642D01*
X266184Y90673D01*
X266485Y90765D01*
X266763Y90913D01*
X267007Y91113D01*
X267207Y91357D01*
X267355Y91635D01*
X267447Y91936D01*
X267478Y92250D01*
X267447Y92564D01*
X267355Y92865D01*
X267207Y93143D01*
X267007Y93387D01*
X266763Y93587D01*
X266485Y93735D01*
X266184Y93827D01*
X265870Y93858D01*
D02*
G37*
G36*
X258250D02*
X257936Y93827D01*
X257635Y93735D01*
X257357Y93587D01*
X257113Y93387D01*
X256913Y93143D01*
X256765Y92865D01*
X256673Y92564D01*
X256642Y92250D01*
X256673Y91936D01*
X256765Y91635D01*
X256913Y91357D01*
X257113Y91113D01*
X257357Y90913D01*
X257635Y90765D01*
X257936Y90673D01*
X258250Y90642D01*
X258564Y90673D01*
X258865Y90765D01*
X259143Y90913D01*
X259387Y91113D01*
X259587Y91357D01*
X259735Y91635D01*
X259827Y91936D01*
X259858Y92250D01*
X259827Y92564D01*
X259735Y92865D01*
X259587Y93143D01*
X259387Y93387D01*
X259143Y93587D01*
X258865Y93735D01*
X258564Y93827D01*
X258250Y93858D01*
D02*
G37*
G36*
X312370Y93858D02*
X312056Y93827D01*
X311755Y93735D01*
X311477Y93587D01*
X311233Y93387D01*
X311033Y93143D01*
X310885Y92865D01*
X310793Y92564D01*
X310762Y92250D01*
X310793Y91936D01*
X310885Y91635D01*
X311033Y91357D01*
X311233Y91113D01*
X311477Y90913D01*
X311755Y90765D01*
X312056Y90673D01*
X312370Y90642D01*
X312684Y90673D01*
X312985Y90765D01*
X313263Y90913D01*
X313507Y91113D01*
X313707Y91357D01*
X313855Y91635D01*
X313947Y91936D01*
X313978Y92250D01*
X313947Y92564D01*
X313855Y92865D01*
X313707Y93143D01*
X313507Y93387D01*
X313263Y93587D01*
X312985Y93735D01*
X312684Y93827D01*
X312370Y93858D01*
D02*
G37*
G36*
X308560D02*
X308246Y93827D01*
X307945Y93735D01*
X307667Y93587D01*
X307423Y93387D01*
X307223Y93143D01*
X307075Y92865D01*
X306983Y92564D01*
X306952Y92250D01*
X306983Y91936D01*
X307075Y91635D01*
X307223Y91357D01*
X307423Y91113D01*
X307667Y90913D01*
X307945Y90765D01*
X308246Y90673D01*
X308560Y90642D01*
X308874Y90673D01*
X309175Y90765D01*
X309453Y90913D01*
X309697Y91113D01*
X309897Y91357D01*
X310045Y91635D01*
X310137Y91936D01*
X310168Y92250D01*
X310137Y92564D01*
X310045Y92865D01*
X309897Y93143D01*
X309697Y93387D01*
X309453Y93587D01*
X309175Y93735D01*
X308874Y93827D01*
X308560Y93858D01*
D02*
G37*
G36*
X304750D02*
X304436Y93827D01*
X304135Y93735D01*
X303857Y93587D01*
X303613Y93387D01*
X303413Y93143D01*
X303265Y92865D01*
X303173Y92564D01*
X303142Y92250D01*
X303173Y91936D01*
X303265Y91635D01*
X303413Y91357D01*
X303613Y91113D01*
X303857Y90913D01*
X304135Y90765D01*
X304436Y90673D01*
X304750Y90642D01*
X305064Y90673D01*
X305365Y90765D01*
X305643Y90913D01*
X305887Y91113D01*
X306087Y91357D01*
X306235Y91635D01*
X306327Y91936D01*
X306358Y92250D01*
X306327Y92564D01*
X306235Y92865D01*
X306087Y93143D01*
X305887Y93387D01*
X305643Y93587D01*
X305365Y93735D01*
X305064Y93827D01*
X304750Y93858D01*
D02*
G37*
G36*
X300940D02*
X300626Y93827D01*
X300325Y93735D01*
X300047Y93587D01*
X299803Y93387D01*
X299603Y93143D01*
X299455Y92865D01*
X299363Y92564D01*
X299332Y92250D01*
X299363Y91936D01*
X299455Y91635D01*
X299603Y91357D01*
X299803Y91113D01*
X300047Y90913D01*
X300325Y90765D01*
X300626Y90673D01*
X300940Y90642D01*
X301254Y90673D01*
X301555Y90765D01*
X301833Y90913D01*
X302077Y91113D01*
X302277Y91357D01*
X302425Y91635D01*
X302517Y91936D01*
X302548Y92250D01*
X302517Y92564D01*
X302425Y92865D01*
X302277Y93143D01*
X302077Y93387D01*
X301833Y93587D01*
X301555Y93735D01*
X301254Y93827D01*
X300940Y93858D01*
D02*
G37*
G36*
X293320D02*
X293006Y93827D01*
X292705Y93735D01*
X292427Y93587D01*
X292183Y93387D01*
X291983Y93143D01*
X291835Y92865D01*
X291743Y92564D01*
X291712Y92250D01*
X291743Y91936D01*
X291835Y91635D01*
X291983Y91357D01*
X292183Y91113D01*
X292427Y90913D01*
X292705Y90765D01*
X293006Y90673D01*
X293320Y90642D01*
X293634Y90673D01*
X293935Y90765D01*
X294213Y90913D01*
X294457Y91113D01*
X294657Y91357D01*
X294805Y91635D01*
X294897Y91936D01*
X294928Y92250D01*
X294897Y92564D01*
X294805Y92865D01*
X294657Y93143D01*
X294457Y93387D01*
X294213Y93587D01*
X293935Y93735D01*
X293634Y93827D01*
X293320Y93858D01*
D02*
G37*
G36*
X242170Y93808D02*
X241856Y93777D01*
X241555Y93685D01*
X241277Y93537D01*
X241033Y93337D01*
X240833Y93093D01*
X240685Y92815D01*
X240593Y92514D01*
X240562Y92200D01*
X240593Y91886D01*
X240685Y91585D01*
X240833Y91307D01*
X241033Y91063D01*
X241277Y90863D01*
X241555Y90715D01*
X241856Y90623D01*
X242170Y90592D01*
X242484Y90623D01*
X242785Y90715D01*
X243063Y90863D01*
X243307Y91063D01*
X243507Y91307D01*
X243655Y91585D01*
X243747Y91886D01*
X243778Y92200D01*
X243747Y92514D01*
X243655Y92815D01*
X243507Y93093D01*
X243307Y93337D01*
X243063Y93537D01*
X242785Y93685D01*
X242484Y93777D01*
X242170Y93808D01*
D02*
G37*
G36*
X238360D02*
X238046Y93777D01*
X237745Y93685D01*
X237467Y93537D01*
X237223Y93337D01*
X237023Y93093D01*
X236875Y92815D01*
X236783Y92514D01*
X236752Y92200D01*
X236783Y91886D01*
X236875Y91585D01*
X237023Y91307D01*
X237223Y91063D01*
X237467Y90863D01*
X237745Y90715D01*
X238046Y90623D01*
X238360Y90592D01*
X238674Y90623D01*
X238975Y90715D01*
X239253Y90863D01*
X239497Y91063D01*
X239697Y91307D01*
X239845Y91585D01*
X239937Y91886D01*
X239968Y92200D01*
X239937Y92514D01*
X239845Y92815D01*
X239697Y93093D01*
X239497Y93337D01*
X239253Y93537D01*
X238975Y93685D01*
X238674Y93777D01*
X238360Y93808D01*
D02*
G37*
G36*
X234550D02*
X234236Y93777D01*
X233935Y93685D01*
X233657Y93537D01*
X233413Y93337D01*
X233213Y93093D01*
X233065Y92815D01*
X232973Y92514D01*
X232942Y92200D01*
X232973Y91886D01*
X233065Y91585D01*
X233213Y91307D01*
X233413Y91063D01*
X233657Y90863D01*
X233935Y90715D01*
X234236Y90623D01*
X234550Y90592D01*
X234864Y90623D01*
X235165Y90715D01*
X235443Y90863D01*
X235687Y91063D01*
X235887Y91307D01*
X236035Y91585D01*
X236127Y91886D01*
X236158Y92200D01*
X236127Y92514D01*
X236035Y92815D01*
X235887Y93093D01*
X235687Y93337D01*
X235443Y93537D01*
X235165Y93685D01*
X234864Y93777D01*
X234550Y93808D01*
D02*
G37*
G36*
X230740D02*
X230426Y93777D01*
X230125Y93685D01*
X229847Y93537D01*
X229603Y93337D01*
X229403Y93093D01*
X229255Y92815D01*
X229163Y92514D01*
X229132Y92200D01*
X229163Y91886D01*
X229255Y91585D01*
X229403Y91307D01*
X229603Y91063D01*
X229847Y90863D01*
X230125Y90715D01*
X230426Y90623D01*
X230740Y90592D01*
X231054Y90623D01*
X231355Y90715D01*
X231633Y90863D01*
X231877Y91063D01*
X232077Y91307D01*
X232225Y91585D01*
X232317Y91886D01*
X232348Y92200D01*
X232317Y92514D01*
X232225Y92815D01*
X232077Y93093D01*
X231877Y93337D01*
X231633Y93537D01*
X231355Y93685D01*
X231054Y93777D01*
X230740Y93808D01*
D02*
G37*
G36*
X223120D02*
X222806Y93777D01*
X222505Y93685D01*
X222227Y93537D01*
X221983Y93337D01*
X221783Y93093D01*
X221635Y92815D01*
X221543Y92514D01*
X221512Y92200D01*
X221543Y91886D01*
X221635Y91585D01*
X221783Y91307D01*
X221983Y91063D01*
X222227Y90863D01*
X222505Y90715D01*
X222806Y90623D01*
X223120Y90592D01*
X223434Y90623D01*
X223735Y90715D01*
X224013Y90863D01*
X224257Y91063D01*
X224457Y91307D01*
X224605Y91585D01*
X224697Y91886D01*
X224728Y92200D01*
X224697Y92514D01*
X224605Y92815D01*
X224457Y93093D01*
X224257Y93337D01*
X224013Y93537D01*
X223735Y93685D01*
X223434Y93777D01*
X223120Y93808D01*
D02*
G37*
G36*
X76000Y94761D02*
X75559Y94717D01*
X75135Y94589D01*
X74744Y94380D01*
X74401Y94099D01*
X74120Y93756D01*
X73911Y93365D01*
X73783Y92941D01*
X73739Y92500D01*
X73783Y92059D01*
X73911Y91635D01*
X74120Y91244D01*
X74401Y90901D01*
X74744Y90620D01*
X75135Y90411D01*
X75559Y90283D01*
X76000Y90239D01*
X76441Y90283D01*
X76865Y90411D01*
X77256Y90620D01*
X77599Y90901D01*
X77880Y91244D01*
X78089Y91635D01*
X78217Y92059D01*
X78261Y92500D01*
X78217Y92941D01*
X78089Y93365D01*
X77880Y93756D01*
X77599Y94099D01*
X77256Y94380D01*
X76865Y94589D01*
X76441Y94717D01*
X76000Y94761D01*
D02*
G37*
G36*
X145150Y89645D02*
Y88800D01*
X145995D01*
X145976Y88948D01*
X145880Y89179D01*
X145728Y89378D01*
X145529Y89530D01*
X145298Y89626D01*
X145150Y89645D01*
D02*
G37*
G36*
X144950D02*
X144802Y89626D01*
X144571Y89530D01*
X144372Y89378D01*
X144220Y89179D01*
X144124Y88948D01*
X144105Y88800D01*
X144950D01*
Y89645D01*
D02*
G37*
G36*
X97750Y89311D02*
X97535Y89268D01*
X97353Y89147D01*
X97232Y88965D01*
X97189Y88750D01*
X97232Y88535D01*
X97353Y88353D01*
X97535Y88232D01*
X97750Y88189D01*
X97965Y88232D01*
X98147Y88353D01*
X98268Y88535D01*
X98311Y88750D01*
X98268Y88965D01*
X98147Y89147D01*
X97965Y89268D01*
X97750Y89311D01*
D02*
G37*
G36*
X95500D02*
X95285Y89268D01*
X95103Y89147D01*
X94982Y88965D01*
X94939Y88750D01*
X94982Y88535D01*
X95103Y88353D01*
X95285Y88232D01*
X95500Y88189D01*
X95715Y88232D01*
X95897Y88353D01*
X96018Y88535D01*
X96061Y88750D01*
X96018Y88965D01*
X95897Y89147D01*
X95715Y89268D01*
X95500Y89311D01*
D02*
G37*
G36*
X93250D02*
X93035Y89268D01*
X92853Y89147D01*
X92732Y88965D01*
X92689Y88750D01*
X92732Y88535D01*
X92853Y88353D01*
X93035Y88232D01*
X93250Y88189D01*
X93465Y88232D01*
X93647Y88353D01*
X93768Y88535D01*
X93811Y88750D01*
X93768Y88965D01*
X93647Y89147D01*
X93465Y89268D01*
X93250Y89311D01*
D02*
G37*
G36*
X144950Y88600D02*
X144105D01*
X144124Y88452D01*
X144220Y88221D01*
X144372Y88022D01*
X144571Y87870D01*
X144802Y87774D01*
X144950Y87755D01*
Y88600D01*
D02*
G37*
G36*
X145995D02*
X145150D01*
Y87755D01*
X145298Y87774D01*
X145529Y87870D01*
X145728Y88022D01*
X145880Y88221D01*
X145976Y88452D01*
X145995Y88600D01*
D02*
G37*
G36*
X117100Y88661D02*
X116885Y88618D01*
X116703Y88497D01*
X116582Y88315D01*
X116539Y88100D01*
X116566Y87963D01*
X110802Y82198D01*
X110741Y82107D01*
X110720Y82000D01*
Y62916D01*
X97884Y50080D01*
X92800D01*
X92693Y50059D01*
X92602Y49998D01*
X83384Y40780D01*
X78474D01*
X78397Y40897D01*
X78215Y41018D01*
X78000Y41061D01*
X77785Y41018D01*
X77603Y40897D01*
X77482Y40715D01*
X77439Y40500D01*
X77482Y40285D01*
X77603Y40103D01*
Y39997D01*
X77482Y39815D01*
X77439Y39600D01*
X77482Y39385D01*
X77603Y39203D01*
Y39097D01*
X77482Y38915D01*
X77439Y38700D01*
X77482Y38485D01*
X77603Y38303D01*
X77785Y38182D01*
X78000Y38139D01*
X78215Y38182D01*
X78397Y38303D01*
X78474Y38420D01*
X84246D01*
X84353Y38441D01*
X84444Y38502D01*
X93662Y47720D01*
X98000D01*
X98107Y47741D01*
X98198Y47802D01*
X112998Y62602D01*
X113059Y62693D01*
X113080Y62800D01*
Y66359D01*
X116963Y70241D01*
X117100Y70214D01*
X117315Y70257D01*
X117496Y70378D01*
X117618Y70560D01*
X117661Y70775D01*
X117618Y70990D01*
X117496Y71171D01*
X117315Y71293D01*
X117100Y71336D01*
X116885Y71293D01*
X116703Y71171D01*
X116582Y70990D01*
X116539Y70775D01*
X116566Y70638D01*
X112602Y66673D01*
X112541Y66582D01*
X112520Y66475D01*
Y62916D01*
X112375Y62771D01*
X112333Y62777D01*
X112180Y62860D01*
Y74207D01*
X116963Y78990D01*
X117100Y78963D01*
X117315Y79006D01*
X117497Y79127D01*
X117618Y79309D01*
X117661Y79524D01*
X117618Y79738D01*
X117497Y79920D01*
X117315Y80042D01*
X117100Y80084D01*
X116885Y80042D01*
X116704Y79920D01*
X116582Y79738D01*
X116539Y79524D01*
X116567Y79387D01*
X111702Y74522D01*
X111641Y74431D01*
X111620Y74324D01*
Y62916D01*
X111475Y62771D01*
X111433Y62777D01*
X111280Y62860D01*
Y81884D01*
X116963Y87566D01*
X117100Y87539D01*
X117315Y87582D01*
X117497Y87703D01*
X117618Y87885D01*
X117661Y88100D01*
X117618Y88315D01*
X117497Y88497D01*
X117315Y88618D01*
X117100Y88661D01*
D02*
G37*
G36*
X203050Y89961D02*
X202724Y89918D01*
X202420Y89792D01*
X202158Y89592D01*
X201958Y89330D01*
X201832Y89026D01*
X201789Y88700D01*
X201832Y88374D01*
X201958Y88070D01*
X202158Y87809D01*
X202420Y87608D01*
X202724Y87482D01*
X203050Y87439D01*
X203376Y87482D01*
X203680Y87608D01*
X203942Y87809D01*
X204142Y88070D01*
X204268Y88374D01*
X204311Y88700D01*
X204268Y89026D01*
X204142Y89330D01*
X203942Y89592D01*
X203680Y89792D01*
X203376Y89918D01*
X203050Y89961D01*
D02*
G37*
G36*
X127000Y88561D02*
X126785Y88518D01*
X126603Y88397D01*
X126482Y88215D01*
X126439Y88000D01*
X126482Y87785D01*
X126603Y87603D01*
X126785Y87482D01*
X127000Y87439D01*
X127215Y87482D01*
X127397Y87603D01*
X127518Y87785D01*
X127561Y88000D01*
X127518Y88215D01*
X127397Y88397D01*
X127215Y88518D01*
X127000Y88561D01*
D02*
G37*
G36*
X301540Y85548D02*
Y84350D01*
X302738D01*
X302706Y84589D01*
X302576Y84906D01*
X302367Y85177D01*
X302096Y85386D01*
X301779Y85517D01*
X301540Y85548D01*
D02*
G37*
G36*
X301340D02*
X301101Y85517D01*
X300784Y85386D01*
X300513Y85177D01*
X300304Y84906D01*
X300173Y84589D01*
X300142Y84350D01*
X301340D01*
Y85548D01*
D02*
G37*
G36*
X266160D02*
Y84350D01*
X267358D01*
X267327Y84589D01*
X267196Y84906D01*
X266987Y85177D01*
X266716Y85386D01*
X266399Y85517D01*
X266160Y85548D01*
D02*
G37*
G36*
X265960Y85548D02*
X265721Y85517D01*
X265404Y85386D01*
X265133Y85177D01*
X264924Y84906D01*
X264793Y84589D01*
X264762Y84350D01*
X265960D01*
Y85548D01*
D02*
G37*
G36*
X231340Y85498D02*
Y84300D01*
X232538D01*
X232507Y84539D01*
X232376Y84856D01*
X232167Y85127D01*
X231896Y85336D01*
X231579Y85467D01*
X231340Y85498D01*
D02*
G37*
G36*
X231140Y85498D02*
X230901Y85467D01*
X230584Y85336D01*
X230313Y85127D01*
X230105Y84856D01*
X229974Y84539D01*
X229942Y84300D01*
X231140D01*
Y85498D01*
D02*
G37*
G36*
X265960Y84150D02*
X264762D01*
X264793Y83911D01*
X264924Y83594D01*
X265133Y83323D01*
X265404Y83114D01*
X265721Y82983D01*
X265960Y82952D01*
Y84150D01*
D02*
G37*
G36*
X301340Y84150D02*
X300142D01*
X300173Y83911D01*
X300304Y83594D01*
X300513Y83323D01*
X300784Y83114D01*
X301101Y82983D01*
X301340Y82952D01*
Y84150D01*
D02*
G37*
G36*
X302738D02*
X301540D01*
Y82952D01*
X301779Y82983D01*
X302096Y83114D01*
X302367Y83323D01*
X302576Y83594D01*
X302706Y83911D01*
X302738Y84150D01*
D02*
G37*
G36*
X267358Y84150D02*
X266160D01*
Y82952D01*
X266399Y82983D01*
X266716Y83114D01*
X266987Y83323D01*
X267196Y83594D01*
X267327Y83911D01*
X267358Y84150D01*
D02*
G37*
G36*
X232538Y84100D02*
X231340D01*
Y82902D01*
X231579Y82933D01*
X231896Y83064D01*
X232167Y83273D01*
X232376Y83544D01*
X232507Y83861D01*
X232538Y84100D01*
D02*
G37*
G36*
X231140D02*
X229942D01*
X229974Y83861D01*
X230105Y83544D01*
X230313Y83273D01*
X230584Y83064D01*
X230901Y82933D01*
X231140Y82902D01*
Y84100D01*
D02*
G37*
G36*
X309060Y85858D02*
X308746Y85827D01*
X308445Y85735D01*
X308167Y85587D01*
X307923Y85387D01*
X307723Y85143D01*
X307575Y84865D01*
X307483Y84564D01*
X307452Y84250D01*
X307483Y83936D01*
X307575Y83635D01*
X307723Y83357D01*
X307923Y83113D01*
X308167Y82913D01*
X308445Y82765D01*
X308746Y82673D01*
X309060Y82642D01*
X309374Y82673D01*
X309675Y82765D01*
X309953Y82913D01*
X310197Y83113D01*
X310397Y83357D01*
X310545Y83635D01*
X310637Y83936D01*
X310668Y84250D01*
X310637Y84564D01*
X310545Y84865D01*
X310397Y85143D01*
X310197Y85387D01*
X309953Y85587D01*
X309675Y85735D01*
X309374Y85827D01*
X309060Y85858D01*
D02*
G37*
G36*
X305250D02*
X304936Y85827D01*
X304635Y85735D01*
X304357Y85587D01*
X304113Y85387D01*
X303913Y85143D01*
X303765Y84865D01*
X303673Y84564D01*
X303642Y84250D01*
X303673Y83936D01*
X303765Y83635D01*
X303913Y83357D01*
X304113Y83113D01*
X304357Y82913D01*
X304635Y82765D01*
X304936Y82673D01*
X305250Y82642D01*
X305564Y82673D01*
X305865Y82765D01*
X306143Y82913D01*
X306387Y83113D01*
X306587Y83357D01*
X306735Y83635D01*
X306827Y83936D01*
X306858Y84250D01*
X306827Y84564D01*
X306735Y84865D01*
X306587Y85143D01*
X306387Y85387D01*
X306143Y85587D01*
X305865Y85735D01*
X305564Y85827D01*
X305250Y85858D01*
D02*
G37*
G36*
X297630D02*
X297316Y85827D01*
X297015Y85735D01*
X296737Y85587D01*
X296493Y85387D01*
X296293Y85143D01*
X296145Y84865D01*
X296053Y84564D01*
X296022Y84250D01*
X296053Y83936D01*
X296145Y83635D01*
X296293Y83357D01*
X296493Y83113D01*
X296737Y82913D01*
X297015Y82765D01*
X297316Y82673D01*
X297630Y82642D01*
X297944Y82673D01*
X298245Y82765D01*
X298523Y82913D01*
X298767Y83113D01*
X298967Y83357D01*
X299115Y83635D01*
X299207Y83936D01*
X299238Y84250D01*
X299207Y84564D01*
X299115Y84865D01*
X298967Y85143D01*
X298767Y85387D01*
X298523Y85587D01*
X298245Y85735D01*
X297944Y85827D01*
X297630Y85858D01*
D02*
G37*
G36*
X273680D02*
X273366Y85827D01*
X273065Y85735D01*
X272787Y85587D01*
X272543Y85387D01*
X272343Y85143D01*
X272195Y84865D01*
X272103Y84564D01*
X272072Y84250D01*
X272103Y83936D01*
X272195Y83635D01*
X272343Y83357D01*
X272543Y83113D01*
X272787Y82913D01*
X273065Y82765D01*
X273366Y82673D01*
X273680Y82642D01*
X273994Y82673D01*
X274295Y82765D01*
X274573Y82913D01*
X274817Y83113D01*
X275017Y83357D01*
X275165Y83635D01*
X275257Y83936D01*
X275288Y84250D01*
X275257Y84564D01*
X275165Y84865D01*
X275017Y85143D01*
X274817Y85387D01*
X274573Y85587D01*
X274295Y85735D01*
X273994Y85827D01*
X273680Y85858D01*
D02*
G37*
G36*
X269870D02*
X269556Y85827D01*
X269255Y85735D01*
X268977Y85587D01*
X268733Y85387D01*
X268533Y85143D01*
X268385Y84865D01*
X268293Y84564D01*
X268262Y84250D01*
X268293Y83936D01*
X268385Y83635D01*
X268533Y83357D01*
X268733Y83113D01*
X268977Y82913D01*
X269255Y82765D01*
X269556Y82673D01*
X269870Y82642D01*
X270184Y82673D01*
X270485Y82765D01*
X270763Y82913D01*
X271007Y83113D01*
X271207Y83357D01*
X271355Y83635D01*
X271447Y83936D01*
X271478Y84250D01*
X271447Y84564D01*
X271355Y84865D01*
X271207Y85143D01*
X271007Y85387D01*
X270763Y85587D01*
X270485Y85735D01*
X270184Y85827D01*
X269870Y85858D01*
D02*
G37*
G36*
X262250D02*
X261936Y85827D01*
X261635Y85735D01*
X261357Y85587D01*
X261113Y85387D01*
X260913Y85143D01*
X260765Y84865D01*
X260673Y84564D01*
X260642Y84250D01*
X260673Y83936D01*
X260765Y83635D01*
X260913Y83357D01*
X261113Y83113D01*
X261357Y82913D01*
X261635Y82765D01*
X261936Y82673D01*
X262250Y82642D01*
X262564Y82673D01*
X262865Y82765D01*
X263143Y82913D01*
X263387Y83113D01*
X263587Y83357D01*
X263735Y83635D01*
X263827Y83936D01*
X263858Y84250D01*
X263827Y84564D01*
X263735Y84865D01*
X263587Y85143D01*
X263387Y85387D01*
X263143Y85587D01*
X262865Y85735D01*
X262564Y85827D01*
X262250Y85858D01*
D02*
G37*
G36*
X238860Y85808D02*
X238546Y85777D01*
X238245Y85685D01*
X237967Y85537D01*
X237723Y85337D01*
X237523Y85093D01*
X237375Y84815D01*
X237283Y84514D01*
X237252Y84200D01*
X237283Y83886D01*
X237375Y83585D01*
X237523Y83307D01*
X237723Y83063D01*
X237967Y82863D01*
X238245Y82715D01*
X238546Y82623D01*
X238860Y82592D01*
X239174Y82623D01*
X239475Y82715D01*
X239753Y82863D01*
X239997Y83063D01*
X240197Y83307D01*
X240345Y83585D01*
X240437Y83886D01*
X240468Y84200D01*
X240437Y84514D01*
X240345Y84815D01*
X240197Y85093D01*
X239997Y85337D01*
X239753Y85537D01*
X239475Y85685D01*
X239174Y85777D01*
X238860Y85808D01*
D02*
G37*
G36*
X235050D02*
X234736Y85777D01*
X234435Y85685D01*
X234157Y85537D01*
X233913Y85337D01*
X233713Y85093D01*
X233565Y84815D01*
X233473Y84514D01*
X233442Y84200D01*
X233473Y83886D01*
X233565Y83585D01*
X233713Y83307D01*
X233913Y83063D01*
X234157Y82863D01*
X234435Y82715D01*
X234736Y82623D01*
X235050Y82592D01*
X235364Y82623D01*
X235665Y82715D01*
X235943Y82863D01*
X236187Y83063D01*
X236387Y83307D01*
X236535Y83585D01*
X236627Y83886D01*
X236658Y84200D01*
X236627Y84514D01*
X236535Y84815D01*
X236387Y85093D01*
X236187Y85337D01*
X235943Y85537D01*
X235665Y85685D01*
X235364Y85777D01*
X235050Y85808D01*
D02*
G37*
G36*
X227430D02*
X227116Y85777D01*
X226815Y85685D01*
X226537Y85537D01*
X226293Y85337D01*
X226093Y85093D01*
X225945Y84815D01*
X225853Y84514D01*
X225822Y84200D01*
X225853Y83886D01*
X225945Y83585D01*
X226093Y83307D01*
X226293Y83063D01*
X226537Y82863D01*
X226815Y82715D01*
X227116Y82623D01*
X227430Y82592D01*
X227744Y82623D01*
X228045Y82715D01*
X228323Y82863D01*
X228567Y83063D01*
X228767Y83307D01*
X228915Y83585D01*
X229007Y83886D01*
X229038Y84200D01*
X229007Y84514D01*
X228915Y84815D01*
X228767Y85093D01*
X228567Y85337D01*
X228323Y85537D01*
X228045Y85685D01*
X227744Y85777D01*
X227430Y85808D01*
D02*
G37*
G36*
X53000Y87534D02*
X52785Y87492D01*
X52603Y87370D01*
X52482Y87188D01*
X52439Y86974D01*
X52482Y86759D01*
X52576Y86619D01*
X52592Y86487D01*
X52576Y86355D01*
X52482Y86215D01*
X52439Y86000D01*
X52482Y85785D01*
X52603Y85603D01*
X52609Y85600D01*
Y85400D01*
X52603Y85397D01*
X52482Y85215D01*
X52439Y85000D01*
X52482Y84785D01*
X52603Y84603D01*
X52609Y84600D01*
Y84400D01*
X52603Y84397D01*
X52482Y84215D01*
X52439Y84000D01*
X52482Y83785D01*
X52603Y83603D01*
X52609Y83600D01*
Y83400D01*
X52603Y83397D01*
X52482Y83215D01*
X52439Y83000D01*
X52482Y82785D01*
X52603Y82603D01*
X52609Y82600D01*
Y82400D01*
X52603Y82397D01*
X52482Y82215D01*
X52439Y82000D01*
X52482Y81785D01*
X52603Y81603D01*
X52785Y81482D01*
X53000Y81439D01*
X53215Y81482D01*
X53397Y81603D01*
X53518Y81785D01*
X53546Y81927D01*
X53716Y82023D01*
X53755Y82029D01*
X53785Y82008D01*
X54000Y81966D01*
X54215Y82008D01*
X54397Y82130D01*
X54518Y82312D01*
X54561Y82526D01*
X54518Y82741D01*
X54397Y82923D01*
X54391Y82926D01*
Y83126D01*
X54397Y83130D01*
X54518Y83312D01*
X54561Y83526D01*
X54518Y83741D01*
X54397Y83923D01*
X54391Y83926D01*
Y84126D01*
X54397Y84130D01*
X54518Y84312D01*
X54561Y84526D01*
X54518Y84741D01*
X54397Y84923D01*
X54391Y84926D01*
Y85126D01*
X54397Y85130D01*
X54518Y85312D01*
X54561Y85526D01*
X54518Y85741D01*
X54424Y85881D01*
X54408Y86013D01*
X54424Y86145D01*
X54518Y86285D01*
X54561Y86500D01*
X54518Y86715D01*
X54397Y86897D01*
X54215Y87018D01*
X54000Y87061D01*
X53785Y87018D01*
X53754Y86997D01*
X53537Y87093D01*
X53518Y87188D01*
X53397Y87370D01*
X53215Y87492D01*
X53000Y87534D01*
D02*
G37*
G36*
X97750Y81561D02*
X97535Y81518D01*
X97353Y81397D01*
X97232Y81215D01*
X97189Y81000D01*
X97232Y80785D01*
X97353Y80603D01*
X97535Y80482D01*
X97750Y80439D01*
X97965Y80482D01*
X98147Y80603D01*
X98268Y80785D01*
X98311Y81000D01*
X98268Y81215D01*
X98147Y81397D01*
X97965Y81518D01*
X97750Y81561D01*
D02*
G37*
G36*
X95500D02*
X95285Y81518D01*
X95103Y81397D01*
X94982Y81215D01*
X94939Y81000D01*
X94982Y80785D01*
X95103Y80603D01*
X95285Y80482D01*
X95500Y80439D01*
X95715Y80482D01*
X95897Y80603D01*
X96018Y80785D01*
X96061Y81000D01*
X96018Y81215D01*
X95897Y81397D01*
X95715Y81518D01*
X95500Y81561D01*
D02*
G37*
G36*
X93250D02*
X93035Y81518D01*
X92853Y81397D01*
X92732Y81215D01*
X92689Y81000D01*
X92732Y80785D01*
X92853Y80603D01*
X93035Y80482D01*
X93250Y80439D01*
X93465Y80482D01*
X93647Y80603D01*
X93768Y80785D01*
X93811Y81000D01*
X93768Y81215D01*
X93647Y81397D01*
X93465Y81518D01*
X93250Y81561D01*
D02*
G37*
G36*
X127000Y80061D02*
X126785Y80018D01*
X126603Y79897D01*
X126482Y79715D01*
X126439Y79500D01*
X126482Y79285D01*
X126603Y79103D01*
X126785Y78982D01*
X127000Y78939D01*
X127215Y78982D01*
X127397Y79103D01*
X127518Y79285D01*
X127561Y79500D01*
X127518Y79715D01*
X127397Y79897D01*
X127215Y80018D01*
X127000Y80061D01*
D02*
G37*
G36*
X40250Y82108D02*
X39936Y82077D01*
X39635Y81985D01*
X39357Y81837D01*
X39113Y81637D01*
X38913Y81393D01*
X38765Y81115D01*
X38673Y80814D01*
X38642Y80500D01*
X38673Y80186D01*
X38765Y79885D01*
X38913Y79607D01*
X39113Y79363D01*
X39357Y79163D01*
X39635Y79015D01*
X39936Y78923D01*
X40250Y78892D01*
X40564Y78923D01*
X40865Y79015D01*
X41143Y79163D01*
X41387Y79363D01*
X41587Y79607D01*
X41735Y79885D01*
X41827Y80186D01*
X41858Y80500D01*
X41827Y80814D01*
X41735Y81115D01*
X41587Y81393D01*
X41387Y81637D01*
X41143Y81837D01*
X40865Y81985D01*
X40564Y82077D01*
X40250Y82108D01*
D02*
G37*
G36*
X76000Y81959D02*
X75618Y81922D01*
X75250Y81810D01*
X74911Y81629D01*
X74614Y81386D01*
X74371Y81089D01*
X74190Y80750D01*
X74078Y80382D01*
X74041Y80000D01*
X74078Y79618D01*
X74190Y79250D01*
X74371Y78911D01*
X74614Y78614D01*
X74911Y78371D01*
X75250Y78190D01*
X75618Y78078D01*
X76000Y78041D01*
X76382Y78078D01*
X76750Y78190D01*
X77089Y78371D01*
X77386Y78614D01*
X77629Y78911D01*
X77810Y79250D01*
X77922Y79618D01*
X77959Y80000D01*
X77922Y80382D01*
X77810Y80750D01*
X77629Y81089D01*
X77386Y81386D01*
X77089Y81629D01*
X76750Y81810D01*
X76382Y81922D01*
X76000Y81959D01*
D02*
G37*
G36*
X145150Y78645D02*
Y77800D01*
X145995D01*
X145976Y77948D01*
X145880Y78179D01*
X145728Y78378D01*
X145529Y78530D01*
X145298Y78626D01*
X145150Y78645D01*
D02*
G37*
G36*
X144950D02*
X144802Y78626D01*
X144571Y78530D01*
X144372Y78378D01*
X144220Y78179D01*
X144124Y77948D01*
X144105Y77800D01*
X144950D01*
Y78645D01*
D02*
G37*
G36*
X97750Y78561D02*
X97535Y78518D01*
X97353Y78397D01*
X97232Y78215D01*
X97189Y78000D01*
X97232Y77785D01*
X97353Y77603D01*
X97535Y77482D01*
X97750Y77439D01*
X97965Y77482D01*
X98147Y77603D01*
X98268Y77785D01*
X98311Y78000D01*
X98268Y78215D01*
X98147Y78397D01*
X97965Y78518D01*
X97750Y78561D01*
D02*
G37*
G36*
X95500D02*
X95285Y78518D01*
X95103Y78397D01*
X94982Y78215D01*
X94939Y78000D01*
X94982Y77785D01*
X95103Y77603D01*
X95285Y77482D01*
X95500Y77439D01*
X95715Y77482D01*
X95897Y77603D01*
X96018Y77785D01*
X96061Y78000D01*
X96018Y78215D01*
X95897Y78397D01*
X95715Y78518D01*
X95500Y78561D01*
D02*
G37*
G36*
X93250D02*
X93035Y78518D01*
X92853Y78397D01*
X92732Y78215D01*
X92689Y78000D01*
X92732Y77785D01*
X92853Y77603D01*
X93035Y77482D01*
X93250Y77439D01*
X93465Y77482D01*
X93647Y77603D01*
X93768Y77785D01*
X93811Y78000D01*
X93768Y78215D01*
X93647Y78397D01*
X93465Y78518D01*
X93250Y78561D01*
D02*
G37*
G36*
X40350Y77988D02*
Y76790D01*
X41548D01*
X41517Y77029D01*
X41386Y77346D01*
X41177Y77617D01*
X40906Y77826D01*
X40589Y77957D01*
X40350Y77988D01*
D02*
G37*
G36*
X40150D02*
X39911Y77957D01*
X39594Y77826D01*
X39323Y77617D01*
X39114Y77346D01*
X38983Y77029D01*
X38952Y76790D01*
X40150D01*
Y77988D01*
D02*
G37*
G36*
X144950Y77600D02*
X144105D01*
X144124Y77452D01*
X144220Y77221D01*
X144372Y77022D01*
X144571Y76870D01*
X144802Y76774D01*
X144950Y76755D01*
Y77600D01*
D02*
G37*
G36*
X145995D02*
X145150D01*
Y76755D01*
X145298Y76774D01*
X145529Y76870D01*
X145728Y77022D01*
X145880Y77221D01*
X145976Y77452D01*
X145995Y77600D01*
D02*
G37*
G36*
X203050Y78961D02*
X202724Y78918D01*
X202420Y78792D01*
X202158Y78592D01*
X202155Y78587D01*
X202035Y78474D01*
X201991Y78439D01*
X201949Y78408D01*
X201914Y78386D01*
X201886Y78371D01*
X201867Y78363D01*
X201858Y78360D01*
X201858Y78360D01*
X201832Y78359D01*
X201820Y78356D01*
X191450D01*
X191280Y78333D01*
X191122Y78268D01*
X190986Y78164D01*
X186786Y73964D01*
X186682Y73828D01*
X186617Y73670D01*
X186594Y73500D01*
Y62725D01*
X186591Y62709D01*
X186590Y62691D01*
X186569Y62659D01*
X186566Y62644D01*
X186558Y62631D01*
X186547Y62547D01*
X186530Y62464D01*
X186533Y62449D01*
X186531Y62434D01*
X186553Y62352D01*
X186569Y62269D01*
X186578Y62256D01*
X186581Y62242D01*
X186598Y62219D01*
X186617Y62080D01*
X186682Y61922D01*
X186786Y61786D01*
X186922Y61682D01*
X187080Y61617D01*
X187250Y61594D01*
X187420Y61617D01*
X187578Y61682D01*
X187714Y61786D01*
X187818Y61922D01*
X187883Y62080D01*
X187902Y62219D01*
X187919Y62242D01*
X187922Y62256D01*
X187931Y62269D01*
X187947Y62352D01*
X187969Y62434D01*
X187967Y62449D01*
X187970Y62464D01*
X187953Y62547D01*
X187942Y62631D01*
X187934Y62644D01*
X187931Y62659D01*
X187910Y62691D01*
X187910Y62699D01*
X187906Y62718D01*
Y73228D01*
X191722Y77044D01*
X201820D01*
X201832Y77041D01*
X201858Y77040D01*
X201858Y77040D01*
X201867Y77037D01*
X201886Y77029D01*
X201914Y77014D01*
X201949Y76992D01*
X201986Y76965D01*
X202097Y76870D01*
X202154Y76815D01*
X202158Y76809D01*
X202420Y76608D01*
X202724Y76482D01*
X203050Y76439D01*
X203376Y76482D01*
X203680Y76608D01*
X203942Y76809D01*
X204142Y77070D01*
X204268Y77374D01*
X204311Y77700D01*
X204268Y78026D01*
X204142Y78330D01*
X203942Y78592D01*
X203680Y78792D01*
X203376Y78918D01*
X203050Y78961D01*
D02*
G37*
G36*
X270160Y77548D02*
Y76350D01*
X271358D01*
X271327Y76589D01*
X271196Y76906D01*
X270987Y77177D01*
X270716Y77386D01*
X270399Y77517D01*
X270160Y77548D01*
D02*
G37*
G36*
X269960Y77548D02*
X269721Y77517D01*
X269404Y77386D01*
X269133Y77177D01*
X268924Y76906D01*
X268793Y76589D01*
X268762Y76350D01*
X269960D01*
Y77548D01*
D02*
G37*
G36*
X305350Y77548D02*
Y76350D01*
X306548D01*
X306517Y76589D01*
X306386Y76906D01*
X306177Y77177D01*
X305906Y77386D01*
X305589Y77517D01*
X305350Y77548D01*
D02*
G37*
G36*
X305150Y77548D02*
X304911Y77517D01*
X304594Y77386D01*
X304323Y77177D01*
X304114Y76906D01*
X303983Y76589D01*
X303952Y76350D01*
X305150D01*
Y77548D01*
D02*
G37*
G36*
X235150Y77498D02*
Y76300D01*
X236348D01*
X236317Y76539D01*
X236186Y76856D01*
X235977Y77127D01*
X235706Y77336D01*
X235389Y77467D01*
X235150Y77498D01*
D02*
G37*
G36*
X234950Y77498D02*
X234711Y77467D01*
X234394Y77336D01*
X234123Y77127D01*
X233915Y76856D01*
X233784Y76539D01*
X233752Y76300D01*
X234950D01*
Y77498D01*
D02*
G37*
G36*
X41548Y76590D02*
X40350D01*
Y75392D01*
X40589Y75423D01*
X40906Y75554D01*
X41177Y75763D01*
X41386Y76034D01*
X41517Y76351D01*
X41548Y76590D01*
D02*
G37*
G36*
X40150D02*
X38952D01*
X38983Y76351D01*
X39114Y76034D01*
X39323Y75763D01*
X39594Y75554D01*
X39911Y75423D01*
X40150Y75392D01*
Y76590D01*
D02*
G37*
G36*
X269960Y76150D02*
X268762D01*
X268793Y75911D01*
X268924Y75594D01*
X269133Y75323D01*
X269404Y75114D01*
X269721Y74983D01*
X269960Y74952D01*
Y76150D01*
D02*
G37*
G36*
X271358D02*
X270160D01*
Y74952D01*
X270399Y74983D01*
X270716Y75114D01*
X270987Y75323D01*
X271196Y75594D01*
X271327Y75911D01*
X271358Y76150D01*
D02*
G37*
G36*
X306548Y76150D02*
X305350D01*
Y74952D01*
X305589Y74983D01*
X305906Y75114D01*
X306177Y75323D01*
X306386Y75594D01*
X306517Y75911D01*
X306548Y76150D01*
D02*
G37*
G36*
X305150D02*
X303952D01*
X303983Y75911D01*
X304114Y75594D01*
X304323Y75323D01*
X304594Y75114D01*
X304911Y74983D01*
X305150Y74952D01*
Y76150D01*
D02*
G37*
G36*
X236348Y76100D02*
X235150D01*
Y74902D01*
X235389Y74933D01*
X235706Y75064D01*
X235977Y75273D01*
X236186Y75544D01*
X236317Y75861D01*
X236348Y76100D01*
D02*
G37*
G36*
X234950D02*
X233752D01*
X233784Y75861D01*
X233915Y75544D01*
X234123Y75273D01*
X234394Y75064D01*
X234711Y74933D01*
X234950Y74902D01*
Y76100D01*
D02*
G37*
G36*
X266250Y77858D02*
X265936Y77827D01*
X265635Y77735D01*
X265357Y77587D01*
X265113Y77387D01*
X264913Y77143D01*
X264765Y76865D01*
X264673Y76564D01*
X264642Y76250D01*
X264673Y75936D01*
X264765Y75635D01*
X264913Y75357D01*
X265113Y75113D01*
X265357Y74913D01*
X265635Y74765D01*
X265936Y74673D01*
X266250Y74642D01*
X266564Y74673D01*
X266865Y74765D01*
X267143Y74913D01*
X267387Y75113D01*
X267587Y75357D01*
X267735Y75635D01*
X267827Y75936D01*
X267858Y76250D01*
X267827Y76564D01*
X267735Y76865D01*
X267587Y77143D01*
X267387Y77387D01*
X267143Y77587D01*
X266865Y77735D01*
X266564Y77827D01*
X266250Y77858D01*
D02*
G37*
G36*
X301440Y77858D02*
X301126Y77827D01*
X300825Y77735D01*
X300547Y77587D01*
X300303Y77387D01*
X300103Y77143D01*
X299955Y76865D01*
X299863Y76564D01*
X299832Y76250D01*
X299863Y75936D01*
X299955Y75635D01*
X300103Y75357D01*
X300303Y75113D01*
X300547Y74913D01*
X300825Y74765D01*
X301126Y74673D01*
X301440Y74642D01*
X301754Y74673D01*
X302055Y74765D01*
X302333Y74913D01*
X302577Y75113D01*
X302777Y75357D01*
X302925Y75635D01*
X303017Y75936D01*
X303048Y76250D01*
X303017Y76564D01*
X302925Y76865D01*
X302777Y77143D01*
X302577Y77387D01*
X302333Y77587D01*
X302055Y77735D01*
X301754Y77827D01*
X301440Y77858D01*
D02*
G37*
G36*
X231240Y77808D02*
X230926Y77777D01*
X230625Y77685D01*
X230347Y77537D01*
X230103Y77337D01*
X229903Y77093D01*
X229755Y76815D01*
X229663Y76514D01*
X229632Y76200D01*
X229663Y75886D01*
X229755Y75585D01*
X229903Y75307D01*
X230103Y75063D01*
X230347Y74863D01*
X230625Y74715D01*
X230926Y74623D01*
X231240Y74592D01*
X231554Y74623D01*
X231855Y74715D01*
X232133Y74863D01*
X232377Y75063D01*
X232577Y75307D01*
X232725Y75585D01*
X232817Y75886D01*
X232848Y76200D01*
X232817Y76514D01*
X232725Y76815D01*
X232577Y77093D01*
X232377Y77337D01*
X232133Y77537D01*
X231855Y77685D01*
X231554Y77777D01*
X231240Y77808D01*
D02*
G37*
G36*
X127000Y71311D02*
X126785Y71268D01*
X126603Y71147D01*
X126482Y70965D01*
X126439Y70750D01*
X126482Y70535D01*
X126603Y70353D01*
X126785Y70232D01*
X127000Y70189D01*
X127215Y70232D01*
X127397Y70353D01*
X127518Y70535D01*
X127561Y70750D01*
X127518Y70965D01*
X127397Y71147D01*
X127215Y71268D01*
X127000Y71311D01*
D02*
G37*
G36*
X157650Y69645D02*
Y68800D01*
X158495D01*
X158476Y68948D01*
X158380Y69179D01*
X158228Y69378D01*
X158029Y69530D01*
X157798Y69626D01*
X157650Y69645D01*
D02*
G37*
G36*
X157450D02*
X157302Y69626D01*
X157071Y69530D01*
X156872Y69378D01*
X156720Y69179D01*
X156624Y68948D01*
X156605Y68800D01*
X157450D01*
Y69645D01*
D02*
G37*
G36*
X158495Y68600D02*
X157650D01*
Y67755D01*
X157798Y67774D01*
X158029Y67870D01*
X158228Y68022D01*
X158380Y68221D01*
X158476Y68452D01*
X158495Y68600D01*
D02*
G37*
G36*
X157450D02*
X156605D01*
X156624Y68452D01*
X156720Y68221D01*
X156872Y68022D01*
X157071Y67870D01*
X157302Y67774D01*
X157450Y67755D01*
Y68600D01*
D02*
G37*
G36*
X181550Y69658D02*
X181302Y69626D01*
X181071Y69530D01*
X180872Y69378D01*
X180720Y69179D01*
X180624Y68948D01*
X180592Y68700D01*
X180624Y68452D01*
X180720Y68221D01*
X180872Y68022D01*
X181071Y67870D01*
X181302Y67774D01*
X181550Y67742D01*
X181798Y67774D01*
X182029Y67870D01*
X182228Y68022D01*
X182380Y68221D01*
X182476Y68452D01*
X182508Y68700D01*
X182476Y68948D01*
X182380Y69179D01*
X182228Y69378D01*
X182029Y69530D01*
X181798Y69626D01*
X181550Y69658D01*
D02*
G37*
G36*
X178550D02*
X178302Y69626D01*
X178071Y69530D01*
X177872Y69378D01*
X177720Y69179D01*
X177624Y68948D01*
X177592Y68700D01*
X177624Y68452D01*
X177720Y68221D01*
X177872Y68022D01*
X178071Y67870D01*
X178302Y67774D01*
X178550Y67742D01*
X178798Y67774D01*
X179029Y67870D01*
X179228Y68022D01*
X179380Y68221D01*
X179476Y68452D01*
X179508Y68700D01*
X179476Y68948D01*
X179380Y69179D01*
X179228Y69378D01*
X179029Y69530D01*
X178798Y69626D01*
X178550Y69658D01*
D02*
G37*
G36*
X202550Y69961D02*
X202224Y69918D01*
X201920Y69792D01*
X201659Y69591D01*
X201458Y69330D01*
X201332Y69026D01*
X201289Y68700D01*
X201332Y68374D01*
X201458Y68070D01*
X201659Y67808D01*
X201920Y67608D01*
X202224Y67482D01*
X202550Y67439D01*
X202876Y67482D01*
X203180Y67608D01*
X203442Y67808D01*
X203642Y68070D01*
X203768Y68374D01*
X203811Y68700D01*
X203768Y69026D01*
X203642Y69330D01*
X203442Y69591D01*
X203180Y69792D01*
X202876Y69918D01*
X202550Y69961D01*
D02*
G37*
G36*
X55750Y63704D02*
X47750D01*
X47672Y63688D01*
X47606Y63644D01*
X47562Y63578D01*
X47546Y63500D01*
Y60500D01*
X47562Y60422D01*
X47606Y60356D01*
X47672Y60312D01*
X47750Y60296D01*
X55750D01*
X55828Y60312D01*
X55894Y60356D01*
X55939Y60422D01*
X55954Y60500D01*
Y63500D01*
X55939Y63578D01*
X55894Y63644D01*
X55828Y63688D01*
X55750Y63704D01*
D02*
G37*
G36*
X178000Y60961D02*
X177785Y60918D01*
X177603Y60797D01*
X177482Y60615D01*
X177439Y60400D01*
X177482Y60185D01*
X177603Y60003D01*
X177785Y59882D01*
X178000Y59839D01*
X178215Y59882D01*
X178397Y60003D01*
X178518Y60185D01*
X178561Y60400D01*
X178518Y60615D01*
X178397Y60797D01*
X178215Y60918D01*
X178000Y60961D01*
D02*
G37*
G36*
X186000Y60961D02*
X185785Y60918D01*
X185603Y60797D01*
X185482Y60615D01*
X185439Y60400D01*
X185482Y60185D01*
X185603Y60003D01*
X185785Y59882D01*
X186000Y59839D01*
X186215Y59882D01*
X186397Y60003D01*
X186518Y60185D01*
X186561Y60400D01*
X186518Y60615D01*
X186397Y60797D01*
X186215Y60918D01*
X186000Y60961D01*
D02*
G37*
G36*
X68750Y58561D02*
X68535Y58518D01*
X68353Y58397D01*
X68232Y58215D01*
X68189Y58000D01*
X68232Y57785D01*
X68353Y57603D01*
X68535Y57482D01*
X68750Y57439D01*
X68965Y57482D01*
X69147Y57603D01*
X69268Y57785D01*
X69311Y58000D01*
X69268Y58215D01*
X69147Y58397D01*
X68965Y58518D01*
X68750Y58561D01*
D02*
G37*
G36*
X145100Y56945D02*
Y56100D01*
X145945D01*
X145926Y56248D01*
X145830Y56479D01*
X145678Y56678D01*
X145479Y56830D01*
X145248Y56926D01*
X145100Y56945D01*
D02*
G37*
G36*
X144900D02*
X144752Y56926D01*
X144521Y56830D01*
X144322Y56678D01*
X144170Y56479D01*
X144074Y56248D01*
X144055Y56100D01*
X144900D01*
Y56945D01*
D02*
G37*
G36*
X222100Y55945D02*
Y55100D01*
X222945D01*
X222925Y55248D01*
X222830Y55479D01*
X222677Y55678D01*
X222479Y55830D01*
X222248Y55926D01*
X222100Y55945D01*
D02*
G37*
G36*
X221900D02*
X221752Y55926D01*
X221521Y55830D01*
X221322Y55678D01*
X221170Y55479D01*
X221074Y55248D01*
X221055Y55100D01*
X221900D01*
Y55945D01*
D02*
G37*
G36*
X144900Y55900D02*
X144055D01*
X144074Y55752D01*
X144170Y55521D01*
X144322Y55322D01*
X144521Y55170D01*
X144752Y55074D01*
X144900Y55055D01*
Y55900D01*
D02*
G37*
G36*
X145945D02*
X145100D01*
Y55055D01*
X145248Y55074D01*
X145479Y55170D01*
X145678Y55322D01*
X145830Y55521D01*
X145926Y55752D01*
X145945Y55900D01*
D02*
G37*
G36*
X203000Y57261D02*
X202674Y57218D01*
X202370Y57092D01*
X202109Y56891D01*
X201908Y56630D01*
X201782Y56326D01*
X201739Y56000D01*
X201782Y55674D01*
X201908Y55370D01*
X202109Y55108D01*
X202370Y54908D01*
X202674Y54782D01*
X203000Y54739D01*
X203326Y54782D01*
X203630Y54908D01*
X203892Y55108D01*
X204092Y55370D01*
X204218Y55674D01*
X204261Y56000D01*
X204218Y56326D01*
X204092Y56630D01*
X203892Y56891D01*
X203630Y57092D01*
X203326Y57218D01*
X203000Y57261D01*
D02*
G37*
G36*
X221900Y54900D02*
X221055D01*
X221074Y54752D01*
X221170Y54521D01*
X221322Y54322D01*
X221521Y54170D01*
X221752Y54074D01*
X221900Y54055D01*
Y54900D01*
D02*
G37*
G36*
X222945D02*
X222100D01*
Y54055D01*
X222248Y54074D01*
X222479Y54170D01*
X222677Y54322D01*
X222830Y54521D01*
X222925Y54752D01*
X222945Y54900D01*
D02*
G37*
G36*
X280000Y56261D02*
X279674Y56218D01*
X279370Y56092D01*
X279108Y55892D01*
X278908Y55630D01*
X278782Y55326D01*
X278739Y55000D01*
X278782Y54674D01*
X278908Y54370D01*
X279108Y54109D01*
X279370Y53908D01*
X279674Y53782D01*
X280000Y53739D01*
X280326Y53782D01*
X280630Y53908D01*
X280891Y54109D01*
X281092Y54370D01*
X281218Y54674D01*
X281261Y55000D01*
X281218Y55326D01*
X281092Y55630D01*
X280891Y55892D01*
X280630Y56092D01*
X280326Y56218D01*
X280000Y56261D01*
D02*
G37*
G36*
X92000Y53761D02*
X91785Y53718D01*
X91603Y53597D01*
X91482Y53415D01*
X91439Y53200D01*
X91482Y52985D01*
X91603Y52803D01*
X91785Y52682D01*
X92000Y52639D01*
X92215Y52682D01*
X92397Y52803D01*
X92518Y52985D01*
X92561Y53200D01*
X92518Y53415D01*
X92397Y53597D01*
X92215Y53718D01*
X92000Y53761D01*
D02*
G37*
G36*
X185950Y53511D02*
X185735Y53468D01*
X185553Y53347D01*
X185432Y53165D01*
X185389Y52950D01*
X185432Y52735D01*
X185553Y52553D01*
X185735Y52432D01*
X185950Y52389D01*
X186165Y52432D01*
X186346Y52553D01*
X186468Y52735D01*
X186511Y52950D01*
X186468Y53165D01*
X186346Y53347D01*
X186165Y53468D01*
X185950Y53511D01*
D02*
G37*
G36*
X178200Y53511D02*
X177985Y53468D01*
X177803Y53347D01*
X177682Y53165D01*
X177639Y52950D01*
X177682Y52735D01*
X177803Y52553D01*
X177985Y52432D01*
X178200Y52389D01*
X178415Y52432D01*
X178596Y52553D01*
X178718Y52735D01*
X178761Y52950D01*
X178718Y53165D01*
X178596Y53347D01*
X178415Y53468D01*
X178200Y53511D01*
D02*
G37*
G36*
X92012Y51149D02*
X91797Y51106D01*
X91615Y50985D01*
X91494Y50803D01*
X91451Y50588D01*
X91494Y50374D01*
X91615Y50192D01*
X91797Y50070D01*
X92012Y50027D01*
X92226Y50070D01*
X92408Y50192D01*
X92530Y50374D01*
X92573Y50588D01*
X92530Y50803D01*
X92408Y50985D01*
X92226Y51106D01*
X92012Y51149D01*
D02*
G37*
G36*
X63800Y50161D02*
X63585Y50118D01*
X63403Y49997D01*
X63282Y49815D01*
X63252Y49664D01*
X63048D01*
X63035Y49731D01*
X63018Y49815D01*
X62897Y49997D01*
X62715Y50118D01*
X62500Y50161D01*
X62285Y50118D01*
X62103Y49997D01*
X61982Y49815D01*
X61939Y49600D01*
X61982Y49385D01*
X62103Y49203D01*
X62153Y49170D01*
Y48930D01*
X62103Y48897D01*
X61982Y48715D01*
X61939Y48500D01*
X61982Y48285D01*
X62103Y48103D01*
X62285Y47982D01*
X62500Y47939D01*
X62715Y47982D01*
X62897Y48103D01*
X63018Y48285D01*
X63048Y48436D01*
X63252D01*
X63265Y48369D01*
X63282Y48285D01*
X63403Y48103D01*
X63585Y47982D01*
X63800Y47939D01*
X64015Y47982D01*
X64197Y48103D01*
X64318Y48285D01*
X64361Y48500D01*
X64318Y48715D01*
X64197Y48897D01*
X64147Y48930D01*
Y49170D01*
X64197Y49203D01*
X64318Y49385D01*
X64361Y49600D01*
X64318Y49815D01*
X64197Y49997D01*
X64015Y50118D01*
X63800Y50161D01*
D02*
G37*
G36*
X59260Y50224D02*
X59045Y50181D01*
X58863Y50060D01*
X58741Y49878D01*
X58699Y49663D01*
X58741Y49449D01*
X58863Y49267D01*
X59045Y49145D01*
X59260Y49103D01*
X59474Y49145D01*
X59656Y49267D01*
X59778Y49449D01*
X59820Y49663D01*
X59778Y49878D01*
X59656Y50060D01*
X59474Y50181D01*
X59260Y50224D01*
D02*
G37*
G36*
X60326Y49208D02*
X60111Y49165D01*
X59929Y49043D01*
X59807Y48861D01*
X59765Y48647D01*
X59807Y48432D01*
X59929Y48250D01*
X60111Y48129D01*
X60326Y48086D01*
X60540Y48129D01*
X60722Y48250D01*
X60844Y48432D01*
X60886Y48647D01*
X60844Y48861D01*
X60722Y49043D01*
X60540Y49165D01*
X60326Y49208D01*
D02*
G37*
G36*
X84600Y48261D02*
X84385Y48218D01*
X84203Y48097D01*
X84082Y47915D01*
X84039Y47700D01*
X84082Y47485D01*
X84203Y47303D01*
X84385Y47182D01*
X84600Y47139D01*
X84815Y47182D01*
X84997Y47303D01*
X85118Y47485D01*
X85161Y47700D01*
X85118Y47915D01*
X84997Y48097D01*
X84815Y48218D01*
X84600Y48261D01*
D02*
G37*
G36*
X81500Y52862D02*
X81266Y52815D01*
X81067Y52683D01*
X80935Y52484D01*
X80888Y52250D01*
Y46000D01*
X80935Y45766D01*
X81067Y45567D01*
X81266Y45435D01*
X81500Y45388D01*
X81734Y45435D01*
X81933Y45567D01*
X82065Y45766D01*
X82112Y46000D01*
Y52250D01*
X82065Y52484D01*
X81933Y52683D01*
X81734Y52815D01*
X81500Y52862D01*
D02*
G37*
G36*
X145100Y45945D02*
Y45100D01*
X145945D01*
X145926Y45248D01*
X145830Y45479D01*
X145678Y45678D01*
X145479Y45830D01*
X145248Y45926D01*
X145100Y45945D01*
D02*
G37*
G36*
X144900D02*
X144752Y45926D01*
X144521Y45830D01*
X144322Y45678D01*
X144170Y45479D01*
X144074Y45248D01*
X144055Y45100D01*
X144900D01*
Y45945D01*
D02*
G37*
G36*
X74800Y45811D02*
X74585Y45768D01*
X74403Y45647D01*
X74282Y45465D01*
X74239Y45250D01*
X74282Y45035D01*
X74403Y44853D01*
X74585Y44732D01*
X74800Y44689D01*
X75015Y44732D01*
X75197Y44853D01*
X75318Y45035D01*
X75361Y45250D01*
X75318Y45465D01*
X75197Y45647D01*
X75015Y45768D01*
X74800Y45811D01*
D02*
G37*
G36*
X222100Y44945D02*
Y44100D01*
X222945D01*
X222925Y44248D01*
X222830Y44479D01*
X222677Y44678D01*
X222479Y44830D01*
X222248Y44926D01*
X222100Y44945D01*
D02*
G37*
G36*
X221900D02*
X221752Y44926D01*
X221521Y44830D01*
X221322Y44678D01*
X221170Y44479D01*
X221074Y44248D01*
X221055Y44100D01*
X221900D01*
Y44945D01*
D02*
G37*
G36*
X144900Y44900D02*
X144055D01*
X144074Y44752D01*
X144170Y44521D01*
X144322Y44322D01*
X144521Y44170D01*
X144752Y44074D01*
X144900Y44055D01*
Y44900D01*
D02*
G37*
G36*
X145945D02*
X145100D01*
Y44055D01*
X145248Y44074D01*
X145479Y44170D01*
X145678Y44322D01*
X145830Y44521D01*
X145926Y44752D01*
X145945Y44900D01*
D02*
G37*
G36*
X203000Y46261D02*
X202674Y46218D01*
X202370Y46092D01*
X202109Y45892D01*
X201908Y45630D01*
X201782Y45326D01*
X201739Y45000D01*
X201782Y44674D01*
X201908Y44370D01*
X202109Y44109D01*
X202370Y43908D01*
X202674Y43782D01*
X203000Y43739D01*
X203326Y43782D01*
X203630Y43908D01*
X203892Y44109D01*
X204092Y44370D01*
X204218Y44674D01*
X204261Y45000D01*
X204218Y45326D01*
X204092Y45630D01*
X203892Y45892D01*
X203630Y46092D01*
X203326Y46218D01*
X203000Y46261D01*
D02*
G37*
G36*
X55610Y43953D02*
X55396Y43911D01*
X55214Y43789D01*
X55169Y43723D01*
X54929D01*
X54902Y43762D01*
X54720Y43884D01*
X54506Y43926D01*
X54291Y43884D01*
X54109Y43762D01*
X53988Y43580D01*
X53945Y43366D01*
X53988Y43151D01*
X54109Y42969D01*
X54291Y42848D01*
X54506Y42805D01*
X54720Y42848D01*
X54902Y42969D01*
X54947Y43036D01*
X55187D01*
X55214Y42996D01*
X55396Y42875D01*
X55610Y42832D01*
X55825Y42875D01*
X56007Y42996D01*
X56128Y43178D01*
X56171Y43393D01*
X56128Y43607D01*
X56007Y43789D01*
X55825Y43911D01*
X55610Y43953D01*
D02*
G37*
G36*
X221900Y43900D02*
X221055D01*
X221074Y43752D01*
X221170Y43521D01*
X221322Y43322D01*
X221521Y43170D01*
X221752Y43074D01*
X221900Y43055D01*
Y43900D01*
D02*
G37*
G36*
X222945D02*
X222100D01*
Y43055D01*
X222248Y43074D01*
X222479Y43170D01*
X222677Y43322D01*
X222830Y43521D01*
X222925Y43752D01*
X222945Y43900D01*
D02*
G37*
G36*
X280000Y45261D02*
X279674Y45218D01*
X279370Y45092D01*
X279108Y44891D01*
X278908Y44630D01*
X278782Y44326D01*
X278739Y44000D01*
X278782Y43674D01*
X278908Y43370D01*
X279108Y43108D01*
X279370Y42908D01*
X279674Y42782D01*
X280000Y42739D01*
X280326Y42782D01*
X280630Y42908D01*
X280891Y43108D01*
X281092Y43370D01*
X281218Y43674D01*
X281261Y44000D01*
X281218Y44326D01*
X281092Y44630D01*
X280891Y44891D01*
X280630Y45092D01*
X280326Y45218D01*
X280000Y45261D01*
D02*
G37*
G36*
X69750Y43811D02*
X69535Y43768D01*
X69353Y43647D01*
X69232Y43465D01*
X69189Y43250D01*
X69232Y43035D01*
X69353Y42853D01*
X69535Y42732D01*
X69750Y42689D01*
X69965Y42732D01*
X70147Y42853D01*
X70268Y43035D01*
X70311Y43250D01*
X70268Y43465D01*
X70147Y43647D01*
X69965Y43768D01*
X69750Y43811D01*
D02*
G37*
G36*
X79000Y42561D02*
X78785Y42518D01*
X78696Y42458D01*
X78550Y42413D01*
X78404Y42458D01*
X78315Y42518D01*
X78100Y42561D01*
X77885Y42518D01*
X77703Y42397D01*
X77582Y42215D01*
X77539Y42000D01*
X77582Y41785D01*
X77703Y41603D01*
X77885Y41482D01*
X78100Y41439D01*
X78315Y41482D01*
X78404Y41542D01*
X78550Y41587D01*
X78696Y41542D01*
X78785Y41482D01*
X79000Y41439D01*
X79215Y41482D01*
X79397Y41603D01*
X79518Y41785D01*
X79561Y42000D01*
X79518Y42215D01*
X79397Y42397D01*
X79215Y42518D01*
X79000Y42561D01*
D02*
G37*
G36*
X263200Y42761D02*
X262985Y42718D01*
X262803Y42597D01*
X262682Y42415D01*
X262639Y42200D01*
X262682Y41985D01*
X262803Y41803D01*
X262985Y41682D01*
X263200Y41639D01*
X263414Y41682D01*
X263596Y41803D01*
X263718Y41985D01*
X263761Y42200D01*
X263718Y42415D01*
X263596Y42597D01*
X263414Y42718D01*
X263200Y42761D01*
D02*
G37*
G36*
X91664Y42551D02*
X91450Y42509D01*
X91268Y42387D01*
X91146Y42205D01*
X91104Y41991D01*
X91146Y41776D01*
X91268Y41594D01*
X91450Y41473D01*
X91664Y41430D01*
X91879Y41473D01*
X92061Y41594D01*
X92182Y41776D01*
X92225Y41991D01*
X92182Y42205D01*
X92061Y42387D01*
X91879Y42509D01*
X91664Y42551D01*
D02*
G37*
G36*
X69700Y41061D02*
X69485Y41018D01*
X69303Y40897D01*
X69182Y40715D01*
X69139Y40500D01*
X69182Y40285D01*
X69303Y40103D01*
X69485Y39982D01*
X69700Y39939D01*
X69915Y39982D01*
X70097Y40103D01*
X70218Y40285D01*
X70261Y40500D01*
X70218Y40715D01*
X70097Y40897D01*
X69915Y41018D01*
X69700Y41061D01*
D02*
G37*
G36*
X88700Y38620D02*
X88485Y38577D01*
X88303Y38456D01*
X88182Y38274D01*
X88139Y38059D01*
X88182Y37845D01*
X88303Y37663D01*
X88485Y37541D01*
X88700Y37499D01*
X88915Y37541D01*
X89097Y37663D01*
X89218Y37845D01*
X89261Y38059D01*
X89218Y38274D01*
X89097Y38456D01*
X88915Y38577D01*
X88700Y38620D01*
D02*
G37*
G36*
X139000Y39009D02*
X138739Y38974D01*
X138496Y38874D01*
X138287Y38713D01*
X138127Y38504D01*
X138026Y38261D01*
X137991Y38000D01*
X138026Y37739D01*
X138127Y37496D01*
X138287Y37287D01*
X138496Y37127D01*
X138739Y37026D01*
X139000Y36991D01*
X139261Y37026D01*
X139504Y37127D01*
X139713Y37287D01*
X139874Y37496D01*
X139974Y37739D01*
X140009Y38000D01*
X139974Y38261D01*
X139874Y38504D01*
X139713Y38713D01*
X139504Y38874D01*
X139261Y38974D01*
X139000Y39009D01*
D02*
G37*
G36*
X134000D02*
X133739Y38974D01*
X133496Y38874D01*
X133287Y38713D01*
X133126Y38504D01*
X133026Y38261D01*
X132991Y38000D01*
X133026Y37739D01*
X133126Y37496D01*
X133287Y37287D01*
X133496Y37127D01*
X133739Y37026D01*
X134000Y36991D01*
X134261Y37026D01*
X134504Y37127D01*
X134713Y37287D01*
X134873Y37496D01*
X134974Y37739D01*
X135009Y38000D01*
X134974Y38261D01*
X134873Y38504D01*
X134713Y38713D01*
X134504Y38874D01*
X134261Y38974D01*
X134000Y39009D01*
D02*
G37*
G36*
X116000Y38408D02*
X115752Y38376D01*
X115521Y38280D01*
X115322Y38128D01*
X115170Y37929D01*
X115074Y37698D01*
X115042Y37450D01*
X115074Y37202D01*
X115170Y36971D01*
X115322Y36772D01*
X115521Y36620D01*
X115752Y36524D01*
X116000Y36492D01*
X116248Y36524D01*
X116479Y36620D01*
X116678Y36772D01*
X116830Y36971D01*
X116926Y37202D01*
X116958Y37450D01*
X116926Y37698D01*
X116830Y37929D01*
X116678Y38128D01*
X116479Y38280D01*
X116248Y38376D01*
X116000Y38408D01*
D02*
G37*
G36*
X113500D02*
X113252Y38376D01*
X113021Y38280D01*
X112822Y38128D01*
X112670Y37929D01*
X112574Y37698D01*
X112542Y37450D01*
X112574Y37202D01*
X112670Y36971D01*
X112822Y36772D01*
X113021Y36620D01*
X113252Y36524D01*
X113500Y36492D01*
X113748Y36524D01*
X113979Y36620D01*
X114178Y36772D01*
X114330Y36971D01*
X114426Y37202D01*
X114458Y37450D01*
X114426Y37698D01*
X114330Y37929D01*
X114178Y38128D01*
X113979Y38280D01*
X113748Y38376D01*
X113500Y38408D01*
D02*
G37*
G36*
X157100Y36945D02*
Y36100D01*
X157945D01*
X157926Y36248D01*
X157830Y36479D01*
X157678Y36678D01*
X157479Y36830D01*
X157248Y36926D01*
X157100Y36945D01*
D02*
G37*
G36*
X156900D02*
X156752Y36926D01*
X156521Y36830D01*
X156322Y36678D01*
X156170Y36479D01*
X156074Y36248D01*
X156055Y36100D01*
X156900D01*
Y36945D01*
D02*
G37*
G36*
X51520Y36226D02*
X51337Y36202D01*
X51167Y36131D01*
X51021Y36019D01*
X51011Y36007D01*
X50759D01*
X50749Y36019D01*
X50603Y36131D01*
X50433Y36202D01*
X50250Y36226D01*
X50067Y36202D01*
X49897Y36131D01*
X49751Y36019D01*
X49741Y36007D01*
X49489D01*
X49479Y36019D01*
X49333Y36131D01*
X49163Y36202D01*
X48980Y36226D01*
X48797Y36202D01*
X48627Y36131D01*
X48481Y36019D01*
X48369Y35873D01*
X48298Y35703D01*
X48274Y35520D01*
X48298Y35337D01*
X48369Y35167D01*
X48481Y35021D01*
X48493Y35011D01*
Y34759D01*
X48481Y34749D01*
X48369Y34603D01*
X48298Y34433D01*
X48287Y34350D01*
X48980D01*
Y34250D01*
X49080D01*
Y33557D01*
X49163Y33568D01*
X49333Y33639D01*
X49479Y33751D01*
X49489Y33763D01*
X49741D01*
X49751Y33751D01*
X49897Y33639D01*
X50067Y33568D01*
X50250Y33544D01*
X50433Y33568D01*
X50603Y33639D01*
X50749Y33751D01*
X50759Y33763D01*
X51011D01*
X51021Y33751D01*
X51167Y33639D01*
X51337Y33568D01*
X51520Y33544D01*
X51703Y33568D01*
X51873Y33639D01*
X52019Y33751D01*
X52131Y33897D01*
X52202Y34067D01*
X52226Y34250D01*
X52202Y34433D01*
X52131Y34603D01*
X52019Y34749D01*
X52007Y34759D01*
Y35011D01*
X52019Y35021D01*
X52131Y35167D01*
X52202Y35337D01*
X52226Y35520D01*
X52202Y35703D01*
X52131Y35873D01*
X52019Y36019D01*
X51873Y36131D01*
X51703Y36202D01*
X51520Y36226D01*
D02*
G37*
G36*
X91000Y36561D02*
X90785Y36518D01*
X90603Y36397D01*
X90482Y36215D01*
X90439Y36000D01*
X90482Y35785D01*
X90603Y35603D01*
X90785Y35482D01*
X91000Y35439D01*
X91215Y35482D01*
X91397Y35603D01*
X91518Y35785D01*
X91561Y36000D01*
X91518Y36215D01*
X91397Y36397D01*
X91215Y36518D01*
X91000Y36561D01*
D02*
G37*
G36*
X234600Y35945D02*
Y35100D01*
X235445D01*
X235425Y35248D01*
X235330Y35479D01*
X235177Y35678D01*
X234979Y35830D01*
X234748Y35926D01*
X234600Y35945D01*
D02*
G37*
G36*
X234400D02*
X234252Y35926D01*
X234021Y35830D01*
X233822Y35678D01*
X233670Y35479D01*
X233574Y35248D01*
X233555Y35100D01*
X234400D01*
Y35945D01*
D02*
G37*
G36*
X157945Y35900D02*
X157100D01*
Y35055D01*
X157248Y35074D01*
X157479Y35170D01*
X157678Y35322D01*
X157830Y35521D01*
X157926Y35752D01*
X157945Y35900D01*
D02*
G37*
G36*
X156900D02*
X156055D01*
X156074Y35752D01*
X156170Y35521D01*
X156322Y35322D01*
X156521Y35170D01*
X156752Y35074D01*
X156900Y35055D01*
Y35900D01*
D02*
G37*
G36*
X181000Y36958D02*
X180752Y36926D01*
X180521Y36830D01*
X180322Y36678D01*
X180170Y36479D01*
X180074Y36248D01*
X180042Y36000D01*
X180074Y35752D01*
X180170Y35521D01*
X180322Y35322D01*
X180521Y35170D01*
X180752Y35074D01*
X181000Y35042D01*
X181248Y35074D01*
X181479Y35170D01*
X181678Y35322D01*
X181830Y35521D01*
X181926Y35752D01*
X181958Y36000D01*
X181926Y36248D01*
X181830Y36479D01*
X181678Y36678D01*
X181479Y36830D01*
X181248Y36926D01*
X181000Y36958D01*
D02*
G37*
G36*
X178000Y36958D02*
X177752Y36926D01*
X177521Y36830D01*
X177322Y36678D01*
X177170Y36479D01*
X177074Y36248D01*
X177042Y36000D01*
X177074Y35752D01*
X177170Y35521D01*
X177322Y35322D01*
X177521Y35170D01*
X177752Y35074D01*
X178000Y35042D01*
X178248Y35074D01*
X178479Y35170D01*
X178678Y35322D01*
X178830Y35521D01*
X178926Y35752D01*
X178958Y36000D01*
X178926Y36248D01*
X178830Y36479D01*
X178678Y36678D01*
X178479Y36830D01*
X178248Y36926D01*
X178000Y36958D01*
D02*
G37*
G36*
X202000Y37261D02*
X201674Y37218D01*
X201370Y37092D01*
X201108Y36892D01*
X200908Y36630D01*
X200782Y36326D01*
X200739Y36000D01*
X200782Y35674D01*
X200908Y35370D01*
X201108Y35109D01*
X201370Y34908D01*
X201674Y34782D01*
X202000Y34739D01*
X202326Y34782D01*
X202630Y34908D01*
X202891Y35109D01*
X203092Y35370D01*
X203218Y35674D01*
X203261Y36000D01*
X203218Y36326D01*
X203092Y36630D01*
X202891Y36892D01*
X202630Y37092D01*
X202326Y37218D01*
X202000Y37261D01*
D02*
G37*
G36*
X92100Y35661D02*
X91885Y35618D01*
X91703Y35497D01*
X91582Y35315D01*
X91539Y35100D01*
X91582Y34885D01*
X91703Y34703D01*
X91885Y34582D01*
X92100Y34539D01*
X92315Y34582D01*
X92497Y34703D01*
X92618Y34885D01*
X92661Y35100D01*
X92618Y35315D01*
X92497Y35497D01*
X92315Y35618D01*
X92100Y35661D01*
D02*
G37*
G36*
X116100Y35195D02*
Y34350D01*
X116945D01*
X116926Y34498D01*
X116830Y34729D01*
X116678Y34928D01*
X116479Y35080D01*
X116248Y35176D01*
X116100Y35195D01*
D02*
G37*
G36*
X115900D02*
X115752Y35176D01*
X115521Y35080D01*
X115322Y34928D01*
X115170Y34729D01*
X115074Y34498D01*
X115055Y34350D01*
X115900D01*
Y35195D01*
D02*
G37*
G36*
X234400Y34900D02*
X233555D01*
X233574Y34752D01*
X233670Y34521D01*
X233822Y34322D01*
X234021Y34170D01*
X234252Y34074D01*
X234400Y34055D01*
Y34900D01*
D02*
G37*
G36*
X235445D02*
X234600D01*
Y34055D01*
X234748Y34074D01*
X234979Y34170D01*
X235177Y34322D01*
X235330Y34521D01*
X235425Y34752D01*
X235445Y34900D01*
D02*
G37*
G36*
X255500Y35958D02*
X255252Y35926D01*
X255021Y35830D01*
X254822Y35678D01*
X254670Y35479D01*
X254574Y35248D01*
X254542Y35000D01*
X254574Y34752D01*
X254670Y34521D01*
X254822Y34322D01*
X255021Y34170D01*
X255252Y34074D01*
X255500Y34042D01*
X255748Y34074D01*
X255979Y34170D01*
X256177Y34322D01*
X256330Y34521D01*
X256425Y34752D01*
X256458Y35000D01*
X256425Y35248D01*
X256330Y35479D01*
X256177Y35678D01*
X255979Y35830D01*
X255748Y35926D01*
X255500Y35958D01*
D02*
G37*
G36*
X258500Y35958D02*
X258252Y35925D01*
X258021Y35830D01*
X257822Y35678D01*
X257670Y35479D01*
X257574Y35248D01*
X257542Y35000D01*
X257574Y34752D01*
X257670Y34521D01*
X257822Y34322D01*
X258021Y34170D01*
X258252Y34074D01*
X258500Y34042D01*
X258748Y34074D01*
X258979Y34170D01*
X259177Y34322D01*
X259330Y34521D01*
X259425Y34752D01*
X259458Y35000D01*
X259425Y35248D01*
X259330Y35479D01*
X259177Y35678D01*
X258979Y35830D01*
X258748Y35925D01*
X258500Y35958D01*
D02*
G37*
G36*
X279500Y36261D02*
X279174Y36218D01*
X278870Y36092D01*
X278608Y35891D01*
X278408Y35630D01*
X278282Y35326D01*
X278239Y35000D01*
X278282Y34674D01*
X278408Y34370D01*
X278608Y34108D01*
X278870Y33908D01*
X279174Y33782D01*
X279500Y33739D01*
X279826Y33782D01*
X280130Y33908D01*
X280391Y34108D01*
X280592Y34370D01*
X280718Y34674D01*
X280761Y35000D01*
X280718Y35326D01*
X280592Y35630D01*
X280391Y35891D01*
X280130Y36092D01*
X279826Y36218D01*
X279500Y36261D01*
D02*
G37*
G36*
X48880Y34150D02*
X48287D01*
X48298Y34067D01*
X48369Y33897D01*
X48481Y33751D01*
X48627Y33639D01*
X48797Y33568D01*
X48880Y33557D01*
Y34150D01*
D02*
G37*
G36*
X116945D02*
X116100D01*
Y33305D01*
X116248Y33324D01*
X116479Y33420D01*
X116678Y33572D01*
X116830Y33771D01*
X116926Y34002D01*
X116945Y34150D01*
D02*
G37*
G36*
X115900D02*
X115055D01*
X115074Y34002D01*
X115170Y33771D01*
X115322Y33572D01*
X115521Y33420D01*
X115752Y33324D01*
X115900Y33305D01*
Y34150D01*
D02*
G37*
G36*
X113500Y35208D02*
X113252Y35176D01*
X113021Y35080D01*
X112822Y34928D01*
X112670Y34729D01*
X112574Y34498D01*
X112542Y34250D01*
X112574Y34002D01*
X112670Y33771D01*
X112822Y33572D01*
X113021Y33420D01*
X113252Y33324D01*
X113500Y33292D01*
X113748Y33324D01*
X113979Y33420D01*
X114178Y33572D01*
X114330Y33771D01*
X114426Y34002D01*
X114458Y34250D01*
X114426Y34498D01*
X114330Y34729D01*
X114178Y34928D01*
X113979Y35080D01*
X113748Y35176D01*
X113500Y35208D01*
D02*
G37*
G36*
X120770Y36709D02*
X120388Y36672D01*
X120020Y36560D01*
X119681Y36379D01*
X119384Y36136D01*
X119141Y35839D01*
X118960Y35500D01*
X118848Y35132D01*
X118811Y34750D01*
X118848Y34368D01*
X118960Y34000D01*
X119141Y33661D01*
X119384Y33364D01*
X119681Y33121D01*
X120020Y32940D01*
X120388Y32828D01*
X120770Y32791D01*
X121152Y32828D01*
X121520Y32940D01*
X121859Y33121D01*
X122156Y33364D01*
X122399Y33661D01*
X122580Y34000D01*
X122692Y34368D01*
X122729Y34750D01*
X122692Y35132D01*
X122580Y35500D01*
X122399Y35839D01*
X122156Y36136D01*
X121859Y36379D01*
X121520Y36560D01*
X121152Y36672D01*
X120770Y36709D01*
D02*
G37*
G36*
X108730D02*
X108348Y36672D01*
X107980Y36560D01*
X107641Y36379D01*
X107344Y36136D01*
X107101Y35839D01*
X106920Y35500D01*
X106808Y35132D01*
X106771Y34750D01*
X106808Y34368D01*
X106920Y34000D01*
X107101Y33661D01*
X107344Y33364D01*
X107641Y33121D01*
X107980Y32940D01*
X108348Y32828D01*
X108730Y32791D01*
X109112Y32828D01*
X109480Y32940D01*
X109819Y33121D01*
X110116Y33364D01*
X110359Y33661D01*
X110540Y34000D01*
X110652Y34368D01*
X110689Y34750D01*
X110652Y35132D01*
X110540Y35500D01*
X110359Y35839D01*
X110116Y36136D01*
X109819Y36379D01*
X109480Y36560D01*
X109112Y36672D01*
X108730Y36709D01*
D02*
G37*
G36*
X263200Y33761D02*
X262985Y33718D01*
X262803Y33597D01*
X262682Y33415D01*
X262639Y33200D01*
X262682Y32985D01*
X262803Y32803D01*
X262985Y32682D01*
X263200Y32639D01*
X263415Y32682D01*
X263596Y32803D01*
X263718Y32985D01*
X263761Y33200D01*
X263718Y33415D01*
X263596Y33597D01*
X263415Y33718D01*
X263200Y33761D01*
D02*
G37*
G36*
X79600Y33344D02*
Y32600D01*
X80344D01*
X80328Y32722D01*
X80242Y32929D01*
X80106Y33106D01*
X79929Y33242D01*
X79722Y33328D01*
X79600Y33344D01*
D02*
G37*
G36*
X77600D02*
Y32600D01*
X78344D01*
X78328Y32722D01*
X78243Y32929D01*
X78106Y33106D01*
X77929Y33242D01*
X77722Y33328D01*
X77600Y33344D01*
D02*
G37*
G36*
X79400D02*
X79278Y33328D01*
X79071Y33242D01*
X78894Y33106D01*
X78758Y32929D01*
X78672Y32722D01*
X78656Y32600D01*
X79400D01*
Y33344D01*
D02*
G37*
G36*
X77400D02*
X77278Y33328D01*
X77071Y33242D01*
X76894Y33106D01*
X76758Y32929D01*
X76672Y32722D01*
X76656Y32600D01*
X77400D01*
Y33344D01*
D02*
G37*
G36*
X80344Y32400D02*
X79600D01*
Y31656D01*
X79722Y31672D01*
X79929Y31758D01*
X80106Y31894D01*
X80242Y32071D01*
X80328Y32278D01*
X80344Y32400D01*
D02*
G37*
G36*
X78344D02*
X77600D01*
Y31656D01*
X77722Y31672D01*
X77929Y31758D01*
X78106Y31894D01*
X78243Y32071D01*
X78328Y32278D01*
X78344Y32400D01*
D02*
G37*
G36*
X79400D02*
X78656D01*
X78672Y32278D01*
X78758Y32071D01*
X78894Y31894D01*
X79071Y31758D01*
X79278Y31672D01*
X79400Y31656D01*
Y32400D01*
D02*
G37*
G36*
X77400D02*
X76656D01*
X76672Y32278D01*
X76758Y32071D01*
X76894Y31894D01*
X77071Y31758D01*
X77278Y31672D01*
X77400Y31656D01*
Y32400D01*
D02*
G37*
G36*
X75500Y33357D02*
X75278Y33328D01*
X75071Y33242D01*
X74894Y33106D01*
X74758Y32929D01*
X74672Y32722D01*
X74643Y32500D01*
X74672Y32278D01*
X74758Y32071D01*
X74894Y31894D01*
X75071Y31758D01*
X75278Y31672D01*
X75500Y31643D01*
X75722Y31672D01*
X75929Y31758D01*
X76106Y31894D01*
X76243Y32071D01*
X76328Y32278D01*
X76357Y32500D01*
X76328Y32722D01*
X76243Y32929D01*
X76106Y33106D01*
X75929Y33242D01*
X75722Y33328D01*
X75500Y33357D01*
D02*
G37*
G36*
X73500D02*
X73278Y33328D01*
X73071Y33242D01*
X72894Y33106D01*
X72758Y32929D01*
X72672Y32722D01*
X72643Y32500D01*
X72672Y32278D01*
X72758Y32071D01*
X72894Y31894D01*
X73071Y31758D01*
X73278Y31672D01*
X73500Y31643D01*
X73722Y31672D01*
X73929Y31758D01*
X74106Y31894D01*
X74242Y32071D01*
X74328Y32278D01*
X74357Y32500D01*
X74328Y32722D01*
X74242Y32929D01*
X74106Y33106D01*
X73929Y33242D01*
X73722Y33328D01*
X73500Y33357D01*
D02*
G37*
G36*
X71500D02*
X71278Y33328D01*
X71071Y33242D01*
X70894Y33106D01*
X70758Y32929D01*
X70672Y32722D01*
X70643Y32500D01*
X70672Y32278D01*
X70758Y32071D01*
X70894Y31894D01*
X71071Y31758D01*
X71278Y31672D01*
X71500Y31643D01*
X71722Y31672D01*
X71929Y31758D01*
X72106Y31894D01*
X72242Y32071D01*
X72328Y32278D01*
X72357Y32500D01*
X72328Y32722D01*
X72242Y32929D01*
X72106Y33106D01*
X71929Y33242D01*
X71722Y33328D01*
X71500Y33357D01*
D02*
G37*
G36*
X69500D02*
X69278Y33328D01*
X69071Y33242D01*
X68894Y33106D01*
X68758Y32929D01*
X68672Y32722D01*
X68643Y32500D01*
X68672Y32278D01*
X68758Y32071D01*
X68894Y31894D01*
X69071Y31758D01*
X69278Y31672D01*
X69500Y31643D01*
X69722Y31672D01*
X69929Y31758D01*
X70106Y31894D01*
X70242Y32071D01*
X70328Y32278D01*
X70357Y32500D01*
X70328Y32722D01*
X70242Y32929D01*
X70106Y33106D01*
X69929Y33242D01*
X69722Y33328D01*
X69500Y33357D01*
D02*
G37*
G36*
X67500D02*
X67278Y33328D01*
X67071Y33242D01*
X66894Y33106D01*
X66758Y32929D01*
X66672Y32722D01*
X66643Y32500D01*
X66672Y32278D01*
X66758Y32071D01*
X66894Y31894D01*
X67071Y31758D01*
X67278Y31672D01*
X67500Y31643D01*
X67722Y31672D01*
X67929Y31758D01*
X68106Y31894D01*
X68242Y32071D01*
X68328Y32278D01*
X68357Y32500D01*
X68328Y32722D01*
X68242Y32929D01*
X68106Y33106D01*
X67929Y33242D01*
X67722Y33328D01*
X67500Y33357D01*
D02*
G37*
G36*
X79600Y31344D02*
Y30600D01*
X80344D01*
X80328Y30722D01*
X80242Y30929D01*
X80106Y31106D01*
X79929Y31242D01*
X79722Y31328D01*
X79600Y31344D01*
D02*
G37*
G36*
X77600D02*
Y30600D01*
X78344D01*
X78328Y30722D01*
X78243Y30929D01*
X78106Y31106D01*
X77929Y31242D01*
X77722Y31328D01*
X77600Y31344D01*
D02*
G37*
G36*
X75600D02*
Y30600D01*
X76344D01*
X76328Y30722D01*
X76243Y30929D01*
X76106Y31106D01*
X75929Y31242D01*
X75722Y31328D01*
X75600Y31344D01*
D02*
G37*
G36*
X79400D02*
X79278Y31328D01*
X79071Y31242D01*
X78894Y31106D01*
X78758Y30929D01*
X78672Y30722D01*
X78656Y30600D01*
X79400D01*
Y31344D01*
D02*
G37*
G36*
X77400D02*
X77278Y31328D01*
X77071Y31242D01*
X76894Y31106D01*
X76758Y30929D01*
X76672Y30722D01*
X76656Y30600D01*
X77400D01*
Y31344D01*
D02*
G37*
G36*
X75400D02*
X75278Y31328D01*
X75071Y31242D01*
X74894Y31106D01*
X74758Y30929D01*
X74672Y30722D01*
X74656Y30600D01*
X75400D01*
Y31344D01*
D02*
G37*
G36*
X80344Y30400D02*
X79600D01*
Y29656D01*
X79722Y29672D01*
X79929Y29758D01*
X80106Y29894D01*
X80242Y30071D01*
X80328Y30278D01*
X80344Y30400D01*
D02*
G37*
G36*
X78344D02*
X77600D01*
Y29656D01*
X77722Y29672D01*
X77929Y29758D01*
X78106Y29894D01*
X78243Y30071D01*
X78328Y30278D01*
X78344Y30400D01*
D02*
G37*
G36*
X76344D02*
X75600D01*
Y29656D01*
X75722Y29672D01*
X75929Y29758D01*
X76106Y29894D01*
X76243Y30071D01*
X76328Y30278D01*
X76344Y30400D01*
D02*
G37*
G36*
X79400D02*
X78656D01*
X78672Y30278D01*
X78758Y30071D01*
X78894Y29894D01*
X79071Y29758D01*
X79278Y29672D01*
X79400Y29656D01*
Y30400D01*
D02*
G37*
G36*
X77400D02*
X76656D01*
X76672Y30278D01*
X76758Y30071D01*
X76894Y29894D01*
X77071Y29758D01*
X77278Y29672D01*
X77400Y29656D01*
Y30400D01*
D02*
G37*
G36*
X75400D02*
X74656D01*
X74672Y30278D01*
X74758Y30071D01*
X74894Y29894D01*
X75071Y29758D01*
X75278Y29672D01*
X75400Y29656D01*
Y30400D01*
D02*
G37*
G36*
X73500Y31357D02*
X73278Y31328D01*
X73071Y31242D01*
X72894Y31106D01*
X72758Y30929D01*
X72672Y30722D01*
X72643Y30500D01*
X72672Y30278D01*
X72758Y30071D01*
X72894Y29894D01*
X73071Y29758D01*
X73278Y29672D01*
X73500Y29643D01*
X73722Y29672D01*
X73929Y29758D01*
X74106Y29894D01*
X74242Y30071D01*
X74328Y30278D01*
X74357Y30500D01*
X74328Y30722D01*
X74242Y30929D01*
X74106Y31106D01*
X73929Y31242D01*
X73722Y31328D01*
X73500Y31357D01*
D02*
G37*
G36*
X71500D02*
X71278Y31328D01*
X71071Y31242D01*
X70894Y31106D01*
X70758Y30929D01*
X70672Y30722D01*
X70643Y30500D01*
X70672Y30278D01*
X70758Y30071D01*
X70894Y29894D01*
X71071Y29758D01*
X71278Y29672D01*
X71500Y29643D01*
X71722Y29672D01*
X71929Y29758D01*
X72106Y29894D01*
X72242Y30071D01*
X72328Y30278D01*
X72357Y30500D01*
X72328Y30722D01*
X72242Y30929D01*
X72106Y31106D01*
X71929Y31242D01*
X71722Y31328D01*
X71500Y31357D01*
D02*
G37*
G36*
X69500D02*
X69278Y31328D01*
X69071Y31242D01*
X68894Y31106D01*
X68758Y30929D01*
X68672Y30722D01*
X68643Y30500D01*
X68672Y30278D01*
X68758Y30071D01*
X68894Y29894D01*
X69071Y29758D01*
X69278Y29672D01*
X69500Y29643D01*
X69722Y29672D01*
X69929Y29758D01*
X70106Y29894D01*
X70242Y30071D01*
X70328Y30278D01*
X70357Y30500D01*
X70328Y30722D01*
X70242Y30929D01*
X70106Y31106D01*
X69929Y31242D01*
X69722Y31328D01*
X69500Y31357D01*
D02*
G37*
G36*
X67500D02*
X67278Y31328D01*
X67071Y31242D01*
X66894Y31106D01*
X66758Y30929D01*
X66672Y30722D01*
X66643Y30500D01*
X66672Y30278D01*
X66758Y30071D01*
X66894Y29894D01*
X67071Y29758D01*
X67278Y29672D01*
X67500Y29643D01*
X67722Y29672D01*
X67929Y29758D01*
X68106Y29894D01*
X68242Y30071D01*
X68328Y30278D01*
X68357Y30500D01*
X68328Y30722D01*
X68242Y30929D01*
X68106Y31106D01*
X67929Y31242D01*
X67722Y31328D01*
X67500Y31357D01*
D02*
G37*
%LPD*%
G36*
X117097Y87800D02*
X117060Y87799D01*
X116993Y87793D01*
X116962Y87787D01*
X116933Y87780D01*
X116907Y87770D01*
X116882Y87759D01*
X116859Y87746D01*
X116839Y87731D01*
X116820Y87714D01*
X116714Y87820D01*
X116731Y87839D01*
X116746Y87859D01*
X116759Y87882D01*
X116770Y87907D01*
X116780Y87933D01*
X116787Y87962D01*
X116793Y87993D01*
X116797Y88025D01*
X116799Y88060D01*
X116800Y88097D01*
X117097Y87800D01*
D02*
G37*
G36*
X117097Y79224D02*
X117060Y79223D01*
X116993Y79217D01*
X116962Y79211D01*
X116933Y79203D01*
X116907Y79194D01*
X116882Y79183D01*
X116860Y79169D01*
X116839Y79155D01*
X116820Y79138D01*
X116714Y79244D01*
X116731Y79263D01*
X116746Y79283D01*
X116759Y79306D01*
X116770Y79330D01*
X116780Y79357D01*
X116787Y79386D01*
X116793Y79416D01*
X116797Y79449D01*
X116800Y79484D01*
X116800Y79521D01*
X117097Y79224D01*
D02*
G37*
G36*
X117097Y70475D02*
X117060Y70474D01*
X116993Y70468D01*
X116962Y70462D01*
X116933Y70454D01*
X116907Y70445D01*
X116882Y70434D01*
X116859Y70421D01*
X116839Y70406D01*
X116820Y70389D01*
X116714Y70495D01*
X116731Y70514D01*
X116746Y70534D01*
X116759Y70557D01*
X116770Y70582D01*
X116779Y70608D01*
X116787Y70637D01*
X116793Y70668D01*
X116797Y70700D01*
X116799Y70735D01*
X116800Y70772D01*
X117097Y70475D01*
D02*
G37*
G36*
X78241Y40684D02*
X78293Y40641D01*
X78319Y40624D01*
X78344Y40609D01*
X78370Y40597D01*
X78395Y40587D01*
X78421Y40580D01*
X78446Y40576D01*
X78470Y40575D01*
Y40425D01*
X78446Y40424D01*
X78421Y40420D01*
X78395Y40413D01*
X78370Y40403D01*
X78344Y40391D01*
X78319Y40376D01*
X78293Y40359D01*
X78267Y40339D01*
X78241Y40316D01*
X78214Y40290D01*
Y40710D01*
X78241Y40684D01*
D02*
G37*
G36*
Y39784D02*
X78293Y39741D01*
X78319Y39724D01*
X78344Y39709D01*
X78370Y39697D01*
X78395Y39687D01*
X78421Y39680D01*
X78446Y39676D01*
X78470Y39675D01*
Y39525D01*
X78446Y39524D01*
X78421Y39520D01*
X78395Y39513D01*
X78370Y39503D01*
X78344Y39491D01*
X78319Y39476D01*
X78293Y39459D01*
X78267Y39439D01*
X78241Y39416D01*
X78214Y39390D01*
Y39810D01*
X78241Y39784D01*
D02*
G37*
G36*
Y38884D02*
X78293Y38841D01*
X78319Y38824D01*
X78344Y38809D01*
X78370Y38797D01*
X78395Y38787D01*
X78421Y38780D01*
X78446Y38776D01*
X78470Y38775D01*
Y38625D01*
X78446Y38624D01*
X78421Y38620D01*
X78395Y38613D01*
X78370Y38603D01*
X78344Y38591D01*
X78319Y38576D01*
X78293Y38559D01*
X78267Y38539D01*
X78241Y38516D01*
X78214Y38490D01*
Y38910D01*
X78241Y38884D01*
D02*
G37*
G36*
X202514Y77175D02*
X202442Y77246D01*
X202302Y77366D01*
X202234Y77415D01*
X202168Y77456D01*
X202104Y77490D01*
X202042Y77516D01*
X201981Y77535D01*
X201922Y77546D01*
X201865Y77550D01*
Y77850D01*
X201922Y77854D01*
X201981Y77865D01*
X202042Y77884D01*
X202104Y77910D01*
X202168Y77944D01*
X202234Y77985D01*
X202302Y78034D01*
X202371Y78090D01*
X202514Y78225D01*
Y77175D01*
D02*
G37*
G36*
X187401Y62658D02*
X187405Y62599D01*
X187410Y62574D01*
X187415Y62550D01*
X187422Y62529D01*
X187429Y62509D01*
X187438Y62492D01*
X187449Y62477D01*
X187460Y62464D01*
X187040D01*
X187051Y62477D01*
X187062Y62492D01*
X187071Y62509D01*
X187078Y62529D01*
X187085Y62550D01*
X187090Y62574D01*
X187095Y62599D01*
X187098Y62627D01*
X187100Y62690D01*
X187400D01*
X187401Y62658D01*
D02*
G37*
D10*
X112800Y62800D02*
Y66475D01*
X117100Y70775D02*
X117100D01*
X112800Y66475D02*
X117100Y70775D01*
X111000Y82000D02*
X117100Y88100D01*
X111000Y62800D02*
Y82000D01*
X111900Y74324D02*
X117100Y79524D01*
X98000Y48000D02*
X112800Y62800D01*
X111900D02*
Y74324D01*
X98000Y48900D02*
X111900Y62800D01*
X98000Y49800D02*
X111000Y62800D01*
X92800Y49800D02*
X98000D01*
X83500Y40500D02*
X92800Y49800D01*
X93173Y48900D02*
X98000D01*
X83873Y39600D02*
X93173Y48900D01*
X93546Y48000D02*
X98000D01*
X84246Y38700D02*
X93546Y48000D01*
X78000Y38700D02*
X84246D01*
X78000Y39600D02*
X83873D01*
X78000Y40500D02*
X83500D01*
D14*
X187250Y62250D02*
Y73500D01*
X191450Y77700D02*
X203050D01*
X187250Y73500D02*
X191450Y77700D01*
D67*
X81500Y46000D02*
Y52250D01*
D73*
X40250Y76690D02*
D03*
X262060Y92250D02*
D03*
X297130Y92250D02*
D03*
X301440Y84250D02*
D03*
X305250Y76250D02*
D03*
X266060Y84250D02*
D03*
X270060Y76250D02*
D03*
X235050Y76200D02*
D03*
X231240Y84200D02*
D03*
X226930Y92200D02*
D03*
D74*
X145050Y88700D02*
D03*
X234500Y35000D02*
D03*
X222000Y55000D02*
D03*
Y44000D02*
D03*
X157000Y36000D02*
D03*
X145000Y56000D02*
D03*
Y45000D02*
D03*
X157550Y68700D02*
D03*
X203050Y77700D02*
D03*
X145050D02*
D03*
X116000Y34250D02*
D03*
D75*
X48980D02*
D03*
X152000Y41000D02*
D03*
Y52000D02*
D03*
Y56000D02*
D03*
Y60000D02*
D03*
Y74000D02*
D03*
Y78000D02*
D03*
Y88000D02*
D03*
Y92000D02*
D03*
X156000Y41000D02*
D03*
Y52000D02*
D03*
Y56000D02*
D03*
Y60000D02*
D03*
Y74000D02*
D03*
Y78000D02*
D03*
Y88000D02*
D03*
Y92000D02*
D03*
X160000Y41000D02*
D03*
Y52000D02*
D03*
Y56000D02*
D03*
Y60000D02*
D03*
Y74000D02*
D03*
Y78000D02*
D03*
Y88000D02*
D03*
Y92000D02*
D03*
X164000Y56000D02*
D03*
Y60000D02*
D03*
Y74000D02*
D03*
Y78000D02*
D03*
Y88000D02*
D03*
Y92000D02*
D03*
X168000Y41000D02*
D03*
Y52000D02*
D03*
Y56000D02*
D03*
Y60000D02*
D03*
Y88000D02*
D03*
Y92000D02*
D03*
X172000Y41000D02*
D03*
Y52000D02*
D03*
X172000Y56000D02*
D03*
X172000Y84000D02*
D03*
X172000Y88000D02*
D03*
Y92000D02*
D03*
X176000Y41000D02*
D03*
Y52000D02*
D03*
Y56000D02*
D03*
Y82000D02*
D03*
Y84000D02*
D03*
Y88000D02*
D03*
Y92000D02*
D03*
X180000Y41000D02*
D03*
Y78000D02*
D03*
Y82000D02*
D03*
Y84000D02*
D03*
Y88000D02*
D03*
Y92000D02*
D03*
X184000Y41000D02*
D03*
X184000Y78000D02*
D03*
Y82000D02*
D03*
X184000Y84000D02*
D03*
X184000Y88000D02*
D03*
Y92000D02*
D03*
X188000Y41000D02*
D03*
Y78000D02*
D03*
Y82000D02*
D03*
Y84000D02*
D03*
Y88000D02*
D03*
Y92000D02*
D03*
X192000Y41000D02*
D03*
Y82000D02*
D03*
Y84000D02*
D03*
Y88000D02*
D03*
Y92000D02*
D03*
X196000Y41000D02*
D03*
X196000Y82000D02*
D03*
X196000Y84000D02*
D03*
X196000Y88000D02*
D03*
Y92000D02*
D03*
X152000Y49000D02*
D03*
Y45000D02*
D03*
X156000Y49000D02*
D03*
Y45000D02*
D03*
X160000Y49000D02*
D03*
Y45000D02*
D03*
X168000D02*
D03*
Y49000D02*
D03*
X172000Y45000D02*
D03*
Y49000D02*
D03*
X176000Y45000D02*
D03*
Y49000D02*
D03*
X180000Y45000D02*
D03*
Y49000D02*
D03*
X184000Y45000D02*
D03*
Y49000D02*
D03*
X188000Y45000D02*
D03*
Y49000D02*
D03*
X192000Y45000D02*
D03*
Y49000D02*
D03*
X196000Y45000D02*
D03*
Y49000D02*
D03*
X169000Y74000D02*
D03*
X227000Y40000D02*
D03*
X235000D02*
D03*
X239000D02*
D03*
X243000D02*
D03*
X227000Y48000D02*
D03*
Y44000D02*
D03*
X231000Y48000D02*
D03*
Y44000D02*
D03*
X235000Y48000D02*
D03*
X247000Y44000D02*
D03*
X243000D02*
D03*
X239000D02*
D03*
X259000D02*
D03*
X255000D02*
D03*
X251000D02*
D03*
X271000Y48000D02*
D03*
X267000D02*
D03*
X247000Y40000D02*
D03*
X251000D02*
D03*
X255000D02*
D03*
X259000D02*
D03*
X227000Y51000D02*
D03*
X231000D02*
D03*
X235000D02*
D03*
X239000D02*
D03*
X243000D02*
D03*
X227000Y59000D02*
D03*
Y55000D02*
D03*
X231000Y59000D02*
D03*
Y55000D02*
D03*
X235000Y59000D02*
D03*
Y55000D02*
D03*
X247000D02*
D03*
Y59000D02*
D03*
X243000Y55000D02*
D03*
Y59000D02*
D03*
X239000Y55000D02*
D03*
Y59000D02*
D03*
X259000Y55000D02*
D03*
Y59000D02*
D03*
X255000Y55000D02*
D03*
Y59000D02*
D03*
X251000Y55000D02*
D03*
Y59000D02*
D03*
X267000D02*
D03*
X263000Y55000D02*
D03*
Y59000D02*
D03*
X247000Y51000D02*
D03*
X251000D02*
D03*
X255000D02*
D03*
X259000D02*
D03*
X263000D02*
D03*
X267000D02*
D03*
X271000D02*
D03*
D76*
X75500Y30500D02*
D03*
X77500Y32500D02*
D03*
Y30500D02*
D03*
X79500Y32500D02*
D03*
Y30500D02*
D03*
D77*
X150000Y62000D02*
D03*
Y68000D02*
D03*
X155000Y62000D02*
D03*
Y68000D02*
D03*
X167000Y62000D02*
D03*
Y68000D02*
D03*
X180000Y56000D02*
D03*
X184000Y52000D02*
D03*
Y56000D02*
D03*
Y60000D02*
D03*
X188000Y56000D02*
D03*
X187250Y62250D02*
D03*
X192000Y52000D02*
D03*
Y56000D02*
D03*
Y60000D02*
D03*
X196000Y52000D02*
D03*
Y56000D02*
D03*
Y60000D02*
D03*
X186000Y69000D02*
D03*
X199000Y60000D02*
D03*
X189000Y63000D02*
D03*
Y69000D02*
D03*
X199000Y63000D02*
D03*
X254000Y31000D02*
D03*
X256000D02*
D03*
X263000Y29000D02*
D03*
Y31000D02*
D03*
X290000Y32000D02*
D03*
Y38000D02*
D03*
X300000D02*
D03*
Y32000D02*
D03*
X307000Y46000D02*
D03*
X313000D02*
D03*
Y51000D02*
D03*
X307000D02*
D03*
X313000Y56000D02*
D03*
X307000D02*
D03*
X299000Y62000D02*
D03*
X293000D02*
D03*
X299000Y71000D02*
D03*
X293000D02*
D03*
Y68000D02*
D03*
X299000D02*
D03*
X307000Y74000D02*
D03*
Y68000D02*
D03*
X313000D02*
D03*
Y73000D02*
D03*
Y81000D02*
D03*
Y86000D02*
D03*
X284000Y94000D02*
D03*
X243000D02*
D03*
X254000Y93000D02*
D03*
X284000Y86000D02*
D03*
X277000D02*
D03*
X284000Y81000D02*
D03*
X277000D02*
D03*
Y73000D02*
D03*
X284000D02*
D03*
Y68000D02*
D03*
X277000D02*
D03*
X254000Y73000D02*
D03*
Y77000D02*
D03*
Y82000D02*
D03*
Y86000D02*
D03*
X243000D02*
D03*
Y83000D02*
D03*
Y77000D02*
D03*
Y73000D02*
D03*
X213000Y92000D02*
D03*
X221000Y60000D02*
D03*
Y72000D02*
D03*
X216000Y78000D02*
D03*
Y60000D02*
D03*
X211000D02*
D03*
Y78000D02*
D03*
X207000D02*
D03*
X173000Y32000D02*
D03*
X167000D02*
D03*
X160000D02*
D03*
X206000Y33000D02*
D03*
X212000D02*
D03*
X218000D02*
D03*
Y38000D02*
D03*
X212000D02*
D03*
X206000D02*
D03*
X196000Y34000D02*
D03*
X192000D02*
D03*
X206000Y49000D02*
D03*
Y53000D02*
D03*
X207000Y92000D02*
D03*
Y88000D02*
D03*
X206000Y60000D02*
D03*
X203000Y63000D02*
D03*
X141000Y89000D02*
D03*
Y79000D02*
D03*
X145000Y62000D02*
D03*
Y68000D02*
D03*
X139000Y62000D02*
D03*
Y68000D02*
D03*
X133000Y62000D02*
D03*
Y68000D02*
D03*
X101000Y95000D02*
D03*
Y89000D02*
D03*
Y83000D02*
D03*
X118000Y61000D02*
D03*
Y68000D02*
D03*
X105000Y60000D02*
D03*
Y68000D02*
D03*
X100000Y60000D02*
D03*
Y68000D02*
D03*
X96000D02*
D03*
Y60000D02*
D03*
Y57000D02*
D03*
X99000Y47000D02*
D03*
X95000Y36000D02*
D03*
Y39000D02*
D03*
X47000Y71000D02*
D03*
X50000Y73000D02*
D03*
X51000Y71000D02*
D03*
X56000D02*
D03*
Y73000D02*
D03*
X47000D02*
D03*
X87000Y54000D02*
D03*
Y51000D02*
D03*
X83000Y49000D02*
D03*
Y53000D02*
D03*
X79000Y50000D02*
D03*
Y53000D02*
D03*
X62000Y46000D02*
D03*
X65000Y45000D02*
D03*
X59000Y38000D02*
D03*
X60000Y40000D02*
D03*
X71000Y39000D02*
D03*
X64000Y40000D02*
D03*
Y37000D02*
D03*
X72000D02*
D03*
X77000D02*
D03*
X90000Y31000D02*
D03*
X105000Y32000D02*
D03*
X99000D02*
D03*
X95000D02*
D03*
X93000Y34000D02*
D03*
X99000Y36000D02*
D03*
Y39000D02*
D03*
Y43000D02*
D03*
X105000Y36000D02*
D03*
Y39000D02*
D03*
X111000Y43000D02*
D03*
Y47000D02*
D03*
X105000Y43000D02*
D03*
Y47000D02*
D03*
X138000Y54000D02*
D03*
X139000Y50000D02*
D03*
X133000D02*
D03*
Y54000D02*
D03*
X129000Y50000D02*
D03*
Y54000D02*
D03*
X118000Y50000D02*
D03*
Y54000D02*
D03*
X111000Y50000D02*
D03*
Y54000D02*
D03*
X105000Y50000D02*
D03*
Y54000D02*
D03*
X103000Y56000D02*
D03*
X108000D02*
D03*
X112000Y60000D02*
D03*
X107000D02*
D03*
X114000Y74000D02*
D03*
X113000Y87000D02*
D03*
Y83000D02*
D03*
X116000D02*
D03*
Y86000D02*
D03*
Y91000D02*
D03*
Y95000D02*
D03*
X129000D02*
D03*
Y91000D02*
D03*
X133000Y93000D02*
D03*
Y88000D02*
D03*
Y76000D02*
D03*
Y80000D02*
D03*
Y83000D02*
D03*
Y86000D02*
D03*
X129000D02*
D03*
Y83000D02*
D03*
Y78000D02*
D03*
Y73000D02*
D03*
X110000Y74000D02*
D03*
Y95000D02*
D03*
Y91000D02*
D03*
Y84000D02*
D03*
X114000Y79000D02*
D03*
X110000D02*
D03*
X114000Y70000D02*
D03*
Y63000D02*
D03*
X110000D02*
D03*
Y69750D02*
D03*
X125250Y73250D02*
D03*
X126000Y80750D02*
D03*
X125000Y82000D02*
D03*
Y90750D02*
D03*
X126500Y89500D02*
D03*
X52000Y38250D02*
D03*
X55000D02*
D03*
X53500Y37000D02*
D03*
X71500Y75000D02*
D03*
X70250Y76250D02*
D03*
X263000Y44000D02*
D03*
X271000Y40000D02*
D03*
X81500Y46000D02*
D03*
Y52250D02*
D03*
X117100Y88100D02*
D03*
X117100Y79524D02*
D03*
X117100Y70775D02*
D03*
X78000Y38700D02*
D03*
Y39600D02*
D03*
Y40500D02*
D03*
X74000Y42250D02*
D03*
M02*
