G04*
G04 #@! TF.GenerationSoftware,Altium Limited,Altium Designer,20.1.8 (145)*
G04*
G04 Layer_Color=32896*
%FSLAX43Y43*%
%MOMM*%
G71*
G04*
G04 #@! TF.SameCoordinates,5712E5C3-EFE7-4622-A9FF-169796C5DE8E*
G04*
G04*
G04 #@! TF.FilePolarity,Positive*
G04*
G01*
G75*
%ADD10C,0.150*%
%ADD11C,0.250*%
%ADD13C,0.254*%
%ADD14C,0.300*%
%ADD15C,0.100*%
%ADD16C,0.200*%
%ADD88C,1.000*%
%ADD100R,0.500X0.539*%
D10*
X67000Y68000D02*
X69000D01*
Y67500D02*
Y68000D01*
X67000Y67500D02*
Y68000D01*
Y67500D02*
X69000D01*
X67500Y70846D02*
Y74937D01*
X63500D02*
X67500D01*
X63500Y70846D02*
Y74937D01*
Y70846D02*
X67500D01*
X82725Y77875D02*
X84300D01*
X82725Y78125D02*
X84300D01*
X86225D02*
X87800D01*
X86225Y77875D02*
X87800D01*
X89725Y78125D02*
X91300D01*
X89725Y77875D02*
X91300D01*
X61125Y74725D02*
Y76300D01*
X60875Y74725D02*
Y76300D01*
X57200Y79625D02*
X58775D01*
X57200Y79375D02*
X58775D01*
D11*
X66325Y60800D02*
G03*
X66325Y60800I-125J0D01*
G01*
X120575Y70050D02*
G03*
X120575Y70050I-125J0D01*
G01*
X120575Y78799D02*
G03*
X120575Y78799I-125J0D01*
G01*
X120575Y87375D02*
G03*
X120575Y87375I-125J0D01*
G01*
X267925Y30800D02*
G03*
X267925Y30800I-125J0D01*
G01*
X267925Y39800D02*
G03*
X267925Y39800I-125J0D01*
G01*
X182925Y50550D02*
G03*
X182925Y50550I-125J0D01*
G01*
X190675Y50550D02*
G03*
X190675Y50550I-125J0D01*
G01*
X190725Y58000D02*
G03*
X190725Y58000I-125J0D01*
G01*
X182725Y58000D02*
G03*
X182725Y58000I-125J0D01*
G01*
X59500Y81000D02*
X71500D01*
X59500D02*
Y86000D01*
X71500Y81000D02*
Y86000D01*
D13*
X72416Y68500D02*
Y67833D01*
X72083Y67500D01*
X71750Y67833D01*
Y68500D01*
X71417D02*
X70750D01*
X71083D01*
Y67500D01*
X70417D02*
X70084D01*
X70250D01*
Y68500D01*
X70417Y68333D01*
X66833Y70000D02*
Y69333D01*
X66500Y69000D01*
X66166Y69333D01*
Y70000D01*
X65833D02*
Y69000D01*
X65333D01*
X65167Y69167D01*
Y69833D01*
X65333Y70000D01*
X65833D01*
X64834Y69833D02*
X64667Y70000D01*
X64334D01*
X64167Y69833D01*
Y69667D01*
X64334Y69500D01*
X64500D01*
X64334D01*
X64167Y69333D01*
Y69167D01*
X64334Y69000D01*
X64667D01*
X64834Y69167D01*
X262832Y41583D02*
Y40917D01*
X262499Y40583D01*
X262166Y40917D01*
Y41583D01*
X261833D02*
Y40583D01*
X261333D01*
X261166Y40750D01*
Y41417D01*
X261333Y41583D01*
X261833D01*
X260167Y40583D02*
X260833D01*
X260167Y41250D01*
Y41417D01*
X260333Y41583D01*
X260666D01*
X260833Y41417D01*
X259833Y40417D02*
X259167D01*
X258167Y41417D02*
X258334Y41583D01*
X258667D01*
X258834Y41417D01*
Y41250D01*
X258667Y41083D01*
X258334D01*
X258167Y40917D01*
Y40750D01*
X258334Y40583D01*
X258667D01*
X258834Y40750D01*
X257834Y41417D02*
X257667Y41583D01*
X257334D01*
X257168Y41417D01*
Y41250D01*
X257334Y41083D01*
X257501D01*
X257334D01*
X257168Y40917D01*
Y40750D01*
X257334Y40583D01*
X257667D01*
X257834Y40750D01*
X198832Y51583D02*
Y50917D01*
X198499Y50583D01*
X198166Y50917D01*
Y51583D01*
X197833D02*
Y50583D01*
X197333D01*
X197166Y50750D01*
Y51417D01*
X197333Y51583D01*
X197833D01*
X196167Y50583D02*
X196833D01*
X196167Y51250D01*
Y51417D01*
X196333Y51583D01*
X196666D01*
X196833Y51417D01*
X195833Y50417D02*
X195167D01*
X194167Y51417D02*
X194334Y51583D01*
X194667D01*
X194834Y51417D01*
Y51250D01*
X194667Y51083D01*
X194334D01*
X194167Y50917D01*
Y50750D01*
X194334Y50583D01*
X194667D01*
X194834Y50750D01*
X193168Y50583D02*
X193834D01*
X193168Y51250D01*
Y51417D01*
X193334Y51583D01*
X193667D01*
X193834Y51417D01*
X178666Y59583D02*
Y58917D01*
X178333Y58583D01*
X177999Y58917D01*
Y59583D01*
X177666D02*
Y58583D01*
X177166D01*
X177000Y58750D01*
Y59417D01*
X177166Y59583D01*
X177666D01*
X176000Y58583D02*
X176666D01*
X176000Y59250D01*
Y59417D01*
X176167Y59583D01*
X176500D01*
X176666Y59417D01*
X175667Y58417D02*
X175000D01*
X174001Y59417D02*
X174167Y59583D01*
X174500D01*
X174667Y59417D01*
Y59250D01*
X174500Y59083D01*
X174167D01*
X174001Y58917D01*
Y58750D01*
X174167Y58583D01*
X174500D01*
X174667Y58750D01*
X173667Y58583D02*
X173334D01*
X173501D01*
Y59583D01*
X173667Y59417D01*
X262749Y32583D02*
Y31917D01*
X262416Y31583D01*
X262083Y31917D01*
Y32583D01*
X261749D02*
Y31583D01*
X261250D01*
X261083Y31750D01*
Y32417D01*
X261250Y32583D01*
X261749D01*
X260750Y31583D02*
X260417D01*
X260583D01*
Y32583D01*
X260750Y32417D01*
X259917Y31417D02*
X259250D01*
X258251Y32417D02*
X258417Y32583D01*
X258750D01*
X258917Y32417D01*
Y32250D01*
X258750Y32083D01*
X258417D01*
X258251Y31917D01*
Y31750D01*
X258417Y31583D01*
X258750D01*
X258917Y31750D01*
X257917Y32417D02*
X257751Y32583D01*
X257418D01*
X257251Y32417D01*
Y32250D01*
X257418Y32083D01*
X257584D01*
X257418D01*
X257251Y31917D01*
Y31750D01*
X257418Y31583D01*
X257751D01*
X257917Y31750D01*
X177749Y51583D02*
Y50917D01*
X177416Y50583D01*
X177083Y50917D01*
Y51583D01*
X176749D02*
Y50583D01*
X176250D01*
X176083Y50750D01*
Y51417D01*
X176250Y51583D01*
X176749D01*
X175750Y50583D02*
X175417D01*
X175583D01*
Y51583D01*
X175750Y51417D01*
X174917Y50417D02*
X174250D01*
X173251Y51417D02*
X173417Y51583D01*
X173750D01*
X173917Y51417D01*
Y51250D01*
X173750Y51083D01*
X173417D01*
X173251Y50917D01*
Y50750D01*
X173417Y50583D01*
X173750D01*
X173917Y50750D01*
X172251Y50583D02*
X172917D01*
X172251Y51250D01*
Y51417D01*
X172417Y51583D01*
X172751D01*
X172917Y51417D01*
X197583Y59583D02*
Y58917D01*
X197249Y58583D01*
X196916Y58917D01*
Y59583D01*
X196583D02*
Y58583D01*
X196083D01*
X195916Y58750D01*
Y59417D01*
X196083Y59583D01*
X196583D01*
X195583Y58583D02*
X195250D01*
X195417D01*
Y59583D01*
X195583Y59417D01*
X194750Y58417D02*
X194084D01*
X193084Y59417D02*
X193251Y59583D01*
X193584D01*
X193750Y59417D01*
Y59250D01*
X193584Y59083D01*
X193251D01*
X193084Y58917D01*
Y58750D01*
X193251Y58583D01*
X193584D01*
X193750Y58750D01*
X192751Y58583D02*
X192417D01*
X192584D01*
Y59583D01*
X192751Y59417D01*
X74000Y74500D02*
Y75500D01*
X73500D01*
X73333Y75333D01*
Y75000D01*
X73500Y74833D01*
X74000D01*
X73666D02*
X73333Y74500D01*
X73000D02*
X72667D01*
X72833D01*
Y75500D01*
X73000Y75333D01*
X71500Y74500D02*
X72167D01*
X71500Y75167D01*
Y75333D01*
X71667Y75500D01*
X72000D01*
X72167Y75333D01*
X73583Y72425D02*
Y73425D01*
X73083D01*
X72917Y73258D01*
Y72925D01*
X73083Y72758D01*
X73583D01*
X73250D02*
X72917Y72425D01*
X72583D02*
X72250D01*
X72417D01*
Y73425D01*
X72583Y73258D01*
X71750Y72425D02*
X71417D01*
X71584D01*
Y73425D01*
X71750Y73258D01*
X73000Y59750D02*
Y60750D01*
X72500D01*
X72333Y60583D01*
Y60250D01*
X72500Y60083D01*
X73000D01*
X72666D02*
X72333Y59750D01*
X72000D02*
X71667D01*
X71833D01*
Y60750D01*
X72000Y60583D01*
X71167D02*
X71000Y60750D01*
X70667D01*
X70500Y60583D01*
Y59917D01*
X70667Y59750D01*
X71000D01*
X71167Y59917D01*
Y60583D01*
X64583Y59500D02*
Y60500D01*
X64083D01*
X63917Y60333D01*
Y60000D01*
X64083Y59833D01*
X64583D01*
X64250D02*
X63917Y59500D01*
X63583Y59667D02*
X63417Y59500D01*
X63084D01*
X62917Y59667D01*
Y60333D01*
X63084Y60500D01*
X63417D01*
X63583Y60333D01*
Y60167D01*
X63417Y60000D01*
X62917D01*
X61833Y59500D02*
Y60500D01*
X61333D01*
X61167Y60333D01*
Y60000D01*
X61333Y59833D01*
X61833D01*
X61500D02*
X61167Y59500D01*
X60833Y60333D02*
X60667Y60500D01*
X60334D01*
X60167Y60333D01*
Y60167D01*
X60334Y60000D01*
X60167Y59833D01*
Y59667D01*
X60334Y59500D01*
X60667D01*
X60833Y59667D01*
Y59833D01*
X60667Y60000D01*
X60833Y60167D01*
Y60333D01*
X60667Y60000D02*
X60334D01*
X271833Y45583D02*
Y46583D01*
X271333D01*
X271166Y46417D01*
Y46083D01*
X271333Y45917D01*
X271833D01*
X271499D02*
X271166Y45583D01*
X270166Y46583D02*
X270833D01*
Y46083D01*
X270500Y46250D01*
X270333D01*
X270166Y46083D01*
Y45750D01*
X270333Y45583D01*
X270666D01*
X270833Y45750D01*
X269833Y45417D02*
X269167D01*
X268167Y46417D02*
X268334Y46583D01*
X268667D01*
X268834Y46417D01*
Y46250D01*
X268667Y46083D01*
X268334D01*
X268167Y45917D01*
Y45750D01*
X268334Y45583D01*
X268667D01*
X268834Y45750D01*
X267834Y46417D02*
X267667Y46583D01*
X267334D01*
X267167Y46417D01*
Y46250D01*
X267334Y46083D01*
X267501D01*
X267334D01*
X267167Y45917D01*
Y45750D01*
X267334Y45583D01*
X267667D01*
X267834Y45750D01*
X199333Y54583D02*
Y55583D01*
X198833D01*
X198666Y55417D01*
Y55083D01*
X198833Y54917D01*
X199333D01*
X198999D02*
X198666Y54583D01*
X197666Y55583D02*
X198333D01*
Y55083D01*
X198000Y55250D01*
X197833D01*
X197666Y55083D01*
Y54750D01*
X197833Y54583D01*
X198166D01*
X198333Y54750D01*
X197333Y54417D02*
X196667D01*
X195667Y55417D02*
X195834Y55583D01*
X196167D01*
X196334Y55417D01*
Y55250D01*
X196167Y55083D01*
X195834D01*
X195667Y54917D01*
Y54750D01*
X195834Y54583D01*
X196167D01*
X196334Y54750D01*
X194667Y54583D02*
X195334D01*
X194667Y55250D01*
Y55417D01*
X194834Y55583D01*
X195167D01*
X195334Y55417D01*
X187166Y63583D02*
Y64583D01*
X186666D01*
X186500Y64417D01*
Y64083D01*
X186666Y63917D01*
X187166D01*
X186833D02*
X186500Y63583D01*
X185500Y64583D02*
X186166D01*
Y64083D01*
X185833Y64250D01*
X185666D01*
X185500Y64083D01*
Y63750D01*
X185666Y63583D01*
X186000D01*
X186166Y63750D01*
X185167Y63417D02*
X184500D01*
X183500Y64417D02*
X183667Y64583D01*
X184000D01*
X184167Y64417D01*
Y64250D01*
X184000Y64083D01*
X183667D01*
X183500Y63917D01*
Y63750D01*
X183667Y63583D01*
X184000D01*
X184167Y63750D01*
X183167Y63583D02*
X182834D01*
X183001D01*
Y64583D01*
X183167Y64417D01*
X272083Y36333D02*
Y37333D01*
X271583D01*
X271416Y37167D01*
Y36833D01*
X271583Y36667D01*
X272083D01*
X271749D02*
X271416Y36333D01*
X270583D02*
Y37333D01*
X271083Y36833D01*
X270416D01*
X270083Y36167D02*
X269417D01*
X268417Y37167D02*
X268584Y37333D01*
X268917D01*
X269084Y37167D01*
Y37000D01*
X268917Y36833D01*
X268584D01*
X268417Y36667D01*
Y36500D01*
X268584Y36333D01*
X268917D01*
X269084Y36500D01*
X268084Y37167D02*
X267917Y37333D01*
X267584D01*
X267417Y37167D01*
Y37000D01*
X267584Y36833D01*
X267751D01*
X267584D01*
X267417Y36667D01*
Y36500D01*
X267584Y36333D01*
X267917D01*
X268084Y36500D01*
X182333Y54583D02*
Y55583D01*
X181833D01*
X181666Y55417D01*
Y55083D01*
X181833Y54917D01*
X182333D01*
X181999D02*
X181666Y54583D01*
X180833D02*
Y55583D01*
X181333Y55083D01*
X180666D01*
X180333Y54417D02*
X179667D01*
X178667Y55417D02*
X178834Y55583D01*
X179167D01*
X179334Y55417D01*
Y55250D01*
X179167Y55083D01*
X178834D01*
X178667Y54917D01*
Y54750D01*
X178834Y54583D01*
X179167D01*
X179334Y54750D01*
X177667Y54583D02*
X178334D01*
X177667Y55250D01*
Y55417D01*
X177834Y55583D01*
X178167D01*
X178334Y55417D01*
X195166Y63583D02*
Y64583D01*
X194666D01*
X194500Y64417D01*
Y64083D01*
X194666Y63917D01*
X195166D01*
X194833D02*
X194500Y63583D01*
X193666D02*
Y64583D01*
X194166Y64083D01*
X193500D01*
X193167Y63417D02*
X192500D01*
X191500Y64417D02*
X191667Y64583D01*
X192000D01*
X192167Y64417D01*
Y64250D01*
X192000Y64083D01*
X191667D01*
X191500Y63917D01*
Y63750D01*
X191667Y63583D01*
X192000D01*
X192167Y63750D01*
X191167Y63583D02*
X190834D01*
X191001D01*
Y64583D01*
X191167Y64417D01*
X116249Y74833D02*
Y75833D01*
X115749D01*
X115583Y75667D01*
Y75333D01*
X115749Y75167D01*
X116249D01*
X115916D02*
X115583Y74833D01*
X115250D02*
X114916D01*
X115083D01*
Y75833D01*
X115250Y75667D01*
X114417Y74667D02*
X113750D01*
X112750Y75667D02*
X112917Y75833D01*
X113250D01*
X113417Y75667D01*
Y75500D01*
X113250Y75333D01*
X112917D01*
X112750Y75167D01*
Y75000D01*
X112917Y74833D01*
X113250D01*
X113417Y75000D01*
X112417Y75667D02*
X112251Y75833D01*
X111917D01*
X111751Y75667D01*
Y75500D01*
X111917Y75333D01*
X112084D01*
X111917D01*
X111751Y75167D01*
Y75000D01*
X111917Y74833D01*
X112251D01*
X112417Y75000D01*
X117249Y84583D02*
Y85583D01*
X116749D01*
X116583Y85417D01*
Y85083D01*
X116749Y84917D01*
X117249D01*
X116916D02*
X116583Y84583D01*
X116250D02*
X115916D01*
X116083D01*
Y85583D01*
X116250Y85417D01*
X115417Y84417D02*
X114750D01*
X113750Y85417D02*
X113917Y85583D01*
X114250D01*
X114417Y85417D01*
Y85250D01*
X114250Y85083D01*
X113917D01*
X113750Y84917D01*
Y84750D01*
X113917Y84583D01*
X114250D01*
X114417Y84750D01*
X112751Y84583D02*
X113417D01*
X112751Y85250D01*
Y85417D01*
X112917Y85583D01*
X113251D01*
X113417Y85417D01*
X117083Y92583D02*
Y93583D01*
X116583D01*
X116416Y93417D01*
Y93083D01*
X116583Y92917D01*
X117083D01*
X116749D02*
X116416Y92583D01*
X116083D02*
X115750D01*
X115916D01*
Y93583D01*
X116083Y93417D01*
X115250Y92417D02*
X114583D01*
X113584Y93417D02*
X113750Y93583D01*
X114084D01*
X114250Y93417D01*
Y93250D01*
X114084Y93083D01*
X113750D01*
X113584Y92917D01*
Y92750D01*
X113750Y92583D01*
X114084D01*
X114250Y92750D01*
X113251Y92583D02*
X112917D01*
X113084D01*
Y93583D01*
X113251Y93417D01*
X68833Y59750D02*
Y58750D01*
X68333D01*
X68166Y58917D01*
Y59583D01*
X68333Y59750D01*
X68833D01*
X67833D02*
Y58750D01*
X67333D01*
X67167Y58917D01*
Y59583D01*
X67333Y59750D01*
X67833D01*
X66834Y59583D02*
X66667Y59750D01*
X66334D01*
X66167Y59583D01*
Y59417D01*
X66334Y59250D01*
X66500D01*
X66334D01*
X66167Y59083D01*
Y58917D01*
X66334Y58750D01*
X66667D01*
X66834Y58917D01*
X59166Y87500D02*
Y86500D01*
X58666D01*
X58500Y86667D01*
Y87333D01*
X58666Y87500D01*
X59166D01*
X58167D02*
Y86500D01*
X57667D01*
X57500Y86667D01*
Y87333D01*
X57667Y87500D01*
X58167D01*
X57167Y86500D02*
X56834D01*
X57000D01*
Y87500D01*
X57167Y87333D01*
X117749Y71833D02*
Y70833D01*
X117249D01*
X117083Y71000D01*
Y71667D01*
X117249Y71833D01*
X117749D01*
X116749Y70833D02*
Y71500D01*
X116416Y71833D01*
X116083Y71500D01*
Y70833D01*
Y71333D01*
X116749D01*
X115750Y70833D02*
X115417D01*
X115583D01*
Y71833D01*
X115750Y71667D01*
X114917Y70667D02*
X114250D01*
X113251Y71667D02*
X113417Y71833D01*
X113750D01*
X113917Y71667D01*
Y71500D01*
X113750Y71333D01*
X113417D01*
X113251Y71167D01*
Y71000D01*
X113417Y70833D01*
X113750D01*
X113917Y71000D01*
X112917Y71667D02*
X112751Y71833D01*
X112418D01*
X112251Y71667D01*
Y71500D01*
X112418Y71333D01*
X112584D01*
X112418D01*
X112251Y71167D01*
Y71000D01*
X112418Y70833D01*
X112751D01*
X112917Y71000D01*
X117749Y80583D02*
Y79583D01*
X117249D01*
X117083Y79750D01*
Y80417D01*
X117249Y80583D01*
X117749D01*
X116749Y79583D02*
Y80250D01*
X116416Y80583D01*
X116083Y80250D01*
Y79583D01*
Y80083D01*
X116749D01*
X115750Y79583D02*
X115417D01*
X115583D01*
Y80583D01*
X115750Y80417D01*
X114917Y79417D02*
X114250D01*
X113251Y80417D02*
X113417Y80583D01*
X113750D01*
X113917Y80417D01*
Y80250D01*
X113750Y80083D01*
X113417D01*
X113251Y79917D01*
Y79750D01*
X113417Y79583D01*
X113750D01*
X113917Y79750D01*
X112251Y79583D02*
X112917D01*
X112251Y80250D01*
Y80417D01*
X112418Y80583D01*
X112751D01*
X112917Y80417D01*
X117582Y89583D02*
Y88583D01*
X117083D01*
X116916Y88750D01*
Y89417D01*
X117083Y89583D01*
X117582D01*
X116583Y88583D02*
Y89250D01*
X116250Y89583D01*
X115916Y89250D01*
Y88583D01*
Y89083D01*
X116583D01*
X115583Y88583D02*
X115250D01*
X115417D01*
Y89583D01*
X115583Y89417D01*
X114750Y88417D02*
X114084D01*
X113084Y89417D02*
X113251Y89583D01*
X113584D01*
X113750Y89417D01*
Y89250D01*
X113584Y89083D01*
X113251D01*
X113084Y88917D01*
Y88750D01*
X113251Y88583D01*
X113584D01*
X113750Y88750D01*
X112751Y88583D02*
X112418D01*
X112584D01*
Y89583D01*
X112751Y89417D01*
X75083Y49000D02*
X75250Y48834D01*
Y48500D01*
X75083Y48334D01*
X74417D01*
X74250Y48500D01*
Y48834D01*
X74417Y49000D01*
X74250Y50000D02*
Y49333D01*
X74917Y50000D01*
X75083D01*
X75250Y49833D01*
Y49500D01*
X75083Y49333D01*
X74250Y50333D02*
Y50666D01*
Y50500D01*
X75250D01*
X75083Y50333D01*
X71583Y49084D02*
X71750Y48917D01*
Y48584D01*
X71583Y48417D01*
X70917D01*
X70750Y48584D01*
Y48917D01*
X70917Y49084D01*
X70750Y50083D02*
Y49417D01*
X71417Y50083D01*
X71583D01*
X71750Y49917D01*
Y49583D01*
X71583Y49417D01*
Y50416D02*
X71750Y50583D01*
Y50916D01*
X71583Y51083D01*
X70917D01*
X70750Y50916D01*
Y50583D01*
X70917Y50416D01*
X71583D01*
X73333Y48917D02*
X73500Y48750D01*
Y48417D01*
X73333Y48250D01*
X72667D01*
X72500Y48417D01*
Y48750D01*
X72667Y48917D01*
X72500Y49250D02*
Y49583D01*
Y49417D01*
X73500D01*
X73333Y49250D01*
X72667Y50083D02*
X72500Y50250D01*
Y50583D01*
X72667Y50750D01*
X73333D01*
X73500Y50583D01*
Y50250D01*
X73333Y50083D01*
X73167D01*
X73000Y50250D01*
Y50750D01*
X83444Y80939D02*
X83611Y81105D01*
X83944D01*
X84110Y80939D01*
Y80272D01*
X83944Y80106D01*
X83611D01*
X83444Y80272D01*
X83111Y80939D02*
X82944Y81105D01*
X82611D01*
X82444Y80939D01*
Y80772D01*
X82611Y80606D01*
X82444Y80439D01*
Y80272D01*
X82611Y80106D01*
X82944D01*
X83111Y80272D01*
Y80439D01*
X82944Y80606D01*
X83111Y80772D01*
Y80939D01*
X82944Y80606D02*
X82611D01*
X86949Y80939D02*
X87116Y81105D01*
X87449D01*
X87616Y80939D01*
Y80272D01*
X87449Y80106D01*
X87116D01*
X86949Y80272D01*
X85949Y81105D02*
X86283Y80939D01*
X86616Y80606D01*
Y80272D01*
X86449Y80106D01*
X86116D01*
X85949Y80272D01*
Y80439D01*
X86116Y80606D01*
X86616D01*
X90454Y80939D02*
X90621Y81105D01*
X90954D01*
X91121Y80939D01*
Y80272D01*
X90954Y80106D01*
X90621D01*
X90454Y80272D01*
X89455Y81105D02*
X90121D01*
Y80606D01*
X89788Y80772D01*
X89621D01*
X89455Y80606D01*
Y80272D01*
X89621Y80106D01*
X89955D01*
X90121Y80272D01*
X61167Y73933D02*
X61333Y74100D01*
X61666D01*
X61833Y73933D01*
Y73267D01*
X61666Y73100D01*
X61333D01*
X61167Y73267D01*
X60334Y73100D02*
Y74100D01*
X60833Y73600D01*
X60167D01*
X56067Y79833D02*
X56233Y80000D01*
X56566D01*
X56733Y79833D01*
Y79167D01*
X56566Y79000D01*
X56233D01*
X56067Y79167D01*
X55733Y79833D02*
X55567Y80000D01*
X55234D01*
X55067Y79833D01*
Y79667D01*
X55234Y79500D01*
X55400D01*
X55234D01*
X55067Y79333D01*
Y79167D01*
X55234Y79000D01*
X55567D01*
X55733Y79167D01*
X131583Y72417D02*
X131749Y72583D01*
X132083D01*
X132249Y72417D01*
Y71750D01*
X132083Y71583D01*
X131749D01*
X131583Y71750D01*
X131250Y71583D02*
X130916D01*
X131083D01*
Y72583D01*
X131250Y72417D01*
X130417Y71417D02*
X129750D01*
X128750Y72417D02*
X128917Y72583D01*
X129250D01*
X129417Y72417D01*
Y72250D01*
X129250Y72083D01*
X128917D01*
X128750Y71917D01*
Y71750D01*
X128917Y71583D01*
X129250D01*
X129417Y71750D01*
X128417Y72417D02*
X128251Y72583D01*
X127917D01*
X127751Y72417D01*
Y72250D01*
X127917Y72083D01*
X128084D01*
X127917D01*
X127751Y71917D01*
Y71750D01*
X127917Y71583D01*
X128251D01*
X128417Y71750D01*
X131583Y80417D02*
X131749Y80583D01*
X132083D01*
X132249Y80417D01*
Y79750D01*
X132083Y79583D01*
X131749D01*
X131583Y79750D01*
X131250Y79583D02*
X130916D01*
X131083D01*
Y80583D01*
X131250Y80417D01*
X130417Y79417D02*
X129750D01*
X128750Y80417D02*
X128917Y80583D01*
X129250D01*
X129417Y80417D01*
Y80250D01*
X129250Y80083D01*
X128917D01*
X128750Y79917D01*
Y79750D01*
X128917Y79583D01*
X129250D01*
X129417Y79750D01*
X127751Y79583D02*
X128417D01*
X127751Y80250D01*
Y80417D01*
X127917Y80583D01*
X128251D01*
X128417Y80417D01*
X131416Y89417D02*
X131583Y89583D01*
X131916D01*
X132083Y89417D01*
Y88750D01*
X131916Y88583D01*
X131583D01*
X131416Y88750D01*
X131083Y88583D02*
X130750D01*
X130916D01*
Y89583D01*
X131083Y89417D01*
X130250Y88417D02*
X129583D01*
X128584Y89417D02*
X128750Y89583D01*
X129084D01*
X129250Y89417D01*
Y89250D01*
X129084Y89083D01*
X128750D01*
X128584Y88917D01*
Y88750D01*
X128750Y88583D01*
X129084D01*
X129250Y88750D01*
X128251Y88583D02*
X127917D01*
X128084D01*
Y89583D01*
X128251Y89417D01*
D14*
X69616Y66766D02*
G03*
X69616Y66766I-120J0D01*
G01*
D15*
X69375Y74600D02*
X69625D01*
X69375Y75400D02*
X69625D01*
X69375Y73400D02*
X69625D01*
X69375Y72600D02*
X69625D01*
X71100Y62625D02*
Y62875D01*
X71900Y62625D02*
Y62875D01*
X63100Y62625D02*
Y62875D01*
X63900Y62625D02*
Y62875D01*
X60850Y62625D02*
Y62875D01*
X61650Y62625D02*
Y62875D01*
X124700Y71425D02*
X125800D01*
X124700Y71575D02*
X125800D01*
X124450Y80175D02*
X125550D01*
X124450Y80325D02*
X125550D01*
X124450Y88825D02*
X125550D01*
X124450Y88675D02*
X125550D01*
X269375Y35400D02*
X269625D01*
X269375Y34600D02*
X269625D01*
X269375Y44400D02*
X269625D01*
X269375Y43600D02*
X269625D01*
X184375Y55150D02*
X184625D01*
X184375Y54350D02*
X184625D01*
X192625Y55150D02*
X192875D01*
X192625Y54350D02*
X192875D01*
X192175Y61800D02*
X192425D01*
X192175Y62600D02*
X192425D01*
X184175Y61800D02*
X184425D01*
X184175Y62600D02*
X184425D01*
X72450Y46675D02*
X73550D01*
X72450Y46825D02*
X73550D01*
X74200Y46675D02*
X75300D01*
X74200Y46825D02*
X75300D01*
X70700Y46675D02*
X71800D01*
X70700Y46825D02*
X71800D01*
D16*
X67750Y61100D02*
Y63900D01*
X67250Y61100D02*
Y63900D01*
X67750D01*
X67250Y61100D02*
X67750D01*
X121500Y70350D02*
X122000D01*
X121500Y73150D02*
X122000D01*
X121500Y70350D02*
Y73150D01*
X122000Y70350D02*
Y73150D01*
X117950Y77600D02*
X125550D01*
X117950Y73900D02*
X125550D01*
Y77600D01*
X117950Y73900D02*
Y77600D01*
X121500Y79099D02*
X122000D01*
X121500Y81899D02*
X122000D01*
X121500Y79099D02*
Y81899D01*
X122000Y79099D02*
Y81899D01*
X117950Y86349D02*
X125550D01*
X117950Y82649D02*
X125550D01*
Y86349D01*
X117950Y82649D02*
Y86349D01*
X122000Y87675D02*
Y90475D01*
X121500Y87675D02*
Y90475D01*
X122000D01*
X121500Y87675D02*
X122000D01*
X117950Y91225D02*
Y94925D01*
X125550Y91225D02*
Y94925D01*
X117950Y91225D02*
X125550D01*
X117950Y94925D02*
X125550D01*
X267500Y31700D02*
Y32700D01*
X266700D02*
X267500D01*
X264500Y31700D02*
Y32700D01*
X265300D01*
X267500Y40700D02*
Y41700D01*
X266700D02*
X267500D01*
X264500Y40700D02*
Y41700D01*
X265300D01*
X182500Y51450D02*
Y52450D01*
X181700D02*
X182500D01*
X179500Y51450D02*
Y52450D01*
X180300D01*
X190250Y51450D02*
Y52450D01*
X189450D02*
X190250D01*
X187250Y51450D02*
Y52450D01*
X188050D01*
X187300Y59900D02*
X188100D01*
X187300Y58900D02*
Y59900D01*
X189500D02*
X190300D01*
Y58900D02*
Y59900D01*
X179300Y59900D02*
X180100D01*
X179300Y58900D02*
Y59900D01*
X181500D02*
X182300D01*
Y58900D02*
Y59900D01*
D88*
X71154Y79168D02*
G03*
X71154Y79168I-400J0D01*
G01*
D100*
X67250Y71116D02*
D03*
M02*
