G04*
G04 #@! TF.GenerationSoftware,Altium Limited,Altium Designer,20.1.8 (145)*
G04*
G04 Layer_Color=16711935*
%FSTAX43Y43*%
%MOMM*%
G71*
G04*
G04 #@! TF.SameCoordinates,88960992-D08D-4769-B98E-263BF66CF6E9*
G04*
G04*
G04 #@! TF.FilePolarity,Negative*
G04*
G01*
G75*
%ADD11C,2.404*%
%ADD12C,8.204*%
%ADD15C,1.000*%
G36*
X0101255Y006801D02*
X0101423D01*
X0101747Y0068097D01*
X0102037Y0068265D01*
X0102275Y0068502D01*
X0102443Y0068793D01*
X0102529Y0069117D01*
Y0069453D01*
X0102443Y0069777D01*
X0102275Y0070068D01*
X0102037Y0070305D01*
X0101747Y0070473D01*
X0101423Y007056D01*
X0101255D01*
D01*
X0098425D01*
X0098257D01*
X0097933Y0070473D01*
X0097642Y0070305D01*
X0097405Y0070068D01*
X0097237Y0069777D01*
X009715Y0069453D01*
Y0069117D01*
X0097237Y0068793D01*
X0097405Y0068502D01*
X0097642Y0068265D01*
X0097933Y0068097D01*
X0098257Y006801D01*
X0098425D01*
D01*
X0101255D01*
D02*
G37*
G36*
Y007182D02*
X0101423D01*
X0101747Y0071907D01*
X0102037Y0072075D01*
X0102275Y0072312D01*
X0102443Y0072603D01*
X0102529Y0072927D01*
Y0073263D01*
X0102443Y0073587D01*
X0102275Y0073878D01*
X0102037Y0074115D01*
X0101747Y0074283D01*
X0101423Y007437D01*
X0101255D01*
D01*
X0098425D01*
X0098257D01*
X0097933Y0074283D01*
X0097642Y0074115D01*
X0097405Y0073878D01*
X0097237Y0073587D01*
X009715Y0073263D01*
Y0072927D01*
X0097237Y0072603D01*
X0097405Y0072312D01*
X0097642Y0072075D01*
X0097933Y0071907D01*
X0098257Y007182D01*
X0098425D01*
D01*
X0101255D01*
D02*
G37*
G36*
Y007563D02*
X0101423D01*
X0101747Y0075717D01*
X0102037Y0075885D01*
X0102275Y0076122D01*
X0102443Y0076413D01*
X0102529Y0076737D01*
Y0077073D01*
X0102443Y0077397D01*
X0102275Y0077688D01*
X0102037Y0077925D01*
X0101747Y0078093D01*
X0101423Y007818D01*
X0101255D01*
D01*
X0098425D01*
X0098257D01*
X0097933Y0078093D01*
X0097642Y0077925D01*
X0097405Y0077688D01*
X0097237Y0077397D01*
X009715Y0077073D01*
Y0076737D01*
X0097237Y0076413D01*
X0097405Y0076122D01*
X0097642Y0075885D01*
X0097933Y0075717D01*
X0098257Y007563D01*
X0098425D01*
D01*
X0101255D01*
D02*
G37*
G36*
Y007944D02*
X0101423D01*
X0101747Y0079527D01*
X0102037Y0079695D01*
X0102275Y0079932D01*
X0102443Y0080223D01*
X0102529Y0080547D01*
Y0080883D01*
X0102443Y0081207D01*
X0102275Y0081498D01*
X0102037Y0081735D01*
X0101747Y0081903D01*
X0101423Y008199D01*
X0101255D01*
D01*
X0098425D01*
X0098257D01*
X0097933Y0081903D01*
X0097642Y0081735D01*
X0097405Y0081498D01*
X0097237Y0081207D01*
X009715Y0080883D01*
Y0080547D01*
X0097237Y0080223D01*
X0097405Y0079932D01*
X0097642Y0079695D01*
X0097933Y0079527D01*
X0098257Y007944D01*
X0098425D01*
D01*
X0101255D01*
D02*
G37*
D11*
X00984Y0080715D02*
D03*
Y0076905D02*
D03*
Y0073095D02*
D03*
Y0069285D02*
D03*
D12*
X01115Y0075D02*
D03*
X00785D02*
D03*
D15*
X011675D02*
G03*
X011675Y0075I-002175J0D01*
G01*
M02*
