G04*
G04 #@! TF.GenerationSoftware,Altium Limited,Altium Designer,20.1.8 (145)*
G04*
G04 Layer_Physical_Order=2*
G04 Layer_Color=16711680*
%FSLAX25Y25*%
%MOIN*%
G70*
G04*
G04 #@! TF.SameCoordinates,8766D331-E9FB-46AF-A3FE-A3E5BE2B0BC4*
G04*
G04*
G04 #@! TF.FilePolarity,Positive*
G04*
G01*
G75*
%ADD10C,0.01181*%
%ADD21C,0.03937*%
%ADD22C,0.07874*%
%ADD23C,0.02756*%
G36*
X422699Y464431D02*
X427723Y463799D01*
X432698Y462854D01*
X437604Y461599D01*
X442422Y460038D01*
X447132Y458179D01*
X451717Y456028D01*
X456157Y453593D01*
X460436Y450885D01*
X464537Y447914D01*
X468443Y444691D01*
X472140Y441230D01*
X475612Y437544D01*
X477472Y435304D01*
X477103Y434515D01*
X476529Y434277D01*
X475909Y433801D01*
X475143D01*
X474523Y434277D01*
X473801Y434576D01*
X473026Y434678D01*
X472252Y434576D01*
X471529Y434277D01*
X470909Y433801D01*
X470433Y433181D01*
X470134Y432459D01*
X470032Y431684D01*
X470134Y430909D01*
X470433Y430187D01*
X470909Y429567D01*
Y429285D01*
X470783Y428671D01*
X470781Y428669D01*
X470674Y428578D01*
X470572Y428503D01*
X470475Y428441D01*
X470383Y428393D01*
X470296Y428356D01*
X470213Y428329D01*
X470132Y428310D01*
X470100Y428306D01*
X459735D01*
X459115Y428182D01*
X458589Y427831D01*
X457314Y426556D01*
X456962Y426030D01*
X456839Y425410D01*
Y417632D01*
X456495Y417288D01*
X456144Y416762D01*
X456020Y416142D01*
Y356758D01*
X443346Y344084D01*
X418422D01*
X417801Y343961D01*
X417275Y343609D01*
X410563Y336897D01*
X410212Y336371D01*
X410088Y335750D01*
Y320864D01*
X409995Y320802D01*
X409470Y320016D01*
X409285Y319088D01*
X409470Y318160D01*
X409995Y317373D01*
X410782Y316848D01*
X411710Y316663D01*
X412638Y316848D01*
X413424Y317373D01*
X413950Y318160D01*
X414134Y319088D01*
X413950Y320016D01*
X413424Y320802D01*
X413332Y320864D01*
Y335079D01*
X415982Y337730D01*
X416973Y337607D01*
X417179Y337299D01*
X417965Y336774D01*
X418893Y336589D01*
X419821Y336774D01*
X420608Y337299D01*
X420670Y337392D01*
X443654D01*
X444274Y337516D01*
X444800Y337867D01*
X460970Y354036D01*
X461321Y354563D01*
X461445Y355183D01*
Y364132D01*
X461888Y364407D01*
X462150Y364484D01*
X462232Y364486D01*
X462286Y364432D01*
X462928Y364003D01*
X463021Y363965D01*
X463104Y363909D01*
X463817Y363613D01*
X463916Y363594D01*
X464009Y363555D01*
X464766Y363405D01*
X464841D01*
X464915Y363387D01*
X465300Y363368D01*
X465325Y363371D01*
X465350Y363366D01*
X483032D01*
Y344539D01*
X482138D01*
X481644Y345327D01*
X481862Y345853D01*
X481997Y346881D01*
X481862Y347909D01*
X481465Y348866D01*
X480834Y349689D01*
X480363Y350050D01*
X480619Y350384D01*
X480919Y351106D01*
X481020Y351881D01*
X480919Y352656D01*
X480619Y353378D01*
X480363Y353712D01*
X480834Y354073D01*
X481465Y354895D01*
X481862Y355853D01*
X481997Y356881D01*
X481862Y357909D01*
X481465Y358866D01*
X480834Y359689D01*
X480012Y360320D01*
X479054Y360717D01*
X478026Y360852D01*
X476999Y360717D01*
X476041Y360320D01*
X475526Y359925D01*
X475012Y360320D01*
X474054Y360717D01*
X473026Y360852D01*
X471999Y360717D01*
X471041Y360320D01*
X470219Y359689D01*
X469587Y358866D01*
X469191Y357909D01*
X469055Y356881D01*
X469191Y355853D01*
X469587Y354895D01*
X470219Y354073D01*
X470689Y353712D01*
X470433Y353378D01*
X470134Y352656D01*
X470032Y351881D01*
X470134Y351106D01*
X470433Y350384D01*
X470689Y350050D01*
X470219Y349689D01*
X469587Y348866D01*
X469191Y347909D01*
X469055Y346881D01*
X469191Y345853D01*
X469409Y345327D01*
X468915Y344539D01*
X465154D01*
X465129Y344534D01*
X465103Y344538D01*
X464718Y344519D01*
X464644Y344501D01*
X464569D01*
X463812Y344350D01*
X463719Y344312D01*
X463621Y344292D01*
X462908Y343997D01*
X462824Y343941D01*
X462731Y343902D01*
X462089Y343474D01*
X462018Y343403D01*
X461935Y343347D01*
X461389Y342801D01*
X461334Y342718D01*
X461263Y342647D01*
X460834Y342005D01*
X460795Y341912D01*
X460740Y341829D01*
X460444Y341116D01*
X460425Y341017D01*
X460386Y340924D01*
X460236Y340167D01*
Y340092D01*
X460217Y340019D01*
X460198Y339633D01*
X460202Y339608D01*
X460197Y339583D01*
Y317129D01*
X458623Y316068D01*
X454470Y313585D01*
X450178Y311357D01*
X445760Y309390D01*
X441232Y307691D01*
X436611Y306266D01*
X431913Y305120D01*
X427154Y304258D01*
X422353Y303683D01*
X417526Y303396D01*
X412690Y303399D01*
X407863Y303691D01*
X403062Y304272D01*
X398305Y305140D01*
X393608Y306290D01*
X388988Y307720D01*
X384462Y309424D01*
X380047Y311397D01*
X375757Y313630D01*
X371609Y316115D01*
X370058Y317177D01*
X370065Y339614D01*
X370060Y339639D01*
X370064Y339664D01*
X370045Y340050D01*
X370026Y340123D01*
Y340199D01*
X369876Y340956D01*
X369837Y341048D01*
X369818Y341147D01*
X369523Y341860D01*
X369467Y341943D01*
X369428Y342036D01*
X369000Y342678D01*
X368929Y342749D01*
X368873Y342832D01*
X368327Y343378D01*
X368244Y343434D01*
X368173Y343505D01*
X367531Y343934D01*
X367438Y343972D01*
X367354Y344028D01*
X366641Y344323D01*
X366543Y344343D01*
X366450Y344381D01*
X365693Y344532D01*
X365618D01*
X365544Y344550D01*
X365159Y344569D01*
X365133Y344565D01*
X365108Y344570D01*
X360240D01*
X359851Y345358D01*
X359871Y345384D01*
X360171Y346106D01*
X360273Y346881D01*
X360171Y347656D01*
X359871Y348378D01*
X359396Y348998D01*
Y349764D01*
X359871Y350384D01*
X360171Y351106D01*
X360194Y351284D01*
X360162Y351282D01*
X359989Y351259D01*
X359818Y351219D01*
X359650Y351164D01*
X359483Y351093D01*
X359319Y351007D01*
X359157Y350904D01*
X358997Y350786D01*
X358840Y350653D01*
X358684Y350503D01*
Y353259D01*
X358840Y353109D01*
X358997Y352975D01*
X359157Y352857D01*
X359319Y352755D01*
X359483Y352668D01*
X359650Y352597D01*
X359818Y352542D01*
X359989Y352503D01*
X360162Y352479D01*
X360194Y352478D01*
X360171Y352656D01*
X359871Y353378D01*
X359396Y353998D01*
Y354764D01*
X359871Y355384D01*
X360171Y356106D01*
X360273Y356881D01*
X360171Y357656D01*
X359871Y358378D01*
X359396Y358998D01*
X358775Y359474D01*
X358053Y359773D01*
X357278Y359875D01*
X356503Y359773D01*
X355781Y359474D01*
X355161Y358998D01*
X354396D01*
X353775Y359474D01*
X353053Y359773D01*
X352278Y359875D01*
X351503Y359773D01*
X350781Y359474D01*
X350161Y358998D01*
X349685Y358378D01*
X349386Y357656D01*
X349284Y356881D01*
X349386Y356106D01*
X349685Y355384D01*
X350161Y354764D01*
Y353998D01*
X349685Y353378D01*
X349386Y352656D01*
X349284Y351881D01*
X349386Y351106D01*
X349685Y350384D01*
X350161Y349764D01*
Y348998D01*
X349685Y348378D01*
X349386Y347656D01*
X349284Y346881D01*
X349386Y346106D01*
X349685Y345384D01*
X349705Y345358D01*
X349317Y344570D01*
X347230D01*
Y363366D01*
X364957D01*
X364982Y363371D01*
X365007Y363368D01*
X365393Y363387D01*
X365466Y363405D01*
X365542D01*
X366298Y363555D01*
X366391Y363594D01*
X366490Y363613D01*
X367203Y363909D01*
X367286Y363965D01*
X367379Y364003D01*
X368021Y364432D01*
X368092Y364503D01*
X368175Y364559D01*
X368721Y365104D01*
X368777Y365188D01*
X368848Y365259D01*
X369276Y365900D01*
X369315Y365993D01*
X369371Y366077D01*
X369666Y366790D01*
X369686Y366888D01*
X369724Y366981D01*
X369875Y367738D01*
Y367814D01*
X369893Y367887D01*
X369912Y368273D01*
X369908Y368298D01*
X369913Y368323D01*
Y409661D01*
X369908Y409686D01*
X369912Y409712D01*
X369893Y410097D01*
X369875Y410171D01*
Y410246D01*
X369724Y411003D01*
X369686Y411096D01*
X369666Y411194D01*
X369371Y411907D01*
X369315Y411991D01*
X369276Y412084D01*
X368848Y412725D01*
X368777Y412796D01*
X368721Y412880D01*
X368175Y413426D01*
X368092Y413482D01*
X368021Y413553D01*
X367379Y413981D01*
X367286Y414020D01*
X367203Y414076D01*
X366490Y414371D01*
X366391Y414390D01*
X366298Y414429D01*
X365542Y414579D01*
X365466D01*
X365393Y414598D01*
X365007Y414617D01*
X364982Y414613D01*
X364957Y414618D01*
X347230D01*
Y427601D01*
X348431Y429487D01*
X348934Y430180D01*
X349802Y430034D01*
X350161Y429567D01*
Y428801D01*
X349685Y428181D01*
X349386Y427459D01*
X349284Y426684D01*
X349386Y425909D01*
X349685Y425187D01*
X350161Y424567D01*
Y423801D01*
X349685Y423181D01*
X349386Y422459D01*
X349284Y421684D01*
X349386Y420909D01*
X349685Y420187D01*
X350161Y419567D01*
X350781Y419091D01*
X351503Y418792D01*
X352278Y418690D01*
X353053Y418792D01*
X353775Y419091D01*
X354396Y419567D01*
X355161D01*
X355781Y419091D01*
X356503Y418792D01*
X357278Y418690D01*
X358053Y418792D01*
X358775Y419091D01*
X359396Y419567D01*
X359871Y420187D01*
X360171Y420909D01*
X360273Y421684D01*
X360171Y422459D01*
X359871Y423181D01*
X359396Y423801D01*
Y424567D01*
X359871Y425187D01*
X360171Y425909D01*
X360273Y426684D01*
X360171Y427459D01*
X359871Y428181D01*
X359396Y428801D01*
Y429421D01*
X359282Y429265D01*
X359149Y429386D01*
X359008Y429490D01*
X358859Y429579D01*
X358702Y429651D01*
X358537Y429707D01*
X358365Y429746D01*
X358184Y429769D01*
X357995Y429776D01*
X357799Y429767D01*
X357594Y429741D01*
X359227Y431961D01*
X359264Y431740D01*
X359363Y431330D01*
X359426Y431141D01*
X359497Y430963D01*
X359577Y430796D01*
X359665Y430639D01*
X359763Y430493D01*
X359869Y430358D01*
X359919Y430303D01*
X360171Y430909D01*
X360273Y431684D01*
X360171Y432459D01*
X359871Y433181D01*
X359702Y433401D01*
X357632Y431330D01*
X356925Y432038D01*
X358995Y434108D01*
X358775Y434277D01*
X358053Y434576D01*
X357278Y434678D01*
X356503Y434576D01*
X355781Y434277D01*
X355161Y433801D01*
X354396D01*
X353775Y434277D01*
X353204Y434514D01*
X352836Y435304D01*
X354641Y437482D01*
X358109Y441172D01*
X361802Y444637D01*
X365705Y447863D01*
X369803Y450839D01*
X374079Y453551D01*
X378517Y455990D01*
X383100Y458146D01*
X387808Y460010D01*
X392624Y461576D01*
X397529Y462836D01*
X402503Y463786D01*
X407527Y464423D01*
X412580Y464743D01*
X417645Y464746D01*
X422699Y464431D01*
D02*
G37*
G36*
X479797Y427565D02*
X479856Y427504D01*
X479929Y427450D01*
X480015Y427403D01*
X480114Y427364D01*
X480226Y427332D01*
X480352Y427307D01*
X480491Y427289D01*
X480643Y427278D01*
X480808Y427275D01*
Y426093D01*
X480643Y426090D01*
X480352Y426061D01*
X480226Y426036D01*
X480114Y426004D01*
X480015Y425964D01*
X479929Y425918D01*
X479856Y425864D01*
X479797Y425803D01*
X479751Y425735D01*
Y427633D01*
X479797Y427565D01*
D02*
G37*
G36*
X471621Y425306D02*
X471465Y425456D01*
X471308Y425590D01*
X471148Y425708D01*
X470986Y425810D01*
X470821Y425897D01*
X470655Y425968D01*
X470486Y426023D01*
X470316Y426062D01*
X470143Y426086D01*
X469968Y426093D01*
Y427275D01*
X470143Y427282D01*
X470316Y427306D01*
X470486Y427345D01*
X470655Y427400D01*
X470821Y427471D01*
X470986Y427558D01*
X471148Y427660D01*
X471308Y427778D01*
X471465Y427912D01*
X471621Y428062D01*
Y425306D01*
D02*
G37*
G36*
X419787Y339796D02*
X419846Y339756D01*
X419914Y339720D01*
X419990Y339690D01*
X420075Y339664D01*
X420167Y339642D01*
X420269Y339626D01*
X420379Y339614D01*
X420625Y339604D01*
Y338423D01*
X420498Y338421D01*
X420269Y338402D01*
X420167Y338386D01*
X420075Y338364D01*
X419990Y338338D01*
X419914Y338308D01*
X419846Y338272D01*
X419787Y338232D01*
X419737Y338187D01*
Y339841D01*
X419787Y339796D01*
D02*
G37*
G36*
X412303Y320692D02*
X412322Y320464D01*
X412338Y320362D01*
X412359Y320269D01*
X412385Y320184D01*
X412416Y320109D01*
X412452Y320041D01*
X412492Y319982D01*
X412537Y319931D01*
X410883D01*
X410928Y319982D01*
X410968Y320041D01*
X411003Y320109D01*
X411034Y320184D01*
X411060Y320269D01*
X411082Y320362D01*
X411098Y320464D01*
X411110Y320574D01*
X411119Y320819D01*
X412300D01*
X412303Y320692D01*
D02*
G37*
%LPC*%
G36*
X437201Y450468D02*
X435912Y450298D01*
X434711Y449801D01*
X433680Y449009D01*
X432888Y447978D01*
X432391Y446777D01*
X432221Y445488D01*
X432391Y444199D01*
X432888Y442998D01*
X433680Y441967D01*
X434711Y441176D01*
X435912Y440678D01*
X437201Y440509D01*
X438490Y440678D01*
X439691Y441176D01*
X440722Y441967D01*
X441513Y442998D01*
X442011Y444199D01*
X442180Y445488D01*
X442011Y446777D01*
X441513Y447978D01*
X440722Y449009D01*
X439691Y449801D01*
X438490Y450298D01*
X437201Y450468D01*
D02*
G37*
G36*
X423421D02*
X422132Y450298D01*
X420931Y449801D01*
X419900Y449009D01*
X419109Y447978D01*
X418611Y446777D01*
X418442Y445488D01*
X418611Y444199D01*
X419109Y442998D01*
X419900Y441967D01*
X420931Y441176D01*
X422132Y440678D01*
X423421Y440509D01*
X424710Y440678D01*
X425911Y441176D01*
X426942Y441967D01*
X427734Y442998D01*
X428231Y444199D01*
X428401Y445488D01*
X428231Y446777D01*
X427734Y447978D01*
X426942Y449009D01*
X425911Y449801D01*
X424710Y450298D01*
X423421Y450468D01*
D02*
G37*
G36*
X409642D02*
X408353Y450298D01*
X407152Y449801D01*
X406121Y449009D01*
X405329Y447978D01*
X404832Y446777D01*
X404662Y445488D01*
X404832Y444199D01*
X405329Y442998D01*
X406121Y441967D01*
X407152Y441176D01*
X408353Y440678D01*
X409642Y440509D01*
X410931Y440678D01*
X412132Y441176D01*
X413163Y441967D01*
X413954Y442998D01*
X414452Y444199D01*
X414621Y445488D01*
X414452Y446777D01*
X413954Y447978D01*
X413163Y449009D01*
X412132Y449801D01*
X410931Y450298D01*
X409642Y450468D01*
D02*
G37*
G36*
X395862D02*
X394573Y450298D01*
X393372Y449801D01*
X392341Y449009D01*
X391550Y447978D01*
X391052Y446777D01*
X390883Y445488D01*
X391052Y444199D01*
X391550Y442998D01*
X392341Y441967D01*
X393372Y441176D01*
X394573Y440678D01*
X395862Y440509D01*
X397151Y440678D01*
X398352Y441176D01*
X399383Y441967D01*
X400175Y442998D01*
X400672Y444199D01*
X400842Y445488D01*
X400672Y446777D01*
X400175Y447978D01*
X399383Y449009D01*
X398352Y449801D01*
X397151Y450298D01*
X395862Y450468D01*
D02*
G37*
G36*
X445075Y335674D02*
X443917Y335560D01*
X442804Y335223D01*
X441778Y334674D01*
X440879Y333936D01*
X440141Y333037D01*
X439592Y332011D01*
X439255Y330898D01*
X439141Y329740D01*
X439255Y328583D01*
X439592Y327469D01*
X440141Y326443D01*
X440879Y325544D01*
X441778Y324806D01*
X442804Y324258D01*
X443917Y323920D01*
X445075Y323806D01*
X446233Y323920D01*
X447346Y324258D01*
X448372Y324806D01*
X449271Y325544D01*
X450009Y326443D01*
X450557Y327469D01*
X450895Y328583D01*
X451009Y329740D01*
X450895Y330898D01*
X450557Y332011D01*
X450009Y333037D01*
X449271Y333936D01*
X448372Y334674D01*
X447346Y335223D01*
X446233Y335560D01*
X445075Y335674D01*
D02*
G37*
G36*
X431295D02*
X430138Y335560D01*
X429024Y335223D01*
X427998Y334674D01*
X427099Y333936D01*
X426361Y333037D01*
X425813Y332011D01*
X425475Y330898D01*
X425361Y329740D01*
X425475Y328583D01*
X425813Y327469D01*
X426361Y326443D01*
X427099Y325544D01*
X427998Y324806D01*
X429024Y324258D01*
X430138Y323920D01*
X431295Y323806D01*
X432453Y323920D01*
X433566Y324258D01*
X434592Y324806D01*
X435491Y325544D01*
X436229Y326443D01*
X436778Y327469D01*
X437115Y328583D01*
X437229Y329740D01*
X437115Y330898D01*
X436778Y332011D01*
X436229Y333037D01*
X435491Y333936D01*
X434592Y334674D01*
X433566Y335223D01*
X432453Y335560D01*
X431295Y335674D01*
D02*
G37*
%LPD*%
D10*
X418893Y339014D02*
X443654D01*
X459823Y355183D01*
X418422Y342462D02*
X444017D01*
X411710Y335750D02*
X418422Y342462D01*
X411710Y319088D02*
Y335750D01*
X444017Y342462D02*
X457642Y356087D01*
X478026Y426684D02*
X480808D01*
X482083Y425410D01*
Y419504D02*
Y425410D01*
X480114Y417535D02*
X482083Y419504D01*
X462398Y417535D02*
X480114D01*
X459823Y414961D02*
X462398Y417535D01*
X459823Y355183D02*
Y414961D01*
X459735Y426684D02*
X473026D01*
X458461Y425410D02*
X459735Y426684D01*
X458461Y416961D02*
Y425410D01*
X457642Y416142D02*
X458461Y416961D01*
X457642Y356087D02*
Y416142D01*
X357278Y351881D02*
X361314D01*
X472999Y351908D02*
X473026Y351881D01*
X468970Y351908D02*
X472999D01*
X357278Y431684D02*
X357698D01*
X360035Y429347D01*
D21*
X473026Y431684D02*
D03*
X478026D02*
D03*
X473026Y426684D02*
D03*
X478026D02*
D03*
X473026Y421684D02*
D03*
X478026D02*
D03*
X352278Y431684D02*
D03*
X357278D02*
D03*
X352278Y426684D02*
D03*
X357278D02*
D03*
X352278Y421684D02*
D03*
X357278D02*
D03*
X473026Y356881D02*
D03*
X478026D02*
D03*
X473026Y351881D02*
D03*
X478026D02*
D03*
X473026Y346881D02*
D03*
X478026D02*
D03*
X357278D02*
D03*
X352278D02*
D03*
X357278Y351881D02*
D03*
X352278D02*
D03*
X357278Y356881D02*
D03*
X352278D02*
D03*
D22*
X395862Y445488D02*
D03*
X409642D02*
D03*
X423421D02*
D03*
X437201D02*
D03*
X431295Y329740D02*
D03*
X445075D02*
D03*
D23*
X418893Y339014D02*
D03*
X411710Y319088D02*
D03*
M02*
