G04*
G04 #@! TF.GenerationSoftware,Altium Limited,Altium Designer,20.1.8 (145)*
G04*
G04 Layer_Physical_Order=1*
G04 Layer_Color=255*
%FSTAX43Y43*%
%MOMM*%
G71*
G04*
G04 #@! TF.SameCoordinates,DEFF2A6E-5F0D-40BF-B6DE-29F6B0C5E57E*
G04*
G04*
G04 #@! TF.FilePolarity,Positive*
G04*
G01*
G75*
%ADD10C,0.250*%
%ADD13C,0.200*%
%ADD15R,1.000X0.900*%
%ADD18R,0.900X1.000*%
G04:AMPARAMS|DCode=33|XSize=0.9mm|YSize=0.8mm|CornerRadius=0.2mm|HoleSize=0mm|Usage=FLASHONLY|Rotation=270.000|XOffset=0mm|YOffset=0mm|HoleType=Round|Shape=RoundedRectangle|*
%AMROUNDEDRECTD33*
21,1,0.900,0.400,0,0,270.0*
21,1,0.500,0.800,0,0,270.0*
1,1,0.400,-0.200,-0.250*
1,1,0.400,-0.200,0.250*
1,1,0.400,0.200,0.250*
1,1,0.400,0.200,-0.250*
%
%ADD33ROUNDEDRECTD33*%
G04:AMPARAMS|DCode=34|XSize=0.9mm|YSize=0.8mm|CornerRadius=0.2mm|HoleSize=0mm|Usage=FLASHONLY|Rotation=0.000|XOffset=0mm|YOffset=0mm|HoleType=Round|Shape=RoundedRectangle|*
%AMROUNDEDRECTD34*
21,1,0.900,0.400,0,0,0.0*
21,1,0.500,0.800,0,0,0.0*
1,1,0.400,0.250,-0.200*
1,1,0.400,-0.250,-0.200*
1,1,0.400,-0.250,0.200*
1,1,0.400,0.250,0.200*
%
%ADD34ROUNDEDRECTD34*%
%ADD35R,0.800X0.900*%
%ADD36R,0.900X0.800*%
%ADD37R,1.450X0.450*%
%ADD38O,0.700X0.200*%
%ADD39O,0.200X0.700*%
%ADD40R,2.900X2.900*%
%ADD41R,0.600X1.100*%
%ADD42R,0.350X0.500*%
%ADD43R,0.850X0.850*%
%ADD44R,2.300X2.500*%
%ADD45R,0.500X0.400*%
%ADD46R,1.100X0.600*%
%ADD47C,0.300*%
%ADD48C,0.500*%
%ADD49C,1.000*%
%ADD50C,0.700*%
%ADD51C,0.600*%
G36*
X0064745Y002638D02*
X0031255D01*
Y0028125D01*
Y004787D01*
X0064745D01*
Y002638D01*
D02*
G37*
%LPC*%
G36*
X00565Y0047525D02*
X00551D01*
Y0047503D01*
X0055002Y0047423D01*
X0054949Y0047433D01*
X0054734Y0047391D01*
X0054552Y0047269D01*
X0054431Y0047087D01*
X0054388Y0046873D01*
X0054431Y0046658D01*
X0054552Y0046476D01*
X0054734Y0046354D01*
X0054949Y0046312D01*
X0055002Y0046322D01*
X00551Y0046242D01*
Y0045625D01*
X00551Y0045625D01*
Y0045531D01*
X005505Y0045425D01*
X005235D01*
Y0042525D01*
X005225Y0042459D01*
X0051546D01*
X005141Y0042432D01*
X0051294Y0042354D01*
X0050794Y0041854D01*
X0050716Y0041738D01*
X0050689Y0041602D01*
Y0037849D01*
X0050716Y0037712D01*
X0050794Y0037596D01*
X0051717Y0036673D01*
X0051833Y0036595D01*
X005197Y0036568D01*
X005495D01*
Y0035175D01*
X005515D01*
Y0034374D01*
X005513Y0034361D01*
X0054957Y0034394D01*
X0054952Y0034402D01*
X0054777Y0034577D01*
X0054661Y0034655D01*
X0054524Y0034682D01*
X0053937D01*
X0053927Y0034731D01*
X0053838Y0034863D01*
X0053706Y0034952D01*
X005355Y0034983D01*
X005315D01*
X0052994Y0034952D01*
X0052862Y0034863D01*
X0052773Y0034731D01*
X0052765Y0034689D01*
X0052635D01*
X0052627Y0034731D01*
X0052538Y0034863D01*
X0052406Y0034952D01*
X005225Y0034983D01*
X005215D01*
Y0034325D01*
Y0033667D01*
X005225D01*
X0052406Y0033698D01*
X0052538Y0033787D01*
X0052627Y0033919D01*
X0052635Y0033961D01*
X0052765D01*
X0052773Y0033919D01*
X0052862Y0033787D01*
X0052994Y0033698D01*
X0053043Y0033688D01*
Y0030526D01*
X005307Y0030389D01*
X0053148Y0030273D01*
X0053252Y0030169D01*
X0053301Y0030066D01*
X005325Y0029996D01*
X0053073Y0029818D01*
X0052995Y0029702D01*
X0052968Y0029566D01*
Y002835D01*
X0052875D01*
Y002755D01*
X0053775D01*
Y002835D01*
X0053682D01*
Y0029418D01*
X0053707Y0029443D01*
X0055843D01*
X005585Y0029431D01*
X0055876Y0029316D01*
X0055756Y0029224D01*
X0055644Y0029078D01*
X0055573Y0028908D01*
X0055549Y0028725D01*
X0055573Y0028542D01*
X0055644Y0028372D01*
X0055756Y0028226D01*
X005583Y0028169D01*
Y0028011D01*
X0055756Y0027954D01*
X0055644Y0027808D01*
X0055573Y0027638D01*
X0055549Y0027455D01*
X0055573Y0027272D01*
X0055644Y0027102D01*
X0055756Y0026956D01*
X0055902Y0026844D01*
X0056072Y0026773D01*
X0056255Y0026749D01*
X0056438Y0026773D01*
X0056608Y0026844D01*
X0056754Y0026956D01*
X0056811Y002703D01*
X0056959D01*
X0057454Y0027526D01*
X0057596Y0027384D01*
X0057106Y0026894D01*
X0057172Y0026844D01*
X0057342Y0026773D01*
X0057525Y0026749D01*
X0057708Y0026773D01*
X0057878Y0026844D01*
X0057888Y0026851D01*
X0057866Y0026863D01*
X0057825Y0026881D01*
X0057778Y0026898D01*
X0057727Y0026914D01*
X005761Y0026939D01*
X0057544Y0026949D01*
X0057473Y0026958D01*
X0058021Y0027393D01*
X0058015Y0027329D01*
X0058012Y0027268D01*
X0058013Y0027212D01*
X0058017Y0027159D01*
X0058025Y0027109D01*
X0058037Y0027064D01*
X0058052Y0027023D01*
X0058062Y0027004D01*
X0058081Y002703D01*
X0058239D01*
X0058296Y0026956D01*
X0058442Y0026844D01*
X0058612Y0026773D01*
X0058795Y0026749D01*
X0058978Y0026773D01*
X0059148Y0026844D01*
X0059294Y0026956D01*
X0059406Y0027102D01*
X0059477Y0027272D01*
X0059501Y0027455D01*
X0059477Y0027638D01*
X0059406Y0027808D01*
X0059294Y0027954D01*
X005922Y0028011D01*
Y0028169D01*
X0059294Y0028226D01*
X0059406Y0028372D01*
X0059477Y0028542D01*
X0059501Y0028725D01*
X0059477Y0028908D01*
X0059406Y0029078D01*
X0059294Y0029224D01*
X0059174Y0029316D01*
X00592Y0029431D01*
X0059207Y0029443D01*
X0062925D01*
X0063062Y002947D01*
X0063177Y0029548D01*
X0063502Y0029873D01*
X006358Y0029988D01*
X0063607Y0030125D01*
Y0030638D01*
X0063656Y0030648D01*
X0063788Y0030737D01*
X0063877Y0030869D01*
X0063901Y0030988D01*
X0064036Y0031015D01*
X0064152Y0031093D01*
X0064327Y0031268D01*
X0064405Y0031384D01*
X0064432Y0031521D01*
Y0033449D01*
X0064405Y0033586D01*
X0064327Y0033702D01*
X0064152Y0033877D01*
X0064036Y0033955D01*
X0063899Y0033982D01*
X006275D01*
Y0034175D01*
X006125D01*
Y0033175D01*
Y0032825D01*
X0062D01*
Y0032625D01*
X006125D01*
Y0032225D01*
Y0031275D01*
X0061663D01*
X006167Y0031238D01*
X0061748Y0031123D01*
X0061948Y0030923D01*
X0062063Y0030845D01*
X00622Y0030818D01*
X0062657D01*
X0062712Y0030737D01*
X0062844Y0030648D01*
X0062893Y0030638D01*
Y0030273D01*
X0062777Y0030157D01*
X0057816D01*
X0057803Y0030284D01*
X0057861Y0030295D01*
X0057977Y0030373D01*
X0058152Y0030548D01*
X005823Y0030664D01*
X0058257Y0030801D01*
Y0030963D01*
X0058306Y0030973D01*
X0058409Y0031042D01*
X00585D01*
X0058676Y0031077D01*
X0058824Y0031176D01*
X0058873Y0031249D01*
X005889Y0031266D01*
X005935D01*
X0059394Y0031275D01*
X006015D01*
Y0032275D01*
X005865D01*
Y0032174D01*
X0058524Y0032149D01*
X0058399Y0032065D01*
X0058306Y0032127D01*
X0058264Y0032135D01*
Y0032265D01*
X0058306Y0032273D01*
X0058438Y0032362D01*
X0058527Y0032494D01*
X0058558Y003265D01*
Y003275D01*
X0057242D01*
Y003265D01*
X0057273Y0032494D01*
X0057362Y0032362D01*
X0057494Y0032273D01*
X0057536Y0032265D01*
Y0032135D01*
X0057494Y0032127D01*
X0057362Y0032038D01*
X0057273Y0031906D01*
X0057242Y003175D01*
Y003135D01*
X0057273Y0031194D01*
X005733Y0031109D01*
X005727Y0030982D01*
X0056977D01*
X0056961Y0030984D01*
X0056945Y0030988D01*
X0056932Y0030992D01*
X0056921Y0030996D01*
X0056913Y0031D01*
X0056909Y0031002D01*
X0056897Y0031022D01*
X0056715Y0031143D01*
X00565Y0031186D01*
X0056285Y0031143D01*
X0056152Y0031054D01*
X0056025Y0031115D01*
Y003131D01*
X0056066Y0031318D01*
X0056182Y0031396D01*
X0056929Y0032143D01*
X0057007Y0032259D01*
X0057034Y0032396D01*
Y0033975D01*
X005765D01*
Y0035175D01*
X005785D01*
Y0036675D01*
X0057234D01*
X00572Y0036682D01*
X0057007D01*
Y0036956D01*
X005698Y0037093D01*
X0056902Y0037209D01*
X0056653Y0037458D01*
X0056702Y0037575D01*
X00569D01*
Y0038225D01*
X00564D01*
X00559D01*
Y0037782D01*
X0052401D01*
X0051957Y0038226D01*
Y0041191D01*
X005225D01*
X005235Y0041125D01*
Y0038225D01*
X005505D01*
Y0040641D01*
X0055057Y0040675D01*
Y0041191D01*
X0055354D01*
X005549Y0041218D01*
X0055606Y0041296D01*
X0056392Y0042081D01*
X0056469Y0042197D01*
X0056496Y0042334D01*
Y0043357D01*
X0056683Y0043543D01*
X00568Y0043494D01*
Y0042925D01*
X00579D01*
X00579Y0042925D01*
X00587D01*
X00587Y0042925D01*
X00598D01*
Y004382D01*
X0060192Y0044213D01*
X006027Y0044328D01*
X0060297Y0044465D01*
Y0044786D01*
X0060299Y00448D01*
X0060305Y0044825D01*
X0060313Y0044851D01*
X0060324Y0044877D01*
X0060339Y0044904D01*
X0060356Y0044933D01*
X0060378Y0044962D01*
X0060403Y0044992D01*
X0060428Y0045017D01*
X0060439Y0045026D01*
X0060551Y0045172D01*
X0060622Y0045342D01*
X0060646Y0045525D01*
X0060622Y0045708D01*
X0060551Y0045878D01*
X0060439Y0046024D01*
X0060365Y0046081D01*
Y0046239D01*
X0060439Y0046296D01*
X0060551Y0046442D01*
X0060622Y0046612D01*
X0060646Y0046795D01*
X0060622Y0046978D01*
X0060551Y0047148D01*
X0060439Y0047294D01*
X0060293Y0047406D01*
X0060123Y0047477D01*
X005994Y0047501D01*
X0059757Y0047477D01*
X0059587Y0047406D01*
X0059441Y0047294D01*
X0059384Y004722D01*
X0059226D01*
X0059169Y0047294D01*
X0059023Y0047406D01*
X0058853Y0047477D01*
X005867Y0047501D01*
X0058487Y0047477D01*
X0058317Y0047406D01*
X0058171Y0047294D01*
X0058114Y004722D01*
X0057956D01*
X0057899Y0047294D01*
X0057753Y0047406D01*
X0057583Y0047477D01*
X00574Y0047501D01*
X0057217Y0047477D01*
X0057047Y0047406D01*
X0056901Y0047294D01*
X0056789Y0047148D01*
X0056718Y0046978D01*
X0056694Y0046795D01*
X0056718Y0046612D01*
X0056789Y0046442D01*
X0056901Y0046296D01*
X0056975Y0046239D01*
Y0046081D01*
X0056901Y0046024D01*
X0056789Y0045878D01*
X0056718Y0045708D01*
X0056694Y0045525D01*
X0056718Y0045342D01*
X0056789Y0045172D01*
X0056901Y0045026D01*
X0057047Y0044914D01*
X0057217Y0044843D01*
X00574Y0044819D01*
X0057583Y0044843D01*
X0057753Y0044914D01*
X0057899Y0045026D01*
X0057956Y00451D01*
X0058114D01*
X0058171Y0045026D01*
X0058317Y0044914D01*
X0058487Y0044843D01*
X005867Y0044819D01*
X0058853Y0044843D01*
X0059023Y0044914D01*
X0059169Y0045026D01*
X0059226Y00451D01*
X0059384D01*
X0059441Y0045026D01*
X0059452Y0045017D01*
X0059477Y0044992D01*
X0059502Y0044962D01*
X0059524Y0044933D01*
X0059541Y0044904D01*
X0059556Y0044877D01*
X0059567Y0044851D01*
X0059575Y0044825D01*
X0059581Y00448D01*
X0059583Y0044786D01*
Y0044613D01*
X0059295Y0044325D01*
X00587D01*
X00587Y0044325D01*
X00579D01*
X00579Y0044325D01*
X0057305D01*
X0057287Y0044343D01*
X0057171Y004442D01*
X0057034Y0044448D01*
X0056779D01*
X0056725Y0044449D01*
X0056659Y0044564D01*
Y0044723D01*
X0056632Y0044859D01*
X0056555Y0044975D01*
X00565Y004503D01*
Y0045625D01*
X00565Y0045625D01*
Y0046425D01*
X00565Y0046425D01*
Y0047525D01*
D02*
G37*
G36*
X004094Y0047501D02*
X0040757Y0047477D01*
X0040587Y0047406D01*
X0040441Y0047294D01*
X0040384Y004722D01*
X0040236D01*
X0039741Y0046724D01*
X0039599Y0046866D01*
X0040089Y0047356D01*
X0040023Y0047406D01*
X0039853Y0047477D01*
X003967Y0047501D01*
X0039487Y0047477D01*
X0039317Y0047406D01*
X003931Y0047401D01*
X0039332Y0047389D01*
X0039373Y004737D01*
X003942Y0047353D01*
X0039471Y0047338D01*
X0039588Y0047311D01*
X0039654Y0047301D01*
X0039725Y0047292D01*
X0039174Y004686D01*
X0039181Y0046924D01*
X0039184Y0046985D01*
X0039184Y0047041D01*
X003918Y0047094D01*
X0039172Y0047143D01*
X003916Y0047189D01*
X0039145Y004723D01*
X0039136Y0047248D01*
X0039114Y004722D01*
X0038956D01*
X0038899Y0047294D01*
X0038753Y0047406D01*
X0038583Y0047477D01*
X00384Y0047501D01*
X0038217Y0047477D01*
X0038047Y0047406D01*
X0037901Y0047294D01*
X0037789Y0047148D01*
X0037718Y0046978D01*
X0037694Y0046795D01*
X0037718Y0046612D01*
X0037789Y0046442D01*
X0037901Y0046296D01*
X0037975Y0046239D01*
Y0046081D01*
X0037901Y0046024D01*
X0037789Y0045878D01*
X0037718Y0045708D01*
X0037694Y0045525D01*
X0037718Y0045342D01*
X0037789Y0045172D01*
X0037901Y0045026D01*
X0038047Y0044914D01*
X0038217Y0044843D01*
X00384Y0044819D01*
X0038583Y0044843D01*
X0038753Y0044914D01*
X0038899Y0045026D01*
X0038956Y00451D01*
X0039114D01*
X0039171Y0045026D01*
X0039317Y0044914D01*
X0039487Y0044843D01*
X003967Y0044819D01*
X0039853Y0044843D01*
X0040023Y0044914D01*
X0040169Y0045026D01*
X0040226Y00451D01*
X0040384D01*
X0040441Y0045026D01*
X0040587Y0044914D01*
X0040757Y0044843D01*
X004094Y0044819D01*
X0041123Y0044843D01*
X0041293Y0044914D01*
X0041439Y0045026D01*
X0041551Y0045172D01*
X0041622Y0045342D01*
X0041646Y0045525D01*
X0041622Y0045708D01*
X0041551Y0045878D01*
X0041439Y0046024D01*
X0041365Y0046081D01*
Y0046239D01*
X0041439Y0046296D01*
X0041551Y0046442D01*
X0041622Y0046612D01*
X0041646Y0046795D01*
X0041622Y0046978D01*
X0041551Y0047148D01*
X0041439Y0047294D01*
X0041293Y0047406D01*
X0041123Y0047477D01*
X004094Y0047501D01*
D02*
G37*
G36*
X0062553Y004743D02*
X0062338Y0047387D01*
X0062156Y0047266D01*
X0062035Y0047084D01*
X0061992Y0046869D01*
X0062035Y0046655D01*
X0062156Y0046473D01*
X0062338Y0046351D01*
X0062553Y0046309D01*
X0062768Y0046351D01*
X0062949Y0046473D01*
X0063071Y0046655D01*
X0063114Y0046869D01*
X0063071Y0047084D01*
X0062949Y0047266D01*
X0062768Y0047387D01*
X0062553Y004743D01*
D02*
G37*
G36*
X003594Y0045881D02*
X0035757Y0045857D01*
X0035587Y0045786D01*
X0035441Y0045674D01*
X0035384Y00456D01*
X0035226D01*
X0035169Y0045674D01*
X0035023Y0045786D01*
X0034853Y0045857D01*
X003467Y0045881D01*
X0034487Y0045857D01*
X0034317Y0045786D01*
X0034171Y0045674D01*
X0034114Y00456D01*
X0033956D01*
X0033899Y0045674D01*
X0033753Y0045786D01*
X0033583Y0045857D01*
X00334Y0045881D01*
X0033217Y0045857D01*
X0033047Y0045786D01*
X0032901Y0045674D01*
X0032789Y0045528D01*
X0032718Y0045358D01*
X0032694Y0045175D01*
X0032718Y0044992D01*
X0032789Y0044822D01*
X0032901Y0044676D01*
X0032975Y0044619D01*
Y0044461D01*
X0032901Y0044404D01*
X0032789Y0044258D01*
X0032718Y0044088D01*
X0032694Y0043905D01*
X0032718Y0043722D01*
X0032789Y0043552D01*
X0032901Y0043406D01*
X0033047Y0043294D01*
X0033217Y0043223D01*
X00334Y0043199D01*
X0033583Y0043223D01*
X0033753Y0043294D01*
X0033899Y0043406D01*
X0033956Y004348D01*
X0034114D01*
X0034171Y0043406D01*
X0034317Y0043294D01*
X0034487Y0043223D01*
X003467Y0043199D01*
X0034685Y0043201D01*
X003472Y00432D01*
X0034759Y0043197D01*
X0034794Y0043192D01*
X0034827Y0043184D01*
X0034856Y0043175D01*
X0034883Y0043165D01*
X0034907Y0043152D01*
X0034929Y0043138D01*
X0034941Y004313D01*
X0035078Y0042993D01*
X0035071Y0042906D01*
X0035051Y0042887D01*
X0034954Y0042822D01*
X0034794Y0042843D01*
X0034612Y0042819D01*
X0034441Y0042749D01*
X0034295Y0042637D01*
X0034238Y0042562D01*
X0034091D01*
X0033595Y0042067D01*
X0033454Y0042208D01*
X0033943Y0042698D01*
X0033877Y0042749D01*
X0033707Y0042819D01*
X0033524Y0042843D01*
X0033342Y0042819D01*
X0033171Y0042749D01*
X0033025Y0042637D01*
X0032968Y0042562D01*
X0032811D01*
X0032754Y0042637D01*
X0032607Y0042749D01*
X0032437Y0042819D01*
X0032254Y0042843D01*
X0032072Y0042819D01*
X0031901Y0042749D01*
X0031755Y0042637D01*
X0031643Y004249D01*
X0031572Y004232D01*
X0031548Y0042137D01*
X0031572Y0041955D01*
X0031643Y0041784D01*
X0031755Y0041638D01*
X0031829Y0041581D01*
Y0041424D01*
X0031755Y0041367D01*
X0031643Y004122D01*
X0031572Y004105D01*
X0031548Y0040867D01*
X0031572Y0040685D01*
X0031643Y0040514D01*
X0031755Y0040368D01*
X0031901Y0040256D01*
X0032072Y0040185D01*
X0032254Y0040161D01*
X0032437Y0040185D01*
X0032607Y0040256D01*
X0032754Y0040368D01*
X0032811Y0040442D01*
X0032958D01*
X0033454Y0040938D01*
X0033595Y0040797D01*
X0033105Y0040307D01*
X0033171Y0040256D01*
X0033342Y0040185D01*
X0033524Y0040161D01*
X0033707Y0040185D01*
X0033877Y0040256D01*
X0033935Y00403D01*
X0033918Y0040309D01*
X0033876Y0040326D01*
X003383Y004034D01*
X003378Y0040351D01*
X0033725Y0040359D01*
X0033666Y0040365D01*
X0033535Y0040367D01*
X0034024Y0040868D01*
X0034026Y00408D01*
X0034036Y0040677D01*
X0034046Y0040622D01*
X0034058Y0040571D01*
X0034072Y0040525D01*
X003409Y0040484D01*
X0034109Y0040446D01*
X0034112Y0040442D01*
X0034228D01*
X0034724Y0040938D01*
X0034865Y0040797D01*
X0034375Y0040307D01*
X0034441Y0040256D01*
X0034612Y0040185D01*
X0034794Y0040161D01*
X0034977Y0040185D01*
X0035111Y0040241D01*
X0035094Y0040257D01*
X0035064Y0040282D01*
X0035034Y0040304D01*
X0035005Y0040323D01*
X0034975Y0040338D01*
X0034945Y0040351D01*
X0034916Y004036D01*
X0034886Y0040366D01*
X0034857Y0040369D01*
X0034827Y0040368D01*
X0035222Y0040609D01*
X0035209Y0040584D01*
X00352Y004056D01*
X0035195Y0040536D01*
X0035194Y0040512D01*
X0035196Y0040488D01*
X0035202Y0040465D01*
X0035212Y0040441D01*
X0035226Y0040417D01*
X0035244Y0040394D01*
X0035265Y0040371D01*
X0035159Y0040265D01*
X0035174Y0040276D01*
X0035287Y004022D01*
Y0039892D01*
X0034945Y003955D01*
X003425D01*
Y0039375D01*
X003295D01*
Y0038175D01*
X003295D01*
Y0038075D01*
X003295D01*
Y0036875D01*
X003425D01*
Y0037093D01*
X00346D01*
X0034737Y003712D01*
X0034846Y0037193D01*
X0035077D01*
X0035101Y0037191D01*
X0035119Y0037188D01*
X0035138Y0037185D01*
X0035154Y003718D01*
X0035168Y0037176D01*
X0035179Y0037171D01*
X0035189Y0037166D01*
X0035204Y0037157D01*
X0035218Y0037152D01*
X0035285Y0037107D01*
X00355Y0037064D01*
X0035715Y0037107D01*
X0035757Y0037135D01*
X0035869Y0037075D01*
Y0036775D01*
X003565D01*
Y0036456D01*
X0032784D01*
X0032586Y0036654D01*
Y0038621D01*
X0032586Y0038623D01*
X0032589Y0038638D01*
X0032593Y0038653D01*
X0032598Y0038666D01*
X0032604Y0038678D01*
X0032611Y0038691D01*
X0032619Y0038704D01*
X0032626Y0038712D01*
X0032651Y0038728D01*
X0032772Y003891D01*
X0032815Y0039125D01*
X0032772Y003934D01*
X0032651Y0039522D01*
X0032469Y0039643D01*
X0032254Y0039686D01*
X003204Y0039643D01*
X0031858Y0039522D01*
X0031736Y003934D01*
X0031693Y0039125D01*
X0031736Y003891D01*
X0031858Y0038728D01*
X0031882Y0038712D01*
X0031889Y0038704D01*
X0031898Y0038691D01*
X0031905Y0038678D01*
X0031911Y0038666D01*
X0031916Y0038653D01*
X003192Y0038638D01*
X0031923Y0038623D01*
X0031923Y0038621D01*
Y0036517D01*
X0031948Y003639D01*
X003202Y0036283D01*
X0032412Y0035891D01*
X003252Y0035819D01*
X0032646Y0035794D01*
X003556D01*
X003565Y0035704D01*
X003565Y0035475D01*
X0035585Y0035375D01*
X003435D01*
Y0035253D01*
X0034225Y0035209D01*
X0034211Y0035213D01*
X0034199Y0035216D01*
X0034191Y003522D01*
X0034184Y0035224D01*
X003418Y0035227D01*
X0034176Y003523D01*
X003417Y0035236D01*
X0034147Y0035272D01*
X0033965Y0035393D01*
X003375Y0035436D01*
X0033535Y0035393D01*
X0033353Y0035272D01*
X0033232Y003509D01*
X0033189Y0034875D01*
X0033232Y003466D01*
X0033353Y0034478D01*
X0033535Y0034357D01*
X003375Y0034314D01*
X0033965Y0034357D01*
X0034143Y0034476D01*
X0034149Y0034479D01*
X0034162Y0034483D01*
X0034177Y0034487D01*
X0034195Y0034491D01*
X0034211Y0034493D01*
X003435D01*
Y0034202D01*
X003435Y0034175D01*
Y0034075D01*
X003435Y0034048D01*
Y0032875D01*
X0034643D01*
Y0032602D01*
X0034641Y0032586D01*
X0034637Y003257D01*
X0034633Y0032557D01*
X0034629Y0032546D01*
X0034625Y0032538D01*
X0034623Y0032534D01*
X0034603Y0032522D01*
X0034482Y003234D01*
X0034439Y0032125D01*
X0034482Y003191D01*
X0034603Y0031728D01*
X0034785Y0031607D01*
X0035Y0031564D01*
X0035215Y0031607D01*
X0035397Y0031728D01*
X0035518Y003191D01*
X0035561Y0032125D01*
X0035518Y003234D01*
X0035397Y0032522D01*
X0035377Y0032534D01*
X0035375Y0032538D01*
X0035371Y0032546D01*
X0035367Y0032557D01*
X0035363Y003257D01*
X0035359Y0032586D01*
X0035357Y0032602D01*
Y0032875D01*
X003565D01*
Y0034048D01*
X003565Y0034075D01*
X0035715Y0034175D01*
X0036823D01*
X003685Y0034175D01*
X003695D01*
X0036977Y0034175D01*
X0038032D01*
X0038105Y0034175D01*
X0038142Y003405D01*
X0038103Y0034022D01*
X0038063Y0033962D01*
X0037982Y003384D01*
X0037939Y0033625D01*
X0037982Y003341D01*
X0038103Y0033228D01*
X0038285Y0033107D01*
X00385Y0033064D01*
X0038715Y0033107D01*
X0038897Y0033228D01*
X0039018Y003341D01*
X0039061Y0033625D01*
X0039056Y0033648D01*
X0039057Y0033652D01*
X003906Y0033661D01*
X0039065Y0033671D01*
X0039071Y0033683D01*
X003908Y0033697D01*
X003909Y003371D01*
X0039248Y0033868D01*
X0039391D01*
Y0033575D01*
X0040564D01*
X0040591Y0033575D01*
X0040691D01*
X0040718Y0033575D01*
X0041891D01*
Y0033919D01*
X00423D01*
X00423Y0033919D01*
X0042417Y0033942D01*
X0042516Y0034009D01*
X0042716Y0034209D01*
X0042716Y0034209D01*
X0042783Y0034308D01*
X0042806Y0034425D01*
X0042806Y0034425D01*
Y0035017D01*
X00429Y0035094D01*
X0043017Y0035117D01*
X00431Y0035173D01*
X0043183Y0035117D01*
X004326Y0035102D01*
X0043298Y003504D01*
X0043311Y0035003D01*
X0043315Y0034971D01*
X0043262Y0034892D01*
X0043239Y0034775D01*
X0043239Y0034775D01*
Y0034652D01*
X0043239Y0034649D01*
X0043236Y0034638D01*
X0043232Y0034625D01*
X0043226Y0034612D01*
X0043217Y0034597D01*
X0043207Y0034581D01*
X0043193Y0034563D01*
X0043177Y0034544D01*
X0043173Y0034541D01*
X0043145Y0034522D01*
X0043023Y003434D01*
X0042981Y0034125D01*
X0043023Y003391D01*
X0043145Y0033728D01*
X0043327Y0033607D01*
X0043541Y0033564D01*
X0043602Y0033576D01*
X0043692Y0033486D01*
X0043689Y0033475D01*
X0043732Y003326D01*
X0043853Y0033078D01*
X0044035Y0032957D01*
X004425Y0032914D01*
X0044465Y0032957D01*
X0044647Y0033078D01*
X0044768Y003326D01*
X0044811Y0033475D01*
X0044768Y003369D01*
X0044647Y0033872D01*
X0044619Y003389D01*
X0044618Y0033891D01*
X0044602Y003391D01*
X0044588Y0033928D01*
X0044578Y0033944D01*
X004457Y003396D01*
X0044563Y0033974D01*
X0044559Y0033986D01*
X0044556Y0033998D01*
X0044556Y0034001D01*
Y0034325D01*
X0044535Y0034432D01*
X0044537Y0034437D01*
X0044565Y0034475D01*
X0044624Y0034534D01*
X00447Y0034519D01*
X0046142D01*
X0046394Y0034267D01*
Y003265D01*
X0046394Y003265D01*
X0046417Y0032533D01*
X0046484Y0032434D01*
X0047534Y0031384D01*
X0047633Y0031317D01*
X004775Y0031294D01*
X004775Y0031294D01*
X0049296D01*
X0049335Y0031167D01*
X0049334Y0031166D01*
X0049334Y0031166D01*
X0048881Y0030713D01*
X0048878Y0030711D01*
X0048868Y0030705D01*
X0048856Y0030699D01*
X0048842Y0030694D01*
X0048825Y0030689D01*
X0048806Y0030685D01*
X0048784Y0030681D01*
X0048759Y0030679D01*
X0048757Y0030679D01*
X0048725Y0030686D01*
X004851Y0030643D01*
X0048328Y0030522D01*
X0048207Y003034D01*
X0048164Y0030125D01*
X0048207Y002991D01*
X0048328Y0029728D01*
X004851Y0029607D01*
X0048725Y0029564D01*
X004894Y0029607D01*
X0049122Y0029728D01*
X0049243Y002991D01*
X0049286Y0030125D01*
X0049279Y0030157D01*
X0049279Y0030159D01*
X0049281Y0030184D01*
X0049285Y0030206D01*
X0049289Y0030225D01*
X0049294Y0030242D01*
X0049299Y0030256D01*
X0049305Y0030268D01*
X0049311Y0030278D01*
X0049313Y0030281D01*
X0049648Y0030615D01*
X0049775Y0030575D01*
Y0030525D01*
X0051625D01*
Y0031175D01*
Y0031825D01*
Y0032475D01*
Y0033325D01*
X0050008D01*
X0049031Y0034302D01*
Y00357D01*
X0049031Y00357D01*
X0049008Y0035817D01*
X0048941Y0035916D01*
X0047756Y0037102D01*
Y0038594D01*
X0047756Y0038594D01*
X0047733Y0038711D01*
X0047666Y0038811D01*
X0047666Y0038811D01*
X0045928Y0040549D01*
X0045828Y0040615D01*
X0045711Y0040639D01*
X0045711Y0040639D01*
X0044841D01*
X0044773Y0040766D01*
X0044783Y0040779D01*
X0044806Y0040896D01*
X0044806Y0040896D01*
Y0041149D01*
X0044806Y0041152D01*
X0044809Y0041164D01*
X0044813Y0041176D01*
X004482Y004119D01*
X0044828Y0041206D01*
X0044838Y0041222D01*
X0044852Y004124D01*
X0044868Y0041259D01*
X0044869Y004126D01*
X0044897Y0041278D01*
X0045018Y004146D01*
X0045061Y0041675D01*
X0045018Y004189D01*
X0044897Y0042072D01*
X0044715Y0042193D01*
X00445Y0042236D01*
X0044285Y0042193D01*
X0044103Y0042072D01*
X0043982Y004189D01*
X0043939Y0041675D01*
X0043953Y0041606D01*
X0043839Y004153D01*
X0043818Y0041543D01*
X0043604Y0041586D01*
X0043389Y0041543D01*
X0043207Y0041422D01*
X0043086Y004124D01*
X0043043Y0041025D01*
X0043049Y0040993D01*
X0043049Y0040991D01*
X0043047Y0040966D01*
X0043046Y0040958D01*
X0043008Y0040921D01*
X0043002Y0040917D01*
X0042902Y0040958D01*
X0042875Y0040997D01*
Y0042167D01*
X004315D01*
X0043306Y0042198D01*
X0043438Y0042287D01*
X0043527Y0042419D01*
X0043558Y0042575D01*
Y0042725D01*
X004295D01*
Y0042825D01*
X004285D01*
Y0043483D01*
X004275D01*
X0042594Y0043452D01*
X0042462Y0043363D01*
X0042373Y0043231D01*
X0042365Y0043189D01*
X0042235D01*
X0042227Y0043231D01*
X0042138Y0043363D01*
X0042006Y0043452D01*
X004185Y0043483D01*
X004145D01*
X0041294Y0043452D01*
X0041162Y0043363D01*
X0041073Y0043231D01*
X0041063Y0043182D01*
X004085D01*
Y004345D01*
X00396D01*
Y00422D01*
X0040783Y00422D01*
D01*
X004085Y00422D01*
X0040925Y0042104D01*
X0040925Y0042098D01*
Y0041325D01*
Y0040575D01*
X0041196D01*
X0041294Y004051D01*
X0041317Y0040393D01*
X0041384Y0040294D01*
X0041495Y0040182D01*
X0041484Y0040066D01*
X0041417Y0039967D01*
X0041394Y003985D01*
Y0039454D01*
X0041378Y0039347D01*
X0041271Y0039331D01*
X0040875D01*
X0040758Y0039308D01*
X0040668Y0039247D01*
X0040612Y0039256D01*
X0040532Y003928D01*
X0040527Y0039306D01*
X0040438Y0039438D01*
X0040306Y0039527D01*
X0040264Y0039535D01*
Y0039665D01*
X0040306Y0039673D01*
X0040438Y0039762D01*
X0040527Y0039894D01*
X0040558Y004005D01*
Y004015D01*
X00399D01*
Y004025D01*
X00398D01*
Y0040858D01*
X003965D01*
X0039494Y0040827D01*
X0039362Y0040738D01*
X0039238D01*
X0039106Y0040827D01*
X003895Y0040858D01*
X00388D01*
Y004025D01*
X00386D01*
Y0040858D01*
X003845D01*
X0038294Y0040827D01*
X0038285Y0040821D01*
X003823Y004085D01*
X00375D01*
Y004095D01*
X00374D01*
Y0041558D01*
X003725D01*
X0037184Y0041545D01*
X0037057Y0041643D01*
Y004206D01*
X0037465Y0042468D01*
X00382D01*
Y00422D01*
X003945D01*
Y004345D01*
X00382D01*
Y0043182D01*
X0037317D01*
X0037181Y0043155D01*
X0037065Y0043077D01*
X0036649Y0042661D01*
X0036531Y004271D01*
Y0042727D01*
X0036506Y0042854D01*
X0036434Y0042962D01*
X0036271Y0043125D01*
Y0043147D01*
X0036274Y0043161D01*
X003628Y0043184D01*
X0036289Y0043209D01*
X0036302Y0043236D01*
X0036319Y0043265D01*
X0036339Y0043294D01*
X0036399Y0043368D01*
X0036427Y0043397D01*
X0036439Y0043406D01*
X0036551Y0043552D01*
X0036622Y0043722D01*
X0036646Y0043905D01*
X0036622Y0044088D01*
X0036551Y0044258D01*
X0036439Y0044404D01*
X0036365Y0044461D01*
Y0044601D01*
X0036334Y0044617D01*
X0036293Y0044634D01*
X0036246Y0044648D01*
X0036196Y0044659D01*
X0036142Y0044667D01*
X0036083Y0044673D01*
X0035952Y0044675D01*
X003644Y0045177D01*
X0036442Y0045109D01*
X0036453Y0044986D01*
X0036462Y0044931D01*
X0036474Y004488D01*
X0036489Y0044834D01*
X0036506Y0044792D01*
X0036515Y0044775D01*
X0036551Y0044822D01*
X0036622Y0044992D01*
X0036646Y0045175D01*
X0036622Y0045358D01*
X0036551Y0045528D01*
X0036501Y0045594D01*
X0036011Y0045104D01*
X0035869Y0045246D01*
X0036359Y0045736D01*
X0036293Y0045786D01*
X0036123Y0045857D01*
X003594Y0045881D01*
D02*
G37*
G36*
X004315Y0043483D02*
X004305D01*
Y0042925D01*
X0043558D01*
Y0043075D01*
X0043527Y0043231D01*
X0043438Y0043363D01*
X0043306Y0043452D01*
X004315Y0043483D01*
D02*
G37*
G36*
X0062746Y0042843D02*
X0062564Y0042819D01*
X0062393Y0042749D01*
X0062247Y0042637D01*
X006219Y0042562D01*
X0062033D01*
X0061976Y0042637D01*
X0061829Y0042749D01*
X0061659Y0042819D01*
X0061476Y0042843D01*
X0061294Y0042819D01*
X0061123Y0042749D01*
X0060977Y0042637D01*
X006092Y0042562D01*
X0060763D01*
X0060706Y0042637D01*
X0060559Y0042749D01*
X0060389Y0042819D01*
X0060206Y0042843D01*
X0060024Y0042819D01*
X0059853Y0042749D01*
X0059707Y0042637D01*
X0059595Y004249D01*
X0059524Y004232D01*
X00595Y0042137D01*
X0059524Y0041955D01*
X0059595Y0041784D01*
X0059707Y0041638D01*
X0059781Y0041581D01*
Y0041424D01*
X0059707Y0041367D01*
X0059595Y004122D01*
X0059524Y004105D01*
X00595Y0040867D01*
X0059524Y0040685D01*
X0059595Y0040514D01*
X0059707Y0040368D01*
X0059853Y0040256D01*
X0060024Y0040185D01*
X0060206Y0040161D01*
X0060389Y0040185D01*
X0060559Y0040256D01*
X0060706Y0040368D01*
X0060763Y0040442D01*
X006092D01*
X0060977Y0040368D01*
X0061123Y0040256D01*
X0061294Y0040185D01*
X0061476Y0040161D01*
X0061659Y0040185D01*
X0061829Y0040256D01*
X0061976Y0040368D01*
X0062033Y0040442D01*
X006219D01*
X0062247Y0040368D01*
X0062393Y0040256D01*
X0062564Y0040185D01*
X0062746Y0040161D01*
X0062929Y0040185D01*
X0063099Y0040256D01*
X0063246Y0040368D01*
X0063358Y0040514D01*
X0063428Y0040685D01*
X0063452Y0040867D01*
X0063428Y004105D01*
X0063358Y004122D01*
X0063246Y0041367D01*
X0063171Y0041424D01*
Y0041581D01*
X0063246Y0041638D01*
X0063358Y0041784D01*
X0063428Y0041955D01*
X0063452Y0042137D01*
X0063428Y004232D01*
X0063358Y004249D01*
X0063246Y0042637D01*
X0063099Y0042749D01*
X0062929Y0042819D01*
X0062746Y0042843D01*
D02*
G37*
G36*
X003775Y0041558D02*
X00376D01*
Y004105D01*
X0038158D01*
Y004115D01*
X0038127Y0041306D01*
X0038038Y0041438D01*
X0037906Y0041527D01*
X003775Y0041558D01*
D02*
G37*
G36*
X004015Y0040858D02*
X004D01*
Y004035D01*
X0040558D01*
Y004045D01*
X0040527Y0040606D01*
X0040438Y0040738D01*
X0040306Y0040827D01*
X004015Y0040858D01*
D02*
G37*
G36*
X00569Y0039075D02*
X00565D01*
Y0038425D01*
X00569D01*
Y0039075D01*
D02*
G37*
G36*
X00563D02*
X00559D01*
Y0038425D01*
X00563D01*
Y0039075D01*
D02*
G37*
G36*
X005195Y0034983D02*
X005185D01*
X0051694Y0034952D01*
X0051562Y0034863D01*
X0051473Y0034731D01*
X0051442Y0034575D01*
Y0034425D01*
X005195D01*
Y0034983D01*
D02*
G37*
G36*
Y0034225D02*
X0051442D01*
Y0034075D01*
X0051473Y0033919D01*
X0051562Y0033787D01*
X0051694Y0033698D01*
X005185Y0033667D01*
X005195D01*
Y0034225D01*
D02*
G37*
G36*
X006015Y0034175D02*
X005865D01*
Y0033297D01*
X005865Y0033293D01*
X005865Y0033293D01*
X005865Y0033251D01*
X0058532Y003321D01*
X0058523Y0033212D01*
X0058499Y0033247D01*
X0058438Y0033338D01*
X0058306Y0033427D01*
X005815Y0033458D01*
X0058D01*
Y003295D01*
X0058558D01*
Y0032966D01*
X0058558Y003305D01*
X005855Y0033088D01*
X0058546Y003313D01*
X0058662Y0033175D01*
X0058745Y0033175D01*
X006015D01*
Y0034175D01*
D02*
G37*
G36*
X00578Y0033458D02*
X005765D01*
X0057494Y0033427D01*
X0057362Y0033338D01*
X0057273Y0033206D01*
X0057242Y003305D01*
Y003295D01*
X00578D01*
Y0033458D01*
D02*
G37*
G36*
X003842Y0029431D02*
X0038237Y0029407D01*
X0038067Y0029336D01*
X0037921Y0029224D01*
X0037864Y002915D01*
X0037706D01*
X0037649Y0029224D01*
X0037503Y0029336D01*
X0037333Y0029407D01*
X003715Y0029431D01*
X0036967Y0029407D01*
X0036797Y0029336D01*
X0036651Y0029224D01*
X0036594Y002915D01*
X0036436D01*
X0036379Y0029224D01*
X0036233Y0029336D01*
X0036063Y0029407D01*
X003588Y0029431D01*
X0035697Y0029407D01*
X0035527Y0029336D01*
X0035381Y0029224D01*
X0035269Y0029078D01*
X0035198Y0028908D01*
X0035174Y0028725D01*
X0035198Y0028542D01*
X0035269Y0028372D01*
X0035381Y0028226D01*
X0035455Y0028169D01*
Y0028011D01*
X0035381Y0027954D01*
X0035269Y0027808D01*
X0035198Y0027638D01*
X0035174Y0027455D01*
X0035198Y0027272D01*
X0035269Y0027102D01*
X0035381Y0026956D01*
X0035527Y0026844D01*
X0035697Y0026773D01*
X003588Y0026749D01*
X0036063Y0026773D01*
X0036233Y0026844D01*
X0036379Y0026956D01*
X0036436Y002703D01*
X0036594D01*
X0036651Y0026956D01*
X0036797Y0026844D01*
X0036967Y0026773D01*
X003715Y0026749D01*
X0037333Y0026773D01*
X0037503Y0026844D01*
X0037649Y0026956D01*
X0037706Y002703D01*
X0037864D01*
X0037921Y0026956D01*
X0038067Y0026844D01*
X0038237Y0026773D01*
X003842Y0026749D01*
X0038603Y0026773D01*
X0038773Y0026844D01*
X0038919Y0026956D01*
X0039031Y0027102D01*
X0039102Y0027272D01*
X0039126Y0027455D01*
X0039102Y0027638D01*
X0039031Y0027808D01*
X0038919Y0027954D01*
X0038845Y0028011D01*
Y0028169D01*
X0038919Y0028226D01*
X0039031Y0028372D01*
X0039102Y0028542D01*
X0039126Y0028725D01*
X0039102Y0028908D01*
X0039031Y0029078D01*
X0038919Y0029224D01*
X0038773Y0029336D01*
X0038603Y0029407D01*
X003842Y0029431D01*
D02*
G37*
G36*
X0051Y0028436D02*
X0050785Y0028393D01*
X0050603Y0028272D01*
X0050482Y002809D01*
X0050439Y0027875D01*
X0050482Y002766D01*
X0050603Y0027478D01*
X0050785Y0027357D01*
X0051Y0027314D01*
X0051215Y0027357D01*
X0051397Y0027478D01*
X0051425Y0027521D01*
X0051428Y0027523D01*
X0051438Y0027535D01*
X0051441Y0027537D01*
X0051444Y002754D01*
X005145Y0027543D01*
X0051457Y0027546D01*
X0051575Y002755D01*
X0051575Y002755D01*
X0051575Y002755D01*
X0052475D01*
Y002835D01*
X0051575D01*
Y0028269D01*
X0051452D01*
X0051435Y0028271D01*
X0051417Y0028275D01*
X0051401Y0028279D01*
X0051387Y0028284D01*
X0051376Y0028288D01*
X0051366Y0028293D01*
X0051359Y0028298D01*
X0051345Y0028308D01*
X0051333Y0028314D01*
X0051215Y0028393D01*
X0051Y0028436D01*
D02*
G37*
%LPD*%
G36*
X0055218Y00471D02*
X0055239Y0047083D01*
X0055263Y0047069D01*
X0055288Y0047057D01*
X0055314Y0047046D01*
X0055343Y0047038D01*
X0055373Y0047031D01*
X0055405Y0047026D01*
X0055439Y0047024D01*
X0055475Y0047023D01*
Y0046723D01*
X0055439Y0046722D01*
X0055405Y0046719D01*
X0055373Y0046714D01*
X0055343Y0046707D01*
X0055314Y0046699D01*
X0055288Y0046688D01*
X0055263Y0046676D01*
X0055239Y0046662D01*
X0055218Y0046646D01*
X0055199Y0046628D01*
Y0047118D01*
X0055218Y00471D01*
D02*
G37*
G36*
X0060252Y0045128D02*
X0060218Y0045088D01*
X0060188Y0045048D01*
X0060162Y0045007D01*
X006014Y0044965D01*
X0060122Y0044923D01*
X0060108Y004488D01*
X0060098Y0044836D01*
X0060092Y0044793D01*
X006009Y0044748D01*
X005979D01*
X0059788Y0044793D01*
X0059782Y0044836D01*
X0059772Y004488D01*
X0059758Y0044923D01*
X005974Y0044965D01*
X0059718Y0045007D01*
X0059692Y0045048D01*
X0059662Y0045088D01*
X0059628Y0045128D01*
X005959Y0045168D01*
X006029D01*
X0060252Y0045128D01*
D02*
G37*
G36*
X0056769Y0030852D02*
X0056791Y0030836D01*
X0056814Y0030822D01*
X0056839Y0030809D01*
X0056866Y0030799D01*
X0056894Y003079D01*
X0056924Y0030784D01*
X0056957Y0030779D01*
X0056991Y0030776D01*
X0057026Y0030775D01*
Y0030475D01*
X0056991Y0030474D01*
X0056957Y0030471D01*
X0056924Y0030466D01*
X0056894Y003046D01*
X0056866Y0030451D01*
X0056839Y0030441D01*
X0056814Y0030428D01*
X0056791Y0030414D01*
X0056769Y0030398D01*
X005675Y003038D01*
Y003087D01*
X0056769Y0030852D01*
D02*
G37*
G36*
X0057677Y0029457D02*
X0057683Y0029414D01*
X0057693Y002937D01*
X0057707Y0029327D01*
X0057725Y0029285D01*
X0057747Y0029243D01*
X0057773Y0029202D01*
X0057803Y0029162D01*
X0057837Y0029122D01*
X0057875Y0029082D01*
X0057175D01*
X0057213Y0029122D01*
X0057247Y0029162D01*
X0057277Y0029202D01*
X0057303Y0029243D01*
X0057325Y0029285D01*
X0057343Y0029327D01*
X0057357Y002937D01*
X0057367Y0029414D01*
X0057373Y0029457D01*
X0057375Y0029502D01*
X0057675D01*
X0057677Y0029457D01*
D02*
G37*
G36*
X0035171Y0043845D02*
X0035175Y0043793D01*
X0035183Y0043743D01*
X0035194Y0043695D01*
X0035207Y004365D01*
X0035225Y0043608D01*
X0035245Y0043568D01*
X0035269Y004353D01*
X0035295Y0043495D01*
X0035325Y0043462D01*
X0035113Y004325D01*
X003508Y004328D01*
X0035045Y0043306D01*
X0035007Y004333D01*
X0034967Y004335D01*
X0034925Y0043368D01*
X003488Y0043382D01*
X0034832Y0043392D01*
X0034782Y00434D01*
X003473Y0043404D01*
X0034675Y0043405D01*
X003517Y00439D01*
X0035171Y0043845D01*
D02*
G37*
G36*
X0036247Y0043504D02*
X0036175Y0043417D01*
X0036146Y0043374D01*
X0036121Y0043331D01*
X0036101Y0043288D01*
X0036085Y0043246D01*
X0036074Y0043204D01*
X0036067Y0043162D01*
X0036065Y0043121D01*
X0035815D01*
X0035813Y0043162D01*
X0035806Y0043204D01*
X0035795Y0043246D01*
X0035779Y0043288D01*
X0035759Y0043331D01*
X0035734Y0043374D01*
X0035705Y0043417D01*
X0035671Y004346D01*
X0035633Y0043504D01*
X003559Y0043548D01*
X003629D01*
X0036247Y0043504D01*
D02*
G37*
G36*
X0044717Y0041397D02*
X0044693Y0041368D01*
X0044671Y0041339D01*
X0044652Y004131D01*
X0044636Y004128D01*
X0044623Y004125D01*
X0044613Y0041221D01*
X0044606Y004119D01*
X0044601Y004116D01*
X00446Y004113D01*
X00444D01*
X0044399Y004116D01*
X0044394Y004119D01*
X0044387Y0041221D01*
X0044377Y004125D01*
X0044364Y004128D01*
X0044348Y004131D01*
X0044329Y0041339D01*
X0044307Y0041368D01*
X0044283Y0041397D01*
X0044255Y0041425D01*
X0044745D01*
X0044717Y0041397D01*
D02*
G37*
G36*
X00436Y0040675D02*
X0043561Y0040674D01*
X0043523Y0040671D01*
X0043487Y0040666D01*
X0043453Y0040659D01*
X0043421Y0040649D01*
X0043391Y0040638D01*
X0043362Y0040624D01*
X0043336Y0040608D01*
X0043311Y0040589D01*
X0043289Y0040569D01*
X0043147Y004071D01*
X0043168Y0040733D01*
X0043186Y0040757D01*
X0043202Y0040784D01*
X0043216Y0040812D01*
X0043228Y0040842D01*
X0043238Y0040874D01*
X0043245Y0040908D01*
X004325Y0040944D01*
X0043253Y0040982D01*
X0043254Y0041021D01*
X00436Y0040675D01*
D02*
G37*
G36*
X004585Y003878D02*
X0045822Y0038808D01*
X0045793Y0038832D01*
X0045764Y0038854D01*
X0045735Y0038873D01*
X0045705Y0038889D01*
X0045675Y0038902D01*
X0045646Y0038912D01*
X0045615Y0038919D01*
X0045585Y0038924D01*
X0045555Y0038925D01*
Y0039125D01*
X0045585Y0039126D01*
X0045615Y0039131D01*
X0045646Y0039138D01*
X0045675Y0039148D01*
X0045705Y0039161D01*
X0045735Y0039177D01*
X0045764Y0039196D01*
X0045793Y0039218D01*
X0045822Y0039242D01*
X004585Y003927D01*
Y003878D01*
D02*
G37*
G36*
X0032476Y0038851D02*
X0032456Y0038826D01*
X0032438Y00388D01*
X0032422Y0038773D01*
X0032409Y0038744D01*
X0032398Y0038715D01*
X003239Y0038685D01*
X0032384Y0038654D01*
X003238Y0038621D01*
X0032379Y0038588D01*
X0032129D01*
X0032128Y0038621D01*
X0032124Y0038654D01*
X0032118Y0038685D01*
X003211Y0038715D01*
X0032099Y0038744D01*
X0032086Y0038773D01*
X003207Y00388D01*
X0032052Y0038826D01*
X0032032Y0038851D01*
X0032009Y0038875D01*
X0032499D01*
X0032476Y0038851D01*
D02*
G37*
G36*
X00465Y003798D02*
X0046472Y0038008D01*
X0046443Y0038032D01*
X0046414Y0038054D01*
X0046385Y0038073D01*
X0046355Y0038089D01*
X0046325Y0038102D01*
X0046296Y0038112D01*
X0046265Y0038119D01*
X0046235Y0038124D01*
X0046205Y0038125D01*
Y0038325D01*
X0046235Y0038326D01*
X0046265Y0038331D01*
X0046296Y0038338D01*
X0046325Y0038348D01*
X0046355Y0038361D01*
X0046385Y0038377D01*
X0046414Y0038396D01*
X0046443Y0038418D01*
X0046472Y0038442D01*
X00465Y003847D01*
X00465Y003798D01*
D02*
G37*
G36*
X0037775Y0038141D02*
X0037778Y0038108D01*
X0037783Y0038076D01*
X0037791Y0038047D01*
X0037801Y0038021D01*
X0037813Y0037996D01*
X0037828Y0037974D01*
X0037844Y0037955D01*
X0037863Y0037937D01*
X0037884Y0037922D01*
X0037406Y0037815D01*
X0037419Y0037837D01*
X003743Y003786D01*
X0037441Y0037885D01*
X0037449Y0037911D01*
X0037457Y0037939D01*
X0037463Y0037968D01*
X0037471Y0038032D01*
X0037473Y0038066D01*
X0037473Y0038102D01*
X0037773Y0038177D01*
X0037775Y0038141D01*
D02*
G37*
G36*
X0035308Y0037332D02*
X0035287Y0037345D01*
X0035264Y0037357D01*
X0035239Y0037367D01*
X0035213Y0037376D01*
X0035185Y0037383D01*
X0035155Y0037389D01*
X0035124Y0037394D01*
X0035058Y0037399D01*
X0035022Y00374D01*
X0034948Y00377D01*
X0034984Y0037701D01*
X0035018Y0037704D01*
X0035049Y003771D01*
X0035078Y0037718D01*
X0035105Y0037728D01*
X0035129Y003774D01*
X0035151Y0037754D01*
X0035171Y0037771D01*
X0035188Y003779D01*
X0035203Y0037811D01*
X0035308Y0037332D01*
D02*
G37*
G36*
X0036877Y0039288D02*
X0036962Y0039162D01*
X0037094Y0039073D01*
X0037143Y0039063D01*
Y0038438D01*
X003717Y0038302D01*
X0037248Y0038186D01*
X0037267Y0038167D01*
Y0038043D01*
X0037261Y0038002D01*
X0037258Y0037986D01*
X0037254Y0037969D01*
X0037249Y0037955D01*
X0037244Y0037944D01*
X003724Y0037934D01*
X0037231Y0037919D01*
X0037226Y0037906D01*
X0037182Y003784D01*
X0037139Y0037625D01*
X0037182Y003741D01*
X0037303Y0037228D01*
X0037485Y0037107D01*
X00377Y0037064D01*
X0037915Y0037107D01*
X0038081Y0037218D01*
X0038162Y0037119D01*
X0037817Y0036775D01*
X003695D01*
Y0036775D01*
X003685D01*
Y0036775D01*
X0036531D01*
Y003825D01*
X003675D01*
Y0039249D01*
X0036868Y003929D01*
X0036877Y0039288D01*
D02*
G37*
G36*
X0040169Y0035997D02*
X0040191Y0035981D01*
X0040214Y0035966D01*
X0040239Y0035954D01*
X0040266Y0035944D01*
X0040294Y0035935D01*
X0040324Y0035928D01*
X0040357Y0035924D01*
X004039Y0035921D01*
X0040426Y003592D01*
Y003562D01*
X004039Y0035619D01*
X0040357Y0035616D01*
X0040324Y0035611D01*
X0040294Y0035605D01*
X0040266Y0035596D01*
X0040239Y0035586D01*
X0040214Y0035573D01*
X0040191Y0035559D01*
X0040169Y0035543D01*
X004015Y0035525D01*
Y0036015D01*
X0040169Y0035997D01*
D02*
G37*
G36*
X0039403Y0036016D02*
X0039382Y0035984D01*
X0039339Y003577D01*
X0039382Y0035555D01*
X0039503Y0035373D01*
X0039685Y0035252D01*
X00399Y0035209D01*
X0040115Y0035252D01*
X0040297Y0035373D01*
X0040427Y0035384D01*
X0040819Y0034992D01*
X004077Y0034875D01*
X0040691Y0034875D01*
X0040591D01*
X0040564Y0034875D01*
X0039391D01*
Y0034582D01*
X00391D01*
X0038963Y0034555D01*
X0038848Y0034477D01*
X0038585Y0034215D01*
X0038572Y0034205D01*
X0038558Y0034196D01*
X0038546Y003419D01*
X0038536Y0034185D01*
X0038527Y0034182D01*
X0038523Y0034181D01*
X00385Y0034186D01*
X0038365Y0034159D01*
X0038285Y0034143D01*
X0038252Y0034126D01*
X0038252Y0034126D01*
D01*
X003815Y0034205D01*
X003815Y0034283D01*
Y0034942D01*
X0039304Y0036097D01*
X0039403Y0036016D01*
D02*
G37*
G36*
X0046994Y0035698D02*
Y0034712D01*
X0046867Y0034659D01*
X0046485Y0035041D01*
X0046386Y0035108D01*
X0046269Y0035131D01*
X0046269Y0035131D01*
X0044827D01*
X0044806Y0035152D01*
Y003565D01*
X0044806Y003565D01*
Y0035796D01*
X0044822Y0035903D01*
X0044929Y0035919D01*
X0046773D01*
X0046994Y0035698D01*
D02*
G37*
G36*
X0034035Y0035082D02*
X0034055Y0035065D01*
X0034077Y003505D01*
X0034101Y0035037D01*
X0034127Y0035025D01*
X0034155Y0035016D01*
X0034185Y0035009D01*
X0034217Y0035004D01*
X0034251Y0035001D01*
X0034287Y0035D01*
X0034263Y00347D01*
X0034227Y0034699D01*
X0034193Y0034697D01*
X0034161Y0034692D01*
X003413Y0034686D01*
X0034101Y0034678D01*
X0034074Y0034669D01*
X0034049Y0034657D01*
X0034025Y0034644D01*
X0034002Y0034629D01*
X0033982Y0034613D01*
X0034017Y0035102D01*
X0034035Y0035082D01*
D02*
G37*
G36*
X0043645Y0034669D02*
X0043646Y0034639D01*
X0043651Y0034609D01*
X0043658Y0034578D01*
X0043668Y0034548D01*
X0043681Y0034519D01*
X0043697Y0034489D01*
X0043715Y003446D01*
X0043737Y003443D01*
X0043761Y0034401D01*
X0043789Y0034372D01*
X0043299Y0034377D01*
X0043327Y0034406D01*
X0043351Y0034434D01*
X0043373Y0034463D01*
X0043392Y0034492D01*
X0043408Y0034521D01*
X0043422Y0034551D01*
X0043432Y003458D01*
X0043439Y003461D01*
X0043443Y0034641D01*
X0043445Y0034671D01*
X0043645Y0034669D01*
D02*
G37*
G36*
X0044351Y003399D02*
X0044356Y003396D01*
X0044363Y0033929D01*
X0044373Y00339D01*
X0044386Y003387D01*
X0044402Y003384D01*
X0044421Y0033811D01*
X0044443Y0033782D01*
X0044467Y0033753D01*
X0044495Y0033725D01*
X0044005D01*
X0044033Y0033753D01*
X0044057Y0033782D01*
X0044079Y0033811D01*
X0044098Y003384D01*
X0044114Y003387D01*
X0044127Y00339D01*
X0044137Y0033929D01*
X0044144Y003396D01*
X0044149Y003399D01*
X004415Y003402D01*
X004435D01*
X0044351Y003399D01*
D02*
G37*
G36*
X0038978Y0033891D02*
X0038954Y0033865D01*
X0038932Y0033839D01*
X0038912Y0033813D01*
X0038895Y0033787D01*
X0038881Y0033761D01*
X003887Y0033734D01*
X0038861Y0033708D01*
X0038855Y0033682D01*
X0038851Y0033655D01*
X003885Y0033629D01*
X0038504Y0033975D01*
X003853Y0033976D01*
X0038557Y003398D01*
X0038583Y0033986D01*
X0038609Y0033995D01*
X0038636Y0034006D01*
X0038662Y003402D01*
X0038688Y0034037D01*
X0038714Y0034057D01*
X003874Y0034079D01*
X0038766Y0034103D01*
X0038978Y0033891D01*
D02*
G37*
G36*
X0046596Y0036759D02*
X0046695Y0036692D01*
X0046812Y0036669D01*
X0046813Y0036669D01*
X0047323D01*
X0048419Y0035573D01*
Y0034175D01*
X0048419Y0034175D01*
X0048442Y0034058D01*
X0048509Y0033959D01*
X0049775Y0032692D01*
Y0032556D01*
X0048102D01*
X0047606Y0033052D01*
Y0035825D01*
X0047583Y0035942D01*
X0047516Y0036041D01*
X0047516Y0036041D01*
X0047116Y0036441D01*
X0047017Y0036508D01*
X00469Y0036531D01*
X00469Y0036531D01*
X0045708D01*
X0045631Y0036625D01*
X0045608Y0036742D01*
X0045552Y0036825D01*
X0045608Y0036908D01*
X0045631Y0037025D01*
X0045608Y0037142D01*
X0045552Y0037225D01*
X0045608Y0037308D01*
X0045631Y0037425D01*
X0045708Y0037519D01*
X0045836D01*
X0046596Y0036759D01*
D02*
G37*
G36*
X0035151Y0032616D02*
X0035154Y0032582D01*
X0035159Y0032549D01*
X0035165Y0032519D01*
X0035174Y0032491D01*
X0035184Y0032464D01*
X0035197Y0032439D01*
X0035211Y0032416D01*
X0035227Y0032394D01*
X0035245Y0032375D01*
X0034755D01*
X0034773Y0032394D01*
X0034789Y0032416D01*
X0034803Y0032439D01*
X0034816Y0032464D01*
X0034826Y0032491D01*
X0034835Y0032519D01*
X0034841Y0032549D01*
X0034846Y0032582D01*
X0034849Y0032616D01*
X003485Y0032651D01*
X003515D01*
X0035151Y0032616D01*
D02*
G37*
G36*
X0049181Y003044D02*
X0049161Y0030417D01*
X0049142Y0030393D01*
X0049126Y0030366D01*
X0049112Y0030338D01*
X0049101Y0030308D01*
X0049091Y0030276D01*
X0049084Y0030242D01*
X0049079Y0030206D01*
X0049076Y0030168D01*
X0049075Y0030128D01*
X0048729Y0030475D01*
X0048768Y0030476D01*
X0048806Y0030479D01*
X0048842Y0030484D01*
X0048876Y0030491D01*
X0048908Y0030501D01*
X0048938Y0030512D01*
X0048966Y0030526D01*
X0048993Y0030542D01*
X0049017Y0030561D01*
X004904Y0030581D01*
X0049181Y003044D01*
D02*
G37*
G36*
X0051243Y002813D02*
X0051266Y0028116D01*
X005129Y0028103D01*
X0051316Y0028092D01*
X0051343Y0028083D01*
X0051373Y0028076D01*
X0051403Y002807D01*
X0051436Y0028066D01*
X005147Y0028063D01*
X0051506Y0028062D01*
X0051541Y0027763D01*
X0051506Y0027761D01*
X0051472Y0027758D01*
X005144Y0027753D01*
X005141Y0027746D01*
X0051383Y0027736D01*
X0051357Y0027725D01*
X0051333Y0027711D01*
X0051312Y0027696D01*
X0051292Y0027678D01*
X0051275Y0027658D01*
X0051222Y0028145D01*
X0051243Y002813D01*
D02*
G37*
D10*
X0032254Y0036517D02*
Y0039125D01*
X00362Y00389D02*
Y0042727D01*
X003594Y0042987D02*
Y0043905D01*
Y0042987D02*
X00362Y0042727D01*
X00362Y00389D02*
X00362Y00389D01*
X00362Y00389D02*
X00362Y00389D01*
X0032646Y0036125D02*
X00362D01*
X0032254Y0036517D02*
X0032646Y0036125D01*
X00362D02*
Y00389D01*
D13*
X0034794Y0042137D02*
X003485Y0042193D01*
Y0042825D01*
X00343Y0042825D02*
X0034794Y0042331D01*
Y0042137D02*
Y0042331D01*
X0033Y0042725D02*
X0033524Y0042201D01*
Y0042137D02*
Y0042201D01*
X0057525Y0027375D02*
X005805Y002685D01*
X0057525Y0027375D02*
Y0027455D01*
X0039075Y0047475D02*
X003967Y004688D01*
Y0046795D02*
Y004688D01*
X0034794Y00407D02*
Y0040867D01*
Y00407D02*
X0035194Y00403D01*
X0033524Y0040867D02*
X0033533D01*
X00341Y00403D01*
X003594Y0045175D02*
X003595D01*
X00366Y0044525D01*
X005595Y0031075D02*
X00561Y0031225D01*
X00551Y003095D02*
X0055225Y0031075D01*
X005595D01*
X00631Y0032725D02*
X006325Y0032575D01*
X00425Y0041025D02*
X0042938D01*
X0042945Y0041032D01*
X00445Y0040896D02*
Y0041675D01*
X0043854Y004025D02*
X00445Y0040896D01*
X0043534Y004025D02*
X0043854D01*
X004745Y0036975D02*
Y0038594D01*
X004675Y0038225D02*
X004675Y0038225D01*
X0045711Y0040333D02*
X004745Y0038594D01*
X0045075Y0038225D02*
X004675D01*
X00429Y00396D02*
Y0040321D01*
X0043604Y0041025D01*
X00433Y0040016D02*
X0043534Y004025D01*
X0044617Y0040333D02*
X0045711D01*
X00445Y0040216D02*
X0044617Y0040333D01*
X00445Y00396D02*
Y0040216D01*
X00433Y00396D02*
Y0040016D01*
X0042Y0040676D02*
X0042201Y0040475D01*
X0042206D02*
X00425Y0040181D01*
X0042201Y0040475D02*
X0042206D01*
X00425Y00396D02*
Y0040181D01*
X00413Y004095D02*
X00416Y004065D01*
Y004051D02*
X004194Y004017D01*
X00416Y004051D02*
Y004065D01*
X00413Y004095D02*
Y0041025D01*
X0042Y0040676D02*
Y0041625D01*
X004245Y0041725D02*
X00425Y0041775D01*
X00421Y0041725D02*
X004245D01*
X0042Y0041625D02*
X00421Y0041725D01*
X00421Y00396D02*
Y0040016D01*
X0041961Y0040155D02*
X00421Y0040016D01*
X0048725Y0030125D02*
X004955Y003095D01*
X00509D01*
X004425Y0033475D02*
Y0034325D01*
X00441Y0034475D02*
X004425Y0034325D01*
X0043541Y0034125D02*
Y0034166D01*
X0043545Y003417D01*
X0048725Y0034175D02*
Y00357D01*
X004745Y0036975D02*
X0048725Y00357D01*
X005Y00329D02*
X00509D01*
X0045075Y0037825D02*
X0045963D01*
X0046812Y0036975D02*
X004745D01*
X0048725Y0034175D02*
X005Y00329D01*
X0045963Y0037825D02*
X0046812Y0036975D01*
X0043545Y003417D02*
Y0034775D01*
X00467Y003265D02*
Y0034394D01*
X00447Y0034825D02*
X0045659D01*
X00445Y0035025D02*
X00447Y0034825D01*
X0045075Y0036225D02*
X00469D01*
X00473Y0032925D02*
X0047975Y003225D01*
X00509D01*
X00467Y003265D02*
X004775Y00316D01*
X00445Y0035025D02*
X00445Y0035025D01*
X0046269Y0034825D02*
X00467Y0034394D01*
X004775Y00316D02*
X00509D01*
X00445Y0035025D02*
Y003565D01*
X00473Y0032925D02*
Y0035825D01*
X00469Y0036225D02*
X00473Y0035825D01*
X0045659Y0034825D02*
X0046269D01*
X0045075Y0039025D02*
X00461D01*
X00437Y003493D02*
Y0035356D01*
X0043545Y0034775D02*
X00437Y003493D01*
X00441Y0034475D02*
Y0035191D01*
X00425Y0034425D02*
Y003565D01*
X00423Y0034225D02*
X00425Y0034425D01*
X0041341Y0034225D02*
X00423D01*
X00437Y0035356D02*
Y003565D01*
X00437Y0035356D02*
X00437Y0035356D01*
X00441Y0035191D02*
Y003565D01*
X00441Y0035191D02*
X00441Y0035191D01*
X00399Y00389D02*
X0039941Y0038859D01*
X0040475D01*
X0040709Y0038625D02*
X0041125D01*
X0040475Y0038859D02*
X0040709Y0038625D01*
X0041125Y0038225D02*
Y0038625D01*
X00402Y0037425D02*
X0041125D01*
X00393Y0037825D02*
X0041125D01*
X00376Y0034825D02*
X00402Y0037425D01*
X00376Y0036125D02*
X00393Y0037825D01*
D15*
X00558Y0045175D02*
D03*
Y0046875D02*
D03*
D18*
X005745Y0043625D02*
D03*
X005915D02*
D03*
D33*
X005335Y0034325D02*
D03*
X005205D02*
D03*
X004295Y0042825D02*
D03*
X004165D02*
D03*
D34*
X00375Y004095D02*
D03*
Y003965D02*
D03*
X00399Y004025D02*
D03*
Y003895D02*
D03*
X00387Y004025D02*
D03*
Y003895D02*
D03*
X00579Y003285D02*
D03*
Y003155D02*
D03*
X006325Y0032525D02*
D03*
Y0031225D02*
D03*
D35*
X005705Y0034625D02*
D03*
X005575D02*
D03*
X003755Y0036125D02*
D03*
X003625D02*
D03*
X003755Y0034825D02*
D03*
X003625D02*
D03*
X0041291Y0034225D02*
D03*
X0039991D02*
D03*
X003615Y00389D02*
D03*
X003485D02*
D03*
D36*
X00336Y0037475D02*
D03*
Y0038775D02*
D03*
X0035Y0034775D02*
D03*
Y0033475D02*
D03*
D37*
X00551Y00329D02*
D03*
Y003225D02*
D03*
Y00316D02*
D03*
Y003095D02*
D03*
X00507D02*
D03*
Y00316D02*
D03*
Y003225D02*
D03*
Y00329D02*
D03*
D38*
X0041125Y0039025D02*
D03*
Y0038625D02*
D03*
Y0038225D02*
D03*
Y0037825D02*
D03*
Y0037425D02*
D03*
Y0037025D02*
D03*
Y0036625D02*
D03*
Y0036225D02*
D03*
X0045075D02*
D03*
Y0036625D02*
D03*
Y0037025D02*
D03*
Y0037425D02*
D03*
Y0037825D02*
D03*
Y0038225D02*
D03*
Y0038625D02*
D03*
Y0039025D02*
D03*
D39*
X00417Y003565D02*
D03*
X00421D02*
D03*
X00425D02*
D03*
X00429D02*
D03*
X00433D02*
D03*
X00437D02*
D03*
X00441D02*
D03*
X00445D02*
D03*
Y00396D02*
D03*
X00441D02*
D03*
X00437D02*
D03*
X00433D02*
D03*
X00429D02*
D03*
X00425D02*
D03*
X00421D02*
D03*
X00417D02*
D03*
D40*
X00431Y0037625D02*
D03*
D41*
X005545Y0035925D02*
D03*
X005735D02*
D03*
X00564Y0038325D02*
D03*
D42*
X00413Y0041775D02*
D03*
X00425D02*
D03*
Y0041025D02*
D03*
X00413D02*
D03*
D43*
X0038825Y0042825D02*
D03*
X0040225D02*
D03*
D44*
X00537Y0043975D02*
D03*
Y0039675D02*
D03*
D45*
X0053325Y002795D02*
D03*
X0052025D02*
D03*
D46*
X00594Y0031775D02*
D03*
Y0033675D02*
D03*
X0062D02*
D03*
Y0032725D02*
D03*
Y0031775D02*
D03*
D47*
X00367Y0042208D02*
X0037317Y0042825D01*
X0037305Y0039795D02*
X00375Y00396D01*
X0036876Y0039795D02*
X0037305D01*
X00367Y0039971D02*
X0036876Y0039795D01*
X00367Y0039971D02*
Y0042208D01*
X006205Y0033625D02*
X0063899D01*
X006352Y0031176D02*
Y0031319D01*
X0063546Y0031345D01*
X0064075Y0031521D02*
Y0033449D01*
X0063546Y0031345D02*
X0063899D01*
X0064075Y0031521D01*
X0063899Y0033625D02*
X0064075Y0033449D01*
X0056423Y0030548D02*
X00565Y0030625D01*
X0062Y0032725D02*
X00631D01*
X0056143Y0030548D02*
X0056423D01*
X0055945Y003035D02*
X0056143Y0030548D01*
X0053576Y003035D02*
X0055945D01*
X003467Y0043905D02*
X0035465Y004311D01*
Y0042669D02*
Y004311D01*
Y0042669D02*
X0035644Y0042489D01*
Y0039744D02*
Y0042489D01*
X0040546Y003577D02*
X0041341Y0034975D01*
X00399Y003577D02*
X0040546D01*
X0041341Y0034225D02*
Y0034975D01*
X0055798Y0046873D02*
X00558Y0046875D01*
X0054949Y0046873D02*
X0055798D01*
X0034762Y0038862D02*
X0035644Y0039744D01*
X0037317Y0042825D02*
X0038825D01*
X0038825Y0042825D01*
X006325Y0030906D02*
Y0031175D01*
Y0030125D02*
Y0030906D01*
X006352Y0031176D01*
X0062Y0033675D02*
X006205Y0033625D01*
X0062Y0031375D02*
Y0031775D01*
X00622Y0031175D02*
X006325D01*
X0062Y0031375D02*
X00622Y0031175D01*
X0051987Y0027913D02*
X0052025Y002795D01*
X0051037Y0027913D02*
X0051987D01*
X0051Y0027875D02*
X0051037Y0027913D01*
X0062925Y00298D02*
X006325Y0030125D01*
X0034975Y003485D02*
X0035Y0034825D01*
X0033775Y003485D02*
X0034975D01*
X003375Y0034875D02*
X0033775Y003485D01*
X0037623Y0037702D02*
X00377Y0037625D01*
X0037623Y0037702D02*
Y0038315D01*
X00375Y0038438D02*
X0037623Y0038315D01*
X00375Y0038438D02*
Y0038862D01*
X00347Y003755D02*
X0035425D01*
X00355Y0037625D01*
X00385Y0033625D02*
X00391Y0034225D01*
X00565Y0030625D02*
X0057724D01*
X00375Y0038862D02*
Y00396D01*
X0057024Y0035349D02*
X00572Y0035525D01*
X0057024Y0034701D02*
X00571Y0034625D01*
X0057024Y0034701D02*
Y0035349D01*
X00572Y0035525D02*
X00572D01*
X005735Y0035675D02*
Y0036175D01*
X00572Y0035525D02*
X005735Y0035675D01*
X00557Y0034625D02*
X0055899Y0034824D01*
X0055699Y0035525D02*
X0055899Y0035324D01*
X005545Y0035675D02*
Y0036175D01*
X0055899Y0034824D02*
Y0035324D01*
X00556Y0035525D02*
X0055699D01*
X005545Y0035675D02*
X00556Y0035525D01*
X00416Y0042825D02*
X00417Y0042725D01*
X00416Y0042825D02*
X00416Y0042825D01*
Y0042825D01*
Y0042075D02*
Y0042825D01*
X00414Y0041875D02*
X00416Y0042075D01*
X0041325Y0041875D02*
X00414D01*
X00413Y004185D02*
X0041325Y0041875D01*
X00413Y0041775D02*
Y004185D01*
X0057521Y00298D02*
X0062925D01*
X0053559D02*
X0057521D01*
X0057525Y0028725D02*
Y0029796D01*
X0057521Y00298D02*
X0057525Y0029796D01*
X0053325Y0029566D02*
X0053559Y00298D01*
X0053325Y002795D02*
Y0029566D01*
X00534Y0030526D02*
Y0034325D01*
Y0030526D02*
X0053576Y003035D01*
X0051046Y0037849D02*
X005197Y0036925D01*
X0055974D01*
X00391Y0034225D02*
X0039941D01*
X00387Y00389D02*
X00399D01*
X00336Y0037425D02*
X0033625Y003745D01*
X00346D01*
X00347Y003755D01*
X00579Y0031325D02*
Y00315D01*
Y0030801D02*
Y0031325D01*
X0057724Y0030625D02*
X00579Y0030801D01*
X00547Y003225D02*
X0054748Y0032202D01*
X0054748Y0031648D02*
X0055929D01*
X00557Y0032202D02*
X0056123Y0032625D01*
Y0034202D01*
X0056677Y0032396D02*
Y0034202D01*
X0054748Y0032202D02*
X00557D01*
X0055929Y0031648D02*
X0056677Y0032396D01*
X00534Y0034325D02*
X0054524D01*
X00547Y00329D02*
Y0034149D01*
X0054524Y0034325D02*
X00547Y0034149D01*
X005994Y0044465D02*
Y0045525D01*
X005915Y0043625D02*
Y0043675D01*
X005994Y0044465D01*
X00558Y0046875D02*
X005585D01*
Y0045175D02*
X0056302Y0044723D01*
Y0044451D02*
Y0044723D01*
X0055585Y0043734D02*
X0056302Y0044451D01*
X0055124Y0042102D02*
X0055585Y0042563D01*
X0056726Y0044091D02*
X0057034D01*
X0057406Y0043719D01*
Y0043669D02*
Y0043719D01*
X0055585Y0042563D02*
Y0043734D01*
X0054876Y0042102D02*
X0055124D01*
X00547Y0042278D02*
Y0042975D01*
X00537Y0043975D02*
X00547Y0042975D01*
X0056139Y0043504D02*
X0056726Y0044091D01*
X00537Y0039675D02*
X00547Y0040675D01*
Y0041372D01*
X0054876Y0041548D01*
X0055354D01*
X0056139Y0042334D01*
Y0043504D01*
X00547Y0042278D02*
X0054876Y0042102D01*
X0057406Y0043669D02*
X005745Y0043625D01*
X00537Y0042278D02*
Y0043975D01*
X00516Y0038078D02*
X0052253Y0037425D01*
X0056181D02*
X005665Y0036956D01*
Y0036501D02*
Y0036956D01*
Y0036501D02*
X0056826Y0036325D01*
X0055974Y0036925D02*
X005615Y0036749D01*
X00556Y0036325D02*
X0055974D01*
X0051046Y0037849D02*
Y0041602D01*
X005615Y0036501D02*
Y0036749D01*
X0056826Y0036325D02*
X00572D01*
X005735Y0036175D01*
X005545D02*
X00556Y0036325D01*
X00516Y0038078D02*
Y0041372D01*
X0052253Y0037425D02*
X0056181D01*
X0055974Y0036325D02*
X005615Y0036501D01*
X0051546Y0042102D02*
X0053524D01*
X0051776Y0041548D02*
X0053524D01*
X00516Y0041372D02*
X0051776Y0041548D01*
X0051046Y0041602D02*
X0051546Y0042102D01*
X00537Y0039675D02*
Y0041372D01*
X0053524Y0041548D02*
X00537Y0041372D01*
X0053524Y0042102D02*
X00537Y0042278D01*
X00558Y0045175D02*
X005585D01*
X00547Y00316D02*
X0054748Y0031648D01*
X0056677Y0034202D02*
X00571Y0034625D01*
X00557D02*
X0056123Y0034202D01*
X0040225Y0042825D02*
X0040225Y0042825D01*
X00416D01*
X00416Y0042825D01*
X0038662Y0038862D02*
X00387Y00389D01*
X00375Y0038862D02*
X0038662D01*
X0035Y0032125D02*
Y0033425D01*
Y0034825D02*
X00362D01*
X00362Y0034825D01*
X00336Y0038825D02*
X0033638Y0038862D01*
X0034762D01*
D48*
X00579Y0031325D02*
X0058076Y0031501D01*
X00585D02*
Y0031525D01*
X0058076Y0031501D02*
X00585D01*
Y0031525D02*
X00587Y0031725D01*
X005935D01*
X00594Y0031775D01*
D49*
X0060206Y0042137D02*
D03*
Y0040867D02*
D03*
X0061476Y0042137D02*
D03*
Y0040867D02*
D03*
X0062746Y0042137D02*
D03*
Y0040867D02*
D03*
X0032254Y0042137D02*
D03*
Y0040867D02*
D03*
X0033524Y0042137D02*
D03*
Y0040867D02*
D03*
X0034794Y0042137D02*
D03*
Y0040867D02*
D03*
X005994Y0046795D02*
D03*
Y0045525D02*
D03*
X005867Y0046795D02*
D03*
Y0045525D02*
D03*
X00574Y0046795D02*
D03*
Y0045525D02*
D03*
X004094Y0046795D02*
D03*
Y0045525D02*
D03*
X003967Y0046795D02*
D03*
Y0045525D02*
D03*
X00384Y0046795D02*
D03*
Y0045525D02*
D03*
X003588Y0027455D02*
D03*
Y0028725D02*
D03*
X003715Y0027455D02*
D03*
Y0028725D02*
D03*
X003842Y0027455D02*
D03*
Y0028725D02*
D03*
X0056255Y0027455D02*
D03*
Y0028725D02*
D03*
X0057525Y0027455D02*
D03*
Y0028725D02*
D03*
X0058795Y0027455D02*
D03*
Y0028725D02*
D03*
X003594Y0043905D02*
D03*
Y0045175D02*
D03*
X00334D02*
D03*
X003467D02*
D03*
X00334Y0043905D02*
D03*
X003467D02*
D03*
D50*
X006325Y0026975D02*
D03*
X003375D02*
D03*
Y0029975D02*
D03*
X005005Y0046873D02*
D03*
X0043Y0046795D02*
D03*
X00461Y0046873D02*
D03*
Y0043925D02*
D03*
X005005Y0042775D02*
D03*
X005845Y0036625D02*
D03*
X006175D02*
D03*
Y00391D02*
D03*
X0060625Y0028725D02*
D03*
Y0030625D02*
D03*
X00564Y0039675D02*
D03*
X005005Y0039775D02*
D03*
X0052Y0036025D02*
D03*
X005005D02*
D03*
X00483Y0033175D02*
D03*
X003715Y0029975D02*
D03*
X00412Y0026975D02*
D03*
X004975D02*
D03*
Y0029625D02*
D03*
X0052575Y0026975D02*
D03*
Y0029625D02*
D03*
X00412Y0029975D02*
D03*
X00456Y0033475D02*
D03*
X00565Y0030625D02*
D03*
X0032254Y0039125D02*
D03*
X00445Y0041675D02*
D03*
X004675Y0038225D02*
D03*
X00399Y003577D02*
D03*
X0054949Y0046873D02*
D03*
X0062553Y0046869D02*
D03*
X00431Y0037625D02*
D03*
X0043604Y0041025D02*
D03*
X003375Y0034875D02*
D03*
X00377Y0037625D02*
D03*
X00355D02*
D03*
X00385Y0033625D02*
D03*
X0048725Y0030125D02*
D03*
X004425Y0033475D02*
D03*
X0051Y0027875D02*
D03*
X0043541Y0034125D02*
D03*
X00461Y0039025D02*
D03*
X0035Y0032125D02*
D03*
D51*
X0043Y0043925D02*
D03*
M02*
