G04*
G04 #@! TF.GenerationSoftware,Altium Limited,Altium Designer,20.1.8 (145)*
G04*
G04 Layer_Color=32896*
%FSTAX43Y43*%
%MOMM*%
G71*
G04*
G04 #@! TF.SameCoordinates,DEFF2A6E-5F0D-40BF-B6DE-29F6B0C5E57E*
G04*
G04*
G04 #@! TF.FilePolarity,Positive*
G04*
G01*
G75*
%ADD10C,0.250*%
%ADD12C,0.100*%
%ADD13C,0.200*%
%ADD14C,0.150*%
%ADD15R,1.000X0.900*%
G36*
X0035496Y0039869D02*
X0035494Y0039867D01*
X0034794D01*
X0035467Y004054D01*
X0035496D01*
Y0039869D01*
D02*
G37*
G36*
X0063448D02*
X0063446Y0039867D01*
X0062746D01*
X0063419Y004054D01*
X0063448D01*
Y0039869D01*
D02*
G37*
D10*
X0047225Y0029525D02*
G03*
X0047225Y0029525I-0000125J0D01*
G01*
D12*
X0041975Y0028275D02*
Y0029375D01*
X0041825Y0028275D02*
Y0029375D01*
X00451Y00311D02*
Y003135D01*
X00459Y00311D02*
Y003135D01*
X00404Y0029725D02*
X0043D01*
Y0032725D01*
X00404D02*
X0043D01*
X00404Y0029725D02*
Y0032725D01*
X0059493Y0043167D02*
X0063446Y0043168D01*
Y0039842D02*
Y0043168D01*
X0059493Y0039842D02*
Y0043167D01*
Y0039842D02*
X0063446D01*
X0031541Y0043167D02*
X0035494Y0043168D01*
Y0039842D02*
Y0043168D01*
X0031541Y0039842D02*
Y0043167D01*
Y0039842D02*
X0035494D01*
X00382Y0037125D02*
X0057775D01*
X00382Y0037925D02*
X0057775D01*
D13*
X0049Y0032025D02*
Y0032825D01*
X0048D02*
X0049D01*
Y0029825D02*
Y0030625D01*
X0048Y0029825D02*
X0049D01*
X00509Y0032125D02*
X00554D01*
Y0032725D01*
X00509Y0032125D02*
Y0032725D01*
Y0035525D02*
Y0036125D01*
X00554Y0035525D02*
Y0036125D01*
X00509D02*
X00554D01*
X00526Y0032125D02*
Y0036125D01*
X0061Y0044525D02*
X00624D01*
X0061D02*
Y0047525D01*
X00624D01*
Y0044525D02*
Y0047525D01*
X00594Y0042925D02*
Y0044325D01*
X00564Y0042925D02*
X00594D01*
X00564D02*
Y0044325D01*
X00594D01*
D14*
X0041282Y003065D02*
X0041382Y003075D01*
X0041581D01*
X0041681Y003065D01*
Y003025D01*
X0041581Y003015D01*
X0041382D01*
X0041282Y003025D01*
X0041082D02*
X0040982Y003015D01*
X0040782D01*
X0040682Y003025D01*
Y003065D01*
X0040782Y003075D01*
X0040982D01*
X0041082Y003065D01*
Y003055D01*
X0040982Y003045D01*
X0040682D01*
X0046025Y0029225D02*
Y0029825D01*
X0045725D01*
X0045625Y0029725D01*
Y0029525D01*
X0045725Y0029425D01*
X0046025D01*
X0045825D02*
X0045625Y0029225D01*
X0045425Y0029725D02*
X0045325Y0029825D01*
X0045125D01*
X0045025Y0029725D01*
Y0029625D01*
X0045125Y0029525D01*
X0045025Y0029425D01*
Y0029325D01*
X0045125Y0029225D01*
X0045325D01*
X0045425Y0029325D01*
Y0029425D01*
X0045325Y0029525D01*
X0045425Y0029625D01*
Y0029725D01*
X0045325Y0029525D02*
X0045125D01*
X0042197Y0033775D02*
Y0033346D01*
X0042168Y0033261D01*
X0042111Y0033204D01*
X0042026Y0033175D01*
X0041969D01*
X0041883Y0033204D01*
X0041826Y0033261D01*
X0041797Y0033346D01*
Y0033775D01*
X0041346D02*
X0041631Y0033375D01*
X0041203D01*
X0041346Y0033775D02*
Y0033175D01*
X0049075Y00338D02*
Y00334D01*
X0048875Y00332D01*
X0048675Y00334D01*
Y00338D01*
X0048475D02*
Y00332D01*
X0048175D01*
X0048075Y00333D01*
Y00337D01*
X0048175Y00338D01*
X0048475D01*
X0047475Y00332D02*
X0047875D01*
X0047475Y00336D01*
Y00337D01*
X0047575Y00338D01*
X0047775D01*
X0047875Y00337D01*
X00583Y00426D02*
X00587D01*
Y00423D01*
X00585D01*
X00587D01*
Y0042D01*
X00581Y00426D02*
Y00421D01*
X0058Y0042D01*
X00578D01*
X00577Y00421D01*
Y00426D01*
X00575Y00425D02*
X00574Y00426D01*
X00572D01*
X00571Y00425D01*
Y00424D01*
X00572Y00423D01*
X00573D01*
X00572D01*
X00571Y00422D01*
Y00421D01*
X00572Y0042D01*
X00574D01*
X00575Y00421D01*
X00621Y00442D02*
X00625D01*
Y00439D01*
X00623D01*
X00625D01*
Y00436D01*
X00619Y00442D02*
Y00437D01*
X00618Y00436D01*
X00616D01*
X00615Y00437D01*
Y00442D01*
X00609Y00436D02*
X00613D01*
X00609Y0044D01*
Y00441D01*
X0061Y00442D01*
X00612D01*
X00613Y00441D01*
X00535Y0031725D02*
Y0031125D01*
X00532D01*
X00531Y0031225D01*
Y0031625D01*
X00532Y0031725D01*
X00535D01*
X00529Y0031625D02*
X00528Y0031725D01*
X00526D01*
X00525Y0031625D01*
Y0031525D01*
X00526Y0031425D01*
X00527D01*
X00526D01*
X00525Y0031325D01*
Y0031225D01*
X00526Y0031125D01*
X00528D01*
X00529Y0031225D01*
D15*
X00409Y0030175D02*
D03*
M02*
