G04*
G04 #@! TF.GenerationSoftware,Altium Limited,Altium Designer,20.1.8 (145)*
G04*
G04 Layer_Physical_Order=2*
G04 Layer_Color=36540*
%FSTAX43Y43*%
%MOMM*%
G71*
G04*
G04 #@! TF.SameCoordinates,DEFF2A6E-5F0D-40BF-B6DE-29F6B0C5E57E*
G04*
G04*
G04 #@! TF.FilePolarity,Positive*
G04*
G01*
G75*
%ADD10C,0.250*%
%ADD13C,0.200*%
%ADD47C,0.300*%
%ADD49C,1.000*%
%ADD50C,0.700*%
%ADD51C,0.600*%
G36*
X0064745Y002638D02*
X0031255D01*
Y0028125D01*
Y004787D01*
X0064745D01*
Y002638D01*
D02*
G37*
%LPC*%
G36*
X005994Y0047501D02*
X0059757Y0047477D01*
X0059587Y0047406D01*
X0059441Y0047294D01*
X0059384Y004722D01*
X0059226D01*
X0059169Y0047294D01*
X0059023Y0047406D01*
X0058853Y0047477D01*
X005867Y0047501D01*
X0058487Y0047477D01*
X0058317Y0047406D01*
X0058171Y0047294D01*
X0058114Y004722D01*
X0057956D01*
X0057899Y0047294D01*
X0057753Y0047406D01*
X0057583Y0047477D01*
X00574Y0047501D01*
X0057217Y0047477D01*
X0057047Y0047406D01*
X0056901Y0047294D01*
X0056892Y0047283D01*
X0056867Y0047258D01*
X0056837Y0047233D01*
X0056808Y0047211D01*
X0056779Y0047194D01*
X0056752Y0047179D01*
X0056726Y0047168D01*
X00567Y004716D01*
X0056675Y0047154D01*
X0056661Y0047152D01*
X0056338D01*
X0056201Y0047125D01*
X0056085Y0047047D01*
X0055909Y0046872D01*
X0055832Y0046756D01*
X0055805Y0046619D01*
Y0044813D01*
X0055832Y0044677D01*
X0055909Y0044561D01*
X0056439Y0044032D01*
X0056554Y0043954D01*
X0056691Y0043927D01*
X0060759D01*
X0060896Y0043954D01*
X0061011Y0044032D01*
X0062797Y0045817D01*
X0062874Y0045933D01*
X0062901Y0046069D01*
Y0046387D01*
X0062904Y0046403D01*
X0062907Y0046418D01*
X0062911Y0046431D01*
X0062915Y0046441D01*
X0062919Y0046449D01*
X0062923Y0046455D01*
X0062923Y0046455D01*
X0062949Y0046473D01*
X0063071Y0046655D01*
X0063114Y0046869D01*
X0063071Y0047084D01*
X0062949Y0047266D01*
X0062768Y0047387D01*
X0062553Y004743D01*
X0062338Y0047387D01*
X0062156Y0047266D01*
X0062035Y0047084D01*
X0061992Y0046869D01*
X0062035Y0046655D01*
X0062156Y0046473D01*
X0062169Y0046464D01*
X0062169Y0046464D01*
X0062173Y0046455D01*
X0062178Y0046444D01*
X0062182Y004643D01*
X0062185Y0046413D01*
X0062187Y0046397D01*
Y0046217D01*
X0060611Y0044641D01*
X0056839D01*
X0056519Y0044961D01*
Y0046438D01*
X0056661D01*
X0056675Y0046436D01*
X00567Y004643D01*
X0056726Y0046422D01*
X0056752Y0046411D01*
X0056779Y0046396D01*
X0056808Y0046379D01*
X0056837Y0046357D01*
X0056867Y0046332D01*
X0056892Y0046307D01*
X0056901Y0046296D01*
X0056975Y0046239D01*
Y0046081D01*
X0056901Y0046024D01*
X0056789Y0045878D01*
X0056718Y0045708D01*
X0056694Y0045525D01*
X0056718Y0045342D01*
X0056789Y0045172D01*
X0056901Y0045026D01*
X0057047Y0044914D01*
X0057217Y0044843D01*
X00574Y0044819D01*
X0057583Y0044843D01*
X0057753Y0044914D01*
X0057899Y0045026D01*
X0057956Y00451D01*
X0058114D01*
X0058171Y0045026D01*
X0058317Y0044914D01*
X0058487Y0044843D01*
X005867Y0044819D01*
X0058853Y0044843D01*
X0059023Y0044914D01*
X0059169Y0045026D01*
X0059226Y00451D01*
X0059384D01*
X0059441Y0045026D01*
X0059587Y0044914D01*
X0059757Y0044843D01*
X005994Y0044819D01*
X0060123Y0044843D01*
X0060293Y0044914D01*
X0060439Y0045026D01*
X0060551Y0045172D01*
X0060622Y0045342D01*
X0060646Y0045525D01*
X0060622Y0045708D01*
X0060551Y0045878D01*
X0060439Y0046024D01*
X0060365Y0046081D01*
Y0046239D01*
X0060439Y0046296D01*
X0060551Y0046442D01*
X0060622Y0046612D01*
X0060646Y0046795D01*
X0060622Y0046978D01*
X0060551Y0047148D01*
X0060439Y0047294D01*
X0060293Y0047406D01*
X0060123Y0047477D01*
X005994Y0047501D01*
D02*
G37*
G36*
X004094D02*
X0040757Y0047477D01*
X0040587Y0047406D01*
X0040441Y0047294D01*
X0040384Y004722D01*
X0040236D01*
X0039741Y0046724D01*
X0039599Y0046866D01*
X0040089Y0047356D01*
X0040023Y0047406D01*
X0039853Y0047477D01*
X003967Y0047501D01*
X0039487Y0047477D01*
X0039317Y0047406D01*
X0039297Y0047391D01*
X0039316Y004738D01*
X0039358Y0047362D01*
X0039405Y0047345D01*
X0039456Y0047331D01*
X0039512Y0047319D01*
X0039637Y00473D01*
X0039707Y0047294D01*
X0039172Y0046842D01*
X0039177Y0046908D01*
X0039176Y0047027D01*
X0039171Y004708D01*
X0039162Y004713D01*
X0039149Y0047175D01*
X0039134Y0047217D01*
X0039125Y0047234D01*
X0039114Y004722D01*
X0038956D01*
X0038899Y0047294D01*
X0038753Y0047406D01*
X0038583Y0047477D01*
X00384Y0047501D01*
X0038217Y0047477D01*
X0038047Y0047406D01*
X0037901Y0047294D01*
X0037789Y0047148D01*
X0037718Y0046978D01*
X0037694Y0046795D01*
X0037718Y0046612D01*
X0037789Y0046442D01*
X0037901Y0046296D01*
X0037912Y0046287D01*
X0037937Y0046262D01*
X0037962Y0046232D01*
X0037984Y0046203D01*
X0038001Y0046174D01*
X0038009Y004616D01*
X0038001Y0046146D01*
X0037984Y0046117D01*
X0037962Y0046088D01*
X0037937Y0046058D01*
X0037912Y0046033D01*
X0037901Y0046024D01*
X0037789Y0045878D01*
X0037718Y0045708D01*
X0037694Y0045525D01*
X0037718Y0045342D01*
X0037789Y0045172D01*
X0037901Y0045026D01*
X0037912Y0045017D01*
X0037937Y0044992D01*
X0037962Y0044962D01*
X0037984Y0044933D01*
X0038001Y0044904D01*
X0038016Y0044877D01*
X0038027Y0044851D01*
X0038035Y0044825D01*
X0038041Y00448D01*
X0038043Y0044786D01*
Y0038192D01*
X0037931Y0038132D01*
X0037915Y0038143D01*
X00377Y0038186D01*
X0037485Y0038143D01*
X0037303Y0038022D01*
X0037274Y0037977D01*
X0037147Y0038016D01*
Y0046019D01*
X003712Y0046156D01*
X0037042Y0046272D01*
X0036687Y0046627D01*
X0036571Y0046705D01*
X0036434Y0046732D01*
X0033576D01*
X0033439Y0046705D01*
X0033323Y0046627D01*
X0033148Y0046452D01*
X003307Y0046336D01*
X0033043Y0046199D01*
Y0045914D01*
X0033041Y00459D01*
X0033035Y0045875D01*
X0033027Y0045849D01*
X0033016Y0045823D01*
X0033001Y0045796D01*
X0032984Y0045767D01*
X0032962Y0045738D01*
X0032937Y0045708D01*
X0032912Y0045683D01*
X0032901Y0045674D01*
X0032789Y0045528D01*
X0032718Y0045358D01*
X0032694Y0045175D01*
X0032718Y0044992D01*
X0032789Y0044822D01*
X0032901Y0044676D01*
X0032975Y0044619D01*
Y0044461D01*
X0032901Y0044404D01*
X0032789Y0044258D01*
X0032718Y0044088D01*
X0032694Y0043905D01*
X0032718Y0043722D01*
X0032789Y0043552D01*
X003287Y0043446D01*
X0032817Y0043319D01*
X003226D01*
X0032133Y0043293D01*
X0032026Y0043222D01*
X0032001Y0043197D01*
X0031929Y0043089D01*
X0031904Y0042962D01*
Y004289D01*
X0031902Y0042875D01*
X0031895Y0042852D01*
X0031886Y0042826D01*
X0031873Y0042797D01*
X0031856Y0042766D01*
X0031836Y0042735D01*
X0031776Y0042658D01*
X0031761Y0042641D01*
X0031755Y0042637D01*
X0031745Y0042623D01*
X003174Y0042617D01*
X0031737Y0042613D01*
X0031643Y004249D01*
X0031572Y004232D01*
X0031548Y0042137D01*
X0031572Y0041955D01*
X0031643Y0041784D01*
X0031755Y0041638D01*
X0031829Y0041581D01*
Y0041424D01*
X0031755Y0041367D01*
X0031643Y004122D01*
X0031572Y004105D01*
X0031548Y0040867D01*
X0031572Y0040685D01*
X0031643Y0040514D01*
X0031755Y0040368D01*
X0031901Y0040256D01*
X0032072Y0040185D01*
X0032254Y0040161D01*
X0032437Y0040185D01*
X0032607Y0040256D01*
X0032754Y0040368D01*
X0032811Y0040442D01*
X0032958D01*
X0033454Y0040938D01*
X0033595Y0040797D01*
X0033105Y0040307D01*
X0033171Y0040256D01*
X0033342Y0040185D01*
X0033524Y0040161D01*
X0033707Y0040185D01*
X0033877Y0040256D01*
X0033951Y0040312D01*
X0033928Y0040324D01*
X0033887Y0040341D01*
X0033843Y0040354D01*
X0033795Y0040364D01*
X0033743Y004037D01*
X0033688Y0040373D01*
X0033629Y0040373D01*
X0033567Y0040369D01*
X0034024Y0040872D01*
X0034026Y0040807D01*
X0034038Y004069D01*
X0034048Y0040637D01*
X0034061Y0040588D01*
X0034077Y0040542D01*
X0034095Y0040501D01*
X0034116Y0040463D01*
X0034131Y0040442D01*
X0034228D01*
X0034724Y0040938D01*
X0034865Y0040797D01*
X0034375Y0040307D01*
X0034441Y0040256D01*
X0034612Y0040185D01*
X0034794Y0040161D01*
X0034977Y0040185D01*
X0035147Y0040256D01*
X0035235Y0040324D01*
X0035218Y0040332D01*
X0035176Y0040348D01*
X0035131Y004036D01*
X0035081Y0040369D01*
X0035028Y0040374D01*
X0034971Y0040376D01*
X0034909Y0040375D01*
X0034844Y004037D01*
X0035293Y0040907D01*
X0035299Y0040837D01*
X0035319Y0040711D01*
X0035331Y0040655D01*
X0035346Y0040604D01*
X0035362Y0040558D01*
X0035381Y0040516D01*
X0035392Y0040496D01*
X0035406Y0040514D01*
X0035476Y0040685D01*
X0035482Y0040725D01*
X0035609Y0040717D01*
Y0039662D01*
X0035403Y0039456D01*
X0032758D01*
X0032756Y0039457D01*
X0032741Y003946D01*
X0032727Y0039463D01*
X0032714Y0039468D01*
X0032701Y0039474D01*
X0032688Y0039481D01*
X0032676Y003949D01*
X0032667Y0039497D01*
X0032651Y0039522D01*
X0032469Y0039643D01*
X0032254Y0039686D01*
X003204Y0039643D01*
X0031858Y0039522D01*
X0031736Y003934D01*
X0031693Y0039125D01*
X0031736Y003891D01*
X0031858Y0038728D01*
X003204Y0038607D01*
X0032254Y0038564D01*
X0032469Y0038607D01*
X0032651Y0038728D01*
X0032667Y0038753D01*
X0032676Y003876D01*
X0032688Y0038769D01*
X0032701Y0038776D01*
X0032714Y0038782D01*
X0032727Y0038787D01*
X0032741Y0038791D01*
X0032756Y0038793D01*
X0032758Y0038794D01*
X003554D01*
X0035667Y0038819D01*
X0035774Y0038891D01*
X0036174Y0039291D01*
X0036246Y0039398D01*
X0036271Y0039525D01*
Y0042438D01*
X0036246Y0042565D01*
X0036174Y0042672D01*
X0035751Y0043096D01*
X003581Y0043216D01*
X003594Y0043199D01*
X0036123Y0043223D01*
X0036293Y0043294D01*
X0036319Y0043314D01*
X0036433Y0043258D01*
Y0038063D01*
X0036145Y0037775D01*
X0036024Y0037812D01*
X0036018Y003784D01*
X0035897Y0038022D01*
X0035715Y0038143D01*
X00355Y0038186D01*
X0035285Y0038143D01*
X0035103Y0038022D01*
X0034982Y003784D01*
X0034939Y0037625D01*
X0034982Y003741D01*
X0035103Y0037228D01*
X0035285Y0037107D01*
X0035313Y0037101D01*
X003535Y003698D01*
X0033835Y0035465D01*
X0033822Y0035455D01*
X0033808Y0035446D01*
X0033796Y003544D01*
X0033786Y0035435D01*
X0033777Y0035432D01*
X0033773Y0035431D01*
X003375Y0035436D01*
X0033535Y0035393D01*
X0033353Y0035272D01*
X0033232Y003509D01*
X0033189Y0034875D01*
X0033232Y003466D01*
X0033353Y0034478D01*
X0033535Y0034357D01*
X003375Y0034314D01*
X0033965Y0034357D01*
X0034147Y0034478D01*
X0034268Y003466D01*
X0034311Y0034875D01*
X0034306Y0034898D01*
X0034307Y0034902D01*
X003431Y0034911D01*
X0034315Y0034921D01*
X0034321Y0034933D01*
X003433Y0034947D01*
X003434Y003496D01*
X0037017Y0037637D01*
X0037051Y0037634D01*
X0037117Y0037611D01*
X0037146Y0037591D01*
X0037182Y003741D01*
X0037303Y0037228D01*
X0037485Y0037107D01*
X00377Y0037064D01*
X0037915Y0037107D01*
X0037931Y0037118D01*
X0038043Y0037058D01*
Y0035173D01*
X0035628Y0032757D01*
X003555Y0032642D01*
X0035532Y0032548D01*
X0035407Y0032515D01*
X0035401Y0032516D01*
X0035397Y0032522D01*
X0035215Y0032643D01*
X0035Y0032686D01*
X0034785Y0032643D01*
X0034603Y0032522D01*
X0034482Y003234D01*
X0034439Y0032125D01*
X0034482Y003191D01*
X0034603Y0031728D01*
X0034785Y0031607D01*
X0035Y0031564D01*
X0035215Y0031607D01*
X0035397Y0031728D01*
X0035523Y0031689D01*
Y0029464D01*
X0035521Y002945D01*
X0035515Y0029425D01*
X0035507Y0029399D01*
X0035496Y0029373D01*
X0035481Y0029346D01*
X0035464Y0029317D01*
X0035442Y0029288D01*
X0035417Y0029258D01*
X0035392Y0029233D01*
X0035381Y0029224D01*
X0035269Y0029078D01*
X0035198Y0028908D01*
X0035174Y0028725D01*
X0035198Y0028542D01*
X0035269Y0028372D01*
X0035381Y0028226D01*
X0035392Y0028217D01*
X0035417Y0028192D01*
X0035442Y0028162D01*
X0035464Y0028133D01*
X0035481Y0028104D01*
X0035489Y002809D01*
X0035481Y0028076D01*
X0035464Y0028047D01*
X0035442Y0028018D01*
X0035417Y0027988D01*
X0035392Y0027963D01*
X0035381Y0027954D01*
X0035269Y0027808D01*
X0035198Y0027638D01*
X0035174Y0027455D01*
X0035198Y0027272D01*
X0035269Y0027102D01*
X0035381Y0026956D01*
X0035527Y0026844D01*
X0035697Y0026773D01*
X003588Y0026749D01*
X0036063Y0026773D01*
X0036233Y0026844D01*
X0036379Y0026956D01*
X0036436Y002703D01*
X0036594D01*
X0036651Y0026956D01*
X0036797Y0026844D01*
X0036967Y0026773D01*
X003715Y0026749D01*
X0037333Y0026773D01*
X0037503Y0026844D01*
X0037649Y0026956D01*
X0037706Y002703D01*
X0037864D01*
X0037921Y0026956D01*
X0038067Y0026844D01*
X0038237Y0026773D01*
X003842Y0026749D01*
X0038603Y0026773D01*
X0038773Y0026844D01*
X0038919Y0026956D01*
X0039031Y0027102D01*
X0039102Y0027272D01*
X0039126Y0027455D01*
X0039102Y0027638D01*
X0039031Y0027808D01*
X0038919Y0027954D01*
X0038908Y0027963D01*
X0038883Y0027988D01*
X0038858Y0028018D01*
X0038836Y0028047D01*
X0038819Y0028076D01*
X0038811Y002809D01*
X0038819Y0028104D01*
X0038836Y0028133D01*
X0038858Y0028162D01*
X0038883Y0028192D01*
X0038908Y0028217D01*
X0038919Y0028226D01*
X0039031Y0028372D01*
X0039102Y0028542D01*
X0039126Y0028725D01*
X0039102Y0028908D01*
X0039031Y0029078D01*
X0038919Y0029224D01*
X0038908Y0029233D01*
X0038883Y0029258D01*
X0038858Y0029288D01*
X0038836Y0029317D01*
X0038819Y0029346D01*
X0038804Y0029373D01*
X0038793Y0029399D01*
X0038785Y0029425D01*
X0038779Y002945D01*
X0038777Y0029464D01*
Y0031397D01*
X0041192Y0033813D01*
X004127Y0033928D01*
X0041297Y0034065D01*
Y0044786D01*
X0041299Y00448D01*
X0041305Y0044825D01*
X0041313Y0044851D01*
X0041324Y0044877D01*
X0041339Y0044904D01*
X0041356Y0044933D01*
X0041378Y0044962D01*
X0041403Y0044992D01*
X0041428Y0045017D01*
X0041439Y0045026D01*
X0041551Y0045172D01*
X0041622Y0045342D01*
X0041646Y0045525D01*
X0041622Y0045708D01*
X0041551Y0045878D01*
X0041439Y0046024D01*
X0041428Y0046033D01*
X0041403Y0046058D01*
X0041378Y0046088D01*
X0041356Y0046117D01*
X0041339Y0046146D01*
X0041331Y004616D01*
X0041339Y0046174D01*
X0041356Y0046203D01*
X0041378Y0046232D01*
X0041403Y0046262D01*
X0041428Y0046287D01*
X0041439Y0046296D01*
X0041551Y0046442D01*
X0041622Y0046612D01*
X0041646Y0046795D01*
X0041622Y0046978D01*
X0041551Y0047148D01*
X0041439Y0047294D01*
X0041293Y0047406D01*
X0041123Y0047477D01*
X004094Y0047501D01*
D02*
G37*
G36*
X0054949Y0047433D02*
X0054734Y0047391D01*
X0054552Y0047269D01*
X0054431Y0047087D01*
X0054388Y0046873D01*
X0054431Y0046658D01*
X0054552Y0046476D01*
X0054734Y0046354D01*
X0054949Y0046312D01*
X0055163Y0046354D01*
X0055345Y0046476D01*
X0055467Y0046658D01*
X0055509Y0046873D01*
X0055467Y0047087D01*
X0055345Y0047269D01*
X0055163Y0047391D01*
X0054949Y0047433D01*
D02*
G37*
G36*
X0062746Y0042843D02*
X0062564Y0042819D01*
X0062393Y0042749D01*
X0062247Y0042637D01*
X006219Y0042562D01*
X0062033D01*
X0061976Y0042637D01*
X0061829Y0042749D01*
X0061659Y0042819D01*
X0061476Y0042843D01*
X0061294Y0042819D01*
X0061123Y0042749D01*
X0060977Y0042637D01*
X006092Y0042562D01*
X0060763D01*
X0060706Y0042637D01*
X0060559Y0042749D01*
X0060389Y0042819D01*
X0060206Y0042843D01*
X0060024Y0042819D01*
X0059853Y0042749D01*
X0059707Y0042637D01*
X0059595Y004249D01*
X0059524Y004232D01*
X00595Y0042137D01*
X0059524Y0041955D01*
X0059595Y0041784D01*
X0059707Y0041638D01*
X0059781Y0041581D01*
Y0041424D01*
X0059707Y0041367D01*
X0059595Y004122D01*
X0059524Y004105D01*
X00595Y0040867D01*
X0059524Y0040685D01*
X0059595Y0040514D01*
X0059707Y0040368D01*
X0059853Y0040256D01*
X0060024Y0040185D01*
X0060206Y0040161D01*
X0060389Y0040185D01*
X0060559Y0040256D01*
X0060706Y0040368D01*
X0060763Y0040442D01*
X006092D01*
X0060977Y0040368D01*
X0061123Y0040256D01*
X0061294Y0040185D01*
X0061476Y0040161D01*
X0061659Y0040185D01*
X0061829Y0040256D01*
X0061976Y0040368D01*
X0062033Y0040442D01*
X006219D01*
X0062247Y0040368D01*
X0062393Y0040256D01*
X0062564Y0040185D01*
X0062746Y0040161D01*
X0062929Y0040185D01*
X0063099Y0040256D01*
X0063246Y0040368D01*
X0063358Y0040514D01*
X0063428Y0040685D01*
X0063452Y0040867D01*
X0063428Y004105D01*
X0063358Y004122D01*
X0063246Y0041367D01*
X0063171Y0041424D01*
Y0041581D01*
X0063246Y0041638D01*
X0063358Y0041784D01*
X0063428Y0041955D01*
X0063452Y0042137D01*
X0063428Y004232D01*
X0063358Y004249D01*
X0063246Y0042637D01*
X0063099Y0042749D01*
X0062929Y0042819D01*
X0062746Y0042843D01*
D02*
G37*
G36*
X00445Y0042236D02*
X0044285Y0042193D01*
X0044103Y0042072D01*
X0043982Y004189D01*
X0043939Y0041675D01*
X0043953Y0041606D01*
X0043839Y004153D01*
X0043818Y0041543D01*
X0043604Y0041586D01*
X0043389Y0041543D01*
X0043207Y0041422D01*
X0043086Y004124D01*
X0043043Y0041025D01*
X0043086Y004081D01*
X0043207Y0040628D01*
X0043389Y0040507D01*
X0043604Y0040464D01*
X0043818Y0040507D01*
X0044Y0040628D01*
X0044122Y004081D01*
X0044165Y0041025D01*
X0044151Y0041094D01*
X0044265Y004117D01*
X0044285Y0041157D01*
X00445Y0041114D01*
X0044715Y0041157D01*
X0044897Y0041278D01*
X0045018Y004146D01*
X0045061Y0041675D01*
X0045018Y004189D01*
X0044897Y0042072D01*
X0044715Y0042193D01*
X00445Y0042236D01*
D02*
G37*
G36*
X0043541Y0034686D02*
X0043327Y0034643D01*
X0043145Y0034522D01*
X0043023Y003434D01*
X0042981Y0034125D01*
X0043023Y003391D01*
X0043145Y0033728D01*
X0043327Y0033607D01*
X0043541Y0033564D01*
X0043602Y0033576D01*
X0043692Y0033486D01*
X0043689Y0033475D01*
X0043732Y003326D01*
X0043853Y0033078D01*
X0044035Y0032957D01*
X004425Y0032914D01*
X0044465Y0032957D01*
X0044647Y0033078D01*
X0044768Y003326D01*
X0044811Y0033475D01*
X0044768Y003369D01*
X0044647Y0033872D01*
X0044465Y0033993D01*
X004425Y0034036D01*
X004419Y0034024D01*
X00441Y0034114D01*
X0044102Y0034125D01*
X0044059Y003434D01*
X0043938Y0034522D01*
X0043756Y0034643D01*
X0043541Y0034686D01*
D02*
G37*
G36*
X00565Y0031186D02*
X0056285Y0031143D01*
X0056103Y0031022D01*
X0055982Y003084D01*
X0055939Y0030625D01*
X0055982Y003041D01*
X0056103Y0030228D01*
X0056285Y0030107D01*
X00565Y0030064D01*
X0056715Y0030107D01*
X0056897Y0030228D01*
X0057018Y003041D01*
X0057061Y0030625D01*
X0057018Y003084D01*
X0056897Y0031022D01*
X0056715Y0031143D01*
X00565Y0031186D01*
D02*
G37*
G36*
X00461Y0039586D02*
X0045885Y0039543D01*
X0045703Y0039422D01*
X0045582Y003924D01*
X0045539Y0039025D01*
X0045582Y003881D01*
X0045703Y0038628D01*
X0045885Y0038507D01*
X00461Y0038464D01*
X0046108Y0038466D01*
X0046216Y0038358D01*
X0046189Y0038225D01*
X0046232Y003801D01*
X0046353Y0037828D01*
X0046373Y0037816D01*
X0046375Y0037812D01*
X0046379Y0037804D01*
X0046383Y0037793D01*
X0046387Y003778D01*
X0046391Y0037764D01*
X0046393Y0037748D01*
Y00321D01*
X004642Y0031963D01*
X0046498Y0031848D01*
X0048135Y003021D01*
X0048145Y0030197D01*
X0048154Y0030183D01*
X004816Y0030171D01*
X0048165Y0030161D01*
X0048168Y0030152D01*
X0048169Y0030148D01*
X0048164Y0030125D01*
X0048207Y002991D01*
X0048328Y0029728D01*
X004851Y0029607D01*
X0048725Y0029564D01*
X004894Y0029607D01*
X0049122Y0029728D01*
X0049243Y002991D01*
X0049286Y0030125D01*
X0049243Y003034D01*
X0049122Y0030522D01*
X004894Y0030643D01*
X0048725Y0030686D01*
X0048702Y0030681D01*
X0048698Y0030682D01*
X0048689Y0030685D01*
X0048679Y003069D01*
X0048667Y0030696D01*
X0048653Y0030705D01*
X004864Y0030715D01*
X0047107Y0032248D01*
Y0037748D01*
X0047109Y0037764D01*
X0047113Y003778D01*
X0047117Y0037793D01*
X0047121Y0037804D01*
X0047125Y0037812D01*
X0047127Y0037816D01*
X0047147Y0037828D01*
X0047268Y003801D01*
X0047311Y0038225D01*
X0047268Y003844D01*
X0047147Y0038622D01*
X0046965Y0038743D01*
X004675Y0038786D01*
X0046742Y0038784D01*
X0046634Y0038892D01*
X0046661Y0039025D01*
X0046618Y003924D01*
X0046497Y0039422D01*
X0046315Y0039543D01*
X00461Y0039586D01*
D02*
G37*
G36*
X0058795Y0029431D02*
X0058612Y0029407D01*
X0058442Y0029336D01*
X0058296Y0029224D01*
X0058239Y002915D01*
X0058081D01*
X0058024Y0029224D01*
X0057878Y0029336D01*
X0057708Y0029407D01*
X0057525Y0029431D01*
X0057342Y0029407D01*
X0057172Y0029336D01*
X0057026Y0029224D01*
X0056969Y002915D01*
X0056811D01*
X0056754Y0029224D01*
X0056608Y0029336D01*
X0056438Y0029407D01*
X0056255Y0029431D01*
X0056072Y0029407D01*
X0055902Y0029336D01*
X0055756Y0029224D01*
X0055644Y0029078D01*
X0055573Y0028908D01*
X0055549Y0028725D01*
X0055573Y0028542D01*
X0055644Y0028372D01*
X0055756Y0028226D01*
X005583Y0028169D01*
Y0028011D01*
X0055756Y0027954D01*
X0055644Y0027808D01*
X0055573Y0027638D01*
X0055549Y0027455D01*
X0055573Y0027272D01*
X0055644Y0027102D01*
X0055756Y0026956D01*
X0055902Y0026844D01*
X0056072Y0026773D01*
X0056255Y0026749D01*
X0056438Y0026773D01*
X0056608Y0026844D01*
X0056754Y0026956D01*
X0056811Y002703D01*
X0056959D01*
X0057454Y0027526D01*
X0057596Y0027384D01*
X0057106Y0026894D01*
X0057172Y0026844D01*
X0057342Y0026773D01*
X0057525Y0026749D01*
X0057708Y0026773D01*
X0057878Y0026844D01*
X0057961Y0026907D01*
X0057929Y0026924D01*
X005789Y002694D01*
X0057848Y0026952D01*
X0057802Y0026961D01*
X0057754Y0026966D01*
X0057702Y0026967D01*
X0057647Y0026965D01*
X005759Y0026959D01*
X0058025Y0027454D01*
X0058026Y0027393D01*
X0058031Y0027336D01*
X0058038Y0027282D01*
X0058048Y0027231D01*
X0058061Y0027183D01*
X0058077Y0027139D01*
X0058096Y0027098D01*
X0058118Y0027061D01*
X005814Y002703D01*
X0058239D01*
X0058296Y0026956D01*
X0058442Y0026844D01*
X0058612Y0026773D01*
X0058795Y0026749D01*
X0058978Y0026773D01*
X0059148Y0026844D01*
X0059294Y0026956D01*
X0059406Y0027102D01*
X0059477Y0027272D01*
X0059501Y0027455D01*
X0059477Y0027638D01*
X0059406Y0027808D01*
X0059294Y0027954D01*
X005922Y0028011D01*
Y0028169D01*
X0059294Y0028226D01*
X0059406Y0028372D01*
X0059477Y0028542D01*
X0059501Y0028725D01*
X0059477Y0028908D01*
X0059406Y0029078D01*
X0059294Y0029224D01*
X0059148Y0029336D01*
X0058978Y0029407D01*
X0058795Y0029431D01*
D02*
G37*
G36*
X0051Y0028436D02*
X0050785Y0028393D01*
X0050603Y0028272D01*
X0050482Y002809D01*
X0050439Y0027875D01*
X0050482Y002766D01*
X0050603Y0027478D01*
X0050785Y0027357D01*
X0051Y0027314D01*
X0051215Y0027357D01*
X0051397Y0027478D01*
X0051518Y002766D01*
X0051561Y0027875D01*
X0051518Y002809D01*
X0051397Y0028272D01*
X0051215Y0028393D01*
X0051Y0028436D01*
D02*
G37*
%LPD*%
G36*
X0057043Y0046445D02*
X0057003Y0046483D01*
X0056963Y0046517D01*
X0056923Y0046547D01*
X0056882Y0046573D01*
X005684Y0046595D01*
X0056798Y0046613D01*
X0056755Y0046627D01*
X0056711Y0046637D01*
X0056668Y0046643D01*
X0056623Y0046645D01*
Y0046945D01*
X0056668Y0046947D01*
X0056711Y0046953D01*
X0056755Y0046963D01*
X0056798Y0046977D01*
X005684Y0046995D01*
X0056882Y0047017D01*
X0056923Y0047043D01*
X0056963Y0047073D01*
X0057003Y0047107D01*
X0057043Y0047145D01*
Y0046445D01*
D02*
G37*
G36*
X0062792Y0046613D02*
X0062773Y0046594D01*
X0062757Y0046573D01*
X0062742Y0046551D01*
X0062729Y0046526D01*
X0062719Y0046499D01*
X006271Y0046471D01*
X0062703Y0046441D01*
X0062698Y0046409D01*
X0062695Y0046375D01*
X0062694Y0046339D01*
X0062394Y0046347D01*
X0062393Y0046383D01*
X0062391Y0046417D01*
X0062386Y0046449D01*
X006238Y004648D01*
X0062371Y0046508D01*
X0062361Y0046535D01*
X0062349Y004656D01*
X0062335Y0046584D01*
X0062319Y0046606D01*
X0062302Y0046625D01*
X0062792Y0046613D01*
D02*
G37*
G36*
X0041252Y0046398D02*
X0041218Y0046358D01*
X0041188Y0046318D01*
X0041162Y0046277D01*
X004114Y0046235D01*
X0041122Y0046193D01*
X0041111Y004616D01*
X0041122Y0046127D01*
X004114Y0046085D01*
X0041162Y0046043D01*
X0041188Y0046002D01*
X0041218Y0045962D01*
X0041252Y0045922D01*
X004129Y0045882D01*
X004059D01*
X0040628Y0045922D01*
X0040662Y0045962D01*
X0040692Y0046002D01*
X0040718Y0046043D01*
X004074Y0046085D01*
X0040758Y0046127D01*
X0040769Y004616D01*
X0040758Y0046193D01*
X004074Y0046235D01*
X0040718Y0046277D01*
X0040692Y0046318D01*
X0040662Y0046358D01*
X0040628Y0046398D01*
X004059Y0046438D01*
X004129D01*
X0041252Y0046398D01*
D02*
G37*
G36*
X0038712D02*
X0038678Y0046358D01*
X0038648Y0046318D01*
X0038622Y0046277D01*
X00386Y0046235D01*
X0038582Y0046193D01*
X0038571Y004616D01*
X0038582Y0046127D01*
X00386Y0046085D01*
X0038622Y0046043D01*
X0038648Y0046002D01*
X0038678Y0045962D01*
X0038712Y0045922D01*
X003875Y0045882D01*
X003805D01*
X0038088Y0045922D01*
X0038122Y0045962D01*
X0038152Y0046002D01*
X0038178Y0046043D01*
X00382Y0046085D01*
X0038218Y0046127D01*
X0038229Y004616D01*
X0038218Y0046193D01*
X00382Y0046235D01*
X0038178Y0046277D01*
X0038152Y0046318D01*
X0038122Y0046358D01*
X0038088Y0046398D01*
X003805Y0046438D01*
X003875D01*
X0038712Y0046398D01*
D02*
G37*
G36*
X0033552Y0045907D02*
X0033558Y0045864D01*
X0033568Y004582D01*
X0033582Y0045777D01*
X00336Y0045735D01*
X0033622Y0045693D01*
X0033648Y0045652D01*
X0033678Y0045612D01*
X0033712Y0045572D01*
X003375Y0045532D01*
X003305D01*
X0033088Y0045572D01*
X0033122Y0045612D01*
X0033152Y0045652D01*
X0033178Y0045693D01*
X00332Y0045735D01*
X0033218Y0045777D01*
X0033232Y004582D01*
X0033242Y0045864D01*
X0033248Y0045907D01*
X003325Y0045952D01*
X003355D01*
X0033552Y0045907D01*
D02*
G37*
G36*
X0041252Y0045128D02*
X0041218Y0045088D01*
X0041188Y0045048D01*
X0041162Y0045007D01*
X004114Y0044965D01*
X0041122Y0044923D01*
X0041108Y004488D01*
X0041098Y0044836D01*
X0041092Y0044793D01*
X004109Y0044748D01*
X004079D01*
X0040788Y0044793D01*
X0040782Y0044836D01*
X0040772Y004488D01*
X0040758Y0044923D01*
X004074Y0044965D01*
X0040718Y0045007D01*
X0040692Y0045048D01*
X0040662Y0045088D01*
X0040628Y0045128D01*
X004059Y0045168D01*
X004129D01*
X0041252Y0045128D01*
D02*
G37*
G36*
X0038712D02*
X0038678Y0045088D01*
X0038648Y0045048D01*
X0038622Y0045007D01*
X00386Y0044965D01*
X0038582Y0044923D01*
X0038568Y004488D01*
X0038558Y0044836D01*
X0038552Y0044793D01*
X003855Y0044748D01*
X003825D01*
X0038248Y0044793D01*
X0038242Y0044836D01*
X0038232Y004488D01*
X0038218Y0044923D01*
X00382Y0044965D01*
X0038178Y0045007D01*
X0038152Y0045048D01*
X0038122Y0045088D01*
X0038088Y0045128D01*
X003805Y0045168D01*
X003875D01*
X0038712Y0045128D01*
D02*
G37*
G36*
X0032363Y0042884D02*
X0032369Y0042842D01*
X0032381Y00428D01*
X0032397Y0042758D01*
X0032418Y0042717D01*
X0032443Y0042675D01*
X0032473Y0042633D01*
X0032508Y0042591D01*
X0032547Y0042549D01*
X003259Y0042507D01*
X0031891Y0042481D01*
X0031933Y0042527D01*
X0032003Y0042617D01*
X0032031Y0042662D01*
X0032055Y0042706D01*
X0032075Y0042749D01*
X003209Y0042792D01*
X0032101Y0042834D01*
X0032108Y0042875D01*
X003211Y0042916D01*
X003236Y0042926D01*
X0032363Y0042884D01*
D02*
G37*
G36*
X0035097Y0041732D02*
X0035017Y0041638D01*
X0034984Y0041593D01*
X0034957Y0041549D01*
X0034934Y0041507D01*
X0034932Y0041502D01*
X0034934Y0041498D01*
X0034957Y0041455D01*
X0034984Y0041411D01*
X0035017Y0041366D01*
X0035054Y004132D01*
X0035144Y0041224D01*
X0034444D01*
X0034492Y0041273D01*
X0034572Y0041366D01*
X0034604Y0041411D01*
X0034632Y0041455D01*
X0034654Y0041498D01*
X0034656Y0041502D01*
X0034654Y0041507D01*
X0034632Y0041549D01*
X0034604Y0041593D01*
X0034572Y0041638D01*
X0034534Y0041685D01*
X0034444Y004178D01*
X0035144D01*
X0035097Y0041732D01*
D02*
G37*
G36*
X0033827D02*
X0033747Y0041638D01*
X0033714Y0041593D01*
X0033687Y0041549D01*
X0033664Y0041507D01*
X0033662Y0041502D01*
X0033664Y0041498D01*
X0033687Y0041455D01*
X0033714Y0041411D01*
X0033747Y0041366D01*
X0033784Y004132D01*
X0033874Y0041224D01*
X0033174D01*
X0033222Y0041273D01*
X0033302Y0041366D01*
X0033334Y0041411D01*
X0033362Y0041455D01*
X0033384Y0041498D01*
X0033386Y0041502D01*
X0033384Y0041507D01*
X0033362Y0041549D01*
X0033334Y0041593D01*
X0033302Y0041638D01*
X0033264Y0041685D01*
X0033174Y004178D01*
X0033874D01*
X0033827Y0041732D01*
D02*
G37*
G36*
X0032528Y0039347D02*
X0032553Y0039327D01*
X0032579Y0039309D01*
X0032607Y0039293D01*
X0032635Y003928D01*
X0032664Y0039269D01*
X0032694Y0039261D01*
X0032726Y0039255D01*
X0032758Y0039251D01*
X0032791Y003925D01*
Y0039D01*
X0032758Y0038999D01*
X0032726Y0038995D01*
X0032694Y0038989D01*
X0032664Y0038981D01*
X0032635Y003897D01*
X0032607Y0038957D01*
X0032579Y0038941D01*
X0032553Y0038923D01*
X0032528Y0038903D01*
X0032504Y003888D01*
Y003937D01*
X0032528Y0039347D01*
D02*
G37*
G36*
X0039171Y0045026D02*
X0039317Y0044914D01*
X0039487Y0044843D01*
X003967Y0044819D01*
X0039853Y0044843D01*
X0040023Y0044914D01*
X0040169Y0045026D01*
X0040226Y00451D01*
X0040384D01*
X0040441Y0045026D01*
X0040452Y0045017D01*
X0040477Y0044992D01*
X0040502Y0044962D01*
X0040524Y0044933D01*
X0040541Y0044904D01*
X0040556Y0044877D01*
X0040567Y0044851D01*
X0040575Y0044825D01*
X0040581Y00448D01*
X0040583Y0044786D01*
Y0035806D01*
X0040456Y0035793D01*
X0040442Y0035865D01*
X0040418Y0035984D01*
X0040297Y0036166D01*
X0040115Y0036288D01*
X00399Y0036331D01*
X0039685Y0036288D01*
X0039503Y0036166D01*
X0039382Y0035984D01*
X0039339Y003577D01*
X0039382Y0035555D01*
X0039503Y0035373D01*
X0039685Y0035252D01*
X00399Y0035209D01*
X0040115Y0035252D01*
X0040297Y0035373D01*
X0040418Y0035555D01*
X0040442Y0035675D01*
X0040456Y0035746D01*
X0040583Y0035734D01*
Y0034213D01*
X0038168Y0031797D01*
X003809Y0031682D01*
X0038063Y0031545D01*
Y0029464D01*
X0038061Y002945D01*
X0038055Y0029425D01*
X0038047Y0029399D01*
X0038036Y0029373D01*
X0038021Y0029346D01*
X0038004Y0029317D01*
X0037982Y0029288D01*
X0037957Y0029258D01*
X0037932Y0029233D01*
X0037921Y0029224D01*
X0037864Y002915D01*
X0037706D01*
X0037649Y0029224D01*
X0037503Y0029336D01*
X0037333Y0029407D01*
X003715Y0029431D01*
X0036967Y0029407D01*
X0036797Y0029336D01*
X0036651Y0029224D01*
X0036594Y002915D01*
X0036436D01*
X0036379Y0029224D01*
X0036368Y0029233D01*
X0036343Y0029258D01*
X0036318Y0029288D01*
X0036296Y0029317D01*
X0036279Y0029346D01*
X0036264Y0029373D01*
X0036253Y0029399D01*
X0036245Y0029425D01*
X0036239Y002945D01*
X0036237Y0029464D01*
Y0032357D01*
X0038652Y0034773D01*
X003873Y0034888D01*
X0038757Y0035025D01*
Y0044786D01*
X0038759Y00448D01*
X0038765Y0044825D01*
X0038773Y0044851D01*
X0038784Y0044877D01*
X0038799Y0044904D01*
X0038816Y0044933D01*
X0038838Y0044962D01*
X0038863Y0044992D01*
X0038888Y0045017D01*
X0038899Y0045026D01*
X0038956Y00451D01*
X0039114D01*
X0039171Y0045026D01*
D02*
G37*
G36*
X0034228Y0035141D02*
X0034204Y0035115D01*
X0034182Y0035089D01*
X0034162Y0035063D01*
X0034145Y0035037D01*
X0034131Y0035011D01*
X003412Y0034984D01*
X0034111Y0034958D01*
X0034105Y0034932D01*
X0034101Y0034905D01*
X00341Y0034879D01*
X0033754Y0035225D01*
X003378Y0035226D01*
X0033807Y003523D01*
X0033833Y0035236D01*
X0033859Y0035245D01*
X0033886Y0035256D01*
X0033912Y003527D01*
X0033938Y0035287D01*
X0033964Y0035307D01*
X003399Y0035329D01*
X0034016Y0035353D01*
X0034228Y0035141D01*
D02*
G37*
G36*
X0038572Y0029457D02*
X0038578Y0029414D01*
X0038588Y002937D01*
X0038602Y0029327D01*
X003862Y0029285D01*
X0038642Y0029243D01*
X0038668Y0029202D01*
X0038698Y0029162D01*
X0038732Y0029122D01*
X003877Y0029082D01*
X003807D01*
X0038108Y0029122D01*
X0038142Y0029162D01*
X0038172Y0029202D01*
X0038198Y0029243D01*
X003822Y0029285D01*
X0038238Y0029327D01*
X0038252Y002937D01*
X0038262Y0029414D01*
X0038268Y0029457D01*
X003827Y0029502D01*
X003857D01*
X0038572Y0029457D01*
D02*
G37*
G36*
X0036032D02*
X0036038Y0029414D01*
X0036048Y002937D01*
X0036062Y0029327D01*
X003608Y0029285D01*
X0036102Y0029243D01*
X0036128Y0029202D01*
X0036158Y0029162D01*
X0036192Y0029122D01*
X003623Y0029082D01*
X003553D01*
X0035568Y0029122D01*
X0035602Y0029162D01*
X0035632Y0029202D01*
X0035658Y0029243D01*
X003568Y0029285D01*
X0035698Y0029327D01*
X0035712Y002937D01*
X0035722Y0029414D01*
X0035728Y0029457D01*
X003573Y0029502D01*
X003603D01*
X0036032Y0029457D01*
D02*
G37*
G36*
X0038732Y0028328D02*
X0038698Y0028288D01*
X0038668Y0028248D01*
X0038642Y0028207D01*
X003862Y0028165D01*
X0038602Y0028123D01*
X0038591Y002809D01*
X0038602Y0028057D01*
X003862Y0028015D01*
X0038642Y0027973D01*
X0038668Y0027932D01*
X0038698Y0027892D01*
X0038732Y0027852D01*
X003877Y0027812D01*
X003807D01*
X0038108Y0027852D01*
X0038142Y0027892D01*
X0038172Y0027932D01*
X0038198Y0027973D01*
X003822Y0028015D01*
X0038238Y0028057D01*
X0038249Y002809D01*
X0038238Y0028123D01*
X003822Y0028165D01*
X0038198Y0028207D01*
X0038172Y0028248D01*
X0038142Y0028288D01*
X0038108Y0028328D01*
X003807Y0028368D01*
X003877D01*
X0038732Y0028328D01*
D02*
G37*
G36*
X0036192D02*
X0036158Y0028288D01*
X0036128Y0028248D01*
X0036102Y0028207D01*
X003608Y0028165D01*
X0036062Y0028123D01*
X0036051Y002809D01*
X0036062Y0028057D01*
X003608Y0028015D01*
X0036102Y0027973D01*
X0036128Y0027932D01*
X0036158Y0027892D01*
X0036192Y0027852D01*
X003623Y0027812D01*
X003553D01*
X0035568Y0027852D01*
X0035602Y0027892D01*
X0035632Y0027932D01*
X0035658Y0027973D01*
X003568Y0028015D01*
X0035698Y0028057D01*
X0035709Y002809D01*
X0035698Y0028123D01*
X003568Y0028165D01*
X0035658Y0028207D01*
X0035632Y0028248D01*
X0035602Y0028288D01*
X0035568Y0028328D01*
X003553Y0028368D01*
X003623D01*
X0036192Y0028328D01*
D02*
G37*
%LPC*%
G36*
X00385Y0034186D02*
X0038285Y0034143D01*
X0038103Y0034022D01*
X0037982Y003384D01*
X0037939Y0033625D01*
X0037982Y003341D01*
X0038103Y0033228D01*
X0038285Y0033107D01*
X00385Y0033064D01*
X0038715Y0033107D01*
X0038897Y0033228D01*
X0039018Y003341D01*
X0039061Y0033625D01*
X0039018Y003384D01*
X0038897Y0034022D01*
X0038715Y0034143D01*
X00385Y0034186D01*
D02*
G37*
%LPD*%
G36*
X0046977Y0037956D02*
X0046961Y0037934D01*
X0046947Y0037911D01*
X0046934Y0037886D01*
X0046924Y0037859D01*
X0046915Y0037831D01*
X0046909Y0037801D01*
X0046904Y0037768D01*
X0046901Y0037735D01*
X00469Y0037699D01*
X00466D01*
X0046599Y0037735D01*
X0046596Y0037768D01*
X0046591Y0037801D01*
X0046585Y0037831D01*
X0046576Y0037859D01*
X0046566Y0037886D01*
X0046553Y0037911D01*
X0046539Y0037934D01*
X0046523Y0037956D01*
X0046505Y0037975D01*
X0046995D01*
X0046977Y0037956D01*
D02*
G37*
G36*
X0048485Y0030579D02*
X0048511Y0030557D01*
X0048537Y0030537D01*
X0048563Y003052D01*
X0048589Y0030506D01*
X0048616Y0030495D01*
X0048642Y0030486D01*
X0048668Y003048D01*
X0048695Y0030476D01*
X0048722Y0030475D01*
X0048375Y0030128D01*
X0048374Y0030155D01*
X004837Y0030182D01*
X0048364Y0030208D01*
X0048355Y0030234D01*
X0048344Y0030261D01*
X004833Y0030287D01*
X0048313Y0030313D01*
X0048293Y0030339D01*
X0048271Y0030365D01*
X0048247Y0030391D01*
X0048459Y0030603D01*
X0048485Y0030579D01*
D02*
G37*
D10*
X0032235Y0042156D02*
X0032254Y0042137D01*
X0032235Y0042156D02*
Y0042962D01*
X003226Y0042987D01*
X0035391D01*
X003594Y0039525D02*
Y0042438D01*
X0035391Y0042987D02*
X003594Y0042438D01*
X0032254Y0039125D02*
X003554D01*
X003594Y0039525D01*
D13*
X00391Y0047425D02*
X003967Y0046855D01*
Y0046795D02*
Y0046855D01*
X0057525Y0027455D02*
X005757D01*
X00581Y0026925D01*
X0034794Y0040867D02*
Y0042137D01*
X0033524Y0040867D02*
Y0042137D01*
X0034858Y0040867D02*
X00354Y0040325D01*
X0034794Y0040867D02*
X0034858D01*
X0033524D02*
X0033558D01*
X00341Y0040325D01*
D47*
X003588Y0032505D02*
X00384Y0035025D01*
Y0045525D01*
X003588Y0028725D02*
Y0032505D01*
X004675Y00321D02*
Y0038225D01*
X004094Y0034065D02*
Y0045525D01*
X003842Y0031545D02*
X004094Y0034065D01*
X0056338Y0046795D02*
X00574D01*
X0056162Y0044813D02*
X0056691Y0044284D01*
X0056162Y0046619D02*
X0056338Y0046795D01*
X0056162Y0044813D02*
Y0046619D01*
X0056691Y0044284D02*
X0060759D01*
X0062544Y0046069D01*
Y0046861D02*
X0062553Y0046869D01*
X0062544Y0046069D02*
Y0046861D01*
X0033576Y0046375D02*
X0036434D01*
X00334Y0045175D02*
Y0046199D01*
X0033576Y0046375D01*
X003679Y0037915D02*
Y0046019D01*
X0036434Y0046375D02*
X003679Y0046019D01*
X003375Y0034875D02*
X003679Y0037915D01*
X00384Y0045525D02*
Y0046795D01*
X003588Y0027455D02*
Y0028725D01*
X004094Y0045525D02*
Y0046795D01*
X003842Y0028725D02*
Y0031545D01*
Y0027455D02*
Y0028725D01*
X004675Y00321D02*
X0048725Y0030125D01*
D49*
X0032254Y0042137D02*
D03*
X0033524D02*
D03*
Y0040867D02*
D03*
X0034794Y0042137D02*
D03*
Y0040867D02*
D03*
X00574Y0046795D02*
D03*
X004094D02*
D03*
Y0045525D02*
D03*
X003967Y0046795D02*
D03*
X00384D02*
D03*
Y0045525D02*
D03*
X003588Y0027455D02*
D03*
Y0028725D02*
D03*
X003842Y0027455D02*
D03*
Y0028725D02*
D03*
X0057525Y0027455D02*
D03*
X00334Y0045175D02*
D03*
D50*
X006325Y0026975D02*
D03*
X003375D02*
D03*
Y0029975D02*
D03*
X005005Y0046873D02*
D03*
X0043Y0046795D02*
D03*
X00461Y0046873D02*
D03*
Y0043925D02*
D03*
X005005Y0042775D02*
D03*
X005845Y0036625D02*
D03*
X006175D02*
D03*
Y00391D02*
D03*
X0060625Y0028725D02*
D03*
Y0030625D02*
D03*
X00564Y0039675D02*
D03*
X005005Y0039775D02*
D03*
X0052Y0036025D02*
D03*
X005005D02*
D03*
X00483Y0033175D02*
D03*
X003715Y0029975D02*
D03*
X00412Y0026975D02*
D03*
X004975D02*
D03*
Y0029625D02*
D03*
X0052575Y0026975D02*
D03*
Y0029625D02*
D03*
X00412Y0029975D02*
D03*
X00456Y0033475D02*
D03*
X0032254Y0039125D02*
D03*
X004675Y0038225D02*
D03*
X0062553Y0046869D02*
D03*
X00431Y0037625D02*
D03*
X003375Y0034875D02*
D03*
X0048725Y0030125D02*
D03*
D51*
X0043Y0043925D02*
D03*
M02*
