G04*
G04 #@! TF.GenerationSoftware,Altium Limited,Altium Designer,20.1.8 (145)*
G04*
G04 Layer_Color=16777215*
%FSTAX43Y43*%
%MOMM*%
G71*
G04*
G04 #@! TF.SameCoordinates,DEFF2A6E-5F0D-40BF-B6DE-29F6B0C5E57E*
G04*
G04*
G04 #@! TF.FilePolarity,Positive*
G04*
G01*
G75*
%ADD10C,0.250*%
%ADD11C,0.254*%
%ADD12C,0.100*%
%ADD13C,0.200*%
%ADD14C,0.150*%
%ADD15R,1.000X0.900*%
G36*
X0039122Y0029723D02*
Y0029053D01*
X0039092D01*
X003842Y0029725D01*
X003912D01*
X0039122Y0029723D01*
D02*
G37*
G36*
X00384Y0044525D02*
X00377D01*
X0037698Y0044527D01*
Y0045197D01*
X0037728D01*
X00384Y0044525D01*
D02*
G37*
G36*
X00574D02*
X00567D01*
X0056698Y0044527D01*
Y0045197D01*
X0056728D01*
X00574Y0044525D01*
D02*
G37*
G36*
X0059497Y0029723D02*
Y0029053D01*
X0059467D01*
X0058795Y0029725D01*
X0059495D01*
X0059497Y0029723D01*
D02*
G37*
G36*
X004855Y0026425D02*
X00468D01*
Y002795D01*
X004855D01*
Y0026425D01*
D02*
G37*
G36*
X0051637Y0046161D02*
X0044595D01*
Y0047791D01*
X0051637D01*
Y0046161D01*
D02*
G37*
%LPC*%
G36*
X0047656Y0027667D02*
X0047274D01*
Y0026708D01*
X0047637D01*
X0047674Y0026709D01*
X0047709Y002671D01*
X0047738Y0026713D01*
X0047762Y0026717D01*
X0047781Y0026722D01*
X0047796Y0026724D01*
X0047801Y0026726D01*
X0047805D01*
X0047806Y0026727D01*
X0047807D01*
X0047838Y0026738D01*
X0047866Y0026751D01*
X0047888Y0026763D01*
X0047907Y0026776D01*
X0047923Y0026787D01*
X0047934Y0026795D01*
X0047941Y0026801D01*
X0047943Y0026803D01*
X0047967Y002683D01*
X0047988Y0026857D01*
X0048006Y0026887D01*
X004802Y0026913D01*
X0048031Y0026938D01*
X0048036Y0026948D01*
X0048039Y0026956D01*
X0048042Y0026964D01*
X0048045Y002697D01*
X0048046Y0026973D01*
Y0026974D01*
X0048056Y0027007D01*
X0048064Y0027042D01*
X004807Y0027075D01*
X0048072Y0027107D01*
X0048074Y0027122D01*
X0048075Y0027136D01*
Y0027147D01*
X0048076Y0027158D01*
Y0027178D01*
X0048075Y0027226D01*
X0048071Y0027269D01*
X004807Y002729D01*
X0048067Y0027308D01*
X0048064Y0027326D01*
X0048061Y0027341D01*
X0048057Y0027355D01*
X0048054Y0027368D01*
X0048052Y0027379D01*
X004805Y0027387D01*
X0048047Y0027394D01*
X0048046Y00274D01*
X0048045Y0027402D01*
Y0027404D01*
X0048032Y0027437D01*
X0048017Y0027468D01*
X0048002Y0027494D01*
X0047986Y0027516D01*
X0047974Y0027534D01*
X0047963Y0027548D01*
X0047956Y0027556D01*
X0047954Y0027559D01*
X0047953D01*
X0047929Y0027581D01*
X0047906Y0027599D01*
X0047881Y0027615D01*
X0047859Y0027627D01*
X0047839Y0027637D01*
X0047823Y0027644D01*
X0047817Y0027645D01*
X0047813Y0027647D01*
X004781Y0027648D01*
X0047809D01*
X0047782Y0027655D01*
X0047753Y0027659D01*
X0047723Y0027663D01*
X0047694Y0027665D01*
X0047667Y0027666D01*
X0047656Y0027667D01*
D02*
G37*
%LPD*%
G36*
X0047612Y0027504D02*
X0047629D01*
X0047642Y0027502D01*
X0047655D01*
X0047667Y0027501D01*
X0047677D01*
X0047692Y0027498D01*
X0047703Y0027497D01*
X004771Y0027495D01*
X0047712D01*
X0047731Y002749D01*
X0047748Y0027483D01*
X0047763Y0027476D01*
X0047777Y0027468D01*
X0047787Y0027461D01*
X0047795Y0027455D01*
X0047799Y0027451D01*
X0047801Y002745D01*
X0047813Y0027436D01*
X0047824Y002742D01*
X0047834Y0027405D01*
X0047842Y0027391D01*
X0047848Y0027378D01*
X0047852Y0027366D01*
X0047855Y0027359D01*
X0047856Y0027358D01*
Y0027357D01*
X0047863Y0027332D01*
X0047868Y0027305D01*
X0047871Y0027276D01*
X0047874Y0027249D01*
X0047875Y0027225D01*
X0047877Y0027214D01*
Y0027204D01*
Y0027197D01*
Y0027192D01*
Y0027188D01*
Y0027186D01*
X0047875Y0027147D01*
X0047874Y0027111D01*
X004787Y0027082D01*
X0047867Y0027057D01*
X0047863Y0027036D01*
X0047862Y0027028D01*
X0047859Y0027022D01*
X0047857Y0027017D01*
Y0027013D01*
X0047856Y0027011D01*
Y002701D01*
X0047848Y0026988D01*
X0047841Y0026968D01*
X0047831Y0026953D01*
X0047824Y0026941D01*
X0047817Y0026931D01*
X0047812Y0026924D01*
X0047807Y002692D01*
X0047806Y0026918D01*
X0047794Y0026909D01*
X0047781Y00269D01*
X0047769Y0026893D01*
X0047756Y0026888D01*
X0047745Y0026884D01*
X0047737Y0026881D01*
X0047731Y0026878D01*
X0047728D01*
X0047713Y0026875D01*
X0047695Y0026874D01*
X0047676Y0026871D01*
X0047656D01*
X0047638Y002687D01*
X0047468D01*
Y0027505D01*
X0047594D01*
X0047612Y0027504D01*
D02*
G37*
%LPC*%
G36*
X0049316Y0047585D02*
X004849D01*
D01*
X004913D01*
X0049051Y0047225D01*
X0049037Y0047244D01*
X0049022Y0047262D01*
X0049005Y0047278D01*
X0048987Y004729D01*
X0048971Y0047301D01*
X0048953Y0047309D01*
X0048935Y0047318D01*
X0048918Y0047323D01*
X0048901Y0047327D01*
X0048886Y0047332D01*
X0048872Y0047334D01*
X0048861Y0047336D01*
X0048852D01*
X0048845Y0047337D01*
X0048838D01*
X0048809Y0047336D01*
X0048782Y0047332D01*
X0048756Y0047325D01*
X0048732Y0047316D01*
X004871Y0047305D01*
X0048689Y0047294D01*
X004867Y0047282D01*
X0048653Y0047269D01*
X0048638Y0047257D01*
X0048624Y0047244D01*
X0048612Y0047233D01*
X0048603Y0047222D01*
X0048595Y0047214D01*
X0048589Y0047207D01*
X0048587Y0047203D01*
X0048585Y0047201D01*
X0048569Y0047176D01*
X0048553Y004715D01*
X0048541Y0047124D01*
X004853Y0047097D01*
X004852Y0047071D01*
X0048513Y0047046D01*
X0048506Y0047022D01*
X0048502Y0047D01*
X0048498Y0046978D01*
X0048495Y0046959D01*
X0048492Y0046942D01*
X0048491Y0046927D01*
X004849Y0046916D01*
Y0046608D01*
Y0046899D01*
X0048491Y0046873D01*
X0048492Y0046848D01*
X0048495Y0046825D01*
X0048501Y0046805D01*
X0048505Y0046785D01*
X004851Y0046767D01*
X0048517Y0046751D01*
X0048523Y0046737D01*
X004853Y0046723D01*
X0048535Y0046712D01*
X0048541Y0046702D01*
X0048546Y0046695D01*
X0048551Y0046689D01*
X0048553Y0046685D01*
X0048555Y0046683D01*
X0048556Y0046681D01*
X0048569Y0046669D01*
X0048582Y0046658D01*
X0048596Y0046646D01*
X0048612Y0046638D01*
X0048641Y0046626D01*
X0048668Y0046617D01*
X0048693Y0046612D01*
X0048703Y004661D01*
X0048713Y0046609D01*
X0048721Y0046608D01*
X0048731D01*
X0048753Y0046609D01*
X0048775Y004661D01*
X0048793Y0046615D01*
X004881Y0046619D01*
X0048824Y0046622D01*
X0048835Y0046626D01*
X004884Y0046627D01*
X0048843Y0046628D01*
X0048863Y0046638D01*
X0048881Y0046648D01*
X0048897Y004666D01*
X0048913Y0046671D01*
X0048925Y0046683D01*
X0048936Y0046691D01*
X0048942Y0046696D01*
X0048944Y0046699D01*
X0048929Y0046626D01*
X0049105D01*
X0049316Y0047585D01*
D01*
D02*
G37*
G36*
X0048422Y0047337D02*
X0047745D01*
X0048141D01*
X00481Y0047334D01*
X0048061Y0047327D01*
X0048026Y0047319D01*
X0047996Y0047308D01*
X0047982Y0047302D01*
X0047969Y0047297D01*
X004796Y0047293D01*
X004795Y0047289D01*
X0047943Y0047284D01*
X0047938Y0047282D01*
X0047935Y004728D01*
X0047933Y0047279D01*
X00479Y0047255D01*
X0047871Y0047229D01*
X0047847Y0047203D01*
X0047828Y0047178D01*
X0047811Y0047154D01*
X0047806Y0047144D01*
X00478Y0047136D01*
X0047798Y0047129D01*
X0047795Y0047124D01*
X0047792Y0047121D01*
Y0047119D01*
X0047777Y0047081D01*
X0047764Y0047043D01*
X0047756Y0047007D01*
X004775Y0046974D01*
X0047749Y0046959D01*
X0047748Y0046946D01*
X0047746Y0046934D01*
Y0046924D01*
X0047745Y0046916D01*
Y0046904D01*
X0047746Y0046879D01*
X0047748Y0046856D01*
X0047752Y0046832D01*
X0047757Y0046812D01*
X0047763Y0046792D01*
X004777Y0046774D01*
X0047777Y0046759D01*
X0047784Y0046744D01*
X0047791Y0046731D01*
X0047798Y0046719D01*
X0047804Y0046709D01*
X004781Y0046702D01*
X0047816Y0046695D01*
X004782Y0046691D01*
X0047821Y0046688D01*
X0047822Y0046687D01*
X0047838Y0046673D01*
X0047854Y004666D01*
X0047871Y0046651D01*
X0047888Y0046641D01*
X0047906Y0046634D01*
X0047924Y0046627D01*
X0047957Y0046617D01*
X0047972Y0046615D01*
X0047988Y0046612D01*
X0048Y004661D01*
X0048011Y0046609D01*
X0048021Y0046608D01*
X0048033D01*
X0048055Y0046609D01*
X0048076Y004661D01*
X0048115Y0046617D01*
X004815Y0046627D01*
X004818Y004664D01*
X0048193Y0046645D01*
X0048204Y0046651D01*
X0048215Y0046656D01*
X0048223Y004666D01*
X004823Y0046665D01*
X0048234Y0046667D01*
X0048237Y004667D01*
X0048239D01*
X004827Y0046696D01*
X0048297Y0046726D01*
X004832Y0046756D01*
X004834Y0046787D01*
X0048354Y0046813D01*
X0048359Y0046824D01*
X0048365Y0046835D01*
X0048369Y0046843D01*
X004837Y0046849D01*
X0048373Y0046853D01*
Y0046855D01*
X004819Y0046885D01*
X004818Y0046861D01*
X0048169Y0046842D01*
X0048158Y0046825D01*
X0048148Y0046812D01*
X0048139Y00468D01*
X004813Y0046794D01*
X0048125Y0046788D01*
X0048123Y0046787D01*
X0048108Y0046775D01*
X0048093Y0046769D01*
X0048078Y0046763D01*
X0048065Y0046759D01*
X0048054Y0046756D01*
X0048046Y0046755D01*
X0048037D01*
X0048021Y0046756D01*
X0048007Y004676D01*
X0047993Y0046766D01*
X0047982Y0046771D01*
X0047974Y0046777D01*
X0047967Y0046782D01*
X0047963Y0046787D01*
X0047961Y0046788D01*
X0047951Y0046802D01*
X0047945Y0046817D01*
X0047939Y0046832D01*
X0047936Y0046848D01*
X0047933Y0046861D01*
X0047932Y0046873D01*
Y0046879D01*
Y0046882D01*
X0047933Y004691D01*
X0047936Y0046936D01*
X004794Y0046963D01*
X0047945Y0046986D01*
X0047949Y0047006D01*
X0047953Y0047021D01*
X0047954Y0047026D01*
X0047956Y0047031D01*
X0047957Y0047033D01*
Y0047035D01*
X0047967Y0047064D01*
X0047979Y0047089D01*
X004799Y004711D01*
X0048003Y0047126D01*
X0048012Y004714D01*
X0048021Y004715D01*
X0048028Y0047155D01*
X0048029Y0047157D01*
X0048047Y0047171D01*
X0048065Y004718D01*
X0048082Y0047189D01*
X0048097Y0047193D01*
X0048111Y0047196D01*
X0048121Y0047198D01*
X004813D01*
X0048147Y0047197D01*
X0048162Y0047194D01*
X0048175Y0047189D01*
X0048186Y0047185D01*
X0048196Y0047179D01*
X0048201Y0047174D01*
X0048205Y0047171D01*
X0048207Y0047169D01*
X0048216Y0047158D01*
X0048225Y0047144D01*
X004823Y0047131D01*
X0048236Y0047117D01*
X0048239Y0047103D01*
X0048241Y0047093D01*
X0048243Y0047086D01*
Y0047083D01*
X0048422Y0047101D01*
X0048419Y0047121D01*
X0048415Y0047139D01*
X0048405Y0047172D01*
X0048391Y0047201D01*
X0048376Y0047226D01*
X0048362Y0047246D01*
X0048349Y0047261D01*
X0048345Y0047265D01*
X0048341Y0047269D01*
X004834Y0047271D01*
X0048338Y0047272D01*
X0048325Y0047283D01*
X0048309Y0047294D01*
X0048276Y0047309D01*
X0048244Y0047322D01*
X0048212Y0047329D01*
X0048184Y0047334D01*
X0048172Y0047336D01*
X0048162D01*
X0048154Y0047337D01*
X0048422D01*
D02*
G37*
G36*
X0047673Y0047063D02*
X0047272D01*
D01*
X0047308D01*
X0047272Y0046881D01*
X0047637D01*
X0047673Y0047063D01*
D02*
G37*
G36*
X0051437Y0047337D02*
X0050782D01*
X0051173D01*
X0051127Y0047334D01*
X0051086Y0047329D01*
X0051068Y0047325D01*
X0051051Y004732D01*
X0051034Y0047316D01*
X0051021Y0047311D01*
X0051008Y0047305D01*
X0050997Y0047301D01*
X0050987Y0047297D01*
X0050979Y0047293D01*
X0050973Y004729D01*
X0050969Y0047287D01*
X0050966Y0047284D01*
X0050965D01*
X0050939Y0047264D01*
X0050915Y004724D01*
X0050897Y0047215D01*
X0050882Y0047193D01*
X0050871Y0047172D01*
X0050862Y0047155D01*
X005086Y0047149D01*
X0050858Y0047144D01*
X0050857Y0047142D01*
Y004714D01*
X005104Y0047125D01*
X0051044Y0047137D01*
X005105Y0047149D01*
X0051057Y0047158D01*
X0051064Y0047167D01*
X0051069Y0047174D01*
X0051075Y0047178D01*
X0051077Y004718D01*
X0051079Y0047182D01*
X0051091Y0047189D01*
X0051104Y0047194D01*
X0051118Y0047197D01*
X005113Y00472D01*
X0051141Y0047201D01*
X0051151Y0047203D01*
X0051159D01*
X0051176Y0047201D01*
X0051191Y00472D01*
X0051202Y0047196D01*
X0051213Y0047193D01*
X0051222Y0047189D01*
X0051227Y0047185D01*
X005123Y0047183D01*
X0051231Y0047182D01*
X005124Y0047174D01*
X0051245Y0047165D01*
X0051251Y0047157D01*
X0051254Y0047149D01*
X0051255Y0047142D01*
X0051256Y0047137D01*
Y0047133D01*
Y0047132D01*
Y0047122D01*
X0051255Y0047112D01*
X0051251Y0047092D01*
X0051248Y0047083D01*
X0051245Y0047076D01*
X0051244Y0047071D01*
Y0047069D01*
X0051234Y0047067D01*
X0051223Y0047064D01*
X0051211Y0047061D01*
X0051197Y0047058D01*
X0051168Y0047053D01*
X0051137Y004705D01*
X0051109Y0047046D01*
X0051097Y0047045D01*
X0051087Y0047043D01*
X0051077D01*
X005107Y0047042D01*
X0051065D01*
X0051036Y0047039D01*
X0051009Y0047035D01*
X0050986Y0047031D01*
X0050964Y0047025D01*
X0050943Y004702D01*
X0050925Y0047014D01*
X0050908Y0047007D01*
X0050894Y0047002D01*
X0050882Y0046995D01*
X0050871Y0046989D01*
X0050862Y0046984D01*
X0050855Y0046979D01*
X005085Y0046975D01*
X0050846Y0046972D01*
X0050844Y0046971D01*
X0050843Y004697D01*
X0050832Y0046959D01*
X0050824Y0046946D01*
X0050808Y004692D01*
X0050797Y0046893D01*
X005079Y0046867D01*
X0050785Y0046845D01*
X0050783Y0046835D01*
Y0046827D01*
X0050782Y004682D01*
Y0046825D01*
Y0046608D01*
Y004681D01*
X0050785Y0046778D01*
X005079Y0046749D01*
X00508Y0046724D01*
X005081Y0046703D01*
X0050819Y0046685D01*
X0050829Y0046673D01*
X0050835Y0046666D01*
X0050837Y0046663D01*
X005086Y0046645D01*
X0050883Y0046631D01*
X0050908Y0046622D01*
X005093Y0046615D01*
X005095Y004661D01*
X0050966Y0046609D01*
X0050972Y0046608D01*
X005098D01*
X0051001Y0046609D01*
X0051021Y0046612D01*
X0051039Y0046616D01*
X0051055Y004662D01*
X0051069Y0046624D01*
X0051079Y0046628D01*
X0051086Y0046631D01*
X0051088Y0046633D01*
X0051108Y0046642D01*
X0051126Y0046655D01*
X0051143Y0046666D01*
X0051156Y0046677D01*
X0051168Y0046688D01*
X0051177Y0046696D01*
X0051183Y0046702D01*
X0051184Y0046703D01*
X0051187Y0046674D01*
X005119Y0046662D01*
X0051191Y0046649D01*
X0051194Y004664D01*
X0051197Y0046633D01*
X0051198Y0046627D01*
Y0046626D01*
X005138D01*
X0051374Y0046645D01*
X0051371Y0046665D01*
X0051369Y0046681D01*
X0051366Y0046695D01*
Y0046708D01*
X0051364Y0046716D01*
Y0046723D01*
Y0046724D01*
Y0046734D01*
X0051366Y0046746D01*
X0051369Y0046773D01*
X0051373Y00468D01*
X0051378Y004683D01*
X0051382Y0046856D01*
X0051385Y0046867D01*
X0051387Y0046878D01*
X0051388Y0046886D01*
X0051389Y0046892D01*
X0051391Y0046896D01*
Y0046898D01*
X0051396Y0046924D01*
X0051402Y0046949D01*
X0051407Y0046971D01*
X0051412Y004699D01*
X0051414Y0047007D01*
X0051417Y0047022D01*
X005142Y0047036D01*
X0051423Y0047047D01*
X0051424Y0047057D01*
X0051427Y0047064D01*
Y0047071D01*
X0051428Y0047075D01*
X005143Y0047082D01*
Y0047083D01*
X0051434Y004711D01*
X0051435Y0047121D01*
Y0047131D01*
X0051437Y0047139D01*
Y0047165D01*
X0051434Y0047179D01*
X0051427Y0047204D01*
X0051416Y0047226D01*
X0051405Y0047246D01*
X0051392Y0047262D01*
X0051381Y0047273D01*
X0051374Y004728D01*
X0051373Y0047283D01*
X0051371D01*
X0051359Y0047293D01*
X0051345Y0047301D01*
X0051313Y0047315D01*
X0051281Y0047325D01*
X0051248Y004733D01*
X0051219Y0047334D01*
X0051206Y0047336D01*
X0051195D01*
X0051186Y0047337D01*
X0051437D01*
D01*
D02*
G37*
G36*
X0050742Y0047591D02*
X0050058D01*
D01*
X0050453D01*
X0050431Y004759D01*
X0050409Y0047588D01*
X005037Y004758D01*
X0050335Y0047569D01*
X005032Y0047562D01*
X0050306Y0047555D01*
X0050292Y0047548D01*
X0050281Y0047541D01*
X0050272Y0047535D01*
X0050265Y004753D01*
X0050258Y0047526D01*
X0050254Y0047522D01*
X0050251Y004752D01*
X0050249Y0047519D01*
X0050236Y0047505D01*
X0050222Y004749D01*
X00502Y0047458D01*
X0050181Y0047423D01*
X0050168Y004739D01*
X0050162Y0047375D01*
X0050158Y0047361D01*
X0050155Y0047348D01*
X0050151Y0047337D01*
X005015Y0047327D01*
X0050148Y004732D01*
X0050147Y0047316D01*
Y0047315D01*
X005033Y0047289D01*
X0050337Y0047319D01*
X0050345Y0047344D01*
X0050353Y0047365D01*
X0050362Y0047382D01*
X0050369Y0047394D01*
X0050374Y0047402D01*
X0050378Y0047408D01*
X005038Y0047409D01*
X0050392Y004742D01*
X0050406Y0047429D01*
X0050419Y0047436D01*
X0050431Y004744D01*
X0050442Y0047443D01*
X0050451Y0047444D01*
X0050457D01*
X0050473Y0047443D01*
X0050487Y004744D01*
X0050499Y0047434D01*
X005051Y0047429D01*
X0050519Y0047423D01*
X0050524Y0047418D01*
X0050528Y0047415D01*
X005053Y0047413D01*
X0050539Y0047401D01*
X0050546Y0047388D01*
X0050552Y0047375D01*
X0050555Y0047362D01*
X0050557Y0047351D01*
X0050559Y0047343D01*
Y0047337D01*
Y0047334D01*
X0050557Y0047323D01*
X0050556Y0047311D01*
X0050553Y00473D01*
X005055Y0047289D01*
X0050546Y004728D01*
X0050543Y0047273D01*
X0050542Y0047268D01*
X0050541Y0047266D01*
X0050534Y0047253D01*
X0050524Y0047237D01*
X0050514Y0047222D01*
X0050503Y0047208D01*
X0050494Y0047196D01*
X0050485Y0047186D01*
X005048Y004718D01*
X0050478Y0047178D01*
X0050473Y0047172D01*
X0050466Y0047165D01*
X0050449Y0047147D01*
X0050428Y0047128D01*
X0050408Y0047107D01*
X0050388Y0047088D01*
X0050371Y0047072D01*
X0050366Y0047065D01*
X005036Y0047061D01*
X0050358Y0047058D01*
X0050356Y0047057D01*
X0050333Y0047035D01*
X0050312Y0047014D01*
X0050292Y0046995D01*
X0050274Y0046977D01*
X0050258Y0046961D01*
X0050244Y0046946D01*
X005023Y0046934D01*
X0050219Y0046921D01*
X0050209Y0046911D01*
X0050201Y0046902D01*
X0050194Y0046895D01*
X0050188Y0046889D01*
X0050181Y0046881D01*
X0050179Y0046878D01*
X0050162Y0046857D01*
X0050147Y0046836D01*
X0050133Y0046817D01*
X005012Y0046799D01*
X0050111Y0046784D01*
X0050104Y0046771D01*
X00501Y0046763D01*
X0050098Y0046762D01*
Y004676D01*
X0050087Y0046737D01*
X0050079Y0046712D01*
X0050072Y0046689D01*
X0050066Y0046669D01*
X0050062Y0046652D01*
X0050059Y0046638D01*
Y0046633D01*
X0050058Y0046628D01*
Y0046634D01*
Y0046626D01*
X0050641D01*
X0050677Y0046798D01*
X0050344D01*
X0050363Y0046821D01*
X0050371Y0046832D01*
X005038Y0046842D01*
X0050387Y0046849D01*
X0050392Y0046855D01*
X0050395Y0046859D01*
X0050396Y004686D01*
X005041Y0046874D01*
X0050427Y0046891D01*
X0050446Y0046909D01*
X0050466Y0046927D01*
X0050484Y0046945D01*
X0050499Y0046959D01*
X0050505Y0046964D01*
X0050509Y0046967D01*
X0050512Y004697D01*
X0050513Y0046971D01*
X0050543Y0047D01*
X005057Y0047025D01*
X0050592Y0047047D01*
X005061Y0047065D01*
X0050624Y0047079D01*
X0050634Y0047089D01*
X0050639Y0047096D01*
X0050641Y0047097D01*
X005066Y0047121D01*
X0050675Y0047143D01*
X0050689Y0047164D01*
X00507Y0047182D01*
X0050708Y0047197D01*
X0050714Y0047208D01*
X0050717Y0047215D01*
X0050718Y0047218D01*
X0050727Y004724D01*
X0050732Y0047261D01*
X0050736Y004728D01*
X0050739Y0047297D01*
X005074Y0047312D01*
X0050742Y0047323D01*
Y0046666D01*
Y0047334D01*
Y0047333D01*
X005074Y0047354D01*
X0050739Y0047373D01*
X0050729Y0047409D01*
X0050717Y0047441D01*
X0050703Y0047468D01*
X0050696Y0047479D01*
X0050689Y0047488D01*
X0050682Y0047497D01*
X0050677Y0047505D01*
X0050671Y0047511D01*
X0050667Y0047515D01*
X0050666Y0047516D01*
X0050664Y0047517D01*
X0050649Y004753D01*
X0050634Y0047542D01*
X0050617Y0047552D01*
X0050599Y004756D01*
X0050564Y0047573D01*
X005053Y0047581D01*
X0050514Y0047585D01*
X00505Y0047587D01*
X0050487Y0047588D01*
X0050476Y004759D01*
X0050466Y0047591D01*
X0050742D01*
D01*
D02*
G37*
G36*
X0047228Y0047322D02*
X0046595D01*
X004645Y0046626D01*
X0046635D01*
X004675Y0047175D01*
X0047008D01*
X0046895Y0046626D01*
X0047228D01*
X0047081D01*
X0047228Y0047322D01*
D02*
G37*
G36*
X0046412D02*
X0044941D01*
X0044795Y0046626D01*
X0044981D01*
X0045096Y0047175D01*
X0045354D01*
X004524Y0046626D01*
X0045426D01*
X0045542Y0047175D01*
X0045573Y0047322D01*
X0045817D01*
X0045735Y0046934D01*
X0045731Y0046916D01*
X0045727Y00469D01*
X0045724Y0046885D01*
X004572Y0046873D01*
X0045713Y004685D01*
X0045708Y0046832D01*
X0045702Y004682D01*
X0045698Y0046812D01*
X0045696Y0046806D01*
X0045695Y0046805D01*
X0045687Y0046795D01*
X0045676Y0046787D01*
X0045665Y0046781D01*
X0045653Y0046778D01*
X0045644Y0046775D01*
X0045635Y0046774D01*
X0045627D01*
X0045604Y0046775D01*
X0045592Y0046777D01*
X0045581Y0046778D01*
X0045573Y004678D01*
X0045566Y0046781D01*
X0045561Y0046782D01*
X0045559D01*
X004553Y0046626D01*
X0045556Y004662D01*
X0045579Y0046617D01*
X0045599Y0046615D01*
X0045617Y0046612D01*
X0045631D01*
X0045641Y004661D01*
X0045649D01*
X0045684Y0046612D01*
X0045714Y0046617D01*
X0045741Y0046624D01*
X0045763Y0046634D01*
X004578Y0046642D01*
X0045792Y0046649D01*
X0045799Y0046655D01*
X0045802Y0046656D01*
X0045812Y0046666D01*
X0045821Y0046676D01*
X0045838Y0046699D01*
X004585Y0046724D01*
X0045861Y0046749D01*
X004587Y0046771D01*
X0045873Y0046781D01*
X0045875Y0046791D01*
X0045877Y0046798D01*
X0045878Y0046803D01*
X004588Y0046806D01*
Y0046807D01*
X0045957Y0047175D01*
X0046193D01*
X0046079Y0046626D01*
X0046265D01*
X0046412Y0047322D01*
D01*
D02*
G37*
G36*
X0049983Y0046626D02*
Y004648D01*
X0049218D01*
Y0046361D01*
X0049983D01*
Y0046626D01*
D02*
G37*
%LPD*%
G36*
X0048882Y0047197D02*
X00489Y0047192D01*
X0048917Y0047183D01*
X0048931Y0047175D01*
X0048942Y0047167D01*
X004895Y0047158D01*
X0048956Y0047153D01*
X0048957Y0047151D01*
X0048971Y0047132D01*
X004898Y0047112D01*
X0048989Y0047092D01*
X0048993Y0047072D01*
X0048996Y0047056D01*
X0048999Y0047042D01*
Y0047036D01*
Y0047032D01*
Y0047031D01*
Y0047029D01*
X0048997Y0047004D01*
X0048994Y0046979D01*
X004899Y0046956D01*
X0048986Y0046935D01*
X004898Y0046917D01*
X0048976Y0046903D01*
X0048975Y0046898D01*
X0048974Y0046893D01*
X0048972Y0046892D01*
Y0046891D01*
X0048961Y0046866D01*
X004895Y0046843D01*
X0048938Y0046825D01*
X0048926Y004681D01*
X0048915Y0046799D01*
X0048907Y0046791D01*
X0048901Y0046785D01*
X00489Y0046784D01*
X0048883Y0046773D01*
X0048867Y0046764D01*
X004885Y0046757D01*
X0048836Y0046753D01*
X0048822Y0046751D01*
X0048813Y0046749D01*
X0048804D01*
X0048785Y0046751D01*
X0048767Y0046756D01*
X004875Y0046763D01*
X0048736Y004677D01*
X0048725Y0046778D01*
X0048717Y0046784D01*
X0048711Y0046789D01*
X004871Y0046791D01*
X0048698Y0046807D01*
X0048688Y0046827D01*
X0048682Y0046846D01*
X0048677Y0046864D01*
X0048674Y0046881D01*
X0048673Y0046895D01*
Y00469D01*
Y0046904D01*
Y0046906D01*
Y0046907D01*
X0048675Y0046946D01*
X0048681Y0046984D01*
X0048689Y0047017D01*
X0048699Y0047046D01*
X0048705Y004706D01*
X0048709Y0047071D01*
X0048713Y0047081D01*
X0048717Y004709D01*
X0048721Y0047096D01*
X0048723Y0047101D01*
X0048725Y0047104D01*
Y0047106D01*
X0048736Y0047122D01*
X0048746Y0047136D01*
X0048759Y0047149D01*
X004877Y004716D01*
X0048781Y0047168D01*
X0048792Y0047176D01*
X0048814Y0047187D01*
X0048833Y0047193D01*
X0048849Y0047197D01*
X0048854Y0047198D01*
X0048863D01*
X0048882Y0047197D01*
D02*
G37*
G36*
X0051213Y0046924D02*
X0051208Y00469D01*
X0051202Y0046879D01*
X0051197Y0046861D01*
X0051191Y0046848D01*
X0051187Y0046836D01*
X0051183Y004683D01*
X0051181Y0046824D01*
X005118Y0046823D01*
X0051173Y004681D01*
X0051163Y00468D01*
X0051154Y0046791D01*
X0051145Y0046784D01*
X0051137Y0046777D01*
X005113Y0046773D01*
X0051125Y004677D01*
X0051123Y0046769D01*
X0051109Y0046762D01*
X0051095Y0046757D01*
X0051082Y0046753D01*
X0051069Y0046752D01*
X0051059Y0046751D01*
X0051051Y0046749D01*
X0051044D01*
X005103Y0046751D01*
X0051018Y0046753D01*
X0051007Y0046756D01*
X0050998Y004676D01*
X0050991Y0046764D01*
X0050986Y0046769D01*
X0050983Y004677D01*
X0050982Y0046771D01*
X0050973Y004678D01*
X0050968Y0046789D01*
X0050964Y0046799D01*
X0050961Y0046807D01*
X005096Y0046816D01*
X0050958Y0046821D01*
Y0046825D01*
Y0046827D01*
X005096Y0046841D01*
X0050962Y0046853D01*
X0050968Y0046864D01*
X0050973Y0046874D01*
X0050979Y0046881D01*
X0050984Y0046886D01*
X0050987Y0046889D01*
X0050989Y0046891D01*
X0050998Y0046896D01*
X0051009Y0046902D01*
X0051022Y0046907D01*
X0051036Y0046913D01*
X0051066Y0046921D01*
X0051097Y0046928D01*
X0051126Y0046934D01*
X0051138Y0046936D01*
X0051151Y0046938D01*
X0051159Y0046939D01*
X0051168D01*
X0051172Y0046941D01*
X0051173D01*
X0051193Y0046943D01*
X0051206Y0046947D01*
X0051212Y0046949D01*
X0051216D01*
X0051217Y004695D01*
X0051219D01*
X0051213Y0046924D01*
D02*
G37*
D10*
X0040425Y0039625D02*
G03*
X0040425Y0039625I-0000125J0D01*
G01*
X0054725Y0035925D02*
G03*
X0054725Y0035925I-0000125J0D01*
G01*
X0062125Y0031025D02*
G03*
X0062125Y0031025I-0000125J0D01*
G01*
D11*
X0040875Y0040575D02*
G03*
X0040875Y0040575I-0000075J0D01*
G01*
D12*
X0052775Y0033775D02*
Y0034875D01*
X0052625Y0033775D02*
Y0034875D01*
X003695Y0040375D02*
X003805D01*
X003695Y0040225D02*
X003805D01*
X003935Y0039675D02*
X004045D01*
X003935Y0039525D02*
X004045D01*
X003815Y0039675D02*
X003925D01*
X003815Y0039525D02*
X003925D01*
X005735Y0032275D02*
X005845D01*
X005735Y0032125D02*
X005845D01*
X00627Y003195D02*
X00638D01*
X00627Y00318D02*
X00638D01*
X0042375Y0042275D02*
Y0043375D01*
X0042225Y0042275D02*
Y0043375D01*
X0056275Y0034225D02*
X0056525D01*
X0056275Y0035025D02*
X0056525D01*
X0036775Y0035725D02*
X0037025D01*
X0036775Y0036525D02*
X0037025D01*
X0036775Y0034425D02*
X0037025D01*
X0036775Y0035225D02*
X0037025D01*
X0040516Y0033825D02*
X0040766D01*
X0040516Y0034625D02*
X0040766D01*
X0035375Y00385D02*
X0035625D01*
X0035375Y00393D02*
X0035625D01*
X00332Y0038D02*
Y003825D01*
X0034Y0038D02*
Y003825D01*
X00354Y0034D02*
Y003425D01*
X00346Y0034D02*
Y003425D01*
X00516Y0033425D02*
X00542D01*
Y0030425D02*
Y0033425D01*
X00516Y0030425D02*
X00542D01*
X00516D02*
Y0033425D01*
X004285Y0040575D02*
Y004095D01*
X00424Y0040575D02*
X004285D01*
X0042475Y00422D02*
X004285D01*
Y004175D02*
Y00422D01*
X0040925Y0041825D02*
Y00422D01*
X0041375D01*
X00567Y0047826D02*
X0060654Y0047825D01*
X00567Y00445D02*
Y0047826D01*
X0060654Y00445D02*
Y0047825D01*
X00567Y00445D02*
X0060654D01*
X00377Y0047826D02*
X0041654Y0047825D01*
X00377Y00445D02*
Y0047826D01*
X0041654Y00445D02*
Y0047825D01*
X00377Y00445D02*
X0041654D01*
X0035166Y0026425D02*
X003912Y0026424D01*
Y002975D01*
X0035166Y0026425D02*
Y002975D01*
X003912D01*
X0055541Y0026425D02*
X0059495Y0026424D01*
Y002975D01*
X0055541Y0026425D02*
Y002975D01*
X0059495D01*
X0032625Y004965D02*
X0036775D01*
X0032625Y004315D02*
Y004965D01*
X0036775Y004315D02*
Y004965D01*
X0032625Y004315D02*
X0036775D01*
D13*
X004095Y0039525D02*
Y0039775D01*
X00412D01*
X0045D02*
X004525D01*
Y0039525D02*
Y0039775D01*
Y0035475D02*
Y0035725D01*
X0045Y0035475D02*
X004525D01*
X004095D02*
Y0035725D01*
Y0035475D02*
X00412D01*
X00549Y0036825D02*
Y0037825D01*
X00557D01*
X00579Y0036825D02*
Y0037825D01*
X00571D02*
X00579D01*
X00382Y00422D02*
Y004345D01*
X004085Y00422D02*
Y004345D01*
X00382D02*
X004085D01*
X00382Y00422D02*
X004085D01*
X00557Y0039525D02*
Y0044025D01*
X00551Y0039525D02*
X00557D01*
X00551Y0044025D02*
X00557D01*
X00517D02*
X00523D01*
X00517Y0039525D02*
X00523D01*
X00517D02*
Y0044025D01*
Y0042325D02*
X00557D01*
X0051575Y002745D02*
X0053775D01*
Y002845D01*
X0051575D02*
X0053775D01*
X0051575Y002745D02*
Y002845D01*
X0052825Y002755D02*
Y002845D01*
X006045Y0031325D02*
Y0034125D01*
X006095Y0031325D02*
Y0034125D01*
X006045D02*
X006095D01*
X006045Y0031325D02*
X006095D01*
X00551Y0047525D02*
X00565D01*
X00551Y0044525D02*
Y0047525D01*
Y0044525D02*
X00565D01*
Y0047525D01*
X00598Y0042925D02*
Y0044325D01*
X00568D02*
X00598D01*
X00568Y0042925D02*
Y0044325D01*
Y0042925D02*
X00598D01*
D14*
X0052625Y003575D02*
X0052525Y003585D01*
X0052325D01*
X0052225Y003575D01*
Y003535D01*
X0052325Y003525D01*
X0052525D01*
X0052625Y003535D01*
X0052825Y003575D02*
X0052925Y003585D01*
X0053125D01*
X0053225Y003575D01*
Y003565D01*
X0053125Y003555D01*
X0053225Y003545D01*
Y003535D01*
X0053125Y003525D01*
X0052925D01*
X0052825Y003535D01*
Y003545D01*
X0052925Y003555D01*
X0052825Y003565D01*
Y003575D01*
X0052925Y003555D02*
X0053125D01*
X003715Y004225D02*
X003705Y004235D01*
X003685D01*
X003675Y004225D01*
Y004185D01*
X003685Y004175D01*
X003705D01*
X003715Y004185D01*
X003735Y004235D02*
X003775D01*
Y004225D01*
X003735Y004185D01*
Y004175D01*
X004Y00416D02*
X00399Y00417D01*
X00397D01*
X00396Y00416D01*
Y00412D01*
X00397Y00411D01*
X00399D01*
X004Y00412D01*
X00406Y00417D02*
X00404Y00416D01*
X00402Y00414D01*
Y00412D01*
X00403Y00411D01*
X00405D01*
X00406Y00412D01*
Y00413D01*
X00405Y00414D01*
X00402D01*
X00386Y0041575D02*
X00385Y0041675D01*
X00383D01*
X00382Y0041575D01*
Y0041175D01*
X00383Y0041075D01*
X00385D01*
X00386Y0041175D01*
X00392Y0041675D02*
X00388D01*
Y0041375D01*
X0039Y0041475D01*
X00391D01*
X00392Y0041375D01*
Y0041175D01*
X00391Y0041075D01*
X00389D01*
X00388Y0041175D01*
X00578Y0030825D02*
X00577Y0030925D01*
X00575D01*
X00574Y0030825D01*
Y0030425D01*
X00575Y0030325D01*
X00577D01*
X00578Y0030425D01*
X00583Y0030325D02*
Y0030925D01*
X0058Y0030625D01*
X00584D01*
X0063275Y0033575D02*
X0063175Y0033675D01*
X0062975D01*
X0062875Y0033575D01*
Y0033175D01*
X0062975Y0033075D01*
X0063175D01*
X0063275Y0033175D01*
X0063475Y0033575D02*
X0063575Y0033675D01*
X0063775D01*
X0063875Y0033575D01*
Y0033475D01*
X0063775Y0033375D01*
X0063675D01*
X0063775D01*
X0063875Y0033275D01*
Y0033175D01*
X0063775Y0033075D01*
X0063575D01*
X0063475Y0033175D01*
X00421Y0044125D02*
X0042Y0044225D01*
X00418D01*
X00417Y0044125D01*
Y0043725D01*
X00418Y0043625D01*
X0042D01*
X00421Y0043725D01*
X00423Y0043625D02*
X00425D01*
X00424D01*
Y0044225D01*
X00423Y0044125D01*
X005765Y0034325D02*
Y0034925D01*
X005795D01*
X005805Y0034825D01*
Y0034625D01*
X005795Y0034525D01*
X005765D01*
X005785D02*
X005805Y0034325D01*
X005825Y0034925D02*
X005865D01*
Y0034825D01*
X005825Y0034425D01*
Y0034325D01*
X004015Y003295D02*
Y003355D01*
X004045D01*
X004055Y003345D01*
Y003325D01*
X004045Y003315D01*
X004015D01*
X004035D02*
X004055Y003295D01*
X004115Y003355D02*
X004095Y003345D01*
X004075Y003325D01*
Y003305D01*
X004085Y003295D01*
X004105D01*
X004115Y003305D01*
Y003315D01*
X004105Y003325D01*
X004075D01*
X00382Y0034575D02*
Y0035175D01*
X00385D01*
X00386Y0035075D01*
Y0034875D01*
X00385Y0034775D01*
X00382D01*
X00384D02*
X00386Y0034575D01*
X00392Y0035175D02*
X00388D01*
Y0034875D01*
X0039Y0034975D01*
X00391D01*
X00392Y0034875D01*
Y0034675D01*
X00391Y0034575D01*
X00389D01*
X00388Y0034675D01*
X00382Y0035825D02*
Y0036425D01*
X00385D01*
X00386Y0036325D01*
Y0036125D01*
X00385Y0036025D01*
X00382D01*
X00384D02*
X00386Y0035825D01*
X00391D02*
Y0036425D01*
X00388Y0036125D01*
X00392D01*
X0035Y00396D02*
Y00402D01*
X00353D01*
X00354Y00401D01*
Y00399D01*
X00353Y00398D01*
X0035D01*
X00352D02*
X00354Y00396D01*
X0036D02*
X00356D01*
X0036Y004D01*
Y00401D01*
X00359Y00402D01*
X00357D01*
X00356Y00401D01*
X0032175Y0037825D02*
Y0038425D01*
X0032475D01*
X0032575Y0038325D01*
Y0038125D01*
X0032475Y0038025D01*
X0032175D01*
X0032375D02*
X0032575Y0037825D01*
X0032775D02*
X0032975D01*
X0032875D01*
Y0038425D01*
X0032775Y0038325D01*
X0033175Y00338D02*
Y00344D01*
X0033475D01*
X0033575Y00343D01*
Y00341D01*
X0033475Y0034D01*
X0033175D01*
X0033375D02*
X0033575Y00338D01*
X0033775Y00343D02*
X0033875Y00344D01*
X0034075D01*
X0034175Y00343D01*
Y00342D01*
X0034075Y00341D01*
X0033975D01*
X0034075D01*
X0034175Y0034D01*
Y00339D01*
X0034075Y00338D01*
X0033875D01*
X0033775Y00339D01*
X00523Y0030225D02*
Y0029725D01*
X00524Y0029625D01*
X00526D01*
X00527Y0029725D01*
Y0030225D01*
X00529Y0030125D02*
X0053Y0030225D01*
X00532D01*
X00533Y0030125D01*
Y0030025D01*
X00532Y0029925D01*
X00531D01*
X00532D01*
X00533Y0029825D01*
Y0029725D01*
X00532Y0029625D01*
X0053D01*
X00529Y0029725D01*
X00435Y004155D02*
X00434Y004165D01*
X00432D01*
X00431Y004155D01*
Y004115D01*
X00432Y004105D01*
X00434D01*
X00435Y004115D01*
Y004135D01*
X00433D01*
X00437Y004105D02*
X00439D01*
X00438D01*
Y004165D01*
X00437Y004155D01*
X00569Y003925D02*
Y003885D01*
X00571Y003865D01*
X00573Y003885D01*
Y003925D01*
X00575D02*
Y003865D01*
X00578D01*
X00579Y003875D01*
Y003915D01*
X00578Y003925D01*
X00575D01*
X00581Y003865D02*
X00583D01*
X00582D01*
Y003925D01*
X00581Y003915D01*
X00603Y0035125D02*
Y0034625D01*
X00604Y0034525D01*
X00606D01*
X00607Y0034625D01*
Y0035125D01*
X00613Y0034525D02*
X00609D01*
X00613Y0034925D01*
Y0035025D01*
X00612Y0035125D01*
X0061D01*
X00609Y0035025D01*
X003927Y0044297D02*
Y0043697D01*
X003967D01*
X003987D02*
X004007D01*
X003997D01*
Y0044297D01*
X003987Y0044197D01*
X0054225Y0046225D02*
Y0045825D01*
X0054525D01*
Y0046025D01*
Y0045825D01*
X0054825D01*
X0054225Y0046425D02*
X0054725D01*
X0054825Y0046525D01*
Y0046725D01*
X0054725Y0046825D01*
X0054225D01*
X0054825Y0047325D02*
X0054225D01*
X0054525Y0047025D01*
Y0047425D01*
X00581Y0042525D02*
X00577D01*
Y0042225D01*
X00579D01*
X00577D01*
Y0041925D01*
X00583Y0042525D02*
Y0042025D01*
X00584Y0041925D01*
X00586D01*
X00587Y0042025D01*
Y0042525D01*
X00589Y0041925D02*
X00591D01*
X0059D01*
Y0042525D01*
X00589Y0042425D01*
X00513Y0045225D02*
Y0044625D01*
X00516D01*
X00517Y0044725D01*
Y0045125D01*
X00516Y0045225D01*
X00513D01*
X00523Y0044625D02*
X00519D01*
X00523Y0045025D01*
Y0045125D01*
X00522Y0045225D01*
X0052D01*
X00519Y0045125D01*
X00524Y0027125D02*
Y0026525D01*
X00527D01*
X00528Y0026625D01*
Y0027025D01*
X00527Y0027125D01*
X00524D01*
X0053Y0026525D02*
X00532D01*
X00531D01*
Y0027125D01*
X0053Y0027025D01*
D15*
X00521Y0032975D02*
D03*
M02*
