G04*
G04 #@! TF.GenerationSoftware,Altium Limited,Altium Designer,20.1.8 (145)*
G04*
G04 Layer_Physical_Order=2*
G04 Layer_Color=16711680*
%FSTAX43Y43*%
%MOMM*%
G71*
G04*
G04 #@! TF.SameCoordinates,996BCE0E-84F6-4872-9113-F872C4FAF876*
G04*
G04*
G04 #@! TF.FilePolarity,Positive*
G04*
G01*
G75*
%ADD14C,2.300*%
%ADD15C,1.800*%
%ADD16P,1.948X8X22.5*%
%ADD17C,5.000*%
%ADD18C,0.600*%
G36*
X0076319Y007765D02*
X0077855Y0077457D01*
X0079376Y0077168D01*
X0080876Y0076785D01*
X0082349Y0076309D01*
X0083789Y0075742D01*
X0085191Y0075085D01*
X008655Y0074343D01*
X0087859Y0073517D01*
X0089114Y0072611D01*
X009031Y0071628D01*
X0091442Y0070572D01*
X0092506Y0069448D01*
X0093498Y0068259D01*
X0094414Y006701D01*
X0095249Y0065707D01*
X0096002Y0064355D01*
X0096668Y0062957D01*
X0097246Y0061521D01*
X0097734Y0060052D01*
X0098128Y0058555D01*
X0098428Y0057036D01*
X0098632Y0055502D01*
X0098741Y0053957D01*
X0098752Y0052409D01*
X0098667Y0050863D01*
X0098485Y0049326D01*
X0098207Y0047803D01*
X0097835Y00463D01*
X0097663Y0045755D01*
X009175D01*
X0091744Y0046129D01*
X0091742Y0046136D01*
X0091743Y0046143D01*
X0091654Y0047389D01*
X0091652Y0047398D01*
X0091652Y0047407D01*
X0091474Y0048643D01*
X0091471Y0048652D01*
X0091471Y0048661D01*
X0091205Y0049882D01*
X0091202Y004989D01*
X0091201Y00499D01*
X0090849Y0051098D01*
X0090845Y0051106D01*
X0090843Y0051116D01*
X0090806Y0051216D01*
X0090917Y0051282D01*
X0091085Y0051085D01*
X0091408Y0050809D01*
X009177Y0050587D01*
X0092163Y0050424D01*
X0092576Y0050325D01*
X0093Y0050292D01*
X0093424Y0050325D01*
X0093837Y0050424D01*
X009423Y0050587D01*
X0094592Y0050809D01*
X0094915Y0051085D01*
X0095191Y0051408D01*
X0095413Y005177D01*
X0095576Y0052163D01*
X0095675Y0052576D01*
X0095708Y0053D01*
X0095675Y0053424D01*
X0095576Y0053837D01*
X0095413Y005423D01*
X0095191Y0054592D01*
X0094915Y0054915D01*
X0094592Y0055191D01*
X009423Y0055413D01*
X0093837Y0055576D01*
X0093424Y0055675D01*
X0093Y0055708D01*
X0092576Y0055675D01*
X0092163Y0055576D01*
X009177Y0055413D01*
X0091408Y0055191D01*
X0091085Y0054915D01*
X0090809Y0054592D01*
X0090587Y005423D01*
X0090424Y0053837D01*
X0090325Y0053424D01*
X0090292Y0053D01*
X0090306Y0052813D01*
X0090182Y0052781D01*
X0089881Y0053439D01*
X0089875Y0053447D01*
X0089873Y0053455D01*
X0089274Y0054552D01*
X0089268Y0054559D01*
X0089265Y0054568D01*
X0088589Y0055618D01*
X0088583Y0055625D01*
X0088579Y0055633D01*
X008783Y0056633D01*
X0087823Y005664D01*
X0087819Y0056648D01*
X0087001Y0057592D01*
X0086993Y0057597D01*
X0086988Y0057605D01*
X0086105Y0058488D01*
X0086097Y0058493D01*
X0086092Y0058501D01*
X0085148Y0059319D01*
X008514Y0059323D01*
X0085133Y005933D01*
X0084133Y0060079D01*
X0084125Y0060083D01*
X0084118Y0060089D01*
X0083068Y0060765D01*
X0083059Y0060768D01*
X0083052Y0060774D01*
X0081955Y0061373D01*
X0081947Y0061375D01*
X0081939Y0061381D01*
X0080803Y00619D01*
X0080794Y0061902D01*
X0080786Y0061907D01*
X0079616Y0062343D01*
X0079606Y0062345D01*
X0079598Y0062349D01*
X00784Y0062701D01*
X0078391Y0062702D01*
X0078382Y0062705D01*
X0077161Y0062971D01*
X0077152Y0062971D01*
X0077143Y0062974D01*
X0075907Y0063152D01*
X0075898Y0063152D01*
X0075889Y0063154D01*
X0074643Y0063243D01*
X0074634Y0063242D01*
X0074625Y0063244D01*
X0073375D01*
X0073366Y0063242D01*
X0073357Y0063243D01*
X0072111Y0063154D01*
X0072102Y0063152D01*
X0072093Y0063152D01*
X0070857Y0062974D01*
X0070848Y0062971D01*
X0070839Y0062971D01*
X0069618Y0062705D01*
X0069609Y0062702D01*
X00696Y0062701D01*
X0068402Y0062349D01*
X0068394Y0062345D01*
X0068384Y0062343D01*
X0067214Y0061907D01*
X0067206Y0061902D01*
X0067197Y00619D01*
X0066061Y0061381D01*
X0066053Y0061375D01*
X0066045Y0061373D01*
X0064948Y0060774D01*
X0064941Y0060768D01*
X0064932Y0060765D01*
X0063882Y0060089D01*
X0063875Y0060083D01*
X0063867Y0060079D01*
X0062867Y005933D01*
X006286Y0059323D01*
X0062852Y0059319D01*
X0061908Y0058501D01*
X0061903Y0058493D01*
X0061895Y0058488D01*
X0061012Y0057605D01*
X0061007Y0057597D01*
X0060999Y0057592D01*
X0060181Y0056648D01*
X0060177Y005664D01*
X006017Y0056633D01*
X0059421Y0055633D01*
X0059417Y0055625D01*
X0059411Y0055618D01*
X0058735Y0054568D01*
X0058732Y0054559D01*
X0058726Y0054552D01*
X0058127Y0053455D01*
X0058125Y0053447D01*
X0058119Y0053439D01*
X0057818Y0052781D01*
X0057694Y0052813D01*
X0057708Y0053D01*
X0057675Y0053424D01*
X0057576Y0053837D01*
X0057413Y005423D01*
X0057191Y0054592D01*
X0056915Y0054915D01*
X0056592Y0055191D01*
X005623Y0055413D01*
X0055837Y0055576D01*
X0055424Y0055675D01*
X0055Y0055708D01*
X0054576Y0055675D01*
X0054163Y0055576D01*
X005377Y0055413D01*
X0053408Y0055191D01*
X0053085Y0054915D01*
X0052809Y0054592D01*
X0052587Y005423D01*
X0052424Y0053837D01*
X0052325Y0053424D01*
X0052292Y0053D01*
X0052325Y0052576D01*
X0052424Y0052163D01*
X0052587Y005177D01*
X0052809Y0051408D01*
X0053085Y0051085D01*
X0053408Y0050809D01*
X005377Y0050587D01*
X0054163Y0050424D01*
X0054576Y0050325D01*
X0055Y0050292D01*
X0055424Y0050325D01*
X0055837Y0050424D01*
X005623Y0050587D01*
X0056592Y0050809D01*
X0056915Y0051085D01*
X0057083Y0051282D01*
X0057194Y0051216D01*
X0057157Y0051116D01*
X0057155Y0051106D01*
X0057151Y0051098D01*
X0056799Y00499D01*
X0056798Y004989D01*
X0056795Y0049882D01*
X0056529Y0048661D01*
X0056529Y0048652D01*
X0056526Y0048643D01*
X0056348Y0047407D01*
X0056348Y0047398D01*
X0056346Y0047389D01*
X0056257Y0046143D01*
X0056258Y0046136D01*
X0056256Y0046129D01*
X005625Y0045754D01*
X0050341Y0045741D01*
X0050165Y00463D01*
X0049793Y0047803D01*
X0049515Y0049326D01*
X0049333Y0050863D01*
X0049248Y0052409D01*
X0049259Y0053957D01*
X0049368Y0055502D01*
X0049572Y0057036D01*
X0049872Y0058555D01*
X0050266Y0060052D01*
X0050754Y0061521D01*
X0051332Y0062957D01*
X0051998Y0064355D01*
X0052751Y0065707D01*
X0053586Y006701D01*
X0054502Y0068259D01*
X0055494Y0069448D01*
X0056558Y0070572D01*
X005769Y0071628D01*
X0058886Y0072611D01*
X0060141Y0073517D01*
X006145Y0074343D01*
X0062809Y0075085D01*
X0064211Y0075742D01*
X0065651Y0076309D01*
X0067124Y0076785D01*
X0068624Y0077168D01*
X0070145Y0077457D01*
X0071681Y007765D01*
X0073226Y0077747D01*
X0074774D01*
X0076319Y007765D01*
D02*
G37*
%LPC*%
G36*
X00795Y007601D02*
X00745D01*
X0074305Y0075971D01*
X007414Y007586D01*
X007364Y007536D01*
X0073529Y0075195D01*
X007349Y0075D01*
Y0074566D01*
X0073485Y0074527D01*
X0073472Y0074464D01*
X0073454Y0074403D01*
X0073431Y0074343D01*
X0073402Y0074285D01*
X0073367Y0074227D01*
X0073327Y007417D01*
X007328Y0074114D01*
X0073245Y0074077D01*
X0073215Y0074055D01*
X0073147Y0073966D01*
X0073002Y0073985D01*
X0072918Y0074189D01*
X0072907Y0074205D01*
X0072899Y0074224D01*
X0072735Y0074469D01*
X007272Y0074484D01*
X0072709Y00745D01*
X00725Y0074709D01*
X0072484Y007472D01*
X0072469Y0074735D01*
X0072224Y0074899D01*
X0072205Y0074907D01*
X0072189Y0074918D01*
X0071916Y0075031D01*
X0071896Y0075035D01*
X0071877Y0075042D01*
X0071588Y00751D01*
X0071567D01*
X0071548Y0075104D01*
X0071252D01*
X0071233Y00751D01*
X0071212D01*
X0070923Y0075042D01*
X0070904Y0075035D01*
X0070884Y0075031D01*
X0070611Y0074918D01*
X0070595Y0074907D01*
X0070576Y0074899D01*
X0070331Y0074735D01*
X0070316Y007472D01*
X00703Y0074709D01*
X0070091Y00745D01*
X007008Y0074484D01*
X0070065Y0074469D01*
X0069901Y0074224D01*
X0069893Y0074205D01*
X0069882Y0074189D01*
X0069769Y0073916D01*
X0069765Y0073896D01*
X0069758Y0073877D01*
X00697Y0073588D01*
Y0073567D01*
X0069696Y0073548D01*
Y007124D01*
X0067981D01*
X006786Y007136D01*
X0067695Y0071471D01*
X00675Y007151D01*
X0065714D01*
X0065648Y007152D01*
X0065569Y007154D01*
X0065489Y0071569D01*
X0065407Y0071608D01*
X0065323Y0071656D01*
X0065236Y0071713D01*
X0065148Y0071781D01*
X0065058Y0071859D01*
X0064996Y007192D01*
X0064963Y0071963D01*
X0064681Y0072179D01*
X0064352Y0072315D01*
X0064Y0072362D01*
X0063648Y0072315D01*
X0063319Y0072179D01*
X0063037Y0071963D01*
X0062821Y0071681D01*
X0062685Y0071352D01*
X0062638Y0071D01*
X0062685Y0070648D01*
X0062821Y0070319D01*
X0063037Y0070037D01*
X0063319Y0069821D01*
X0063648Y0069685D01*
X0064Y0069638D01*
X0064352Y0069685D01*
X0064681Y0069821D01*
X0064963Y0070037D01*
X0064996Y007008D01*
X0065058Y0070141D01*
X0065148Y0070219D01*
X0065236Y0070287D01*
X0065323Y0070344D01*
X0065407Y0070392D01*
X0065489Y0070431D01*
X0065569Y007046D01*
X0065648Y007048D01*
X0065714Y007049D01*
X0067289D01*
X006741Y007037D01*
X0067575Y0070259D01*
X006777Y007022D01*
X00697D01*
Y0070212D01*
X0069758Y0069923D01*
X0069765Y0069904D01*
X0069769Y0069884D01*
X0069882Y0069611D01*
X0069893Y0069595D01*
X0069901Y0069576D01*
X0070065Y0069331D01*
X007008Y0069316D01*
X0070091Y00693D01*
X00703Y0069091D01*
X0070316Y006908D01*
X0070331Y0069065D01*
X0070576Y0068901D01*
X0070595Y0068893D01*
X0070611Y0068882D01*
X0070884Y0068769D01*
X0070904Y0068765D01*
X0070923Y0068758D01*
X0071212Y00687D01*
X0071233D01*
X0071252Y0068696D01*
X0071548D01*
X0071567Y00687D01*
X0071588D01*
X0071877Y0068758D01*
X0071896Y0068765D01*
X0071916Y0068769D01*
X0072189Y0068882D01*
X0072205Y0068893D01*
X0072224Y0068901D01*
X0072469Y0069065D01*
X0072484Y006908D01*
X00725Y0069091D01*
X0072709Y00693D01*
X007272Y0069316D01*
X0072735Y0069331D01*
X0072899Y0069576D01*
X0072907Y0069595D01*
X0072918Y0069611D01*
X0073031Y0069884D01*
X0073035Y0069904D01*
X0073042Y0069923D01*
X0073052Y0069969D01*
X0073175Y0069998D01*
X0073215Y0069945D01*
X0073245Y0069923D01*
X007328Y0069886D01*
X0073327Y006983D01*
X0073367Y0069773D01*
X0073402Y0069715D01*
X0073431Y0069657D01*
X0073454Y0069597D01*
X0073472Y0069536D01*
X0073485Y0069473D01*
X007349Y0069434D01*
Y0068711D01*
X0073289Y006851D01*
X0065714D01*
X0065648Y006852D01*
X0065569Y006854D01*
X0065489Y0068569D01*
X0065407Y0068608D01*
X0065323Y0068656D01*
X0065236Y0068713D01*
X0065148Y0068781D01*
X0065058Y0068859D01*
X0064996Y006892D01*
X0064963Y0068963D01*
X0064681Y0069179D01*
X0064352Y0069315D01*
X0064Y0069362D01*
X0063648Y0069315D01*
X0063319Y0069179D01*
X0063037Y0068963D01*
X0062821Y0068681D01*
X0062685Y0068352D01*
X0062638Y0068D01*
X0062685Y0067648D01*
X0062821Y0067319D01*
X0063037Y0067037D01*
X0063319Y0066821D01*
X0063648Y0066685D01*
X0064Y0066638D01*
X0064352Y0066685D01*
X0064681Y0066821D01*
X0064963Y0067037D01*
X0064996Y006708D01*
X0065058Y0067141D01*
X0065148Y0067219D01*
X0065236Y0067287D01*
X0065323Y0067344D01*
X0065407Y0067392D01*
X0065489Y0067431D01*
X0065569Y006746D01*
X0065648Y006748D01*
X0065714Y006749D01*
X00735D01*
X0073695Y0067529D01*
X007386Y006764D01*
X007436Y006814D01*
X0074471Y0068305D01*
X007451Y00685D01*
Y0069434D01*
X0074515Y0069473D01*
X0074528Y0069536D01*
X0074546Y0069597D01*
X0074569Y0069657D01*
X0074598Y0069715D01*
X0074633Y0069773D01*
X0074673Y006983D01*
X007472Y0069886D01*
X0074755Y0069923D01*
X0074785Y0069945D01*
X007482Y0069992D01*
X0074849Y0069995D01*
X0074875Y0069992D01*
X0074958Y0069963D01*
X0075062Y0069711D01*
X0075073Y0069695D01*
X0075081Y0069676D01*
X0075245Y0069431D01*
X007526Y0069416D01*
X0075271Y00694D01*
X007548Y0069191D01*
X0075496Y006918D01*
X0075511Y0069165D01*
X0075756Y0069001D01*
X0075775Y0068993D01*
X0075791Y0068982D01*
X007603Y0068883D01*
Y006846D01*
X0076069Y0068265D01*
X007618Y00681D01*
X007664Y006764D01*
X0076805Y0067529D01*
X0077Y006749D01*
X0082286D01*
X0082352Y006748D01*
X0082431Y006746D01*
X0082511Y0067431D01*
X0082593Y0067392D01*
X0082677Y0067344D01*
X0082764Y0067287D01*
X0082852Y0067219D01*
X0082942Y0067141D01*
X0083004Y006708D01*
X0083037Y0067037D01*
X0083319Y0066821D01*
X0083648Y0066685D01*
X0084Y0066638D01*
X0084352Y0066685D01*
X0084681Y0066821D01*
X0084963Y0067037D01*
X0085179Y0067319D01*
X0085315Y0067648D01*
X0085362Y0068D01*
X0085315Y0068352D01*
X0085179Y0068681D01*
X0084963Y0068963D01*
X0084681Y0069179D01*
X0084352Y0069315D01*
X0084Y0069362D01*
X0083648Y0069315D01*
X0083319Y0069179D01*
X0083037Y0068963D01*
X0083004Y006892D01*
X0082942Y0068859D01*
X0082852Y0068781D01*
X0082764Y0068713D01*
X0082677Y0068656D01*
X0082593Y0068608D01*
X0082511Y0068569D01*
X0082431Y006854D01*
X0082352Y006852D01*
X0082286Y006851D01*
X0077211D01*
X007705Y0068671D01*
Y0068856D01*
X0077057Y0068858D01*
X0077076Y0068865D01*
X0077096Y0068869D01*
X0077369Y0068982D01*
X0077385Y0068993D01*
X0077404Y0069001D01*
X0077649Y0069165D01*
X0077664Y006918D01*
X007768Y0069191D01*
X0077889Y00694D01*
X00779Y0069416D01*
X0077915Y0069431D01*
X0078079Y0069676D01*
X0078087Y0069695D01*
X0078098Y0069711D01*
X0078211Y0069984D01*
X0078215Y0070004D01*
X0078222Y0070023D01*
X007828Y0070312D01*
Y0070333D01*
X0078284Y0070352D01*
Y00705D01*
Y00735D01*
Y0073648D01*
X007828Y0073667D01*
Y0073688D01*
X0078222Y0073977D01*
X0078215Y0073996D01*
X0078211Y0074016D01*
X0078098Y0074289D01*
X0078087Y0074305D01*
X0078079Y0074324D01*
X0077915Y0074569D01*
X00779Y0074584D01*
X0077889Y00746D01*
X007768Y0074809D01*
X0077664Y007482D01*
X0077649Y0074835D01*
X0077599Y0074869D01*
X0077635Y007499D01*
X0079289D01*
X0082428Y0071851D01*
X0082467Y0071797D01*
X0082508Y0071728D01*
X0082544Y007165D01*
X0082575Y0071565D01*
X0082601Y0071472D01*
X0082622Y007137D01*
X0082636Y0071259D01*
X0082644Y0071141D01*
X0082645Y0071054D01*
X0082638Y0071D01*
X0082685Y0070648D01*
X0082821Y0070319D01*
X0083037Y0070037D01*
X0083319Y0069821D01*
X0083648Y0069685D01*
X0084Y0069638D01*
X0084352Y0069685D01*
X0084681Y0069821D01*
X0084963Y0070037D01*
X0085179Y0070319D01*
X0085315Y0070648D01*
X0085362Y0071D01*
X0085315Y0071352D01*
X0085179Y0071681D01*
X0084963Y0071963D01*
X0084681Y0072179D01*
X0084352Y0072315D01*
X0084Y0072362D01*
X0083946Y0072355D01*
X0083859Y0072356D01*
X0083741Y0072364D01*
X008363Y0072378D01*
X0083528Y0072399D01*
X0083435Y0072425D01*
X008335Y0072456D01*
X0083272Y0072492D01*
X0083203Y0072533D01*
X0083149Y0072572D01*
X007986Y007586D01*
X0079695Y0075971D01*
X00795Y007601D01*
D02*
G37*
%LPD*%
G36*
X0074303Y0074575D02*
X0074313Y0074494D01*
X007433Y0074414D01*
X0074353Y0074336D01*
X0074382Y0074261D01*
X0074419Y0074187D01*
X0074462Y0074116D01*
X0074511Y0074046D01*
X0074567Y0073978D01*
X007463Y0073913D01*
X007337D01*
X0073433Y0073978D01*
X0073489Y0074046D01*
X0073538Y0074116D01*
X0073581Y0074187D01*
X0073618Y0074261D01*
X0073647Y0074336D01*
X007367Y0074414D01*
X0073687Y0074494D01*
X0073697Y0074575D01*
X00737Y0074659D01*
X00743D01*
X0074303Y0074575D01*
D02*
G37*
G36*
X0083011Y007242D02*
X0083091Y0072362D01*
X0083177Y0072311D01*
X0083271Y0072267D01*
X0083373Y007223D01*
X0083481Y00722D01*
X0083597Y0072177D01*
X008372Y0072161D01*
X0083851Y0072152D01*
X0083989Y007215D01*
X008285Y0071011D01*
X0082848Y0071149D01*
X0082839Y007128D01*
X0082823Y0071403D01*
X00828Y0071519D01*
X008277Y0071627D01*
X0082733Y0071729D01*
X0082689Y0071823D01*
X0082638Y0071909D01*
X008258Y0071989D01*
X0082515Y0072061D01*
X0082939Y0072485D01*
X0083011Y007242D01*
D02*
G37*
G36*
X006492Y0071709D02*
X0065019Y0071623D01*
X0065117Y0071547D01*
X0065215Y0071482D01*
X0065313Y0071426D01*
X0065411Y0071381D01*
X0065509Y0071345D01*
X0065606Y007132D01*
X0065703Y0071305D01*
X00658Y00713D01*
Y00707D01*
X0065703Y0070695D01*
X0065606Y007068D01*
X0065509Y0070655D01*
X0065411Y0070619D01*
X0065313Y0070574D01*
X0065215Y0070518D01*
X0065117Y0070453D01*
X0065019Y0070377D01*
X006492Y0070291D01*
X0064821Y0070195D01*
Y0071805D01*
X006492Y0071709D01*
D02*
G37*
G36*
X0074567Y0070022D02*
X0074511Y0069954D01*
X0074462Y0069884D01*
X0074419Y0069813D01*
X0074382Y0069739D01*
X0074353Y0069664D01*
X007433Y0069586D01*
X0074313Y0069506D01*
X0074303Y0069425D01*
X00743Y0069341D01*
X00737D01*
X0073697Y0069425D01*
X0073687Y0069506D01*
X007367Y0069586D01*
X0073647Y0069664D01*
X0073618Y0069739D01*
X0073581Y0069813D01*
X0073538Y0069884D01*
X0073489Y0069954D01*
X0073433Y0070022D01*
X007337Y0070087D01*
X007463D01*
X0074567Y0070022D01*
D02*
G37*
G36*
X0077018Y0074942D02*
X0077291Y0074829D01*
X0077536Y0074665D01*
X0077745Y0074456D01*
X0077909Y0074211D01*
X0078022Y0073938D01*
X007808Y0073648D01*
Y00735D01*
Y00705D01*
Y0070352D01*
X0078022Y0070062D01*
X0077909Y0069789D01*
X0077745Y0069544D01*
X0077536Y0069335D01*
X0077291Y0069171D01*
X0077018Y0069058D01*
X0076728Y0069D01*
X0076432D01*
X0076142Y0069058D01*
X0075869Y0069171D01*
X0075624Y0069335D01*
X0075415Y0069544D01*
X0075251Y0069789D01*
X0075138Y0070062D01*
X007508Y0070352D01*
Y00705D01*
Y0070506D01*
X0075109Y007073D01*
X007508Y0070954D01*
Y0073046D01*
X0075109Y007327D01*
X007508Y0073494D01*
Y00735D01*
Y0073648D01*
X0075138Y0073938D01*
X0075251Y0074211D01*
X0075415Y0074456D01*
X0075624Y0074665D01*
X0075869Y0074829D01*
X0076142Y0074942D01*
X0076432Y0075D01*
X0076728D01*
X0077018Y0074942D01*
D02*
G37*
G36*
X0071838Y0074842D02*
X0072111Y0074729D01*
X0072356Y0074565D01*
X0072565Y0074356D01*
X0072729Y0074111D01*
X0072842Y0073838D01*
X00729Y0073548D01*
Y00734D01*
Y0073342D01*
X0072891Y007327D01*
X00729Y0073198D01*
Y0070802D01*
X0072891Y007073D01*
X00729Y0070658D01*
Y00704D01*
Y0070252D01*
X0072842Y0069962D01*
X0072729Y0069689D01*
X0072565Y0069444D01*
X0072356Y0069235D01*
X0072111Y0069071D01*
X0071838Y0068958D01*
X0071548Y00689D01*
X0071252D01*
X0070962Y0068958D01*
X0070689Y0069071D01*
X0070444Y0069235D01*
X0070235Y0069444D01*
X0070071Y0069689D01*
X0069958Y0069962D01*
X00699Y0070252D01*
Y00704D01*
Y00734D01*
Y0073548D01*
X0069958Y0073838D01*
X0070071Y0074111D01*
X0070235Y0074356D01*
X0070444Y0074565D01*
X0070689Y0074729D01*
X0070962Y0074842D01*
X0071252Y00749D01*
X0071548D01*
X0071838Y0074842D01*
D02*
G37*
G36*
X0083179Y0067195D02*
X008308Y0067291D01*
X0082981Y0067377D01*
X0082883Y0067453D01*
X0082785Y0067518D01*
X0082687Y0067574D01*
X0082589Y0067619D01*
X0082491Y0067655D01*
X0082394Y006768D01*
X0082297Y0067695D01*
X00822Y00677D01*
Y00683D01*
X0082297Y0068305D01*
X0082394Y006832D01*
X0082491Y0068345D01*
X0082589Y0068381D01*
X0082687Y0068426D01*
X0082785Y0068482D01*
X0082883Y0068547D01*
X0082981Y0068623D01*
X008308Y0068709D01*
X0083179Y0068805D01*
Y0067195D01*
D02*
G37*
G36*
X006492Y0068709D02*
X0065019Y0068623D01*
X0065117Y0068547D01*
X0065215Y0068482D01*
X0065313Y0068426D01*
X0065411Y0068381D01*
X0065509Y0068345D01*
X0065606Y006832D01*
X0065703Y0068305D01*
X00658Y00683D01*
Y00677D01*
X0065703Y0067695D01*
X0065606Y006768D01*
X0065509Y0067655D01*
X0065411Y0067619D01*
X0065313Y0067574D01*
X0065215Y0067518D01*
X0065117Y0067453D01*
X0065019Y0067377D01*
X006492Y0067291D01*
X0064821Y0067195D01*
Y0068805D01*
X006492Y0068709D01*
D02*
G37*
%LPC*%
G36*
X007679Y0074347D02*
Y007352D01*
X0077617D01*
X0077612Y0073557D01*
X0077501Y0073825D01*
X0077325Y0074055D01*
X0077095Y0074231D01*
X0076827Y0074342D01*
X007679Y0074347D01*
D02*
G37*
G36*
X007629D02*
X0076253Y0074342D01*
X0075985Y0074231D01*
X0075755Y0074055D01*
X0075579Y0073825D01*
X0075468Y0073557D01*
X0075463Y007352D01*
X007629D01*
Y0074347D01*
D02*
G37*
G36*
X0077617Y007302D02*
X007679D01*
Y0072193D01*
X0076827Y0072198D01*
X0077095Y0072309D01*
X0077325Y0072485D01*
X0077501Y0072715D01*
X0077612Y0072983D01*
X0077617Y007302D01*
D02*
G37*
G36*
X007629D02*
X0075463D01*
X0075468Y0072983D01*
X0075579Y0072715D01*
X0075755Y0072485D01*
X0075985Y0072309D01*
X0076253Y0072198D01*
X007629Y0072193D01*
Y007302D01*
D02*
G37*
G36*
X007679Y0071807D02*
Y007098D01*
X0077617D01*
X0077612Y0071017D01*
X0077501Y0071285D01*
X0077325Y0071515D01*
X0077095Y0071691D01*
X0076827Y0071802D01*
X007679Y0071807D01*
D02*
G37*
G36*
X007629D02*
X0076253Y0071802D01*
X0075985Y0071691D01*
X0075755Y0071515D01*
X0075579Y0071285D01*
X0075468Y0071017D01*
X0075463Y007098D01*
X007629D01*
Y0071807D01*
D02*
G37*
G36*
X0077617Y007048D02*
X007679D01*
Y0070087D01*
X007717D01*
X0077107Y0070022D01*
X0077051Y0069954D01*
X0077002Y0069884D01*
X0076959Y0069813D01*
X0076923Y0069739D01*
X0076903Y006969D01*
X0077095Y0069769D01*
X0077325Y0069945D01*
X0077501Y0070175D01*
X0077612Y0070443D01*
X0077617Y007048D01*
D02*
G37*
G36*
X007629D02*
X0075463D01*
X0075468Y0070443D01*
X0075579Y0070175D01*
X0075755Y0069945D01*
X0075985Y0069769D01*
X0076177Y006969D01*
X0076158Y0069739D01*
X0076121Y0069813D01*
X0076078Y0069884D01*
X0076029Y0069954D01*
X0075973Y0070022D01*
X007591Y0070087D01*
X007629D01*
Y007048D01*
D02*
G37*
G36*
X007171Y0074347D02*
Y007352D01*
X0072537D01*
X0072532Y0073557D01*
X0072421Y0073825D01*
X0072245Y0074055D01*
X0072015Y0074231D01*
X0071747Y0074342D01*
X007171Y0074347D01*
D02*
G37*
G36*
X007121D02*
X0071173Y0074342D01*
X0070905Y0074231D01*
X0070675Y0074055D01*
X0070499Y0073825D01*
X0070388Y0073557D01*
X0070383Y007352D01*
X007121D01*
Y0074347D01*
D02*
G37*
G36*
X0072537Y007302D02*
X007171D01*
Y0072193D01*
X0071747Y0072198D01*
X0072015Y0072309D01*
X0072245Y0072485D01*
X0072421Y0072715D01*
X0072532Y0072983D01*
X0072537Y007302D01*
D02*
G37*
G36*
X007121D02*
X0070383D01*
X0070388Y0072983D01*
X0070499Y0072715D01*
X0070675Y0072485D01*
X0070905Y0072309D01*
X0071173Y0072198D01*
X007121Y0072193D01*
Y007302D01*
D02*
G37*
G36*
X007201Y007183D02*
X007171D01*
Y007098D01*
X007256D01*
Y007128D01*
X007201Y007183D01*
D02*
G37*
G36*
X007121D02*
X007091D01*
X007036Y007128D01*
Y0071059D01*
X0070445Y0071078D01*
X0070528Y0071104D01*
X0070596Y0071137D01*
X0070649Y0071176D01*
X0070687Y0071221D01*
X0070709Y0071271D01*
X0070717Y0071328D01*
Y007098D01*
X007121D01*
Y007183D01*
D02*
G37*
G36*
Y007048D02*
X0070717D01*
Y0070132D01*
X0070709Y0070189D01*
X0070687Y0070239D01*
X0070649Y0070284D01*
X0070596Y0070323D01*
X0070528Y0070356D01*
X0070445Y0070382D01*
X007036Y0070401D01*
Y007018D01*
X007091Y006963D01*
X007121D01*
Y007048D01*
D02*
G37*
G36*
X007256D02*
X007171D01*
Y006963D01*
X007201D01*
X007256Y007018D01*
Y007048D01*
D02*
G37*
%LPD*%
D14*
X0084Y0071D02*
D03*
Y0068D02*
D03*
X0064D02*
D03*
Y0071D02*
D03*
D15*
X007146Y007327D02*
D03*
X007654D02*
D03*
X0074D02*
D03*
Y007073D02*
D03*
X007654D02*
D03*
D16*
X007146D02*
D03*
D17*
X0055Y0053D02*
D03*
X0093D02*
D03*
D18*
X00795Y00755D02*
X0084Y0071D01*
X00745Y00755D02*
X00795D01*
X0074Y0075D02*
X00745Y00755D01*
X0074Y007327D02*
Y0075D01*
X0064Y0071D02*
X00675D01*
X006777Y007073D02*
X007146D01*
X00675Y0071D02*
X006777Y007073D01*
X0077Y0068D02*
X0084D01*
X007654Y006846D02*
Y007073D01*
Y006846D02*
X0077Y0068D01*
X0074Y00685D02*
Y007073D01*
X0064Y0068D02*
X00735D01*
X0074Y00685D01*
M02*
