G04*
G04 #@! TF.GenerationSoftware,Altium Limited,Altium Designer,20.1.8 (145)*
G04*
G04 Layer_Color=16777215*
%FSLAX43Y43*%
%MOMM*%
G71*
G04*
G04 #@! TF.SameCoordinates,9309D788-A49E-47DC-A76E-BEEF67F4AFBA*
G04*
G04*
G04 #@! TF.FilePolarity,Positive*
G04*
G01*
G75*
%ADD10C,0.254*%
%ADD11C,0.250*%
%ADD12C,0.100*%
%ADD13C,0.200*%
%ADD14C,0.150*%
G36*
X39122Y29723D02*
Y29053D01*
X39092D01*
X38420Y29725D01*
X39120D01*
X39122Y29723D01*
D02*
G37*
G36*
X38400Y44525D02*
X37700D01*
X37698Y44527D01*
Y45197D01*
X37728D01*
X38400Y44525D01*
D02*
G37*
G36*
X57000Y30275D02*
X56280Y30275D01*
X57000Y30995D01*
X57000Y30275D01*
D02*
G37*
G36*
X59497Y29723D02*
Y29053D01*
X59467D01*
X58795Y29725D01*
X59495D01*
X59497Y29723D01*
D02*
G37*
G36*
X57400Y44525D02*
X56700D01*
X56698Y44527D01*
Y45197D01*
X56728D01*
X57400Y44525D01*
D02*
G37*
G36*
X52655Y41480D02*
X52655Y42200D01*
X53375Y42200D01*
X52655Y41480D01*
D02*
G37*
G36*
X48550Y26425D02*
X46800D01*
Y27950D01*
X48550D01*
Y26425D01*
D02*
G37*
G36*
X51730Y46161D02*
X44595D01*
Y47791D01*
X51730D01*
Y46161D01*
D02*
G37*
%LPC*%
G36*
X47656Y27667D02*
X47274D01*
Y26708D01*
X47637D01*
X47674Y26709D01*
X47709Y26710D01*
X47738Y26713D01*
X47762Y26717D01*
X47781Y26722D01*
X47796Y26724D01*
X47801Y26726D01*
X47805D01*
X47806Y26727D01*
X47807D01*
X47838Y26738D01*
X47866Y26751D01*
X47888Y26763D01*
X47907Y26776D01*
X47923Y26787D01*
X47934Y26795D01*
X47941Y26801D01*
X47943Y26803D01*
X47967Y26830D01*
X47988Y26857D01*
X48006Y26887D01*
X48020Y26913D01*
X48031Y26938D01*
X48036Y26948D01*
X48039Y26956D01*
X48042Y26964D01*
X48045Y26970D01*
X48046Y26973D01*
Y26974D01*
X48056Y27007D01*
X48064Y27042D01*
X48070Y27075D01*
X48072Y27107D01*
X48074Y27122D01*
X48075Y27136D01*
Y27147D01*
X48076Y27158D01*
Y27178D01*
X48075Y27226D01*
X48071Y27269D01*
X48070Y27290D01*
X48067Y27308D01*
X48064Y27326D01*
X48061Y27341D01*
X48057Y27355D01*
X48054Y27368D01*
X48052Y27379D01*
X48050Y27387D01*
X48047Y27394D01*
X48046Y27400D01*
X48045Y27402D01*
Y27404D01*
X48032Y27437D01*
X48017Y27468D01*
X48002Y27494D01*
X47986Y27516D01*
X47974Y27534D01*
X47963Y27548D01*
X47956Y27556D01*
X47954Y27559D01*
X47953D01*
X47929Y27581D01*
X47906Y27599D01*
X47881Y27615D01*
X47859Y27627D01*
X47839Y27637D01*
X47823Y27644D01*
X47817Y27645D01*
X47813Y27647D01*
X47810Y27648D01*
X47809D01*
X47782Y27655D01*
X47753Y27659D01*
X47723Y27663D01*
X47694Y27665D01*
X47667Y27666D01*
X47656Y27667D01*
D02*
G37*
%LPD*%
G36*
X47612Y27504D02*
X47629D01*
X47642Y27502D01*
X47655D01*
X47667Y27501D01*
X47677D01*
X47692Y27498D01*
X47703Y27497D01*
X47710Y27495D01*
X47712D01*
X47731Y27490D01*
X47748Y27483D01*
X47763Y27476D01*
X47777Y27468D01*
X47787Y27461D01*
X47795Y27455D01*
X47799Y27451D01*
X47801Y27450D01*
X47813Y27436D01*
X47824Y27420D01*
X47834Y27405D01*
X47842Y27391D01*
X47848Y27378D01*
X47852Y27366D01*
X47855Y27359D01*
X47856Y27358D01*
Y27357D01*
X47863Y27332D01*
X47868Y27305D01*
X47871Y27276D01*
X47874Y27249D01*
X47875Y27225D01*
X47877Y27214D01*
Y27204D01*
Y27197D01*
Y27192D01*
Y27188D01*
Y27186D01*
X47875Y27147D01*
X47874Y27111D01*
X47870Y27082D01*
X47867Y27057D01*
X47863Y27036D01*
X47862Y27028D01*
X47859Y27022D01*
X47857Y27017D01*
Y27013D01*
X47856Y27011D01*
Y27010D01*
X47848Y26988D01*
X47841Y26968D01*
X47831Y26953D01*
X47824Y26941D01*
X47817Y26931D01*
X47812Y26924D01*
X47807Y26920D01*
X47806Y26918D01*
X47794Y26909D01*
X47781Y26900D01*
X47769Y26893D01*
X47756Y26888D01*
X47745Y26884D01*
X47737Y26881D01*
X47731Y26878D01*
X47728D01*
X47713Y26875D01*
X47695Y26874D01*
X47676Y26871D01*
X47656D01*
X47638Y26870D01*
X47468D01*
Y27505D01*
X47594D01*
X47612Y27504D01*
D02*
G37*
%LPC*%
G36*
X49316Y47585D02*
X48490D01*
D01*
X49130D01*
X49051Y47225D01*
X49037Y47244D01*
X49022Y47262D01*
X49005Y47278D01*
X48987Y47290D01*
X48971Y47301D01*
X48953Y47309D01*
X48935Y47318D01*
X48918Y47323D01*
X48901Y47327D01*
X48886Y47332D01*
X48872Y47334D01*
X48861Y47336D01*
X48852D01*
X48845Y47337D01*
X48838D01*
X48809Y47336D01*
X48782Y47332D01*
X48756Y47325D01*
X48732Y47316D01*
X48710Y47305D01*
X48689Y47294D01*
X48670Y47282D01*
X48653Y47269D01*
X48638Y47257D01*
X48624Y47244D01*
X48612Y47233D01*
X48603Y47222D01*
X48595Y47214D01*
X48589Y47207D01*
X48587Y47203D01*
X48585Y47201D01*
X48569Y47176D01*
X48553Y47150D01*
X48541Y47124D01*
X48530Y47097D01*
X48520Y47071D01*
X48513Y47046D01*
X48506Y47022D01*
X48502Y47000D01*
X48498Y46978D01*
X48495Y46959D01*
X48492Y46942D01*
X48491Y46927D01*
X48490Y46916D01*
Y46608D01*
Y46899D01*
X48491Y46873D01*
X48492Y46848D01*
X48495Y46825D01*
X48501Y46805D01*
X48505Y46785D01*
X48510Y46767D01*
X48517Y46751D01*
X48523Y46737D01*
X48530Y46723D01*
X48535Y46712D01*
X48541Y46702D01*
X48546Y46695D01*
X48551Y46689D01*
X48553Y46685D01*
X48555Y46683D01*
X48556Y46681D01*
X48569Y46669D01*
X48582Y46658D01*
X48596Y46646D01*
X48612Y46638D01*
X48641Y46626D01*
X48668Y46617D01*
X48693Y46612D01*
X48703Y46610D01*
X48713Y46609D01*
X48721Y46608D01*
X48731D01*
X48753Y46609D01*
X48775Y46610D01*
X48793Y46615D01*
X48810Y46619D01*
X48824Y46622D01*
X48835Y46626D01*
X48840Y46627D01*
X48843Y46628D01*
X48863Y46638D01*
X48881Y46648D01*
X48897Y46660D01*
X48913Y46671D01*
X48925Y46683D01*
X48936Y46691D01*
X48942Y46696D01*
X48944Y46699D01*
X48929Y46626D01*
X49105D01*
X49316Y47585D01*
D01*
D02*
G37*
G36*
X48422Y47337D02*
X47745D01*
X48141D01*
X48100Y47334D01*
X48061Y47327D01*
X48026Y47319D01*
X47996Y47308D01*
X47982Y47302D01*
X47969Y47297D01*
X47960Y47293D01*
X47950Y47289D01*
X47943Y47284D01*
X47938Y47282D01*
X47935Y47280D01*
X47933Y47279D01*
X47900Y47255D01*
X47871Y47229D01*
X47847Y47203D01*
X47828Y47178D01*
X47811Y47154D01*
X47806Y47144D01*
X47800Y47136D01*
X47798Y47129D01*
X47795Y47124D01*
X47792Y47121D01*
Y47119D01*
X47777Y47081D01*
X47764Y47043D01*
X47756Y47007D01*
X47750Y46974D01*
X47749Y46959D01*
X47748Y46946D01*
X47746Y46934D01*
Y46924D01*
X47745Y46916D01*
Y46904D01*
X47746Y46879D01*
X47748Y46856D01*
X47752Y46832D01*
X47757Y46812D01*
X47763Y46792D01*
X47770Y46774D01*
X47777Y46759D01*
X47784Y46744D01*
X47791Y46731D01*
X47798Y46719D01*
X47804Y46709D01*
X47810Y46702D01*
X47816Y46695D01*
X47820Y46691D01*
X47821Y46688D01*
X47822Y46687D01*
X47838Y46673D01*
X47854Y46660D01*
X47871Y46651D01*
X47888Y46641D01*
X47906Y46634D01*
X47924Y46627D01*
X47957Y46617D01*
X47972Y46615D01*
X47988Y46612D01*
X48000Y46610D01*
X48011Y46609D01*
X48021Y46608D01*
X48033D01*
X48055Y46609D01*
X48076Y46610D01*
X48115Y46617D01*
X48150Y46627D01*
X48180Y46640D01*
X48193Y46645D01*
X48204Y46651D01*
X48215Y46656D01*
X48223Y46660D01*
X48230Y46665D01*
X48234Y46667D01*
X48237Y46670D01*
X48239D01*
X48270Y46696D01*
X48297Y46726D01*
X48320Y46756D01*
X48340Y46787D01*
X48354Y46813D01*
X48359Y46824D01*
X48365Y46835D01*
X48369Y46843D01*
X48370Y46849D01*
X48373Y46853D01*
Y46855D01*
X48190Y46885D01*
X48180Y46861D01*
X48169Y46842D01*
X48158Y46825D01*
X48148Y46812D01*
X48139Y46800D01*
X48130Y46794D01*
X48125Y46788D01*
X48123Y46787D01*
X48108Y46775D01*
X48093Y46769D01*
X48078Y46763D01*
X48065Y46759D01*
X48054Y46756D01*
X48046Y46755D01*
X48037D01*
X48021Y46756D01*
X48007Y46760D01*
X47993Y46766D01*
X47982Y46771D01*
X47974Y46777D01*
X47967Y46782D01*
X47963Y46787D01*
X47961Y46788D01*
X47951Y46802D01*
X47945Y46817D01*
X47939Y46832D01*
X47936Y46848D01*
X47933Y46861D01*
X47932Y46873D01*
Y46879D01*
Y46882D01*
X47933Y46910D01*
X47936Y46936D01*
X47940Y46963D01*
X47945Y46986D01*
X47949Y47006D01*
X47953Y47021D01*
X47954Y47026D01*
X47956Y47031D01*
X47957Y47033D01*
Y47035D01*
X47967Y47064D01*
X47979Y47089D01*
X47990Y47110D01*
X48003Y47126D01*
X48012Y47140D01*
X48021Y47150D01*
X48028Y47155D01*
X48029Y47157D01*
X48047Y47171D01*
X48065Y47180D01*
X48082Y47189D01*
X48097Y47193D01*
X48111Y47196D01*
X48121Y47198D01*
X48130D01*
X48147Y47197D01*
X48162Y47194D01*
X48175Y47189D01*
X48186Y47185D01*
X48196Y47179D01*
X48201Y47174D01*
X48205Y47171D01*
X48207Y47169D01*
X48216Y47158D01*
X48225Y47144D01*
X48230Y47131D01*
X48236Y47117D01*
X48239Y47103D01*
X48241Y47093D01*
X48243Y47086D01*
Y47083D01*
X48422Y47101D01*
X48419Y47121D01*
X48415Y47139D01*
X48405Y47172D01*
X48391Y47201D01*
X48376Y47226D01*
X48362Y47246D01*
X48349Y47261D01*
X48345Y47265D01*
X48341Y47269D01*
X48340Y47271D01*
X48338Y47272D01*
X48325Y47283D01*
X48309Y47294D01*
X48276Y47309D01*
X48244Y47322D01*
X48212Y47329D01*
X48184Y47334D01*
X48172Y47336D01*
X48162D01*
X48154Y47337D01*
X48422D01*
D02*
G37*
G36*
X47673Y47063D02*
X47272D01*
D01*
X47308D01*
X47272Y46881D01*
X47637D01*
X47673Y47063D01*
D02*
G37*
G36*
X50742Y47591D02*
X50058D01*
D01*
X50453D01*
X50431Y47590D01*
X50409Y47588D01*
X50370Y47580D01*
X50335Y47569D01*
X50320Y47562D01*
X50306Y47555D01*
X50292Y47548D01*
X50281Y47541D01*
X50272Y47535D01*
X50265Y47530D01*
X50258Y47526D01*
X50254Y47522D01*
X50251Y47520D01*
X50249Y47519D01*
X50236Y47505D01*
X50222Y47490D01*
X50200Y47458D01*
X50181Y47423D01*
X50168Y47390D01*
X50162Y47375D01*
X50158Y47361D01*
X50155Y47348D01*
X50151Y47337D01*
X50150Y47327D01*
X50148Y47320D01*
X50147Y47316D01*
Y47315D01*
X50330Y47289D01*
X50337Y47319D01*
X50345Y47344D01*
X50353Y47365D01*
X50362Y47382D01*
X50369Y47394D01*
X50374Y47402D01*
X50378Y47408D01*
X50380Y47409D01*
X50392Y47420D01*
X50406Y47429D01*
X50419Y47436D01*
X50431Y47440D01*
X50442Y47443D01*
X50451Y47444D01*
X50457D01*
X50473Y47443D01*
X50487Y47440D01*
X50499Y47434D01*
X50510Y47429D01*
X50519Y47423D01*
X50524Y47418D01*
X50528Y47415D01*
X50530Y47413D01*
X50539Y47401D01*
X50546Y47388D01*
X50552Y47375D01*
X50555Y47362D01*
X50557Y47351D01*
X50559Y47343D01*
Y47337D01*
Y47334D01*
X50557Y47323D01*
X50556Y47311D01*
X50553Y47300D01*
X50550Y47289D01*
X50546Y47280D01*
X50543Y47273D01*
X50542Y47268D01*
X50541Y47266D01*
X50534Y47253D01*
X50524Y47237D01*
X50514Y47222D01*
X50503Y47208D01*
X50494Y47196D01*
X50485Y47186D01*
X50480Y47180D01*
X50478Y47178D01*
X50473Y47172D01*
X50466Y47165D01*
X50449Y47147D01*
X50428Y47128D01*
X50408Y47107D01*
X50388Y47088D01*
X50371Y47072D01*
X50366Y47065D01*
X50360Y47061D01*
X50358Y47058D01*
X50356Y47057D01*
X50333Y47035D01*
X50312Y47014D01*
X50292Y46995D01*
X50274Y46977D01*
X50258Y46961D01*
X50244Y46946D01*
X50230Y46934D01*
X50219Y46921D01*
X50209Y46911D01*
X50201Y46902D01*
X50194Y46895D01*
X50188Y46889D01*
X50181Y46881D01*
X50179Y46878D01*
X50162Y46857D01*
X50147Y46836D01*
X50133Y46817D01*
X50120Y46799D01*
X50111Y46784D01*
X50104Y46771D01*
X50100Y46763D01*
X50098Y46762D01*
Y46760D01*
X50087Y46737D01*
X50079Y46712D01*
X50072Y46689D01*
X50066Y46669D01*
X50062Y46652D01*
X50059Y46638D01*
Y46633D01*
X50058Y46628D01*
Y46633D01*
Y46626D01*
X50641D01*
X50677Y46798D01*
X50344D01*
X50363Y46821D01*
X50371Y46832D01*
X50380Y46842D01*
X50387Y46849D01*
X50392Y46855D01*
X50395Y46859D01*
X50396Y46860D01*
X50410Y46874D01*
X50427Y46891D01*
X50446Y46909D01*
X50466Y46927D01*
X50484Y46945D01*
X50499Y46959D01*
X50505Y46964D01*
X50509Y46967D01*
X50512Y46970D01*
X50513Y46971D01*
X50543Y47000D01*
X50570Y47025D01*
X50592Y47047D01*
X50610Y47065D01*
X50624Y47079D01*
X50634Y47089D01*
X50639Y47096D01*
X50641Y47097D01*
X50660Y47121D01*
X50675Y47143D01*
X50689Y47164D01*
X50700Y47182D01*
X50708Y47197D01*
X50714Y47208D01*
X50717Y47215D01*
X50718Y47218D01*
X50727Y47240D01*
X50732Y47261D01*
X50736Y47280D01*
X50739Y47297D01*
X50740Y47312D01*
X50742Y47323D01*
Y46663D01*
Y47333D01*
X50740Y47354D01*
X50739Y47373D01*
X50729Y47409D01*
X50717Y47441D01*
X50703Y47468D01*
X50696Y47479D01*
X50689Y47488D01*
X50682Y47497D01*
X50677Y47505D01*
X50671Y47511D01*
X50667Y47515D01*
X50666Y47516D01*
X50664Y47517D01*
X50649Y47530D01*
X50634Y47542D01*
X50617Y47552D01*
X50599Y47560D01*
X50564Y47573D01*
X50530Y47581D01*
X50514Y47585D01*
X50500Y47587D01*
X50487Y47588D01*
X50476Y47590D01*
X50466Y47591D01*
X50742D01*
D01*
D02*
G37*
G36*
X47228Y47322D02*
X46595D01*
X46450Y46626D01*
X46635D01*
X46750Y47175D01*
X47008D01*
X46895Y46626D01*
X47228D01*
X47081D01*
X47228Y47322D01*
D02*
G37*
G36*
X46412D02*
X44941D01*
X44795Y46626D01*
X44981D01*
X45096Y47175D01*
X45354D01*
X45240Y46626D01*
X45426D01*
X45542Y47175D01*
X45573Y47322D01*
X45817D01*
X45735Y46934D01*
X45731Y46916D01*
X45727Y46900D01*
X45724Y46885D01*
X45720Y46873D01*
X45713Y46850D01*
X45708Y46832D01*
X45702Y46820D01*
X45698Y46812D01*
X45696Y46806D01*
X45695Y46805D01*
X45687Y46795D01*
X45676Y46787D01*
X45665Y46781D01*
X45653Y46778D01*
X45644Y46775D01*
X45635Y46774D01*
X45627D01*
X45604Y46775D01*
X45592Y46777D01*
X45581Y46778D01*
X45573Y46780D01*
X45566Y46781D01*
X45561Y46782D01*
X45559D01*
X45530Y46626D01*
X45556Y46620D01*
X45579Y46617D01*
X45599Y46615D01*
X45617Y46612D01*
X45631D01*
X45641Y46610D01*
X45649D01*
X45684Y46612D01*
X45714Y46617D01*
X45741Y46624D01*
X45763Y46634D01*
X45780Y46642D01*
X45792Y46649D01*
X45799Y46655D01*
X45802Y46656D01*
X45812Y46666D01*
X45821Y46676D01*
X45838Y46699D01*
X45850Y46724D01*
X45861Y46749D01*
X45870Y46771D01*
X45873Y46781D01*
X45875Y46791D01*
X45877Y46798D01*
X45878Y46803D01*
X45880Y46806D01*
Y46807D01*
X45957Y47175D01*
X46193D01*
X46079Y46626D01*
X46265D01*
X46412Y47322D01*
D01*
D02*
G37*
G36*
X51530Y47585D02*
X50771D01*
D01*
X50972D01*
X50771Y46626D01*
X50940D01*
X50964Y46738D01*
X50978Y46714D01*
X50994Y46695D01*
X51011Y46677D01*
X51027Y46663D01*
X51047Y46651D01*
X51065Y46640D01*
X51083Y46631D01*
X51101Y46624D01*
X51118Y46619D01*
X51133Y46615D01*
X51147Y46612D01*
X51159Y46610D01*
X51170Y46609D01*
X51177Y46608D01*
X51184D01*
X51208Y46609D01*
X51229Y46612D01*
X51249Y46616D01*
X51267Y46622D01*
X51283Y46626D01*
X51294Y46630D01*
X51301Y46633D01*
X51303Y46634D01*
X51326Y46645D01*
X51345Y46659D01*
X51364Y46673D01*
X51381Y46687D01*
X51395Y46698D01*
X51405Y46708D01*
X51412Y46714D01*
X51414Y46717D01*
X51434Y46739D01*
X51449Y46764D01*
X51464Y46788D01*
X51475Y46812D01*
X51485Y46832D01*
X51492Y46848D01*
X51495Y46855D01*
X51496Y46859D01*
X51498Y46861D01*
Y46863D01*
X51509Y46896D01*
X51516Y46929D01*
X51521Y46961D01*
X51525Y46989D01*
X51528Y47013D01*
Y47022D01*
X51530Y47031D01*
Y47047D01*
X51528Y47074D01*
X51527Y47097D01*
X51524Y47119D01*
X51520Y47140D01*
X51514Y47160D01*
X51509Y47178D01*
X51503Y47193D01*
X51496Y47208D01*
X51491Y47221D01*
X51484Y47232D01*
X51478Y47241D01*
X51474Y47248D01*
X51468Y47254D01*
X51466Y47259D01*
X51464Y47261D01*
X51463Y47262D01*
X51450Y47276D01*
X51437Y47287D01*
X51421Y47297D01*
X51407Y47305D01*
X51377Y47319D01*
X51349Y47327D01*
X51324Y47333D01*
X51313Y47334D01*
X51303Y47336D01*
X51297Y47337D01*
X51285D01*
X51266Y47336D01*
X51247Y47334D01*
X51230Y47332D01*
X51215Y47329D01*
X51204Y47325D01*
X51194Y47322D01*
X51188Y47320D01*
X51186Y47319D01*
X51169Y47312D01*
X51152Y47304D01*
X51136Y47294D01*
X51122Y47286D01*
X51108Y47278D01*
X51098Y47271D01*
X51093Y47265D01*
X51090Y47264D01*
X51158Y47585D01*
X51530D01*
D01*
D02*
G37*
G36*
X49983Y46626D02*
Y46480D01*
X49218D01*
Y46361D01*
X49983D01*
Y46626D01*
D02*
G37*
%LPD*%
G36*
X48882Y47197D02*
X48900Y47192D01*
X48917Y47183D01*
X48931Y47175D01*
X48942Y47167D01*
X48950Y47158D01*
X48956Y47153D01*
X48957Y47151D01*
X48971Y47132D01*
X48980Y47112D01*
X48989Y47092D01*
X48993Y47072D01*
X48996Y47056D01*
X48999Y47042D01*
Y47036D01*
Y47032D01*
Y47031D01*
Y47029D01*
X48997Y47004D01*
X48994Y46979D01*
X48990Y46956D01*
X48986Y46935D01*
X48980Y46917D01*
X48976Y46903D01*
X48975Y46898D01*
X48974Y46893D01*
X48972Y46892D01*
Y46891D01*
X48961Y46866D01*
X48950Y46843D01*
X48938Y46825D01*
X48926Y46810D01*
X48915Y46799D01*
X48907Y46791D01*
X48901Y46785D01*
X48900Y46784D01*
X48883Y46773D01*
X48867Y46764D01*
X48850Y46757D01*
X48836Y46753D01*
X48822Y46751D01*
X48813Y46749D01*
X48804D01*
X48785Y46751D01*
X48767Y46756D01*
X48750Y46763D01*
X48736Y46770D01*
X48725Y46778D01*
X48717Y46784D01*
X48711Y46789D01*
X48710Y46791D01*
X48698Y46807D01*
X48688Y46827D01*
X48682Y46846D01*
X48677Y46864D01*
X48674Y46881D01*
X48673Y46895D01*
Y46900D01*
Y46904D01*
Y46906D01*
Y46907D01*
X48675Y46946D01*
X48681Y46984D01*
X48689Y47017D01*
X48699Y47046D01*
X48705Y47060D01*
X48709Y47071D01*
X48713Y47081D01*
X48717Y47090D01*
X48721Y47096D01*
X48723Y47101D01*
X48725Y47104D01*
Y47106D01*
X48736Y47122D01*
X48746Y47136D01*
X48759Y47149D01*
X48770Y47160D01*
X48781Y47168D01*
X48792Y47176D01*
X48814Y47187D01*
X48833Y47193D01*
X48849Y47197D01*
X48854Y47198D01*
X48863D01*
X48882Y47197D01*
D02*
G37*
G36*
X51236Y47201D02*
X51254Y47196D01*
X51269Y47189D01*
X51283Y47182D01*
X51294Y47174D01*
X51302Y47167D01*
X51308Y47161D01*
X51309Y47160D01*
X51321Y47143D01*
X51331Y47124D01*
X51338Y47104D01*
X51344Y47085D01*
X51346Y47068D01*
X51348Y47056D01*
Y47050D01*
Y47046D01*
Y47045D01*
Y47043D01*
X51346Y47015D01*
X51344Y46988D01*
X51338Y46961D01*
X51334Y46939D01*
X51328Y46920D01*
X51323Y46904D01*
X51321Y46899D01*
X51320Y46895D01*
X51319Y46893D01*
Y46892D01*
X51308Y46866D01*
X51295Y46843D01*
X51283Y46824D01*
X51272Y46809D01*
X51262Y46798D01*
X51254Y46789D01*
X51248Y46784D01*
X51247Y46782D01*
X51230Y46771D01*
X51215Y46763D01*
X51199Y46757D01*
X51186Y46753D01*
X51173Y46751D01*
X51165Y46749D01*
X51156D01*
X51137Y46751D01*
X51119Y46756D01*
X51102Y46763D01*
X51088Y46771D01*
X51077Y46778D01*
X51069Y46785D01*
X51064Y46791D01*
X51062Y46792D01*
X51050Y46810D01*
X51040Y46830D01*
X51033Y46848D01*
X51029Y46867D01*
X51026Y46882D01*
X51023Y46896D01*
Y46904D01*
Y46906D01*
Y46907D01*
X51025Y46932D01*
X51026Y46957D01*
X51034Y47002D01*
X51040Y47022D01*
X51046Y47040D01*
X51051Y47058D01*
X51058Y47074D01*
X51065Y47088D01*
X51070Y47100D01*
X51076Y47111D01*
X51082Y47119D01*
X51086Y47126D01*
X51090Y47132D01*
X51091Y47135D01*
X51093Y47136D01*
X51102Y47147D01*
X51112Y47158D01*
X51134Y47175D01*
X51154Y47186D01*
X51173Y47194D01*
X51191Y47200D01*
X51204Y47201D01*
X51209Y47203D01*
X51216D01*
X51236Y47201D01*
D02*
G37*
D10*
X40875Y40575D02*
G03*
X40875Y40575I-75J0D01*
G01*
D11*
X51680Y42575D02*
G03*
X51680Y42575I-125J0D01*
G01*
X40425Y39625D02*
G03*
X40425Y39625I-125J0D01*
G01*
D12*
X55900Y46000D02*
Y46250D01*
X55100Y46000D02*
Y46250D01*
X55075Y42475D02*
Y43575D01*
X54925Y42475D02*
Y43575D01*
X40925Y42200D02*
X41375D01*
X40925Y41825D02*
Y42200D01*
X42850Y41750D02*
Y42200D01*
X42475D02*
X42850D01*
X42400Y40575D02*
X42850D01*
Y40950D01*
X62375Y31255D02*
X62625D01*
X62375Y30455D02*
X62625D01*
X50214Y31326D02*
Y31576D01*
X49414Y31326D02*
Y31576D01*
X51075Y28575D02*
Y29675D01*
X50925Y28575D02*
Y29675D01*
X42900Y31550D02*
Y31800D01*
X42100Y31550D02*
Y31800D01*
X44400Y31550D02*
Y31800D01*
X43600Y31550D02*
Y31800D01*
X56700Y44500D02*
X60654D01*
Y47825D01*
X56700Y44500D02*
Y47826D01*
X60654Y47825D01*
X36950Y40375D02*
X38050D01*
X36950Y40225D02*
X38050D01*
X39350Y39675D02*
X40450D01*
X39350Y39525D02*
X40450D01*
X38150Y39675D02*
X39250D01*
X38150Y39525D02*
X39250D01*
X42375Y42275D02*
Y43375D01*
X42225Y42275D02*
Y43375D01*
X36775Y35725D02*
X37025D01*
X36775Y36525D02*
X37025D01*
X36775Y34425D02*
X37025D01*
X36775Y35225D02*
X37025D01*
X40516Y33825D02*
X40766D01*
X40516Y34625D02*
X40766D01*
X35375Y38500D02*
X35625D01*
X35375Y39300D02*
X35625D01*
X33200Y38000D02*
Y38250D01*
X34000Y38000D02*
Y38250D01*
X35400Y34000D02*
Y34250D01*
X34600Y34000D02*
Y34250D01*
X37700Y47826D02*
X41654Y47825D01*
X37700Y44500D02*
Y47826D01*
X41654Y44500D02*
Y47825D01*
X37700Y44500D02*
X41654D01*
X35166Y26425D02*
X39120Y26424D01*
Y29750D01*
X35166Y26425D02*
Y29750D01*
X39120D01*
X55541Y26425D02*
X59495Y26424D01*
Y29750D01*
X55541Y26425D02*
Y29750D01*
X59495D01*
X32625Y49650D02*
X36775D01*
X32625Y43150D02*
Y49650D01*
X36775Y43150D02*
Y49650D01*
X32625Y43150D02*
X36775D01*
D13*
X60600Y31925D02*
X64400D01*
Y38625D01*
X60600D02*
X64400D01*
X60600Y31925D02*
Y38625D01*
X59125Y33200D02*
X60375D01*
X59125Y30550D02*
X60375D01*
Y33200D01*
X59125Y30550D02*
Y33200D01*
X52655Y37575D02*
X55855D01*
Y42200D01*
X52655D02*
X55855D01*
X52655Y37575D02*
Y42200D01*
X52700Y30275D02*
Y33975D01*
X57000D01*
Y30275D02*
Y33975D01*
X52700Y30275D02*
X57000D01*
X40950Y39525D02*
Y39775D01*
X41200D01*
X45000D02*
X45250D01*
Y39525D02*
Y39775D01*
Y35475D02*
Y35725D01*
X45000Y35475D02*
X45250D01*
X40950D02*
Y35725D01*
Y35475D02*
X41200D01*
X38200Y42200D02*
Y43450D01*
X40850Y42200D02*
Y43450D01*
X38200D02*
X40850D01*
X38200Y42200D02*
X40850D01*
D14*
X59450Y33675D02*
X59850D01*
X60050Y33875D01*
X59850Y34075D01*
X59450D01*
Y34275D02*
X60050D01*
Y34575D01*
X59950Y34675D01*
X59550D01*
X59450Y34575D01*
Y34275D01*
X60050Y34875D02*
Y35075D01*
Y34975D01*
X59450D01*
X59550Y34875D01*
X52750Y35075D02*
Y34575D01*
X52850Y34475D01*
X53050D01*
X53150Y34575D01*
Y35075D01*
X53350Y34475D02*
X53550D01*
X53450D01*
Y35075D01*
X53350Y34975D01*
X61850Y29075D02*
Y29675D01*
X62150D01*
X62250Y29575D01*
Y29375D01*
X62150Y29275D01*
X61850D01*
X62050D02*
X62250Y29075D01*
X62450D02*
X62650D01*
X62550D01*
Y29675D01*
X62450Y29575D01*
X62950Y29075D02*
X63150D01*
X63050D01*
Y29675D01*
X62950Y29575D01*
X47151Y31131D02*
Y31731D01*
X47451D01*
X47551Y31631D01*
Y31431D01*
X47451Y31331D01*
X47151D01*
X47351D02*
X47551Y31131D01*
X47751D02*
X47951D01*
X47851D01*
Y31731D01*
X47751Y31631D01*
X48251D02*
X48351Y31731D01*
X48551D01*
X48651Y31631D01*
Y31231D01*
X48551Y31131D01*
X48351D01*
X48251Y31231D01*
Y31631D01*
X43500Y29375D02*
Y29975D01*
X43800D01*
X43900Y29875D01*
Y29675D01*
X43800Y29575D01*
X43500D01*
X43700D02*
X43900Y29375D01*
X44100Y29475D02*
X44200Y29375D01*
X44400D01*
X44500Y29475D01*
Y29875D01*
X44400Y29975D01*
X44200D01*
X44100Y29875D01*
Y29775D01*
X44200Y29675D01*
X44500D01*
X42000Y29375D02*
Y29975D01*
X42300D01*
X42400Y29875D01*
Y29675D01*
X42300Y29575D01*
X42000D01*
X42200D02*
X42400Y29375D01*
X42600Y29975D02*
X43000D01*
Y29875D01*
X42600Y29475D01*
Y29375D01*
X61950Y39675D02*
X61550D01*
Y39375D01*
X61750D01*
X61550D01*
Y39075D01*
X62150Y39675D02*
Y39175D01*
X62250Y39075D01*
X62450D01*
X62550Y39175D01*
Y39675D01*
X62750Y39075D02*
X62950D01*
X62850D01*
Y39675D01*
X62750Y39575D01*
X53450Y37175D02*
Y36575D01*
X53750D01*
X53850Y36675D01*
Y37075D01*
X53750Y37175D01*
X53450D01*
X54050D02*
Y36575D01*
X54350D01*
X54450Y36675D01*
Y37075D01*
X54350Y37175D01*
X54050D01*
X55050D02*
X54650D01*
Y36875D01*
X54850Y36975D01*
X54950D01*
X55050Y36875D01*
Y36675D01*
X54950Y36575D01*
X54750D01*
X54650Y36675D01*
X50900Y28075D02*
X50800Y28175D01*
X50600D01*
X50500Y28075D01*
Y27675D01*
X50600Y27575D01*
X50800D01*
X50900Y27675D01*
X51500Y27575D02*
X51100D01*
X51500Y27975D01*
Y28075D01*
X51400Y28175D01*
X51200D01*
X51100Y28075D01*
X54900Y44325D02*
X54800Y44425D01*
X54600D01*
X54500Y44325D01*
Y43925D01*
X54600Y43825D01*
X54800D01*
X54900Y43925D01*
X55100D02*
X55200Y43825D01*
X55400D01*
X55500Y43925D01*
Y44325D01*
X55400Y44425D01*
X55200D01*
X55100Y44325D01*
Y44225D01*
X55200Y44125D01*
X55500D01*
X37150Y42250D02*
X37050Y42350D01*
X36850D01*
X36750Y42250D01*
Y41850D01*
X36850Y41750D01*
X37050D01*
X37150Y41850D01*
X37350Y42350D02*
X37750D01*
Y42250D01*
X37350Y41850D01*
Y41750D01*
X40000Y41600D02*
X39900Y41700D01*
X39700D01*
X39600Y41600D01*
Y41200D01*
X39700Y41100D01*
X39900D01*
X40000Y41200D01*
X40600Y41700D02*
X40400Y41600D01*
X40200Y41400D01*
Y41200D01*
X40300Y41100D01*
X40500D01*
X40600Y41200D01*
Y41300D01*
X40500Y41400D01*
X40200D01*
X38600Y41575D02*
X38500Y41675D01*
X38300D01*
X38200Y41575D01*
Y41175D01*
X38300Y41075D01*
X38500D01*
X38600Y41175D01*
X39200Y41675D02*
X38800D01*
Y41375D01*
X39000Y41475D01*
X39100D01*
X39200Y41375D01*
Y41175D01*
X39100Y41075D01*
X38900D01*
X38800Y41175D01*
X42100Y44125D02*
X42000Y44225D01*
X41800D01*
X41700Y44125D01*
Y43725D01*
X41800Y43625D01*
X42000D01*
X42100Y43725D01*
X42300Y43625D02*
X42500D01*
X42400D01*
Y44225D01*
X42300Y44125D01*
X53500Y45825D02*
Y46425D01*
X53800D01*
X53900Y46325D01*
Y46125D01*
X53800Y46025D01*
X53500D01*
X53700D02*
X53900Y45825D01*
X54100Y46325D02*
X54200Y46425D01*
X54400D01*
X54500Y46325D01*
Y46225D01*
X54400Y46125D01*
X54500Y46025D01*
Y45925D01*
X54400Y45825D01*
X54200D01*
X54100Y45925D01*
Y46025D01*
X54200Y46125D01*
X54100Y46225D01*
Y46325D01*
X54200Y46125D02*
X54400D01*
X40150Y32950D02*
Y33550D01*
X40450D01*
X40550Y33450D01*
Y33250D01*
X40450Y33150D01*
X40150D01*
X40350D02*
X40550Y32950D01*
X41150Y33550D02*
X40950Y33450D01*
X40750Y33250D01*
Y33050D01*
X40850Y32950D01*
X41050D01*
X41150Y33050D01*
Y33150D01*
X41050Y33250D01*
X40750D01*
X38200Y34575D02*
Y35175D01*
X38500D01*
X38600Y35075D01*
Y34875D01*
X38500Y34775D01*
X38200D01*
X38400D02*
X38600Y34575D01*
X39200Y35175D02*
X38800D01*
Y34875D01*
X39000Y34975D01*
X39100D01*
X39200Y34875D01*
Y34675D01*
X39100Y34575D01*
X38900D01*
X38800Y34675D01*
X38200Y35825D02*
Y36425D01*
X38500D01*
X38600Y36325D01*
Y36125D01*
X38500Y36025D01*
X38200D01*
X38400D02*
X38600Y35825D01*
X39100D02*
Y36425D01*
X38800Y36125D01*
X39200D01*
X35000Y39600D02*
Y40200D01*
X35300D01*
X35400Y40100D01*
Y39900D01*
X35300Y39800D01*
X35000D01*
X35200D02*
X35400Y39600D01*
X36000D02*
X35600D01*
X36000Y40000D01*
Y40100D01*
X35900Y40200D01*
X35700D01*
X35600Y40100D01*
X32175Y37825D02*
Y38425D01*
X32475D01*
X32575Y38325D01*
Y38125D01*
X32475Y38025D01*
X32175D01*
X32375D02*
X32575Y37825D01*
X32775D02*
X32975D01*
X32875D01*
Y38425D01*
X32775Y38325D01*
X33175Y33800D02*
Y34400D01*
X33475D01*
X33575Y34300D01*
Y34100D01*
X33475Y34000D01*
X33175D01*
X33375D02*
X33575Y33800D01*
X33775Y34300D02*
X33875Y34400D01*
X34075D01*
X34175Y34300D01*
Y34200D01*
X34075Y34100D01*
X33975D01*
X34075D01*
X34175Y34000D01*
Y33900D01*
X34075Y33800D01*
X33875D01*
X33775Y33900D01*
X43300Y41675D02*
Y41075D01*
X43600D01*
X43700Y41175D01*
Y41275D01*
X43600Y41375D01*
X43300D01*
X43600D01*
X43700Y41475D01*
Y41575D01*
X43600Y41675D01*
X43300D01*
X44300Y41175D02*
Y41575D01*
X44200Y41675D01*
X44000D01*
X43900Y41575D01*
Y41175D01*
X44000Y41075D01*
X44200D01*
X44100Y41275D02*
X44300Y41075D01*
X44200D02*
X44300Y41175D01*
X44500Y41075D02*
X44700D01*
X44600D01*
Y41675D01*
X44500Y41575D01*
X39270Y44297D02*
Y43697D01*
X39670D01*
X39870D02*
X40070D01*
X39970D01*
Y44297D01*
X39870Y44197D01*
M02*
