G04*
G04 #@! TF.GenerationSoftware,Altium Limited,Altium Designer,20.1.8 (145)*
G04*
G04 Layer_Color=16777215*
%FSTAX43Y43*%
%MOMM*%
G71*
G04*
G04 #@! TF.SameCoordinates,3F849034-A6BE-41B6-9089-3A01D41A6D06*
G04*
G04*
G04 #@! TF.FilePolarity,Positive*
G04*
G01*
G75*
%ADD10C,0.300*%
%ADD11R,2.500X3.003*%
%ADD12R,2.500X6.750*%
%ADD13R,2.500X5.000*%
G36*
X006875Y003725D02*
X006875Y0036D01*
X007125Y003725D01*
X006875D01*
D02*
G37*
G36*
X007275Y0039D02*
X007525D01*
X007275Y003775D01*
X007275Y0039D01*
D02*
G37*
G36*
X007675Y0041D02*
Y003975D01*
X007925Y0041D01*
X007675D01*
D02*
G37*
G36*
X005675Y00625D02*
Y00605D01*
X005775D01*
Y00625D01*
X005675D01*
D02*
G37*
G36*
X0063733Y0063399D02*
X0065233Y0060899D01*
Y0063399D01*
X0063733D01*
D02*
G37*
G36*
X006575Y00635D02*
D01*
D02*
G37*
G36*
X0079919Y0055043D02*
X0079508D01*
X0078736Y0056964D01*
X0079155D01*
X0079322Y0056528D01*
X0080094D01*
X0080252Y0056964D01*
X0080663D01*
X0079919Y0055043D01*
D02*
G37*
G36*
X008327Y0056997D02*
X00833Y0056994D01*
X0083334Y0056992D01*
X0083373Y0056986D01*
X0083414Y0056978D01*
X0083506Y0056958D01*
X0083553Y0056944D01*
X0083597Y0056931D01*
X0083645Y0056911D01*
X0083689Y0056889D01*
X0083731Y0056864D01*
X008377Y0056833D01*
X0083772Y0056831D01*
X0083778Y0056825D01*
X0083789Y0056817D01*
X00838Y0056803D01*
X0083817Y0056783D01*
X0083833Y0056761D01*
X0083853Y0056736D01*
X0083872Y0056708D01*
X0083892Y0056675D01*
X0083911Y0056639D01*
X0083931Y0056597D01*
X008395Y0056553D01*
X0083964Y0056506D01*
X0083981Y0056453D01*
X0083992Y0056398D01*
X0084Y0056339D01*
X0083622Y0056303D01*
Y0056306D01*
X008362Y0056311D01*
Y0056323D01*
X0083617Y0056334D01*
X0083606Y0056367D01*
X0083592Y0056409D01*
X0083575Y0056456D01*
X008355Y0056503D01*
X0083522Y0056545D01*
X0083486Y0056584D01*
X0083481Y0056586D01*
X0083467Y0056597D01*
X0083445Y0056611D01*
X0083411Y0056628D01*
X008337Y0056645D01*
X0083323Y0056659D01*
X0083267Y005667D01*
X0083203Y0056672D01*
X0083173D01*
X0083139Y0056667D01*
X0083098Y0056661D01*
X0083053Y0056653D01*
X0083006Y0056639D01*
X0082962Y005662D01*
X0082923Y0056595D01*
X0082917Y0056592D01*
X0082906Y0056581D01*
X0082892Y0056564D01*
X0082873Y0056542D01*
X0082856Y0056514D01*
X008284Y0056481D01*
X0082828Y0056448D01*
X0082826Y0056409D01*
Y0056406D01*
Y0056398D01*
X0082828Y0056384D01*
X0082831Y0056367D01*
X0082837Y005635D01*
X0082842Y0056331D01*
X0082853Y0056311D01*
X0082867Y0056292D01*
X008287Y0056289D01*
X0082876Y0056284D01*
X0082884Y0056275D01*
X0082898Y0056264D01*
X0082917Y005625D01*
X0082942Y0056237D01*
X008297Y0056223D01*
X0083006Y0056209D01*
X0083009D01*
X008302Y0056203D01*
X0083039Y0056198D01*
X0083053Y0056192D01*
X008307Y0056189D01*
X0083089Y0056184D01*
X0083112Y0056175D01*
X0083137Y005617D01*
X0083164Y0056162D01*
X0083198Y0056153D01*
X0083234Y0056145D01*
X0083273Y0056134D01*
X0083317Y0056123D01*
X008332D01*
X0083331Y005612D01*
X0083348Y0056114D01*
X0083367Y0056109D01*
X0083392Y00561D01*
X0083423Y0056092D01*
X0083453Y0056081D01*
X0083489Y005607D01*
X0083561Y0056042D01*
X0083631Y0056009D01*
X0083667Y0055992D01*
X0083697Y0055973D01*
X0083728Y0055953D01*
X0083753Y0055934D01*
X0083756Y0055931D01*
X0083761Y0055926D01*
X008377Y0055917D01*
X0083781Y0055906D01*
X0083795Y005589D01*
X0083808Y005587D01*
X0083825Y0055851D01*
X0083839Y0055826D01*
X0083872Y0055767D01*
X00839Y0055701D01*
X0083911Y0055665D01*
X0083919Y0055629D01*
X0083925Y0055587D01*
X0083928Y0055545D01*
Y0055542D01*
Y005554D01*
Y0055531D01*
Y005552D01*
X0083922Y0055493D01*
X0083917Y0055456D01*
X0083908Y0055415D01*
X0083895Y0055368D01*
X0083875Y0055318D01*
X0083847Y005527D01*
Y0055268D01*
X0083845Y0055265D01*
X0083831Y0055248D01*
X0083814Y0055226D01*
X0083786Y0055198D01*
X0083753Y0055168D01*
X0083711Y0055134D01*
X0083664Y0055104D01*
X0083609Y0055076D01*
X0083606D01*
X00836Y0055073D01*
X0083592Y0055071D01*
X0083581Y0055065D01*
X0083564Y0055059D01*
X0083547Y0055054D01*
X0083525Y0055048D01*
X00835Y005504D01*
X0083445Y0055029D01*
X0083381Y0055018D01*
X0083309Y0055009D01*
X0083228Y0055007D01*
X0083195D01*
X008317Y0055009D01*
X0083139Y0055012D01*
X0083103Y0055015D01*
X0083067Y0055021D01*
X0083026Y0055026D01*
X0082937Y0055046D01*
X0082892Y0055059D01*
X0082848Y0055073D01*
X0082803Y0055093D01*
X0082762Y0055115D01*
X0082723Y005514D01*
X0082687Y0055168D01*
X0082684Y005517D01*
X0082679Y0055176D01*
X008267Y0055184D01*
X0082659Y0055195D01*
X0082645Y0055212D01*
X0082629Y0055232D01*
X0082612Y0055254D01*
X0082592Y0055279D01*
X0082576Y0055309D01*
X0082559Y005534D01*
X0082542Y0055376D01*
X0082529Y0055415D01*
X0082515Y0055454D01*
X0082504Y0055498D01*
X0082495Y0055542D01*
X0082493Y0055592D01*
X0082881Y0055606D01*
Y0055604D01*
Y0055601D01*
X0082887Y0055581D01*
X0082892Y0055556D01*
X0082903Y0055526D01*
X0082917Y005549D01*
X0082937Y0055456D01*
X0082962Y0055423D01*
X0082989Y0055395D01*
X0082992Y0055393D01*
X0083003Y0055384D01*
X0083023Y0055373D01*
X0083051Y0055362D01*
X0083084Y0055351D01*
X0083125Y005534D01*
X0083175Y0055331D01*
X0083234Y0055329D01*
X0083262D01*
X0083292Y0055331D01*
X0083328Y0055337D01*
X008337Y0055345D01*
X0083414Y0055359D01*
X0083456Y0055376D01*
X0083495Y0055401D01*
X0083497Y0055404D01*
X0083503Y0055409D01*
X0083514Y0055418D01*
X0083525Y0055431D01*
X0083536Y0055448D01*
X0083547Y005547D01*
X0083553Y0055493D01*
X0083556Y005552D01*
Y0055523D01*
Y0055531D01*
X0083553Y0055545D01*
X0083547Y0055559D01*
X0083542Y0055579D01*
X0083534Y0055598D01*
X008352Y0055617D01*
X00835Y0055637D01*
X0083497Y005564D01*
X0083484Y0055648D01*
X0083475Y0055654D01*
X0083461Y0055659D01*
X0083448Y0055667D01*
X0083428Y0055676D01*
X0083406Y0055684D01*
X0083381Y0055695D01*
X008335Y0055706D01*
X008332Y0055717D01*
X0083281Y0055728D01*
X0083239Y005574D01*
X0083195Y0055751D01*
X0083145Y0055765D01*
X0083142D01*
X0083131Y0055767D01*
X0083117Y005577D01*
X0083098Y0055776D01*
X0083076Y0055781D01*
X0083048Y005579D01*
X0083017Y0055798D01*
X0082987Y0055806D01*
X008292Y0055828D01*
X0082851Y0055851D01*
X0082784Y0055876D01*
X0082756Y005589D01*
X0082728Y0055903D01*
X0082726D01*
X0082723Y0055906D01*
X0082706Y0055917D01*
X0082681Y0055934D01*
X0082651Y0055956D01*
X0082617Y0055984D01*
X0082581Y0056017D01*
X0082545Y0056056D01*
X0082515Y00561D01*
X0082512Y0056106D01*
X0082504Y0056123D01*
X008249Y0056148D01*
X0082476Y0056184D01*
X0082462Y0056228D01*
X0082448Y0056281D01*
X008244Y0056339D01*
X0082437Y0056406D01*
Y0056409D01*
Y0056414D01*
Y0056423D01*
Y0056434D01*
X008244Y0056448D01*
X0082443Y0056467D01*
X0082448Y0056506D01*
X0082459Y0056556D01*
X0082476Y0056609D01*
X0082501Y0056661D01*
X0082531Y0056717D01*
Y005672D01*
X0082537Y0056722D01*
X0082548Y0056739D01*
X008257Y0056767D01*
X0082598Y0056797D01*
X0082634Y0056833D01*
X0082681Y0056867D01*
X0082731Y00569D01*
X0082792Y0056931D01*
X0082795D01*
X0082801Y0056933D01*
X0082809Y0056936D01*
X0082823Y0056942D01*
X008284Y0056947D01*
X0082859Y0056953D01*
X0082881Y0056958D01*
X0082906Y0056964D01*
X0082937Y0056972D01*
X0082967Y0056978D01*
X0083039Y0056989D01*
X008312Y0056997D01*
X0083209Y0057D01*
X0083245D01*
X008327Y0056997D01*
D02*
G37*
G36*
X0074322D02*
X0074353Y0056994D01*
X0074386Y0056992D01*
X0074425Y0056986D01*
X0074466Y0056978D01*
X0074558Y0056958D01*
X0074605Y0056944D01*
X007465Y0056931D01*
X0074697Y0056911D01*
X0074741Y0056889D01*
X0074783Y0056864D01*
X0074822Y0056833D01*
X0074825Y0056831D01*
X007483Y0056825D01*
X0074841Y0056817D01*
X0074852Y0056803D01*
X0074869Y0056783D01*
X0074886Y0056761D01*
X0074905Y0056736D01*
X0074925Y0056708D01*
X0074944Y0056675D01*
X0074963Y0056639D01*
X0074983Y0056597D01*
X0075002Y0056553D01*
X0075016Y0056506D01*
X0075033Y0056453D01*
X0075044Y0056398D01*
X0075052Y0056339D01*
X0074675Y0056303D01*
Y0056306D01*
X0074672Y0056311D01*
Y0056323D01*
X0074669Y0056334D01*
X0074658Y0056367D01*
X0074644Y0056409D01*
X0074627Y0056456D01*
X0074602Y0056503D01*
X0074575Y0056545D01*
X0074539Y0056584D01*
X0074533Y0056586D01*
X0074519Y0056597D01*
X0074497Y0056611D01*
X0074464Y0056628D01*
X0074422Y0056645D01*
X0074375Y0056659D01*
X0074319Y005667D01*
X0074255Y0056672D01*
X0074225D01*
X0074192Y0056667D01*
X007415Y0056661D01*
X0074106Y0056653D01*
X0074058Y0056639D01*
X0074014Y005662D01*
X0073975Y0056595D01*
X007397Y0056592D01*
X0073958Y0056581D01*
X0073945Y0056564D01*
X0073925Y0056542D01*
X0073908Y0056514D01*
X0073892Y0056481D01*
X0073881Y0056448D01*
X0073878Y0056409D01*
Y0056406D01*
Y0056398D01*
X0073881Y0056384D01*
X0073883Y0056367D01*
X0073889Y005635D01*
X0073895Y0056331D01*
X0073906Y0056311D01*
X007392Y0056292D01*
X0073922Y0056289D01*
X0073928Y0056284D01*
X0073936Y0056275D01*
X007395Y0056264D01*
X007397Y005625D01*
X0073994Y0056237D01*
X0074022Y0056223D01*
X0074058Y0056209D01*
X0074061D01*
X0074072Y0056203D01*
X0074092Y0056198D01*
X0074106Y0056192D01*
X0074122Y0056189D01*
X0074142Y0056184D01*
X0074164Y0056175D01*
X0074189Y005617D01*
X0074217Y0056162D01*
X007425Y0056153D01*
X0074286Y0056145D01*
X0074325Y0056134D01*
X0074369Y0056123D01*
X0074372D01*
X0074383Y005612D01*
X00744Y0056114D01*
X0074419Y0056109D01*
X0074444Y00561D01*
X0074475Y0056092D01*
X0074505Y0056081D01*
X0074541Y005607D01*
X0074614Y0056042D01*
X0074683Y0056009D01*
X0074719Y0055992D01*
X007475Y0055973D01*
X007478Y0055953D01*
X0074805Y0055934D01*
X0074808Y0055931D01*
X0074813Y0055926D01*
X0074822Y0055917D01*
X0074833Y0055906D01*
X0074847Y005589D01*
X0074861Y005587D01*
X0074877Y0055851D01*
X0074891Y0055826D01*
X0074925Y0055767D01*
X0074952Y0055701D01*
X0074963Y0055665D01*
X0074972Y0055629D01*
X0074977Y0055587D01*
X007498Y0055545D01*
Y0055542D01*
Y005554D01*
Y0055531D01*
Y005552D01*
X0074975Y0055493D01*
X0074969Y0055456D01*
X0074961Y0055415D01*
X0074947Y0055368D01*
X0074927Y0055318D01*
X00749Y005527D01*
Y0055268D01*
X0074897Y0055265D01*
X0074883Y0055248D01*
X0074866Y0055226D01*
X0074838Y0055198D01*
X0074805Y0055168D01*
X0074764Y0055134D01*
X0074716Y0055104D01*
X0074661Y0055076D01*
X0074658D01*
X0074652Y0055073D01*
X0074644Y0055071D01*
X0074633Y0055065D01*
X0074616Y0055059D01*
X00746Y0055054D01*
X0074578Y0055048D01*
X0074553Y005504D01*
X0074497Y0055029D01*
X0074433Y0055018D01*
X0074361Y0055009D01*
X007428Y0055007D01*
X0074247D01*
X0074222Y0055009D01*
X0074192Y0055012D01*
X0074156Y0055015D01*
X0074119Y0055021D01*
X0074078Y0055026D01*
X0073989Y0055046D01*
X0073945Y0055059D01*
X00739Y0055073D01*
X0073856Y0055093D01*
X0073814Y0055115D01*
X0073775Y005514D01*
X0073739Y0055168D01*
X0073736Y005517D01*
X0073731Y0055176D01*
X0073722Y0055184D01*
X0073711Y0055195D01*
X0073697Y0055212D01*
X0073681Y0055232D01*
X0073664Y0055254D01*
X0073645Y0055279D01*
X0073628Y0055309D01*
X0073611Y005534D01*
X0073595Y0055376D01*
X0073581Y0055415D01*
X0073567Y0055454D01*
X0073556Y0055498D01*
X0073548Y0055542D01*
X0073545Y0055592D01*
X0073933Y0055606D01*
Y0055604D01*
Y0055601D01*
X0073939Y0055581D01*
X0073945Y0055556D01*
X0073956Y0055526D01*
X007397Y005549D01*
X0073989Y0055456D01*
X0074014Y0055423D01*
X0074042Y0055395D01*
X0074044Y0055393D01*
X0074056Y0055384D01*
X0074075Y0055373D01*
X0074103Y0055362D01*
X0074136Y0055351D01*
X0074178Y005534D01*
X0074228Y0055331D01*
X0074286Y0055329D01*
X0074314D01*
X0074344Y0055331D01*
X007438Y0055337D01*
X0074422Y0055345D01*
X0074466Y0055359D01*
X0074508Y0055376D01*
X0074547Y0055401D01*
X007455Y0055404D01*
X0074555Y0055409D01*
X0074566Y0055418D01*
X0074578Y0055431D01*
X0074589Y0055448D01*
X00746Y005547D01*
X0074605Y0055493D01*
X0074608Y005552D01*
Y0055523D01*
Y0055531D01*
X0074605Y0055545D01*
X00746Y0055559D01*
X0074594Y0055579D01*
X0074586Y0055598D01*
X0074572Y0055617D01*
X0074553Y0055637D01*
X007455Y005564D01*
X0074536Y0055648D01*
X0074528Y0055654D01*
X0074514Y0055659D01*
X00745Y0055667D01*
X007448Y0055676D01*
X0074458Y0055684D01*
X0074433Y0055695D01*
X0074403Y0055706D01*
X0074372Y0055717D01*
X0074333Y0055728D01*
X0074292Y005574D01*
X0074247Y0055751D01*
X0074197Y0055765D01*
X0074194D01*
X0074183Y0055767D01*
X0074169Y005577D01*
X007415Y0055776D01*
X0074128Y0055781D01*
X00741Y005579D01*
X0074069Y0055798D01*
X0074039Y0055806D01*
X0073972Y0055828D01*
X0073903Y0055851D01*
X0073836Y0055876D01*
X0073808Y005589D01*
X0073781Y0055903D01*
X0073778D01*
X0073775Y0055906D01*
X0073759Y0055917D01*
X0073734Y0055934D01*
X0073703Y0055956D01*
X007367Y0055984D01*
X0073634Y0056017D01*
X0073598Y0056056D01*
X0073567Y00561D01*
X0073564Y0056106D01*
X0073556Y0056123D01*
X0073542Y0056148D01*
X0073528Y0056184D01*
X0073514Y0056228D01*
X00735Y0056281D01*
X0073492Y0056339D01*
X0073489Y0056406D01*
Y0056409D01*
Y0056414D01*
Y0056423D01*
Y0056434D01*
X0073492Y0056448D01*
X0073495Y0056467D01*
X00735Y0056506D01*
X0073511Y0056556D01*
X0073528Y0056609D01*
X0073553Y0056661D01*
X0073584Y0056717D01*
Y005672D01*
X0073589Y0056722D01*
X00736Y0056739D01*
X0073622Y0056767D01*
X007365Y0056797D01*
X0073686Y0056833D01*
X0073734Y0056867D01*
X0073784Y00569D01*
X0073845Y0056931D01*
X0073847D01*
X0073853Y0056933D01*
X0073861Y0056936D01*
X0073875Y0056942D01*
X0073892Y0056947D01*
X0073911Y0056953D01*
X0073933Y0056958D01*
X0073958Y0056964D01*
X0073989Y0056972D01*
X0074019Y0056978D01*
X0074092Y0056989D01*
X0074172Y0056997D01*
X0074261Y0057D01*
X0074297D01*
X0074322Y0056997D01*
D02*
G37*
G36*
X0081674Y0055368D02*
X0082243D01*
Y0055043D01*
X0080719D01*
Y0055368D01*
X0081285D01*
Y0056964D01*
X0081674D01*
Y0055368D01*
D02*
G37*
G36*
X0078095D02*
X0078664D01*
Y0055043D01*
X007714D01*
Y0055368D01*
X0077706D01*
Y0056964D01*
X0078095D01*
Y0055368D01*
D02*
G37*
G36*
X0076174Y0056997D02*
X0076199D01*
X0076229Y0056994D01*
X007626Y0056992D01*
X0076327Y0056986D01*
X0076396Y0056975D01*
X0076465Y0056958D01*
X0076496Y005695D01*
X0076524Y0056939D01*
X0076526D01*
X0076529Y0056936D01*
X0076546Y0056928D01*
X0076574Y0056914D01*
X0076604Y0056895D01*
X007664Y005687D01*
X0076679Y0056842D01*
X0076715Y0056808D01*
X0076749Y0056772D01*
X0076751Y0056767D01*
X0076762Y0056756D01*
X0076776Y0056733D01*
X0076793Y0056706D01*
X007681Y0056675D01*
X0076829Y0056639D01*
X0076843Y00566D01*
X0076857Y0056559D01*
Y0056556D01*
X007686Y005655D01*
Y0056542D01*
X0076862Y0056528D01*
X0076865Y0056511D01*
X0076868Y0056489D01*
X0076871Y0056464D01*
X0076873Y0056436D01*
X0076879Y0056403D01*
X0076882Y0056367D01*
X0076885Y0056328D01*
X0076887Y0056284D01*
X007689Y0056237D01*
Y0056184D01*
X0076893Y0056128D01*
Y005607D01*
Y0055043D01*
X0076504D01*
Y0056087D01*
Y0056089D01*
Y0056098D01*
Y0056109D01*
Y0056125D01*
Y0056148D01*
Y005617D01*
X0076501Y005622D01*
Y0056275D01*
X0076499Y0056328D01*
X0076496Y0056353D01*
Y0056375D01*
X0076493Y0056392D01*
X007649Y0056409D01*
Y0056414D01*
X0076485Y0056428D01*
X0076476Y005645D01*
X0076465Y0056478D01*
X0076451Y0056509D01*
X0076429Y0056539D01*
X0076404Y0056572D01*
X0076374Y00566D01*
X0076368Y0056603D01*
X0076357Y0056611D01*
X0076335Y0056622D01*
X0076307Y0056634D01*
X0076268Y0056647D01*
X0076224Y0056659D01*
X0076174Y0056667D01*
X0076116Y005667D01*
X0076088D01*
X007606Y0056667D01*
X0076024Y0056661D01*
X0075982Y0056653D01*
X0075943Y0056642D01*
X0075902Y0056625D01*
X0075868Y0056603D01*
X0075866Y00566D01*
X0075855Y0056592D01*
X0075841Y0056578D01*
X0075824Y0056559D01*
X0075807Y0056534D01*
X0075791Y0056506D01*
X0075777Y0056475D01*
X0075769Y0056439D01*
Y0056434D01*
X0075766Y005642D01*
X0075763Y0056395D01*
X0075757Y0056361D01*
Y0056339D01*
X0075755Y0056314D01*
Y0056287D01*
X0075752Y0056259D01*
Y0056225D01*
X0075749Y0056189D01*
Y005615D01*
Y0056109D01*
Y0055043D01*
X007536D01*
Y0056056D01*
Y0056059D01*
Y005607D01*
Y0056089D01*
Y0056112D01*
Y0056139D01*
X0075363Y0056173D01*
Y0056209D01*
Y0056245D01*
X0075369Y0056325D01*
X0075374Y0056409D01*
X0075377Y0056445D01*
X0075383Y0056481D01*
X0075388Y0056514D01*
X0075394Y0056545D01*
Y0056547D01*
X0075396Y005655D01*
Y0056559D01*
X0075399Y0056567D01*
X0075408Y0056595D01*
X0075419Y0056628D01*
X0075435Y0056667D01*
X0075455Y0056706D01*
X007548Y0056747D01*
X007551Y0056786D01*
X0075513Y0056792D01*
X0075524Y0056803D01*
X0075544Y005682D01*
X0075569Y0056842D01*
X0075602Y0056867D01*
X0075641Y0056892D01*
X0075685Y0056919D01*
X0075735Y0056942D01*
X0075738D01*
X0075741Y0056944D01*
X0075749Y0056947D01*
X007576Y005695D01*
X0075774Y0056956D01*
X0075791Y0056961D01*
X0075813Y0056967D01*
X0075835Y0056969D01*
X0075888Y0056981D01*
X0075952Y0056992D01*
X0076024Y0056997D01*
X0076104Y0057D01*
X0076149D01*
X0076174Y0056997D01*
D02*
G37*
G36*
X0079911Y0062043D02*
X007933D01*
X0078986Y0063356D01*
X0078645Y0062043D01*
X0078062D01*
Y0063964D01*
X007842D01*
X0078423Y0062454D01*
X00788Y0063964D01*
X0079175D01*
X0079552Y0062454D01*
Y0063964D01*
X0079911D01*
Y0062043D01*
D02*
G37*
G36*
X0083164Y0063994D02*
X0083192Y0063992D01*
X0083223Y0063989D01*
X0083262Y0063983D01*
X0083303Y0063975D01*
X008335Y0063964D01*
X0083398Y006395D01*
X0083448Y0063933D01*
X00835Y0063911D01*
X0083553Y0063886D01*
X0083606Y0063858D01*
X0083659Y0063822D01*
X0083709Y0063783D01*
X0083756Y0063736D01*
X0083758Y0063733D01*
X0083767Y0063725D01*
X0083778Y0063708D01*
X0083795Y0063689D01*
X0083811Y0063661D01*
X0083833Y0063631D01*
X0083856Y0063592D01*
X0083878Y0063547D01*
X00839Y00635D01*
X0083922Y0063448D01*
X0083944Y0063386D01*
X0083961Y0063323D01*
X0083978Y0063256D01*
X0083989Y0063181D01*
X0083997Y0063103D01*
X0084Y006302D01*
Y0063017D01*
Y0063014D01*
Y0062998D01*
X0083997Y0062973D01*
Y0062939D01*
X0083992Y0062901D01*
X0083986Y0062853D01*
X0083981Y0062803D01*
X0083969Y0062745D01*
X0083956Y0062687D01*
X0083939Y0062626D01*
X0083919Y0062565D01*
X0083895Y0062501D01*
X0083867Y006244D01*
X0083833Y0062381D01*
X0083797Y0062326D01*
X0083753Y0062273D01*
X008375Y006227D01*
X0083742Y0062262D01*
X0083728Y0062248D01*
X0083709Y0062232D01*
X0083684Y0062212D01*
X0083653Y006219D01*
X008362Y0062165D01*
X0083578Y006214D01*
X0083534Y0062115D01*
X0083486Y006209D01*
X0083431Y0062068D01*
X0083375Y0062048D01*
X0083312Y0062032D01*
X0083248Y0062018D01*
X0083175Y0062009D01*
X0083103Y0062007D01*
X008307D01*
X0083045Y0062009D01*
X0083014Y0062012D01*
X0082981Y0062018D01*
X0082942Y0062023D01*
X0082901Y0062032D01*
X0082856Y0062043D01*
X0082809Y0062057D01*
X0082762Y0062073D01*
X0082712Y0062096D01*
X0082665Y0062118D01*
X008262Y0062145D01*
X0082573Y0062179D01*
X0082531Y0062215D01*
X0082529D01*
X0082526Y006222D01*
X0082518Y0062229D01*
X0082509Y0062237D01*
X0082498Y0062251D01*
X0082487Y0062268D01*
X0082456Y0062306D01*
X0082426Y0062356D01*
X0082393Y0062418D01*
X0082362Y0062487D01*
X0082334Y0062567D01*
X0082717Y0062659D01*
Y0062656D01*
X008272Y0062654D01*
Y0062645D01*
X0082726Y0062634D01*
X0082734Y0062609D01*
X0082748Y0062576D01*
X0082767Y0062537D01*
X0082792Y0062498D01*
X0082826Y0062459D01*
X0082862Y0062426D01*
X0082867Y0062423D01*
X0082881Y0062412D01*
X0082903Y0062398D01*
X0082934Y0062381D01*
X0082973Y0062365D01*
X0083017Y0062351D01*
X0083067Y006234D01*
X0083123Y0062337D01*
X0083142D01*
X0083159Y006234D01*
X0083175Y0062343D01*
X0083198Y0062345D01*
X0083245Y0062356D01*
X00833Y0062376D01*
X0083359Y0062404D01*
X0083389Y006242D01*
X0083417Y006244D01*
X0083445Y0062465D01*
X008347Y0062493D01*
Y0062495D01*
X0083475Y0062501D01*
X0083481Y0062509D01*
X0083489Y0062523D01*
X00835Y006254D01*
X0083511Y0062559D01*
X0083522Y0062584D01*
X0083534Y0062612D01*
X0083547Y0062645D01*
X0083559Y0062681D01*
X008357Y0062723D01*
X0083581Y0062767D01*
X0083589Y0062817D01*
X0083595Y006287D01*
X0083597Y0062928D01*
X00836Y0062992D01*
Y0062995D01*
Y0063009D01*
Y0063028D01*
X0083597Y0063051D01*
Y0063081D01*
X0083592Y0063117D01*
X0083589Y0063153D01*
X0083584Y0063195D01*
X0083567Y0063281D01*
X0083545Y0063367D01*
X0083531Y0063409D01*
X0083511Y0063448D01*
X0083492Y0063484D01*
X008347Y0063514D01*
X0083467Y0063517D01*
X0083464Y006352D01*
X0083456Y0063528D01*
X0083445Y0063539D01*
X0083417Y0063561D01*
X0083378Y0063589D01*
X0083331Y006362D01*
X0083273Y0063642D01*
X0083206Y0063661D01*
X008317Y0063664D01*
X0083131Y0063667D01*
X0083117D01*
X0083106Y0063664D01*
X0083076Y0063661D01*
X0083039Y0063656D01*
X0083001Y0063642D01*
X0082956Y0063625D01*
X0082912Y0063603D01*
X0082867Y006357D01*
X0082862Y0063564D01*
X0082848Y006355D01*
X0082828Y0063528D01*
X0082806Y0063495D01*
X0082778Y006345D01*
X0082753Y0063398D01*
X0082728Y0063334D01*
X0082706Y0063259D01*
X0082329Y0063375D01*
Y0063378D01*
X0082331Y0063389D01*
X0082337Y0063406D01*
X0082345Y0063428D01*
X0082356Y0063453D01*
X0082368Y0063484D01*
X0082381Y0063517D01*
X0082398Y0063553D01*
X0082437Y0063628D01*
X0082487Y0063706D01*
X0082548Y0063781D01*
X0082581Y0063814D01*
X0082617Y0063845D01*
X008262Y0063847D01*
X0082626Y006385D01*
X0082637Y0063858D01*
X0082654Y006387D01*
X0082673Y0063881D01*
X0082698Y0063892D01*
X0082726Y0063906D01*
X0082756Y0063919D01*
X0082792Y0063936D01*
X0082831Y006395D01*
X0082873Y0063961D01*
X0082917Y0063972D01*
X0082964Y0063983D01*
X0083017Y0063992D01*
X008307Y0063994D01*
X0083128Y0063997D01*
X0083145D01*
X0083164Y0063994D01*
D02*
G37*
G36*
X0081182Y0063997D02*
X008121Y0063994D01*
X0081246Y0063992D01*
X0081288Y0063986D01*
X0081335Y0063978D01*
X0081385Y0063967D01*
X008144Y0063953D01*
X0081493Y0063936D01*
X0081551Y0063914D01*
X0081607Y0063889D01*
X0081665Y0063861D01*
X0081718Y0063825D01*
X0081771Y0063786D01*
X0081821Y0063739D01*
X0081823Y0063736D01*
X0081832Y0063728D01*
X0081843Y0063711D01*
X008186Y0063692D01*
X0081879Y0063664D01*
X0081901Y0063631D01*
X0081923Y0063595D01*
X0081946Y006355D01*
X0081971Y0063503D01*
X0081993Y0063448D01*
X0082015Y0063389D01*
X0082034Y0063325D01*
X0082051Y0063256D01*
X0082062Y0063181D01*
X0082071Y00631D01*
X0082073Y0063017D01*
Y0063014D01*
Y0063003D01*
Y0062989D01*
X0082071Y0062967D01*
Y0062942D01*
X0082068Y0062914D01*
X0082065Y0062881D01*
X0082062Y0062845D01*
X0082051Y0062767D01*
X0082037Y0062684D01*
X0082015Y0062601D01*
X0081987Y0062523D01*
Y006252D01*
X0081984Y0062517D01*
X0081979Y0062509D01*
X0081976Y0062498D01*
X0081959Y006247D01*
X008194Y0062434D01*
X0081915Y0062393D01*
X0081885Y0062351D01*
X0081848Y0062304D01*
X008181Y0062259D01*
X0081807Y0062257D01*
X0081804Y0062254D01*
X008179Y006224D01*
X0081765Y0062218D01*
X0081735Y0062193D01*
X0081699Y0062165D01*
X0081657Y0062134D01*
X008161Y0062107D01*
X008156Y0062084D01*
X0081557D01*
X0081551Y0062082D01*
X008154Y0062076D01*
X0081526Y0062073D01*
X008151Y0062065D01*
X008149Y0062059D01*
X0081465Y0062054D01*
X008144Y0062046D01*
X0081379Y0062032D01*
X008131Y0062018D01*
X0081229Y0062009D01*
X0081146Y0062007D01*
X0081127D01*
X0081104Y0062009D01*
X0081077D01*
X0081041Y0062015D01*
X0080999Y0062021D01*
X0080952Y0062029D01*
X0080902Y006204D01*
X0080849Y0062054D01*
X0080793Y0062071D01*
X0080738Y0062093D01*
X008068Y0062118D01*
X0080624Y0062148D01*
X0080569Y0062184D01*
X0080516Y0062226D01*
X0080466Y0062273D01*
X0080463Y0062276D01*
X0080455Y0062284D01*
X0080441Y0062301D01*
X0080427Y006232D01*
X0080408Y0062348D01*
X0080385Y0062381D01*
X0080363Y006242D01*
X0080338Y0062465D01*
X0080313Y0062512D01*
X0080291Y0062567D01*
X0080269Y0062629D01*
X0080249Y0062692D01*
X0080233Y0062765D01*
X0080222Y006284D01*
X0080213Y006292D01*
X008021Y0063006D01*
Y0063012D01*
Y0063026D01*
X0080213Y0063051D01*
Y0063084D01*
X0080219Y0063123D01*
X0080224Y0063167D01*
X0080233Y006322D01*
X0080241Y0063273D01*
X0080255Y0063331D01*
X0080272Y0063392D01*
X0080294Y0063453D01*
X0080319Y0063514D01*
X0080346Y0063572D01*
X0080383Y0063631D01*
X0080421Y0063686D01*
X0080466Y0063739D01*
X0080469Y0063742D01*
X0080477Y006375D01*
X0080491Y0063764D01*
X0080513Y0063781D01*
X0080538Y00638D01*
X0080569Y0063822D01*
X0080605Y0063845D01*
X0080644Y006387D01*
X0080691Y0063895D01*
X0080741Y0063917D01*
X0080796Y0063939D01*
X0080857Y0063958D01*
X0080921Y0063975D01*
X0080991Y0063989D01*
X0081063Y0063997D01*
X0081141Y0064D01*
X008116D01*
X0081182Y0063997D01*
D02*
G37*
%LPC*%
G36*
X0079977Y0056203D02*
X0079447D01*
X0079716Y005549D01*
X0079977Y0056203D01*
D02*
G37*
G36*
X0081141Y006367D02*
X0081118D01*
X0081102Y0063667D01*
X0081082Y0063664D01*
X008106Y0063661D01*
X0081007Y0063647D01*
X0080946Y0063628D01*
X0080916Y0063614D01*
X0080882Y00636D01*
X0080852Y0063581D01*
X0080818Y0063559D01*
X0080788Y0063534D01*
X008076Y0063503D01*
X0080757Y00635D01*
X0080755Y0063495D01*
X0080746Y0063486D01*
X0080738Y0063473D01*
X0080724Y0063453D01*
X0080713Y0063431D01*
X0080699Y0063406D01*
X0080685Y0063375D01*
X0080671Y0063342D01*
X0080657Y0063306D01*
X0080644Y0063264D01*
X0080632Y0063217D01*
X0080624Y006317D01*
X0080616Y0063117D01*
X0080613Y0063059D01*
X008061Y0062998D01*
Y0062995D01*
Y0062984D01*
Y0062967D01*
X0080613Y0062942D01*
X0080616Y0062914D01*
X0080619Y0062884D01*
X0080621Y0062848D01*
X008063Y0062812D01*
X0080646Y0062731D01*
X0080671Y0062648D01*
X0080688Y0062606D01*
X0080707Y006257D01*
X0080732Y0062534D01*
X0080757Y0062501D01*
X008076Y0062498D01*
X0080763Y0062493D01*
X0080771Y0062487D01*
X0080782Y0062476D01*
X0080799Y0062462D01*
X0080816Y0062448D01*
X0080835Y0062434D01*
X008086Y0062418D01*
X0080885Y0062404D01*
X0080916Y006239D01*
X0080979Y0062362D01*
X0081016Y0062351D01*
X0081054Y0062345D01*
X0081096Y006234D01*
X0081141Y0062337D01*
X0081163D01*
X0081179Y006234D01*
X0081202Y0062343D01*
X0081224Y0062345D01*
X0081279Y0062356D01*
X008134Y0062379D01*
X0081374Y006239D01*
X0081407Y0062406D01*
X0081438Y0062426D01*
X0081471Y0062448D01*
X0081501Y0062473D01*
X0081529Y0062504D01*
X0081532Y0062506D01*
X0081535Y0062512D01*
X0081543Y006252D01*
X0081551Y0062534D01*
X0081562Y0062554D01*
X0081574Y0062573D01*
X0081587Y0062598D01*
X0081601Y0062629D01*
X0081615Y0062662D01*
X0081629Y0062698D01*
X008164Y006274D01*
X0081651Y0062784D01*
X008166Y0062834D01*
X0081668Y0062887D01*
X0081671Y0062942D01*
X0081674Y0063003D01*
Y0063006D01*
Y0063017D01*
Y0063034D01*
X0081671Y0063056D01*
X0081668Y0063084D01*
X0081665Y0063117D01*
X008166Y006315D01*
X0081654Y0063189D01*
X0081637Y006327D01*
X008161Y006335D01*
X0081593Y0063392D01*
X0081574Y0063431D01*
X0081549Y0063467D01*
X0081524Y00635D01*
X0081521Y0063503D01*
X0081515Y0063509D01*
X0081507Y0063517D01*
X0081496Y0063525D01*
X0081482Y0063539D01*
X0081463Y0063553D01*
X0081443Y006357D01*
X0081418Y0063584D01*
X0081365Y0063617D01*
X0081299Y0063642D01*
X0081263Y0063653D01*
X0081224Y0063661D01*
X0081182Y0063667D01*
X0081141Y006367D01*
D02*
G37*
%LPD*%
D10*
X005775Y00605D02*
Y00625D01*
Y00635D01*
X005675Y00625D02*
X005775D01*
X005675Y00605D02*
Y00625D01*
Y00605D02*
X005775D01*
Y006D02*
Y00605D01*
Y00595D02*
Y006D01*
Y00635D02*
X006525D01*
X005775Y00595D02*
X006525D01*
Y00635D01*
D11*
X0078Y0042498D02*
D03*
D12*
X007Y0040625D02*
D03*
D13*
X0074Y00415D02*
D03*
M02*
