G04*
G04 #@! TF.GenerationSoftware,Altium Limited,Altium Designer,20.1.8 (145)*
G04*
G04 Layer_Color=16711935*
%FSTAX43Y43*%
%MOMM*%
G71*
G04*
G04 #@! TF.SameCoordinates,B34475FB-C3A6-4C53-AFA9-1BD6AB5E634D*
G04*
G04*
G04 #@! TF.FilePolarity,Negative*
G04*
G01*
G75*
%ADD15R,1.050X1.000*%
%ADD17R,1.000X1.050*%
G04:AMPARAMS|DCode=18|XSize=0.95mm|YSize=0.8mm|CornerRadius=0.25mm|HoleSize=0mm|Usage=FLASHONLY|Rotation=90.000|XOffset=0mm|YOffset=0mm|HoleType=Round|Shape=RoundedRectangle|*
%AMROUNDEDRECTD18*
21,1,0.950,0.300,0,0,90.0*
21,1,0.450,0.800,0,0,90.0*
1,1,0.500,0.150,0.225*
1,1,0.500,0.150,-0.225*
1,1,0.500,-0.150,-0.225*
1,1,0.500,-0.150,0.225*
%
%ADD18ROUNDEDRECTD18*%
G04:AMPARAMS|DCode=25|XSize=0.6mm|YSize=0.68mm|CornerRadius=0.2mm|HoleSize=0mm|Usage=FLASHONLY|Rotation=180.000|XOffset=0mm|YOffset=0mm|HoleType=Round|Shape=RoundedRectangle|*
%AMROUNDEDRECTD25*
21,1,0.600,0.280,0,0,180.0*
21,1,0.200,0.680,0,0,180.0*
1,1,0.400,-0.100,0.140*
1,1,0.400,0.100,0.140*
1,1,0.400,0.100,-0.140*
1,1,0.400,-0.100,-0.140*
%
%ADD25ROUNDEDRECTD25*%
%ADD31C,1.700*%
%ADD32C,1.100*%
%ADD58R,0.700X0.600*%
G04:AMPARAMS|DCode=59|XSize=0.6mm|YSize=0.95mm|CornerRadius=0.2mm|HoleSize=0mm|Usage=FLASHONLY|Rotation=90.000|XOffset=0mm|YOffset=0mm|HoleType=Round|Shape=RoundedRectangle|*
%AMROUNDEDRECTD59*
21,1,0.600,0.550,0,0,90.0*
21,1,0.200,0.950,0,0,90.0*
1,1,0.400,0.275,0.100*
1,1,0.400,0.275,-0.100*
1,1,0.400,-0.275,-0.100*
1,1,0.400,-0.275,0.100*
%
%ADD59ROUNDEDRECTD59*%
%ADD60R,0.550X1.550*%
%ADD61R,0.800X1.300*%
%ADD62O,2.400X0.800*%
D15*
X0086837Y0099269D02*
D03*
X0085387D02*
D03*
D17*
X0089112Y0097544D02*
D03*
Y0098994D02*
D03*
X0104412Y0097694D02*
D03*
Y0096244D02*
D03*
Y0100499D02*
D03*
Y0099049D02*
D03*
D18*
X0090862Y0093385D02*
D03*
X0092362D02*
D03*
X0106562Y010354D02*
D03*
X0105062D02*
D03*
X0110062Y0094469D02*
D03*
X0111562D02*
D03*
D25*
X0103012Y0096409D02*
D03*
Y0097729D02*
D03*
D31*
X0101312Y0096819D02*
D03*
D32*
X0087112Y0111239D02*
D03*
Y0109969D02*
D03*
X0085842Y0111239D02*
D03*
Y0109969D02*
D03*
X0084572Y0111239D02*
D03*
Y0109969D02*
D03*
X0111112Y0108349D02*
D03*
Y0109619D02*
D03*
X0108572D02*
D03*
X0109842D02*
D03*
X0108572Y0108349D02*
D03*
X0109842D02*
D03*
X0084392Y0091899D02*
D03*
Y0093169D02*
D03*
X0085662Y0091899D02*
D03*
Y0093169D02*
D03*
X0086932Y0091899D02*
D03*
Y0093169D02*
D03*
X0106112Y0111239D02*
D03*
Y0109969D02*
D03*
X0104842Y0111239D02*
D03*
Y0109969D02*
D03*
X0103572Y0111239D02*
D03*
Y0109969D02*
D03*
X0109718Y0106581D02*
D03*
Y0105311D02*
D03*
X0110988Y0106581D02*
D03*
Y0105311D02*
D03*
X0112258Y0106581D02*
D03*
Y0105311D02*
D03*
X0106092Y0091899D02*
D03*
Y0093169D02*
D03*
X0107362Y0091899D02*
D03*
Y0093169D02*
D03*
X0108632Y0091899D02*
D03*
Y0093169D02*
D03*
X0080766Y0106581D02*
D03*
Y0105311D02*
D03*
X0082036Y0106581D02*
D03*
Y0105311D02*
D03*
X0083306Y0106581D02*
D03*
Y0105311D02*
D03*
D58*
X0100885Y0099269D02*
D03*
X0099585D02*
D03*
D59*
X0106762Y0105953D02*
D03*
Y0105303D02*
D03*
Y0104653D02*
D03*
X0104862D02*
D03*
Y0105953D02*
D03*
D60*
X0090837Y0099269D02*
D03*
X0091487D02*
D03*
X0092137D02*
D03*
X0092787D02*
D03*
Y0094869D02*
D03*
X0092137D02*
D03*
X0091487D02*
D03*
X0090837D02*
D03*
D61*
X0085212Y0097144D02*
D03*
X0087112D02*
D03*
X0086162Y0094744D02*
D03*
D62*
X0106712Y0095964D02*
D03*
Y0097234D02*
D03*
Y0098504D02*
D03*
Y0099774D02*
D03*
X0111512Y0095964D02*
D03*
Y0097234D02*
D03*
Y0098504D02*
D03*
Y0099774D02*
D03*
M02*
