G04*
G04 #@! TF.GenerationSoftware,Altium Limited,Altium Designer,20.1.8 (145)*
G04*
G04 Layer_Physical_Order=2*
G04 Layer_Color=36540*
%FSTAX43Y43*%
%MOMM*%
G71*
G04*
G04 #@! TF.SameCoordinates,B34475FB-C3A6-4C53-AFA9-1BD6AB5E634D*
G04*
G04*
G04 #@! TF.FilePolarity,Positive*
G04*
G01*
G75*
%ADD49C,0.300*%
%ADD51C,1.000*%
%ADD52C,0.600*%
G36*
X0082692Y0107024D02*
X0082661Y0106992D01*
X0082635Y0106956D01*
X0082611Y0106919D01*
X0082591Y0106878D01*
X0082574Y0106836D01*
X008256Y0106791D01*
X0082549Y0106743D01*
X0082541Y0106693D01*
X0082537Y0106641D01*
X0082536Y0106586D01*
X0082041Y0107081D01*
X0082096Y0107082D01*
X0082148Y0107086D01*
X0082198Y0107094D01*
X0082246Y0107105D01*
X0082291Y0107119D01*
X0082333Y0107136D01*
X0082373Y0107156D01*
X0082411Y010718D01*
X0082447Y0107207D01*
X0082479Y0107237D01*
X0082692Y0107024D01*
D02*
G37*
G36*
X0081422D02*
X0081391Y0106992D01*
X0081365Y0106956D01*
X0081341Y0106919D01*
X0081321Y0106878D01*
X0081304Y0106836D01*
X008129Y0106791D01*
X0081279Y0106743D01*
X0081271Y0106693D01*
X0081267Y0106641D01*
X0081266Y0106586D01*
X0080771Y0107081D01*
X0080826Y0107082D01*
X0080878Y0107086D01*
X0080928Y0107094D01*
X0080976Y0107105D01*
X0081021Y0107119D01*
X0081063Y0107136D01*
X0081103Y0107156D01*
X0081141Y010718D01*
X0081177Y0107207D01*
X0081209Y0107237D01*
X0081422Y0107024D01*
D02*
G37*
G36*
X0083703Y0106893D02*
X0083743Y0106859D01*
X0083783Y0106829D01*
X0083824Y0106803D01*
X0083866Y0106781D01*
X0083908Y0106763D01*
X0083951Y0106749D01*
X0083995Y0106739D01*
X0084039Y0106733D01*
X0084083Y0106731D01*
Y0106431D01*
X0084039Y0106429D01*
X0083995Y0106423D01*
X0083951Y0106413D01*
X0083908Y0106399D01*
X0083866Y0106381D01*
X0083824Y0106359D01*
X0083783Y0106333D01*
X0083743Y0106303D01*
X0083703Y0106269D01*
X0083663Y0106231D01*
Y0106931D01*
X0083703Y0106893D01*
D02*
G37*
G36*
X0080392Y0105954D02*
X0080426Y0105927D01*
X0080464Y0105903D01*
X0080504Y0105882D01*
X0080547Y0105863D01*
X0080592Y0105847D01*
X008064Y0105834D01*
X008069Y0105823D01*
X0080743Y0105815D01*
X0080799Y010581D01*
X0080268Y0105354D01*
X0080271Y0105408D01*
X008027Y0105459D01*
X0080265Y0105508D01*
X0080257Y0105555D01*
X0080245Y0105599D01*
X008023Y0105642D01*
X008021Y0105682D01*
X0080187Y010572D01*
X0080161Y0105755D01*
X008013Y0105789D01*
X0080359Y0105984D01*
X0080392Y0105954D01*
D02*
G37*
G36*
X0090487Y0104826D02*
X0090492Y0104768D01*
X0090496Y0104742D01*
X0090501Y0104719D01*
X0090508Y0104697D01*
X0090516Y0104678D01*
X0090525Y0104661D01*
X0090535Y0104646D01*
X0090546Y0104633D01*
X0090126D01*
X0090138Y0104646D01*
X0090148Y0104661D01*
X0090157Y0104678D01*
X0090165Y0104697D01*
X0090171Y0104719D01*
X0090177Y0104742D01*
X0090181Y0104768D01*
X0090184Y0104796D01*
X0090186Y0104859D01*
X0090486D01*
X0090487Y0104826D01*
D02*
G37*
G36*
X0083618Y0104915D02*
X0083584Y0104874D01*
X0083554Y0104834D01*
X0083528Y0104793D01*
X0083506Y0104751D01*
X0083488Y0104709D01*
X0083474Y0104666D01*
X0083464Y0104623D01*
X0083458Y0104579D01*
X0083456Y0104534D01*
X0083156D01*
X0083154Y0104579D01*
X0083148Y0104623D01*
X0083138Y0104666D01*
X0083124Y0104709D01*
X0083106Y0104751D01*
X0083084Y0104793D01*
X0083058Y0104834D01*
X0083028Y0104874D01*
X0082994Y0104915D01*
X0082956Y0104954D01*
X0083656D01*
X0083618Y0104915D01*
D02*
G37*
G36*
X0082348D02*
X0082314Y0104874D01*
X0082284Y0104834D01*
X0082258Y0104793D01*
X0082236Y0104751D01*
X0082218Y0104709D01*
X0082204Y0104666D01*
X0082194Y0104623D01*
X0082188Y0104579D01*
X0082186Y0104534D01*
X0081886D01*
X0081884Y0104579D01*
X0081878Y0104623D01*
X0081868Y0104666D01*
X0081854Y0104709D01*
X0081836Y0104751D01*
X0081814Y0104793D01*
X0081788Y0104834D01*
X0081758Y0104874D01*
X0081724Y0104915D01*
X0081686Y0104954D01*
X0082386D01*
X0082348Y0104915D01*
D02*
G37*
G36*
X0094604Y0104118D02*
X0094609Y010406D01*
X0094613Y0104034D01*
X0094619Y0104011D01*
X0094625Y0103989D01*
X0094633Y010397D01*
X0094642Y0103953D01*
X0094652Y0103938D01*
X0094664Y0103925D01*
X0094244D01*
X0094255Y0103938D01*
X0094265Y0103953D01*
X0094274Y010397D01*
X0094282Y0103989D01*
X0094289Y0104011D01*
X0094294Y0104034D01*
X0094298Y010406D01*
X0094301Y0104088D01*
X0094304Y0104151D01*
X0094604D01*
X0094604Y0104118D01*
D02*
G37*
G36*
X0093355Y0105658D02*
Y0103045D01*
X0093382Y0102908D01*
X0093459Y0102792D01*
X0093599Y0102653D01*
X0093548Y0102526D01*
X008776D01*
X0087235Y010305D01*
X0087231Y0103055D01*
X0087223Y0103067D01*
X0087222Y0103069D01*
X0087222Y0103069D01*
X0087183Y0103264D01*
X0087072Y0103429D01*
X0086907Y010354D01*
X0086712Y0103579D01*
X0086517Y010354D01*
X0086351Y0103429D01*
X0086241Y0103264D01*
X0086202Y0103069D01*
X0086241Y0102874D01*
X0086351Y0102708D01*
X0086517Y0102598D01*
X0086712Y0102559D01*
X0086712Y0102559D01*
X0086714Y0102558D01*
X0086723Y0102551D01*
X0086734Y0102542D01*
X0087359Y0101916D01*
X0087475Y0101839D01*
X0087612Y0101812D01*
X0095194D01*
X0095242Y0101685D01*
X0095153Y0101552D01*
X0095114Y0101357D01*
X0095153Y0101162D01*
X0095263Y0100996D01*
Y0100944D01*
X0095154Y0100852D01*
X0087934D01*
X0084669Y0104117D01*
Y0106157D01*
X0084786Y0106206D01*
X0086076Y0104916D01*
X0086191Y0104839D01*
X0086328Y0104812D01*
X0087405D01*
X0087465Y01047D01*
X0087441Y0104664D01*
X0087402Y0104469D01*
X0087441Y0104274D01*
X0087551Y0104108D01*
X0087717Y0103998D01*
X0087912Y0103959D01*
X0088107Y0103998D01*
X0088272Y0104108D01*
X0088388Y0104053D01*
X0088545Y0103948D01*
X008874Y0103909D01*
X0088935Y0103948D01*
X00891Y0104058D01*
X0089151D01*
X0089317Y0103948D01*
X0089512Y0103909D01*
X0089707Y0103948D01*
X0089838Y0104036D01*
X0089924Y010405D01*
X009001Y0104036D01*
X0090141Y0103948D01*
X0090336Y0103909D01*
X0090531Y0103948D01*
X0090601Y0103994D01*
X0090751Y010398D01*
X0090771Y0103967D01*
X0090917Y010387D01*
X0091112Y0103831D01*
X0091307Y010387D01*
X0091472Y010398D01*
X0091526Y0103899D01*
X0091692Y0103789D01*
X0091887Y010375D01*
X0092082Y0103789D01*
X0092247Y0103899D01*
X0092358Y0104065D01*
X0092397Y010426D01*
X0092358Y0104455D01*
X0092247Y010462D01*
X0092082Y0104731D01*
X0091887Y010477D01*
X0091692Y0104731D01*
X0091526Y010462D01*
X0091472Y0104701D01*
X0091307Y0104812D01*
X0091112Y0104851D01*
X0090917Y0104812D01*
X0090855Y0104771D01*
X0090734Y0104777D01*
X0090726Y0104783D01*
X0090693Y0104815D01*
Y0104993D01*
X0090666Y010513D01*
X0090588Y0105245D01*
X0090413Y0105421D01*
X0090297Y0105498D01*
X009016Y0105526D01*
X0086476D01*
X0084507Y0107495D01*
X0084555Y0107612D01*
X0091401D01*
X0093355Y0105658D01*
D02*
G37*
G36*
X0094198Y0102659D02*
X0094185Y010267D01*
X009417Y010268D01*
X0094153Y0102689D01*
X0094133Y0102697D01*
X0094112Y0102704D01*
X0094088Y0102709D01*
X0094062Y0102713D01*
X0094034Y0102716D01*
X0093972Y0102719D01*
Y0103019D01*
X0094004Y0103019D01*
X0094062Y0103024D01*
X0094088Y0103028D01*
X0094112Y0103034D01*
X0094133Y010304D01*
X0094153Y0103048D01*
X009417Y0103057D01*
X0094185Y0103067D01*
X0094198Y0103079D01*
Y0102659D01*
D02*
G37*
G36*
X0087013Y0103049D02*
X0087016Y0103031D01*
X0087022Y0103012D01*
X008703Y0102993D01*
X0087041Y0102973D01*
X0087054Y0102953D01*
X0087069Y0102932D01*
X0087086Y010291D01*
X0087129Y0102864D01*
X0086917Y0102652D01*
X0086893Y0102674D01*
X0086849Y0102712D01*
X0086828Y0102727D01*
X0086807Y010274D01*
X0086787Y010275D01*
X0086768Y0102759D01*
X008675Y0102764D01*
X0086732Y0102768D01*
X0086715Y0102769D01*
X0087012Y0103066D01*
X0087013Y0103049D01*
D02*
G37*
G36*
X0110909Y0101369D02*
X0110892Y0101368D01*
X0110874Y0101364D01*
X0110855Y0101359D01*
X0110836Y010135D01*
X0110816Y010134D01*
X0110796Y0101327D01*
X0110775Y0101312D01*
X0110753Y0101294D01*
X0110707Y0101252D01*
X0110495Y0101464D01*
X0110517Y0101487D01*
X0110555Y0101532D01*
X011057Y0101553D01*
X0110583Y0101573D01*
X0110593Y0101593D01*
X0110602Y0101612D01*
X0110607Y0101631D01*
X0110611Y0101649D01*
X0110612Y0101666D01*
X0110909Y0101369D01*
D02*
G37*
G36*
X0113253Y0090828D02*
X0079771D01*
Y0092569D01*
Y010569D01*
X0079888Y0105738D01*
X008001Y0105617D01*
X0080018Y0105605D01*
X0080031Y0105584D01*
X0080042Y0105562D01*
X0080051Y0105538D01*
X0080058Y0105511D01*
X0080063Y0105481D01*
X0080066Y0105448D01*
X0080067Y0105411D01*
X0080064Y0105365D01*
X0080066Y0105355D01*
X008006Y0105311D01*
X0080084Y0105128D01*
X0080155Y0104958D01*
X0080267Y0104812D01*
X0080413Y01047D01*
X0080583Y0104629D01*
X0080766Y0104605D01*
X0080949Y0104629D01*
X0081119Y01047D01*
X0081265Y0104812D01*
X0081322Y0104886D01*
X008148D01*
X0081537Y0104812D01*
X0081549Y0104803D01*
X0081573Y0104778D01*
X0081598Y0104748D01*
X008162Y0104719D01*
X0081637Y0104691D01*
X0081652Y0104663D01*
X0081663Y0104637D01*
X0081671Y0104611D01*
X0081677Y0104586D01*
X0081679Y0104572D01*
Y010342D01*
X0081706Y0103283D01*
X0081784Y0103167D01*
X0085908Y0099043D01*
X0085859Y0098926D01*
X008566D01*
X0083864Y0100721D01*
X0083748Y0100799D01*
X0083612Y0100826D01*
X0083395D01*
X0083389Y0100826D01*
X0083375Y0100829D01*
X0083372Y0100829D01*
X0083372Y0100829D01*
X0083207Y010094D01*
X0083012Y0100979D01*
X0082817Y010094D01*
X0082651Y0100829D01*
X0082541Y0100664D01*
X0082502Y0100469D01*
X0082541Y0100274D01*
X0082651Y0100108D01*
X0082817Y0099998D01*
X0083012Y0099959D01*
X0083207Y0099998D01*
X0083372Y0100108D01*
X0083488Y0100088D01*
X0084175Y0099401D01*
X0084133Y0099263D01*
X0084017Y009924D01*
X0083851Y0099129D01*
X0083741Y0098964D01*
X0083702Y0098769D01*
X0083741Y0098574D01*
X0083851Y0098408D01*
X0083851Y0098408D01*
X0083852Y0098406D01*
X0083854Y0098395D01*
X0083855Y0098381D01*
Y0097944D01*
X0083882Y0097807D01*
X0083959Y0097691D01*
X0086234Y0095416D01*
X008635Y0095339D01*
X0086487Y0095312D01*
X0094428D01*
X0094435Y0095311D01*
X0094449Y0095309D01*
X0094451Y0095308D01*
X0094451Y0095308D01*
X0094617Y0095198D01*
X0094812Y0095159D01*
X0095007Y0095198D01*
X0095172Y0095308D01*
X0095283Y0095474D01*
X0095322Y0095669D01*
X0095283Y0095864D01*
X0095172Y0096029D01*
X0095007Y009614D01*
X0094812Y0096179D01*
X0094617Y009614D01*
X0094451Y0096029D01*
X0094451Y0096029D01*
X0094449Y0096029D01*
X0094438Y0096027D01*
X0094424Y0096026D01*
X0086635D01*
X0084569Y0098092D01*
Y0098385D01*
X0084569Y0098392D01*
X0084572Y0098406D01*
X0084572Y0098408D01*
X0084572Y0098408D01*
X0084683Y0098574D01*
X0084706Y009869D01*
X0084844Y0098732D01*
X0085259Y0098316D01*
X0085375Y0098239D01*
X0085512Y0098212D01*
X0096912D01*
X0097048Y0098239D01*
X0097164Y0098316D01*
X0098264Y0099416D01*
X0098341Y0099532D01*
X0098369Y0099669D01*
Y0101058D01*
X009837Y010107D01*
X0098372Y0101082D01*
X0098374Y0101093D01*
X0098474Y0101243D01*
X0098513Y0101438D01*
X0098474Y0101633D01*
X0098439Y0101685D01*
X0098507Y0101812D01*
X0098817D01*
X0101564Y0099064D01*
X010168Y0098987D01*
X0101817Y009896D01*
X0108559D01*
X0108696Y0098987D01*
X0108812Y0099064D01*
X0110893Y0101145D01*
X0110898Y010115D01*
X011091Y0101158D01*
X0110912Y0101159D01*
X0110912Y0101159D01*
X0111107Y0101198D01*
X0111272Y0101308D01*
X0111383Y0101474D01*
X0111422Y0101669D01*
X0111383Y0101864D01*
X0111272Y0102029D01*
X0111107Y010214D01*
X0110912Y0102179D01*
X0110717Y010214D01*
X0110551Y0102029D01*
X0110441Y0101864D01*
X0110402Y0101669D01*
X0110402Y0101669D01*
X0110401Y0101667D01*
X0110394Y0101657D01*
X0110385Y0101647D01*
X0108412Y0099673D01*
X0101965D01*
X0099217Y0102421D01*
X0099101Y0102498D01*
X0098964Y0102526D01*
X0094919D01*
X0094859Y0102638D01*
X0094883Y0102674D01*
X0094922Y0102869D01*
X0094883Y0103064D01*
X00948Y0103188D01*
X0094808Y0103339D01*
X0094816Y0103353D01*
X0094925Y0103516D01*
X0094964Y0103711D01*
X0094925Y0103906D01*
X0094814Y0104071D01*
X0094814Y0104071D01*
X0094814Y0104074D01*
X0094812Y0104085D01*
X0094811Y0104098D01*
Y0105771D01*
X0094783Y0105908D01*
X0094706Y0106024D01*
X0092009Y0108721D01*
X0091893Y0108798D01*
X0091756Y0108826D01*
X0081452D01*
X0081315Y0108798D01*
X0081199Y0108721D01*
X0079888Y010741D01*
X0079771Y0107458D01*
Y011231D01*
X0113253D01*
Y0090828D01*
D02*
G37*
G36*
X0098208Y0101217D02*
X0098199Y0101202D01*
X009819Y0101184D01*
X0098182Y0101165D01*
X0098176Y0101143D01*
X0098171Y010112D01*
X0098167Y0101094D01*
X0098162Y0101036D01*
X0098162Y0101003D01*
X0097862Y0100993D01*
X0097861Y0101025D01*
X0097856Y0101083D01*
X0097852Y0101109D01*
X0097846Y0101132D01*
X0097839Y0101154D01*
X0097831Y0101173D01*
X0097822Y010119D01*
X0097811Y0101205D01*
X0097799Y0101217D01*
X0098219Y010123D01*
X0098208Y0101217D01*
D02*
G37*
G36*
X0095925Y0101337D02*
X0095928Y0101319D01*
X0095934Y01013D01*
X0095942Y0101281D01*
X0095953Y0101261D01*
X0095965Y0101241D01*
X0095981Y010122D01*
X0095998Y0101198D01*
X0096041Y0101152D01*
X0095829Y010094D01*
X0095805Y0100962D01*
X0095761Y0101D01*
X009574Y0101015D01*
X0095719Y0101028D01*
X0095699Y0101039D01*
X009568Y0101047D01*
X0095662Y0101052D01*
X0095644Y0101056D01*
X0095627Y0101057D01*
X0095924Y0101354D01*
X0095925Y0101337D01*
D02*
G37*
G36*
X0095352Y0100285D02*
X0095339Y0100296D01*
X0095324Y0100306D01*
X0095307Y0100315D01*
X0095288Y0100323D01*
X0095266Y010033D01*
X0095243Y0100335D01*
X0095217Y0100339D01*
X0095189Y0100342D01*
X0095127Y0100345D01*
Y0100645D01*
X0095159Y0100645D01*
X0095217Y010065D01*
X0095243Y0100655D01*
X0095266Y010066D01*
X0095288Y0100666D01*
X0095307Y0100674D01*
X0095324Y0100683D01*
X0095339Y0100693D01*
X0095352Y0100705D01*
Y0100285D01*
D02*
G37*
G36*
X0083239Y0100667D02*
X0083254Y0100657D01*
X0083271Y0100648D01*
X008329Y010064D01*
X0083312Y0100634D01*
X0083335Y0100628D01*
X0083361Y0100624D01*
X0083389Y0100621D01*
X0083452Y0100619D01*
Y0100319D01*
X0083419Y0100318D01*
X0083361Y0100313D01*
X0083335Y0100309D01*
X0083312Y0100304D01*
X008329Y0100297D01*
X0083271Y0100289D01*
X0083254Y010028D01*
X0083239Y010027D01*
X0083226Y0100259D01*
Y0100679D01*
X0083239Y0100667D01*
D02*
G37*
G36*
X0095352Y0099509D02*
X0095339Y009952D01*
X0095324Y009953D01*
X0095307Y0099539D01*
X0095288Y0099547D01*
X0095266Y0099554D01*
X0095243Y0099559D01*
X0095217Y0099563D01*
X0095189Y0099566D01*
X0095127Y0099569D01*
Y0099869D01*
X0095159Y0099869D01*
X0095217Y0099874D01*
X0095243Y0099878D01*
X0095266Y0099884D01*
X0095288Y009989D01*
X0095307Y0099898D01*
X0095324Y0099907D01*
X0095339Y0099917D01*
X0095352Y0099929D01*
Y0099509D01*
D02*
G37*
G36*
X0082807Y0104812D02*
X0082819Y0104803D01*
X0082843Y0104778D01*
X0082868Y0104748D01*
X008289Y0104719D01*
X0082907Y0104691D01*
X0082922Y0104663D01*
X0082933Y0104637D01*
X0082941Y0104611D01*
X0082947Y0104586D01*
X0082949Y0104572D01*
Y010422D01*
X0082976Y0104083D01*
X0083054Y0103967D01*
X0087468Y0099553D01*
X0087416Y0099426D01*
X0086535D01*
X0082393Y0103567D01*
Y0104572D01*
X0082395Y0104586D01*
X0082401Y0104611D01*
X0082409Y0104637D01*
X008242Y0104663D01*
X0082435Y0104691D01*
X0082452Y0104719D01*
X0082474Y0104748D01*
X0082499Y0104778D01*
X0082524Y0104803D01*
X0082535Y0104812D01*
X0082592Y0104886D01*
X008275D01*
X0082807Y0104812D01*
D02*
G37*
G36*
X0097567Y0101685D02*
X0097532Y0101633D01*
X0097493Y0101438D01*
X0097532Y0101243D01*
X0097642Y0101077D01*
X0097651Y0101071D01*
X0097652Y0101068D01*
X0097654Y0101057D01*
X0097655Y0101043D01*
Y0099817D01*
X0096764Y0098926D01*
X0096363D01*
X0096315Y0099043D01*
X0096469Y0099197D01*
X0096546Y0099313D01*
X0096573Y009945D01*
Y0100764D01*
X0096546Y0100901D01*
X0096469Y0101016D01*
X0096147Y0101338D01*
X0096143Y0101343D01*
X0096135Y0101355D01*
X0096134Y0101357D01*
X0096134Y0101357D01*
X0096095Y0101552D01*
X0096006Y0101685D01*
X0096054Y0101812D01*
X0097499D01*
X0097567Y0101685D01*
D02*
G37*
G36*
X008441Y0098542D02*
X00844Y0098527D01*
X0084391Y009851D01*
X0084383Y009849D01*
X0084377Y0098469D01*
X0084371Y0098445D01*
X0084367Y0098419D01*
X0084364Y0098391D01*
X0084362Y0098329D01*
X0084062D01*
X0084061Y0098361D01*
X0084056Y0098419D01*
X0084052Y0098445D01*
X0084047Y0098469D01*
X008404Y009849D01*
X0084032Y009851D01*
X0084023Y0098527D01*
X0084013Y0098542D01*
X0084002Y0098555D01*
X0084422D01*
X008441Y0098542D01*
D02*
G37*
G36*
X0094598Y0095459D02*
X0094585Y009547D01*
X009457Y009548D01*
X0094553Y0095489D01*
X0094533Y0095497D01*
X0094512Y0095504D01*
X0094488Y0095509D01*
X0094462Y0095513D01*
X0094434Y0095516D01*
X0094372Y0095519D01*
Y0095819D01*
X0094404Y0095819D01*
X0094462Y0095824D01*
X0094488Y0095828D01*
X0094512Y0095834D01*
X0094533Y009584D01*
X0094553Y0095848D01*
X009457Y0095857D01*
X0094585Y0095867D01*
X0094598Y0095879D01*
Y0095459D01*
D02*
G37*
%LPC*%
G36*
X0088512Y0106979D02*
X0088317Y010694D01*
X0088151Y0106829D01*
X0088106Y0106762D01*
X0087953D01*
X0087915Y0106819D01*
X008775Y0106929D01*
X0087555Y0106968D01*
X008736Y0106929D01*
X0087194Y0106819D01*
X0087084Y0106653D01*
X0087045Y0106458D01*
X0087084Y0106263D01*
X0087194Y0106098D01*
X008736Y0105987D01*
X0087555Y0105949D01*
X008775Y0105987D01*
X0087915Y0106098D01*
X0087961Y0106165D01*
X0088113D01*
X0088151Y0106108D01*
X0088317Y0105998D01*
X0088512Y0105959D01*
X0088707Y0105998D01*
X0088872Y0106108D01*
X0088983Y0106274D01*
X0089022Y0106469D01*
X0088983Y0106664D01*
X0088872Y0106829D01*
X0088707Y010694D01*
X0088512Y0106979D01*
D02*
G37*
G36*
X0104842Y0111999D02*
X0104645Y0111973D01*
X0104462Y0111897D01*
X0104406Y0111855D01*
X0104932Y0111329D01*
X0104752Y0111149D01*
X0104191Y011171D01*
X0104093D01*
X0104071Y0111738D01*
X0103925Y011185D01*
X0103755Y0111921D01*
X0103572Y0111945D01*
X0103389Y0111921D01*
X0103219Y011185D01*
X0103073Y0111738D01*
X010296Y0111592D01*
X010289Y0111422D01*
X0102866Y0111239D01*
X010289Y0111056D01*
X010296Y0110886D01*
X0103073Y011074D01*
X0103147Y0110682D01*
Y0110525D01*
X0103073Y0110468D01*
X010296Y0110322D01*
X010289Y0110152D01*
X0102866Y0109969D01*
X010289Y0109786D01*
X010296Y0109616D01*
X0103073Y010947D01*
X0103219Y0109357D01*
X0103389Y0109287D01*
X0103572Y0109263D01*
X0103755Y0109287D01*
X0103925Y0109357D01*
X0104071Y010947D01*
X0104128Y0109544D01*
X0104285D01*
X0104343Y010947D01*
X0104489Y0109357D01*
X0104659Y0109287D01*
X0104842Y0109263D01*
X0105025Y0109287D01*
X0105195Y0109357D01*
X0105341Y010947D01*
X0105398Y0109544D01*
X0105555D01*
X0105613Y010947D01*
X0105759Y0109357D01*
X0105929Y0109287D01*
X0106112Y0109263D01*
X0106295Y0109287D01*
X0106465Y0109357D01*
X0106611Y010947D01*
X0106723Y0109616D01*
X0106794Y0109786D01*
X0106818Y0109969D01*
X0106794Y0110152D01*
X0106723Y0110322D01*
X0106611Y0110468D01*
X0106537Y0110525D01*
Y0110682D01*
X0106611Y011074D01*
X0106723Y0110886D01*
X0106794Y0111056D01*
X0106818Y0111239D01*
X0106794Y0111422D01*
X0106723Y0111592D01*
X0106611Y0111738D01*
X0106465Y011185D01*
X0106295Y0111921D01*
X0106112Y0111945D01*
X0105929Y0111921D01*
X0105759Y011185D01*
X0105613Y0111738D01*
X0105591Y011171D01*
X0105446D01*
X0105486Y0111671D01*
X0105453Y0111636D01*
X0105424Y01116D01*
X0105399Y0111565D01*
X0105379Y0111529D01*
X0105362Y0111492D01*
X0105349Y0111455D01*
X010534Y0111418D01*
X0105335Y0111381D01*
X0105334Y0111343D01*
X0105337Y0111305D01*
X0104908Y0111734D01*
X0104946Y0111731D01*
X0104984Y0111732D01*
X0105021Y0111737D01*
X0105058Y0111746D01*
X0105095Y0111759D01*
X0105132Y0111776D01*
X0105168Y0111796D01*
X0105203Y0111821D01*
X0105239Y011185D01*
X0105259Y0111869D01*
X0105222Y0111897D01*
X0105039Y0111973D01*
X0104842Y0111999D01*
D02*
G37*
G36*
X0084572D02*
X0084375Y0111973D01*
X0084192Y0111897D01*
X0084136Y0111855D01*
X0084662Y0111329D01*
X0084482Y0111149D01*
X0083956Y0111675D01*
X0083913Y0111619D01*
X0083837Y0111436D01*
X0083811Y0111239D01*
X0083837Y0111042D01*
X0083913Y0110859D01*
X0083942Y0110822D01*
X0083961Y0110842D01*
X0083989Y0110877D01*
X0084014Y0110913D01*
X0084035Y0110949D01*
X0084052Y0110985D01*
X0084065Y0111022D01*
X0084074Y0111059D01*
X0084078Y0111097D01*
X0084079Y0111135D01*
X0084076Y0111173D01*
X0084506Y0110743D01*
X0084468Y0110746D01*
X008443Y0110745D01*
X0084392Y0110741D01*
X0084355Y0110732D01*
X0084318Y0110719D01*
X0084282Y0110702D01*
X0084246Y0110681D01*
X008421Y0110656D01*
X0084175Y0110628D01*
X008414Y0110595D01*
X0084101Y0110634D01*
Y011049D01*
X0084073Y0110468D01*
X008396Y0110322D01*
X008389Y0110152D01*
X0083866Y0109969D01*
X008389Y0109786D01*
X008396Y0109616D01*
X0084073Y010947D01*
X0084219Y0109357D01*
X0084389Y0109287D01*
X0084572Y0109263D01*
X0084755Y0109287D01*
X0084925Y0109357D01*
X0085071Y010947D01*
X0085128Y0109544D01*
X0085285D01*
X0085343Y010947D01*
X0085489Y0109357D01*
X0085659Y0109287D01*
X0085842Y0109263D01*
X0086025Y0109287D01*
X0086195Y0109357D01*
X0086341Y010947D01*
X0086398Y0109544D01*
X0086555D01*
X0086613Y010947D01*
X0086759Y0109357D01*
X0086929Y0109287D01*
X0087112Y0109263D01*
X0087295Y0109287D01*
X0087465Y0109357D01*
X0087611Y010947D01*
X0087723Y0109616D01*
X0087794Y0109786D01*
X0087818Y0109969D01*
X0087794Y0110152D01*
X0087723Y0110322D01*
X0087611Y0110468D01*
X0087537Y0110525D01*
Y0110682D01*
X0087611Y011074D01*
X0087723Y0110886D01*
X0087794Y0111056D01*
X0087818Y0111239D01*
X0087794Y0111422D01*
X0087723Y0111592D01*
X0087611Y0111738D01*
X0087465Y011185D01*
X0087295Y0111921D01*
X0087112Y0111945D01*
X0086929Y0111921D01*
X0086759Y011185D01*
X0086613Y0111738D01*
X0086555Y0111664D01*
X0086398D01*
X0086341Y0111738D01*
X0086195Y011185D01*
X0086025Y0111921D01*
X0085842Y0111945D01*
X0085659Y0111921D01*
X0085489Y011185D01*
X0085343Y0111738D01*
X0085321Y011171D01*
X0085161D01*
X008511Y0111777D01*
X0084952Y0111897D01*
X0084769Y0111973D01*
X0084572Y0111999D01*
D02*
G37*
G36*
X0099412Y0111784D02*
X0099217Y0111745D01*
X0099051Y0111634D01*
X0098941Y0111469D01*
X0098902Y0111274D01*
X0098941Y0111079D01*
X0099051Y0110913D01*
X0099217Y0110803D01*
X0099412Y0110764D01*
X0099607Y0110803D01*
X0099772Y0110913D01*
X0099883Y0111079D01*
X0099922Y0111274D01*
X0099883Y0111469D01*
X0099772Y0111634D01*
X0099607Y0111745D01*
X0099412Y0111784D01*
D02*
G37*
G36*
X0109842Y0110325D02*
X0109659Y0110301D01*
X0109489Y011023D01*
X0109343Y0110118D01*
X0109285Y0110044D01*
X0109128D01*
X0109071Y0110118D01*
X0108925Y011023D01*
X0108755Y0110301D01*
X0108572Y0110325D01*
X0108389Y0110301D01*
X0108219Y011023D01*
X0108073Y0110118D01*
X0108064Y0110106D01*
X0108038Y0110082D01*
X0108008Y0110057D01*
X0107979Y0110035D01*
X0107951Y0110017D01*
X0107924Y0110003D01*
X0107898Y0109992D01*
X0107872Y0109983D01*
X0107846Y0109978D01*
X0107832Y0109976D01*
X0107643D01*
X0107506Y0109949D01*
X010739Y0109871D01*
X0106225Y0108706D01*
X0102995D01*
X0102989Y0108706D01*
X0102975Y0108709D01*
X0102972Y0108709D01*
X0102972Y0108709D01*
X0102807Y010882D01*
X0102612Y0108859D01*
X0102417Y010882D01*
X0102251Y0108709D01*
X0102141Y0108544D01*
X0102102Y0108349D01*
X0102141Y0108154D01*
X0102251Y0107988D01*
X0102417Y0107878D01*
X0102612Y0107839D01*
X0102807Y0107878D01*
X0102972Y0107988D01*
X0102972Y0107988D01*
X0102975Y0107989D01*
X0102986Y0107991D01*
X0102999Y0107992D01*
X0106373D01*
X0106509Y0108019D01*
X0106625Y0108096D01*
X010779Y0109262D01*
X0107832D01*
X0107846Y010926D01*
X0107872Y0109254D01*
X0107898Y0109246D01*
X0107924Y0109234D01*
X0107951Y010922D01*
X0107979Y0109202D01*
X0108008Y0109181D01*
X0108038Y0109155D01*
X0108064Y0109131D01*
X0108073Y010912D01*
X0108147Y0109062D01*
Y0108905D01*
X0108073Y0108848D01*
X010796Y0108702D01*
X010789Y0108532D01*
X0107866Y0108349D01*
X010789Y0108166D01*
X010796Y0107996D01*
X0108073Y010785D01*
X0108084Y0107841D01*
X0108108Y0107815D01*
X0108134Y0107785D01*
X0108155Y0107756D01*
X0108173Y0107728D01*
X0108187Y0107701D01*
X0108199Y0107675D01*
X0108207Y0107649D01*
X0108213Y0107623D01*
X0108215Y0107609D01*
Y010593D01*
X0103346Y0101061D01*
X0103341Y0101057D01*
X0103329Y0101049D01*
X0103327Y0101047D01*
X0103327Y0101047D01*
X0103132Y0101009D01*
X0102966Y0100898D01*
X0102856Y0100733D01*
X0102817Y0100538D01*
X0102856Y0100342D01*
X0102966Y0100177D01*
X0103132Y0100067D01*
X0103327Y0100028D01*
X0103522Y0100067D01*
X0103687Y0100177D01*
X0103798Y0100342D01*
X0103837Y0100538D01*
X0103837Y0100538D01*
X0103838Y010054D01*
X0103845Y0100549D01*
X0103853Y0100559D01*
X0108824Y010553D01*
X0108901Y0105646D01*
X0108929Y0105782D01*
Y0106326D01*
X0109056Y0106351D01*
X0109107Y0106228D01*
X0109219Y0106082D01*
X0109293Y0106025D01*
Y0105867D01*
X0109219Y010581D01*
X0109107Y0105664D01*
X0109036Y0105494D01*
X0109012Y0105311D01*
X0109036Y0105128D01*
X0109107Y0104958D01*
X0109219Y0104812D01*
X0109365Y01047D01*
X0109535Y0104629D01*
X0109718Y0104605D01*
X0109901Y0104629D01*
X0110071Y01047D01*
X0110217Y0104812D01*
X0110239Y010484D01*
X0110399D01*
X01104Y0104842D01*
X0110427Y0104877D01*
X0110449Y0104915D01*
X0110468Y0104955D01*
X0110482Y0104997D01*
X0110493Y0105041D01*
X0110499Y0105087D01*
X0110501Y0105135D01*
X0110499Y0105186D01*
X0110493Y0105238D01*
X0111051Y0104815D01*
X0110995Y0104807D01*
X0110891Y0104783D01*
X0110843Y0104767D01*
X0110798Y010475D01*
X0110755Y010473D01*
X0110716Y0104707D01*
X0110678Y0104683D01*
X0110644Y0104656D01*
X011063Y0104643D01*
X0110791Y0104576D01*
X0110988Y0104551D01*
X0111185Y0104576D01*
X0111368Y0104652D01*
X0111424Y0104695D01*
X0110898Y0105221D01*
X0111078Y0105401D01*
X0111639Y010484D01*
X0111737D01*
X0111759Y0104812D01*
X0111905Y01047D01*
X0112075Y0104629D01*
X0112258Y0104605D01*
X0112441Y0104629D01*
X0112611Y01047D01*
X0112757Y0104812D01*
X011287Y0104958D01*
X011294Y0105128D01*
X0112964Y0105311D01*
X011294Y0105494D01*
X011287Y0105664D01*
X0112757Y010581D01*
X0112683Y0105867D01*
Y0106025D01*
X0112757Y0106082D01*
X011287Y0106228D01*
X011294Y0106398D01*
X0112964Y0106581D01*
X011294Y0106764D01*
X011287Y0106934D01*
X0112757Y010708D01*
X0112611Y0107193D01*
X0112441Y0107263D01*
X0112258Y0107287D01*
X0112075Y0107263D01*
X0111905Y0107193D01*
X0111759Y010708D01*
X0111702Y0107006D01*
X0111544D01*
X0111487Y010708D01*
X0111341Y0107193D01*
X0111171Y0107263D01*
X0110988Y0107287D01*
X0110805Y0107263D01*
X0110635Y0107193D01*
X0110489Y010708D01*
X0110432Y0107006D01*
X0110274D01*
X0110217Y010708D01*
X0110071Y0107193D01*
X0109901Y0107263D01*
X0109718Y0107287D01*
X0109535Y0107263D01*
X0109365Y0107193D01*
X0109219Y010708D01*
X0109107Y0106934D01*
X0109056Y0106811D01*
X0108929Y0106836D01*
Y0107609D01*
X0108931Y0107623D01*
X0108936Y0107649D01*
X0108945Y0107675D01*
X0108956Y0107701D01*
X010897Y0107728D01*
X0108988Y0107756D01*
X010901Y0107785D01*
X0109035Y0107815D01*
X0109059Y0107841D01*
X0109071Y010785D01*
X0109128Y0107924D01*
X0109285D01*
X0109343Y010785D01*
X0109489Y0107737D01*
X0109659Y0107667D01*
X0109842Y0107643D01*
X0110025Y0107667D01*
X0110195Y0107737D01*
X0110341Y010785D01*
X0110398Y0107924D01*
X0110555D01*
X0110613Y010785D01*
X0110759Y0107737D01*
X0110929Y0107667D01*
X0111112Y0107643D01*
X0111295Y0107667D01*
X0111465Y0107737D01*
X0111611Y010785D01*
X0111723Y0107996D01*
X0111794Y0108166D01*
X0111818Y0108349D01*
X0111794Y0108532D01*
X0111723Y0108702D01*
X0111611Y0108848D01*
X0111583Y010887D01*
Y0108968D01*
X0111022Y0109529D01*
X0110461Y011009D01*
X0110363D01*
X0110341Y0110118D01*
X0110195Y011023D01*
X0110025Y0110301D01*
X0109842Y0110325D01*
D02*
G37*
G36*
X0111112Y0110379D02*
X0110915Y0110353D01*
X0110732Y0110277D01*
X0110676Y0110235D01*
X0111202Y0109709D01*
X0111728Y0109183D01*
X011177Y0109239D01*
X0111846Y0109422D01*
X0111872Y0109619D01*
X0111846Y0109816D01*
X011177Y0109999D01*
X011165Y0110157D01*
X0111492Y0110277D01*
X0111309Y0110353D01*
X0111112Y0110379D01*
D02*
G37*
G36*
X0107012Y0107979D02*
X0106817Y010794D01*
X0106651Y0107829D01*
X0106541Y0107664D01*
X0106502Y0107469D01*
X0106541Y0107274D01*
X0106651Y0107108D01*
X0106817Y0106998D01*
X0107012Y0106959D01*
X0107207Y0106998D01*
X0107372Y0107108D01*
X0107483Y0107274D01*
X0107522Y0107469D01*
X0107483Y0107664D01*
X0107372Y0107829D01*
X0107207Y010794D01*
X0107012Y0107979D01*
D02*
G37*
G36*
X0103412Y0107329D02*
X0103217Y010729D01*
X0103051Y0107179D01*
X0102941Y0107014D01*
X0102902Y0106819D01*
X0102941Y0106624D01*
X0103051Y0106458D01*
X0103217Y0106348D01*
X0103412Y0106309D01*
X0103607Y0106348D01*
X0103772Y0106458D01*
X0103883Y0106624D01*
X0103922Y0106819D01*
X0103883Y0107014D01*
X0103772Y0107179D01*
X0103607Y010729D01*
X0103412Y0107329D01*
D02*
G37*
G36*
X0096512Y0106079D02*
X0096317Y010604D01*
X0096151Y0105929D01*
X0096041Y0105764D01*
X0096002Y0105569D01*
X0096041Y0105374D01*
X0096151Y0105208D01*
X0096317Y0105098D01*
X0096512Y0105059D01*
X0096707Y0105098D01*
X0096872Y0105208D01*
X0096983Y0105374D01*
X0097022Y0105569D01*
X0096983Y0105764D01*
X0096872Y0105929D01*
X0096707Y010604D01*
X0096512Y0106079D01*
D02*
G37*
G36*
X0101012Y0105391D02*
X0100817Y0105352D01*
X0100651Y0105242D01*
X0100541Y0105076D01*
X0100502Y0104881D01*
X0100541Y0104686D01*
X0100651Y0104521D01*
X0100817Y010441D01*
X0101012Y0104371D01*
X0101207Y010441D01*
X0101372Y0104521D01*
X0101483Y0104686D01*
X0101522Y0104881D01*
X0101483Y0105076D01*
X0101372Y0105242D01*
X0101207Y0105352D01*
X0101012Y0105391D01*
D02*
G37*
G36*
X0110012Y0103079D02*
X0109817Y010304D01*
X0109651Y0102929D01*
X0109541Y0102764D01*
X0109527Y0102696D01*
X0109472Y0102681D01*
X0109395Y0102683D01*
X0109297Y0102829D01*
X0109132Y010294D01*
X0108937Y0102979D01*
X0108742Y010294D01*
X0108576Y0102829D01*
X0108466Y0102664D01*
X0108427Y0102469D01*
X0108466Y0102274D01*
X0108576Y0102108D01*
X0108742Y0101998D01*
X0108937Y0101959D01*
X0109132Y0101998D01*
X0109297Y0102108D01*
X0109408Y0102274D01*
X0109421Y0102341D01*
X0109477Y0102356D01*
X0109553Y0102355D01*
X0109651Y0102208D01*
X0109817Y0102098D01*
X0110012Y0102059D01*
X0110207Y0102098D01*
X0110372Y0102208D01*
X0110483Y0102374D01*
X0110522Y0102569D01*
X0110483Y0102764D01*
X0110372Y0102929D01*
X0110207Y010304D01*
X0110012Y0103079D01*
D02*
G37*
G36*
X0102629Y0103596D02*
X0102434Y0103557D01*
X0102269Y0103446D01*
X0102158Y0103281D01*
X0102119Y0103086D01*
X0102158Y0102891D01*
X0102269Y0102725D01*
X0102434Y0102615D01*
X0102629Y0102576D01*
X0102824Y0102615D01*
X010299Y0102725D01*
X01031Y0102891D01*
X0103139Y0103086D01*
X01031Y0103281D01*
X010299Y0103446D01*
X0102824Y0103557D01*
X0102629Y0103596D01*
D02*
G37*
G36*
X0109587Y0098429D02*
X0109392Y009839D01*
X0109226Y0098279D01*
X0109116Y0098114D01*
X0109077Y0097919D01*
X0109116Y0097724D01*
X0109226Y0097558D01*
X0109392Y0097448D01*
X0109587Y0097409D01*
X0109782Y0097448D01*
X0109947Y0097558D01*
X0110058Y0097724D01*
X0110097Y0097919D01*
X0110058Y0098114D01*
X0109947Y0098279D01*
X0109782Y009839D01*
X0109587Y0098429D01*
D02*
G37*
G36*
X0087987Y0098079D02*
X0087792Y009804D01*
X0087626Y0097929D01*
X0087516Y0097764D01*
X0087477Y0097569D01*
X0087516Y0097374D01*
X0087626Y0097208D01*
X0087792Y0097098D01*
X0087987Y0097059D01*
X0088182Y0097098D01*
X0088347Y0097208D01*
X0088458Y0097374D01*
X0088497Y0097569D01*
X0088458Y0097764D01*
X0088347Y0097929D01*
X0088182Y009804D01*
X0087987Y0098079D01*
D02*
G37*
G36*
X0101312Y0097777D02*
X0101064Y0097744D01*
X0100833Y0097649D01*
X0100634Y0097496D01*
X0100482Y0097298D01*
X0100386Y0097067D01*
X0100354Y0096819D01*
X0100386Y0096571D01*
X0100482Y009634D01*
X0100634Y0096141D01*
X0100833Y0095989D01*
X0101064Y0095893D01*
X0101312Y0095861D01*
X010156Y0095893D01*
X0101791Y0095989D01*
X0101989Y0096141D01*
X0102142Y009634D01*
X0102237Y0096571D01*
X010227Y0096819D01*
X0102237Y0097067D01*
X0102142Y0097298D01*
X0101989Y0097496D01*
X0101791Y0097649D01*
X010156Y0097744D01*
X0101312Y0097777D01*
D02*
G37*
G36*
X0108837Y0096231D02*
X0108642Y0096192D01*
X0108476Y0096082D01*
X0108366Y0095916D01*
X0108327Y0095721D01*
X0108366Y0095526D01*
X0108476Y0095361D01*
X0108642Y009525D01*
X0108837Y0095211D01*
X0109032Y009525D01*
X0109197Y0095361D01*
X0109308Y0095526D01*
X0109347Y0095721D01*
X0109308Y0095916D01*
X0109197Y0096082D01*
X0109032Y0096192D01*
X0108837Y0096231D01*
D02*
G37*
G36*
X0107512Y0094954D02*
X0107317Y0094916D01*
X0107151Y0094805D01*
X0107041Y009464D01*
X0107002Y0094445D01*
X0107041Y0094249D01*
X0107151Y0094084D01*
X0107287Y0093993D01*
X0107271Y0093864D01*
X0107271Y0093863D01*
X0107179Y0093851D01*
X0107009Y009378D01*
X0106863Y0093668D01*
X0106805Y0093594D01*
X0106648D01*
X0106591Y0093668D01*
X0106445Y009378D01*
X0106275Y0093851D01*
X0106092Y0093875D01*
X0105909Y0093851D01*
X0105739Y009378D01*
X0105593Y0093668D01*
X010548Y0093522D01*
X010541Y0093352D01*
X0105386Y0093169D01*
X010541Y0092986D01*
X010548Y0092816D01*
X0105593Y009267D01*
X0105667Y0092612D01*
Y0092455D01*
X0105593Y0092398D01*
X010548Y0092252D01*
X010541Y0092082D01*
X0105386Y0091899D01*
X010541Y0091716D01*
X010548Y0091546D01*
X0105593Y00914D01*
X0105739Y0091287D01*
X0105909Y0091217D01*
X0106092Y0091193D01*
X0106275Y0091217D01*
X0106445Y0091287D01*
X0106591Y00914D01*
X0106648Y0091474D01*
X0106805D01*
X0106863Y00914D01*
X0107009Y0091287D01*
X0107179Y0091217D01*
X0107362Y0091193D01*
X0107545Y0091217D01*
X0107715Y0091287D01*
X0107861Y00914D01*
X0107883Y0091428D01*
X0108043D01*
X0108094Y0091361D01*
X0108252Y009124D01*
X0108435Y0091164D01*
X0108632Y0091138D01*
X0108829Y0091164D01*
X0109012Y009124D01*
X0109068Y0091283D01*
X0108542Y0091809D01*
X0108722Y0091989D01*
X0109248Y0091463D01*
X010929Y0091519D01*
X0109366Y0091702D01*
X0109392Y0091899D01*
X0109366Y0092096D01*
X010929Y0092279D01*
X0109263Y0092315D01*
X0109257Y0092309D01*
X010923Y0092274D01*
X0109207Y0092236D01*
X0109186Y0092196D01*
X0109169Y0092153D01*
X0109155Y0092108D01*
X0109145Y0092061D01*
X0109137Y0092011D01*
X0109133Y0091959D01*
X0109132Y0091904D01*
X0108637Y0092399D01*
X0108692Y00924D01*
X0108744Y0092404D01*
X0108794Y0092412D01*
X0108841Y0092422D01*
X0108886Y0092436D01*
X0108929Y0092453D01*
X0108969Y0092474D01*
X0109007Y0092497D01*
X0109042Y0092524D01*
X0109075Y0092554D01*
X0109103Y0092527D01*
Y0092648D01*
X0109131Y009267D01*
X0109243Y0092816D01*
X0109314Y0092986D01*
X0109338Y0093169D01*
X0109314Y0093352D01*
X0109243Y0093522D01*
X0109131Y0093668D01*
X0108985Y009378D01*
X0108815Y0093851D01*
X0108632Y0093875D01*
X0108449Y0093851D01*
X0108279Y009378D01*
X0108133Y0093668D01*
X0108075Y0093594D01*
X0107918D01*
X0107861Y0093668D01*
X0107715Y009378D01*
X0107608Y0093824D01*
X0107621Y0093956D01*
X0107707Y0093974D01*
X0107872Y0094084D01*
X0107983Y0094249D01*
X0108022Y0094445D01*
X0107983Y009464D01*
X0107872Y0094805D01*
X0107707Y0094916D01*
X0107512Y0094954D01*
D02*
G37*
G36*
X0086932Y0093875D02*
X0086749Y0093851D01*
X0086579Y009378D01*
X0086433Y0093668D01*
X0086375Y0093594D01*
X0086218D01*
X0086161Y0093668D01*
X0086015Y009378D01*
X0085845Y0093851D01*
X0085662Y0093875D01*
X0085479Y0093851D01*
X0085309Y009378D01*
X0085163Y0093668D01*
X0085105Y0093594D01*
X0084948D01*
X0084891Y0093668D01*
X0084745Y009378D01*
X0084575Y0093851D01*
X0084392Y0093875D01*
X0084209Y0093851D01*
X0084039Y009378D01*
X0083893Y0093668D01*
X008378Y0093522D01*
X008371Y0093352D01*
X0083686Y0093169D01*
X008371Y0092986D01*
X008378Y0092816D01*
X0083893Y009267D01*
X0083967Y0092612D01*
Y0092455D01*
X0083893Y0092398D01*
X008378Y0092252D01*
X008371Y0092082D01*
X0083686Y0091899D01*
X008371Y0091716D01*
X008378Y0091546D01*
X0083893Y00914D01*
X0084039Y0091287D01*
X0084209Y0091217D01*
X0084392Y0091193D01*
X0084575Y0091217D01*
X0084745Y0091287D01*
X0084891Y00914D01*
X0084948Y0091474D01*
X0085105D01*
X0085163Y00914D01*
X0085309Y0091287D01*
X0085479Y0091217D01*
X0085662Y0091193D01*
X0085845Y0091217D01*
X0086015Y0091287D01*
X0086161Y00914D01*
X0086183Y0091428D01*
X0086343D01*
X0086363Y0091401D01*
X0086365Y0091403D01*
X0086391Y0091439D01*
X0086413Y0091477D01*
X0086431Y0091516D01*
X0086444Y0091558D01*
X0086453Y0091601D01*
X0086457Y0091646D01*
X0086457Y0091693D01*
X0086452Y0091742D01*
X0086443Y0091792D01*
X0087029Y0091408D01*
X0086972Y0091396D01*
X0086868Y0091366D01*
X0086821Y0091348D01*
X0086775Y0091329D01*
X0086733Y0091307D01*
X0086694Y0091284D01*
X0086657Y0091259D01*
X0086623Y0091232D01*
X0086607Y0091217D01*
X0086735Y0091164D01*
X0086932Y0091138D01*
X0087129Y0091164D01*
X0087312Y009124D01*
X0087368Y0091283D01*
X0086842Y0091809D01*
X0087022Y0091989D01*
X0087548Y0091463D01*
X008759Y0091519D01*
X0087666Y0091702D01*
X0087692Y0091899D01*
X0087666Y0092096D01*
X008759Y0092279D01*
X008747Y0092437D01*
X0087403Y0092488D01*
Y0092648D01*
X0087431Y009267D01*
X0087543Y0092816D01*
X0087614Y0092986D01*
X0087638Y0093169D01*
X0087614Y0093352D01*
X0087543Y0093522D01*
X0087431Y0093668D01*
X0087285Y009378D01*
X0087115Y0093851D01*
X0086932Y0093875D01*
D02*
G37*
G36*
X0082687Y0094104D02*
X0082492Y0094065D01*
X0082326Y0093954D01*
X0082216Y0093789D01*
X0082177Y0093594D01*
X0082216Y0093399D01*
X0082326Y0093233D01*
X0082492Y0093123D01*
X0082687Y0093084D01*
X0082882Y0093123D01*
X0083047Y0093233D01*
X0083158Y0093399D01*
X0083197Y0093594D01*
X0083158Y0093789D01*
X0083047Y0093954D01*
X0082882Y0094065D01*
X0082687Y0094104D01*
D02*
G37*
G36*
X0090336Y0092979D02*
X0090141Y009294D01*
X0089976Y0092829D01*
X0089865Y0092664D01*
X0089826Y0092469D01*
X0089865Y0092274D01*
X0089976Y0092108D01*
X0090141Y0091998D01*
X0090336Y0091959D01*
X0090531Y0091998D01*
X0090697Y0092108D01*
X0090807Y0092274D01*
X0090846Y0092469D01*
X0090807Y0092664D01*
X0090697Y0092829D01*
X0090531Y009294D01*
X0090336Y0092979D01*
D02*
G37*
%LPD*%
G36*
X0108215Y0109269D02*
X0108175Y0109307D01*
X0108135Y0109341D01*
X0108095Y0109371D01*
X0108053Y0109397D01*
X0108012Y0109419D01*
X0107969Y0109437D01*
X0107927Y0109451D01*
X0107883Y0109461D01*
X0107839Y0109467D01*
X0107795Y0109469D01*
Y0109769D01*
X0107839Y0109771D01*
X0107883Y0109777D01*
X0107927Y0109787D01*
X0107969Y0109801D01*
X0108012Y0109819D01*
X0108053Y0109841D01*
X0108095Y0109867D01*
X0108135Y0109897D01*
X0108175Y0109931D01*
X0108215Y0109969D01*
Y0109269D01*
D02*
G37*
G36*
X0102839Y0108547D02*
X0102854Y0108537D01*
X0102871Y0108528D01*
X010289Y010852D01*
X0102912Y0108514D01*
X0102935Y0108508D01*
X0102961Y0108504D01*
X0102989Y0108501D01*
X0103052Y0108499D01*
Y0108199D01*
X0103019Y0108198D01*
X0102961Y0108193D01*
X0102935Y0108189D01*
X0102912Y0108184D01*
X010289Y0108177D01*
X0102871Y0108169D01*
X0102854Y010816D01*
X0102839Y010815D01*
X0102826Y0108139D01*
Y0108559D01*
X0102839Y0108547D01*
D02*
G37*
G36*
X0108884Y0107952D02*
X010885Y0107912D01*
X010882Y0107872D01*
X0108794Y010783D01*
X0108772Y0107789D01*
X0108754Y0107746D01*
X010874Y0107704D01*
X010873Y010766D01*
X0108724Y0107616D01*
X0108722Y0107572D01*
X0108422D01*
X010842Y0107616D01*
X0108414Y010766D01*
X0108404Y0107704D01*
X010839Y0107746D01*
X0108372Y0107789D01*
X010835Y010783D01*
X0108324Y0107872D01*
X0108294Y0107912D01*
X010826Y0107952D01*
X0108222Y0107992D01*
X0108922D01*
X0108884Y0107952D01*
D02*
G37*
G36*
X0103744Y0100742D02*
X0103722Y0100719D01*
X0103684Y0100675D01*
X0103669Y0100654D01*
X0103656Y0100633D01*
X0103645Y0100613D01*
X0103637Y0100594D01*
X0103631Y0100575D01*
X0103628Y0100558D01*
X0103627Y0100541D01*
X010333Y0100838D01*
X0103347Y0100839D01*
X0103365Y0100842D01*
X0103383Y0100848D01*
X0103403Y0100856D01*
X0103422Y0100866D01*
X0103443Y0100879D01*
X0103464Y0100895D01*
X0103486Y0100912D01*
X0103532Y0100955D01*
X0103744Y0100742D01*
D02*
G37*
D49*
X0098964Y0102169D02*
X0101817Y0099316D01*
X0108559D02*
X0110912Y0101669D01*
X0101817Y0099316D02*
X0108559D01*
X0083306Y010422D02*
X0087807Y0099719D01*
X0095566D01*
X0095624Y0101357D02*
X0096216Y0100764D01*
Y009945D02*
Y0100764D01*
X0095836Y0099069D02*
X0096216Y009945D01*
X0086387Y0099069D02*
X0095836D01*
X0082036Y010342D02*
X0086387Y0099069D01*
X0096912Y0098569D02*
X0098012Y0099669D01*
X0085512Y0098569D02*
X0096912D01*
X0083612Y0100469D02*
X0085512Y0098569D01*
X0083306Y010422D02*
Y0105311D01*
X0087786Y0100495D02*
X0095566D01*
X0084312Y0103969D02*
X0087786Y0100495D01*
X0084212Y0097944D02*
Y0098769D01*
X0086487Y0095669D02*
X0094812D01*
X0084212Y0097944D02*
X0086487Y0095669D01*
X0082036Y010342D02*
Y0105311D01*
X0103327Y0100538D02*
X0108572Y0105782D01*
Y0108349D01*
X0086712Y0103069D02*
X0087612Y0102169D01*
X0107643Y0109619D02*
X0108572D01*
X0106373Y0108349D02*
X0107643Y0109619D01*
X0102612Y0108349D02*
X0106373D01*
X0109202Y0092469D02*
X0109651D01*
X0108632Y0091899D02*
X0109202Y0092469D01*
X0108596Y0091899D02*
X0108632D01*
X0110394Y010462D02*
X0110988Y0105214D01*
Y0105311D01*
X010538Y0111777D02*
Y0112069D01*
X0104842Y0111239D02*
X010538Y0111777D01*
X0084034Y0110701D02*
X0084572Y0111239D01*
X0083812Y0110701D02*
X0084034D01*
X0086315Y0091138D02*
X0086932Y0091755D01*
Y0091899D01*
X0093888Y0102869D02*
X0094412D01*
X0093712Y0103045D02*
X0093888Y0102869D01*
X0090336Y0104419D02*
Y0104993D01*
X009016Y0105169D02*
X0090336Y0104993D01*
X0087612Y0102169D02*
X0098964D01*
X0082036Y0106581D02*
X0082924Y0107469D01*
X0084028D02*
X0086328Y0105169D01*
X0082924Y0107469D02*
X0084028D01*
X0079916Y0106933D02*
X0081452Y0108469D01*
X0091756D02*
X0094454Y0105771D01*
X0079916Y0106215D02*
X0080766Y0105365D01*
X0079916Y0106215D02*
Y0106933D01*
X0086328Y0105169D02*
X009016D01*
X0098003Y0101438D02*
X0098012Y0101429D01*
Y0099669D02*
Y0101429D01*
X0080766Y0105311D02*
Y0105365D01*
X0093712Y0103045D02*
Y0105806D01*
X0083306Y0106581D02*
X0084127D01*
X0084312Y0106397D01*
Y0103969D02*
Y0106397D01*
X0082154Y0107969D02*
X0091549D01*
X0093712Y0105806D01*
X0080766Y0106581D02*
X0082154Y0107969D01*
X0094454Y0103711D02*
Y0105771D01*
X0081452Y0108469D02*
X0091756D01*
X0083012Y0100469D02*
X0083612D01*
D51*
X0084572Y0111239D02*
D03*
X0111112Y0109619D02*
D03*
X0108572D02*
D03*
Y0108349D02*
D03*
X0086932Y0091899D02*
D03*
X0104842Y0111239D02*
D03*
X0110988Y0105311D02*
D03*
X0108632Y0091899D02*
D03*
X0080766Y0106581D02*
D03*
Y0105311D02*
D03*
X0082036Y0106581D02*
D03*
Y0105311D02*
D03*
X0083306Y0106581D02*
D03*
Y0105311D02*
D03*
D52*
X0095566Y0099719D02*
D03*
X008781Y0109173D02*
D03*
X0096412Y0109816D02*
D03*
X0102023Y0094998D02*
D03*
X0112379Y0111333D02*
D03*
X0112357Y009124D02*
D03*
X0103012Y0091287D02*
D03*
X0095566Y0100495D02*
D03*
X0103083Y0105271D02*
D03*
X0106359Y0100694D02*
D03*
X0090062Y0094994D02*
D03*
X0086252Y0097472D02*
D03*
X0084392Y010211D02*
D03*
X0097912Y0091283D02*
D03*
Y0094869D02*
D03*
X0086712Y0103069D02*
D03*
X0102612Y0108349D02*
D03*
X0103327Y0100538D02*
D03*
X0094812Y0095669D02*
D03*
X0092612Y0103641D02*
D03*
X0083851Y0094369D02*
D03*
X0092212Y0109816D02*
D03*
X0080766Y0109786D02*
D03*
Y0091217D02*
D03*
Y0098289D02*
D03*
Y010363D02*
D03*
X0092933Y0091283D02*
D03*
X0098003Y0105869D02*
D03*
X0112362Y0093844D02*
D03*
X0092085Y0097919D02*
D03*
X009016Y0101308D02*
D03*
X0108812Y0104221D02*
D03*
X0107608Y0111329D02*
D03*
X0110012D02*
D03*
X0090336Y0104419D02*
D03*
X0098003Y0101438D02*
D03*
X0095624Y0101357D02*
D03*
X0094412Y0102869D02*
D03*
X0094454Y0103711D02*
D03*
X0084212Y0098769D02*
D03*
X0083012Y0100469D02*
D03*
X0110912Y0101669D02*
D03*
M02*
