G04*
G04 #@! TF.GenerationSoftware,Altium Limited,Altium Designer,20.1.8 (145)*
G04*
G04 Layer_Physical_Order=4*
G04 Layer_Color=16711680*
%FSTAX43Y43*%
%MOMM*%
G71*
G04*
G04 #@! TF.SameCoordinates,B34475FB-C3A6-4C53-AFA9-1BD6AB5E634D*
G04*
G04*
G04 #@! TF.FilePolarity,Positive*
G04*
G01*
G75*
%ADD12C,0.200*%
%ADD33R,0.850X0.800*%
%ADD35R,0.800X0.850*%
G04:AMPARAMS|DCode=36|XSize=0.75mm|YSize=0.6mm|CornerRadius=0.15mm|HoleSize=0mm|Usage=FLASHONLY|Rotation=90.000|XOffset=0mm|YOffset=0mm|HoleType=Round|Shape=RoundedRectangle|*
%AMROUNDEDRECTD36*
21,1,0.750,0.300,0,0,90.0*
21,1,0.450,0.600,0,0,90.0*
1,1,0.300,0.150,0.225*
1,1,0.300,0.150,-0.225*
1,1,0.300,-0.150,-0.225*
1,1,0.300,-0.150,0.225*
%
%ADD36ROUNDEDRECTD36*%
G04:AMPARAMS|DCode=43|XSize=0.4mm|YSize=0.48mm|CornerRadius=0.1mm|HoleSize=0mm|Usage=FLASHONLY|Rotation=180.000|XOffset=0mm|YOffset=0mm|HoleType=Round|Shape=RoundedRectangle|*
%AMROUNDEDRECTD43*
21,1,0.400,0.280,0,0,180.0*
21,1,0.200,0.480,0,0,180.0*
1,1,0.200,-0.100,0.140*
1,1,0.200,0.100,0.140*
1,1,0.200,0.100,-0.140*
1,1,0.200,-0.100,-0.140*
%
%ADD43ROUNDEDRECTD43*%
%ADD49C,0.300*%
%ADD50C,1.500*%
%ADD51C,1.000*%
%ADD52C,0.600*%
%ADD53R,0.500X0.400*%
G04:AMPARAMS|DCode=54|XSize=0.4mm|YSize=0.75mm|CornerRadius=0.1mm|HoleSize=0mm|Usage=FLASHONLY|Rotation=90.000|XOffset=0mm|YOffset=0mm|HoleType=Round|Shape=RoundedRectangle|*
%AMROUNDEDRECTD54*
21,1,0.400,0.550,0,0,90.0*
21,1,0.200,0.750,0,0,90.0*
1,1,0.200,0.275,0.100*
1,1,0.200,0.275,-0.100*
1,1,0.200,-0.275,-0.100*
1,1,0.200,-0.275,0.100*
%
%ADD54ROUNDEDRECTD54*%
%ADD55R,0.450X1.450*%
%ADD56R,0.600X1.100*%
%ADD57O,2.200X0.600*%
G36*
X0113253Y0090828D02*
X0079771D01*
Y0092569D01*
Y011231D01*
X0113253D01*
Y0090828D01*
D02*
G37*
%LPC*%
G36*
X0104842Y0111999D02*
X0104645Y0111973D01*
X0104462Y0111897D01*
X0104406Y0111855D01*
X0104932Y0111329D01*
X0104752Y0111149D01*
X0104191Y011171D01*
X0104093D01*
X0104071Y0111738D01*
X0103925Y011185D01*
X0103755Y0111921D01*
X0103572Y0111945D01*
X0103389Y0111921D01*
X0103219Y011185D01*
X0103073Y0111738D01*
X010296Y0111592D01*
X010289Y0111422D01*
X0102866Y0111239D01*
X010289Y0111056D01*
X010296Y0110886D01*
X0103073Y011074D01*
X0103147Y0110682D01*
Y0110525D01*
X0103073Y0110468D01*
X010296Y0110322D01*
X010289Y0110152D01*
X0102866Y0109969D01*
X010289Y0109786D01*
X010296Y0109616D01*
X0103073Y010947D01*
X0103219Y0109357D01*
X0103389Y0109287D01*
X0103572Y0109263D01*
X0103755Y0109287D01*
X0103925Y0109357D01*
X0104071Y010947D01*
X0104128Y0109544D01*
X0104285D01*
X0104343Y010947D01*
X0104489Y0109357D01*
X0104659Y0109287D01*
X0104842Y0109263D01*
X0105025Y0109287D01*
X0105195Y0109357D01*
X0105341Y010947D01*
X0105398Y0109544D01*
X0105555D01*
X0105613Y010947D01*
X0105759Y0109357D01*
X0105929Y0109287D01*
X0106112Y0109263D01*
X0106295Y0109287D01*
X0106465Y0109357D01*
X0106611Y010947D01*
X0106723Y0109616D01*
X0106794Y0109786D01*
X0106818Y0109969D01*
X0106794Y0110152D01*
X0106723Y0110322D01*
X0106611Y0110468D01*
X0106537Y0110525D01*
Y0110682D01*
X0106611Y011074D01*
X0106723Y0110886D01*
X0106794Y0111056D01*
X0106818Y0111239D01*
X0106794Y0111422D01*
X0106723Y0111592D01*
X0106611Y0111738D01*
X0106465Y011185D01*
X0106295Y0111921D01*
X0106112Y0111945D01*
X0105929Y0111921D01*
X0105759Y011185D01*
X0105613Y0111738D01*
X0105591Y011171D01*
X0105431D01*
X010538Y0111777D01*
X0105222Y0111897D01*
X0105039Y0111973D01*
X0104842Y0111999D01*
D02*
G37*
G36*
X0084572D02*
X0084375Y0111973D01*
X0084192Y0111897D01*
X0084136Y0111855D01*
X0084662Y0111329D01*
X0084482Y0111149D01*
X0083956Y0111675D01*
X0083913Y0111619D01*
X0083837Y0111436D01*
X0083811Y0111239D01*
X0083837Y0111042D01*
X0083913Y0110859D01*
X0084034Y0110701D01*
X0084101Y011065D01*
Y011049D01*
X0084073Y0110468D01*
X008396Y0110322D01*
X008389Y0110152D01*
X0083866Y0109969D01*
X008389Y0109786D01*
X008396Y0109616D01*
X0084073Y010947D01*
X0084219Y0109357D01*
X0084389Y0109287D01*
X0084572Y0109263D01*
X0084755Y0109287D01*
X0084925Y0109357D01*
X0085071Y010947D01*
X0085128Y0109544D01*
X0085285D01*
X0085343Y010947D01*
X0085489Y0109357D01*
X0085659Y0109287D01*
X0085842Y0109263D01*
X0086025Y0109287D01*
X0086195Y0109357D01*
X0086341Y010947D01*
X0086398Y0109544D01*
X0086555D01*
X0086613Y010947D01*
X0086759Y0109357D01*
X0086929Y0109287D01*
X0087112Y0109263D01*
X0087295Y0109287D01*
X0087465Y0109357D01*
X0087611Y010947D01*
X0087723Y0109616D01*
X0087794Y0109786D01*
X0087818Y0109969D01*
X0087794Y0110152D01*
X0087723Y0110322D01*
X0087611Y0110468D01*
X0087537Y0110525D01*
Y0110682D01*
X0087611Y011074D01*
X0087723Y0110886D01*
X0087794Y0111056D01*
X0087818Y0111239D01*
X0087794Y0111422D01*
X0087723Y0111592D01*
X0087611Y0111738D01*
X0087465Y011185D01*
X0087295Y0111921D01*
X0087112Y0111945D01*
X0086929Y0111921D01*
X0086759Y011185D01*
X0086613Y0111738D01*
X0086555Y0111664D01*
X0086398D01*
X0086341Y0111738D01*
X0086195Y011185D01*
X0086025Y0111921D01*
X0085842Y0111945D01*
X0085659Y0111921D01*
X0085489Y011185D01*
X0085343Y0111738D01*
X0085321Y011171D01*
X0085161D01*
X008511Y0111777D01*
X0084952Y0111897D01*
X0084769Y0111973D01*
X0084572Y0111999D01*
D02*
G37*
G36*
X0099412Y0111784D02*
X0099217Y0111745D01*
X0099051Y0111634D01*
X0098941Y0111469D01*
X0098902Y0111274D01*
X0098941Y0111079D01*
X0099051Y0110913D01*
X0099217Y0110803D01*
X0099412Y0110764D01*
X0099607Y0110803D01*
X0099772Y0110913D01*
X0099883Y0111079D01*
X0099922Y0111274D01*
X0099883Y0111469D01*
X0099772Y0111634D01*
X0099607Y0111745D01*
X0099412Y0111784D01*
D02*
G37*
G36*
X0109842Y0110325D02*
X0109659Y0110301D01*
X0109489Y011023D01*
X0109343Y0110118D01*
X0109285Y0110044D01*
X0109128D01*
X0109071Y0110118D01*
X0108925Y011023D01*
X0108755Y0110301D01*
X0108572Y0110325D01*
X0108389Y0110301D01*
X0108219Y011023D01*
X0108073Y0110118D01*
X010796Y0109972D01*
X010789Y0109802D01*
X0107866Y0109619D01*
X010789Y0109436D01*
X010796Y0109266D01*
X0108073Y010912D01*
X0108147Y0109062D01*
Y0108905D01*
X0108073Y0108848D01*
X010796Y0108702D01*
X010789Y0108532D01*
X0107866Y0108349D01*
X010789Y0108166D01*
X010796Y0107996D01*
X0108052Y0107876D01*
X0108057Y0107851D01*
X0108049Y0107778D01*
X0108031Y0107722D01*
X0107976Y0107685D01*
X0107976Y0107685D01*
X0107624Y0107333D01*
X0107507Y0107396D01*
X0107522Y0107469D01*
X0107483Y0107664D01*
X0107372Y0107829D01*
X0107207Y010794D01*
X0107012Y0107979D01*
X0106817Y010794D01*
X0106651Y0107829D01*
X0106541Y0107664D01*
X0106502Y0107469D01*
X0106541Y0107274D01*
X0106566Y0107237D01*
X0106506Y0107125D01*
X0103852D01*
X0103843Y0107127D01*
X0103834Y0107129D01*
X0103825Y0107133D01*
X0103815Y0107138D01*
X0103805Y0107144D01*
X0103795Y0107151D01*
X0103787Y0107158D01*
X0103772Y0107179D01*
X0103607Y010729D01*
X0103412Y0107329D01*
X0103217Y010729D01*
X0103051Y0107179D01*
X0102941Y0107014D01*
X0102902Y0106819D01*
X0102941Y0106624D01*
X0103051Y0106458D01*
X0103217Y0106348D01*
X0103412Y0106309D01*
X0103607Y0106348D01*
X0103772Y0106458D01*
X0103787Y010648D01*
X0103795Y0106487D01*
X0103805Y0106494D01*
X0103815Y01065D01*
X0103825Y0106505D01*
X0103834Y0106508D01*
X0103843Y0106511D01*
X0103852Y0106513D01*
X0107542D01*
X0107542Y0106513D01*
X0107659Y0106536D01*
X0107758Y0106603D01*
X0108319Y0107163D01*
X0109127D01*
X0109185Y0107036D01*
X0109107Y0106934D01*
X0109036Y0106764D01*
X0109012Y0106581D01*
X0109036Y0106398D01*
X0109107Y0106228D01*
X0109219Y0106082D01*
X0109293Y0106025D01*
Y0105867D01*
X0109219Y010581D01*
X0109107Y0105664D01*
X0109036Y0105494D01*
X0109012Y0105311D01*
X0109036Y0105128D01*
X0109107Y0104958D01*
X0109219Y0104812D01*
X010923Y0104804D01*
X0109304Y0104724D01*
X0109334Y0104688D01*
X0109359Y0104653D01*
X0109379Y0104621D01*
X0109394Y0104593D01*
X0109404Y0104569D01*
X010941Y0104549D01*
X0109412Y0104537D01*
Y0103846D01*
X0107053D01*
X0107041Y0103901D01*
X0106964Y0104017D01*
X0106848Y0104094D01*
X0106712Y0104122D01*
X0106717Y0104247D01*
X0107037D01*
X0107154Y010427D01*
X0107253Y0104336D01*
X0107319Y0104435D01*
X0107343Y0104553D01*
Y0104753D01*
X0107319Y010487D01*
X0107275Y0104936D01*
X0107292Y0104947D01*
X010737Y0105064D01*
X0107398Y0105203D01*
Y0105403D01*
X010737Y0105541D01*
X0107292Y0105658D01*
X0107275Y0105669D01*
X0107319Y0105735D01*
X0107343Y0105853D01*
Y0106053D01*
X0107319Y010617D01*
X0107253Y0106269D01*
X0107154Y0106335D01*
X0107037Y0106358D01*
X0106487D01*
X010637Y0106335D01*
X0106271Y0106269D01*
X0106204Y010617D01*
X0106202Y0106158D01*
X0106064Y0106116D01*
X0106011Y0106169D01*
X0105912Y0106235D01*
X0105795Y0106258D01*
X0105795Y0106258D01*
X010536D01*
X0105353Y0106269D01*
X0105254Y0106335D01*
X0105137Y0106358D01*
X0104587D01*
X010447Y0106335D01*
X0104371Y0106269D01*
X0104304Y010617D01*
X0104281Y0106053D01*
Y0105853D01*
X0104304Y0105735D01*
X0104371Y0105636D01*
X010447Y010557D01*
X0104587Y0105547D01*
X0105137D01*
X0105254Y010557D01*
X0105353Y0105636D01*
X010536Y0105647D01*
X0105606D01*
Y0104128D01*
X0105566Y01041D01*
X0105479Y0104072D01*
X0105369Y0104145D01*
X0105299Y0104159D01*
X0105299Y010416D01*
X0105286Y0104291D01*
X0105353Y0104336D01*
X0105419Y0104435D01*
X0105443Y0104553D01*
Y0104753D01*
X0105419Y010487D01*
X0105353Y0104969D01*
X0105254Y0105035D01*
X0105137Y0105058D01*
X0104587D01*
X010447Y0105035D01*
X0104371Y0104969D01*
X0104364Y0104958D01*
X0102797D01*
X009997Y0107785D01*
X0099871Y0107851D01*
X0099754Y0107875D01*
X0099754Y0107875D01*
X00874D01*
X0087282Y0107851D01*
X0087183Y0107785D01*
X0084779Y0105381D01*
X0084713Y0105282D01*
X008469Y0105165D01*
X008469Y0105165D01*
Y0101103D01*
X0082471Y0098884D01*
X0082404Y0098785D01*
X0082381Y0098668D01*
X0082381Y0098668D01*
Y0094034D01*
X0082379Y0094025D01*
X0082376Y0094016D01*
X0082373Y0094007D01*
X0082368Y0093997D01*
X0082362Y0093987D01*
X0082355Y0093977D01*
X0082348Y0093969D01*
X0082326Y0093954D01*
X0082216Y0093789D01*
X0082177Y0093594D01*
X0082216Y0093399D01*
X0082326Y0093233D01*
X0082492Y0093123D01*
X0082687Y0093084D01*
X0082779Y0093102D01*
X0082906Y0092998D01*
Y0092169D01*
X0082906Y0092169D01*
X0082929Y0092052D01*
X0082996Y0091953D01*
X0083266Y0091683D01*
X0083365Y0091616D01*
X0083482Y0091593D01*
X0083482Y0091593D01*
X0083618D01*
X008363Y0091591D01*
X008365Y0091584D01*
X0083674Y0091574D01*
X0083702Y0091559D01*
X0083734Y009154D01*
X0083767Y0091516D01*
X0083848Y0091446D01*
X0083883Y0091412D01*
X0083893Y00914D01*
X0084039Y0091287D01*
X0084209Y0091217D01*
X0084392Y0091193D01*
X0084575Y0091217D01*
X0084745Y0091287D01*
X0084891Y00914D01*
X0084948Y0091474D01*
X0085105D01*
X0085163Y00914D01*
X0085309Y0091287D01*
X0085479Y0091217D01*
X0085662Y0091193D01*
X0085845Y0091217D01*
X0086015Y0091287D01*
X0086161Y00914D01*
X0086183Y0091428D01*
X0086326D01*
X0086337Y0091439D01*
X0086363Y0091475D01*
X0086386Y0091513D01*
X0086405Y0091553D01*
X008642Y0091595D01*
X0086431Y0091639D01*
X0086438Y0091686D01*
X0086441Y0091734D01*
X008644Y0091785D01*
X0086436Y0091838D01*
X0086983Y0091401D01*
X0086927Y0091394D01*
X0086823Y0091373D01*
X0086775Y0091358D01*
X008673Y0091341D01*
X0086687Y0091322D01*
X0086647Y00913D01*
X008661Y0091275D01*
X0086575Y0091248D01*
X0086562Y0091236D01*
X0086735Y0091164D01*
X0086932Y0091138D01*
X0087129Y0091164D01*
X0087312Y009124D01*
X0087368Y0091283D01*
X0086842Y0091809D01*
X0087022Y0091989D01*
X0087548Y0091463D01*
X008759Y0091519D01*
X0087666Y0091702D01*
X0087692Y0091899D01*
X0087666Y0092096D01*
X008759Y0092279D01*
X008747Y0092437D01*
X0087403Y0092488D01*
Y0092648D01*
X0087431Y009267D01*
X0087439Y009268D01*
X0087519Y0092755D01*
X0087555Y0092784D01*
X008759Y009281D01*
X0087621Y0092829D01*
X008765Y0092844D01*
X0087674Y0092854D01*
X0087694Y0092861D01*
X0087706Y0092863D01*
X0087785D01*
X0088396Y0092253D01*
X0088495Y0092186D01*
X0088612Y0092163D01*
X0089896D01*
X0089905Y0092161D01*
X0089914Y0092158D01*
X0089923Y0092155D01*
X0089933Y009215D01*
X0089943Y0092144D01*
X0089953Y0092137D01*
X0089961Y009213D01*
X0089976Y0092108D01*
X0090141Y0091998D01*
X0090336Y0091959D01*
X0090531Y0091998D01*
X0090697Y0092108D01*
X0090711Y009213D01*
X0090719Y0092137D01*
X009073Y0092144D01*
X009074Y009215D01*
X0090749Y0092155D01*
X0090758Y0092158D01*
X0090767Y0092161D01*
X0090777Y0092163D01*
X0101012D01*
X0101012Y0092163D01*
X0101129Y0092186D01*
X0101228Y0092253D01*
X0103138Y0094163D01*
X0107062D01*
X010707Y0094161D01*
X0107077Y0094159D01*
X0107084Y0094156D01*
X0107091Y0094152D01*
X0107098Y0094147D01*
X0107106Y0094141D01*
X0107115Y0094132D01*
X010713Y0094116D01*
X010713Y0094116D01*
X0107151Y0094084D01*
X0107287Y0093993D01*
X0107271Y0093864D01*
X0107271Y0093863D01*
X0107179Y0093851D01*
X0107009Y009378D01*
X0106863Y0093668D01*
X0106805Y0093594D01*
X0106648D01*
X0106591Y0093668D01*
X0106445Y009378D01*
X0106275Y0093851D01*
X0106092Y0093875D01*
X0105909Y0093851D01*
X0105739Y009378D01*
X0105593Y0093668D01*
X010548Y0093522D01*
X010541Y0093352D01*
X0105386Y0093169D01*
X010541Y0092986D01*
X010548Y0092816D01*
X0105593Y009267D01*
X0105667Y0092612D01*
Y0092455D01*
X0105593Y0092398D01*
X010548Y0092252D01*
X010541Y0092082D01*
X0105386Y0091899D01*
X010541Y0091716D01*
X010548Y0091546D01*
X0105593Y00914D01*
X0105739Y0091287D01*
X0105909Y0091217D01*
X0106092Y0091193D01*
X0106275Y0091217D01*
X0106445Y0091287D01*
X0106591Y00914D01*
X0106648Y0091474D01*
X0106805D01*
X0106863Y00914D01*
X0107009Y0091287D01*
X0107179Y0091217D01*
X0107362Y0091193D01*
X0107545Y0091217D01*
X0107715Y0091287D01*
X0107861Y00914D01*
X0107883Y0091428D01*
X0108014D01*
X010796Y0091491D01*
X0107989Y0091523D01*
X0108016Y0091558D01*
X010804Y0091595D01*
X0108062Y0091635D01*
X0108081Y0091678D01*
X0108096Y0091723D01*
X010811Y0091771D01*
X010812Y0091822D01*
X0108128Y0091875D01*
X0108133Y009193D01*
X010859Y0091401D01*
X0108537Y0091403D01*
X0108485Y0091402D01*
X0108436Y0091398D01*
X0108389Y0091389D01*
X0108345Y0091377D01*
X0108302Y0091362D01*
X0108262Y0091342D01*
X0108225Y0091319D01*
X0108189Y0091293D01*
X0108186Y009129D01*
X0108252Y009124D01*
X0108435Y0091164D01*
X0108632Y0091138D01*
X0108829Y0091164D01*
X0109012Y009124D01*
X0109068Y0091283D01*
X0108542Y0091809D01*
X0108722Y0091989D01*
X0109248Y0091463D01*
X010929Y0091519D01*
X0109366Y0091702D01*
X0109392Y0091899D01*
X0109366Y0092096D01*
X010929Y0092279D01*
X010917Y0092437D01*
X0109103Y0092488D01*
Y0092648D01*
X0109131Y009267D01*
X0109243Y0092816D01*
X0109314Y0092986D01*
X0109338Y0093169D01*
X0109314Y0093352D01*
X0109243Y0093522D01*
X0109131Y0093668D01*
X0108985Y009378D01*
X0108815Y0093851D01*
X0108632Y0093875D01*
X0108449Y0093851D01*
X0108279Y009378D01*
X0108133Y0093668D01*
X0108075Y0093594D01*
X0107918D01*
X0107861Y0093668D01*
X0107715Y009378D01*
X0107608Y0093824D01*
X0107621Y0093956D01*
X0107707Y0093974D01*
X0107872Y0094084D01*
X0107894Y0094116D01*
X0107894Y0094116D01*
X0107909Y0094132D01*
X0107917Y0094141D01*
X0107925Y0094147D01*
X0107933Y0094152D01*
X010794Y0094156D01*
X0107947Y0094159D01*
X0107954Y0094161D01*
X0107961Y0094163D01*
X0109571D01*
X0109582Y0094107D01*
X0109659Y0093991D01*
X0109775Y0093914D01*
X0109912Y0093887D01*
X0110212D01*
X0110348Y0093914D01*
X0110464Y0093991D01*
X0110541Y0094107D01*
X0110569Y0094244D01*
Y0094694D01*
X0110541Y009483D01*
X0110464Y0094946D01*
X0110368Y0095011D01*
Y0095458D01*
X011048Y0095518D01*
X0110517Y0095493D01*
X0110712Y0095454D01*
X0112312D01*
X0112507Y0095493D01*
X0112672Y0095603D01*
X0112783Y0095769D01*
X0112822Y0095964D01*
X0112783Y0096159D01*
X0112672Y0096324D01*
X0112507Y0096435D01*
X0112312Y0096474D01*
X0111818D01*
Y0096724D01*
X0112312D01*
X0112507Y0096763D01*
X0112672Y0096873D01*
X0112783Y0097039D01*
X0112822Y0097234D01*
X0112783Y0097429D01*
X0112672Y0097594D01*
X0112507Y0097705D01*
X0112312Y0097744D01*
X0110712D01*
X0110517Y0097705D01*
X0110351Y0097594D01*
X0110241Y0097429D01*
X0110202Y0097234D01*
X0110241Y0097039D01*
X0110351Y0096873D01*
X0110517Y0096763D01*
X0110712Y0096724D01*
X0111206D01*
Y0096474D01*
X0110712D01*
X0110517Y0096435D01*
X0110351Y0096324D01*
X0110315Y009627D01*
X0110238D01*
X0110238Y009627D01*
X011012Y0096246D01*
X0110021Y009618D01*
X0110021Y009618D01*
X0109846Y0096004D01*
X0109779Y0095905D01*
X0109756Y0095788D01*
X0109756Y0095788D01*
Y0095011D01*
X0109659Y0094946D01*
X0109582Y009483D01*
X0109571Y0094775D01*
X0107941D01*
X010793Y0094777D01*
X0107918Y009478D01*
X0107907Y0094784D01*
X0107895Y0094789D01*
X0107883Y0094796D01*
X0107875Y00948D01*
X0107872Y0094805D01*
X0107842Y0094825D01*
X0107837Y0094829D01*
X0107832Y0094832D01*
X0107707Y0094916D01*
X0107512Y0094954D01*
X0107317Y0094916D01*
X0107192Y0094832D01*
X0107186Y0094829D01*
X0107181Y0094825D01*
X0107151Y0094805D01*
X0107148Y00948D01*
X0107141Y0094796D01*
X0107128Y0094789D01*
X0107117Y0094784D01*
X0107105Y009478D01*
X0107094Y0094777D01*
X0107083Y0094775D01*
X0103318D01*
Y0096046D01*
X0103328Y0096053D01*
X0103394Y0096152D01*
X0103418Y0096269D01*
Y0096549D01*
X0103394Y0096666D01*
X0103328Y0096765D01*
X0103229Y0096831D01*
X0103112Y0096855D01*
X0102912D01*
X0102795Y0096831D01*
X0102696Y0096765D01*
X0102629Y0096666D01*
X0102606Y0096549D01*
Y0096269D01*
X0102629Y0096152D01*
X0102696Y0096053D01*
X0102706Y0096046D01*
Y0094595D01*
X0100885Y0092775D01*
X0092881D01*
X0092867Y0092792D01*
X0092825Y0092902D01*
X0092892Y0093002D01*
X0092924Y009316D01*
Y009361D01*
X0092893Y0093763D01*
X0092891Y0093785D01*
X0092958Y009389D01*
X0093086D01*
X0092697Y0094279D01*
X0092877Y0094459D01*
X0093266Y0094069D01*
Y0095668D01*
X0092877Y0095279D01*
X0092697Y0095459D01*
X0093086Y0095848D01*
X0092443D01*
Y0095919D01*
X0092419Y0096036D01*
X0092353Y0096135D01*
X0091803Y0096685D01*
X0091704Y0096751D01*
X0091587Y0096775D01*
X0091587Y0096775D01*
X0087913D01*
X0087728Y009696D01*
X0087709Y0096973D01*
X008771Y0097D01*
X0087728Y0097021D01*
X0087841Y0097088D01*
X0087987Y0097059D01*
X0088182Y0097098D01*
X0088347Y0097208D01*
X0088397Y0097209D01*
X0088512Y0097096D01*
Y0096919D01*
X0089712D01*
Y0097238D01*
X009117D01*
X009117Y0097238D01*
X0091287Y0097261D01*
X0091386Y0097328D01*
X0091503Y0097445D01*
X0091503Y0097445D01*
X0091569Y0097544D01*
X0091593Y0097661D01*
X0091593Y0097661D01*
Y0098014D01*
X0091703Y0098125D01*
X0091703Y0098125D01*
X0091769Y0098224D01*
X0091793Y0098341D01*
X0091913Y0098344D01*
X0093212D01*
Y0100194D01*
X0093093D01*
Y0101117D01*
X0094317Y0102341D01*
X0094325Y0102346D01*
X0094333Y0102351D01*
X0094342Y0102355D01*
X0094352Y0102358D01*
X0094363Y0102361D01*
X0094376Y0102363D01*
X0094386Y0102364D01*
X0094412Y0102359D01*
X0094607Y0102398D01*
X0094772Y0102508D01*
X0094883Y0102674D01*
X0094922Y0102869D01*
X0094883Y0103064D01*
X00948Y0103188D01*
X0094808Y0103339D01*
X0094816Y0103353D01*
X0094925Y0103516D01*
X0094964Y0103711D01*
X0094925Y0103906D01*
X0094814Y0104071D01*
X0094649Y0104182D01*
X0094454Y0104221D01*
X0094259Y0104182D01*
X0094093Y0104071D01*
X0094079Y010405D01*
X0094071Y0104043D01*
X009406Y0104035D01*
X009405Y010403D01*
X0094041Y0104025D01*
X0094032Y0104021D01*
X0094022Y0104019D01*
X0094013Y0104017D01*
X0093554D01*
X0093554Y0104017D01*
X0093437Y0103993D01*
X0093337Y0103927D01*
X0093337Y0103927D01*
X0090596Y0101185D01*
X0090529Y0101086D01*
X0090506Y0100969D01*
X0090506Y0100969D01*
Y0100194D01*
X0090412D01*
Y0098344D01*
X009092D01*
X0090996Y0098217D01*
X0090981Y0098141D01*
X0090981Y0098141D01*
Y009785D01*
X0089712D01*
Y0098169D01*
X0088512D01*
Y0098041D01*
X0088397Y0097929D01*
X0088347Y0097929D01*
X0088182Y009804D01*
X0087987Y0098079D01*
X0087792Y009804D01*
X0087626Y0097929D01*
X0087603Y0097894D01*
X0087418D01*
Y0097944D01*
X0087394Y0098061D01*
X0087328Y009816D01*
X0087143Y0098345D01*
Y0098669D01*
X0087462D01*
Y0099869D01*
X0086669D01*
X0086318Y010022D01*
Y0102578D01*
X0086445Y0102646D01*
X0086517Y0102598D01*
X0086712Y0102559D01*
X0086907Y0102598D01*
X0087072Y0102708D01*
X0087183Y0102874D01*
X0087222Y0103069D01*
X0087183Y0103264D01*
X0087072Y0103429D01*
X0086907Y010354D01*
X0086712Y0103579D01*
X0086517Y010354D01*
X0086445Y0103492D01*
X0086318Y010356D01*
Y0103842D01*
X0088417Y0105941D01*
X0088425Y0105946D01*
X0088433Y0105951D01*
X0088442Y0105955D01*
X0088452Y0105958D01*
X0088463Y0105961D01*
X0088476Y0105963D01*
X0088486Y0105964D01*
X0088512Y0105959D01*
X0088707Y0105998D01*
X0088872Y0106108D01*
X0088983Y0106274D01*
X0089022Y0106469D01*
X0088983Y0106664D01*
X0088872Y0106829D01*
X0088707Y010694D01*
X0088512Y0106979D01*
X0088317Y010694D01*
X0088151Y0106829D01*
X0088106Y0106762D01*
X0087953D01*
X0087915Y0106819D01*
X008775Y0106929D01*
X0087555Y0106968D01*
X0087494Y0106956D01*
X0087352Y0107057D01*
X0087349Y0107085D01*
X0087526Y0107263D01*
X0099627D01*
X0102454Y0104436D01*
X0102454Y0104436D01*
X0102553Y010437D01*
X010267Y0104347D01*
X010267Y0104347D01*
X0104364D01*
X0104371Y0104336D01*
X010447Y010427D01*
X0104587Y0104247D01*
X0104677D01*
X0104707Y010415D01*
X0105152Y0103705D01*
X0104972Y0103525D01*
X0104549Y0103948D01*
X0104531Y0103922D01*
X01045Y0103765D01*
Y0103323D01*
X0104482Y0103307D01*
X0104381Y0103262D01*
X0104341Y0103302D01*
X0104241Y0103368D01*
X0104124Y0103392D01*
X0104124Y0103392D01*
X010307D01*
X010306Y0103394D01*
X0103051Y0103396D01*
X0103042Y01034D01*
X0103033Y0103405D01*
X0103023Y0103411D01*
X0103012Y0103418D01*
X0103004Y0103425D01*
X010299Y0103446D01*
X0102824Y0103557D01*
X0102629Y0103596D01*
X0102434Y0103557D01*
X0102269Y0103446D01*
X0102158Y0103281D01*
X0102119Y0103086D01*
X0102158Y0102891D01*
X0102269Y0102725D01*
X0102434Y0102615D01*
X0102629Y0102576D01*
X0102824Y0102615D01*
X010299Y0102725D01*
X0103004Y0102747D01*
X0103012Y0102754D01*
X0103023Y0102761D01*
X0103033Y0102767D01*
X0103042Y0102772D01*
X0103051Y0102775D01*
X010306Y0102778D01*
X010307Y010278D01*
X0103998D01*
X0104226Y0102552D01*
X0104173Y0102425D01*
X0096386D01*
X0096269Y0102401D01*
X0096169Y0102335D01*
X0096169Y0102335D01*
X0095719Y0101885D01*
X0095711Y0101879D01*
X0095703Y0101875D01*
X0095694Y0101871D01*
X0095684Y0101868D01*
X0095672Y0101865D01*
X009566Y0101863D01*
X0095649Y0101862D01*
X0095624Y0101867D01*
X0095429Y0101828D01*
X0095263Y0101717D01*
X0095153Y0101552D01*
X0095114Y0101357D01*
X0095153Y0101162D01*
X0095263Y0100996D01*
Y0100894D01*
X0095206Y0100855D01*
X0095192Y0100834D01*
X0095183Y0100827D01*
X0095173Y010082D01*
X0095163Y0100814D01*
X0095154Y0100809D01*
X0095144Y0100805D01*
X0095135Y0100803D01*
X0095126Y0100801D01*
X0095034D01*
X0095034Y0100801D01*
X0094917Y0100777D01*
X0094817Y0100711D01*
X0094713Y0100607D01*
X0094646Y0100507D01*
X0094623Y010039D01*
X0094623Y010039D01*
Y0099252D01*
X0094623Y0099252D01*
X0094646Y0099135D01*
X0094713Y0099035D01*
X0094916Y0098833D01*
X0094916Y0098833D01*
X0095015Y0098766D01*
X0095132Y0098743D01*
X0097097D01*
X0097097Y0098743D01*
X0097214Y0098766D01*
X0097313Y0098833D01*
X0099532Y0101051D01*
X0102966D01*
X0103005Y0100924D01*
X0102966Y0100898D01*
X0102952Y0100877D01*
X0102944Y010087D01*
X0102933Y0100862D01*
X0102924Y0100856D01*
X0102914Y0100852D01*
X0102905Y0100848D01*
X0102896Y0100845D01*
X0102886Y0100843D01*
X0101296D01*
X0101296Y0100843D01*
X0101179Y010082D01*
X010108Y0100754D01*
X010108Y0100754D01*
X0100669Y0100343D01*
X0100603Y0100243D01*
X0100579Y0100126D01*
X0100579Y0100126D01*
Y0099669D01*
X0100435D01*
Y0098869D01*
X0101335D01*
Y0099669D01*
X0101191D01*
Y01D01*
X0101423Y0100232D01*
X0102886D01*
X0102896Y010023D01*
X0102905Y0100227D01*
X0102914Y0100223D01*
X0102924Y0100219D01*
X0102933Y0100213D01*
X0102944Y0100205D01*
X0102952Y0100199D01*
X0102966Y0100177D01*
X0103132Y0100067D01*
X0103327Y0100028D01*
X0103522Y0100067D01*
X0103685Y0100175D01*
X0103756Y0100162D01*
X0103784Y0100156D01*
X0103785Y0100155D01*
X0103794Y0100147D01*
X01038Y0100141D01*
X0103804Y0100136D01*
X0103806Y0100132D01*
X0103812Y010012D01*
Y0099874D01*
X0105012D01*
Y0101051D01*
X0107197D01*
X0107944Y0100304D01*
X0107863Y0100205D01*
X0107856Y010021D01*
X0107728Y0100296D01*
X0107512Y0100339D01*
X0105912D01*
X0105696Y0100296D01*
X010562Y0100245D01*
X0106002Y0099864D01*
X0105912Y0099774D01*
X0106002Y0099684D01*
X010562Y0099302D01*
X0105696Y0099252D01*
X0105912Y0099209D01*
X0107512D01*
X0107728Y0099252D01*
X0107804Y0099302D01*
X0107422Y0099684D01*
X0107602Y0099864D01*
X0107983Y0099482D01*
X0108034Y0099558D01*
X0108049Y0099634D01*
X0108176Y0099622D01*
Y009754D01*
X0107909D01*
X0107872Y0097594D01*
X0107707Y0097705D01*
X0107512Y0097744D01*
X0105912D01*
X0105717Y0097705D01*
X0105551Y0097594D01*
X0105441Y0097429D01*
X0105402Y0097234D01*
X0105441Y0097039D01*
X0105551Y0096873D01*
X0105717Y0096763D01*
X0105912Y0096724D01*
X0107512D01*
X0107707Y0096763D01*
X0107872Y0096873D01*
X0107909Y0096928D01*
X0108335D01*
X0108335Y0096928D01*
X0108452Y0096951D01*
X0108552Y0097018D01*
X0108698Y0097164D01*
X0108698Y0097164D01*
X0108764Y0097263D01*
X0108788Y009738D01*
Y0099834D01*
X0108915Y0099887D01*
X0109281Y0099521D01*
Y0098359D01*
X0109279Y009835D01*
X0109276Y0098341D01*
X0109273Y0098332D01*
X0109268Y0098322D01*
X0109262Y0098312D01*
X0109255Y0098302D01*
X0109248Y0098294D01*
X0109226Y0098279D01*
X0109116Y0098114D01*
X0109077Y0097919D01*
X0109116Y0097724D01*
X0109226Y0097558D01*
X0109392Y0097448D01*
X0109587Y0097409D01*
X0109782Y0097448D01*
X0109947Y0097558D01*
X0110058Y0097724D01*
X0110097Y0097919D01*
X0110066Y0098071D01*
X0110143Y0098198D01*
X0110315D01*
X0110351Y0098143D01*
X0110517Y0098033D01*
X0110712Y0097994D01*
X0112312D01*
X0112507Y0098033D01*
X0112672Y0098143D01*
X0112783Y0098309D01*
X0112822Y0098504D01*
X0112783Y0098699D01*
X0112672Y0098864D01*
X0112507Y0098975D01*
X0112312Y0099014D01*
X0110712D01*
X0110517Y0098975D01*
X0110351Y0098864D01*
X0110315Y009881D01*
X0109893D01*
Y0099385D01*
X011002Y0099476D01*
X0110062Y0099468D01*
X0110315D01*
X0110351Y0099413D01*
X0110517Y0099303D01*
X0110712Y0099264D01*
X0112312D01*
X0112507Y0099303D01*
X0112672Y0099413D01*
X0112783Y0099579D01*
X0112822Y0099774D01*
X0112783Y0099969D01*
X0112672Y0100134D01*
X0112507Y0100245D01*
X0112312Y0100284D01*
X0110712D01*
X0110517Y0100245D01*
X0110351Y0100134D01*
X0110315Y010008D01*
X0110188D01*
X0109369Y0100899D01*
X0110228Y0101758D01*
X0110228Y0101758D01*
X0110294Y0101857D01*
X0110318Y0101974D01*
X0110318Y0101974D01*
Y0102128D01*
X011032Y0102138D01*
X0110322Y0102147D01*
X0110326Y0102156D01*
X0110331Y0102165D01*
X0110337Y0102175D01*
X0110344Y0102186D01*
X0110351Y0102194D01*
X0110372Y0102208D01*
X0110483Y0102374D01*
X0110522Y0102569D01*
X0110483Y0102764D01*
X0110372Y0102929D01*
X0110207Y010304D01*
X0110012Y0103079D01*
X0109817Y010304D01*
X0109651Y0102929D01*
X0109541Y0102764D01*
X0109527Y0102696D01*
X0109472Y0102681D01*
X0109395Y0102683D01*
X0109297Y0102829D01*
X0109132Y010294D01*
X0108937Y0102979D01*
X0108742Y010294D01*
X0108576Y0102829D01*
X0108466Y0102664D01*
X0108427Y0102469D01*
X0108466Y0102274D01*
X0108576Y0102108D01*
X0108742Y0101998D01*
X0108937Y0101959D01*
X0109132Y0101998D01*
X0109297Y0102108D01*
X0109408Y0102274D01*
X0109421Y0102341D01*
X0109477Y0102356D01*
X0109553Y0102355D01*
X0109651Y0102208D01*
X0109655Y0102206D01*
X0109679Y0102073D01*
X0108937Y0101331D01*
X0107945Y0102323D01*
X0107846Y0102389D01*
X0107729Y0102412D01*
X0107729Y0102412D01*
X0106767D01*
X0106714Y0102539D01*
X0106778Y0102603D01*
X0106778Y0102603D01*
X0106844Y0102702D01*
X0106868Y010282D01*
X0106868Y010282D01*
Y0102998D01*
X0106964Y0103062D01*
X0107041Y0103178D01*
X0107053Y0103234D01*
X0109601D01*
X0109601Y0103234D01*
X0109718Y0103257D01*
X0109817Y0103324D01*
X0109934Y0103441D01*
X0109934Y0103441D01*
X0110001Y010354D01*
X0110024Y0103657D01*
X0110024Y0103657D01*
Y0104537D01*
X0110026Y0104549D01*
X0110032Y0104569D01*
X0110043Y0104593D01*
X0110057Y0104621D01*
X0110077Y0104653D01*
X0110101Y0104686D01*
X0110171Y0104768D01*
X0110205Y0104802D01*
X0110217Y0104812D01*
X0110239Y010484D01*
X0110349D01*
X0110347Y0104842D01*
X0110377Y0104876D01*
X0110404Y0104911D01*
X0110427Y0104949D01*
X0110447Y0104989D01*
X0110463Y0105032D01*
X0110475Y0105076D01*
X0110484Y0105123D01*
X0110489Y0105173D01*
X0110491Y0105224D01*
X0110489Y0105278D01*
X0111011Y0104812D01*
X0110956Y0104808D01*
X0110903Y0104801D01*
X0110852Y0104791D01*
X0110804Y0104778D01*
X0110759Y0104763D01*
X0110717Y0104745D01*
X0110676Y0104723D01*
X0110639Y0104699D01*
X0110604Y0104672D01*
X0110594Y0104663D01*
X0110608Y0104652D01*
X0110791Y0104576D01*
X0110988Y0104551D01*
X0111185Y0104576D01*
X0111368Y0104652D01*
X0111424Y0104695D01*
X0110898Y0105221D01*
X0111078Y0105401D01*
X0111639Y010484D01*
X0111737D01*
X0111759Y0104812D01*
X0111905Y01047D01*
X0112075Y0104629D01*
X0112258Y0104605D01*
X0112441Y0104629D01*
X0112611Y01047D01*
X0112757Y0104812D01*
X011287Y0104958D01*
X011294Y0105128D01*
X0112964Y0105311D01*
X011294Y0105494D01*
X011287Y0105664D01*
X0112757Y010581D01*
X0112683Y0105867D01*
Y0106025D01*
X0112757Y0106082D01*
X011287Y0106228D01*
X011294Y0106398D01*
X0112964Y0106581D01*
X011294Y0106764D01*
X011287Y0106934D01*
X0112757Y010708D01*
X0112611Y0107193D01*
X0112441Y0107263D01*
X0112258Y0107287D01*
X0112075Y0107263D01*
X0111905Y0107193D01*
X0111759Y010708D01*
X0111702Y0107006D01*
X0111544D01*
X0111487Y010708D01*
X0111341Y0107193D01*
X0111171Y0107263D01*
X0110988Y0107287D01*
X0110805Y0107263D01*
X0110635Y0107193D01*
X0110489Y010708D01*
X0110477Y0107065D01*
X0110336Y0107066D01*
X0110339Y0107092D01*
X011038Y0107207D01*
X0110448Y0107253D01*
X0110781Y0107585D01*
X0110791Y0107592D01*
X0110809Y0107602D01*
X0110834Y0107612D01*
X0110864Y0107621D01*
X0110901Y010763D01*
X011094Y0107636D01*
X0111048Y0107644D01*
X0111096Y0107645D01*
X0111112Y0107643D01*
X0111295Y0107667D01*
X0111465Y0107737D01*
X0111611Y010785D01*
X0111723Y0107996D01*
X0111794Y0108166D01*
X0111818Y0108349D01*
X0111794Y0108532D01*
X0111723Y0108702D01*
X0111611Y0108848D01*
X0111583Y010887D01*
Y0108968D01*
X0111571Y010898D01*
X0111555Y0108963D01*
X0111521Y0108995D01*
X0111485Y0109023D01*
X0111447Y0109048D01*
X0111407Y0109069D01*
X0111366Y0109086D01*
X0111323Y01091D01*
X0111278Y010911D01*
X0111232Y0109117D01*
X0111184Y010912D01*
X0111134Y0109119D01*
X0111283Y0109268D01*
X0111022Y0109529D01*
X0110461Y011009D01*
X0110363D01*
X0110341Y0110118D01*
X0110195Y011023D01*
X0110025Y0110301D01*
X0109842Y0110325D01*
D02*
G37*
G36*
X0111112Y0110379D02*
X0110915Y0110353D01*
X0110732Y0110277D01*
X0110676Y0110235D01*
X0111202Y0109709D01*
X0111462Y0109448D01*
X0111611Y0109597D01*
X0111611Y0109547D01*
X0111614Y0109499D01*
X0111621Y0109452D01*
X0111631Y0109407D01*
X0111645Y0109364D01*
X0111662Y0109323D01*
X0111683Y0109284D01*
X0111708Y0109246D01*
X0111736Y010921D01*
X0111743Y0109202D01*
X011177Y0109239D01*
X0111846Y0109422D01*
X0111872Y0109619D01*
X0111846Y0109816D01*
X011177Y0109999D01*
X011165Y0110157D01*
X0111492Y0110277D01*
X0111309Y0110353D01*
X0111112Y0110379D01*
D02*
G37*
G36*
X0102612Y0108859D02*
X0102417Y010882D01*
X0102251Y0108709D01*
X0102141Y0108544D01*
X0102102Y0108349D01*
X0102141Y0108154D01*
X0102251Y0107988D01*
X0102417Y0107878D01*
X0102612Y0107839D01*
X0102807Y0107878D01*
X0102972Y0107988D01*
X0103083Y0108154D01*
X0103122Y0108349D01*
X0103083Y0108544D01*
X0102972Y0108709D01*
X0102807Y010882D01*
X0102612Y0108859D01*
D02*
G37*
G36*
X0083306Y0107287D02*
X0083123Y0107263D01*
X0082953Y0107193D01*
X0082807Y010708D01*
X008275Y0107006D01*
X0082592D01*
X0082535Y010708D01*
X0082389Y0107193D01*
X0082219Y0107263D01*
X0082036Y0107287D01*
X0081853Y0107263D01*
X0081683Y0107193D01*
X0081537Y010708D01*
X008148Y0107006D01*
X0081322D01*
X0081265Y010708D01*
X0081119Y0107193D01*
X0080949Y0107263D01*
X0080766Y0107287D01*
X0080583Y0107263D01*
X0080413Y0107193D01*
X0080267Y010708D01*
X0080155Y0106934D01*
X0080084Y0106764D01*
X008006Y0106581D01*
X0080084Y0106398D01*
X0080155Y0106228D01*
X0080267Y0106082D01*
X0080341Y0106025D01*
Y0105867D01*
X0080267Y010581D01*
X0080155Y0105664D01*
X0080084Y0105494D01*
X008006Y0105311D01*
X0080084Y0105128D01*
X0080155Y0104958D01*
X0080267Y0104812D01*
X0080413Y01047D01*
X0080583Y0104629D01*
X0080766Y0104605D01*
X0080949Y0104629D01*
X0081119Y01047D01*
X0081265Y0104812D01*
X0081322Y0104886D01*
X008148D01*
X0081537Y0104812D01*
X0081683Y01047D01*
X0081853Y0104629D01*
X0082036Y0104605D01*
X0082219Y0104629D01*
X0082389Y01047D01*
X0082535Y0104812D01*
X0082592Y0104886D01*
X008275D01*
X0082807Y0104812D01*
X0082953Y01047D01*
X0083123Y0104629D01*
X0083306Y0104605D01*
X0083489Y0104629D01*
X0083659Y01047D01*
X0083805Y0104812D01*
X0083918Y0104958D01*
X0083988Y0105128D01*
X0084012Y0105311D01*
X0083988Y0105494D01*
X0083918Y0105664D01*
X0083805Y010581D01*
X0083731Y0105867D01*
Y0106025D01*
X0083805Y0106082D01*
X0083918Y0106228D01*
X0083988Y0106398D01*
X0084012Y0106581D01*
X0083988Y0106764D01*
X0083918Y0106934D01*
X0083805Y010708D01*
X0083659Y0107193D01*
X0083489Y0107263D01*
X0083306Y0107287D01*
D02*
G37*
G36*
X0096512Y0106079D02*
X0096317Y010604D01*
X0096151Y0105929D01*
X0096137Y0105908D01*
X0096129Y0105901D01*
X0096118Y0105894D01*
X0096108Y0105888D01*
X0096099Y0105883D01*
X009609Y0105879D01*
X0096081Y0105877D01*
X0096071Y0105875D01*
X0090062D01*
X0090062Y0105875D01*
X0089945Y0105851D01*
X0089846Y0105785D01*
X0089845Y0105785D01*
X0089296Y0105235D01*
X0089229Y0105136D01*
X0089206Y0105019D01*
X0089206Y0105019D01*
Y0104859D01*
X0089204Y0104851D01*
X008917Y0104828D01*
X008914Y0104815D01*
X0089123Y0104811D01*
X0089067Y0104801D01*
X0088935Y010489D01*
X008874Y0104929D01*
X0088545Y010489D01*
X0088434Y0104816D01*
X0088272Y0104829D01*
X0088107Y010494D01*
X0087912Y0104979D01*
X0087717Y010494D01*
X0087551Y0104829D01*
X0087441Y0104664D01*
X0087402Y0104469D01*
X0087441Y0104274D01*
X0087551Y0104108D01*
X0087717Y0103998D01*
X0087912Y0103959D01*
X0088107Y0103998D01*
X0088272Y0104108D01*
X0088388Y0104053D01*
X0088545Y0103948D01*
X008874Y0103909D01*
X0088935Y0103948D01*
X00891Y0104058D01*
X0089151D01*
X0089317Y0103948D01*
X0089512Y0103909D01*
X0089707Y0103948D01*
X0089838Y0104036D01*
X0089924Y010405D01*
X009001Y0104036D01*
X0090141Y0103948D01*
X0090336Y0103909D01*
X0090531Y0103948D01*
X0090593Y0103989D01*
X0090751Y0103981D01*
X0090917Y010387D01*
X0091112Y0103831D01*
X0091307Y010387D01*
X0091472Y010398D01*
X0091526Y0103899D01*
X0091692Y0103789D01*
X0091887Y010375D01*
X0092082Y0103789D01*
X0092247Y0103899D01*
X0092358Y0104065D01*
X0092397Y010426D01*
X0092359Y0104448D01*
X0092358Y010447D01*
X0092423Y0104575D01*
X0100571D01*
X0100581Y0104573D01*
X010059Y0104571D01*
X0100599Y0104567D01*
X0100608Y0104562D01*
X0100618Y0104556D01*
X0100629Y0104549D01*
X0100637Y0104542D01*
X0100651Y0104521D01*
X0100817Y010441D01*
X0101012Y0104371D01*
X0101207Y010441D01*
X0101372Y0104521D01*
X0101483Y0104686D01*
X0101522Y0104881D01*
X0101483Y0105076D01*
X0101372Y0105242D01*
X0101207Y0105352D01*
X0101012Y0105391D01*
X0100817Y0105352D01*
X0100651Y0105242D01*
X0100637Y010522D01*
X0100629Y0105213D01*
X0100618Y0105206D01*
X0100608Y01052D01*
X0100599Y0105195D01*
X010059Y0105192D01*
X0100581Y0105189D01*
X0100571Y0105187D01*
X0097011D01*
X0096943Y0105314D01*
X0096983Y0105374D01*
X0097022Y0105569D01*
X0096983Y0105764D01*
X0096872Y0105929D01*
X0096707Y010604D01*
X0096512Y0106079D01*
D02*
G37*
G36*
X0110912Y0102179D02*
X0110717Y010214D01*
X0110551Y0102029D01*
X0110441Y0101864D01*
X0110402Y0101669D01*
X0110441Y0101474D01*
X0110551Y0101308D01*
X0110717Y0101198D01*
X0110912Y0101159D01*
X0111107Y0101198D01*
X0111272Y0101308D01*
X0111383Y0101474D01*
X0111422Y0101669D01*
X0111383Y0101864D01*
X0111272Y0102029D01*
X0111107Y010214D01*
X0110912Y0102179D01*
D02*
G37*
G36*
X0083012Y0100979D02*
X0082817Y010094D01*
X0082651Y0100829D01*
X0082541Y0100664D01*
X0082502Y0100469D01*
X0082541Y0100274D01*
X0082651Y0100108D01*
X0082817Y0099998D01*
X0083012Y0099959D01*
X0083207Y0099998D01*
X0083372Y0100108D01*
X0083483Y0100274D01*
X0083522Y0100469D01*
X0083483Y0100664D01*
X0083372Y0100829D01*
X0083207Y010094D01*
X0083012Y0100979D01*
D02*
G37*
G36*
X010544Y0100066D02*
X010539Y009999D01*
X0105347Y0099774D01*
X010539Y0099558D01*
X010544Y0099482D01*
X0105732Y0099774D01*
X010544Y0100066D01*
D02*
G37*
G36*
X0089586Y0099673D02*
X0088637D01*
X0089112Y0099198D01*
X0089586Y0099673D01*
D02*
G37*
G36*
X0089112Y0099019D02*
X0089087Y0098994D01*
X0089112Y0098969D01*
X0089137Y0098994D01*
X0089112Y0099019D01*
D02*
G37*
G36*
X0100035Y0099669D02*
X0099135D01*
Y0098869D01*
X0099135D01*
X0099162Y0098802D01*
X0096335Y0095975D01*
X0095252D01*
X0095243Y0095977D01*
X0095234Y0095979D01*
X0095225Y0095983D01*
X0095215Y0095988D01*
X0095205Y0095994D01*
X0095195Y0096001D01*
X0095187Y0096008D01*
X0095172Y0096029D01*
X0095007Y009614D01*
X0094812Y0096179D01*
X0094617Y009614D01*
X0094451Y0096029D01*
X0094341Y0095864D01*
X0094302Y0095669D01*
X0094341Y0095474D01*
X0094451Y0095308D01*
X0094617Y0095198D01*
X0094812Y0095159D01*
X0095007Y0095198D01*
X0095172Y0095308D01*
X0095187Y009533D01*
X0095195Y0095337D01*
X0095205Y0095344D01*
X0095215Y009535D01*
X0095225Y0095355D01*
X0095234Y0095358D01*
X0095243Y0095361D01*
X0095252Y0095363D01*
X0096462D01*
X0096462Y0095363D01*
X0096579Y0095386D01*
X0096678Y0095453D01*
X0099801Y0098576D01*
X0099868Y0098675D01*
X0099891Y0098792D01*
Y0098869D01*
X0100035D01*
Y0099669D01*
D02*
G37*
G36*
X0088458Y0099493D02*
Y0098494D01*
X0088957Y0098994D01*
X0088458Y0099493D01*
D02*
G37*
G36*
X0089766Y0099493D02*
X0089266Y0098994D01*
X0089766Y0098494D01*
Y0099493D01*
D02*
G37*
G36*
X0089112Y0098789D02*
X0088637Y0098315D01*
X0089586D01*
X0089112Y0098789D01*
D02*
G37*
G36*
X0105012Y0099674D02*
X0103812D01*
Y0098424D01*
X0103812D01*
Y0098319D01*
X0103812D01*
Y0098035D01*
X0103362D01*
X0103328Y0098085D01*
X0103229Y0098151D01*
X0103112Y0098175D01*
X0102912D01*
X0102795Y0098151D01*
X0102696Y0098085D01*
X0102629Y0097986D01*
X0102606Y0097869D01*
Y0097589D01*
X0102629Y0097472D01*
X0102696Y0097373D01*
X0102795Y0097306D01*
X0102912Y0097283D01*
X0103112D01*
X0103229Y0097306D01*
X0103328Y0097373D01*
X0103362Y0097423D01*
X0103812D01*
Y0097069D01*
X0105012D01*
Y0098063D01*
X0105212D01*
X0105212Y0098063D01*
X0105329Y0098086D01*
X0105428Y0098153D01*
X0105551Y0098143D01*
X0105717Y0098033D01*
X0105912Y0097994D01*
X0107512D01*
X0107707Y0098033D01*
X0107872Y0098143D01*
X0107983Y0098309D01*
X0108022Y0098504D01*
X0107983Y0098699D01*
X0107872Y0098864D01*
X0107707Y0098975D01*
X0107512Y0099014D01*
X0105912D01*
X0105717Y0098975D01*
X0105551Y0098864D01*
X0105515Y009881D01*
X0105347D01*
X0105347Y009881D01*
X010523Y0098786D01*
X0105139Y0098726D01*
X0105105Y0098733D01*
X0105012Y0098781D01*
Y0099674D01*
D02*
G37*
G36*
X0104886Y0096923D02*
X0103937D01*
X0104412Y0096448D01*
X0104886Y0096923D01*
D02*
G37*
G36*
X0104412Y0096269D02*
X0104387Y0096244D01*
X0104412Y0096219D01*
X0104437Y0096244D01*
X0104412Y0096269D01*
D02*
G37*
G36*
X0101312Y0097777D02*
X0101064Y0097744D01*
X0100833Y0097649D01*
X0100634Y0097496D01*
X0100482Y0097298D01*
X0100386Y0097067D01*
X0100354Y0096819D01*
X0100386Y0096571D01*
X0100482Y009634D01*
X0100634Y0096141D01*
X0100833Y0095989D01*
X0101064Y0095893D01*
X0101312Y0095861D01*
X010156Y0095893D01*
X0101791Y0095989D01*
X0101989Y0096141D01*
X0102142Y009634D01*
X0102237Y0096571D01*
X010227Y0096819D01*
X0102237Y0097067D01*
X0102142Y0097298D01*
X0101989Y0097496D01*
X0101791Y0097649D01*
X010156Y0097744D01*
X0101312Y0097777D01*
D02*
G37*
G36*
X0103758Y0096743D02*
Y0095744D01*
X0104257Y0096244D01*
X0103758Y0096743D01*
D02*
G37*
G36*
X0105066Y0096743D02*
X0104566Y0096244D01*
X0105066Y0095744D01*
Y0096743D01*
D02*
G37*
G36*
X0104412Y0096039D02*
X0103937Y0095565D01*
X0104886D01*
X0104412Y0096039D01*
D02*
G37*
G36*
X0107512Y0096474D02*
X0105912D01*
X0105717Y0096435D01*
X0105551Y0096324D01*
X0105441Y0096159D01*
X0105402Y0095964D01*
X0105441Y0095769D01*
X0105551Y0095603D01*
X0105717Y0095493D01*
X0105912Y0095454D01*
X0107512D01*
X0107707Y0095493D01*
X0107856Y0095593D01*
X0107944Y0095505D01*
X0108043Y0095439D01*
X010816Y0095415D01*
X0108396D01*
X0108406Y0095413D01*
X0108415Y0095411D01*
X0108424Y0095407D01*
X0108433Y0095402D01*
X0108443Y0095396D01*
X0108454Y0095389D01*
X0108462Y0095382D01*
X0108476Y0095361D01*
X0108642Y009525D01*
X0108837Y0095211D01*
X0109032Y009525D01*
X0109197Y0095361D01*
X0109308Y0095526D01*
X0109347Y0095721D01*
X0109308Y0095916D01*
X0109197Y0096082D01*
X0109032Y0096192D01*
X0108837Y0096231D01*
X0108642Y0096192D01*
X0108476Y0096082D01*
X0108462Y009606D01*
X0108454Y0096053D01*
X0108443Y0096046D01*
X0108433Y009604D01*
X0108424Y0096035D01*
X0108415Y0096032D01*
X0108406Y0096029D01*
X0108396Y0096027D01*
X0108287D01*
X0108134Y009618D01*
X0108035Y0096246D01*
X0107918Y009627D01*
X0107918Y009627D01*
X0107909D01*
X0107872Y0096324D01*
X0107707Y0096435D01*
X0107512Y0096474D01*
D02*
G37*
G36*
X0111712Y0095106D02*
X0111412D01*
X0111254Y0095074D01*
X0111228Y0095057D01*
X0111562Y0094723D01*
X0111895Y0095057D01*
X0111869Y0095074D01*
X0111712Y0095106D01*
D02*
G37*
G36*
X0111562Y0094544D02*
X0111487Y0094469D01*
X0111562Y0094394D01*
X0111637Y0094469D01*
X0111562Y0094544D01*
D02*
G37*
G36*
X0112075Y0094877D02*
X0111666Y0094469D01*
X0112075Y009406D01*
X0112092Y0094086D01*
X0112124Y0094244D01*
Y0094694D01*
X0112092Y0094851D01*
X0112075Y0094877D01*
D02*
G37*
G36*
X0111049Y0094877D02*
X0111031Y0094851D01*
X0111Y0094694D01*
Y0094244D01*
X0111031Y0094086D01*
X0111049Y009406D01*
X0111457Y0094469D01*
X0111049Y0094877D01*
D02*
G37*
G36*
X0111562Y0094214D02*
X0111228Y0093881D01*
X0111254Y0093863D01*
X0111412Y0093832D01*
X0111712D01*
X0111869Y0093863D01*
X0111895Y0093881D01*
X0111562Y0094214D01*
D02*
G37*
%LPD*%
G36*
X0084432Y0110759D02*
X0084411Y0110763D01*
X008439Y0110763D01*
X0084367Y011076D01*
X0084344Y0110753D01*
X0084319Y0110742D01*
X0084293Y0110728D01*
X0084266Y011071D01*
X0084238Y0110688D01*
X0084209Y0110662D01*
X0084179Y0110633D01*
X0083966Y0110846D01*
X0083995Y0110876D01*
X0084043Y0110933D01*
X0084061Y011096D01*
X0084075Y0110986D01*
X0084086Y0111011D01*
X0084093Y0111034D01*
X0084096Y0111057D01*
X0084096Y0111078D01*
X0084092Y0111099D01*
X0084432Y0110759D01*
D02*
G37*
G36*
X0111107Y0107849D02*
X0111039Y0107848D01*
X0110916Y0107839D01*
X0110862Y010783D01*
X0110811Y0107818D01*
X0110765Y0107804D01*
X0110723Y0107787D01*
X0110686Y0107767D01*
X0110653Y0107745D01*
X0110624Y010772D01*
X0110483Y0107861D01*
X0110508Y010789D01*
X011053Y0107923D01*
X011055Y010796D01*
X0110567Y0108002D01*
X0110581Y0108048D01*
X0110593Y0108099D01*
X0110602Y0108153D01*
X0110608Y0108212D01*
X0110612Y0108344D01*
X0111107Y0107849D01*
D02*
G37*
G36*
X0103648Y0107008D02*
X010367Y0106989D01*
X0103694Y0106973D01*
X0103718Y0106958D01*
X0103742Y0106946D01*
X0103767Y0106936D01*
X0103793Y0106929D01*
X010382Y0106923D01*
X0103847Y010692D01*
X0103875Y0106919D01*
Y0106719D01*
X0103847Y0106718D01*
X010382Y0106714D01*
X0103793Y0106709D01*
X0103767Y0106701D01*
X0103742Y0106691D01*
X0103718Y0106679D01*
X0103694Y0106665D01*
X010367Y0106648D01*
X0103648Y010663D01*
X0103626Y0106609D01*
Y0107029D01*
X0103648Y0107008D01*
D02*
G37*
G36*
X0088509Y0106169D02*
X0088479Y0106168D01*
X0088449Y0106165D01*
X0088421Y0106161D01*
X0088394Y0106154D01*
X0088368Y0106145D01*
X0088344Y0106134D01*
X008832Y0106121D01*
X0088297Y0106107D01*
X0088276Y010609D01*
X0088255Y0106071D01*
X0088114Y0106212D01*
X0088133Y0106233D01*
X008815Y0106254D01*
X0088164Y0106277D01*
X0088177Y0106301D01*
X0088188Y0106325D01*
X0088197Y0106351D01*
X0088204Y0106378D01*
X0088208Y0106406D01*
X0088211Y0106436D01*
X0088212Y0106466D01*
X0088509Y0106169D01*
D02*
G37*
G36*
X0087552Y0106158D02*
X0087522Y0106158D01*
X0087493Y0106155D01*
X0087464Y010615D01*
X0087437Y0106143D01*
X0087412Y0106135D01*
X0087387Y0106124D01*
X0087363Y0106111D01*
X008734Y0106096D01*
X0087319Y0106079D01*
X0087298Y010606D01*
X0087157Y0106202D01*
X0087176Y0106222D01*
X0087193Y0106244D01*
X0087208Y0106266D01*
X008722Y010629D01*
X0087231Y0106315D01*
X008724Y0106341D01*
X0087247Y0106368D01*
X0087252Y0106396D01*
X0087254Y0106425D01*
X0087255Y0106455D01*
X0087552Y0106158D01*
D02*
G37*
G36*
X0110021Y0104906D02*
X0109941Y0104812D01*
X0109908Y0104767D01*
X0109881Y0104723D01*
X0109858Y0104681D01*
X0109841Y0104639D01*
X0109828Y0104599D01*
X0109821Y0104559D01*
X0109818Y0104521D01*
X0109618D01*
X0109616Y0104559D01*
X0109608Y0104599D01*
X0109596Y0104639D01*
X0109578Y0104681D01*
X0109556Y0104723D01*
X0109528Y0104767D01*
X0109496Y0104812D01*
X0109458Y0104858D01*
X0109368Y0104954D01*
X0110068D01*
X0110021Y0104906D01*
D02*
G37*
G36*
X009424Y0103501D02*
X0094218Y0103522D01*
X0094195Y010354D01*
X0094172Y0103557D01*
X0094148Y0103571D01*
X0094123Y0103583D01*
X0094098Y0103593D01*
X0094072Y0103601D01*
X0094046Y0103606D01*
X0094019Y010361D01*
X0093991Y0103611D01*
X0093991Y0103811D01*
X0094019Y0103812D01*
X0094046Y0103815D01*
X0094072Y0103821D01*
X0094098Y0103828D01*
X0094123Y0103838D01*
X0094148Y010385D01*
X0094172Y0103865D01*
X0094195Y0103881D01*
X0094218Y01039D01*
X009424Y0103921D01*
X009424Y0103501D01*
D02*
G37*
G36*
X0102865Y0103275D02*
X0102888Y0103256D01*
X0102911Y010324D01*
X0102935Y0103225D01*
X010296Y0103213D01*
X0102985Y0103203D01*
X0103011Y0103196D01*
X0103037Y010319D01*
X0103064Y0103187D01*
X0103092Y0103186D01*
Y0102986D01*
X0103064Y0102985D01*
X0103037Y0102981D01*
X0103011Y0102976D01*
X0102985Y0102968D01*
X010296Y0102958D01*
X0102935Y0102946D01*
X0102911Y0102932D01*
X0102888Y0102915D01*
X0102865Y0102897D01*
X0102843Y0102876D01*
Y0103296D01*
X0102865Y0103275D01*
D02*
G37*
G36*
X0094409Y0102569D02*
X0094379Y0102568D01*
X0094349Y0102565D01*
X0094321Y0102561D01*
X0094294Y0102554D01*
X0094268Y0102545D01*
X0094244Y0102534D01*
X009422Y0102521D01*
X0094197Y0102507D01*
X0094176Y010249D01*
X0094155Y0102471D01*
X0094014Y0102612D01*
X0094033Y0102633D01*
X009405Y0102654D01*
X0094064Y0102677D01*
X0094077Y0102701D01*
X0094088Y0102725D01*
X0094097Y0102751D01*
X0094104Y0102778D01*
X0094108Y0102806D01*
X0094111Y0102836D01*
X0094112Y0102866D01*
X0094409Y0102569D01*
D02*
G37*
G36*
X0110201Y0102333D02*
X0110182Y010231D01*
X0110166Y0102287D01*
X0110151Y0102263D01*
X0110139Y0102239D01*
X0110129Y0102213D01*
X0110122Y0102187D01*
X0110116Y0102161D01*
X0110113Y0102134D01*
X0110112Y0102106D01*
X0109912D01*
X0109911Y0102134D01*
X0109907Y0102161D01*
X0109902Y0102187D01*
X0109894Y0102213D01*
X0109884Y0102239D01*
X0109872Y0102263D01*
X0109858Y0102287D01*
X0109841Y010231D01*
X0109823Y0102333D01*
X0109802Y0102355D01*
X0110222D01*
X0110201Y0102333D01*
D02*
G37*
G36*
X0096022Y0101613D02*
X0096003Y0101593D01*
X0095986Y0101571D01*
X0095971Y0101549D01*
X0095958Y0101525D01*
X0095947Y01015D01*
X0095939Y0101474D01*
X0095932Y0101447D01*
X0095927Y0101419D01*
X0095924Y010139D01*
X0095924Y010136D01*
X0095627Y0101657D01*
X0095657Y0101658D01*
X0095686Y010166D01*
X0095714Y0101665D01*
X0095741Y0101672D01*
X0095767Y0101681D01*
X0095792Y0101691D01*
X0095816Y0101704D01*
X0095838Y0101719D01*
X009586Y0101736D01*
X009588Y0101755D01*
X0096022Y0101613D01*
D02*
G37*
G36*
X0103563Y0100727D02*
X0103586Y0100708D01*
X0103609Y0100691D01*
X0103633Y0100677D01*
X0103657Y0100665D01*
X0103682Y0100655D01*
X0103708Y0100647D01*
X0103735Y0100642D01*
X0103762Y0100639D01*
X010379Y0100638D01*
Y0100438D01*
X0103762Y0100436D01*
X0103735Y0100433D01*
X0103708Y0100428D01*
X0103682Y010042D01*
X0103657Y010041D01*
X0103633Y0100398D01*
X0103609Y0100384D01*
X0103586Y0100367D01*
X0103563Y0100348D01*
X0103541Y0100328D01*
Y0100748D01*
X0103563Y0100727D01*
D02*
G37*
G36*
X0103113Y0100328D02*
X0103091Y0100348D01*
X0103068Y0100367D01*
X0103045Y0100384D01*
X0103021Y0100398D01*
X0102997Y010041D01*
X0102971Y010042D01*
X0102946Y0100428D01*
X0102919Y0100433D01*
X0102892Y0100436D01*
X0102864Y0100438D01*
Y0100638D01*
X0102892Y0100639D01*
X0102919Y0100642D01*
X0102946Y0100647D01*
X0102971Y0100655D01*
X0102997Y0100665D01*
X0103021Y0100677D01*
X0103045Y0100691D01*
X0103068Y0100708D01*
X0103091Y0100727D01*
X0103113Y0100748D01*
Y0100328D01*
D02*
G37*
G36*
X0095352Y0100285D02*
X009533Y0100306D01*
X0095308Y0100325D01*
X0095285Y0100341D01*
X0095261Y0100355D01*
X0095236Y0100367D01*
X0095211Y0100377D01*
X0095185Y0100385D01*
X0095159Y0100391D01*
X0095131Y0100394D01*
X0095104Y0100395D01*
Y0100595D01*
X0095131Y0100596D01*
X0095159Y0100599D01*
X0095185Y0100605D01*
X0095211Y0100612D01*
X0095236Y0100622D01*
X0095261Y0100634D01*
X0095285Y0100649D01*
X0095308Y0100665D01*
X009533Y0100684D01*
X0095352Y0100705D01*
Y0100285D01*
D02*
G37*
G36*
X0094068Y01033D02*
X0094059Y0103242D01*
X009405Y0103227D01*
X0093941Y0103064D01*
X0093902Y0102869D01*
X0093907Y0102843D01*
X0093906Y0102833D01*
X0093904Y010282D01*
X0093901Y0102809D01*
X0093898Y0102799D01*
X0093894Y010279D01*
X0093889Y0102782D01*
X0093884Y0102774D01*
X0092571Y010146D01*
X0092504Y0101361D01*
X0092481Y0101244D01*
X0092481Y0101244D01*
Y0100194D01*
X0091118D01*
Y0100842D01*
X009368Y0103405D01*
X0093981D01*
X0094068Y01033D01*
D02*
G37*
G36*
X0097567Y0101686D02*
X0097532Y0101633D01*
X0097493Y0101438D01*
X0097532Y0101243D01*
X0097642Y0101077D01*
X0097808Y0100967D01*
X0097862Y0100956D01*
X0097904Y0100818D01*
X009711Y0100025D01*
X0096007D01*
X0095998Y0100027D01*
X0095995Y0100027D01*
X0095969Y0100068D01*
X0095967Y0100073D01*
X0095957Y0100106D01*
X0095951Y0100143D01*
X0095972Y0100202D01*
X0096037Y01003D01*
X0096076Y0100495D01*
X0096037Y010069D01*
X0095927Y0100855D01*
Y0100958D01*
X0095984Y0100996D01*
X0096095Y0101162D01*
X0096134Y0101357D01*
X0096129Y0101382D01*
X0096129Y0101393D01*
X0096132Y0101406D01*
X0096134Y0101417D01*
X0096138Y0101427D01*
X0096142Y0101436D01*
X0096146Y0101444D01*
X0096152Y0101452D01*
X0096512Y0101813D01*
X00975D01*
X0097567Y0101686D01*
D02*
G37*
G36*
X0095803Y0099908D02*
X0095825Y0099889D01*
X0095848Y0099873D01*
X0095872Y0099858D01*
X0095897Y0099846D01*
X0095922Y0099836D01*
X0095948Y0099829D01*
X0095974Y0099823D01*
X0096001Y009982D01*
X0096029Y0099819D01*
Y0099619D01*
X0096001Y0099618D01*
X0095974Y0099614D01*
X0095948Y0099609D01*
X0095922Y0099601D01*
X0095897Y0099591D01*
X0095872Y0099579D01*
X0095848Y0099565D01*
X0095825Y0099548D01*
X0095803Y009953D01*
X0095781Y0099509D01*
Y0099929D01*
X0095803Y0099908D01*
D02*
G37*
G36*
X0084209Y0098469D02*
X0084179Y0098468D01*
X0084149Y0098465D01*
X0084121Y0098461D01*
X0084094Y0098454D01*
X0084068Y0098445D01*
X0084044Y0098434D01*
X008402Y0098421D01*
X0083997Y0098407D01*
X0083976Y009839D01*
X0083955Y0098371D01*
X0083814Y0098512D01*
X0083833Y0098533D01*
X008385Y0098554D01*
X0083864Y0098577D01*
X0083877Y0098601D01*
X0083888Y0098625D01*
X0083897Y0098651D01*
X0083904Y0098678D01*
X0083908Y0098706D01*
X0083911Y0098736D01*
X0083912Y0098766D01*
X0084209Y0098469D01*
D02*
G37*
G36*
X0085081Y0098245D02*
X0084996Y009816D01*
X0084929Y0098061D01*
X0084906Y0097944D01*
X0084798Y0097894D01*
X0084712D01*
Y0096394D01*
X0085712D01*
Y0096394D01*
X0085829Y0096369D01*
X0086396Y0095803D01*
X0086396Y0095803D01*
X0086495Y0095736D01*
X0086612Y0095713D01*
X0090412D01*
Y0093944D01*
X0090412Y0093944D01*
X0090429Y0093817D01*
X0090382Y0093747D01*
X0090367Y0093672D01*
X0090345Y0093668D01*
X0090246Y0093601D01*
X0090246Y0093601D01*
X009012Y0093476D01*
X0090054Y0093376D01*
X009003Y0093259D01*
X009003Y0093259D01*
Y0092909D01*
X0090028Y00929D01*
X0090026Y0092891D01*
X0090022Y0092882D01*
X0090017Y0092872D01*
X0090011Y0092862D01*
X0090004Y0092852D01*
X0089997Y0092844D01*
X0089976Y0092829D01*
X0089961Y0092808D01*
X0089953Y0092801D01*
X0089943Y0092794D01*
X0089933Y0092788D01*
X0089923Y0092783D01*
X0089914Y0092779D01*
X0089905Y0092777D01*
X0089896Y0092775D01*
X0088739D01*
X0088128Y0093385D01*
X0088029Y0093451D01*
X0087912Y0093475D01*
X0087912Y0093475D01*
X0087706D01*
X0087694Y0093477D01*
X0087674Y0093483D01*
X008765Y0093493D01*
X0087621Y0093508D01*
X008759Y0093528D01*
X0087557Y0093552D01*
X0087475Y0093622D01*
X0087441Y0093656D01*
X0087431Y0093668D01*
X0087285Y009378D01*
X0087115Y0093851D01*
X0086932Y0093875D01*
X0086809Y0093859D01*
X0086716Y0093967D01*
X0086716Y0093968D01*
Y0095368D01*
X0086252Y0094904D01*
X0086162Y0094994D01*
X0086072Y0094904D01*
X0085608Y0095368D01*
Y0093996D01*
X0085608Y009394D01*
X0085516Y0093856D01*
X0085479Y0093851D01*
X0085309Y009378D01*
X0085163Y0093668D01*
X0085105Y0093594D01*
X0084948D01*
X0084891Y0093668D01*
X0084745Y009378D01*
X0084575Y0093851D01*
X0084392Y0093875D01*
X0084209Y0093851D01*
X0084039Y009378D01*
X0083893Y0093668D01*
X008378Y0093522D01*
X008371Y0093352D01*
X0083686Y0093169D01*
X008371Y0092986D01*
X008378Y0092816D01*
X0083893Y009267D01*
X0083967Y0092612D01*
Y0092455D01*
X0083893Y0092398D01*
X0083884Y0092387D01*
X0083805Y0092312D01*
X0083769Y0092283D01*
X0083734Y0092258D01*
X0083702Y0092238D01*
X0083674Y0092223D01*
X008365Y0092213D01*
X008363Y0092207D01*
X0083618Y0092205D01*
X0083608D01*
X0083518Y0092296D01*
Y0097642D01*
X0084117Y0098241D01*
X0084125Y0098246D01*
X0084133Y0098251D01*
X0084142Y0098255D01*
X0084152Y0098258D01*
X0084163Y0098261D01*
X0084176Y0098263D01*
X0084186Y0098264D01*
X0084212Y0098259D01*
X0084407Y0098298D01*
X0084572Y0098408D01*
X0084683Y0098574D01*
X0084683Y0098574D01*
X0084762Y0098669D01*
X0084783Y0098669D01*
X0085081D01*
Y0098245D01*
D02*
G37*
G36*
X0109688Y0098354D02*
X0109691Y0098327D01*
X0109697Y00983D01*
X0109704Y0098274D01*
X0109714Y0098249D01*
X0109726Y0098225D01*
X0109741Y0098201D01*
X0109757Y0098177D01*
X0109776Y0098155D01*
X0109797Y0098133D01*
X0109377D01*
X0109398Y0098155D01*
X0109416Y0098177D01*
X0109433Y0098201D01*
X0109447Y0098225D01*
X0109459Y0098249D01*
X0109469Y0098274D01*
X0109477Y00983D01*
X0109482Y0098327D01*
X0109486Y0098354D01*
X0109487Y0098382D01*
X0109687D01*
X0109688Y0098354D01*
D02*
G37*
G36*
X0088223Y0097758D02*
X0088245Y0097739D01*
X0088269Y0097723D01*
X0088293Y0097708D01*
X0088317Y0097696D01*
X0088342Y0097686D01*
X0088368Y0097679D01*
X0088395Y0097673D01*
X0088422Y009767D01*
X008845Y0097669D01*
Y0097469D01*
X0088422Y0097468D01*
X0088395Y0097464D01*
X0088368Y0097459D01*
X0088342Y0097451D01*
X0088317Y0097441D01*
X0088293Y0097429D01*
X0088269Y0097415D01*
X0088245Y0097398D01*
X0088223Y009738D01*
X0088201Y0097359D01*
Y0097779D01*
X0088223Y0097758D01*
D02*
G37*
G36*
X0086212Y0099461D02*
Y0098669D01*
X0086531D01*
Y0098219D01*
X0086531Y0098219D01*
X0086554Y0098102D01*
X0086609Y009802D01*
X0086612Y0097894D01*
X0086612Y0097894D01*
X0086612Y0097894D01*
Y0096617D01*
X0086494Y0096569D01*
X0086103Y009696D01*
X0086004Y0097026D01*
X0085887Y009705D01*
X0085887Y009705D01*
X0085712D01*
Y0097894D01*
X0085712Y0097894D01*
X0085673Y0098021D01*
X0085693Y0098119D01*
Y0098669D01*
X0086012D01*
Y0099487D01*
X0086123Y0099534D01*
X0086212Y0099461D01*
D02*
G37*
G36*
X0107732Y0094652D02*
X0107756Y0094634D01*
X0107781Y0094619D01*
X0107806Y0094606D01*
X0107831Y0094594D01*
X0107857Y0094585D01*
X0107884Y0094578D01*
X010791Y0094573D01*
X0107937Y009457D01*
X0107965Y0094569D01*
X0107982Y0094369D01*
X0107954Y0094368D01*
X0107927Y0094364D01*
X01079Y0094358D01*
X0107875Y009435D01*
X0107851Y009434D01*
X0107827Y0094327D01*
X0107805Y0094312D01*
X0107783Y0094294D01*
X0107762Y0094275D01*
X0107742Y0094253D01*
X0107708Y0094671D01*
X0107732Y0094652D01*
D02*
G37*
G36*
X0107281Y0094253D02*
X0107261Y0094275D01*
X0107241Y0094294D01*
X0107219Y0094312D01*
X0107196Y0094327D01*
X0107173Y009434D01*
X0107148Y009435D01*
X0107123Y0094358D01*
X0107097Y0094364D01*
X010707Y0094368D01*
X0107042Y0094369D01*
X0107059Y0094569D01*
X0107086Y009457D01*
X0107113Y0094573D01*
X010714Y0094578D01*
X0107166Y0094585D01*
X0107192Y0094594D01*
X0107218Y0094606D01*
X0107243Y0094619D01*
X0107267Y0094634D01*
X0107291Y0094652D01*
X0107315Y0094671D01*
X0107281Y0094253D01*
D02*
G37*
G36*
X0082788Y0094029D02*
X0082791Y0094002D01*
X0082797Y0093975D01*
X0082804Y0093949D01*
X0082814Y0093924D01*
X0082826Y00939D01*
X0082841Y0093876D01*
X0082857Y0093852D01*
X0082876Y009383D01*
X0082897Y0093808D01*
X0082477D01*
X0082498Y009383D01*
X0082516Y0093852D01*
X0082533Y0093876D01*
X0082547Y00939D01*
X0082559Y0093924D01*
X0082569Y0093949D01*
X0082577Y0093975D01*
X0082582Y0094002D01*
X0082586Y0094029D01*
X0082587Y0094057D01*
X0082787D01*
X0082788Y0094029D01*
D02*
G37*
G36*
X0087337Y0093471D02*
X0087431Y0093391D01*
X0087476Y0093359D01*
X008752Y0093331D01*
X0087562Y0093309D01*
X0087604Y0093291D01*
X0087644Y0093279D01*
X0087684Y0093271D01*
X0087722Y0093269D01*
Y0093069D01*
X0087684Y0093066D01*
X0087644Y0093059D01*
X0087604Y0093046D01*
X0087562Y0093029D01*
X008752Y0093006D01*
X0087476Y0092979D01*
X0087431Y0092946D01*
X0087385Y0092909D01*
X0087289Y0092819D01*
Y0093519D01*
X0087337Y0093471D01*
D02*
G37*
G36*
X0090437Y0092904D02*
X0090441Y0092877D01*
X0090446Y009285D01*
X0090454Y0092824D01*
X0090464Y0092799D01*
X0090476Y0092775D01*
X009049Y0092751D01*
X0090507Y0092727D01*
X0090525Y0092705D01*
X0090546Y0092683D01*
X0090126D01*
X0090147Y0092705D01*
X0090166Y0092727D01*
X0090182Y0092751D01*
X0090197Y0092775D01*
X0090209Y0092799D01*
X0090219Y0092824D01*
X0090226Y009285D01*
X0090232Y0092877D01*
X0090235Y0092904D01*
X0090236Y0092932D01*
X0090436D01*
X0090437Y0092904D01*
D02*
G37*
G36*
X0090572Y0092658D02*
X0090595Y0092639D01*
X0090618Y0092623D01*
X0090642Y0092608D01*
X0090666Y0092596D01*
X0090692Y0092586D01*
X0090717Y0092579D01*
X0090744Y0092573D01*
X0090771Y009257D01*
X0090799Y0092569D01*
Y0092369D01*
X0090771Y0092368D01*
X0090744Y0092364D01*
X0090717Y0092359D01*
X0090692Y0092351D01*
X0090666Y0092341D01*
X0090642Y0092329D01*
X0090618Y0092315D01*
X0090595Y0092298D01*
X0090572Y009228D01*
X009055Y0092259D01*
Y0092679D01*
X0090572Y0092658D01*
D02*
G37*
G36*
X0090122Y0092259D02*
X00901Y009228D01*
X0090077Y0092298D01*
X0090054Y0092315D01*
X009003Y0092329D01*
X0090006Y0092341D01*
X0089981Y0092351D01*
X0089955Y0092359D01*
X0089928Y0092364D01*
X0089901Y0092368D01*
X0089873Y0092369D01*
Y0092569D01*
X0089901Y009257D01*
X0089928Y0092573D01*
X0089955Y0092579D01*
X0089981Y0092586D01*
X0090006Y0092596D01*
X009003Y0092608D01*
X0090054Y0092623D01*
X0090077Y0092639D01*
X00901Y0092658D01*
X0090122Y0092679D01*
Y0092259D01*
D02*
G37*
G36*
X0084035Y0091549D02*
X0083986Y0091596D01*
X0083893Y0091676D01*
X0083848Y0091709D01*
X0083804Y0091736D01*
X0083761Y0091759D01*
X008372Y0091776D01*
X0083679Y0091789D01*
X008364Y0091796D01*
X0083602Y0091799D01*
Y0091999D01*
X008364Y0092001D01*
X0083679Y0092009D01*
X008372Y0092021D01*
X0083761Y0092039D01*
X0083804Y0092061D01*
X0083848Y0092089D01*
X0083893Y0092121D01*
X0083939Y0092159D01*
X0084035Y0092249D01*
Y0091549D01*
D02*
G37*
%LPC*%
G36*
X0086536Y0095548D02*
X0085787D01*
X0086162Y0095173D01*
X0086536Y0095548D01*
D02*
G37*
%LPD*%
G36*
X0096298Y0105359D02*
X0096276Y010538D01*
X0096253Y0105398D01*
X009623Y0105415D01*
X0096206Y0105429D01*
X0096182Y0105441D01*
X0096156Y0105451D01*
X009613Y0105459D01*
X0096104Y0105464D01*
X0096077Y0105468D01*
X0096049Y0105469D01*
Y0105669D01*
X0096077Y010567D01*
X0096104Y0105673D01*
X009613Y0105679D01*
X0096156Y0105686D01*
X0096182Y0105696D01*
X0096206Y0105708D01*
X009623Y0105723D01*
X0096253Y0105739D01*
X0096276Y0105758D01*
X0096298Y0105779D01*
Y0105359D01*
D02*
G37*
G36*
X0100798Y0104671D02*
X0100776Y0104692D01*
X0100753Y0104711D01*
X010073Y0104727D01*
X0100706Y0104742D01*
X0100682Y0104754D01*
X0100656Y0104763D01*
X010063Y0104771D01*
X0100604Y0104777D01*
X0100577Y010478D01*
X0100549Y0104781D01*
Y0104981D01*
X0100577Y0104982D01*
X0100604Y0104985D01*
X010063Y0104991D01*
X0100656Y0104999D01*
X0100682Y0105009D01*
X0100706Y0105021D01*
X010073Y0105035D01*
X0100753Y0105051D01*
X0100776Y010507D01*
X0100798Y0105091D01*
Y0104671D01*
D02*
G37*
G36*
X0089613Y0104854D02*
X0089616Y0104827D01*
X0089622Y01048D01*
X0089629Y0104774D01*
X0089639Y0104749D01*
X0089651Y0104725D01*
X0089666Y0104701D01*
X0089682Y0104677D01*
X0089701Y0104655D01*
X0089722Y0104633D01*
X0089302D01*
X0089323Y0104655D01*
X0089341Y0104677D01*
X0089358Y0104701D01*
X0089372Y0104725D01*
X0089384Y0104749D01*
X0089394Y0104774D01*
X0089402Y01048D01*
X0089407Y0104827D01*
X0089411Y0104854D01*
X0089412Y0104882D01*
X0089612D01*
X0089613Y0104854D01*
D02*
G37*
G36*
X009151Y0104598D02*
X0091491Y0104577D01*
X0091474Y0104556D01*
X0091459Y0104533D01*
X0091446Y0104509D01*
X0091436Y0104484D01*
X0091427Y0104458D01*
X009142Y0104432D01*
X0091415Y0104403D01*
X0091412Y0104374D01*
X0091412Y0104344D01*
X0091115Y0104641D01*
X0091145Y0104642D01*
X0091174Y0104644D01*
X0091202Y0104649D01*
X0091229Y0104656D01*
X0091255Y0104665D01*
X009128Y0104676D01*
X0091304Y0104688D01*
X0091326Y0104703D01*
X0091348Y010472D01*
X0091368Y0104739D01*
X009151Y0104598D01*
D02*
G37*
G36*
X0095048Y0095858D02*
X009507Y0095839D01*
X0095094Y0095823D01*
X0095118Y0095808D01*
X0095142Y0095796D01*
X0095167Y0095786D01*
X0095193Y0095779D01*
X009522Y0095773D01*
X0095247Y009577D01*
X0095275Y0095769D01*
Y0095569D01*
X0095247Y0095568D01*
X009522Y0095564D01*
X0095193Y0095559D01*
X0095167Y0095551D01*
X0095142Y0095541D01*
X0095118Y0095529D01*
X0095094Y0095515D01*
X009507Y0095498D01*
X0095048Y009548D01*
X0095026Y0095459D01*
Y0095879D01*
X0095048Y0095858D01*
D02*
G37*
G36*
X0108623Y0095511D02*
X0108601Y0095532D01*
X0108578Y0095551D01*
X0108555Y0095567D01*
X0108531Y0095582D01*
X0108507Y0095594D01*
X0108481Y0095604D01*
X0108455Y0095611D01*
X0108429Y0095617D01*
X0108402Y009562D01*
X0108374Y0095621D01*
Y0095821D01*
X0108402Y0095822D01*
X0108429Y0095826D01*
X0108455Y0095831D01*
X0108481Y0095839D01*
X0108507Y0095849D01*
X0108531Y0095861D01*
X0108555Y0095875D01*
X0108578Y0095892D01*
X0108601Y009591D01*
X0108623Y0095931D01*
Y0095511D01*
D02*
G37*
D12*
X0090462Y0093385D02*
X0090862D01*
X0090336Y0093259D02*
X0090462Y0093385D01*
X0090336Y0092469D02*
Y0093259D01*
X0093321Y0093385D02*
X0093387Y0093319D01*
X0097237Y0099719D02*
X009925Y0101732D01*
X0095566Y0099719D02*
X0097237D01*
X0085487Y010439D02*
X0087555Y0106458D01*
X0085487Y0099369D02*
Y010439D01*
X010816Y0095721D02*
X0108837D01*
X0107918Y0095964D02*
X010816Y0095721D01*
X0106712Y0095964D02*
X0107918D01*
X0087987Y0097569D02*
X0089087D01*
X0094929Y0099252D02*
Y010039D01*
X0095034Y0100495D02*
X0095566D01*
X0094929Y010039D02*
X0095034Y0100495D01*
X0094812Y0095669D02*
X0096462D01*
X0099585Y0098792D02*
Y0099269D01*
X0096462Y0095669D02*
X0099585Y0098792D01*
X0102629Y0103086D02*
X0104124D01*
X0109718Y0103657D02*
Y0105311D01*
X0109601Y010354D02*
X0109718Y0103657D01*
X0106386Y0102644D02*
X0106562Y010282D01*
X0104566Y0102644D02*
X0106386D01*
X0106562Y010282D02*
Y010354D01*
X0106029D02*
X0106562D01*
X0104124Y0103086D02*
X0104566Y0102644D01*
X010267Y0104653D02*
X0104862D01*
X0099754Y0107569D02*
X010267Y0104653D01*
X0104862Y0105953D02*
X0105795D01*
X0105912Y0103657D02*
Y0105835D01*
X0105795Y0105953D02*
X0105912Y0105835D01*
X0106562Y010354D02*
X0109601D01*
X0105912Y0103657D02*
X0106029Y010354D01*
X0107729Y0102107D02*
X0108937Y0100899D01*
X0105238Y0102107D02*
X0107729D01*
X0105226Y0102119D02*
X0105238Y0102107D01*
X0095624Y0101357D02*
X0096386Y0102119D01*
X0105226D01*
X00874Y0107569D02*
X0099754D01*
X0085887Y0096744D02*
X0086612Y0096019D01*
X0085362Y0096744D02*
X0085887D01*
X0085212Y0096894D02*
X0085362Y0096744D01*
X0089087Y0097569D02*
X0089112Y0097544D01*
X0082687Y0098668D02*
X0084996Y0100977D01*
Y0105165D02*
X00874Y0107569D01*
X0084996Y0100977D02*
Y0105165D01*
X0082687Y0093594D02*
Y0098668D01*
X0094929Y0099252D02*
X0095132Y0099049D01*
X0097097D02*
X0099405Y0101357D01*
X0095132Y0099049D02*
X0097097D01*
X0090812Y0100969D02*
X0093554Y0103711D01*
X0094454D01*
X0094454Y0103711D01*
X0090336Y0092469D02*
X0101012D01*
X0103012Y0094469D01*
X0107512D02*
X0110062D01*
X0103012D02*
X0107512D01*
X0107542Y0106819D02*
X0108192Y0107469D01*
X0103412Y0106819D02*
X0107542D01*
X0101296Y0100538D02*
X0103327D01*
X0109012Y0100222D02*
Y0100222D01*
X0109587Y0098504D02*
Y0099647D01*
X0109012Y0100222D02*
X0109587Y0099647D01*
Y0097919D02*
Y0098504D01*
X0100885Y0100126D02*
X0101296Y0100538D01*
X0100885Y0099269D02*
Y0100126D01*
X0104373Y0100538D02*
X0104412Y0100499D01*
X0103327Y0100538D02*
X0104373D01*
X0089112Y0097544D02*
X009117D01*
X0091287Y0097661D02*
Y0098141D01*
X0091487Y0098341D02*
Y0098869D01*
X0091287Y0098141D02*
X0091487Y0098341D01*
X009117Y0097544D02*
X0091287Y0097661D01*
X0104412Y0098406D02*
Y0099049D01*
Y0097764D02*
Y0098406D01*
X0104449Y0098369D02*
X0105212D01*
X0104412Y0098406D02*
X0104449Y0098369D01*
X0105347Y0098504D02*
X0106712D01*
X0105212Y0098369D02*
X0105347Y0098504D01*
X0104377Y0097729D02*
X0104412Y0097764D01*
X0083482Y0091899D02*
X0084392D01*
X0083212Y0097769D02*
X0084212Y0098769D01*
X0083212Y0092169D02*
X0083482Y0091899D01*
X0083212Y0092169D02*
Y0097769D01*
X0091112Y0104341D02*
X0091652Y0104881D01*
X0101012D01*
X0090062Y0105569D02*
X0096512D01*
X0089512Y0105019D02*
X0090062Y0105569D01*
X0089512Y0104419D02*
Y0105019D01*
X0108937Y0100899D02*
X0110012Y0101974D01*
Y0102569D01*
X0104928Y0101357D02*
X0107324D01*
X009925Y0101732D02*
X0103741D01*
X0103753Y0101744D01*
X0107324Y0101357D02*
X0108482Y0100199D01*
X0103908Y0101369D02*
X0104915D01*
X0105083Y0101732D02*
X0107503D01*
X0104915Y0101369D02*
X0104928Y0101357D01*
X0105071Y0101744D02*
X0105083Y0101732D01*
X0103896Y0101357D02*
X0103908Y0101369D01*
X0107503Y0101732D02*
X0109012Y0100222D01*
X0103753Y0101744D02*
X0105071D01*
X0099405Y0101357D02*
X0103896D01*
X0108937Y0100899D02*
X0110062Y0099774D01*
X0111512D01*
X0109587Y0098504D02*
X0111512D01*
X0108482Y009738D02*
Y0100199D01*
X0106712Y0097234D02*
X0108335D01*
X0108482Y009738D01*
X0111512Y0095964D02*
Y0097234D01*
X0110062Y0094469D02*
Y0095788D01*
X0110238Y0095964D02*
X0111512D01*
X0110062Y0095788D02*
X0110238Y0095964D01*
X0108192Y0107469D02*
X0110232D01*
X0111112Y0108349D01*
X0104377Y0097729D02*
X0104412Y0097694D01*
X0103012Y0097729D02*
X0104377D01*
X0092787Y0101244D02*
X0094412Y0102869D01*
X0090837Y009366D02*
Y0095069D01*
X0088612Y0092469D02*
X0090336D01*
X0103012Y0094469D02*
Y0096409D01*
X0086612Y0096019D02*
X0091387D01*
X0085212Y0096894D02*
Y0097944D01*
X0087512Y0096744D02*
X0087787Y0096469D01*
X0091587D02*
X0092137Y0095919D01*
X0087787Y0096469D02*
X0091587D01*
X0086932Y0093169D02*
X0087912D01*
X0088612Y0092469D01*
X0092787Y0098869D02*
Y0101244D01*
X0090812Y0098894D02*
Y0100969D01*
Y0098894D02*
X0090837Y0098869D01*
X0086012Y0100094D02*
X0086837Y0099269D01*
X0086012Y0103969D02*
X0088512Y0106469D01*
X0086012Y0100094D02*
Y0103969D01*
X0085387Y0099269D02*
X0085487Y0099369D01*
X0085387Y0098119D02*
Y0099269D01*
X0087262Y0096744D02*
X0087512D01*
X0087112Y0096894D02*
Y0097944D01*
X0086837Y0098219D02*
Y0099269D01*
X0087112Y0096894D02*
X0087262Y0096744D01*
X0091387Y0096019D02*
X0091487Y0095919D01*
Y0098869D02*
X0092137D01*
X0086837Y0098219D02*
X0087112Y0097944D01*
X0085212D02*
X0085387Y0098119D01*
X0092137Y0095069D02*
Y0095919D01*
X0091487Y0095069D02*
Y0095919D01*
X0090837Y009366D02*
X0090903Y0093594D01*
D33*
X0086837Y0099269D02*
D03*
X0085387D02*
D03*
D35*
X0089112Y0097544D02*
D03*
Y0098994D02*
D03*
X0104412Y0097694D02*
D03*
Y0096244D02*
D03*
Y0100499D02*
D03*
Y0099049D02*
D03*
D36*
X0090862Y0093385D02*
D03*
X0092362D02*
D03*
X0106562Y010354D02*
D03*
X0105062D02*
D03*
X0110062Y0094469D02*
D03*
X0111562D02*
D03*
D43*
X0103012Y0096409D02*
D03*
Y0097729D02*
D03*
D49*
X0104842Y0111239D02*
Y0111285D01*
X0105412Y0111855D01*
X0092362Y0093385D02*
X0093321D01*
X0104304Y010354D02*
X0105062D01*
X0106762Y0105303D02*
X0107715D01*
X0107845Y0091164D02*
X010858Y0091899D01*
X0108632D01*
X0110988Y0105271D02*
Y0105311D01*
X0110368Y0104651D02*
X0110988Y0105271D01*
X0084073Y011074D02*
X0084572Y0111239D01*
X008365Y011074D02*
X0084073D01*
X0086932Y0091819D02*
Y0091899D01*
X0086396Y0091283D02*
X0086932Y0091819D01*
X011167Y0109061D02*
X0112066D01*
X0111112Y0109619D02*
X011167Y0109061D01*
D50*
X0101312Y0096819D02*
D03*
D51*
X0087112Y0111239D02*
D03*
Y0109969D02*
D03*
X0085842Y0111239D02*
D03*
Y0109969D02*
D03*
X0084572Y0111239D02*
D03*
Y0109969D02*
D03*
X0111112Y0108349D02*
D03*
Y0109619D02*
D03*
X0108572D02*
D03*
X0109842D02*
D03*
X0108572Y0108349D02*
D03*
X0109842D02*
D03*
X0084392Y0091899D02*
D03*
Y0093169D02*
D03*
X0085662Y0091899D02*
D03*
Y0093169D02*
D03*
X0086932Y0091899D02*
D03*
Y0093169D02*
D03*
X0106112Y0111239D02*
D03*
Y0109969D02*
D03*
X0104842Y0111239D02*
D03*
Y0109969D02*
D03*
X0103572Y0111239D02*
D03*
Y0109969D02*
D03*
X0109718Y0106581D02*
D03*
Y0105311D02*
D03*
X0110988Y0106581D02*
D03*
Y0105311D02*
D03*
X0112258Y0106581D02*
D03*
Y0105311D02*
D03*
X0106092Y0091899D02*
D03*
Y0093169D02*
D03*
X0107362Y0091899D02*
D03*
Y0093169D02*
D03*
X0108632Y0091899D02*
D03*
Y0093169D02*
D03*
X0080766Y0106581D02*
D03*
Y0105311D02*
D03*
X0082036Y0106581D02*
D03*
Y0105311D02*
D03*
X0083306Y0106581D02*
D03*
Y0105311D02*
D03*
D52*
X0095566Y0099719D02*
D03*
X008781Y0109173D02*
D03*
X0087555Y0106458D02*
D03*
X0096412Y0109816D02*
D03*
X0102023Y0094998D02*
D03*
X0112379Y0111333D02*
D03*
X0112357Y009124D02*
D03*
X0103012Y0091287D02*
D03*
X0108837Y0095721D02*
D03*
X0087987Y0097569D02*
D03*
X0095566Y0100495D02*
D03*
X0102629Y0103086D02*
D03*
X0103083Y0105271D02*
D03*
X0106359Y0100694D02*
D03*
X0090062Y0094994D02*
D03*
X0086252Y0097472D02*
D03*
X0084392Y010211D02*
D03*
X0097912Y0091283D02*
D03*
Y0094869D02*
D03*
X0086712Y0103069D02*
D03*
X0107012Y0107469D02*
D03*
X0102612Y0108349D02*
D03*
X0103412Y0106819D02*
D03*
X0103327Y0100538D02*
D03*
X0094812Y0095669D02*
D03*
X0092612Y0103641D02*
D03*
X0083851Y0094369D02*
D03*
X0092212Y0109816D02*
D03*
X0080766Y0109786D02*
D03*
Y0091217D02*
D03*
Y0098289D02*
D03*
Y010363D02*
D03*
X0092933Y0091283D02*
D03*
X0098003Y0105869D02*
D03*
X0112362Y0093844D02*
D03*
X0092085Y0097919D02*
D03*
X009016Y0101308D02*
D03*
X0108812Y0104221D02*
D03*
X0107608Y0111329D02*
D03*
X0110012D02*
D03*
X0090336Y0092469D02*
D03*
X0082687Y0093594D02*
D03*
X0091887Y010426D02*
D03*
X0091112Y0104341D02*
D03*
X0096512Y0105569D02*
D03*
X0110012Y0102569D02*
D03*
X0090336Y0104419D02*
D03*
X0089512D02*
D03*
X008874D02*
D03*
X0109587Y0097919D02*
D03*
X0107512Y0094445D02*
D03*
X0108937Y0102469D02*
D03*
X0099412Y0111274D02*
D03*
X0101012Y0104881D02*
D03*
X0098003Y0101438D02*
D03*
X0095624Y0101357D02*
D03*
X0094412Y0102869D02*
D03*
X0094454Y0103711D02*
D03*
X0084212Y0098769D02*
D03*
X0083012Y0100469D02*
D03*
X0110912Y0101669D02*
D03*
X0088512Y0106469D02*
D03*
X0087912Y0104469D02*
D03*
D53*
X0100885Y0099269D02*
D03*
X0099585D02*
D03*
D54*
X0106762Y0105953D02*
D03*
Y0105303D02*
D03*
Y0104653D02*
D03*
X0104862D02*
D03*
Y0105953D02*
D03*
D55*
X0090837Y0099269D02*
D03*
X0091487D02*
D03*
X0092137D02*
D03*
X0092787D02*
D03*
Y0094869D02*
D03*
X0092137D02*
D03*
X0091487D02*
D03*
X0090837D02*
D03*
D56*
X0085212Y0097144D02*
D03*
X0087112D02*
D03*
X0086162Y0094744D02*
D03*
D57*
X0106712Y0095964D02*
D03*
Y0097234D02*
D03*
Y0098504D02*
D03*
Y0099774D02*
D03*
X0111512Y0095964D02*
D03*
Y0097234D02*
D03*
Y0098504D02*
D03*
Y0099774D02*
D03*
M02*
