G04*
G04 #@! TF.GenerationSoftware,Altium Limited,Altium Designer,20.1.8 (145)*
G04*
G04 Layer_Color=8388736*
%FSLAX25Y25*%
%MOIN*%
G70*
G04*
G04 #@! TF.SameCoordinates,8766D331-E9FB-46AF-A3FE-A3E5BE2B0BC4*
G04*
G04*
G04 #@! TF.FilePolarity,Negative*
G04*
G01*
G75*
%ADD14R,0.03780X0.08661*%
%ADD15R,0.04331X0.05512*%
%ADD16C,0.04724*%
%ADD17C,0.08661*%
D14*
X380508Y340764D02*
D03*
X390350D02*
D03*
X400193D02*
D03*
Y317142D02*
D03*
X390350D02*
D03*
X380508D02*
D03*
D15*
X418697Y334465D02*
D03*
X411610D02*
D03*
Y323441D02*
D03*
X418697D02*
D03*
D16*
X473026Y431684D02*
D03*
X478026D02*
D03*
X473026Y426684D02*
D03*
X478026D02*
D03*
X473026Y421684D02*
D03*
X478026D02*
D03*
X352278Y431684D02*
D03*
X357278D02*
D03*
X352278Y426684D02*
D03*
X357278D02*
D03*
X352278Y421684D02*
D03*
X357278D02*
D03*
X473026Y356881D02*
D03*
X478026D02*
D03*
X473026Y351881D02*
D03*
X478026D02*
D03*
X473026Y346881D02*
D03*
X478026D02*
D03*
X357278D02*
D03*
X352278D02*
D03*
X357278Y351881D02*
D03*
X352278D02*
D03*
X357278Y356881D02*
D03*
X352278D02*
D03*
D17*
X395862Y445488D02*
D03*
X409642D02*
D03*
X423421D02*
D03*
X437201D02*
D03*
X431295Y329740D02*
D03*
X445075D02*
D03*
M02*
