G04*
G04 #@! TF.GenerationSoftware,Altium Limited,Altium Designer,20.1.8 (145)*
G04*
G04 Layer_Color=16777215*
%FSLAX25Y25*%
%MOIN*%
G70*
G04*
G04 #@! TF.SameCoordinates,8766D331-E9FB-46AF-A3FE-A3E5BE2B0BC4*
G04*
G04*
G04 #@! TF.FilePolarity,Positive*
G04*
G01*
G75*
%ADD10C,0.01181*%
%ADD11C,0.00591*%
%ADD12C,0.00394*%
%ADD13C,0.01575*%
G36*
X361215Y344125D02*
X361209Y344119D01*
X358568D01*
Y344233D01*
X361215Y346881D01*
Y344125D01*
D02*
G37*
G36*
Y418928D02*
X361209Y418922D01*
X358568D01*
Y419037D01*
X361215Y421684D01*
Y418928D01*
D02*
G37*
G36*
X386020Y348383D02*
X378146Y351336D01*
X386020Y354289D01*
Y348383D01*
D02*
G37*
G36*
X481963Y418928D02*
X481957Y418922D01*
X479316D01*
Y419037D01*
X481963Y421684D01*
Y418928D01*
D02*
G37*
G36*
X401768Y351336D02*
X393894Y348383D01*
Y354289D01*
X401768Y351336D01*
D02*
G37*
G36*
X433165Y347580D02*
X427850D01*
Y348908D01*
X433165D01*
Y347580D01*
D02*
G37*
G36*
X481963Y344125D02*
X481957Y344119D01*
X479316D01*
Y344233D01*
X481963Y346881D01*
Y344125D01*
D02*
G37*
G36*
X445434Y348734D02*
X447423D01*
Y347378D01*
X445434D01*
Y345422D01*
X444111D01*
Y347378D01*
X442133D01*
Y348734D01*
X444111D01*
Y350690D01*
X445434D01*
Y348734D01*
D02*
G37*
G36*
X452681Y352375D02*
X423716D01*
Y359322D01*
X452681D01*
Y352375D01*
D02*
G37*
G36*
X460043Y339716D02*
X459224Y339170D01*
X459219Y339164D01*
X459202Y339159D01*
X459180Y339142D01*
X459153Y339121D01*
X459120Y339099D01*
X459077Y339071D01*
X458989Y339012D01*
X458891Y338941D01*
X458804Y338875D01*
X458722Y338815D01*
X458695Y338788D01*
X458667Y338766D01*
X458662Y338760D01*
X458651Y338749D01*
X458629Y338727D01*
X458602Y338700D01*
X458580Y338662D01*
X458553Y338624D01*
X458531Y338580D01*
X458509Y338536D01*
Y338531D01*
X458503Y338515D01*
X458493Y338487D01*
X458487Y338444D01*
X458476Y338389D01*
X458471Y338323D01*
X458465Y338247D01*
Y338001D01*
X460043D01*
Y337237D01*
X456265D01*
Y338941D01*
X456270Y338990D01*
Y339050D01*
X456276Y339110D01*
Y339181D01*
X456292Y339323D01*
X456308Y339470D01*
X456336Y339607D01*
X456352Y339667D01*
X456368Y339721D01*
Y339727D01*
X456374Y339732D01*
X456390Y339765D01*
X456418Y339814D01*
X456450Y339880D01*
X456505Y339951D01*
X456565Y340021D01*
X456641Y340092D01*
X456734Y340158D01*
X456740D01*
X456745Y340163D01*
X456762Y340174D01*
X456778Y340185D01*
X456833Y340213D01*
X456904Y340245D01*
X456991Y340273D01*
X457089Y340300D01*
X457204Y340322D01*
X457324Y340327D01*
X457330D01*
X457340D01*
X457368D01*
X457395Y340322D01*
X457433D01*
X457471Y340316D01*
X457570Y340295D01*
X457684Y340267D01*
X457799Y340224D01*
X457919Y340158D01*
X457974Y340120D01*
X458028Y340076D01*
X458034Y340071D01*
X458039Y340065D01*
X458056Y340049D01*
X458072Y340027D01*
X458094Y340005D01*
X458121Y339972D01*
X458148Y339934D01*
X458176Y339891D01*
X458209Y339841D01*
X458236Y339781D01*
X458263Y339721D01*
X458290Y339656D01*
X458318Y339579D01*
X458340Y339503D01*
X458361Y339421D01*
X458378Y339328D01*
Y339334D01*
X458383Y339339D01*
X458405Y339372D01*
X458432Y339416D01*
X458471Y339470D01*
X458520Y339536D01*
X458569Y339601D01*
X458629Y339672D01*
X458695Y339732D01*
X458700Y339738D01*
X458727Y339765D01*
X458771Y339798D01*
X458836Y339847D01*
X458918Y339912D01*
X458973Y339945D01*
X459027Y339983D01*
X459088Y340027D01*
X459153Y340071D01*
X459230Y340120D01*
X459306Y340169D01*
X460043Y340633D01*
Y339716D01*
D02*
G37*
G36*
Y333715D02*
X456265D01*
Y336516D01*
X456904D01*
Y334480D01*
X457739D01*
Y336374D01*
X458378D01*
Y334480D01*
X459404D01*
Y336587D01*
X460043D01*
Y333715D01*
D02*
G37*
G36*
Y331984D02*
Y331160D01*
X456265Y329806D01*
Y330630D01*
X459060Y331591D01*
X456265Y332514D01*
Y333328D01*
X460043Y331984D01*
D02*
G37*
G36*
Y328697D02*
X456265D01*
Y329462D01*
X460043D01*
Y328697D01*
D02*
G37*
G36*
Y327393D02*
X459224Y326847D01*
X459219Y326841D01*
X459202Y326836D01*
X459180Y326819D01*
X459153Y326797D01*
X459120Y326776D01*
X459077Y326748D01*
X458989Y326688D01*
X458891Y326617D01*
X458804Y326552D01*
X458722Y326492D01*
X458695Y326464D01*
X458667Y326443D01*
X458662Y326437D01*
X458651Y326426D01*
X458629Y326404D01*
X458602Y326377D01*
X458580Y326339D01*
X458553Y326301D01*
X458531Y326257D01*
X458509Y326213D01*
Y326208D01*
X458503Y326191D01*
X458493Y326164D01*
X458487Y326120D01*
X458476Y326066D01*
X458471Y326000D01*
X458465Y325924D01*
Y325678D01*
X460043D01*
Y324914D01*
X456265D01*
Y326617D01*
X456270Y326666D01*
Y326727D01*
X456276Y326786D01*
Y326857D01*
X456292Y326999D01*
X456308Y327147D01*
X456336Y327283D01*
X456352Y327343D01*
X456368Y327398D01*
Y327403D01*
X456374Y327409D01*
X456390Y327442D01*
X456418Y327491D01*
X456450Y327556D01*
X456505Y327627D01*
X456565Y327698D01*
X456641Y327769D01*
X456734Y327835D01*
X456740D01*
X456745Y327840D01*
X456762Y327851D01*
X456778Y327862D01*
X456833Y327889D01*
X456904Y327922D01*
X456991Y327950D01*
X457089Y327977D01*
X457204Y327999D01*
X457324Y328004D01*
X457330D01*
X457340D01*
X457368D01*
X457395Y327999D01*
X457433D01*
X457471Y327993D01*
X457570Y327971D01*
X457684Y327944D01*
X457799Y327900D01*
X457919Y327835D01*
X457974Y327797D01*
X458028Y327753D01*
X458034Y327748D01*
X458039Y327742D01*
X458056Y327726D01*
X458072Y327704D01*
X458094Y327682D01*
X458121Y327649D01*
X458148Y327611D01*
X458176Y327567D01*
X458209Y327518D01*
X458236Y327458D01*
X458263Y327398D01*
X458290Y327332D01*
X458318Y327256D01*
X458340Y327180D01*
X458361Y327098D01*
X458378Y327005D01*
Y327010D01*
X458383Y327016D01*
X458405Y327049D01*
X458432Y327092D01*
X458471Y327147D01*
X458520Y327212D01*
X458569Y327278D01*
X458629Y327349D01*
X458695Y327409D01*
X458700Y327414D01*
X458727Y327442D01*
X458771Y327474D01*
X458836Y327524D01*
X458918Y327589D01*
X458973Y327622D01*
X459027Y327660D01*
X459088Y327704D01*
X459153Y327748D01*
X459230Y327797D01*
X459306Y327846D01*
X460043Y328310D01*
Y327393D01*
D02*
G37*
G36*
X458312Y324258D02*
X458356D01*
X458411Y324253D01*
X458471Y324248D01*
X458596Y324237D01*
X458727Y324215D01*
X458864Y324182D01*
X458995Y324144D01*
X459000D01*
X459011Y324138D01*
X459033Y324128D01*
X459066Y324117D01*
X459098Y324106D01*
X459137Y324084D01*
X459235Y324040D01*
X459339Y323986D01*
X459453Y323915D01*
X459563Y323833D01*
X459666Y323740D01*
X459677Y323729D01*
X459699Y323702D01*
X459732Y323658D01*
X459776Y323598D01*
X459825Y323521D01*
X459874Y323434D01*
X459923Y323325D01*
X459967Y323205D01*
Y323199D01*
X459972Y323194D01*
Y323177D01*
X459978Y323161D01*
X459988Y323101D01*
X460005Y323025D01*
X460021Y322932D01*
X460032Y322817D01*
X460038Y322681D01*
X460043Y322533D01*
Y321103D01*
X456265D01*
Y322610D01*
X456270Y322653D01*
X456276Y322757D01*
X456281Y322872D01*
X456297Y322992D01*
X456314Y323107D01*
X456341Y323210D01*
Y323216D01*
X456347Y323227D01*
X456352Y323243D01*
X456358Y323265D01*
X456385Y323330D01*
X456423Y323407D01*
X456472Y323494D01*
X456532Y323592D01*
X456603Y323685D01*
X456691Y323778D01*
Y323783D01*
X456702Y323789D01*
X456734Y323816D01*
X456789Y323860D01*
X456860Y323909D01*
X456947Y323969D01*
X457051Y324029D01*
X457171Y324089D01*
X457302Y324138D01*
X457308D01*
X457318Y324144D01*
X457340Y324149D01*
X457368Y324160D01*
X457401Y324166D01*
X457444Y324177D01*
X457493Y324188D01*
X457548Y324204D01*
X457608Y324215D01*
X457679Y324226D01*
X457750Y324237D01*
X457832Y324242D01*
X458001Y324258D01*
X458192Y324264D01*
X458198D01*
X458214D01*
X458236D01*
X458269D01*
X458312Y324258D01*
D02*
G37*
G36*
X373219Y332539D02*
X370636Y331862D01*
X373219Y331190D01*
Y330044D01*
X369440D01*
Y330748D01*
X372411Y330753D01*
X369440Y331496D01*
Y332233D01*
X372411Y332976D01*
X369440D01*
Y333680D01*
X373219D01*
Y332539D01*
D02*
G37*
G36*
X371390Y329399D02*
X371455D01*
X371532Y329388D01*
X371624Y329378D01*
X371723Y329367D01*
X371837Y329345D01*
X371952Y329317D01*
X372072Y329285D01*
X372192Y329246D01*
X372318Y329197D01*
X372438Y329143D01*
X372553Y329077D01*
X372662Y329006D01*
X372765Y328919D01*
X372771Y328913D01*
X372787Y328897D01*
X372815Y328870D01*
X372847Y328832D01*
X372886Y328782D01*
X372929Y328722D01*
X372978Y328657D01*
X373028Y328575D01*
X373077Y328487D01*
X373126Y328395D01*
X373169Y328286D01*
X373208Y328176D01*
X373240Y328051D01*
X373268Y327925D01*
X373284Y327783D01*
X373290Y327641D01*
Y327576D01*
X373284Y327526D01*
X373279Y327467D01*
X373268Y327401D01*
X373257Y327325D01*
X373240Y327243D01*
X373219Y327155D01*
X373191Y327062D01*
X373159Y326970D01*
X373115Y326871D01*
X373071Y326779D01*
X373017Y326691D01*
X372951Y326598D01*
X372880Y326516D01*
Y326511D01*
X372869Y326505D01*
X372853Y326489D01*
X372836Y326473D01*
X372809Y326451D01*
X372776Y326429D01*
X372700Y326369D01*
X372602Y326309D01*
X372482Y326243D01*
X372345Y326183D01*
X372187Y326129D01*
X372007Y326882D01*
X372012D01*
X372018Y326888D01*
X372034D01*
X372056Y326899D01*
X372105Y326915D01*
X372170Y326942D01*
X372247Y326980D01*
X372323Y327030D01*
X372400Y327095D01*
X372465Y327166D01*
X372471Y327177D01*
X372493Y327204D01*
X372520Y327248D01*
X372553Y327308D01*
X372585Y327385D01*
X372613Y327472D01*
X372635Y327570D01*
X372640Y327679D01*
Y327718D01*
X372635Y327750D01*
X372629Y327783D01*
X372623Y327827D01*
X372602Y327920D01*
X372564Y328029D01*
X372509Y328144D01*
X372476Y328204D01*
X372438Y328258D01*
X372389Y328313D01*
X372334Y328362D01*
X372329D01*
X372318Y328373D01*
X372301Y328384D01*
X372274Y328400D01*
X372241Y328422D01*
X372203Y328444D01*
X372154Y328466D01*
X372099Y328487D01*
X372034Y328515D01*
X371963Y328537D01*
X371881Y328558D01*
X371794Y328580D01*
X371695Y328597D01*
X371592Y328608D01*
X371477Y328613D01*
X371351Y328619D01*
X371346D01*
X371319D01*
X371280D01*
X371237Y328613D01*
X371177D01*
X371106Y328602D01*
X371035Y328597D01*
X370953Y328586D01*
X370783Y328553D01*
X370614Y328509D01*
X370532Y328482D01*
X370456Y328444D01*
X370385Y328406D01*
X370325Y328362D01*
X370319Y328357D01*
X370314Y328351D01*
X370298Y328335D01*
X370276Y328313D01*
X370232Y328258D01*
X370178Y328182D01*
X370117Y328089D01*
X370074Y327974D01*
X370036Y327843D01*
X370030Y327772D01*
X370025Y327696D01*
Y327668D01*
X370030Y327647D01*
X370036Y327587D01*
X370046Y327516D01*
X370074Y327439D01*
X370107Y327352D01*
X370150Y327264D01*
X370216Y327177D01*
X370227Y327166D01*
X370254Y327139D01*
X370298Y327101D01*
X370363Y327057D01*
X370450Y327002D01*
X370554Y326953D01*
X370680Y326904D01*
X370827Y326860D01*
X370598Y326118D01*
X370592D01*
X370571Y326123D01*
X370538Y326134D01*
X370494Y326151D01*
X370445Y326172D01*
X370385Y326194D01*
X370319Y326222D01*
X370249Y326254D01*
X370101Y326331D01*
X369948Y326429D01*
X369801Y326549D01*
X369735Y326615D01*
X369675Y326686D01*
X369670Y326691D01*
X369664Y326702D01*
X369648Y326724D01*
X369626Y326757D01*
X369604Y326795D01*
X369582Y326844D01*
X369555Y326899D01*
X369528Y326959D01*
X369495Y327030D01*
X369468Y327106D01*
X369446Y327188D01*
X369424Y327275D01*
X369402Y327368D01*
X369386Y327472D01*
X369380Y327576D01*
X369375Y327690D01*
Y327723D01*
X369380Y327761D01*
X369386Y327816D01*
X369391Y327876D01*
X369402Y327952D01*
X369419Y328034D01*
X369440Y328127D01*
X369468Y328220D01*
X369500Y328318D01*
X369544Y328422D01*
X369593Y328526D01*
X369648Y328629D01*
X369719Y328733D01*
X369795Y328832D01*
X369888Y328924D01*
X369894Y328930D01*
X369910Y328946D01*
X369943Y328968D01*
X369981Y329001D01*
X370036Y329033D01*
X370096Y329077D01*
X370172Y329121D01*
X370259Y329165D01*
X370352Y329208D01*
X370456Y329252D01*
X370576Y329296D01*
X370702Y329328D01*
X370833Y329361D01*
X370980Y329383D01*
X371133Y329399D01*
X371297Y329405D01*
X371302D01*
X371308D01*
X371340D01*
X371390Y329399D01*
D02*
G37*
G36*
X373219Y324704D02*
X371166D01*
X371160D01*
X371144D01*
X371122D01*
X371089D01*
X371046D01*
X371002D01*
X370904Y324698D01*
X370795D01*
X370691Y324693D01*
X370642Y324687D01*
X370598D01*
X370565Y324682D01*
X370532Y324676D01*
X370521D01*
X370494Y324665D01*
X370450Y324649D01*
X370396Y324627D01*
X370336Y324600D01*
X370276Y324556D01*
X370210Y324507D01*
X370156Y324447D01*
X370150Y324436D01*
X370134Y324414D01*
X370112Y324371D01*
X370090Y324316D01*
X370063Y324240D01*
X370041Y324152D01*
X370025Y324054D01*
X370019Y323939D01*
Y323885D01*
X370025Y323830D01*
X370036Y323759D01*
X370052Y323677D01*
X370074Y323601D01*
X370107Y323519D01*
X370150Y323453D01*
X370156Y323448D01*
X370172Y323426D01*
X370199Y323399D01*
X370237Y323366D01*
X370287Y323333D01*
X370341Y323301D01*
X370401Y323273D01*
X370472Y323257D01*
X370483D01*
X370511Y323251D01*
X370560Y323246D01*
X370625Y323235D01*
X370669D01*
X370718Y323230D01*
X370773D01*
X370827Y323224D01*
X370893D01*
X370964Y323219D01*
X371040D01*
X371122D01*
X373219D01*
Y322454D01*
X371226D01*
X371220D01*
X371199D01*
X371160D01*
X371117D01*
X371062D01*
X370996Y322460D01*
X370925D01*
X370854D01*
X370696Y322471D01*
X370532Y322481D01*
X370461Y322487D01*
X370390Y322498D01*
X370325Y322509D01*
X370265Y322520D01*
X370259D01*
X370254Y322525D01*
X370237D01*
X370221Y322531D01*
X370167Y322547D01*
X370101Y322569D01*
X370025Y322602D01*
X369948Y322640D01*
X369866Y322689D01*
X369790Y322749D01*
X369779Y322755D01*
X369757Y322776D01*
X369724Y322815D01*
X369681Y322864D01*
X369632Y322929D01*
X369582Y323006D01*
X369528Y323093D01*
X369484Y323191D01*
Y323197D01*
X369479Y323202D01*
X369473Y323219D01*
X369468Y323240D01*
X369457Y323268D01*
X369446Y323301D01*
X369435Y323344D01*
X369429Y323388D01*
X369408Y323492D01*
X369386Y323617D01*
X369375Y323759D01*
X369369Y323918D01*
Y324005D01*
X369375Y324054D01*
Y324103D01*
X369380Y324163D01*
X369386Y324223D01*
X369397Y324354D01*
X369419Y324491D01*
X369451Y324627D01*
X369468Y324687D01*
X369490Y324742D01*
Y324747D01*
X369495Y324753D01*
X369511Y324786D01*
X369539Y324840D01*
X369577Y324900D01*
X369626Y324971D01*
X369681Y325048D01*
X369746Y325119D01*
X369817Y325184D01*
X369828Y325190D01*
X369850Y325212D01*
X369894Y325239D01*
X369948Y325272D01*
X370008Y325304D01*
X370079Y325342D01*
X370156Y325370D01*
X370237Y325397D01*
X370243D01*
X370254Y325403D01*
X370270D01*
X370298Y325408D01*
X370330Y325413D01*
X370374Y325419D01*
X370423Y325424D01*
X370478Y325430D01*
X370543Y325441D01*
X370614Y325446D01*
X370691Y325452D01*
X370778Y325457D01*
X370871Y325463D01*
X370975D01*
X371084Y325468D01*
X371199D01*
X373219D01*
Y324704D01*
D02*
G37*
G36*
X375733Y364479D02*
X375842Y364470D01*
X375969Y364442D01*
X376124Y364388D01*
X376279Y364315D01*
X376443Y364224D01*
X376525Y364160D01*
X376598Y364087D01*
X376616Y364069D01*
X376662Y364014D01*
X376726Y363932D01*
X376789Y363814D01*
X376862Y363677D01*
X376926Y363513D01*
X376972Y363331D01*
X376981Y363231D01*
X376990Y363131D01*
Y362092D01*
X376981Y362056D01*
X376972Y362010D01*
X376944Y361946D01*
X376908Y361883D01*
X376844Y361837D01*
X376762Y361801D01*
X376653Y361782D01*
X376635D01*
X376598Y361791D01*
X376553Y361801D01*
X376489Y361828D01*
X376425Y361864D01*
X376379Y361919D01*
X376343Y362001D01*
X376325Y362110D01*
Y363176D01*
X376316Y363231D01*
X376297Y363295D01*
X376279Y363377D01*
X376243Y363450D01*
X376197Y363531D01*
X376133Y363614D01*
X376124Y363623D01*
X376097Y363641D01*
X376051Y363677D01*
X375997Y363714D01*
X375924Y363750D01*
X375842Y363787D01*
X375742Y363805D01*
X375641Y363814D01*
X375131D01*
X375122D01*
X375086D01*
X375031Y363805D01*
X374967Y363787D01*
X374885Y363768D01*
X374813Y363732D01*
X374730Y363677D01*
X374648Y363614D01*
X374639Y363604D01*
X374621Y363577D01*
X374585Y363531D01*
X374548Y363477D01*
X374512Y363404D01*
X374475Y363322D01*
X374457Y363231D01*
X374448Y363131D01*
Y362092D01*
X374439Y362056D01*
X374430Y362010D01*
X374402Y361946D01*
X374366Y361883D01*
X374311Y361837D01*
X374229Y361801D01*
X374120Y361782D01*
X372079D01*
X372061D01*
X372025Y361791D01*
X371979Y361801D01*
X371916Y361828D01*
X371852Y361864D01*
X371806Y361919D01*
X371770Y362001D01*
X371751Y362110D01*
Y363914D01*
X371761Y363951D01*
X371770Y364005D01*
X371788Y364069D01*
X371833Y364124D01*
X371888Y364178D01*
X371970Y364215D01*
X372079Y364233D01*
X372098D01*
X372134Y364224D01*
X372189Y364215D01*
X372243Y364187D01*
X372307Y364151D01*
X372362Y364087D01*
X372398Y364005D01*
X372416Y363896D01*
Y362457D01*
X373783D01*
Y363185D01*
X373792Y363222D01*
X373801Y363331D01*
X373829Y363459D01*
X373883Y363614D01*
X373956Y363768D01*
X374047Y363932D01*
X374111Y364014D01*
X374184Y364087D01*
Y364096D01*
X374202Y364106D01*
X374257Y364151D01*
X374339Y364215D01*
X374448Y364288D01*
X374594Y364360D01*
X374749Y364424D01*
X374931Y364470D01*
X375031Y364488D01*
X375131D01*
X375641D01*
X375651D01*
X375669D01*
X375696D01*
X375733Y364479D01*
D02*
G37*
G36*
Y360844D02*
X375842Y360835D01*
X375969Y360808D01*
X376124Y360753D01*
X376279Y360680D01*
X376443Y360589D01*
X376525Y360525D01*
X376598Y360452D01*
X376616Y360434D01*
X376662Y360380D01*
X376726Y360297D01*
X376789Y360188D01*
X376862Y360051D01*
X376926Y359888D01*
X376972Y359696D01*
X376981Y359596D01*
X376990Y359496D01*
Y359441D01*
X376981Y359405D01*
X376972Y359295D01*
X376944Y359168D01*
X376890Y359013D01*
X376826Y358858D01*
X376726Y358694D01*
X376671Y358612D01*
X376598Y358539D01*
X376589D01*
X376580Y358521D01*
X376525Y358475D01*
X376443Y358412D01*
X376334Y358348D01*
X376188Y358275D01*
X376033Y358211D01*
X375842Y358166D01*
X375742Y358157D01*
X375641Y358148D01*
X375131D01*
X375122D01*
X375104D01*
X375067D01*
X375022Y358157D01*
X374967Y358166D01*
X374904Y358175D01*
X374758Y358211D01*
X374594Y358266D01*
X374421Y358357D01*
X374339Y358421D01*
X374266Y358485D01*
X374184Y358558D01*
X374120Y358649D01*
Y358640D01*
X374102Y358630D01*
X374056Y358567D01*
X373974Y358494D01*
X373865Y358403D01*
X373719Y358302D01*
X373546Y358229D01*
X373337Y358166D01*
X373218Y358157D01*
X373100Y358148D01*
X373091D01*
X373073D01*
X373045D01*
X373009Y358157D01*
X372899Y358166D01*
X372772Y358193D01*
X372626Y358248D01*
X372462Y358312D01*
X372307Y358412D01*
X372225Y358466D01*
X372152Y358539D01*
X372143Y358548D01*
X372134Y358558D01*
X372089Y358612D01*
X372025Y358694D01*
X371952Y358803D01*
X371879Y358949D01*
X371815Y359104D01*
X371770Y359295D01*
X371751Y359396D01*
Y359550D01*
X371761Y359587D01*
X371770Y359696D01*
X371797Y359824D01*
X371852Y359979D01*
X371925Y360134D01*
X372016Y360297D01*
X372079Y360380D01*
X372152Y360452D01*
Y360461D01*
X372171Y360471D01*
X372225Y360516D01*
X372307Y360580D01*
X372416Y360653D01*
X372553Y360726D01*
X372717Y360789D01*
X372899Y360835D01*
X373000Y360853D01*
X373100D01*
X373109D01*
X373127D01*
X373164D01*
X373209Y360844D01*
X373264Y360835D01*
X373327Y360826D01*
X373482Y360789D01*
X373646Y360726D01*
X373810Y360634D01*
X373902Y360580D01*
X373974Y360516D01*
X374047Y360434D01*
X374120Y360343D01*
X374129Y360361D01*
X374166Y360398D01*
X374220Y360461D01*
X374293Y360534D01*
X374384Y360607D01*
X374503Y360689D01*
X374630Y360753D01*
X374785Y360799D01*
X374794D01*
X374831Y360808D01*
X374885Y360817D01*
X374967Y360826D01*
X375086Y360835D01*
X375232Y360844D01*
X375323D01*
X375423Y360853D01*
X375523D01*
X375641D01*
X375651D01*
X375669D01*
X375696D01*
X375733Y360844D01*
D02*
G37*
G36*
X375687Y357191D02*
X375742Y357182D01*
X375796Y357154D01*
X375860Y357118D01*
X375915Y357054D01*
X375951Y356972D01*
X375969Y356863D01*
Y356444D01*
X376653D01*
X376671D01*
X376707Y356435D01*
X376762Y356426D01*
X376817Y356398D01*
X376880Y356362D01*
X376935Y356298D01*
X376972Y356216D01*
X376990Y356107D01*
Y356089D01*
X376981Y356052D01*
X376972Y355998D01*
X376944Y355943D01*
X376908Y355879D01*
X376844Y355824D01*
X376762Y355788D01*
X376653Y355770D01*
X375969D01*
Y354303D01*
X375960Y354267D01*
X375951Y354221D01*
X375924Y354157D01*
X375887Y354094D01*
X375833Y354048D01*
X375751Y354012D01*
X375641Y353993D01*
X375632D01*
X375605D01*
X375550Y354002D01*
X371997Y355014D01*
X371988D01*
X371961Y355032D01*
X371916Y355050D01*
X371870Y355087D01*
X371833Y355123D01*
X371788Y355187D01*
X371761Y355251D01*
X371751Y355342D01*
Y355360D01*
X371761Y355396D01*
X371770Y355451D01*
X371797Y355515D01*
X371833Y355569D01*
X371897Y355624D01*
X371979Y355661D01*
X372089Y355679D01*
X372098D01*
X372116D01*
X372152Y355670D01*
X372207Y355651D01*
X375304Y354749D01*
Y355770D01*
X374612D01*
X374594D01*
X374557Y355779D01*
X374512Y355788D01*
X374448Y355815D01*
X374384Y355852D01*
X374339Y355916D01*
X374302Y355998D01*
X374284Y356107D01*
Y356125D01*
X374293Y356161D01*
X374302Y356216D01*
X374321Y356280D01*
X374366Y356335D01*
X374421Y356389D01*
X374503Y356426D01*
X374612Y356444D01*
X375304D01*
Y356881D01*
X375313Y356918D01*
X375323Y356972D01*
X375341Y357036D01*
X375386Y357091D01*
X375441Y357145D01*
X375523Y357182D01*
X375632Y357200D01*
X375651D01*
X375687Y357191D01*
D02*
G37*
G36*
X375733Y353046D02*
X375842Y353037D01*
X375969Y353010D01*
X376115Y352955D01*
X376279Y352882D01*
X376443Y352791D01*
X376525Y352727D01*
X376598Y352654D01*
X376616Y352636D01*
X376662Y352581D01*
X376726Y352499D01*
X376789Y352381D01*
X376862Y352244D01*
X376926Y352080D01*
X376972Y351898D01*
X376981Y351798D01*
X376990Y351698D01*
Y351606D01*
X376981Y351534D01*
X376972Y351452D01*
X376962Y351351D01*
X376944Y351242D01*
X376917Y351124D01*
X376853Y350850D01*
X376808Y350714D01*
X376753Y350568D01*
X376689Y350413D01*
X376607Y350267D01*
X376525Y350122D01*
X376425Y349976D01*
X376416Y349967D01*
X376407Y349958D01*
X376352Y349912D01*
X376261Y349857D01*
X376206Y349848D01*
X376152Y349839D01*
X376143D01*
X376124D01*
X376070Y349848D01*
X375997Y349876D01*
X375924Y349930D01*
X375915Y349939D01*
X375906Y349949D01*
X375869Y349994D01*
X375842Y350076D01*
X375824Y350122D01*
Y350185D01*
X375833Y350222D01*
X375842Y350276D01*
X375869Y350340D01*
X375878Y350349D01*
X375897Y350386D01*
X375924Y350441D01*
X375969Y350522D01*
X376024Y350623D01*
X376088Y350741D01*
X376152Y350887D01*
X376234Y351051D01*
Y351060D01*
X376252Y351105D01*
X376261Y351160D01*
X376279Y351242D01*
X376297Y351333D01*
X376307Y351443D01*
X376325Y351570D01*
Y351743D01*
X376316Y351798D01*
X376297Y351862D01*
X376279Y351935D01*
X376243Y352016D01*
X376188Y352089D01*
X376124Y352171D01*
X376115Y352181D01*
X376088Y352208D01*
X376042Y352235D01*
X375988Y352281D01*
X375915Y352317D01*
X375833Y352344D01*
X375742Y352372D01*
X375641Y352381D01*
X375632D01*
X375623D01*
X375578D01*
X375505Y352363D01*
X375414Y352344D01*
X375313Y352308D01*
X375213Y352262D01*
X375122Y352190D01*
X375040Y352089D01*
X374302Y350568D01*
X374293Y350559D01*
X374284Y350541D01*
X374266Y350504D01*
X374229Y350459D01*
X374193Y350395D01*
X374138Y350340D01*
X374084Y350267D01*
X374011Y350204D01*
X373929Y350140D01*
X373847Y350067D01*
X373747Y350012D01*
X373637Y349958D01*
X373519Y349903D01*
X373391Y349867D01*
X373246Y349848D01*
X373100Y349839D01*
X373091D01*
X373073D01*
X373045D01*
X373009Y349848D01*
X372899Y349857D01*
X372772Y349885D01*
X372626Y349939D01*
X372462Y350003D01*
X372307Y350103D01*
X372225Y350158D01*
X372152Y350231D01*
X372143Y350240D01*
X372134Y350249D01*
X372089Y350304D01*
X372025Y350386D01*
X371952Y350495D01*
X371879Y350641D01*
X371815Y350796D01*
X371770Y350987D01*
X371751Y351087D01*
Y351342D01*
X371761Y351415D01*
X371770Y351506D01*
X371779Y351606D01*
X371788Y351707D01*
X371824Y351935D01*
X371870Y352171D01*
X371943Y352399D01*
X371988Y352499D01*
X372043Y352600D01*
X372052Y352609D01*
X372061Y352627D01*
X372089Y352663D01*
X372125Y352700D01*
X372216Y352764D01*
X372280Y352782D01*
X372344Y352791D01*
X372353D01*
X372362D01*
X372426Y352782D01*
X372498Y352745D01*
X372544Y352727D01*
X372581Y352691D01*
X372599Y352672D01*
X372626Y352627D01*
X372662Y352554D01*
X372672Y352508D01*
X372681Y352454D01*
Y352445D01*
X372672Y352417D01*
X372662Y352372D01*
X372644Y352317D01*
Y352308D01*
X372635Y352290D01*
X372626Y352262D01*
X372608Y352217D01*
X372590Y352171D01*
X372571Y352108D01*
X372526Y351962D01*
X372489Y351789D01*
X372453Y351597D01*
X372426Y351397D01*
X372416Y351187D01*
Y351142D01*
X372426Y351087D01*
X372444Y351024D01*
X372462Y350941D01*
X372498Y350869D01*
X372553Y350787D01*
X372617Y350705D01*
X372626Y350695D01*
X372653Y350677D01*
X372699Y350641D01*
X372754Y350613D01*
X372827Y350577D01*
X372908Y350541D01*
X373000Y350522D01*
X373100Y350513D01*
X373109D01*
X373118D01*
X373173Y350522D01*
X373246Y350532D01*
X373337Y350559D01*
X373437Y350604D01*
X373537Y350668D01*
X373628Y350759D01*
X373710Y350878D01*
X374448Y352308D01*
Y352317D01*
X374466Y352344D01*
X374484Y352381D01*
X374521Y352426D01*
X374557Y352481D01*
X374612Y352545D01*
X374676Y352609D01*
X374740Y352681D01*
X374822Y352754D01*
X374904Y352818D01*
X375004Y352882D01*
X375113Y352937D01*
X375232Y352982D01*
X375359Y353028D01*
X375496Y353046D01*
X375641Y353055D01*
X375651D01*
X375669D01*
X375696D01*
X375733Y353046D01*
D02*
G37*
G36*
X376735Y348892D02*
X376808Y348855D01*
X376853Y348828D01*
X376890Y348792D01*
X376908Y348773D01*
X376935Y348728D01*
X376972Y348646D01*
X376981Y348600D01*
X376990Y348555D01*
Y348518D01*
X376981Y348482D01*
X376962Y348436D01*
X376944Y348391D01*
X376917Y348336D01*
X376871Y348290D01*
X376808Y348245D01*
X374958Y347325D01*
Y346359D01*
X376662D01*
X376680D01*
X376716Y346350D01*
X376762Y346341D01*
X376826Y346314D01*
X376890Y346277D01*
X376935Y346213D01*
X376972Y346131D01*
X376990Y346022D01*
Y346004D01*
X376981Y345968D01*
X376972Y345913D01*
X376944Y345858D01*
X376908Y345794D01*
X376853Y345740D01*
X376771Y345703D01*
X376662Y345685D01*
X372079D01*
X372061D01*
X372025Y345694D01*
X371979Y345703D01*
X371916Y345731D01*
X371852Y345767D01*
X371806Y345822D01*
X371770Y345904D01*
X371751Y346013D01*
Y347352D01*
X371761Y347398D01*
X371770Y347462D01*
X371779Y347525D01*
X371806Y347680D01*
X371870Y347862D01*
X371952Y348054D01*
X372007Y348154D01*
X372070Y348245D01*
X372143Y348336D01*
X372225Y348427D01*
X372234Y348436D01*
X372243Y348445D01*
X372271Y348473D01*
X372307Y348500D01*
X372353Y348536D01*
X372407Y348573D01*
X372544Y348664D01*
X372708Y348755D01*
X372899Y348828D01*
X373118Y348883D01*
X373236Y348892D01*
X373355Y348901D01*
X373364D01*
X373400D01*
X373455Y348892D01*
X373528Y348883D01*
X373619Y348873D01*
X373719Y348855D01*
X373829Y348819D01*
X373947Y348782D01*
X374075Y348737D01*
X374193Y348673D01*
X374321Y348600D01*
X374439Y348509D01*
X374548Y348400D01*
X374648Y348281D01*
X374740Y348136D01*
X374813Y347972D01*
X376516Y348855D01*
X376525Y348864D01*
X376562Y348883D01*
X376607Y348892D01*
X376662Y348901D01*
X376671D01*
X376680D01*
X376735Y348892D01*
D02*
G37*
G36*
X407991Y355643D02*
X408036Y355633D01*
X408100Y355606D01*
X408164Y355570D01*
X408209Y355506D01*
X408246Y355424D01*
X408264Y355315D01*
Y355296D01*
X408255Y355260D01*
X408246Y355205D01*
X408218Y355151D01*
X408182Y355087D01*
X408127Y355032D01*
X408045Y354996D01*
X407936Y354978D01*
X403354D01*
X403335D01*
X403299Y354987D01*
X403253Y354996D01*
X403190Y355023D01*
X403126Y355060D01*
X403080Y355123D01*
X403044Y355205D01*
X403025Y355315D01*
Y355333D01*
X403035Y355369D01*
X403044Y355424D01*
X403062Y355488D01*
X403108Y355542D01*
X403162Y355597D01*
X403244Y355633D01*
X403354Y355652D01*
X407936D01*
X407954D01*
X407991Y355643D01*
D02*
G37*
G36*
X407007Y354030D02*
X407116Y354021D01*
X407243Y353994D01*
X407389Y353939D01*
X407553Y353866D01*
X407717Y353775D01*
X407799Y353711D01*
X407872Y353639D01*
X407890Y353620D01*
X407936Y353566D01*
X408000Y353484D01*
X408063Y353365D01*
X408136Y353228D01*
X408200Y353064D01*
X408246Y352882D01*
X408255Y352782D01*
X408264Y352682D01*
Y352591D01*
X408255Y352518D01*
X408246Y352436D01*
X408237Y352336D01*
X408218Y352226D01*
X408191Y352108D01*
X408127Y351835D01*
X408082Y351698D01*
X408027Y351552D01*
X407963Y351397D01*
X407881Y351252D01*
X407799Y351106D01*
X407699Y350960D01*
X407690Y350951D01*
X407681Y350942D01*
X407626Y350896D01*
X407535Y350842D01*
X407480Y350833D01*
X407426Y350823D01*
X407417D01*
X407398D01*
X407344Y350833D01*
X407271Y350860D01*
X407198Y350915D01*
X407189Y350924D01*
X407180Y350933D01*
X407143Y350978D01*
X407116Y351060D01*
X407098Y351106D01*
Y351170D01*
X407107Y351206D01*
X407116Y351261D01*
X407143Y351325D01*
X407152Y351334D01*
X407171Y351370D01*
X407198Y351425D01*
X407243Y351507D01*
X407298Y351607D01*
X407362Y351725D01*
X407426Y351871D01*
X407508Y352035D01*
Y352044D01*
X407526Y352090D01*
X407535Y352144D01*
X407553Y352226D01*
X407571Y352318D01*
X407581Y352427D01*
X407599Y352554D01*
Y352727D01*
X407590Y352782D01*
X407571Y352846D01*
X407553Y352919D01*
X407517Y353001D01*
X407462Y353074D01*
X407398Y353156D01*
X407389Y353165D01*
X407362Y353192D01*
X407316Y353219D01*
X407262Y353265D01*
X407189Y353301D01*
X407107Y353329D01*
X407016Y353356D01*
X406916Y353365D01*
X406906D01*
X406897D01*
X406852D01*
X406779Y353347D01*
X406688Y353329D01*
X406588Y353292D01*
X406487Y353247D01*
X406396Y353174D01*
X406314Y353074D01*
X405576Y351552D01*
X405567Y351543D01*
X405558Y351525D01*
X405540Y351488D01*
X405504Y351443D01*
X405467Y351379D01*
X405412Y351325D01*
X405358Y351252D01*
X405285Y351188D01*
X405203Y351124D01*
X405121Y351051D01*
X405021Y350996D01*
X404911Y350942D01*
X404793Y350887D01*
X404665Y350851D01*
X404520Y350833D01*
X404374Y350823D01*
X404365D01*
X404347D01*
X404319D01*
X404283Y350833D01*
X404173Y350842D01*
X404046Y350869D01*
X403900Y350924D01*
X403736Y350987D01*
X403581Y351088D01*
X403499Y351142D01*
X403426Y351215D01*
X403417Y351224D01*
X403408Y351233D01*
X403363Y351288D01*
X403299Y351370D01*
X403226Y351479D01*
X403153Y351625D01*
X403089Y351780D01*
X403044Y351971D01*
X403025Y352071D01*
Y352327D01*
X403035Y352399D01*
X403044Y352491D01*
X403053Y352591D01*
X403062Y352691D01*
X403098Y352919D01*
X403144Y353156D01*
X403217Y353383D01*
X403262Y353484D01*
X403317Y353584D01*
X403326Y353593D01*
X403335Y353611D01*
X403363Y353648D01*
X403399Y353684D01*
X403490Y353748D01*
X403554Y353766D01*
X403618Y353775D01*
X403627D01*
X403636D01*
X403700Y353766D01*
X403773Y353730D01*
X403818Y353711D01*
X403855Y353675D01*
X403873Y353657D01*
X403900Y353611D01*
X403936Y353538D01*
X403946Y353493D01*
X403955Y353438D01*
Y353429D01*
X403946Y353402D01*
X403936Y353356D01*
X403918Y353301D01*
Y353292D01*
X403909Y353274D01*
X403900Y353247D01*
X403882Y353201D01*
X403864Y353156D01*
X403845Y353092D01*
X403800Y352946D01*
X403763Y352773D01*
X403727Y352582D01*
X403700Y352381D01*
X403691Y352172D01*
Y352126D01*
X403700Y352071D01*
X403718Y352008D01*
X403736Y351926D01*
X403773Y351853D01*
X403827Y351771D01*
X403891Y351689D01*
X403900Y351680D01*
X403927Y351662D01*
X403973Y351625D01*
X404028Y351598D01*
X404101Y351561D01*
X404182Y351525D01*
X404274Y351507D01*
X404374Y351498D01*
X404383D01*
X404392D01*
X404447Y351507D01*
X404520Y351516D01*
X404611Y351543D01*
X404711Y351589D01*
X404811Y351653D01*
X404902Y351744D01*
X404984Y351862D01*
X405722Y353292D01*
Y353301D01*
X405740Y353329D01*
X405758Y353365D01*
X405795Y353411D01*
X405831Y353465D01*
X405886Y353529D01*
X405950Y353593D01*
X406014Y353666D01*
X406096Y353739D01*
X406178Y353802D01*
X406278Y353866D01*
X406387Y353921D01*
X406505Y353966D01*
X406633Y354012D01*
X406770Y354030D01*
X406916Y354039D01*
X406925D01*
X406943D01*
X406970D01*
X407007Y354030D01*
D02*
G37*
G36*
Y349876D02*
X407116Y349867D01*
X407243Y349840D01*
X407389Y349785D01*
X407553Y349712D01*
X407717Y349621D01*
X407799Y349557D01*
X407872Y349484D01*
X407890Y349466D01*
X407936Y349411D01*
X408000Y349329D01*
X408063Y349211D01*
X408136Y349074D01*
X408200Y348910D01*
X408246Y348728D01*
X408255Y348628D01*
X408264Y348528D01*
Y348437D01*
X408255Y348364D01*
X408246Y348282D01*
X408237Y348182D01*
X408218Y348072D01*
X408191Y347954D01*
X408127Y347680D01*
X408082Y347544D01*
X408027Y347398D01*
X407963Y347243D01*
X407881Y347097D01*
X407799Y346952D01*
X407699Y346806D01*
X407690Y346797D01*
X407681Y346788D01*
X407626Y346742D01*
X407535Y346688D01*
X407480Y346678D01*
X407426Y346669D01*
X407417D01*
X407398D01*
X407344Y346678D01*
X407271Y346706D01*
X407198Y346760D01*
X407189Y346769D01*
X407180Y346779D01*
X407143Y346824D01*
X407116Y346906D01*
X407098Y346952D01*
Y347016D01*
X407107Y347052D01*
X407116Y347107D01*
X407143Y347170D01*
X407152Y347180D01*
X407171Y347216D01*
X407198Y347271D01*
X407243Y347353D01*
X407298Y347453D01*
X407362Y347571D01*
X407426Y347717D01*
X407508Y347881D01*
Y347890D01*
X407526Y347936D01*
X407535Y347990D01*
X407553Y348072D01*
X407571Y348163D01*
X407581Y348273D01*
X407599Y348400D01*
Y348573D01*
X407590Y348628D01*
X407571Y348692D01*
X407553Y348765D01*
X407517Y348847D01*
X407462Y348920D01*
X407398Y349002D01*
X407389Y349011D01*
X407362Y349038D01*
X407316Y349065D01*
X407262Y349111D01*
X407189Y349147D01*
X407107Y349174D01*
X407016Y349202D01*
X406916Y349211D01*
X406906D01*
X406897D01*
X406852D01*
X406779Y349193D01*
X406688Y349174D01*
X406588Y349138D01*
X406487Y349093D01*
X406396Y349020D01*
X406314Y348920D01*
X405576Y347398D01*
X405567Y347389D01*
X405558Y347371D01*
X405540Y347334D01*
X405504Y347289D01*
X405467Y347225D01*
X405412Y347170D01*
X405358Y347097D01*
X405285Y347034D01*
X405203Y346970D01*
X405121Y346897D01*
X405021Y346842D01*
X404911Y346788D01*
X404793Y346733D01*
X404665Y346697D01*
X404520Y346678D01*
X404374Y346669D01*
X404365D01*
X404347D01*
X404319D01*
X404283Y346678D01*
X404173Y346688D01*
X404046Y346715D01*
X403900Y346769D01*
X403736Y346833D01*
X403581Y346934D01*
X403499Y346988D01*
X403426Y347061D01*
X403417Y347070D01*
X403408Y347079D01*
X403363Y347134D01*
X403299Y347216D01*
X403226Y347325D01*
X403153Y347471D01*
X403089Y347626D01*
X403044Y347817D01*
X403025Y347917D01*
Y348172D01*
X403035Y348245D01*
X403044Y348336D01*
X403053Y348437D01*
X403062Y348537D01*
X403098Y348765D01*
X403144Y349002D01*
X403217Y349229D01*
X403262Y349329D01*
X403317Y349430D01*
X403326Y349439D01*
X403335Y349457D01*
X403363Y349493D01*
X403399Y349530D01*
X403490Y349594D01*
X403554Y349612D01*
X403618Y349621D01*
X403627D01*
X403636D01*
X403700Y349612D01*
X403773Y349575D01*
X403818Y349557D01*
X403855Y349521D01*
X403873Y349502D01*
X403900Y349457D01*
X403936Y349384D01*
X403946Y349339D01*
X403955Y349284D01*
Y349275D01*
X403946Y349247D01*
X403936Y349202D01*
X403918Y349147D01*
Y349138D01*
X403909Y349120D01*
X403900Y349093D01*
X403882Y349047D01*
X403864Y349002D01*
X403845Y348938D01*
X403800Y348792D01*
X403763Y348619D01*
X403727Y348428D01*
X403700Y348227D01*
X403691Y348018D01*
Y347972D01*
X403700Y347917D01*
X403718Y347854D01*
X403736Y347772D01*
X403773Y347699D01*
X403827Y347617D01*
X403891Y347535D01*
X403900Y347526D01*
X403927Y347507D01*
X403973Y347471D01*
X404028Y347444D01*
X404101Y347407D01*
X404182Y347371D01*
X404274Y347353D01*
X404374Y347343D01*
X404383D01*
X404392D01*
X404447Y347353D01*
X404520Y347362D01*
X404611Y347389D01*
X404711Y347434D01*
X404811Y347498D01*
X404902Y347589D01*
X404984Y347708D01*
X405722Y349138D01*
Y349147D01*
X405740Y349174D01*
X405758Y349211D01*
X405795Y349256D01*
X405831Y349311D01*
X405886Y349375D01*
X405950Y349439D01*
X406014Y349512D01*
X406096Y349585D01*
X406178Y349648D01*
X406278Y349712D01*
X406387Y349767D01*
X406505Y349812D01*
X406633Y349858D01*
X406770Y349876D01*
X406916Y349885D01*
X406925D01*
X406943D01*
X406970D01*
X407007Y349876D01*
D02*
G37*
G36*
X425849Y389307D02*
X425904Y389296D01*
X425980Y389263D01*
X426057Y389219D01*
X426112Y389143D01*
X426155Y389044D01*
X426177Y388913D01*
Y388870D01*
X426166Y388815D01*
X426144Y388760D01*
X426112Y388695D01*
X426057Y388629D01*
X425991Y388575D01*
X425904Y388531D01*
X424658Y388115D01*
Y386050D01*
X425904Y385634D01*
X425915D01*
X425948Y385612D01*
X425991Y385591D01*
X426035Y385558D01*
X426090Y385503D01*
X426133Y385438D01*
X426166Y385350D01*
X426177Y385252D01*
Y385230D01*
X426166Y385186D01*
X426155Y385132D01*
X426123Y385055D01*
X426079Y384979D01*
X426013Y384924D01*
X425915Y384880D01*
X425784Y384858D01*
X425773D01*
X425740D01*
X425653Y384869D01*
X420209Y386684D01*
X420198Y386695D01*
X420155Y386705D01*
X420111Y386738D01*
X420045Y386771D01*
X419991Y386826D01*
X419936Y386902D01*
X419903Y386990D01*
X419892Y387088D01*
Y387132D01*
X419903Y387186D01*
X419925Y387252D01*
X419969Y387317D01*
X420024Y387383D01*
X420100Y387438D01*
X420198Y387481D01*
X425653Y389296D01*
X425664D01*
X425696Y389307D01*
X425740Y389318D01*
X425784D01*
X425806D01*
X425849Y389307D01*
D02*
G37*
G36*
X438164Y388706D02*
X438230Y388695D01*
X438317Y388684D01*
X438503Y388651D01*
X438722Y388575D01*
X438940Y388476D01*
X439060Y388410D01*
X439181Y388334D01*
X439290Y388247D01*
X439399Y388148D01*
X439410Y388137D01*
X439421Y388126D01*
X439454Y388093D01*
X439487Y388050D01*
X439530Y387995D01*
X439574Y387930D01*
X439673Y387766D01*
X439782Y387569D01*
X439869Y387328D01*
X439935Y387066D01*
X439946Y386924D01*
X439957Y386782D01*
Y385230D01*
X439946Y385186D01*
X439935Y385132D01*
X439902Y385055D01*
X439858Y384979D01*
X439793Y384924D01*
X439694Y384880D01*
X439563Y384858D01*
X434065D01*
X434044D01*
X434000Y384869D01*
X433945Y384880D01*
X433869Y384913D01*
X433792Y384957D01*
X433738Y385022D01*
X433694Y385121D01*
X433672Y385252D01*
Y386847D01*
X433683Y386902D01*
X433694Y387022D01*
X433727Y387186D01*
X433781Y387372D01*
X433869Y387558D01*
X433989Y387755D01*
X434055Y387853D01*
X434142Y387941D01*
Y387951D01*
X434164Y387962D01*
X434229Y388017D01*
X434328Y388093D01*
X434459Y388181D01*
X434623Y388258D01*
X434820Y388334D01*
X435049Y388389D01*
X435169Y388410D01*
X435290D01*
X435300D01*
X435322D01*
X435366D01*
X435421Y388400D01*
X435486Y388389D01*
X435552Y388378D01*
X435727Y388345D01*
X435923Y388268D01*
X436109Y388170D01*
X436208Y388105D01*
X436306Y388028D01*
X436393Y387941D01*
X436470Y387842D01*
Y387853D01*
X436492Y387875D01*
X436525Y387919D01*
X436557Y387984D01*
X436612Y388050D01*
X436678Y388115D01*
X436754Y388203D01*
X436842Y388279D01*
X436951Y388356D01*
X437060Y388443D01*
X437191Y388509D01*
X437333Y388585D01*
X437487Y388640D01*
X437650Y388684D01*
X437836Y388706D01*
X438033Y388717D01*
X438044D01*
X438066D01*
X438109D01*
X438164Y388706D01*
D02*
G37*
G36*
X437705Y428753D02*
X437771Y428742D01*
X437836Y428709D01*
X437913Y428666D01*
X437978Y428589D01*
X438022Y428491D01*
X438044Y428360D01*
Y425889D01*
X438033Y425846D01*
X438022Y425791D01*
X437989Y425715D01*
X437945Y425638D01*
X437869Y425584D01*
X437771Y425540D01*
X437639Y425518D01*
X437617D01*
X437574Y425529D01*
X437519Y425540D01*
X437443Y425572D01*
X437366Y425616D01*
X437311Y425682D01*
X437268Y425780D01*
X437246Y425911D01*
Y428381D01*
X437257Y428425D01*
X437268Y428491D01*
X437289Y428567D01*
X437344Y428633D01*
X437410Y428698D01*
X437508Y428742D01*
X437639Y428764D01*
X437661D01*
X437705Y428753D01*
D02*
G37*
G36*
X439235Y424359D02*
X439290Y424348D01*
X439366Y424316D01*
X439443Y424272D01*
X439497Y424195D01*
X439541Y424097D01*
X439563Y423966D01*
Y423922D01*
X439552Y423868D01*
X439530Y423813D01*
X439497Y423747D01*
X439443Y423682D01*
X439377Y423627D01*
X439290Y423583D01*
X438044Y423168D01*
Y421102D01*
X439290Y420687D01*
X439301D01*
X439333Y420665D01*
X439377Y420643D01*
X439421Y420610D01*
X439476Y420556D01*
X439519Y420490D01*
X439552Y420403D01*
X439563Y420304D01*
Y420282D01*
X439552Y420239D01*
X439541Y420184D01*
X439508Y420108D01*
X439465Y420031D01*
X439399Y419976D01*
X439301Y419933D01*
X439170Y419911D01*
X439159D01*
X439126D01*
X439038Y419922D01*
X433595Y421736D01*
X433584Y421747D01*
X433541Y421758D01*
X433497Y421791D01*
X433431Y421824D01*
X433377Y421878D01*
X433322Y421955D01*
X433289Y422042D01*
X433278Y422141D01*
Y422184D01*
X433289Y422239D01*
X433311Y422304D01*
X433355Y422370D01*
X433409Y422436D01*
X433486Y422490D01*
X433584Y422534D01*
X439038Y424348D01*
X439049D01*
X439082Y424359D01*
X439126Y424370D01*
X439170D01*
X439191D01*
X439235Y424359D01*
D02*
G37*
G36*
X433737Y418763D02*
X433803Y418752D01*
X433869Y418719D01*
X433945Y418676D01*
X434011Y418599D01*
X434054Y418501D01*
X434076Y418370D01*
Y417255D01*
X439170D01*
X439191D01*
X439235Y417244D01*
X439290Y417233D01*
X439366Y417200D01*
X439443Y417156D01*
X439497Y417080D01*
X439541Y416982D01*
X439563Y416850D01*
Y416828D01*
X439552Y416785D01*
X439541Y416719D01*
X439508Y416654D01*
X439465Y416577D01*
X439399Y416512D01*
X439301Y416468D01*
X439170Y416446D01*
X434076D01*
Y415298D01*
X434065Y415255D01*
X434054Y415200D01*
X434022Y415123D01*
X433978Y415047D01*
X433901Y414992D01*
X433803Y414949D01*
X433672Y414927D01*
X433650D01*
X433606Y414938D01*
X433552Y414949D01*
X433475Y414981D01*
X433398Y415025D01*
X433344Y415091D01*
X433300Y415189D01*
X433278Y415320D01*
Y418392D01*
X433289Y418435D01*
X433300Y418501D01*
X433322Y418577D01*
X433377Y418643D01*
X433442Y418709D01*
X433541Y418752D01*
X433672Y418774D01*
X433694D01*
X433737Y418763D01*
D02*
G37*
G36*
X439235Y413768D02*
X439290Y413757D01*
X439366Y413724D01*
X439443Y413681D01*
X439497Y413604D01*
X439541Y413506D01*
X439563Y413375D01*
Y413331D01*
X439552Y413276D01*
X439530Y413222D01*
X439497Y413156D01*
X439443Y413091D01*
X439377Y413036D01*
X439290Y412992D01*
X438044Y412577D01*
Y410511D01*
X439290Y410096D01*
X439301D01*
X439333Y410074D01*
X439377Y410052D01*
X439421Y410019D01*
X439476Y409965D01*
X439519Y409899D01*
X439552Y409811D01*
X439563Y409713D01*
Y409691D01*
X439552Y409648D01*
X439541Y409593D01*
X439508Y409516D01*
X439465Y409440D01*
X439399Y409385D01*
X439301Y409341D01*
X439170Y409320D01*
X439159D01*
X439126D01*
X439038Y409331D01*
X433595Y411145D01*
X433584Y411156D01*
X433541Y411167D01*
X433497Y411200D01*
X433431Y411232D01*
X433377Y411287D01*
X433322Y411364D01*
X433289Y411451D01*
X433278Y411549D01*
Y411593D01*
X433289Y411648D01*
X433311Y411713D01*
X433355Y411779D01*
X433409Y411844D01*
X433486Y411899D01*
X433584Y411943D01*
X439038Y413757D01*
X439049D01*
X439082Y413768D01*
X439126Y413779D01*
X439170D01*
X439191D01*
X439235Y413768D01*
D02*
G37*
G36*
X438055Y408183D02*
X438186Y408172D01*
X438339Y408139D01*
X438525Y408074D01*
X438710Y407986D01*
X438907Y407877D01*
X439006Y407800D01*
X439093Y407713D01*
X439115Y407691D01*
X439170Y407625D01*
X439246Y407527D01*
X439323Y407396D01*
X439410Y407232D01*
X439487Y407035D01*
X439541Y406806D01*
X439552Y406685D01*
X439563Y406565D01*
Y404707D01*
X439552Y404663D01*
X439541Y404609D01*
X439508Y404532D01*
X439465Y404456D01*
X439399Y404401D01*
X439301Y404357D01*
X439170Y404335D01*
X433672D01*
X433650D01*
X433606Y404347D01*
X433552Y404357D01*
X433475Y404390D01*
X433398Y404434D01*
X433344Y404499D01*
X433300Y404598D01*
X433278Y404729D01*
Y406631D01*
X433289Y406685D01*
X433300Y406806D01*
X433333Y406970D01*
X433388Y407156D01*
X433475Y407341D01*
X433595Y407538D01*
X433661Y407636D01*
X433748Y407724D01*
Y407735D01*
X433770Y407746D01*
X433836Y407800D01*
X433934Y407877D01*
X434065Y407964D01*
X434229Y408041D01*
X434426Y408117D01*
X434655Y408172D01*
X434776Y408194D01*
X434896D01*
X437945D01*
X437956D01*
X437978D01*
X438011D01*
X438055Y408183D01*
D02*
G37*
G36*
X423619Y428764D02*
X423685Y428753D01*
X423750Y428720D01*
X423827Y428677D01*
X423893Y428600D01*
X423936Y428502D01*
X423958Y428371D01*
Y427551D01*
X424778D01*
X424800D01*
X424844Y427540D01*
X424898Y427529D01*
X424975Y427496D01*
X425051Y427453D01*
X425106Y427376D01*
X425149Y427278D01*
X425171Y427146D01*
Y427125D01*
X425161Y427081D01*
X425149Y427015D01*
X425117Y426950D01*
X425073Y426873D01*
X425007Y426808D01*
X424909Y426764D01*
X424778Y426742D01*
X423958D01*
Y425900D01*
X423947Y425857D01*
X423936Y425791D01*
X423904Y425726D01*
X423860Y425649D01*
X423783Y425584D01*
X423685Y425540D01*
X423554Y425518D01*
X423532D01*
X423488Y425529D01*
X423433Y425540D01*
X423357Y425572D01*
X423280Y425616D01*
X423226Y425693D01*
X423182Y425791D01*
X423160Y425922D01*
Y426742D01*
X422330D01*
X422308D01*
X422264Y426753D01*
X422209Y426764D01*
X422133Y426797D01*
X422056Y426840D01*
X422002Y426917D01*
X421958Y427015D01*
X421936Y427146D01*
Y427168D01*
X421947Y427212D01*
X421958Y427278D01*
X421980Y427354D01*
X422035Y427420D01*
X422100Y427485D01*
X422198Y427529D01*
X422330Y427551D01*
X423160D01*
Y428393D01*
X423171Y428436D01*
X423182Y428502D01*
X423204Y428578D01*
X423259Y428644D01*
X423324Y428709D01*
X423423Y428753D01*
X423554Y428775D01*
X423576D01*
X423619Y428764D01*
D02*
G37*
G36*
X425456Y424359D02*
X425510Y424348D01*
X425587Y424316D01*
X425663Y424272D01*
X425718Y424195D01*
X425762Y424097D01*
X425783Y423966D01*
Y423922D01*
X425772Y423868D01*
X425751Y423813D01*
X425718Y423747D01*
X425663Y423682D01*
X425598Y423627D01*
X425510Y423583D01*
X424264Y423168D01*
Y421102D01*
X425510Y420687D01*
X425521D01*
X425554Y420665D01*
X425598Y420643D01*
X425641Y420610D01*
X425696Y420556D01*
X425740Y420490D01*
X425772Y420403D01*
X425783Y420304D01*
Y420282D01*
X425772Y420239D01*
X425762Y420184D01*
X425729Y420108D01*
X425685Y420031D01*
X425620Y419976D01*
X425521Y419933D01*
X425390Y419911D01*
X425379D01*
X425346D01*
X425259Y419922D01*
X419816Y421736D01*
X419805Y421747D01*
X419761Y421758D01*
X419717Y421791D01*
X419652Y421824D01*
X419597Y421878D01*
X419542Y421955D01*
X419510Y422042D01*
X419499Y422141D01*
Y422184D01*
X419510Y422239D01*
X419531Y422304D01*
X419575Y422370D01*
X419630Y422436D01*
X419706Y422490D01*
X419805Y422534D01*
X425259Y424348D01*
X425270D01*
X425303Y424359D01*
X425346Y424370D01*
X425390D01*
X425412D01*
X425456Y424359D01*
D02*
G37*
G36*
X419958Y418763D02*
X420023Y418752D01*
X420089Y418719D01*
X420165Y418676D01*
X420231Y418599D01*
X420275Y418501D01*
X420297Y418370D01*
Y417255D01*
X425390D01*
X425412D01*
X425456Y417244D01*
X425510Y417233D01*
X425587Y417200D01*
X425663Y417156D01*
X425718Y417080D01*
X425762Y416982D01*
X425783Y416850D01*
Y416828D01*
X425772Y416785D01*
X425762Y416719D01*
X425729Y416654D01*
X425685Y416577D01*
X425620Y416512D01*
X425521Y416468D01*
X425390Y416446D01*
X420297D01*
Y415298D01*
X420286Y415255D01*
X420275Y415200D01*
X420242Y415123D01*
X420198Y415047D01*
X420122Y414992D01*
X420023Y414949D01*
X419892Y414927D01*
X419870D01*
X419827Y414938D01*
X419772Y414949D01*
X419696Y414981D01*
X419619Y415025D01*
X419564Y415091D01*
X419521Y415189D01*
X419499Y415320D01*
Y418392D01*
X419510Y418435D01*
X419521Y418501D01*
X419542Y418577D01*
X419597Y418643D01*
X419663Y418709D01*
X419761Y418752D01*
X419892Y418774D01*
X419914D01*
X419958Y418763D01*
D02*
G37*
G36*
X425456Y413768D02*
X425510Y413757D01*
X425587Y413724D01*
X425663Y413681D01*
X425718Y413604D01*
X425762Y413506D01*
X425783Y413375D01*
Y413331D01*
X425772Y413276D01*
X425751Y413222D01*
X425718Y413156D01*
X425663Y413091D01*
X425598Y413036D01*
X425510Y412992D01*
X424264Y412577D01*
Y410511D01*
X425510Y410096D01*
X425521D01*
X425554Y410074D01*
X425598Y410052D01*
X425641Y410019D01*
X425696Y409965D01*
X425740Y409899D01*
X425772Y409811D01*
X425783Y409713D01*
Y409691D01*
X425772Y409648D01*
X425762Y409593D01*
X425729Y409516D01*
X425685Y409440D01*
X425620Y409385D01*
X425521Y409341D01*
X425390Y409320D01*
X425379D01*
X425346D01*
X425259Y409331D01*
X419816Y411145D01*
X419805Y411156D01*
X419761Y411167D01*
X419717Y411200D01*
X419652Y411232D01*
X419597Y411287D01*
X419542Y411364D01*
X419510Y411451D01*
X419499Y411549D01*
Y411593D01*
X419510Y411648D01*
X419531Y411713D01*
X419575Y411779D01*
X419630Y411844D01*
X419706Y411899D01*
X419805Y411943D01*
X425259Y413757D01*
X425270D01*
X425303Y413768D01*
X425346Y413779D01*
X425390D01*
X425412D01*
X425456Y413768D01*
D02*
G37*
G36*
X424275Y408183D02*
X424406Y408172D01*
X424559Y408139D01*
X424745Y408074D01*
X424931Y407986D01*
X425128Y407877D01*
X425226Y407800D01*
X425314Y407713D01*
X425335Y407691D01*
X425390Y407625D01*
X425466Y407527D01*
X425543Y407396D01*
X425631Y407232D01*
X425707Y407035D01*
X425762Y406806D01*
X425772Y406685D01*
X425783Y406565D01*
Y404707D01*
X425772Y404663D01*
X425762Y404609D01*
X425729Y404532D01*
X425685Y404456D01*
X425620Y404401D01*
X425521Y404357D01*
X425390Y404335D01*
X419892D01*
X419870D01*
X419827Y404347D01*
X419772Y404357D01*
X419696Y404390D01*
X419619Y404434D01*
X419564Y404499D01*
X419521Y404598D01*
X419499Y404729D01*
Y406631D01*
X419510Y406685D01*
X419521Y406806D01*
X419553Y406970D01*
X419608Y407156D01*
X419696Y407341D01*
X419816Y407538D01*
X419881Y407636D01*
X419969Y407724D01*
Y407735D01*
X419991Y407746D01*
X420056Y407800D01*
X420154Y407877D01*
X420286Y407964D01*
X420450Y408041D01*
X420646Y408117D01*
X420876Y408172D01*
X420996Y408194D01*
X421116D01*
X424166D01*
X424177D01*
X424199D01*
X424231D01*
X424275Y408183D01*
D02*
G37*
G36*
X410146Y421900D02*
X410211Y421889D01*
X410277Y421856D01*
X410354Y421813D01*
X410419Y421736D01*
X410463Y421638D01*
X410485Y421507D01*
Y419036D01*
X410474Y418993D01*
X410463Y418938D01*
X410430Y418861D01*
X410386Y418785D01*
X410310Y418730D01*
X410211Y418687D01*
X410080Y418665D01*
X410058D01*
X410015Y418676D01*
X409960Y418687D01*
X409883Y418719D01*
X409807Y418763D01*
X409752Y418829D01*
X409709Y418927D01*
X409687Y419058D01*
Y421528D01*
X409698Y421572D01*
X409709Y421638D01*
X409730Y421714D01*
X409785Y421780D01*
X409851Y421845D01*
X409949Y421889D01*
X410080Y421911D01*
X410102D01*
X410146Y421900D01*
D02*
G37*
G36*
X411698Y417517D02*
X411785Y417473D01*
X411840Y417451D01*
X411884Y417408D01*
X411906Y417386D01*
X411938Y417331D01*
X411982Y417233D01*
X411993Y417178D01*
X412004Y417124D01*
Y417080D01*
X411993Y417036D01*
X411971Y416993D01*
X411938Y416927D01*
X411895Y416861D01*
X411829Y416807D01*
X411742Y416752D01*
X408823Y415156D01*
X409632Y414490D01*
X411611D01*
X411632D01*
X411676Y414479D01*
X411731Y414468D01*
X411807Y414435D01*
X411884Y414391D01*
X411938Y414315D01*
X411982Y414216D01*
X412004Y414085D01*
Y414063D01*
X411993Y414019D01*
X411982Y413954D01*
X411949Y413888D01*
X411906Y413812D01*
X411840Y413746D01*
X411742Y413702D01*
X411611Y413681D01*
X406113D01*
X406091D01*
X406047Y413692D01*
X405992Y413702D01*
X405916Y413735D01*
X405839Y413779D01*
X405785Y413856D01*
X405741Y413954D01*
X405719Y414085D01*
Y414107D01*
X405730Y414151D01*
X405741Y414216D01*
X405763Y414293D01*
X405818Y414358D01*
X405883Y414424D01*
X405981Y414468D01*
X406113Y414490D01*
X408583D01*
X405839Y416840D01*
X405829D01*
X405818Y416861D01*
X405774Y416916D01*
X405741Y417003D01*
X405719Y417058D01*
Y417145D01*
X405730Y417189D01*
X405741Y417255D01*
X405774Y417331D01*
X405818Y417397D01*
X405894Y417462D01*
X405992Y417506D01*
X406124Y417528D01*
X406135D01*
X406145D01*
X406211Y417517D01*
X406298Y417484D01*
X406397Y417419D01*
X408266Y415703D01*
X411414Y417473D01*
X411436Y417484D01*
X411479Y417506D01*
X411534Y417517D01*
X411611Y417528D01*
X411621D01*
X411632D01*
X411698Y417517D01*
D02*
G37*
G36*
X411665Y412544D02*
X411731Y412533D01*
X411796Y412500D01*
X411873Y412457D01*
X411938Y412380D01*
X411982Y412282D01*
X412004Y412150D01*
Y410872D01*
X411993Y410828D01*
X411982Y410697D01*
X411949Y410544D01*
X411884Y410358D01*
X411807Y410172D01*
X411687Y409975D01*
X411621Y409877D01*
X411534Y409790D01*
X411523D01*
X411512Y409768D01*
X411447Y409713D01*
X411348Y409637D01*
X411217Y409560D01*
X411042Y409473D01*
X410856Y409396D01*
X410627Y409341D01*
X410506Y409331D01*
X410386Y409320D01*
X407337D01*
X407326D01*
X407304D01*
X407271D01*
X407228Y409331D01*
X407096Y409341D01*
X406943Y409374D01*
X406769Y409440D01*
X406572Y409516D01*
X406386Y409637D01*
X406288Y409702D01*
X406200Y409790D01*
X406189Y409800D01*
X406178Y409811D01*
X406124Y409877D01*
X406047Y409975D01*
X405960Y410107D01*
X405872Y410282D01*
X405796Y410467D01*
X405741Y410697D01*
X405719Y410817D01*
Y412172D01*
X405730Y412216D01*
X405741Y412282D01*
X405763Y412358D01*
X405818Y412424D01*
X405883Y412489D01*
X405981Y412533D01*
X406113Y412555D01*
X406135D01*
X406178Y412544D01*
X406244Y412533D01*
X406309Y412500D01*
X406386Y412457D01*
X406452Y412380D01*
X406495Y412282D01*
X406517Y412150D01*
Y410883D01*
X406528Y410817D01*
X406550Y410741D01*
X406572Y410642D01*
X406615Y410555D01*
X406681Y410456D01*
X406757Y410358D01*
X406769Y410347D01*
X406801Y410325D01*
X406856Y410282D01*
X406921Y410249D01*
X407009Y410205D01*
X407107Y410161D01*
X407217Y410139D01*
X407337Y410128D01*
X410386D01*
X410397D01*
X410441D01*
X410506Y410139D01*
X410594Y410161D01*
X410681Y410183D01*
X410780Y410227D01*
X410878Y410282D01*
X410977Y410358D01*
X410987Y410369D01*
X411009Y410402D01*
X411053Y410456D01*
X411086Y410522D01*
X411130Y410609D01*
X411173Y410708D01*
X411195Y410817D01*
X411206Y410937D01*
Y412172D01*
X411217Y412216D01*
X411228Y412282D01*
X411250Y412358D01*
X411304Y412424D01*
X411370Y412489D01*
X411468Y412533D01*
X411599Y412555D01*
X411621D01*
X411665Y412544D01*
D02*
G37*
G36*
X410496Y408183D02*
X410627Y408172D01*
X410780Y408139D01*
X410955Y408074D01*
X411151Y407986D01*
X411348Y407877D01*
X411447Y407800D01*
X411534Y407713D01*
X411556Y407691D01*
X411611Y407625D01*
X411687Y407527D01*
X411763Y407385D01*
X411851Y407221D01*
X411927Y407024D01*
X411982Y406806D01*
X411993Y406685D01*
X412004Y406565D01*
Y406456D01*
X411993Y406368D01*
X411982Y406270D01*
X411971Y406150D01*
X411949Y406019D01*
X411916Y405877D01*
X411840Y405549D01*
X411785Y405385D01*
X411720Y405210D01*
X411643Y405024D01*
X411545Y404849D01*
X411447Y404674D01*
X411326Y404499D01*
X411315Y404489D01*
X411304Y404478D01*
X411239Y404423D01*
X411130Y404357D01*
X411064Y404347D01*
X410998Y404335D01*
X410987D01*
X410966D01*
X410900Y404347D01*
X410813Y404379D01*
X410725Y404445D01*
X410714Y404456D01*
X410703Y404467D01*
X410660Y404521D01*
X410627Y404620D01*
X410605Y404674D01*
Y404751D01*
X410616Y404795D01*
X410627Y404860D01*
X410660Y404937D01*
X410671Y404948D01*
X410692Y404991D01*
X410725Y405057D01*
X410780Y405155D01*
X410845Y405275D01*
X410922Y405418D01*
X410998Y405592D01*
X411097Y405789D01*
Y405800D01*
X411119Y405855D01*
X411130Y405920D01*
X411151Y406019D01*
X411173Y406128D01*
X411184Y406259D01*
X411206Y406412D01*
Y406620D01*
X411195Y406685D01*
X411173Y406762D01*
X411151Y406849D01*
X411108Y406948D01*
X411042Y407035D01*
X410966Y407134D01*
X410955Y407144D01*
X410922Y407177D01*
X410867Y407210D01*
X410802Y407265D01*
X410714Y407308D01*
X410616Y407341D01*
X410506Y407374D01*
X410386Y407385D01*
X410375D01*
X410364D01*
X410310D01*
X410222Y407363D01*
X410113Y407341D01*
X409993Y407298D01*
X409873Y407243D01*
X409763Y407156D01*
X409665Y407035D01*
X408780Y405210D01*
X408769Y405199D01*
X408758Y405177D01*
X408736Y405133D01*
X408692Y405079D01*
X408648Y405002D01*
X408583Y404937D01*
X408517Y404849D01*
X408430Y404773D01*
X408331Y404696D01*
X408233Y404609D01*
X408113Y404543D01*
X407982Y404478D01*
X407840Y404412D01*
X407687Y404368D01*
X407512Y404347D01*
X407337Y404335D01*
X407326D01*
X407304D01*
X407271D01*
X407228Y404347D01*
X407096Y404357D01*
X406943Y404390D01*
X406769Y404456D01*
X406572Y404532D01*
X406386Y404653D01*
X406288Y404718D01*
X406200Y404806D01*
X406189Y404816D01*
X406178Y404827D01*
X406124Y404893D01*
X406047Y404991D01*
X405960Y405123D01*
X405872Y405297D01*
X405796Y405483D01*
X405741Y405713D01*
X405719Y405833D01*
Y406139D01*
X405730Y406226D01*
X405741Y406336D01*
X405752Y406456D01*
X405763Y406576D01*
X405807Y406849D01*
X405861Y407134D01*
X405949Y407407D01*
X406003Y407527D01*
X406069Y407647D01*
X406080Y407658D01*
X406091Y407680D01*
X406124Y407724D01*
X406167Y407768D01*
X406277Y407844D01*
X406353Y407866D01*
X406430Y407877D01*
X406441D01*
X406452D01*
X406528Y407866D01*
X406615Y407822D01*
X406670Y407800D01*
X406714Y407757D01*
X406736Y407735D01*
X406769Y407680D01*
X406812Y407593D01*
X406823Y407538D01*
X406834Y407472D01*
Y407462D01*
X406823Y407429D01*
X406812Y407374D01*
X406790Y407308D01*
Y407298D01*
X406779Y407276D01*
X406769Y407243D01*
X406747Y407188D01*
X406725Y407134D01*
X406703Y407057D01*
X406648Y406882D01*
X406604Y406675D01*
X406561Y406445D01*
X406528Y406205D01*
X406517Y405953D01*
Y405899D01*
X406528Y405833D01*
X406550Y405756D01*
X406572Y405658D01*
X406615Y405571D01*
X406681Y405472D01*
X406757Y405374D01*
X406769Y405363D01*
X406801Y405341D01*
X406856Y405297D01*
X406921Y405265D01*
X407009Y405221D01*
X407107Y405177D01*
X407217Y405155D01*
X407337Y405144D01*
X407348D01*
X407359D01*
X407424Y405155D01*
X407512Y405166D01*
X407621Y405199D01*
X407741Y405254D01*
X407862Y405330D01*
X407971Y405440D01*
X408069Y405582D01*
X408954Y407298D01*
Y407308D01*
X408976Y407341D01*
X408998Y407385D01*
X409042Y407440D01*
X409086Y407505D01*
X409151Y407582D01*
X409228Y407658D01*
X409304Y407746D01*
X409403Y407833D01*
X409501Y407910D01*
X409621Y407986D01*
X409752Y408052D01*
X409894Y408106D01*
X410047Y408161D01*
X410211Y408183D01*
X410386Y408194D01*
X410397D01*
X410419D01*
X410452D01*
X410496Y408183D01*
D02*
G37*
G36*
X396060Y421911D02*
X396126Y421900D01*
X396191Y421867D01*
X396268Y421824D01*
X396334Y421747D01*
X396377Y421649D01*
X396399Y421518D01*
Y420698D01*
X397219D01*
X397241D01*
X397284Y420687D01*
X397339Y420676D01*
X397416Y420643D01*
X397492Y420599D01*
X397547Y420523D01*
X397590Y420425D01*
X397612Y420293D01*
Y420271D01*
X397601Y420228D01*
X397590Y420162D01*
X397558Y420097D01*
X397514Y420020D01*
X397448Y419954D01*
X397350Y419911D01*
X397219Y419889D01*
X396399D01*
Y419047D01*
X396388Y419004D01*
X396377Y418938D01*
X396344Y418872D01*
X396301Y418796D01*
X396224Y418730D01*
X396126Y418687D01*
X395995Y418665D01*
X395973D01*
X395929Y418676D01*
X395875Y418687D01*
X395798Y418719D01*
X395721Y418763D01*
X395667Y418840D01*
X395623Y418938D01*
X395601Y419069D01*
Y419889D01*
X394771D01*
X394749D01*
X394705Y419900D01*
X394650Y419911D01*
X394574Y419944D01*
X394497Y419987D01*
X394443Y420064D01*
X394399Y420162D01*
X394377Y420293D01*
Y420315D01*
X394388Y420359D01*
X394399Y420425D01*
X394421Y420501D01*
X394475Y420567D01*
X394541Y420632D01*
X394639Y420676D01*
X394771Y420698D01*
X395601D01*
Y421539D01*
X395612Y421583D01*
X395623Y421649D01*
X395645Y421725D01*
X395700Y421791D01*
X395765Y421856D01*
X395864Y421900D01*
X395995Y421922D01*
X396017D01*
X396060Y421911D01*
D02*
G37*
G36*
X397918Y417517D02*
X398006Y417473D01*
X398060Y417451D01*
X398104Y417408D01*
X398126Y417386D01*
X398159Y417331D01*
X398203Y417233D01*
X398214Y417178D01*
X398224Y417124D01*
Y417080D01*
X398214Y417036D01*
X398192Y416993D01*
X398159Y416927D01*
X398115Y416861D01*
X398049Y416807D01*
X397962Y416752D01*
X395044Y415156D01*
X395853Y414490D01*
X397831D01*
X397853D01*
X397897Y414479D01*
X397951Y414468D01*
X398028Y414435D01*
X398104Y414391D01*
X398159Y414315D01*
X398203Y414216D01*
X398224Y414085D01*
Y414063D01*
X398214Y414019D01*
X398203Y413954D01*
X398170Y413888D01*
X398126Y413812D01*
X398060Y413746D01*
X397962Y413702D01*
X397831Y413681D01*
X392333D01*
X392311D01*
X392268Y413692D01*
X392213Y413702D01*
X392136Y413735D01*
X392060Y413779D01*
X392005Y413856D01*
X391962Y413954D01*
X391940Y414085D01*
Y414107D01*
X391951Y414151D01*
X391962Y414216D01*
X391983Y414293D01*
X392038Y414358D01*
X392104Y414424D01*
X392202Y414468D01*
X392333Y414490D01*
X394803D01*
X392060Y416840D01*
X392049D01*
X392038Y416861D01*
X391994Y416916D01*
X391962Y417003D01*
X391940Y417058D01*
Y417145D01*
X391951Y417189D01*
X391962Y417255D01*
X391994Y417331D01*
X392038Y417397D01*
X392114Y417462D01*
X392213Y417506D01*
X392344Y417528D01*
X392355D01*
X392366D01*
X392431Y417517D01*
X392519Y417484D01*
X392617Y417419D01*
X394486Y415703D01*
X397634Y417473D01*
X397656Y417484D01*
X397700Y417506D01*
X397754Y417517D01*
X397831Y417528D01*
X397842D01*
X397853D01*
X397918Y417517D01*
D02*
G37*
G36*
X397886Y412544D02*
X397951Y412533D01*
X398017Y412500D01*
X398093Y412457D01*
X398159Y412380D01*
X398203Y412282D01*
X398224Y412150D01*
Y410872D01*
X398214Y410828D01*
X398203Y410697D01*
X398170Y410544D01*
X398104Y410358D01*
X398028Y410172D01*
X397907Y409975D01*
X397842Y409877D01*
X397754Y409790D01*
X397744D01*
X397733Y409768D01*
X397667Y409713D01*
X397569Y409637D01*
X397437Y409560D01*
X397263Y409473D01*
X397077Y409396D01*
X396847Y409341D01*
X396727Y409331D01*
X396607Y409320D01*
X393557D01*
X393546D01*
X393525D01*
X393492D01*
X393448Y409331D01*
X393317Y409341D01*
X393164Y409374D01*
X392989Y409440D01*
X392792Y409516D01*
X392606Y409637D01*
X392508Y409702D01*
X392421Y409790D01*
X392410Y409800D01*
X392399Y409811D01*
X392344Y409877D01*
X392268Y409975D01*
X392180Y410107D01*
X392093Y410282D01*
X392016Y410467D01*
X391962Y410697D01*
X391940Y410817D01*
Y412172D01*
X391951Y412216D01*
X391962Y412282D01*
X391983Y412358D01*
X392038Y412424D01*
X392104Y412489D01*
X392202Y412533D01*
X392333Y412555D01*
X392355D01*
X392399Y412544D01*
X392464Y412533D01*
X392530Y412500D01*
X392606Y412457D01*
X392672Y412380D01*
X392716Y412282D01*
X392738Y412150D01*
Y410883D01*
X392748Y410817D01*
X392770Y410741D01*
X392792Y410642D01*
X392836Y410555D01*
X392901Y410456D01*
X392978Y410358D01*
X392989Y410347D01*
X393022Y410325D01*
X393076Y410282D01*
X393142Y410249D01*
X393229Y410205D01*
X393328Y410161D01*
X393437Y410139D01*
X393557Y410128D01*
X396607D01*
X396618D01*
X396661D01*
X396727Y410139D01*
X396814Y410161D01*
X396902Y410183D01*
X397000Y410227D01*
X397099Y410282D01*
X397197Y410358D01*
X397208Y410369D01*
X397230Y410402D01*
X397273Y410456D01*
X397306Y410522D01*
X397350Y410609D01*
X397394Y410708D01*
X397416Y410817D01*
X397427Y410937D01*
Y412172D01*
X397437Y412216D01*
X397448Y412282D01*
X397470Y412358D01*
X397525Y412424D01*
X397590Y412489D01*
X397689Y412533D01*
X397820Y412555D01*
X397842D01*
X397886Y412544D01*
D02*
G37*
G36*
X396716Y408183D02*
X396847Y408172D01*
X397000Y408139D01*
X397175Y408074D01*
X397372Y407986D01*
X397569Y407877D01*
X397667Y407800D01*
X397754Y407713D01*
X397776Y407691D01*
X397831Y407625D01*
X397907Y407527D01*
X397984Y407385D01*
X398071Y407221D01*
X398148Y407024D01*
X398203Y406806D01*
X398214Y406685D01*
X398224Y406565D01*
Y406456D01*
X398214Y406368D01*
X398203Y406270D01*
X398192Y406150D01*
X398170Y406019D01*
X398137Y405877D01*
X398060Y405549D01*
X398006Y405385D01*
X397940Y405210D01*
X397864Y405024D01*
X397765Y404849D01*
X397667Y404674D01*
X397547Y404499D01*
X397536Y404489D01*
X397525Y404478D01*
X397459Y404423D01*
X397350Y404357D01*
X397284Y404347D01*
X397219Y404335D01*
X397208D01*
X397186D01*
X397120Y404347D01*
X397033Y404379D01*
X396946Y404445D01*
X396935Y404456D01*
X396924Y404467D01*
X396880Y404521D01*
X396847Y404620D01*
X396825Y404674D01*
Y404751D01*
X396836Y404795D01*
X396847Y404860D01*
X396880Y404937D01*
X396891Y404948D01*
X396913Y404991D01*
X396946Y405057D01*
X397000Y405155D01*
X397066Y405275D01*
X397142Y405418D01*
X397219Y405592D01*
X397317Y405789D01*
Y405800D01*
X397339Y405855D01*
X397350Y405920D01*
X397372Y406019D01*
X397394Y406128D01*
X397405Y406259D01*
X397427Y406412D01*
Y406620D01*
X397416Y406685D01*
X397394Y406762D01*
X397372Y406849D01*
X397328Y406948D01*
X397263Y407035D01*
X397186Y407134D01*
X397175Y407144D01*
X397142Y407177D01*
X397088Y407210D01*
X397022Y407265D01*
X396935Y407308D01*
X396836Y407341D01*
X396727Y407374D01*
X396607Y407385D01*
X396596D01*
X396585D01*
X396530D01*
X396443Y407363D01*
X396334Y407341D01*
X396213Y407298D01*
X396093Y407243D01*
X395984Y407156D01*
X395885Y407035D01*
X395000Y405210D01*
X394989Y405199D01*
X394978Y405177D01*
X394956Y405133D01*
X394913Y405079D01*
X394869Y405002D01*
X394803Y404937D01*
X394738Y404849D01*
X394650Y404773D01*
X394552Y404696D01*
X394454Y404609D01*
X394333Y404543D01*
X394202Y404478D01*
X394060Y404412D01*
X393907Y404368D01*
X393732Y404347D01*
X393557Y404335D01*
X393546D01*
X393525D01*
X393492D01*
X393448Y404347D01*
X393317Y404357D01*
X393164Y404390D01*
X392989Y404456D01*
X392792Y404532D01*
X392606Y404653D01*
X392508Y404718D01*
X392421Y404806D01*
X392410Y404816D01*
X392399Y404827D01*
X392344Y404893D01*
X392268Y404991D01*
X392180Y405123D01*
X392093Y405297D01*
X392016Y405483D01*
X391962Y405713D01*
X391940Y405833D01*
Y406139D01*
X391951Y406226D01*
X391962Y406336D01*
X391972Y406456D01*
X391983Y406576D01*
X392027Y406849D01*
X392082Y407134D01*
X392169Y407407D01*
X392224Y407527D01*
X392289Y407647D01*
X392300Y407658D01*
X392311Y407680D01*
X392344Y407724D01*
X392388Y407768D01*
X392497Y407844D01*
X392574Y407866D01*
X392650Y407877D01*
X392661D01*
X392672D01*
X392748Y407866D01*
X392836Y407822D01*
X392891Y407800D01*
X392934Y407757D01*
X392956Y407735D01*
X392989Y407680D01*
X393033Y407593D01*
X393044Y407538D01*
X393055Y407472D01*
Y407462D01*
X393044Y407429D01*
X393033Y407374D01*
X393011Y407308D01*
Y407298D01*
X393000Y407276D01*
X392989Y407243D01*
X392967Y407188D01*
X392945Y407134D01*
X392923Y407057D01*
X392869Y406882D01*
X392825Y406675D01*
X392781Y406445D01*
X392748Y406205D01*
X392738Y405953D01*
Y405899D01*
X392748Y405833D01*
X392770Y405756D01*
X392792Y405658D01*
X392836Y405571D01*
X392901Y405472D01*
X392978Y405374D01*
X392989Y405363D01*
X393022Y405341D01*
X393076Y405297D01*
X393142Y405265D01*
X393229Y405221D01*
X393328Y405177D01*
X393437Y405155D01*
X393557Y405144D01*
X393568D01*
X393579D01*
X393645Y405155D01*
X393732Y405166D01*
X393842Y405199D01*
X393962Y405254D01*
X394082Y405330D01*
X394191Y405440D01*
X394290Y405582D01*
X395175Y407298D01*
Y407308D01*
X395197Y407341D01*
X395219Y407385D01*
X395262Y407440D01*
X395306Y407505D01*
X395372Y407582D01*
X395448Y407658D01*
X395525Y407746D01*
X395623Y407833D01*
X395721Y407910D01*
X395842Y407986D01*
X395973Y408052D01*
X396115Y408106D01*
X396268Y408161D01*
X396432Y408183D01*
X396607Y408194D01*
X396618D01*
X396640D01*
X396672D01*
X396716Y408183D01*
D02*
G37*
G36*
X382685Y400532D02*
X382838Y400519D01*
X383017Y400481D01*
X383234Y400404D01*
X383450Y400302D01*
X383680Y400175D01*
X383795Y400085D01*
X383897Y399983D01*
X383922Y399958D01*
X383986Y399881D01*
X384075Y399767D01*
X384164Y399601D01*
X384266Y399410D01*
X384356Y399180D01*
X384419Y398925D01*
X384432Y398785D01*
X384445Y398645D01*
Y397191D01*
X384432Y397140D01*
X384419Y397076D01*
X384381Y396987D01*
X384330Y396898D01*
X384241Y396834D01*
X384126Y396783D01*
X383973Y396758D01*
X383948D01*
X383897Y396770D01*
X383833Y396783D01*
X383744Y396821D01*
X383654Y396872D01*
X383591Y396949D01*
X383540Y397064D01*
X383514Y397217D01*
Y398708D01*
X383501Y398785D01*
X383476Y398874D01*
X383450Y398989D01*
X383399Y399091D01*
X383336Y399206D01*
X383246Y399320D01*
X383234Y399333D01*
X383195Y399359D01*
X383132Y399410D01*
X383055Y399461D01*
X382953Y399512D01*
X382838Y399563D01*
X382698Y399588D01*
X382558Y399601D01*
X381844D01*
X381831D01*
X381780D01*
X381704Y399588D01*
X381614Y399563D01*
X381500Y399537D01*
X381398Y399486D01*
X381283Y399410D01*
X381168Y399320D01*
X381155Y399308D01*
X381130Y399269D01*
X381079Y399206D01*
X381028Y399129D01*
X380977Y399027D01*
X380926Y398912D01*
X380900Y398785D01*
X380888Y398645D01*
Y397191D01*
X380875Y397140D01*
X380862Y397076D01*
X380824Y396987D01*
X380773Y396898D01*
X380696Y396834D01*
X380582Y396783D01*
X380429Y396758D01*
X377573D01*
X377547D01*
X377496Y396770D01*
X377432Y396783D01*
X377343Y396821D01*
X377254Y396872D01*
X377190Y396949D01*
X377139Y397064D01*
X377114Y397217D01*
Y399741D01*
X377126Y399792D01*
X377139Y399869D01*
X377165Y399958D01*
X377228Y400034D01*
X377305Y400111D01*
X377420Y400162D01*
X377573Y400187D01*
X377598D01*
X377649Y400175D01*
X377726Y400162D01*
X377802Y400124D01*
X377891Y400073D01*
X377968Y399983D01*
X378019Y399869D01*
X378044Y399716D01*
Y397701D01*
X379957D01*
Y398721D01*
X379970Y398772D01*
X379982Y398925D01*
X380021Y399104D01*
X380097Y399320D01*
X380199Y399537D01*
X380327Y399767D01*
X380416Y399881D01*
X380518Y399983D01*
Y399996D01*
X380543Y400009D01*
X380620Y400073D01*
X380735Y400162D01*
X380888Y400264D01*
X381092Y400366D01*
X381308Y400455D01*
X381563Y400519D01*
X381704Y400544D01*
X381844D01*
X382558D01*
X382571D01*
X382596D01*
X382634D01*
X382685Y400532D01*
D02*
G37*
G36*
Y395444D02*
X382838Y395432D01*
X383017Y395393D01*
X383234Y395317D01*
X383450Y395215D01*
X383680Y395087D01*
X383795Y394998D01*
X383897Y394896D01*
X383922Y394871D01*
X383986Y394794D01*
X384075Y394679D01*
X384164Y394526D01*
X384266Y394335D01*
X384356Y394106D01*
X384419Y393838D01*
X384432Y393698D01*
X384445Y393557D01*
Y393481D01*
X384432Y393430D01*
X384419Y393277D01*
X384381Y393098D01*
X384305Y392882D01*
X384215Y392665D01*
X384075Y392435D01*
X383999Y392321D01*
X383897Y392219D01*
X383884D01*
X383871Y392193D01*
X383795Y392129D01*
X383680Y392040D01*
X383527Y391951D01*
X383323Y391849D01*
X383106Y391760D01*
X382838Y391696D01*
X382698Y391683D01*
X382558Y391670D01*
X381844D01*
X381831D01*
X381806D01*
X381755D01*
X381691Y391683D01*
X381614Y391696D01*
X381525Y391709D01*
X381321Y391760D01*
X381092Y391836D01*
X380849Y391964D01*
X380735Y392053D01*
X380633Y392142D01*
X380518Y392244D01*
X380429Y392372D01*
Y392359D01*
X380403Y392346D01*
X380339Y392257D01*
X380225Y392155D01*
X380072Y392027D01*
X379868Y391887D01*
X379625Y391785D01*
X379332Y391696D01*
X379166Y391683D01*
X379001Y391670D01*
X378988D01*
X378962D01*
X378924D01*
X378873Y391683D01*
X378720Y391696D01*
X378542Y391734D01*
X378338Y391811D01*
X378108Y391900D01*
X377891Y392040D01*
X377777Y392117D01*
X377675Y392219D01*
X377662Y392231D01*
X377649Y392244D01*
X377585Y392321D01*
X377496Y392435D01*
X377394Y392588D01*
X377292Y392792D01*
X377203Y393009D01*
X377139Y393277D01*
X377114Y393417D01*
Y393634D01*
X377126Y393685D01*
X377139Y393838D01*
X377177Y394016D01*
X377254Y394233D01*
X377356Y394450D01*
X377483Y394679D01*
X377573Y394794D01*
X377675Y394896D01*
Y394909D01*
X377700Y394922D01*
X377777Y394985D01*
X377891Y395075D01*
X378044Y395177D01*
X378236Y395279D01*
X378465Y395368D01*
X378720Y395432D01*
X378860Y395457D01*
X379001D01*
X379013D01*
X379039D01*
X379090D01*
X379154Y395444D01*
X379230Y395432D01*
X379319Y395419D01*
X379536Y395368D01*
X379766Y395279D01*
X379995Y395151D01*
X380123Y395075D01*
X380225Y394985D01*
X380327Y394871D01*
X380429Y394743D01*
X380441Y394769D01*
X380492Y394820D01*
X380569Y394909D01*
X380671Y395011D01*
X380798Y395113D01*
X380964Y395228D01*
X381143Y395317D01*
X381359Y395381D01*
X381372D01*
X381423Y395393D01*
X381500Y395406D01*
X381614Y395419D01*
X381780Y395432D01*
X381984Y395444D01*
X382112D01*
X382252Y395457D01*
X382392D01*
X382558D01*
X382571D01*
X382596D01*
X382634D01*
X382685Y395444D01*
D02*
G37*
G36*
X382622Y390332D02*
X382698Y390319D01*
X382775Y390281D01*
X382864Y390230D01*
X382940Y390140D01*
X382991Y390026D01*
X383017Y389873D01*
Y389286D01*
X383973D01*
X383999D01*
X384050Y389273D01*
X384126Y389261D01*
X384203Y389222D01*
X384292Y389171D01*
X384368Y389082D01*
X384419Y388967D01*
X384445Y388814D01*
Y388789D01*
X384432Y388738D01*
X384419Y388661D01*
X384381Y388585D01*
X384330Y388496D01*
X384241Y388419D01*
X384126Y388368D01*
X383973Y388343D01*
X383017D01*
Y386290D01*
X383004Y386239D01*
X382991Y386175D01*
X382953Y386086D01*
X382902Y385997D01*
X382826Y385933D01*
X382711Y385882D01*
X382558Y385856D01*
X382545D01*
X382507D01*
X382430Y385869D01*
X377458Y387284D01*
X377445D01*
X377407Y387310D01*
X377343Y387335D01*
X377279Y387386D01*
X377228Y387437D01*
X377165Y387527D01*
X377126Y387616D01*
X377114Y387743D01*
Y387769D01*
X377126Y387820D01*
X377139Y387896D01*
X377177Y387986D01*
X377228Y388062D01*
X377318Y388139D01*
X377432Y388190D01*
X377585Y388215D01*
X377598D01*
X377624D01*
X377675Y388202D01*
X377751Y388177D01*
X382086Y386915D01*
Y388343D01*
X381117D01*
X381092D01*
X381041Y388355D01*
X380977Y388368D01*
X380888Y388406D01*
X380798Y388457D01*
X380735Y388547D01*
X380684Y388661D01*
X380658Y388814D01*
Y388840D01*
X380671Y388891D01*
X380684Y388967D01*
X380709Y389057D01*
X380773Y389133D01*
X380849Y389210D01*
X380964Y389261D01*
X381117Y389286D01*
X382086D01*
Y389898D01*
X382099Y389949D01*
X382112Y390026D01*
X382137Y390115D01*
X382201Y390191D01*
X382277Y390268D01*
X382392Y390319D01*
X382545Y390344D01*
X382571D01*
X382622Y390332D01*
D02*
G37*
G36*
X382685Y384530D02*
X382838Y384518D01*
X383017Y384479D01*
X383221Y384403D01*
X383450Y384301D01*
X383680Y384173D01*
X383795Y384084D01*
X383897Y383982D01*
X383922Y383957D01*
X383986Y383880D01*
X384075Y383765D01*
X384164Y383600D01*
X384266Y383408D01*
X384356Y383179D01*
X384419Y382924D01*
X384432Y382784D01*
X384445Y382643D01*
Y382516D01*
X384432Y382414D01*
X384419Y382299D01*
X384407Y382159D01*
X384381Y382006D01*
X384343Y381840D01*
X384254Y381458D01*
X384190Y381266D01*
X384113Y381062D01*
X384024Y380846D01*
X383909Y380642D01*
X383795Y380438D01*
X383654Y380234D01*
X383642Y380221D01*
X383629Y380208D01*
X383552Y380144D01*
X383425Y380068D01*
X383348Y380055D01*
X383272Y380042D01*
X383259D01*
X383234D01*
X383157Y380055D01*
X383055Y380093D01*
X382953Y380170D01*
X382940Y380183D01*
X382928Y380195D01*
X382877Y380259D01*
X382838Y380374D01*
X382813Y380438D01*
Y380527D01*
X382826Y380578D01*
X382838Y380654D01*
X382877Y380744D01*
X382889Y380756D01*
X382915Y380807D01*
X382953Y380884D01*
X383017Y380999D01*
X383093Y381139D01*
X383183Y381305D01*
X383272Y381509D01*
X383387Y381738D01*
Y381751D01*
X383412Y381815D01*
X383425Y381891D01*
X383450Y382006D01*
X383476Y382133D01*
X383489Y382286D01*
X383514Y382465D01*
Y382707D01*
X383501Y382784D01*
X383476Y382873D01*
X383450Y382975D01*
X383399Y383090D01*
X383323Y383192D01*
X383234Y383306D01*
X383221Y383319D01*
X383183Y383357D01*
X383119Y383396D01*
X383042Y383459D01*
X382940Y383510D01*
X382826Y383549D01*
X382698Y383587D01*
X382558Y383600D01*
X382545D01*
X382532D01*
X382469D01*
X382367Y383574D01*
X382239Y383549D01*
X382099Y383498D01*
X381959Y383434D01*
X381831Y383332D01*
X381716Y383192D01*
X380684Y381062D01*
X380671Y381050D01*
X380658Y381024D01*
X380633Y380973D01*
X380582Y380909D01*
X380531Y380820D01*
X380454Y380744D01*
X380378Y380642D01*
X380276Y380552D01*
X380161Y380463D01*
X380046Y380361D01*
X379906Y380285D01*
X379753Y380208D01*
X379587Y380132D01*
X379409Y380081D01*
X379205Y380055D01*
X379001Y380042D01*
X378988D01*
X378962D01*
X378924D01*
X378873Y380055D01*
X378720Y380068D01*
X378542Y380106D01*
X378338Y380183D01*
X378108Y380272D01*
X377891Y380412D01*
X377777Y380489D01*
X377675Y380591D01*
X377662Y380603D01*
X377649Y380616D01*
X377585Y380693D01*
X377496Y380807D01*
X377394Y380960D01*
X377292Y381164D01*
X377203Y381381D01*
X377139Y381649D01*
X377114Y381789D01*
Y382146D01*
X377126Y382248D01*
X377139Y382376D01*
X377152Y382516D01*
X377165Y382656D01*
X377216Y382975D01*
X377279Y383306D01*
X377381Y383625D01*
X377445Y383765D01*
X377522Y383906D01*
X377534Y383918D01*
X377547Y383944D01*
X377585Y383995D01*
X377636Y384046D01*
X377764Y384135D01*
X377853Y384161D01*
X377942Y384173D01*
X377955D01*
X377968D01*
X378057Y384161D01*
X378159Y384110D01*
X378223Y384084D01*
X378274Y384033D01*
X378299Y384008D01*
X378338Y383944D01*
X378389Y383842D01*
X378401Y383778D01*
X378414Y383702D01*
Y383689D01*
X378401Y383651D01*
X378389Y383587D01*
X378363Y383510D01*
Y383498D01*
X378350Y383472D01*
X378338Y383434D01*
X378312Y383370D01*
X378287Y383306D01*
X378261Y383217D01*
X378197Y383013D01*
X378146Y382771D01*
X378095Y382503D01*
X378057Y382223D01*
X378044Y381929D01*
Y381866D01*
X378057Y381789D01*
X378083Y381700D01*
X378108Y381585D01*
X378159Y381483D01*
X378236Y381368D01*
X378325Y381254D01*
X378338Y381241D01*
X378376Y381215D01*
X378440Y381164D01*
X378516Y381126D01*
X378618Y381075D01*
X378733Y381024D01*
X378860Y380999D01*
X379001Y380986D01*
X379013D01*
X379026D01*
X379103Y380999D01*
X379205Y381011D01*
X379332Y381050D01*
X379472Y381113D01*
X379613Y381203D01*
X379740Y381330D01*
X379855Y381496D01*
X380888Y383498D01*
Y383510D01*
X380913Y383549D01*
X380939Y383600D01*
X380990Y383663D01*
X381041Y383740D01*
X381117Y383829D01*
X381206Y383918D01*
X381296Y384020D01*
X381410Y384122D01*
X381525Y384212D01*
X381665Y384301D01*
X381818Y384377D01*
X381984Y384441D01*
X382163Y384505D01*
X382354Y384530D01*
X382558Y384543D01*
X382571D01*
X382596D01*
X382634D01*
X382685Y384530D01*
D02*
G37*
G36*
X384088Y378716D02*
X384190Y378665D01*
X384254Y378627D01*
X384305Y378576D01*
X384330Y378551D01*
X384368Y378487D01*
X384419Y378372D01*
X384432Y378308D01*
X384445Y378245D01*
Y378194D01*
X384432Y378143D01*
X384407Y378079D01*
X384381Y378015D01*
X384343Y377939D01*
X384279Y377875D01*
X384190Y377811D01*
X381602Y376523D01*
Y375172D01*
X383986D01*
X384011D01*
X384062Y375159D01*
X384126Y375146D01*
X384215Y375108D01*
X384305Y375057D01*
X384368Y374968D01*
X384419Y374853D01*
X384445Y374700D01*
Y374675D01*
X384432Y374624D01*
X384419Y374547D01*
X384381Y374471D01*
X384330Y374381D01*
X384254Y374305D01*
X384139Y374254D01*
X383986Y374228D01*
X377573D01*
X377547D01*
X377496Y374241D01*
X377432Y374254D01*
X377343Y374292D01*
X377254Y374343D01*
X377190Y374420D01*
X377139Y374534D01*
X377114Y374687D01*
Y376562D01*
X377126Y376625D01*
X377139Y376715D01*
X377152Y376804D01*
X377190Y377021D01*
X377279Y377276D01*
X377394Y377543D01*
X377471Y377684D01*
X377560Y377811D01*
X377662Y377939D01*
X377777Y378066D01*
X377789Y378079D01*
X377802Y378092D01*
X377840Y378130D01*
X377891Y378168D01*
X377955Y378219D01*
X378032Y378270D01*
X378223Y378398D01*
X378452Y378525D01*
X378720Y378627D01*
X379026Y378704D01*
X379192Y378716D01*
X379358Y378729D01*
X379370D01*
X379421D01*
X379498Y378716D01*
X379600Y378704D01*
X379727Y378691D01*
X379868Y378665D01*
X380021Y378614D01*
X380186Y378563D01*
X380365Y378500D01*
X380531Y378410D01*
X380709Y378308D01*
X380875Y378181D01*
X381028Y378028D01*
X381168Y377862D01*
X381296Y377658D01*
X381398Y377429D01*
X383782Y378665D01*
X383795Y378678D01*
X383846Y378704D01*
X383909Y378716D01*
X383986Y378729D01*
X383999D01*
X384011D01*
X384088Y378716D01*
D02*
G37*
G36*
X384062Y423101D02*
X384126Y423088D01*
X384215Y423050D01*
X384305Y422999D01*
X384368Y422910D01*
X384419Y422795D01*
X384445Y422642D01*
Y422616D01*
X384432Y422565D01*
X384419Y422489D01*
X384381Y422412D01*
X384330Y422323D01*
X384254Y422247D01*
X384139Y422196D01*
X383986Y422170D01*
X377573D01*
X377547D01*
X377496Y422183D01*
X377432Y422196D01*
X377343Y422234D01*
X377254Y422285D01*
X377190Y422374D01*
X377139Y422489D01*
X377114Y422642D01*
Y422667D01*
X377126Y422718D01*
X377139Y422795D01*
X377165Y422884D01*
X377228Y422961D01*
X377305Y423037D01*
X377420Y423088D01*
X377573Y423114D01*
X383986D01*
X384011D01*
X384062Y423101D01*
D02*
G37*
G36*
X382685Y420844D02*
X382838Y420831D01*
X383017Y420793D01*
X383221Y420717D01*
X383450Y420615D01*
X383680Y420487D01*
X383795Y420398D01*
X383897Y420296D01*
X383922Y420270D01*
X383986Y420194D01*
X384075Y420079D01*
X384164Y419913D01*
X384266Y419722D01*
X384356Y419493D01*
X384419Y419238D01*
X384432Y419097D01*
X384445Y418957D01*
Y418830D01*
X384432Y418728D01*
X384419Y418613D01*
X384407Y418473D01*
X384381Y418320D01*
X384343Y418154D01*
X384254Y417771D01*
X384190Y417580D01*
X384113Y417376D01*
X384024Y417159D01*
X383909Y416955D01*
X383795Y416751D01*
X383654Y416547D01*
X383642Y416535D01*
X383629Y416522D01*
X383552Y416458D01*
X383425Y416382D01*
X383348Y416369D01*
X383272Y416356D01*
X383259D01*
X383234D01*
X383157Y416369D01*
X383055Y416407D01*
X382953Y416484D01*
X382940Y416496D01*
X382928Y416509D01*
X382877Y416573D01*
X382838Y416688D01*
X382813Y416751D01*
Y416841D01*
X382826Y416892D01*
X382838Y416968D01*
X382877Y417057D01*
X382889Y417070D01*
X382915Y417121D01*
X382953Y417198D01*
X383017Y417312D01*
X383093Y417453D01*
X383183Y417618D01*
X383272Y417822D01*
X383387Y418052D01*
Y418065D01*
X383412Y418128D01*
X383425Y418205D01*
X383450Y418320D01*
X383476Y418447D01*
X383489Y418600D01*
X383514Y418779D01*
Y419021D01*
X383501Y419097D01*
X383476Y419187D01*
X383450Y419289D01*
X383399Y419403D01*
X383323Y419505D01*
X383234Y419620D01*
X383221Y419633D01*
X383183Y419671D01*
X383119Y419709D01*
X383042Y419773D01*
X382940Y419824D01*
X382826Y419862D01*
X382698Y419901D01*
X382558Y419913D01*
X382545D01*
X382532D01*
X382469D01*
X382367Y419888D01*
X382239Y419862D01*
X382099Y419811D01*
X381959Y419748D01*
X381831Y419646D01*
X381716Y419505D01*
X380684Y417376D01*
X380671Y417363D01*
X380658Y417338D01*
X380633Y417287D01*
X380582Y417223D01*
X380531Y417134D01*
X380454Y417057D01*
X380378Y416955D01*
X380276Y416866D01*
X380161Y416777D01*
X380046Y416675D01*
X379906Y416598D01*
X379753Y416522D01*
X379587Y416445D01*
X379409Y416394D01*
X379205Y416369D01*
X379001Y416356D01*
X378988D01*
X378962D01*
X378924D01*
X378873Y416369D01*
X378720Y416382D01*
X378542Y416420D01*
X378338Y416496D01*
X378108Y416586D01*
X377891Y416726D01*
X377777Y416802D01*
X377675Y416904D01*
X377662Y416917D01*
X377649Y416930D01*
X377585Y417006D01*
X377496Y417121D01*
X377394Y417274D01*
X377292Y417478D01*
X377203Y417695D01*
X377139Y417963D01*
X377114Y418103D01*
Y418460D01*
X377126Y418562D01*
X377139Y418689D01*
X377152Y418830D01*
X377165Y418970D01*
X377216Y419289D01*
X377279Y419620D01*
X377381Y419939D01*
X377445Y420079D01*
X377522Y420219D01*
X377534Y420232D01*
X377547Y420258D01*
X377585Y420309D01*
X377636Y420360D01*
X377764Y420449D01*
X377853Y420474D01*
X377942Y420487D01*
X377955D01*
X377968D01*
X378057Y420474D01*
X378159Y420423D01*
X378223Y420398D01*
X378274Y420347D01*
X378299Y420321D01*
X378338Y420258D01*
X378389Y420156D01*
X378401Y420092D01*
X378414Y420015D01*
Y420003D01*
X378401Y419964D01*
X378389Y419901D01*
X378363Y419824D01*
Y419811D01*
X378350Y419786D01*
X378338Y419748D01*
X378312Y419684D01*
X378287Y419620D01*
X378261Y419531D01*
X378197Y419327D01*
X378146Y419085D01*
X378095Y418817D01*
X378057Y418536D01*
X378044Y418243D01*
Y418179D01*
X378057Y418103D01*
X378083Y418014D01*
X378108Y417899D01*
X378159Y417797D01*
X378236Y417682D01*
X378325Y417567D01*
X378338Y417555D01*
X378376Y417529D01*
X378440Y417478D01*
X378516Y417440D01*
X378618Y417389D01*
X378733Y417338D01*
X378860Y417312D01*
X379001Y417300D01*
X379013D01*
X379026D01*
X379103Y417312D01*
X379205Y417325D01*
X379332Y417363D01*
X379472Y417427D01*
X379613Y417516D01*
X379740Y417644D01*
X379855Y417810D01*
X380888Y419811D01*
Y419824D01*
X380913Y419862D01*
X380939Y419913D01*
X380990Y419977D01*
X381041Y420054D01*
X381117Y420143D01*
X381206Y420232D01*
X381296Y420334D01*
X381410Y420436D01*
X381525Y420525D01*
X381665Y420615D01*
X381818Y420691D01*
X381984Y420755D01*
X382163Y420819D01*
X382354Y420844D01*
X382558Y420857D01*
X382571D01*
X382596D01*
X382634D01*
X382685Y420844D01*
D02*
G37*
G36*
Y415030D02*
X382838Y415017D01*
X383017Y414979D01*
X383221Y414903D01*
X383450Y414801D01*
X383680Y414673D01*
X383795Y414584D01*
X383897Y414482D01*
X383922Y414456D01*
X383986Y414380D01*
X384075Y414265D01*
X384164Y414099D01*
X384266Y413908D01*
X384356Y413679D01*
X384419Y413424D01*
X384432Y413283D01*
X384445Y413143D01*
Y413016D01*
X384432Y412914D01*
X384419Y412799D01*
X384407Y412659D01*
X384381Y412506D01*
X384343Y412340D01*
X384254Y411957D01*
X384190Y411766D01*
X384113Y411562D01*
X384024Y411345D01*
X383909Y411141D01*
X383795Y410937D01*
X383654Y410733D01*
X383642Y410721D01*
X383629Y410708D01*
X383552Y410644D01*
X383425Y410568D01*
X383348Y410555D01*
X383272Y410542D01*
X383259D01*
X383234D01*
X383157Y410555D01*
X383055Y410593D01*
X382953Y410670D01*
X382940Y410682D01*
X382928Y410695D01*
X382877Y410759D01*
X382838Y410874D01*
X382813Y410937D01*
Y411027D01*
X382826Y411078D01*
X382838Y411154D01*
X382877Y411243D01*
X382889Y411256D01*
X382915Y411307D01*
X382953Y411384D01*
X383017Y411498D01*
X383093Y411639D01*
X383183Y411804D01*
X383272Y412008D01*
X383387Y412238D01*
Y412251D01*
X383412Y412314D01*
X383425Y412391D01*
X383450Y412506D01*
X383476Y412633D01*
X383489Y412786D01*
X383514Y412965D01*
Y413207D01*
X383501Y413283D01*
X383476Y413373D01*
X383450Y413475D01*
X383399Y413589D01*
X383323Y413691D01*
X383234Y413806D01*
X383221Y413819D01*
X383183Y413857D01*
X383119Y413895D01*
X383042Y413959D01*
X382940Y414010D01*
X382826Y414048D01*
X382698Y414087D01*
X382558Y414099D01*
X382545D01*
X382532D01*
X382469D01*
X382367Y414074D01*
X382239Y414048D01*
X382099Y413997D01*
X381959Y413934D01*
X381831Y413832D01*
X381716Y413691D01*
X380684Y411562D01*
X380671Y411549D01*
X380658Y411524D01*
X380633Y411473D01*
X380582Y411409D01*
X380531Y411320D01*
X380454Y411243D01*
X380378Y411141D01*
X380276Y411052D01*
X380161Y410963D01*
X380046Y410861D01*
X379906Y410784D01*
X379753Y410708D01*
X379587Y410631D01*
X379409Y410580D01*
X379205Y410555D01*
X379001Y410542D01*
X378988D01*
X378962D01*
X378924D01*
X378873Y410555D01*
X378720Y410568D01*
X378542Y410606D01*
X378338Y410682D01*
X378108Y410772D01*
X377891Y410912D01*
X377777Y410988D01*
X377675Y411090D01*
X377662Y411103D01*
X377649Y411116D01*
X377585Y411192D01*
X377496Y411307D01*
X377394Y411460D01*
X377292Y411664D01*
X377203Y411881D01*
X377139Y412149D01*
X377114Y412289D01*
Y412646D01*
X377126Y412748D01*
X377139Y412875D01*
X377152Y413016D01*
X377165Y413156D01*
X377216Y413475D01*
X377279Y413806D01*
X377381Y414125D01*
X377445Y414265D01*
X377522Y414405D01*
X377534Y414418D01*
X377547Y414444D01*
X377585Y414495D01*
X377636Y414546D01*
X377764Y414635D01*
X377853Y414660D01*
X377942Y414673D01*
X377955D01*
X377968D01*
X378057Y414660D01*
X378159Y414609D01*
X378223Y414584D01*
X378274Y414533D01*
X378299Y414507D01*
X378338Y414444D01*
X378389Y414342D01*
X378401Y414278D01*
X378414Y414201D01*
Y414189D01*
X378401Y414150D01*
X378389Y414087D01*
X378363Y414010D01*
Y413997D01*
X378350Y413972D01*
X378338Y413934D01*
X378312Y413870D01*
X378287Y413806D01*
X378261Y413717D01*
X378197Y413513D01*
X378146Y413271D01*
X378095Y413003D01*
X378057Y412722D01*
X378044Y412429D01*
Y412365D01*
X378057Y412289D01*
X378083Y412200D01*
X378108Y412085D01*
X378159Y411983D01*
X378236Y411868D01*
X378325Y411753D01*
X378338Y411741D01*
X378376Y411715D01*
X378440Y411664D01*
X378516Y411626D01*
X378618Y411575D01*
X378733Y411524D01*
X378860Y411498D01*
X379001Y411486D01*
X379013D01*
X379026D01*
X379103Y411498D01*
X379205Y411511D01*
X379332Y411549D01*
X379472Y411613D01*
X379613Y411702D01*
X379740Y411830D01*
X379855Y411996D01*
X380888Y413997D01*
Y414010D01*
X380913Y414048D01*
X380939Y414099D01*
X380990Y414163D01*
X381041Y414240D01*
X381117Y414329D01*
X381206Y414418D01*
X381296Y414520D01*
X381410Y414622D01*
X381525Y414711D01*
X381665Y414801D01*
X381818Y414877D01*
X381984Y414941D01*
X382163Y415005D01*
X382354Y415030D01*
X382558Y415043D01*
X382571D01*
X382596D01*
X382634D01*
X382685Y415030D01*
D02*
G37*
%LPC*%
G36*
X433941Y358535D02*
X432921D01*
Y355735D01*
Y355626D01*
Y355524D01*
X432913Y355429D01*
Y355342D01*
X432906Y355269D01*
Y355196D01*
X432899Y355130D01*
Y355072D01*
X432884Y354984D01*
X432877Y354919D01*
X432869Y354882D01*
Y354868D01*
X432848Y354773D01*
X432811Y354693D01*
X432767Y354620D01*
X432724Y354554D01*
X432680Y354503D01*
X432644Y354467D01*
X432614Y354445D01*
X432607Y354438D01*
X432520Y354379D01*
X432410Y354336D01*
X432308Y354306D01*
X432199Y354285D01*
X432104Y354270D01*
X432031Y354263D01*
X431958D01*
X431805Y354270D01*
X431674Y354292D01*
X431557Y354321D01*
X431455Y354358D01*
X431382Y354387D01*
X431324Y354416D01*
X431295Y354438D01*
X431280Y354445D01*
X431200Y354518D01*
X431135Y354605D01*
X431076Y354685D01*
X431040Y354766D01*
X431011Y354839D01*
X430989Y354897D01*
X430974Y354933D01*
Y354948D01*
X430967Y354992D01*
X430960Y355035D01*
Y355094D01*
X430952Y355159D01*
X430945Y355298D01*
Y355444D01*
X430938Y355575D01*
Y355633D01*
Y355692D01*
Y355735D01*
Y355764D01*
Y355786D01*
Y355794D01*
Y358535D01*
X431929D01*
X429917D01*
Y353395D01*
Y355684D01*
X429924Y355539D01*
Y355400D01*
X429932Y355276D01*
X429939Y355159D01*
X429946Y355057D01*
X429953Y354963D01*
X429968Y354875D01*
X429975Y354802D01*
X429983Y354737D01*
X429990Y354678D01*
X429997Y354634D01*
X430005Y354598D01*
Y354576D01*
X430012Y354562D01*
Y354554D01*
X430048Y354445D01*
X430085Y354343D01*
X430136Y354248D01*
X430180Y354168D01*
X430223Y354095D01*
X430260Y354037D01*
X430289Y354008D01*
X430296Y353993D01*
X430384Y353898D01*
X430478Y353811D01*
X430581Y353738D01*
X430675Y353672D01*
X430756Y353621D01*
X430828Y353585D01*
X430872Y353563D01*
X430879Y353556D01*
X430887D01*
X430960Y353526D01*
X431040Y353505D01*
X431222Y353461D01*
X431404Y353432D01*
X431579Y353417D01*
X431659Y353410D01*
X431740Y353402D01*
X431805D01*
X431871Y353395D01*
X429917D01*
X431987D01*
X432199Y353402D01*
X432388Y353417D01*
X432556Y353446D01*
X432695Y353475D01*
X432753Y353483D01*
X432811Y353497D01*
X432855Y353512D01*
X432891Y353526D01*
X432921Y353534D01*
X432942Y353541D01*
X432950Y353548D01*
X432957D01*
X433088Y353607D01*
X433205Y353679D01*
X433307Y353745D01*
X433394Y353811D01*
X433460Y353869D01*
X433511Y353913D01*
X433540Y353942D01*
X433547Y353957D01*
X433628Y354059D01*
X433693Y354168D01*
X433744Y354270D01*
X433788Y354372D01*
X433817Y354460D01*
X433839Y354532D01*
X433846Y354554D01*
Y354576D01*
X433854Y354584D01*
Y354591D01*
X433868Y354671D01*
X433883Y354758D01*
X433897Y354853D01*
X433905Y354948D01*
X433919Y355167D01*
X433934Y355378D01*
Y355473D01*
Y355568D01*
X433941Y355655D01*
Y358535D01*
D02*
G37*
G36*
X446480Y357150D02*
X443163D01*
Y353490D01*
Y356369D01*
X444337D01*
Y353490D01*
X445306D01*
Y356369D01*
X446480D01*
Y357150D01*
D02*
G37*
G36*
X442602D02*
X439241D01*
Y353490D01*
X440167D01*
X441676Y355823D01*
Y353490D01*
X442602D01*
Y357150D01*
D02*
G37*
G36*
X438213D02*
X434969D01*
Y353490D01*
X435939D01*
Y356369D01*
X437244D01*
Y353490D01*
X436591D01*
X438213D01*
Y357150D01*
D02*
G37*
%LPD*%
G36*
X440167Y354846D02*
Y357150D01*
X441654D01*
X440167Y354846D01*
D02*
G37*
%LPC*%
G36*
X457379Y339541D02*
X457368D01*
X457346D01*
X457313Y339536D01*
X457269Y339530D01*
X457220Y339514D01*
X457171Y339497D01*
X457117Y339470D01*
X457073Y339437D01*
X457067Y339432D01*
X457051Y339421D01*
X457035Y339394D01*
X457007Y339361D01*
X456980Y339323D01*
X456958Y339274D01*
X456936Y339213D01*
X456920Y339148D01*
Y339142D01*
X456915Y339126D01*
Y339093D01*
X456909Y339044D01*
Y338924D01*
X456904Y338875D01*
Y338001D01*
X457865D01*
Y338744D01*
X457859Y338853D01*
X457854Y338968D01*
X457848Y339082D01*
X457843Y339132D01*
X457837Y339175D01*
X457826Y339219D01*
X457821Y339246D01*
Y339252D01*
X457810Y339268D01*
X457799Y339295D01*
X457783Y339323D01*
X457733Y339394D01*
X457701Y339426D01*
X457662Y339459D01*
X457657Y339465D01*
X457641Y339470D01*
X457619Y339487D01*
X457586Y339503D01*
X457542Y339514D01*
X457493Y339530D01*
X457439Y339536D01*
X457379Y339541D01*
D02*
G37*
G36*
Y327218D02*
X457368D01*
X457346D01*
X457313Y327212D01*
X457269Y327207D01*
X457220Y327190D01*
X457171Y327174D01*
X457117Y327147D01*
X457073Y327114D01*
X457067Y327109D01*
X457051Y327098D01*
X457035Y327070D01*
X457007Y327038D01*
X456980Y326999D01*
X456958Y326950D01*
X456936Y326890D01*
X456920Y326825D01*
Y326819D01*
X456915Y326803D01*
Y326770D01*
X456909Y326721D01*
Y326601D01*
X456904Y326552D01*
Y325678D01*
X457865D01*
Y326421D01*
X457859Y326530D01*
X457854Y326644D01*
X457848Y326759D01*
X457843Y326808D01*
X457837Y326852D01*
X457826Y326896D01*
X457821Y326923D01*
Y326928D01*
X457810Y326945D01*
X457799Y326972D01*
X457783Y326999D01*
X457733Y327070D01*
X457701Y327103D01*
X457662Y327136D01*
X457657Y327141D01*
X457641Y327147D01*
X457619Y327163D01*
X457586Y327180D01*
X457542Y327190D01*
X457493Y327207D01*
X457439Y327212D01*
X457379Y327218D01*
D02*
G37*
G36*
X458159Y323478D02*
X458154D01*
X458138D01*
X458116D01*
X458088D01*
X458050D01*
X458006Y323472D01*
X457914Y323467D01*
X457804Y323456D01*
X457690Y323445D01*
X457586Y323423D01*
X457488Y323396D01*
X457482D01*
X457477Y323390D01*
X457450Y323379D01*
X457406Y323363D01*
X457351Y323341D01*
X457297Y323308D01*
X457237Y323270D01*
X457177Y323227D01*
X457122Y323177D01*
X457117Y323172D01*
X457100Y323156D01*
X457078Y323123D01*
X457051Y323085D01*
X457018Y323030D01*
X456991Y322970D01*
X456964Y322904D01*
X456942Y322828D01*
Y322823D01*
X456936Y322795D01*
X456931Y322752D01*
X456920Y322691D01*
Y322653D01*
X456915Y322604D01*
Y322555D01*
X456909Y322500D01*
Y322435D01*
X456904Y322364D01*
Y321867D01*
X459404D01*
Y322539D01*
X459399Y322610D01*
Y322686D01*
X459388Y322762D01*
X459382Y322833D01*
X459372Y322894D01*
Y322904D01*
X459361Y322926D01*
X459350Y322959D01*
X459333Y323003D01*
X459311Y323052D01*
X459284Y323101D01*
X459251Y323150D01*
X459213Y323199D01*
X459208Y323205D01*
X459191Y323221D01*
X459164Y323243D01*
X459126Y323270D01*
X459077Y323298D01*
X459017Y323336D01*
X458940Y323363D01*
X458853Y323396D01*
X458847D01*
X458842Y323401D01*
X458825D01*
X458804Y323407D01*
X458782Y323418D01*
X458749Y323423D01*
X458667Y323440D01*
X458569Y323450D01*
X458454Y323467D01*
X458312Y323472D01*
X458159Y323478D01*
D02*
G37*
G36*
X375641Y360179D02*
X375131D01*
X375122D01*
X375086D01*
X375031Y360170D01*
X374967Y360152D01*
X374885Y360134D01*
X374813Y360097D01*
X374730Y360042D01*
X374648Y359979D01*
X374639Y359969D01*
X374621Y359942D01*
X374585Y359897D01*
X374548Y359842D01*
X374512Y359769D01*
X374475Y359687D01*
X374457Y359596D01*
X374448Y359496D01*
Y359450D01*
X374457Y359396D01*
X374475Y359332D01*
X374494Y359250D01*
X374530Y359177D01*
X374585Y359095D01*
X374648Y359013D01*
X374658Y359004D01*
X374685Y358986D01*
X374730Y358949D01*
X374785Y358922D01*
X374858Y358885D01*
X374940Y358849D01*
X375031Y358831D01*
X375131Y358822D01*
X375641D01*
X375651D01*
X375687D01*
X375742Y358831D01*
X375815Y358849D01*
X375887Y358867D01*
X375969Y358904D01*
X376051Y358949D01*
X376133Y359013D01*
X376143Y359022D01*
X376161Y359049D01*
X376197Y359095D01*
X376224Y359150D01*
X376261Y359223D01*
X376297Y359304D01*
X376316Y359396D01*
X376325Y359496D01*
Y359541D01*
X376316Y359596D01*
X376297Y359660D01*
X376279Y359742D01*
X376243Y359815D01*
X376197Y359897D01*
X376133Y359979D01*
X376124Y359988D01*
X376097Y360006D01*
X376051Y360042D01*
X375997Y360079D01*
X375924Y360115D01*
X375842Y360152D01*
X375742Y360170D01*
X375641Y360179D01*
D02*
G37*
G36*
X373100D02*
X373091D01*
X373054D01*
X373000Y360170D01*
X372936Y360152D01*
X372854Y360134D01*
X372781Y360097D01*
X372699Y360042D01*
X372617Y359979D01*
X372608Y359969D01*
X372590Y359942D01*
X372553Y359897D01*
X372517Y359842D01*
X372480Y359769D01*
X372444Y359687D01*
X372426Y359596D01*
X372416Y359496D01*
Y359450D01*
X372426Y359396D01*
X372444Y359332D01*
X372462Y359250D01*
X372498Y359177D01*
X372553Y359095D01*
X372617Y359013D01*
X372626Y359004D01*
X372653Y358986D01*
X372699Y358949D01*
X372754Y358922D01*
X372827Y358885D01*
X372908Y358849D01*
X373000Y358831D01*
X373100Y358822D01*
X373109D01*
X373145D01*
X373200Y358831D01*
X373273Y358849D01*
X373346Y358867D01*
X373428Y358904D01*
X373510Y358949D01*
X373592Y359013D01*
X373601Y359022D01*
X373619Y359049D01*
X373656Y359095D01*
X373683Y359150D01*
X373719Y359223D01*
X373756Y359304D01*
X373774Y359396D01*
X373783Y359496D01*
Y359541D01*
X373774Y359596D01*
X373756Y359660D01*
X373738Y359742D01*
X373701Y359815D01*
X373656Y359897D01*
X373592Y359979D01*
X373583Y359988D01*
X373555Y360006D01*
X373510Y360042D01*
X373455Y360079D01*
X373382Y360115D01*
X373300Y360152D01*
X373200Y360170D01*
X373100Y360179D01*
D02*
G37*
G36*
X373355Y348227D02*
X373346D01*
X373337D01*
X373291D01*
X373218Y348208D01*
X373127Y348190D01*
X373018Y348163D01*
X372908Y348108D01*
X372799Y348044D01*
X372690Y347953D01*
X372681Y347944D01*
X372644Y347908D01*
X372599Y347844D01*
X372553Y347771D01*
X372498Y347671D01*
X372462Y347562D01*
X372426Y347434D01*
X372416Y347288D01*
Y346359D01*
X374293D01*
Y347352D01*
X374275Y347425D01*
X374257Y347516D01*
X374229Y347625D01*
X374184Y347735D01*
X374120Y347844D01*
X374029Y347953D01*
X374020Y347962D01*
X373984Y347999D01*
X373920Y348044D01*
X373838Y348090D01*
X373747Y348145D01*
X373628Y348181D01*
X373501Y348218D01*
X373355Y348227D01*
D02*
G37*
G36*
X423860Y387886D02*
X421357Y387088D01*
X423860Y386290D01*
Y387886D01*
D02*
G37*
G36*
X438033Y387908D02*
X438022D01*
X438011D01*
X437956D01*
X437869Y387886D01*
X437760Y387864D01*
X437629Y387831D01*
X437497Y387766D01*
X437366Y387689D01*
X437235Y387580D01*
X437224Y387569D01*
X437181Y387525D01*
X437126Y387449D01*
X437071Y387361D01*
X437006Y387241D01*
X436962Y387110D01*
X436918Y386957D01*
X436907Y386782D01*
Y385667D01*
X439159D01*
Y386858D01*
X439137Y386946D01*
X439115Y387055D01*
X439082Y387186D01*
X439028Y387317D01*
X438951Y387449D01*
X438842Y387580D01*
X438831Y387591D01*
X438787Y387634D01*
X438711Y387689D01*
X438612Y387744D01*
X438503Y387809D01*
X438361Y387853D01*
X438208Y387897D01*
X438033Y387908D01*
D02*
G37*
G36*
X435290Y387602D02*
X435279D01*
X435235D01*
X435169Y387591D01*
X435093Y387569D01*
X434995Y387547D01*
X434907Y387503D01*
X434809Y387438D01*
X434710Y387361D01*
X434699Y387350D01*
X434678Y387317D01*
X434634Y387263D01*
X434590Y387197D01*
X434546Y387110D01*
X434503Y387012D01*
X434481Y386902D01*
X434470Y386782D01*
Y385667D01*
X436109D01*
Y386837D01*
X436098Y386902D01*
X436076Y386979D01*
X436055Y387066D01*
X436011Y387164D01*
X435945Y387252D01*
X435869Y387350D01*
X435858Y387361D01*
X435825Y387394D01*
X435771Y387427D01*
X435705Y387481D01*
X435617Y387525D01*
X435519Y387558D01*
X435410Y387591D01*
X435290Y387602D01*
D02*
G37*
G36*
X437246Y422938D02*
X434743Y422141D01*
X437246Y421343D01*
Y422938D01*
D02*
G37*
G36*
Y412347D02*
X434743Y411549D01*
X437246Y410751D01*
Y412347D01*
D02*
G37*
G36*
X437945Y407385D02*
X434896D01*
X434885D01*
X434841D01*
X434776Y407374D01*
X434699Y407352D01*
X434601Y407330D01*
X434513Y407287D01*
X434415Y407221D01*
X434317Y407144D01*
X434306Y407134D01*
X434284Y407101D01*
X434240Y407046D01*
X434196Y406981D01*
X434153Y406893D01*
X434109Y406795D01*
X434087Y406685D01*
X434076Y406565D01*
Y405144D01*
X438765D01*
Y406620D01*
X438754Y406685D01*
X438732Y406762D01*
X438710Y406849D01*
X438667Y406948D01*
X438601Y407035D01*
X438525Y407134D01*
X438514Y407144D01*
X438481Y407177D01*
X438426Y407210D01*
X438361Y407265D01*
X438273Y407308D01*
X438175Y407341D01*
X438066Y407374D01*
X437945Y407385D01*
D02*
G37*
G36*
X423466Y422938D02*
X420963Y422141D01*
X423466Y421343D01*
Y422938D01*
D02*
G37*
G36*
Y412347D02*
X420963Y411549D01*
X423466Y410751D01*
Y412347D01*
D02*
G37*
G36*
X424166Y407385D02*
X421116D01*
X421105D01*
X421062D01*
X420996Y407374D01*
X420920Y407352D01*
X420821Y407330D01*
X420734Y407287D01*
X420635Y407221D01*
X420537Y407144D01*
X420526Y407134D01*
X420504Y407101D01*
X420461Y407046D01*
X420417Y406981D01*
X420373Y406893D01*
X420329Y406795D01*
X420307Y406685D01*
X420297Y406565D01*
Y405144D01*
X424986D01*
Y406620D01*
X424975Y406685D01*
X424953Y406762D01*
X424931Y406849D01*
X424887Y406948D01*
X424822Y407035D01*
X424745Y407134D01*
X424734Y407144D01*
X424701Y407177D01*
X424647Y407210D01*
X424581Y407265D01*
X424494Y407308D01*
X424395Y407341D01*
X424286Y407374D01*
X424166Y407385D01*
D02*
G37*
G36*
X382558Y394514D02*
X381844D01*
X381831D01*
X381780D01*
X381704Y394501D01*
X381614Y394475D01*
X381500Y394450D01*
X381398Y394399D01*
X381283Y394322D01*
X381168Y394233D01*
X381155Y394220D01*
X381130Y394182D01*
X381079Y394118D01*
X381028Y394042D01*
X380977Y393940D01*
X380926Y393825D01*
X380900Y393698D01*
X380888Y393557D01*
Y393494D01*
X380900Y393417D01*
X380926Y393328D01*
X380951Y393213D01*
X381002Y393111D01*
X381079Y392996D01*
X381168Y392882D01*
X381181Y392869D01*
X381219Y392843D01*
X381283Y392792D01*
X381359Y392754D01*
X381461Y392703D01*
X381576Y392652D01*
X381704Y392627D01*
X381844Y392614D01*
X382558D01*
X382571D01*
X382622D01*
X382698Y392627D01*
X382800Y392652D01*
X382902Y392678D01*
X383017Y392729D01*
X383132Y392792D01*
X383246Y392882D01*
X383259Y392894D01*
X383285Y392933D01*
X383336Y392996D01*
X383374Y393073D01*
X383425Y393175D01*
X383476Y393290D01*
X383501Y393417D01*
X383514Y393557D01*
Y393621D01*
X383501Y393698D01*
X383476Y393787D01*
X383450Y393902D01*
X383399Y394004D01*
X383336Y394118D01*
X383246Y394233D01*
X383234Y394246D01*
X383195Y394271D01*
X383132Y394322D01*
X383055Y394373D01*
X382953Y394424D01*
X382838Y394475D01*
X382698Y394501D01*
X382558Y394514D01*
D02*
G37*
G36*
X379001D02*
X378988D01*
X378937D01*
X378860Y394501D01*
X378771Y394475D01*
X378656Y394450D01*
X378554Y394399D01*
X378440Y394322D01*
X378325Y394233D01*
X378312Y394220D01*
X378287Y394182D01*
X378236Y394118D01*
X378185Y394042D01*
X378134Y393940D01*
X378083Y393825D01*
X378057Y393698D01*
X378044Y393557D01*
Y393494D01*
X378057Y393417D01*
X378083Y393328D01*
X378108Y393213D01*
X378159Y393111D01*
X378236Y392996D01*
X378325Y392882D01*
X378338Y392869D01*
X378376Y392843D01*
X378440Y392792D01*
X378516Y392754D01*
X378618Y392703D01*
X378733Y392652D01*
X378860Y392627D01*
X379001Y392614D01*
X379013D01*
X379064D01*
X379141Y392627D01*
X379243Y392652D01*
X379345Y392678D01*
X379460Y392729D01*
X379574Y392792D01*
X379689Y392882D01*
X379702Y392894D01*
X379727Y392933D01*
X379778Y392996D01*
X379817Y393073D01*
X379868Y393175D01*
X379919Y393290D01*
X379944Y393417D01*
X379957Y393557D01*
Y393621D01*
X379944Y393698D01*
X379919Y393787D01*
X379893Y393902D01*
X379842Y394004D01*
X379778Y394118D01*
X379689Y394233D01*
X379676Y394246D01*
X379638Y394271D01*
X379574Y394322D01*
X379498Y394373D01*
X379396Y394424D01*
X379281Y394475D01*
X379141Y394501D01*
X379001Y394514D01*
D02*
G37*
G36*
X379358Y377786D02*
X379345D01*
X379332D01*
X379268D01*
X379166Y377760D01*
X379039Y377735D01*
X378886Y377696D01*
X378733Y377620D01*
X378580Y377531D01*
X378427Y377403D01*
X378414Y377390D01*
X378363Y377339D01*
X378299Y377250D01*
X378236Y377148D01*
X378159Y377008D01*
X378108Y376855D01*
X378057Y376676D01*
X378044Y376472D01*
Y375172D01*
X380671D01*
Y376562D01*
X380645Y376664D01*
X380620Y376791D01*
X380582Y376944D01*
X380518Y377097D01*
X380429Y377250D01*
X380301Y377403D01*
X380288Y377416D01*
X380237Y377467D01*
X380148Y377531D01*
X380033Y377594D01*
X379906Y377671D01*
X379740Y377722D01*
X379562Y377773D01*
X379358Y377786D01*
D02*
G37*
%LPD*%
D10*
X422437Y337811D02*
G03*
X422437Y337811I-394J0D01*
G01*
D11*
X376571Y325016D02*
Y332890D01*
Y325016D02*
X404130D01*
Y332890D01*
X376571D02*
X404130D01*
X422043Y323441D02*
Y334465D01*
X408264Y323441D02*
Y334465D01*
X415941Y370488D02*
X444484Y370291D01*
X415941Y370488D02*
Y401000D01*
X429720Y370685D02*
Y400803D01*
X444484Y370291D02*
Y400803D01*
X402555Y401197D02*
Y431709D01*
X415941Y401000D02*
X415941Y431315D01*
X387988Y431709D02*
Y445488D01*
Y431709D02*
X445075D01*
Y459268D01*
X387988D02*
X445075D01*
X387988Y445488D02*
Y459268D01*
X452949Y315961D02*
Y329740D01*
X423421Y315961D02*
X452949D01*
X423421D02*
Y343520D01*
X452949D01*
Y329740D02*
Y343520D01*
X444484Y400803D02*
Y431315D01*
X388382Y400803D02*
X444484D01*
X429720D02*
Y431315D01*
X388382D02*
X388382Y400803D01*
X424012Y343815D02*
Y352575D01*
X452358Y343815D02*
Y352575D01*
D12*
X468969Y418928D02*
X468970Y434494D01*
X468969Y418928D02*
X482062D01*
X468970Y434494D02*
X482062D01*
Y418928D02*
Y434494D01*
X348221Y418928D02*
X348222Y434494D01*
X348221Y418928D02*
X361314D01*
X348222Y434494D02*
X361314D01*
Y418928D02*
Y434494D01*
X468969Y344125D02*
X468970Y359691D01*
X468969Y344125D02*
X482062D01*
X468970Y359691D02*
X482062D01*
Y344125D02*
Y359691D01*
X361314Y344125D02*
Y359691D01*
X348222D02*
X361314D01*
X348221Y344125D02*
X361314D01*
X348221D02*
X348222Y359691D01*
D13*
X382083Y351336D02*
X396253D01*
M02*
