G04*
G04 #@! TF.GenerationSoftware,Altium Limited,Altium Designer,20.1.8 (145)*
G04*
G04 Layer_Physical_Order=1*
G04 Layer_Color=255*
%FSLAX25Y25*%
%MOIN*%
G70*
G04*
G04 #@! TF.SameCoordinates,8766D331-E9FB-46AF-A3FE-A3E5BE2B0BC4*
G04*
G04*
G04 #@! TF.FilePolarity,Positive*
G04*
G01*
G75*
%ADD10C,0.01181*%
%ADD13C,0.01575*%
%ADD18R,0.02992X0.07874*%
%ADD19R,0.03543X0.04724*%
%ADD20C,0.01968*%
%ADD21C,0.03937*%
%ADD22C,0.07874*%
%ADD23C,0.02756*%
G36*
X422699Y464431D02*
X427723Y463799D01*
X432698Y462854D01*
X437604Y461599D01*
X442422Y460038D01*
X447132Y458179D01*
X451717Y456028D01*
X452530Y455581D01*
X452335Y454819D01*
X408689D01*
X408068Y454695D01*
X407542Y454344D01*
X401071Y447872D01*
X400230Y447971D01*
X400126Y448041D01*
X399383Y449009D01*
X398352Y449801D01*
X397151Y450298D01*
X395862Y450468D01*
X394573Y450298D01*
X393372Y449801D01*
X392341Y449009D01*
X391550Y447978D01*
X391052Y446777D01*
X390883Y445488D01*
X391052Y444199D01*
X391550Y442998D01*
X392341Y441967D01*
X393372Y441176D01*
X394573Y440678D01*
X395862Y440509D01*
X397151Y440678D01*
X398352Y441176D01*
X399383Y441967D01*
X400175Y442998D01*
X400437Y443632D01*
X400480Y443692D01*
X400518Y443777D01*
X400525Y443788D01*
X400528Y443792D01*
X400534Y443796D01*
X400549Y443806D01*
X400582Y443822D01*
X400640Y443841D01*
X400725Y443859D01*
X400789Y443866D01*
X400980D01*
X401601Y443990D01*
X402127Y444342D01*
X403958Y446173D01*
X404704Y445805D01*
X404662Y445488D01*
X404832Y444199D01*
X405329Y442998D01*
X406121Y441967D01*
X407152Y441176D01*
X408353Y440678D01*
X409642Y440509D01*
X410931Y440678D01*
X412132Y441176D01*
X413163Y441967D01*
X413954Y442998D01*
X414416Y444112D01*
X414790Y444187D01*
X415316Y444538D01*
X417739Y446961D01*
X418545Y446774D01*
X418603Y446711D01*
X418442Y445488D01*
X418611Y444199D01*
X419109Y442998D01*
X419900Y441967D01*
X420931Y441176D01*
X422132Y440678D01*
X423421Y440509D01*
X423591Y440531D01*
X424011Y440528D01*
X424992Y440467D01*
X425386Y440415D01*
X425740Y440346D01*
X426040Y440266D01*
X426286Y440178D01*
X426476Y440088D01*
X426612Y440002D01*
X426623Y439993D01*
X451212Y415405D01*
X451738Y415053D01*
X452358Y414929D01*
X463108D01*
X463265Y414142D01*
X463104Y414076D01*
X463021Y414020D01*
X462928Y413981D01*
X462286Y413553D01*
X462215Y413482D01*
X462132Y413426D01*
X461586Y412880D01*
X461530Y412796D01*
X461459Y412725D01*
X461030Y412084D01*
X460992Y411991D01*
X460936Y411907D01*
X460641Y411194D01*
X460621Y411096D01*
X460583Y411003D01*
X460432Y410246D01*
Y410171D01*
X460414Y410097D01*
X460395Y409711D01*
X460399Y409686D01*
X460394Y409661D01*
Y368323D01*
X460399Y368298D01*
X460395Y368273D01*
X460414Y367887D01*
X460432Y367814D01*
Y367738D01*
X460583Y366981D01*
X460621Y366888D01*
X460641Y366790D01*
X460936Y366077D01*
X460992Y365993D01*
X461030Y365900D01*
X461459Y365259D01*
X461530Y365188D01*
X461586Y365104D01*
X462132Y364559D01*
X462215Y364503D01*
X462286Y364432D01*
X462928Y364003D01*
X463021Y363965D01*
X463104Y363909D01*
X463817Y363613D01*
X463916Y363594D01*
X464009Y363555D01*
X464766Y363405D01*
X464841D01*
X464915Y363387D01*
X465300Y363368D01*
X465325Y363371D01*
X465350Y363366D01*
X483032D01*
Y362559D01*
X482244Y362185D01*
X482011Y362341D01*
X481391Y362464D01*
X450980D01*
X450360Y362341D01*
X449834Y361989D01*
X423849Y336005D01*
X423498Y335479D01*
X423374Y334858D01*
Y312858D01*
X402689D01*
Y321372D01*
X400547Y319229D01*
X400193Y319583D01*
X399839Y319229D01*
X397697Y321372D01*
Y312858D01*
X392846D01*
Y322079D01*
X391972D01*
Y335827D01*
X392846D01*
Y345058D01*
X397697D01*
Y336534D01*
X399839Y338676D01*
X400193Y338323D01*
X400547Y338676D01*
X402689Y336534D01*
Y343143D01*
X403416Y343444D01*
X408431Y338429D01*
X408839Y337827D01*
X408839D01*
X408839Y337827D01*
Y331102D01*
X409791D01*
X409927Y330421D01*
X410322Y329830D01*
X412620Y327531D01*
X412319Y326803D01*
X408839D01*
Y320079D01*
X408839D01*
X409326Y319291D01*
X409285Y319088D01*
X409470Y318160D01*
X409995Y317373D01*
X410782Y316848D01*
X411710Y316663D01*
X412638Y316848D01*
X413424Y317373D01*
X413950Y318160D01*
X414134Y319088D01*
X414094Y319291D01*
X414382Y320079D01*
X414382D01*
Y324740D01*
X415109Y325042D01*
X415925Y324226D01*
Y320079D01*
X421468D01*
Y326803D01*
X418503D01*
X414799Y330506D01*
X414382Y331102D01*
X414382D01*
X414382Y331102D01*
Y337827D01*
X413433D01*
Y337827D01*
X413294Y338525D01*
X412899Y339116D01*
X412899Y339116D01*
X403846Y348169D01*
X403254Y348565D01*
X402557Y348703D01*
X402557Y348703D01*
X360015D01*
X360011Y348704D01*
X359905Y348721D01*
X359810Y348744D01*
X359726Y348772D01*
X359652Y348803D01*
X359586Y348838D01*
X359525Y348877D01*
X359457Y349010D01*
X359396Y349545D01*
Y349764D01*
X359871Y350384D01*
X360171Y351106D01*
X360194Y351284D01*
X360162Y351282D01*
X359989Y351259D01*
X359818Y351219D01*
X359650Y351164D01*
X359483Y351093D01*
X359319Y351007D01*
X359157Y350904D01*
X358997Y350786D01*
X358840Y350653D01*
X358684Y350503D01*
Y353259D01*
X358840Y353109D01*
X358997Y352975D01*
X359157Y352857D01*
X359319Y352755D01*
X359483Y352668D01*
X359650Y352597D01*
X359818Y352542D01*
X359989Y352503D01*
X360162Y352479D01*
X360194Y352478D01*
X360171Y352656D01*
X359871Y353378D01*
X359396Y353998D01*
Y354764D01*
X359871Y355384D01*
X360171Y356106D01*
X360273Y356881D01*
X360171Y357656D01*
X359871Y358378D01*
X359396Y358998D01*
X358775Y359474D01*
X358053Y359773D01*
X357278Y359875D01*
X356503Y359773D01*
X355781Y359474D01*
X355161Y358998D01*
X354396D01*
X353775Y359474D01*
X353053Y359773D01*
X352278Y359875D01*
X351503Y359773D01*
X350781Y359474D01*
X350161Y358998D01*
X349685Y358378D01*
X349386Y357656D01*
X349284Y356881D01*
X349386Y356106D01*
X349685Y355384D01*
X350161Y354764D01*
Y353998D01*
X349685Y353378D01*
X349386Y352656D01*
X349284Y351881D01*
X349386Y351106D01*
X349685Y350384D01*
X350161Y349764D01*
Y348998D01*
X349685Y348378D01*
X349386Y347656D01*
X349284Y346881D01*
X349386Y346106D01*
X349685Y345384D01*
X349705Y345358D01*
X349317Y344570D01*
X347230D01*
Y363366D01*
X364957D01*
X364982Y363371D01*
X365007Y363368D01*
X365393Y363387D01*
X365466Y363405D01*
X365542D01*
X366298Y363555D01*
X366391Y363594D01*
X366490Y363613D01*
X367203Y363909D01*
X367286Y363965D01*
X367379Y364003D01*
X368021Y364432D01*
X368092Y364503D01*
X368175Y364559D01*
X368721Y365104D01*
X368777Y365188D01*
X368848Y365259D01*
X369276Y365900D01*
X369315Y365993D01*
X369371Y366077D01*
X369666Y366790D01*
X369686Y366888D01*
X369724Y366981D01*
X369875Y367738D01*
Y367814D01*
X369893Y367887D01*
X369912Y368273D01*
X369908Y368298D01*
X369913Y368323D01*
Y409661D01*
X369908Y409686D01*
X369912Y409712D01*
X369893Y410097D01*
X369875Y410171D01*
Y410246D01*
X369724Y411003D01*
X369686Y411096D01*
X369666Y411194D01*
X369371Y411907D01*
X369315Y411991D01*
X369276Y412084D01*
X368848Y412725D01*
X368777Y412796D01*
X368721Y412880D01*
X368175Y413426D01*
X368092Y413482D01*
X368021Y413553D01*
X367379Y413981D01*
X367286Y414020D01*
X367203Y414076D01*
X366490Y414371D01*
X366391Y414390D01*
X366298Y414429D01*
X365542Y414579D01*
X365466D01*
X365393Y414598D01*
X365007Y414617D01*
X364982Y414613D01*
X364957Y414618D01*
X347230D01*
Y427601D01*
X348431Y429487D01*
X348934Y430180D01*
X349802Y430034D01*
X350161Y429567D01*
Y428801D01*
X349685Y428181D01*
X349386Y427459D01*
X349284Y426684D01*
X349386Y425909D01*
X349685Y425187D01*
X350161Y424567D01*
Y423801D01*
X349685Y423181D01*
X349386Y422459D01*
X349284Y421684D01*
X349386Y420909D01*
X349685Y420187D01*
X350161Y419567D01*
X350781Y419091D01*
X351503Y418792D01*
X352278Y418690D01*
X353053Y418792D01*
X353775Y419091D01*
X354396Y419567D01*
X355161D01*
X355781Y419091D01*
X356503Y418792D01*
X357278Y418690D01*
X358053Y418792D01*
X358775Y419091D01*
X359396Y419567D01*
X359871Y420187D01*
X360171Y420909D01*
X360273Y421684D01*
X360171Y422459D01*
X359871Y423181D01*
X359396Y423801D01*
Y424567D01*
X359871Y425187D01*
X360171Y425909D01*
X360273Y426684D01*
X360171Y427459D01*
X359871Y428181D01*
X359396Y428801D01*
Y429421D01*
X359282Y429265D01*
X359149Y429386D01*
X359008Y429490D01*
X358859Y429579D01*
X358702Y429651D01*
X358537Y429707D01*
X358365Y429746D01*
X358184Y429769D01*
X357995Y429776D01*
X357799Y429767D01*
X357594Y429741D01*
X359227Y431961D01*
X359264Y431740D01*
X359363Y431330D01*
X359426Y431141D01*
X359497Y430963D01*
X359577Y430796D01*
X359665Y430639D01*
X359763Y430493D01*
X359869Y430358D01*
X359919Y430303D01*
X360171Y430909D01*
X360273Y431684D01*
X360171Y432459D01*
X359871Y433181D01*
X359702Y433401D01*
X357632Y431330D01*
X356925Y432038D01*
X358995Y434108D01*
X358775Y434277D01*
X358053Y434576D01*
X357278Y434678D01*
X356503Y434576D01*
X355781Y434277D01*
X355161Y433801D01*
X354396D01*
X353775Y434277D01*
X353204Y434514D01*
X352836Y435304D01*
X354641Y437482D01*
X358109Y441172D01*
X361802Y444637D01*
X365705Y447863D01*
X369803Y450839D01*
X374079Y453551D01*
X378517Y455990D01*
X383100Y458146D01*
X387808Y460010D01*
X392624Y461576D01*
X397529Y462836D01*
X402503Y463786D01*
X407527Y464423D01*
X412580Y464743D01*
X417645Y464746D01*
X422699Y464431D01*
D02*
G37*
G36*
X413488Y446357D02*
X413513Y446340D01*
X413549Y446325D01*
X413599Y446312D01*
X413662Y446301D01*
X413738Y446292D01*
X413928Y446280D01*
X414169Y446276D01*
Y445094D01*
X414053Y445093D01*
X413709Y445068D01*
X413653Y445056D01*
X413609Y445042D01*
X413576Y445026D01*
X413555Y445008D01*
X413547Y444988D01*
X413477Y446376D01*
X413488Y446357D01*
D02*
G37*
G36*
X399618Y446716D02*
X399701Y446583D01*
X399802Y446465D01*
X399920Y446362D01*
X400055Y446276D01*
X400206Y446205D01*
X400375Y446150D01*
X400560Y446110D01*
X400762Y446087D01*
X400980Y446079D01*
Y444898D01*
X400762Y444890D01*
X400560Y444866D01*
X400375Y444827D01*
X400206Y444772D01*
X400055Y444701D01*
X399920Y444614D01*
X399802Y444512D01*
X399701Y444394D01*
X399618Y444260D01*
X399550Y444110D01*
Y446866D01*
X399618Y446716D01*
D02*
G37*
G36*
X440429Y447833D02*
X441214Y447140D01*
X441582Y446858D01*
X441934Y446620D01*
X442271Y446425D01*
X442591Y446274D01*
X442895Y446165D01*
X443183Y446100D01*
X443456Y446079D01*
Y444898D01*
X443183Y444876D01*
X442895Y444811D01*
X442591Y444703D01*
X442271Y444551D01*
X441934Y444356D01*
X441582Y444118D01*
X441214Y443837D01*
X440429Y443144D01*
X440012Y442732D01*
Y448244D01*
X440429Y447833D01*
D02*
G37*
G36*
X427362Y444863D02*
X427427Y443819D01*
X427488Y443359D01*
X427569Y442941D01*
X427669Y442566D01*
X427788Y442232D01*
X427927Y441940D01*
X428084Y441691D01*
X428262Y441483D01*
X427426Y440648D01*
X427219Y440825D01*
X426969Y440983D01*
X426677Y441121D01*
X426344Y441241D01*
X425968Y441341D01*
X425551Y441421D01*
X425091Y441483D01*
X424046Y441548D01*
X423461Y441551D01*
X427358Y445449D01*
X427362Y444863D01*
D02*
G37*
G36*
X476432Y434158D02*
X476571Y434052D01*
X476719Y433959D01*
X476877Y433878D01*
X477045Y433809D01*
X477223Y433753D01*
X477410Y433709D01*
X477607Y433678D01*
X477814Y433659D01*
X478030Y433652D01*
X476058Y431727D01*
X476057Y431942D01*
X476042Y432148D01*
X476014Y432344D01*
X475974Y432530D01*
X475920Y432708D01*
X475854Y432875D01*
X475774Y433033D01*
X475681Y433182D01*
X475576Y433321D01*
X475457Y433451D01*
X476303Y434276D01*
X476432Y434158D01*
D02*
G37*
G36*
X471389Y424134D02*
X471528Y424029D01*
X471677Y423936D01*
X471835Y423857D01*
X472003Y423790D01*
X472180Y423737D01*
X472367Y423696D01*
X472563Y423668D01*
X472768Y423654D01*
X472983Y423652D01*
X471058Y421680D01*
X471051Y421897D01*
X471032Y422103D01*
X471001Y422300D01*
X470957Y422487D01*
X470901Y422665D01*
X470832Y422833D01*
X470751Y422991D01*
X470658Y423139D01*
X470553Y423278D01*
X470435Y423407D01*
X471259Y424253D01*
X471389Y424134D01*
D02*
G37*
G36*
X479255Y420123D02*
X479121Y419965D01*
X479003Y419805D01*
X478900Y419643D01*
X478814Y419479D01*
X478743Y419313D01*
X478688Y419144D01*
X478648Y418973D01*
X478625Y418800D01*
X478617Y418625D01*
X477436D01*
X477428Y418800D01*
X477404Y418973D01*
X477365Y419144D01*
X477310Y419313D01*
X477239Y419479D01*
X477152Y419643D01*
X477050Y419805D01*
X476932Y419965D01*
X476798Y420123D01*
X476648Y420278D01*
X479404D01*
X479255Y420123D01*
D02*
G37*
G36*
X476621Y355503D02*
X476536Y355578D01*
X476438Y355645D01*
X476325Y355704D01*
X476199Y355755D01*
X476058Y355798D01*
X475903Y355834D01*
X475733Y355861D01*
X475550Y355881D01*
X475140Y355897D01*
Y357865D01*
X475352Y357869D01*
X475733Y357901D01*
X475903Y357928D01*
X476058Y357963D01*
X476199Y358007D01*
X476325Y358058D01*
X476438Y358117D01*
X476536Y358184D01*
X476621Y358259D01*
Y355503D01*
D02*
G37*
G36*
X479588Y353109D02*
X479745Y352975D01*
X479905Y352857D01*
X480067Y352755D01*
X480231Y352668D01*
X480398Y352597D01*
X480566Y352542D01*
X480737Y352503D01*
X480910Y352479D01*
X481085Y352471D01*
Y351290D01*
X480910Y351282D01*
X480737Y351259D01*
X480566Y351219D01*
X480398Y351164D01*
X480231Y351093D01*
X480067Y351007D01*
X479905Y350904D01*
X479745Y350786D01*
X479588Y350653D01*
X479432Y350503D01*
Y353259D01*
X479588Y353109D01*
D02*
G37*
G36*
X469999Y353765D02*
X470325Y353115D01*
X470134Y352656D01*
X470032Y351881D01*
X470134Y351106D01*
X470325Y350646D01*
X469999Y349997D01*
X469843Y349859D01*
X462216D01*
X462216Y349859D01*
X461445Y349758D01*
X460726Y349460D01*
X460110Y348987D01*
X460110Y348987D01*
X447440Y336317D01*
X447404Y336296D01*
X447241Y336149D01*
X447140Y336076D01*
X447014Y336003D01*
X446857Y335932D01*
X446666Y335864D01*
X446437Y335803D01*
X446198Y335757D01*
X445488Y335689D01*
X445086Y335684D01*
X445012Y335668D01*
X443917Y335560D01*
X442804Y335223D01*
X441778Y334674D01*
X440879Y333936D01*
X440141Y333037D01*
X439592Y332011D01*
X439255Y330898D01*
X439141Y329740D01*
X439255Y328583D01*
X439592Y327469D01*
X440141Y326443D01*
X440879Y325544D01*
X441778Y324806D01*
X442804Y324258D01*
X443917Y323920D01*
X445075Y323806D01*
X446233Y323920D01*
X447346Y324258D01*
X448372Y324806D01*
X449271Y325544D01*
X450009Y326443D01*
X450557Y327469D01*
X450895Y328583D01*
X451003Y329677D01*
X451018Y329751D01*
X451024Y330182D01*
X451048Y330527D01*
X451086Y330834D01*
X451137Y331102D01*
X451198Y331331D01*
X451267Y331523D01*
X451338Y331679D01*
X451411Y331805D01*
X451484Y331906D01*
X451631Y332070D01*
X451651Y332105D01*
X459422Y339875D01*
X460031Y339685D01*
X460197Y339537D01*
Y317129D01*
X458623Y316068D01*
X454470Y313585D01*
X450178Y311357D01*
X445760Y309390D01*
X441232Y307691D01*
X436611Y306266D01*
X431913Y305120D01*
X427154Y304258D01*
X422353Y303683D01*
X417526Y303396D01*
X412690Y303399D01*
X407863Y303691D01*
X403062Y304272D01*
X398305Y305140D01*
X393608Y306290D01*
X388988Y307720D01*
X384462Y309424D01*
X380047Y311397D01*
X379964Y311440D01*
X380151Y312205D01*
X383004D01*
Y322079D01*
X378012D01*
Y313215D01*
X377339Y312806D01*
X375757Y313630D01*
X371609Y316115D01*
X370058Y317177D01*
X370065Y339614D01*
X370060Y339639D01*
X370064Y339664D01*
X370045Y340050D01*
X370026Y340123D01*
Y340199D01*
X369876Y340956D01*
X369837Y341048D01*
X369818Y341147D01*
X369523Y341860D01*
X369467Y341943D01*
X369428Y342036D01*
X369000Y342678D01*
X368929Y342749D01*
X368873Y342832D01*
X368327Y343378D01*
X368244Y343434D01*
X368173Y343505D01*
X367531Y343934D01*
X367438Y343972D01*
X367354Y344028D01*
X366705Y344297D01*
X366853Y345051D01*
X366856Y345058D01*
X378012D01*
Y335827D01*
X383004D01*
Y345058D01*
X387854D01*
Y335827D01*
X388729D01*
Y322079D01*
X387854D01*
Y312205D01*
X388729D01*
Y311928D01*
X388852Y311308D01*
X389204Y310781D01*
X389896Y310089D01*
X390422Y309738D01*
X391042Y309614D01*
X424304D01*
X424925Y309738D01*
X425451Y310089D01*
X426143Y310781D01*
X426494Y311308D01*
X426618Y311928D01*
Y324921D01*
X427405Y325293D01*
X427998Y324806D01*
X429024Y324258D01*
X430138Y323920D01*
X431295Y323806D01*
X432453Y323920D01*
X433566Y324258D01*
X434592Y324806D01*
X435491Y325544D01*
X436229Y326443D01*
X436778Y327469D01*
X437115Y328583D01*
X437223Y329677D01*
X437239Y329751D01*
X437245Y330182D01*
X437268Y330527D01*
X437306Y330834D01*
X437358Y331102D01*
X437419Y331331D01*
X437487Y331523D01*
X437559Y331679D01*
X437631Y331805D01*
X437704Y331906D01*
X437851Y332070D01*
X437872Y332105D01*
X459670Y353903D01*
X469843D01*
X469999Y353765D01*
D02*
G37*
G36*
X476621Y345503D02*
X476536Y345578D01*
X476438Y345645D01*
X476325Y345704D01*
X476199Y345755D01*
X476058Y345798D01*
X475903Y345834D01*
X475733Y345861D01*
X475550Y345881D01*
X475140Y345897D01*
Y347865D01*
X475352Y347869D01*
X475733Y347901D01*
X475903Y347928D01*
X476058Y347964D01*
X476199Y348007D01*
X476325Y348058D01*
X476438Y348117D01*
X476536Y348184D01*
X476621Y348259D01*
Y345503D01*
D02*
G37*
G36*
X358804Y348147D02*
X358933Y348046D01*
X359069Y347958D01*
X359215Y347881D01*
X359368Y347816D01*
X359531Y347763D01*
X359701Y347721D01*
X359880Y347692D01*
X360068Y347674D01*
X360264Y347668D01*
Y346093D01*
X360068Y346088D01*
X359880Y346070D01*
X359701Y346040D01*
X359531Y345999D01*
X359368Y345946D01*
X359215Y345881D01*
X359069Y345804D01*
X358933Y345715D01*
X358804Y345615D01*
X358684Y345503D01*
Y348259D01*
X358804Y348147D01*
D02*
G37*
G36*
X450137Y333410D02*
X449918Y333167D01*
X449724Y332897D01*
X449552Y332600D01*
X449405Y332277D01*
X449281Y331927D01*
X449180Y331551D01*
X449102Y331148D01*
X449049Y330719D01*
X449018Y330262D01*
X449012Y329780D01*
X445114Y333677D01*
X445597Y333684D01*
X446483Y333768D01*
X446886Y333845D01*
X447262Y333946D01*
X447612Y334070D01*
X447935Y334218D01*
X448232Y334389D01*
X448501Y334584D01*
X448745Y334802D01*
X450137Y333410D01*
D02*
G37*
G36*
X436357D02*
X436139Y333167D01*
X435944Y332897D01*
X435773Y332600D01*
X435625Y332277D01*
X435501Y331927D01*
X435400Y331551D01*
X435323Y331148D01*
X435269Y330719D01*
X435239Y330262D01*
X435232Y329780D01*
X431335Y333677D01*
X431817Y333684D01*
X432703Y333768D01*
X433106Y333845D01*
X433483Y333946D01*
X433832Y334070D01*
X434156Y334218D01*
X434452Y334389D01*
X434722Y334584D01*
X434965Y334802D01*
X436357Y333410D01*
D02*
G37*
G36*
X412303Y320692D02*
X412322Y320464D01*
X412338Y320362D01*
X412359Y320269D01*
X412385Y320184D01*
X412416Y320109D01*
X412452Y320041D01*
X412492Y319982D01*
X412537Y319931D01*
X410883D01*
X410928Y319982D01*
X410968Y320041D01*
X411003Y320109D01*
X411034Y320184D01*
X411060Y320269D01*
X411082Y320362D01*
X411098Y320464D01*
X411110Y320574D01*
X411119Y320819D01*
X412300D01*
X412303Y320692D01*
D02*
G37*
%LPC*%
G36*
X418893Y341439D02*
X417965Y341254D01*
X417179Y340728D01*
X416653Y339942D01*
X416469Y339014D01*
X416548Y338614D01*
X415952Y337827D01*
X415925D01*
Y331102D01*
X421468D01*
Y337827D01*
X421468D01*
X421238Y338614D01*
X421318Y339014D01*
X421133Y339942D01*
X420608Y340728D01*
X419821Y341254D01*
X418893Y341439D01*
D02*
G37*
G36*
X400193Y337616D02*
X398404Y335827D01*
X401982D01*
X400193Y337616D01*
D02*
G37*
G36*
X401982Y322079D02*
X398404D01*
X400193Y320290D01*
X401982Y322079D01*
D02*
G37*
%LPD*%
G36*
X419675Y338120D02*
X419635Y338061D01*
X419599Y337993D01*
X419569Y337917D01*
X419543Y337833D01*
X419522Y337740D01*
X419505Y337638D01*
X419493Y337528D01*
X419484Y337282D01*
X418303D01*
X418300Y337409D01*
X418281Y337638D01*
X418265Y337740D01*
X418244Y337833D01*
X418218Y337917D01*
X418187Y337993D01*
X418152Y338061D01*
X418111Y338120D01*
X418066Y338171D01*
X419720D01*
X419675Y338120D01*
D02*
G37*
D10*
X400193Y340764D02*
X405311D01*
X390350Y311928D02*
Y340764D01*
X418893Y335056D02*
Y339014D01*
Y335056D02*
X419091Y334858D01*
X418697Y334465D02*
X419091Y334858D01*
X411710Y319088D02*
Y322554D01*
X411216Y323047D02*
X411710Y322554D01*
X411216Y323047D02*
X411610Y323441D01*
X424304Y311236D02*
X424996Y311928D01*
X390350D02*
X391042Y311236D01*
X424304D01*
X424996Y311928D02*
Y334858D01*
X450980Y360842D01*
X481391D01*
X419500Y451016D02*
X453695D01*
X409642Y445488D02*
X409839Y445685D01*
X414169D01*
X419500Y451016D01*
X400980Y445488D02*
X408689Y453197D01*
X395862Y445488D02*
X400980D01*
X408689Y453197D02*
X454598D01*
X474501Y435243D02*
X478026Y431717D01*
Y431684D02*
Y431717D01*
X454598Y453197D02*
X472552Y435243D01*
X474501D01*
X453695Y451016D02*
X473026Y431684D01*
X437201Y445488D02*
X449189D01*
X472993Y421684D01*
X473026D01*
X361714Y351881D02*
X362988Y350606D01*
X357278Y351881D02*
X361714D01*
X472999Y351908D02*
X473026Y351881D01*
X468970Y351908D02*
X472999D01*
X357698Y431684D02*
X360035Y429347D01*
X357278Y431684D02*
X357698D01*
X478026Y417243D02*
Y421684D01*
X452358Y416551D02*
X477334D01*
X478026Y417243D01*
X423421Y445488D02*
X452358Y416551D01*
X482083Y352573D02*
Y360151D01*
X478026Y351881D02*
X481391D01*
X482083Y352573D01*
X481391Y360842D02*
X482083Y360151D01*
D13*
X402557Y346881D02*
X411610Y337827D01*
X357278Y346881D02*
X402557D01*
X411610Y331118D02*
Y337827D01*
X418697Y323441D02*
Y324031D01*
X411610Y331118D02*
X418697Y324031D01*
D18*
X380508Y340764D02*
D03*
X390350D02*
D03*
X400193D02*
D03*
Y317142D02*
D03*
X390350D02*
D03*
X380508D02*
D03*
D19*
X418697Y334465D02*
D03*
X411610D02*
D03*
Y323441D02*
D03*
X418697D02*
D03*
D20*
X458436Y356881D02*
X473026D01*
X431295Y329740D02*
X458436Y356881D01*
X462216Y346881D02*
X473026D01*
Y356881D02*
X478026D01*
X473026Y346881D02*
X478026D01*
X445075Y329740D02*
X462216Y346881D01*
D21*
X473026Y431684D02*
D03*
X478026D02*
D03*
X473026Y426684D02*
D03*
X478026D02*
D03*
X473026Y421684D02*
D03*
X478026D02*
D03*
X352278Y431684D02*
D03*
X357278D02*
D03*
X352278Y426684D02*
D03*
X357278D02*
D03*
X352278Y421684D02*
D03*
X357278D02*
D03*
X473026Y356881D02*
D03*
X478026D02*
D03*
X473026Y351881D02*
D03*
X478026D02*
D03*
X473026Y346881D02*
D03*
X478026D02*
D03*
X357278D02*
D03*
X352278D02*
D03*
X357278Y351881D02*
D03*
X352278D02*
D03*
X357278Y356881D02*
D03*
X352278D02*
D03*
D22*
X395862Y445488D02*
D03*
X409642D02*
D03*
X423421D02*
D03*
X437201D02*
D03*
X431295Y329740D02*
D03*
X445075D02*
D03*
D23*
X418893Y339014D02*
D03*
X411710Y319088D02*
D03*
M02*
