M48
;Layer_Color=9474304
;FILE_FORMAT=4:3
METRIC,LZ
;TYPE=PLATED
T1F00S00C0.200
T2F00S00C0.300
T3F00S00C1.100
T4F00S00C1.300
%
T01
X006765Y00444
X006875
Y00455
Y00466
X006765
Y00455
X006985
Y00466
Y00444
Y005815
Y005925
Y006035
X006875
Y005925
Y005815
X006765
Y005925
Y006035
T02
X004Y003
X005
X006
X007
X008
X009
X01
X00995Y00387
X01015
X008625Y00375
X011Y003
X0115Y004
X01015Y00407
X00995
X0085Y004
X009Y005
X0095Y006
X0105
X01034Y00655
X01015
Y00675
X01034
X01Y007
X011
X0115Y006
X011Y005
X008625Y0064495
Y006825
X009Y007
X00685Y006325
X0065Y006075
X00652Y00589
X00654Y0058
X00673Y00537
X00691Y0052
X0069Y0049
X007Y00492
X00633Y004175
X0045Y004
X005Y005
X0045Y006
X005Y007
X004
T03
X01155Y004917
Y005171
Y005425
Y005679
X0058Y0061
X005546
X005523Y0066
X005777
X005775Y007025
X005521
T04
X003925Y004475
Y004975
M30
