G04*
G04 #@! TF.GenerationSoftware,Altium Limited,Altium Designer,20.1.8 (145)*
G04*
G04 Layer_Physical_Order=1*
G04 Layer_Color=255*
%FSTAX43Y43*%
%MOMM*%
G71*
G04*
G04 #@! TF.SameCoordinates,3F849034-A6BE-41B6-9089-3A01D41A6D06*
G04*
G04*
G04 #@! TF.FilePolarity,Positive*
G04*
G01*
G75*
%ADD15C,2.250*%
G36*
X0076084Y0074154D02*
X0077463Y0073973D01*
X0078827Y0073701D01*
X008017Y0073341D01*
X0081488Y0072894D01*
X0082773Y0072362D01*
X008402Y0071747D01*
X0085225Y0071051D01*
X0086381Y0070278D01*
X0087485Y0069431D01*
X0088531Y0068514D01*
X0089514Y0067531D01*
X0090431Y0066485D01*
X0091278Y0065381D01*
X0092051Y0064225D01*
X0092747Y006302D01*
X0093362Y0061773D01*
X0093894Y0060488D01*
X0094341Y005917D01*
X0094701Y0057827D01*
X0094973Y0056463D01*
X0095154Y0055083D01*
X0095245Y0053695D01*
Y0053D01*
Y0052305D01*
X0095154Y0050916D01*
X0094973Y0049537D01*
X0094701Y0048173D01*
X0094341Y004683D01*
X0093894Y0045512D01*
X0093362Y0044227D01*
X0092747Y004298D01*
X0092051Y0041775D01*
X0091278Y0040619D01*
X0090431Y0039515D01*
X0089514Y0038469D01*
X0088531Y0037486D01*
X0087485Y0036569D01*
X0086381Y0035722D01*
X0085225Y0034949D01*
X008402Y0034253D01*
X0082773Y0033638D01*
X0081488Y0033106D01*
X008017Y0032659D01*
X0078827Y0032299D01*
X0077463Y0032027D01*
X0076083Y0031846D01*
X0074696Y0031755D01*
X0073304D01*
X0071916Y0031846D01*
X0070537Y0032027D01*
X0069173Y0032299D01*
X006783Y0032659D01*
X0066512Y0033106D01*
X0065227Y0033638D01*
X006398Y0034253D01*
X0062775Y0034949D01*
X0061619Y0035722D01*
X0060515Y0036569D01*
X0059469Y0037486D01*
X0058486Y0038469D01*
X0057569Y0039515D01*
X0056722Y0040619D01*
X0055949Y0041775D01*
X0055253Y004298D01*
X0054638Y0044227D01*
X0054106Y0045512D01*
X0053659Y004683D01*
X0053299Y0048173D01*
X0053027Y0049537D01*
X0052846Y0050917D01*
X0052755Y0052305D01*
Y0053D01*
Y0053695D01*
X0052846Y0055084D01*
X0053027Y0056463D01*
X0053299Y0057827D01*
X0053659Y005917D01*
X0054106Y0060488D01*
X0054638Y0061773D01*
X0055253Y006302D01*
X0055949Y0064225D01*
X0056722Y0065381D01*
X0057569Y0066485D01*
X0058486Y0067531D01*
X0059469Y0068514D01*
X0060515Y0069431D01*
X0061619Y0070278D01*
X0062775Y0071051D01*
X006398Y0071747D01*
X0065227Y0072362D01*
X0066512Y0072894D01*
X006783Y0073341D01*
X0069173Y0073701D01*
X0070537Y0073973D01*
X0071917Y0074154D01*
X0073304Y0074245D01*
X0074696D01*
X0076084Y0074154D01*
D02*
G37*
%LPC*%
G36*
X0086975Y0064387D02*
X0086616Y006434D01*
X0086282Y0064201D01*
X0085994Y0063981D01*
X0085774Y0063693D01*
X0085635Y0063359D01*
X0085588Y0063D01*
X0085635Y0062641D01*
X0085774Y0062307D01*
X0085994Y0062019D01*
X0086282Y0061799D01*
X0086616Y006166D01*
X0086975Y0061613D01*
X0087334Y006166D01*
X0087668Y0061799D01*
X0087956Y0062019D01*
X0088176Y0062307D01*
X0088315Y0062641D01*
X0088362Y0063D01*
X0088315Y0063359D01*
X0088176Y0063693D01*
X0087956Y0063981D01*
X0087668Y0064201D01*
X0087334Y006434D01*
X0086975Y0064387D01*
D02*
G37*
G36*
X0087Y0057387D02*
X0086641Y005734D01*
X0086307Y0057201D01*
X0086019Y0056981D01*
X0085799Y0056693D01*
X008566Y0056359D01*
X0085613Y0056D01*
X008566Y0055641D01*
X0085799Y0055307D01*
X0086019Y0055019D01*
X0086307Y0054799D01*
X0086641Y005466D01*
X0087Y0054613D01*
X0087359Y005466D01*
X0087693Y0054799D01*
X0087981Y0055019D01*
X0088201Y0055307D01*
X008834Y0055641D01*
X0088387Y0056D01*
X008834Y0056359D01*
X0088201Y0056693D01*
X0087981Y0056981D01*
X0087693Y0057201D01*
X0087359Y005734D01*
X0087Y0057387D01*
D02*
G37*
G36*
X0061D02*
X0060641Y005734D01*
X0060307Y0057201D01*
X0060019Y0056981D01*
X0059799Y0056693D01*
X005966Y0056359D01*
X0059613Y0056D01*
X005966Y0055641D01*
X0059799Y0055307D01*
X0060019Y0055019D01*
X0060307Y0054799D01*
X0060641Y005466D01*
X0061Y0054613D01*
X0061359Y005466D01*
X0061693Y0054799D01*
X0061981Y0055019D01*
X0062201Y0055307D01*
X006234Y0055641D01*
X0062387Y0056D01*
X006234Y0056359D01*
X0062201Y0056693D01*
X0061981Y0056981D01*
X0061693Y0057201D01*
X0061359Y005734D01*
X0061Y0057387D01*
D02*
G37*
G36*
X0078Y0046887D02*
X0077641Y004684D01*
X0077307Y0046701D01*
X0077019Y0046481D01*
X0076799Y0046193D01*
X007666Y0045859D01*
X0076613Y00455D01*
X007666Y0045141D01*
X0076799Y0044807D01*
X0077019Y0044519D01*
X0077307Y0044299D01*
X0077641Y004416D01*
X0078Y0044113D01*
X0078359Y004416D01*
X0078693Y0044299D01*
X0078981Y0044519D01*
X0079201Y0044807D01*
X007934Y0045141D01*
X0079387Y00455D01*
X007934Y0045859D01*
X0079201Y0046193D01*
X0078981Y0046481D01*
X0078693Y0046701D01*
X0078359Y004684D01*
X0078Y0046887D01*
D02*
G37*
G36*
X0074D02*
X0073641Y004684D01*
X0073307Y0046701D01*
X0073019Y0046481D01*
X0072799Y0046193D01*
X007266Y0045859D01*
X0072613Y00455D01*
X007266Y0045141D01*
X0072799Y0044807D01*
X0073019Y0044519D01*
X0073307Y0044299D01*
X0073641Y004416D01*
X0074Y0044113D01*
X0074359Y004416D01*
X0074693Y0044299D01*
X0074981Y0044519D01*
X0075201Y0044807D01*
X007534Y0045141D01*
X0075387Y00455D01*
X007534Y0045859D01*
X0075201Y0046193D01*
X0074981Y0046481D01*
X0074693Y0046701D01*
X0074359Y004684D01*
X0074Y0046887D01*
D02*
G37*
G36*
X007D02*
X0069641Y004684D01*
X0069307Y0046701D01*
X0069019Y0046481D01*
X0068799Y0046193D01*
X006866Y0045859D01*
X0068613Y00455D01*
X006866Y0045141D01*
X0068799Y0044807D01*
X0069019Y0044519D01*
X0069307Y0044299D01*
X0069641Y004416D01*
X007Y0044113D01*
X0070359Y004416D01*
X0070693Y0044299D01*
X0070981Y0044519D01*
X0071201Y0044807D01*
X007134Y0045141D01*
X0071387Y00455D01*
X007134Y0045859D01*
X0071201Y0046193D01*
X0070981Y0046481D01*
X0070693Y0046701D01*
X0070359Y004684D01*
X007Y0046887D01*
D02*
G37*
%LPD*%
D15*
X0074Y00455D02*
D03*
X0061Y0056D02*
D03*
X007Y00455D02*
D03*
X0078D02*
D03*
X0086975Y0063D02*
D03*
X0087Y0056D02*
D03*
M02*
