M48
;Layer_Color=9474304
;FILE_FORMAT=4:3
METRIC,LZ
;TYPE=PLATED
T1F00S00C0.300
T2F00S00C1.000
T3F00S00C5.000
%
T01
X0058Y0035
X0061Y0036
X0062414Y003446
X0062Y0031
X00665Y0032
X0069231Y0032268
Y0028925
X0071847
X0071808Y0029851
X0071058
X00665Y0029
Y00355
X00685
Y00385
X00665
X0063Y0039
X006
X0055Y0038
X0072145Y0037085
X0074Y0039
X00775Y00395
Y0038
X0076Y0037
X0075Y0032
X008025Y00305
X00795Y0038
X00815
X00835
Y00395
X0086Y0037
Y0034
X0089
Y0037
X0092Y0036
X0091Y0039
X0094Y0038
X0095Y004
X0093Y0041
X0096Y0042072
Y0046
X0093
X0096Y005
Y0053895
X0088475Y0054873
X00868Y00529
X00875Y00521
X0083Y00485
X00815Y0047
Y0045
X00795
Y00425
X00815
X00835
Y0041
X008Y00485
X0080104Y0062092
X0085Y0062
X0084379Y0062949
X0087Y0064
X0085Y0066
X0080977Y0066644
X00811Y00733
X0081Y0075
Y0078
X0085975Y0075102
X0086Y0073075
X0088
Y00705
X009
X0088Y00685
X00783Y00678
X007725Y006775
X0076Y0067
X007325
X00724Y0068
X0071479Y0068914
X0070662Y0069535
X00689Y007
X0068
X00664Y0069725
X00651Y00693
X00637Y00708
X00615
X00594
X0057Y007
Y0067
Y006375
X0059375Y0062625
X00594Y0059
Y00554
X0061322Y0054493
X0065078Y0054751
X00658Y0059
X0064271Y0058977
X0063738Y006239
X006475Y006375
X00658Y0062
X006875Y0062675
X00679Y0065975
X007185Y0064731
X0072998Y0065154
X0073882Y0065153
X0074Y00639
X00731
X00725Y00633
X0072481Y0054084
X007159
X0072Y0047
X0069415Y0046596
X0068547Y0046081
X007Y0045
X0070241Y0043751
X0070211Y0042384
X00685Y00415
X00665
X00651Y00415
X0062Y0042
X0061Y0046
X0055
X0052
Y0042
X0055
X0057Y004
X0072033Y0040651
X0074Y0042
X00775Y00425
Y0041
X00785Y0047
X0076258Y0048595
X0066Y0048
X0052Y0051
X0056Y0055
X0060467Y0067102
X0062Y0073
X00646Y00735
X0064Y0077
X0066Y0078
X0068985Y0076904
X0072Y00765
X0071Y0079
X0076Y0078
X0077571Y0075509
X0079Y007325
X0078Y0072
X0073672Y0072871
X0073672Y007414
X006875Y00735
Y007175
X0061Y0076
X0059Y0074
T02
X006384Y0034
X006638
X006892
X007146
X0074
X007654
X007908
X008162
X008416
X00755Y00445
X0073
T03
X00945Y0059325
X00535
M30
