G04*
G04 #@! TF.GenerationSoftware,Altium Limited,Altium Designer,20.1.8 (145)*
G04*
G04 Layer_Color=16711935*
%FSTAX43Y43*%
%MOMM*%
G71*
G04*
G04 #@! TF.SameCoordinates,C49A0B41-0C8C-4AB0-A7A6-883BC44C46A5*
G04*
G04*
G04 #@! TF.FilePolarity,Negative*
G04*
G01*
G75*
%ADD19R,0.900X1.000*%
G04:AMPARAMS|DCode=22|XSize=0.7mm|YSize=0.7mm|CornerRadius=0.2mm|HoleSize=0mm|Usage=FLASHONLY|Rotation=0.000|XOffset=0mm|YOffset=0mm|HoleType=Round|Shape=RoundedRectangle|*
%AMROUNDEDRECTD22*
21,1,0.700,0.300,0,0,0.0*
21,1,0.300,0.700,0,0,0.0*
1,1,0.400,0.150,-0.150*
1,1,0.400,-0.150,-0.150*
1,1,0.400,-0.150,0.150*
1,1,0.400,0.150,0.150*
%
%ADD22ROUNDEDRECTD22*%
G04:AMPARAMS|DCode=24|XSize=1mm|YSize=0.9mm|CornerRadius=0.25mm|HoleSize=0mm|Usage=FLASHONLY|Rotation=0.000|XOffset=0mm|YOffset=0mm|HoleType=Round|Shape=RoundedRectangle|*
%AMROUNDEDRECTD24*
21,1,1.000,0.400,0,0,0.0*
21,1,0.500,0.900,0,0,0.0*
1,1,0.500,0.250,-0.200*
1,1,0.500,-0.250,-0.200*
1,1,0.500,-0.250,0.200*
1,1,0.500,0.250,0.200*
%
%ADD24ROUNDEDRECTD24*%
%ADD29R,0.500X0.600*%
%ADD37C,1.600*%
%ADD38C,8.100*%
G04:AMPARAMS|DCode=83|XSize=0.5mm|YSize=0.85mm|CornerRadius=0.15mm|HoleSize=0mm|Usage=FLASHONLY|Rotation=90.000|XOffset=0mm|YOffset=0mm|HoleType=Round|Shape=RoundedRectangle|*
%AMROUNDEDRECTD83*
21,1,0.500,0.550,0,0,90.0*
21,1,0.200,0.850,0,0,90.0*
1,1,0.300,0.275,0.100*
1,1,0.300,0.275,-0.100*
1,1,0.300,-0.275,-0.100*
1,1,0.300,-0.275,0.100*
%
%ADD83ROUNDEDRECTD83*%
G04:AMPARAMS|DCode=84|XSize=0.55mm|YSize=0.7mm|CornerRadius=0.163mm|HoleSize=0mm|Usage=FLASHONLY|Rotation=270.000|XOffset=0mm|YOffset=0mm|HoleType=Round|Shape=RoundedRectangle|*
%AMROUNDEDRECTD84*
21,1,0.550,0.375,0,0,270.0*
21,1,0.225,0.700,0,0,270.0*
1,1,0.325,-0.188,-0.113*
1,1,0.325,-0.188,0.113*
1,1,0.325,0.188,0.113*
1,1,0.325,0.188,-0.113*
%
%ADD84ROUNDEDRECTD84*%
%ADD85R,0.600X0.500*%
%ADD86C,1.100*%
%ADD87R,1.270X0.470*%
%ADD88R,1.700X1.700*%
%ADD89R,0.470X1.270*%
G04:AMPARAMS|DCode=90|XSize=0.47mm|YSize=1.27mm|CornerRadius=0.142mm|HoleSize=0mm|Usage=FLASHONLY|Rotation=180.000|XOffset=0mm|YOffset=0mm|HoleType=Round|Shape=RoundedRectangle|*
%AMROUNDEDRECTD90*
21,1,0.470,0.985,0,0,180.0*
21,1,0.185,1.270,0,0,180.0*
1,1,0.285,-0.093,0.493*
1,1,0.285,0.093,0.493*
1,1,0.285,0.093,-0.493*
1,1,0.285,-0.093,-0.493*
%
%ADD90ROUNDEDRECTD90*%
%ADD91R,1.100X1.350*%
G04:AMPARAMS|DCode=92|XSize=0.7mm|YSize=0.7mm|CornerRadius=0.2mm|HoleSize=0mm|Usage=FLASHONLY|Rotation=270.000|XOffset=0mm|YOffset=0mm|HoleType=Round|Shape=RoundedRectangle|*
%AMROUNDEDRECTD92*
21,1,0.700,0.300,0,0,270.0*
21,1,0.300,0.700,0,0,270.0*
1,1,0.400,-0.150,-0.150*
1,1,0.400,-0.150,0.150*
1,1,0.400,0.150,0.150*
1,1,0.400,0.150,-0.150*
%
%ADD92ROUNDEDRECTD92*%
%ADD93R,0.700X0.700*%
%ADD94R,0.700X0.700*%
%ADD95R,1.100X1.150*%
%ADD96R,1.150X2.300*%
D19*
X007875Y00305D02*
D03*
X007745D02*
D03*
D22*
X00716Y0053253D02*
D03*
Y0052253D02*
D03*
X00725Y0053253D02*
D03*
Y0052253D02*
D03*
X0072518Y0054989D02*
D03*
Y0055989D02*
D03*
D24*
X006475Y00611D02*
D03*
Y00624D02*
D03*
X0071518Y0056339D02*
D03*
Y0055039D02*
D03*
D29*
X0091Y0066D02*
D03*
Y00647D02*
D03*
D37*
X0073Y00445D02*
D03*
X006384Y0034D02*
D03*
X006638D02*
D03*
X007908D02*
D03*
X006892D02*
D03*
X007146D02*
D03*
X007654D02*
D03*
X0074D02*
D03*
X008162D02*
D03*
X008416D02*
D03*
X00755Y00445D02*
D03*
D38*
X00945Y0059325D02*
D03*
X00535D02*
D03*
D83*
X007305Y003115D02*
D03*
Y00305D02*
D03*
Y002985D02*
D03*
X007495D02*
D03*
Y00305D02*
D03*
Y003115D02*
D03*
X006245Y00611D02*
D03*
Y00624D02*
D03*
X006055D02*
D03*
Y006175D02*
D03*
Y00611D02*
D03*
D84*
X0073312Y00285D02*
D03*
X0074587D02*
D03*
D85*
X00612Y005975D02*
D03*
X00625D02*
D03*
D86*
X0089Y00677D02*
D03*
X00845Y0047D02*
D03*
X0086D02*
D03*
X00875D02*
D03*
X00883Y00581D02*
D03*
Y00566D02*
D03*
X007225Y006225D02*
D03*
X00714Y00606D02*
D03*
Y00591D02*
D03*
Y00576D02*
D03*
Y00492D02*
D03*
Y00507D02*
D03*
X0087Y006775D02*
D03*
Y006975D02*
D03*
X0091D02*
D03*
Y00677D02*
D03*
X00883Y0063D02*
D03*
D87*
X00855Y006D02*
D03*
Y00582D02*
D03*
Y00588D02*
D03*
Y0057D02*
D03*
Y00558D02*
D03*
Y00564D02*
D03*
Y0054D02*
D03*
Y00546D02*
D03*
Y00528D02*
D03*
Y00522D02*
D03*
Y0051D02*
D03*
Y00594D02*
D03*
Y00576D02*
D03*
Y00552D02*
D03*
Y00534D02*
D03*
Y00516D02*
D03*
X00742D02*
D03*
Y00522D02*
D03*
Y0051D02*
D03*
Y006D02*
D03*
Y00594D02*
D03*
Y00588D02*
D03*
Y00582D02*
D03*
Y00576D02*
D03*
Y0057D02*
D03*
Y00564D02*
D03*
Y00558D02*
D03*
Y00552D02*
D03*
Y00546D02*
D03*
Y0054D02*
D03*
Y00534D02*
D03*
Y00528D02*
D03*
D88*
X008265Y00527D02*
D03*
Y00555D02*
D03*
Y00583D02*
D03*
X007985Y00527D02*
D03*
Y00555D02*
D03*
Y00583D02*
D03*
X007705Y00527D02*
D03*
Y00555D02*
D03*
Y00583D02*
D03*
D89*
X007535Y004985D02*
D03*
X007595D02*
D03*
X007655D02*
D03*
X007715D02*
D03*
X007775D02*
D03*
X007835D02*
D03*
X007895D02*
D03*
X007955D02*
D03*
X008015D02*
D03*
X008075D02*
D03*
X008135D02*
D03*
X008195D02*
D03*
X008255D02*
D03*
X008315D02*
D03*
X008375D02*
D03*
X008435D02*
D03*
Y006115D02*
D03*
X008375D02*
D03*
X008315D02*
D03*
X008255D02*
D03*
X008195D02*
D03*
X008135D02*
D03*
X008075D02*
D03*
X008015D02*
D03*
X007955D02*
D03*
X007895D02*
D03*
X007835D02*
D03*
X007775D02*
D03*
X007715D02*
D03*
X007655D02*
D03*
X007595D02*
D03*
D90*
X007535D02*
D03*
D91*
X0083Y00632D02*
D03*
X0081D02*
D03*
D92*
X0080825Y0064775D02*
D03*
X0079825D02*
D03*
X0079825Y00657D02*
D03*
X0080825D02*
D03*
X00788Y00629D02*
D03*
X00798D02*
D03*
X00788Y00639D02*
D03*
X00798D02*
D03*
X0082225Y0064775D02*
D03*
X0083225D02*
D03*
X00759Y00629D02*
D03*
X00749D02*
D03*
X00759Y00639D02*
D03*
X00749D02*
D03*
X00767Y00476D02*
D03*
X00757D02*
D03*
X00806Y00469D02*
D03*
X00796D02*
D03*
X00806Y00437D02*
D03*
X00816D02*
D03*
D93*
X00779Y00639D02*
D03*
Y00629D02*
D03*
X00769Y00639D02*
D03*
Y00629D02*
D03*
X00806Y00448D02*
D03*
Y00458D02*
D03*
D94*
X00767Y00465D02*
D03*
X00757D02*
D03*
D95*
X00806Y0041425D02*
D03*
D96*
X0079125Y00399D02*
D03*
X0082075D02*
D03*
M02*
