G04*
G04 #@! TF.GenerationSoftware,Altium Limited,Altium Designer,20.1.8 (145)*
G04*
G04 Layer_Color=16777215*
%FSTAX43Y43*%
%MOMM*%
G71*
G04*
G04 #@! TF.SameCoordinates,C49A0B41-0C8C-4AB0-A7A6-883BC44C46A5*
G04*
G04*
G04 #@! TF.FilePolarity,Positive*
G04*
G01*
G75*
%ADD10C,0.150*%
%ADD11C,0.250*%
%ADD12C,0.254*%
%ADD13C,0.500*%
%ADD14C,0.300*%
%ADD15C,0.120*%
%ADD16C,0.100*%
%ADD17C,0.200*%
G36*
X00684Y00435D02*
X00677Y00435D01*
X00684Y00442D01*
X00684Y00435D01*
D02*
G37*
G36*
X00656Y0072175D02*
D01*
D02*
G37*
G36*
X0074372Y0043296D02*
X0074386Y0043295D01*
X0074401Y0043293D01*
X0074417Y0043292D01*
X0074451Y0043286D01*
X0074487Y0043279D01*
X0074522Y0043268D01*
X0074537Y0043261D01*
X0074553Y0043253D01*
X0074554Y0043252D01*
X0074557Y004325D01*
X0074562Y0043246D01*
X0074568Y0043241D01*
X0074578Y0043227D01*
X007458Y0043217D01*
X0074582Y0043207D01*
Y0043206D01*
Y0043205D01*
X007458Y0043195D01*
X0074575Y0043184D01*
X0074572Y0043177D01*
X0074566Y0043171D01*
X0074564Y0043168D01*
X0074557Y0043164D01*
X0074546Y0043159D01*
X0074539Y0043157D01*
X007453Y0043156D01*
X0074529D01*
X0074525Y0043157D01*
X0074518Y0043159D01*
X007451Y0043162D01*
X0074508D01*
X0074505Y0043163D01*
X0074501Y0043164D01*
X0074494Y0043167D01*
X0074487Y004317D01*
X0074478Y0043173D01*
X0074456Y004318D01*
X0074429Y0043185D01*
X00744Y0043191D01*
X007437Y0043195D01*
X0074338Y0043196D01*
X0074331D01*
X0074322Y0043195D01*
X0074313Y0043192D01*
X00743Y0043189D01*
X0074289Y0043184D01*
X0074277Y0043175D01*
X0074264Y0043166D01*
X0074263Y0043164D01*
X007426Y004316D01*
X0074254Y0043153D01*
X007425Y0043145D01*
X0074245Y0043134D01*
X0074239Y0043121D01*
X0074236Y0043107D01*
X0074235Y0043092D01*
Y0043091D01*
Y0043089D01*
X0074236Y0043081D01*
X0074238Y004307D01*
X0074242Y0043056D01*
X0074249Y0043041D01*
X0074259Y0043026D01*
X0074272Y0043012D01*
X007429Y0042999D01*
X0074508Y0042887D01*
X007451D01*
X0074514Y0042884D01*
X0074519Y0042881D01*
X0074526Y0042876D01*
X0074535Y004287D01*
X0074544Y0042862D01*
X0074554Y0042852D01*
X0074565Y0042843D01*
X0074576Y004283D01*
X0074586Y0042818D01*
X0074596Y0042802D01*
X0074604Y0042786D01*
X0074611Y0042768D01*
X0074618Y0042748D01*
X0074621Y0042727D01*
X0074622Y0042705D01*
Y0042704D01*
Y0042701D01*
Y0042697D01*
X0074621Y0042691D01*
X0074619Y0042675D01*
X0074615Y0042655D01*
X0074607Y0042633D01*
X0074596Y0042608D01*
X0074582Y0042583D01*
X0074572Y0042571D01*
X0074561Y004256D01*
X0074558Y0042557D01*
X007455Y004255D01*
X0074537Y004254D01*
X0074519Y0042531D01*
X0074499Y0042519D01*
X0074474Y004251D01*
X0074446Y0042503D01*
X0074431Y0042501D01*
X0074415Y00425D01*
X0074401D01*
X007439Y0042501D01*
X0074378Y0042503D01*
X0074363Y0042504D01*
X0074346Y0042507D01*
X0074328Y0042511D01*
X0074286Y0042521D01*
X0074266Y0042528D01*
X0074243Y0042536D01*
X007422Y0042546D01*
X0074198Y0042558D01*
X0074175Y0042571D01*
X0074153Y0042586D01*
X0074152Y0042587D01*
X007415Y0042589D01*
X0074144Y0042597D01*
X0074135Y0042611D01*
X0074134Y0042619D01*
X0074132Y0042628D01*
Y0042629D01*
Y0042632D01*
X0074134Y004264D01*
X0074138Y0042651D01*
X0074146Y0042662D01*
X0074148Y0042664D01*
X0074149Y0042665D01*
X0074156Y0042671D01*
X0074168Y0042675D01*
X0074175Y0042678D01*
X0074185D01*
X0074191Y0042676D01*
X0074199Y0042675D01*
X0074209Y0042671D01*
X007421Y0042669D01*
X0074216Y0042666D01*
X0074224Y0042662D01*
X0074236Y0042655D01*
X0074252Y0042647D01*
X007427Y0042637D01*
X0074292Y0042628D01*
X0074317Y0042615D01*
X0074318D01*
X0074325Y0042612D01*
X0074333Y0042611D01*
X0074346Y0042608D01*
X007436Y0042605D01*
X0074376Y0042604D01*
X0074396Y0042601D01*
X0074422D01*
X0074431Y0042603D01*
X007444Y0042605D01*
X0074451Y0042608D01*
X0074464Y0042614D01*
X0074475Y0042622D01*
X0074487Y0042632D01*
X0074489Y0042633D01*
X0074493Y0042637D01*
X0074497Y0042644D01*
X0074504Y0042653D01*
X007451Y0042664D01*
X0074514Y0042676D01*
X0074518Y004269D01*
X0074519Y0042705D01*
Y0042707D01*
Y0042708D01*
Y0042715D01*
X0074517Y0042726D01*
X0074514Y004274D01*
X0074508Y0042755D01*
X0074501Y004277D01*
X007449Y0042784D01*
X0074475Y0042797D01*
X0074243Y0042909D01*
X0074242Y0042911D01*
X0074239Y0042912D01*
X0074234Y0042915D01*
X0074227Y004292D01*
X0074217Y0042926D01*
X0074209Y0042934D01*
X0074198Y0042942D01*
X0074188Y0042953D01*
X0074178Y0042966D01*
X0074167Y0042978D01*
X0074159Y0042994D01*
X007415Y004301D01*
X0074142Y0043028D01*
X0074137Y0043048D01*
X0074134Y004307D01*
X0074132Y0043092D01*
Y0043094D01*
Y0043096D01*
Y00431D01*
X0074134Y0043106D01*
X0074135Y0043123D01*
X0074139Y0043142D01*
X0074148Y0043164D01*
X0074157Y0043189D01*
X0074173Y0043213D01*
X0074181Y0043225D01*
X0074192Y0043236D01*
X0074193Y0043238D01*
X0074195Y0043239D01*
X0074203Y0043246D01*
X0074216Y0043256D01*
X0074232Y0043267D01*
X0074254Y0043278D01*
X0074278Y0043288D01*
X0074307Y0043295D01*
X0074322Y0043297D01*
X0074361D01*
X0074372Y0043296D01*
D02*
G37*
G36*
X007521D02*
X0075218Y0043295D01*
X0075228Y0043292D01*
X0075236Y0043285D01*
X0075245Y0043277D01*
X007525Y0043264D01*
X0075253Y0043248D01*
Y0043245D01*
X0075252Y0043239D01*
X007525Y0043231D01*
X0075246Y0043223D01*
X007524Y0043213D01*
X0075231Y0043205D01*
X0075218Y0043199D01*
X0075202Y0043196D01*
X007506D01*
Y004255D01*
Y0042547D01*
X0075059Y0042542D01*
X0075057Y0042535D01*
X0075053Y0042525D01*
X0075048Y0042515D01*
X0075038Y0042508D01*
X0075026Y0042503D01*
X0075009Y00425D01*
X0075006D01*
X0075001Y0042501D01*
X0074992Y0042503D01*
X0074984Y0042507D01*
X0074974Y0042512D01*
X0074966Y0042521D01*
X007496Y0042533D01*
X0074958Y004255D01*
Y0043196D01*
X0074812D01*
X0074806Y0043198D01*
X0074799Y0043199D01*
X007479Y0043203D01*
X007478Y0043209D01*
X0074773Y0043218D01*
X0074768Y0043231D01*
X0074765Y0043248D01*
Y004325D01*
X0074766Y0043256D01*
X0074768Y0043263D01*
X0074772Y0043272D01*
X0074777Y0043282D01*
X0074786Y0043289D01*
X0074798Y0043295D01*
X0074815Y0043297D01*
X0075204D01*
X007521Y0043296D01*
D02*
G37*
G36*
X0073761D02*
X007377Y0043295D01*
X007378Y0043293D01*
X0073804Y0043289D01*
X0073831Y0043279D01*
X0073861Y0043267D01*
X0073876Y0043259D01*
X007389Y0043249D01*
X0073904Y0043238D01*
X0073917Y0043225D01*
X0073919Y0043224D01*
X007392Y0043223D01*
X0073924Y0043218D01*
X0073929Y0043213D01*
X0073934Y0043206D01*
X007394Y0043198D01*
X0073953Y0043177D01*
X0073967Y0043152D01*
X0073978Y0043123D01*
X0073987Y0043089D01*
X0073988Y0043071D01*
X007399Y0043053D01*
Y0043052D01*
Y0043046D01*
X0073988Y0043038D01*
X0073987Y0043027D01*
X0073985Y0043013D01*
X0073983Y0042998D01*
X0073977Y0042981D01*
X0073972Y0042963D01*
X0073965Y0042944D01*
X0073955Y0042926D01*
X0073944Y0042906D01*
X007393Y0042888D01*
X0073913Y0042872D01*
X0073895Y0042856D01*
X0073873Y0042843D01*
X0073848Y0042831D01*
X0073983Y0042572D01*
X0073984Y0042571D01*
X0073987Y0042565D01*
X0073988Y0042558D01*
X007399Y004255D01*
Y0042549D01*
Y0042547D01*
X0073988Y0042539D01*
X0073983Y0042528D01*
X0073978Y0042521D01*
X0073973Y0042515D01*
X007397Y0042512D01*
X0073963Y0042508D01*
X0073951Y0042503D01*
X0073944Y0042501D01*
X0073937Y00425D01*
X0073931D01*
X0073926Y0042501D01*
X0073919Y0042504D01*
X0073912Y0042507D01*
X0073904Y0042511D01*
X0073897Y0042518D01*
X007389Y0042528D01*
X007375Y0042809D01*
X0073603D01*
Y004255D01*
Y0042547D01*
X0073601Y0042542D01*
X00736Y0042535D01*
X0073596Y0042525D01*
X007359Y0042515D01*
X007358Y0042508D01*
X0073568Y0042503D01*
X0073551Y00425D01*
X0073549D01*
X0073543Y0042501D01*
X0073535Y0042503D01*
X0073526Y0042507D01*
X0073517Y0042512D01*
X0073508Y0042521D01*
X0073503Y0042533D01*
X00735Y004255D01*
Y0043248D01*
Y004325D01*
X0073501Y0043256D01*
X0073503Y0043263D01*
X0073507Y0043272D01*
X0073512Y0043282D01*
X0073521Y0043289D01*
X0073533Y0043295D01*
X007355Y0043297D01*
X0073754D01*
X0073761Y0043296D01*
D02*
G37*
G36*
X0053531Y004285D02*
X0052D01*
Y0054D01*
X0053531D01*
Y004285D01*
D02*
G37*
%LPC*%
G36*
X0073744Y0043196D02*
X0073603D01*
Y0042911D01*
X0073754D01*
X0073765Y0042913D01*
X0073779Y0042916D01*
X0073795Y004292D01*
X0073812Y0042927D01*
X0073829Y0042937D01*
X0073845Y0042951D01*
X0073847Y0042952D01*
X0073852Y0042958D01*
X0073859Y0042967D01*
X0073866Y004298D01*
X0073874Y0042994D01*
X007388Y0043012D01*
X0073886Y0043031D01*
X0073887Y0043053D01*
Y0043055D01*
Y0043056D01*
Y0043063D01*
X0073884Y0043074D01*
X0073881Y0043088D01*
X0073877Y0043105D01*
X0073869Y0043121D01*
X0073859Y0043138D01*
X0073845Y0043155D01*
X0073844Y0043156D01*
X0073838Y0043162D01*
X0073829Y0043168D01*
X0073818Y0043175D01*
X0073802Y0043184D01*
X0073786Y0043189D01*
X0073766Y0043195D01*
X0073744Y0043196D01*
D02*
G37*
G36*
X0053431Y0052979D02*
X00521D01*
X0052183D01*
X0052156Y0052974D01*
X0052135Y0052965D01*
X0052121Y0052954D01*
X0052112Y0052937D01*
X0052105Y0052921D01*
X0052102Y005291D01*
X00521Y00529D01*
Y0052292D01*
Y0052572D01*
X0052102Y005253D01*
X0052112Y0052491D01*
X0052125Y0052456D01*
X0052139Y0052428D01*
X0052153Y0052405D01*
X0052167Y0052387D01*
X0052176Y0052377D01*
X0052179Y0052373D01*
X0052211Y0052345D01*
X0052243Y0052327D01*
X0052278Y0052313D01*
X0052308Y0052301D01*
X0052336Y0052296D01*
X0052359Y0052294D01*
X0052373Y0052292D01*
X00521D01*
X0053431D01*
X0052764D01*
X0052792Y0052294D01*
X0052817Y0052299D01*
X005284Y0052303D01*
X0052861Y005231D01*
X0052877Y005232D01*
X0052891Y0052324D01*
X0052901Y0052329D01*
X0052903Y0052331D01*
X0052928Y0052347D01*
X0052949Y0052364D01*
X0052968Y0052382D01*
X0052984Y0052403D01*
X0052998Y0052421D01*
X0053007Y0052442D01*
X0053026Y0052482D01*
X0053035Y0052516D01*
X0053037Y0052532D01*
X0053039Y0052544D01*
X0053042Y0052556D01*
Y0052808D01*
X0053347D01*
X0053375Y0052812D01*
X0053396Y0052822D01*
X005341Y0052836D01*
X0053421Y0052849D01*
X0053426Y0052866D01*
X0053428Y005288D01*
X0053431Y0052889D01*
Y0052893D01*
X0053426Y0052921D01*
X0053417Y0052942D01*
X0053405Y0052958D01*
X0053389Y0052967D01*
X0053373Y0052974D01*
X0053361Y0052977D01*
X0053352Y0052979D01*
X0053431D01*
D02*
G37*
G36*
Y0052056D02*
D01*
Y005197D01*
X0053426Y0051998D01*
X0053417Y0052019D01*
X0053405Y0052035D01*
X0053389Y0052044D01*
X0053373Y0052051D01*
X0053361Y0052053D01*
X0053352Y0052056D01*
X0053431D01*
X0052183D01*
D01*
D01*
D01*
X00521D01*
X0052183D01*
X0052156Y0052051D01*
X0052135Y0052042D01*
X0052121Y0052028D01*
X0052112Y0052012D01*
X0052105Y0051998D01*
X0052102Y0051984D01*
X00521Y0051975D01*
Y005197D01*
X0052105Y0051942D01*
X0052114Y0051922D01*
X0052125Y0051905D01*
X0052142Y0051896D01*
X0052158Y0051889D01*
X0052169Y0051887D01*
X0052179Y0051885D01*
X00521D01*
X0053431D01*
Y0052056D01*
D02*
G37*
G36*
X0053042Y0051658D02*
X00521D01*
X0052949D01*
X005294Y0051655D01*
X0052933Y0051653D01*
X0052931D01*
X0052165Y0051401D01*
X0052144Y0051392D01*
X0052128Y0051378D01*
X0052116Y0051364D01*
X0052109Y005135D01*
X0052105Y0051336D01*
X00521Y0051325D01*
Y0050971D01*
Y0051315D01*
X0052102Y0051294D01*
X0052112Y0051276D01*
X0052121Y0051262D01*
X0052135Y0051251D01*
X0052146Y0051241D01*
X0052158Y0051237D01*
X0052165Y0051232D01*
X0052167D01*
X0052933Y0050978D01*
X0052942Y0050973D01*
X0052952Y0050971D01*
X0053042D01*
X0052958D01*
X0052986Y0050975D01*
X0053007Y0050984D01*
X0053021Y0050998D01*
X0053033Y0051015D01*
X0053037Y0051031D01*
X0053039Y0051045D01*
X0053042Y0051054D01*
Y00515D01*
Y0051058D01*
X0053039Y0051079D01*
X0053033Y0051098D01*
X0053023Y0051112D01*
X0053014Y0051123D01*
X0053002Y005113D01*
X0052993Y0051135D01*
X0052986Y0051139D01*
X0052984D01*
X005241Y0051315D01*
X0052984Y0051491D01*
X0053002Y00515D01*
X0053016Y0051512D01*
X0053028Y0051526D01*
X0053035Y005154D01*
X0053039Y0051551D01*
X0053042Y0051563D01*
Y0051586D01*
X0053037Y0051598D01*
X005303Y0051616D01*
X0053021Y005163D01*
X0053019Y0051632D01*
X0053016Y0051635D01*
X0052998Y0051649D01*
X0052979Y0051655D01*
X0052965Y0051658D01*
X0053042D01*
D02*
G37*
G36*
X0053431Y0050735D02*
D01*
Y0050392D01*
X0053428Y0050431D01*
X0053419Y0050466D01*
X0053407Y0050501D01*
X0053391Y0050533D01*
X0053373Y0050563D01*
X0053352Y0050591D01*
X0053329Y0050617D01*
X0053306Y005064D01*
X005328Y005066D01*
X0053259Y0050679D01*
X0053236Y0050693D01*
X0053218Y0050707D01*
X0053201Y0050716D01*
X005319Y0050723D01*
X0053181Y0050728D01*
X0053178Y005073D01*
X0053171Y0050732D01*
X0053162Y0050735D01*
X0053431D01*
X0053153D01*
X0053125Y005073D01*
X0053104Y0050721D01*
X0053088Y0050709D01*
X0053079Y0050693D01*
X0053072Y0050677D01*
X005307Y0050665D01*
X0053067Y0050656D01*
Y0050651D01*
X005307Y0050633D01*
X0053074Y0050619D01*
X0053081Y0050605D01*
X0053088Y0050596D01*
X0053095Y0050586D01*
X0053102Y0050582D01*
X0053107Y0050577D01*
X0053109D01*
X0053137Y0050561D01*
X005316Y0050545D01*
X0053181Y0050526D01*
X0053197Y005051D01*
X0053213Y0050496D01*
X0053225Y005048D01*
X0053243Y0050452D01*
X0053255Y0050427D01*
X0053259Y0050408D01*
X0053262Y0050397D01*
Y0050392D01*
X0053259Y0050367D01*
X0053255Y0050343D01*
X0053245Y0050323D01*
X0053236Y0050304D01*
X0053227Y005029D01*
X0053218Y0050279D01*
X0053213Y0050272D01*
X0053211Y0050269D01*
X005319Y0050253D01*
X0053169Y0050239D01*
X0053151Y005023D01*
X005313Y0050225D01*
X0053114Y0050221D01*
X00531Y0050219D01*
X005309D01*
X0053088D01*
X005307Y0050221D01*
X0053051Y0050223D01*
X0053035Y0050228D01*
X0053021Y0050232D01*
X0053009Y0050239D01*
X0053Y0050244D01*
X0052993Y0050246D01*
X0052991Y0050249D01*
X0052232Y0050723D01*
X0052216Y005073D01*
X00522Y0050732D01*
X005219Y0050735D01*
X0053092D01*
X00521D01*
X0052186D01*
X0052158Y005073D01*
X0052137Y0050721D01*
X0052121Y0050709D01*
X0052112Y0050693D01*
X0052105Y0050677D01*
X0052102Y0050665D01*
X00521Y0050656D01*
Y0050047D01*
Y0050133D01*
X0052105Y0050105D01*
X0052114Y0050084D01*
X0052128Y0050068D01*
X0052144Y0050059D01*
X0052158Y0050052D01*
X0052172Y005005D01*
X0052181Y0050047D01*
X00521D01*
X0052186D01*
X0052213Y0050052D01*
X0052234Y0050061D01*
X0052248Y0050075D01*
X005226Y0050089D01*
X0052264Y0050105D01*
X0052267Y0050119D01*
X0052269Y0050128D01*
Y0050515D01*
X0052882Y0050128D01*
X0052921Y0050101D01*
X0052961Y0050082D01*
X0052995Y0050068D01*
X0053026Y0050057D01*
X0053051Y0050052D01*
X0053072Y005005D01*
X0053083Y0050047D01*
X0052907D01*
X0053114D01*
X0053139Y0050052D01*
X0053185Y0050063D01*
X0053227Y005008D01*
X0053262Y0050098D01*
X0053289Y0050117D01*
X005331Y0050133D01*
X0053324Y0050144D01*
X0053329Y0050147D01*
Y0050149D01*
X0053347Y0050168D01*
X0053363Y0050188D01*
X0053387Y005023D01*
X0053405Y0050269D01*
X0053419Y0050309D01*
X0053426Y0050341D01*
X0053428Y0050369D01*
X0053431Y0050378D01*
Y0050068D01*
Y0050735D01*
D02*
G37*
G36*
X0052591Y0049811D02*
D01*
Y0049728D01*
X0052586Y0049756D01*
X0052577Y0049777D01*
X0052565Y004979D01*
X0052549Y00498D01*
X0052533Y0049807D01*
X0052521Y0049809D01*
X0052512Y0049811D01*
X0052507D01*
X0052479Y0049807D01*
X0052459Y0049797D01*
X0052442Y0049786D01*
X0052433Y004977D01*
X0052426Y0049753D01*
X0052424Y0049742D01*
X0052422Y0049733D01*
Y0049124D01*
Y004921D01*
X0052426Y0049182D01*
X0052436Y0049161D01*
X0052449Y0049145D01*
X0052466Y0049136D01*
X0052479Y0049129D01*
X0052493Y0049126D01*
X0052503Y0049124D01*
X0052422D01*
X0052507D01*
X0052535Y0049129D01*
X0052556Y0049138D01*
X005257Y0049152D01*
X0052581Y0049166D01*
X0052586Y0049182D01*
X0052588Y0049196D01*
X0052591Y0049205D01*
Y0049138D01*
Y0049811D01*
D02*
G37*
G36*
X0053431Y0048888D02*
X00521D01*
X0052183D01*
X0052156Y0048883D01*
X0052135Y0048874D01*
X0052121Y0048863D01*
X0052112Y0048846D01*
X0052105Y004883D01*
X0052102Y0048819D01*
X00521Y0048809D01*
Y0048201D01*
Y0048286D01*
X0052105Y0048259D01*
X0052114Y0048238D01*
X0052128Y0048222D01*
X0052144Y0048212D01*
X0052158Y0048205D01*
X0052172Y0048203D01*
X0052181Y0048201D01*
X00521D01*
X0052186D01*
X0052213Y0048205D01*
X0052234Y0048215D01*
X0052248Y0048229D01*
X005226Y0048242D01*
X0052264Y0048259D01*
X0052267Y0048272D01*
X0052269Y0048282D01*
Y0048717D01*
X0053347D01*
X0053375Y0048721D01*
X0053396Y0048731D01*
X005341Y0048745D01*
X0053421Y0048758D01*
X0053426Y0048775D01*
X0053428Y0048789D01*
X0053431Y0048798D01*
Y0048802D01*
X0053426Y004883D01*
X0053417Y0048851D01*
X0053405Y0048867D01*
X0053389Y0048876D01*
X0053373Y0048883D01*
X0053361Y0048886D01*
X0053352Y0048888D01*
X0053431D01*
D02*
G37*
G36*
Y0047965D02*
D01*
Y0047881D01*
X0053426Y0047909D01*
X0053417Y004793D01*
X0053405Y0047944D01*
X0053389Y0047953D01*
X0053373Y004796D01*
X0053361Y0047962D01*
X0053352Y0047965D01*
X0053431D01*
X0052183D01*
D01*
X00521D01*
X0052183D01*
X0052156Y004796D01*
X0052135Y0047951D01*
X0052121Y0047937D01*
X0052112Y0047921D01*
X0052105Y0047907D01*
X0052102Y0047893D01*
X00521Y0047884D01*
Y0047879D01*
X0052105Y0047851D01*
X0052114Y0047831D01*
X0052125Y0047814D01*
X0052142Y0047805D01*
X0052158Y0047798D01*
X0052169Y0047796D01*
X0052179Y0047794D01*
X0052183D01*
X0052616D01*
Y0047548D01*
X0052146Y0047315D01*
X005213Y0047303D01*
X0052119Y0047291D01*
X0052112Y0047278D01*
X0052107Y0047266D01*
X0052102Y0047254D01*
X00521Y0047245D01*
Y0047148D01*
Y0047236D01*
X0052102Y0047224D01*
X0052105Y0047213D01*
X0052114Y0047192D01*
X0052121Y004718D01*
X0052125Y0047176D01*
X0052135Y0047166D01*
X0052146Y0047159D01*
X0052165Y004715D01*
X0052179Y0047148D01*
X00521D01*
X0052183D01*
X0052197Y004715D01*
X0052209Y0047153D01*
X0052218Y0047157D01*
X005222Y0047159D01*
X0052653Y0047384D01*
X0052672Y0047342D01*
X0052695Y0047305D01*
X005272Y0047275D01*
X0052748Y0047247D01*
X0052778Y0047224D01*
X005281Y0047206D01*
X005284Y004719D01*
X0052873Y0047178D01*
X0052903Y0047169D01*
X0052931Y0047159D01*
X0052956Y0047155D01*
X0052979Y0047153D01*
X0052998Y004715D01*
X0053012Y0047148D01*
X0053023D01*
X0053053Y004715D01*
X0053083Y0047153D01*
X0053139Y0047166D01*
X0053188Y0047185D01*
X0053229Y0047208D01*
X0053264Y0047231D01*
X0053278Y004724D01*
X0053289Y004725D01*
X0053299Y0047257D01*
X0053306Y0047264D01*
X0053308Y0047266D01*
X005331Y0047268D01*
X0053331Y0047291D01*
X005335Y0047315D01*
X0053366Y0047338D01*
X005338Y0047363D01*
X00534Y0047412D01*
X0053417Y0047458D01*
X0053424Y0047497D01*
X0053426Y0047514D01*
X0053428Y004753D01*
X0053431Y0047541D01*
Y0047321D01*
Y0047965D01*
D02*
G37*
G36*
X0053012Y0047148D02*
X0052221D01*
X0053012D01*
D01*
D02*
G37*
G36*
X0053431Y004691D02*
D01*
Y0046826D01*
X0053426Y0046854D01*
X0053417Y0046875D01*
X0053405Y0046889D01*
X0053389Y0046898D01*
X0053373Y0046905D01*
X0053361Y0046907D01*
X0053352Y004691D01*
X0053431D01*
X0052183D01*
D01*
X00521D01*
X0052183D01*
X0052156Y0046905D01*
X0052135Y0046896D01*
X0052121Y0046882D01*
X0052112Y0046866D01*
X0052105Y0046852D01*
X0052102Y0046838D01*
X00521Y0046829D01*
Y0046824D01*
X0052105Y0046796D01*
X0052114Y0046775D01*
X0052125Y0046759D01*
X0052142Y004675D01*
X0052158Y0046743D01*
X0052169Y0046741D01*
X0052179Y0046738D01*
X0052183D01*
X0052746D01*
Y0046308D01*
X005275Y004628D01*
X0052759Y0046259D01*
X0052773Y0046243D01*
X005279Y0046234D01*
X0052803Y0046227D01*
X0052817Y0046225D01*
X0052827Y0046222D01*
X0052969D01*
X0052831D01*
X0052859Y0046227D01*
X005288Y0046236D01*
X0052894Y004625D01*
X0052905Y0046264D01*
X005291Y004628D01*
X0052912Y0046294D01*
X0052915Y0046303D01*
Y0046738D01*
X0053262D01*
Y0046308D01*
X0053266Y004628D01*
X0053275Y0046259D01*
X0053289Y0046243D01*
X0053306Y0046234D01*
X0053319Y0046227D01*
X0053333Y0046225D01*
X0053343Y0046222D01*
X0053347D01*
D01*
X0053431D01*
Y0046236D01*
Y0046222D01*
X0053347D01*
X0053375Y0046227D01*
X0053396Y0046236D01*
X005341Y004625D01*
X0053421Y0046264D01*
X0053426Y004628D01*
X0053428Y0046294D01*
X0053431Y0046303D01*
Y0046236D01*
Y004691D01*
D02*
G37*
G36*
Y0045195D02*
D01*
Y0044853D01*
X0053428Y0044866D01*
X0053426Y0044878D01*
X0053414Y0044899D01*
X00534Y0044915D01*
X0053398Y0044917D01*
X0053396Y004492D01*
X0053146Y0045172D01*
X0053125Y0045186D01*
X0053107Y0045193D01*
X0053093Y0045195D01*
X0053431D01*
X00521D01*
X0053088D01*
X005306Y004519D01*
X0053039Y0045181D01*
X0053023Y0045167D01*
X0053014Y0045151D01*
X0053007Y0045137D01*
X0053005Y0045123D01*
X0053002Y0045114D01*
Y0045109D01*
X0053007Y0045086D01*
X0053014Y0045068D01*
X0053021Y0045056D01*
X0053026Y0045051D01*
X0053167Y0044938D01*
X0052183D01*
X0052156Y0044933D01*
X0052135Y0044924D01*
X0052121Y004491D01*
X0052112Y0044894D01*
X0052105Y004488D01*
X0052102Y0044866D01*
X00521Y0044857D01*
Y0044853D01*
X0052105Y0044825D01*
X0052114Y0044804D01*
X0052125Y0044788D01*
X0052142Y0044778D01*
X0052158Y0044772D01*
X0052169Y0044769D01*
X0052179Y0044767D01*
X00521D01*
X0053431D01*
Y0045195D01*
D02*
G37*
G36*
X0052389Y0044535D02*
X00521D01*
X0052378D01*
X0052336Y0044533D01*
X0052297Y0044524D01*
X0052262Y004451D01*
X0052234Y0044496D01*
X0052211Y0044482D01*
X0052193Y0044468D01*
X0052183Y0044459D01*
X0052179Y0044457D01*
X0052153Y0044424D01*
X0052132Y0044392D01*
X0052119Y0044357D01*
X0052109Y0044327D01*
X0052105Y0044299D01*
X0052102Y0044276D01*
X00521Y0044262D01*
Y0043848D01*
Y0043934D01*
X0052105Y0043906D01*
X0052114Y0043885D01*
X0052125Y0043869D01*
X0052142Y004386D01*
X0052158Y0043853D01*
X0052169Y0043851D01*
X0052179Y0043848D01*
X00521D01*
X0053042D01*
X0052764D01*
X0052806Y0043851D01*
X0052843Y004386D01*
X0052877Y0043874D01*
X0052905Y0043888D01*
X0052928Y0043904D01*
X0052947Y0043915D01*
X0052956Y0043925D01*
X0052961Y0043929D01*
X0052989Y0043962D01*
X0053007Y0043994D01*
X0053021Y0044029D01*
X0053033Y0044059D01*
X0053037Y0044087D01*
X0053039Y0044107D01*
X0053042Y0044124D01*
Y0044385D01*
X0053037Y0044415D01*
X0053028Y0044436D01*
X0053016Y0044452D01*
X0053Y0044461D01*
X0052984Y0044468D01*
X0052972Y0044471D01*
X0052963Y0044473D01*
X0052958D01*
X0052931Y0044468D01*
X005291Y0044459D01*
X0052894Y0044445D01*
X0052884Y0044429D01*
X0052877Y0044413D01*
X0052875Y0044399D01*
X0052873Y004439D01*
Y0044128D01*
X0052871Y0044112D01*
X0052868Y0044096D01*
X0052857Y0044073D01*
X005285Y0044063D01*
X0052845Y0044056D01*
X0052843Y0044054D01*
X005284Y0044052D01*
X0052829Y004404D01*
X0052815Y0044033D01*
X0052792Y0044024D01*
X005278Y0044022D01*
X0052771Y0044019D01*
X0052766D01*
X0052764D01*
X0052655D01*
Y0044258D01*
X0052653Y0044288D01*
X0052648Y0044316D01*
X0052641Y0044341D01*
X0052635Y0044364D01*
X0052611Y0044406D01*
X0052586Y0044441D01*
X005256Y0044466D01*
X0052537Y0044487D01*
X005253Y0044492D01*
X0052523Y0044496D01*
X0052519Y0044501D01*
X0052517D01*
X0052491Y0044512D01*
X0052468Y0044522D01*
X0052445Y0044526D01*
X0052424Y0044531D01*
X0052405Y0044533D01*
X0052389Y0044535D01*
D02*
G37*
%LPD*%
G36*
X0052873Y0052572D02*
X0052871Y0052556D01*
X0052868Y0052539D01*
X0052857Y0052516D01*
X005285Y0052507D01*
X0052845Y00525D01*
X0052843Y0052498D01*
X005284Y0052495D01*
X0052829Y0052484D01*
X0052815Y0052477D01*
X0052792Y0052468D01*
X005278Y0052465D01*
X0052771Y0052463D01*
X0052766D01*
X0052764D01*
X0052378D01*
X0052361Y0052465D01*
X0052345Y0052468D01*
X0052322Y0052479D01*
X0052313Y0052486D01*
X0052306Y0052491D01*
X0052301Y0052493D01*
X0052299Y0052495D01*
X005229Y0052507D01*
X0052283Y0052521D01*
X0052274Y0052546D01*
X0052271Y0052556D01*
X0052269Y0052565D01*
Y0052808D01*
X0052873D01*
Y0052572D01*
D02*
G37*
G36*
X0053431Y0051885D02*
X0053347D01*
X0053375Y0051889D01*
X0053396Y0051898D01*
X005341Y0051912D01*
X0053421Y0051926D01*
X0053426Y0051942D01*
X0053428Y0051956D01*
X0053431Y0051966D01*
Y0051885D01*
D02*
G37*
G36*
X0053255Y0052051D02*
X0053234Y0052042D01*
X0053218Y0052028D01*
X0053208Y0052012D01*
X0053201Y0051998D01*
X0053199Y0051984D01*
X0053197Y0051975D01*
Y005197D01*
X0053201Y0051942D01*
X0053211Y0051922D01*
X0053225Y0051905D01*
X0053241Y0051896D01*
X0053255Y0051889D01*
X0053269Y0051887D01*
X0053278Y0051885D01*
X0052958D01*
X0052986Y0051889D01*
X0053007Y0051898D01*
X0053021Y0051912D01*
X0053033Y0051926D01*
X0053037Y0051942D01*
X0053039Y0051956D01*
X0053042Y0051966D01*
Y005197D01*
X0053037Y0051998D01*
X0053028Y0052019D01*
X0053016Y0052035D01*
X0053Y0052044D01*
X0052984Y0052051D01*
X0052972Y0052053D01*
X0052963Y0052056D01*
X0053282D01*
X0053255Y0052051D01*
D02*
G37*
G36*
X0053262Y0047557D02*
X0053259Y004752D01*
X005325Y0047488D01*
X0053241Y004746D01*
X0053227Y0047435D01*
X0053215Y0047416D01*
X0053204Y00474D01*
X0053194Y0047391D01*
X0053192Y0047389D01*
X0053164Y0047365D01*
X0053137Y0047349D01*
X0053109Y0047335D01*
X0053081Y0047328D01*
X0053058Y0047324D01*
X0053039Y0047319D01*
X0053028D01*
X0053026D01*
X0053023D01*
X0052986Y0047321D01*
X0052954Y0047331D01*
X0052924Y004734D01*
X0052901Y0047354D01*
X005288Y0047365D01*
X0052864Y0047377D01*
X0052854Y0047386D01*
X0052852Y0047389D01*
X0052829Y0047416D01*
X0052813Y0047444D01*
X0052801Y0047472D01*
X0052794Y00475D01*
X005279Y0047523D01*
X0052785Y0047541D01*
Y0047794D01*
X0053262D01*
Y0047557D01*
D02*
G37*
G36*
X0053431Y0044767D02*
X0053347D01*
X0053375Y0044772D01*
X0053396Y0044781D01*
X005341Y0044795D01*
X0053421Y0044809D01*
X0053426Y0044825D01*
X0053428Y0044839D01*
X0053431Y0044848D01*
Y0044767D01*
D02*
G37*
G36*
X0052394Y0044364D02*
X0052408Y0044362D01*
X0052433Y004435D01*
X0052442Y0044343D01*
X0052449Y0044339D01*
X0052452Y0044336D01*
X0052454Y0044334D01*
X0052466Y0044323D01*
X0052473Y0044309D01*
X0052482Y0044283D01*
X0052484Y0044274D01*
X0052486Y0044265D01*
Y0044019D01*
X0052269D01*
Y0044258D01*
X0052271Y0044274D01*
X0052274Y0044288D01*
X0052285Y0044313D01*
X005229Y0044323D01*
X0052294Y0044327D01*
X0052297Y0044332D01*
X0052299Y0044334D01*
X0052313Y0044346D01*
X0052324Y0044353D01*
X005235Y0044362D01*
X0052361Y0044364D01*
X0052371Y0044367D01*
X0052375D01*
X0052378D01*
X0052394Y0044364D01*
D02*
G37*
D10*
X00765Y0045006D02*
G03*
X0076Y0045506I-00005J0D01*
G01*
Y0043506D02*
G03*
X00765Y0044006I0J00005D01*
G01*
X0072Y0043994D02*
G03*
X00725Y0043494I00005J0D01*
G01*
Y0045506D02*
G03*
X0072Y0045006I0J-00005D01*
G01*
X00725Y0043494D02*
X0075989D01*
X00725Y0045506D02*
X0076D01*
X00765Y0044006D02*
Y0045006D01*
X0072Y0043994D02*
Y0045006D01*
X0085Y00715D02*
Y00725D01*
X0087D01*
Y006925D02*
Y00725D01*
X0085Y006925D02*
X0087D01*
X0085D02*
Y00715D01*
X0063325Y00605D02*
Y006125D01*
X0064175Y0060525D02*
Y0061275D01*
X006335Y006195D02*
X0064175D01*
X0085225Y0074802D02*
Y0075402D01*
X0085525D01*
X0085625Y0075302D01*
Y0075102D01*
X0085525Y0075002D01*
X0085225D01*
X0085425D02*
X0085625Y0074802D01*
X0085825D02*
X0086025D01*
X0085925D01*
Y0075402D01*
X0085825Y0075302D01*
X0086325Y0074902D02*
X0086425Y0074802D01*
X0086625D01*
X0086725Y0074902D01*
Y0075302D01*
X0086625Y0075402D01*
X0086425D01*
X0086325Y0075302D01*
Y0075202D01*
X0086425Y0075102D01*
X0086725D01*
X007975Y007095D02*
Y007155D01*
X008005D01*
X008015Y007145D01*
Y007125D01*
X008005Y007115D01*
X007975D01*
X007995D02*
X008015Y007095D01*
X008035D02*
X008055D01*
X008045D01*
Y007155D01*
X008035Y007145D01*
X008085Y007155D02*
X008125D01*
Y007145D01*
X008085Y007105D01*
Y007095D01*
X008275Y006695D02*
Y006755D01*
X008305D01*
X008315Y006745D01*
Y006725D01*
X008305Y006715D01*
X008275D01*
X008295D02*
X008315Y006695D01*
X008335D02*
X008355D01*
X008345D01*
Y006755D01*
X008335Y006745D01*
X008425Y006755D02*
X008405Y006745D01*
X008385Y006725D01*
Y006705D01*
X008395Y006695D01*
X008415D01*
X008425Y006705D01*
Y006715D01*
X008415Y006725D01*
X008385D01*
X00831Y006645D02*
X0083Y006655D01*
X00828D01*
X00827Y006645D01*
Y006605D01*
X00828Y006595D01*
X0083D01*
X00831Y006605D01*
X00837Y006595D02*
X00833D01*
X00837Y006635D01*
Y006645D01*
X00836Y006655D01*
X00834D01*
X00833Y006645D01*
X00839D02*
X0084Y006655D01*
X00842D01*
X00843Y006645D01*
Y006635D01*
X00842Y006625D01*
X00841D01*
X00842D01*
X00843Y006615D01*
Y006605D01*
X00842Y006595D01*
X0084D01*
X00839Y006605D01*
X005955Y00553D02*
X005995Y00547D01*
Y00553D02*
X005955Y00547D01*
X006055Y00552D02*
X006045Y00553D01*
X006025D01*
X006015Y00552D01*
Y00551D01*
X006025Y0055D01*
X006045D01*
X006055Y00549D01*
Y00548D01*
X006045Y00547D01*
X006025D01*
X006015Y00548D01*
X006075Y00547D02*
X006095D01*
X006085D01*
Y00553D01*
X006075Y00552D01*
X006165Y00547D02*
X006125D01*
X006165Y00551D01*
Y00552D01*
X006155Y00553D01*
X006135D01*
X006125Y00552D01*
X00647Y00612D02*
Y00608D01*
X00649Y00606D01*
X00651Y00608D01*
Y00612D01*
X00653D02*
Y00606D01*
X00656D01*
X00657Y00607D01*
Y00611D01*
X00656Y00612D01*
X00653D01*
X00659Y00606D02*
X00661D01*
X0066D01*
Y00612D01*
X00659Y00611D01*
X006485Y00588D02*
Y00594D01*
X006515D01*
X006525Y00593D01*
Y00591D01*
X006515Y0059D01*
X006485D01*
X006505D02*
X006525Y00588D01*
X006545D02*
X006565D01*
X006555D01*
Y00594D01*
X006545Y00593D01*
X006635Y00588D02*
X006595D01*
X006635Y00592D01*
Y00593D01*
X006625Y00594D01*
X006605D01*
X006595Y00593D01*
X006305Y00588D02*
Y00594D01*
X006335D01*
X006345Y00593D01*
Y00591D01*
X006335Y0059D01*
X006305D01*
X006325D02*
X006345Y00588D01*
X006365D02*
X006385D01*
X006375D01*
Y00594D01*
X006365Y00593D01*
X006415Y00588D02*
X006435D01*
X006425D01*
Y00594D01*
X006415Y00593D01*
X00605Y004295D02*
Y004355D01*
X00608D01*
X00609Y004345D01*
Y004325D01*
X00608Y004315D01*
X00605D01*
X00607D02*
X00609Y004295D01*
X00611D02*
X00613D01*
X00612D01*
Y004355D01*
X00611Y004345D01*
X00616D02*
X00617Y004355D01*
X00619D01*
X0062Y004345D01*
Y004305D01*
X00619Y004295D01*
X00617D01*
X00616Y004305D01*
Y004345D01*
X00596Y00665D02*
Y00671D01*
X00599D01*
X006Y0067D01*
Y00668D01*
X00599Y00667D01*
X00596D01*
X00598D02*
X006Y00665D01*
X00602Y00666D02*
X00603Y00665D01*
X00605D01*
X00606Y00666D01*
Y0067D01*
X00605Y00671D01*
X00603D01*
X00602Y0067D01*
Y00669D01*
X00603Y00668D01*
X00606D01*
X00626Y00665D02*
Y00671D01*
X00629D01*
X0063Y0067D01*
Y00668D01*
X00629Y00667D01*
X00626D01*
X00628D02*
X0063Y00665D01*
X00632Y0067D02*
X00633Y00671D01*
X00635D01*
X00636Y0067D01*
Y00669D01*
X00635Y00668D01*
X00636Y00667D01*
Y00666D01*
X00635Y00665D01*
X00633D01*
X00632Y00666D01*
Y00667D01*
X00633Y00668D01*
X00632Y00669D01*
Y0067D01*
X00633Y00668D02*
X00635D01*
X00626Y00623D02*
Y00629D01*
X00629D01*
X0063Y00628D01*
Y00626D01*
X00629Y00625D01*
X00626D01*
X00628D02*
X0063Y00623D01*
X00632Y00629D02*
X00636D01*
Y00628D01*
X00632Y00624D01*
Y00623D01*
X006525Y005195D02*
Y005255D01*
X006555D01*
X006565Y005245D01*
Y005225D01*
X006555Y005215D01*
X006525D01*
X006545D02*
X006565Y005195D01*
X006625Y005255D02*
X006605Y005245D01*
X006585Y005225D01*
Y005205D01*
X006595Y005195D01*
X006615D01*
X006625Y005205D01*
Y005215D01*
X006615Y005225D01*
X006585D01*
X006525Y00482D02*
Y00488D01*
X006555D01*
X006565Y00487D01*
Y00485D01*
X006555Y00484D01*
X006525D01*
X006545D02*
X006565Y00482D01*
X006625Y00488D02*
X006585D01*
Y00485D01*
X006605Y00486D01*
X006615D01*
X006625Y00485D01*
Y00483D01*
X006615Y00482D01*
X006595D01*
X006585Y00483D01*
X006525Y00532D02*
Y00538D01*
X006555D01*
X006565Y00537D01*
Y00535D01*
X006555Y00534D01*
X006525D01*
X006545D02*
X006565Y00532D01*
X006615D02*
Y00538D01*
X006585Y00535D01*
X006625D01*
X006525Y00507D02*
Y00513D01*
X006555D01*
X006565Y00512D01*
Y0051D01*
X006555Y00509D01*
X006525D01*
X006545D02*
X006565Y00507D01*
X006585Y00512D02*
X006595Y00513D01*
X006615D01*
X006625Y00512D01*
Y00511D01*
X006615Y0051D01*
X006605D01*
X006615D01*
X006625Y00509D01*
Y00508D01*
X006615Y00507D01*
X006595D01*
X006585Y00508D01*
X006525Y004945D02*
Y005005D01*
X006555D01*
X006565Y004995D01*
Y004975D01*
X006555Y004965D01*
X006525D01*
X006545D02*
X006565Y004945D01*
X006625D02*
X006585D01*
X006625Y004985D01*
Y004995D01*
X006615Y005005D01*
X006595D01*
X006585Y004995D01*
X006535Y004695D02*
Y004755D01*
X006565D01*
X006575Y004745D01*
Y004725D01*
X006565Y004715D01*
X006535D01*
X006555D02*
X006575Y004695D01*
X006595D02*
X006615D01*
X006605D01*
Y004755D01*
X006595Y004745D01*
X00855Y00688D02*
Y00682D01*
X00859D01*
X00865D02*
X00861D01*
X00865Y00686D01*
Y00687D01*
X00864Y00688D01*
X00862D01*
X00861Y00687D01*
X0068Y0075775D02*
Y0075175D01*
X00684D01*
X00686D02*
X00688D01*
X00687D01*
Y0075775D01*
X00686Y0075675D01*
X00667Y004305D02*
Y004245D01*
X0067D01*
X00671Y004255D01*
Y004295D01*
X0067Y004305D01*
X00667D01*
X00673D02*
Y004245D01*
X00676D01*
X00677Y004255D01*
Y004295D01*
X00676Y004305D01*
X00673D01*
X00683D02*
X00681Y004295D01*
X00679Y004275D01*
Y004255D01*
X0068Y004245D01*
X00682D01*
X00683Y004255D01*
Y004265D01*
X00682Y004275D01*
X00679D01*
X00732Y0069045D02*
Y0068445D01*
X00735D01*
X00736Y0068545D01*
Y0068945D01*
X00735Y0069045D01*
X00732D01*
X00738D02*
Y0068445D01*
X00741D01*
X00742Y0068545D01*
Y0068945D01*
X00741Y0069045D01*
X00738D01*
X00748D02*
X00744D01*
Y0068745D01*
X00746Y0068845D01*
X00747D01*
X00748Y0068745D01*
Y0068545D01*
X00747Y0068445D01*
X00745D01*
X00744Y0068545D01*
X00797Y00733D02*
Y00727D01*
X008D01*
X00801Y00728D01*
Y00732D01*
X008Y00733D01*
X00797D01*
X00803D02*
Y00727D01*
X00806D01*
X00807Y00728D01*
Y00732D01*
X00806Y00733D01*
X00803D01*
X00812Y00727D02*
Y00733D01*
X00809Y0073D01*
X00813D01*
X00656Y0069275D02*
Y0068675D01*
X00659D01*
X0066Y0068775D01*
Y0069175D01*
X00659Y0069275D01*
X00656D01*
X00662D02*
Y0068675D01*
X00665D01*
X00666Y0068775D01*
Y0069175D01*
X00665Y0069275D01*
X00662D01*
X00668Y0069175D02*
X00669Y0069275D01*
X00671D01*
X00672Y0069175D01*
Y0069075D01*
X00671Y0068975D01*
X0067D01*
X00671D01*
X00672Y0068875D01*
Y0068775D01*
X00671Y0068675D01*
X00669D01*
X00668Y0068775D01*
X00747Y006205D02*
Y006145D01*
X0075D01*
X00751Y006155D01*
Y006195D01*
X0075Y006205D01*
X00747D01*
X00753D02*
Y006145D01*
X00756D01*
X00757Y006155D01*
Y006195D01*
X00756Y006205D01*
X00753D01*
X00763Y006145D02*
X00759D01*
X00763Y006185D01*
Y006195D01*
X00762Y006205D01*
X0076D01*
X00759Y006195D01*
X00788Y006205D02*
Y006145D01*
X00791D01*
X00792Y006155D01*
Y006195D01*
X00791Y006205D01*
X00788D01*
X00794D02*
Y006145D01*
X00797D01*
X00798Y006155D01*
Y006195D01*
X00797Y006205D01*
X00794D01*
X008Y006145D02*
X00802D01*
X00801D01*
Y006205D01*
X008Y006195D01*
X007365Y00782D02*
X007355Y00783D01*
X007335D01*
X007325Y00782D01*
Y00778D01*
X007335Y00777D01*
X007355D01*
X007365Y00778D01*
X007385Y00777D02*
X007405D01*
X007395D01*
Y00783D01*
X007385Y00782D01*
X007435D02*
X007445Y00783D01*
X007465D01*
X007475Y00782D01*
Y00778D01*
X007465Y00777D01*
X007445D01*
X007435Y00778D01*
Y00782D01*
X00614Y004545D02*
X00613Y004555D01*
X00611D01*
X0061Y004545D01*
Y004505D01*
X00611Y004495D01*
X00613D01*
X00614Y004505D01*
X00616D02*
X00617Y004495D01*
X00619D01*
X0062Y004505D01*
Y004545D01*
X00619Y004555D01*
X00617D01*
X00616Y004545D01*
Y004535D01*
X00617Y004525D01*
X0062D01*
X00599Y00628D02*
X00598Y00629D01*
X00596D01*
X00595Y00628D01*
Y00624D01*
X00596Y00623D01*
X00598D01*
X00599Y00624D01*
X00601Y00628D02*
X00602Y00629D01*
X00604D01*
X00605Y00628D01*
Y00627D01*
X00604Y00626D01*
X00605Y00625D01*
Y00624D01*
X00604Y00623D01*
X00602D01*
X00601Y00624D01*
Y00625D01*
X00602Y00626D01*
X00601Y00627D01*
Y00628D01*
X00602Y00626D02*
X00604D01*
X007865Y00677D02*
X007855Y00678D01*
X007835D01*
X007825Y00677D01*
Y00673D01*
X007835Y00672D01*
X007855D01*
X007865Y00673D01*
X007885Y00678D02*
X007925D01*
Y00677D01*
X007885Y00673D01*
Y00672D01*
X005925Y0070775D02*
X005915Y0070875D01*
X005895D01*
X005885Y0070775D01*
Y0070375D01*
X005895Y0070275D01*
X005915D01*
X005925Y0070375D01*
X005985Y0070875D02*
X005965Y0070775D01*
X005945Y0070575D01*
Y0070375D01*
X005955Y0070275D01*
X005975D01*
X005985Y0070375D01*
Y0070475D01*
X005975Y0070575D01*
X005945D01*
X00615Y0070775D02*
X00614Y0070875D01*
X00612D01*
X00611Y0070775D01*
Y0070375D01*
X00612Y0070275D01*
X00614D01*
X00615Y0070375D01*
X00621Y0070875D02*
X00617D01*
Y0070575D01*
X00619Y0070675D01*
X0062D01*
X00621Y0070575D01*
Y0070375D01*
X0062Y0070275D01*
X00618D01*
X00617Y0070375D01*
X006915Y002895D02*
X006905Y002905D01*
X006885D01*
X006875Y002895D01*
Y002855D01*
X006885Y002845D01*
X006905D01*
X006915Y002855D01*
X006965Y002845D02*
Y002905D01*
X006935Y002875D01*
X006975D01*
X006355Y0070825D02*
X006345Y0070925D01*
X006325D01*
X006315Y0070825D01*
Y0070425D01*
X006325Y0070325D01*
X006345D01*
X006355Y0070425D01*
X006375Y0070825D02*
X006385Y0070925D01*
X006405D01*
X006415Y0070825D01*
Y0070725D01*
X006405Y0070625D01*
X006395D01*
X006405D01*
X006415Y0070525D01*
Y0070425D01*
X006405Y0070325D01*
X006385D01*
X006375Y0070425D01*
X00829Y007745D02*
X00828Y007755D01*
X00826D01*
X00825Y007745D01*
Y007705D01*
X00826Y007695D01*
X00828D01*
X00829Y007705D01*
X00835Y007695D02*
X00831D01*
X00835Y007735D01*
Y007745D01*
X00834Y007755D01*
X00832D01*
X00831Y007745D01*
X00685Y0073675D02*
X00684Y0073775D01*
X00682D01*
X00681Y0073675D01*
Y0073275D01*
X00682Y0073175D01*
X00684D01*
X00685Y0073275D01*
X00687Y0073175D02*
X00689D01*
X00688D01*
Y0073775D01*
X00687Y0073675D01*
X006795Y0071275D02*
Y0070675D01*
X006825D01*
X006835Y0070775D01*
Y0070875D01*
X006825Y0070975D01*
X006795D01*
X006825D01*
X006835Y0071075D01*
Y0071175D01*
X006825Y0071275D01*
X006795D01*
X006895Y0070775D02*
Y0071175D01*
X006885Y0071275D01*
X006865D01*
X006855Y0071175D01*
Y0070775D01*
X006865Y0070675D01*
X006885D01*
X006875Y0070875D02*
X006895Y0070675D01*
X006885D02*
X006895Y0070775D01*
X006915Y0070675D02*
X006935D01*
X006925D01*
Y0071275D01*
X006915Y0071175D01*
X00721Y00572D02*
X0072Y00573D01*
X00718D01*
X00717Y00572D01*
Y00568D01*
X00718Y00567D01*
X0072D01*
X00721Y00568D01*
X00727Y00567D02*
X00723D01*
X00727Y00571D01*
Y00572D01*
X00726Y00573D01*
X00724D01*
X00723Y00572D01*
X00733Y00567D02*
X00729D01*
X00733Y00571D01*
Y00572D01*
X00732Y00573D01*
X0073D01*
X00729Y00572D01*
D11*
X0065225Y0067975D02*
G03*
X0065225Y0067975I-0000125J0D01*
G01*
X0071725Y0075005D02*
G03*
X0071725Y0075005I-0000125J0D01*
G01*
X0084825Y00743D02*
G03*
X0084825Y00743I-0000125J0D01*
G01*
D12*
X0066025Y0072175D02*
G03*
X0066025Y0072175I-0000075J0D01*
G01*
D13*
X00782Y00631D02*
D03*
X00742D02*
D03*
D14*
X0069Y00433D02*
D03*
D15*
X0086Y007395D02*
Y007435D01*
D16*
X0083352Y0070485D02*
X0083602D01*
X0083352Y0069685D02*
X0083602D01*
X0080602Y0070485D02*
X0080852D01*
X0080602Y0069685D02*
X0080852D01*
X0083204Y006787D02*
X0083803D01*
X0083202Y0069119D02*
X00838D01*
X0069869Y00302D02*
Y0030798D01*
X006862Y0030197D02*
Y0030796D01*
X00632Y0056925D02*
Y0057175D01*
X0064Y0056925D02*
Y0057175D01*
X0059925Y00653D02*
X0060175D01*
X0059925Y00661D02*
X0060175D01*
X0062925Y00653D02*
X0063175D01*
X0062925Y00661D02*
X0063175D01*
X0062925Y00633D02*
X0063175D01*
X0062925Y00641D02*
X0063175D01*
X005857Y00566D02*
Y006155D01*
X006272Y005655D02*
Y006155D01*
X0065583Y0056925D02*
Y0057175D01*
X0064783Y0056925D02*
Y0057175D01*
X0059702Y0064319D02*
X00603D01*
X0059704Y006307D02*
X0060303D01*
X006302Y0068322D02*
Y0068921D01*
X0064269Y0068325D02*
Y0068923D01*
X0067575Y00716D02*
Y007205D01*
X00672D02*
X0067575D01*
X0067125Y0070125D02*
X0067575D01*
Y00705D01*
X006595Y0070125D02*
Y0070575D01*
Y0070125D02*
X0066325D01*
X0066202Y0074094D02*
X00668D01*
X0066204Y0072845D02*
X0066803D01*
X0066325Y0075075D02*
X0066575D01*
X0066325Y0075875D02*
X0066575D01*
X0073702Y0077119D02*
X00743D01*
X0073704Y007587D02*
X0074303D01*
X0062169Y0068325D02*
Y0068923D01*
X006092Y0068322D02*
Y0068921D01*
X0060019Y0068325D02*
Y0068923D01*
X005877Y0068322D02*
Y0068921D01*
X00552Y00479D02*
X00588D01*
X00552Y00542D02*
X00588D01*
X0063625Y004685D02*
X0063875D01*
X0063625Y004765D02*
X0063875D01*
X0063625Y004285D02*
X0063875D01*
X0063625Y004365D02*
X0063875D01*
X006345Y0044631D02*
X0064048D01*
X0063447Y004588D02*
X0064046D01*
X0082702Y0076619D02*
X00833D01*
X0082704Y007537D02*
X0083303D01*
X0079381Y0066902D02*
Y0067501D01*
X008063Y0066904D02*
Y0067503D01*
X0063625Y00489D02*
X0063875D01*
X0063625Y00481D02*
X0063875D01*
X0063625Y005265D02*
X0063875D01*
X0063625Y005185D02*
X0063875D01*
X0063625Y00539D02*
X0063875D01*
X0063625Y00531D02*
X0063875D01*
X0063625Y00514D02*
X0063875D01*
X0063625Y00506D02*
X0063875D01*
X0063625Y005015D02*
X0063875D01*
X0063625Y004935D02*
X0063875D01*
X00892Y00542D02*
X00928D01*
X00892Y00479D02*
X00928D01*
D17*
X00723Y00554D02*
X00727D01*
X00786Y0064D02*
X00804D01*
X00746D02*
X00764D01*
X006575Y0063825D02*
X0066D01*
X006575D02*
Y0064075D01*
X00698Y0063825D02*
X007005D01*
Y0064075D01*
Y0067875D02*
Y0068125D01*
X00698D02*
X007005D01*
X006575D02*
X0066D01*
X006575Y0067875D02*
Y0068125D01*
X00731Y006975D02*
Y007475D01*
X00749Y006975D02*
Y007475D01*
X00731D02*
X00749D01*
X00731Y006975D02*
X00749D01*
X00666Y00435D02*
X00684D01*
Y00455D01*
X00666Y00435D02*
Y00455D01*
X00684D01*
X00844Y007275D02*
Y007325D01*
X00816Y007275D02*
Y007325D01*
X00844D01*
X00816Y007275D02*
X00844D01*
M02*
