M48
;Layer_Color=9474304
;FILE_FORMAT=4:3
METRIC,LZ
;TYPE=PLATED
T1F00S00C0.300
T2F00S00C0.650
T3F00S00C0.800
T4F00S00C0.920
T5F00S00C1.000
T6F00S00C1.300
T7F00S00C1.400
T8F00S00C2.000
T9F00S00C2.200
%
T01
X0052Y003825
X00535Y0037
X0055Y003825
X0059Y0038
X0064Y0037
X0072
X0071Y0039
X0078Y00387
Y00396
X0077Y0037
X00887Y0038059
X0091Y0036
X00921Y00351
X0093Y0034
X0095Y0032
Y0036
Y0039
X0099
Y0036
Y0032
X0105
Y0036
Y0039
X009Y0031
X016Y0032
X0167
X0173
X0192Y0034
X0196
X0206Y0033
Y0038
X0212
Y0033
X0218
Y0038
X0254Y0031
X0256
X0263
Y0029
X02632Y00332
X029Y0032
Y0038
X03
Y0032
X0307Y0046
Y0051
Y0056
X0313
Y0051
Y0046
Y0068
Y0073
X0307Y0074
Y0068
X0299
Y0071
X0293
Y0068
Y0062
X0299
X0284Y0068
Y0073
X0277
Y0068
X0267Y0059
X0263
X0259
Y0055
X0263
Y0051
X0267
Y0048
X0271
X0271Y0051
Y004
X02632Y00422
X0263Y0044
X0259
X0255
X0251
X0247
X0243
Y004
X0239
Y0044
Y0051
X0243
Y0055
Y0059
X0239
Y0055
X0247
X0251
X0255
Y0059
X0251
X0247
X0247Y0051
X0251
X0255
X0259
Y004
X0255
X0251
X0247
X0243Y0073
Y0077
X0254
Y0073
X0235Y0059
Y0055
Y0051
Y0048
X0231
Y0051
X0227
Y0048
Y0044
Y004
X0231Y0044
X0235Y004
X0231Y0055
X0227
Y0059
X0231
X0221Y006
X0216
X0211
X0206
X0203Y0063
X0199
Y006
X0206Y0053
Y0049
X0207Y0078
X0211
X0216
X0221Y0072
X0189Y0069
X0186
X018725Y006225
X0189Y0063
X0186Y00604
X0184Y006
Y0056
X018
X0176
X0172
X0168
X0164
X016
Y0052
Y0049
Y0045
Y0041
X0168
X0172
X0176
X018
X0184
X0188
X0192
X0196
X0196Y0045
Y0049
X0196Y0052
X0192
Y0049
X0188
X0184
X0184Y0052
X018595Y005295
X0188Y0056
X0192
Y006
X0196
Y0056
X0192Y0045
X0188
X0184
X018
X0176
X0172
Y0049
X0172Y0052
X0168
Y0049
Y0045
X0176Y0049
Y0052
X01782Y005295
X018Y0049
X0178Y00604
X0168Y006
X0167Y0062
X0164Y006
X016
Y0074
Y0078
X0164
Y0074
X0169
X0167Y0068
X018Y0078
X0184
X0188
X0156
X0152
Y0074
X0156
X0155Y0068
X015
X0145
Y0062
X015
X0152Y006
Y0056
Y0052
Y0049
Y0045
Y0041
X0156
Y0045
Y0049
Y0052
Y0056
Y006
X0155Y0062
X0139
Y0068
X0133
Y0062
Y0054
Y005
X0129
Y0054
X0138
X0139Y005
X0141Y0079
X0133Y0076
X0129Y0078
Y0073
X012525Y007325
X0127Y007075
X01171Y0070775
X0118Y0068
X0114Y007
Y0074
X011
Y006975
X0105Y0068
X01
X0096
Y006
Y0057
X01Y006
X0105
X0107
X0108Y0056
X0111Y0054
Y005
Y0047
Y0043
X0105
Y0047
Y005
Y0054
X0103Y0056
X0099Y0047
Y0043
X0091664Y0041991
X0092012Y0050588
X0092Y00532
X0087Y0054
Y0051
X00846Y00477
X0083Y0049
Y0053
X00815Y005225
Y0046
X0118Y005
Y0054
Y0061
X0114Y0063
X011
X0112Y006
X0114Y0079
X011
X009775Y0078
X00955
X009325
X00715Y0075
X007025Y007625
X0056Y0073
Y0071
X0051
X005Y0073
X0047
Y0071
X005926Y0049663
X0060326Y0048647
X00625Y00485
Y00496
X00638
Y00485
X0062Y0046
X0065Y0045
X0064Y004
X006
X005561Y0043393
X0054506Y0043366
X006975Y004325
X00697Y00405
X0074Y004225
X00748Y004525
X00781Y0042
X0079
X0078Y00405
X0079Y005
Y0053
X006875Y0058
X0054Y0082526
Y0083526
Y0084526
Y0085526
Y00865
X0053Y0086974
Y0086
Y0085
Y0084
Y0083
Y0082
X009325Y0081
X00955
X009775
X0101Y0083
Y0089
X009775Y008875
X00955
X009325
Y009175
X00955
X009775
X0101Y0095
X011
Y0091
X0116
Y0095
X01171Y00881
X0116Y0086
Y0083
X0113
Y0087
X011Y0084
X01171Y0079524
X0127Y00795
X0126Y008075
X0125Y0082
X0129Y0083
Y0086
X0133
Y0088
Y0093
X0129Y0095
Y0091
X01265Y00895
X0127Y0088
X0125Y009075
X0133Y0083
Y008
X0141Y0089
X0152Y0088
Y0092
X0156
Y0088
X016
Y0092
X0164
Y0088
X0168
Y0092
X0172
X0176
Y0088
X0172
X0172Y0084
X0176
Y0082
X018
Y0084
Y0088
Y0092
X0184
Y0088
X0188
Y0084
Y0082
X0184
X0184Y0084
X0192
Y0082
X0196
X0196Y0084
X0196Y0088
Y0092
X0192
X0188
X0192Y0088
X0207
Y0092
X0213
X0243Y0094
Y0086
Y0083
X0254Y0082
Y0086
Y0093
X0277Y0086
Y0081
X0284
Y0086
Y0094
X0313Y0086
Y0081
T02
X004898Y003425
Y003552
X005025
Y003425
X005152
Y003552
T03
X00675Y00305
Y00325
X00695
Y00305
X00715
Y00325
X00735
Y00305
X00755
X00775
Y00325
X00755
X00795
Y00305
T04
X01135Y003425
X0116
Y003745
X01135
T05
X0157Y0036
X0178
X0181Y0036
X0202
X02345Y0035
X02555
X02585Y0035
X02795
X028Y0044
Y0055
X0222
Y0044
X0203Y0045
Y0056
X020255Y00687
X020305Y00777
X018155Y00687
X017855
X015755
X014505Y00777
X0145Y0056
Y0045
X014505Y00887
X020305
T06
X0134Y0038
X0139
T07
X030144Y007625
X030525
X027006Y007625
X026625
X023505Y00762
X023124
X004025Y007669
Y00805
X022743Y00842
X023124
X023505
X023455Y00922
X023074
X022693
X022312
X023836
X024217
X023886Y00842
X026225Y008425
X026606
X026987
X027368
X027349Y009225
X026968
X026587
X026206
X025825
X02773
X029332Y009225
X029713
X030094
X030475
X030856
X031237
X030906Y008425
X030525
X030144
X029763
T08
X0076Y008
Y00925
T09
X010873Y003475
X012077
M30
