G04*
G04 #@! TF.GenerationSoftware,Altium Limited,Altium Designer,20.1.8 (145)*
G04*
G04 Layer_Color=16777215*
%FSTAX43Y43*%
%MOMM*%
G71*
G04*
G04 #@! TF.SameCoordinates,59881587-8D87-46A2-A81E-376F0E243C69*
G04*
G04*
G04 #@! TF.FilePolarity,Positive*
G04*
G01*
G75*
%ADD10C,0.100*%
%ADD11C,0.300*%
%ADD12C,0.400*%
G36*
X0114672Y006213D02*
X0113922Y006413D01*
X0115422D01*
X0114672Y006213D01*
D02*
G37*
G36*
X011469Y0067189D02*
X011544Y0065189D01*
X011394D01*
X011469Y0067189D01*
D02*
G37*
G36*
X009299Y0071506D02*
X0093004D01*
Y0063454D01*
X0090296D01*
Y0071454D01*
X009029D01*
Y007861D01*
X009299D01*
Y0071506D01*
D02*
G37*
G36*
X0088611Y0085823D02*
X0088609D01*
X0088606Y0085821D01*
X0088597Y0085818D01*
X0088586Y0085815D01*
X0088559Y0085807D01*
X0088525Y0085793D01*
X0088489Y0085779D01*
X0088453Y008576D01*
X008842Y008574D01*
X0088395Y0085715D01*
X0088392Y0085712D01*
X0088386Y0085704D01*
X0088378Y0085687D01*
X008837Y0085668D01*
X0088359Y008564D01*
X008835Y008561D01*
X0088345Y0085571D01*
X0088342Y0085529D01*
Y0085507D01*
X0088345Y0085485D01*
X008835Y0085454D01*
X0088359Y0085424D01*
X0088373Y0085388D01*
X0088389Y0085354D01*
X0088411Y0085324D01*
X0088414Y0085321D01*
X0088425Y0085313D01*
X0088439Y0085299D01*
X0088461Y0085285D01*
X0088486Y0085271D01*
X0088517Y0085257D01*
X0088553Y0085249D01*
X0088595Y0085246D01*
X0088597D01*
X00886D01*
X0088614D01*
X0088636Y0085252D01*
X0088664Y0085257D01*
X0088692Y0085265D01*
X0088722Y0085282D01*
X0088753Y0085301D01*
X0088781Y0085329D01*
X0088783Y0085332D01*
X0088792Y0085343D01*
X0088803Y0085363D01*
X0088817Y0085388D01*
X0088828Y0085421D01*
X0088839Y008546D01*
X0088847Y0085504D01*
X008885Y0085557D01*
Y0085624D01*
X0089133D01*
Y0085593D01*
X0089136Y0085574D01*
X0089139Y0085549D01*
X0089144Y0085521D01*
X0089153Y008549D01*
X0089164Y008546D01*
X0089178Y0085432D01*
X0089194Y0085401D01*
X0089219Y0085374D01*
X0089247Y0085349D01*
X008928Y0085329D01*
X0089319Y0085313D01*
X0089364Y0085301D01*
X0089416Y0085299D01*
X0089422D01*
X0089436D01*
X0089455Y0085301D01*
X008948Y0085307D01*
X0089508Y0085315D01*
X0089536Y0085326D01*
X0089566Y008534D01*
X0089591Y0085363D01*
X0089594Y0085365D01*
X0089602Y0085374D01*
X0089614Y0085388D01*
X0089625Y0085407D01*
X0089636Y0085432D01*
X0089647Y0085463D01*
X0089655Y0085496D01*
X0089658Y0085535D01*
Y0085543D01*
X0089655Y0085551D01*
Y0085565D01*
X0089647Y0085599D01*
X0089627Y0085635D01*
X0089616Y0085657D01*
X00896Y0085676D01*
X008958Y0085698D01*
X0089558Y0085718D01*
X008953Y0085735D01*
X00895Y0085751D01*
X0089464Y0085768D01*
X0089422Y0085779D01*
X0089508Y0086082D01*
X0089514D01*
X0089527Y0086076D01*
X008955Y0086071D01*
X008958Y0086059D01*
X0089616Y0086046D01*
X0089655Y0086029D01*
X0089697Y0086007D01*
X0089738Y0085979D01*
X0089783Y0085946D01*
X0089825Y0085907D01*
X0089863Y0085862D01*
X0089897Y008581D01*
X0089927Y0085751D01*
X0089949Y0085685D01*
X0089963Y0085612D01*
X0089969Y0085529D01*
Y0085504D01*
X0089966Y0085487D01*
Y0085465D01*
X0089961Y0085443D01*
X0089958Y0085415D01*
X0089952Y0085385D01*
X0089936Y0085321D01*
X0089911Y0085254D01*
X0089894Y0085221D01*
X0089877Y008519D01*
X0089855Y0085157D01*
X008983Y0085129D01*
X0089827Y0085127D01*
X0089825Y0085124D01*
X0089816Y0085115D01*
X0089805Y0085104D01*
X0089791Y0085093D01*
X0089775Y0085082D01*
X0089736Y0085052D01*
X0089686Y0085024D01*
X0089625Y0085002D01*
X0089558Y0084982D01*
X0089519Y0084979D01*
X008948Y0084977D01*
X0089478D01*
X0089469D01*
X0089455Y0084979D01*
X0089436D01*
X0089414Y0084985D01*
X0089389Y0084991D01*
X0089358Y0084999D01*
X0089328Y008501D01*
X0089294Y0085024D01*
X0089258Y0085041D01*
X0089222Y008506D01*
X0089186Y0085085D01*
X008915Y0085115D01*
X0089117Y0085149D01*
X0089081Y008519D01*
X008905Y0085235D01*
X0089047Y0085232D01*
X0089044Y0085221D01*
X0089036Y0085207D01*
X0089025Y0085185D01*
X0089008Y0085163D01*
X0088989Y0085138D01*
X0088967Y0085107D01*
X0088942Y0085079D01*
X0088911Y0085052D01*
X0088878Y0085021D01*
X0088839Y0084996D01*
X0088795Y0084971D01*
X008875Y0084952D01*
X0088697Y0084938D01*
X0088642Y0084927D01*
X0088581Y0084924D01*
X0088578D01*
X008857D01*
X0088556D01*
X0088539Y0084927D01*
X0088517Y0084929D01*
X0088492Y0084932D01*
X0088464Y0084938D01*
X0088434Y0084943D01*
X008837Y0084963D01*
X0088334Y0084974D01*
X00883Y0084991D01*
X0088267Y008501D01*
X0088237Y0085029D01*
X0088203Y0085054D01*
X0088175Y0085082D01*
X0088173Y0085085D01*
X008817Y008509D01*
X0088162Y0085099D01*
X0088153Y008511D01*
X0088142Y0085127D01*
X0088131Y0085146D01*
X0088117Y0085168D01*
X0088103Y0085196D01*
X0088089Y0085224D01*
X0088076Y0085257D01*
X0088064Y0085293D01*
X0088053Y0085332D01*
X0088045Y0085376D01*
X0088037Y0085421D01*
X0088034Y0085468D01*
X0088031Y0085521D01*
Y0085543D01*
X0088034Y008556D01*
Y0085582D01*
X0088037Y0085604D01*
X0088042Y008566D01*
X0088053Y0085718D01*
X008807Y0085782D01*
X0088095Y0085843D01*
X0088125Y0085898D01*
Y0085901D01*
X0088131Y0085904D01*
X0088145Y0085921D01*
X0088156Y0085932D01*
X008817Y0085946D01*
X0088187Y0085959D01*
X0088209Y0085976D01*
X0088231Y0085993D01*
X0088259Y0086009D01*
X0088289Y0086026D01*
X0088323Y0086046D01*
X0088359Y0086062D01*
X00884Y0086079D01*
X0088445Y0086095D01*
X0088495Y0086109D01*
X0088611Y0085823D01*
D02*
G37*
G36*
X0088473Y008473D02*
X00885Y0084727D01*
X0088531Y0084721D01*
X0088564Y0084716D01*
X0088597Y0084705D01*
X0088631Y0084691D01*
X0088634Y0084688D01*
X0088645Y0084682D01*
X0088661Y0084674D01*
X0088681Y008466D01*
X0088703Y0084644D01*
X0088725Y0084624D01*
X0088747Y0084602D01*
X0088767Y0084574D01*
X008877Y0084571D01*
X0088775Y008456D01*
X0088786Y0084541D01*
X0088797Y0084513D01*
X0088814Y008448D01*
X0088828Y0084438D01*
X0088845Y0084385D01*
X0088861Y0084327D01*
Y0084324D01*
X0088864Y0084319D01*
X0088867Y0084308D01*
X008887Y0084294D01*
X0088872Y0084277D01*
X0088878Y0084258D01*
X0088889Y0084213D01*
X0088903Y0084166D01*
X0088919Y0084119D01*
X0088933Y0084074D01*
X0088942Y0084055D01*
X008895Y0084038D01*
X0088956D01*
X0088967D01*
X0088986D01*
X0089011Y0084041D01*
X0089033D01*
X0089058Y0084044D01*
X0089078Y0084049D01*
X0089094Y0084055D01*
X0089097D01*
X00891Y0084058D01*
X0089117Y0084069D01*
X0089133Y0084088D01*
X0089153Y0084116D01*
Y0084119D01*
X0089155Y0084124D01*
X0089161Y0084133D01*
X0089167Y0084147D01*
X0089169Y0084163D01*
X0089175Y0084183D01*
X0089178Y0084208D01*
Y0084249D01*
X0089175Y0084263D01*
X0089172Y008428D01*
X0089164Y0084321D01*
X0089153Y0084341D01*
X0089142Y008436D01*
X0089139Y0084363D01*
X0089133Y0084369D01*
X0089125Y0084377D01*
X0089111Y0084385D01*
X0089094Y0084396D01*
X0089069Y008441D01*
X0089042Y0084421D01*
X0089008Y0084433D01*
X0089064Y0084699D01*
X0089067D01*
X0089072Y0084696D01*
X0089083Y0084693D01*
X0089097Y0084691D01*
X0089114Y0084685D01*
X0089133Y0084677D01*
X0089178Y008466D01*
X0089228Y0084641D01*
X0089275Y0084613D01*
X0089322Y008458D01*
X0089361Y0084541D01*
X0089364Y0084535D01*
X0089375Y0084519D01*
X0089389Y0084494D01*
X0089408Y0084458D01*
X0089425Y0084413D01*
X0089439Y0084358D01*
X008945Y0084291D01*
X0089453Y0084219D01*
Y0084188D01*
X008945Y0084155D01*
X0089447Y0084113D01*
X0089439Y0084069D01*
X008943Y0084022D01*
X0089416Y0083974D01*
X00894Y0083936D01*
X0089397Y008393D01*
X0089391Y0083919D01*
X0089378Y0083902D01*
X0089361Y008388D01*
X0089341Y0083858D01*
X0089316Y0083833D01*
X0089289Y0083811D01*
X0089255Y0083794D01*
X008925Y0083791D01*
X0089239Y0083786D01*
X0089214Y008378D01*
X00892Y0083775D01*
X008918Y0083772D01*
X0089161Y0083766D01*
X0089136Y0083763D01*
X0089111Y0083761D01*
X0089081Y0083755D01*
X0089047Y0083752D01*
X0089011D01*
X0088972Y008375D01*
X0088928D01*
X0088509Y0083752D01*
X0088506D01*
X00885D01*
X0088492D01*
X0088481D01*
X0088448D01*
X0088409Y008375D01*
X0088367D01*
X0088323Y0083747D01*
X0088281Y0083744D01*
X0088245Y0083738D01*
X0088242D01*
X0088231Y0083736D01*
X0088212Y0083733D01*
X0088189Y0083727D01*
X0088162Y0083719D01*
X0088131Y0083711D01*
X0088098Y00837D01*
X0088062Y0083686D01*
Y0083977D01*
X0088209Y0084016D01*
X0088206Y0084019D01*
X0088195Y008403D01*
X0088178Y0084044D01*
X0088159Y0084066D01*
X0088137Y0084091D01*
X0088114Y0084119D01*
X0088095Y0084149D01*
X0088076Y008418D01*
X0088073Y0084183D01*
X008807Y0084194D01*
X0088062Y0084213D01*
X0088053Y0084235D01*
X0088045Y0084263D01*
X0088039Y0084294D01*
X0088034Y0084327D01*
X0088031Y0084363D01*
Y008438D01*
X0088034Y0084391D01*
X0088037Y0084421D01*
X0088045Y0084458D01*
X0088059Y0084499D01*
X0088076Y0084544D01*
X0088103Y0084588D01*
X0088139Y008463D01*
X0088145Y0084635D01*
X0088159Y0084646D01*
X0088184Y0084663D01*
X0088217Y008468D01*
X0088259Y0084699D01*
X0088309Y0084716D01*
X0088367Y0084727D01*
X0088431Y0084732D01*
X0088436D01*
X008845D01*
X0088473Y008473D01*
D02*
G37*
G36*
X0088325Y0083461D02*
X0088328Y0083453D01*
X0088331Y0083441D01*
X0088342Y0083416D01*
X008835Y0083408D01*
X0088361Y00834D01*
X0088364D01*
X008837Y0083397D01*
X0088381Y0083394D01*
X0088395Y0083389D01*
X0088417Y0083386D01*
X0088445Y0083383D01*
X0088481Y008338D01*
X0088525D01*
X0089422D01*
Y0082389D01*
X0088062D01*
Y0082686D01*
X0089139D01*
Y0083083D01*
X0088517D01*
X0088514D01*
X0088511D01*
X0088503D01*
X0088492D01*
X0088464D01*
X0088431Y0083086D01*
X0088392Y0083089D01*
X008835Y0083092D01*
X0088309Y0083097D01*
X008827Y0083105D01*
X0088267D01*
X0088253Y0083108D01*
X0088237Y0083114D01*
X0088214Y0083122D01*
X0088164Y0083142D01*
X0088139Y0083158D01*
X0088117Y0083175D01*
X0088114Y0083178D01*
X0088109Y0083183D01*
X0088098Y0083194D01*
X0088089Y0083205D01*
X0088064Y0083236D01*
X0088056Y0083255D01*
X0088051Y0083272D01*
Y0083275D01*
X0088048Y008328D01*
Y0083291D01*
X0088045Y0083305D01*
X0088042Y0083325D01*
Y0083347D01*
X0088039Y0083375D01*
Y0083428D01*
X0088042Y0083447D01*
X0088045Y0083472D01*
X0088048Y0083502D01*
X0088053Y0083541D01*
X0088062Y0083589D01*
X0088325D01*
Y0083461D01*
D02*
G37*
G36*
X0089422Y0081817D02*
X0088567D01*
X0089422Y0081368D01*
Y0081073D01*
X0088062D01*
Y0081356D01*
X0088933D01*
X0088062Y0081817D01*
Y0082101D01*
X0089422D01*
Y0081817D01*
D02*
G37*
G36*
Y0079891D02*
X0089139D01*
Y0080249D01*
X0088062D01*
Y0080546D01*
X0089139D01*
Y0080904D01*
X0089422D01*
Y0079891D01*
D02*
G37*
G36*
X0091791Y0085715D02*
X0091822D01*
X0091864Y0085713D01*
X0091911Y0085707D01*
X0091961Y0085699D01*
X0092016Y008569D01*
X0092077Y0085679D01*
X0092139Y0085665D01*
X00922Y0085649D01*
X0092263Y0085626D01*
X0092325Y0085601D01*
X0092383Y0085574D01*
X0092441Y008554D01*
X0092494Y0085502D01*
X0092497Y0085499D01*
X0092505Y0085493D01*
X0092516Y0085482D01*
X009253Y0085468D01*
X0092549Y0085449D01*
X0092569Y0085427D01*
X0092591Y0085399D01*
X0092613Y0085368D01*
X0092633Y0085335D01*
X0092655Y0085296D01*
X0092674Y0085254D01*
X0092694Y008521D01*
X0092708Y008516D01*
X0092719Y008511D01*
X0092727Y0085055D01*
X009273Y0084996D01*
Y0084971D01*
X0092727Y0084952D01*
X0092724Y008493D01*
X0092722Y0084905D01*
X0092716Y0084877D01*
X0092708Y0084846D01*
X0092685Y0084777D01*
X0092672Y0084741D01*
X0092655Y0084705D01*
X0092633Y0084669D01*
X0092608Y0084633D01*
X009258Y0084596D01*
X0092549Y0084563D01*
Y008456D01*
X0092544Y0084558D01*
X0092536Y0084552D01*
X0092527Y0084544D01*
X0092513Y0084533D01*
X0092497Y0084522D01*
X0092477Y0084508D01*
X0092455Y0084494D01*
X009243Y008448D01*
X0092405Y0084463D01*
X0092375Y0084449D01*
X0092341Y0084433D01*
X0092302Y0084419D01*
X0092263Y0084405D01*
X0092222Y0084391D01*
X0092177Y008438D01*
X0092089Y0084688D01*
X0092091D01*
X0092094Y0084691D01*
X0092102D01*
X0092114Y0084694D01*
X0092141Y0084702D01*
X0092175Y0084713D01*
X0092213Y008473D01*
X0092252Y0084752D01*
X0092288Y0084777D01*
X0092322Y0084807D01*
X0092325Y008481D01*
X0092336Y0084821D01*
X009235Y0084841D01*
X0092363Y0084866D01*
X009238Y0084896D01*
X0092391Y008493D01*
X0092402Y0084968D01*
X0092405Y0085013D01*
Y008503D01*
X0092402Y0085041D01*
X0092397Y0085071D01*
X0092386Y008511D01*
X0092369Y0085154D01*
X0092341Y0085202D01*
X0092325Y0085224D01*
X0092305Y0085246D01*
X0092283Y0085268D01*
X0092255Y0085291D01*
X0092252D01*
X009225Y0085296D01*
X0092238Y0085299D01*
X0092227Y0085307D01*
X0092211Y0085316D01*
X0092191Y0085324D01*
X0092166Y0085332D01*
X0092139Y0085343D01*
X0092108Y0085354D01*
X0092072Y0085363D01*
X009203Y0085371D01*
X0091986Y0085379D01*
X0091939Y0085385D01*
X0091886Y008539D01*
X0091828Y0085396D01*
X0091767D01*
X0091764D01*
X009175D01*
X0091733D01*
X0091708Y0085393D01*
X009168D01*
X0091647Y008539D01*
X0091611Y0085388D01*
X0091572Y0085382D01*
X0091489Y0085371D01*
X0091406Y0085352D01*
X0091367Y008534D01*
X0091328Y0085327D01*
X0091295Y008531D01*
X0091264Y0085293D01*
X0091261D01*
X0091258Y0085288D01*
X0091242Y0085274D01*
X0091217Y0085252D01*
X0091192Y0085218D01*
X0091164Y0085179D01*
X0091139Y0085135D01*
X0091122Y008508D01*
X009112Y0085052D01*
X0091117Y0085021D01*
Y0085016D01*
X009112Y0085002D01*
X0091122Y0084977D01*
X0091128Y0084949D01*
X0091139Y0084916D01*
X0091156Y008488D01*
X0091181Y0084844D01*
X0091211Y008481D01*
X0091217Y0084807D01*
X0091231Y0084796D01*
X0091253Y008478D01*
X0091286Y008476D01*
X0091328Y0084738D01*
X0091381Y0084719D01*
X0091442Y0084696D01*
X0091517Y008468D01*
X00914Y0084377D01*
X0091397D01*
X0091386Y008438D01*
X009137Y0084385D01*
X0091347Y0084391D01*
X0091322Y0084399D01*
X0091292Y0084408D01*
X0091258Y0084419D01*
X0091222Y0084433D01*
X0091147Y0084466D01*
X009107Y0084508D01*
X0090997Y0084555D01*
X0090967Y0084583D01*
X0090936Y0084613D01*
X0090934Y0084616D01*
X0090931Y0084621D01*
X0090923Y008463D01*
X0090914Y0084644D01*
X0090903Y0084658D01*
X0090892Y0084677D01*
X0090878Y0084699D01*
X0090864Y0084724D01*
X009085Y0084752D01*
X0090836Y0084782D01*
X0090814Y0084852D01*
X0090798Y008493D01*
X0090795Y0084971D01*
X0090792Y0085016D01*
Y008503D01*
X0090795Y0085043D01*
Y0085066D01*
X00908Y0085091D01*
X0090803Y0085121D01*
X0090812Y0085154D01*
X009082Y0085191D01*
X0090834Y0085229D01*
X0090848Y0085268D01*
X0090867Y0085307D01*
X0090889Y0085349D01*
X0090917Y008539D01*
X0090948Y0085429D01*
X0090981Y0085468D01*
X0091022Y0085504D01*
X0091025Y0085507D01*
X0091034Y0085513D01*
X009105Y0085524D01*
X0091072Y0085538D01*
X0091097Y0085554D01*
X0091131Y0085571D01*
X009117Y008559D01*
X0091214Y008561D01*
X0091261Y0085632D01*
X0091317Y0085651D01*
X0091375Y0085668D01*
X0091439Y0085685D01*
X0091508Y0085699D01*
X0091583Y008571D01*
X0091661Y0085715D01*
X0091744Y0085718D01*
X0091747D01*
X009175D01*
X0091767D01*
X0091791Y0085715D01*
D02*
G37*
G36*
X0092183Y0083941D02*
X0091214Y0083675D01*
X0092183Y0083414D01*
Y0083108D01*
X0090873Y0083503D01*
X009062Y0083578D01*
X0090617D01*
X0090614Y008358D01*
X0090598Y0083586D01*
X009057Y0083597D01*
X0090539Y0083608D01*
X0090506Y0083625D01*
X009047Y0083641D01*
X0090437Y0083658D01*
X0090409Y0083678D01*
X0090406Y008368D01*
X0090398Y0083686D01*
X0090387Y0083697D01*
X009037Y0083711D01*
X0090353Y008373D01*
X0090337Y0083752D01*
X009032Y0083777D01*
X0090306Y0083805D01*
X0090303Y0083808D01*
X0090301Y0083819D01*
X0090295Y0083836D01*
X009029Y0083855D01*
X0090281Y0083883D01*
X0090276Y0083916D01*
X0090273Y0083952D01*
X009027Y0083991D01*
Y0084022D01*
X0090273Y0084044D01*
X0090276Y0084069D01*
X0090278Y0084097D01*
X0090292Y0084158D01*
X0090573Y0084183D01*
Y008418D01*
X009057Y0084172D01*
X0090567Y0084158D01*
X0090564Y0084141D01*
X0090559Y0084102D01*
X0090556Y0084061D01*
Y0084047D01*
X0090559Y008403D01*
X0090564Y0084011D01*
X009057Y0083988D01*
X0090581Y0083966D01*
X0090595Y0083944D01*
X0090614Y0083922D01*
X0090617Y0083919D01*
X0090625Y0083914D01*
X0090639Y0083902D01*
X0090662Y0083889D01*
X0090689Y0083875D01*
X0090725Y0083861D01*
X0090767Y0083844D01*
X009082Y008383D01*
X0092183Y0084255D01*
Y0083941D01*
D02*
G37*
G36*
X0091514Y0082659D02*
X0092183Y0083045D01*
Y0082684D01*
X0091825Y0082478D01*
X0092183Y0082273D01*
Y0081929D01*
X0091531Y0082306D01*
X0090823Y0081895D01*
Y0082259D01*
X0091217Y0082487D01*
X0090823Y0082717D01*
Y0083058D01*
X0091514Y0082659D01*
D02*
G37*
G36*
X0091184Y0081429D02*
X0090823D01*
Y0081723D01*
X0091184D01*
Y0081429D01*
D02*
G37*
G36*
X009273Y0080304D02*
Y0080082D01*
X0090792Y0080468D01*
Y0080685D01*
X009273Y0080304D01*
D02*
G37*
G36*
X0098179Y0086099D02*
X00982D01*
X0098229Y0086095D01*
X0098287Y0086083D01*
X0098358Y0086058D01*
X0098433Y0086024D01*
X0098508Y0085983D01*
X0098546Y0085953D01*
X0098579Y008592D01*
X0098583D01*
X0098587Y0085912D01*
X0098595Y0085899D01*
X0098608Y0085887D01*
X0098637Y0085845D01*
X0098675Y0085787D01*
X0098712Y0085712D01*
X009875Y008562D01*
X0098779Y0085516D01*
X00988Y0085395D01*
X0098516Y0085366D01*
Y008537D01*
Y0085374D01*
X0098508Y0085404D01*
X00985Y0085441D01*
X0098487Y0085487D01*
X0098471Y0085537D01*
X009845Y0085591D01*
X0098425Y0085637D01*
X0098396Y0085679D01*
X0098391Y0085683D01*
X0098375Y0085699D01*
X009835Y008572D01*
X0098316Y0085749D01*
X0098275Y0085774D01*
X0098229Y0085795D01*
X0098175Y0085812D01*
X0098116Y0085816D01*
X0098091D01*
X0098075Y0085812D01*
X0098029Y0085799D01*
X0097975Y0085779D01*
X0097941Y0085762D01*
X0097908Y0085741D01*
X0097875Y0085716D01*
X0097842Y0085683D01*
X0097808Y0085649D01*
X0097775Y0085608D01*
X0097746Y0085558D01*
X0097717Y0085504D01*
Y0085499D01*
X0097712Y0085491D01*
X0097704Y0085474D01*
X0097696Y0085454D01*
X0097687Y0085424D01*
X0097675Y0085391D01*
X0097662Y0085349D01*
X009765Y0085304D01*
X0097637Y0085254D01*
X0097625Y0085195D01*
X0097612Y0085129D01*
X0097604Y0085058D01*
X0097596Y0084979D01*
X0097587Y0084895D01*
X0097583Y0084808D01*
Y0084716D01*
X0097587Y008472D01*
X00976Y0084741D01*
X0097621Y0084775D01*
X009765Y0084816D01*
X0097687Y0084862D01*
X0097729Y0084908D01*
X0097775Y0084954D01*
X0097829Y0084991D01*
X0097837Y0084995D01*
X0097854Y0085008D01*
X0097887Y0085025D01*
X0097925Y0085041D01*
X0097975Y0085058D01*
X0098029Y0085075D01*
X0098087Y0085087D01*
X009815Y0085091D01*
X0098175D01*
X0098196Y0085087D01*
X0098221Y0085083D01*
X009825Y0085079D01*
X0098312Y0085058D01*
X0098387Y0085029D01*
X0098429Y0085008D01*
X0098471Y0084983D01*
X0098512Y0084954D01*
X0098554Y008492D01*
X0098591Y0084883D01*
X0098633Y0084837D01*
X0098637Y0084833D01*
X0098641Y0084825D01*
X0098654Y0084812D01*
X0098666Y0084791D01*
X0098683Y0084766D01*
X00987Y0084737D01*
X0098716Y00847D01*
X0098737Y0084658D01*
X0098758Y0084612D01*
X0098775Y0084562D01*
X0098791Y0084508D01*
X0098808Y008445D01*
X009882Y0084383D01*
X0098833Y0084316D01*
X0098837Y0084241D01*
X0098841Y0084166D01*
Y0084162D01*
Y0084154D01*
Y0084137D01*
Y0084121D01*
X0098837Y0084096D01*
Y0084066D01*
X0098829Y0083996D01*
X0098816Y0083916D01*
X0098795Y0083829D01*
X009877Y0083737D01*
X0098737Y008365D01*
Y0083646D01*
X0098733Y0083642D01*
X0098725Y0083629D01*
X009872Y0083612D01*
X0098695Y0083571D01*
X0098666Y0083521D01*
X0098625Y0083467D01*
X0098579Y0083408D01*
X0098525Y0083354D01*
X0098466Y0083308D01*
X0098458Y0083304D01*
X0098437Y0083292D01*
X0098404Y0083275D01*
X0098362Y0083254D01*
X0098308Y0083233D01*
X0098246Y0083217D01*
X0098179Y0083204D01*
X0098108Y00832D01*
X0098091D01*
X0098075Y0083204D01*
X009805D01*
X0098021Y0083208D01*
X0097983Y0083217D01*
X0097904Y0083242D01*
X0097858Y0083258D01*
X0097808Y0083279D01*
X0097762Y0083304D01*
X0097712Y0083333D01*
X0097662Y0083371D01*
X0097617Y0083412D01*
X0097571Y0083462D01*
X0097525Y0083517D01*
X0097521Y0083521D01*
X0097517Y0083533D01*
X0097504Y008355D01*
X0097492Y0083579D01*
X0097475Y0083612D01*
X0097454Y0083658D01*
X0097433Y0083708D01*
X0097412Y0083767D01*
X0097392Y0083837D01*
X0097371Y0083916D01*
X0097354Y0084004D01*
X0097333Y00841D01*
X0097321Y0084204D01*
X0097308Y0084321D01*
X0097304Y0084446D01*
X00973Y0084579D01*
Y0084583D01*
Y0084587D01*
Y00846D01*
Y0084616D01*
Y0084658D01*
X0097304Y0084712D01*
X0097308Y0084779D01*
X0097312Y0084858D01*
X0097321Y0084941D01*
X0097329Y0085033D01*
X0097358Y0085224D01*
X00974Y008542D01*
X0097425Y0085512D01*
X0097458Y0085599D01*
X0097492Y0085679D01*
X0097533Y0085749D01*
X0097537Y0085754D01*
X0097546Y0085766D01*
X0097558Y0085783D01*
X0097575Y0085803D01*
X00976Y0085833D01*
X0097625Y0085862D01*
X0097658Y0085895D01*
X0097696Y0085928D01*
X0097737Y0085958D01*
X0097783Y0085991D01*
X0097883Y0086049D01*
X0097941Y008607D01*
X0098004Y0086087D01*
X0098066Y0086099D01*
X0098133Y0086103D01*
X0098158D01*
X0098179Y0086099D01*
D02*
G37*
G36*
X0098733Y008191D02*
X0097804D01*
X0097679Y0081144D01*
X0097683Y0081148D01*
X0097687Y0081152D01*
X00977Y008116D01*
X0097717Y0081173D01*
X0097758Y0081202D01*
X0097812Y0081235D01*
X0097879Y0081265D01*
X009795Y0081294D01*
X0098033Y0081315D01*
X0098075Y0081323D01*
X0098146D01*
X0098166Y0081319D01*
X0098191Y0081315D01*
X0098221Y008131D01*
X0098291Y0081294D01*
X0098371Y008126D01*
X0098412Y0081244D01*
X0098458Y0081219D01*
X00985Y008119D01*
X0098546Y0081156D01*
X0098587Y0081119D01*
X0098629Y0081073D01*
X0098633Y0081069D01*
X0098637Y008106D01*
X009865Y0081048D01*
X0098662Y0081027D01*
X0098679Y0081002D01*
X0098695Y0080973D01*
X0098716Y0080935D01*
X0098737Y0080894D01*
X0098758Y0080848D01*
X0098779Y0080798D01*
X0098795Y0080744D01*
X0098812Y0080681D01*
X0098825Y0080619D01*
X0098837Y0080548D01*
X0098841Y0080477D01*
X0098845Y0080398D01*
Y0080394D01*
Y0080381D01*
Y0080356D01*
X0098841Y0080327D01*
X0098837Y0080294D01*
X0098833Y0080252D01*
X0098829Y0080202D01*
X009882Y0080152D01*
X0098791Y008004D01*
X0098754Y0079923D01*
X0098729Y0079861D01*
X00987Y0079802D01*
X0098666Y0079744D01*
X0098629Y0079686D01*
X0098625Y0079682D01*
X009862Y0079673D01*
X0098608Y0079657D01*
X0098591Y007964D01*
X0098566Y0079619D01*
X0098541Y0079594D01*
X0098512Y0079565D01*
X0098475Y007954D01*
X0098437Y0079511D01*
X0098391Y0079482D01*
X0098291Y0079436D01*
X0098237Y0079419D01*
X0098175Y0079402D01*
X0098112Y0079394D01*
X0098046Y007939D01*
X0098016D01*
X0097996Y0079394D01*
X0097971Y0079398D01*
X0097941Y0079402D01*
X0097871Y0079415D01*
X0097787Y007944D01*
X0097704Y0079477D01*
X0097658Y0079502D01*
X0097617Y0079532D01*
X0097575Y0079561D01*
X0097533Y0079598D01*
X0097529Y0079602D01*
X0097525Y0079607D01*
X0097512Y0079619D01*
X00975Y0079636D01*
X0097483Y0079661D01*
X0097467Y0079686D01*
X0097446Y0079715D01*
X0097425Y0079752D01*
X0097404Y007979D01*
X0097383Y0079836D01*
X0097367Y0079882D01*
X0097346Y0079936D01*
X0097317Y0080052D01*
X0097308Y0080119D01*
X00973Y0080186D01*
X00976Y0080215D01*
Y0080211D01*
Y0080202D01*
X0097604Y008019D01*
X0097608Y0080169D01*
X0097617Y0080119D01*
X0097633Y0080061D01*
X0097654Y0079994D01*
X0097679Y0079927D01*
X0097712Y0079861D01*
X0097754Y0079807D01*
X0097758Y0079802D01*
X0097775Y0079786D01*
X0097804Y0079765D01*
X0097837Y0079744D01*
X0097879Y0079719D01*
X0097929Y0079698D01*
X0097983Y0079682D01*
X0098041Y0079677D01*
X009805D01*
X0098075Y0079682D01*
X0098112Y0079686D01*
X0098162Y0079702D01*
X0098216Y0079723D01*
X0098275Y0079757D01*
X0098333Y0079802D01*
X0098362Y0079827D01*
X0098391Y0079861D01*
Y0079865D01*
X00984Y0079869D01*
X0098404Y0079882D01*
X0098416Y0079894D01*
X0098437Y0079936D01*
X0098466Y0079994D01*
X0098496Y0080069D01*
X0098516Y0080156D01*
X0098533Y0080256D01*
X0098541Y0080373D01*
Y0080377D01*
Y0080386D01*
Y0080402D01*
X0098537Y0080423D01*
Y0080448D01*
X0098533Y0080477D01*
X0098525Y0080548D01*
X0098504Y0080623D01*
X0098479Y0080702D01*
X0098446Y0080777D01*
X0098396Y0080844D01*
X0098387Y0080852D01*
X0098371Y0080869D01*
X0098341Y0080898D01*
X00983Y0080931D01*
X0098246Y008096D01*
X0098187Y008099D01*
X0098116Y0081006D01*
X0098041Y0081015D01*
X0098021D01*
X0097996Y008101D01*
X0097962Y0081006D01*
X0097925Y0080998D01*
X0097883Y0080981D01*
X0097842Y0080965D01*
X0097796Y008094D01*
X0097792Y0080935D01*
X0097779Y0080927D01*
X0097758Y008091D01*
X0097733Y008089D01*
X0097704Y008086D01*
X0097675Y0080823D01*
X0097646Y0080781D01*
X0097621Y0080735D01*
X009735Y0080781D01*
X0097579Y0082243D01*
X0098733D01*
Y008191D01*
D02*
G37*
G36*
X0098576Y0076524D02*
X0098892D01*
Y0076203D01*
X0098576D01*
Y007552D01*
X0098292D01*
Y0076203D01*
X009728D01*
Y0076524D01*
X0098338Y0078365D01*
X0098576D01*
Y0076524D01*
D02*
G37*
G36*
X0098119Y0074759D02*
X0098144Y0074755D01*
X0098173Y0074751D01*
X009824Y0074738D01*
X0098315Y0074713D01*
X0098398Y0074676D01*
X009844Y0074651D01*
X0098477Y0074622D01*
X0098519Y0074588D01*
X0098556Y0074551D01*
X0098561Y0074547D01*
X0098565Y0074543D01*
X0098573Y007453D01*
X009859Y0074513D01*
X0098602Y0074493D01*
X0098619Y0074468D01*
X0098656Y0074409D01*
X0098694Y007433D01*
X0098727Y0074243D01*
X0098748Y0074139D01*
X0098752Y0074084D01*
X0098756Y0074026D01*
Y0074022D01*
Y0074018D01*
Y0073993D01*
X0098752Y0073955D01*
X0098744Y0073909D01*
X0098735Y0073855D01*
X0098719Y0073797D01*
X0098698Y0073739D01*
X0098669Y007368D01*
X0098665Y0073672D01*
X0098652Y0073655D01*
X0098635Y007363D01*
X0098606Y0073597D01*
X0098573Y007356D01*
X0098536Y0073522D01*
X0098486Y007348D01*
X0098431Y0073447D01*
X009844D01*
X0098456Y0073439D01*
X0098481Y007343D01*
X0098515Y0073418D01*
X0098552Y0073401D01*
X009859Y0073376D01*
X0098627Y0073351D01*
X0098665Y0073318D01*
X0098669Y0073314D01*
X0098681Y0073301D01*
X0098698Y007328D01*
X0098719Y0073255D01*
X009874Y0073222D01*
X0098765Y007318D01*
X009879Y0073135D01*
X009881Y0073081D01*
X0098815Y0073072D01*
X0098819Y0073056D01*
X0098827Y0073022D01*
X009884Y0072985D01*
X0098852Y0072935D01*
X009886Y0072876D01*
X0098865Y0072814D01*
X0098869Y0072747D01*
Y0072743D01*
Y0072731D01*
Y007271D01*
X0098865Y0072681D01*
X009886Y0072647D01*
X0098856Y007261D01*
X0098848Y0072568D01*
X009884Y0072522D01*
X009881Y0072418D01*
X0098769Y007231D01*
X0098744Y007226D01*
X0098715Y0072206D01*
X0098677Y0072156D01*
X0098635Y0072106D01*
X0098631Y0072102D01*
X0098627Y0072093D01*
X0098611Y0072085D01*
X0098594Y0072068D01*
X0098573Y0072047D01*
X0098548Y0072027D01*
X0098515Y0072006D01*
X0098481Y0071985D01*
X0098398Y0071939D01*
X0098306Y0071897D01*
X0098252Y0071881D01*
X0098198Y0071872D01*
X009814Y0071864D01*
X0098081Y007186D01*
X0098052D01*
X0098031Y0071864D01*
X0098007Y0071868D01*
X0097977Y0071872D01*
X0097907Y0071889D01*
X0097827Y0071914D01*
X009774Y0071952D01*
X0097698Y0071977D01*
X0097657Y0072006D01*
X0097615Y0072039D01*
X0097573Y0072077D01*
X0097569Y0072081D01*
X0097565Y0072085D01*
X0097552Y0072097D01*
X009754Y0072118D01*
X0097523Y0072139D01*
X0097507Y0072164D01*
X009749Y0072197D01*
X0097469Y0072231D01*
X0097448Y0072272D01*
X0097427Y0072314D01*
X009739Y0072414D01*
X0097357Y0072531D01*
X009734Y007266D01*
X0097623Y0072706D01*
Y0072701D01*
X0097627Y0072681D01*
X0097636Y0072656D01*
X0097644Y0072618D01*
X0097657Y0072576D01*
X0097669Y0072531D01*
X009769Y0072481D01*
X0097715Y0072427D01*
X009774Y0072377D01*
X0097773Y0072322D01*
X0097811Y0072277D01*
X0097852Y0072235D01*
X0097898Y0072197D01*
X0097952Y0072172D01*
X0098011Y0072156D01*
X0098077Y0072147D01*
X0098086D01*
X0098111Y0072152D01*
X0098148Y0072156D01*
X0098194Y0072168D01*
X0098248Y0072189D01*
X0098302Y0072214D01*
X0098361Y0072256D01*
X0098419Y007231D01*
X0098427Y0072318D01*
X0098444Y0072339D01*
X0098465Y0072377D01*
X0098494Y0072427D01*
X0098519Y0072489D01*
X0098544Y007256D01*
X0098561Y0072647D01*
X0098565Y0072739D01*
Y0072743D01*
Y0072751D01*
Y0072764D01*
Y0072781D01*
X0098556Y0072826D01*
X0098548Y0072885D01*
X0098531Y0072947D01*
X0098511Y0073014D01*
X0098477Y0073081D01*
X0098431Y0073139D01*
X0098427Y0073147D01*
X0098406Y0073164D01*
X0098377Y0073189D01*
X009834Y0073218D01*
X0098294Y0073243D01*
X009824Y0073268D01*
X0098177Y0073285D01*
X0098106Y0073293D01*
X0098073D01*
X0098052Y0073289D01*
X0098023Y0073285D01*
X0097986Y0073276D01*
X0097948Y0073264D01*
X0097907Y0073251D01*
X009794Y007356D01*
X0097981Y0073555D01*
X009799D01*
X0098019Y007356D01*
X0098056Y0073564D01*
X0098106Y0073572D01*
X0098161Y0073589D01*
X0098219Y007361D01*
X0098273Y0073643D01*
X0098327Y0073685D01*
X0098331Y0073689D01*
X0098348Y007371D01*
X0098369Y0073739D01*
X0098394Y0073776D01*
X0098419Y0073826D01*
X009844Y0073884D01*
X0098456Y0073955D01*
X0098461Y007403D01*
Y0074034D01*
Y0074039D01*
Y0074064D01*
X0098456Y0074101D01*
X0098448Y0074147D01*
X0098431Y0074197D01*
X0098415Y0074251D01*
X0098386Y0074301D01*
X0098348Y0074351D01*
X0098344Y0074355D01*
X0098327Y0074372D01*
X0098302Y0074393D01*
X0098273Y0074414D01*
X0098231Y0074439D01*
X0098186Y0074455D01*
X0098136Y0074472D01*
X0098077Y0074476D01*
X0098048D01*
X0098019Y0074468D01*
X0097981Y0074459D01*
X0097936Y0074443D01*
X0097886Y0074422D01*
X009784Y0074389D01*
X0097794Y0074347D01*
X009779Y0074343D01*
X0097777Y0074322D01*
X0097757Y0074293D01*
X0097736Y0074251D01*
X0097711Y0074197D01*
X0097686Y007413D01*
X0097669Y0074051D01*
X0097652Y0073964D01*
X0097369Y0074026D01*
Y007403D01*
X0097373Y0074043D01*
X0097377Y0074059D01*
X0097382Y0074084D01*
X0097386Y0074118D01*
X0097398Y0074151D01*
X0097419Y007423D01*
X0097452Y0074318D01*
X0097494Y0074409D01*
X0097548Y0074497D01*
X0097611Y0074576D01*
X0097615Y007458D01*
X0097619Y0074584D01*
X0097644Y0074605D01*
X0097686Y0074634D01*
X009774Y0074672D01*
X0097807Y0074705D01*
X0097886Y0074734D01*
X0097977Y0074755D01*
X0098023Y0074763D01*
X0098102D01*
X0098119Y0074759D01*
D02*
G37*
G36*
X0098171Y0070813D02*
X00982Y0070809D01*
X0098237Y0070805D01*
X0098316Y0070788D01*
X0098404Y0070759D01*
X0098446Y0070738D01*
X0098491Y0070718D01*
X0098537Y0070688D01*
X0098579Y0070655D01*
X0098616Y0070618D01*
X0098654Y0070576D01*
X0098658Y0070572D01*
X0098662Y0070563D01*
X009867Y0070551D01*
X0098683Y0070534D01*
X0098695Y0070509D01*
X0098712Y0070484D01*
X009875Y0070418D01*
X0098783Y0070334D01*
X0098812Y0070243D01*
X0098833Y0070139D01*
X0098841Y0070084D01*
Y0070026D01*
Y0070022D01*
Y0070014D01*
Y0070001D01*
X0098837Y006998D01*
Y0069955D01*
X0098833Y0069926D01*
X0098825Y006986D01*
X0098804Y006978D01*
X0098779Y0069693D01*
X0098745Y0069601D01*
X0098695Y0069505D01*
Y0069501D01*
X0098687Y0069493D01*
X0098679Y006948D01*
X0098666Y006946D01*
X009865Y0069435D01*
X0098629Y0069405D01*
X0098604Y0069372D01*
X0098575Y006933D01*
X0098541Y0069285D01*
X00985Y0069235D01*
X0098454Y0069181D01*
X0098404Y0069122D01*
X009835Y006906D01*
X0098291Y0068993D01*
X0098221Y0068918D01*
X009815Y0068843D01*
X0098146Y0068839D01*
X0098137Y0068831D01*
X0098125Y0068818D01*
X0098108Y0068801D01*
X0098066Y0068756D01*
X0098012Y0068701D01*
X0097958Y0068639D01*
X0097904Y0068581D01*
X0097858Y0068527D01*
X0097837Y0068506D01*
X0097821Y0068485D01*
X0097817Y0068481D01*
X0097808Y0068468D01*
X0097796Y0068452D01*
X0097779Y0068427D01*
X0097758Y0068397D01*
X0097737Y0068364D01*
X00977Y0068297D01*
X0098845D01*
Y006796D01*
X00973D01*
Y0067964D01*
Y0067968D01*
Y0067981D01*
Y0067997D01*
X0097304Y0068039D01*
X0097312Y0068093D01*
X0097325Y006816D01*
X0097346Y0068239D01*
X0097379Y0068322D01*
X0097421Y0068414D01*
Y0068418D01*
X0097429Y0068427D01*
X0097433Y0068439D01*
X0097446Y006846D01*
X0097462Y0068485D01*
X0097479Y0068514D01*
X0097504Y0068547D01*
X0097529Y0068585D01*
X0097558Y0068626D01*
X0097592Y0068672D01*
X0097633Y0068722D01*
X0097675Y0068772D01*
X0097725Y0068826D01*
X0097775Y0068885D01*
X0097833Y0068947D01*
X0097896Y006901D01*
X00979Y0069014D01*
X0097912Y0069026D01*
X0097933Y0069047D01*
X0097962Y0069076D01*
X0097991Y006911D01*
X0098029Y0069147D01*
X0098071Y0069193D01*
X0098112Y0069239D01*
X0098204Y0069339D01*
X0098291Y0069443D01*
X0098329Y0069493D01*
X0098366Y0069543D01*
X00984Y0069589D01*
X0098425Y006963D01*
Y0069635D01*
X0098429Y0069639D01*
X0098437Y0069651D01*
X0098446Y0069668D01*
X0098466Y006971D01*
X0098491Y0069764D01*
X0098512Y0069826D01*
X0098533Y0069893D01*
X009855Y0069968D01*
X0098554Y0070039D01*
Y0070043D01*
Y0070047D01*
Y0070059D01*
Y0070076D01*
X0098546Y0070114D01*
X0098537Y0070164D01*
X0098521Y0070222D01*
X00985Y007028D01*
X0098466Y0070339D01*
X0098425Y0070393D01*
X0098421Y0070397D01*
X00984Y0070414D01*
X0098375Y0070434D01*
X0098337Y0070464D01*
X0098291Y0070489D01*
X0098237Y0070509D01*
X0098175Y0070526D01*
X0098108Y007053D01*
X00981D01*
X0098075Y0070526D01*
X0098037Y0070522D01*
X0097991Y0070514D01*
X0097941Y0070493D01*
X0097883Y0070468D01*
X0097829Y007043D01*
X0097779Y007038D01*
X0097775Y0070372D01*
X0097758Y0070351D01*
X0097737Y0070318D01*
X0097717Y0070272D01*
X0097692Y0070209D01*
X0097671Y0070139D01*
X0097654Y0070051D01*
X009765Y0069955D01*
X0097354Y0069993D01*
Y0069997D01*
Y0070009D01*
X0097358Y007003D01*
X0097362Y0070059D01*
X0097367Y0070093D01*
X0097375Y0070134D01*
X0097383Y0070176D01*
X0097396Y0070222D01*
X0097425Y0070322D01*
X0097462Y0070426D01*
X0097517Y0070522D01*
X009755Y0070568D01*
X0097583Y0070609D01*
X0097587Y0070613D01*
X0097592Y0070618D01*
X0097604Y007063D01*
X0097621Y0070643D01*
X0097642Y0070659D01*
X0097667Y0070676D01*
X0097725Y0070713D01*
X0097804Y0070751D01*
X0097892Y0070784D01*
X0097996Y0070809D01*
X0098054Y0070813D01*
X0098112Y0070818D01*
X0098146D01*
X0098171Y0070813D01*
D02*
G37*
G36*
X0098574Y006398D02*
X0098291D01*
Y0066209D01*
X0098287Y0066204D01*
X0098274Y0066188D01*
X0098249Y0066167D01*
X009822Y0066134D01*
X0098182Y00661D01*
X0098137Y0066059D01*
X0098082Y0066013D01*
X0098024Y0065967D01*
X0098016Y0065963D01*
X0097995Y0065946D01*
X0097966Y0065925D01*
X0097924Y00659D01*
X0097878Y0065871D01*
X0097824Y0065842D01*
X0097774Y0065813D01*
X009772Y0065788D01*
Y0066125D01*
X0097724D01*
X0097732Y0066129D01*
X0097741Y0066138D01*
X0097757Y006615D01*
X0097803Y0066179D01*
X0097857Y0066217D01*
X0097924Y0066263D01*
X0097991Y0066321D01*
X0098062Y0066384D01*
X0098132Y0066454D01*
X0098137Y0066459D01*
X0098141Y0066463D01*
X0098162Y0066488D01*
X0098195Y0066525D01*
X0098232Y0066575D01*
X0098274Y0066633D01*
X0098316Y00667D01*
X0098357Y0066767D01*
X0098386Y0066838D01*
X0098574D01*
Y006398D01*
D02*
G37*
G36*
X0108261Y009027D02*
X0108276Y0090268D01*
X0108293Y0090267D01*
X0108311Y0090263D01*
X0108331Y0090257D01*
X0108378Y0090242D01*
X0108402Y0090233D01*
X0108426Y0090222D01*
X010845Y0090207D01*
X0108474Y0090191D01*
X0108498Y0090172D01*
X010852Y0090152D01*
X0108522D01*
X0108524Y0090148D01*
X0108528Y0090142D01*
X0108533Y0090137D01*
X0108541Y0090128D01*
X0108548Y0090117D01*
X0108557Y0090104D01*
X0108567Y0090089D01*
X0108576Y0090072D01*
X0108587Y0090055D01*
X0108596Y0090035D01*
X0108607Y0090013D01*
X0108617Y0089987D01*
X0108626Y0089961D01*
X0108635Y0089933D01*
X0108643Y0089904D01*
X0108437Y0089844D01*
Y0089846D01*
X0108435Y0089848D01*
Y0089854D01*
X0108433Y0089861D01*
X0108428Y008988D01*
X010842Y0089902D01*
X0108409Y0089928D01*
X0108394Y0089954D01*
X0108378Y0089978D01*
X0108357Y009D01*
X0108355Y0090002D01*
X0108348Y0090009D01*
X0108335Y0090018D01*
X0108318Y0090028D01*
X0108298Y0090039D01*
X0108276Y0090046D01*
X010825Y0090054D01*
X010822Y0090055D01*
X0108209D01*
X0108202Y0090054D01*
X0108181Y009005D01*
X0108156Y0090042D01*
X0108126Y0090031D01*
X0108094Y0090013D01*
X010808Y0090002D01*
X0108065Y0089989D01*
X010805Y0089974D01*
X0108035Y0089955D01*
Y0089954D01*
X0108031Y0089952D01*
X010803Y0089944D01*
X0108024Y0089937D01*
X0108018Y0089926D01*
X0108013Y0089913D01*
X0108007Y0089896D01*
X0108Y0089878D01*
X0107993Y0089857D01*
X0107987Y0089833D01*
X0107981Y0089805D01*
X0107976Y0089776D01*
X0107972Y0089744D01*
X0107968Y0089709D01*
X0107965Y008967D01*
Y008963D01*
Y0089628D01*
Y0089618D01*
Y0089607D01*
X0107967Y0089591D01*
Y0089572D01*
X0107968Y008955D01*
X010797Y0089526D01*
X0107974Y00895D01*
X0107981Y0089444D01*
X0107994Y0089389D01*
X0108002Y0089363D01*
X0108011Y0089337D01*
X0108022Y0089315D01*
X0108033Y0089294D01*
Y0089293D01*
X0108037Y0089291D01*
X0108046Y008928D01*
X0108061Y0089263D01*
X0108083Y0089246D01*
X0108109Y0089228D01*
X0108139Y0089211D01*
X0108176Y00892D01*
X0108194Y0089198D01*
X0108215Y0089196D01*
X0108218D01*
X0108228Y0089198D01*
X0108244Y00892D01*
X0108263Y0089204D01*
X0108285Y0089211D01*
X0108309Y0089222D01*
X0108333Y0089239D01*
X0108355Y0089259D01*
X0108357Y0089263D01*
X0108365Y0089272D01*
X0108376Y0089287D01*
X0108389Y0089309D01*
X0108404Y0089337D01*
X0108417Y0089372D01*
X0108431Y0089413D01*
X0108443Y0089463D01*
X0108644Y0089385D01*
Y0089383D01*
X0108643Y0089376D01*
X0108639Y0089365D01*
X0108635Y008935D01*
X010863Y0089333D01*
X0108624Y0089313D01*
X0108617Y0089291D01*
X0108607Y0089267D01*
X0108585Y0089217D01*
X0108557Y0089165D01*
X0108526Y0089117D01*
X0108507Y0089096D01*
X0108487Y0089076D01*
X0108485Y0089074D01*
X0108481Y0089072D01*
X0108476Y0089067D01*
X0108467Y0089061D01*
X0108457Y0089054D01*
X0108444Y0089046D01*
X010843Y0089037D01*
X0108413Y0089028D01*
X0108394Y0089019D01*
X0108374Y0089009D01*
X0108328Y0088994D01*
X0108276Y0088983D01*
X0108248Y0088981D01*
X0108218Y008898D01*
X0108209D01*
X01082Y0088981D01*
X0108185D01*
X0108168Y0088985D01*
X0108148Y0088987D01*
X0108126Y0088993D01*
X0108102Y0088998D01*
X0108076Y0089007D01*
X010805Y0089017D01*
X0108024Y008903D01*
X0107996Y0089044D01*
X0107968Y0089063D01*
X0107943Y0089083D01*
X0107917Y0089106D01*
X0107893Y0089133D01*
X0107891Y0089135D01*
X0107887Y0089141D01*
X010788Y0089152D01*
X010787Y0089167D01*
X0107859Y0089183D01*
X0107848Y0089206D01*
X0107835Y0089231D01*
X0107822Y0089261D01*
X0107807Y0089293D01*
X0107794Y008933D01*
X0107783Y0089368D01*
X0107772Y0089411D01*
X0107763Y0089457D01*
X0107756Y0089507D01*
X0107752Y0089559D01*
X010775Y0089615D01*
Y0089617D01*
Y0089618D01*
Y008963D01*
X0107752Y0089646D01*
Y0089667D01*
X0107754Y0089694D01*
X0107757Y0089726D01*
X0107763Y0089759D01*
X0107769Y0089796D01*
X0107776Y0089837D01*
X0107785Y0089878D01*
X0107796Y0089918D01*
X0107811Y0089961D01*
X0107828Y0090002D01*
X0107846Y0090041D01*
X0107869Y009008D01*
X0107894Y0090115D01*
X0107896Y0090117D01*
X01079Y0090122D01*
X0107907Y009013D01*
X0107917Y0090139D01*
X010793Y0090152D01*
X0107944Y0090165D01*
X0107963Y009018D01*
X0107983Y0090194D01*
X0108006Y0090207D01*
X0108031Y0090222D01*
X0108059Y0090235D01*
X0108089Y0090248D01*
X0108122Y0090257D01*
X0108156Y0090265D01*
X0108193Y009027D01*
X0108231Y0090272D01*
X0108248D01*
X0108261Y009027D01*
D02*
G37*
G36*
X0110757Y0089D02*
X0110548D01*
X0110135Y0089815D01*
Y0089D01*
X0109942D01*
Y0090252D01*
X0110142D01*
X0110565Y0089415D01*
Y0090252D01*
X0110757D01*
Y0089D01*
D02*
G37*
G36*
X0114212Y0089211D02*
X0114727D01*
Y0089D01*
X0114005D01*
Y0090242D01*
X0114212D01*
Y0089211D01*
D02*
G37*
G36*
X0112327Y009025D02*
X0112344D01*
X0112379Y0090248D01*
X0112418Y0090242D01*
X0112457Y0090237D01*
X0112494Y0090228D01*
X0112511Y0090222D01*
X0112525Y0090217D01*
X0112529Y0090215D01*
X0112538Y0090211D01*
X0112551Y0090202D01*
X0112568Y0090189D01*
X0112587Y0090174D01*
X0112605Y0090154D01*
X0112625Y009013D01*
X0112644Y00901D01*
X0112646Y0090096D01*
X0112651Y0090085D01*
X0112659Y0090067D01*
X0112668Y0090044D01*
X0112675Y0090015D01*
X0112683Y008998D01*
X0112688Y0089942D01*
X011269Y00899D01*
Y0089898D01*
Y0089894D01*
Y0089885D01*
X0112688Y0089876D01*
Y0089863D01*
X0112687Y0089848D01*
X0112681Y0089815D01*
X0112674Y0089778D01*
X0112661Y0089739D01*
X0112642Y00897D01*
X0112618Y0089663D01*
Y0089661D01*
X0112614Y0089659D01*
X0112605Y0089648D01*
X0112588Y0089633D01*
X0112566Y0089617D01*
X0112538Y0089596D01*
X0112503Y0089578D01*
X0112464Y0089563D01*
X0112418Y0089552D01*
X0112422Y008955D01*
X0112429Y0089543D01*
X0112442Y0089533D01*
X0112457Y008952D01*
X0112474Y0089506D01*
X0112492Y0089487D01*
X0112511Y0089467D01*
X0112527Y0089446D01*
X0112529Y0089444D01*
X0112535Y0089435D01*
X0112546Y008942D01*
X0112559Y00894D01*
X0112575Y0089372D01*
X0112585Y0089356D01*
X0112596Y0089337D01*
X0112607Y0089317D01*
X011262Y0089294D01*
X0112633Y0089268D01*
X0112646Y0089243D01*
X0112772Y0089D01*
X0112522D01*
X0112374Y0089272D01*
Y0089274D01*
X011237Y008928D01*
X0112366Y0089287D01*
X0112361Y0089296D01*
X0112353Y0089307D01*
X0112346Y008932D01*
X0112329Y008935D01*
X0112311Y0089381D01*
X0112292Y0089413D01*
X0112285Y0089426D01*
X0112275Y0089437D01*
X0112268Y0089448D01*
X0112262Y0089456D01*
X0112261Y0089457D01*
X0112257Y0089461D01*
X0112251Y0089468D01*
X0112244Y0089476D01*
X0112225Y0089493D01*
X0112214Y0089502D01*
X0112201Y0089507D01*
X01122D01*
X0112196Y0089509D01*
X0112188Y0089513D01*
X0112177Y0089515D01*
X0112163Y0089518D01*
X0112144Y008952D01*
X0112124Y0089522D01*
X0112057D01*
Y0089D01*
X011185D01*
Y0090252D01*
X0112314D01*
X0112327Y009025D01*
D02*
G37*
G36*
X0111716Y0090041D02*
X0111413D01*
Y0089D01*
X0111205D01*
Y0090041D01*
X01109D01*
Y0090252D01*
X0111716D01*
Y0090041D01*
D02*
G37*
G36*
X0113362Y009027D02*
X0113377D01*
X0113396Y0090267D01*
X0113418Y0090263D01*
X0113442Y0090257D01*
X0113468Y0090252D01*
X0113496Y0090242D01*
X0113525Y0090231D01*
X0113555Y0090217D01*
X0113585Y0090202D01*
X0113614Y0090181D01*
X0113644Y0090159D01*
X0113672Y0090133D01*
X0113699Y0090104D01*
X0113701Y0090102D01*
X0113705Y0090096D01*
X0113712Y0090087D01*
X0113722Y0090072D01*
X0113731Y0090055D01*
X0113744Y0090033D01*
X0113757Y0090009D01*
X011377Y0089981D01*
X0113783Y0089948D01*
X0113794Y0089913D01*
X0113807Y0089874D01*
X0113816Y0089831D01*
X0113825Y0089785D01*
X0113833Y0089735D01*
X0113836Y0089681D01*
X0113838Y0089626D01*
Y0089622D01*
Y0089613D01*
Y0089596D01*
X0113836Y0089574D01*
X0113835Y0089548D01*
X0113831Y0089517D01*
X0113825Y0089483D01*
X011382Y0089446D01*
X0113812Y0089407D01*
X0113803Y0089368D01*
X011379Y0089328D01*
X0113775Y0089287D01*
X0113759Y0089246D01*
X0113738Y0089207D01*
X0113716Y008917D01*
X011369Y0089135D01*
X0113688Y0089133D01*
X0113685Y0089128D01*
X0113677Y008912D01*
X0113666Y0089111D01*
X0113653Y00891D01*
X0113638Y0089085D01*
X011362Y0089072D01*
X0113598Y0089057D01*
X0113573Y0089043D01*
X0113548Y008903D01*
X011352Y0089017D01*
X0113488Y0089004D01*
X0113455Y0088994D01*
X0113418Y0088987D01*
X0113381Y0088981D01*
X011334Y008898D01*
X0113331D01*
X0113318Y0088981D01*
X0113303D01*
X0113285Y0088985D01*
X0113262Y0088987D01*
X0113238Y0088993D01*
X0113212Y0088998D01*
X0113185Y0089007D01*
X0113157Y0089017D01*
X0113127Y008903D01*
X0113098Y0089044D01*
X011307Y0089063D01*
X011304Y0089083D01*
X0113014Y0089106D01*
X0112988Y0089133D01*
X0112986Y0089135D01*
X0112983Y0089141D01*
X0112975Y0089152D01*
X0112966Y0089165D01*
X0112955Y0089183D01*
X0112942Y0089206D01*
X0112929Y0089231D01*
X0112916Y0089259D01*
X0112901Y0089293D01*
X0112888Y008933D01*
X0112875Y0089368D01*
X0112864Y0089411D01*
X0112855Y0089457D01*
X0112848Y0089507D01*
X0112844Y0089561D01*
X0112842Y0089617D01*
Y0089618D01*
Y0089626D01*
Y0089639D01*
X0112844Y0089654D01*
Y0089672D01*
X0112846Y0089694D01*
X0112848Y008972D01*
X0112849Y0089746D01*
X0112859Y0089805D01*
X011287Y0089867D01*
X0112885Y0089928D01*
X0112896Y0089957D01*
X0112907Y0089985D01*
Y0089987D01*
X0112911Y0089991D01*
X0112914Y0089998D01*
X011292Y0090009D01*
X0112925Y009002D01*
X0112933Y0090035D01*
X0112953Y0090067D01*
X0112979Y0090102D01*
X0113007Y0090137D01*
X0113042Y009017D01*
X0113079Y00902D01*
X0113081D01*
X0113085Y0090204D01*
X011309Y0090207D01*
X0113098Y0090211D01*
X0113109Y0090217D01*
X0113122Y0090222D01*
X0113136Y0090229D01*
X0113151Y0090237D01*
X011319Y009025D01*
X0113235Y0090261D01*
X0113285Y0090268D01*
X011334Y0090272D01*
X0113349D01*
X0113362Y009027D01*
D02*
G37*
G36*
X01093D02*
X0109315D01*
X0109333Y0090267D01*
X0109355Y0090263D01*
X0109379Y0090257D01*
X0109405Y0090252D01*
X0109433Y0090242D01*
X0109463Y0090231D01*
X0109492Y0090217D01*
X0109522Y0090202D01*
X0109552Y0090181D01*
X0109581Y0090159D01*
X0109609Y0090133D01*
X0109637Y0090104D01*
X0109639Y0090102D01*
X0109642Y0090096D01*
X010965Y0090087D01*
X0109659Y0090072D01*
X0109668Y0090055D01*
X0109681Y0090033D01*
X0109694Y0090009D01*
X0109707Y0089981D01*
X010972Y0089948D01*
X0109731Y0089913D01*
X0109744Y0089874D01*
X0109754Y0089831D01*
X0109763Y0089785D01*
X010977Y0089735D01*
X0109774Y0089681D01*
X0109776Y0089626D01*
Y0089622D01*
Y0089613D01*
Y0089596D01*
X0109774Y0089574D01*
X0109772Y0089548D01*
X0109768Y0089517D01*
X0109763Y0089483D01*
X0109757Y0089446D01*
X010975Y0089407D01*
X0109741Y0089368D01*
X0109728Y0089328D01*
X0109713Y0089287D01*
X0109696Y0089246D01*
X0109676Y0089207D01*
X0109654Y008917D01*
X0109628Y0089135D01*
X0109626Y0089133D01*
X0109622Y0089128D01*
X0109615Y008912D01*
X0109604Y0089111D01*
X0109591Y00891D01*
X0109576Y0089085D01*
X0109557Y0089072D01*
X0109535Y0089057D01*
X0109511Y0089043D01*
X0109485Y008903D01*
X0109457Y0089017D01*
X0109426Y0089004D01*
X0109392Y0088994D01*
X0109355Y0088987D01*
X0109318Y0088981D01*
X0109278Y008898D01*
X0109268D01*
X0109255Y0088981D01*
X0109241D01*
X0109222Y0088985D01*
X01092Y0088987D01*
X0109176Y0088993D01*
X010915Y0088998D01*
X0109122Y0089007D01*
X0109094Y0089017D01*
X0109065Y008903D01*
X0109035Y0089044D01*
X0109007Y0089063D01*
X0108978Y0089083D01*
X0108952Y0089106D01*
X0108926Y0089133D01*
X0108924Y0089135D01*
X010892Y0089141D01*
X0108913Y0089152D01*
X0108904Y0089165D01*
X0108892Y0089183D01*
X010888Y0089206D01*
X0108867Y0089231D01*
X0108854Y0089259D01*
X0108839Y0089293D01*
X0108826Y008933D01*
X0108813Y0089368D01*
X0108802Y0089411D01*
X0108792Y0089457D01*
X0108785Y0089507D01*
X0108781Y0089561D01*
X010878Y0089617D01*
Y0089618D01*
Y0089626D01*
Y0089639D01*
X0108781Y0089654D01*
Y0089672D01*
X0108783Y0089694D01*
X0108785Y008972D01*
X0108787Y0089746D01*
X0108796Y0089805D01*
X0108807Y0089867D01*
X0108822Y0089928D01*
X0108833Y0089957D01*
X0108844Y0089985D01*
Y0089987D01*
X0108848Y0089991D01*
X0108852Y0089998D01*
X0108857Y0090009D01*
X0108863Y009002D01*
X010887Y0090035D01*
X0108891Y0090067D01*
X0108917Y0090102D01*
X0108944Y0090137D01*
X0108979Y009017D01*
X0109017Y00902D01*
X0109018D01*
X0109022Y0090204D01*
X0109028Y0090207D01*
X0109035Y0090211D01*
X0109046Y0090217D01*
X0109059Y0090222D01*
X0109074Y0090229D01*
X0109089Y0090237D01*
X0109128Y009025D01*
X0109172Y0090261D01*
X0109222Y0090268D01*
X0109278Y0090272D01*
X0109287D01*
X01093Y009027D01*
D02*
G37*
G36*
X0109916Y0071685D02*
X0109938Y0071682D01*
X0109966Y0071679D01*
X0109994Y0071677D01*
X0110027Y0071668D01*
X0110094Y0071652D01*
X0110166Y0071624D01*
X0110199Y0071607D01*
X0110236Y0071588D01*
X0110266Y0071566D01*
X0110297Y0071538D01*
X0110299Y0071535D01*
X0110302Y0071532D01*
X0110311Y0071521D01*
X0110322Y007151D01*
X0110333Y0071496D01*
X0110347Y0071477D01*
X011036Y0071455D01*
X0110374Y007143D01*
X0110388Y0071402D01*
X0110405Y0071371D01*
X0110419Y0071335D01*
X011043Y0071299D01*
X0110441Y0071257D01*
X0110449Y0071216D01*
X0110458Y0071169D01*
X011046Y0071119D01*
X0110149Y0071102D01*
Y0071105D01*
Y0071108D01*
X0110147Y0071116D01*
X0110144Y0071127D01*
X0110138Y0071152D01*
X011013Y0071185D01*
X0110116Y0071219D01*
X0110102Y0071255D01*
X0110083Y0071285D01*
X0110058Y0071313D01*
X0110055Y0071316D01*
X0110047Y0071321D01*
X011003Y0071332D01*
X0110008Y0071344D01*
X010998Y0071355D01*
X0109947Y0071366D01*
X0109908Y0071371D01*
X0109864Y0071374D01*
X0109844D01*
X0109819Y0071371D01*
X0109791Y0071369D01*
X0109761Y007136D01*
X010973Y0071352D01*
X0109697Y0071338D01*
X0109669Y0071321D01*
X0109666Y0071319D01*
X0109658Y0071313D01*
X0109647Y0071302D01*
X0109636Y0071285D01*
X0109625Y0071266D01*
X0109614Y0071244D01*
X0109605Y0071219D01*
X0109603Y0071191D01*
Y0071188D01*
Y007118D01*
X0109605Y0071166D01*
X0109611Y0071146D01*
X0109616Y0071127D01*
X0109628Y0071108D01*
X0109644Y0071085D01*
X0109664Y0071066D01*
X0109666Y0071063D01*
X0109678Y0071058D01*
X0109694Y0071046D01*
X0109722Y0071033D01*
X0109741Y0071024D01*
X0109761Y0071013D01*
X0109783Y0071005D01*
X0109811Y0070994D01*
X0109839Y0070983D01*
X0109872Y0070972D01*
X0109908Y007096D01*
X0109947Y0070949D01*
X010995D01*
X0109958Y0070947D01*
X0109969Y0070944D01*
X0109986Y0070938D01*
X0110005Y007093D01*
X0110027Y0070924D01*
X0110077Y0070905D01*
X0110133Y0070883D01*
X0110188Y007086D01*
X0110241Y0070833D01*
X0110266Y0070819D01*
X0110286Y0070805D01*
X0110291Y0070802D01*
X0110302Y0070791D01*
X0110322Y0070777D01*
X0110347Y0070755D01*
X0110372Y0070727D01*
X0110399Y0070694D01*
X0110424Y0070655D01*
X0110447Y0070613D01*
X0110449Y0070608D01*
X0110455Y0070591D01*
X0110463Y0070566D01*
X0110474Y0070533D01*
X0110485Y0070491D01*
X0110494Y0070441D01*
X0110499Y0070386D01*
X0110502Y0070325D01*
Y0070322D01*
Y0070314D01*
Y0070302D01*
X0110499Y0070283D01*
X0110497Y0070264D01*
X0110494Y0070239D01*
X0110488Y0070211D01*
X0110483Y0070183D01*
X0110466Y0070116D01*
X0110438Y0070047D01*
X0110422Y0070014D01*
X0110399Y006998D01*
X0110377Y0069947D01*
X0110349Y0069914D01*
X0110347Y0069911D01*
X0110341Y0069905D01*
X0110333Y00699D01*
X0110322Y0069889D01*
X0110305Y0069875D01*
X0110286Y0069861D01*
X0110261Y0069847D01*
X0110236Y0069833D01*
X0110205Y0069817D01*
X0110169Y0069803D01*
X011013Y0069789D01*
X0110088Y0069775D01*
X0110041Y0069764D01*
X0109991Y0069758D01*
X0109938Y0069753D01*
X010988Y006975D01*
X0109855D01*
X0109827Y0069756D01*
X0109791Y0069761D01*
X0109747Y0069769D01*
X0109697Y0069783D01*
X0109644Y0069803D01*
X0109589Y0069831D01*
X0109533Y0069864D01*
X0109478Y0069908D01*
X0109425Y0069958D01*
X01094Y0069989D01*
X0109375Y0070022D01*
X0109353Y0070058D01*
X0109333Y0070094D01*
X0109314Y0070136D01*
X0109294Y007018D01*
X0109281Y007023D01*
X0109267Y007028D01*
X0109258Y0070336D01*
X010925Y0070394D01*
X0109553Y007043D01*
Y0070427D01*
X0109555Y0070414D01*
X0109558Y0070397D01*
X0109564Y0070375D01*
X0109572Y0070347D01*
X0109583Y0070316D01*
X0109597Y0070283D01*
X0109614Y007025D01*
X0109633Y0070216D01*
X0109655Y0070183D01*
X0109683Y0070153D01*
X0109716Y0070125D01*
X0109753Y0070103D01*
X0109791Y0070086D01*
X0109839Y0070072D01*
X0109889Y0070069D01*
X0109911D01*
X0109936Y0070072D01*
X0109969Y0070078D01*
X0110002Y0070086D01*
X0110038Y00701D01*
X0110075Y0070116D01*
X0110108Y0070141D01*
X0110111Y0070144D01*
X0110122Y0070155D01*
X0110136Y0070172D01*
X0110149Y0070191D01*
X0110166Y0070219D01*
X0110177Y007025D01*
X0110188Y0070286D01*
X0110191Y0070325D01*
Y0070327D01*
Y0070336D01*
X0110188Y0070347D01*
Y0070364D01*
X0110177Y0070397D01*
X0110172Y0070416D01*
X0110161Y0070433D01*
Y0070436D01*
X0110155Y0070441D01*
X0110138Y0070458D01*
X0110127Y0070469D01*
X0110113Y0070483D01*
X0110094Y0070494D01*
X0110075Y0070505D01*
X0110072Y0070508D01*
X0110063Y0070511D01*
X0110044Y0070519D01*
X0110019Y007053D01*
X0110002Y0070536D01*
X0109983Y0070541D01*
X0109961Y007055D01*
X0109933Y0070558D01*
X0109905Y0070569D01*
X0109872Y007058D01*
X0109836Y0070591D01*
X0109797Y0070602D01*
X0109794D01*
X0109789Y0070605D01*
X0109777Y0070608D01*
X0109764Y0070613D01*
X0109747Y0070619D01*
X010973Y0070625D01*
X0109686Y0070641D01*
X0109639Y0070661D01*
X0109589Y0070683D01*
X0109544Y0070708D01*
X0109505Y0070733D01*
X0109503Y0070736D01*
X0109492Y0070747D01*
X0109475Y0070761D01*
X0109453Y0070783D01*
X010943Y0070808D01*
X0109405Y0070838D01*
X010938Y0070874D01*
X0109358Y0070916D01*
X0109355Y0070922D01*
X010935Y0070935D01*
X0109342Y007096D01*
X0109333Y0070991D01*
X0109322Y0071027D01*
X0109314Y0071069D01*
X0109308Y0071116D01*
X0109306Y0071163D01*
Y0071166D01*
Y0071169D01*
Y0071177D01*
Y0071188D01*
X0109308Y0071219D01*
X0109314Y0071255D01*
X0109322Y0071296D01*
X0109336Y0071344D01*
X0109353Y0071391D01*
X0109375Y0071438D01*
Y0071441D01*
X0109378Y0071443D01*
X0109389Y0071457D01*
X0109403Y007148D01*
X0109425Y0071507D01*
X0109453Y0071538D01*
X0109486Y0071568D01*
X0109522Y0071599D01*
X0109566Y0071624D01*
X0109569D01*
X0109572Y0071627D01*
X0109589Y0071635D01*
X0109616Y0071643D01*
X0109653Y0071657D01*
X0109697Y0071668D01*
X0109747Y0071677D01*
X0109808Y0071685D01*
X0109872Y0071688D01*
X0109897D01*
X0109916Y0071685D01*
D02*
G37*
G36*
X0113314Y0071341D02*
X0112859D01*
Y0069781D01*
X0112548D01*
Y0071341D01*
X011209D01*
Y0071657D01*
X0113314D01*
Y0071341D01*
D02*
G37*
G36*
X011191D02*
X0111077D01*
Y0070924D01*
X0111851D01*
Y0070608D01*
X0111077D01*
Y0070097D01*
X0111937D01*
Y0069781D01*
X0110766D01*
Y0071657D01*
X011191D01*
Y0071341D01*
D02*
G37*
G36*
X0112581Y0057281D02*
X0112267D01*
X0111648Y0058502D01*
Y0057281D01*
X0111359D01*
Y0059157D01*
X0111659D01*
X0112292Y0057902D01*
Y0059157D01*
X0112581D01*
Y0057281D01*
D02*
G37*
G36*
X0111026Y0058172D02*
Y0058166D01*
Y0058155D01*
Y0058136D01*
Y0058111D01*
Y005808D01*
X0111023Y0058044D01*
Y0058005D01*
X0111021Y0057961D01*
X0111015Y0057872D01*
X011101Y0057783D01*
X0111004Y0057739D01*
X0110998Y0057697D01*
X0110993Y0057658D01*
X0110985Y0057625D01*
Y0057622D01*
X0110982Y0057616D01*
X0110979Y0057608D01*
X0110976Y0057597D01*
X0110965Y0057566D01*
X0110946Y0057528D01*
X0110921Y0057486D01*
X011089Y0057439D01*
X0110851Y0057394D01*
X0110801Y0057353D01*
X0110799D01*
X0110796Y0057347D01*
X0110787Y0057344D01*
X0110776Y0057336D01*
X0110762Y0057328D01*
X0110746Y0057319D01*
X0110724Y0057311D01*
X0110701Y0057303D01*
X0110649Y0057283D01*
X0110585Y0057267D01*
X0110513Y0057256D01*
X0110429Y005725D01*
X0110407D01*
X011039Y0057253D01*
X0110368D01*
X0110346Y0057256D01*
X0110291Y0057261D01*
X0110232Y0057272D01*
X0110168Y0057286D01*
X0110107Y0057308D01*
X0110052Y0057336D01*
X0110049D01*
X0110046Y0057339D01*
X011003Y0057353D01*
X0110005Y0057372D01*
X0109977Y00574D01*
X0109943Y0057433D01*
X010991Y0057475D01*
X010988Y0057522D01*
X0109855Y0057578D01*
Y005758D01*
X0109852Y0057586D01*
X0109849Y0057594D01*
X0109846Y0057608D01*
X0109841Y0057628D01*
X0109835Y005765D01*
X010983Y0057678D01*
X0109827Y0057708D01*
X0109821Y0057747D01*
X0109816Y0057789D01*
X010981Y0057836D01*
X0109805Y0057889D01*
X0109802Y0057947D01*
X0109799Y0058011D01*
X0109796Y005808D01*
Y0058155D01*
Y0059157D01*
X0110107D01*
Y0058141D01*
Y0058138D01*
Y005813D01*
Y0058119D01*
Y0058102D01*
Y0058086D01*
Y0058063D01*
X011011Y0058013D01*
Y0057963D01*
X0110113Y0057911D01*
X0110116Y0057866D01*
Y005785D01*
X0110118Y0057833D01*
Y0057827D01*
X0110124Y0057814D01*
X011013Y0057791D01*
X0110138Y0057764D01*
X0110152Y005773D01*
X0110168Y00577D01*
X0110188Y0057669D01*
X0110216Y0057641D01*
X0110218Y0057639D01*
X0110229Y005763D01*
X0110246Y0057619D01*
X0110271Y0057608D01*
X0110299Y0057597D01*
X0110335Y0057586D01*
X0110377Y0057578D01*
X0110421Y0057575D01*
X011044D01*
X011046Y0057578D01*
X0110485Y005758D01*
X0110513Y0057586D01*
X011054Y0057594D01*
X0110568Y0057605D01*
X0110596Y0057622D01*
X0110599Y0057625D01*
X0110607Y005763D01*
X0110618Y0057641D01*
X0110632Y0057655D01*
X0110649Y0057675D01*
X0110663Y0057697D01*
X0110676Y0057722D01*
X0110688Y0057752D01*
Y0057758D01*
X0110693Y0057769D01*
Y005778D01*
X0110696Y0057794D01*
X0110699Y0057811D01*
X0110701Y005783D01*
X0110704Y0057852D01*
X0110707Y005788D01*
X011071Y0057911D01*
Y0057944D01*
X0110713Y005798D01*
X0110715Y0058022D01*
Y0058069D01*
Y0058119D01*
Y0059157D01*
X0111026D01*
Y0058172D01*
D02*
G37*
G36*
X0108966Y0059154D02*
X0108991D01*
X0109044Y0059152D01*
X0109102Y0059143D01*
X0109161Y0059135D01*
X0109216Y0059121D01*
X0109241Y0059113D01*
X0109263Y0059105D01*
X0109269Y0059102D01*
X0109283Y0059096D01*
X0109302Y0059082D01*
X0109327Y0059063D01*
X0109355Y0059041D01*
X0109383Y005901D01*
X0109413Y0058974D01*
X0109441Y005893D01*
X0109444Y0058924D01*
X0109452Y0058907D01*
X0109463Y005888D01*
X0109477Y0058846D01*
X0109488Y0058802D01*
X0109499Y0058749D01*
X0109508Y0058694D01*
X010951Y005863D01*
Y0058627D01*
Y0058621D01*
Y0058608D01*
X0109508Y0058594D01*
Y0058574D01*
X0109505Y0058552D01*
X0109497Y0058502D01*
X0109485Y0058447D01*
X0109466Y0058388D01*
X0109438Y005833D01*
X0109402Y0058274D01*
Y0058272D01*
X0109397Y0058269D01*
X0109383Y0058252D01*
X0109358Y005823D01*
X0109324Y0058205D01*
X0109283Y0058174D01*
X010923Y0058147D01*
X0109172Y0058125D01*
X0109102Y0058108D01*
X0109108Y0058105D01*
X0109119Y0058094D01*
X0109138Y005808D01*
X0109161Y0058061D01*
X0109186Y0058038D01*
X0109213Y0058011D01*
X0109241Y005798D01*
X0109266Y005795D01*
X0109269Y0057947D01*
X0109277Y0057933D01*
X0109294Y0057911D01*
X0109313Y005788D01*
X0109338Y0057839D01*
X0109352Y0057814D01*
X0109369Y0057786D01*
X0109385Y0057755D01*
X0109405Y0057722D01*
X0109424Y0057683D01*
X0109444Y0057644D01*
X0109633Y0057281D01*
X0109258D01*
X0109036Y0057689D01*
Y0057691D01*
X010903Y00577D01*
X0109025Y0057711D01*
X0109016Y0057725D01*
X0109005Y0057741D01*
X0108994Y0057761D01*
X0108969Y0057805D01*
X0108941Y0057852D01*
X0108914Y00579D01*
X0108902Y0057919D01*
X0108889Y0057936D01*
X0108877Y0057952D01*
X0108869Y0057963D01*
X0108866Y0057966D01*
X0108861Y0057972D01*
X0108852Y0057983D01*
X0108841Y0057994D01*
X0108814Y0058019D01*
X0108797Y0058033D01*
X0108777Y0058041D01*
X0108775D01*
X0108769Y0058044D01*
X0108758Y005805D01*
X0108741Y0058052D01*
X0108719Y0058058D01*
X0108691Y0058061D01*
X0108661Y0058063D01*
X0108561D01*
Y0057281D01*
X010825D01*
Y0059157D01*
X0108947D01*
X0108966Y0059154D01*
D02*
G37*
%LPC*%
G36*
X0092594Y0078155D02*
X0090717D01*
Y0076925D01*
X0092594D01*
Y0077236D01*
X0091855D01*
Y0077844D01*
X0092594D01*
Y0078155D01*
D02*
G37*
G36*
X0092108Y0076692D02*
X0090686D01*
X0091389D01*
X0091325Y0076689D01*
X0091267Y0076687D01*
X0091211Y0076678D01*
X0091158Y0076667D01*
X0091111Y0076656D01*
X0091067Y0076642D01*
X0091025Y0076628D01*
X0090989Y0076612D01*
X0090958Y0076598D01*
X0090928Y0076584D01*
X0090906Y007657D01*
X0090886Y0076559D01*
X009087Y0076548D01*
X0090858Y0076539D01*
X0090853Y0076537D01*
X009085Y0076534D01*
X0090822Y0076509D01*
X0090797Y0076478D01*
X0090775Y0076451D01*
X0090756Y0076417D01*
X0090739Y0076387D01*
X0090725Y0076356D01*
X0090706Y0076292D01*
X0090695Y007624D01*
X0090692Y0076215D01*
X0090689Y0076195D01*
X0090686Y0076176D01*
Y0076154D01*
X0090692Y007609D01*
X0090703Y0076031D01*
X0090717Y0075979D01*
X0090736Y0075934D01*
X0090753Y0075898D01*
X009077Y0075873D01*
X0090781Y0075857D01*
X0090784Y0075851D01*
X0090825Y0075807D01*
X0090872Y007577D01*
X0090925Y0075737D01*
X0090975Y0075712D01*
X009102Y007569D01*
X0091039Y0075682D01*
X0091056Y0075676D01*
X0091069Y0075671D01*
X0091081Y0075668D01*
X0091086Y0075665D01*
X0091089D01*
X009115Y0075959D01*
X0091117Y007597D01*
X0091086Y0075981D01*
X0091061Y0075995D01*
X0091039Y0076009D01*
X009102Y0076026D01*
X0091003Y0076043D01*
X0090989Y0076059D01*
X0090981Y0076073D01*
X0090967Y0076104D01*
X0090958Y0076129D01*
X0090956Y0076145D01*
Y0076151D01*
X0090958Y0076187D01*
X009097Y0076217D01*
X0090983Y0076248D01*
X0091Y0076273D01*
X0091014Y0076292D01*
X0091028Y0076306D01*
X0091039Y0076317D01*
X0091042Y007632D01*
X0091078Y0076342D01*
X0091119Y0076359D01*
X0091161Y0076373D01*
X0091203Y0076381D01*
X0091239Y0076387D01*
X0091267Y007639D01*
X0091278D01*
X0091286D01*
X0091292D01*
X0091294D01*
Y0075651D01*
X0091333D01*
X0091405Y0075654D01*
X0091472Y0075657D01*
X0091536Y0075665D01*
X0091594Y0075676D01*
X0091647Y0075687D01*
X0091694Y0075701D01*
X0091739Y0075715D01*
X009178Y0075729D01*
X0091814Y0075743D01*
X0091844Y0075757D01*
X0091872Y007577D01*
X0091891Y0075782D01*
X0091908Y0075793D01*
X0091922Y0075801D01*
X0091927Y0075804D01*
X009193Y0075807D01*
X0091961Y0075834D01*
X0091988Y0075862D01*
X0092013Y0075893D01*
X0092033Y0075923D01*
X0092049Y0075954D01*
X0092063Y0075984D01*
X0092086Y0076045D01*
X0092099Y0076098D01*
X0092102Y0076123D01*
X0092105Y0076142D01*
X0092108Y0076159D01*
Y0075651D01*
D01*
Y0076692D01*
D02*
G37*
G36*
X0092077Y0075418D02*
X0090717D01*
Y0074391D01*
X0092077D01*
Y0074685D01*
X0091222Y0075135D01*
X0092077D01*
Y0075418D01*
D02*
G37*
G36*
X0092108Y0074155D02*
X0091392D01*
X0091339Y0074152D01*
X0091286Y0074149D01*
X0091192Y0074135D01*
X0091147Y0074124D01*
X0091106Y0074113D01*
X0091067Y0074102D01*
X0091033Y0074088D01*
X0091Y0074077D01*
X0090972Y0074066D01*
X009095Y0074055D01*
X0090928Y0074044D01*
X0090914Y0074035D01*
X00909Y007403D01*
X0090895Y0074024D01*
X0090892D01*
X0090856Y0073999D01*
X0090825Y0073969D01*
X0090797Y0073938D01*
X0090772Y0073905D01*
X0090753Y0073872D01*
X0090736Y0073838D01*
X0090722Y0073805D01*
X0090711Y0073772D01*
X0090697Y0073713D01*
X0090692Y0073686D01*
X0090689Y0073663D01*
Y0073644D01*
X0090686Y007363D01*
Y0073619D01*
X0090689Y007358D01*
X0090692Y0073544D01*
X0090709Y0073475D01*
X0090731Y0073413D01*
X0090764Y0073358D01*
X00908Y0073311D01*
X0090842Y0073269D01*
X0090886Y0073233D01*
X0090933Y0073202D01*
X0090978Y0073175D01*
X0091022Y0073152D01*
X0091064Y0073136D01*
X00911Y0073125D01*
X0091133Y0073114D01*
X0091156Y0073108D01*
X0091172Y0073103D01*
X0090686D01*
X0091178D01*
X0091239Y0073394D01*
X0091189Y0073405D01*
X0091144Y0073416D01*
X0091111Y007343D01*
X0091083Y0073444D01*
X0091061Y0073455D01*
X0091047Y0073466D01*
X0091039Y0073472D01*
X0091036Y0073475D01*
X0091017Y0073494D01*
X0091003Y0073516D01*
X0090995Y0073541D01*
X0090989Y0073561D01*
X0090983Y007358D01*
X0090981Y0073594D01*
Y0073608D01*
X0090986Y0073649D01*
X0090997Y0073683D01*
X0091011Y0073716D01*
X0091031Y0073741D01*
X0091047Y007376D01*
X0091064Y0073777D01*
X0091075Y0073785D01*
X0091078Y0073788D01*
X0091097Y0073799D01*
X0091122Y007381D01*
X0091172Y0073824D01*
X0091231Y0073835D01*
X0091286Y0073844D01*
X0091339Y0073849D01*
X0091361D01*
X009138Y0073852D01*
X0091397D01*
X0091408D01*
X0091417D01*
X0091419D01*
X0091458D01*
X0091497Y0073849D01*
X009153Y0073847D01*
X0091561Y0073841D01*
X0091589Y0073835D01*
X0091614Y007383D01*
X0091658Y0073819D01*
X0091689Y0073808D01*
X0091714Y0073797D01*
X0091725Y0073788D01*
X009173Y0073785D01*
X0091761Y0073758D01*
X0091786Y007373D01*
X0091802Y0073699D01*
X0091814Y0073672D01*
X0091819Y0073649D01*
X0091825Y0073627D01*
Y0073611D01*
X0091822Y007358D01*
X0091816Y0073552D01*
X0091805Y007353D01*
X0091791Y0073508D01*
X0091758Y0073472D01*
X0091719Y0073447D01*
X0091677Y0073427D01*
X0091644Y0073416D01*
X009163Y0073411D01*
X0091619D01*
X0091614Y0073408D01*
X0091611D01*
X0091675Y0073116D01*
X0091716Y0073128D01*
X0091752Y0073141D01*
X0091789Y0073152D01*
X0091822Y0073169D01*
X0091877Y0073197D01*
X0091922Y0073227D01*
X0091958Y0073255D01*
X0091983Y0073277D01*
X0091997Y0073291D01*
X0092002Y0073294D01*
Y0073297D01*
X0092038Y0073347D01*
X0092063Y0073397D01*
X0092083Y0073452D01*
X0092094Y0073502D01*
X0092102Y0073547D01*
X0092105Y0073566D01*
Y0073583D01*
X0092108Y0073597D01*
Y0073297D01*
Y0073616D01*
X0092105Y0073661D01*
X0092099Y0073702D01*
X0092091Y0073741D01*
X009208Y007378D01*
X0092049Y0073847D01*
X0092033Y0073874D01*
X0092016Y0073902D01*
X0092Y0073927D01*
X0091983Y0073946D01*
X0091966Y0073966D01*
X0091952Y007398D01*
X0091941Y0073991D01*
X0091933Y0073999D01*
X0091927Y0074005D01*
X0091925Y0074008D01*
X0091888Y0074033D01*
X009185Y0074055D01*
X0091808Y0074077D01*
X0091764Y0074094D01*
X0091675Y0074119D01*
X0091589Y0074135D01*
X009155Y0074144D01*
X0091511Y0074146D01*
X0091478Y0074149D01*
X009145Y0074152D01*
X0091425Y0074155D01*
X0092108D01*
D01*
D02*
G37*
G36*
X0092077Y0072903D02*
X0090717D01*
Y0072606D01*
X0091794D01*
Y0072206D01*
X0090717D01*
Y0071909D01*
X0092077D01*
Y0072903D01*
D02*
G37*
G36*
X0092604Y0070008D02*
X0090696D01*
Y0068778D01*
D01*
Y0069375D01*
X0090702Y0069291D01*
X0090713Y0069219D01*
X009073Y0069155D01*
X0090749Y0069103D01*
X0090757Y006908D01*
X0090766Y0069058D01*
X0090774Y0069042D01*
X0090782Y0069028D01*
X0090791Y0069017D01*
X0090794Y0069008D01*
X0090799Y0069006D01*
Y0069003D01*
X0090841Y0068953D01*
X0090885Y0068914D01*
X0090932Y0068883D01*
X0090974Y0068858D01*
X0091013Y0068839D01*
X0091043Y0068828D01*
X0091055Y0068825D01*
X0091063Y0068822D01*
X0091068Y006882D01*
X0091071D01*
X0091104Y0068811D01*
X0091143Y0068806D01*
X0091185Y00688D01*
X0091229Y0068795D01*
X0091318Y0068789D01*
X0091407Y0068783D01*
X0091452Y0068781D01*
X009149D01*
X0091526Y0068778D01*
X0092604D01*
Y0069089D01*
X0091565D01*
X0091515D01*
X0091468D01*
X0091427Y0069092D01*
X009139Y0069094D01*
X0091357D01*
X0091327Y0069097D01*
X0091299Y00691D01*
X0091277Y0069103D01*
X0091257Y0069105D01*
X0091241Y0069108D01*
X0091227Y0069111D01*
X0091216D01*
X0091204Y0069117D01*
X0091199D01*
X0091168Y0069128D01*
X0091143Y0069142D01*
X0091121Y0069155D01*
X0091102Y0069172D01*
X0091088Y0069186D01*
X0091077Y0069197D01*
X0091071Y0069205D01*
X0091068Y0069208D01*
X0091052Y0069236D01*
X0091041Y0069264D01*
X0091032Y0069291D01*
X0091027Y0069319D01*
X0091024Y0069344D01*
X0091021Y0069364D01*
Y0069383D01*
X0091024Y0069428D01*
X0091032Y0069469D01*
X0091043Y0069505D01*
X0091055Y0069533D01*
X0091066Y0069558D01*
X0091077Y0069575D01*
X0091085Y0069586D01*
X0091088Y0069589D01*
X0091116Y0069616D01*
X0091146Y0069636D01*
X0091177Y0069652D01*
X009121Y0069666D01*
X0091238Y0069675D01*
X009126Y006968D01*
X0091274Y0069686D01*
X0091279D01*
X0091296Y0069688D01*
X0091313D01*
X0091357Y0069691D01*
X009141Y0069694D01*
X009146D01*
X009151Y0069697D01*
X0091532D01*
X0091549D01*
X0091565D01*
X0091576D01*
X0091585D01*
X0091588D01*
X0092604D01*
Y0070008D01*
D02*
G37*
G36*
X0092087Y0068464D02*
X0090727D01*
Y006747D01*
X0092087D01*
Y0068464D01*
D02*
G37*
G36*
Y0067162D02*
X0090727D01*
Y0066879D01*
X0091599Y0066418D01*
X0090727D01*
D01*
Y0066135D01*
X0092087D01*
Y0067162D01*
D02*
G37*
G36*
Y0065966D02*
X0090727D01*
Y0064952D01*
D01*
Y006531D01*
X0091804D01*
Y0064952D01*
X0092087D01*
Y0065966D01*
D02*
G37*
%LPD*%
G36*
X0091539Y0077236D02*
X0090717D01*
Y0077844D01*
X0091539D01*
Y0077236D01*
D02*
G37*
G36*
X0092108Y0076181D02*
X0092105Y007622D01*
X0092099Y0076259D01*
X0092091Y0076295D01*
X009208Y0076328D01*
X0092052Y0076387D01*
X0092022Y007644D01*
X0091988Y0076478D01*
X0091975Y0076495D01*
X0091961Y0076509D01*
X009195Y007652D01*
X0091941Y0076528D01*
X0091936Y0076531D01*
X0091933Y0076534D01*
X0091894Y0076562D01*
X009185Y0076587D01*
X0091805Y0076606D01*
X0091761Y0076626D01*
X0091716Y0076639D01*
X0091669Y0076653D01*
X0091583Y0076673D01*
X0091544Y0076678D01*
X0091508Y0076684D01*
X0091475Y0076687D01*
X0091444Y0076689D01*
X0091422Y0076692D01*
X0092108D01*
Y0076181D01*
D02*
G37*
G36*
X0091566Y0076384D02*
X0091614Y0076376D01*
X0091652Y0076367D01*
X0091686Y0076353D01*
X0091714Y0076342D01*
X0091733Y0076334D01*
X0091744Y0076326D01*
X0091747Y0076323D01*
X0091775Y0076298D01*
X0091797Y007627D01*
X0091811Y0076245D01*
X0091822Y007622D01*
X0091827Y0076198D01*
X0091833Y0076181D01*
Y0076165D01*
X009183Y0076131D01*
X0091822Y0076104D01*
X0091808Y0076079D01*
X0091794Y0076054D01*
X0091777Y0076037D01*
X0091766Y0076023D01*
X0091755Y0076015D01*
X0091752Y0076012D01*
X0091719Y007599D01*
X009168Y0075973D01*
X0091641Y0075962D01*
X0091603Y0075954D01*
X0091569Y0075948D01*
X0091539Y0075945D01*
X0091528Y0075943D01*
X0091522D01*
X0091516D01*
X0091514D01*
Y0076387D01*
X0091566Y0076384D01*
D02*
G37*
G36*
X0091589Y0074674D02*
X0090717D01*
Y0075135D01*
X0091589Y0074674D01*
D02*
G37*
G36*
X0091457Y0070005D02*
X0091393Y0070002D01*
X0091335Y0069999D01*
X0091282Y0069994D01*
X0091235Y0069988D01*
X0091193Y0069983D01*
X0091154Y0069977D01*
X0091124Y0069974D01*
X0091096Y0069969D01*
X0091074Y0069963D01*
X0091055Y0069958D01*
X0091041Y0069955D01*
X0091032Y0069952D01*
X0091027Y0069949D01*
X0091024D01*
X0090968Y0069924D01*
X0090921Y0069894D01*
X009088Y0069861D01*
X0090846Y0069827D01*
X0090819Y00698D01*
X0090799Y0069775D01*
X0090785Y0069758D01*
X0090782Y0069755D01*
Y0069752D01*
X0090755Y0069697D01*
X0090732Y0069636D01*
X0090719Y0069572D01*
X0090707Y0069514D01*
X0090702Y0069458D01*
X0090699Y0069436D01*
Y0069414D01*
X0090696Y0069397D01*
Y0070008D01*
X0091526D01*
X0091457Y0070005D01*
D02*
G37*
G36*
X0091804Y0067767D02*
X0090727D01*
Y0068167D01*
X0091804D01*
Y0067767D01*
D02*
G37*
G36*
X0092087Y0066429D02*
X0091232Y0066879D01*
X0092087D01*
Y0066429D01*
D02*
G37*
G36*
X0091804Y0065607D02*
X0090727D01*
Y0065966D01*
X0091804D01*
Y0065607D01*
D02*
G37*
%LPC*%
G36*
X0088467Y0084435D02*
X0088464D01*
X0088453D01*
X0088439Y0084433D01*
X0088423Y008443D01*
X00884Y0084424D01*
X0088378Y0084416D01*
X0088359Y0084405D01*
X0088336Y0084391D01*
X0088334Y0084388D01*
X0088328Y0084383D01*
X008832Y0084371D01*
X0088312Y0084358D01*
X00883Y0084341D01*
X0088292Y0084321D01*
X0088287Y0084296D01*
X0088284Y0084272D01*
Y008426D01*
X0088287Y0084249D01*
X0088289Y0084233D01*
X0088295Y0084216D01*
X00883Y0084194D01*
X0088312Y0084172D01*
X0088325Y0084149D01*
X0088328Y0084147D01*
X0088334Y0084138D01*
X0088342Y008413D01*
X0088356Y0084116D01*
X0088386Y0084088D01*
X0088406Y0084074D01*
X0088428Y0084063D01*
X0088431D01*
X0088439Y0084061D01*
X0088456Y0084055D01*
X0088478Y0084049D01*
X0088506Y0084047D01*
X0088545Y0084041D01*
X0088589Y0084038D01*
X0088645D01*
X0088717D01*
Y0084041D01*
X0088711Y0084049D01*
X0088709Y0084063D01*
X00887Y0084083D01*
X0088692Y0084108D01*
X0088684Y0084138D01*
X0088672Y0084174D01*
X0088661Y0084216D01*
Y0084219D01*
X0088659Y0084222D01*
X0088656Y0084238D01*
X0088647Y008426D01*
X0088639Y0084288D01*
X0088625Y0084319D01*
X0088611Y0084349D01*
X0088597Y0084374D01*
X0088581Y0084394D01*
X0088578Y0084396D01*
X0088572Y0084399D01*
X0088564Y0084408D01*
X008855Y0084413D01*
X0088534Y0084421D01*
X0088514Y008443D01*
X0088492Y0084433D01*
X0088467Y0084435D01*
D02*
G37*
G36*
X0098096Y0084783D02*
X0098087D01*
X0098062Y0084779D01*
X0098029Y0084775D01*
X0097983Y0084762D01*
X0097933Y0084741D01*
X0097879Y0084712D01*
X0097821Y008467D01*
X0097767Y0084616D01*
X0097762Y0084608D01*
X0097746Y0084587D01*
X0097725Y008455D01*
X00977Y00845D01*
X0097671Y0084433D01*
X009765Y0084358D01*
X0097633Y0084266D01*
X0097629Y0084166D01*
Y0084162D01*
Y0084154D01*
Y0084137D01*
X0097633Y0084116D01*
Y0084087D01*
X0097637Y0084058D01*
X0097646Y0083987D01*
X0097667Y0083908D01*
X0097692Y0083829D01*
X0097725Y0083746D01*
X0097775Y0083671D01*
X0097783Y0083662D01*
X00978Y0083642D01*
X0097833Y0083612D01*
X0097871Y0083579D01*
X0097921Y0083546D01*
X0097979Y0083517D01*
X0098041Y0083496D01*
X0098079Y0083492D01*
X0098112Y0083487D01*
X0098121D01*
X0098141Y0083492D01*
X0098175Y0083496D01*
X0098216Y0083508D01*
X0098262Y0083529D01*
X0098312Y0083562D01*
X0098366Y0083604D01*
X0098416Y0083662D01*
X0098421Y0083671D01*
X0098437Y0083696D01*
X0098458Y0083733D01*
X0098487Y0083787D01*
X0098512Y0083858D01*
X0098533Y0083941D01*
X009855Y0084037D01*
X0098554Y0084146D01*
Y008415D01*
Y0084158D01*
Y0084175D01*
Y0084196D01*
X009855Y0084221D01*
X0098546Y008425D01*
X0098537Y0084321D01*
X0098521Y0084396D01*
X00985Y0084475D01*
X0098466Y008455D01*
X0098421Y0084616D01*
X0098416Y0084625D01*
X0098396Y0084641D01*
X0098366Y008467D01*
X0098329Y00847D01*
X0098283Y0084729D01*
X0098229Y0084758D01*
X0098166Y0084775D01*
X0098096Y0084783D01*
D02*
G37*
G36*
X0098292Y0077803D02*
X0097563Y0076524D01*
X0098292D01*
Y0077803D01*
D02*
G37*
G36*
X0112264Y0090041D02*
X0112057D01*
Y0089722D01*
X0112255D01*
X0112285Y0089724D01*
X0112314D01*
X0112344Y0089728D01*
X011237Y008973D01*
X0112379Y0089731D01*
X0112388Y0089733D01*
X011239D01*
X0112396Y0089735D01*
X0112401Y0089739D01*
X0112411Y0089744D01*
X0112422Y0089752D01*
X0112431Y0089759D01*
X0112442Y008977D01*
X0112451Y0089783D01*
X0112453Y0089785D01*
X0112455Y0089791D01*
X0112459Y0089798D01*
X0112464Y0089811D01*
X0112468Y0089824D01*
X0112472Y0089843D01*
X0112474Y0089861D01*
X0112475Y0089883D01*
Y0089885D01*
Y0089893D01*
X0112474Y0089904D01*
X0112472Y0089918D01*
X0112466Y008995D01*
X0112459Y0089965D01*
X0112451Y008998D01*
X011245Y0089981D01*
X0112448Y0089985D01*
X0112442Y0089992D01*
X0112435Y009D01*
X0112425Y0090007D01*
X0112414Y0090017D01*
X0112401Y0090024D01*
X0112387Y009003D01*
X0112385D01*
X0112379Y0090031D01*
X011237Y0090033D01*
X0112355Y0090035D01*
X0112344Y0090037D01*
X0112333D01*
X0112318Y0090039D01*
X0112285D01*
X0112264Y0090041D01*
D02*
G37*
G36*
X011334Y0090055D02*
X0113327D01*
X011332Y0090054D01*
X0113309Y0090052D01*
X0113296Y009005D01*
X0113268Y0090042D01*
X0113235Y009003D01*
X0113218Y0090022D01*
X0113201Y0090011D01*
X0113183Y0089998D01*
X0113166Y0089985D01*
X0113149Y0089968D01*
X0113135Y008995D01*
Y0089948D01*
X0113131Y0089944D01*
X0113127Y0089939D01*
X0113122Y008993D01*
X0113116Y0089918D01*
X0113111Y0089905D01*
X0113103Y0089889D01*
X0113096Y008987D01*
X0113088Y0089848D01*
X0113081Y0089824D01*
X0113075Y0089798D01*
X011307Y0089768D01*
X0113064Y0089737D01*
X0113061Y0089702D01*
X0113059Y0089665D01*
X0113057Y0089626D01*
Y0089624D01*
Y0089617D01*
Y0089605D01*
X0113059Y0089591D01*
Y0089572D01*
X0113061Y0089552D01*
X0113064Y008953D01*
X0113068Y0089506D01*
X0113077Y0089454D01*
X0113092Y00894D01*
X0113112Y0089348D01*
X0113124Y0089326D01*
X0113138Y0089304D01*
X011314Y0089302D01*
X0113142Y00893D01*
X0113148Y0089294D01*
X0113153Y0089287D01*
X011317Y008927D01*
X0113194Y008925D01*
X0113224Y008923D01*
X0113259Y0089213D01*
X0113277Y0089206D01*
X0113298Y0089202D01*
X0113318Y0089198D01*
X011334Y0089196D01*
X0113351D01*
X0113361Y0089198D01*
X0113372Y00892D01*
X0113383Y0089202D01*
X0113411Y0089209D01*
X0113444Y0089222D01*
X0113461Y0089231D01*
X0113477Y0089241D01*
X0113494Y0089254D01*
X0113511Y0089267D01*
X0113527Y0089283D01*
X0113542Y0089302D01*
X0113544Y0089304D01*
X0113546Y0089307D01*
X0113549Y0089313D01*
X0113555Y0089322D01*
X0113561Y0089333D01*
X0113568Y0089348D01*
X0113575Y0089365D01*
X0113583Y0089383D01*
X011359Y0089406D01*
X0113598Y008943D01*
X0113605Y0089456D01*
X011361Y0089485D01*
X0113616Y0089518D01*
X011362Y0089552D01*
X0113623Y0089589D01*
Y008963D01*
Y0089631D01*
Y0089639D01*
Y008965D01*
X0113622Y0089665D01*
Y0089683D01*
X011362Y0089704D01*
X0113616Y0089726D01*
X0113614Y0089752D01*
X0113605Y0089804D01*
X011359Y0089855D01*
X011357Y0089907D01*
X0113559Y008993D01*
X0113544Y008995D01*
Y0089952D01*
X011354Y0089954D01*
X0113536Y0089959D01*
X0113529Y0089967D01*
X0113512Y0089983D01*
X011349Y0090004D01*
X0113461Y0090022D01*
X0113425Y0090039D01*
X0113405Y0090046D01*
X0113385Y0090052D01*
X0113362Y0090054D01*
X011334Y0090055D01*
D02*
G37*
G36*
X0109278D02*
X0109265D01*
X0109257Y0090054D01*
X0109246Y0090052D01*
X0109233Y009005D01*
X0109205Y0090042D01*
X0109172Y009003D01*
X0109155Y0090022D01*
X0109139Y0090011D01*
X010912Y0089998D01*
X0109104Y0089985D01*
X0109087Y0089968D01*
X0109072Y008995D01*
Y0089948D01*
X0109068Y0089944D01*
X0109065Y0089939D01*
X0109059Y008993D01*
X0109054Y0089918D01*
X0109048Y0089905D01*
X0109041Y0089889D01*
X0109033Y008987D01*
X0109026Y0089848D01*
X0109018Y0089824D01*
X0109013Y0089798D01*
X0109007Y0089768D01*
X0109002Y0089737D01*
X0108998Y0089702D01*
X0108996Y0089665D01*
X0108994Y0089626D01*
Y0089624D01*
Y0089617D01*
Y0089605D01*
X0108996Y0089591D01*
Y0089572D01*
X0108998Y0089552D01*
X0109002Y008953D01*
X0109005Y0089506D01*
X0109015Y0089454D01*
X010903Y00894D01*
X010905Y0089348D01*
X0109061Y0089326D01*
X0109076Y0089304D01*
X0109078Y0089302D01*
X0109079Y00893D01*
X0109085Y0089294D01*
X0109091Y0089287D01*
X0109107Y008927D01*
X0109131Y008925D01*
X0109161Y008923D01*
X0109196Y0089213D01*
X0109215Y0089206D01*
X0109235Y0089202D01*
X0109255Y0089198D01*
X0109278Y0089196D01*
X0109289D01*
X0109298Y0089198D01*
X0109309Y00892D01*
X010932Y0089202D01*
X0109348Y0089209D01*
X0109381Y0089222D01*
X0109398Y0089231D01*
X0109415Y0089241D01*
X0109431Y0089254D01*
X0109448Y0089267D01*
X0109465Y0089283D01*
X0109479Y0089302D01*
X0109481Y0089304D01*
X0109483Y0089307D01*
X0109487Y0089313D01*
X0109492Y0089322D01*
X0109498Y0089333D01*
X0109505Y0089348D01*
X0109513Y0089365D01*
X010952Y0089383D01*
X0109528Y0089406D01*
X0109535Y008943D01*
X0109542Y0089456D01*
X0109548Y0089485D01*
X0109554Y0089518D01*
X0109557Y0089552D01*
X0109561Y0089589D01*
Y008963D01*
Y0089631D01*
Y0089639D01*
Y008965D01*
X0109559Y0089665D01*
Y0089683D01*
X0109557Y0089704D01*
X0109554Y0089726D01*
X0109552Y0089752D01*
X0109542Y0089804D01*
X0109528Y0089855D01*
X0109507Y0089907D01*
X0109496Y008993D01*
X0109481Y008995D01*
Y0089952D01*
X0109478Y0089954D01*
X0109474Y0089959D01*
X0109466Y0089967D01*
X010945Y0089983D01*
X0109428Y0090004D01*
X0109398Y0090022D01*
X0109363Y0090039D01*
X0109342Y0090046D01*
X0109322Y0090052D01*
X01093Y0090054D01*
X0109278Y0090055D01*
D02*
G37*
G36*
X0108872Y0058841D02*
X0108561D01*
Y0058363D01*
X0108858D01*
X0108902Y0058366D01*
X0108947D01*
X0108991Y0058372D01*
X010903Y0058374D01*
X0109044Y0058377D01*
X0109058Y005838D01*
X0109061D01*
X0109069Y0058383D01*
X0109077Y0058388D01*
X0109091Y0058397D01*
X0109108Y0058408D01*
X0109122Y0058419D01*
X0109138Y0058435D01*
X0109152Y0058455D01*
X0109155Y0058458D01*
X0109158Y0058466D01*
X0109163Y0058477D01*
X0109172Y0058497D01*
X0109177Y0058516D01*
X0109183Y0058544D01*
X0109186Y0058571D01*
X0109188Y0058605D01*
Y0058608D01*
Y0058619D01*
X0109186Y0058635D01*
X0109183Y0058658D01*
X0109174Y0058705D01*
X0109163Y0058727D01*
X0109152Y0058749D01*
X0109149Y0058752D01*
X0109147Y0058757D01*
X0109138Y0058769D01*
X0109127Y005878D01*
X0109113Y0058791D01*
X0109097Y0058805D01*
X0109077Y0058816D01*
X0109055Y0058824D01*
X0109052D01*
X0109044Y0058827D01*
X010903Y005883D01*
X0109008Y0058832D01*
X0108991Y0058835D01*
X0108975D01*
X0108952Y0058838D01*
X0108902D01*
X0108872Y0058841D01*
D02*
G37*
%LPD*%
D10*
X0092945Y007912D02*
Y00867D01*
Y00635D02*
Y007912D01*
Y008674D02*
X00995D01*
X00965Y007875D02*
Y008675D01*
Y007125D02*
Y007925D01*
Y00635D02*
Y00715D01*
Y008293D02*
X00995D01*
Y008674D01*
Y007912D02*
Y008293D01*
X0092945Y007862D02*
X00995D01*
Y007531D02*
Y007912D01*
X00965Y007531D02*
X00995D01*
Y00715D02*
Y007531D01*
X0093Y00675D02*
X00995D01*
X0092945Y00635D02*
X00995D01*
Y00715D01*
X0093D02*
X00995D01*
D11*
X009475Y0085D02*
X009625D01*
X009475Y0081D02*
X009625D01*
X009475Y00835D02*
Y0085D01*
X0093689Y0082439D02*
X009475Y00835D01*
Y0081D02*
Y00825D01*
Y00735D02*
Y0075D01*
X0093689Y0074939D02*
X009475Y0076D01*
Y00775D01*
Y00735D02*
X009625D01*
X009475Y00775D02*
X009625D01*
X009475Y00645D02*
Y00665D01*
X009375Y00655D02*
X009575D01*
X009375Y00695D02*
X009575D01*
D12*
X0114677Y0062762D02*
Y0066362D01*
M02*
