G04*
G04 #@! TF.GenerationSoftware,Altium Limited,Altium Designer,20.1.8 (145)*
G04*
G04 Layer_Physical_Order=2*
G04 Layer_Color=16711680*
%FSTAX43Y43*%
%MOMM*%
G71*
G04*
G04 #@! TF.SameCoordinates,59881587-8D87-46A2-A81E-376F0E243C69*
G04*
G04*
G04 #@! TF.FilePolarity,Positive*
G04*
G01*
G75*
%ADD16C,1.350*%
%ADD17C,1.000*%
%ADD18C,8.000*%
G36*
X0100511Y0056446D02*
X0100784Y0056333D01*
X0101028Y0056169D01*
X0101237Y0055961D01*
X01014Y0055716D01*
X0101513Y0055444D01*
X0101571Y0055155D01*
Y0054855D01*
X0101513Y0054566D01*
X01014Y0054293D01*
X0101236Y0054047D01*
X0101027Y0053838D01*
X0100781Y0053674D01*
X0100508Y0053561D01*
X0100218Y0053503D01*
X0099917D01*
X0099628Y0053561D01*
X0099357Y0053673D01*
X0099112Y0053837D01*
X0098904Y0054045D01*
X0098741Y0054289D01*
X0098628Y0054561D01*
X0098571Y005485D01*
Y005515D01*
X0098628Y0055439D01*
X0098741Y0055711D01*
X0098904Y0055955D01*
X0099112Y0056163D01*
X0099357Y0056327D01*
X0099628Y0056439D01*
X0099917Y0056497D01*
X0100064Y0056497D01*
X0100075Y0056503D01*
Y0056503D01*
X0100223D01*
X0100511Y0056446D01*
D02*
G37*
G36*
Y0096446D02*
X0100784Y0096333D01*
X0101028Y0096169D01*
X0101237Y0095961D01*
X01014Y0095716D01*
X0101513Y0095444D01*
X0101571Y0095155D01*
Y0094855D01*
X0101513Y0094566D01*
X01014Y0094293D01*
X0101236Y0094047D01*
X0101027Y0093838D01*
X0100781Y0093674D01*
X0100508Y0093561D01*
X0100218Y0093503D01*
X0099917D01*
X0099628Y0093561D01*
X0099357Y0093673D01*
X0099112Y0093837D01*
X0098904Y0094045D01*
X0098741Y0094289D01*
X0098628Y0094561D01*
X0098571Y009485D01*
Y009515D01*
X0098628Y0095439D01*
X0098741Y0095711D01*
X0098904Y0095955D01*
X0099112Y0096163D01*
X0099357Y0096327D01*
X0099628Y0096439D01*
X0099917Y0096497D01*
X0100064Y0096497D01*
X0100075Y0096503D01*
Y0096503D01*
X0100223D01*
X0100511Y0096446D01*
D02*
G37*
D16*
X0091743Y0058504D02*
D03*
X0085755Y0064484D02*
D03*
D17*
X0114375Y0081525D02*
D03*
Y0087175D02*
D03*
X0100325Y0091525D02*
D03*
X0107475Y0063125D02*
D03*
X0112875Y0068888D02*
D03*
X0109825D02*
D03*
X0112875Y0060012D02*
D03*
X0109825D02*
D03*
X0106175Y0058325D02*
D03*
X0100325D02*
D03*
X0106175Y0091525D02*
D03*
D18*
X00835Y0075D02*
D03*
X01165D02*
D03*
M02*
