G04*
G04 #@! TF.GenerationSoftware,Altium Limited,Altium Designer,20.1.8 (145)*
G04*
G04 Layer_Physical_Order=2*
G04 Layer_Color=16711680*
%FSTAX43Y43*%
%MOMM*%
G71*
G04*
G04 #@! TF.SameCoordinates,8B20E40A-8CB9-48A9-811E-0C373115A3CC*
G04*
G04*
G04 #@! TF.FilePolarity,Positive*
G04*
G01*
G75*
%ADD19C,0.300*%
%ADD20C,0.500*%
%ADD21C,2.000*%
%ADD22C,1.000*%
%ADD23C,2.250*%
%ADD24C,0.600*%
G04:AMPARAMS|DCode=25|XSize=1.5mm|YSize=1mm|CornerRadius=0mm|HoleSize=0mm|Usage=FLASHONLY|Rotation=300.000|XOffset=0mm|YOffset=0mm|HoleType=Round|Shape=Rectangle|*
%AMROTATEDRECTD25*
4,1,4,-0.808,0.400,0.058,0.900,0.808,-0.400,-0.058,-0.900,-0.808,0.400,0.0*
%
%ADD25ROTATEDRECTD25*%

G36*
X0101134Y0112463D02*
X0101198Y0112423D01*
X0101272Y0112388D01*
X0101357Y0112358D01*
X0101452Y0112332D01*
X0101558Y0112312D01*
X0101675Y0112296D01*
X010194Y011228D01*
X0102089Y0112279D01*
X0101099Y0111289D01*
X0101098Y0111438D01*
X0101082Y0111703D01*
X0101066Y011182D01*
X0101046Y0111926D01*
X010102Y0112021D01*
X010099Y0112106D01*
X0100955Y011218D01*
X0100915Y0112244D01*
X010087Y0112296D01*
X0101082Y0112508D01*
X0101134Y0112463D01*
D02*
G37*
G36*
X0097885Y0110579D02*
X0097779Y0110684D01*
X009758Y0110859D01*
X0097486Y0110931D01*
X0097397Y0110992D01*
X0097311Y0111041D01*
X009723Y0111079D01*
X0097153Y0111107D01*
X0097079Y0111123D01*
X009701Y0111129D01*
Y0111429D01*
X0097079Y0111435D01*
X0097153Y0111451D01*
X009723Y0111479D01*
X0097311Y0111517D01*
X0097397Y0111566D01*
X0097486Y0111627D01*
X009758Y0111699D01*
X0097779Y0111874D01*
X0097885Y0111979D01*
Y0110579D01*
D02*
G37*
G36*
X010737Y011802D02*
X010865Y0117859D01*
X0109917Y0117619D01*
X0111167Y0117299D01*
X0112394Y0116902D01*
X0113593Y0116428D01*
X0114761Y011588D01*
X0115892Y011526D01*
X0116982Y011457D01*
X0118026Y0113814D01*
X0119021Y0112993D01*
X0119962Y0112111D01*
X0120847Y0111173D01*
X0121428Y0110473D01*
X0121367Y0110347D01*
X0121236Y011033D01*
X0121066Y0110259D01*
X0120919Y0110147D01*
X0120862Y0110073D01*
X0120705D01*
X0120648Y0110147D01*
X0120502Y0110259D01*
X0120331Y011033D01*
X0120149Y0110354D01*
X0119966Y011033D01*
X0119796Y0110259D01*
X0119649Y0110147D01*
X0119537Y0110001D01*
X0119467Y010983D01*
X0119443Y0109648D01*
X0119467Y0109465D01*
X0119537Y0109295D01*
X0119649Y0109148D01*
X0119724Y0109091D01*
Y0108934D01*
X0119649Y0108877D01*
X0119537Y0108731D01*
X0119467Y010856D01*
X0119443Y0108378D01*
X0119467Y0108195D01*
X0119537Y0108025D01*
X0119649Y0107878D01*
X0119724Y0107821D01*
Y0107664D01*
X0119649Y0107607D01*
X011964Y0107595D01*
X0119615Y0107571D01*
X0119585Y0107546D01*
X0119556Y0107524D01*
X0119528Y0107506D01*
X0119501Y0107492D01*
X0119475Y0107481D01*
X0119449Y0107472D01*
X0119423Y0107467D01*
X0119409Y0107465D01*
X0117793D01*
X0116451Y0108806D01*
X0116336Y0108884D01*
X0116199Y0108911D01*
X0107832D01*
X0107826Y0108912D01*
X0107812Y0108914D01*
X010781Y0108914D01*
X0107809Y0108914D01*
X0107644Y0109025D01*
X0107449Y0109064D01*
X0107254Y0109025D01*
X0107089Y0108914D01*
X0106978Y0108749D01*
X0106939Y0108554D01*
X0106978Y0108359D01*
X0107089Y0108194D01*
X0107254Y0108083D01*
X0107449Y0108044D01*
X0107644Y0108083D01*
X0107809Y0108194D01*
X010781Y0108194D01*
X0107812Y0108194D01*
X0107823Y0108196D01*
X0107837Y0108197D01*
X0116051D01*
X0117393Y0106855D01*
X0117509Y0106778D01*
X0117645Y0106751D01*
X0119409D01*
X0119423Y0106749D01*
X0119449Y0106743D01*
X0119475Y0106735D01*
X0119501Y0106723D01*
X0119528Y0106709D01*
X0119556Y0106691D01*
X0119585Y010667D01*
X0119615Y0106644D01*
X011964Y010662D01*
X0119649Y0106608D01*
X0119796Y0106496D01*
X0119966Y0106426D01*
X0120149Y0106402D01*
X0120331Y0106426D01*
X0120502Y0106496D01*
X0120648Y0106608D01*
X0120705Y0106683D01*
X0120862D01*
X0120919Y0106608D01*
X0121066Y0106496D01*
X0121236Y0106426D01*
X0121419Y0106402D01*
X0121601Y0106426D01*
X0121772Y0106496D01*
X0121918Y0106608D01*
X012203Y0106755D01*
X0122101Y0106925D01*
X0122125Y0107108D01*
X0122101Y010729D01*
X012203Y0107461D01*
X0121918Y0107607D01*
X0121844Y0107664D01*
Y0107821D01*
X0121918Y0107878D01*
X012203Y0108025D01*
X0122101Y0108195D01*
X0122125Y0108378D01*
X0122101Y010856D01*
X012203Y0108731D01*
X0121918Y0108877D01*
X0121844Y0108934D01*
Y0109091D01*
X0121918Y0109148D01*
X012203Y0109295D01*
X0122077Y0109407D01*
X0122218Y0109429D01*
X012243Y0109138D01*
X0122745Y0108644D01*
Y0105258D01*
X0118199D01*
X0118194Y0105257D01*
X0118189Y0105258D01*
X0118091Y0105253D01*
X0118076Y0105249D01*
X0118061D01*
X0117869Y0105211D01*
X011785Y0105203D01*
X0117831Y0105199D01*
X011765Y0105124D01*
X0117633Y0105113D01*
X0117614Y0105105D01*
X0117451Y0104997D01*
X0117437Y0104982D01*
X011742Y0104971D01*
X0117282Y0104833D01*
X0117271Y0104816D01*
X0117256Y0104802D01*
X0117148Y0104639D01*
X011714Y010462D01*
X0117129Y0104603D01*
X0117054Y0104422D01*
X011705Y0104403D01*
X0117042Y0104384D01*
X0117004Y0104192D01*
Y0104177D01*
X0117Y0104162D01*
X0116995Y0104064D01*
X0116996Y0104059D01*
X0116995Y0104054D01*
Y0093554D01*
X0116996Y0093549D01*
X0116995Y0093544D01*
X0117Y0093446D01*
X0117004Y0093431D01*
Y0093416D01*
X0117042Y0093224D01*
X011705Y0093205D01*
X0117054Y0093186D01*
X0117129Y0093005D01*
X011714Y0092988D01*
X0117148Y0092969D01*
X0117256Y0092806D01*
X0117271Y0092792D01*
X0117282Y0092775D01*
X011742Y0092637D01*
X0117437Y0092626D01*
X0117451Y0092611D01*
X0117614Y0092503D01*
X0117633Y0092495D01*
X011765Y0092484D01*
X0117831Y0092409D01*
X011785Y0092405D01*
X0117869Y0092397D01*
X0117905Y009239D01*
X0117893Y0092263D01*
X0115699D01*
X0115523Y0092228D01*
X0115375Y0092128D01*
X010695Y0083703D01*
X010685Y0083555D01*
X0106815Y0083379D01*
Y0083266D01*
X0106811Y0083228D01*
X0106804Y0083194D01*
X0106798Y0083169D01*
X0106792Y0083154D01*
X010679Y0083152D01*
X0106669Y0083102D01*
X0106418Y008291D01*
X0106226Y0082659D01*
X0106105Y0082367D01*
X0106064Y0082054D01*
X0106105Y0081741D01*
X0106226Y0081449D01*
X0106418Y0081198D01*
X0106669Y0081006D01*
X0106961Y0080885D01*
X0107274Y0080844D01*
X0107587Y0080885D01*
X0107879Y0081006D01*
X010813Y0081198D01*
X0108322Y0081449D01*
X0108443Y0081741D01*
X0108484Y0082054D01*
X0108443Y0082367D01*
X0108322Y0082659D01*
X010813Y008291D01*
X0107879Y0083102D01*
X0107841Y0083118D01*
X0107812Y0083268D01*
X0115889Y0091345D01*
X0119699D01*
X0119742Y0091218D01*
X0119649Y0091147D01*
X0119537Y0091001D01*
X0119467Y009083D01*
X0119443Y0090648D01*
X0119467Y0090465D01*
X0119537Y0090295D01*
X0119649Y0090148D01*
X0119678Y0090127D01*
Y0090028D01*
X0120239Y0089468D01*
X0120149Y0089378D01*
X0120239Y0089288D01*
X0119678Y0088727D01*
Y0088629D01*
X0119649Y0088607D01*
X0119537Y0088461D01*
X0119467Y008829D01*
X0119443Y0088108D01*
X0119467Y0087925D01*
X0119537Y0087755D01*
X0119649Y0087608D01*
X011968Y0087585D01*
X0119637Y0087458D01*
X0118149D01*
X0118144Y0087457D01*
X0118139Y0087458D01*
X0118041Y0087453D01*
X0118026Y0087449D01*
X0118011D01*
X0117819Y0087411D01*
X01178Y0087403D01*
X0117781Y0087399D01*
X01176Y0087324D01*
X0117583Y0087313D01*
X0117564Y0087305D01*
X0117401Y0087197D01*
X0117387Y0087182D01*
X011737Y0087171D01*
X0117232Y0087033D01*
X0117221Y0087016D01*
X0117206Y0087002D01*
X0117098Y0086839D01*
X011709Y008682D01*
X0117079Y0086803D01*
X0117004Y0086622D01*
X0117Y0086603D01*
X0116992Y0086584D01*
X0116954Y0086392D01*
Y0086377D01*
X011695Y0086362D01*
X0116945Y0086264D01*
X0116946Y0086259D01*
X0116945Y0086254D01*
Y0080525D01*
X0116525Y0080238D01*
X0115468Y0079606D01*
X0114375Y0079038D01*
X011325Y0078536D01*
X0112097Y0078103D01*
X011092Y007774D01*
X0109723Y0077448D01*
X0108511Y0077228D01*
X0107288Y0077081D01*
X0106058Y0077008D01*
X0104826Y0077008D01*
X0103597Y0077082D01*
X0102374Y007723D01*
X0101162Y0077451D01*
X0099965Y0077744D01*
X0098788Y0078108D01*
X0097635Y0078542D01*
X0096511Y0079044D01*
X0095418Y0079613D01*
X0094361Y0080246D01*
X0093941Y0080533D01*
Y0086262D01*
X009394Y0086267D01*
X0093941Y0086272D01*
X0093936Y008637D01*
X0093933Y0086385D01*
Y00864D01*
X0093894Y0086592D01*
X0093887Y0086611D01*
X0093883Y008663D01*
X0093808Y0086811D01*
X0093797Y0086828D01*
X0093789Y0086847D01*
X009368Y008701D01*
X0093666Y0087024D01*
X0093655Y008704D01*
X0093516Y0087179D01*
X0093499Y008719D01*
X0093485Y0087204D01*
X0093322Y0087313D01*
X0093304Y0087321D01*
X0093287Y0087332D01*
X0093106Y0087407D01*
X0093086Y0087411D01*
X0093068Y0087419D01*
X0092875Y0087457D01*
X009286D01*
X0092846Y0087461D01*
X0092748Y0087466D01*
X0092743Y0087465D01*
X0092738Y0087466D01*
X0091271D01*
X0091228Y0087593D01*
X0091248Y0087608D01*
X0091257Y008762D01*
X0091282Y0087644D01*
X0091312Y008767D01*
X0091341Y0087691D01*
X0091369Y0087709D01*
X0091396Y0087723D01*
X0091423Y0087735D01*
X0091449Y0087743D01*
X0091474Y0087749D01*
X0091488Y0087751D01*
X0094304D01*
X0094441Y0087778D01*
X0094557Y0087855D01*
X0095998Y0089296D01*
X0096123Y008928D01*
X0096268Y008903D01*
X009748Y008973D01*
X009653Y0091375D01*
X0095318Y0090675D01*
X0095702Y009001D01*
X0094156Y0088465D01*
X0091488D01*
X0091474Y0088467D01*
X0091449Y0088472D01*
X0091423Y0088481D01*
X0091396Y0088492D01*
X0091369Y0088506D01*
X0091341Y0088524D01*
X0091312Y0088546D01*
X0091282Y0088571D01*
X0091257Y0088595D01*
X0091248Y0088607D01*
X009122Y0088629D01*
Y0088727D01*
X0090659Y0089288D01*
X0090749Y0089378D01*
X0090659Y0089468D01*
X009122Y0090028D01*
Y0090127D01*
X0091248Y0090148D01*
X009136Y0090295D01*
X0091431Y0090465D01*
X0091455Y0090648D01*
X0091431Y009083D01*
X009136Y0091001D01*
X0091248Y0091147D01*
X0091102Y0091259D01*
X0090931Y009133D01*
X0090749Y0091354D01*
X0090566Y009133D01*
X0090396Y0091259D01*
X0090249Y0091147D01*
X0090192Y0091073D01*
X0090035D01*
X0089978Y0091147D01*
X0089832Y0091259D01*
X0089661Y009133D01*
X0089479Y0091354D01*
X0089296Y009133D01*
X0089126Y0091259D01*
X0088979Y0091147D01*
X0088867Y0091001D01*
X0088797Y009083D01*
X0088773Y0090648D01*
X0088797Y0090465D01*
X0088867Y0090295D01*
X0088979Y0090148D01*
X0089054Y0090091D01*
Y0089934D01*
X0088979Y0089877D01*
X0088867Y0089731D01*
X0088797Y008956D01*
X0088773Y0089378D01*
X0088797Y0089195D01*
X0088867Y0089025D01*
X0088979Y0088878D01*
X0089054Y0088821D01*
Y0088664D01*
X0088979Y0088607D01*
X0088867Y0088461D01*
X0088797Y008829D01*
X0088773Y0088108D01*
X0088797Y0087925D01*
X0088867Y0087755D01*
X0088979Y0087608D01*
X0089Y0087593D01*
X0088957Y0087466D01*
X0088141D01*
Y009235D01*
X0092699D01*
X0092704Y0092351D01*
X0092709Y009235D01*
X0092807Y0092355D01*
X0092822Y0092359D01*
X0092837D01*
X0093029Y0092397D01*
X0093048Y0092405D01*
X0093067Y0092409D01*
X0093248Y0092484D01*
X0093265Y0092495D01*
X0093284Y0092503D01*
X0093447Y0092611D01*
X0093461Y0092626D01*
X0093478Y0092637D01*
X0093616Y0092775D01*
X0093627Y0092792D01*
X0093642Y0092806D01*
X009375Y0092969D01*
X0093758Y0092988D01*
X0093769Y0093005D01*
X0093844Y0093186D01*
X0093848Y0093205D01*
X0093856Y0093224D01*
X0093894Y0093416D01*
Y0093431D01*
X0093898Y0093446D01*
X0093903Y0093544D01*
X0093902Y0093549D01*
X0093903Y0093554D01*
Y0104054D01*
X0093902Y0104059D01*
X0093903Y0104064D01*
X0093898Y0104162D01*
X0093894Y0104177D01*
Y0104192D01*
X0093856Y0104384D01*
X0093848Y0104403D01*
X0093844Y0104422D01*
X0093769Y0104603D01*
X0093758Y010462D01*
X009375Y0104639D01*
X0093642Y0104802D01*
X0093627Y0104816D01*
X0093616Y0104833D01*
X0093478Y0104971D01*
X0093461Y0104982D01*
X0093447Y0104997D01*
X0093284Y0105105D01*
X0093265Y0105113D01*
X0093248Y0105124D01*
X0093067Y0105199D01*
X0093048Y0105203D01*
X0093029Y0105211D01*
X0092837Y0105249D01*
X0092822D01*
X0092807Y0105253D01*
X0092709Y0105258D01*
X0092704Y0105257D01*
X0092699Y0105258D01*
X0088141D01*
Y0108626D01*
X0088456Y010912D01*
X0088679Y0109428D01*
X0088821Y0109407D01*
X0088867Y0109295D01*
X0088979Y0109148D01*
X0089054Y0109091D01*
Y0108934D01*
X0088979Y0108877D01*
X0088867Y0108731D01*
X0088797Y010856D01*
X0088773Y0108378D01*
X0088797Y0108195D01*
X0088867Y0108025D01*
X0088979Y0107878D01*
X0089054Y0107821D01*
Y0107664D01*
X0088979Y0107607D01*
X0088867Y0107461D01*
X0088797Y010729D01*
X0088773Y0107108D01*
X0088797Y0106925D01*
X0088867Y0106755D01*
X0088979Y0106608D01*
X0088991Y01066D01*
X0089015Y0106574D01*
X0089041Y0106544D01*
X0089062Y0106515D01*
X008908Y0106487D01*
X0089094Y010646D01*
X0089106Y0106434D01*
X0089114Y0106408D01*
X008912Y0106382D01*
X0089122Y0106368D01*
Y0106105D01*
X0089149Y0105968D01*
X0089226Y0105852D01*
X0089402Y0105677D01*
X0089518Y0105599D01*
X0089654Y0105572D01*
X0091174D01*
X0091311Y0105599D01*
X0091426Y0105677D01*
X0096672Y0110922D01*
X0097039D01*
X0097049Y0110921D01*
X0097096Y0110911D01*
X0097152Y0110891D01*
X0097216Y011086D01*
X0097288Y0110819D01*
X0097367Y0110765D01*
X009745Y0110702D01*
X009764Y0110534D01*
X0097714Y0110461D01*
X0097743Y0110423D01*
X0097994Y0110231D01*
X0098286Y011011D01*
X0098599Y0110069D01*
X0098912Y011011D01*
X0099204Y0110231D01*
X0099455Y0110423D01*
X0099647Y0110674D01*
X0099768Y0110966D01*
X0099809Y0111279D01*
X0099768Y0111592D01*
X0099647Y0111884D01*
X0099455Y0112135D01*
X0099204Y0112327D01*
X0098912Y0112448D01*
X0098599Y0112489D01*
X0098286Y0112448D01*
X0097994Y0112327D01*
X0097743Y0112135D01*
X0097714Y0112097D01*
X009764Y0112024D01*
X009745Y0111856D01*
X0097367Y0111793D01*
X0097288Y0111739D01*
X0097216Y0111698D01*
X0097152Y0111667D01*
X0097096Y0111647D01*
X0097049Y0111637D01*
X0097039Y0111636D01*
X0096524D01*
X0096387Y0111609D01*
X0096272Y0111531D01*
X0091499Y0106759D01*
X0091392Y0106831D01*
X0091431Y0106925D01*
X0091455Y0107108D01*
X0091431Y010729D01*
X009136Y0107461D01*
X0091248Y0107607D01*
X009122Y0107629D01*
Y0107727D01*
X0090659Y0108288D01*
X0090749Y0108378D01*
X0090659Y0108468D01*
X009122Y0109028D01*
Y0109127D01*
X0091248Y0109148D01*
X009136Y0109295D01*
X0091431Y0109465D01*
X0091455Y0109648D01*
X0091431Y010983D01*
X009136Y0110001D01*
X0091248Y0110147D01*
X0091102Y0110259D01*
X0090931Y011033D01*
X0090867Y0110338D01*
X0090822Y0110472D01*
X0093847Y0113497D01*
X0099376D01*
X0100347Y0112527D01*
X0100347Y0112527D01*
X0100744Y011213D01*
X010075Y0112122D01*
X0100776Y0112082D01*
X0100801Y0112028D01*
X0100825Y0111961D01*
X0100847Y011188D01*
X0100865Y0111787D01*
X0100879Y0111683D01*
X0100894Y0111431D01*
X0100895Y0111327D01*
X0100889Y0111279D01*
X010093Y0110966D01*
X0101051Y0110674D01*
X0101243Y0110423D01*
X0101494Y0110231D01*
X0101786Y011011D01*
X0102099Y0110069D01*
X0102412Y011011D01*
X0102704Y0110231D01*
X0102955Y0110423D01*
X0103147Y0110674D01*
X0103268Y0110966D01*
X0103309Y0111279D01*
X0103268Y0111592D01*
X0103147Y0111884D01*
X0102955Y0112135D01*
X0102704Y0112327D01*
X0102412Y0112448D01*
X0102099Y0112489D01*
X0102051Y0112483D01*
X0101947Y0112484D01*
X0101695Y0112499D01*
X0101591Y0112513D01*
X0101498Y0112531D01*
X0101417Y0112553D01*
X010135Y0112577D01*
X0101296Y0112602D01*
X0101256Y0112628D01*
X0101248Y0112634D01*
X0100851Y0113031D01*
X0100851Y0113031D01*
X0099776Y0114106D01*
X0099661Y0114184D01*
X0099524Y0114211D01*
X0093699D01*
X0093613Y0114194D01*
X0093561Y0114313D01*
X0093899Y0114558D01*
X0094988Y0115249D01*
X0096118Y011587D01*
X0097285Y011642D01*
X0098484Y0116894D01*
X0099711Y0117293D01*
X010096Y0117614D01*
X0102227Y0117856D01*
X0103506Y0118018D01*
X0104793Y01181D01*
X0106083Y01181D01*
X010737Y011802D01*
D02*
G37*
G36*
X0090139Y0110082D02*
X0090109Y0110049D01*
X0090082Y0110014D01*
X0090058Y0109976D01*
X0090038Y0109936D01*
X009002Y0109893D01*
X0090006Y0109848D01*
X0089994Y0109801D01*
X0089986Y010975D01*
X0089981Y0109698D01*
X0089979Y0109643D01*
X0089494Y0110148D01*
X0089548Y0110148D01*
X00896Y0110151D01*
X008965Y0110158D01*
X0089697Y0110168D01*
X0089742Y0110181D01*
X0089785Y0110198D01*
X0089825Y0110218D01*
X0089863Y0110241D01*
X0089898Y0110268D01*
X0089931Y0110298D01*
X0090139Y0110082D01*
D02*
G37*
G36*
X0107676Y0108753D02*
X0107691Y0108742D01*
X0107708Y0108733D01*
X0107728Y0108726D01*
X0107749Y0108719D01*
X0107773Y0108714D01*
X0107798Y0108709D01*
X0107826Y0108706D01*
X0107889Y0108704D01*
Y0108404D01*
X0107857Y0108403D01*
X0107798Y0108399D01*
X0107773Y0108394D01*
X0107749Y0108389D01*
X0107728Y0108382D01*
X0107708Y0108375D01*
X0107691Y0108366D01*
X0107676Y0108355D01*
X0107663Y0108344D01*
Y0108764D01*
X0107676Y0108753D01*
D02*
G37*
G36*
X0119792Y0106758D02*
X0119752Y0106796D01*
X0119712Y010683D01*
X0119672Y010686D01*
X011963Y0106886D01*
X0119589Y0106908D01*
X0119546Y0106926D01*
X0119504Y010694D01*
X011946Y010695D01*
X0119416Y0106956D01*
X0119372Y0106958D01*
Y0107258D01*
X0119416Y010726D01*
X011946Y0107266D01*
X0119504Y0107276D01*
X0119546Y010729D01*
X0119589Y0107308D01*
X011963Y010733D01*
X0119672Y0107356D01*
X0119712Y0107386D01*
X0119752Y010742D01*
X0119792Y0107458D01*
Y0106758D01*
D02*
G37*
G36*
X0089791Y0106711D02*
X0089757Y0106671D01*
X0089727Y0106631D01*
X0089701Y0106589D01*
X0089679Y0106548D01*
X0089661Y0106505D01*
X0089647Y0106463D01*
X0089637Y0106419D01*
X0089631Y0106375D01*
X0089629Y0106331D01*
X0089329D01*
X0089327Y0106375D01*
X0089321Y0106419D01*
X0089311Y0106463D01*
X0089297Y0106505D01*
X0089279Y0106548D01*
X0089257Y0106589D01*
X0089231Y0106631D01*
X0089201Y0106671D01*
X0089167Y0106711D01*
X0089129Y0106751D01*
X0089829D01*
X0089791Y0106711D01*
D02*
G37*
G36*
X0091145Y008842D02*
X0091185Y0088386D01*
X0091226Y0088356D01*
X0091267Y008833D01*
X0091309Y0088308D01*
X0091351Y008829D01*
X0091394Y0088276D01*
X0091437Y0088266D01*
X0091481Y008826D01*
X0091526Y0088258D01*
Y0087958D01*
X0091481Y0087956D01*
X0091437Y008795D01*
X0091394Y008794D01*
X0091351Y0087926D01*
X0091309Y0087908D01*
X0091267Y0087886D01*
X0091226Y008786D01*
X0091185Y008783D01*
X0091145Y0087796D01*
X0091106Y0087758D01*
Y0088458D01*
X0091145Y008842D01*
D02*
G37*
G36*
X0107525Y0083313D02*
X0107536Y0083197D01*
X0107545Y0083149D01*
X0107556Y0083106D01*
X0107571Y0083069D01*
X0107587Y0083038D01*
X0107607Y0083012D01*
X0107629Y0082993D01*
X0107653Y0082979D01*
X0106895D01*
X0106919Y0082993D01*
X0106941Y0083012D01*
X0106961Y0083038D01*
X0106978Y0083069D01*
X0106992Y0083106D01*
X0107003Y0083149D01*
X0107012Y0083197D01*
X0107019Y0083252D01*
X0107023Y0083313D01*
X0107024Y0083379D01*
X0107524D01*
X0107525Y0083313D01*
D02*
G37*
%LPC*%
G36*
X0091364Y0108814D02*
X0090928Y0108378D01*
X0091364Y0107942D01*
X0091407Y0107997D01*
X0091483Y0108181D01*
X0091509Y0108378D01*
X0091483Y0108575D01*
X0091407Y0108758D01*
X0091364Y0108814D01*
D02*
G37*
G36*
Y0089814D02*
X0090928Y0089378D01*
X0091364Y0088942D01*
X0091407Y0088997D01*
X0091483Y0089181D01*
X0091509Y0089378D01*
X0091483Y0089575D01*
X0091407Y0089758D01*
X0091364Y0089814D01*
D02*
G37*
G36*
X0119533Y0089814D02*
X011949Y0089758D01*
X0119414Y0089575D01*
X0119388Y0089378D01*
X0119414Y0089181D01*
X011949Y0088997D01*
X0119533Y0088942D01*
X0119969Y0089378D01*
X0119533Y0089814D01*
D02*
G37*
G36*
X0097661Y0089352D02*
X0097316Y0089307D01*
X0096993Y0089173D01*
X0096716Y0088961D01*
X0096504Y0088684D01*
X0096371Y0088362D01*
X0096325Y0088016D01*
X0096371Y008767D01*
X0096504Y0087348D01*
X0096716Y0087071D01*
X0096993Y0086858D01*
X0097316Y0086725D01*
X0097661Y0086679D01*
X0098007Y0086725D01*
X009833Y0086858D01*
X0098606Y0087071D01*
X0098819Y0087348D01*
X0098952Y008767D01*
X0098998Y0088016D01*
X0098952Y0088362D01*
X0098819Y0088684D01*
X0098606Y0088961D01*
X009833Y0089173D01*
X0098007Y0089307D01*
X0097661Y0089352D01*
D02*
G37*
G36*
X0098919Y0086986D02*
X0097925Y0086411D01*
X0098709Y0086201D01*
X0098919Y0086986D01*
D02*
G37*
G36*
X0099165Y008692D02*
X0098922Y0086013D01*
X0098799Y0086046D01*
X0098766Y0085923D01*
X0097859Y0086166D01*
X0098683Y0084738D01*
X0098926Y0085645D01*
X0099049Y0085612D01*
X0099082Y0085735D01*
X0099989Y0085492D01*
X0099165Y008692D01*
D02*
G37*
G36*
X0099139Y0085457D02*
X0098929Y0084672D01*
X0099923Y0085247D01*
X0099139Y0085457D01*
D02*
G37*
G36*
X0103774Y0083319D02*
X0103447Y0083276D01*
X0103142Y0083149D01*
X0102981Y0083026D01*
X0103774Y0082234D01*
X0104567Y0083026D01*
X0104406Y0083149D01*
X0104101Y0083276D01*
X0103774Y0083319D01*
D02*
G37*
G36*
X0102802Y0082847D02*
X0102679Y0082686D01*
X0102552Y0082381D01*
X0102509Y0082054D01*
X0102552Y0081727D01*
X0102679Y0081422D01*
X0102802Y0081261D01*
X0103594Y0082054D01*
X0102802Y0082847D01*
D02*
G37*
G36*
X0104746Y0082847D02*
X0103954Y0082054D01*
X0104746Y0081261D01*
X0104869Y0081422D01*
X0104996Y0081727D01*
X0105039Y0082054D01*
X0104996Y0082381D01*
X0104869Y0082686D01*
X0104746Y0082847D01*
D02*
G37*
G36*
X0110774Y0083264D02*
X0110461Y0083223D01*
X0110169Y0083102D01*
X0109918Y008291D01*
X0109726Y0082659D01*
X0109605Y0082367D01*
X0109564Y0082054D01*
X0109605Y0081741D01*
X0109726Y0081449D01*
X0109918Y0081198D01*
X0110169Y0081006D01*
X0110461Y0080885D01*
X0110774Y0080844D01*
X0111087Y0080885D01*
X0111379Y0081006D01*
X011163Y0081198D01*
X0111822Y0081449D01*
X0111943Y0081741D01*
X0111984Y0082054D01*
X0111943Y0082367D01*
X0111822Y0082659D01*
X011163Y008291D01*
X0111379Y0083102D01*
X0111087Y0083223D01*
X0110774Y0083264D01*
D02*
G37*
G36*
X0100274D02*
X0099961Y0083223D01*
X0099669Y0083102D01*
X0099418Y008291D01*
X0099226Y0082659D01*
X0099105Y0082367D01*
X0099064Y0082054D01*
X0099105Y0081741D01*
X0099226Y0081449D01*
X0099418Y0081198D01*
X0099669Y0081006D01*
X0099961Y0080885D01*
X0100274Y0080844D01*
X0100587Y0080885D01*
X0100879Y0081006D01*
X010113Y0081198D01*
X0101322Y0081449D01*
X0101443Y0081741D01*
X0101484Y0082054D01*
X0101443Y0082367D01*
X0101322Y0082659D01*
X010113Y008291D01*
X0100879Y0083102D01*
X0100587Y0083223D01*
X0100274Y0083264D01*
D02*
G37*
G36*
X0103774Y0081874D02*
X0102981Y0081082D01*
X0103142Y0080959D01*
X0103447Y0080832D01*
X0103774Y0080789D01*
X0104101Y0080832D01*
X0104406Y0080959D01*
X0104567Y0081082D01*
X0103774Y0081874D01*
D02*
G37*
%LPD*%
D19*
X0089479Y0109648D02*
X0089493D01*
X0093699Y0113854D02*
X0099524D01*
X0089493Y0109648D02*
X0093699Y0113854D01*
X0100599Y0112779D02*
Y0112779D01*
X0099524Y0113854D02*
X0100599Y0112779D01*
X0096524Y0111279D02*
X0098599D01*
X0089654Y0105929D02*
X0091174D01*
X0096524Y0111279D01*
X0089479Y0106105D02*
X0089654Y0105929D01*
X0089479Y0106105D02*
Y0107108D01*
X0100599Y0112779D02*
X0102099Y0111279D01*
X0090749Y0088108D02*
X0094304D01*
X0096399Y0090202D01*
X0116199Y0108554D02*
X0117645Y0107108D01*
X0120149D01*
X0107449Y0108554D02*
X0116199D01*
D20*
X0107274Y0081604D02*
Y0083379D01*
X0115699Y0091804D01*
X0121949D01*
X0122449Y0088554D02*
Y0091304D01*
X0121419Y0088108D02*
X0121485Y0088174D01*
X0122069D01*
X0122449Y0088554D01*
X0121949Y0091804D02*
X0122449Y0091304D01*
D21*
X0098599Y0111279D02*
D03*
X0102099D02*
D03*
X0103774Y0082054D02*
D03*
X0100274D02*
D03*
X0107274D02*
D03*
X0110774D02*
D03*
D22*
X0089479Y0090648D02*
D03*
X0090749D02*
D03*
X0089479Y0089378D02*
D03*
X0090749D02*
D03*
X0089479Y0088108D02*
D03*
X0090749D02*
D03*
X0089479Y0109648D02*
D03*
X0090749D02*
D03*
X0089479Y0108378D02*
D03*
X0090749D02*
D03*
X0089479Y0107108D02*
D03*
X0090749D02*
D03*
X0120149Y0090648D02*
D03*
X0121419D02*
D03*
X0120149Y0089378D02*
D03*
X0121419D02*
D03*
X0120149Y0088108D02*
D03*
X0121419D02*
D03*
X0120149Y0109648D02*
D03*
X0121419D02*
D03*
X0120149Y0108378D02*
D03*
X0121419D02*
D03*
X0120149Y0107108D02*
D03*
X0121419D02*
D03*
D23*
X0097661Y0088016D02*
D03*
D24*
X0107449Y0108554D02*
D03*
D25*
X0096399Y0090202D02*
D03*
X0098924Y0085829D02*
D03*
M02*
