M48
;Layer_Color=9474304
;FILE_FORMAT=4:3
METRIC,LZ
;TYPE=PLATED
T1F00S00C0.300
T2F00S00C0.650
T3F00S00C1.100
;TYPE=NON_PLATED
T4F00S00C2.250
%
T01
X0107449Y0108554
T02
X0089479Y0088108
Y0089378
Y0090648
X0090749
Y0089378
Y0088108
Y0107108
Y0108378
Y0109648
X0089479
Y0108378
Y0107108
X0120149
Y0108378
Y0109648
X0121419
Y0108378
Y0107108
Y0090648
X0120149
Y0089378
X0121419
Y0088108
X0120149
T03
X0100274Y0082054
X0103774
X0107274
X0110774
X0102099Y0111279
X0098599
T04
X0097661Y0088016
M30
