G04*
G04 #@! TF.GenerationSoftware,Altium Limited,Altium Designer,20.1.8 (145)*
G04*
G04 Layer_Physical_Order=1*
G04 Layer_Color=255*
%FSTAX43Y43*%
%MOMM*%
G71*
G04*
G04 #@! TF.SameCoordinates,8B20E40A-8CB9-48A9-811E-0C373115A3CC*
G04*
G04*
G04 #@! TF.FilePolarity,Positive*
G04*
G01*
G75*
%ADD18R,1.130X2.440*%
%ADD19C,0.300*%
%ADD20C,0.500*%
%ADD21C,2.000*%
%ADD22C,1.000*%
%ADD23C,2.250*%
%ADD24C,0.600*%
G36*
X010737Y011802D02*
X010865Y0117859D01*
X0109917Y0117619D01*
X0111167Y0117299D01*
X0112394Y0116902D01*
X0113593Y0116428D01*
X0114761Y011588D01*
X0115892Y011526D01*
X0116982Y011457D01*
X0118026Y0113814D01*
X0119021Y0112993D01*
X0119962Y0112111D01*
X0120847Y0111173D01*
X0121428Y0110473D01*
X0121367Y0110347D01*
X0121236Y011033D01*
X0121066Y0110259D01*
X0120919Y0110147D01*
X0120862Y0110073D01*
X0120705D01*
X0120648Y0110147D01*
X0120502Y0110259D01*
X0120331Y011033D01*
X0120149Y0110354D01*
X0119966Y011033D01*
X0119796Y0110259D01*
X0119649Y0110147D01*
X0119537Y0110001D01*
X0119467Y010983D01*
X0119443Y0109648D01*
X0119467Y0109465D01*
X0119537Y0109295D01*
X0119649Y0109148D01*
X0119724Y0109091D01*
Y0108934D01*
X0119649Y0108877D01*
X011964Y0108865D01*
X0119615Y0108841D01*
X0119585Y0108816D01*
X0119556Y0108794D01*
X0119528Y0108776D01*
X0119501Y0108762D01*
X0119475Y0108751D01*
X0119449Y0108742D01*
X0119423Y0108737D01*
X0119409Y0108735D01*
X011209D01*
X0111953Y0108707D01*
X0111837Y010863D01*
X0111662Y0108454D01*
X0111584Y0108339D01*
X0111557Y0108202D01*
Y0107606D01*
X0111556Y0107587D01*
X0111553Y0107574D01*
X0111149D01*
Y0104734D01*
X0112679D01*
Y0107574D01*
X0112275D01*
X0112272Y0107587D01*
X0112271Y0107606D01*
Y0108021D01*
X0119409D01*
X0119423Y0108019D01*
X0119449Y0108013D01*
X0119475Y0108005D01*
X0119501Y0107993D01*
X0119528Y0107979D01*
X0119556Y0107961D01*
X0119585Y010794D01*
X0119615Y0107914D01*
X011964Y010789D01*
X0119649Y0107878D01*
X0119724Y0107821D01*
Y0107664D01*
X0119649Y0107607D01*
X0119537Y0107461D01*
X0119467Y010729D01*
X0119443Y0107108D01*
X0119467Y0106925D01*
X0119537Y0106755D01*
X0119649Y0106608D01*
X0119796Y0106496D01*
X0119966Y0106426D01*
X0120149Y0106402D01*
X0120331Y0106426D01*
X0120502Y0106496D01*
X0120648Y0106608D01*
X0120705Y0106683D01*
X0120862D01*
X0120919Y0106608D01*
X0121066Y0106496D01*
X0121236Y0106426D01*
X0121419Y0106402D01*
X0121601Y0106426D01*
X0121772Y0106496D01*
X0121918Y0106608D01*
X0121965Y010667D01*
X0122092Y0106627D01*
Y0106161D01*
X0115949D01*
X0115812Y0106134D01*
X0115697Y0106056D01*
X0114051Y0104411D01*
X0109847D01*
X0109731Y0104527D01*
Y0104701D01*
X0109732Y0104719D01*
X0109735Y0104734D01*
X0110139D01*
Y0107574D01*
X0108609D01*
Y0104734D01*
X0109013D01*
X0109016Y0104719D01*
X0109017Y0104701D01*
Y0104379D01*
X0109044Y0104242D01*
X0109122Y0104127D01*
X0109447Y0103802D01*
X0109562Y0103724D01*
X0109699Y0103697D01*
X0114199D01*
X0114336Y0103724D01*
X0114451Y0103802D01*
X0116097Y0105447D01*
X0122273D01*
X012241Y0105474D01*
X0122526Y0105552D01*
X0122618Y0105644D01*
X0122745Y0105592D01*
Y0105258D01*
X0118199D01*
X0118194Y0105257D01*
X0118189Y0105258D01*
X0118091Y0105253D01*
X0118076Y0105249D01*
X0118061D01*
X0117869Y0105211D01*
X011785Y0105203D01*
X0117831Y0105199D01*
X011765Y0105124D01*
X0117633Y0105113D01*
X0117614Y0105105D01*
X0117451Y0104997D01*
X0117437Y0104982D01*
X011742Y0104971D01*
X0117282Y0104833D01*
X0117271Y0104816D01*
X0117256Y0104802D01*
X0117148Y0104639D01*
X011714Y010462D01*
X0117129Y0104603D01*
X0117054Y0104422D01*
X011705Y0104403D01*
X0117042Y0104384D01*
X0117004Y0104192D01*
Y0104177D01*
X0117Y0104162D01*
X0116995Y0104064D01*
X0116996Y0104059D01*
X0116995Y0104054D01*
Y0093554D01*
X0116996Y0093549D01*
X0116995Y0093544D01*
X0117Y0093446D01*
X0117004Y0093431D01*
Y0093416D01*
X0117042Y0093224D01*
X011705Y0093205D01*
X0117054Y0093186D01*
X0117129Y0093005D01*
X011714Y0092988D01*
X0117148Y0092969D01*
X0117256Y0092806D01*
X0117271Y0092792D01*
X0117282Y0092775D01*
X011742Y0092637D01*
X0117437Y0092626D01*
X0117451Y0092611D01*
X0117614Y0092503D01*
X0117633Y0092495D01*
X011765Y0092484D01*
X0117831Y0092409D01*
X011785Y0092405D01*
X0117869Y0092397D01*
X0117905Y009239D01*
X0117893Y0092263D01*
X0116699D01*
X0116523Y0092228D01*
X0116375Y0092128D01*
X011045Y0086203D01*
X011035Y0086055D01*
X0110315Y0085879D01*
Y0083553D01*
X0110306Y0083499D01*
X0110289Y0083434D01*
X0110264Y0083367D01*
X0110231Y0083297D01*
X0110189Y0083225D01*
X011014Y0083153D01*
X0110008Y0082992D01*
X0109954Y0082938D01*
X0109918Y008291D01*
X0109726Y0082659D01*
X0109605Y0082367D01*
X0109564Y0082054D01*
X0109605Y0081741D01*
X0109726Y0081449D01*
X0109918Y0081198D01*
X0110169Y0081006D01*
X0110461Y0080885D01*
X0110774Y0080844D01*
X0111087Y0080885D01*
X0111379Y0081006D01*
X011163Y0081198D01*
X0111822Y0081449D01*
X0111943Y0081741D01*
X0111984Y0082054D01*
X0111943Y0082367D01*
X0111822Y0082659D01*
X011163Y008291D01*
X0111594Y0082938D01*
X0111538Y0082994D01*
X0111469Y0083073D01*
X011141Y008315D01*
X0111359Y0083225D01*
X0111317Y0083297D01*
X0111284Y0083367D01*
X0111259Y0083434D01*
X0111242Y0083499D01*
X0111233Y0083553D01*
Y0085689D01*
X0116889Y0091345D01*
X0119699D01*
X0119742Y0091218D01*
X0119649Y0091147D01*
X0119537Y0091001D01*
X0119467Y009083D01*
X0119443Y0090648D01*
X0119467Y0090465D01*
X0119537Y0090295D01*
X0119649Y0090148D01*
X0119678Y0090127D01*
Y0090028D01*
X0120239Y0089468D01*
X0120149Y0089378D01*
X0120239Y0089288D01*
X0119678Y0088727D01*
Y0088629D01*
X0119649Y0088607D01*
X0119643Y0088599D01*
X011964Y0088597D01*
X0119631Y0088592D01*
X0119616Y0088586D01*
X0119596Y008858D01*
X011957Y0088574D01*
X0119541Y0088569D01*
X0119508Y0088567D01*
X0116003D01*
X0115827Y0088532D01*
X0115678Y0088432D01*
X0113375Y0086128D01*
X0113275Y008598D01*
X011324Y0085804D01*
Y0081744D01*
X0111509Y0080013D01*
X0100682D01*
X0100658Y0080037D01*
Y0080538D01*
X0100667Y0080593D01*
X0100685Y0080656D01*
X010071Y008072D01*
X0100744Y0080785D01*
X0100786Y0080852D01*
X0100838Y0080921D01*
X0100899Y0080991D01*
X0100969Y0081062D01*
X0101054Y0081137D01*
X0101059Y0081144D01*
X010113Y0081198D01*
X0101322Y0081449D01*
X0101443Y0081741D01*
X0101484Y0082054D01*
X0101443Y0082367D01*
X0101322Y0082659D01*
X010113Y008291D01*
X0100879Y0083102D01*
X0100587Y0083223D01*
X0100274Y0083264D01*
X0099961Y0083223D01*
X0099669Y0083102D01*
X0099418Y008291D01*
X0099226Y0082659D01*
X0099105Y0082367D01*
X0099064Y0082054D01*
X0099105Y0081741D01*
X0099226Y0081449D01*
X0099359Y0081275D01*
X0099364Y0081267D01*
X009941Y0081208D01*
X0099418Y0081198D01*
X0099419Y0081197D01*
X0099512Y0081081D01*
X0099569Y0081D01*
X0099618Y0080919D01*
X0099658Y0080841D01*
X0099691Y0080768D01*
X0099715Y0080698D01*
X0099732Y0080631D01*
X009974Y0080578D01*
Y0079847D01*
X0099775Y0079671D01*
X0099875Y0079522D01*
X0100167Y007923D01*
X0100316Y007913D01*
X0100492Y0079095D01*
X0111699D01*
X0111875Y007913D01*
X0112023Y007923D01*
X0114023Y008123D01*
X0114123Y0081378D01*
X0114158Y0081554D01*
Y0085614D01*
X0116193Y0087649D01*
X0119517D01*
X0119539Y0087647D01*
X011957Y0087642D01*
X0119573Y0087641D01*
X0119616Y0087585D01*
X0119602Y0087531D01*
X0119543Y0087458D01*
X0118149D01*
X0118144Y0087457D01*
X0118139Y0087458D01*
X0118041Y0087453D01*
X0118026Y0087449D01*
X0118011D01*
X0117819Y0087411D01*
X01178Y0087403D01*
X0117781Y0087399D01*
X01176Y0087324D01*
X0117583Y0087313D01*
X0117564Y0087305D01*
X0117401Y0087197D01*
X0117387Y0087182D01*
X011737Y0087171D01*
X0117232Y0087033D01*
X0117221Y0087016D01*
X0117206Y0087002D01*
X0117098Y0086839D01*
X011709Y008682D01*
X0117079Y0086803D01*
X0117004Y0086622D01*
X0117Y0086603D01*
X0116992Y0086584D01*
X0116954Y0086392D01*
Y0086377D01*
X011695Y0086362D01*
X0116945Y0086264D01*
X0116946Y0086259D01*
X0116945Y0086254D01*
Y0080525D01*
X0116525Y0080238D01*
X0115468Y0079606D01*
X0114375Y0079038D01*
X011325Y0078536D01*
X0112097Y0078103D01*
X011092Y007774D01*
X0109723Y0077448D01*
X0108511Y0077228D01*
X0107288Y0077081D01*
X0106058Y0077008D01*
X0104826Y0077008D01*
X0103597Y0077082D01*
X0102374Y007723D01*
X0101162Y0077451D01*
X0099965Y0077744D01*
X0098788Y0078108D01*
X0097635Y0078542D01*
X0096511Y0079044D01*
X0095418Y0079613D01*
X0094361Y0080246D01*
X0093941Y0080533D01*
Y0086262D01*
X009394Y0086267D01*
X0093941Y0086272D01*
X0093936Y008637D01*
X0093933Y0086385D01*
Y00864D01*
X0093894Y0086592D01*
X0093887Y0086611D01*
X0093883Y008663D01*
X0093808Y0086811D01*
X0093797Y0086828D01*
X0093789Y0086847D01*
X009368Y008701D01*
X0093666Y0087024D01*
X0093655Y008704D01*
X0093516Y0087179D01*
X0093499Y008719D01*
X0093485Y0087204D01*
X0093322Y0087313D01*
X0093304Y0087321D01*
X0093287Y0087332D01*
X0093106Y0087407D01*
X0093086Y0087411D01*
X0093068Y0087419D01*
X0092875Y0087457D01*
X009286D01*
X0092846Y0087461D01*
X0092748Y0087466D01*
X0092743Y0087465D01*
X0092738Y0087466D01*
X0091271D01*
X0091228Y0087593D01*
X0091248Y0087608D01*
X009136Y0087755D01*
X0091431Y0087925D01*
X0091455Y0088108D01*
X0091431Y008829D01*
X009136Y0088461D01*
X0091248Y0088607D01*
X009122Y0088629D01*
Y0088727D01*
X0090659Y0089288D01*
X0090749Y0089378D01*
X0090659Y0089468D01*
X009122Y0090028D01*
Y0090127D01*
X0091248Y0090148D01*
X009136Y0090295D01*
X0091431Y0090465D01*
X0091455Y0090648D01*
X0091431Y009083D01*
X009136Y0091001D01*
X0091248Y0091147D01*
X0091102Y0091259D01*
X0090931Y009133D01*
X0090749Y0091354D01*
X0090566Y009133D01*
X0090396Y0091259D01*
X0090249Y0091147D01*
X0090192Y0091073D01*
X0090035D01*
X0089978Y0091147D01*
X0089832Y0091259D01*
X0089661Y009133D01*
X0089479Y0091354D01*
X0089296Y009133D01*
X0089126Y0091259D01*
X0088979Y0091147D01*
X0088867Y0091001D01*
X0088797Y009083D01*
X0088773Y0090648D01*
X0088797Y0090465D01*
X0088867Y0090295D01*
X0088979Y0090148D01*
X0089054Y0090091D01*
Y0089934D01*
X0088979Y0089877D01*
X0088867Y0089731D01*
X0088797Y008956D01*
X0088773Y0089378D01*
X0088797Y0089195D01*
X0088867Y0089025D01*
X0088979Y0088878D01*
X0089054Y0088821D01*
Y0088664D01*
X0088979Y0088607D01*
X0088867Y0088461D01*
X0088797Y008829D01*
X0088773Y0088108D01*
X0088797Y0087925D01*
X0088867Y0087755D01*
X0088979Y0087608D01*
X0089Y0087593D01*
X0088957Y0087466D01*
X0088141D01*
Y009235D01*
X0092699D01*
X0092704Y0092351D01*
X0092709Y009235D01*
X0092807Y0092355D01*
X0092822Y0092359D01*
X0092837D01*
X0093029Y0092397D01*
X0093048Y0092405D01*
X0093067Y0092409D01*
X0093248Y0092484D01*
X0093265Y0092495D01*
X0093284Y0092503D01*
X0093447Y0092611D01*
X0093461Y0092626D01*
X0093478Y0092637D01*
X0093616Y0092775D01*
X0093627Y0092792D01*
X0093642Y0092806D01*
X009375Y0092969D01*
X0093758Y0092988D01*
X0093769Y0093005D01*
X0093844Y0093186D01*
X0093848Y0093205D01*
X0093856Y0093224D01*
X0093894Y0093416D01*
Y0093431D01*
X0093898Y0093446D01*
X0093903Y0093544D01*
X0093902Y0093549D01*
X0093903Y0093554D01*
Y0104054D01*
X0093902Y0104059D01*
X0093903Y0104064D01*
X0093898Y0104162D01*
X0093894Y0104177D01*
Y0104192D01*
X0093856Y0104384D01*
X0093848Y0104403D01*
X0093844Y0104422D01*
X0093769Y0104603D01*
X0093758Y010462D01*
X009375Y0104639D01*
X0093642Y0104802D01*
X0093627Y0104816D01*
X0093616Y0104833D01*
X0093478Y0104971D01*
X0093461Y0104982D01*
X0093447Y0104997D01*
X0093284Y0105105D01*
X0093265Y0105113D01*
X0093248Y0105124D01*
X0093067Y0105199D01*
X0093048Y0105203D01*
X0093029Y0105211D01*
X0092837Y0105249D01*
X0092822D01*
X0092807Y0105253D01*
X0092709Y0105258D01*
X0092704Y0105257D01*
X0092699Y0105258D01*
X0088141D01*
Y0108626D01*
X0088456Y010912D01*
X0088679Y0109428D01*
X0088821Y0109407D01*
X0088867Y0109295D01*
X0088979Y0109148D01*
X0089054Y0109091D01*
Y0108934D01*
X0088979Y0108877D01*
X0088867Y0108731D01*
X0088797Y010856D01*
X0088773Y0108378D01*
X0088797Y0108195D01*
X0088867Y0108025D01*
X0088979Y0107878D01*
X0089054Y0107821D01*
Y0107664D01*
X0088979Y0107607D01*
X0088867Y0107461D01*
X0088797Y010729D01*
X0088773Y0107108D01*
X0088797Y0106925D01*
X0088867Y0106755D01*
X0088979Y0106608D01*
X0089126Y0106496D01*
X0089296Y0106426D01*
X0089479Y0106402D01*
X0089661Y0106426D01*
X0089832Y0106496D01*
X0089978Y0106608D01*
X0090035Y0106683D01*
X0090192D01*
X0090249Y0106608D01*
X0090396Y0106496D01*
X0090566Y0106426D01*
X0090749Y0106402D01*
X0090931Y0106426D01*
X0091102Y0106496D01*
X0091248Y0106608D01*
X009136Y0106755D01*
X0091431Y0106925D01*
X0091455Y0107108D01*
X0091431Y010729D01*
X009136Y0107461D01*
X0091248Y0107607D01*
X009122Y0107629D01*
Y0107727D01*
X0090659Y0108288D01*
X0090749Y0108378D01*
X0090659Y0108468D01*
X009122Y0109028D01*
Y0109127D01*
X0091248Y0109148D01*
X009136Y0109295D01*
X0091431Y0109465D01*
X0091455Y0109648D01*
X0091431Y010983D01*
X009136Y0110001D01*
X0091248Y0110147D01*
X0091102Y0110259D01*
X0090931Y011033D01*
X0090749Y0110354D01*
X0090566Y011033D01*
X0090396Y0110259D01*
X0090249Y0110147D01*
X0090192Y0110073D01*
X0090035D01*
X0089978Y0110147D01*
X0089832Y0110259D01*
X0089661Y011033D01*
X0089531Y0110347D01*
X0089471Y0110473D01*
X0090037Y0111157D01*
X009092Y0112096D01*
X0091861Y0112979D01*
X0092855Y0113801D01*
X0093899Y0114558D01*
X0094988Y0115249D01*
X0096118Y011587D01*
X0097285Y011642D01*
X0098484Y0116894D01*
X0099711Y0117293D01*
X010096Y0117614D01*
X0102227Y0117856D01*
X0103506Y0118018D01*
X0104793Y01181D01*
X0106083Y01181D01*
X010737Y011802D01*
D02*
G37*
G36*
X0121815Y010869D02*
X0121855Y0108656D01*
X0121896Y0108626D01*
X0121937Y01086D01*
X0121979Y0108578D01*
X0122021Y010856D01*
X0122064Y0108546D01*
X0122107Y0108536D01*
X0122151Y010853D01*
X0122196Y0108528D01*
Y0108228D01*
X0122151Y0108226D01*
X0122107Y010822D01*
X0122064Y010821D01*
X0122021Y0108196D01*
X0121979Y0108178D01*
X0121937Y0108156D01*
X0121896Y010813D01*
X0121855Y01081D01*
X0121815Y0108066D01*
X0121776Y0108028D01*
Y0108728D01*
X0121815Y010869D01*
D02*
G37*
G36*
X0119792Y0108028D02*
X0119752Y0108066D01*
X0119712Y01081D01*
X0119672Y010813D01*
X011963Y0108156D01*
X0119589Y0108178D01*
X0119546Y0108196D01*
X0119504Y010821D01*
X011946Y010822D01*
X0119416Y0108226D01*
X0119372Y0108228D01*
Y0108528D01*
X0119416Y010853D01*
X011946Y0108536D01*
X0119504Y0108546D01*
X0119546Y010856D01*
X0119589Y0108578D01*
X011963Y01086D01*
X0119672Y0108626D01*
X0119712Y0108656D01*
X0119752Y010869D01*
X0119792Y0108728D01*
Y0108028D01*
D02*
G37*
G36*
X0112065Y0107613D02*
X011207Y0107562D01*
X0112077Y0107516D01*
X0112088Y0107477D01*
X0112102Y0107444D01*
X0112118Y0107416D01*
X0112137Y0107395D01*
X011216Y010738D01*
X0112186Y0107371D01*
X0112214Y0107368D01*
X0111614D01*
X0111643Y0107371D01*
X0111668Y010738D01*
X011169Y0107395D01*
X011171Y0107416D01*
X0111727Y0107444D01*
X011174Y0107477D01*
X0111751Y0107516D01*
X0111758Y0107562D01*
X0111762Y0107613D01*
X0111764Y0107671D01*
X0112064D01*
X0112065Y0107613D01*
D02*
G37*
G36*
X0109646Y0104934D02*
X010962Y0104925D01*
X0109598Y010491D01*
X0109578Y0104889D01*
X0109562Y0104862D01*
X0109548Y0104829D01*
X0109537Y010479D01*
X010953Y0104745D01*
X0109525Y0104694D01*
X0109524Y0104637D01*
X0109224D01*
X0109223Y0104694D01*
X0109218Y0104745D01*
X0109211Y010479D01*
X01092Y0104829D01*
X0109187Y0104862D01*
X010917Y0104889D01*
X010915Y010491D01*
X0109128Y0104925D01*
X0109103Y0104934D01*
X0109074Y0104937D01*
X0109674D01*
X0109646Y0104934D01*
D02*
G37*
G36*
X0119792Y0087758D02*
X011977Y0087777D01*
X0119745Y0087794D01*
X0119717Y0087809D01*
X0119684Y0087822D01*
X0119649Y0087833D01*
X0119609Y0087842D01*
X0119566Y0087849D01*
X011952Y0087854D01*
X0119416Y0087858D01*
Y0088358D01*
X0119469Y0088359D01*
X0119566Y0088367D01*
X0119609Y0088374D01*
X0119649Y0088383D01*
X0119684Y0088394D01*
X0119717Y0088407D01*
X0119745Y0088422D01*
X011977Y0088439D01*
X0119792Y0088458D01*
Y0087758D01*
D02*
G37*
G36*
X0111029Y0083539D02*
X0111042Y0083456D01*
X0111064Y0083372D01*
X0111096Y0083287D01*
X0111136Y0083202D01*
X0111186Y0083117D01*
X0111244Y008303D01*
X0111312Y0082943D01*
X0111388Y0082856D01*
X0111474Y0082768D01*
X0110074D01*
X011016Y0082856D01*
X0110303Y008303D01*
X0110362Y0083117D01*
X0110411Y0083202D01*
X0110452Y0083287D01*
X0110483Y0083372D01*
X0110506Y0083456D01*
X011052Y0083539D01*
X0110524Y0083622D01*
X0111024D01*
X0111029Y0083539D01*
D02*
G37*
G36*
X0100918Y0081289D02*
X0100829Y008121D01*
X0100749Y008113D01*
X0100679Y0081049D01*
X0100618Y0080968D01*
X0100566Y0080887D01*
X0100524Y0080804D01*
X0100491Y0080721D01*
X0100468Y0080638D01*
X0100454Y0080554D01*
X0100449Y0080469D01*
X0099949Y0080508D01*
X0099945Y0080589D01*
X0099932Y0080672D01*
X0099911Y0080756D01*
X0099881Y0080842D01*
X0099842Y008093D01*
X0099795Y0081019D01*
X009974Y008111D01*
X0099676Y0081203D01*
X0099522Y0081394D01*
X0100918Y0081289D01*
D02*
G37*
%LPC*%
G36*
X0112553Y0116228D02*
X0111275D01*
X0111914Y0115589D01*
X0112553Y0116228D01*
D02*
G37*
G36*
X0110013D02*
X0108735D01*
X0109374Y0115589D01*
X0110013Y0116228D01*
D02*
G37*
G36*
X0107473D02*
X0106195D01*
X0106834Y0115589D01*
X0107473Y0116228D01*
D02*
G37*
G36*
X0111095Y0116048D02*
Y011346D01*
X0111824Y0114189D01*
X0111914Y0114099D01*
X0112004Y0114189D01*
X0112733Y011346D01*
Y0116048D01*
X0112004Y0115319D01*
X0111914Y0115409D01*
X0111824Y0115319D01*
X0111095Y0116048D01*
D02*
G37*
G36*
X0108555D02*
Y011346D01*
X0109284Y0114189D01*
X0109374Y0114099D01*
X0109464Y0114189D01*
X0110193Y011346D01*
Y0116048D01*
X0109464Y0115319D01*
X0109374Y0115409D01*
X0109284Y0115319D01*
X0108555Y0116048D01*
D02*
G37*
G36*
X0106015D02*
Y011346D01*
X0106744Y0114189D01*
X0106834Y0114099D01*
X0106924Y0114189D01*
X0107653Y011346D01*
Y0116048D01*
X0106924Y0115319D01*
X0106834Y0115409D01*
X0106744Y0115319D01*
X0106015Y0116048D01*
D02*
G37*
G36*
X0111914Y0113919D02*
X0111275Y011328D01*
X0112553D01*
X0111914Y0113919D01*
D02*
G37*
G36*
X0109374D02*
X0108735Y011328D01*
X0110013D01*
X0109374Y0113919D01*
D02*
G37*
G36*
X0106834D02*
X0106195Y011328D01*
X0107473D01*
X0106834Y0113919D01*
D02*
G37*
G36*
X0102099Y0112489D02*
X0101786Y0112448D01*
X0101494Y0112327D01*
X0101243Y0112135D01*
X0101051Y0111884D01*
X010093Y0111592D01*
X0100889Y0111279D01*
X010093Y0110966D01*
X0101051Y0110674D01*
X0101243Y0110423D01*
X0101494Y0110231D01*
X0101786Y011011D01*
X0102099Y0110069D01*
X0102412Y011011D01*
X0102704Y0110231D01*
X0102955Y0110423D01*
X0103147Y0110674D01*
X0103268Y0110966D01*
X0103309Y0111279D01*
X0103268Y0111592D01*
X0103147Y0111884D01*
X0102955Y0112135D01*
X0102704Y0112327D01*
X0102412Y0112448D01*
X0102099Y0112489D01*
D02*
G37*
G36*
X0098599D02*
X0098286Y0112448D01*
X0097994Y0112327D01*
X0097743Y0112135D01*
X0097551Y0111884D01*
X009743Y0111592D01*
X0097389Y0111279D01*
X009743Y0110966D01*
X0097551Y0110674D01*
X0097743Y0110423D01*
X0097994Y0110231D01*
X0098286Y011011D01*
X0098599Y0110069D01*
X0098912Y011011D01*
X0099204Y0110231D01*
X0099455Y0110423D01*
X0099647Y0110674D01*
X0099768Y0110966D01*
X0099809Y0111279D01*
X0099768Y0111592D01*
X0099647Y0111884D01*
X0099455Y0112135D01*
X0099204Y0112327D01*
X0098912Y0112448D01*
X0098599Y0112489D01*
D02*
G37*
G36*
X0107449Y0109064D02*
X0107254Y0109025D01*
X0107089Y0108914D01*
X0106978Y0108749D01*
X0106939Y0108554D01*
X0106939Y0108554D01*
X0106938Y0108552D01*
X0106931Y0108542D01*
X0106923Y0108532D01*
X0106582Y0108191D01*
X0106504Y0108076D01*
X0106477Y0107939D01*
Y0107606D01*
X0106476Y0107587D01*
X0106473Y0107574D01*
X0106069D01*
Y0104734D01*
X0107599D01*
Y0107574D01*
X0107195D01*
X0107192Y0107587D01*
X0107191Y0107606D01*
Y0107791D01*
X010743Y0108031D01*
X0107435Y0108035D01*
X0107447Y0108043D01*
X0107449Y0108044D01*
X0107449Y0108044D01*
X0107644Y0108083D01*
X0107809Y0108194D01*
X010792Y0108359D01*
X0107959Y0108554D01*
X010792Y0108749D01*
X0107809Y0108914D01*
X0107644Y0109025D01*
X0107449Y0109064D01*
D02*
G37*
G36*
X0091364Y0108814D02*
X0090928Y0108378D01*
X0091364Y0107942D01*
X0091407Y0107997D01*
X0091483Y0108181D01*
X0091509Y0108378D01*
X0091483Y0108575D01*
X0091407Y0108758D01*
X0091364Y0108814D01*
D02*
G37*
G36*
Y0089814D02*
X0090928Y0089378D01*
X0091364Y0088942D01*
X0091407Y0088997D01*
X0091483Y0089181D01*
X0091509Y0089378D01*
X0091483Y0089575D01*
X0091407Y0089758D01*
X0091364Y0089814D01*
D02*
G37*
G36*
X0119533Y0089814D02*
X011949Y0089758D01*
X0119414Y0089575D01*
X0119388Y0089378D01*
X0119414Y0089181D01*
X011949Y0088997D01*
X0119533Y0088942D01*
X0119969Y0089378D01*
X0119533Y0089814D01*
D02*
G37*
G36*
X0097661Y0089352D02*
X0097316Y0089307D01*
X0096993Y0089173D01*
X0096716Y0088961D01*
X0096504Y0088684D01*
X0096371Y0088362D01*
X0096325Y0088016D01*
X0096371Y008767D01*
X0096504Y0087348D01*
X0096716Y0087071D01*
X0096993Y0086858D01*
X0097316Y0086725D01*
X0097661Y0086679D01*
X0098007Y0086725D01*
X009833Y0086858D01*
X0098606Y0087071D01*
X0098819Y0087348D01*
X0098952Y008767D01*
X0098998Y0088016D01*
X0098952Y0088362D01*
X0098819Y0088684D01*
X0098606Y0088961D01*
X009833Y0089173D01*
X0098007Y0089307D01*
X0097661Y0089352D01*
D02*
G37*
G36*
X0103774Y0083319D02*
X0103447Y0083276D01*
X0103142Y0083149D01*
X0102981Y0083026D01*
X0103774Y0082234D01*
X0104567Y0083026D01*
X0104406Y0083149D01*
X0104101Y0083276D01*
X0103774Y0083319D01*
D02*
G37*
G36*
X0102802Y0082847D02*
X0102679Y0082686D01*
X0102552Y0082381D01*
X0102509Y0082054D01*
X0102552Y0081727D01*
X0102679Y0081422D01*
X0102802Y0081261D01*
X0103594Y0082054D01*
X0102802Y0082847D01*
D02*
G37*
G36*
X0104746Y0082847D02*
X0103954Y0082054D01*
X0104746Y0081261D01*
X0104869Y0081422D01*
X0104996Y0081727D01*
X0105039Y0082054D01*
X0104996Y0082381D01*
X0104869Y0082686D01*
X0104746Y0082847D01*
D02*
G37*
G36*
X0107274Y0083264D02*
X0106961Y0083223D01*
X0106669Y0083102D01*
X0106418Y008291D01*
X0106226Y0082659D01*
X0106105Y0082367D01*
X0106064Y0082054D01*
X0106105Y0081741D01*
X0106226Y0081449D01*
X0106418Y0081198D01*
X0106669Y0081006D01*
X0106961Y0080885D01*
X0107274Y0080844D01*
X0107587Y0080885D01*
X0107879Y0081006D01*
X010813Y0081198D01*
X0108322Y0081449D01*
X0108443Y0081741D01*
X0108484Y0082054D01*
X0108443Y0082367D01*
X0108322Y0082659D01*
X010813Y008291D01*
X0107879Y0083102D01*
X0107587Y0083223D01*
X0107274Y0083264D01*
D02*
G37*
G36*
X0103774Y0081874D02*
X0102981Y0081082D01*
X0103142Y0080959D01*
X0103447Y0080832D01*
X0103774Y0080789D01*
X0104101Y0080832D01*
X0104406Y0080959D01*
X0104567Y0081082D01*
X0103774Y0081874D01*
D02*
G37*
%LPD*%
G36*
X0107446Y0108254D02*
X0107429Y0108253D01*
X0107411Y010825D01*
X0107393Y0108244D01*
X0107373Y0108236D01*
X0107354Y0108225D01*
X0107333Y0108212D01*
X0107312Y0108197D01*
X010729Y0108179D01*
X0107244Y0108137D01*
X0107032Y0108349D01*
X0107054Y0108372D01*
X0107092Y0108417D01*
X0107107Y0108438D01*
X010712Y0108459D01*
X0107131Y0108478D01*
X0107139Y0108498D01*
X0107145Y0108516D01*
X0107148Y0108534D01*
X0107149Y0108551D01*
X0107446Y0108254D01*
D02*
G37*
G36*
X0106985Y0107613D02*
X010699Y0107562D01*
X0106997Y0107516D01*
X0107008Y0107477D01*
X0107021Y0107444D01*
X0107038Y0107416D01*
X0107058Y0107395D01*
X010708Y010738D01*
X0107105Y0107371D01*
X0107134Y0107368D01*
X0106534D01*
X0106562Y0107371D01*
X0106588Y010738D01*
X010661Y0107395D01*
X010663Y0107416D01*
X0106646Y0107444D01*
X010666Y0107477D01*
X0106671Y0107516D01*
X0106678Y0107562D01*
X0106683Y0107613D01*
X0106684Y0107671D01*
X0106984D01*
X0106985Y0107613D01*
D02*
G37*
D18*
X0106834Y0114754D02*
D03*
X0109374D02*
D03*
X0111914D02*
D03*
Y0106154D02*
D03*
X0109374D02*
D03*
X0106834D02*
D03*
D19*
Y0107939D01*
X0107449Y0108554D01*
X011209Y0108378D02*
X0120149D01*
X0111914Y0108202D02*
X011209Y0108378D01*
X0111914Y0106154D02*
Y0108202D01*
X0121419Y0108378D02*
X0122273D01*
X0115949Y0105804D02*
X0122273D01*
Y0108378D02*
X0122449Y0108202D01*
Y010598D02*
Y0108202D01*
X0122273Y0105804D02*
X0122449Y010598D01*
X0114199Y0104054D02*
X0115949Y0105804D01*
X0109699Y0104054D02*
X0114199D01*
X0109374Y0104379D02*
X0109699Y0104054D01*
X0109374Y0104379D02*
Y0106154D01*
D20*
X0121419Y0089378D02*
X0121465Y0089424D01*
X0122069D01*
X0121949Y0091804D02*
X0122449Y0091304D01*
X0122069Y0089424D02*
X0122449Y0089804D01*
X0116699Y0091804D02*
X0121949D01*
X0122449Y0089804D02*
Y0091304D01*
X0113699Y0085804D02*
X0116003Y0088108D01*
X0120149D01*
X0113699Y0081554D02*
Y0085804D01*
X0111699Y0079554D02*
X0113699Y0081554D01*
X0100199Y0079847D02*
Y0081529D01*
Y0079847D02*
X0100492Y0079554D01*
X0111699D01*
X0100199Y0081529D02*
X0100274Y0081604D01*
X0110774D02*
Y0085879D01*
X0116699Y0091804D01*
D21*
X0098599Y0111279D02*
D03*
X0102099D02*
D03*
X0103774Y0082054D02*
D03*
X0100274D02*
D03*
X0107274D02*
D03*
X0110774D02*
D03*
D22*
X0089479Y0090648D02*
D03*
X0090749D02*
D03*
X0089479Y0089378D02*
D03*
X0090749D02*
D03*
X0089479Y0088108D02*
D03*
X0090749D02*
D03*
X0089479Y0109648D02*
D03*
X0090749D02*
D03*
X0089479Y0108378D02*
D03*
X0090749D02*
D03*
X0089479Y0107108D02*
D03*
X0090749D02*
D03*
X0120149Y0090648D02*
D03*
X0121419D02*
D03*
X0120149Y0089378D02*
D03*
X0121419D02*
D03*
X0120149Y0088108D02*
D03*
X0121419D02*
D03*
X0120149Y0109648D02*
D03*
X0121419D02*
D03*
X0120149Y0108378D02*
D03*
X0121419D02*
D03*
X0120149Y0107108D02*
D03*
X0121419D02*
D03*
D23*
X0097661Y0088016D02*
D03*
D24*
X0107449Y0108554D02*
D03*
M02*
