M48
;Layer_Color=9474304
;FILE_FORMAT=4:3
METRIC,LZ
;TYPE=PLATED
T1F00S00C0.300
T2F00S00C0.650
%
T01
X003375Y0026975
Y0029975
X003715
X0035Y0032125
X003375Y0034875
X00355Y0037625
X00377
X00385Y0033625
X0032254Y0039125
X00399Y003577
X00431Y0037625
X0043541Y0034125
X004425Y0033475
X00456
X00483Y0033175
X0048725Y0030125
X004975Y0029625
Y0026975
X0051Y0027875
X0052575Y0026975
Y0029625
X00565Y0030625
X0060625
Y0028725
X006325Y0026975
X006175Y0036625
Y00391
X005845Y0036625
X00564Y0039675
X0052Y0036025
X005005
X004675Y0038225
X00461Y0039025
X00412Y0029975
Y0026975
X0043604Y0041025
X00445Y0041675
X0043Y0043925
Y0046795
X00461Y0046873
Y0043925
X005005Y0042775
Y0039775
Y0046873
X0054949
X0062553Y0046869
T02
X003588Y0027455
Y0028725
X003715
Y0027455
X003842
Y0028725
X0056255
Y0027455
X0057525
Y0028725
X0058795
Y0027455
X0060206Y0040867
Y0042137
X0061476
Y0040867
X0062746
Y0042137
X005994Y0045525
Y0046795
X005867
Y0045525
X00574
Y0046795
X004094
Y0045525
X003967
Y0046795
X00384
Y0045525
X003594Y0045175
Y0043905
X003467
Y0045175
X00334
Y0043905
X0033524Y0042137
X0032254
Y0040867
X0033524
X0034794
Y0042137
M30
