G04*
G04 #@! TF.GenerationSoftware,Altium Limited,Altium Designer,20.1.8 (145)*
G04*
G04 Layer_Color=32896*
%FSTAX43Y43*%
%MOMM*%
G71*
G04*
G04 #@! TF.SameCoordinates,DCFB0F7C-07F7-4DEC-9F4C-8A45A990D123*
G04*
G04*
G04 #@! TF.FilePolarity,Positive*
G04*
G01*
G75*
%ADD26C,0.100*%
%ADD27C,0.200*%
G36*
X01005Y009222D02*
X0100382D01*
Y0092335D01*
X0100367Y0092311D01*
X0100352Y0092291D01*
X0100337Y0092272D01*
X0100322Y0092259D01*
X0100311Y0092248D01*
X0100302Y0092239D01*
X0100295Y0092235D01*
X0100293Y0092233D01*
X0100272Y0092222D01*
X0100252Y0092215D01*
X0100232Y0092207D01*
X0100213Y0092204D01*
X0100198Y0092202D01*
X0100185Y00922D01*
X0100174D01*
X010015Y0092202D01*
X0100128Y0092206D01*
X0100106Y0092211D01*
X0100083Y009222D01*
X0100045Y0092241D01*
X0100011Y0092263D01*
X0099983Y0092287D01*
X0099972Y0092296D01*
X0099963Y0092306D01*
X0099956Y0092315D01*
X009995Y009232D01*
X0099948Y0092324D01*
X0099946Y0092326D01*
X009993Y009235D01*
X0099913Y0092378D01*
X00999Y0092406D01*
X0099889Y0092435D01*
X0099872Y0092494D01*
X0099861Y0092554D01*
X0099856Y009258D01*
X0099854Y0092605D01*
X0099852Y0092628D01*
X009985Y0092646D01*
X0099848Y0092663D01*
Y0092674D01*
Y0092683D01*
Y0092685D01*
X009985Y0092741D01*
X0099856Y0092791D01*
X0099863Y0092833D01*
X009987Y0092872D01*
X0099874Y0092889D01*
X0099878Y0092902D01*
X0099882Y0092915D01*
X0099885Y0092926D01*
X0099889Y0092933D01*
X0099891Y0092939D01*
X0099893Y0092942D01*
Y0092944D01*
X0099909Y0092981D01*
X0099928Y0093015D01*
X0099948Y0093042D01*
X0099967Y0093065D01*
X0099982Y0093081D01*
X0099996Y0093094D01*
X0100004Y0093102D01*
X0100007Y0093104D01*
X0100035Y0093122D01*
X0100063Y0093135D01*
X0100089Y0093144D01*
X0100115Y009315D01*
X0100135Y0093155D01*
X0100152Y0093157D01*
X0100167D01*
X0100189Y0093155D01*
X0100211Y0093152D01*
X0100232Y0093148D01*
X0100248Y0093142D01*
X0100261Y0093135D01*
X0100272Y0093131D01*
X010028Y0093128D01*
X0100282Y0093126D01*
X01003Y0093113D01*
X0100317Y0093098D01*
X0100333Y0093083D01*
X0100346Y0093068D01*
X0100357Y0093054D01*
X0100365Y0093042D01*
X010037Y0093035D01*
X0100372Y0093033D01*
Y0093485D01*
X01005D01*
Y009222D01*
D02*
G37*
G36*
X0097012Y0093154D02*
X0097058Y0093146D01*
X0097099Y0093135D01*
X0097132Y0093124D01*
X0097158Y0093111D01*
X0097176Y00931D01*
X0097182Y0093094D01*
X0097187Y0093092D01*
X0097189Y0093089D01*
X0097191D01*
X0097206Y0093076D01*
X0097219Y0093061D01*
X0097243Y0093028D01*
X0097261Y0092992D01*
X0097274Y0092957D01*
X0097286Y0092926D01*
X0097289Y0092911D01*
X0097293Y00929D01*
X0097295Y0092891D01*
X0097297Y0092881D01*
X0097299Y0092878D01*
Y0092876D01*
X0097173Y0092854D01*
X0097163Y0092889D01*
X0097154Y0092918D01*
X0097143Y0092942D01*
X0097134Y0092961D01*
X0097124Y0092976D01*
X0097117Y0092985D01*
X0097112Y0092991D01*
X009711Y0092992D01*
X0097091Y0093005D01*
X0097071Y0093015D01*
X0097049Y009302D01*
X0097026Y0093026D01*
X0097006Y0093028D01*
X0096991Y009303D01*
X0096976D01*
X0096941Y0093028D01*
X0096912Y009302D01*
X0096887Y0093013D01*
X0096867Y0093002D01*
X0096852Y0092992D01*
X0096841Y0092983D01*
X0096834Y0092976D01*
X0096832Y0092974D01*
X0096821Y0092957D01*
X0096812Y0092937D01*
X0096806Y0092915D01*
X00968Y0092893D01*
X0096799Y0092872D01*
X0096797Y0092855D01*
Y0092844D01*
Y0092842D01*
Y0092841D01*
X0096799Y0092802D01*
X0096813Y0092796D01*
X0096828Y0092791D01*
X0096865Y009278D01*
X0096902Y009277D01*
X0096939Y0092761D01*
X0096973Y0092755D01*
X0096987Y0092752D01*
X0097Y009275D01*
X0097012Y0092748D01*
X0097019D01*
X0097024Y0092746D01*
X0097026D01*
X0097067Y0092739D01*
X0097102Y0092731D01*
X0097132Y0092722D01*
X0097158Y0092715D01*
X0097176Y0092707D01*
X0097189Y00927D01*
X0097199Y0092696D01*
X00972Y0092694D01*
X0097221Y0092681D01*
X0097237Y0092665D01*
X0097252Y009265D01*
X0097265Y0092635D01*
X0097276Y009262D01*
X0097284Y0092609D01*
X0097287Y0092602D01*
X0097289Y00926D01*
X00973Y0092576D01*
X0097308Y0092552D01*
X0097313Y0092528D01*
X0097317Y0092507D01*
X0097319Y0092487D01*
X0097321Y0092472D01*
Y0092463D01*
Y0092461D01*
Y0092459D01*
X0097317Y0092417D01*
X009731Y009238D01*
X0097299Y0092348D01*
X0097286Y009232D01*
X0097274Y0092298D01*
X0097263Y0092283D01*
X0097256Y0092274D01*
X0097252Y009227D01*
X0097224Y0092246D01*
X0097193Y009223D01*
X0097161Y0092217D01*
X0097132Y0092209D01*
X0097106Y0092204D01*
X0097084Y0092202D01*
X0097076Y00922D01*
X0097065D01*
X0097037Y0092202D01*
X0097012Y0092206D01*
X0096987Y0092211D01*
X0096965Y0092217D01*
X0096949Y0092222D01*
X0096934Y0092228D01*
X0096926Y0092231D01*
X0096923Y0092233D01*
X0096897Y0092248D01*
X0096873Y0092263D01*
X0096849Y009228D01*
X0096828Y0092296D01*
X0096812Y0092311D01*
X0096799Y0092322D01*
X0096791Y009233D01*
X0096787Y0092333D01*
X0096786Y0092309D01*
X0096782Y0092287D01*
X0096776Y0092268D01*
X0096773Y0092252D01*
X0096769Y0092239D01*
X0096765Y009223D01*
X0096762Y0092222D01*
Y009222D01*
X0096628D01*
X0096645Y0092259D01*
X009665Y0092278D01*
X0096654Y0092294D01*
X0096658Y0092307D01*
X009666Y0092318D01*
X0096662Y0092326D01*
Y0092328D01*
X0096663Y0092341D01*
Y0092356D01*
X0096665Y0092374D01*
Y0092394D01*
X0096667Y0092441D01*
Y0092487D01*
X0096669Y0092531D01*
Y0092552D01*
Y0092568D01*
Y0092583D01*
Y0092594D01*
Y0092602D01*
Y0092604D01*
Y0092811D01*
Y0092855D01*
X0096673Y0092894D01*
X0096675Y0092928D01*
X0096678Y0092954D01*
X0096682Y0092974D01*
X0096684Y0092991D01*
X0096687Y0092998D01*
Y0093002D01*
X0096697Y0093026D01*
X0096708Y0093048D01*
X0096723Y0093067D01*
X0096737Y0093083D01*
X009675Y0093096D01*
X0096762Y0093105D01*
X0096769Y0093111D01*
X0096773Y0093113D01*
X00968Y0093128D01*
X009683Y0093139D01*
X009686Y0093146D01*
X0096889Y0093152D01*
X0096917Y0093155D01*
X0096937Y0093157D01*
X0096958D01*
X0097012Y0093154D01*
D02*
G37*
G36*
X010103Y00926D02*
X0100639D01*
Y0092755D01*
X010103D01*
Y00926D01*
D02*
G37*
G36*
X0105098Y009222D02*
X0104955D01*
X010455Y0093485D01*
X0104688D01*
X010497Y0092565D01*
X0104981Y0092526D01*
X0104992Y0092489D01*
X0105001Y0092456D01*
X0105009Y0092424D01*
X0105016Y0092398D01*
X0105022Y0092378D01*
X0105024Y009237D01*
Y0092365D01*
X0105025Y0092361D01*
Y0092359D01*
X0105035Y0092396D01*
X0105044Y0092433D01*
X0105053Y0092468D01*
X0105061Y00925D01*
X0105068Y0092526D01*
X0105074Y0092546D01*
X0105075Y0092554D01*
X0105077Y0092559D01*
X0105079Y0092563D01*
Y0092565D01*
X010535Y0093485D01*
X01055D01*
X0105098Y009222D01*
D02*
G37*
G36*
X0103057Y0092754D02*
X0103055Y0092698D01*
X0103053Y0092646D01*
X0103048Y00926D01*
X0103042Y0092555D01*
X0103033Y0092517D01*
X0103026Y0092481D01*
X0103016Y009245D01*
X0103007Y0092422D01*
X0102998Y0092398D01*
X0102989Y0092378D01*
X0102979Y0092359D01*
X0102972Y0092346D01*
X0102966Y0092335D01*
X0102961Y0092328D01*
X0102959Y0092324D01*
X0102957Y0092322D01*
X0102937Y00923D01*
X0102915Y0092281D01*
X0102891Y0092265D01*
X0102866Y0092252D01*
X0102841Y0092239D01*
X0102815Y009223D01*
X0102765Y0092215D01*
X0102742Y0092211D01*
X010272Y0092207D01*
X01027Y0092204D01*
X0102683Y0092202D01*
X010267Y00922D01*
X010265D01*
X0102598Y0092204D01*
X0102552Y0092211D01*
X0102511Y009222D01*
X0102476Y0092233D01*
X0102448Y0092246D01*
X0102437Y0092252D01*
X0102428Y0092256D01*
X010242Y0092261D01*
X0102415Y0092263D01*
X0102413Y0092267D01*
X0102411D01*
X0102378Y0092294D01*
X0102352Y0092324D01*
X0102328Y0092356D01*
X0102311Y0092385D01*
X0102298Y0092411D01*
X0102289Y0092433D01*
X0102285Y0092441D01*
X0102283Y0092446D01*
X0102281Y009245D01*
Y0092452D01*
X0102268Y0092498D01*
X0102259Y009255D01*
X0102254Y00926D01*
X0102248Y0092648D01*
Y0092668D01*
X0102246Y0092689D01*
Y0092707D01*
X0102244Y0092724D01*
Y0092735D01*
Y0092746D01*
Y0092752D01*
Y0092754D01*
Y0093485D01*
X0102381D01*
Y0092755D01*
Y0092713D01*
X0102385Y0092674D01*
X0102387Y0092637D01*
X0102392Y0092604D01*
X0102396Y0092576D01*
X0102402Y0092548D01*
X0102409Y0092526D01*
X0102415Y0092506D01*
X010242Y0092487D01*
X0102428Y0092472D01*
X0102433Y0092459D01*
X0102437Y009245D01*
X0102442Y0092443D01*
X0102444Y0092437D01*
X0102448Y0092435D01*
Y0092433D01*
X0102461Y0092418D01*
X0102476Y0092407D01*
X0102509Y0092387D01*
X0102544Y0092372D01*
X0102578Y0092363D01*
X0102609Y0092356D01*
X0102624Y0092354D01*
X0102635D01*
X0102646Y0092352D01*
X0102659D01*
X0102691Y0092354D01*
X0102718Y0092357D01*
X0102744Y0092365D01*
X0102766Y0092372D01*
X0102783Y0092378D01*
X0102796Y0092385D01*
X0102803Y0092389D01*
X0102807Y0092391D01*
X0102828Y0092407D01*
X0102846Y0092426D01*
X0102861Y0092446D01*
X0102874Y0092465D01*
X0102883Y0092481D01*
X0102889Y0092494D01*
X0102892Y0092504D01*
X0102894Y0092507D01*
X0102898Y0092522D01*
X0102903Y0092541D01*
X0102909Y009258D01*
X0102915Y009262D01*
X0102916Y0092661D01*
X0102918Y0092698D01*
X010292Y0092713D01*
Y0092728D01*
Y0092739D01*
Y0092748D01*
Y0092754D01*
Y0092755D01*
Y0093485D01*
X0103057D01*
Y0092754D01*
D02*
G37*
G36*
X0098861Y0093365D02*
Y0093137D01*
X0098954D01*
Y0093017D01*
X0098861D01*
Y0092487D01*
Y0092463D01*
Y0092441D01*
X0098859Y0092418D01*
Y00924D01*
X0098858Y0092383D01*
X0098856Y0092368D01*
X0098854Y0092344D01*
X009885Y0092326D01*
X0098848Y0092313D01*
X0098846Y0092306D01*
Y0092304D01*
X0098839Y0092289D01*
X0098832Y0092274D01*
X0098822Y0092261D01*
X0098813Y0092252D01*
X0098806Y0092244D01*
X0098798Y0092239D01*
X0098795Y0092235D01*
X0098793Y0092233D01*
X0098776Y0092224D01*
X0098759Y0092218D01*
X0098741Y0092213D01*
X0098724Y0092211D01*
X0098709Y0092209D01*
X0098697Y0092207D01*
X0098685D01*
X0098654Y0092209D01*
X0098637Y0092211D01*
X0098622Y0092215D01*
X0098609Y0092217D01*
X00986Y0092218D01*
X0098593Y009222D01*
X0098591D01*
X0098608Y0092357D01*
X0098632Y0092354D01*
X009865Y0092352D01*
X0098665D01*
X009868Y0092354D01*
X0098693Y0092357D01*
X0098704Y0092361D01*
X0098711Y0092367D01*
X0098717Y0092372D01*
X0098721Y0092378D01*
X0098724Y009238D01*
Y0092381D01*
X0098728Y0092393D01*
X009873Y0092406D01*
X0098734Y0092422D01*
Y0092439D01*
X0098735Y0092454D01*
Y0092467D01*
Y0092474D01*
Y0092478D01*
Y0093017D01*
X0098608D01*
Y0093137D01*
X0098735D01*
Y0093457D01*
X0098861Y0093365D01*
D02*
G37*
G36*
X01044Y009222D02*
X0104263D01*
Y0093485D01*
X01044D01*
Y009222D01*
D02*
G37*
G36*
X0102011D02*
X0101874D01*
Y0092781D01*
X0101692D01*
X010167Y0092778D01*
X0101652Y0092776D01*
X0101637Y0092772D01*
X0101626Y0092768D01*
X0101617Y0092765D01*
X0101611Y0092763D01*
X0101609Y0092761D01*
X0101594Y0092752D01*
X010158Y0092743D01*
X0101555Y0092718D01*
X0101544Y0092707D01*
X0101537Y0092698D01*
X0101531Y0092691D01*
X010153Y0092689D01*
X0101522Y0092678D01*
X0101513Y0092665D01*
X0101494Y0092635D01*
X0101474Y00926D01*
X0101454Y0092567D01*
X0101437Y0092533D01*
X010143Y0092518D01*
X0101422Y0092507D01*
X0101417Y0092496D01*
X0101413Y0092489D01*
X0101409Y0092483D01*
Y0092481D01*
X010127Y009222D01*
X0101096D01*
X0101278Y0092563D01*
X0101296Y0092596D01*
X0101315Y0092626D01*
X0101333Y0092654D01*
X010135Y0092678D01*
X0101365Y0092696D01*
X0101376Y0092711D01*
X0101383Y009272D01*
X0101387Y0092724D01*
X01014Y0092737D01*
X0101413Y009275D01*
X0101441Y0092772D01*
X0101454Y0092781D01*
X0101463Y0092789D01*
X010147Y0092793D01*
X0101472Y0092794D01*
X0101422Y0092805D01*
X010138Y0092822D01*
X0101343Y0092841D01*
X0101311Y0092859D01*
X0101289Y0092878D01*
X010127Y0092893D01*
X0101261Y0092904D01*
X0101257Y0092905D01*
Y0092907D01*
X0101231Y0092942D01*
X0101213Y0092981D01*
X01012Y009302D01*
X0101191Y0093057D01*
X0101185Y0093089D01*
X0101183Y0093104D01*
Y0093115D01*
X0101181Y0093126D01*
Y0093133D01*
Y0093137D01*
Y0093139D01*
X0101183Y0093178D01*
X0101189Y0093215D01*
X0101196Y0093248D01*
X0101204Y0093276D01*
X0101211Y0093298D01*
X0101218Y0093315D01*
X0101224Y0093326D01*
X0101226Y0093329D01*
X0101243Y0093359D01*
X0101263Y0093383D01*
X0101281Y0093404D01*
X0101298Y009342D01*
X0101315Y0093433D01*
X0101328Y0093441D01*
X0101335Y0093446D01*
X0101339Y0093448D01*
X0101368Y0093461D01*
X0101402Y009347D01*
X0101437Y0093476D01*
X010147Y0093481D01*
X0101502Y0093483D01*
X0101517D01*
X0101528Y0093485D01*
X0102011D01*
Y009222D01*
D02*
G37*
G36*
X0098441D02*
X0098304D01*
Y0093485D01*
X0098441D01*
Y009222D01*
D02*
G37*
G36*
X0103696Y0093505D02*
X0103724Y0093504D01*
X0103777Y0093492D01*
X0103802Y0093485D01*
X0103824Y0093476D01*
X0103844Y0093467D01*
X0103863Y0093459D01*
X0103877Y009345D01*
X0103892Y0093441D01*
X0103905Y0093431D01*
X0103914Y0093424D01*
X0103922Y0093418D01*
X0103927Y0093413D01*
X0103931Y0093411D01*
X0103933Y0093409D01*
X010395Y0093391D01*
X0103964Y009337D01*
X0103979Y009335D01*
X010399Y0093329D01*
X0104007Y0093287D01*
X0104018Y0093248D01*
X0104026Y0093213D01*
X0104027Y0093198D01*
X0104029Y0093185D01*
X0104031Y0093174D01*
Y0093167D01*
Y0093161D01*
Y0093159D01*
X0104029Y0093128D01*
X0104026Y0093098D01*
X010402Y0093072D01*
X0104014Y0093048D01*
X0104009Y009303D01*
X0104003Y0093017D01*
X0104Y0093007D01*
X0103998Y0093004D01*
X0103983Y009298D01*
X0103968Y0092957D01*
X0103952Y0092939D01*
X0103937Y0092924D01*
X0103922Y0092911D01*
X0103911Y00929D01*
X0103903Y0092894D01*
X0103902Y0092893D01*
X0103889Y0092885D01*
X0103874Y0092876D01*
X0103842Y0092861D01*
X0103807Y0092846D01*
X0103774Y0092833D01*
X0103742Y0092822D01*
X0103727Y0092817D01*
X0103716Y0092813D01*
X0103705Y0092809D01*
X0103698Y0092807D01*
X0103694Y0092805D01*
X0103692D01*
X0103663Y0092796D01*
X0103635Y0092789D01*
X0103611Y0092781D01*
X0103589Y0092774D01*
X010357Y0092767D01*
X0103552Y0092761D01*
X0103537Y0092755D01*
X0103524Y009275D01*
X0103511Y0092744D01*
X0103502Y0092741D01*
X0103489Y0092735D01*
X0103479Y0092731D01*
X0103478Y009273D01*
X0103459Y0092718D01*
X0103444Y0092707D01*
X0103431Y0092696D01*
X0103422Y0092685D01*
X0103415Y0092676D01*
X0103407Y0092668D01*
X0103405Y0092663D01*
X0103403Y0092661D01*
X0103394Y0092644D01*
X0103389Y009263D01*
X0103383Y0092613D01*
X0103381Y0092598D01*
X0103379Y0092585D01*
X0103378Y0092574D01*
Y0092567D01*
Y0092565D01*
X0103381Y0092531D01*
X0103389Y0092502D01*
X01034Y0092474D01*
X0103411Y0092452D01*
X0103424Y0092435D01*
X0103435Y0092422D01*
X0103442Y0092415D01*
X0103446Y0092411D01*
X0103474Y0092391D01*
X0103505Y0092378D01*
X0103537Y0092367D01*
X0103566Y0092359D01*
X0103594Y0092356D01*
X0103616Y0092354D01*
X0103626Y0092352D01*
X0103637D01*
X0103668Y0092354D01*
X0103696Y0092357D01*
X0103722Y0092363D01*
X0103746Y009237D01*
X0103765Y0092376D01*
X0103777Y0092381D01*
X0103787Y0092385D01*
X010379Y0092387D01*
X0103815Y0092402D01*
X0103835Y0092417D01*
X0103853Y0092431D01*
X0103868Y0092446D01*
X0103881Y0092459D01*
X0103889Y009247D01*
X0103894Y0092478D01*
X0103896Y009248D01*
X0103909Y0092504D01*
X0103918Y009253D01*
X0103927Y0092555D01*
X0103933Y0092583D01*
X0103937Y0092605D01*
X010394Y0092626D01*
Y0092633D01*
X0103942Y0092639D01*
Y0092641D01*
Y0092643D01*
X010407Y009263D01*
X0104068Y0092593D01*
X0104064Y0092559D01*
X0104057Y0092528D01*
X010405Y0092496D01*
X010404Y0092468D01*
X0104031Y0092443D01*
X0104022Y0092418D01*
X0104011Y0092398D01*
X0104Y009238D01*
X0103989Y0092363D01*
X0103979Y0092348D01*
X0103972Y0092337D01*
X0103964Y0092328D01*
X0103959Y009232D01*
X0103955Y0092317D01*
X0103953Y0092315D01*
X0103931Y0092294D01*
X0103907Y0092278D01*
X0103883Y0092261D01*
X0103857Y0092248D01*
X0103831Y0092237D01*
X0103805Y0092228D01*
X0103757Y0092215D01*
X0103733Y0092209D01*
X0103713Y0092206D01*
X0103694Y0092204D01*
X0103677Y0092202D01*
X0103665Y00922D01*
X0103646D01*
X0103602Y0092202D01*
X0103561Y0092207D01*
X0103524Y0092215D01*
X0103494Y0092224D01*
X0103468Y0092231D01*
X010345Y0092239D01*
X0103444Y0092243D01*
X0103439Y0092244D01*
X0103437Y0092246D01*
X0103435D01*
X0103403Y0092265D01*
X0103376Y0092287D01*
X0103352Y0092309D01*
X0103331Y0092331D01*
X0103316Y0092352D01*
X0103305Y0092367D01*
X0103298Y0092378D01*
X0103296Y009238D01*
Y0092381D01*
X0103279Y0092415D01*
X0103266Y009245D01*
X0103257Y0092483D01*
X010325Y0092515D01*
X0103246Y0092541D01*
X0103244Y0092561D01*
Y0092568D01*
Y0092574D01*
Y0092578D01*
Y009258D01*
X0103246Y0092618D01*
X0103252Y0092655D01*
X0103261Y0092687D01*
X0103268Y0092715D01*
X0103278Y0092737D01*
X0103287Y0092754D01*
X0103292Y0092763D01*
X0103294Y0092767D01*
X0103315Y0092794D01*
X0103337Y009282D01*
X0103361Y0092842D01*
X0103383Y0092861D01*
X0103403Y0092876D01*
X0103422Y0092885D01*
X0103433Y0092893D01*
X0103435Y0092894D01*
X0103437D01*
X010345Y00929D01*
X0103465Y0092907D01*
X0103498Y0092918D01*
X0103533Y0092931D01*
X0103568Y0092942D01*
X0103602Y0092954D01*
X0103616Y0092957D01*
X0103627Y0092961D01*
X0103639Y0092965D01*
X0103646Y0092967D01*
X0103652Y0092968D01*
X0103653D01*
X0103681Y0092976D01*
X0103707Y0092985D01*
X0103731Y0092992D01*
X0103752Y0093D01*
X010377Y0093007D01*
X0103787Y0093015D01*
X0103802Y009302D01*
X0103813Y0093028D01*
X0103833Y0093039D01*
X0103846Y0093046D01*
X0103853Y0093052D01*
X0103855Y0093054D01*
X010387Y009307D01*
X0103881Y0093091D01*
X0103889Y0093109D01*
X0103894Y009313D01*
X0103898Y0093146D01*
X01039Y0093159D01*
Y0093168D01*
Y0093172D01*
X0103898Y0093202D01*
X010389Y0093228D01*
X0103881Y009325D01*
X0103868Y009327D01*
X0103857Y0093285D01*
X0103848Y0093296D01*
X010384Y0093304D01*
X0103839Y0093305D01*
X0103813Y0093324D01*
X0103785Y0093337D01*
X0103755Y0093346D01*
X0103727Y0093352D01*
X0103702Y0093357D01*
X0103679Y0093359D01*
X0103661D01*
X010362Y0093357D01*
X0103585Y009335D01*
X0103553Y0093341D01*
X0103529Y0093329D01*
X0103509Y0093317D01*
X0103494Y0093307D01*
X0103487Y00933D01*
X0103483Y0093298D01*
X0103461Y0093274D01*
X0103444Y0093244D01*
X0103431Y0093215D01*
X010342Y0093185D01*
X0103415Y0093159D01*
X0103409Y0093137D01*
Y0093128D01*
X0103407Y0093122D01*
Y0093118D01*
Y0093117D01*
X0103276Y009313D01*
X0103279Y009317D01*
X0103285Y0093209D01*
X0103294Y0093242D01*
X0103303Y0093272D01*
X0103313Y0093296D01*
X010332Y0093315D01*
X0103326Y0093326D01*
X0103328Y0093328D01*
Y0093329D01*
X0103348Y0093359D01*
X0103368Y0093387D01*
X010339Y0093409D01*
X0103413Y0093428D01*
X0103433Y0093442D01*
X0103448Y0093452D01*
X0103459Y0093459D01*
X0103461Y0093461D01*
X0103463D01*
X0103496Y0093476D01*
X0103531Y0093487D01*
X0103565Y0093496D01*
X0103596Y0093502D01*
X0103624Y0093505D01*
X0103635D01*
X0103646Y0093507D01*
X0103665D01*
X0103696Y0093505D01*
D02*
G37*
G36*
X0099419Y0093155D02*
X0099446Y0093152D01*
X0099471Y0093146D01*
X0099495Y0093139D01*
X0099539Y0093118D01*
X0099576Y0093096D01*
X0099591Y0093085D01*
X0099606Y0093074D01*
X0099617Y0093063D01*
X0099626Y0093054D01*
X0099633Y0093046D01*
X0099639Y0093041D01*
X0099643Y0093037D01*
X0099645Y0093035D01*
X0099661Y0093011D01*
X0099676Y0092985D01*
X0099691Y0092957D01*
X0099702Y0092928D01*
X0099719Y0092868D01*
X009973Y0092811D01*
X0099735Y0092785D01*
X0099737Y0092759D01*
X0099739Y0092737D01*
X0099741Y0092717D01*
X0099743Y00927D01*
Y0092689D01*
Y009268D01*
Y0092678D01*
X0099741Y0092635D01*
X0099739Y0092594D01*
X0099733Y0092557D01*
X0099728Y0092522D01*
X0099719Y0092491D01*
X0099711Y0092461D01*
X0099702Y0092433D01*
X0099693Y0092411D01*
X0099683Y0092389D01*
X0099674Y009237D01*
X0099665Y0092356D01*
X0099658Y0092343D01*
X0099652Y0092333D01*
X0099646Y0092326D01*
X0099645Y0092322D01*
X0099643Y009232D01*
X0099624Y00923D01*
X0099604Y0092281D01*
X0099582Y0092265D01*
X0099561Y009225D01*
X0099539Y0092239D01*
X0099519Y009223D01*
X009948Y0092215D01*
X0099445Y0092206D01*
X009943Y0092204D01*
X0099417Y0092202D01*
X0099406Y00922D01*
X0099391D01*
X0099363Y0092202D01*
X0099337Y0092206D01*
X0099311Y0092211D01*
X0099287Y0092218D01*
X0099245Y0092239D01*
X0099208Y0092261D01*
X0099193Y0092272D01*
X0099178Y0092281D01*
X0099167Y0092293D01*
X0099158Y0092302D01*
X0099148Y0092309D01*
X0099143Y0092315D01*
X0099141Y0092318D01*
X0099139Y009232D01*
X0099121Y0092344D01*
X0099106Y009237D01*
X0099093Y0092398D01*
X0099082Y0092428D01*
X0099063Y0092489D01*
X0099052Y0092548D01*
X0099046Y0092576D01*
X0099045Y0092604D01*
X0099043Y0092626D01*
X0099041Y0092646D01*
X0099039Y0092663D01*
Y0092676D01*
Y0092685D01*
Y0092687D01*
X0099041Y0092728D01*
X0099043Y0092767D01*
X0099048Y0092804D01*
X0099056Y0092837D01*
X0099063Y0092868D01*
X0099071Y0092898D01*
X009908Y0092924D01*
X0099089Y0092946D01*
X00991Y0092967D01*
X0099109Y0092985D01*
X0099117Y0093D01*
X0099124Y0093013D01*
X0099132Y0093022D01*
X0099137Y009303D01*
X0099139Y0093033D01*
X0099141Y0093035D01*
X0099159Y0093057D01*
X009918Y0093076D01*
X00992Y0093092D01*
X0099222Y0093105D01*
X0099243Y0093118D01*
X0099263Y0093128D01*
X0099304Y0093142D01*
X0099337Y0093152D01*
X0099354Y0093154D01*
X0099365Y0093155D01*
X0099376Y0093157D01*
X0099391D01*
X0099419Y0093155D01*
D02*
G37*
G36*
X0098187Y0092D02*
X0097363D01*
Y0092089D01*
X0098187D01*
Y0092D01*
D02*
G37*
G36*
X0083238Y0063388D02*
X0083355Y0063505D01*
X0083434Y0063426D01*
X0083317Y0063308D01*
X0083435Y006319D01*
X0083354Y0063109D01*
X0083236Y0063227D01*
X0083119Y006311D01*
X008304Y0063189D01*
X0083157Y0063307D01*
X0083038Y0063426D01*
X0083119Y0063507D01*
X0083238Y0063388D01*
D02*
G37*
G36*
X0089238Y0057388D02*
X0089355Y0057505D01*
X0089434Y0057426D01*
X0089317Y0057308D01*
X0089435Y005719D01*
X0089354Y0057109D01*
X0089236Y0057227D01*
X0089119Y005711D01*
X008904Y0057189D01*
X0089157Y0057307D01*
X0089038Y0057426D01*
X0089119Y0057507D01*
X0089238Y0057388D01*
D02*
G37*
%LPC*%
G36*
X0100185Y009303D02*
X0100167D01*
X010015Y0093026D01*
X0100122Y0093017D01*
X0100098Y0093002D01*
X0100078Y0092987D01*
X0100061Y0092972D01*
X0100048Y0092957D01*
X0100039Y0092948D01*
X0100037Y0092946D01*
Y0092944D01*
X0100026Y0092928D01*
X0100017Y0092909D01*
X0100002Y0092867D01*
X0099993Y0092824D01*
X0099985Y009278D01*
X0099982Y0092741D01*
X009998Y0092724D01*
X0099978Y0092709D01*
Y0092696D01*
Y0092687D01*
Y0092681D01*
Y009268D01*
Y0092648D01*
X009998Y0092618D01*
X0099983Y0092591D01*
X0099987Y0092565D01*
X0099993Y0092541D01*
X0099996Y0092518D01*
X0100002Y0092498D01*
X0100007Y0092481D01*
X0100015Y0092467D01*
X010002Y0092452D01*
X0100024Y0092441D01*
X010003Y0092431D01*
X0100033Y0092424D01*
X0100037Y0092418D01*
X0100039Y0092417D01*
Y0092415D01*
X010005Y00924D01*
X0100063Y0092387D01*
X0100087Y0092365D01*
X0100111Y009235D01*
X0100132Y0092339D01*
X0100152Y0092333D01*
X0100167Y009233D01*
X0100176Y0092328D01*
X010018D01*
X01002Y009233D01*
X010022Y0092333D01*
X0100239Y0092339D01*
X0100254Y0092346D01*
X0100267Y0092354D01*
X0100276Y0092359D01*
X0100283Y0092363D01*
X0100285Y0092365D01*
X0100302Y009238D01*
X0100317Y0092398D01*
X0100328Y0092415D01*
X0100339Y0092433D01*
X0100346Y0092448D01*
X0100352Y0092461D01*
X0100356Y0092468D01*
X0100357Y0092472D01*
X0100367Y0092502D01*
X0100372Y0092535D01*
X0100378Y009257D01*
X010038Y0092605D01*
X0100382Y0092637D01*
X0100383Y009265D01*
Y0092661D01*
Y0092672D01*
Y009268D01*
Y0092683D01*
Y0092685D01*
Y0092715D01*
X0100382Y0092744D01*
X0100378Y009277D01*
X0100374Y0092796D01*
X0100369Y0092818D01*
X0100365Y0092839D01*
X0100359Y0092859D01*
X0100352Y0092876D01*
X0100346Y0092891D01*
X0100341Y0092904D01*
X0100337Y0092915D01*
X0100332Y0092924D01*
X0100328Y0092931D01*
X0100324Y0092937D01*
X0100322Y0092939D01*
Y0092941D01*
X0100311Y0092955D01*
X0100298Y009297D01*
X0100274Y0092992D01*
X010025Y0093007D01*
X010023Y0093018D01*
X0100209Y0093026D01*
X0100195Y0093028D01*
X0100185Y009303D01*
D02*
G37*
G36*
X0096799Y009268D02*
Y0092622D01*
X00968Y0092583D01*
X0096802Y0092548D01*
X0096808Y0092518D01*
X0096812Y0092494D01*
X0096817Y0092474D01*
X0096823Y0092461D01*
X0096824Y0092454D01*
X0096826Y009245D01*
X0096837Y009243D01*
X009685Y0092411D01*
X0096865Y0092396D01*
X0096878Y0092381D01*
X0096891Y0092372D01*
X00969Y0092363D01*
X0096908Y0092359D01*
X009691Y0092357D01*
X009693Y0092346D01*
X0096952Y0092337D01*
X0096973Y0092331D01*
X0096993Y0092326D01*
X009701Y0092324D01*
X0097023Y0092322D01*
X0097034D01*
X009706Y0092324D01*
X0097082Y0092328D01*
X00971Y0092335D01*
X0097117Y0092343D01*
X009713Y0092348D01*
X0097139Y0092356D01*
X0097145Y0092359D01*
X0097147Y0092361D01*
X009716Y0092376D01*
X0097169Y0092394D01*
X0097176Y0092411D01*
X009718Y0092428D01*
X0097184Y0092443D01*
X0097186Y0092454D01*
Y0092461D01*
Y0092465D01*
X0097184Y0092493D01*
X009718Y0092506D01*
X0097176Y0092517D01*
X0097174Y0092524D01*
X0097171Y0092531D01*
X0097169Y0092535D01*
Y0092537D01*
X0097154Y0092559D01*
X0097137Y0092574D01*
X009713Y009258D01*
X0097124Y0092583D01*
X0097121Y0092587D01*
X0097119D01*
X0097104Y0092594D01*
X0097087Y00926D01*
X009705Y0092611D01*
X0097034Y0092615D01*
X0097019Y0092618D01*
X009701Y009262D01*
X0097006D01*
X0096958Y009263D01*
X0096915Y0092641D01*
X009688Y009265D01*
X009685Y0092659D01*
X0096828Y0092667D01*
X0096812Y0092674D01*
X0096802Y0092678D01*
X0096799Y009268D01*
D02*
G37*
G36*
X0101874Y0093346D02*
X0101546D01*
X0101507Y0093344D01*
X0101474Y0093337D01*
X0101444Y0093329D01*
X010142Y0093318D01*
X0101404Y0093309D01*
X0101391Y00933D01*
X0101381Y0093292D01*
X010138Y0093291D01*
X0101361Y0093268D01*
X0101346Y0093244D01*
X0101337Y0093218D01*
X010133Y0093194D01*
X0101326Y0093172D01*
X0101322Y0093155D01*
Y0093148D01*
Y0093142D01*
Y0093141D01*
Y0093139D01*
X0101324Y0093115D01*
X0101326Y0093092D01*
X0101331Y0093072D01*
X0101337Y0093055D01*
X0101343Y0093041D01*
X0101346Y0093031D01*
X010135Y0093024D01*
X0101352Y0093022D01*
X0101363Y0093005D01*
X0101376Y0092989D01*
X0101391Y0092978D01*
X0101402Y0092967D01*
X0101415Y0092959D01*
X0101422Y0092952D01*
X010143Y009295D01*
X0101431Y0092948D01*
X0101452Y0092941D01*
X0101476Y0092935D01*
X01015Y0092931D01*
X0101524Y009293D01*
X0101546Y0092928D01*
X0101563Y0092926D01*
X0101874D01*
Y0093346D01*
D02*
G37*
G36*
X0099398Y009303D02*
X0099378D01*
X0099361Y0093026D01*
X009933Y0093017D01*
X0099302Y0093002D01*
X009928Y0092987D01*
X0099261Y009297D01*
X0099246Y0092955D01*
X0099239Y0092946D01*
X0099235Y0092944D01*
Y0092942D01*
X0099224Y0092926D01*
X0099213Y0092905D01*
X0099196Y0092865D01*
X0099185Y009282D01*
X0099176Y0092778D01*
X0099172Y0092739D01*
X0099171Y0092722D01*
Y0092707D01*
X0099169Y0092694D01*
Y0092685D01*
Y009268D01*
Y0092678D01*
Y0092646D01*
X0099171Y0092617D01*
X0099174Y0092589D01*
X0099178Y0092563D01*
X0099184Y0092539D01*
X0099189Y0092517D01*
X0099195Y0092498D01*
X00992Y009248D01*
X0099208Y0092465D01*
X0099213Y0092452D01*
X0099219Y0092441D01*
X0099222Y0092431D01*
X0099228Y0092424D01*
X009923Y0092418D01*
X0099233Y0092417D01*
Y0092415D01*
X0099246Y00924D01*
X0099259Y0092387D01*
X0099285Y0092365D01*
X0099311Y009235D01*
X0099335Y0092339D01*
X0099358Y0092333D01*
X0099374Y009233D01*
X0099385Y0092328D01*
X0099389D01*
X0099406Y009233D01*
X0099422Y0092331D01*
X0099454Y0092341D01*
X0099482Y0092356D01*
X0099504Y009237D01*
X0099522Y0092385D01*
X0099537Y00924D01*
X0099545Y0092409D01*
X0099548Y0092413D01*
X0099559Y009243D01*
X0099571Y009245D01*
X0099585Y0092491D01*
X0099596Y0092535D01*
X0099606Y0092578D01*
X0099609Y0092617D01*
X0099611Y0092633D01*
Y0092648D01*
X0099613Y0092661D01*
Y009267D01*
Y0092676D01*
Y0092678D01*
Y0092709D01*
X0099611Y0092739D01*
X0099608Y0092767D01*
X0099604Y0092793D01*
X0099598Y0092817D01*
X0099593Y0092839D01*
X0099587Y0092857D01*
X0099582Y0092876D01*
X0099576Y0092891D01*
X0099571Y0092904D01*
X0099565Y0092915D01*
X0099559Y0092924D01*
X0099556Y0092931D01*
X0099552Y0092937D01*
X009955Y0092939D01*
Y0092941D01*
X0099537Y0092955D01*
X0099524Y009297D01*
X0099498Y0092992D01*
X0099472Y0093007D01*
X0099448Y0093018D01*
X0099426Y0093026D01*
X0099409Y0093028D01*
X0099398Y009303D01*
D02*
G37*
%LPD*%
D26*
X0082253Y0061159D02*
X0084091Y0062997D01*
X0077374Y0066038D02*
X0082253Y0061159D01*
X0077374Y0066038D02*
X0079212Y0067876D01*
X0084091Y0062997D01*
X0088253Y0055159D02*
X0090091Y0056997D01*
X0083374Y0060038D02*
X0088253Y0055159D01*
X0083374Y0060038D02*
X0085212Y0061876D01*
X0090091Y0056997D01*
X009425Y0053D02*
Y0097D01*
X009575Y0053D02*
Y0097D01*
D27*
X0085333Y00665D02*
Y0065833D01*
X0085Y00655D01*
X0084666Y0065833D01*
Y00665D01*
X0084333D02*
Y00655D01*
X0083833D01*
X0083667Y0065667D01*
Y0066333D01*
X0083833Y00665D01*
X0084333D01*
X0082667Y00655D02*
X0083334D01*
X0082667Y0066167D01*
Y0066333D01*
X0082834Y00665D01*
X0083167D01*
X0083334Y0066333D01*
X0091166Y00605D02*
Y0059833D01*
X0090833Y00595D01*
X00905Y0059833D01*
Y00605D01*
X0090167D02*
Y00595D01*
X0089667D01*
X00895Y0059667D01*
Y0060333D01*
X0089667Y00605D01*
X0090167D01*
X0089167Y00595D02*
X0088834D01*
X0089D01*
Y00605D01*
X0089167Y0060333D01*
M02*
