G04*
G04 #@! TF.GenerationSoftware,Altium Limited,Altium Designer,20.1.8 (145)*
G04*
G04 Layer_Physical_Order=1*
G04 Layer_Color=255*
%FSLAX43Y43*%
%MOMM*%
G71*
G04*
G04 #@! TF.SameCoordinates,C5C313FD-7657-4A41-8647-220B39F72BCF*
G04*
G04*
G04 #@! TF.FilePolarity,Positive*
G04*
G01*
G75*
%ADD26C,0.900*%
%ADD27C,3.500*%
%ADD28P,0.849X4X314.9*%
%ADD29P,0.849X4X315.0*%
%ADD30R,0.700X0.700*%
%ADD31R,0.250X0.700*%
%ADD32R,0.700X0.250*%
G04:AMPARAMS|DCode=33|XSize=4mm|YSize=3mm|CornerRadius=0.75mm|HoleSize=0mm|Usage=FLASHONLY|Rotation=180.000|XOffset=0mm|YOffset=0mm|HoleType=Round|Shape=RoundedRectangle|*
%AMROUNDEDRECTD33*
21,1,4.000,1.500,0,0,180.0*
21,1,2.500,3.000,0,0,180.0*
1,1,1.500,-1.250,0.750*
1,1,1.500,1.250,0.750*
1,1,1.500,1.250,-0.750*
1,1,1.500,-1.250,-0.750*
%
%ADD33ROUNDEDRECTD33*%
G04:AMPARAMS|DCode=34|XSize=3.5mm|YSize=1.25mm|CornerRadius=0.313mm|HoleSize=0mm|Usage=FLASHONLY|Rotation=90.000|XOffset=0mm|YOffset=0mm|HoleType=Round|Shape=RoundedRectangle|*
%AMROUNDEDRECTD34*
21,1,3.500,0.625,0,0,90.0*
21,1,2.875,1.250,0,0,90.0*
1,1,0.625,0.313,1.438*
1,1,0.625,0.313,-1.438*
1,1,0.625,-0.313,-1.438*
1,1,0.625,-0.313,1.438*
%
%ADD34ROUNDEDRECTD34*%
G04:AMPARAMS|DCode=35|XSize=3.5mm|YSize=3mm|CornerRadius=0.75mm|HoleSize=0mm|Usage=FLASHONLY|Rotation=90.000|XOffset=0mm|YOffset=0mm|HoleType=Round|Shape=RoundedRectangle|*
%AMROUNDEDRECTD35*
21,1,3.500,1.500,0,0,90.0*
21,1,2.000,3.000,0,0,90.0*
1,1,1.500,0.750,1.000*
1,1,1.500,0.750,-1.000*
1,1,1.500,-0.750,-1.000*
1,1,1.500,-0.750,1.000*
%
%ADD35ROUNDEDRECTD35*%
%ADD36R,0.900X0.800*%
G04:AMPARAMS|DCode=37|XSize=1.6mm|YSize=1mm|CornerRadius=0mm|HoleSize=0mm|Usage=FLASHONLY|Rotation=140.000|XOffset=0mm|YOffset=0mm|HoleType=Round|Shape=Rectangle|*
%AMROTATEDRECTD37*
4,1,4,0.934,-0.131,0.291,-0.897,-0.934,0.131,-0.291,0.897,0.934,-0.131,0.0*
%
%ADD37ROTATEDRECTD37*%

G04:AMPARAMS|DCode=38|XSize=3.3mm|YSize=1mm|CornerRadius=0mm|HoleSize=0mm|Usage=FLASHONLY|Rotation=25.000|XOffset=0mm|YOffset=0mm|HoleType=Round|Shape=Rectangle|*
%AMROTATEDRECTD38*
4,1,4,-1.284,-1.150,-1.707,-0.244,1.284,1.150,1.707,0.244,-1.284,-1.150,0.0*
%
%ADD38ROTATEDRECTD38*%

G04:AMPARAMS|DCode=39|XSize=3.3mm|YSize=1mm|CornerRadius=0mm|HoleSize=0mm|Usage=FLASHONLY|Rotation=119.568|XOffset=0mm|YOffset=0mm|HoleType=Round|Shape=Rectangle|*
%AMROTATEDRECTD39*
4,1,4,1.249,-1.188,0.379,-1.682,-1.249,1.188,-0.379,1.682,1.249,-1.188,0.0*
%
%ADD39ROTATEDRECTD39*%

G04:AMPARAMS|DCode=40|XSize=3.3mm|YSize=1mm|CornerRadius=0mm|HoleSize=0mm|Usage=FLASHONLY|Rotation=340.000|XOffset=0mm|YOffset=0mm|HoleType=Round|Shape=Rectangle|*
%AMROTATEDRECTD40*
4,1,4,-1.722,0.094,-1.379,1.034,1.722,-0.094,1.379,-1.034,-1.722,0.094,0.0*
%
%ADD40ROTATEDRECTD40*%

G04:AMPARAMS|DCode=41|XSize=3.3mm|YSize=1mm|CornerRadius=0mm|HoleSize=0mm|Usage=FLASHONLY|Rotation=75.000|XOffset=0mm|YOffset=0mm|HoleType=Round|Shape=Rectangle|*
%AMROTATEDRECTD41*
4,1,4,0.056,-1.723,-0.910,-1.464,-0.056,1.723,0.910,1.464,0.056,-1.723,0.0*
%
%ADD41ROTATEDRECTD41*%

G04:AMPARAMS|DCode=42|XSize=4mm|YSize=5mm|CornerRadius=1mm|HoleSize=0mm|Usage=FLASHONLY|Rotation=180.000|XOffset=0mm|YOffset=0mm|HoleType=Round|Shape=RoundedRectangle|*
%AMROUNDEDRECTD42*
21,1,4.000,3.000,0,0,180.0*
21,1,2.000,5.000,0,0,180.0*
1,1,2.000,-1.000,1.500*
1,1,2.000,1.000,1.500*
1,1,2.000,1.000,-1.500*
1,1,2.000,-1.000,-1.500*
%
%ADD42ROUNDEDRECTD42*%
%ADD43C,0.250*%
%ADD44C,0.400*%
%ADD45C,1.500*%
%ADD46C,0.600*%
G36*
X65460Y57214D02*
X65040D01*
X65042Y57218D01*
X65044Y57225D01*
X65045Y57235D01*
X65048Y57266D01*
X65050Y57369D01*
X65050Y57404D01*
X65450D01*
X65460Y57214D01*
D02*
G37*
G36*
X67460Y57214D02*
X67040Y57214D01*
X67042Y57218D01*
X67044Y57225D01*
X67045Y57235D01*
X67047Y57266D01*
X67050Y57369D01*
X67050Y57404D01*
X67450Y57404D01*
X67460Y57214D01*
D02*
G37*
G36*
X65100Y49300D02*
X65100D01*
Y48750D01*
X64900D01*
Y49300D01*
X64600D01*
Y48750D01*
X64400D01*
Y49300D01*
X64100D01*
Y48750D01*
X64000D01*
Y48650D01*
X63675D01*
Y48425D01*
X63300D01*
Y48200D01*
X63850D01*
Y48000D01*
X63300D01*
Y48000D01*
X62998D01*
X62948Y48000D01*
X62857Y48038D01*
X62787Y48108D01*
X62750Y48200D01*
X62750Y48249D01*
Y48350D01*
X62750Y49600D01*
Y49650D01*
X62788Y49742D01*
X62858Y49812D01*
X62950Y49850D01*
X63000Y49850D01*
X65100Y49850D01*
X65100Y49300D01*
D02*
G37*
G36*
X66718Y49708D02*
X66725Y49706D01*
X66735Y49705D01*
X66766Y49702D01*
X66869Y49700D01*
X66904Y49700D01*
Y49300D01*
X66714Y49290D01*
Y49710D01*
X66718Y49708D01*
D02*
G37*
G36*
X66694Y49268D02*
X66679Y49250D01*
X66667Y49229D01*
X66656Y49208D01*
X66646Y49184D01*
X66639Y49160D01*
X66633Y49134D01*
X66628Y49106D01*
X66626Y49078D01*
X66625Y49047D01*
X66375D01*
X66374Y49078D01*
X66372Y49106D01*
X66367Y49134D01*
X66361Y49160D01*
X66354Y49184D01*
X66344Y49208D01*
X66333Y49229D01*
X66321Y49250D01*
X66306Y49268D01*
X66290Y49286D01*
X66710D01*
X66694Y49268D01*
D02*
G37*
G36*
X67454Y48146D02*
X67453Y48139D01*
X67451Y48129D01*
X67449Y48098D01*
X67447Y47961D01*
X67047Y47956D01*
X67047Y47990D01*
X67038Y48142D01*
X67036Y48146D01*
X67456Y48150D01*
X67454Y48146D01*
D02*
G37*
G36*
X69032Y49555D02*
X69085Y49464D01*
X69144Y49378D01*
X69212Y49298D01*
X69248Y49260D01*
X69501Y49007D01*
X69870Y48648D01*
X69985Y48541D01*
X70103Y48438D01*
X70224Y48337D01*
X70347Y48240D01*
X70473Y48146D01*
X70602Y48055D01*
X70732Y47968D01*
X70865Y47884D01*
X71000Y47804D01*
X71137Y47727D01*
X71276Y47654D01*
X71417Y47584D01*
X71560Y47519D01*
X71704Y47457D01*
X71850Y47399D01*
X71997Y47344D01*
X72146Y47294D01*
X72296Y47247D01*
X72447Y47204D01*
X72599Y47166D01*
X72753Y47131D01*
X72907Y47100D01*
X73061Y47074D01*
X73217Y47051D01*
X73373Y47033D01*
X73529Y47019D01*
X73686Y47008D01*
X73843Y47002D01*
X74000Y47000D01*
X74157Y47002D01*
X74314Y47008D01*
X74471Y47019D01*
X74627Y47033D01*
X74783Y47051D01*
X74939Y47074D01*
X75093Y47100D01*
X75247Y47131D01*
X75401Y47166D01*
X75553Y47204D01*
X75854Y47294D01*
X76003Y47344D01*
X76150Y47399D01*
X76296Y47457D01*
X76440Y47519D01*
X76583Y47584D01*
X76724Y47654D01*
X76863Y47727D01*
X77000Y47804D01*
X77135Y47884D01*
X77268Y47968D01*
X77398Y48055D01*
X77527Y48146D01*
X77653Y48240D01*
X77776Y48337D01*
X77782Y48342D01*
X77898Y48387D01*
X77898Y48387D01*
X77898D01*
X78015Y48380D01*
X78132Y48356D01*
X78278Y48296D01*
X78409Y48208D01*
X78465Y48152D01*
X79220Y46943D01*
X79233Y46826D01*
X79233Y46783D01*
X79217Y46700D01*
X79184Y46622D01*
X79137Y46552D01*
X79107Y46522D01*
X79022Y46455D01*
X78849Y46326D01*
X78673Y46201D01*
X78493Y46081D01*
X78311Y45966D01*
X78125Y45855D01*
X77937Y45750D01*
X77552Y45554D01*
X77356Y45463D01*
X77157Y45378D01*
X76957Y45298D01*
X76754Y45223D01*
X76549Y45154D01*
X76343Y45090D01*
X76135Y45031D01*
X75926Y44978D01*
X75715Y44930D01*
X75503Y44888D01*
X75291Y44852D01*
X75077Y44821D01*
X74862Y44795D01*
X74647Y44775D01*
X74432Y44761D01*
X74216Y44753D01*
X74000Y44750D01*
X73784Y44753D01*
X73568Y44761D01*
X73353Y44775D01*
X73138Y44795D01*
X72923Y44821D01*
X72709Y44852D01*
X72497Y44888D01*
X72285Y44930D01*
X72074Y44978D01*
X71865Y45031D01*
X71657Y45090D01*
X71451Y45154D01*
X71246Y45223D01*
X71043Y45298D01*
X70843Y45378D01*
X70644Y45463D01*
X70448Y45554D01*
X70255Y45649D01*
X70063Y45750D01*
X69875Y45855D01*
X69857Y45855D01*
X69857Y45855D01*
X69800Y45852D01*
X69690Y45823D01*
X69591Y45767D01*
X69509Y45689D01*
X69477Y45642D01*
X68245Y43998D01*
X68225Y43958D01*
X68174Y43886D01*
X68119Y43831D01*
X68009Y43775D01*
X67770Y43935D01*
X67534Y44101D01*
X67304Y44273D01*
X67077Y44451D01*
X66856Y44636D01*
X66640Y44825D01*
X65918Y45492D01*
X65914Y45619D01*
X66863Y46619D01*
X67104D01*
X67230Y46644D01*
X67231Y46644D01*
X67633Y46644D01*
X67929Y46639D01*
X67923Y46909D01*
X68012Y46999D01*
X68149Y46999D01*
X68150Y47499D01*
X68151Y47999D01*
X67900Y48000D01*
X67900Y48000D01*
Y49000D01*
X68150Y49001D01*
X68150Y49501D01*
X68250Y49501D01*
X68250Y49601D01*
X68839Y49601D01*
X68840Y49602D01*
X69009D01*
X69032Y49555D01*
D02*
G37*
G36*
X85489Y62375D02*
X86879Y60725D01*
X87858Y58740D01*
X88489Y56882D01*
X88872Y54958D01*
X89000Y53000D01*
X88872Y51042D01*
X88489Y49118D01*
X87858Y47260D01*
X87576Y46625D01*
X87457Y46580D01*
X85981Y47262D01*
X85177Y47672D01*
X85243Y48063D01*
X85650Y49215D01*
X85833Y49829D01*
X86045Y50768D01*
X86145Y51401D01*
X86183Y51720D01*
X86332Y51868D01*
X86332Y51868D01*
X86332Y51868D01*
X86333Y51869D01*
X86409Y51953D01*
X86410Y51956D01*
X86535Y52143D01*
X86623Y52354D01*
X86667Y52578D01*
X86673Y52692D01*
X86670Y52996D01*
X86513Y54751D01*
X86513Y54751D01*
X86513Y54751D01*
X86502Y54930D01*
X86430Y55280D01*
X86290Y55609D01*
X86089Y55904D01*
X85967Y56036D01*
X85833Y56171D01*
X85318Y57688D01*
X85057Y58274D01*
X84766Y58845D01*
X83759Y60821D01*
X83541Y62151D01*
X85085Y62665D01*
X85489Y62375D01*
D02*
G37*
G36*
X64009Y46332D02*
X63988Y46310D01*
X63969Y46287D01*
X63953Y46265D01*
X63938Y46242D01*
X63927Y46220D01*
X63917Y46197D01*
X63909Y46174D01*
X63904Y46150D01*
X63901Y46127D01*
X63900Y46103D01*
X63603Y46400D01*
X63627Y46401D01*
X63650Y46404D01*
X63674Y46409D01*
X63697Y46417D01*
X63720Y46427D01*
X63742Y46438D01*
X63765Y46453D01*
X63787Y46469D01*
X63810Y46488D01*
X63832Y46509D01*
X64009Y46332D01*
D02*
G37*
G36*
X63300Y47700D02*
X63850D01*
Y47500D01*
X63675D01*
Y47500D01*
X63300D01*
Y47275D01*
X63675D01*
Y46982D01*
X63669Y46950D01*
Y46714D01*
X63600Y46610D01*
X63405Y46571D01*
X63240Y46460D01*
X63129Y46295D01*
X63090Y46100D01*
X63129Y45905D01*
X63240Y45740D01*
X63405Y45629D01*
X63600Y45590D01*
X63795Y45629D01*
X63960Y45740D01*
X64071Y45905D01*
X64110Y46100D01*
X64106Y46119D01*
X64106Y46119D01*
X64108Y46125D01*
X64111Y46132D01*
X64115Y46141D01*
X64122Y46151D01*
X64128Y46159D01*
X64234Y46266D01*
X64306Y46373D01*
X64311Y46400D01*
X64400D01*
Y46950D01*
X64600D01*
Y46400D01*
X64900D01*
Y46950D01*
X65100D01*
Y46314D01*
X65104Y46310D01*
X65104Y45454D01*
X65104Y45454D01*
Y45383D01*
X65050Y45253D01*
X64950Y45154D01*
X64820Y45100D01*
X63000Y45100D01*
X62950Y45100D01*
X62858Y45138D01*
X62788Y45208D01*
X62750Y45300D01*
X62750Y45350D01*
X62750Y47503D01*
X62788Y47595D01*
X62858Y47665D01*
X62950Y47703D01*
X63300D01*
Y47700D01*
D02*
G37*
G36*
X81975Y53209D02*
X82169Y53159D01*
X82144Y52892D01*
X82029Y52370D01*
X81932Y51956D01*
X81825Y51337D01*
X81671Y50728D01*
X81486Y50133D01*
X81490Y50058D01*
X81519Y49910D01*
X81577Y49770D01*
X81633Y49686D01*
X81634Y49684D01*
X81634Y49684D01*
X81661Y49645D01*
X81711Y49589D01*
X81711Y49589D01*
X81794Y49506D01*
X82060Y49300D01*
X82184Y49176D01*
X82379Y48884D01*
X82513Y48560D01*
X82581Y48216D01*
X82581Y48040D01*
X82581Y48040D01*
X82581Y48040D01*
X82581Y47806D01*
X82581Y47674D01*
X82530Y47414D01*
X82428Y47170D01*
X82281Y46950D01*
X82188Y46856D01*
X82188D01*
X82188Y46856D01*
X81794Y46343D01*
X81056Y45565D01*
X80240Y44868D01*
X79125Y44123D01*
X77673Y43431D01*
X76653Y43099D01*
X75603Y42876D01*
X74268Y42754D01*
X73464Y42764D01*
X72930Y42820D01*
X72593Y42820D01*
X72560Y42819D01*
X72495Y42806D01*
X72456Y42789D01*
X72435Y42781D01*
X72434Y42781D01*
X72380Y42744D01*
X72363Y42729D01*
X72356Y42722D01*
X72356Y42722D01*
X72356Y42722D01*
X71494Y39480D01*
X71441Y39193D01*
X71441Y39162D01*
X71416Y39104D01*
X71391Y39079D01*
X71281Y39036D01*
Y39036D01*
X71159Y39047D01*
X69953Y39337D01*
X68893Y39696D01*
X68547Y39835D01*
X67865Y40138D01*
X67299Y40427D01*
X67287Y40439D01*
X67268Y40467D01*
X67255Y40498D01*
X67249Y40531D01*
X67249Y40548D01*
Y40596D01*
X67865Y42118D01*
X69280Y44347D01*
X69427Y44494D01*
X69506Y44573D01*
X69693Y44698D01*
X69900Y44784D01*
X70120Y44827D01*
X70232Y44827D01*
X70232Y44827D01*
X70339Y44778D01*
X70556Y44685D01*
X70775Y44598D01*
X71219Y44440D01*
X71444Y44371D01*
X72129Y44197D01*
X72592Y44111D01*
X73059Y44049D01*
X73529Y44012D01*
X74000Y44000D01*
X74471Y44012D01*
X75175Y44077D01*
X75640Y44151D01*
X76556Y44371D01*
X77444Y44685D01*
X78086Y44981D01*
X78294Y45091D01*
X78702Y45326D01*
X79290Y45719D01*
X79664Y46006D01*
X80022Y46312D01*
X80364Y46636D01*
X80688Y46978D01*
X80994Y47336D01*
X81254Y47878D01*
X81254Y47932D01*
X81254Y47932D01*
X81253Y47944D01*
X81253Y47944D01*
X81249Y47966D01*
X81249Y47966D01*
X81240Y47988D01*
X81240Y47988D01*
X81227Y48007D01*
X81224Y48011D01*
X81219Y48015D01*
X81219Y48016D01*
X81219Y48016D01*
X81219D01*
X81127Y48100D01*
X80218Y48929D01*
X80189Y48957D01*
X80144Y49023D01*
X80113Y49097D01*
X80097Y49175D01*
X80096Y49215D01*
Y49240D01*
X80153Y49380D01*
X80646Y51219D01*
X81124Y53006D01*
X81122Y53007D01*
X81199Y53338D01*
X81308Y53402D01*
X81975Y53209D01*
D02*
G37*
G36*
X65246Y44123D02*
X64875Y43681D01*
X65641Y43038D01*
X66407Y42396D01*
X66757Y42813D01*
X66911Y42839D01*
X67115Y42635D01*
X67181Y42536D01*
X67227Y42426D01*
X67239Y42367D01*
X67250Y42250D01*
Y42250D01*
X67250D01*
X67250Y42250D01*
X67250Y42104D01*
Y42019D01*
X67217Y41855D01*
X67153Y41699D01*
X67059Y41559D01*
X66941Y41441D01*
X66801Y41347D01*
X66645Y41283D01*
X66481Y41250D01*
X66396Y41250D01*
X64441D01*
X64324Y41273D01*
X64214Y41319D01*
X64115Y41385D01*
X64073Y41427D01*
Y41427D01*
X64000Y41500D01*
X63941Y41559D01*
X63847Y41699D01*
X63783Y41855D01*
X63750Y42019D01*
Y44050D01*
X63788Y44142D01*
X63858Y44212D01*
X63950Y44250D01*
X65217D01*
X65246Y44123D01*
D02*
G37*
%LPC*%
G36*
X63900Y49300D02*
X63675D01*
Y48850D01*
X63900D01*
Y49300D01*
D02*
G37*
G36*
X68750Y49401D02*
X68350Y49401D01*
X68350Y49001D01*
X68750Y49001D01*
X68750Y49401D01*
D02*
G37*
G36*
X68351Y47999D02*
X68350Y47599D01*
X68750Y47598D01*
X68751Y47998D01*
X68351Y47999D01*
D02*
G37*
G36*
X68350Y47399D02*
X68349Y46999D01*
X68749Y46998D01*
X68750Y47398D01*
X68350Y47399D01*
D02*
G37*
G36*
X78331Y48090D02*
X76745Y47351D01*
X76998Y46807D01*
X78584Y47546D01*
X78331Y48090D01*
D02*
G37*
G36*
X70114Y47731D02*
X69908Y47168D01*
X71553Y46569D01*
X71758Y47133D01*
X70114Y47731D01*
D02*
G37*
G36*
X78669Y47365D02*
X77083Y46626D01*
X77336Y46082D01*
X78922Y46821D01*
X78669Y47365D01*
D02*
G37*
G36*
X76563Y47266D02*
X74977Y46527D01*
X75231Y45983D01*
X76817Y46722D01*
X76563Y47266D01*
D02*
G37*
G36*
X71946Y47065D02*
X71741Y46501D01*
X73385Y45902D01*
X73591Y46466D01*
X71946Y47065D01*
D02*
G37*
G36*
X69840Y46980D02*
X69635Y46416D01*
X71279Y45817D01*
X71485Y46381D01*
X69840Y46980D01*
D02*
G37*
G36*
X67189Y46439D02*
X66804Y45979D01*
X67493Y45401D01*
X67879Y45860D01*
X67189Y46439D01*
D02*
G37*
G36*
X76902Y46541D02*
X75315Y45801D01*
X75569Y45258D01*
X77155Y45997D01*
X76902Y46541D01*
D02*
G37*
G36*
X71672Y46313D02*
X71467Y45749D01*
X73112Y45150D01*
X73317Y45714D01*
X71672Y46313D01*
D02*
G37*
G36*
X66675Y45826D02*
X66289Y45366D01*
X66979Y44788D01*
X67364Y45248D01*
X66675Y45826D01*
D02*
G37*
G36*
X68032Y45732D02*
X67646Y45272D01*
X68336Y44694D01*
X68721Y45153D01*
X68032Y45732D01*
D02*
G37*
G36*
X67518Y45119D02*
X67132Y44659D01*
X67821Y44081D01*
X68207Y44540D01*
X67518Y45119D01*
D02*
G37*
G36*
X85227Y61496D02*
X84705Y61200D01*
X85569Y59678D01*
X86091Y59974D01*
X85227Y61496D01*
D02*
G37*
G36*
X84531Y61102D02*
X84009Y60806D01*
X84873Y59283D01*
X85395Y59580D01*
X84531Y61102D01*
D02*
G37*
G36*
X86189Y59800D02*
X85667Y59504D01*
X86531Y57982D01*
X87053Y58278D01*
X86189Y59800D01*
D02*
G37*
G36*
X85493Y59406D02*
X84972Y59110D01*
X85835Y57587D01*
X86357Y57884D01*
X85493Y59406D01*
D02*
G37*
G36*
X86534Y51557D02*
X86081Y49867D01*
X86660Y49711D01*
X87113Y51402D01*
X86534Y51557D01*
D02*
G37*
G36*
X87306Y51350D02*
X86853Y49659D01*
X87433Y49504D01*
X87886Y51195D01*
X87306Y51350D01*
D02*
G37*
G36*
X86029Y49673D02*
X85576Y47983D01*
X86156Y47828D01*
X86608Y49518D01*
X86029Y49673D01*
D02*
G37*
G36*
X86802Y49466D02*
X86349Y47776D01*
X86928Y47621D01*
X87381Y49311D01*
X86802Y49466D01*
D02*
G37*
G36*
X81318Y52955D02*
X80865Y51264D01*
X81444Y51109D01*
X81897Y52799D01*
X81318Y52955D01*
D02*
G37*
G36*
X80813Y51071D02*
X80360Y49381D01*
X80939Y49225D01*
X81392Y50916D01*
X80813Y51071D01*
D02*
G37*
G36*
X67993Y41905D02*
X67788Y41342D01*
X69432Y40743D01*
X69638Y41307D01*
X67993Y41905D01*
D02*
G37*
G36*
X69826Y41238D02*
X69620Y40675D01*
X71265Y40076D01*
X71470Y40640D01*
X69826Y41238D01*
D02*
G37*
G36*
X67720Y41154D02*
X67514Y40590D01*
X69159Y39991D01*
X69364Y40555D01*
X67720Y41154D01*
D02*
G37*
G36*
X69552Y40487D02*
X69347Y39923D01*
X70991Y39324D01*
X71196Y39888D01*
X69552Y40487D01*
D02*
G37*
G36*
X64747Y43528D02*
X64361Y43068D01*
X65050Y42490D01*
X65436Y42949D01*
X64747Y43528D01*
D02*
G37*
G36*
X65589Y42821D02*
X65204Y42361D01*
X65893Y41783D01*
X66279Y42242D01*
X65589Y42821D01*
D02*
G37*
%LPD*%
D26*
X80314Y43314D02*
G03*
X79570Y41518I1796J-1796D01*
G01*
X82761Y55739D02*
G03*
X80965Y56483I-1796J-1796D01*
G01*
X83713Y54133D02*
G03*
X83250Y55250I-1580J0D01*
G01*
X82960Y45960D02*
G03*
X83703Y47756I-1796J1796D01*
G01*
X83665Y49721D02*
G03*
X83703Y49442I900J-17D01*
G01*
X66677Y45922D02*
X67339Y45260D01*
X64967Y45922D02*
X66677D01*
X83703Y49442D02*
X83703Y49442D01*
X83713Y52255D02*
Y54133D01*
X79570Y41055D02*
Y41518D01*
X80314Y43314D02*
X82960Y45960D01*
X83703Y47756D02*
Y49442D01*
X82761Y55739D02*
X83250Y55250D01*
X80138Y56483D02*
X80965D01*
X83665Y49721D02*
X83713Y52255D01*
X67339Y45260D02*
X67505D01*
D27*
X63650Y62900D02*
D03*
X84350Y43100D02*
D03*
D28*
X68250Y47499D02*
D03*
X67250Y47501D02*
D03*
D29*
X67250Y49500D02*
D03*
X68250Y49501D02*
D03*
D30*
X64750Y47850D02*
D03*
D31*
X64000Y46950D02*
D03*
X64500D02*
D03*
X65000D02*
D03*
X65500D02*
D03*
Y48750D02*
D03*
X65000D02*
D03*
X64500D02*
D03*
X64000D02*
D03*
D32*
X63850Y48100D02*
D03*
Y47600D02*
D03*
X65650D02*
D03*
Y48100D02*
D03*
D33*
X59750Y53000D02*
D03*
D34*
X75375Y65500D02*
D03*
X72625D02*
D03*
D35*
X69000D02*
D03*
X79000D02*
D03*
D36*
X67250Y59400D02*
D03*
Y58100D02*
D03*
X65250Y59400D02*
D03*
Y58100D02*
D03*
D37*
X65577Y42962D02*
D03*
X67505Y45260D02*
D03*
D38*
X76950Y46674D02*
D03*
X79570Y41055D02*
D03*
D39*
X85531Y59542D02*
D03*
X80138Y56483D02*
D03*
D40*
X71613Y46441D02*
D03*
X69492Y40615D02*
D03*
D41*
X80742Y51193D02*
D03*
X86731Y49589D02*
D03*
D42*
X66000Y52999D02*
D03*
D43*
X64000Y46500D02*
Y46950D01*
X63600Y46100D02*
X64000Y46500D01*
X65500Y46950D02*
X67104D01*
X67250Y47096D02*
Y47501D01*
X67104Y46950D02*
X67250Y47096D01*
X65795Y47600D02*
X66300D01*
X66500Y47800D02*
Y49500D01*
X66300Y47600D02*
X66500Y47800D01*
D44*
Y49500D02*
X67250D01*
X67247Y47504D02*
X67250Y47501D01*
X67247Y47504D02*
Y48359D01*
X67244Y48362D02*
X67247Y48359D01*
X65000Y49500D02*
X65500Y50000D01*
X64500Y49500D02*
X65000D01*
X65500Y50000D02*
Y52499D01*
X66000Y52999D01*
X65250Y58100D02*
X65250Y58100D01*
Y57000D02*
Y58100D01*
X67250Y58100D02*
X67250Y58100D01*
Y57000D02*
Y58100D01*
Y57000D02*
X67250Y57000D01*
X67250Y59400D02*
Y59500D01*
X65250Y59400D02*
Y59500D01*
X70945Y61650D02*
X72625Y63330D01*
X65250Y59500D02*
Y60220D01*
X66680Y61650D01*
X67250Y59500D02*
X67250Y59500D01*
Y60220D01*
X67880Y60850D01*
X72895D01*
X75375Y63330D02*
Y65500D01*
X72895Y60850D02*
X75375Y63330D01*
X66680Y61650D02*
X70945D01*
X72625Y63330D02*
Y65500D01*
X65250Y59500D02*
X65250Y59500D01*
D45*
X79000Y65500D02*
X81250D01*
X84750Y62000D01*
D46*
X63600Y46100D02*
D03*
X66500Y49500D02*
D03*
X67244Y48362D02*
D03*
X64750Y47850D02*
D03*
X70000Y66500D02*
D03*
Y65500D02*
D03*
Y64500D02*
D03*
X66750Y42000D02*
D03*
X64750D02*
D03*
X64250Y43750D02*
D03*
X61250Y52000D02*
D03*
Y53000D02*
D03*
Y54000D02*
D03*
X67250Y57000D02*
D03*
X65250D02*
D03*
M02*
