G04*
G04 #@! TF.GenerationSoftware,Altium Limited,Altium Designer,20.1.8 (145)*
G04*
G04 Layer_Physical_Order=2*
G04 Layer_Color=16711680*
%FSTAX43Y43*%
%MOMM*%
G71*
G04*
G04 #@! TF.SameCoordinates,0318B61A-49BA-4F8C-BAE3-27BA42813BB3*
G04*
G04*
G04 #@! TF.FilePolarity,Positive*
G04*
G01*
G75*
%ADD13C,2.500*%
%ADD14C,2.200*%
%ADD15C,8.000*%
G36*
X0097157Y0096897D02*
X0098584Y0096709D01*
X0099996Y0096428D01*
X0101387Y0096055D01*
X010275Y0095593D01*
X0104081Y0095042D01*
X0105372Y0094405D01*
X0106619Y0093685D01*
X0107816Y0092885D01*
X0108958Y0092008D01*
X0110041Y0091059D01*
X0111059Y0090041D01*
X0112008Y0088958D01*
X0112885Y0087816D01*
X0113685Y0086619D01*
X0114405Y0085372D01*
X0115042Y0084081D01*
X0115593Y008275D01*
X0116055Y0081387D01*
X0116428Y0079996D01*
X0116709Y0078584D01*
X0116897Y0077157D01*
X0116991Y007572D01*
Y0075D01*
Y007428D01*
X0116897Y0072843D01*
X0116709Y0071416D01*
X0116428Y0070004D01*
X0116055Y0068613D01*
X0115593Y0067249D01*
X0115042Y0065919D01*
X0114405Y0064628D01*
X0113685Y0063381D01*
X0112885Y0062184D01*
X0112008Y0061042D01*
X0111059Y0059959D01*
X0110041Y0058941D01*
X0108958Y0057992D01*
X0107816Y0057115D01*
X0106619Y0056315D01*
X0105372Y0055595D01*
X0104081Y0054958D01*
X010275Y0054407D01*
X0101387Y0053945D01*
X0099996Y0053572D01*
X0098584Y0053291D01*
X0097157Y0053103D01*
X009572Y0053009D01*
X009428D01*
X0092843Y0053103D01*
X0091416Y0053291D01*
X0090004Y0053572D01*
X0088613Y0053945D01*
X008725Y0054407D01*
X0085919Y0054958D01*
X0084628Y0055595D01*
X0083381Y0056315D01*
X0082184Y0057115D01*
X0081042Y0057992D01*
X0079959Y0058941D01*
X0078941Y0059959D01*
X0077992Y0061042D01*
X0077115Y0062184D01*
X0076315Y0063381D01*
X0075595Y0064628D01*
X0074958Y0065919D01*
X0074407Y0067249D01*
X0073945Y0068613D01*
X0073572Y0070004D01*
X0073291Y0071416D01*
X0073103Y0072843D01*
X0073009Y007428D01*
Y0075D01*
Y007572D01*
X0073103Y0077157D01*
X0073291Y0078584D01*
X0073572Y0079996D01*
X0073945Y0081387D01*
X0074407Y008275D01*
X0074958Y0084081D01*
X0075595Y0085372D01*
X0076315Y0086619D01*
X0077115Y0087816D01*
X0077992Y0088958D01*
X0078941Y0090041D01*
X0079959Y0091059D01*
X0081042Y0092008D01*
X0082184Y0092885D01*
X0083381Y0093685D01*
X0084628Y0094405D01*
X0085919Y0095042D01*
X008725Y0095593D01*
X0088613Y0096055D01*
X0090004Y0096428D01*
X0091416Y0096709D01*
X0092843Y0096897D01*
X009428Y0096991D01*
X009572D01*
X0097157Y0096897D01*
D02*
G37*
%LPC*%
G36*
X01115Y0080011D02*
X0110846Y0079968D01*
X0110203Y007984D01*
X0109582Y0079629D01*
X0108995Y0079339D01*
X010845Y0078975D01*
X0107957Y0078543D01*
X0107525Y007805D01*
X0107161Y0077505D01*
X0106871Y0076918D01*
X010666Y0076297D01*
X0106532Y0075654D01*
X0106489Y0075D01*
X0106532Y0074346D01*
X010666Y0073703D01*
X0106871Y0073082D01*
X0107161Y0072495D01*
X0107525Y007195D01*
X0107957Y0071457D01*
X010845Y0071025D01*
X0108995Y0070661D01*
X0109582Y0070371D01*
X0110203Y007016D01*
X0110846Y0070032D01*
X01115Y0069989D01*
X0112154Y0070032D01*
X0112797Y007016D01*
X0113418Y0070371D01*
X0114005Y0070661D01*
X011455Y0071025D01*
X0115043Y0071457D01*
X0115475Y007195D01*
X0115839Y0072495D01*
X0116129Y0073082D01*
X011634Y0073703D01*
X0116468Y0074346D01*
X0116511Y0075D01*
X0116468Y0075654D01*
X011634Y0076297D01*
X0116129Y0076918D01*
X0115839Y0077505D01*
X0115475Y007805D01*
X0115043Y0078543D01*
X011455Y0078975D01*
X0114005Y0079339D01*
X0113418Y0079629D01*
X0112797Y007984D01*
X0112154Y0079968D01*
X01115Y0080011D01*
D02*
G37*
G36*
X00785D02*
X0077846Y0079968D01*
X0077203Y007984D01*
X0076582Y0079629D01*
X0075995Y0079339D01*
X007545Y0078975D01*
X0074957Y0078543D01*
X0074525Y007805D01*
X0074161Y0077505D01*
X0073871Y0076918D01*
X007366Y0076297D01*
X0073532Y0075654D01*
X0073489Y0075D01*
X0073532Y0074346D01*
X007366Y0073703D01*
X0073871Y0073082D01*
X0074161Y0072495D01*
X0074525Y007195D01*
X0074957Y0071457D01*
X007545Y0071025D01*
X0075995Y0070661D01*
X0076582Y0070371D01*
X0077203Y007016D01*
X0077846Y0070032D01*
X00785Y0069989D01*
X0079154Y0070032D01*
X0079797Y007016D01*
X0080418Y0070371D01*
X0081005Y0070661D01*
X008155Y0071025D01*
X0082043Y0071457D01*
X0082475Y007195D01*
X0082839Y0072495D01*
X0083129Y0073082D01*
X008334Y0073703D01*
X0083468Y0074346D01*
X0083511Y0075D01*
X0083468Y0075654D01*
X008334Y0076297D01*
X0083129Y0076918D01*
X0082839Y0077505D01*
X0082475Y007805D01*
X0082043Y0078543D01*
X008155Y0078975D01*
X0081005Y0079339D01*
X0080418Y0079629D01*
X0079797Y007984D01*
X0079154Y0079968D01*
X00785Y0080011D01*
D02*
G37*
G36*
X0101423Y0082998D02*
X0098257D01*
X0097996Y0082964D01*
X0097672Y0082877D01*
X0097428Y0082776D01*
X0097138Y0082609D01*
X0096929Y0082448D01*
X0096691Y0082211D01*
X0096531Y0082002D01*
X0096363Y0081711D01*
X0096363Y0081711D01*
X0096263Y0081468D01*
X0096176Y0081144D01*
X0096141Y0080883D01*
Y0080547D01*
X0096176Y0080286D01*
X0096263Y0079962D01*
X0096363Y0079719D01*
X0096531Y0079428D01*
X0096691Y0079219D01*
X0096929Y0078982D01*
X0097048Y007889D01*
Y007873D01*
X0096929Y0078638D01*
X0096691Y0078401D01*
X0096531Y0078192D01*
X0096363Y0077901D01*
X0096363Y0077901D01*
X0096263Y0077658D01*
X0096176Y0077334D01*
X0096141Y0077073D01*
Y0076737D01*
X0096176Y0076476D01*
X0096263Y0076152D01*
X0096363Y0075909D01*
X0096531Y0075618D01*
X0096691Y0075409D01*
X0096929Y0075172D01*
X0097048Y007508D01*
Y007492D01*
X0096929Y0074828D01*
X0096691Y0074591D01*
X0096531Y0074382D01*
X0096363Y0074091D01*
X0096363Y0074091D01*
X0096263Y0073848D01*
X0096176Y0073524D01*
X0096141Y0073263D01*
Y0072927D01*
X0096176Y0072666D01*
X0096263Y0072342D01*
X0096363Y0072099D01*
X0096531Y0071808D01*
X0096691Y0071599D01*
X0096929Y0071362D01*
X0097048Y007127D01*
Y007111D01*
X0096929Y0071018D01*
X0096691Y0070781D01*
X0096531Y0070572D01*
X0096363Y0070281D01*
X0096363Y0070281D01*
X0096263Y0070038D01*
X0096176Y0069714D01*
X0096141Y0069453D01*
Y0069117D01*
X0096176Y0068856D01*
X0096263Y0068532D01*
X0096363Y0068289D01*
X0096531Y0067998D01*
X0096691Y0067789D01*
X0096929Y0067552D01*
X0097138Y0067391D01*
X0097428Y0067224D01*
X0097428Y0067224D01*
X0097672Y0067123D01*
X0097996Y0067036D01*
X0098257Y0067002D01*
X0101423D01*
X0101684Y0067036D01*
X0102008Y0067123D01*
X0102251Y0067224D01*
X0102542Y0067391D01*
X0102751Y0067552D01*
X0102988Y0067789D01*
X0103148Y0067998D01*
X0103316Y0068289D01*
X0103417Y0068532D01*
X0103504Y0068856D01*
X0103538Y0069117D01*
Y0069453D01*
X0103504Y0069714D01*
X0103417Y0070038D01*
X0103316Y0070281D01*
X0103148Y0070572D01*
X0102988Y0070781D01*
X0102751Y0071018D01*
X0102631Y007111D01*
Y007127D01*
X0102751Y0071362D01*
X0102988Y0071599D01*
X0103148Y0071808D01*
X0103316Y0072099D01*
X0103417Y0072342D01*
X0103504Y0072666D01*
X0103538Y0072927D01*
Y0073263D01*
X0103504Y0073524D01*
X0103417Y0073848D01*
X0103316Y0074091D01*
X0103148Y0074382D01*
X0102988Y0074591D01*
X0102751Y0074828D01*
X0102631Y007492D01*
Y007508D01*
X0102751Y0075172D01*
X0102988Y0075409D01*
X0103148Y0075618D01*
X0103316Y0075909D01*
X0103417Y0076152D01*
X0103504Y0076476D01*
X0103538Y0076737D01*
Y0077073D01*
X0103504Y0077334D01*
X0103417Y0077658D01*
X0103316Y0077901D01*
X0103148Y0078192D01*
X0102988Y0078401D01*
X0102751Y0078638D01*
X0102631Y007873D01*
Y007889D01*
X0102751Y0078982D01*
X0102988Y0079219D01*
X0103148Y0079428D01*
X0103316Y0079719D01*
X0103417Y0079962D01*
X0103504Y0080286D01*
X0103538Y0080547D01*
Y0080883D01*
X0103504Y0081144D01*
X0103417Y0081468D01*
X0103316Y0081711D01*
X0103148Y0082002D01*
X0102988Y0082211D01*
X0102751Y0082448D01*
X0102542Y0082609D01*
X0102251Y0082776D01*
X0102008Y0082877D01*
X0101684Y0082964D01*
X0101423Y0082998D01*
D02*
G37*
%LPD*%
G36*
X0101747Y0081903D02*
X0102037Y0081735D01*
X0102275Y0081498D01*
X0102443Y0081207D01*
X0102529Y0080883D01*
Y0080547D01*
X0102443Y0080223D01*
X0102275Y0079932D01*
X0102037Y0079695D01*
X0101747Y0079527D01*
X0101423Y007944D01*
X0098257D01*
X0097933Y0079527D01*
X0097642Y0079695D01*
X0097405Y0079932D01*
X0097237Y0080223D01*
X009715Y0080547D01*
Y0080883D01*
X0097237Y0081207D01*
X0097405Y0081498D01*
X0097642Y0081735D01*
X0097933Y0081903D01*
X0098257Y008199D01*
X0101423D01*
X0101747Y0081903D01*
D02*
G37*
G36*
Y0078093D02*
X0102037Y0077925D01*
X0102275Y0077688D01*
X0102443Y0077397D01*
X0102529Y0077073D01*
Y0076737D01*
X0102443Y0076413D01*
X0102275Y0076122D01*
X0102037Y0075885D01*
X0101747Y0075717D01*
X0101423Y007563D01*
X0098257D01*
X0097933Y0075717D01*
X0097642Y0075885D01*
X0097405Y0076122D01*
X0097237Y0076413D01*
X009715Y0076737D01*
Y0077073D01*
X0097237Y0077397D01*
X0097405Y0077688D01*
X0097642Y0077925D01*
X0097933Y0078093D01*
X0098257Y007818D01*
X0101423D01*
X0101747Y0078093D01*
D02*
G37*
G36*
Y0074283D02*
X0102037Y0074115D01*
X0102275Y0073878D01*
X0102443Y0073587D01*
X0102529Y0073263D01*
Y0072927D01*
X0102443Y0072603D01*
X0102275Y0072312D01*
X0102037Y0072075D01*
X0101747Y0071907D01*
X0101423Y007182D01*
X0098257D01*
X0097933Y0071907D01*
X0097642Y0072075D01*
X0097405Y0072312D01*
X0097237Y0072603D01*
X009715Y0072927D01*
Y0073263D01*
X0097237Y0073587D01*
X0097405Y0073878D01*
X0097642Y0074115D01*
X0097933Y0074283D01*
X0098257Y007437D01*
X0101423D01*
X0101747Y0074283D01*
D02*
G37*
G36*
Y0070473D02*
X0102037Y0070305D01*
X0102275Y0070068D01*
X0102443Y0069777D01*
X0102529Y0069453D01*
Y0069117D01*
X0102443Y0068793D01*
X0102275Y0068502D01*
X0102037Y0068265D01*
X0101747Y0068097D01*
X0101423Y006801D01*
X0098257D01*
X0097933Y0068097D01*
X0097642Y0068265D01*
X0097405Y0068502D01*
X0097237Y0068793D01*
X009715Y0069117D01*
Y0069453D01*
X0097237Y0069777D01*
X0097405Y0070068D01*
X0097642Y0070305D01*
X0097933Y0070473D01*
X0098257Y007056D01*
X0101423D01*
X0101747Y0070473D01*
D02*
G37*
D13*
X0074838Y00785D02*
X0078338Y0075D01*
Y00745D02*
X0081838Y0071D01*
X01075Y00715D02*
X0111Y0075D01*
X01115D01*
X0115Y00785D01*
D14*
X00984Y0080715D02*
D03*
Y0076905D02*
D03*
Y0073095D02*
D03*
Y0069285D02*
D03*
D15*
X01115Y0075D02*
D03*
X00785D02*
D03*
M02*
