G04*
G04 #@! TF.GenerationSoftware,Altium Limited,Altium Designer,20.1.8 (145)*
G04*
G04 Layer_Color=8388736*
%FSTAX43Y43*%
%MOMM*%
G71*
G04*
G04 #@! TF.SameCoordinates,DEFF2A6E-5F0D-40BF-B6DE-29F6B0C5E57E*
G04*
G04*
G04 #@! TF.FilePolarity,Negative*
G04*
G01*
G75*
%ADD15R,1.000X0.900*%
G04:AMPARAMS|DCode=16|XSize=1mm|YSize=0.9mm|CornerRadius=0.25mm|HoleSize=0mm|Usage=FLASHONLY|Rotation=270.000|XOffset=0mm|YOffset=0mm|HoleType=Round|Shape=RoundedRectangle|*
%AMROUNDEDRECTD16*
21,1,1.000,0.400,0,0,270.0*
21,1,0.500,0.900,0,0,270.0*
1,1,0.500,-0.200,-0.250*
1,1,0.500,-0.200,0.250*
1,1,0.500,0.200,0.250*
1,1,0.500,0.200,-0.250*
%
%ADD16ROUNDEDRECTD16*%
G04:AMPARAMS|DCode=17|XSize=1mm|YSize=0.9mm|CornerRadius=0.25mm|HoleSize=0mm|Usage=FLASHONLY|Rotation=0.000|XOffset=0mm|YOffset=0mm|HoleType=Round|Shape=RoundedRectangle|*
%AMROUNDEDRECTD17*
21,1,1.000,0.400,0,0,0.0*
21,1,0.500,0.900,0,0,0.0*
1,1,0.500,0.250,-0.200*
1,1,0.500,-0.250,-0.200*
1,1,0.500,-0.250,0.200*
1,1,0.500,0.250,0.200*
%
%ADD17ROUNDEDRECTD17*%
%ADD18R,0.900X1.000*%
%ADD19R,1.550X0.550*%
%ADD20O,0.800X0.300*%
%ADD21O,0.300X0.800*%
%ADD22R,3.000X3.000*%
%ADD23R,0.700X1.200*%
%ADD24R,0.450X0.600*%
%ADD25R,0.950X0.950*%
%ADD26R,2.400X2.600*%
%ADD27R,0.600X0.500*%
%ADD28R,1.200X0.700*%
%ADD29R,1.100X1.000*%
%ADD30R,1.000X1.100*%
%ADD31C,1.100*%
%ADD32C,0.903*%
D15*
X00336Y0037475D02*
D03*
Y0038775D02*
D03*
X0035Y0034775D02*
D03*
Y0033475D02*
D03*
D16*
X005335Y0034325D02*
D03*
X005205D02*
D03*
X004295Y0042825D02*
D03*
X004165D02*
D03*
D17*
X00375Y004095D02*
D03*
Y003965D02*
D03*
X00399Y004025D02*
D03*
Y003895D02*
D03*
X00387Y004025D02*
D03*
Y003895D02*
D03*
X00579Y003285D02*
D03*
Y003155D02*
D03*
X006325Y0032525D02*
D03*
Y0031225D02*
D03*
D18*
X005705Y0034625D02*
D03*
X005575D02*
D03*
X003755Y0036125D02*
D03*
X003625D02*
D03*
X003755Y0034825D02*
D03*
X003625D02*
D03*
X0041291Y0034225D02*
D03*
X0039991D02*
D03*
X003615Y00389D02*
D03*
X003485D02*
D03*
D19*
X00551Y00329D02*
D03*
Y003225D02*
D03*
Y00316D02*
D03*
Y003095D02*
D03*
X00507D02*
D03*
Y00316D02*
D03*
Y003225D02*
D03*
Y00329D02*
D03*
D20*
X0041125Y0039025D02*
D03*
Y0038625D02*
D03*
Y0038225D02*
D03*
Y0037825D02*
D03*
Y0037425D02*
D03*
Y0037025D02*
D03*
Y0036625D02*
D03*
Y0036225D02*
D03*
X0045075D02*
D03*
Y0036625D02*
D03*
Y0037025D02*
D03*
Y0037425D02*
D03*
Y0037825D02*
D03*
Y0038225D02*
D03*
Y0038625D02*
D03*
Y0039025D02*
D03*
D21*
X00417Y003565D02*
D03*
X00421D02*
D03*
X00425D02*
D03*
X00429D02*
D03*
X00433D02*
D03*
X00437D02*
D03*
X00441D02*
D03*
X00445D02*
D03*
Y00396D02*
D03*
X00441D02*
D03*
X00437D02*
D03*
X00433D02*
D03*
X00429D02*
D03*
X00425D02*
D03*
X00421D02*
D03*
X00417D02*
D03*
D22*
X00431Y0037625D02*
D03*
D23*
X005545Y0035925D02*
D03*
X005735D02*
D03*
X00564Y0038325D02*
D03*
D24*
X00413Y0041775D02*
D03*
X00425D02*
D03*
Y0041025D02*
D03*
X00413D02*
D03*
D25*
X0038825Y0042825D02*
D03*
X0040225D02*
D03*
D26*
X00537Y0043975D02*
D03*
Y0039675D02*
D03*
D27*
X0053325Y002795D02*
D03*
X0052025D02*
D03*
D28*
X00594Y0031775D02*
D03*
Y0033675D02*
D03*
X0062D02*
D03*
Y0032725D02*
D03*
Y0031775D02*
D03*
D29*
X00558Y0045175D02*
D03*
Y0046875D02*
D03*
D30*
X005745Y0043625D02*
D03*
X005915D02*
D03*
D31*
X0060206Y0042137D02*
D03*
Y0040867D02*
D03*
X0061476Y0042137D02*
D03*
Y0040867D02*
D03*
X0062746Y0042137D02*
D03*
Y0040867D02*
D03*
X0032254Y0042137D02*
D03*
Y0040867D02*
D03*
X0033524Y0042137D02*
D03*
Y0040867D02*
D03*
X0034794Y0042137D02*
D03*
Y0040867D02*
D03*
X005994Y0046795D02*
D03*
Y0045525D02*
D03*
X005867Y0046795D02*
D03*
Y0045525D02*
D03*
X00574Y0046795D02*
D03*
Y0045525D02*
D03*
X004094Y0046795D02*
D03*
Y0045525D02*
D03*
X003967Y0046795D02*
D03*
Y0045525D02*
D03*
X00384Y0046795D02*
D03*
Y0045525D02*
D03*
X003588Y0027455D02*
D03*
Y0028725D02*
D03*
X003715Y0027455D02*
D03*
Y0028725D02*
D03*
X003842Y0027455D02*
D03*
Y0028725D02*
D03*
X0056255Y0027455D02*
D03*
Y0028725D02*
D03*
X0057525Y0027455D02*
D03*
Y0028725D02*
D03*
X0058795Y0027455D02*
D03*
Y0028725D02*
D03*
X003594Y0043905D02*
D03*
Y0045175D02*
D03*
X00334D02*
D03*
X003467D02*
D03*
X00334Y0043905D02*
D03*
X003467D02*
D03*
D32*
X00431Y0037625D02*
D03*
M02*
