G04*
G04 #@! TF.GenerationSoftware,Altium Limited,Altium Designer,20.1.8 (145)*
G04*
G04 Layer_Physical_Order=3*
G04 Layer_Color=16440176*
%FSTAX43Y43*%
%MOMM*%
G71*
G04*
G04 #@! TF.SameCoordinates,DEFF2A6E-5F0D-40BF-B6DE-29F6B0C5E57E*
G04*
G04*
G04 #@! TF.FilePolarity,Positive*
G04*
G01*
G75*
%ADD13C,0.200*%
%ADD47C,0.300*%
%ADD49C,1.000*%
%ADD50C,0.700*%
%ADD51C,0.600*%
G36*
X0064745Y002638D02*
X0031255D01*
Y0028125D01*
Y004787D01*
X0064745D01*
Y002638D01*
D02*
G37*
%LPC*%
G36*
X005994Y0047501D02*
X0059757Y0047477D01*
X0059587Y0047406D01*
X0059441Y0047294D01*
X0059384Y004722D01*
X0059226D01*
X0059169Y0047294D01*
X0059023Y0047406D01*
X0058853Y0047477D01*
X005867Y0047501D01*
X0058487Y0047477D01*
X0058317Y0047406D01*
X0058171Y0047294D01*
X0058114Y004722D01*
X0057956D01*
X0057899Y0047294D01*
X0057753Y0047406D01*
X0057583Y0047477D01*
X00574Y0047501D01*
X0057217Y0047477D01*
X0057047Y0047406D01*
X0056901Y0047294D01*
X0056789Y0047148D01*
X0056718Y0046978D01*
X0056694Y0046795D01*
X0056718Y0046612D01*
X0056789Y0046442D01*
X0056901Y0046296D01*
X0056975Y0046239D01*
Y0046081D01*
X0056901Y0046024D01*
X0056789Y0045878D01*
X0056718Y0045708D01*
X0056694Y0045525D01*
X0056718Y0045342D01*
X0056789Y0045172D01*
X0056901Y0045026D01*
X0057047Y0044914D01*
X0057217Y0044843D01*
X00574Y0044819D01*
X0057583Y0044843D01*
X0057753Y0044914D01*
X0057899Y0045026D01*
X0057956Y00451D01*
X0058114D01*
X0058171Y0045026D01*
X0058317Y0044914D01*
X0058487Y0044843D01*
X005867Y0044819D01*
X0058853Y0044843D01*
X0059023Y0044914D01*
X0059169Y0045026D01*
X0059226Y00451D01*
X0059384D01*
X0059441Y0045026D01*
X0059587Y0044914D01*
X0059757Y0044843D01*
X005994Y0044819D01*
X0060123Y0044843D01*
X0060293Y0044914D01*
X0060439Y0045026D01*
X0060551Y0045172D01*
X0060622Y0045342D01*
X0060646Y0045525D01*
X0060622Y0045708D01*
X0060551Y0045878D01*
X0060439Y0046024D01*
X0060365Y0046081D01*
Y0046239D01*
X0060439Y0046296D01*
X0060448Y0046307D01*
X0060473Y0046332D01*
X0060503Y0046357D01*
X0060532Y0046379D01*
X0060561Y0046396D01*
X0060588Y0046411D01*
X0060614Y0046422D01*
X006064Y004643D01*
X0060665Y0046436D01*
X0060679Y0046438D01*
X0060954D01*
X0061119Y0046273D01*
Y0045149D01*
X0060657Y0044687D01*
X0056481D01*
X0055306Y0045862D01*
Y0046395D01*
X0055308Y0046411D01*
X0055311Y0046427D01*
X0055315Y004644D01*
X005532Y0046451D01*
X0055324Y004646D01*
X0055326Y0046463D01*
X0055345Y0046476D01*
X0055467Y0046658D01*
X0055509Y0046873D01*
X0055467Y0047087D01*
X0055345Y0047269D01*
X0055163Y0047391D01*
X0054949Y0047433D01*
X0054734Y0047391D01*
X0054552Y0047269D01*
X0054431Y0047087D01*
X0054388Y0046873D01*
X0054431Y0046658D01*
X0054552Y0046476D01*
X0054571Y0046463D01*
X0054574Y004646D01*
X0054578Y0046451D01*
X0054582Y004644D01*
X0054586Y0046427D01*
X0054589Y0046411D01*
X0054592Y0046395D01*
Y0045714D01*
X0054619Y0045578D01*
X0054696Y0045462D01*
X0056081Y0044077D01*
X0056197Y0044D01*
X0056333Y0043973D01*
X0060805D01*
X0060941Y0044D01*
X0061057Y0044077D01*
X0061729Y0044749D01*
X0061806Y0044865D01*
X0061833Y0045001D01*
Y0046421D01*
X0061806Y0046557D01*
X0061729Y0046673D01*
X0061354Y0047047D01*
X0061239Y0047125D01*
X0061102Y0047152D01*
X0060679D01*
X0060665Y0047154D01*
X006064Y004716D01*
X0060614Y0047168D01*
X0060588Y0047179D01*
X0060561Y0047194D01*
X0060532Y0047211D01*
X0060503Y0047233D01*
X0060473Y0047258D01*
X0060448Y0047283D01*
X0060439Y0047294D01*
X0060293Y0047406D01*
X0060123Y0047477D01*
X005994Y0047501D01*
D02*
G37*
G36*
X004094D02*
X0040757Y0047477D01*
X0040587Y0047406D01*
X0040441Y0047294D01*
X0040384Y004722D01*
X0040236D01*
X0039741Y0046724D01*
X0039599Y0046866D01*
X0040089Y0047356D01*
X0040023Y0047406D01*
X0039853Y0047477D01*
X003967Y0047501D01*
X0039487Y0047477D01*
X0039317Y0047406D01*
X0039297Y0047391D01*
X0039316Y004738D01*
X0039358Y0047362D01*
X0039405Y0047345D01*
X0039456Y0047331D01*
X0039512Y0047319D01*
X0039637Y00473D01*
X0039707Y0047294D01*
X0039172Y0046842D01*
X0039177Y0046908D01*
X0039176Y0047027D01*
X0039171Y004708D01*
X0039162Y004713D01*
X0039149Y0047175D01*
X0039134Y0047217D01*
X0039125Y0047234D01*
X0039114Y004722D01*
X0038956D01*
X0038899Y0047294D01*
X0038753Y0047406D01*
X0038583Y0047477D01*
X00384Y0047501D01*
X0038217Y0047477D01*
X0038047Y0047406D01*
X0037901Y0047294D01*
X0037789Y0047148D01*
X0037718Y0046978D01*
X0037694Y0046795D01*
X0037718Y0046612D01*
X0037789Y0046442D01*
X0037901Y0046296D01*
X0037975Y0046239D01*
Y0046081D01*
X0037901Y0046024D01*
X0037789Y0045878D01*
X0037718Y0045708D01*
X0037694Y0045525D01*
X0037718Y0045342D01*
X0037789Y0045172D01*
X0037901Y0045026D01*
X0038047Y0044914D01*
X0038217Y0044843D01*
X00384Y0044819D01*
X0038583Y0044843D01*
X0038753Y0044914D01*
X0038899Y0045026D01*
X0038956Y00451D01*
X0039114D01*
X0039171Y0045026D01*
X0039317Y0044914D01*
X0039487Y0044843D01*
X003967Y0044819D01*
X0039853Y0044843D01*
X0040023Y0044914D01*
X0040169Y0045026D01*
X0040226Y00451D01*
X0040384D01*
X0040441Y0045026D01*
X0040587Y0044914D01*
X0040757Y0044843D01*
X004094Y0044819D01*
X0041123Y0044843D01*
X0041293Y0044914D01*
X0041439Y0045026D01*
X0041551Y0045172D01*
X0041622Y0045342D01*
X0041646Y0045525D01*
X0041622Y0045708D01*
X0041551Y0045878D01*
X0041439Y0046024D01*
X0041365Y0046081D01*
Y0046239D01*
X0041439Y0046296D01*
X0041551Y0046442D01*
X0041622Y0046612D01*
X0041646Y0046795D01*
X0041622Y0046978D01*
X0041551Y0047148D01*
X0041439Y0047294D01*
X0041293Y0047406D01*
X0041123Y0047477D01*
X004094Y0047501D01*
D02*
G37*
G36*
X0062553Y004743D02*
X0062338Y0047387D01*
X0062156Y0047266D01*
X0062035Y0047084D01*
X0061992Y0046869D01*
X0062035Y0046655D01*
X0062156Y0046473D01*
X0062338Y0046351D01*
X0062553Y0046309D01*
X0062768Y0046351D01*
X0062949Y0046473D01*
X0063071Y0046655D01*
X0063114Y0046869D01*
X0063071Y0047084D01*
X0062949Y0047266D01*
X0062768Y0047387D01*
X0062553Y004743D01*
D02*
G37*
G36*
X003594Y0045881D02*
X0035757Y0045857D01*
X0035587Y0045786D01*
X0035441Y0045674D01*
X0035384Y00456D01*
X0035226D01*
X0035169Y0045674D01*
X0035023Y0045786D01*
X0034853Y0045857D01*
X003467Y0045881D01*
X0034487Y0045857D01*
X0034317Y0045786D01*
X0034171Y0045674D01*
X0034114Y00456D01*
X0033956D01*
X0033899Y0045674D01*
X0033753Y0045786D01*
X0033583Y0045857D01*
X00334Y0045881D01*
X0033217Y0045857D01*
X0033047Y0045786D01*
X0032901Y0045674D01*
X0032789Y0045528D01*
X0032718Y0045358D01*
X0032694Y0045175D01*
X0032718Y0044992D01*
X0032789Y0044822D01*
X0032901Y0044676D01*
X0032975Y0044619D01*
Y0044461D01*
X0032901Y0044404D01*
X0032789Y0044258D01*
X0032718Y0044088D01*
X0032694Y0043905D01*
X0032718Y0043722D01*
X0032789Y0043552D01*
X0032901Y0043406D01*
X0033047Y0043294D01*
X0033217Y0043223D01*
X00334Y0043199D01*
X0033415Y0043201D01*
X003345Y00432D01*
X0033489Y0043197D01*
X0033524Y0043192D01*
X0033557Y0043184D01*
X0033586Y0043175D01*
X0033613Y0043165D01*
X0033637Y0043152D01*
X0033659Y0043138D01*
X0033671Y004313D01*
X0033949Y0042851D01*
X0033877Y0042749D01*
X0033707Y0042819D01*
X0033638Y0042828D01*
X0033645Y0042802D01*
X0033662Y0042761D01*
X0033683Y0042719D01*
X0033709Y0042677D01*
X003374Y0042635D01*
X0033775Y0042593D01*
X0033815Y004255D01*
X003386Y0042508D01*
X0033378D01*
X0033025Y0042116D01*
X0033021Y0042186D01*
X0033006Y004231D01*
X0032995Y0042366D01*
X0032981Y0042417D01*
X0032966Y0042463D01*
X0032948Y0042505D01*
X0032928Y0042542D01*
X0032914Y0042562D01*
X0032811D01*
X0032754Y0042637D01*
X0032607Y0042749D01*
X0032437Y0042819D01*
X0032254Y0042843D01*
X0032072Y0042819D01*
X0031901Y0042749D01*
X0031755Y0042637D01*
X0031643Y004249D01*
X0031572Y004232D01*
X0031548Y0042137D01*
X0031572Y0041955D01*
X0031643Y0041784D01*
X0031755Y0041638D01*
X0031829Y0041581D01*
Y0041424D01*
X0031755Y0041367D01*
X0031643Y004122D01*
X0031572Y004105D01*
X0031548Y0040867D01*
X0031572Y0040685D01*
X0031643Y0040514D01*
X0031755Y0040368D01*
X0031901Y0040256D01*
X0032072Y0040185D01*
X0032254Y0040161D01*
X0032437Y0040185D01*
X0032607Y0040256D01*
X0032754Y0040368D01*
X0032811Y0040442D01*
X0032958D01*
X0033454Y0040938D01*
X0033595Y0040797D01*
X0033105Y0040307D01*
X0033171Y0040256D01*
X0033342Y0040185D01*
X0033524Y0040161D01*
X0033707Y0040185D01*
X0033877Y0040256D01*
X0033951Y0040312D01*
X0033928Y0040324D01*
X0033887Y0040341D01*
X0033843Y0040354D01*
X0033795Y0040364D01*
X0033743Y004037D01*
X0033688Y0040373D01*
X0033629Y0040373D01*
X0033567Y0040369D01*
X0034024Y0040872D01*
X0034026Y0040807D01*
X0034038Y004069D01*
X0034048Y0040637D01*
X0034061Y0040588D01*
X0034077Y0040542D01*
X0034095Y0040501D01*
X0034116Y0040463D01*
X0034131Y0040442D01*
X0034228D01*
X0034724Y0040938D01*
X0035219Y0041434D01*
Y0041551D01*
X0035217Y0041553D01*
X0035179Y0041573D01*
X0035137Y004159D01*
X0035091Y0041604D01*
X0035041Y0041616D01*
X0034986Y0041626D01*
X0034926Y0041632D01*
X0034795Y0041637D01*
X0035283Y0042117D01*
X0035053Y0042565D01*
X0035083Y0042549D01*
X0035112Y0042537D01*
X0035141Y0042529D01*
X003517Y0042526D01*
X0035198Y0042527D01*
X0035225Y0042532D01*
X0035252Y0042542D01*
X0035278Y0042555D01*
X0035303Y0042573D01*
X0035328Y0042596D01*
X0035393Y0042531D01*
X0035442Y004263D01*
X004831D01*
X0050643Y0040297D01*
Y0028352D01*
X0050641Y0028336D01*
X0050637Y002832D01*
X0050633Y0028307D01*
X0050629Y0028296D01*
X0050625Y0028288D01*
X0050623Y0028284D01*
X0050603Y0028272D01*
X0050482Y002809D01*
X0050439Y0027875D01*
X0050482Y002766D01*
X0050603Y0027478D01*
X0050785Y0027357D01*
X0051Y0027314D01*
X0051215Y0027357D01*
X0051397Y0027478D01*
X0051518Y002766D01*
X0051561Y0027875D01*
X0051518Y002809D01*
X0051397Y0028272D01*
X0051377Y0028284D01*
X0051375Y0028288D01*
X0051371Y0028296D01*
X0051367Y0028307D01*
X0051363Y002832D01*
X0051359Y0028336D01*
X0051357Y0028352D01*
Y0040445D01*
X005133Y0040582D01*
X0051252Y0040698D01*
X004871Y004324D01*
X0048595Y0043317D01*
X0048458Y0043344D01*
X0036552D01*
X0036489Y0043471D01*
X0036551Y0043552D01*
X0036622Y0043722D01*
X0036646Y0043905D01*
X0036622Y0044088D01*
X0036551Y0044258D01*
X0036439Y0044404D01*
X0036365Y0044461D01*
Y0044601D01*
X0036334Y0044617D01*
X0036293Y0044634D01*
X0036246Y0044648D01*
X0036196Y0044659D01*
X0036142Y0044667D01*
X0036083Y0044673D01*
X0035952Y0044675D01*
X003644Y0045177D01*
X0036442Y0045109D01*
X0036453Y0044986D01*
X0036462Y0044931D01*
X0036474Y004488D01*
X0036489Y0044834D01*
X0036506Y0044792D01*
X0036515Y0044775D01*
X0036551Y0044822D01*
X0036622Y0044992D01*
X0036646Y0045175D01*
X0036622Y0045358D01*
X0036551Y0045528D01*
X0036501Y0045594D01*
X0036011Y0045104D01*
X0035869Y0045246D01*
X0036359Y0045736D01*
X0036293Y0045786D01*
X0036123Y0045857D01*
X003594Y0045881D01*
D02*
G37*
G36*
X0033411Y0042828D02*
X0033342Y0042819D01*
X0033171Y0042749D01*
X0033098Y0042693D01*
X0033115Y0042684D01*
X0033157Y0042668D01*
X0033203Y0042655D01*
X0033253Y0042645D01*
X0033307Y0042638D01*
X0033311Y0042638D01*
X0033339Y0042677D01*
X0033365Y0042719D01*
X0033387Y0042761D01*
X0033403Y0042802D01*
X0033411Y0042828D01*
D02*
G37*
G36*
X0062746Y0042843D02*
X0062564Y0042819D01*
X0062393Y0042749D01*
X0062247Y0042637D01*
X006219Y0042562D01*
X0062033D01*
X0061976Y0042637D01*
X0061829Y0042749D01*
X0061659Y0042819D01*
X0061476Y0042843D01*
X0061294Y0042819D01*
X0061123Y0042749D01*
X0060977Y0042637D01*
X006092Y0042562D01*
X0060763D01*
X0060706Y0042637D01*
X0060559Y0042749D01*
X0060389Y0042819D01*
X0060206Y0042843D01*
X0060024Y0042819D01*
X0059853Y0042749D01*
X0059707Y0042637D01*
X0059595Y004249D01*
X0059524Y004232D01*
X00595Y0042137D01*
X0059524Y0041955D01*
X0059595Y0041784D01*
X0059707Y0041638D01*
X0059781Y0041581D01*
Y0041424D01*
X0059707Y0041367D01*
X0059595Y004122D01*
X0059524Y004105D01*
X00595Y0040867D01*
X0059524Y0040685D01*
X0059595Y0040514D01*
X0059707Y0040368D01*
X0059853Y0040256D01*
X0060024Y0040185D01*
X0060206Y0040161D01*
X0060389Y0040185D01*
X0060559Y0040256D01*
X0060706Y0040368D01*
X0060763Y0040442D01*
X006092D01*
X0060977Y0040368D01*
X0061123Y0040256D01*
X0061294Y0040185D01*
X0061476Y0040161D01*
X0061659Y0040185D01*
X0061829Y0040256D01*
X0061976Y0040368D01*
X0062033Y0040442D01*
X006219D01*
X0062247Y0040368D01*
X0062393Y0040256D01*
X0062564Y0040185D01*
X0062746Y0040161D01*
X0062929Y0040185D01*
X0063099Y0040256D01*
X0063246Y0040368D01*
X0063358Y0040514D01*
X0063428Y0040685D01*
X0063452Y0040867D01*
X0063428Y004105D01*
X0063358Y004122D01*
X0063246Y0041367D01*
X0063171Y0041424D01*
Y0041581D01*
X0063246Y0041638D01*
X0063358Y0041784D01*
X0063428Y0041955D01*
X0063452Y0042137D01*
X0063428Y004232D01*
X0063358Y004249D01*
X0063246Y0042637D01*
X0063099Y0042749D01*
X0062929Y0042819D01*
X0062746Y0042843D01*
D02*
G37*
G36*
X0035436Y0042418D02*
X0035411Y0042389D01*
X0035386Y0042355D01*
X0035364Y004232D01*
X0035345Y0042285D01*
X0035328Y0042249D01*
X0035315Y0042212D01*
X0035305Y0042175D01*
X0035297Y0042136D01*
X0035294Y004211D01*
X0035294Y004206D01*
X0035303Y0041938D01*
X0035311Y0041883D01*
X0035322Y0041833D01*
X0035337Y0041787D01*
X0035353Y0041745D01*
X0035362Y0041728D01*
X0035406Y0041784D01*
X0035476Y0041955D01*
X00355Y0042137D01*
X0035476Y004232D01*
X0035436Y0042418D01*
D02*
G37*
G36*
X00445Y0042236D02*
X0044285Y0042193D01*
X0044103Y0042072D01*
X0043982Y004189D01*
X0043939Y0041675D01*
X0043953Y0041606D01*
X0043839Y004153D01*
X0043818Y0041543D01*
X0043604Y0041586D01*
X0043389Y0041543D01*
X0043207Y0041422D01*
X0043086Y004124D01*
X0043043Y0041025D01*
X0043086Y004081D01*
X0043207Y0040628D01*
X0043389Y0040507D01*
X0043604Y0040464D01*
X0043818Y0040507D01*
X0044Y0040628D01*
X0044122Y004081D01*
X0044165Y0041025D01*
X0044151Y0041094D01*
X0044265Y004117D01*
X0044285Y0041157D01*
X00445Y0041114D01*
X0044715Y0041157D01*
X0044897Y0041278D01*
X0045018Y004146D01*
X0045061Y0041675D01*
X0045018Y004189D01*
X0044897Y0042072D01*
X0044715Y0042193D01*
X00445Y0042236D01*
D02*
G37*
G36*
X0035355Y0041287D02*
X0034865Y0040797D01*
X0034375Y0040307D01*
X0034441Y0040256D01*
X0034612Y0040185D01*
X0034794Y0040161D01*
X0034977Y0040185D01*
X0035147Y0040256D01*
X0035294Y0040368D01*
X0035406Y0040514D01*
X0035476Y0040685D01*
X00355Y0040867D01*
X0035476Y004105D01*
X0035406Y004122D01*
X0035355Y0041287D01*
D02*
G37*
G36*
X0032254Y0039686D02*
X003204Y0039643D01*
X0031858Y0039522D01*
X0031736Y003934D01*
X0031693Y0039125D01*
X0031736Y003891D01*
X0031858Y0038728D01*
X003204Y0038607D01*
X0032254Y0038564D01*
X0032469Y0038607D01*
X0032651Y0038728D01*
X0032772Y003891D01*
X0032815Y0039125D01*
X0032772Y003934D01*
X0032651Y0039522D01*
X0032469Y0039643D01*
X0032254Y0039686D01*
D02*
G37*
G36*
X00461Y0039586D02*
X0045885Y0039543D01*
X0045703Y0039422D01*
X0045582Y003924D01*
X0045539Y0039025D01*
X0045582Y003881D01*
X0045703Y0038628D01*
X0045885Y0038507D01*
X00461Y0038464D01*
X0046108Y0038466D01*
X0046216Y0038358D01*
X0046189Y0038225D01*
X0046232Y003801D01*
X0046353Y0037828D01*
X0046535Y0037707D01*
X004675Y0037664D01*
X0046965Y0037707D01*
X0047147Y0037828D01*
X0047268Y003801D01*
X0047311Y0038225D01*
X0047268Y003844D01*
X0047147Y0038622D01*
X0046965Y0038743D01*
X004675Y0038786D01*
X0046742Y0038784D01*
X0046634Y0038892D01*
X0046661Y0039025D01*
X0046618Y003924D01*
X0046497Y0039422D01*
X0046315Y0039543D01*
X00461Y0039586D01*
D02*
G37*
G36*
X00377Y0038186D02*
X0037485Y0038143D01*
X0037303Y0038022D01*
X0037182Y003784D01*
X0037139Y0037625D01*
X0037182Y003741D01*
X0037303Y0037228D01*
X0037485Y0037107D01*
X00377Y0037064D01*
X0037915Y0037107D01*
X0038097Y0037228D01*
X0038218Y003741D01*
X0038261Y0037625D01*
X0038218Y003784D01*
X0038097Y0038022D01*
X0037915Y0038143D01*
X00377Y0038186D01*
D02*
G37*
G36*
X00355D02*
X0035285Y0038143D01*
X0035103Y0038022D01*
X0034982Y003784D01*
X0034939Y0037625D01*
X0034982Y003741D01*
X0035103Y0037228D01*
X0035285Y0037107D01*
X00355Y0037064D01*
X0035715Y0037107D01*
X0035897Y0037228D01*
X0036018Y003741D01*
X0036061Y0037625D01*
X0036018Y003784D01*
X0035897Y0038022D01*
X0035715Y0038143D01*
X00355Y0038186D01*
D02*
G37*
G36*
X00399Y0036331D02*
X0039685Y0036288D01*
X0039503Y0036166D01*
X0039382Y0035984D01*
X0039339Y003577D01*
X0039382Y0035555D01*
X0039503Y0035373D01*
X0039685Y0035252D01*
X00399Y0035209D01*
X0040115Y0035252D01*
X0040297Y0035373D01*
X0040418Y0035555D01*
X0040461Y003577D01*
X0040418Y0035984D01*
X0040297Y0036166D01*
X0040115Y0036288D01*
X00399Y0036331D01*
D02*
G37*
G36*
X003375Y0035436D02*
X0033535Y0035393D01*
X0033353Y0035272D01*
X0033232Y003509D01*
X0033189Y0034875D01*
X0033232Y003466D01*
X0033353Y0034478D01*
X0033535Y0034357D01*
X003375Y0034314D01*
X0033965Y0034357D01*
X0034147Y0034478D01*
X0034268Y003466D01*
X0034311Y0034875D01*
X0034268Y003509D01*
X0034147Y0035272D01*
X0033965Y0035393D01*
X003375Y0035436D01*
D02*
G37*
G36*
X00385Y0034186D02*
X0038285Y0034143D01*
X0038103Y0034022D01*
X0037982Y003384D01*
X0037939Y0033625D01*
X0037982Y003341D01*
X0038103Y0033228D01*
X0038285Y0033107D01*
X00385Y0033064D01*
X0038715Y0033107D01*
X0038897Y0033228D01*
X0039018Y003341D01*
X0039061Y0033625D01*
X0039018Y003384D01*
X0038897Y0034022D01*
X0038715Y0034143D01*
X00385Y0034186D01*
D02*
G37*
G36*
X0043541Y0034686D02*
X0043327Y0034643D01*
X0043145Y0034522D01*
X0043023Y003434D01*
X0042981Y0034125D01*
X0043023Y003391D01*
X0043145Y0033728D01*
X0043327Y0033607D01*
X0043541Y0033564D01*
X0043602Y0033576D01*
X0043692Y0033486D01*
X0043689Y0033475D01*
X0043732Y003326D01*
X0043853Y0033078D01*
X0044035Y0032957D01*
X004425Y0032914D01*
X0044465Y0032957D01*
X0044647Y0033078D01*
X0044768Y003326D01*
X0044811Y0033475D01*
X0044768Y003369D01*
X0044647Y0033872D01*
X0044465Y0033993D01*
X004425Y0034036D01*
X004419Y0034024D01*
X00441Y0034114D01*
X0044102Y0034125D01*
X0044059Y003434D01*
X0043938Y0034522D01*
X0043756Y0034643D01*
X0043541Y0034686D01*
D02*
G37*
G36*
X0035Y0032686D02*
X0034785Y0032643D01*
X0034603Y0032522D01*
X0034482Y003234D01*
X0034439Y0032125D01*
X0034482Y003191D01*
X0034603Y0031728D01*
X0034785Y0031607D01*
X0035Y0031564D01*
X0035215Y0031607D01*
X0035397Y0031728D01*
X0035518Y003191D01*
X0035561Y0032125D01*
X0035518Y003234D01*
X0035397Y0032522D01*
X0035215Y0032643D01*
X0035Y0032686D01*
D02*
G37*
G36*
X00565Y0031186D02*
X0056285Y0031143D01*
X0056103Y0031022D01*
X0055982Y003084D01*
X0055939Y0030625D01*
X0055982Y003041D01*
X0056103Y0030228D01*
X0056285Y0030107D01*
X00565Y0030064D01*
X0056715Y0030107D01*
X0056897Y0030228D01*
X0057018Y003041D01*
X0057061Y0030625D01*
X0057018Y003084D01*
X0056897Y0031022D01*
X0056715Y0031143D01*
X00565Y0031186D01*
D02*
G37*
G36*
X0048725Y0030686D02*
X004851Y0030643D01*
X0048328Y0030522D01*
X0048207Y003034D01*
X0048164Y0030125D01*
X0048207Y002991D01*
X0048328Y0029728D01*
X004851Y0029607D01*
X0048725Y0029564D01*
X004894Y0029607D01*
X0049122Y0029728D01*
X0049243Y002991D01*
X0049286Y0030125D01*
X0049243Y003034D01*
X0049122Y0030522D01*
X004894Y0030643D01*
X0048725Y0030686D01*
D02*
G37*
G36*
X0058795Y0029431D02*
X0058612Y0029407D01*
X0058442Y0029336D01*
X0058296Y0029224D01*
X0058239Y002915D01*
X0058081D01*
X0058024Y0029224D01*
X0057878Y0029336D01*
X0057708Y0029407D01*
X0057525Y0029431D01*
X0057342Y0029407D01*
X0057172Y0029336D01*
X0057026Y0029224D01*
X0056969Y002915D01*
X0056811D01*
X0056754Y0029224D01*
X0056608Y0029336D01*
X0056438Y0029407D01*
X0056255Y0029431D01*
X0056072Y0029407D01*
X0055902Y0029336D01*
X0055756Y0029224D01*
X0055644Y0029078D01*
X0055573Y0028908D01*
X0055549Y0028725D01*
X0055573Y0028542D01*
X0055644Y0028372D01*
X0055756Y0028226D01*
X005583Y0028169D01*
Y0028011D01*
X0055756Y0027954D01*
X0055644Y0027808D01*
X0055573Y0027638D01*
X0055549Y0027455D01*
X0055573Y0027272D01*
X0055644Y0027102D01*
X0055756Y0026956D01*
X0055902Y0026844D01*
X0056072Y0026773D01*
X0056255Y0026749D01*
X0056438Y0026773D01*
X0056608Y0026844D01*
X0056754Y0026956D01*
X0056811Y002703D01*
X0056959D01*
X0057454Y0027526D01*
X0057596Y0027384D01*
X0057106Y0026894D01*
X0057172Y0026844D01*
X0057342Y0026773D01*
X0057525Y0026749D01*
X0057708Y0026773D01*
X0057878Y0026844D01*
X0057961Y0026907D01*
X0057929Y0026924D01*
X005789Y002694D01*
X0057848Y0026952D01*
X0057802Y0026961D01*
X0057754Y0026966D01*
X0057702Y0026967D01*
X0057647Y0026965D01*
X005759Y0026959D01*
X0058025Y0027454D01*
X0058026Y0027393D01*
X0058031Y0027336D01*
X0058038Y0027282D01*
X0058048Y0027231D01*
X0058061Y0027183D01*
X0058077Y0027139D01*
X0058096Y0027098D01*
X0058118Y0027061D01*
X005814Y002703D01*
X0058239D01*
X0058296Y0026956D01*
X0058442Y0026844D01*
X0058612Y0026773D01*
X0058795Y0026749D01*
X0058978Y0026773D01*
X0059148Y0026844D01*
X0059294Y0026956D01*
X0059406Y0027102D01*
X0059477Y0027272D01*
X0059501Y0027455D01*
X0059477Y0027638D01*
X0059406Y0027808D01*
X0059294Y0027954D01*
X005922Y0028011D01*
Y0028169D01*
X0059294Y0028226D01*
X0059406Y0028372D01*
X0059477Y0028542D01*
X0059501Y0028725D01*
X0059477Y0028908D01*
X0059406Y0029078D01*
X0059294Y0029224D01*
X0059148Y0029336D01*
X0058978Y0029407D01*
X0058795Y0029431D01*
D02*
G37*
G36*
X003842D02*
X0038237Y0029407D01*
X0038067Y0029336D01*
X0037921Y0029224D01*
X0037864Y002915D01*
X0037706D01*
X0037649Y0029224D01*
X0037503Y0029336D01*
X0037333Y0029407D01*
X003715Y0029431D01*
X0036967Y0029407D01*
X0036797Y0029336D01*
X0036651Y0029224D01*
X0036594Y002915D01*
X0036436D01*
X0036379Y0029224D01*
X0036233Y0029336D01*
X0036063Y0029407D01*
X003588Y0029431D01*
X0035697Y0029407D01*
X0035527Y0029336D01*
X0035381Y0029224D01*
X0035269Y0029078D01*
X0035198Y0028908D01*
X0035174Y0028725D01*
X0035198Y0028542D01*
X0035269Y0028372D01*
X0035381Y0028226D01*
X0035455Y0028169D01*
Y0028011D01*
X0035381Y0027954D01*
X0035269Y0027808D01*
X0035198Y0027638D01*
X0035174Y0027455D01*
X0035198Y0027272D01*
X0035269Y0027102D01*
X0035381Y0026956D01*
X0035527Y0026844D01*
X0035697Y0026773D01*
X003588Y0026749D01*
X0036063Y0026773D01*
X0036233Y0026844D01*
X0036379Y0026956D01*
X0036436Y002703D01*
X0036594D01*
X0036651Y0026956D01*
X0036797Y0026844D01*
X0036967Y0026773D01*
X003715Y0026749D01*
X0037333Y0026773D01*
X0037503Y0026844D01*
X0037649Y0026956D01*
X0037706Y002703D01*
X0037864D01*
X0037921Y0026956D01*
X0038067Y0026844D01*
X0038237Y0026773D01*
X003842Y0026749D01*
X0038603Y0026773D01*
X0038773Y0026844D01*
X0038919Y0026956D01*
X0039031Y0027102D01*
X0039102Y0027272D01*
X0039126Y0027455D01*
X0039102Y0027638D01*
X0039031Y0027808D01*
X0038919Y0027954D01*
X0038845Y0028011D01*
Y0028169D01*
X0038919Y0028226D01*
X0039031Y0028372D01*
X0039102Y0028542D01*
X0039126Y0028725D01*
X0039102Y0028908D01*
X0039031Y0029078D01*
X0038919Y0029224D01*
X0038773Y0029336D01*
X0038603Y0029407D01*
X003842Y0029431D01*
D02*
G37*
%LPD*%
G36*
X0060337Y0047107D02*
X0060377Y0047073D01*
X0060417Y0047043D01*
X0060458Y0047017D01*
X00605Y0046995D01*
X0060542Y0046977D01*
X0060585Y0046963D01*
X0060629Y0046953D01*
X0060672Y0046947D01*
X0060717Y0046945D01*
Y0046645D01*
X0060672Y0046643D01*
X0060629Y0046637D01*
X0060585Y0046627D01*
X0060542Y0046613D01*
X00605Y0046595D01*
X0060458Y0046573D01*
X0060417Y0046547D01*
X0060377Y0046517D01*
X0060337Y0046483D01*
X0060297Y0046445D01*
Y0047145D01*
X0060337Y0047107D01*
D02*
G37*
G36*
X0055176Y0046603D02*
X0055159Y0046582D01*
X0055145Y0046559D01*
X0055133Y0046534D01*
X0055122Y0046507D01*
X0055114Y0046478D01*
X0055107Y0046448D01*
X0055102Y0046416D01*
X00551Y0046382D01*
X0055099Y0046346D01*
X0054799D01*
X0054798Y0046382D01*
X0054795Y0046416D01*
X005479Y0046448D01*
X0054783Y0046478D01*
X0054775Y0046507D01*
X0054764Y0046534D01*
X0054752Y0046559D01*
X0054738Y0046582D01*
X0054722Y0046603D01*
X0054704Y0046623D01*
X0055194D01*
X0055176Y0046603D01*
D02*
G37*
G36*
X0033901Y0043845D02*
X0033905Y0043793D01*
X0033913Y0043743D01*
X0033924Y0043695D01*
X0033937Y004365D01*
X0033955Y0043608D01*
X0033975Y0043568D01*
X0033999Y004353D01*
X0034025Y0043495D01*
X0034055Y0043462D01*
X0033843Y004325D01*
X003381Y004328D01*
X0033775Y0043306D01*
X0033737Y004333D01*
X0033697Y004335D01*
X0033655Y0043368D01*
X003361Y0043382D01*
X0033562Y0043392D01*
X0033512Y00434D01*
X003346Y0043404D01*
X0033405Y0043405D01*
X00339Y00439D01*
X0033901Y0043845D01*
D02*
G37*
G36*
X0051151Y0028365D02*
X0051154Y0028332D01*
X0051159Y0028299D01*
X0051165Y0028269D01*
X0051174Y0028241D01*
X0051184Y0028214D01*
X0051197Y0028189D01*
X0051211Y0028166D01*
X0051227Y0028144D01*
X0051245Y0028125D01*
X0050755D01*
X0050773Y0028144D01*
X0050789Y0028166D01*
X0050803Y0028189D01*
X0050816Y0028214D01*
X0050826Y0028241D01*
X0050835Y0028269D01*
X0050841Y0028299D01*
X0050846Y0028332D01*
X0050849Y0028365D01*
X005085Y0028401D01*
X005115D01*
X0051151Y0028365D01*
D02*
G37*
D13*
X005757Y0027455D02*
X00581Y0026925D01*
X0057525Y0027455D02*
X005757D01*
X0033524Y0040867D02*
X0033558D01*
X00341Y0040325D01*
X0034794Y0042131D02*
Y0042137D01*
Y0042131D02*
X00354Y0041525D01*
X0034794Y0042137D02*
X0035011D01*
X0035398Y0042525D01*
X00355D01*
X0033524Y0042137D02*
Y0042925D01*
X0033488Y0042137D02*
X0033524D01*
X00328Y0042825D02*
X0033488Y0042137D01*
X003594Y0045175D02*
X003595D01*
X00366Y0044525D01*
X0039Y0047525D02*
X003967Y0046855D01*
Y0046795D02*
Y0046855D01*
D47*
X0034318Y0042987D02*
X0048458D01*
X0051Y0027875D02*
Y0040445D01*
X0048458Y0042987D02*
X0051Y0040445D01*
X005994Y0046795D02*
X0061102D01*
X0061476Y0045001D02*
Y0046421D01*
X0061102Y0046795D02*
X0061476Y0046421D01*
X0060805Y004433D02*
X0061476Y0045001D01*
X0054949Y0045714D02*
X0056333Y004433D01*
X0060805D01*
X0054949Y0045714D02*
Y0046873D01*
X00334Y0043905D02*
X0034318Y0042987D01*
D49*
X0033524Y0042137D02*
D03*
Y0040867D02*
D03*
X0034794Y0042137D02*
D03*
Y0040867D02*
D03*
X005994Y0046795D02*
D03*
X003967D02*
D03*
X0057525Y0027455D02*
D03*
X003594Y0045175D02*
D03*
X00334Y0043905D02*
D03*
D50*
X006325Y0026975D02*
D03*
X003375D02*
D03*
Y0029975D02*
D03*
X005005Y0046873D02*
D03*
X0043Y0046795D02*
D03*
X00461Y0046873D02*
D03*
Y0043925D02*
D03*
X005005Y0042775D02*
D03*
X005845Y0036625D02*
D03*
X006175D02*
D03*
Y00391D02*
D03*
X0060625Y0028725D02*
D03*
Y0030625D02*
D03*
X00564Y0039675D02*
D03*
X005005Y0039775D02*
D03*
X0052Y0036025D02*
D03*
X005005D02*
D03*
X00483Y0033175D02*
D03*
X003715Y0029975D02*
D03*
X00412Y0026975D02*
D03*
X004975D02*
D03*
Y0029625D02*
D03*
X0052575Y0026975D02*
D03*
Y0029625D02*
D03*
X00412Y0029975D02*
D03*
X00456Y0033475D02*
D03*
X0054949Y0046873D02*
D03*
X00431Y0037625D02*
D03*
X0051Y0027875D02*
D03*
D51*
X0043Y0043925D02*
D03*
M02*
