G04*
G04 #@! TF.GenerationSoftware,Altium Limited,Altium Designer,20.1.8 (145)*
G04*
G04 Layer_Physical_Order=4*
G04 Layer_Color=16711680*
%FSTAX43Y43*%
%MOMM*%
G71*
G04*
G04 #@! TF.SameCoordinates,DEFF2A6E-5F0D-40BF-B6DE-29F6B0C5E57E*
G04*
G04*
G04 #@! TF.FilePolarity,Positive*
G04*
G01*
G75*
%ADD13C,0.200*%
%ADD15R,1.000X0.900*%
%ADD18R,0.900X1.000*%
G04:AMPARAMS|DCode=33|XSize=0.9mm|YSize=0.8mm|CornerRadius=0.2mm|HoleSize=0mm|Usage=FLASHONLY|Rotation=270.000|XOffset=0mm|YOffset=0mm|HoleType=Round|Shape=RoundedRectangle|*
%AMROUNDEDRECTD33*
21,1,0.900,0.400,0,0,270.0*
21,1,0.500,0.800,0,0,270.0*
1,1,0.400,-0.200,-0.250*
1,1,0.400,-0.200,0.250*
1,1,0.400,0.200,0.250*
1,1,0.400,0.200,-0.250*
%
%ADD33ROUNDEDRECTD33*%
%ADD36R,0.900X0.800*%
%ADD37R,1.450X0.450*%
%ADD46R,1.100X0.600*%
%ADD47C,0.300*%
%ADD49C,1.000*%
%ADD50C,0.700*%
%ADD51C,0.600*%
%ADD52R,2.500X2.300*%
G36*
X0064745Y002638D02*
X0031255D01*
Y0028125D01*
Y004787D01*
X0064745D01*
Y002638D01*
D02*
G37*
%LPC*%
G36*
X004094Y0047501D02*
X0040757Y0047477D01*
X0040587Y0047406D01*
X0040441Y0047294D01*
X0040384Y004722D01*
X0040236D01*
X0039741Y0046724D01*
X0039599Y0046866D01*
X0040089Y0047356D01*
X0040023Y0047406D01*
X0039853Y0047477D01*
X003967Y0047501D01*
X0039487Y0047477D01*
X0039317Y0047406D01*
X0039297Y0047391D01*
X0039316Y004738D01*
X0039358Y0047362D01*
X0039405Y0047345D01*
X0039456Y0047331D01*
X0039512Y0047319D01*
X0039637Y00473D01*
X0039707Y0047294D01*
X0039172Y0046842D01*
X0039177Y0046908D01*
X0039176Y0047027D01*
X0039171Y004708D01*
X0039162Y004713D01*
X0039149Y0047175D01*
X0039134Y0047217D01*
X0039125Y0047234D01*
X0039114Y004722D01*
X0038956D01*
X0038899Y0047294D01*
X0038753Y0047406D01*
X0038583Y0047477D01*
X00384Y0047501D01*
X0038217Y0047477D01*
X0038047Y0047406D01*
X0037901Y0047294D01*
X0037789Y0047148D01*
X0037718Y0046978D01*
X0037694Y0046795D01*
X0037718Y0046612D01*
X0037789Y0046442D01*
X0037901Y0046296D01*
X0037975Y0046239D01*
Y0046081D01*
X0037901Y0046024D01*
X0037789Y0045878D01*
X0037718Y0045708D01*
X0037694Y0045525D01*
X0037718Y0045342D01*
X0037789Y0045172D01*
X0037901Y0045026D01*
X0038047Y0044914D01*
X0038217Y0044843D01*
X00384Y0044819D01*
X0038583Y0044843D01*
X0038753Y0044914D01*
X0038899Y0045026D01*
X0038956Y00451D01*
X0039114D01*
X0039171Y0045026D01*
X0039182Y0045017D01*
X0039207Y0044992D01*
X0039232Y0044962D01*
X0039254Y0044933D01*
X0039271Y0044904D01*
X0039286Y0044877D01*
X0039297Y0044851D01*
X0039305Y0044825D01*
X0039311Y00448D01*
X0039313Y0044786D01*
Y0040415D01*
X003934Y0040278D01*
X0039418Y0040162D01*
X0039543Y0040037D01*
Y0036247D01*
X0039541Y0036231D01*
X0039537Y0036215D01*
X0039533Y0036202D01*
X0039529Y0036191D01*
X0039525Y0036183D01*
X0039523Y0036179D01*
X0039503Y0036166D01*
X0039382Y0035984D01*
X0039339Y003577D01*
X0039382Y0035555D01*
X0039503Y0035373D01*
X0039685Y0035252D01*
X00399Y0035209D01*
X0040115Y0035252D01*
X0040297Y0035373D01*
X0040418Y0035555D01*
X0040461Y003577D01*
X0040418Y0035984D01*
X0040297Y0036166D01*
X0040277Y0036179D01*
X0040275Y0036183D01*
X0040271Y0036191D01*
X0040267Y0036202D01*
X0040263Y0036215D01*
X0040259Y0036231D01*
X0040257Y0036247D01*
Y0040185D01*
X004023Y0040321D01*
X0040152Y0040437D01*
X0040027Y0040562D01*
Y0044786D01*
X0040029Y00448D01*
X0040035Y0044825D01*
X0040043Y0044851D01*
X0040054Y0044877D01*
X0040069Y0044904D01*
X0040086Y0044933D01*
X0040108Y0044962D01*
X0040133Y0044992D01*
X0040158Y0045017D01*
X0040169Y0045026D01*
X0040226Y00451D01*
X0040384D01*
X0040441Y0045026D01*
X0040587Y0044914D01*
X0040757Y0044843D01*
X004094Y0044819D01*
X0041123Y0044843D01*
X0041293Y0044914D01*
X0041439Y0045026D01*
X0041551Y0045172D01*
X0041622Y0045342D01*
X0041646Y0045525D01*
X0041622Y0045708D01*
X0041551Y0045878D01*
X0041439Y0046024D01*
X0041365Y0046081D01*
Y0046239D01*
X0041439Y0046296D01*
X0041551Y0046442D01*
X0041622Y0046612D01*
X0041646Y0046795D01*
X0041622Y0046978D01*
X0041551Y0047148D01*
X0041439Y0047294D01*
X0041293Y0047406D01*
X0041123Y0047477D01*
X004094Y0047501D01*
D02*
G37*
G36*
X0054949Y0047433D02*
X0054734Y0047391D01*
X0054552Y0047269D01*
X0054431Y0047087D01*
X0054388Y0046873D01*
X0054431Y0046658D01*
X0054552Y0046476D01*
X0054734Y0046354D01*
X0054949Y0046312D01*
X0055163Y0046354D01*
X0055345Y0046476D01*
X0055467Y0046658D01*
X0055509Y0046873D01*
X0055467Y0047087D01*
X0055345Y0047269D01*
X0055163Y0047391D01*
X0054949Y0047433D01*
D02*
G37*
G36*
X00624Y0047525D02*
X0061D01*
Y0046425D01*
X0061Y0046425D01*
Y0045625D01*
X0061Y0045625D01*
Y004503D01*
X0060819Y0044848D01*
X0060741Y0044733D01*
X0060714Y0044596D01*
Y0044451D01*
X0060664Y0044341D01*
X0060591Y0044332D01*
X005905D01*
X0059016Y0044325D01*
X00583D01*
X00583Y0044325D01*
X0057833D01*
X0057744Y0044452D01*
X0057757Y0044519D01*
Y0044786D01*
X0057759Y00448D01*
X0057765Y0044825D01*
X0057773Y0044851D01*
X0057784Y0044877D01*
X0057799Y0044904D01*
X0057816Y0044933D01*
X0057838Y0044962D01*
X0057863Y0044992D01*
X0057888Y0045017D01*
X0057899Y0045026D01*
X0057956Y00451D01*
X0058114D01*
X0058171Y0045026D01*
X0058317Y0044914D01*
X0058487Y0044843D01*
X005867Y0044819D01*
X0058853Y0044843D01*
X0059023Y0044914D01*
X0059169Y0045026D01*
X0059226Y00451D01*
X0059384D01*
X0059441Y0045026D01*
X0059587Y0044914D01*
X0059757Y0044843D01*
X005994Y0044819D01*
X0060123Y0044843D01*
X0060293Y0044914D01*
X0060439Y0045026D01*
X0060551Y0045172D01*
X0060622Y0045342D01*
X0060646Y0045525D01*
X0060622Y0045708D01*
X0060551Y0045878D01*
X0060439Y0046024D01*
X0060365Y0046081D01*
Y0046239D01*
X0060439Y0046296D01*
X0060551Y0046442D01*
X0060622Y0046612D01*
X0060646Y0046795D01*
X0060622Y0046978D01*
X0060551Y0047148D01*
X0060439Y0047294D01*
X0060293Y0047406D01*
X0060123Y0047477D01*
X005994Y0047501D01*
X0059757Y0047477D01*
X0059587Y0047406D01*
X0059441Y0047294D01*
X0059384Y004722D01*
X0059226D01*
X0059169Y0047294D01*
X0059023Y0047406D01*
X0058853Y0047477D01*
X005867Y0047501D01*
X0058487Y0047477D01*
X0058317Y0047406D01*
X0058171Y0047294D01*
X0058114Y004722D01*
X0057956D01*
X0057899Y0047294D01*
X0057753Y0047406D01*
X0057583Y0047477D01*
X00574Y0047501D01*
X0057217Y0047477D01*
X0057047Y0047406D01*
X0056901Y0047294D01*
X0056789Y0047148D01*
X0056718Y0046978D01*
X0056694Y0046795D01*
X0056718Y0046612D01*
X0056789Y0046442D01*
X0056901Y0046296D01*
X0056975Y0046239D01*
Y0046081D01*
X0056901Y0046024D01*
X0056789Y0045878D01*
X0056718Y0045708D01*
X0056694Y0045525D01*
X0056718Y0045342D01*
X0056789Y0045172D01*
X0056901Y0045026D01*
X0056912Y0045017D01*
X0056937Y0044992D01*
X0056962Y0044962D01*
X0056984Y0044933D01*
X0057001Y0044904D01*
X0057016Y0044877D01*
X0057027Y0044851D01*
X0057035Y0044825D01*
X0057041Y00448D01*
X0057043Y0044786D01*
Y0044667D01*
X0056834Y0044457D01*
X0056756Y0044341D01*
X0056753Y0044325D01*
X00564D01*
Y0042925D01*
X00575D01*
X00575Y0042925D01*
X00583D01*
X00583Y0042925D01*
X0058994D01*
X0059043Y0042808D01*
X0058166Y0041931D01*
X0045038D01*
X0045036Y0041931D01*
X0045028Y0041933D01*
X0045019Y0041937D01*
X004501Y0041941D01*
X0044999Y0041948D01*
X0044988Y0041957D01*
X0044975Y0041969D01*
X0044962Y0041984D01*
X0044943Y0042008D01*
X0044934Y0042015D01*
X0044897Y0042072D01*
X0044715Y0042193D01*
X00445Y0042236D01*
X0044285Y0042193D01*
X0044103Y0042072D01*
X0043982Y004189D01*
X0043939Y0041675D01*
X0043953Y0041606D01*
X0043839Y004153D01*
X0043818Y0041543D01*
X0043604Y0041586D01*
X0043389Y0041543D01*
X0043207Y0041422D01*
X0043086Y004124D01*
X0043043Y0041025D01*
X0043086Y004081D01*
X0043207Y0040628D01*
X0043389Y0040507D01*
X0043604Y0040464D01*
X0043818Y0040507D01*
X0044Y0040628D01*
X0044018Y0040655D01*
X004402Y0040657D01*
X0044039Y0040673D01*
X0044057Y0040687D01*
X0044073Y0040697D01*
X0044088Y0040705D01*
X0044102Y0040712D01*
X0044115Y0040716D01*
X0044127Y0040719D01*
X004413Y0040719D01*
X0057573D01*
X0058584Y0039709D01*
X0058683Y0039642D01*
X00588Y0039619D01*
X00588Y0039619D01*
X0062629D01*
X0062629Y0039619D01*
X0062746Y0039642D01*
X0062845Y0039709D01*
X0062963Y0039826D01*
X0062963Y0039826D01*
X0063029Y0039925D01*
X0063052Y0040042D01*
X0063052Y0040042D01*
Y0040093D01*
X0063054Y0040105D01*
X0063061Y0040125D01*
X0063071Y004015D01*
X0063076Y004016D01*
X0063112Y004017D01*
X0063239Y0040074D01*
Y0039099D01*
X0062676Y0038536D01*
X0055223D01*
X0055087Y0038509D01*
X0054971Y0038431D01*
X0052571Y0036031D01*
X0052493Y0035915D01*
X0052466Y0035779D01*
Y0035482D01*
X005195D01*
X0051916Y0035475D01*
X00495D01*
Y0032845D01*
X0048612D01*
X0048475Y0032818D01*
X0048359Y0032741D01*
X0047967Y0032349D01*
X004785Y0032398D01*
Y0032775D01*
X004635D01*
Y0032482D01*
X00457D01*
X0045666Y0032475D01*
X004485D01*
X0044825Y0032592D01*
Y0032625D01*
X0044D01*
Y00322D01*
X00438D01*
Y0032625D01*
X0043343D01*
X0043295Y0032742D01*
X0043722Y0033169D01*
X0043724D01*
X0043727Y0033169D01*
X0043739Y0033166D01*
X0043751Y0033162D01*
X0043765Y0033155D01*
X0043781Y0033147D01*
X0043797Y0033137D01*
X0043815Y0033123D01*
X0043834Y0033107D01*
X0043835Y0033105D01*
X0043853Y0033078D01*
X0044035Y0032957D01*
X004425Y0032914D01*
X0044465Y0032957D01*
X0044647Y0033078D01*
X0044768Y003326D01*
X0044811Y0033475D01*
X0044768Y003369D01*
X0044647Y0033872D01*
X0044465Y0033993D01*
X004425Y0034036D01*
X004419Y0034024D01*
X00441Y0034114D01*
X0044102Y0034125D01*
X0044059Y003434D01*
X0043938Y0034522D01*
X0043756Y0034643D01*
X0043541Y0034686D01*
X0043327Y0034643D01*
X0043145Y0034522D01*
X0043023Y003434D01*
X0042981Y0034125D01*
X0042987Y0034093D01*
X0042987Y0034091D01*
X0042985Y0034066D01*
X0042982Y0034044D01*
X0042978Y0034025D01*
X0042973Y0034008D01*
X0042967Y0033994D01*
X0042961Y0033982D01*
X0042955Y0033972D01*
X0042953Y0033969D01*
X004084Y0031856D01*
X0040425D01*
Y0032195D01*
X0040431Y0032225D01*
Y0032598D01*
X0045538Y0037705D01*
X0045538Y0037705D01*
X0045604Y0037804D01*
X0045627Y0037921D01*
X0045627Y0037921D01*
Y003812D01*
X0045944Y0038437D01*
X0045947Y0038439D01*
X0045957Y0038445D01*
X0045969Y0038451D01*
X0045983Y0038456D01*
X0046Y0038461D01*
X0046019Y0038465D01*
X0046041Y0038469D01*
X0046066Y0038471D01*
X0046068Y0038471D01*
X00461Y0038464D01*
X0046108Y0038466D01*
X0046216Y0038358D01*
X0046189Y0038225D01*
X0046232Y003801D01*
X0046353Y0037828D01*
X0046535Y0037707D01*
X004675Y0037664D01*
X0046965Y0037707D01*
X0047147Y0037828D01*
X0047268Y003801D01*
X0047311Y0038225D01*
X0047268Y003844D01*
X0047147Y0038622D01*
X0046965Y0038743D01*
X004675Y0038786D01*
X0046742Y0038784D01*
X0046634Y0038892D01*
X0046661Y0039025D01*
X0046618Y003924D01*
X0046497Y0039422D01*
X0046315Y0039543D01*
X00461Y0039586D01*
X0045885Y0039543D01*
X0045703Y0039422D01*
X0045582Y003924D01*
X0045539Y0039025D01*
X0045546Y0038993D01*
X0045546Y0038991D01*
X0045544Y0038966D01*
X004554Y0038944D01*
X0045536Y0038925D01*
X0045531Y0038908D01*
X0045526Y0038894D01*
X004552Y0038882D01*
X0045514Y0038872D01*
X0045512Y0038869D01*
X0045105Y0038463D01*
X0045039Y0038363D01*
X0045016Y0038246D01*
X0045016Y0038246D01*
Y0038048D01*
X0039909Y0032941D01*
X0039842Y0032842D01*
X0039819Y0032725D01*
X0039745Y0032625D01*
X0038575D01*
Y0031775D01*
Y0031125D01*
Y0030401D01*
X0038458Y0030352D01*
X0037857Y0030953D01*
Y0033268D01*
X0038023D01*
X0038039Y0033266D01*
X0038055Y0033262D01*
X0038068Y0033258D01*
X0038079Y0033254D01*
X0038087Y003325D01*
X0038091Y0033248D01*
X0038103Y0033228D01*
X0038285Y0033107D01*
X00385Y0033064D01*
X0038715Y0033107D01*
X0038897Y0033228D01*
X0039018Y003341D01*
X0039061Y0033625D01*
X0039018Y003384D01*
X0038897Y0034022D01*
X0038715Y0034143D01*
X00385Y0034186D01*
X0038285Y0034143D01*
X0038103Y0034022D01*
X0038091Y0034002D01*
X0038087Y0034D01*
X0038079Y0033996D01*
X0038068Y0033992D01*
X0038055Y0033988D01*
X0038039Y0033984D01*
X0038023Y0033982D01*
X0037857D01*
Y0036018D01*
X0037952Y0036114D01*
X003803Y003623D01*
X0038057Y0036366D01*
Y0037148D01*
X0038059Y0037164D01*
X0038063Y003718D01*
X0038067Y0037193D01*
X0038071Y0037204D01*
X0038075Y0037212D01*
X0038077Y0037216D01*
X0038097Y0037228D01*
X0038218Y003741D01*
X0038261Y0037625D01*
X0038218Y003784D01*
X0038097Y0038022D01*
X0037915Y0038143D01*
X00377Y0038186D01*
X0037485Y0038143D01*
X0037303Y0038022D01*
X0037291Y0038002D01*
X0037287Y0038D01*
X0037279Y0037996D01*
X0037268Y0037992D01*
X0037255Y0037988D01*
X0037239Y0037984D01*
X0037223Y0037982D01*
X0035977D01*
X0035961Y0037984D01*
X0035945Y0037988D01*
X0035932Y0037992D01*
X0035921Y0037996D01*
X0035913Y0038D01*
X0035909Y0038002D01*
X0035897Y0038022D01*
X0035715Y0038143D01*
X00355Y0038186D01*
X0035285Y0038143D01*
X0035269Y0038132D01*
X0035157Y0038192D01*
Y0038964D01*
X0037042Y0040849D01*
X003712Y0040965D01*
X0037147Y0041102D01*
Y0045527D01*
X003712Y0045664D01*
X0037042Y0045779D01*
X0036544Y0046277D01*
X0036429Y0046355D01*
X0036292Y0046382D01*
X003552D01*
X0035383Y0046355D01*
X0035268Y0046277D01*
X0034941Y004595D01*
X0034929Y0045942D01*
X0034907Y0045928D01*
X0034883Y0045915D01*
X0034856Y0045905D01*
X0034827Y0045896D01*
X0034794Y0045888D01*
X0034759Y0045883D01*
X003472Y004588D01*
X0034685Y0045879D01*
X003467Y0045881D01*
X0034487Y0045857D01*
X0034317Y0045786D01*
X0034171Y0045674D01*
X0034114Y00456D01*
X0033956D01*
X0033899Y0045674D01*
X0033753Y0045786D01*
X0033583Y0045857D01*
X00334Y0045881D01*
X0033217Y0045857D01*
X0033047Y0045786D01*
X0032901Y0045674D01*
X0032789Y0045528D01*
X0032718Y0045358D01*
X0032694Y0045175D01*
X0032718Y0044992D01*
X0032789Y0044822D01*
X0032901Y0044676D01*
X0032975Y0044619D01*
Y0044461D01*
X0032901Y0044404D01*
X0032789Y0044258D01*
X0032718Y0044088D01*
X0032694Y0043905D01*
X0032718Y0043722D01*
X0032789Y0043552D01*
X0032901Y0043406D01*
X0033047Y0043294D01*
X0033217Y0043223D01*
X00334Y0043199D01*
X0033583Y0043223D01*
X0033753Y0043294D01*
X0033899Y0043406D01*
X0033956Y004348D01*
X0034114D01*
X0034171Y0043406D01*
X0034317Y0043294D01*
X0034487Y0043223D01*
X003467Y0043199D01*
X0034853Y0043223D01*
X0035023Y0043294D01*
X0035169Y0043406D01*
X0035226Y004348D01*
X0035384D01*
X0035441Y0043406D01*
X0035587Y0043294D01*
X0035757Y0043223D01*
X003594Y0043199D01*
X0036123Y0043223D01*
X0036293Y0043294D01*
X0036319Y0043314D01*
X0036433Y0043258D01*
Y004125D01*
X0034548Y0039364D01*
X003447Y0039248D01*
X0034443Y0039112D01*
Y0033625D01*
X003447Y0033488D01*
X0034548Y0033373D01*
X0034643Y0033277D01*
Y0032602D01*
X0034641Y0032586D01*
X0034637Y003257D01*
X0034633Y0032557D01*
X0034629Y0032546D01*
X0034625Y0032538D01*
X0034623Y0032534D01*
X0034603Y0032522D01*
X0034482Y003234D01*
X0034439Y0032125D01*
X0034482Y003191D01*
X0034603Y0031728D01*
X0034785Y0031607D01*
X0035Y0031564D01*
X0035215Y0031607D01*
X0035397Y0031728D01*
X0035518Y003191D01*
X0035561Y0032125D01*
X0035518Y003234D01*
X0035397Y0032522D01*
X0035377Y0032534D01*
X0035375Y0032538D01*
X0035371Y0032546D01*
X0035367Y0032557D01*
X0035363Y003257D01*
X0035359Y0032586D01*
X0035357Y0032602D01*
Y0033425D01*
X003533Y0033562D01*
X0035252Y0033677D01*
X0035157Y0033773D01*
Y0037058D01*
X0035269Y0037118D01*
X0035285Y0037107D01*
X00355Y0037064D01*
X0035715Y0037107D01*
X0035897Y0037228D01*
X0035909Y0037248D01*
X0035913Y003725D01*
X0035921Y0037254D01*
X0035932Y0037258D01*
X0035945Y0037262D01*
X0035961Y0037266D01*
X0035977Y0037268D01*
X0037223D01*
X0037239Y0037266D01*
X0037255Y0037262D01*
X0037268Y0037258D01*
X0037279Y0037254D01*
X0037287Y003725D01*
X0037291Y0037248D01*
X0037303Y0037228D01*
X0037323Y0037216D01*
X0037325Y0037212D01*
X0037329Y0037204D01*
X0037333Y0037193D01*
X0037337Y003718D01*
X0037341Y0037164D01*
X0037343Y0037148D01*
Y0036514D01*
X0037248Y0036419D01*
X003717Y0036303D01*
X0037143Y0036166D01*
Y0033625D01*
Y0030805D01*
X003717Y0030668D01*
X0037248Y0030553D01*
X0038173Y0029628D01*
X0038173Y0029628D01*
X0038276Y0029524D01*
X0038221Y00294D01*
X0038067Y0029336D01*
X0037921Y0029224D01*
X0037864Y002915D01*
X0037706D01*
X0037649Y0029224D01*
X0037503Y0029336D01*
X0037333Y0029407D01*
X003715Y0029431D01*
X0036967Y0029407D01*
X0036797Y0029336D01*
X0036651Y0029224D01*
X0036594Y002915D01*
X0036436D01*
X0036379Y0029224D01*
X0036233Y0029336D01*
X0036063Y0029407D01*
X003588Y0029431D01*
X0035697Y0029407D01*
X0035527Y0029336D01*
X0035381Y0029224D01*
X0035269Y0029078D01*
X0035198Y0028908D01*
X0035174Y0028725D01*
X0035198Y0028542D01*
X0035269Y0028372D01*
X0035381Y0028226D01*
X0035455Y0028169D01*
Y0028011D01*
X0035381Y0027954D01*
X0035269Y0027808D01*
X0035198Y0027638D01*
X0035174Y0027455D01*
X0035198Y0027272D01*
X0035269Y0027102D01*
X0035381Y0026956D01*
X0035527Y0026844D01*
X0035697Y0026773D01*
X003588Y0026749D01*
X0036063Y0026773D01*
X0036233Y0026844D01*
X0036379Y0026956D01*
X0036436Y002703D01*
X0036594D01*
X0036651Y0026956D01*
X0036797Y0026844D01*
X0036967Y0026773D01*
X003715Y0026749D01*
X0037333Y0026773D01*
X0037503Y0026844D01*
X0037649Y0026956D01*
X0037706Y002703D01*
X0037864D01*
X0037921Y0026956D01*
X0038067Y0026844D01*
X0038237Y0026773D01*
X003842Y0026749D01*
X0038603Y0026773D01*
X0038773Y0026844D01*
X0038919Y0026956D01*
X0039031Y0027102D01*
X0039102Y0027272D01*
X0039126Y0027455D01*
X0039102Y0027638D01*
X0039031Y0027808D01*
X0038919Y0027954D01*
X0038845Y0028011D01*
Y0028169D01*
X0038919Y0028226D01*
X0039031Y0028372D01*
X0039102Y0028542D01*
X0039126Y0028725D01*
X0039121Y0028765D01*
X0039241Y0028824D01*
X0040318Y0027748D01*
X0040433Y002767D01*
X004057Y0027643D01*
X0041775D01*
X0041912Y002767D01*
X0042027Y0027748D01*
X0042447Y0028167D01*
X004275D01*
X0042906Y0028198D01*
X0043038Y0028287D01*
X0043127Y0028419D01*
X0043137Y0028468D01*
X0050669D01*
X0050708Y0028341D01*
X0050603Y0028272D01*
X0050482Y002809D01*
X0050439Y0027875D01*
X0050482Y002766D01*
X0050603Y0027478D01*
X0050785Y0027357D01*
X0051Y0027314D01*
X0051215Y0027357D01*
X0051397Y0027478D01*
X0051518Y002766D01*
X0051561Y0027875D01*
X0051518Y002809D01*
X0051397Y0028272D01*
X0051292Y0028341D01*
X0051331Y0028468D01*
X00547D01*
X0054837Y0028495D01*
X0054952Y0028573D01*
X0055569Y0029189D01*
X0055664Y0029105D01*
X0055644Y0029078D01*
X0055573Y0028908D01*
X0055549Y0028725D01*
X0055573Y0028542D01*
X0055644Y0028372D01*
X0055756Y0028226D01*
X005583Y0028169D01*
Y0028011D01*
X0055756Y0027954D01*
X0055644Y0027808D01*
X0055573Y0027638D01*
X0055549Y0027455D01*
X0055573Y0027272D01*
X0055644Y0027102D01*
X0055756Y0026956D01*
X0055902Y0026844D01*
X0056072Y0026773D01*
X0056255Y0026749D01*
X0056438Y0026773D01*
X0056608Y0026844D01*
X0056754Y0026956D01*
X0056811Y002703D01*
X0056959D01*
X0057454Y0027526D01*
X0057596Y0027384D01*
X0057106Y0026894D01*
X0057172Y0026844D01*
X0057342Y0026773D01*
X0057525Y0026749D01*
X0057708Y0026773D01*
X0057838Y0026827D01*
X0057819Y0026838D01*
X0057778Y0026858D01*
X0057732Y0026877D01*
X0057623Y0026915D01*
X0057561Y0026932D01*
X005742Y0026966D01*
X0058012Y0027341D01*
X0057999Y002728D01*
X0057991Y0027222D01*
X0057987Y0027168D01*
X0057988Y0027117D01*
X0057993Y002707D01*
X0058002Y0027026D01*
X0058016Y0026985D01*
X0058028Y0026961D01*
X0058081Y002703D01*
X0058239D01*
X0058296Y0026956D01*
X0058442Y0026844D01*
X0058612Y0026773D01*
X0058795Y0026749D01*
X0058978Y0026773D01*
X0059148Y0026844D01*
X0059294Y0026956D01*
X0059406Y0027102D01*
X0059477Y0027272D01*
X0059501Y0027455D01*
X0059477Y0027638D01*
X0059406Y0027808D01*
X0059294Y0027954D01*
X005922Y0028011D01*
Y0028169D01*
X0059294Y0028226D01*
X0059406Y0028372D01*
X0059477Y0028542D01*
X0059501Y0028725D01*
X0059477Y0028908D01*
X0059406Y0029078D01*
X0059294Y0029224D01*
X0059148Y0029336D01*
X0058978Y0029407D01*
X0058795Y0029431D01*
X0058612Y0029407D01*
X0058442Y0029336D01*
X0058296Y0029224D01*
X0058239Y002915D01*
X0058081D01*
X0058024Y0029224D01*
X0057878Y0029336D01*
X0057708Y0029407D01*
X0057525Y0029431D01*
X0057342Y0029407D01*
X0057172Y0029336D01*
X0057026Y0029224D01*
X0056969Y002915D01*
X0056811D01*
X0056754Y0029224D01*
X0056608Y0029336D01*
X0056438Y0029407D01*
X0056255Y0029431D01*
X0056072Y0029407D01*
X0055902Y0029336D01*
X0055875Y0029316D01*
X0055791Y0029412D01*
X0056415Y0030035D01*
X0056428Y0030045D01*
X0056442Y0030054D01*
X0056454Y003006D01*
X0056464Y0030065D01*
X0056473Y0030068D01*
X0056477Y0030069D01*
X00565Y0030064D01*
X0056715Y0030107D01*
X0056897Y0030228D01*
X0057018Y003041D01*
X0057061Y0030625D01*
X0057018Y003084D01*
X0056897Y0031022D01*
X0056715Y0031143D01*
X00565Y0031186D01*
X0056285Y0031143D01*
X0056103Y0031022D01*
X0055982Y003084D01*
X0055939Y0030625D01*
X0055944Y0030602D01*
X0055943Y0030598D01*
X005594Y0030589D01*
X0055935Y0030579D01*
X0055929Y0030567D01*
X005592Y0030553D01*
X005591Y003054D01*
X0054552Y0029182D01*
X0043137D01*
X0043127Y0029231D01*
X0043038Y0029363D01*
X0042957Y0029418D01*
Y0029552D01*
X004323Y0029825D01*
X0044825D01*
Y0029858D01*
X004485Y0029975D01*
X004615D01*
Y0030131D01*
X004635D01*
Y0029875D01*
X004785D01*
Y0030491D01*
X0047857Y0030525D01*
Y0030718D01*
X0048131D01*
X0048268Y0030745D01*
X0048384Y0030823D01*
X0048633Y0031072D01*
X004875Y0031023D01*
Y0030825D01*
X00494D01*
Y0031325D01*
X00495D01*
Y0031425D01*
X005025D01*
Y0031632D01*
X0052845D01*
X0052982Y0031659D01*
X0053097Y0031736D01*
X0053602Y0032241D01*
X005368Y0032357D01*
X0053707Y0032494D01*
Y0032768D01*
X005425D01*
X0054284Y0032775D01*
X00567D01*
Y0035475D01*
X0054284D01*
X005425Y0035482D01*
X005398D01*
X0053932Y0035599D01*
X0055601Y0037268D01*
X0063054D01*
X006319Y0037295D01*
X0063306Y0037373D01*
X0064403Y0038469D01*
X006448Y0038585D01*
X0064507Y0038722D01*
Y0043184D01*
X006448Y004332D01*
X0064403Y0043436D01*
X0063414Y0044424D01*
X0063299Y0044502D01*
X0063162Y0044529D01*
X00624D01*
Y0045625D01*
X00624Y0045625D01*
Y0046239D01*
X0062498Y0046319D01*
X0062553Y0046309D01*
X0062768Y0046351D01*
X0062949Y0046473D01*
X0063071Y0046655D01*
X0063114Y0046869D01*
X0063071Y0047084D01*
X0062949Y0047266D01*
X0062768Y0047387D01*
X0062553Y004743D01*
X0062498Y0047419D01*
X00624Y00475D01*
Y0047525D01*
D02*
G37*
G36*
X0034794Y0042843D02*
X0034612Y0042819D01*
X0034473Y0042762D01*
X0034492Y0042751D01*
X0034533Y0042731D01*
X003458Y0042712D01*
X0034688Y0042676D01*
X003475Y0042659D01*
X003489Y0042628D01*
X0034306Y0042243D01*
X0034317Y0042305D01*
X0034324Y0042363D01*
X0034327Y0042417D01*
X0034326Y0042468D01*
X0034321Y0042516D01*
X0034311Y0042561D01*
X0034297Y0042601D01*
X0034286Y0042624D01*
X0034238Y0042562D01*
X0034091D01*
X0033595Y0042067D01*
X0033454Y0042208D01*
X0033943Y0042698D01*
X0033877Y0042749D01*
X0033707Y0042819D01*
X0033524Y0042843D01*
X0033342Y0042819D01*
X0033171Y0042749D01*
X0033098Y0042693D01*
X0033115Y0042684D01*
X0033157Y0042668D01*
X0033203Y0042655D01*
X0033253Y0042645D01*
X0033307Y0042638D01*
X0033365Y0042634D01*
X0033427Y0042634D01*
X0033493Y0042636D01*
X0033025Y0042116D01*
X0033021Y0042186D01*
X0033006Y004231D01*
X0032995Y0042366D01*
X0032981Y0042417D01*
X0032966Y0042463D01*
X0032948Y0042505D01*
X0032928Y0042542D01*
X0032914Y0042562D01*
X0032811D01*
X0032754Y0042637D01*
X0032607Y0042749D01*
X0032437Y0042819D01*
X0032254Y0042843D01*
X0032072Y0042819D01*
X0031901Y0042749D01*
X0031755Y0042637D01*
X0031643Y004249D01*
X0031572Y004232D01*
X0031548Y0042137D01*
X0031572Y0041955D01*
X0031643Y0041784D01*
X0031755Y0041638D01*
X0031829Y0041581D01*
Y0041424D01*
X0031755Y0041367D01*
X0031643Y004122D01*
X0031572Y004105D01*
X0031548Y0040867D01*
X0031572Y0040685D01*
X0031643Y0040514D01*
X0031755Y0040368D01*
X0031901Y0040256D01*
X0032072Y0040185D01*
X0032254Y0040161D01*
X0032437Y0040185D01*
X0032607Y0040256D01*
X0032754Y0040368D01*
X0032811Y0040442D01*
X0032958D01*
X0033454Y0040938D01*
X0033595Y0040797D01*
X0033105Y0040307D01*
X0033171Y0040256D01*
X0033342Y0040185D01*
X0033524Y0040161D01*
X0033707Y0040185D01*
X0033877Y0040256D01*
X0033951Y0040312D01*
X0033928Y0040324D01*
X0033887Y0040341D01*
X0033843Y0040354D01*
X0033795Y0040364D01*
X0033743Y004037D01*
X0033688Y0040373D01*
X0033629Y0040373D01*
X0033567Y0040369D01*
X0034024Y0040872D01*
X0034026Y0040807D01*
X0034038Y004069D01*
X0034048Y0040637D01*
X0034061Y0040588D01*
X0034077Y0040542D01*
X0034095Y0040501D01*
X0034116Y0040463D01*
X0034131Y0040442D01*
X0034228D01*
X0034724Y0040938D01*
X0035219Y0041434D01*
Y0041581D01*
X0035294Y0041638D01*
X0035406Y0041784D01*
X0035476Y0041955D01*
X00355Y0042137D01*
X0035476Y004232D01*
X0035406Y004249D01*
X0035355Y0042557D01*
X0034865Y0042067D01*
X0034724Y0042208D01*
X0035213Y0042698D01*
X0035147Y0042749D01*
X0034977Y0042819D01*
X0034794Y0042843D01*
D02*
G37*
G36*
X0035355Y0041287D02*
X0034865Y0040797D01*
X0034375Y0040307D01*
X0034441Y0040256D01*
X0034612Y0040185D01*
X0034794Y0040161D01*
X0034977Y0040185D01*
X0035147Y0040256D01*
X0035294Y0040368D01*
X0035406Y0040514D01*
X0035476Y0040685D01*
X00355Y0040867D01*
X0035476Y004105D01*
X0035406Y004122D01*
X0035355Y0041287D01*
D02*
G37*
G36*
X0032254Y0039686D02*
X003204Y0039643D01*
X0031858Y0039522D01*
X0031736Y003934D01*
X0031693Y0039125D01*
X0031736Y003891D01*
X0031858Y0038728D01*
X003204Y0038607D01*
X0032254Y0038564D01*
X0032469Y0038607D01*
X0032651Y0038728D01*
X0032772Y003891D01*
X0032815Y0039125D01*
X0032772Y003934D01*
X0032651Y0039522D01*
X0032469Y0039643D01*
X0032254Y0039686D01*
D02*
G37*
G36*
X003375Y0035436D02*
X0033535Y0035393D01*
X0033353Y0035272D01*
X0033232Y003509D01*
X0033189Y0034875D01*
X0033232Y003466D01*
X0033353Y0034478D01*
X0033535Y0034357D01*
X003375Y0034314D01*
X0033965Y0034357D01*
X0034147Y0034478D01*
X0034268Y003466D01*
X0034311Y0034875D01*
X0034268Y003509D01*
X0034147Y0035272D01*
X0033965Y0035393D01*
X003375Y0035436D01*
D02*
G37*
G36*
X005025Y0031225D02*
X00496D01*
Y0030825D01*
X005025D01*
Y0031225D01*
D02*
G37*
G36*
X0048725Y0030686D02*
X004851Y0030643D01*
X0048328Y0030522D01*
X0048207Y003034D01*
X0048164Y0030125D01*
X0048207Y002991D01*
X0048328Y0029728D01*
X004851Y0029607D01*
X0048725Y0029564D01*
X004894Y0029607D01*
X0049122Y0029728D01*
X0049243Y002991D01*
X0049286Y0030125D01*
X0049243Y003034D01*
X0049122Y0030522D01*
X004894Y0030643D01*
X0048725Y0030686D01*
D02*
G37*
%LPD*%
G36*
X0039982Y0045128D02*
X0039948Y0045088D01*
X0039918Y0045048D01*
X0039892Y0045007D01*
X003987Y0044965D01*
X0039852Y0044923D01*
X0039838Y004488D01*
X0039828Y0044836D01*
X0039822Y0044793D01*
X003982Y0044748D01*
X003952D01*
X0039518Y0044793D01*
X0039512Y0044836D01*
X0039502Y004488D01*
X0039488Y0044923D01*
X003947Y0044965D01*
X0039448Y0045007D01*
X0039422Y0045048D01*
X0039392Y0045088D01*
X0039358Y0045128D01*
X003932Y0045168D01*
X004002D01*
X0039982Y0045128D01*
D02*
G37*
G36*
X0040051Y003626D02*
X0040054Y0036226D01*
X0040059Y0036194D01*
X0040065Y0036164D01*
X0040074Y0036135D01*
X0040084Y0036109D01*
X0040097Y0036084D01*
X0040111Y0036061D01*
X0040127Y0036039D01*
X0040145Y003602D01*
X0039655D01*
X0039673Y0036039D01*
X0039689Y0036061D01*
X0039703Y0036084D01*
X0039716Y0036109D01*
X0039726Y0036135D01*
X0039735Y0036164D01*
X0039741Y0036194D01*
X0039746Y0036226D01*
X0039749Y003626D01*
X003975Y0036296D01*
X004005D01*
X0040051Y003626D01*
D02*
G37*
G36*
X0062303Y0046624D02*
X0062283Y0046642D01*
X0062262Y0046659D01*
X0062239Y0046673D01*
X0062214Y0046685D01*
X0062187Y0046696D01*
X0062159Y0046704D01*
X0062129Y0046711D01*
X0062096Y0046716D01*
X0062062Y0046718D01*
X0062027Y0046719D01*
Y0047019D01*
X0062062Y004702D01*
X0062096Y0047023D01*
X0062129Y0047028D01*
X0062159Y0047035D01*
X0062187Y0047043D01*
X0062214Y0047054D01*
X0062239Y0047066D01*
X0062262Y004708D01*
X0062283Y0047096D01*
X0062303Y0047114D01*
Y0046624D01*
D02*
G37*
G36*
X0035325Y0045618D02*
X0035295Y0045585D01*
X0035269Y004555D01*
X0035245Y0045512D01*
X0035225Y0045472D01*
X0035207Y004543D01*
X0035194Y0045385D01*
X0035183Y0045337D01*
X0035175Y0045287D01*
X0035171Y0045235D01*
X003517Y004518D01*
X0034675Y0045675D01*
X003473Y0045676D01*
X0034782Y004568D01*
X0034832Y0045688D01*
X003488Y0045699D01*
X0034925Y0045712D01*
X0034967Y004573D01*
X0035007Y004575D01*
X0035045Y0045774D01*
X003508Y00458D01*
X0035113Y004583D01*
X0035325Y0045618D01*
D02*
G37*
G36*
X0057712Y0045128D02*
X0057678Y0045088D01*
X0057648Y0045048D01*
X0057622Y0045007D01*
X00576Y0044965D01*
X0057582Y0044923D01*
X0057568Y004488D01*
X0057558Y0044836D01*
X0057552Y0044793D01*
X005755Y0044748D01*
X005725D01*
X0057248Y0044793D01*
X0057242Y0044836D01*
X0057232Y004488D01*
X0057218Y0044923D01*
X00572Y0044965D01*
X0057178Y0045007D01*
X0057152Y0045048D01*
X0057122Y0045088D01*
X0057088Y0045128D01*
X005705Y0045168D01*
X005775D01*
X0057712Y0045128D01*
D02*
G37*
G36*
X0062849Y0042889D02*
X0062856Y004285D01*
X0062869Y0042809D01*
X0062886Y0042768D01*
X0062909Y0042725D01*
X0062936Y0042681D01*
X0062969Y0042636D01*
X0063006Y004259D01*
X0063096Y0042494D01*
X0062396D01*
X0062444Y0042543D01*
X0062524Y0042636D01*
X0062556Y0042681D01*
X0062584Y0042725D01*
X0062606Y0042768D01*
X0062624Y0042809D01*
X0062636Y004285D01*
X0062644Y0042889D01*
X0062646Y0042927D01*
X0062846D01*
X0062849Y0042889D01*
D02*
G37*
G36*
X0044806Y0041852D02*
X004483Y0041825D01*
X0044855Y0041802D01*
X0044881Y0041781D01*
X0044908Y0041764D01*
X0044936Y004175D01*
X0044965Y0041739D01*
X0044994Y0041731D01*
X0045025Y0041727D01*
X0045056Y0041725D01*
X0045026Y0041525D01*
X0044997Y0041524D01*
X0044967Y004152D01*
X0044937Y0041513D01*
X0044906Y0041504D01*
X0044875Y0041493D01*
X0044843Y0041479D01*
X0044811Y0041462D01*
X0044779Y0041443D01*
X0044712Y0041397D01*
X0044782Y0041882D01*
X0044806Y0041852D01*
D02*
G37*
G36*
X0059513Y0042233D02*
X00595Y0042137D01*
X0059524Y0041955D01*
X0059595Y0041784D01*
X0059707Y0041638D01*
X0059781Y0041581D01*
Y0041424D01*
X0059707Y0041367D01*
X0059595Y004122D01*
X0059524Y004105D01*
X00595Y0040867D01*
X0059524Y0040685D01*
X0059595Y0040514D01*
X0059707Y0040368D01*
X005972Y0040358D01*
X0059677Y0040231D01*
X0058927D01*
X0057965Y0041192D01*
X0058018Y0041319D01*
X0058293D01*
X0058293Y0041319D01*
X005841Y0041342D01*
X0058509Y0041409D01*
X0059393Y0042292D01*
X0059513Y0042233D01*
D02*
G37*
G36*
X0043882Y0041242D02*
X0043911Y0041218D01*
X004394Y0041196D01*
X0043969Y0041177D01*
X0043999Y0041161D01*
X0044028Y0041148D01*
X0044058Y0041138D01*
X0044088Y0041131D01*
X0044119Y0041126D01*
X0044149Y0041125D01*
Y0040925D01*
X0044119Y0040924D01*
X0044088Y0040919D01*
X0044058Y0040912D01*
X0044028Y0040902D01*
X0043999Y0040889D01*
X0043969Y0040873D01*
X004394Y0040854D01*
X0043911Y0040832D01*
X0043882Y0040808D01*
X0043854Y004078D01*
Y004127D01*
X0043882Y0041242D01*
D02*
G37*
G36*
X0063049Y0040462D02*
X0062969Y0040368D01*
X0062936Y0040323D01*
X0062909Y0040279D01*
X0062886Y0040237D01*
X0062869Y0040195D01*
X0062856Y0040155D01*
X0062849Y0040116D01*
X0062846Y0040077D01*
X0062646D01*
X0062644Y0040116D01*
X0062636Y0040155D01*
X0062624Y0040195D01*
X0062606Y0040237D01*
X0062584Y0040279D01*
X0062556Y0040323D01*
X0062524Y0040368D01*
X0062486Y0040415D01*
X0062396Y004051D01*
X0063096D01*
X0063049Y0040462D01*
D02*
G37*
G36*
X0046097Y0038675D02*
X0046057Y0038674D01*
X0046019Y0038671D01*
X0045983Y0038666D01*
X0045949Y0038659D01*
X0045917Y0038649D01*
X0045887Y0038638D01*
X0045859Y0038624D01*
X0045832Y0038608D01*
X0045808Y0038589D01*
X0045785Y0038569D01*
X0045644Y003871D01*
X0045664Y0038733D01*
X0045683Y0038757D01*
X0045699Y0038784D01*
X0045713Y0038812D01*
X0045724Y0038842D01*
X0045734Y0038874D01*
X0045741Y0038908D01*
X0045746Y0038944D01*
X0045749Y0038982D01*
X004575Y0039021D01*
X0046097Y0038675D01*
D02*
G37*
G36*
X003745Y003738D02*
X0037431Y0037398D01*
X0037409Y0037414D01*
X0037386Y0037428D01*
X0037361Y0037441D01*
X0037334Y0037451D01*
X0037306Y003746D01*
X0037276Y0037466D01*
X0037243Y0037471D01*
X0037209Y0037474D01*
X0037174Y0037475D01*
Y0037775D01*
X0037209Y0037776D01*
X0037243Y0037779D01*
X0037276Y0037784D01*
X0037306Y003779D01*
X0037334Y0037799D01*
X0037361Y0037809D01*
X0037386Y0037822D01*
X0037409Y0037836D01*
X0037431Y0037852D01*
X003745Y003787D01*
Y003738D01*
D02*
G37*
G36*
X0035769Y0037852D02*
X0035791Y0037836D01*
X0035814Y0037822D01*
X0035839Y0037809D01*
X0035866Y0037799D01*
X0035894Y003779D01*
X0035924Y0037784D01*
X0035957Y0037779D01*
X0035991Y0037776D01*
X0036026Y0037775D01*
Y0037475D01*
X0035991Y0037474D01*
X0035957Y0037471D01*
X0035924Y0037466D01*
X0035894Y003746D01*
X0035866Y0037451D01*
X0035839Y0037441D01*
X0035814Y0037428D01*
X0035791Y0037414D01*
X0035769Y0037398D01*
X003575Y003738D01*
Y003787D01*
X0035769Y0037852D01*
D02*
G37*
G36*
X0037927Y0037356D02*
X0037911Y0037334D01*
X0037897Y0037311D01*
X0037884Y0037286D01*
X0037874Y0037259D01*
X0037865Y0037231D01*
X0037859Y0037201D01*
X0037854Y0037168D01*
X0037851Y0037135D01*
X003785Y0037099D01*
X003755D01*
X0037549Y0037135D01*
X0037546Y0037168D01*
X0037541Y0037201D01*
X0037535Y0037231D01*
X0037526Y0037259D01*
X0037516Y0037286D01*
X0037503Y0037311D01*
X0037489Y0037334D01*
X0037473Y0037356D01*
X0037455Y0037375D01*
X0037945D01*
X0037927Y0037356D01*
D02*
G37*
G36*
X0043538Y0033775D02*
X0043498Y0033774D01*
X004346Y0033771D01*
X0043424Y0033766D01*
X0043391Y0033759D01*
X0043358Y0033749D01*
X0043328Y0033738D01*
X00433Y0033724D01*
X0043273Y0033708D01*
X0043249Y0033689D01*
X0043226Y0033669D01*
X0043085Y003381D01*
X0043105Y0033833D01*
X0043124Y0033857D01*
X004314Y0033884D01*
X0043154Y0033912D01*
X0043166Y0033942D01*
X0043175Y0033974D01*
X0043183Y0034008D01*
X0043188Y0034044D01*
X0043191Y0034082D01*
X0043191Y0034121D01*
X0043538Y0033775D01*
D02*
G37*
G36*
X003825Y003338D02*
X0038231Y0033398D01*
X0038209Y0033414D01*
X0038186Y0033428D01*
X0038161Y0033441D01*
X0038134Y0033451D01*
X0038106Y003346D01*
X0038076Y0033466D01*
X0038043Y0033471D01*
X0038009Y0033474D01*
X0037974Y0033475D01*
Y0033775D01*
X0038009Y0033776D01*
X0038043Y0033779D01*
X0038076Y0033784D01*
X0038106Y003379D01*
X0038134Y0033799D01*
X0038161Y0033809D01*
X0038186Y0033822D01*
X0038209Y0033836D01*
X0038231Y0033852D01*
X003825Y003387D01*
Y003338D01*
D02*
G37*
G36*
X0044Y003323D02*
X0043972Y0033258D01*
X0043943Y0033282D01*
X0043914Y0033304D01*
X0043885Y0033323D01*
X0043855Y0033339D01*
X0043825Y0033352D01*
X0043796Y0033362D01*
X0043765Y0033369D01*
X0043735Y0033374D01*
X0043705Y0033375D01*
Y0033575D01*
X0043735Y0033576D01*
X0043765Y0033581D01*
X0043796Y0033588D01*
X0043825Y0033598D01*
X0043855Y0033611D01*
X0043885Y0033627D01*
X0043914Y0033646D01*
X0043943Y0033668D01*
X0043972Y0033692D01*
X0044Y003372D01*
Y003323D01*
D02*
G37*
G36*
X0053187Y0034986D02*
X00533Y0034873D01*
X0053416Y0034795D01*
X0053553Y0034768D01*
X00538D01*
Y0033482D01*
X0053526D01*
X0053389Y0033455D01*
X0053273Y0033377D01*
X00531Y0033204D01*
X0052927Y0033377D01*
X0052811Y0033455D01*
X0052674Y0033482D01*
X00524D01*
Y0034768D01*
X0052647D01*
X0052784Y0034795D01*
X00529Y0034873D01*
X0053013Y0034986D01*
X00531Y0035035D01*
X0053187Y0034986D01*
D02*
G37*
G36*
X0035151Y0032616D02*
X0035154Y0032582D01*
X0035159Y0032549D01*
X0035165Y0032519D01*
X0035174Y0032491D01*
X0035184Y0032464D01*
X0035197Y0032439D01*
X0035211Y0032416D01*
X0035227Y0032394D01*
X0035245Y0032375D01*
X0034755D01*
X0034773Y0032394D01*
X0034789Y0032416D01*
X0034803Y0032439D01*
X0034816Y0032464D01*
X0034826Y0032491D01*
X0034835Y0032519D01*
X0034841Y0032549D01*
X0034846Y0032582D01*
X0034849Y0032616D01*
X003485Y0032651D01*
X003515D01*
X0035151Y0032616D01*
D02*
G37*
G36*
X0042975Y0032257D02*
Y0031775D01*
Y0030532D01*
X0042963Y003053D01*
X0042848Y0030452D01*
X0042348Y0029952D01*
X004227Y0029837D01*
X0042243Y00297D01*
Y0029462D01*
X0042194Y0029452D01*
X0042062Y0029363D01*
X0041973Y0029231D01*
X0041965Y0029189D01*
X0041835D01*
X0041827Y0029231D01*
X0041738Y0029363D01*
X0041606Y0029452D01*
X004145Y0029483D01*
X004135D01*
Y0028825D01*
X004125D01*
Y0028725D01*
X0040642D01*
Y0028612D01*
X0040548Y002856D01*
X0040519Y0028556D01*
X0039367Y0029708D01*
X0039416Y0029825D01*
X0040425D01*
Y0030594D01*
X004102D01*
X004102Y0030594D01*
X0041137Y0030617D01*
X0041236Y0030684D01*
X0042858Y0032305D01*
X0042975Y0032257D01*
D02*
G37*
G36*
X0056496Y0030275D02*
X005647Y0030274D01*
X0056443Y003027D01*
X0056417Y0030264D01*
X0056391Y0030255D01*
X0056364Y0030244D01*
X0056338Y003023D01*
X0056312Y0030213D01*
X0056286Y0030193D01*
X005626Y0030171D01*
X0056234Y0030147D01*
X0056022Y0030359D01*
X0056046Y0030385D01*
X0056068Y0030411D01*
X0056088Y0030437D01*
X0056105Y0030463D01*
X0056119Y0030489D01*
X005613Y0030516D01*
X0056139Y0030542D01*
X0056145Y0030568D01*
X0056149Y0030595D01*
X005615Y0030622D01*
X0056496Y0030275D01*
D02*
G37*
%LPC*%
G36*
X004115Y0029483D02*
X004105D01*
X0040894Y0029452D01*
X0040762Y0029363D01*
X0040673Y0029231D01*
X0040642Y0029075D01*
Y0028925D01*
X004115D01*
Y0029483D01*
D02*
G37*
%LPD*%
D13*
X0034794Y0042137D02*
Y004228D01*
X00343Y0042774D02*
X0034794Y004228D01*
X00343Y0042774D02*
Y0042925D01*
X00329Y0042725D02*
X0033488Y0042137D01*
X0033524D01*
X0033558Y0040867D02*
X00341Y0040325D01*
X0033524Y0040867D02*
X0033558D01*
X003967Y0046795D02*
Y0046855D01*
X00391Y0047425D02*
X003967Y0046855D01*
X0057525Y00273D02*
Y0027455D01*
Y00273D02*
X00581Y0026725D01*
X00429Y00322D02*
X00439D01*
X0040125Y0032225D02*
Y0032725D01*
X0045321Y0037921D02*
Y0038246D01*
X0040125Y0032725D02*
X0045321Y0037921D01*
X00401Y00322D02*
X0040125Y0032225D01*
X0058293Y0041625D02*
X0059835Y0043168D01*
X004455Y0041625D02*
X0058293D01*
X00577Y0041025D02*
X00588Y0039925D01*
X0062629D01*
X0043604Y0041025D02*
X00577D01*
X00445Y0041675D02*
X004455Y0041625D01*
X0062629Y0043168D02*
X0062746Y0043051D01*
X0062629Y0039925D02*
X0062746Y0040042D01*
Y0040867D01*
X0059835Y0043168D02*
X0062629D01*
X0062746Y0042137D02*
Y0043051D01*
X0040966Y003155D02*
X0043541Y0034125D01*
X004Y003155D02*
X0040966D01*
X0043595Y0033475D02*
X004425D01*
X004102Y00309D02*
X0043595Y0033475D01*
X0045321Y0038246D02*
X00461Y0039025D01*
X004Y00309D02*
X004102D01*
D15*
X00617Y0046875D02*
D03*
Y0045175D02*
D03*
D18*
X005705Y0043625D02*
D03*
X005875D02*
D03*
D33*
X004255Y0028825D02*
D03*
X004125D02*
D03*
D36*
X00455Y0031875D02*
D03*
Y0030575D02*
D03*
D37*
X00439Y003025D02*
D03*
Y00309D02*
D03*
Y003155D02*
D03*
Y00322D02*
D03*
X00395D02*
D03*
Y003155D02*
D03*
Y00309D02*
D03*
Y003025D02*
D03*
D46*
X00495Y0031325D02*
D03*
X00471Y0032275D02*
D03*
Y0030375D02*
D03*
D47*
X0041775Y0028D02*
X00426Y0028825D01*
X0038995Y0029575D02*
X004057Y0028D01*
X0041775D01*
X00547Y0028825D02*
X00565Y0030625D01*
X0038425Y002988D02*
Y002988D01*
X00375Y0030805D02*
Y0033625D01*
Y0030805D02*
X0038425Y002988D01*
X003873Y0029575D02*
X0038995D01*
X0038425Y002988D02*
X003873Y0029575D01*
X006066Y0043975D02*
X0061017Y0043618D01*
X0061071Y0044348D02*
Y0044596D01*
X0063596Y0038951D02*
Y0042954D01*
X0062933Y0043618D02*
X0063596Y0042954D01*
X005875Y0043675D02*
X005905Y0043975D01*
X0061247Y0044172D02*
X0063162D01*
X0061017Y0043618D02*
X0062933D01*
X005875Y0043625D02*
Y0043675D01*
X0061071Y0044348D02*
X0061247Y0044172D01*
X005905Y0043975D02*
X006066D01*
X0063162Y0044172D02*
X006415Y0043184D01*
X0061071Y0044596D02*
X006165Y0045175D01*
X006415Y0038722D02*
Y0043184D01*
X0062824Y0038179D02*
X0063596Y0038951D01*
X0063054Y0037625D02*
X006415Y0038722D01*
X003679Y0041102D02*
Y0045527D01*
X00348Y0033625D02*
Y0039112D01*
X003679Y0041102D01*
X00399Y003577D02*
Y0040185D01*
X003967Y0040415D02*
X00399Y0040185D01*
X00617Y0046875D02*
X0061706Y0046869D01*
X0062553D01*
X003967Y0040415D02*
Y0045525D01*
X00375Y0036166D02*
X00377Y0036366D01*
X00375Y0033625D02*
Y0036166D01*
X00377Y0036366D02*
Y0037625D01*
X00574Y0044519D02*
Y0045525D01*
X0057086Y0044205D02*
X00574Y0044519D01*
X0057086Y0043661D02*
Y0044205D01*
X005705Y0043625D02*
X0057086Y0043661D01*
X006165Y0045175D02*
X00617D01*
X00355Y0037625D02*
X00377D01*
X00348Y0033625D02*
X0035Y0033425D01*
Y0032125D02*
Y0033425D01*
X003467Y0045175D02*
X003552Y0046025D01*
X0036292D02*
X003679Y0045527D01*
X003552Y0046025D02*
X0036292D01*
X00375Y0033625D02*
X00385D01*
X0045077Y0030948D02*
X0045537Y0030488D01*
X0045077Y0031502D02*
X00457Y0032125D01*
X004695D01*
X00471Y0032275D01*
X0045537Y0030488D02*
X0046987D01*
X00471Y0030375D01*
X00426Y0028825D02*
X00547D01*
X00426D02*
Y00297D01*
X00431Y00302D01*
X004375D01*
X0048131Y0031075D02*
X00486Y0031544D01*
X0047676Y0031075D02*
X0048131D01*
X00481Y0031751D02*
Y0031977D01*
X0047924Y0031575D02*
X00481Y0031751D01*
X0047676Y0031575D02*
X0047924D01*
X00475Y0031751D02*
X0047676Y0031575D01*
X00486Y003177D02*
X0048819Y0031989D01*
X00486Y0031544D02*
Y003177D01*
X0048612Y0032489D02*
X0052638D01*
X00481Y0031977D02*
X0048612Y0032489D01*
X0052845Y0031989D02*
X005335Y0032494D01*
X0048819Y0031989D02*
X0052845D01*
X005285Y0032701D02*
Y0032949D01*
X0052638Y0032489D02*
X005285Y0032701D01*
X005335Y0032949D02*
X0053526Y0033125D01*
X005335Y0032494D02*
Y0032949D01*
X006165Y0046875D02*
X00617D01*
X00574Y0046795D02*
X0057534Y0046929D01*
X0055223Y0038179D02*
X0062824D01*
X0055453Y0037625D02*
X0063054D01*
X005095Y0034125D02*
X005195Y0035125D01*
X0053377Y0035301D02*
Y0035549D01*
X0052823Y0035779D02*
X0055223Y0038179D01*
X0052823Y0035301D02*
Y0035779D01*
X0053377Y0035301D02*
X0053553Y0035125D01*
X005425D01*
X005525Y0034125D01*
X0052647Y0035125D02*
X0052823Y0035301D01*
X005195Y0035125D02*
X0052647D01*
X0053377Y0035549D02*
X0055453Y0037625D01*
X004735Y0032275D02*
X00475Y0032125D01*
Y0031751D02*
Y0032125D01*
X0052674Y0033125D02*
X005285Y0032949D01*
X005195Y0033125D02*
X0052674D01*
X005095Y0034125D02*
X005195Y0033125D01*
X00471Y0030375D02*
X004735D01*
X00475Y0030525D01*
Y0030899D01*
X0047676Y0031075D01*
X00471Y0032275D02*
X004735D01*
X0053526Y0033125D02*
X005425D01*
X005525Y0034125D01*
X0043848Y0031502D02*
X0045077D01*
X00438Y00309D02*
X0043848Y0030948D01*
X0045077D01*
D49*
X0060206Y0042137D02*
D03*
Y0040867D02*
D03*
X0061476Y0042137D02*
D03*
Y0040867D02*
D03*
X0062746Y0042137D02*
D03*
Y0040867D02*
D03*
X0032254Y0042137D02*
D03*
Y0040867D02*
D03*
X0033524Y0042137D02*
D03*
Y0040867D02*
D03*
X0034794Y0042137D02*
D03*
Y0040867D02*
D03*
X005994Y0046795D02*
D03*
Y0045525D02*
D03*
X005867Y0046795D02*
D03*
Y0045525D02*
D03*
X00574Y0046795D02*
D03*
Y0045525D02*
D03*
X004094Y0046795D02*
D03*
Y0045525D02*
D03*
X003967Y0046795D02*
D03*
Y0045525D02*
D03*
X00384Y0046795D02*
D03*
Y0045525D02*
D03*
X003588Y0027455D02*
D03*
Y0028725D02*
D03*
X003715Y0027455D02*
D03*
Y0028725D02*
D03*
X003842Y0027455D02*
D03*
Y0028725D02*
D03*
X0056255Y0027455D02*
D03*
Y0028725D02*
D03*
X0057525Y0027455D02*
D03*
Y0028725D02*
D03*
X0058795Y0027455D02*
D03*
Y0028725D02*
D03*
X003594Y0043905D02*
D03*
Y0045175D02*
D03*
X00334D02*
D03*
X003467D02*
D03*
X00334Y0043905D02*
D03*
X003467D02*
D03*
D50*
X006325Y0026975D02*
D03*
X003375D02*
D03*
Y0029975D02*
D03*
X005005Y0046873D02*
D03*
X0043Y0046795D02*
D03*
X00461Y0046873D02*
D03*
Y0043925D02*
D03*
X005005Y0042775D02*
D03*
X005845Y0036625D02*
D03*
X006175D02*
D03*
Y00391D02*
D03*
X0060625Y0028725D02*
D03*
Y0030625D02*
D03*
X00564Y0039675D02*
D03*
X005005Y0039775D02*
D03*
X0052Y0036025D02*
D03*
X005005D02*
D03*
X00483Y0033175D02*
D03*
X003715Y0029975D02*
D03*
X00412Y0026975D02*
D03*
X004975D02*
D03*
Y0029625D02*
D03*
X0052575Y0026975D02*
D03*
Y0029625D02*
D03*
X00412Y0029975D02*
D03*
X00456Y0033475D02*
D03*
X00565Y0030625D02*
D03*
X0032254Y0039125D02*
D03*
X00445Y0041675D02*
D03*
X004675Y0038225D02*
D03*
X00399Y003577D02*
D03*
X0054949Y0046873D02*
D03*
X0062553Y0046869D02*
D03*
X00431Y0037625D02*
D03*
X0043604Y0041025D02*
D03*
X003375Y0034875D02*
D03*
X00377Y0037625D02*
D03*
X00355D02*
D03*
X00385Y0033625D02*
D03*
X0048725Y0030125D02*
D03*
X004425Y0033475D02*
D03*
X0051Y0027875D02*
D03*
X0043541Y0034125D02*
D03*
X00461Y0039025D02*
D03*
X0035Y0032125D02*
D03*
D51*
X0043Y0043925D02*
D03*
D52*
X005095Y0034125D02*
D03*
X005525D02*
D03*
M02*
